%TF.GenerationSoftware,Altium Limited,Altium Designer,19.0.15 (446)*%
G04 Layer_Physical_Order=1*
G04 Layer_Color=794757*
%FSLAX45Y45*%
%MOMM*%
%TF.FileFunction,Copper,L1,Top,Signal*%
%TF.Part,Single*%
G01*
G75*
%TA.AperFunction,SMDPad,CuDef*%
%ADD10R,3.43000X1.27000*%
%TA.AperFunction,ConnectorPad*%
%ADD11R,0.60000X0.75000*%
%TA.AperFunction,SMDPad,CuDef*%
%ADD12R,0.60000X0.75000*%
%ADD13R,0.64000X0.60000*%
%ADD14R,0.60000X0.64000*%
%ADD15R,0.75000X0.60000*%
%ADD16R,1.20000X1.20000*%
%ADD17R,0.85000X0.95000*%
%ADD18R,0.27000X0.17000*%
%ADD19R,0.17000X0.52000*%
%ADD20R,1.30000X1.40000*%
%ADD21R,0.90000X1.00000*%
G04:AMPARAMS|DCode=22|XSize=0.6mm|YSize=0.2mm|CornerRadius=0.04mm|HoleSize=0mm|Usage=FLASHONLY|Rotation=90.000|XOffset=0mm|YOffset=0mm|HoleType=Round|Shape=RoundedRectangle|*
%AMROUNDEDRECTD22*
21,1,0.60000,0.12000,0,0,90.0*
21,1,0.52000,0.20000,0,0,90.0*
1,1,0.08000,0.06000,0.26000*
1,1,0.08000,0.06000,-0.26000*
1,1,0.08000,-0.06000,-0.26000*
1,1,0.08000,-0.06000,0.26000*
%
%ADD22ROUNDEDRECTD22*%
G04:AMPARAMS|DCode=23|XSize=0.2mm|YSize=0.6mm|CornerRadius=0.04mm|HoleSize=0mm|Usage=FLASHONLY|Rotation=90.000|XOffset=0mm|YOffset=0mm|HoleType=Round|Shape=RoundedRectangle|*
%AMROUNDEDRECTD23*
21,1,0.20000,0.52000,0,0,90.0*
21,1,0.12000,0.60000,0,0,90.0*
1,1,0.08000,0.26000,0.06000*
1,1,0.08000,0.26000,-0.06000*
1,1,0.08000,-0.26000,-0.06000*
1,1,0.08000,-0.26000,0.06000*
%
%ADD23ROUNDEDRECTD23*%
G04:AMPARAMS|DCode=24|XSize=2.72mm|YSize=2.65mm|CornerRadius=0.06625mm|HoleSize=0mm|Usage=FLASHONLY|Rotation=90.000|XOffset=0mm|YOffset=0mm|HoleType=Round|Shape=RoundedRectangle|*
%AMROUNDEDRECTD24*
21,1,2.72000,2.51750,0,0,90.0*
21,1,2.58750,2.65000,0,0,90.0*
1,1,0.13250,1.25875,1.29375*
1,1,0.13250,1.25875,-1.29375*
1,1,0.13250,-1.25875,-1.29375*
1,1,0.13250,-1.25875,1.29375*
%
%ADD24ROUNDEDRECTD24*%
G04:AMPARAMS|DCode=25|XSize=1.53mm|YSize=2.65mm|CornerRadius=0.03825mm|HoleSize=0mm|Usage=FLASHONLY|Rotation=90.000|XOffset=0mm|YOffset=0mm|HoleType=Round|Shape=RoundedRectangle|*
%AMROUNDEDRECTD25*
21,1,1.53000,2.57350,0,0,90.0*
21,1,1.45350,2.65000,0,0,90.0*
1,1,0.07650,1.28675,0.72675*
1,1,0.07650,1.28675,-0.72675*
1,1,0.07650,-1.28675,-0.72675*
1,1,0.07650,-1.28675,0.72675*
%
%ADD25ROUNDEDRECTD25*%
G04:AMPARAMS|DCode=26|XSize=0.7mm|YSize=1.253mm|CornerRadius=0.0875mm|HoleSize=0mm|Usage=FLASHONLY|Rotation=90.000|XOffset=0mm|YOffset=0mm|HoleType=Round|Shape=RoundedRectangle|*
%AMROUNDEDRECTD26*
21,1,0.70000,1.07800,0,0,90.0*
21,1,0.52500,1.25300,0,0,90.0*
1,1,0.17500,0.53900,0.26250*
1,1,0.17500,0.53900,-0.26250*
1,1,0.17500,-0.53900,-0.26250*
1,1,0.17500,-0.53900,0.26250*
%
%ADD26ROUNDEDRECTD26*%
G04:AMPARAMS|DCode=27|XSize=0.7mm|YSize=0.7mm|CornerRadius=0.0875mm|HoleSize=0mm|Usage=FLASHONLY|Rotation=90.000|XOffset=0mm|YOffset=0mm|HoleType=Round|Shape=RoundedRectangle|*
%AMROUNDEDRECTD27*
21,1,0.70000,0.52500,0,0,90.0*
21,1,0.52500,0.70000,0,0,90.0*
1,1,0.17500,0.26250,0.26250*
1,1,0.17500,0.26250,-0.26250*
1,1,0.17500,-0.26250,-0.26250*
1,1,0.17500,-0.26250,0.26250*
%
%ADD27ROUNDEDRECTD27*%
%ADD28R,1.20000X1.65000*%
%TA.AperFunction,ConnectorPad*%
%ADD29R,0.95000X0.85000*%
%TA.AperFunction,SMDPad,CuDef*%
%ADD30R,0.17000X0.27000*%
%ADD31R,0.52000X0.17000*%
G04:AMPARAMS|DCode=32|XSize=0.2mm|YSize=0.2mm|CornerRadius=0.05mm|HoleSize=0mm|Usage=FLASHONLY|Rotation=0.000|XOffset=0mm|YOffset=0mm|HoleType=Round|Shape=RoundedRectangle|*
%AMROUNDEDRECTD32*
21,1,0.20000,0.10000,0,0,0.0*
21,1,0.10000,0.20000,0,0,0.0*
1,1,0.10000,0.05000,-0.05000*
1,1,0.10000,-0.05000,-0.05000*
1,1,0.10000,-0.05000,0.05000*
1,1,0.10000,0.05000,0.05000*
%
%ADD32ROUNDEDRECTD32*%
G04:AMPARAMS|DCode=33|XSize=1.97mm|YSize=0.6mm|CornerRadius=0.075mm|HoleSize=0mm|Usage=FLASHONLY|Rotation=0.000|XOffset=0mm|YOffset=0mm|HoleType=Round|Shape=RoundedRectangle|*
%AMROUNDEDRECTD33*
21,1,1.97000,0.45000,0,0,0.0*
21,1,1.82000,0.60000,0,0,0.0*
1,1,0.15000,0.91000,-0.22500*
1,1,0.15000,-0.91000,-0.22500*
1,1,0.15000,-0.91000,0.22500*
1,1,0.15000,0.91000,0.22500*
%
%ADD33ROUNDEDRECTD33*%
%ADD34R,0.95000X0.85000*%
%ADD35R,2.23000X1.80000*%
%ADD36R,1.75000X1.75000*%
G04:AMPARAMS|DCode=37|XSize=0.83mm|YSize=0.22mm|CornerRadius=0.0275mm|HoleSize=0mm|Usage=FLASHONLY|Rotation=90.000|XOffset=0mm|YOffset=0mm|HoleType=Round|Shape=RoundedRectangle|*
%AMROUNDEDRECTD37*
21,1,0.83000,0.16500,0,0,90.0*
21,1,0.77500,0.22000,0,0,90.0*
1,1,0.05500,0.08250,0.38750*
1,1,0.05500,0.08250,-0.38750*
1,1,0.05500,-0.08250,-0.38750*
1,1,0.05500,-0.08250,0.38750*
%
%ADD37ROUNDEDRECTD37*%
G04:AMPARAMS|DCode=38|XSize=0.83mm|YSize=0.22mm|CornerRadius=0.0275mm|HoleSize=0mm|Usage=FLASHONLY|Rotation=180.000|XOffset=0mm|YOffset=0mm|HoleType=Round|Shape=RoundedRectangle|*
%AMROUNDEDRECTD38*
21,1,0.83000,0.16500,0,0,180.0*
21,1,0.77500,0.22000,0,0,180.0*
1,1,0.05500,-0.38750,0.08250*
1,1,0.05500,0.38750,0.08250*
1,1,0.05500,0.38750,-0.08250*
1,1,0.05500,-0.38750,-0.08250*
%
%ADD38ROUNDEDRECTD38*%
%ADD39R,1.20000X1.20000*%
%TA.AperFunction,ConnectorPad*%
%ADD40R,1.00000X0.90000*%
%ADD41R,0.90000X1.00000*%
%ADD42R,0.75000X0.60000*%
%ADD43R,0.60000X0.64000*%
%TA.AperFunction,SMDPad,CuDef*%
%ADD44R,0.66000X0.32000*%
%ADD45R,1.00000X1.60000*%
%TA.AperFunction,ConnectorPad*%
%ADD46R,1.00000X0.30000*%
%ADD47R,1.00000X0.60000*%
%TA.AperFunction,SMDPad,CuDef*%
%ADD48R,1.27000X3.43000*%
%ADD49R,4.70000X3.43000*%
%ADD50R,1.65000X1.20000*%
%ADD51R,2.80000X1.90000*%
%ADD52R,0.44000X0.65000*%
%ADD53R,0.35000X0.30000*%
%ADD54R,1.09000X0.65000*%
%TA.AperFunction,ConnectorPad*%
%ADD55R,0.85000X0.95000*%
%TA.AperFunction,SMDPad,CuDef*%
%ADD56R,2.70000X2.20000*%
%TA.AperFunction,ConnectorPad*%
%ADD57R,0.80000X0.90000*%
%TA.AperFunction,SMDPad,CuDef*%
%ADD58R,3.35000X3.35000*%
%TA.AperFunction,ConnectorPad*%
%ADD59O,0.30000X0.95000*%
%ADD60O,0.95000X0.30000*%
%TA.AperFunction,SMDPad,CuDef*%
%ADD61O,0.45000X1.40000*%
%TA.AperFunction,ConnectorPad*%
%ADD62R,0.70000X0.50000*%
%TA.AperFunction,SMDPad,CuDef*%
%ADD63R,1.40000X1.30000*%
%ADD64R,1.00000X0.90000*%
%ADD65R,4.12000X4.60000*%
%ADD66R,0.55000X0.50000*%
%ADD67R,0.65000X0.50000*%
%ADD68R,4.60000X4.12000*%
%ADD69R,0.50000X0.55000*%
%ADD70R,0.50000X0.65000*%
%ADD71R,3.00000X3.00000*%
%ADD72O,0.20000X0.70000*%
%ADD73O,0.70000X0.20000*%
%ADD74R,2.50000X3.00000*%
%ADD75R,2.45000X2.55000*%
%ADD76R,1.50000X2.40000*%
%ADD77R,2.55000X2.45000*%
%ADD78R,3.43000X4.70000*%
%ADD79C,0.80010*%
%TA.AperFunction,NonConductor*%
%ADD80C,0.25400*%
%ADD81C,0.20320*%
%ADD82C,0.38100*%
%ADD83C,0.50800*%
%ADD84C,0.40640*%
%ADD85C,0.30480*%
%ADD86C,0.10564*%
%ADD87C,0.23066*%
%ADD88C,0.12700*%
%ADD89C,0.16962*%
%ADD90C,0.15240*%
%TA.AperFunction,ComponentPad*%
%ADD91C,0.40000*%
G04:AMPARAMS|DCode=92|XSize=1mm|YSize=2.3mm|CornerRadius=0.5mm|HoleSize=0mm|Usage=FLASHONLY|Rotation=270.000|XOffset=0mm|YOffset=0mm|HoleType=Round|Shape=RoundedRectangle|*
%AMROUNDEDRECTD92*
21,1,1.00000,1.30000,0,0,270.0*
21,1,0.00000,2.30000,0,0,270.0*
1,1,1.00000,-0.65000,0.00000*
1,1,1.00000,-0.65000,0.00000*
1,1,1.00000,0.65000,0.00000*
1,1,1.00000,0.65000,0.00000*
%
%ADD92ROUNDEDRECTD92*%
%ADD93C,1.52400*%
%ADD94C,0.45720*%
%TA.AperFunction,ViaPad*%
%ADD95C,2.50000*%
%ADD96C,1.52400*%
%ADD97C,1.98000*%
%ADD98C,0.60000*%
%ADD99C,0.45720*%
G36*
X7367475Y2896291D02*
X7085872D01*
Y3062219D01*
X7367475D01*
Y2896291D01*
D02*
G37*
G36*
X10482554Y2513762D02*
X10311307D01*
X10301396Y2511791D01*
X10292995Y2506177D01*
X10290120Y2501875D01*
X10131074Y2501874D01*
X10131074Y2264255D01*
X10131055Y2264226D01*
X10129084Y2254316D01*
Y2237157D01*
X10049017D01*
X10042368Y2247108D01*
X10026405Y2257775D01*
X10007575Y2261520D01*
X9999876Y2267838D01*
Y2547938D01*
X10182159D01*
Y2547938D01*
X10189589Y2546794D01*
X10189589Y2546795D01*
X10194387Y2546795D01*
X10380388D01*
Y2707475D01*
X10482555D01*
X10482554Y2513762D01*
D02*
G37*
G36*
X6862068Y3138125D02*
X6859202Y3133836D01*
X6855260Y3114015D01*
Y2896291D01*
X6562075D01*
Y2625491D01*
X6882875D01*
Y2642782D01*
X6895575Y2652322D01*
X6907055Y2650038D01*
X6926876Y2653981D01*
X6943680Y2665209D01*
X6954907Y2682012D01*
X6958850Y2701834D01*
Y3062219D01*
X7059974D01*
Y2505507D01*
X7011065D01*
X7011064Y2505507D01*
X6993720Y2502057D01*
X6979017Y2492233D01*
X6979017Y2492232D01*
X6914860Y2428075D01*
X6889274D01*
X6889066Y2428215D01*
X6870236Y2431960D01*
X6851406Y2428215D01*
X6835442Y2417548D01*
X6824776Y2401585D01*
X6821030Y2382755D01*
X6822452Y2375609D01*
X6814395Y2365792D01*
X6795575D01*
Y2134992D01*
X7005420D01*
X7005772Y2134863D01*
X7006535Y2133590D01*
X6999340Y2120890D01*
X6049974Y2120890D01*
Y2202777D01*
X6074171Y2212800D01*
X6104283Y2235906D01*
X6127389Y2266018D01*
X6137875Y2291333D01*
X6150575Y2288807D01*
Y2134992D01*
X6424375D01*
Y2143733D01*
X6442644Y2147367D01*
X6452692Y2154080D01*
X6463225Y2147042D01*
X6473075Y2145083D01*
Y2134992D01*
X6746875D01*
Y2160169D01*
X6756115Y2173997D01*
X6759860Y2192827D01*
X6756115Y2211657D01*
X6751395Y2218719D01*
X6756115Y2225782D01*
X6759860Y2244612D01*
X6756115Y2263442D01*
X6751395Y2270505D01*
X6756115Y2277568D01*
X6759860Y2296398D01*
X6756115Y2315228D01*
X6751395Y2322291D01*
X6756115Y2329353D01*
X6759860Y2348183D01*
X6756115Y2367013D01*
X6751395Y2374076D01*
X6756115Y2381139D01*
X6759860Y2399969D01*
X6756115Y2418799D01*
X6745448Y2434762D01*
X6729485Y2445429D01*
X6710655Y2449174D01*
X6691825Y2445429D01*
X6681777Y2438715D01*
X6671244Y2445753D01*
X6652414Y2449499D01*
X6633584Y2445753D01*
X6623899Y2439281D01*
X6615185Y2445104D01*
X6596355Y2448850D01*
X6577525Y2445104D01*
X6567477Y2438391D01*
X6556944Y2445429D01*
X6549236Y2446962D01*
X6539375Y2453815D01*
X6539375Y2461388D01*
Y2974615D01*
X6470054D01*
X6460219Y2987315D01*
X6462180Y2997175D01*
X6458435Y3016005D01*
X6447768Y3031968D01*
X6431805Y3042635D01*
X6412975Y3046380D01*
X6394145Y3042635D01*
X6378181Y3031968D01*
X6367515Y3016005D01*
X6363769Y2997175D01*
X6365730Y2987315D01*
X6355896Y2974615D01*
X6145574D01*
Y2718195D01*
X6132874Y2715669D01*
X6127389Y2728911D01*
X6104283Y2759023D01*
X6074171Y2782129D01*
X6049974Y2792152D01*
Y2952626D01*
X6059036Y2974503D01*
X6062249Y2998911D01*
X6062608Y3000713D01*
Y3149325D01*
X6856081D01*
X6862068Y3138125D01*
D02*
G37*
G36*
X10795075Y2467075D02*
X10876394D01*
Y2427875D01*
X10811075D01*
Y2312075D01*
X10876394D01*
Y2279875D01*
X10796575D01*
Y1817075D01*
X10811075D01*
Y1762075D01*
X10911875D01*
Y1817075D01*
X10938075D01*
Y1762075D01*
X11038875D01*
Y1817075D01*
X11065075D01*
Y1762075D01*
X11165875D01*
Y1817075D01*
X11192075D01*
Y1762075D01*
X11292875D01*
Y1817075D01*
X11307375D01*
Y2257475D01*
X11352475D01*
Y1692627D01*
X10940650D01*
Y1695502D01*
X10769850D01*
Y1692627D01*
X10730650D01*
Y1695502D01*
X10559850D01*
Y1692627D01*
X10519854D01*
Y1726708D01*
X10370872D01*
Y2002410D01*
X10370312Y2005225D01*
X10378221Y2016919D01*
X10381888Y2017412D01*
X10388618Y2016026D01*
X10394421Y2007341D01*
X10410385Y1996675D01*
X10429215Y1992929D01*
X10448045Y1996675D01*
X10464008Y2007341D01*
X10474675Y2023305D01*
X10478420Y2042135D01*
X10474675Y2060965D01*
X10468037Y2070898D01*
X10474675Y2080831D01*
X10478420Y2099661D01*
X10474675Y2118491D01*
X10468037Y2128424D01*
X10474675Y2138358D01*
X10478420Y2157188D01*
X10474675Y2176018D01*
X10468037Y2185951D01*
X10474675Y2195885D01*
X10478420Y2214715D01*
X10474675Y2233545D01*
X10464008Y2249508D01*
X10448045Y2260175D01*
X10429215Y2263920D01*
X10410385Y2260175D01*
X10394421Y2249508D01*
X10386168Y2237157D01*
X10311307D01*
X10311307Y2487864D01*
X10489575D01*
Y2472075D01*
X10640375D01*
Y2472075D01*
X10647075Y2481575D01*
X10762875D01*
Y2487865D01*
X10795075D01*
Y2467075D01*
D02*
G37*
G36*
X7367475Y2561240D02*
X7348645Y2557495D01*
X7332681Y2546828D01*
X7322015Y2530865D01*
X7318269Y2512035D01*
X7322015Y2493205D01*
X7332681Y2477241D01*
X7332930Y2477075D01*
Y2407716D01*
X7332930Y2407715D01*
X7335560Y2394495D01*
X7343048Y2383288D01*
X7367475Y2358861D01*
Y2217875D01*
X7157357D01*
Y2132874D01*
X7136856D01*
Y2119975D01*
X7114260D01*
X7108273Y2131175D01*
X7109175Y2132525D01*
X7112920Y2151355D01*
X7109175Y2170185D01*
X7098508Y2186148D01*
X7082545Y2196815D01*
X7069375Y2199434D01*
Y2365792D01*
X7067475D01*
Y2402174D01*
X7080175Y2412597D01*
X7088300Y2410980D01*
X7107130Y2414726D01*
X7123093Y2425392D01*
X7133760Y2441356D01*
X7137505Y2460186D01*
X7133760Y2479016D01*
X7123093Y2494979D01*
X7107130Y2505646D01*
X7088300Y2509391D01*
X7085872Y2511384D01*
Y2625491D01*
X7367475D01*
Y2561240D01*
D02*
G37*
G36*
X6145574Y2594234D02*
Y2453814D01*
X6394675D01*
X6398528Y2441114D01*
X6389021Y2434762D01*
X6378355Y2418799D01*
X6374609Y2399969D01*
X6378355Y2381139D01*
X6380893Y2377340D01*
X6374353Y2365792D01*
X6156113D01*
X6150575Y2365792D01*
X6142094Y2374979D01*
X6141914Y2376345D01*
X6127389Y2411411D01*
X6104283Y2441523D01*
X6074171Y2464629D01*
X6049974Y2474652D01*
Y2520277D01*
X6074171Y2530300D01*
X6104283Y2553406D01*
X6127389Y2583518D01*
X6132874Y2596760D01*
X6145574Y2594234D01*
D02*
G37*
G36*
X9380905Y2550821D02*
X9388147Y2547938D01*
Y2547938D01*
X9392411Y2547938D01*
X9479076D01*
Y2461276D01*
X9207215D01*
Y2165476D01*
X9513015D01*
Y2180072D01*
X9952316D01*
X9960872Y2167372D01*
X9958369Y2154788D01*
X9962115Y2135958D01*
X9968752Y2126025D01*
X9962115Y2116091D01*
X9958369Y2097261D01*
X9962115Y2078431D01*
X9968752Y2068498D01*
X9962115Y2058565D01*
X9959352Y2044674D01*
X9509175Y2044674D01*
Y2057154D01*
X9235375D01*
Y2044674D01*
X9182108D01*
X9182108Y2541434D01*
X9190106Y2550821D01*
X9380904D01*
X9380905Y2550821D01*
D02*
G37*
G36*
X7044885Y2105895D02*
X7063715Y2102149D01*
X7082544Y2105895D01*
X7095542Y2102269D01*
X7095947Y2101662D01*
X7097015Y2100949D01*
X7097830Y2099956D01*
X7101186Y2098162D01*
X7101856Y2097714D01*
Y2032074D01*
X7136856D01*
Y1992875D01*
X7101856D01*
Y1912075D01*
X7136856D01*
Y1892075D01*
X7157357D01*
Y1867475D01*
X7069375D01*
Y2073792D01*
X6795575D01*
Y1867475D01*
X6746875D01*
Y2073792D01*
X6473075D01*
Y1867475D01*
X6424375D01*
Y2073792D01*
X6150575D01*
Y1867475D01*
X6051286D01*
Y2094993D01*
X6999340Y2094993D01*
X7002764Y2095674D01*
X7006247Y2095931D01*
X7007679Y2096651D01*
X7009251Y2096964D01*
X7012154Y2098904D01*
X7015273Y2100474D01*
X7016320Y2101688D01*
X7017653Y2102578D01*
X7019593Y2105481D01*
X7021312Y2107475D01*
X7042520D01*
X7044885Y2105895D01*
D02*
G37*
G36*
X8552475Y1415375D02*
X8434395D01*
Y1142902D01*
X8423004Y1137285D01*
X8421508Y1138434D01*
X8397085Y1148550D01*
X8372672Y1151764D01*
X8370875Y1152122D01*
X8252475D01*
Y1747990D01*
X8462374D01*
Y1832991D01*
X8482875D01*
Y1847475D01*
X8552475D01*
Y1415375D01*
D02*
G37*
%LPC*%
G36*
X10766795Y2049396D02*
X10567995D01*
Y1934596D01*
X10568575D01*
Y1825696D01*
X10767375D01*
Y1940496D01*
X10766795D01*
Y2049396D01*
D02*
G37*
G36*
X9632581Y2162739D02*
X9613751Y2158994D01*
X9597788Y2148327D01*
X9587121Y2132364D01*
X9583376Y2113534D01*
X9587121Y2094704D01*
X9597788Y2078741D01*
X9613751Y2068074D01*
X9632581Y2064329D01*
X9651411Y2068074D01*
X9667375Y2078741D01*
X9678041Y2094704D01*
X9681787Y2113534D01*
X9678041Y2132364D01*
X9667375Y2148327D01*
X9651411Y2158994D01*
X9632581Y2162739D01*
D02*
G37*
G36*
X9824695Y2161680D02*
X9805865Y2157934D01*
X9789901Y2147268D01*
X9779235Y2131305D01*
X9775489Y2112475D01*
X9779235Y2093645D01*
X9789901Y2077681D01*
X9805865Y2067015D01*
X9824695Y2063269D01*
X9843525Y2067015D01*
X9859488Y2077681D01*
X9870155Y2093645D01*
X9873900Y2112475D01*
X9870155Y2131305D01*
X9859488Y2147268D01*
X9843525Y2157934D01*
X9824695Y2161680D01*
D02*
G37*
%LPD*%
D10*
X6010835Y1706855D02*
D03*
X5718835Y1452855D02*
D03*
X3346475Y1193775D02*
D03*
X3638475Y1447775D02*
D03*
X6463975Y1450315D02*
D03*
X6755975Y1704315D02*
D03*
D11*
X7508435Y1257294D02*
D03*
Y1142294D02*
D03*
X2352015Y1563035D02*
D03*
Y1448035D02*
D03*
X4767755Y1213801D02*
D03*
Y1328801D02*
D03*
X4609975Y2929975D02*
D03*
Y3044975D02*
D03*
X4497475Y2929975D02*
D03*
Y3044975D02*
D03*
D12*
X7622735Y1257262D02*
D03*
Y1142262D02*
D03*
X2807474Y1352175D02*
D03*
Y1467175D02*
D03*
X3327375Y2014974D02*
D03*
Y2129974D02*
D03*
X3165515Y2242095D02*
D03*
Y2357095D02*
D03*
X3395955Y2398655D02*
D03*
Y2513655D02*
D03*
X2687295Y1352175D02*
D03*
Y1467175D02*
D03*
X5176495Y2391735D02*
D03*
Y2276735D02*
D03*
X11369975Y1207475D02*
D03*
Y1092475D02*
D03*
X1648435Y1243843D02*
D03*
Y1128843D02*
D03*
X7842475Y2499975D02*
D03*
Y2384975D02*
D03*
X5389855Y1706654D02*
D03*
Y1591654D02*
D03*
X4335755Y2241175D02*
D03*
Y2356175D02*
D03*
X4223995Y2681840D02*
D03*
Y2566840D02*
D03*
D13*
X2468855Y1469814D02*
D03*
Y1557815D02*
D03*
X2575535Y1445235D02*
D03*
Y1357235D02*
D03*
X1877443Y1560355D02*
D03*
Y1472355D02*
D03*
X2361823Y1803647D02*
D03*
Y1715647D02*
D03*
X2249975Y1743799D02*
D03*
Y1831799D02*
D03*
X2249974Y2013975D02*
D03*
Y1925975D02*
D03*
X1877035Y1661414D02*
D03*
Y1749414D02*
D03*
X5295318Y2387078D02*
D03*
Y2299078D02*
D03*
X7782475Y1905131D02*
D03*
Y1817131D02*
D03*
X1889735Y2269015D02*
D03*
Y2181015D02*
D03*
Y2374054D02*
D03*
Y2462055D02*
D03*
X4632359Y1963014D02*
D03*
Y1875014D02*
D03*
X4525631Y1963014D02*
D03*
Y1875014D02*
D03*
X5295335Y2638475D02*
D03*
Y2726475D02*
D03*
X5176495Y2638215D02*
D03*
Y2726215D02*
D03*
X4954454Y2941706D02*
D03*
Y3029706D02*
D03*
X4840154Y2941706D02*
D03*
Y3029706D02*
D03*
X4725854Y2941706D02*
D03*
Y3029706D02*
D03*
D14*
X3072554Y1312475D02*
D03*
X3160555D02*
D03*
X2981475Y2320474D02*
D03*
X2893475D02*
D03*
X4065974Y3067475D02*
D03*
X4153974D02*
D03*
X7503755Y1655891D02*
D03*
X7415755D02*
D03*
X8177724Y1452414D02*
D03*
X8089724D02*
D03*
X8103025Y1686984D02*
D03*
X8191025D02*
D03*
X12880475Y1228935D02*
D03*
X12792475D02*
D03*
X4632359Y1551313D02*
D03*
X4544359D02*
D03*
X4632359Y1665613D02*
D03*
X4544359D02*
D03*
X10623395Y1991996D02*
D03*
X10711395D02*
D03*
X10623975Y1883096D02*
D03*
X10711975D02*
D03*
D15*
X3275655Y1424915D02*
D03*
X3160655D02*
D03*
X3160694Y1648875D02*
D03*
X3275694D02*
D03*
X3209622Y2016735D02*
D03*
X3094622D02*
D03*
X3209615Y2120875D02*
D03*
X3094615D02*
D03*
X2332194Y2067435D02*
D03*
X2447194D02*
D03*
X2332194Y2182475D02*
D03*
X2447194D02*
D03*
X3162474Y2814975D02*
D03*
X3047474D02*
D03*
X3162474Y3067975D02*
D03*
X3047474D02*
D03*
X3162474Y2939975D02*
D03*
X3047474D02*
D03*
X5182495Y2135532D02*
D03*
X5297495D02*
D03*
X11030275Y1345423D02*
D03*
X10915275D02*
D03*
X10664975Y1347475D02*
D03*
X10779975D02*
D03*
X10664975Y1467475D02*
D03*
X10779975D02*
D03*
X12237474Y1104974D02*
D03*
X12122474D02*
D03*
X5038115Y1313474D02*
D03*
X4923115D02*
D03*
X8188015Y1569255D02*
D03*
X8073015D02*
D03*
X8063525Y1334167D02*
D03*
X8178525D02*
D03*
X7275455Y1323315D02*
D03*
X7390455D02*
D03*
X7502215Y1423154D02*
D03*
X7387215D02*
D03*
X7387975Y1536375D02*
D03*
X7502975D02*
D03*
X7023995Y1369035D02*
D03*
X7138995D02*
D03*
X4307475Y1594175D02*
D03*
X4422475D02*
D03*
Y1704175D02*
D03*
X4307475D02*
D03*
X12653975Y1346434D02*
D03*
X12768975D02*
D03*
D16*
X3477235Y2246195D02*
D03*
Y2036195D02*
D03*
X1968975Y1114975D02*
D03*
Y1324975D02*
D03*
X1334875Y1116255D02*
D03*
Y1326255D02*
D03*
X8018642Y2297337D02*
D03*
Y2507337D02*
D03*
X7664975Y2512475D02*
D03*
Y2302474D02*
D03*
D17*
X3229354Y1884975D02*
D03*
X3359354D02*
D03*
X1735835Y2603804D02*
D03*
X1865835D02*
D03*
X5355335Y3068711D02*
D03*
X5485335D02*
D03*
X8277174Y2697455D02*
D03*
X8147174D02*
D03*
D18*
X3078735Y1902155D02*
D03*
Y1867155D02*
D03*
X1795475Y1300735D02*
D03*
Y1335735D02*
D03*
D19*
X3118735Y1884655D02*
D03*
X1755475Y1318235D02*
D03*
D20*
X3017818Y2670474D02*
D03*
X2857819D02*
D03*
X7197676Y1719974D02*
D03*
X7037677D02*
D03*
X3017818Y2475475D02*
D03*
X2857818D02*
D03*
X8382474Y2302475D02*
D03*
X8222475D02*
D03*
X8383724Y2499975D02*
D03*
X8223724D02*
D03*
X7197676Y1532474D02*
D03*
X7037677D02*
D03*
X14866125Y1441110D02*
D03*
X15026126D02*
D03*
X14866125Y1238610D02*
D03*
X15026126D02*
D03*
D21*
X2714155Y2578275D02*
D03*
X2579155D02*
D03*
X10152475Y1656833D02*
D03*
X10287475D02*
D03*
X11674975Y1394435D02*
D03*
X11539975D02*
D03*
X14661215Y1472475D02*
D03*
X14526215D02*
D03*
X13564975Y3094975D02*
D03*
X13429974D02*
D03*
D22*
X2687954Y1615415D02*
D03*
X2727955D02*
D03*
X2767955D02*
D03*
X2807955D02*
D03*
X2847954D02*
D03*
X2887955D02*
D03*
D23*
X2977954Y1665414D02*
D03*
Y1705414D02*
D03*
Y1745415D02*
D03*
Y1785415D02*
D03*
Y1825414D02*
D03*
Y1865415D02*
D03*
Y1905415D02*
D03*
Y1945414D02*
D03*
Y1985415D02*
D03*
Y2025415D02*
D03*
Y2065414D02*
D03*
Y2105415D02*
D03*
Y2145415D02*
D03*
X2597955D02*
D03*
Y2105415D02*
D03*
Y2065414D02*
D03*
Y2025415D02*
D03*
Y1985415D02*
D03*
Y1945414D02*
D03*
Y1745415D02*
D03*
Y1705414D02*
D03*
Y1665414D02*
D03*
D24*
X2787955Y1808915D02*
D03*
D25*
Y2061414D02*
D03*
D26*
X2720304Y2195414D02*
D03*
X2855605D02*
D03*
D27*
X2597955Y1885415D02*
D03*
Y1805414D02*
D03*
D28*
X2323974Y1147475D02*
D03*
X2603974D02*
D03*
X10359974Y2129257D02*
D03*
X10079975D02*
D03*
X14733714Y1672475D02*
D03*
X14453716D02*
D03*
D29*
X2143975Y1242475D02*
D03*
Y1112475D02*
D03*
X10142475Y1936757D02*
D03*
Y1806757D02*
D03*
X4297655Y1260855D02*
D03*
Y1390855D02*
D03*
D30*
X2162474Y1392475D02*
D03*
X2127474D02*
D03*
X10889974Y1432475D02*
D03*
X10924975D02*
D03*
D31*
X2144974Y1352475D02*
D03*
X10907475Y1472475D02*
D03*
D32*
X2087615Y2160435D02*
D03*
Y2092435D02*
D03*
X2057615Y2126435D02*
D03*
D33*
X3369975Y3067975D02*
D03*
Y2940975D02*
D03*
Y2813975D02*
D03*
Y2686975D02*
D03*
X3864974D02*
D03*
Y2813975D02*
D03*
Y2940975D02*
D03*
Y3067975D02*
D03*
D34*
X3936975Y2397055D02*
D03*
Y2527055D02*
D03*
X4083974Y2679540D02*
D03*
Y2809540D02*
D03*
X11044975Y1472475D02*
D03*
Y1602475D02*
D03*
X10297474Y1936757D02*
D03*
Y1806757D02*
D03*
X1509875Y1121335D02*
D03*
Y1251335D02*
D03*
X7489975Y2382475D02*
D03*
Y2512475D02*
D03*
X12095115Y1928909D02*
D03*
Y1798909D02*
D03*
X14513715Y1322475D02*
D03*
Y1192475D02*
D03*
X14673715Y1322475D02*
D03*
Y1192475D02*
D03*
D35*
X9372275Y1941755D02*
D03*
Y1649755D02*
D03*
X9040364Y1944073D02*
D03*
Y1652073D02*
D03*
X8712175Y1944076D02*
D03*
Y1652076D02*
D03*
X6287475Y1958392D02*
D03*
Y2250392D02*
D03*
X6609975Y1958392D02*
D03*
Y2250392D02*
D03*
X6932475Y1958392D02*
D03*
Y2250392D02*
D03*
D36*
X7782475Y1534975D02*
D03*
D37*
X7702475Y1678975D02*
D03*
X7742475D02*
D03*
X7782475D02*
D03*
X7822475D02*
D03*
X7862475D02*
D03*
Y1390975D02*
D03*
X7822475D02*
D03*
X7782475D02*
D03*
X7742475D02*
D03*
X7702475D02*
D03*
D38*
X7638475Y1454975D02*
D03*
Y1494975D02*
D03*
Y1534975D02*
D03*
Y1574975D02*
D03*
Y1614975D02*
D03*
X7926475D02*
D03*
Y1574975D02*
D03*
Y1534975D02*
D03*
Y1494975D02*
D03*
Y1454975D02*
D03*
D39*
X10645250Y1610102D02*
D03*
X10855250D02*
D03*
X1544875Y2583779D02*
D03*
X1334875D02*
D03*
X6531195Y1178535D02*
D03*
X6741195D02*
D03*
X8277998Y2875655D02*
D03*
X8067998D02*
D03*
D40*
X9994135Y1658576D02*
D03*
Y1523576D02*
D03*
X10444455Y1656308D02*
D03*
Y1521308D02*
D03*
D41*
X11974975Y1126472D02*
D03*
X11839975D02*
D03*
X11231926Y1227475D02*
D03*
X11096926D02*
D03*
X11674975Y1237779D02*
D03*
X11539975D02*
D03*
D42*
X11666455Y1102674D02*
D03*
X11551455D02*
D03*
X10778584Y1227475D02*
D03*
X10893584D02*
D03*
X10664975Y1107474D02*
D03*
X10779975D02*
D03*
X11222695Y1093313D02*
D03*
X11107695D02*
D03*
X12487474Y1104974D02*
D03*
X12372474D02*
D03*
X12487475Y1212435D02*
D03*
X12602475D02*
D03*
X12653474Y1468795D02*
D03*
X12768474D02*
D03*
X8179094Y1214641D02*
D03*
X8064094D02*
D03*
X7764975D02*
D03*
X7879975D02*
D03*
X4069975Y2939975D02*
D03*
X4184975D02*
D03*
D43*
X12880473Y1586295D02*
D03*
X12792474D02*
D03*
X12984975Y1468795D02*
D03*
X12896974D02*
D03*
X12438475Y1477635D02*
D03*
X12526475D02*
D03*
X12984953Y1346434D02*
D03*
X12896954D02*
D03*
D44*
X2492475Y2454975D02*
D03*
Y2389975D02*
D03*
Y2324975D02*
D03*
X2697474D02*
D03*
Y2389975D02*
D03*
Y2454975D02*
D03*
D45*
X2594974Y2389975D02*
D03*
D46*
X1720054Y1759052D02*
D03*
Y1809052D02*
D03*
Y2059052D02*
D03*
Y2109052D02*
D03*
Y1909052D02*
D03*
Y1859052D02*
D03*
Y2009052D02*
D03*
Y1959052D02*
D03*
D47*
Y1618052D02*
D03*
Y1698052D02*
D03*
Y2170052D02*
D03*
Y2250052D02*
D03*
D48*
X1831315Y2988475D02*
D03*
X2085315Y2696475D02*
D03*
D49*
X1447775Y2964155D02*
D03*
X7655535Y2854935D02*
D03*
X14338275Y2953995D02*
D03*
X13807475Y1907475D02*
D03*
X9739476Y2376972D02*
D03*
D50*
X2330636Y2779831D02*
D03*
Y3059831D02*
D03*
X2562686Y2778435D02*
D03*
Y3058435D02*
D03*
D51*
X7302256Y2012475D02*
D03*
X8317475Y1953391D02*
D03*
D52*
X7399755Y2159975D02*
D03*
X7334756D02*
D03*
X7269757D02*
D03*
X7204757D02*
D03*
X7399755Y1864975D02*
D03*
X7334756Y1864974D02*
D03*
X8219976Y1805890D02*
D03*
X8284975D02*
D03*
X8349974D02*
D03*
X8414974D02*
D03*
X8219976Y2100890D02*
D03*
X8284975Y2100891D02*
D03*
D53*
X7459755Y1952475D02*
D03*
X7459755Y2072474D02*
D03*
X7144756D02*
D03*
Y1952475D02*
D03*
X8159976Y2013390D02*
D03*
X8159976Y1893391D02*
D03*
X8474975D02*
D03*
Y2013390D02*
D03*
D54*
X7237257Y1864974D02*
D03*
X8382474Y2100891D02*
D03*
D55*
X6358295Y1178538D02*
D03*
X6228295D02*
D03*
D56*
X6722475Y2760891D02*
D03*
X7232475D02*
D03*
D57*
X4457755Y1213474D02*
D03*
X4647755D02*
D03*
X4552755Y1413474D02*
D03*
D58*
X5000935Y1674154D02*
D03*
D59*
X4850935Y1914154D02*
D03*
X4900935D02*
D03*
X4950935D02*
D03*
X5000935D02*
D03*
X5050935D02*
D03*
X5100935D02*
D03*
X5150935D02*
D03*
Y1434154D02*
D03*
X5100935D02*
D03*
X5050935D02*
D03*
X5000935D02*
D03*
X4950935D02*
D03*
X4900935D02*
D03*
X4850935D02*
D03*
D60*
X5240935Y1824154D02*
D03*
Y1774154D02*
D03*
Y1724155D02*
D03*
Y1674154D02*
D03*
Y1624154D02*
D03*
Y1574154D02*
D03*
Y1524154D02*
D03*
X4760935D02*
D03*
Y1574154D02*
D03*
Y1624154D02*
D03*
Y1674154D02*
D03*
Y1724155D02*
D03*
Y1774154D02*
D03*
Y1824154D02*
D03*
D61*
X4463954Y2136110D02*
D03*
X4528955D02*
D03*
X4593954D02*
D03*
X4658955D02*
D03*
X4723954D02*
D03*
X4788955D02*
D03*
X4853954D02*
D03*
X4918955D02*
D03*
X4983954D02*
D03*
X5048955D02*
D03*
X4463954Y2726110D02*
D03*
X4528955D02*
D03*
X4593954D02*
D03*
X4658955D02*
D03*
X4723954D02*
D03*
X4788955D02*
D03*
X4853954D02*
D03*
X4918955D02*
D03*
X4983954D02*
D03*
X5048955D02*
D03*
D62*
X5558435Y2895575D02*
D03*
X5358435D02*
D03*
D63*
X10284988Y2637195D02*
D03*
Y2797195D02*
D03*
X10086760Y2638338D02*
D03*
Y2798338D02*
D03*
X9885689Y2638338D02*
D03*
Y2798338D02*
D03*
X9684618Y2638338D02*
D03*
Y2798338D02*
D03*
X9483546Y2638338D02*
D03*
Y2798338D02*
D03*
X9285505Y2641221D02*
D03*
Y2801221D02*
D03*
X11539975Y1741134D02*
D03*
Y1581135D02*
D03*
X13300127Y1603555D02*
D03*
Y1443555D02*
D03*
X13497626Y1603555D02*
D03*
Y1443555D02*
D03*
X13695126Y1604770D02*
D03*
Y1444770D02*
D03*
X13890126D02*
D03*
Y1604770D02*
D03*
X13997475Y2177475D02*
D03*
Y2337475D02*
D03*
X13804974Y2178338D02*
D03*
Y2338338D02*
D03*
X13612474Y2177475D02*
D03*
Y2337475D02*
D03*
D64*
X10564975Y2542475D02*
D03*
Y2677475D02*
D03*
X12468835Y1636815D02*
D03*
Y1771815D02*
D03*
X12251521Y1801151D02*
D03*
Y1936151D02*
D03*
X11930355Y1761275D02*
D03*
Y1896275D02*
D03*
X13123656Y1693075D02*
D03*
Y1558075D02*
D03*
D65*
X11026475Y2722475D02*
D03*
X13244475Y2722338D02*
D03*
D66*
X11259975Y2912975D02*
D03*
Y2785975D02*
D03*
Y2658975D02*
D03*
Y2531975D02*
D03*
X13010974Y2531838D02*
D03*
Y2658838D02*
D03*
Y2785838D02*
D03*
Y2912838D02*
D03*
D67*
X10704975Y2531975D02*
D03*
Y2658975D02*
D03*
Y2785975D02*
D03*
Y2912975D02*
D03*
X13565974Y2912838D02*
D03*
Y2785838D02*
D03*
Y2658838D02*
D03*
Y2531838D02*
D03*
D68*
X11051975Y2048475D02*
D03*
X13220474Y2049338D02*
D03*
D69*
X11242475Y1814975D02*
D03*
X11115475D02*
D03*
X10988475D02*
D03*
X10861475D02*
D03*
X13410976Y1815838D02*
D03*
X13283975D02*
D03*
X13156975D02*
D03*
X13029974D02*
D03*
D70*
X10861475Y2369975D02*
D03*
X10988475D02*
D03*
X11115475D02*
D03*
X11242475D02*
D03*
X13029974Y2370838D02*
D03*
X13156975D02*
D03*
X13283975D02*
D03*
X13410976D02*
D03*
D71*
X12137475Y1447475D02*
D03*
D72*
X11997475Y1649975D02*
D03*
X12037475D02*
D03*
X12077475D02*
D03*
X12117475D02*
D03*
X12157475D02*
D03*
X12197475D02*
D03*
X12237475D02*
D03*
X12277475D02*
D03*
Y1244975D02*
D03*
X12237475D02*
D03*
X12197475D02*
D03*
X12157475D02*
D03*
X12117475D02*
D03*
X12077475D02*
D03*
X12037475D02*
D03*
X11997475D02*
D03*
D73*
X12339975Y1587475D02*
D03*
Y1547475D02*
D03*
Y1507475D02*
D03*
Y1467475D02*
D03*
Y1347475D02*
D03*
Y1307475D02*
D03*
X11934975D02*
D03*
Y1347475D02*
D03*
Y1387475D02*
D03*
Y1427475D02*
D03*
Y1467475D02*
D03*
Y1507475D02*
D03*
Y1547475D02*
D03*
Y1587475D02*
D03*
X12339975Y1427475D02*
D03*
Y1387475D02*
D03*
D74*
X12578633Y2631415D02*
D03*
X11698629D02*
D03*
D75*
X14348434Y2614973D02*
D03*
Y2009973D02*
D03*
X14858975Y2614965D02*
D03*
Y2009964D02*
D03*
D76*
X8534795Y1269975D02*
D03*
X8904794D02*
D03*
D77*
X8755115Y2313376D02*
D03*
X9360115D02*
D03*
D78*
X6342474Y2714215D02*
D03*
D79*
X5683927Y1995914D02*
D03*
X5810975Y1994434D02*
D03*
D80*
X4463954Y2724210D02*
Y2726110D01*
X4918035Y2135191D02*
X4918955Y2136110D01*
X4918035Y2030674D02*
Y2135191D01*
X4917115Y2029754D02*
X4918035Y2030674D01*
X5050935Y1914154D02*
Y1989114D01*
X11996835Y1244335D02*
X11997475Y1244975D01*
X12487474Y1104974D02*
X12487475D01*
X11996835Y1131835D02*
Y1244335D01*
X11969975Y1104975D02*
X11996835Y1131835D01*
X11223114Y1092894D02*
X11369556D01*
X11222695Y1093313D02*
X11223114Y1092894D01*
X7573391Y1574975D02*
X7638475D01*
X3162474Y3067975D02*
X3369975D01*
X3162474Y2939975D02*
X3162974Y2940474D01*
X3369475D01*
X3369975Y2940975D01*
X3162474Y2814975D02*
X3162975Y2814474D01*
X3369475D01*
X3369975Y2813975D01*
X3864974Y2940975D02*
X3865475Y2940474D01*
X4069475D01*
X4069975Y2939975D01*
X3359354Y1884975D02*
X3359355Y1884975D01*
X1509875Y1121335D02*
X1509875Y1121335D01*
X2141475Y1114975D02*
X2143975Y1112475D01*
X10907475Y1472475D02*
X11044974D01*
X7509742Y1638624D02*
X7573391Y1574975D01*
X7399755Y2159975D02*
X7522475D01*
X8186090Y1680615D02*
X8186319Y1680386D01*
Y1578344D02*
Y1680386D01*
Y1578344D02*
X8186548Y1578115D01*
X7926475Y1534975D02*
X7926695Y1535195D01*
X8072795Y1569035D02*
X8073015Y1569255D01*
X7862475Y1678975D02*
X7913975D01*
X8262475Y2174975D02*
X8284975Y2152474D01*
Y2100891D02*
Y2152474D01*
X8007475Y2147475D02*
X8034975Y2174975D01*
X8262475D01*
X2144974Y1243474D02*
Y1346175D01*
X2143975Y1242475D02*
X2144974Y1243474D01*
X1507375Y1253835D02*
X1509875Y1251335D01*
X4900055Y1433275D02*
X4900935Y1434154D01*
X4900055Y1302414D02*
Y1433275D01*
X4950935Y1914154D02*
Y1992454D01*
X4983954Y2025474D01*
Y2136110D01*
X5683927Y2402262D02*
X5683975D01*
X5591935Y2494255D02*
X5683927Y2402262D01*
X4658955Y2136110D02*
Y2273895D01*
X4772134Y2387074D02*
X5295315D01*
X4658955Y2273895D02*
X4772134Y2387074D01*
X2072615Y1369035D02*
X2096055Y1392475D01*
X2248594Y2015355D02*
X2249974Y2013975D01*
X2138655Y2016735D02*
X2140034Y2015355D01*
X5810975Y2404261D02*
X5853881Y2447168D01*
Y2449215D01*
X5810975Y2402215D02*
Y2404261D01*
X3238475Y1193775D02*
X3346475D01*
X2575535Y1445235D02*
X2577535D01*
X12339975Y1507475D02*
X12400475D01*
X12438475Y1469475D01*
X7522475Y2159975D02*
X7564095Y2118355D01*
X10911474Y1345423D02*
X10917500D01*
X10889974Y1366923D02*
X10911474Y1345423D01*
X10889974Y1366923D02*
Y1432475D01*
X2977474Y1905475D02*
X3078735D01*
Y1943516D01*
X3359354Y1884975D02*
X3426755D01*
X3327375Y2129974D02*
Y2254613D01*
X2162474Y1392475D02*
Y1448734D01*
X7334756Y1780193D02*
Y1864974D01*
X7564095Y1772895D02*
Y2118355D01*
Y1772895D02*
X7658014Y1678975D01*
X7702475D01*
X7502975Y1534975D02*
X7638475D01*
X7509742Y1638624D02*
Y1655874D01*
X7638475Y1614975D02*
Y1640095D01*
X7387975Y1536375D02*
Y1580615D01*
X7415755Y1608395D01*
Y1655891D01*
X7782475Y1678975D02*
X7782475Y1678975D01*
Y1817130D02*
X7782475Y1817131D01*
X7782475Y1678975D02*
Y1817130D01*
X7742475Y1678975D02*
Y1751132D01*
X3078735Y1943516D02*
X3093610Y1958392D01*
X3082034Y2120875D02*
X3089535D01*
X2977954Y2025415D02*
X3080863D01*
X3089542Y2016735D01*
X2977954Y2065414D02*
X3026574D01*
X3082034Y2120875D01*
X3426755Y1884975D02*
X3477247Y1935467D01*
Y2013870D01*
X3456915Y2034202D02*
X3477247Y2013870D01*
X3093610Y1958392D02*
X3281732D01*
X3314675Y1991335D01*
Y2015856D01*
X2577535Y1445235D02*
Y1505535D01*
X12727915Y1656055D02*
X12971754D01*
X13029974Y1714275D01*
Y1815838D01*
X11930355Y1896275D02*
X11988654D01*
X12279153Y1673016D02*
X12299363Y1693227D01*
X11988654Y1896275D02*
X12020115Y1864814D01*
X12299363Y1693227D02*
X12343447D01*
X12369775Y1719555D01*
Y1752853D01*
X12388736Y1771815D01*
X12468835D01*
X9992335Y1521775D02*
X9994135Y1523576D01*
X9992335Y1445916D02*
Y1521775D01*
X2162474Y1448734D02*
X2278706Y1564966D01*
X5295315Y2387074D02*
X5402495Y2494255D01*
X5591935D01*
X5810975Y2587215D02*
X5839435Y2615675D01*
X5810975Y2529215D02*
Y2587215D01*
X5664175Y2758415D02*
X5767935D01*
X5839435Y2686915D01*
Y2615675D02*
Y2686915D01*
X4137635Y1429995D02*
X4188435Y1480795D01*
Y1922674D02*
X4223995Y1958234D01*
X4188435Y1480795D02*
Y1922674D01*
X2807474Y1453121D02*
Y1472255D01*
Y1572028D02*
Y1615475D01*
X2575535Y1357235D02*
X2578065Y1354705D01*
X2804944D02*
X2807474Y1352175D01*
X2096055Y1392475D02*
X2123547D01*
X2278706Y1564966D02*
X2371620D01*
X2255549Y1831799D02*
X2379525Y1955775D01*
X3072787Y1193775D02*
X3346475D01*
X2807474Y1453121D02*
X2813440D01*
X7502215Y1423154D02*
X7568655D01*
X7600834Y1390975D01*
X7702475D01*
X7334756Y1780193D02*
X7385235Y1729715D01*
X7548855D01*
X7638475Y1640095D01*
X10782475Y1432475D02*
X10889974D01*
X12438475Y1467475D02*
Y1497275D01*
X12476527Y1535327D01*
X12607187D02*
X12727915Y1656055D01*
X12476527Y1535327D02*
X12607187D01*
X10779975Y1467475D02*
X10781225Y1466225D01*
Y1433725D02*
Y1466225D01*
Y1433725D02*
X10782475Y1432475D01*
X2807474Y1572028D02*
X3067028Y1312475D01*
X3072554D01*
X2293201Y1925975D02*
X2363201Y1995975D01*
X2249974Y1925975D02*
X2293201D01*
X4760935Y1824154D02*
X4850935D01*
X4890935Y1784154D01*
X4760935Y1774154D02*
X4880935D01*
X4760935Y1724155D02*
X4950935D01*
X5000935Y1674154D01*
X4890935Y1784154D02*
X4950935Y1724155D01*
X5150935Y1524154D02*
X5240935D01*
X5000935Y1674154D02*
X5110935Y1564154D01*
X5100935Y1434154D02*
Y1554154D01*
X5150935Y1434154D02*
Y1524154D01*
X5110935Y1564154D02*
X5150935Y1524154D01*
X5100055Y1915034D02*
X5100935Y1914154D01*
X5100055Y1915034D02*
Y2024594D01*
X12020115Y1728908D02*
Y1864814D01*
X2595255Y2062714D02*
X2597955Y2065414D01*
X2545895Y2062714D02*
X2595255D01*
X2479156Y1995975D02*
X2545895Y2062714D01*
X2363201Y1995975D02*
X2479156D01*
X2559777Y2022715D02*
X2580655D01*
X2492837Y1955775D02*
X2559777Y2022715D01*
X2379525Y1955775D02*
X2492837D01*
X12020115Y1728908D02*
X12038648Y1710375D01*
X12077475Y1658100D02*
Y1686734D01*
X12038648Y1710375D02*
X12053834D01*
X12077475Y1686734D01*
X4335755Y2241175D02*
X4572824D01*
X4593954Y2220045D01*
X4590204Y2139861D02*
X4593954Y2136110D01*
Y2220045D01*
X2821335Y1997614D02*
X2912155D01*
X2787955Y2030995D02*
X2794480Y2024470D01*
X2920474Y1945475D02*
X2977474D01*
X2597955Y1985415D02*
X2653935D01*
X2924355D02*
X2977954D01*
X2666135Y1997614D02*
X2724155D01*
X2653935Y1985415D02*
X2666135Y1997614D01*
X2724155D02*
X2787955Y2061414D01*
X2794480Y2024470D02*
X2821335Y1997614D01*
X2912155D02*
X2924355Y1985415D01*
X2787955Y1805415D02*
Y1808915D01*
X2927955Y1665414D02*
X2977954D01*
X1852589Y1831799D02*
X2255549D01*
X2246754Y1922755D02*
X2249974Y1925975D01*
X2019275Y1922755D02*
X2246754D01*
X1654511Y2398935D02*
X1669868Y2414292D01*
X7508435Y1257294D02*
X7655604D01*
X8056025Y1334167D02*
X8063525D01*
X7999216Y1390975D02*
X8056025Y1334167D01*
X7862475Y1390975D02*
X7999216D01*
X8177724Y1452414D02*
X8178124Y1452014D01*
Y1334567D02*
Y1452014D01*
Y1334567D02*
X8178525Y1334167D01*
X7655604Y1257294D02*
X7742475Y1344165D01*
Y1390975D01*
X7926475Y1574975D02*
X7928175Y1576675D01*
X7974985D01*
X7926475Y1614975D02*
X7959403D01*
X8006055Y1661626D01*
Y1704315D01*
X7926475Y1454975D02*
X7927755Y1453695D01*
X8088444D02*
X8089724Y1452414D01*
X7622735Y1142262D02*
X7690835D01*
X7757474Y1214641D02*
X7764975D01*
X7708795Y1165962D02*
X7757474Y1214641D01*
X7708795Y1160223D02*
Y1165962D01*
X7690835Y1142262D02*
X7708795Y1160223D01*
X7822475Y1390975D02*
X7823175Y1390275D01*
Y1263941D02*
Y1390275D01*
Y1263941D02*
X7872474Y1214641D01*
X7782475Y1390975D02*
X7782505Y1390945D01*
Y1325458D02*
Y1390945D01*
Y1325458D02*
X7782535Y1325428D01*
X7872474Y1214641D02*
X8064094D01*
X2578065Y1354705D02*
X2804944D01*
X2787474Y1805475D02*
X2841160Y1751790D01*
X2787955Y1805415D02*
X2927955Y1665414D01*
X2787474Y1805475D02*
Y1812475D01*
X2920474Y1945475D01*
X5100935Y1554154D02*
X5110935Y1564154D01*
X2803974Y1825475D02*
X2977474D01*
X2843975Y1865475D02*
X3078735D01*
X4880935Y1774154D02*
X4890935Y1784154D01*
X1625055Y2414292D02*
X1669868D01*
X12137475Y1447475D02*
X12192555Y1502555D01*
X12197475Y1507475D01*
Y1649975D01*
X7926695Y1535195D02*
X7989052D01*
X7927755Y1453695D02*
X8088444D01*
X8007475Y1889975D02*
Y2147475D01*
X8103025Y1684984D02*
Y1686984D01*
X7974985Y1576675D02*
X8083294Y1684984D01*
X8103025D01*
X7989052Y1535195D02*
X8023112Y1569255D01*
X8073015D01*
X7913975Y1678975D02*
X8040890Y1805890D01*
X8219976D01*
X8072095Y1875014D02*
Y2067404D01*
X8105581Y2100890D01*
X8219976D01*
X7702475Y1791132D02*
X7742475Y1751132D01*
X8018642Y2235406D02*
Y2297337D01*
X7739954Y1960531D02*
X7743767D01*
X8018642Y2235406D01*
X7702475Y1791132D02*
Y1923051D01*
X7739954Y1960531D01*
X1889735Y2269015D02*
Y2374054D01*
X10444455Y1521308D02*
X10545844D01*
X10572975Y1494178D01*
Y1463015D02*
Y1494178D01*
X4528955Y2724210D02*
Y2726110D01*
X3779495Y2418055D02*
X3832835Y2471395D01*
X3731235Y1971015D02*
X3779495Y2019275D01*
Y2418055D01*
X5240935Y1524154D02*
X5329855D01*
X5389855Y1584154D01*
Y1591654D01*
X5240935Y1774154D02*
X5329855D01*
X5389855Y1714155D01*
Y1706654D02*
Y1714155D01*
X4422475Y1859255D02*
Y1999315D01*
X4463954Y2040794D01*
Y2136110D01*
X5176495Y2269234D02*
Y2276735D01*
Y2269234D02*
X5193795Y2251935D01*
X5201295D01*
X5235835Y2217395D01*
X5357196D01*
X5240935Y1824154D02*
X5241375Y1824595D01*
X5357196Y2217395D02*
X5392395Y2182196D01*
X5241375Y1824595D02*
X5350115D01*
X5392395Y1866875D01*
Y2182196D01*
X5558435Y2895575D02*
X5681955D01*
X3072554Y1310474D02*
Y1312475D01*
X3016227Y1254147D02*
X3072554Y1310474D01*
X3012415Y1254147D02*
X3016227D01*
X2813440Y1453121D02*
X3012415Y1254147D01*
X3072787Y1193775D01*
X1720054Y1759052D02*
X1779842D01*
X1852589Y1831799D01*
X1509875Y1251335D02*
X1509875Y1251335D01*
X1514875D01*
X1507375Y1253835D02*
X1509875Y1256335D01*
X1795475Y1340475D02*
Y1472075D01*
X1795755Y1472355D01*
X1514875Y1251335D02*
X1581775Y1318235D01*
X1755475D01*
X1796275Y1250574D02*
Y1300735D01*
X1720054Y2059052D02*
X1720893Y2058213D01*
X1835131D01*
X2007614Y2126435D02*
X2057615D01*
X5174994Y2135532D02*
X5182495D01*
X5026295Y2284231D02*
X5174994Y2135532D01*
X4777715Y2284231D02*
X5026295D01*
X4216375Y2382495D02*
X4244315Y2410435D01*
X4216375Y2163032D02*
Y2382495D01*
X4140175Y2086832D02*
X4216375Y2163032D01*
X4140175Y1699235D02*
Y2086832D01*
X2577535Y1505535D02*
X2687414Y1615415D01*
X2722855D01*
D81*
X11369975Y1207475D02*
Y1304975D01*
X11382475Y1317475D01*
X12037475Y1244974D02*
X12037475Y1244975D01*
X12768474Y1468795D02*
X12896974D01*
X12880473Y1586295D02*
X12940955D01*
X12984975Y1542275D01*
Y1468795D02*
Y1542275D01*
X12037475Y1244975D02*
X12037475Y1244975D01*
X12037475D01*
X12037475Y1244975D02*
X12037475Y1244974D01*
X12416674Y1175775D02*
X12487474Y1104974D01*
X12487475D02*
Y1214975D01*
X12653975Y1299856D02*
Y1351294D01*
Y1299856D02*
X12718036Y1235795D01*
X12792475D01*
Y1233795D02*
Y1235795D01*
X12768975Y1351294D02*
X12898975D01*
X12938795Y1233795D02*
X12984953Y1279955D01*
X11666455Y1089870D02*
Y1216455D01*
X11674975Y1224975D01*
X11222695Y1093313D02*
X11231926Y1102544D01*
Y1227475D01*
X12708856Y1586295D02*
X12792474D01*
X12653474Y1468795D02*
Y1530912D01*
X12708856Y1586295D01*
X11044974Y1472475D02*
X11044975Y1472475D01*
X7399755Y1787799D02*
Y1864975D01*
X7822475Y1678975D02*
Y1732475D01*
X7857475Y1767474D01*
Y1809975D01*
X10779975Y1107474D02*
X10830715Y1158215D01*
X8018504Y2507475D02*
X8018642Y2507337D01*
X12984953Y1279955D02*
Y1346434D01*
X12277475Y1244975D02*
Y1267474D01*
X12237474Y1104974D02*
X12372474D01*
X11928416Y1307475D02*
X11934975D01*
X11382475Y1317475D02*
X11598015D01*
X11674975Y1394435D01*
X11678895Y1398355D02*
Y1605255D01*
X11674975Y1394435D02*
X11678895Y1398355D01*
X3533695Y1292254D02*
X3596615Y1229335D01*
X3761715D01*
X2767475Y1507975D02*
Y1615475D01*
Y1507975D02*
X2804975Y1470475D01*
X2687475D02*
X2727475Y1510474D01*
X2032490Y1410475D02*
X2269517Y1647502D01*
X2512129Y1705475D02*
X2597475D01*
X2371620Y1564966D02*
X2512129Y1705475D01*
X2492235Y1745475D02*
X2597475D01*
X12237474Y1104974D02*
Y1147475D01*
X11614135Y1741134D02*
X11742395Y1612875D01*
X11539975Y1741134D02*
X11614135D01*
X11674975Y1389435D02*
Y1394435D01*
X11845463Y1427455D02*
X11845553Y1427544D01*
X11845916Y1224975D02*
X11928416Y1307475D01*
X11742395Y1612875D02*
X11854901D01*
X11880285Y1587491D01*
X11934959D01*
X11929815Y1427455D02*
X11929905Y1427544D01*
X11826215Y1427455D02*
X11929815D01*
X11674975Y1224975D02*
X11845916D01*
X11834533Y1347475D02*
X11934975D01*
X11792573Y1389435D02*
X11834533Y1347475D01*
X12197475Y1187474D02*
X12237474Y1147475D01*
X12197475Y1187474D02*
Y1244975D01*
X12077475Y1179975D02*
Y1244975D01*
X10830715Y1158215D02*
X10921975D01*
X12237475Y1197474D02*
Y1244975D01*
Y1197474D02*
X12259175Y1175775D01*
X12416674D01*
X12037475Y1244975D02*
X12038115D01*
X12604155Y1468795D02*
X12653474D01*
X12579335Y1443975D02*
X12604155Y1468795D01*
X12579335Y1399335D02*
Y1443975D01*
X12277475Y1267474D02*
X12494974D01*
X12578794Y1351294D01*
X12653975D01*
X12487475Y1307475D02*
X12579335Y1399335D01*
X12339975Y1307475D02*
X12487475D01*
X11674975Y1389435D02*
X11792573D01*
X11780097Y1284312D02*
X11780257D01*
X11674975Y1389435D02*
X11780097Y1284312D01*
X2654474Y1945475D02*
X2787474Y1812475D01*
X2597955Y1945475D02*
X2654474D01*
X11539975Y1101350D02*
X11551455Y1089870D01*
X12880475Y1233795D02*
X12938795D01*
X2887955Y1560235D02*
Y1615415D01*
Y1560235D02*
X3078275Y1369914D01*
X3212095D01*
X3289755Y1292254D01*
X3533695D01*
X6228055Y1418906D02*
Y1649975D01*
Y1418906D02*
X6375642Y1271319D01*
X6428295D01*
X1889695Y1410475D02*
X2032490D01*
X1864335Y1385115D02*
X1889695Y1410475D01*
X1842683Y1243843D02*
X1864335Y1265495D01*
Y1385115D01*
X1648435Y1243843D02*
X1842683D01*
X2269517Y1647502D02*
X2394262D01*
X2492235Y1745475D01*
X2727475Y1510474D02*
Y1615415D01*
D82*
X10575475Y2531975D02*
X10704975D01*
X4647755Y1213474D02*
X4767755D01*
X13564975Y2913838D02*
Y3094975D01*
X3864974Y3067975D02*
X3865224Y3067725D01*
X4065724D01*
X4065974Y3067475D01*
X4767755Y1213474D02*
X4803315D01*
X4850935Y1261095D01*
Y1434154D01*
X7489975Y2512475D02*
X7664975D01*
X7842475Y2507475D02*
X8018504D01*
X4065974Y3067475D02*
X4075508Y3055795D01*
X4074682D02*
X4075508D01*
X4067062Y3048174D02*
X4074682Y3055795D01*
X4067062Y3027087D02*
Y3048174D01*
X3774415Y1691615D02*
Y1881888D01*
X3852978Y1960451D01*
X4067062Y3027087D02*
X4091895Y3002255D01*
X4242694D01*
X6741195Y1428461D02*
X6798218Y1485484D01*
X1544875Y2583779D02*
X1645810D01*
X1665835Y2603804D01*
X1735835D01*
X6741195Y1178535D02*
Y1428461D01*
X7011064Y2460186D02*
X7088300D01*
X6870236Y2382755D02*
X6933633D01*
X7011064Y2460186D01*
X4242694Y3002255D02*
X4328135Y2916814D01*
X3852978Y1960451D02*
Y2144076D01*
X4223995Y2566840D02*
X4279195D01*
X4328135Y2615780D01*
Y2916814D01*
X4051275Y2418055D02*
Y2514575D01*
X4103540Y2566840D01*
X4223995D01*
X3852978Y2144076D02*
X4051275Y2342372D01*
Y2418055D01*
D83*
X1334875Y1121335D02*
X1509875D01*
X1968975Y1114975D02*
X2141475D01*
X10877475Y1602475D02*
X11044975D01*
X2314775Y1156674D02*
X2323974Y1147475D01*
X4530196Y1874667D02*
X4632012D01*
X4544359Y1551313D02*
Y1665613D01*
X5683975Y2275215D02*
X5749741Y2209448D01*
X2247175Y2225015D02*
Y2399263D01*
X2562686Y2714774D01*
Y2782896D01*
X6948435Y1142294D02*
X7508435D01*
X6863055Y1227675D02*
X6948435Y1142294D01*
X6863055Y1227675D02*
Y1551915D01*
X6358295Y1178538D02*
X6531191D01*
X5048955Y2726110D02*
X5049057Y2726212D01*
X5178932D02*
X5179035Y2726315D01*
X5176495Y2726215D02*
X5176624Y2726345D01*
X5295205D01*
X5295335Y2726475D01*
X5296885D01*
X5355335Y2784925D01*
X5196815Y3050515D02*
X5214275Y3067975D01*
X5049057Y2726212D02*
X5178932D01*
X5214275Y3067975D02*
X5355335D01*
Y2784925D02*
Y2885706D01*
Y3067458D02*
Y3067975D01*
X2314775Y1156674D02*
Y1189875D01*
X2247175Y1257475D02*
X2314775Y1189875D01*
X2247175Y1257475D02*
Y1373775D01*
X5355335Y2895575D02*
Y3067458D01*
X1720054Y2275452D02*
Y2333392D01*
X1654511Y2398935D02*
X1720054Y2333392D01*
X7664975Y2045234D02*
Y2302474D01*
X6907055Y2701834D02*
Y3114015D01*
X7600319D01*
X8277586Y2857463D02*
X8277998Y2857875D01*
X8277586Y2680086D02*
Y2857463D01*
X8277174Y2679675D02*
X8277586Y2680086D01*
X1843718Y2462055D02*
X1889735D01*
X1781590Y2399926D02*
X1843718Y2462055D01*
X1689075Y2399926D02*
X1781590D01*
X1625055Y1484292D02*
X1714974Y1574212D01*
Y1618052D01*
X1690834Y1472355D02*
X1795755D01*
X1877443D01*
D84*
X2140034Y2015355D02*
X2248594D01*
D85*
X3126715Y1884655D02*
X3229034D01*
X3229354Y1884975D01*
X4297655Y1260855D02*
X4345035Y1213474D01*
X4457755D01*
X5048955Y2136110D02*
X5050935Y2138090D01*
X5048955Y2140071D02*
X5050935Y2138090D01*
X5048955Y2140071D02*
Y2163638D01*
D86*
X2464974Y2142775D02*
Y2182475D01*
Y2067435D02*
Y2107135D01*
X2569587Y2113783D02*
X2577955Y2105415D01*
X2597955D01*
X2577955Y2145415D02*
X2597955D01*
X2569587Y2137047D02*
X2577955Y2145415D01*
X2464974Y2142775D02*
X2470703Y2137047D01*
X2569587D01*
X2464974Y2107135D02*
X2471622Y2113783D01*
X2569587D01*
X4701515Y1681455D02*
X4705165Y1677805D01*
X4757285D01*
X4760935Y1674154D01*
X4701515Y1617955D02*
X4704615Y1621055D01*
X4757835D01*
X4760935Y1624154D01*
X6531191Y1196318D02*
X6531195Y1196315D01*
X1614205Y1965316D02*
X1644573Y1995684D01*
X1671686D01*
X1685054Y2009052D01*
X1720054D01*
X1637468Y1955680D02*
X1654209Y1972420D01*
X1671686D01*
X1685054Y1959052D01*
X1720054D01*
X1614205Y1902788D02*
Y1965316D01*
X1685054Y1859052D02*
X1720054D01*
X1671686Y1872420D02*
X1685054Y1859052D01*
X1644573Y1872420D02*
X1671686D01*
X1614205Y1902788D02*
X1644573Y1872420D01*
X1685054Y1909052D02*
X1720054D01*
X1671686Y1895684D02*
X1685054Y1909052D01*
X1654209Y1895684D02*
X1671686D01*
X1637468Y1912424D02*
X1654209Y1895684D01*
X1637468Y1912424D02*
Y1955680D01*
X1720054Y1959052D02*
X1755055D01*
X1768423Y1972420D01*
X1853133D01*
X1982877Y2093413D02*
X1990697Y2085593D01*
X2032733D01*
X1853133Y1972420D02*
X1974126Y2093413D01*
X2032733Y2085593D02*
X2042893Y2095753D01*
X1974126Y2093413D02*
X1982877D01*
X2042893Y2095753D02*
X2070323D01*
X2070596Y2096025D01*
X2084024D02*
X2087615Y2092435D01*
X2070596Y2096025D02*
X2084024D01*
X2087615Y2092435D02*
X2089622Y2094442D01*
Y2108615D01*
X2094331Y2113323D01*
X2326006D02*
X2332194Y2107135D01*
X2094331Y2113323D02*
X2326006D01*
X4230865Y1663284D02*
Y1782629D01*
X4299975Y1594175D02*
X4307475D01*
X4230865Y1663284D02*
X4299975Y1594175D01*
X4230865Y1782629D02*
X4275401Y1827164D01*
Y2074779D01*
X4236695Y2087855D02*
X4240685Y2083865D01*
X4266315D02*
X4275401Y2074779D01*
X4240685Y2083865D02*
X4266315D01*
X1720054Y2009052D02*
X1755055D01*
X1768423Y1995684D01*
X1843497D01*
X1974393Y2126579D02*
Y2150972D01*
X2089622Y2144255D02*
X2097290Y2136587D01*
X2042577Y2160435D02*
X2087615D01*
X2089622Y2144255D02*
Y2158427D01*
X1974393Y2150972D02*
X1990697Y2167277D01*
X2035735D02*
X2042577Y2160435D01*
X1990697Y2167277D02*
X2035735D01*
X2097290Y2136587D02*
X2326006D01*
X2332194Y2142775D01*
X2087615Y2160435D02*
X2089622Y2158427D01*
X4254129Y1772993D02*
X4298665Y1817528D01*
X4254129Y1697357D02*
Y1772993D01*
X4285294Y2123415D02*
X4289285Y2119424D01*
X4298665Y1817528D02*
Y2084415D01*
X4289285Y2093794D02*
Y2119424D01*
X4254129Y1697357D02*
X4300657D01*
X4307475Y1704175D01*
X4289285Y2093794D02*
X4298665Y2084415D01*
X2332194Y2142775D02*
Y2182475D01*
X1843497Y1995684D02*
X1974393Y2126579D01*
X2332194Y2067435D02*
Y2107135D01*
D87*
X2977954Y2105415D02*
X3009882D01*
X3043921Y2177094D02*
X3145117D01*
X3212035Y2120875D02*
X3230502Y2139342D01*
Y2465962D01*
X3367015Y2602475D01*
X3489935D01*
X3567135Y2679675D01*
X3212043Y2016735D02*
X3271495Y2076187D01*
X3395955Y2398655D02*
X3467995D01*
X3271495Y2076187D02*
Y2274195D01*
X3395955Y2398655D01*
X3634715Y2448535D02*
X3713455Y2527275D01*
X3634715Y1834154D02*
Y2448535D01*
X3842519Y1834154D02*
X3872398Y1804275D01*
Y1207551D02*
Y1804275D01*
X5683927Y1753370D02*
Y1995914D01*
Y1753370D02*
X5730442Y1706855D01*
X6010835D01*
Y1579235D02*
Y1706855D01*
X5948655Y1368655D02*
Y1517055D01*
X6010835Y1579235D01*
X5810975Y1836395D02*
Y1994434D01*
Y1836395D02*
X5849075Y1798295D01*
X6193414D01*
X6287394Y1704315D02*
X6755975D01*
X6193414Y1798295D02*
X6287394Y1704315D01*
X6755975Y1534466D02*
Y1704315D01*
X4541495Y2583660D02*
X4546941D01*
Y2589107D02*
X4593565Y2635730D01*
Y2725720D02*
X4593954Y2726110D01*
X4593565Y2635730D02*
Y2725720D01*
X4497475Y2922475D02*
Y2929975D01*
X4594835Y2524735D02*
X4658955Y2588855D01*
Y2726110D01*
Y2873495D01*
X4609975Y2922475D02*
X4658955Y2873495D01*
X4609975Y2922475D02*
Y2929975D01*
X4593954Y2726110D02*
Y2825995D01*
X4497475Y2922475D02*
X4593954Y2825995D01*
X4546941Y2583660D02*
Y2589107D01*
X3190215Y2594817D02*
Y2603804D01*
X3109981Y2302588D02*
X3162975Y2249595D01*
X3109981Y2302588D02*
Y2514583D01*
X3190215Y2594817D01*
X3629635Y1333475D02*
X3677895Y1285215D01*
X3408655Y1380035D02*
Y1653515D01*
Y1380035D02*
X3455215Y1333475D01*
X3629635D01*
X5478755Y1452414D02*
X5718394D01*
X5718835Y1452855D01*
X6682715Y1313155D02*
Y1461206D01*
X6755975Y1534466D01*
X3145117Y2177094D02*
X3162975Y2194952D01*
X3032187Y2128527D02*
X3032882Y2129222D01*
X3032187Y2127720D02*
Y2128527D01*
X3009882Y2105415D02*
X3032187Y2127720D01*
X3032882Y2129222D02*
Y2166056D01*
X3043921Y2177094D01*
X3210825Y2120875D02*
X3212035D01*
X3209622Y2016735D02*
X3212043D01*
X3872398Y1207551D02*
X3919195Y1160755D01*
X3980155Y1259755D02*
X4124935Y1114975D01*
X3914115Y1244575D02*
X4041115Y1117575D01*
X12157475Y1164413D02*
Y1244975D01*
X3162975Y2194952D02*
Y2249595D01*
X3095693Y1703873D02*
X3095693D01*
X2977954Y1745415D02*
X3045476D01*
X3094152Y1705414D02*
X3095693Y1703873D01*
X3045476Y1745415D02*
X3065336Y1765275D01*
X2977954Y1705414D02*
X3094152D01*
X6463975Y1450315D02*
Y1533015D01*
X6525235Y1594274D01*
Y1649755D01*
X2977954Y1785415D02*
X3009882D01*
X3583915Y2484675D02*
X3680435Y2581195D01*
X3408655Y1653515D02*
X3444215Y1689075D01*
Y1719555D01*
X3583915Y1859255D01*
Y2484675D01*
X3980155Y1259755D02*
Y1935455D01*
X3914115Y1244575D02*
Y2024355D01*
X3160694Y1424954D02*
Y1648875D01*
X3160655Y1424915D02*
X3160694Y1424954D01*
X3153335Y1656234D02*
X3160694Y1648875D01*
X3009882Y1785415D02*
X3037814Y1813346D01*
X3153335Y1656234D02*
X3159075Y1661975D01*
Y1765275D01*
X3037814Y1813346D02*
X3111003D01*
X3159075Y1765275D01*
X3467995Y2398655D02*
X3502505Y2364145D01*
X3864974Y2594055D02*
Y2686975D01*
X3931975Y2527055D02*
X3936975D01*
X3864974Y2594055D02*
X3931975Y2527055D01*
X4083974Y2679540D02*
X4221695D01*
X4223995Y2681840D01*
X3864974Y2813975D02*
X4079540D01*
X4083974Y2809540D01*
X3567135Y2679675D02*
X3685515D01*
D88*
X14453716Y1672475D02*
X14550455D01*
X14513715Y1322475D02*
X14518715D01*
X14554865Y1358625D01*
Y1363625D01*
X14550455Y1672475D02*
X14581015Y1641914D01*
X14606415Y1527275D02*
X14661215Y1472475D01*
X14554865Y1363625D02*
X14581015Y1389775D01*
Y1417675D01*
X14526215Y1472475D02*
X14581015Y1417675D01*
X14606415Y1389775D02*
X14673715Y1322475D01*
X14606415Y1389775D02*
Y1417675D01*
X14661215Y1472475D01*
X14526215D02*
X14581015Y1527275D01*
Y1641914D01*
X14606415Y1527275D02*
Y1641914D01*
X14636975Y1672475D01*
X14733714D01*
X12339975Y1387475D02*
X12366950D01*
X12374251Y1394775D01*
X12339975Y1427475D02*
X12366950D01*
X12374250Y1420175D01*
X12404546D01*
X12374251Y1394775D02*
X12394025D01*
X12416223Y1372577D01*
X12429717D01*
X12404546Y1420175D02*
X12419169Y1405552D01*
X12456012D02*
X12462049Y1399515D01*
X12496775D01*
X12429717Y1372577D02*
X12438652Y1363642D01*
X12419169Y1405552D02*
X12456012D01*
D89*
X10079975Y2126717D02*
X10169975D01*
X10142475Y1934217D02*
X10176732Y1968475D01*
X10263217D02*
X10297474Y1934217D01*
X10169975Y2126717D02*
X10205143Y2091548D01*
X10234806Y1976044D02*
X10242374Y1968475D01*
X10263217D01*
X10205143Y1975543D02*
Y2091548D01*
X10176732Y1968475D02*
X10198075D01*
X10205143Y1975543D01*
X10234806Y1976044D02*
Y2091566D01*
X10269957Y2126717D01*
X10359974D01*
X10142475Y1804217D02*
X10176493Y1770198D01*
X10152475Y1659293D02*
X10188994Y1695812D01*
X10195207D01*
X10176493Y1770198D02*
X10195207D01*
X10195207Y1695812D02*
X10205144Y1705749D01*
X10195207Y1770198D02*
X10205143Y1760262D01*
Y1731800D02*
Y1760262D01*
X10205144Y1705749D02*
Y1731800D01*
X10205143Y1731800D02*
X10205144Y1731800D01*
X10234806Y1744086D02*
X10234806Y1744086D01*
Y1705749D02*
Y1744086D01*
X10234806Y1760262D02*
X10244742Y1770198D01*
X10234806Y1744086D02*
Y1760262D01*
X10244742Y1695812D02*
X10250956D01*
X10234806Y1705749D02*
X10244742Y1695812D01*
X10244742Y1770198D02*
X10263455D01*
X10250956Y1695812D02*
X10287475Y1659293D01*
X10263455Y1770198D02*
X10297474Y1804217D01*
X7392715Y2382475D02*
X7489975D01*
X7367475Y2407715D02*
Y2512035D01*
Y2407715D02*
X7392715Y2382475D01*
X10192995Y1569695D02*
Y1577476D01*
X10204834Y1589315D01*
X10246335Y1569695D02*
Y1576353D01*
X10236224Y1586463D02*
X10246335Y1576353D01*
X10202626Y1569695D02*
X10205517Y1566803D01*
X11903984Y1512644D02*
X11909153Y1507475D01*
X11934975D01*
X11858761Y1512644D02*
X11903984D01*
X11791992Y1518894D02*
X11799774D01*
X11819116Y1538236D01*
X11833168D02*
X11858761Y1512644D01*
X11819116Y1538236D02*
X11833168D01*
X11877508Y1542306D02*
X11903984D01*
X11909825Y1548147D01*
X11851915Y1567899D02*
X11877508Y1542306D01*
X11752555Y1562075D02*
X11760336D01*
X11766160Y1567899D01*
X11851915D01*
X9992475Y1654675D02*
X10152093D01*
X10152475Y1651833D02*
Y1656833D01*
X10297474Y1654293D02*
X10449593D01*
X11909825Y1548147D02*
X11934975D01*
X10261176Y1656833D02*
X10287475D01*
X10244742Y1618052D02*
X10261176D01*
X10236224Y1586463D02*
Y1609534D01*
X10244742Y1618052D01*
X10195535D02*
X10204834Y1608753D01*
Y1589315D02*
Y1608753D01*
D90*
X12526475Y1467475D02*
Y1477635D01*
D91*
X2787955Y1808915D02*
D03*
X2680455D02*
D03*
X2895454D02*
D03*
X2787955Y1697915D02*
D03*
Y1919915D02*
D03*
Y2061414D02*
D03*
X2680455D02*
D03*
X2895454D02*
D03*
D92*
X1310055Y1469052D02*
D03*
X1625055D02*
D03*
X1310055Y2399052D02*
D03*
X1625055D02*
D03*
D93*
X5166335Y3068295D02*
D03*
X5669238D02*
D03*
D94*
X12244975Y1447475D02*
D03*
X12137475Y1337475D02*
D03*
Y1557475D02*
D03*
X12027475Y1447475D02*
D03*
X12247475Y1337475D02*
D03*
X12027475D02*
D03*
X12247475Y1557475D02*
D03*
X12027475D02*
D03*
D95*
X15001215Y1668755D02*
D03*
X8679155Y3017495D02*
D03*
D96*
X3568675Y1681455D02*
D03*
X3190215Y2603804D02*
D03*
X5524475Y1993875D02*
D03*
Y1798909D02*
D03*
D97*
X2054975Y2329975D02*
D03*
Y1694975D02*
D03*
D98*
X1560055Y1594052D02*
D03*
Y2274052D02*
D03*
X1195055Y2069052D02*
D03*
Y1799052D02*
D03*
D99*
X5110935Y1564154D02*
D03*
X5000935D02*
D03*
X4890935D02*
D03*
X5110935Y1674154D02*
D03*
X5000935D02*
D03*
X4890935D02*
D03*
X5110935Y1784154D02*
D03*
X5000935D02*
D03*
X4890935D02*
D03*
X12137475Y1447475D02*
D03*
X4463954Y2724210D02*
D03*
X4788955Y2726110D02*
D03*
X5295318Y2299078D02*
D03*
X4917115Y2029754D02*
D03*
X4790115Y2135532D02*
D03*
X4853954Y2136110D02*
D03*
X5050935Y1989114D02*
D03*
X5000935Y1914154D02*
D03*
X4632359Y1875014D02*
D03*
X10779975Y1347475D02*
D03*
X12984975Y1468795D02*
D03*
X10778584Y1227475D02*
D03*
X11539975Y1237779D02*
D03*
X8222475Y2302475D02*
D03*
X10660355Y2849855D02*
D03*
X10662895Y2970789D02*
D03*
X10704975Y2658975D02*
D03*
X13677875Y1881495D02*
D03*
Y1941495D02*
D03*
X13612874D02*
D03*
Y1881495D02*
D03*
X14008075D02*
D03*
Y1941495D02*
D03*
X13943074D02*
D03*
Y1881495D02*
D03*
X13167336Y1227475D02*
D03*
X13227335D02*
D03*
Y1162474D02*
D03*
X13287334D02*
D03*
X13167336D02*
D03*
X11665155Y2717434D02*
D03*
Y2597434D02*
D03*
Y2537435D02*
D03*
Y2657434D02*
D03*
X11600155D02*
D03*
Y2597434D02*
D03*
Y2717434D02*
D03*
Y2537435D02*
D03*
X12677115Y2717434D02*
D03*
Y2597434D02*
D03*
Y2537435D02*
D03*
Y2657434D02*
D03*
X12612114D02*
D03*
Y2597434D02*
D03*
Y2717434D02*
D03*
Y2537435D02*
D03*
X4544359Y1551313D02*
D03*
X4767755Y1341501D02*
D03*
X10704975Y2912975D02*
D03*
Y2785975D02*
D03*
X11051975Y2342575D02*
D03*
X11242475Y2369975D02*
D03*
X11051975Y2400293D02*
D03*
X10988475Y2369975D02*
D03*
X11115475D02*
D03*
X13094936Y2414975D02*
D03*
X13093675Y2342575D02*
D03*
X13219975Y2414975D02*
D03*
Y2342575D02*
D03*
X13347435Y2416698D02*
D03*
Y2342575D02*
D03*
X13532475Y2849974D02*
D03*
X13604895Y2847475D02*
D03*
X13532475Y2722475D02*
D03*
X13604895D02*
D03*
X13532475Y2472275D02*
D03*
Y2594974D02*
D03*
X13604895Y2472275D02*
D03*
Y2594974D02*
D03*
X7399755Y1787799D02*
D03*
X8072795Y1569035D02*
D03*
X7857475Y1809975D02*
D03*
X2247175Y1373775D02*
D03*
X4530196Y1874667D02*
D03*
X2687474Y2260299D02*
D03*
Y2312085D02*
D03*
Y2363870D02*
D03*
Y2415656D02*
D03*
Y2519227D02*
D03*
Y2571012D02*
D03*
X2319735Y1821155D02*
D03*
X2745715Y2570688D02*
D03*
Y2415331D02*
D03*
Y2363546D02*
D03*
Y2311760D02*
D03*
Y2259975D02*
D03*
X2885235Y2259650D02*
D03*
Y2311436D02*
D03*
Y2363221D02*
D03*
Y2415007D02*
D03*
X2826995Y2518902D02*
D03*
Y2415331D02*
D03*
Y2363546D02*
D03*
Y2311760D02*
D03*
Y2259975D02*
D03*
X4983954Y2726110D02*
D03*
X2745715Y2622473D02*
D03*
X2687474Y2622798D02*
D03*
X2826995Y2570688D02*
D03*
X2885235Y2570363D02*
D03*
Y2622149D02*
D03*
X2826995Y2622473D02*
D03*
X2687474Y2467441D02*
D03*
X2745715Y2518902D02*
D03*
Y2467117D02*
D03*
X2826995D02*
D03*
X2885235Y2518578D02*
D03*
Y2466792D02*
D03*
X4541495Y2583660D02*
D03*
X14008075Y1821495D02*
D03*
X13943074D02*
D03*
X13677875D02*
D03*
X13612874D02*
D03*
Y2001495D02*
D03*
X13677875D02*
D03*
X13943074D02*
D03*
X14008075D02*
D03*
X1632626Y2107195D02*
D03*
X1513815Y2174215D02*
D03*
Y2107195D02*
D03*
X1573220D02*
D03*
Y2174215D02*
D03*
X1632626D02*
D03*
X2247175Y2225015D02*
D03*
X2575535Y2440915D02*
D03*
Y2389129D02*
D03*
X2517294Y2389454D02*
D03*
Y2337668D02*
D03*
X2575535Y2337344D02*
D03*
X2517294Y2441239D02*
D03*
X6482055Y2244288D02*
D03*
Y2296073D02*
D03*
X6423814Y2244612D02*
D03*
Y2399969D02*
D03*
X6482055Y2399644D02*
D03*
Y2192502D02*
D03*
Y2347859D02*
D03*
X6423814Y2348183D02*
D03*
Y2296398D02*
D03*
Y2192827D02*
D03*
X6596355Y2244288D02*
D03*
X6538114Y2244612D02*
D03*
Y2399969D02*
D03*
X6596355Y2399644D02*
D03*
Y2192502D02*
D03*
Y2347859D02*
D03*
X6538114Y2348183D02*
D03*
Y2296398D02*
D03*
Y2192827D02*
D03*
X6710655Y2244612D02*
D03*
Y2296398D02*
D03*
X6652414Y2244937D02*
D03*
Y2400293D02*
D03*
X6710655Y2399969D02*
D03*
Y2192827D02*
D03*
Y2348183D02*
D03*
X6652414Y2348508D02*
D03*
Y2296722D02*
D03*
Y2193151D02*
D03*
X6596355Y2296073D02*
D03*
X2072615Y1369035D02*
D03*
X3047474Y3067975D02*
D03*
Y2939975D02*
D03*
Y2814975D02*
D03*
X3369975Y2686975D02*
D03*
X4153974Y3067475D02*
D03*
X4184975Y2939975D02*
D03*
X4725854Y3029706D02*
D03*
X4840154D02*
D03*
X4954454D02*
D03*
X7728372Y1590015D02*
D03*
X7837331D02*
D03*
X7729195Y1483335D02*
D03*
X7782475Y1534975D02*
D03*
X7387215Y1423154D02*
D03*
X1447775Y2964155D02*
D03*
X1640515Y3095255D02*
D03*
Y2836175D02*
D03*
X1877035Y1749414D02*
D03*
X2249975Y1743799D02*
D03*
X2138655Y2016735D02*
D03*
X2984654Y2623550D02*
D03*
X3042895Y2519655D02*
D03*
X2984654Y2519979D02*
D03*
Y2571765D02*
D03*
X3042895Y2571440D02*
D03*
Y2623226D02*
D03*
X1877035Y1661414D02*
D03*
X1254435Y2964155D02*
D03*
Y3095255D02*
D03*
Y2836175D02*
D03*
X1447775D02*
D03*
Y3095255D02*
D03*
X1640515Y2964155D02*
D03*
X3832835Y2471395D02*
D03*
X3713455Y2527275D02*
D03*
X3680435Y2581195D02*
D03*
X5853881Y2449215D02*
D03*
X5749741Y2209448D02*
D03*
X6463975Y1450315D02*
D03*
X5948655Y1368655D02*
D03*
X3275655Y1424915D02*
D03*
X4137635Y1429995D02*
D03*
X4594835Y2524735D02*
D03*
X3731235Y1971015D02*
D03*
X8018642Y2297337D02*
D03*
X6863055Y1551915D02*
D03*
X9883623Y2425687D02*
D03*
Y2270330D02*
D03*
Y2477473D02*
D03*
Y2373902D02*
D03*
Y2322116D02*
D03*
X9596782Y2270330D02*
D03*
Y2373902D02*
D03*
Y2425687D02*
D03*
Y2477473D02*
D03*
Y2322116D02*
D03*
X12984953Y1346434D02*
D03*
X12339975Y1587475D02*
D03*
X7782475Y1905131D02*
D03*
X3677895Y1285215D02*
D03*
X8422615Y2259650D02*
D03*
X8346415D02*
D03*
X8422615Y2346010D02*
D03*
X8346415D02*
D03*
X7160235Y1762735D02*
D03*
X7236435D02*
D03*
X7160235Y1676375D02*
D03*
X7236435D02*
D03*
X7160235Y1574775D02*
D03*
X7236435D02*
D03*
X7160235Y1488415D02*
D03*
X7236435D02*
D03*
X1334875Y1331335D02*
D03*
X2603974Y1147475D02*
D03*
X2575535Y1357235D02*
D03*
X3162975Y2357095D02*
D03*
X4525631Y1963014D02*
D03*
X4632359D02*
D03*
X8689135Y1605174D02*
D03*
X8630895Y1553713D02*
D03*
Y1605499D02*
D03*
X8803435Y1553389D02*
D03*
X8745195Y1553713D02*
D03*
X8803435Y1656960D02*
D03*
X8745195Y1605499D02*
D03*
X8917735Y1553713D02*
D03*
Y1605499D02*
D03*
X8859495Y1554038D02*
D03*
Y1657609D02*
D03*
Y1605824D02*
D03*
X8803435Y1605174D02*
D03*
X1573220Y1694155D02*
D03*
Y1751598D02*
D03*
X1512673D02*
D03*
Y1694155D02*
D03*
X2540185Y1792544D02*
D03*
X2444067Y1788135D02*
D03*
X2526311Y1869415D02*
D03*
X2444067D02*
D03*
X2330636Y3059831D02*
D03*
Y2779831D02*
D03*
X2562686Y3058435D02*
D03*
X3327375Y2254613D02*
D03*
X1647165Y1130113D02*
D03*
X7502975Y1536375D02*
D03*
X8177724Y1452414D02*
D03*
X7638475Y1454975D02*
D03*
X8859495Y1502253D02*
D03*
X7926475Y1454975D02*
D03*
X8745195Y1501928D02*
D03*
X8917735D02*
D03*
X8630895D02*
D03*
X8689135Y1553389D02*
D03*
Y1501603D02*
D03*
X8803435D02*
D03*
X7139915Y1371575D02*
D03*
X7275455Y1323315D02*
D03*
X7023075Y1371575D02*
D03*
X8613294Y2261760D02*
D03*
Y2365331D02*
D03*
Y2313545D02*
D03*
Y2209974D02*
D03*
X8900135Y2261760D02*
D03*
Y2313545D02*
D03*
Y2417116D02*
D03*
Y2209974D02*
D03*
Y2365331D02*
D03*
X7842475Y2384975D02*
D03*
X11729695Y2537435D02*
D03*
Y2717434D02*
D03*
Y2597434D02*
D03*
Y2657434D02*
D03*
X11794695D02*
D03*
Y2537435D02*
D03*
Y2597434D02*
D03*
Y2717434D02*
D03*
X12486995Y2537435D02*
D03*
Y2717434D02*
D03*
Y2597434D02*
D03*
Y2657434D02*
D03*
X12551995D02*
D03*
Y2537435D02*
D03*
Y2597434D02*
D03*
Y2717434D02*
D03*
X11177475Y2399644D02*
D03*
Y2341855D02*
D03*
X11304975Y2399644D02*
D03*
Y2343470D02*
D03*
X10746715Y2970789D02*
D03*
X10741635Y2849855D02*
D03*
X10660355Y2720885D02*
D03*
X10741635D02*
D03*
X9824695Y1952475D02*
D03*
X7302256Y2012475D02*
D03*
X7197676Y2013390D02*
D03*
X7408255D02*
D03*
X7302255Y2078014D02*
D03*
Y1945934D02*
D03*
X7197676D02*
D03*
X7408255Y1945414D02*
D03*
Y2078014D02*
D03*
X7197676Y2078475D02*
D03*
X8317475Y1953390D02*
D03*
X8317475Y2019275D02*
D03*
X8317475Y1887195D02*
D03*
X8209255Y1953391D02*
D03*
X8207985Y2019275D02*
D03*
X8209255Y1887195D02*
D03*
X8425155Y2019275D02*
D03*
Y1953390D02*
D03*
Y1889975D02*
D03*
X6287475Y1958392D02*
D03*
X6609975D02*
D03*
X6932475D02*
D03*
X7037677Y1719974D02*
D03*
Y1552794D02*
D03*
X2981475Y2320474D02*
D03*
X3702553Y2283435D02*
D03*
X3477235Y2283100D02*
D03*
X2577535Y1505535D02*
D03*
X3774415Y1691615D02*
D03*
X3634715Y1834154D02*
D03*
X3842519D02*
D03*
X10007575Y2097261D02*
D03*
Y2039735D02*
D03*
Y2154788D02*
D03*
X9483546Y2638338D02*
D03*
X9824695Y2112475D02*
D03*
X9684618Y2638338D02*
D03*
X9885689D02*
D03*
X10086760D02*
D03*
X9282513Y3087411D02*
D03*
X9383478D02*
D03*
X9484443D02*
D03*
X9585408D02*
D03*
X9686373D02*
D03*
X9787338D02*
D03*
X9888303D02*
D03*
X9989268D02*
D03*
X10090233D02*
D03*
X9282513Y3013635D02*
D03*
X9383478D02*
D03*
X9484443D02*
D03*
X9585408D02*
D03*
X9686373D02*
D03*
X9787338D02*
D03*
X9888303D02*
D03*
X9989268D02*
D03*
X10090233D02*
D03*
X12192555Y1447475D02*
D03*
X12247855Y1503655D02*
D03*
X12193698Y1391895D02*
D03*
X12247855D02*
D03*
X10284988Y2637195D02*
D03*
X9285505Y2641221D02*
D03*
X12027213Y1503655D02*
D03*
X12082475Y1557051D02*
D03*
X12082395Y1503655D02*
D03*
X13156975Y2370838D02*
D03*
X13283975D02*
D03*
X13410976D02*
D03*
X13612474Y2337475D02*
D03*
X13804974Y2338338D02*
D03*
X13997475Y2337475D02*
D03*
X13564975Y2532838D02*
D03*
Y2659838D02*
D03*
Y2786838D02*
D03*
X15058595Y1472255D02*
D03*
Y1412255D02*
D03*
X14993594Y1472255D02*
D03*
Y1412255D02*
D03*
X15059476Y1269975D02*
D03*
Y1209975D02*
D03*
X14994475Y1269975D02*
D03*
Y1209975D02*
D03*
X13612474Y2177475D02*
D03*
X13804974Y2178338D02*
D03*
X13997475Y2177475D02*
D03*
X14866125Y1441110D02*
D03*
Y1238610D02*
D03*
X10007575Y2212315D02*
D03*
X10429215Y2214715D02*
D03*
Y2157188D02*
D03*
Y2042135D02*
D03*
Y2099661D02*
D03*
X14803094Y1762555D02*
D03*
Y1705028D02*
D03*
Y1589975D02*
D03*
Y1647502D02*
D03*
X6287475Y2250392D02*
D03*
X7837331Y1483335D02*
D03*
X1877443Y1560355D02*
D03*
X2019275Y1986436D02*
D03*
X4698975Y1681455D02*
D03*
Y1617955D02*
D03*
X4422475Y1594175D02*
D03*
Y1704175D02*
D03*
X4422115Y1775435D02*
D03*
Y1525133D02*
D03*
X1632626Y1750436D02*
D03*
Y1694155D02*
D03*
X14386536Y1760055D02*
D03*
Y1702528D02*
D03*
Y1587475D02*
D03*
Y1645001D02*
D03*
X14152855Y1163763D02*
D03*
X14092854D02*
D03*
X14032855D02*
D03*
X13972855D02*
D03*
X13588976Y1162779D02*
D03*
X13528975D02*
D03*
X13468974D02*
D03*
X13408975D02*
D03*
X13287334Y1227475D02*
D03*
X13347334Y1162474D02*
D03*
X14152855Y1228763D02*
D03*
X14092854D02*
D03*
X14032855D02*
D03*
X13972855D02*
D03*
X13588976Y1227779D02*
D03*
X13528975D02*
D03*
X13468974D02*
D03*
X13408975D02*
D03*
X13347334Y1227475D02*
D03*
X14673715Y1192475D02*
D03*
X14513715Y1192475D02*
D03*
X10861475Y2369975D02*
D03*
X10704975Y2531975D02*
D03*
X11259975D02*
D03*
Y2658975D02*
D03*
Y2785975D02*
D03*
Y2912975D02*
D03*
X10856115D02*
D03*
Y2785975D02*
D03*
Y2658975D02*
D03*
Y2531975D02*
D03*
X10855935Y2722855D02*
D03*
X10856115Y2849855D02*
D03*
Y2595855D02*
D03*
X11026655Y2912595D02*
D03*
Y2785595D02*
D03*
Y2658595D02*
D03*
Y2531595D02*
D03*
X11026475Y2722475D02*
D03*
X11026655Y2849475D02*
D03*
Y2595475D02*
D03*
X13244655Y2912458D02*
D03*
Y2785458D02*
D03*
Y2658458D02*
D03*
Y2531458D02*
D03*
X13244475Y2722338D02*
D03*
X13244655Y2849338D02*
D03*
Y2595338D02*
D03*
X13411356Y2913458D02*
D03*
Y2786458D02*
D03*
Y2659458D02*
D03*
Y2532458D02*
D03*
X13411176Y2723338D02*
D03*
X13411356Y2850338D02*
D03*
Y2596338D02*
D03*
X10861855Y2048655D02*
D03*
X10988855D02*
D03*
X11115855D02*
D03*
X11242855D02*
D03*
X11051975Y2048475D02*
D03*
X10924975Y2048655D02*
D03*
X11178975D02*
D03*
X13410596Y2049158D02*
D03*
X13283595D02*
D03*
X13156595D02*
D03*
X13029594D02*
D03*
X13220474Y2049338D02*
D03*
X13347475Y2049158D02*
D03*
X13093475D02*
D03*
X13410095Y2217214D02*
D03*
X13283095D02*
D03*
X13156094D02*
D03*
X13029095D02*
D03*
X13219975Y2217395D02*
D03*
X13346976Y2217214D02*
D03*
X13092975D02*
D03*
X11242094Y2161334D02*
D03*
X11115094D02*
D03*
X10988094D02*
D03*
X10861094D02*
D03*
X11051974Y2161515D02*
D03*
X11178974Y2161334D02*
D03*
X10924974D02*
D03*
X10861475Y1814975D02*
D03*
X10988475D02*
D03*
X11115475D02*
D03*
X11242475D02*
D03*
X13029974Y1815838D02*
D03*
X13156975D02*
D03*
X13283975D02*
D03*
X13410976D02*
D03*
X13410796Y1884474D02*
D03*
X13283795D02*
D03*
X13156795D02*
D03*
X13029794D02*
D03*
X13220676Y1884655D02*
D03*
X13347675Y1884474D02*
D03*
X13093675D02*
D03*
X11242095Y1885234D02*
D03*
X11115095D02*
D03*
X10988095D02*
D03*
X10861095D02*
D03*
X11051975Y1885415D02*
D03*
X11178975Y1885234D02*
D03*
X10924975D02*
D03*
X11191395Y2914330D02*
D03*
Y2787330D02*
D03*
Y2660330D02*
D03*
Y2533330D02*
D03*
X11191215Y2724210D02*
D03*
X11191395Y2851210D02*
D03*
Y2597210D02*
D03*
X13010974Y2531838D02*
D03*
Y2658838D02*
D03*
Y2785838D02*
D03*
Y2912838D02*
D03*
X13083334Y2530195D02*
D03*
Y2657195D02*
D03*
Y2784195D02*
D03*
Y2911195D02*
D03*
X13083514Y2720315D02*
D03*
X13083334Y2593315D02*
D03*
Y2847315D02*
D03*
X10623975Y1883096D02*
D03*
X10711975D02*
D03*
X10623395Y1991996D02*
D03*
X10711395D02*
D03*
X10705475Y3024975D02*
D03*
X11354475Y2369475D02*
D03*
X13446202Y2415007D02*
D03*
X13123656Y1549587D02*
D03*
X13123639Y1705595D02*
D03*
X11539975Y1741134D02*
D03*
X12082395Y1447475D02*
D03*
X12137475Y1392395D02*
D03*
X12082513Y1391355D02*
D03*
X12026875Y1392314D02*
D03*
X12082755Y1337475D02*
D03*
X12095115Y1928909D02*
D03*
X10663168Y1226795D02*
D03*
X11231926Y1227475D02*
D03*
X11539975Y1394435D02*
D03*
X11096926Y1227475D02*
D03*
X12251521Y1936151D02*
D03*
X12137475Y1502555D02*
D03*
X12192555Y1557475D02*
D03*
X12238115Y1649975D02*
D03*
X12192555Y1502555D02*
D03*
X8917735Y1657284D02*
D03*
X8745195D02*
D03*
X9655023Y2425362D02*
D03*
X9711082Y2425687D02*
D03*
X9825382Y2426012D02*
D03*
X9655023Y2477148D02*
D03*
X9711082Y2477473D02*
D03*
X9655023Y2321791D02*
D03*
X9711082Y2270330D02*
D03*
X9769323Y2270006D02*
D03*
Y2321791D02*
D03*
X9825382Y2477797D02*
D03*
Y2270655D02*
D03*
X8785835Y2209650D02*
D03*
Y2261435D02*
D03*
X8841894Y2417441D02*
D03*
X8727594Y2209974D02*
D03*
X8841894Y2210299D02*
D03*
X8671535Y2261435D02*
D03*
X8841894Y2365655D02*
D03*
X8671535Y2365006D02*
D03*
X8727594Y2365331D02*
D03*
X9711082Y2373902D02*
D03*
Y2322116D02*
D03*
X9655023Y2270006D02*
D03*
Y2373577D02*
D03*
X9825382Y2322441D02*
D03*
Y2374226D02*
D03*
X9769323Y2373577D02*
D03*
Y2477148D02*
D03*
Y2425362D02*
D03*
X8671535Y2313221D02*
D03*
Y2209650D02*
D03*
X8727594Y2261760D02*
D03*
Y2313545D02*
D03*
X8785835Y2313221D02*
D03*
X8841894Y2313870D02*
D03*
Y2262084D02*
D03*
X8785835Y2365006D02*
D03*
X11678895Y1605255D02*
D03*
X13695126Y1444770D02*
D03*
Y1604770D02*
D03*
X13890126Y1444770D02*
D03*
Y1604770D02*
D03*
X9992335Y1445916D02*
D03*
X9040364Y1944073D02*
D03*
X8712175Y1944076D02*
D03*
X9372275Y1941755D02*
D03*
X9632581Y1953534D02*
D03*
Y2113534D02*
D03*
X9456395Y2222475D02*
D03*
Y2404586D02*
D03*
X9360027Y2222475D02*
D03*
X9263654Y2404586D02*
D03*
X9263517Y2222475D02*
D03*
X9360115Y2313376D02*
D03*
X9456395D02*
D03*
X9263355D02*
D03*
X9360115Y2405373D02*
D03*
X13300127Y1603555D02*
D03*
X13497626D02*
D03*
X13300127Y1443555D02*
D03*
X13497626D02*
D03*
X2361823Y1869415D02*
D03*
X2485365Y1907515D02*
D03*
X2401978Y1821155D02*
D03*
X2484222D02*
D03*
X2403132Y1907515D02*
D03*
X2579155Y2578275D02*
D03*
X2361823Y1788135D02*
D03*
Y1715647D02*
D03*
X3408655Y1653515D02*
D03*
X3395955Y2513655D02*
D03*
X13447183Y2317101D02*
D03*
X6228295Y1196318D02*
D03*
X7390455Y1323315D02*
D03*
X8630895Y1657284D02*
D03*
X8689135Y1656960D02*
D03*
X4297655Y1390855D02*
D03*
X3761713Y1229334D02*
D03*
X5478755Y1452414D02*
D03*
X6798218Y1485484D02*
D03*
X6682715Y1313155D02*
D03*
X5176495Y2638215D02*
D03*
X5295335Y2638475D02*
D03*
X13029974Y2370838D02*
D03*
X5664175Y2758415D02*
D03*
X4206215Y2034515D02*
D03*
X4348455Y2137857D02*
D03*
X4223995Y1958234D02*
D03*
X4140175Y1699235D02*
D03*
X3072554Y1312475D02*
D03*
X3160555D02*
D03*
X3528035Y1902435D02*
D03*
X3686631D02*
D03*
X3639795Y1424915D02*
D03*
X1968475Y1354695D02*
D03*
X2468855Y1469814D02*
D03*
X2352015Y1448035D02*
D03*
X3210825Y2120875D02*
D03*
X3209622Y2016735D02*
D03*
X3919195Y1160755D02*
D03*
X4124935Y1114975D02*
D03*
X4041115Y1117575D02*
D03*
X12191975Y1338555D02*
D03*
X10782475Y1432475D02*
D03*
X11539975Y1611134D02*
D03*
X11934975Y1386875D02*
D03*
X12602475Y1214975D02*
D03*
X12077475Y1179975D02*
D03*
X12157475Y1164413D02*
D03*
X10921975Y1158215D02*
D03*
X12117475Y1244975D02*
D03*
X12038115D02*
D03*
X12526475Y1477635D02*
D03*
X12496775Y1399515D02*
D03*
X12339975Y1347475D02*
D03*
X12438652Y1363642D02*
D03*
X12037475Y1649975D02*
D03*
X11826215Y1427455D02*
D03*
X11934975Y1467475D02*
D03*
X4244315Y2410435D02*
D03*
X2085315Y2568495D02*
D03*
Y2696475D02*
D03*
Y2827575D02*
D03*
X1831315Y2988475D02*
D03*
Y3119575D02*
D03*
Y2860495D02*
D03*
X5100055Y2024594D02*
D03*
X12117475Y1649975D02*
D03*
X2468855Y1557815D02*
D03*
X2352175Y1348715D02*
D03*
X2842235Y1862085D02*
D03*
X2680455Y1918135D02*
D03*
X2839889Y2061735D02*
D03*
X2842235Y1916695D02*
D03*
X2680455Y1754305D02*
D03*
X2733600Y2110715D02*
D03*
X2895454Y1918135D02*
D03*
X2733015Y1917675D02*
D03*
X2895454Y1754305D02*
D03*
X2870616Y2018107D02*
D03*
X2787955Y1754305D02*
D03*
X2733015Y1753845D02*
D03*
X2786744Y2110715D02*
D03*
X2703315Y2016735D02*
D03*
X2597955Y1885415D02*
D03*
X3065336Y1765275D02*
D03*
X2733015Y1863065D02*
D03*
X2680455Y1699695D02*
D03*
X2839889Y2110715D02*
D03*
X2787955Y1863525D02*
D03*
X2733600Y2061735D02*
D03*
X2597955Y1805414D02*
D03*
X2680455Y1863525D02*
D03*
X2893034Y2110715D02*
D03*
X3095693Y1703873D02*
D03*
X2895454Y1699695D02*
D03*
X2733015Y1808455D02*
D03*
X2680455Y2110715D02*
D03*
X2895454Y1863525D02*
D03*
X2733015Y1699235D02*
D03*
X2842235Y1752865D02*
D03*
X2761540Y2016735D02*
D03*
X2842235Y1698255D02*
D03*
X2811755Y2017355D02*
D03*
X2842235Y1807475D02*
D03*
X4853954Y2726110D02*
D03*
X4918955D02*
D03*
X11780257Y1284312D02*
D03*
X2019275Y1922755D02*
D03*
X8006055Y1704315D02*
D03*
X7622735Y1142262D02*
D03*
X7782535Y1325428D02*
D03*
X1334875Y2583779D02*
D03*
X1889735Y2181015D02*
D03*
Y2374054D02*
D03*
X1865835Y2603804D02*
D03*
X5485335Y3068711D02*
D03*
X13904974Y2532475D02*
D03*
X13844974D02*
D03*
X13904974Y2467475D02*
D03*
X13724976D02*
D03*
X13844974D02*
D03*
X13724976Y2532475D02*
D03*
X13784975D02*
D03*
Y2467475D02*
D03*
X14436993Y2077663D02*
D03*
Y2012662D02*
D03*
X14376994Y2077663D02*
D03*
X14256995Y2012662D02*
D03*
X14317955Y2525075D02*
D03*
Y2585075D02*
D03*
X14382954Y2645075D02*
D03*
Y2585075D02*
D03*
X14256995Y2077663D02*
D03*
X14316994D02*
D03*
X14376994Y2012662D02*
D03*
X14316994D02*
D03*
X14317955Y2645075D02*
D03*
X14382954Y2525075D02*
D03*
X14317955Y2705075D02*
D03*
X14382954D02*
D03*
X14900595Y2706654D02*
D03*
X14835596D02*
D03*
X14900595Y2526655D02*
D03*
X14835596Y2646655D02*
D03*
X14900595Y2586655D02*
D03*
Y2646655D02*
D03*
X14835596Y2586655D02*
D03*
Y2526655D02*
D03*
X8671535Y2416792D02*
D03*
X8613294Y2417116D02*
D03*
X8785835Y2416792D02*
D03*
X8727594Y2417116D02*
D03*
X9282513Y2939975D02*
D03*
X9484443D02*
D03*
X9383478D02*
D03*
X9686373D02*
D03*
X9585408D02*
D03*
X9888303D02*
D03*
X9787338D02*
D03*
X10090233D02*
D03*
X9989268D02*
D03*
X10284435Y2766035D02*
D03*
X10086315D02*
D03*
X9885655D02*
D03*
X9682455D02*
D03*
X9481795D02*
D03*
X9283675D02*
D03*
X13565974Y2912838D02*
D03*
X7063715Y2151355D02*
D03*
X7367475Y2512035D02*
D03*
X6525235Y1649755D02*
D03*
X8007475Y1889975D02*
D03*
X8072095Y1875014D02*
D03*
X7664975Y2045234D02*
D03*
X6412975Y2997175D02*
D03*
X1890020Y2269300D02*
D03*
X6907055Y2701834D02*
D03*
X8067998Y2875655D02*
D03*
X5297495Y2135532D02*
D03*
X10572975Y1463015D02*
D03*
X4335755Y2356175D02*
D03*
X4528955Y2724210D02*
D03*
X3980155Y1935455D02*
D03*
X3914115Y2024355D02*
D03*
X3159075Y1765275D02*
D03*
X7951434Y1292595D02*
D03*
X6228055Y1649975D02*
D03*
X7364694Y1239890D02*
D03*
X6741195Y1178535D02*
D03*
X6428295Y1271319D02*
D03*
X6870236Y2382755D02*
D03*
X7088300Y2460186D02*
D03*
X5240935Y1774154D02*
D03*
X4422475Y1859255D02*
D03*
X5681955Y2895575D02*
D03*
X1720054Y2170052D02*
D03*
Y1698052D02*
D03*
X1835131Y2058213D02*
D03*
X2007614Y2126435D02*
D03*
X2349974Y2067435D02*
D03*
X4236695Y2087855D02*
D03*
X4285294Y2123415D02*
D03*
X2349974Y2185015D02*
D03*
X4777715Y2284231D02*
D03*
X4528955Y2136110D02*
D03*
X5048955Y2163638D02*
D03*
X3936975Y2361735D02*
D03*
X3502505Y2364145D02*
D03*
X4051275Y2418055D02*
D03*
X3685515Y2679675D02*
D03*
X4083974Y2679540D02*
D03*
X10246335Y1569695D02*
D03*
X10192995D02*
D03*
X11791992Y1518894D02*
D03*
X11752555Y1562075D02*
D03*
%TF.MD5,7de72fb154709ec3af91d1b46f14506e*%
M02*
