%TF.GenerationSoftware,Altium Limited,Altium Designer,19.0.15 (446)*%
G04 Layer_Physical_Order=2*
G04 Layer_Color=36540*
%FSLAX45Y45*%
%MOMM*%
%TF.FileFunction,Copper,L2,Inr,Signal*%
%TF.Part,Single*%
G01*
G75*
%TA.AperFunction,NonConductor*%
%ADD80C,0.25400*%
%ADD81C,0.20320*%
%ADD82C,0.38100*%
%ADD83C,0.50800*%
%ADD85C,0.30480*%
%TA.AperFunction,ComponentPad*%
%ADD91C,0.40000*%
G04:AMPARAMS|DCode=92|XSize=1mm|YSize=2.3mm|CornerRadius=0.5mm|HoleSize=0mm|Usage=FLASHONLY|Rotation=270.000|XOffset=0mm|YOffset=0mm|HoleType=Round|Shape=RoundedRectangle|*
%AMROUNDEDRECTD92*
21,1,1.00000,1.30000,0,0,270.0*
21,1,0.00000,2.30000,0,0,270.0*
1,1,1.00000,-0.65000,0.00000*
1,1,1.00000,-0.65000,0.00000*
1,1,1.00000,0.65000,0.00000*
1,1,1.00000,0.65000,0.00000*
%
%ADD92ROUNDEDRECTD92*%
%ADD93C,1.52400*%
%ADD94C,0.45720*%
%TA.AperFunction,ViaPad*%
%ADD95C,2.50000*%
%ADD96C,1.52400*%
%ADD97C,1.98000*%
%ADD98C,0.60000*%
%ADD99C,0.45720*%
%TA.AperFunction,NonConductor*%
%ADD100C,0.76200*%
G36*
X7062668Y2606014D02*
Y2501101D01*
X7053506Y2494979D01*
X7042840Y2479016D01*
X7039094Y2460186D01*
X7042840Y2441356D01*
X7053506Y2425392D01*
X7062668Y2419271D01*
X7062668Y2200352D01*
X7044885Y2196815D01*
X7028921Y2186148D01*
X7018255Y2170185D01*
X7014509Y2151355D01*
X7018255Y2132525D01*
X7028921Y2116561D01*
X7044885Y2105895D01*
X7062668Y2102357D01*
Y1775429D01*
X7049968Y1766735D01*
X7037677Y1769180D01*
X7018847Y1765434D01*
X7002883Y1754768D01*
X6992217Y1738804D01*
X6988471Y1719974D01*
X6992217Y1701144D01*
X7002883Y1685181D01*
X7018847Y1674515D01*
X7037677Y1670769D01*
X7049968Y1673214D01*
X7062668Y1664520D01*
Y1608249D01*
X7049968Y1599555D01*
X7037677Y1602000D01*
X7018847Y1598254D01*
X7002883Y1587588D01*
X6992217Y1571624D01*
X6988471Y1552794D01*
X6992217Y1533964D01*
X7002883Y1518001D01*
X7018847Y1507335D01*
X7037677Y1503589D01*
X7049968Y1506034D01*
X7062668Y1497340D01*
Y1418435D01*
X7049968Y1411647D01*
X7041905Y1417035D01*
X7023075Y1420780D01*
X7004245Y1417035D01*
X6988281Y1406368D01*
X6977615Y1390405D01*
X6977406Y1389354D01*
X6469978D01*
X6468727Y1402054D01*
X6471328Y1402572D01*
X6482805Y1404855D01*
X6498769Y1415521D01*
X6509435Y1431485D01*
X6513181Y1450315D01*
X6509435Y1469145D01*
X6498769Y1485108D01*
X6482805Y1495775D01*
X6463975Y1499520D01*
X6445145Y1495775D01*
X6429182Y1485108D01*
X6418515Y1469145D01*
X6414770Y1450315D01*
X6418515Y1431485D01*
X6429182Y1415521D01*
X6445145Y1404855D01*
X6456622Y1402572D01*
X6459223Y1402054D01*
X6457972Y1389354D01*
X5992866D01*
X5983449Y1403449D01*
X5967485Y1414115D01*
X5948655Y1417861D01*
X5929825Y1414115D01*
X5913862Y1403449D01*
X5904444Y1389354D01*
X4774551D01*
X4767755Y1390706D01*
X4760959Y1389354D01*
X4348091D01*
X4346860Y1390855D01*
X4343115Y1409685D01*
X4332448Y1425648D01*
X4316485Y1436315D01*
X4297655Y1440060D01*
X4278825Y1436315D01*
X4262861Y1425648D01*
X4252195Y1409685D01*
X4248449Y1390855D01*
X4247218Y1389354D01*
X4183796D01*
X4177007Y1402054D01*
X4183095Y1411165D01*
X4186840Y1429995D01*
X4183095Y1448825D01*
X4172428Y1464788D01*
X4156465Y1475455D01*
X4137635Y1479200D01*
X4118805Y1475455D01*
X4102841Y1464788D01*
X4092175Y1448825D01*
X4088429Y1429995D01*
X4092175Y1411165D01*
X4098262Y1402054D01*
X4091474Y1389354D01*
X3689350D01*
X3682562Y1402054D01*
X3685255Y1406085D01*
X3689000Y1424915D01*
X3685255Y1443745D01*
X3674588Y1459708D01*
X3658625Y1470375D01*
X3639795Y1474120D01*
X3620965Y1470375D01*
X3605001Y1459708D01*
X3594335Y1443745D01*
X3590589Y1424915D01*
X3594335Y1406085D01*
X3597028Y1402054D01*
X3590239Y1389354D01*
X3325210D01*
X3318422Y1402054D01*
X3321115Y1406085D01*
X3324860Y1424915D01*
X3321115Y1443745D01*
X3310448Y1459708D01*
X3294485Y1470375D01*
X3275655Y1474120D01*
X3256825Y1470375D01*
X3240861Y1459708D01*
X3230195Y1443745D01*
X3226449Y1424915D01*
X3230195Y1406085D01*
X3232888Y1402054D01*
X3226099Y1389354D01*
X2612115D01*
X2610328Y1392028D01*
X2594365Y1402695D01*
X2575535Y1406440D01*
X2556705Y1402695D01*
X2540741Y1392028D01*
X2538955Y1389354D01*
X2446741D01*
Y1412437D01*
X2459441Y1422482D01*
X2468855Y1420609D01*
X2487685Y1424355D01*
X2503648Y1435021D01*
X2514315Y1450984D01*
X2518060Y1469814D01*
X2514315Y1488644D01*
X2503648Y1504608D01*
X2499373Y1507464D01*
Y1520165D01*
X2503648Y1523021D01*
X2514315Y1538984D01*
X2518060Y1557815D01*
X2514315Y1576645D01*
X2503648Y1592608D01*
X2487685Y1603274D01*
X2468855Y1607020D01*
X2450025Y1603274D01*
X2440127Y1596661D01*
X2433324D01*
X2418458Y1593704D01*
X2405855Y1585283D01*
X2380426Y1559854D01*
X2372005Y1547251D01*
X2369048Y1532385D01*
Y1503862D01*
X2359231Y1495805D01*
X2352015Y1497241D01*
X2333185Y1493495D01*
X2317221Y1482829D01*
X2306555Y1466865D01*
X2302809Y1448035D01*
X2306555Y1429205D01*
X2317221Y1413242D01*
X2321509Y1410376D01*
X2322866Y1394632D01*
X2317503Y1389354D01*
X2293281D01*
X2292635Y1392605D01*
X2281968Y1408568D01*
X2266005Y1419235D01*
X2247175Y1422980D01*
X2228345Y1419235D01*
X2212381Y1408568D01*
X2201715Y1392605D01*
X2201068Y1389354D01*
X2117079D01*
X2107408Y1403828D01*
X2091445Y1414495D01*
X2072615Y1418240D01*
X2068721Y1421436D01*
Y1571311D01*
X2087449Y1573776D01*
X2117711Y1586311D01*
X2143698Y1606251D01*
X2163638Y1632238D01*
X2176173Y1662500D01*
X2180448Y1694975D01*
X2176173Y1727449D01*
X2163638Y1757711D01*
X2143698Y1783698D01*
X2117711Y1803638D01*
X2087449Y1816173D01*
X2068721Y1818638D01*
Y1842475D01*
X2261827D01*
X2272244Y1829774D01*
X2270529Y1821155D01*
X2274275Y1802325D01*
X2276021Y1799712D01*
X2270824Y1792184D01*
X2267566Y1789505D01*
X2249975Y1793004D01*
X2231145Y1789259D01*
X2215181Y1778592D01*
X2204515Y1762629D01*
X2200769Y1743799D01*
X2204515Y1724969D01*
X2215181Y1709005D01*
X2231145Y1698339D01*
X2249975Y1694594D01*
X2268805Y1698339D01*
X2284768Y1709005D01*
X2295435Y1724969D01*
X2299180Y1743799D01*
X2295435Y1762629D01*
X2293689Y1765242D01*
X2298885Y1772769D01*
X2302143Y1775448D01*
X2315676Y1772756D01*
X2316363Y1769305D01*
X2327029Y1753341D01*
Y1750440D01*
X2316363Y1734477D01*
X2312617Y1715647D01*
X2316363Y1696817D01*
X2327029Y1680854D01*
X2342993Y1670187D01*
X2361823Y1666442D01*
X2380653Y1670187D01*
X2396616Y1680854D01*
X2407283Y1696817D01*
X2411028Y1715647D01*
X2407283Y1734477D01*
X2399940Y1745466D01*
X2409274Y1753341D01*
X2425237Y1742675D01*
X2444067Y1738929D01*
X2462897Y1742675D01*
X2478860Y1753341D01*
X2485962Y1763970D01*
X2500517Y1764895D01*
X2500655Y1764840D01*
X2505392Y1757751D01*
X2521355Y1747084D01*
X2540185Y1743339D01*
X2559015Y1747084D01*
X2574979Y1757751D01*
X2577277Y1761190D01*
X2579125Y1759955D01*
X2597955Y1756209D01*
X2616785Y1759955D01*
X2619829Y1761989D01*
X2631259Y1754351D01*
X2631249Y1754305D01*
X2634995Y1735475D01*
X2640658Y1727000D01*
X2634995Y1718525D01*
X2631249Y1699695D01*
X2634995Y1680865D01*
X2645661Y1664901D01*
X2661625Y1654235D01*
X2680455Y1650489D01*
X2699285Y1654235D01*
X2706390Y1658983D01*
X2714185Y1653775D01*
X2733015Y1650029D01*
X2751845Y1653775D01*
X2762070Y1660608D01*
X2770240Y1655149D01*
X2787955Y1651625D01*
X2805669Y1655149D01*
X2812775Y1659897D01*
X2823405Y1652795D01*
X2842235Y1649049D01*
X2861065Y1652795D01*
X2869922Y1658713D01*
X2876624Y1654235D01*
X2895454Y1650489D01*
X2914284Y1654235D01*
X2930248Y1664901D01*
X2940914Y1680865D01*
X2944660Y1699695D01*
X2940914Y1718525D01*
X2935251Y1727000D01*
X2940914Y1735475D01*
X2944660Y1754305D01*
X2940914Y1773135D01*
X2933532Y1784183D01*
X2938220Y1791200D01*
X2941744Y1808915D01*
X2938220Y1826629D01*
X2934851Y1831672D01*
X2941438Y1842475D01*
X3578681D01*
X3585509Y1834154D01*
X3589255Y1815324D01*
X3599921Y1799361D01*
X3615885Y1788694D01*
X3634715Y1784949D01*
X3653545Y1788694D01*
X3669508Y1799361D01*
X3680175Y1815324D01*
X3683920Y1834154D01*
X3690749Y1842475D01*
X3786485D01*
X3793313Y1834154D01*
X3797059Y1815324D01*
X3807725Y1799361D01*
X3823689Y1788694D01*
X3842519Y1784949D01*
X3861349Y1788694D01*
X3877312Y1799361D01*
X3887979Y1815324D01*
X3891724Y1834154D01*
X3898553Y1842475D01*
X4376607D01*
X4377015Y1840425D01*
X4387089Y1825347D01*
X4388648Y1821545D01*
Y1813072D01*
X4386951Y1809675D01*
X4376655Y1794265D01*
X4372909Y1775435D01*
X4376655Y1756605D01*
X4381149Y1749878D01*
X4387018Y1740076D01*
X4381287Y1729399D01*
X4377015Y1723005D01*
X4373269Y1704175D01*
X4377015Y1685345D01*
X4387681Y1669381D01*
X4403645Y1658715D01*
X4413639Y1656727D01*
X4419057Y1655649D01*
Y1642701D01*
X4413639Y1641623D01*
X4403645Y1639635D01*
X4387681Y1628968D01*
X4377015Y1613005D01*
X4373269Y1594175D01*
X4377015Y1575345D01*
X4387319Y1559923D01*
X4376655Y1543963D01*
X4372909Y1525133D01*
X4376655Y1506303D01*
X4387321Y1490339D01*
X4403285Y1479673D01*
X4422115Y1475927D01*
X4440945Y1479673D01*
X4456908Y1490339D01*
X4467575Y1506303D01*
X4471320Y1525133D01*
X4467575Y1543963D01*
X4457270Y1559384D01*
X4467935Y1575345D01*
X4471680Y1594175D01*
X4467935Y1613005D01*
X4457268Y1628968D01*
X4441305Y1639635D01*
X4431311Y1641622D01*
X4425893Y1642701D01*
Y1655649D01*
X4431311Y1656727D01*
X4441305Y1658715D01*
X4457268Y1669381D01*
X4467935Y1685345D01*
X4471680Y1704175D01*
X4467935Y1723005D01*
X4463440Y1729731D01*
X4457572Y1739533D01*
X4463302Y1750211D01*
X4467575Y1756605D01*
X4471320Y1775435D01*
X4467575Y1794265D01*
X4457500Y1809342D01*
X4455941Y1813144D01*
Y1821617D01*
X4457638Y1825015D01*
X4467935Y1840425D01*
X4468342Y1842475D01*
X4493664D01*
X4495402Y1839874D01*
X4511366Y1829207D01*
X4530196Y1825462D01*
X4549026Y1829207D01*
X4564989Y1839874D01*
X4566727Y1842475D01*
X4596060D01*
X4597566Y1840221D01*
X4613529Y1829554D01*
X4632359Y1825809D01*
X4651189Y1829554D01*
X4667152Y1840221D01*
X4668658Y1842475D01*
X4871660D01*
X4872910Y1829775D01*
X4872105Y1829614D01*
X4856141Y1818948D01*
X4845475Y1802984D01*
X4841729Y1784154D01*
X4845475Y1765324D01*
X4856141Y1749361D01*
X4872105Y1738695D01*
X4887517Y1735629D01*
Y1722680D01*
X4872105Y1719614D01*
X4856141Y1708948D01*
X4845475Y1692984D01*
X4841729Y1674154D01*
X4845475Y1655324D01*
X4856141Y1639361D01*
X4872105Y1628694D01*
X4887517Y1625629D01*
Y1612680D01*
X4872105Y1609614D01*
X4856141Y1598948D01*
X4845475Y1582984D01*
X4841729Y1564154D01*
X4845475Y1545324D01*
X4856141Y1529361D01*
X4872105Y1518694D01*
X4890935Y1514949D01*
X4909765Y1518694D01*
X4925728Y1529361D01*
X4936395Y1545324D01*
X4939461Y1560737D01*
X4952409D01*
X4955475Y1545324D01*
X4966141Y1529361D01*
X4982105Y1518694D01*
X5000935Y1514949D01*
X5019765Y1518694D01*
X5035728Y1529361D01*
X5046395Y1545324D01*
X5049461Y1560737D01*
X5062409D01*
X5065475Y1545324D01*
X5076141Y1529361D01*
X5092105Y1518694D01*
X5110935Y1514949D01*
X5129765Y1518694D01*
X5145728Y1529361D01*
X5156395Y1545324D01*
X5160140Y1564154D01*
X5156395Y1582984D01*
X5145728Y1598948D01*
X5129765Y1609614D01*
X5114352Y1612680D01*
Y1625629D01*
X5129765Y1628694D01*
X5145728Y1639361D01*
X5156395Y1655324D01*
X5160140Y1674154D01*
X5156395Y1692984D01*
X5145728Y1708948D01*
X5129765Y1719614D01*
X5114352Y1722680D01*
Y1735629D01*
X5129765Y1738695D01*
X5145728Y1749361D01*
X5156395Y1765324D01*
X5160140Y1784154D01*
X5156395Y1802984D01*
X5145728Y1818948D01*
X5129765Y1829614D01*
X5128959Y1829775D01*
X5130210Y1842475D01*
X5421119D01*
X5428175Y1831915D01*
X5425490Y1825431D01*
X5421998Y1798909D01*
X5425490Y1772386D01*
X5435727Y1747670D01*
X5452012Y1726446D01*
X5473236Y1710161D01*
X5497952Y1699923D01*
X5524475Y1696432D01*
X5550998Y1699923D01*
X5575713Y1710161D01*
X5596937Y1726446D01*
X5613222Y1747670D01*
X5623460Y1772386D01*
X5626951Y1798909D01*
X5623460Y1825431D01*
X5620774Y1831915D01*
X5627830Y1842475D01*
X6385535D01*
Y2145089D01*
X6398235Y2151877D01*
X6404984Y2147367D01*
X6423814Y2143621D01*
X6442644Y2147367D01*
X6452692Y2154080D01*
X6463225Y2147042D01*
X6482055Y2143297D01*
X6500885Y2147042D01*
X6510327Y2153352D01*
X6519284Y2147367D01*
X6538114Y2143621D01*
X6556944Y2147367D01*
X6566992Y2154080D01*
X6577525Y2147042D01*
X6596355Y2143297D01*
X6615185Y2147042D01*
X6624870Y2153514D01*
X6633584Y2147691D01*
X6652414Y2143946D01*
X6671244Y2147691D01*
X6681292Y2154405D01*
X6691825Y2147367D01*
X6710655Y2143621D01*
X6729485Y2147367D01*
X6745448Y2158033D01*
X6756115Y2173997D01*
X6759860Y2192827D01*
X6756115Y2211657D01*
X6751395Y2218719D01*
X6756115Y2225782D01*
X6759860Y2244612D01*
X6756115Y2263442D01*
X6751395Y2270505D01*
X6756115Y2277568D01*
X6759860Y2296398D01*
X6756115Y2315228D01*
X6751395Y2322291D01*
X6756115Y2329353D01*
X6759860Y2348183D01*
X6756115Y2367013D01*
X6751395Y2374076D01*
X6756115Y2381139D01*
X6759860Y2399969D01*
X6756115Y2418799D01*
X6745448Y2434762D01*
X6729485Y2445429D01*
X6710655Y2449174D01*
X6691825Y2445429D01*
X6681777Y2438715D01*
X6671244Y2445753D01*
X6652414Y2449499D01*
X6633584Y2445753D01*
X6623899Y2439281D01*
X6615185Y2445104D01*
X6596355Y2448850D01*
X6577525Y2445104D01*
X6567477Y2438391D01*
X6556944Y2445429D01*
X6538114Y2449174D01*
X6519284Y2445429D01*
X6509842Y2439119D01*
X6500885Y2445104D01*
X6482055Y2448850D01*
X6463225Y2445104D01*
X6453177Y2438391D01*
X6442644Y2445429D01*
X6423814Y2449174D01*
X6404984Y2445429D01*
X6398235Y2440918D01*
X6385534Y2447707D01*
Y2606015D01*
X7062668Y2606014D01*
D02*
G37*
G36*
X8477501Y2373592D02*
X8464801Y2369739D01*
X8457408Y2380803D01*
X8441445Y2391470D01*
X8422615Y2395215D01*
X8403785Y2391470D01*
X8387821Y2380803D01*
X8381208D01*
X8365245Y2391470D01*
X8346415Y2395215D01*
X8327585Y2391470D01*
X8311621Y2380803D01*
X8305775Y2372054D01*
X8293075Y2375906D01*
Y2591393D01*
X8477501D01*
Y2373592D01*
D02*
G37*
G36*
X10249641Y2731241D02*
X10265605Y2720575D01*
X10284435Y2716829D01*
X10303265Y2720575D01*
X10319228Y2731241D01*
X10322288Y2735821D01*
X10334988Y2731968D01*
Y2672090D01*
X10322288Y2668237D01*
X10319782Y2671989D01*
X10303818Y2682655D01*
X10284988Y2686401D01*
X10266158Y2682655D01*
X10250195Y2671989D01*
X10239528Y2656025D01*
X10235783Y2637195D01*
X10239528Y2618365D01*
X10250195Y2602402D01*
X10266158Y2591735D01*
X10284988Y2587990D01*
X10303818Y2591735D01*
X10319782Y2602402D01*
X10322288Y2606153D01*
X10334988Y2602300D01*
Y2032475D01*
X10062738D01*
X10056780Y2039735D01*
X10053035Y2058565D01*
X10046397Y2068498D01*
X10053035Y2078431D01*
X10056780Y2097261D01*
X10053035Y2116091D01*
X10046397Y2126025D01*
X10053035Y2135958D01*
X10056780Y2154788D01*
X10053035Y2173618D01*
X10046397Y2183551D01*
X10053035Y2193485D01*
X10056780Y2212315D01*
X10053035Y2231145D01*
X10042368Y2247108D01*
X10026405Y2257775D01*
X10007575Y2261520D01*
X9988745Y2257775D01*
X9972781Y2247108D01*
X9962115Y2231145D01*
X9958369Y2212315D01*
X9962115Y2193485D01*
X9968752Y2183551D01*
X9962115Y2173618D01*
X9958369Y2154788D01*
X9962115Y2135958D01*
X9968752Y2126025D01*
X9962115Y2116091D01*
X9958369Y2097261D01*
X9962115Y2078431D01*
X9968752Y2068498D01*
X9962115Y2058565D01*
X9958369Y2039735D01*
X9952411Y2032475D01*
X8547075D01*
Y2729438D01*
X8556892Y2737495D01*
X8562011Y2736477D01*
X8795678D01*
X8820455Y2741405D01*
X8823103Y2743175D01*
X9240907D01*
X9248881Y2731241D01*
X9264845Y2720575D01*
X9283675Y2716829D01*
X9302505Y2720575D01*
X9318468Y2731241D01*
X9326442Y2743175D01*
X9439027D01*
X9447001Y2731241D01*
X9462965Y2720575D01*
X9481795Y2716829D01*
X9500625Y2720575D01*
X9516588Y2731241D01*
X9524562Y2743175D01*
X9639687D01*
X9647661Y2731241D01*
X9663625Y2720575D01*
X9682455Y2716829D01*
X9701285Y2720575D01*
X9717248Y2731241D01*
X9725222Y2743175D01*
X9842887D01*
X9850861Y2731241D01*
X9866825Y2720575D01*
X9885655Y2716829D01*
X9904485Y2720575D01*
X9920448Y2731241D01*
X9928422Y2743175D01*
X10043547D01*
X10051521Y2731241D01*
X10067485Y2720575D01*
X10086315Y2716829D01*
X10105145Y2720575D01*
X10121108Y2731241D01*
X10129082Y2743175D01*
X10241667D01*
X10249641Y2731241D01*
D02*
G37*
G36*
X10703943Y2609974D02*
X10704975Y2609769D01*
X10706007Y2609974D01*
X10799708Y2609974D01*
X10807765Y2600157D01*
X10806910Y2595855D01*
X10810655Y2577025D01*
X10819415Y2563915D01*
X10810655Y2550805D01*
X10806910Y2531975D01*
X10810655Y2513145D01*
X10821322Y2497181D01*
X10837285Y2486515D01*
X10856115Y2482769D01*
X10868634Y2485259D01*
X10881334Y2476672D01*
Y2428179D01*
X10868634Y2417756D01*
X10861475Y2419180D01*
X10842645Y2415435D01*
X10826681Y2404768D01*
X10816015Y2388805D01*
X10812269Y2369975D01*
X10816015Y2351145D01*
X10826681Y2335181D01*
X10842645Y2324515D01*
X10861475Y2320769D01*
X10868634Y2322193D01*
X10881334Y2311771D01*
Y2257474D01*
X11352475Y2257475D01*
Y1692627D01*
X10214974D01*
Y1924975D01*
Y2006577D01*
X10334988D01*
X10344899Y2008548D01*
X10353301Y2014162D01*
X10358915Y2022564D01*
X10360886Y2032475D01*
Y2602300D01*
X10368028Y2608025D01*
X10372475Y2609975D01*
X10482475D01*
X10703943Y2609974D01*
D02*
G37*
%LPC*%
G36*
X6870236Y2431960D02*
X6851406Y2428215D01*
X6835442Y2417548D01*
X6824776Y2401585D01*
X6821030Y2382755D01*
X6824776Y2363925D01*
X6835442Y2347961D01*
X6851406Y2337295D01*
X6870236Y2333549D01*
X6889066Y2337295D01*
X6905029Y2347961D01*
X6915696Y2363925D01*
X6919441Y2382755D01*
X6915696Y2401585D01*
X6905029Y2417548D01*
X6889066Y2428215D01*
X6870236Y2431960D01*
D02*
G37*
G36*
X6932475Y2007597D02*
X6913645Y2003852D01*
X6897682Y1993185D01*
X6887015Y1977222D01*
X6883270Y1958392D01*
X6887015Y1939562D01*
X6897682Y1923599D01*
X6913645Y1912932D01*
X6932475Y1909187D01*
X6951305Y1912932D01*
X6967269Y1923599D01*
X6977935Y1939562D01*
X6981680Y1958392D01*
X6977935Y1977222D01*
X6967269Y1993185D01*
X6951305Y2003852D01*
X6932475Y2007597D01*
D02*
G37*
G36*
X6609975D02*
X6591145Y2003852D01*
X6575182Y1993185D01*
X6564515Y1977222D01*
X6560770Y1958392D01*
X6564515Y1939562D01*
X6575182Y1923599D01*
X6591145Y1912932D01*
X6609975Y1909187D01*
X6628805Y1912932D01*
X6644769Y1923599D01*
X6655435Y1939562D01*
X6659180Y1958392D01*
X6655435Y1977222D01*
X6644769Y1993185D01*
X6628805Y2003852D01*
X6609975Y2007597D01*
D02*
G37*
G36*
X3159075Y1814480D02*
X3140245Y1810735D01*
X3124281Y1800068D01*
X3119843Y1793425D01*
X3104568D01*
X3100129Y1800068D01*
X3084166Y1810735D01*
X3065336Y1814480D01*
X3046506Y1810735D01*
X3030543Y1800068D01*
X3019876Y1784105D01*
X3016131Y1765275D01*
X3019876Y1746445D01*
X3030543Y1730481D01*
X3046506Y1719815D01*
X3049539Y1719211D01*
X3046488Y1703873D01*
X3050233Y1685043D01*
X3060900Y1669080D01*
X3076863Y1658413D01*
X3095693Y1654668D01*
X3114523Y1658413D01*
X3130487Y1669080D01*
X3141153Y1685043D01*
X3144899Y1703873D01*
X3144019Y1708297D01*
X3152999Y1717278D01*
X3159075Y1716069D01*
X3177905Y1719815D01*
X3193868Y1730481D01*
X3204535Y1746445D01*
X3208280Y1765275D01*
X3204535Y1784105D01*
X3193868Y1800068D01*
X3177905Y1810735D01*
X3159075Y1814480D01*
D02*
G37*
G36*
X5240935Y1823360D02*
X5222105Y1819614D01*
X5206141Y1808948D01*
X5195475Y1792984D01*
X5191730Y1774154D01*
X5195475Y1755324D01*
X5206141Y1739361D01*
X5222105Y1728695D01*
X5240935Y1724949D01*
X5259765Y1728695D01*
X5275728Y1739361D01*
X5286395Y1755324D01*
X5290140Y1774154D01*
X5286395Y1792984D01*
X5275728Y1808948D01*
X5259765Y1819614D01*
X5240935Y1823360D01*
D02*
G37*
G36*
X3568675Y1783931D02*
X3542152Y1780440D01*
X3517436Y1770202D01*
X3496212Y1753917D01*
X3479927Y1732693D01*
X3469690Y1707978D01*
X3466198Y1681455D01*
X3468050Y1667382D01*
X3455514Y1665312D01*
X3455452Y1665620D01*
X3454115Y1672345D01*
X3443448Y1688308D01*
X3427485Y1698975D01*
X3408655Y1702720D01*
X3389825Y1698975D01*
X3373861Y1688308D01*
X3363195Y1672345D01*
X3359449Y1653515D01*
X3363195Y1634685D01*
X3373861Y1618721D01*
X3389825Y1608055D01*
X3408655Y1604309D01*
X3427485Y1608055D01*
X3443448Y1618721D01*
X3454115Y1634685D01*
X3457860Y1653514D01*
X3469690Y1654931D01*
X3479927Y1630216D01*
X3496212Y1608992D01*
X3517436Y1592707D01*
X3542152Y1582470D01*
X3568675Y1578978D01*
X3595198Y1582470D01*
X3619913Y1592707D01*
X3641137Y1608992D01*
X3657422Y1630216D01*
X3667660Y1654932D01*
X3671151Y1681455D01*
X3667660Y1707978D01*
X3657422Y1732693D01*
X3641137Y1753917D01*
X3619913Y1770202D01*
X3595198Y1780440D01*
X3568675Y1783931D01*
D02*
G37*
G36*
X4140175Y1748440D02*
X4121345Y1744695D01*
X4105381Y1734028D01*
X4094715Y1718065D01*
X4090969Y1699235D01*
X4094715Y1680405D01*
X4105381Y1664441D01*
X4121345Y1653775D01*
X4140175Y1650029D01*
X4159005Y1653775D01*
X4174968Y1664441D01*
X4185635Y1680405D01*
X4189380Y1699235D01*
X4185635Y1718065D01*
X4174968Y1734028D01*
X4159005Y1744695D01*
X4140175Y1748440D01*
D02*
G37*
G36*
X3774415Y1740820D02*
X3755585Y1737075D01*
X3739621Y1726408D01*
X3728955Y1710445D01*
X3725209Y1691615D01*
X3728955Y1672785D01*
X3739621Y1656821D01*
X3755585Y1646155D01*
X3774415Y1642409D01*
X3793245Y1646155D01*
X3809208Y1656821D01*
X3819875Y1672785D01*
X3823620Y1691615D01*
X3819875Y1710445D01*
X3809208Y1726408D01*
X3793245Y1737075D01*
X3774415Y1740820D01*
D02*
G37*
G36*
X6228055Y1699180D02*
X6209225Y1695435D01*
X6193261Y1684768D01*
X6182595Y1668805D01*
X6178849Y1649975D01*
X6182595Y1631145D01*
X6193261Y1615181D01*
X6209225Y1604515D01*
X6228055Y1600769D01*
X6246885Y1604515D01*
X6262848Y1615181D01*
X6273515Y1631145D01*
X6277260Y1649975D01*
X6273515Y1668805D01*
X6262848Y1684768D01*
X6246885Y1695435D01*
X6228055Y1699180D01*
D02*
G37*
G36*
X6525235Y1698960D02*
X6506405Y1695215D01*
X6490441Y1684548D01*
X6479775Y1668585D01*
X6476029Y1649755D01*
X6479775Y1630925D01*
X6490441Y1614961D01*
X6506405Y1604295D01*
X6525235Y1600549D01*
X6544065Y1604295D01*
X6560028Y1614961D01*
X6570695Y1630925D01*
X6574440Y1649755D01*
X6570695Y1668585D01*
X6560028Y1684548D01*
X6544065Y1695215D01*
X6525235Y1698960D01*
D02*
G37*
G36*
X4698975Y1730660D02*
X4680145Y1726915D01*
X4664181Y1716248D01*
X4653515Y1700285D01*
X4649769Y1681455D01*
X4653515Y1662625D01*
X4662148Y1649705D01*
X4653515Y1636785D01*
X4649769Y1617955D01*
X4653515Y1599125D01*
X4664181Y1583161D01*
X4680145Y1572495D01*
X4698975Y1568749D01*
X4717805Y1572495D01*
X4733768Y1583161D01*
X4744435Y1599125D01*
X4748180Y1617955D01*
X4744435Y1636785D01*
X4735802Y1649705D01*
X4744435Y1662625D01*
X4748180Y1681455D01*
X4744435Y1700285D01*
X4733768Y1716248D01*
X4717805Y1726915D01*
X4698975Y1730660D01*
D02*
G37*
G36*
X6863055Y1601120D02*
X6844225Y1597375D01*
X6828261Y1586708D01*
X6817595Y1570745D01*
X6813849Y1551915D01*
X6815379Y1544225D01*
X6804578Y1533425D01*
X6798218Y1534690D01*
X6779388Y1530944D01*
X6763425Y1520278D01*
X6752758Y1504314D01*
X6749013Y1485484D01*
X6752758Y1466654D01*
X6763425Y1450691D01*
X6779388Y1440025D01*
X6798218Y1436279D01*
X6817048Y1440025D01*
X6833011Y1450691D01*
X6843678Y1466654D01*
X6847423Y1485484D01*
X6845894Y1493174D01*
X6856694Y1503974D01*
X6863055Y1502709D01*
X6881885Y1506455D01*
X6897848Y1517121D01*
X6908515Y1533085D01*
X6912260Y1551915D01*
X6908515Y1570745D01*
X6897848Y1586708D01*
X6881885Y1597375D01*
X6863055Y1601120D01*
D02*
G37*
G36*
X4544359Y1600519D02*
X4525529Y1596773D01*
X4509566Y1586107D01*
X4498899Y1570143D01*
X4495154Y1551313D01*
X4498899Y1532483D01*
X4509566Y1516520D01*
X4525529Y1505853D01*
X4544359Y1502108D01*
X4563189Y1505853D01*
X4579152Y1516520D01*
X4589819Y1532483D01*
X4593564Y1551313D01*
X4589819Y1570143D01*
X4579152Y1586107D01*
X4563189Y1596773D01*
X4544359Y1600519D01*
D02*
G37*
G36*
X2577535Y1554741D02*
X2558705Y1550995D01*
X2542741Y1540329D01*
X2532075Y1524365D01*
X2528329Y1505535D01*
X2532075Y1486705D01*
X2542741Y1470742D01*
X2558705Y1460075D01*
X2577535Y1456330D01*
X2596365Y1460075D01*
X2612328Y1470742D01*
X2622995Y1486705D01*
X2626740Y1505535D01*
X2622995Y1524365D01*
X2612328Y1540329D01*
X2596365Y1550995D01*
X2577535Y1554741D01*
D02*
G37*
G36*
X5478755Y1501620D02*
X5459925Y1497874D01*
X5443961Y1487208D01*
X5433295Y1471244D01*
X5429549Y1452414D01*
X5433295Y1433584D01*
X5443961Y1417621D01*
X5459925Y1406955D01*
X5478755Y1403209D01*
X5497585Y1406955D01*
X5513548Y1417621D01*
X5524215Y1433584D01*
X5527960Y1452414D01*
X5524215Y1471244D01*
X5513548Y1487208D01*
X5497585Y1497874D01*
X5478755Y1501620D01*
D02*
G37*
G36*
X9285505Y2690427D02*
X9266675Y2686681D01*
X9250712Y2676015D01*
X9240045Y2660051D01*
X9236300Y2641221D01*
X9240045Y2622391D01*
X9250712Y2606428D01*
X9266675Y2595761D01*
X9285505Y2592016D01*
X9304335Y2595761D01*
X9320299Y2606428D01*
X9330965Y2622391D01*
X9334711Y2641221D01*
X9330965Y2660051D01*
X9320299Y2676015D01*
X9304335Y2686681D01*
X9285505Y2690427D01*
D02*
G37*
G36*
X10086760Y2687544D02*
X10067930Y2683798D01*
X10051967Y2673132D01*
X10041300Y2657168D01*
X10037555Y2638338D01*
X10041300Y2619508D01*
X10051967Y2603545D01*
X10067930Y2592878D01*
X10086760Y2589133D01*
X10105590Y2592878D01*
X10121554Y2603545D01*
X10132220Y2619508D01*
X10135966Y2638338D01*
X10132220Y2657168D01*
X10121554Y2673132D01*
X10105590Y2683798D01*
X10086760Y2687544D01*
D02*
G37*
G36*
X9885689D02*
X9866859Y2683798D01*
X9850895Y2673132D01*
X9840229Y2657168D01*
X9836484Y2638338D01*
X9840229Y2619508D01*
X9850895Y2603545D01*
X9866859Y2592878D01*
X9885689Y2589133D01*
X9904519Y2592878D01*
X9920482Y2603545D01*
X9931149Y2619508D01*
X9934894Y2638338D01*
X9931149Y2657168D01*
X9920482Y2673132D01*
X9904519Y2683798D01*
X9885689Y2687544D01*
D02*
G37*
G36*
X9684618D02*
X9665788Y2683798D01*
X9649824Y2673132D01*
X9639158Y2657168D01*
X9635412Y2638338D01*
X9639158Y2619508D01*
X9649824Y2603545D01*
X9665788Y2592878D01*
X9684618Y2589133D01*
X9703448Y2592878D01*
X9719411Y2603545D01*
X9730078Y2619508D01*
X9733823Y2638338D01*
X9730078Y2657168D01*
X9719411Y2673132D01*
X9703448Y2683798D01*
X9684618Y2687544D01*
D02*
G37*
G36*
X9483546D02*
X9464716Y2683798D01*
X9448753Y2673132D01*
X9438087Y2657168D01*
X9434341Y2638338D01*
X9438087Y2619508D01*
X9448753Y2603545D01*
X9464716Y2592878D01*
X9483546Y2589133D01*
X9502376Y2592878D01*
X9518340Y2603545D01*
X9529006Y2619508D01*
X9532752Y2638338D01*
X9529006Y2657168D01*
X9518340Y2673132D01*
X9502376Y2683798D01*
X9483546Y2687544D01*
D02*
G37*
G36*
X9825382Y2527003D02*
X9806552Y2523257D01*
X9796867Y2516785D01*
X9788153Y2522608D01*
X9769323Y2526353D01*
X9750493Y2522608D01*
X9740445Y2515895D01*
X9729912Y2522932D01*
X9711082Y2526678D01*
X9692252Y2522932D01*
X9682810Y2516623D01*
X9673853Y2522608D01*
X9655023Y2526353D01*
X9636193Y2522608D01*
X9626145Y2515895D01*
X9615612Y2522932D01*
X9596782Y2526678D01*
X9577952Y2522932D01*
X9561989Y2512266D01*
X9551323Y2496303D01*
X9547577Y2477473D01*
X9551323Y2458643D01*
X9556042Y2451580D01*
X9551323Y2444517D01*
X9547577Y2425687D01*
X9551323Y2406857D01*
X9556042Y2399794D01*
X9551323Y2392732D01*
X9547577Y2373902D01*
X9551323Y2355071D01*
X9556042Y2348009D01*
X9551323Y2340946D01*
X9547577Y2322116D01*
X9551323Y2303286D01*
X9556042Y2296223D01*
X9551323Y2289161D01*
X9547577Y2270330D01*
X9551323Y2251500D01*
X9561989Y2235537D01*
X9577952Y2224871D01*
X9596782Y2221125D01*
X9615612Y2224871D01*
X9625660Y2231584D01*
X9636193Y2224546D01*
X9655023Y2220800D01*
X9673853Y2224546D01*
X9683295Y2230856D01*
X9692252Y2224871D01*
X9711082Y2221125D01*
X9729912Y2224871D01*
X9739960Y2231584D01*
X9750493Y2224546D01*
X9769323Y2220800D01*
X9788153Y2224546D01*
X9797838Y2231018D01*
X9806552Y2225195D01*
X9825382Y2221450D01*
X9844212Y2225195D01*
X9854260Y2231908D01*
X9864793Y2224871D01*
X9883623Y2221125D01*
X9902453Y2224871D01*
X9918416Y2235537D01*
X9929083Y2251500D01*
X9932828Y2270330D01*
X9929083Y2289161D01*
X9924363Y2296223D01*
X9929083Y2303286D01*
X9932828Y2322116D01*
X9929083Y2340946D01*
X9924363Y2348009D01*
X9929083Y2355071D01*
X9932828Y2373902D01*
X9929083Y2392732D01*
X9924363Y2399794D01*
X9929083Y2406857D01*
X9932828Y2425687D01*
X9929083Y2444517D01*
X9924363Y2451580D01*
X9929083Y2458643D01*
X9932828Y2477473D01*
X9929083Y2496303D01*
X9918416Y2512266D01*
X9902453Y2522932D01*
X9883623Y2526678D01*
X9864793Y2522932D01*
X9854745Y2516219D01*
X9844212Y2523257D01*
X9825382Y2527003D01*
D02*
G37*
G36*
X8841894Y2466646D02*
X8823064Y2462901D01*
X8813379Y2456429D01*
X8804665Y2462252D01*
X8785835Y2465997D01*
X8767005Y2462252D01*
X8756957Y2455538D01*
X8746424Y2462576D01*
X8727594Y2466322D01*
X8708764Y2462576D01*
X8699322Y2456267D01*
X8690365Y2462252D01*
X8671535Y2465997D01*
X8652705Y2462252D01*
X8642657Y2455538D01*
X8632124Y2462576D01*
X8613294Y2466322D01*
X8594464Y2462576D01*
X8578501Y2451910D01*
X8567835Y2435946D01*
X8564089Y2417116D01*
X8567835Y2398286D01*
X8572554Y2391224D01*
X8567835Y2384161D01*
X8564089Y2365331D01*
X8567835Y2346501D01*
X8572554Y2339438D01*
X8567835Y2332375D01*
X8564089Y2313545D01*
X8567835Y2294715D01*
X8572554Y2287653D01*
X8567835Y2280590D01*
X8564089Y2261760D01*
X8567835Y2242930D01*
X8572554Y2235867D01*
X8567835Y2228804D01*
X8564089Y2209974D01*
X8567835Y2191144D01*
X8578501Y2175181D01*
X8594464Y2164514D01*
X8613294Y2160769D01*
X8632124Y2164514D01*
X8642172Y2171228D01*
X8652705Y2164190D01*
X8671535Y2160444D01*
X8690365Y2164190D01*
X8699807Y2170499D01*
X8708764Y2164514D01*
X8727594Y2160769D01*
X8746424Y2164514D01*
X8756472Y2171228D01*
X8767005Y2164190D01*
X8785835Y2160444D01*
X8804665Y2164190D01*
X8814350Y2170662D01*
X8823064Y2164839D01*
X8841894Y2161093D01*
X8860724Y2164839D01*
X8870772Y2171552D01*
X8881305Y2164514D01*
X8900135Y2160769D01*
X8918965Y2164514D01*
X8934928Y2175181D01*
X8945595Y2191144D01*
X8949340Y2209974D01*
X8945595Y2228804D01*
X8940875Y2235867D01*
X8945595Y2242930D01*
X8949340Y2261760D01*
X8945595Y2280590D01*
X8940875Y2287653D01*
X8945595Y2294715D01*
X8949340Y2313545D01*
X8945595Y2332375D01*
X8940875Y2339438D01*
X8945595Y2346501D01*
X8949340Y2365331D01*
X8945595Y2384161D01*
X8940875Y2391224D01*
X8945595Y2398286D01*
X8949340Y2417116D01*
X8945595Y2435946D01*
X8934928Y2451910D01*
X8918965Y2462576D01*
X8900135Y2466322D01*
X8881305Y2462576D01*
X8871257Y2455863D01*
X8860724Y2462901D01*
X8841894Y2466646D01*
D02*
G37*
G36*
X9360115Y2454579D02*
X9341285Y2450833D01*
X9325321Y2440167D01*
X9319258Y2431093D01*
X9304044Y2431004D01*
X9298447Y2439380D01*
X9282484Y2450046D01*
X9263654Y2453792D01*
X9244824Y2450046D01*
X9228861Y2439380D01*
X9218194Y2423416D01*
X9214449Y2404586D01*
X9218194Y2385756D01*
X9228861Y2369793D01*
X9233462Y2366719D01*
Y2351444D01*
X9228561Y2348170D01*
X9217895Y2332206D01*
X9214149Y2313376D01*
X9217895Y2294546D01*
X9228561Y2278583D01*
X9233162Y2275509D01*
Y2260234D01*
X9228723Y2257268D01*
X9218057Y2241305D01*
X9214311Y2222475D01*
X9218057Y2203645D01*
X9228723Y2187681D01*
X9244687Y2177015D01*
X9263517Y2173269D01*
X9282347Y2177015D01*
X9298310Y2187681D01*
X9304135Y2196398D01*
X9319409D01*
X9325234Y2187681D01*
X9341197Y2177015D01*
X9360027Y2173269D01*
X9378857Y2177015D01*
X9394820Y2187681D01*
X9400574Y2196291D01*
X9415848D01*
X9421601Y2187681D01*
X9437565Y2177015D01*
X9456395Y2173269D01*
X9475225Y2177015D01*
X9491188Y2187681D01*
X9501855Y2203645D01*
X9505600Y2222475D01*
X9501855Y2241305D01*
X9491188Y2257268D01*
X9484742Y2261575D01*
Y2274276D01*
X9491188Y2278583D01*
X9501855Y2294546D01*
X9505600Y2313376D01*
X9501855Y2332206D01*
X9491188Y2348170D01*
X9486437Y2351344D01*
Y2366619D01*
X9491188Y2369793D01*
X9501855Y2385756D01*
X9505600Y2404586D01*
X9501855Y2423416D01*
X9491188Y2439380D01*
X9475225Y2450046D01*
X9456395Y2453792D01*
X9437565Y2450046D01*
X9421601Y2439380D01*
X9416144Y2431212D01*
X9400880Y2431229D01*
X9394908Y2440167D01*
X9378945Y2450833D01*
X9360115Y2454579D01*
D02*
G37*
G36*
X9632581Y2162739D02*
X9613751Y2158994D01*
X9597788Y2148327D01*
X9587121Y2132364D01*
X9583376Y2113534D01*
X9587121Y2094704D01*
X9597788Y2078741D01*
X9613751Y2068074D01*
X9632581Y2064329D01*
X9651411Y2068074D01*
X9667375Y2078741D01*
X9678041Y2094704D01*
X9681787Y2113534D01*
X9678041Y2132364D01*
X9667375Y2148327D01*
X9651411Y2158994D01*
X9632581Y2162739D01*
D02*
G37*
G36*
X9824695Y2161680D02*
X9805865Y2157934D01*
X9789901Y2147268D01*
X9779235Y2131305D01*
X9775489Y2112475D01*
X9779235Y2093645D01*
X9789901Y2077681D01*
X9805865Y2067015D01*
X9824695Y2063269D01*
X9843525Y2067015D01*
X9859488Y2077681D01*
X9870155Y2093645D01*
X9873900Y2112475D01*
X9870155Y2131305D01*
X9859488Y2147268D01*
X9843525Y2157934D01*
X9824695Y2161680D01*
D02*
G37*
G36*
X10704975Y2581180D02*
X10686145Y2577435D01*
X10670181Y2566768D01*
X10659515Y2550805D01*
X10655769Y2531975D01*
X10659515Y2513145D01*
X10670181Y2497181D01*
X10686145Y2486515D01*
X10704975Y2482769D01*
X10723805Y2486515D01*
X10739768Y2497181D01*
X10750435Y2513145D01*
X10754180Y2531975D01*
X10750435Y2550805D01*
X10739768Y2566768D01*
X10723805Y2577435D01*
X10704975Y2581180D01*
D02*
G37*
G36*
X11051974Y2210720D02*
X11033144Y2206975D01*
X11019899Y2198124D01*
X11006924Y2206794D01*
X10988094Y2210540D01*
X10969264Y2206794D01*
X10956534Y2198288D01*
X10943804Y2206794D01*
X10924974Y2210540D01*
X10906144Y2206794D01*
X10893034Y2198034D01*
X10879924Y2206794D01*
X10861094Y2210540D01*
X10842264Y2206794D01*
X10826300Y2196128D01*
X10815634Y2180164D01*
X10811888Y2161334D01*
X10815634Y2142504D01*
X10826300Y2126541D01*
X10842264Y2115874D01*
X10861094Y2112129D01*
X10879924Y2115874D01*
X10893034Y2124634D01*
X10906144Y2115874D01*
X10924974Y2112129D01*
X10943804Y2115874D01*
X10956534Y2124380D01*
X10969264Y2115874D01*
X10988094Y2112129D01*
X11006924Y2115874D01*
X11020169Y2124724D01*
X11033144Y2116055D01*
X11051974Y2112309D01*
X11070804Y2116055D01*
X11083399Y2124470D01*
X11096264Y2115874D01*
X11115094Y2112129D01*
X11133924Y2115874D01*
X11147034Y2124634D01*
X11160144Y2115874D01*
X11178974Y2112129D01*
X11197804Y2115874D01*
X11210534Y2124380D01*
X11223264Y2115874D01*
X11242094Y2112129D01*
X11260924Y2115874D01*
X11276887Y2126541D01*
X11287554Y2142504D01*
X11291299Y2161334D01*
X11287554Y2180164D01*
X11276887Y2196128D01*
X11260924Y2206794D01*
X11242094Y2210540D01*
X11223264Y2206794D01*
X11210534Y2198288D01*
X11197804Y2206794D01*
X11178974Y2210540D01*
X11160144Y2206794D01*
X11147034Y2198034D01*
X11133924Y2206794D01*
X11115094Y2210540D01*
X11096264Y2206794D01*
X11083669Y2198378D01*
X11070804Y2206975D01*
X11051974Y2210720D01*
D02*
G37*
G36*
X11242855Y2097860D02*
X11224025Y2094115D01*
X11210915Y2085355D01*
X11197805Y2094115D01*
X11178975Y2097860D01*
X11160145Y2094115D01*
X11147415Y2085609D01*
X11134685Y2094115D01*
X11115855Y2097860D01*
X11097025Y2094115D01*
X11083780Y2085265D01*
X11070805Y2093935D01*
X11051975Y2097680D01*
X11033145Y2093935D01*
X11020550Y2085519D01*
X11007685Y2094115D01*
X10988855Y2097860D01*
X10970025Y2094115D01*
X10956915Y2085355D01*
X10943805Y2094115D01*
X10924975Y2097860D01*
X10906145Y2094115D01*
X10893415Y2085609D01*
X10880685Y2094115D01*
X10861855Y2097860D01*
X10843025Y2094115D01*
X10827061Y2083448D01*
X10816395Y2067485D01*
X10812649Y2048655D01*
X10816395Y2029825D01*
X10827061Y2013862D01*
X10843025Y2003195D01*
X10861855Y1999450D01*
X10880685Y2003195D01*
X10893415Y2011701D01*
X10906145Y2003195D01*
X10924975Y1999450D01*
X10943805Y2003195D01*
X10956915Y2011955D01*
X10970025Y2003195D01*
X10988855Y1999450D01*
X11007685Y2003195D01*
X11020280Y2011611D01*
X11033145Y2003015D01*
X11051975Y1999269D01*
X11070805Y2003015D01*
X11084050Y2011865D01*
X11097025Y2003195D01*
X11115855Y1999450D01*
X11134685Y2003195D01*
X11147415Y2011701D01*
X11160145Y2003195D01*
X11178975Y1999450D01*
X11197805Y2003195D01*
X11210915Y2011955D01*
X11224025Y2003195D01*
X11242855Y1999450D01*
X11261685Y2003195D01*
X11277648Y2013862D01*
X11288315Y2029825D01*
X11292060Y2048655D01*
X11288315Y2067485D01*
X11277648Y2083448D01*
X11261685Y2094115D01*
X11242855Y2097860D01*
D02*
G37*
G36*
X10711395Y2041202D02*
X10692565Y2037456D01*
X10676601Y2026790D01*
X10673745Y2022515D01*
X10661045D01*
X10658188Y2026790D01*
X10642225Y2037456D01*
X10623395Y2041202D01*
X10604565Y2037456D01*
X10588601Y2026790D01*
X10577935Y2010826D01*
X10574189Y1991996D01*
X10577935Y1973166D01*
X10588601Y1957203D01*
X10604565Y1946536D01*
X10617167Y1944030D01*
X10617501Y1943963D01*
Y1931015D01*
X10617237Y1930962D01*
X10605145Y1928556D01*
X10589181Y1917890D01*
X10578515Y1901926D01*
X10574769Y1883096D01*
X10578515Y1864266D01*
X10589181Y1848303D01*
X10605145Y1837636D01*
X10623975Y1833891D01*
X10642805Y1837636D01*
X10658768Y1848303D01*
X10661625Y1852578D01*
X10674325D01*
X10677181Y1848303D01*
X10693145Y1837636D01*
X10711975Y1833891D01*
X10730805Y1837636D01*
X10746768Y1848303D01*
X10757435Y1864266D01*
X10761180Y1883096D01*
X10757435Y1901926D01*
X10746768Y1917890D01*
X10730805Y1928556D01*
X10718202Y1931063D01*
X10717868Y1931130D01*
Y1944078D01*
X10718132Y1944131D01*
X10730225Y1946536D01*
X10746188Y1957203D01*
X10756855Y1973166D01*
X10760600Y1991996D01*
X10756855Y2010826D01*
X10746188Y2026790D01*
X10730225Y2037456D01*
X10711395Y2041202D01*
D02*
G37*
G36*
X10429215Y2263920D02*
X10410385Y2260175D01*
X10394421Y2249508D01*
X10383755Y2233545D01*
X10380009Y2214715D01*
X10383755Y2195885D01*
X10390392Y2185951D01*
X10383755Y2176018D01*
X10380009Y2157188D01*
X10383755Y2138358D01*
X10390392Y2128424D01*
X10383755Y2118491D01*
X10380009Y2099661D01*
X10383755Y2080831D01*
X10390392Y2070898D01*
X10383755Y2060965D01*
X10380009Y2042135D01*
X10383755Y2023305D01*
X10394421Y2007341D01*
X10410385Y1996675D01*
X10429215Y1992929D01*
X10448045Y1996675D01*
X10464008Y2007341D01*
X10474675Y2023305D01*
X10478420Y2042135D01*
X10474675Y2060965D01*
X10468037Y2070898D01*
X10474675Y2080831D01*
X10478420Y2099661D01*
X10474675Y2118491D01*
X10468037Y2128424D01*
X10474675Y2138358D01*
X10478420Y2157188D01*
X10474675Y2176018D01*
X10468037Y2185951D01*
X10474675Y2195885D01*
X10478420Y2214715D01*
X10474675Y2233545D01*
X10464008Y2249508D01*
X10448045Y2260175D01*
X10429215Y2263920D01*
D02*
G37*
G36*
X11051975Y1934620D02*
X11033145Y1930874D01*
X11019900Y1922024D01*
X11006925Y1930694D01*
X10988095Y1934440D01*
X10969265Y1930694D01*
X10956535Y1922188D01*
X10943805Y1930694D01*
X10924975Y1934440D01*
X10906145Y1930694D01*
X10893035Y1921934D01*
X10879925Y1930694D01*
X10861095Y1934440D01*
X10842265Y1930694D01*
X10826301Y1920028D01*
X10815635Y1904064D01*
X10811889Y1885234D01*
X10815635Y1866404D01*
X10819674Y1860360D01*
X10826270Y1850389D01*
X10819819Y1839498D01*
X10816015Y1833805D01*
X10812269Y1814975D01*
X10816015Y1796144D01*
X10826681Y1780181D01*
X10842645Y1769515D01*
X10861475Y1765769D01*
X10880305Y1769515D01*
X10896268Y1780181D01*
X10906935Y1796144D01*
X10910680Y1814975D01*
X10908413Y1826374D01*
X10918678Y1837216D01*
X10919008D01*
X10924975Y1836029D01*
X10930942Y1837216D01*
X10931272D01*
X10941537Y1826374D01*
X10939269Y1814975D01*
X10943015Y1796144D01*
X10953681Y1780181D01*
X10969645Y1769515D01*
X10988475Y1765769D01*
X11007305Y1769515D01*
X11023268Y1780181D01*
X11033935Y1796144D01*
X11037680Y1814975D01*
X11035375Y1826562D01*
X11045591Y1837479D01*
X11051975Y1836209D01*
X11058358Y1837479D01*
X11068574Y1826562D01*
X11066269Y1814975D01*
X11070015Y1796144D01*
X11080681Y1780181D01*
X11096645Y1769515D01*
X11115475Y1765769D01*
X11134305Y1769515D01*
X11150268Y1780181D01*
X11160935Y1796144D01*
X11164680Y1814975D01*
X11162413Y1826374D01*
X11172678Y1837216D01*
X11173008D01*
X11178975Y1836029D01*
X11184942Y1837216D01*
X11185272D01*
X11195537Y1826374D01*
X11193269Y1814975D01*
X11197015Y1796144D01*
X11207681Y1780181D01*
X11223645Y1769515D01*
X11242475Y1765769D01*
X11261305Y1769515D01*
X11277268Y1780181D01*
X11287935Y1796144D01*
X11291680Y1814975D01*
X11287935Y1833805D01*
X11283896Y1839849D01*
X11277299Y1849820D01*
X11283751Y1860711D01*
X11287555Y1866404D01*
X11291300Y1885234D01*
X11287555Y1904064D01*
X11276888Y1920028D01*
X11260925Y1930694D01*
X11242095Y1934440D01*
X11223265Y1930694D01*
X11210535Y1922188D01*
X11197805Y1930694D01*
X11178975Y1934440D01*
X11160145Y1930694D01*
X11147035Y1921934D01*
X11133925Y1930694D01*
X11115095Y1934440D01*
X11096265Y1930694D01*
X11083670Y1922278D01*
X11070805Y1930874D01*
X11051975Y1934620D01*
D02*
G37*
%LPD*%
D80*
X12091227Y1925021D02*
X12095115Y1928909D01*
X11678895Y1605255D02*
X11998661Y1925021D01*
X12091227D01*
X2407895Y1532385D02*
X2433324Y1557815D01*
X2468855D01*
X2352175Y1348715D02*
X2377115D01*
X2407895Y1379494D01*
Y1532385D01*
D81*
X11780257Y1284312D02*
X12276812D01*
X12339975Y1347475D01*
D82*
X10663168Y1226795D02*
X10778738Y1111225D01*
X12498725D02*
X12602475Y1214975D01*
X10778738Y1111225D02*
X12498725D01*
D83*
X13619656Y2982063D02*
G03*
X13736935Y2864784I117279J0D01*
G01*
X13619969Y3028124D02*
G03*
X13528519Y3119575I-91450J0D01*
G01*
X13619656Y3028124D02*
X13619969D01*
X13619656Y2982063D02*
Y3028124D01*
D85*
X7364694Y1239890D02*
X7898730D01*
X7951434Y1292595D01*
D91*
X2787955Y1808915D02*
D03*
X2680455D02*
D03*
X2895454D02*
D03*
X2787955Y1697915D02*
D03*
Y1919915D02*
D03*
Y2061414D02*
D03*
X2680455D02*
D03*
X2895454D02*
D03*
D92*
X1310055Y1469052D02*
D03*
X1625055D02*
D03*
X1310055Y2399052D02*
D03*
X1625055D02*
D03*
D93*
X5166335Y3068295D02*
D03*
X5669238D02*
D03*
D94*
X12244975Y1447475D02*
D03*
X12137475Y1337475D02*
D03*
Y1557475D02*
D03*
X12027475Y1447475D02*
D03*
X12247475Y1337475D02*
D03*
X12027475D02*
D03*
X12247475Y1557475D02*
D03*
X12027475D02*
D03*
D95*
X15001215Y1668755D02*
D03*
X8679155Y3017495D02*
D03*
D96*
X3568675Y1681455D02*
D03*
X3190215Y2603804D02*
D03*
X5524475Y1993875D02*
D03*
Y1798909D02*
D03*
D97*
X2054975Y2329975D02*
D03*
Y1694975D02*
D03*
D98*
X1560055Y1594052D02*
D03*
Y2274052D02*
D03*
X1195055Y2069052D02*
D03*
Y1799052D02*
D03*
D99*
X5110935Y1564154D02*
D03*
X5000935D02*
D03*
X4890935D02*
D03*
X5110935Y1674154D02*
D03*
X5000935D02*
D03*
X4890935D02*
D03*
X5110935Y1784154D02*
D03*
X5000935D02*
D03*
X4890935D02*
D03*
X12137475Y1447475D02*
D03*
X4463954Y2724210D02*
D03*
X4788955Y2726110D02*
D03*
X5295318Y2299078D02*
D03*
X4917115Y2029754D02*
D03*
X4790115Y2135532D02*
D03*
X4853954Y2136110D02*
D03*
X5050935Y1989114D02*
D03*
X5000935Y1914154D02*
D03*
X4632359Y1875014D02*
D03*
X10779975Y1347475D02*
D03*
X12984975Y1468795D02*
D03*
X10778584Y1227475D02*
D03*
X11539975Y1237779D02*
D03*
X8222475Y2302475D02*
D03*
X10660355Y2849855D02*
D03*
X10662895Y2970789D02*
D03*
X10704975Y2658975D02*
D03*
X13677875Y1881495D02*
D03*
Y1941495D02*
D03*
X13612874D02*
D03*
Y1881495D02*
D03*
X14008075D02*
D03*
Y1941495D02*
D03*
X13943074D02*
D03*
Y1881495D02*
D03*
X13167336Y1227475D02*
D03*
X13227335D02*
D03*
Y1162474D02*
D03*
X13287334D02*
D03*
X13167336D02*
D03*
X11665155Y2717434D02*
D03*
Y2597434D02*
D03*
Y2537435D02*
D03*
Y2657434D02*
D03*
X11600155D02*
D03*
Y2597434D02*
D03*
Y2717434D02*
D03*
Y2537435D02*
D03*
X12677115Y2717434D02*
D03*
Y2597434D02*
D03*
Y2537435D02*
D03*
Y2657434D02*
D03*
X12612114D02*
D03*
Y2597434D02*
D03*
Y2717434D02*
D03*
Y2537435D02*
D03*
X4544359Y1551313D02*
D03*
X4767755Y1341501D02*
D03*
X10704975Y2912975D02*
D03*
Y2785975D02*
D03*
X11051975Y2342575D02*
D03*
X11242475Y2369975D02*
D03*
X11051975Y2400293D02*
D03*
X10988475Y2369975D02*
D03*
X11115475D02*
D03*
X13094936Y2414975D02*
D03*
X13093675Y2342575D02*
D03*
X13219975Y2414975D02*
D03*
Y2342575D02*
D03*
X13347435Y2416698D02*
D03*
Y2342575D02*
D03*
X13532475Y2849974D02*
D03*
X13604895Y2847475D02*
D03*
X13532475Y2722475D02*
D03*
X13604895D02*
D03*
X13532475Y2472275D02*
D03*
Y2594974D02*
D03*
X13604895Y2472275D02*
D03*
Y2594974D02*
D03*
X7399755Y1787799D02*
D03*
X8072795Y1569035D02*
D03*
X7857475Y1809975D02*
D03*
X2247175Y1373775D02*
D03*
X4530196Y1874667D02*
D03*
X2687474Y2260299D02*
D03*
Y2312085D02*
D03*
Y2363870D02*
D03*
Y2415656D02*
D03*
Y2519227D02*
D03*
Y2571012D02*
D03*
X2319735Y1821155D02*
D03*
X2745715Y2570688D02*
D03*
Y2415331D02*
D03*
Y2363546D02*
D03*
Y2311760D02*
D03*
Y2259975D02*
D03*
X2885235Y2259650D02*
D03*
Y2311436D02*
D03*
Y2363221D02*
D03*
Y2415007D02*
D03*
X2826995Y2518902D02*
D03*
Y2415331D02*
D03*
Y2363546D02*
D03*
Y2311760D02*
D03*
Y2259975D02*
D03*
X4983954Y2726110D02*
D03*
X2745715Y2622473D02*
D03*
X2687474Y2622798D02*
D03*
X2826995Y2570688D02*
D03*
X2885235Y2570363D02*
D03*
Y2622149D02*
D03*
X2826995Y2622473D02*
D03*
X2687474Y2467441D02*
D03*
X2745715Y2518902D02*
D03*
Y2467117D02*
D03*
X2826995D02*
D03*
X2885235Y2518578D02*
D03*
Y2466792D02*
D03*
X4541495Y2583660D02*
D03*
X14008075Y1821495D02*
D03*
X13943074D02*
D03*
X13677875D02*
D03*
X13612874D02*
D03*
Y2001495D02*
D03*
X13677875D02*
D03*
X13943074D02*
D03*
X14008075D02*
D03*
X1632626Y2107195D02*
D03*
X1513815Y2174215D02*
D03*
Y2107195D02*
D03*
X1573220D02*
D03*
Y2174215D02*
D03*
X1632626D02*
D03*
X2247175Y2225015D02*
D03*
X2575535Y2440915D02*
D03*
Y2389129D02*
D03*
X2517294Y2389454D02*
D03*
Y2337668D02*
D03*
X2575535Y2337344D02*
D03*
X2517294Y2441239D02*
D03*
X6482055Y2244288D02*
D03*
Y2296073D02*
D03*
X6423814Y2244612D02*
D03*
Y2399969D02*
D03*
X6482055Y2399644D02*
D03*
Y2192502D02*
D03*
Y2347859D02*
D03*
X6423814Y2348183D02*
D03*
Y2296398D02*
D03*
Y2192827D02*
D03*
X6596355Y2244288D02*
D03*
X6538114Y2244612D02*
D03*
Y2399969D02*
D03*
X6596355Y2399644D02*
D03*
Y2192502D02*
D03*
Y2347859D02*
D03*
X6538114Y2348183D02*
D03*
Y2296398D02*
D03*
Y2192827D02*
D03*
X6710655Y2244612D02*
D03*
Y2296398D02*
D03*
X6652414Y2244937D02*
D03*
Y2400293D02*
D03*
X6710655Y2399969D02*
D03*
Y2192827D02*
D03*
Y2348183D02*
D03*
X6652414Y2348508D02*
D03*
Y2296722D02*
D03*
Y2193151D02*
D03*
X6596355Y2296073D02*
D03*
X2072615Y1369035D02*
D03*
X3047474Y3067975D02*
D03*
Y2939975D02*
D03*
Y2814975D02*
D03*
X3369975Y2686975D02*
D03*
X4153974Y3067475D02*
D03*
X4184975Y2939975D02*
D03*
X4725854Y3029706D02*
D03*
X4840154D02*
D03*
X4954454D02*
D03*
X7728372Y1590015D02*
D03*
X7837331D02*
D03*
X7729195Y1483335D02*
D03*
X7782475Y1534975D02*
D03*
X7387215Y1423154D02*
D03*
X1447775Y2964155D02*
D03*
X1640515Y3095255D02*
D03*
Y2836175D02*
D03*
X1877035Y1749414D02*
D03*
X2249975Y1743799D02*
D03*
X2138655Y2016735D02*
D03*
X2984654Y2623550D02*
D03*
X3042895Y2519655D02*
D03*
X2984654Y2519979D02*
D03*
Y2571765D02*
D03*
X3042895Y2571440D02*
D03*
Y2623226D02*
D03*
X1877035Y1661414D02*
D03*
X1254435Y2964155D02*
D03*
Y3095255D02*
D03*
Y2836175D02*
D03*
X1447775D02*
D03*
Y3095255D02*
D03*
X1640515Y2964155D02*
D03*
X3832835Y2471395D02*
D03*
X3713455Y2527275D02*
D03*
X3680435Y2581195D02*
D03*
X5853881Y2449215D02*
D03*
X5749741Y2209448D02*
D03*
X6463975Y1450315D02*
D03*
X5948655Y1368655D02*
D03*
X3275655Y1424915D02*
D03*
X4137635Y1429995D02*
D03*
X4594835Y2524735D02*
D03*
X3731235Y1971015D02*
D03*
X8018642Y2297337D02*
D03*
X6863055Y1551915D02*
D03*
X9883623Y2425687D02*
D03*
Y2270330D02*
D03*
Y2477473D02*
D03*
Y2373902D02*
D03*
Y2322116D02*
D03*
X9596782Y2270330D02*
D03*
Y2373902D02*
D03*
Y2425687D02*
D03*
Y2477473D02*
D03*
Y2322116D02*
D03*
X12984953Y1346434D02*
D03*
X12339975Y1587475D02*
D03*
X7782475Y1905131D02*
D03*
X3677895Y1285215D02*
D03*
X8422615Y2259650D02*
D03*
X8346415D02*
D03*
X8422615Y2346010D02*
D03*
X8346415D02*
D03*
X7160235Y1762735D02*
D03*
X7236435D02*
D03*
X7160235Y1676375D02*
D03*
X7236435D02*
D03*
X7160235Y1574775D02*
D03*
X7236435D02*
D03*
X7160235Y1488415D02*
D03*
X7236435D02*
D03*
X1334875Y1331335D02*
D03*
X2603974Y1147475D02*
D03*
X2575535Y1357235D02*
D03*
X3162975Y2357095D02*
D03*
X4525631Y1963014D02*
D03*
X4632359D02*
D03*
X8689135Y1605174D02*
D03*
X8630895Y1553713D02*
D03*
Y1605499D02*
D03*
X8803435Y1553389D02*
D03*
X8745195Y1553713D02*
D03*
X8803435Y1656960D02*
D03*
X8745195Y1605499D02*
D03*
X8917735Y1553713D02*
D03*
Y1605499D02*
D03*
X8859495Y1554038D02*
D03*
Y1657609D02*
D03*
Y1605824D02*
D03*
X8803435Y1605174D02*
D03*
X1573220Y1694155D02*
D03*
Y1751598D02*
D03*
X1512673D02*
D03*
Y1694155D02*
D03*
X2540185Y1792544D02*
D03*
X2444067Y1788135D02*
D03*
X2526311Y1869415D02*
D03*
X2444067D02*
D03*
X2330636Y3059831D02*
D03*
Y2779831D02*
D03*
X2562686Y3058435D02*
D03*
X3327375Y2254613D02*
D03*
X1647165Y1130113D02*
D03*
X7502975Y1536375D02*
D03*
X8177724Y1452414D02*
D03*
X7638475Y1454975D02*
D03*
X8859495Y1502253D02*
D03*
X7926475Y1454975D02*
D03*
X8745195Y1501928D02*
D03*
X8917735D02*
D03*
X8630895D02*
D03*
X8689135Y1553389D02*
D03*
Y1501603D02*
D03*
X8803435D02*
D03*
X7139915Y1371575D02*
D03*
X7275455Y1323315D02*
D03*
X7023075Y1371575D02*
D03*
X8613294Y2261760D02*
D03*
Y2365331D02*
D03*
Y2313545D02*
D03*
Y2209974D02*
D03*
X8900135Y2261760D02*
D03*
Y2313545D02*
D03*
Y2417116D02*
D03*
Y2209974D02*
D03*
Y2365331D02*
D03*
X7842475Y2384975D02*
D03*
X11729695Y2537435D02*
D03*
Y2717434D02*
D03*
Y2597434D02*
D03*
Y2657434D02*
D03*
X11794695D02*
D03*
Y2537435D02*
D03*
Y2597434D02*
D03*
Y2717434D02*
D03*
X12486995Y2537435D02*
D03*
Y2717434D02*
D03*
Y2597434D02*
D03*
Y2657434D02*
D03*
X12551995D02*
D03*
Y2537435D02*
D03*
Y2597434D02*
D03*
Y2717434D02*
D03*
X11177475Y2399644D02*
D03*
Y2341855D02*
D03*
X11304975Y2399644D02*
D03*
Y2343470D02*
D03*
X10746715Y2970789D02*
D03*
X10741635Y2849855D02*
D03*
X10660355Y2720885D02*
D03*
X10741635D02*
D03*
X9824695Y1952475D02*
D03*
X7302256Y2012475D02*
D03*
X7197676Y2013390D02*
D03*
X7408255D02*
D03*
X7302255Y2078014D02*
D03*
Y1945934D02*
D03*
X7197676D02*
D03*
X7408255Y1945414D02*
D03*
Y2078014D02*
D03*
X7197676Y2078475D02*
D03*
X8317475Y1953390D02*
D03*
X8317475Y2019275D02*
D03*
X8317475Y1887195D02*
D03*
X8209255Y1953391D02*
D03*
X8207985Y2019275D02*
D03*
X8209255Y1887195D02*
D03*
X8425155Y2019275D02*
D03*
Y1953390D02*
D03*
Y1889975D02*
D03*
X6287475Y1958392D02*
D03*
X6609975D02*
D03*
X6932475D02*
D03*
X7037677Y1719974D02*
D03*
Y1552794D02*
D03*
X2981475Y2320474D02*
D03*
X3702553Y2283435D02*
D03*
X3477235Y2283100D02*
D03*
X2577535Y1505535D02*
D03*
X3774415Y1691615D02*
D03*
X3634715Y1834154D02*
D03*
X3842519D02*
D03*
X10007575Y2097261D02*
D03*
Y2039735D02*
D03*
Y2154788D02*
D03*
X9483546Y2638338D02*
D03*
X9824695Y2112475D02*
D03*
X9684618Y2638338D02*
D03*
X9885689D02*
D03*
X10086760D02*
D03*
X9282513Y3087411D02*
D03*
X9383478D02*
D03*
X9484443D02*
D03*
X9585408D02*
D03*
X9686373D02*
D03*
X9787338D02*
D03*
X9888303D02*
D03*
X9989268D02*
D03*
X10090233D02*
D03*
X9282513Y3013635D02*
D03*
X9383478D02*
D03*
X9484443D02*
D03*
X9585408D02*
D03*
X9686373D02*
D03*
X9787338D02*
D03*
X9888303D02*
D03*
X9989268D02*
D03*
X10090233D02*
D03*
X12192555Y1447475D02*
D03*
X12247855Y1503655D02*
D03*
X12193698Y1391895D02*
D03*
X12247855D02*
D03*
X10284988Y2637195D02*
D03*
X9285505Y2641221D02*
D03*
X12027213Y1503655D02*
D03*
X12082475Y1557051D02*
D03*
X12082395Y1503655D02*
D03*
X13156975Y2370838D02*
D03*
X13283975D02*
D03*
X13410976D02*
D03*
X13612474Y2337475D02*
D03*
X13804974Y2338338D02*
D03*
X13997475Y2337475D02*
D03*
X13564975Y2532838D02*
D03*
Y2659838D02*
D03*
Y2786838D02*
D03*
X15058595Y1472255D02*
D03*
Y1412255D02*
D03*
X14993594Y1472255D02*
D03*
Y1412255D02*
D03*
X15059476Y1269975D02*
D03*
Y1209975D02*
D03*
X14994475Y1269975D02*
D03*
Y1209975D02*
D03*
X13612474Y2177475D02*
D03*
X13804974Y2178338D02*
D03*
X13997475Y2177475D02*
D03*
X14866125Y1441110D02*
D03*
Y1238610D02*
D03*
X10007575Y2212315D02*
D03*
X10429215Y2214715D02*
D03*
Y2157188D02*
D03*
Y2042135D02*
D03*
Y2099661D02*
D03*
X14803094Y1762555D02*
D03*
Y1705028D02*
D03*
Y1589975D02*
D03*
Y1647502D02*
D03*
X6287475Y2250392D02*
D03*
X7837331Y1483335D02*
D03*
X1877443Y1560355D02*
D03*
X2019275Y1986436D02*
D03*
X4698975Y1681455D02*
D03*
Y1617955D02*
D03*
X4422475Y1594175D02*
D03*
Y1704175D02*
D03*
X4422115Y1775435D02*
D03*
Y1525133D02*
D03*
X1632626Y1750436D02*
D03*
Y1694155D02*
D03*
X14386536Y1760055D02*
D03*
Y1702528D02*
D03*
Y1587475D02*
D03*
Y1645001D02*
D03*
X14152855Y1163763D02*
D03*
X14092854D02*
D03*
X14032855D02*
D03*
X13972855D02*
D03*
X13588976Y1162779D02*
D03*
X13528975D02*
D03*
X13468974D02*
D03*
X13408975D02*
D03*
X13287334Y1227475D02*
D03*
X13347334Y1162474D02*
D03*
X14152855Y1228763D02*
D03*
X14092854D02*
D03*
X14032855D02*
D03*
X13972855D02*
D03*
X13588976Y1227779D02*
D03*
X13528975D02*
D03*
X13468974D02*
D03*
X13408975D02*
D03*
X13347334Y1227475D02*
D03*
X14673715Y1192475D02*
D03*
X14513715Y1192475D02*
D03*
X10861475Y2369975D02*
D03*
X10704975Y2531975D02*
D03*
X11259975D02*
D03*
Y2658975D02*
D03*
Y2785975D02*
D03*
Y2912975D02*
D03*
X10856115D02*
D03*
Y2785975D02*
D03*
Y2658975D02*
D03*
Y2531975D02*
D03*
X10855935Y2722855D02*
D03*
X10856115Y2849855D02*
D03*
Y2595855D02*
D03*
X11026655Y2912595D02*
D03*
Y2785595D02*
D03*
Y2658595D02*
D03*
Y2531595D02*
D03*
X11026475Y2722475D02*
D03*
X11026655Y2849475D02*
D03*
Y2595475D02*
D03*
X13244655Y2912458D02*
D03*
Y2785458D02*
D03*
Y2658458D02*
D03*
Y2531458D02*
D03*
X13244475Y2722338D02*
D03*
X13244655Y2849338D02*
D03*
Y2595338D02*
D03*
X13411356Y2913458D02*
D03*
Y2786458D02*
D03*
Y2659458D02*
D03*
Y2532458D02*
D03*
X13411176Y2723338D02*
D03*
X13411356Y2850338D02*
D03*
Y2596338D02*
D03*
X10861855Y2048655D02*
D03*
X10988855D02*
D03*
X11115855D02*
D03*
X11242855D02*
D03*
X11051975Y2048475D02*
D03*
X10924975Y2048655D02*
D03*
X11178975D02*
D03*
X13410596Y2049158D02*
D03*
X13283595D02*
D03*
X13156595D02*
D03*
X13029594D02*
D03*
X13220474Y2049338D02*
D03*
X13347475Y2049158D02*
D03*
X13093475D02*
D03*
X13410095Y2217214D02*
D03*
X13283095D02*
D03*
X13156094D02*
D03*
X13029095D02*
D03*
X13219975Y2217395D02*
D03*
X13346976Y2217214D02*
D03*
X13092975D02*
D03*
X11242094Y2161334D02*
D03*
X11115094D02*
D03*
X10988094D02*
D03*
X10861094D02*
D03*
X11051974Y2161515D02*
D03*
X11178974Y2161334D02*
D03*
X10924974D02*
D03*
X10861475Y1814975D02*
D03*
X10988475D02*
D03*
X11115475D02*
D03*
X11242475D02*
D03*
X13029974Y1815838D02*
D03*
X13156975D02*
D03*
X13283975D02*
D03*
X13410976D02*
D03*
X13410796Y1884474D02*
D03*
X13283795D02*
D03*
X13156795D02*
D03*
X13029794D02*
D03*
X13220676Y1884655D02*
D03*
X13347675Y1884474D02*
D03*
X13093675D02*
D03*
X11242095Y1885234D02*
D03*
X11115095D02*
D03*
X10988095D02*
D03*
X10861095D02*
D03*
X11051975Y1885415D02*
D03*
X11178975Y1885234D02*
D03*
X10924975D02*
D03*
X11191395Y2914330D02*
D03*
Y2787330D02*
D03*
Y2660330D02*
D03*
Y2533330D02*
D03*
X11191215Y2724210D02*
D03*
X11191395Y2851210D02*
D03*
Y2597210D02*
D03*
X13010974Y2531838D02*
D03*
Y2658838D02*
D03*
Y2785838D02*
D03*
Y2912838D02*
D03*
X13083334Y2530195D02*
D03*
Y2657195D02*
D03*
Y2784195D02*
D03*
Y2911195D02*
D03*
X13083514Y2720315D02*
D03*
X13083334Y2593315D02*
D03*
Y2847315D02*
D03*
X10623975Y1883096D02*
D03*
X10711975D02*
D03*
X10623395Y1991996D02*
D03*
X10711395D02*
D03*
X10705475Y3024975D02*
D03*
X11354475Y2369475D02*
D03*
X13446202Y2415007D02*
D03*
X13123656Y1549587D02*
D03*
X13123639Y1705595D02*
D03*
X11539975Y1741134D02*
D03*
X12082395Y1447475D02*
D03*
X12137475Y1392395D02*
D03*
X12082513Y1391355D02*
D03*
X12026875Y1392314D02*
D03*
X12082755Y1337475D02*
D03*
X12095115Y1928909D02*
D03*
X10663168Y1226795D02*
D03*
X11231926Y1227475D02*
D03*
X11539975Y1394435D02*
D03*
X11096926Y1227475D02*
D03*
X12251521Y1936151D02*
D03*
X12137475Y1502555D02*
D03*
X12192555Y1557475D02*
D03*
X12238115Y1649975D02*
D03*
X12192555Y1502555D02*
D03*
X8917735Y1657284D02*
D03*
X8745195D02*
D03*
X9655023Y2425362D02*
D03*
X9711082Y2425687D02*
D03*
X9825382Y2426012D02*
D03*
X9655023Y2477148D02*
D03*
X9711082Y2477473D02*
D03*
X9655023Y2321791D02*
D03*
X9711082Y2270330D02*
D03*
X9769323Y2270006D02*
D03*
Y2321791D02*
D03*
X9825382Y2477797D02*
D03*
Y2270655D02*
D03*
X8785835Y2209650D02*
D03*
Y2261435D02*
D03*
X8841894Y2417441D02*
D03*
X8727594Y2209974D02*
D03*
X8841894Y2210299D02*
D03*
X8671535Y2261435D02*
D03*
X8841894Y2365655D02*
D03*
X8671535Y2365006D02*
D03*
X8727594Y2365331D02*
D03*
X9711082Y2373902D02*
D03*
Y2322116D02*
D03*
X9655023Y2270006D02*
D03*
Y2373577D02*
D03*
X9825382Y2322441D02*
D03*
Y2374226D02*
D03*
X9769323Y2373577D02*
D03*
Y2477148D02*
D03*
Y2425362D02*
D03*
X8671535Y2313221D02*
D03*
Y2209650D02*
D03*
X8727594Y2261760D02*
D03*
Y2313545D02*
D03*
X8785835Y2313221D02*
D03*
X8841894Y2313870D02*
D03*
Y2262084D02*
D03*
X8785835Y2365006D02*
D03*
X11678895Y1605255D02*
D03*
X13695126Y1444770D02*
D03*
Y1604770D02*
D03*
X13890126Y1444770D02*
D03*
Y1604770D02*
D03*
X9992335Y1445916D02*
D03*
X9040364Y1944073D02*
D03*
X8712175Y1944076D02*
D03*
X9372275Y1941755D02*
D03*
X9632581Y1953534D02*
D03*
Y2113534D02*
D03*
X9456395Y2222475D02*
D03*
Y2404586D02*
D03*
X9360027Y2222475D02*
D03*
X9263654Y2404586D02*
D03*
X9263517Y2222475D02*
D03*
X9360115Y2313376D02*
D03*
X9456395D02*
D03*
X9263355D02*
D03*
X9360115Y2405373D02*
D03*
X13300127Y1603555D02*
D03*
X13497626D02*
D03*
X13300127Y1443555D02*
D03*
X13497626D02*
D03*
X2361823Y1869415D02*
D03*
X2485365Y1907515D02*
D03*
X2401978Y1821155D02*
D03*
X2484222D02*
D03*
X2403132Y1907515D02*
D03*
X2579155Y2578275D02*
D03*
X2361823Y1788135D02*
D03*
Y1715647D02*
D03*
X3408655Y1653515D02*
D03*
X3395955Y2513655D02*
D03*
X13447183Y2317101D02*
D03*
X6228295Y1196318D02*
D03*
X7390455Y1323315D02*
D03*
X8630895Y1657284D02*
D03*
X8689135Y1656960D02*
D03*
X4297655Y1390855D02*
D03*
X3761713Y1229334D02*
D03*
X5478755Y1452414D02*
D03*
X6798218Y1485484D02*
D03*
X6682715Y1313155D02*
D03*
X5176495Y2638215D02*
D03*
X5295335Y2638475D02*
D03*
X13029974Y2370838D02*
D03*
X5664175Y2758415D02*
D03*
X4206215Y2034515D02*
D03*
X4348455Y2137857D02*
D03*
X4223995Y1958234D02*
D03*
X4140175Y1699235D02*
D03*
X3072554Y1312475D02*
D03*
X3160555D02*
D03*
X3528035Y1902435D02*
D03*
X3686631D02*
D03*
X3639795Y1424915D02*
D03*
X1968475Y1354695D02*
D03*
X2468855Y1469814D02*
D03*
X2352015Y1448035D02*
D03*
X3210825Y2120875D02*
D03*
X3209622Y2016735D02*
D03*
X3919195Y1160755D02*
D03*
X4124935Y1114975D02*
D03*
X4041115Y1117575D02*
D03*
X12191975Y1338555D02*
D03*
X10782475Y1432475D02*
D03*
X11539975Y1611134D02*
D03*
X11934975Y1386875D02*
D03*
X12602475Y1214975D02*
D03*
X12077475Y1179975D02*
D03*
X12157475Y1164413D02*
D03*
X10921975Y1158215D02*
D03*
X12117475Y1244975D02*
D03*
X12038115D02*
D03*
X12526475Y1477635D02*
D03*
X12496775Y1399515D02*
D03*
X12339975Y1347475D02*
D03*
X12438652Y1363642D02*
D03*
X12037475Y1649975D02*
D03*
X11826215Y1427455D02*
D03*
X11934975Y1467475D02*
D03*
X4244315Y2410435D02*
D03*
X2085315Y2568495D02*
D03*
Y2696475D02*
D03*
Y2827575D02*
D03*
X1831315Y2988475D02*
D03*
Y3119575D02*
D03*
Y2860495D02*
D03*
X5100055Y2024594D02*
D03*
X12117475Y1649975D02*
D03*
X2468855Y1557815D02*
D03*
X2352175Y1348715D02*
D03*
X2842235Y1862085D02*
D03*
X2680455Y1918135D02*
D03*
X2839889Y2061735D02*
D03*
X2842235Y1916695D02*
D03*
X2680455Y1754305D02*
D03*
X2733600Y2110715D02*
D03*
X2895454Y1918135D02*
D03*
X2733015Y1917675D02*
D03*
X2895454Y1754305D02*
D03*
X2870616Y2018107D02*
D03*
X2787955Y1754305D02*
D03*
X2733015Y1753845D02*
D03*
X2786744Y2110715D02*
D03*
X2703315Y2016735D02*
D03*
X2597955Y1885415D02*
D03*
X3065336Y1765275D02*
D03*
X2733015Y1863065D02*
D03*
X2680455Y1699695D02*
D03*
X2839889Y2110715D02*
D03*
X2787955Y1863525D02*
D03*
X2733600Y2061735D02*
D03*
X2597955Y1805414D02*
D03*
X2680455Y1863525D02*
D03*
X2893034Y2110715D02*
D03*
X3095693Y1703873D02*
D03*
X2895454Y1699695D02*
D03*
X2733015Y1808455D02*
D03*
X2680455Y2110715D02*
D03*
X2895454Y1863525D02*
D03*
X2733015Y1699235D02*
D03*
X2842235Y1752865D02*
D03*
X2761540Y2016735D02*
D03*
X2842235Y1698255D02*
D03*
X2811755Y2017355D02*
D03*
X2842235Y1807475D02*
D03*
X4853954Y2726110D02*
D03*
X4918955D02*
D03*
X11780257Y1284312D02*
D03*
X2019275Y1922755D02*
D03*
X8006055Y1704315D02*
D03*
X7622735Y1142262D02*
D03*
X7782535Y1325428D02*
D03*
X1334875Y2583779D02*
D03*
X1889735Y2181015D02*
D03*
Y2374054D02*
D03*
X1865835Y2603804D02*
D03*
X5485335Y3068711D02*
D03*
X13904974Y2532475D02*
D03*
X13844974D02*
D03*
X13904974Y2467475D02*
D03*
X13724976D02*
D03*
X13844974D02*
D03*
X13724976Y2532475D02*
D03*
X13784975D02*
D03*
Y2467475D02*
D03*
X14436993Y2077663D02*
D03*
Y2012662D02*
D03*
X14376994Y2077663D02*
D03*
X14256995Y2012662D02*
D03*
X14317955Y2525075D02*
D03*
Y2585075D02*
D03*
X14382954Y2645075D02*
D03*
Y2585075D02*
D03*
X14256995Y2077663D02*
D03*
X14316994D02*
D03*
X14376994Y2012662D02*
D03*
X14316994D02*
D03*
X14317955Y2645075D02*
D03*
X14382954Y2525075D02*
D03*
X14317955Y2705075D02*
D03*
X14382954D02*
D03*
X14900595Y2706654D02*
D03*
X14835596D02*
D03*
X14900595Y2526655D02*
D03*
X14835596Y2646655D02*
D03*
X14900595Y2586655D02*
D03*
Y2646655D02*
D03*
X14835596Y2586655D02*
D03*
Y2526655D02*
D03*
X8671535Y2416792D02*
D03*
X8613294Y2417116D02*
D03*
X8785835Y2416792D02*
D03*
X8727594Y2417116D02*
D03*
X9282513Y2939975D02*
D03*
X9484443D02*
D03*
X9383478D02*
D03*
X9686373D02*
D03*
X9585408D02*
D03*
X9888303D02*
D03*
X9787338D02*
D03*
X10090233D02*
D03*
X9989268D02*
D03*
X10284435Y2766035D02*
D03*
X10086315D02*
D03*
X9885655D02*
D03*
X9682455D02*
D03*
X9481795D02*
D03*
X9283675D02*
D03*
X13565974Y2912838D02*
D03*
X7063715Y2151355D02*
D03*
X7367475Y2512035D02*
D03*
X6525235Y1649755D02*
D03*
X8007475Y1889975D02*
D03*
X8072095Y1875014D02*
D03*
X7664975Y2045234D02*
D03*
X6412975Y2997175D02*
D03*
X1890020Y2269300D02*
D03*
X6907055Y2701834D02*
D03*
X8067998Y2875655D02*
D03*
X5297495Y2135532D02*
D03*
X10572975Y1463015D02*
D03*
X4335755Y2356175D02*
D03*
X4528955Y2724210D02*
D03*
X3980155Y1935455D02*
D03*
X3914115Y2024355D02*
D03*
X3159075Y1765275D02*
D03*
X7951434Y1292595D02*
D03*
X6228055Y1649975D02*
D03*
X7364694Y1239890D02*
D03*
X6741195Y1178535D02*
D03*
X6428295Y1271319D02*
D03*
X6870236Y2382755D02*
D03*
X7088300Y2460186D02*
D03*
X5240935Y1774154D02*
D03*
X4422475Y1859255D02*
D03*
X5681955Y2895575D02*
D03*
X1720054Y2170052D02*
D03*
Y1698052D02*
D03*
X1835131Y2058213D02*
D03*
X2007614Y2126435D02*
D03*
X2349974Y2067435D02*
D03*
X4236695Y2087855D02*
D03*
X4285294Y2123415D02*
D03*
X2349974Y2185015D02*
D03*
X4777715Y2284231D02*
D03*
X4528955Y2136110D02*
D03*
X5048955Y2163638D02*
D03*
X3936975Y2361735D02*
D03*
X3502505Y2364145D02*
D03*
X4051275Y2418055D02*
D03*
X3685515Y2679675D02*
D03*
X4083974Y2679540D02*
D03*
X10246335Y1569695D02*
D03*
X10192995D02*
D03*
X11791992Y1518894D02*
D03*
X11752555Y1562075D02*
D03*
D100*
X15001215Y1668755D02*
Y2998511D01*
X10450532Y2863426D02*
X10706680Y3119575D01*
X8795678Y2801221D02*
X8857883Y2863426D01*
X10450532Y2863426D01*
X14878091Y3121635D02*
X15001215Y2998511D01*
X14173175Y3121635D02*
X14878091D01*
X13916324Y2864784D02*
X14173175Y3121635D01*
X10706680Y3119575D02*
X13528519D01*
X13736935Y2864784D02*
X13916324D01*
X8562011Y2801221D02*
X8795678D01*
X6412975Y2997175D02*
X8366057Y2997175D01*
X8562011Y2801221D01*
%TF.MD5,9422b81a5eefe475115ff6b83fb3dd6a*%
M02*
