%TF.GenerationSoftware,Altium Limited,Altium Designer,19.0.15 (446)*%
G04 Layer_Color=2752767*
%FSLAX45Y45*%
%MOMM*%
%TF.FileFunction,Drawing*%
%TF.Part,Single*%
G01*
G75*
%TA.AperFunction,NonConductor*%
%ADD88C,0.12700*%
%ADD224C,0.16933*%
D88*
X2737155Y1758115D02*
Y1859715D01*
X2838755D01*
Y1758115D01*
X2737155D01*
X2629655D02*
Y1859715D01*
X2731255D01*
Y1758115D01*
X2629655D01*
X2844654D02*
Y1859715D01*
X2946254D01*
Y1758115D01*
X2844654D01*
X2737155Y1647115D02*
Y1748715D01*
X2838755D01*
Y1647115D01*
X2737155D01*
Y1869115D02*
Y1970715D01*
X2838755D01*
Y1869115D01*
X2737155D01*
Y2010614D02*
Y2112214D01*
X2838755D01*
Y2010614D01*
X2737155D01*
X2629655D02*
Y2112214D01*
X2731255D01*
Y2010614D01*
X2629655D01*
X2844654D02*
Y2112214D01*
X2946254D01*
Y2010614D01*
X2844654D01*
X5166335Y3017495D02*
X5115535Y3119095D01*
X5217135D01*
X5166335Y3017495D01*
X5669238D02*
X5618438Y3119095D01*
X5720038D01*
X5669238Y3017495D01*
X12244975Y1396675D02*
X12270375Y1422075D01*
X12295775D01*
X12270375Y1447475D01*
X12295775Y1472875D01*
X12270375D01*
X12244975Y1498275D01*
X12219575Y1472875D01*
X12194175D01*
X12219575Y1447475D01*
X12194175Y1422075D01*
X12219575D01*
X12244975Y1396675D01*
X12137475Y1286675D02*
X12162875Y1312075D01*
X12188275D01*
X12162875Y1337475D01*
X12188275Y1362875D01*
X12162875D01*
X12137475Y1388275D01*
X12112075Y1362875D01*
X12086675D01*
X12112075Y1337475D01*
X12086675Y1312075D01*
X12112075D01*
X12137475Y1286675D01*
Y1506675D02*
X12162875Y1532075D01*
X12188275D01*
X12162875Y1557475D01*
X12188275Y1582875D01*
X12162875D01*
X12137475Y1608275D01*
X12112075Y1582875D01*
X12086675D01*
X12112075Y1557475D01*
X12086675Y1532075D01*
X12112075D01*
X12137475Y1506675D01*
X12027475Y1396675D02*
X12052875Y1422075D01*
X12078275D01*
X12052875Y1447475D01*
X12078275Y1472875D01*
X12052875D01*
X12027475Y1498275D01*
X12002075Y1472875D01*
X11976675D01*
X12002075Y1447475D01*
X11976675Y1422075D01*
X12002075D01*
X12027475Y1396675D01*
X12247475Y1286675D02*
X12272875Y1312075D01*
X12298275D01*
X12272875Y1337475D01*
X12298275Y1362875D01*
X12272875D01*
X12247475Y1388275D01*
X12222075Y1362875D01*
X12196675D01*
X12222075Y1337475D01*
X12196675Y1312075D01*
X12222075D01*
X12247475Y1286675D01*
X12027475D02*
X12052875Y1312075D01*
X12078275D01*
X12052875Y1337475D01*
X12078275Y1362875D01*
X12052875D01*
X12027475Y1388275D01*
X12002075Y1362875D01*
X11976675D01*
X12002075Y1337475D01*
X11976675Y1312075D01*
X12002075D01*
X12027475Y1286675D01*
X12247475Y1506675D02*
X12272875Y1532075D01*
X12298275D01*
X12272875Y1557475D01*
X12298275Y1582875D01*
X12272875D01*
X12247475Y1608275D01*
X12222075Y1582875D01*
X12196675D01*
X12222075Y1557475D01*
X12196675Y1532075D01*
X12222075D01*
X12247475Y1506675D01*
X12027475D02*
X12052875Y1532075D01*
X12078275D01*
X12052875Y1557475D01*
X12078275Y1582875D01*
X12052875D01*
X12027475Y1608275D01*
X12002075Y1582875D01*
X11976675D01*
X12002075Y1557475D01*
X11976675Y1532075D01*
X12002075D01*
X12027475Y1506675D01*
X14950415Y1617955D02*
X14975815Y1668755D01*
X14950415Y1719555D01*
X15001215Y1694155D01*
X15052016Y1719555D01*
X15026614Y1668755D01*
X15052016Y1617955D01*
X15001215Y1643355D01*
X14950415Y1617955D01*
X8628355Y2966695D02*
X8653755Y3017495D01*
X8628355Y3068295D01*
X8679155Y3042895D01*
X8729955Y3068295D01*
X8704555Y3017495D01*
X8729955Y2966695D01*
X8679155Y2992095D01*
X8628355Y2966695D01*
X3568675Y1630655D02*
X3517875Y1732255D01*
X3619475D01*
X3568675Y1630655D01*
X3190215Y2553004D02*
X3139415Y2654604D01*
X3241015D01*
X3190215Y2553004D01*
X5524475Y1943075D02*
X5473675Y2044675D01*
X5575275D01*
X5524475Y1943075D01*
Y1748109D02*
X5473675Y1849709D01*
X5575275D01*
X5524475Y1748109D01*
X2029575Y2304575D02*
Y2279175D01*
X2080375D01*
Y2304575D01*
X2105775D01*
Y2355375D01*
X2080375D01*
Y2380775D01*
X2029575D01*
Y2355375D01*
X2004175D01*
Y2304575D01*
X2029575D01*
Y1669575D02*
Y1644175D01*
X2080375D01*
Y1669575D01*
X2105775D01*
Y1720375D01*
X2080375D01*
Y1745775D01*
X2029575D01*
Y1720375D01*
X2004175D01*
Y1669575D01*
X2029575D01*
X1509255Y1543252D02*
X1534655D01*
X1560055Y1568652D01*
X1585455Y1543252D01*
X1610855D01*
Y1568652D01*
X1585455Y1594052D01*
X1610855Y1619452D01*
Y1644852D01*
X1585455D01*
X1560055Y1619452D01*
X1534655Y1644852D01*
X1509255D01*
Y1619452D01*
X1534655Y1594052D01*
X1509255Y1568652D01*
Y1543252D01*
Y2223252D02*
X1534655D01*
X1560055Y2248652D01*
X1585455Y2223252D01*
X1610855D01*
Y2248652D01*
X1585455Y2274052D01*
X1610855Y2299452D01*
Y2324852D01*
X1585455D01*
X1560055Y2299452D01*
X1534655Y2324852D01*
X1509255D01*
Y2299452D01*
X1534655Y2274052D01*
X1509255Y2248652D01*
Y2223252D01*
X1144255Y2018252D02*
X1169655D01*
X1195055Y2043652D01*
X1220455Y2018252D01*
X1245855D01*
Y2043652D01*
X1220455Y2069052D01*
X1245855Y2094452D01*
Y2119852D01*
X1220455D01*
X1195055Y2094452D01*
X1169655Y2119852D01*
X1144255D01*
Y2094452D01*
X1169655Y2069052D01*
X1144255Y2043652D01*
Y2018252D01*
Y1748252D02*
X1169655D01*
X1195055Y1773652D01*
X1220455Y1748252D01*
X1245855D01*
Y1773652D01*
X1220455Y1799052D01*
X1245855Y1824452D01*
Y1849852D01*
X1220455D01*
X1195055Y1824452D01*
X1169655Y1849852D01*
X1144255D01*
Y1824452D01*
X1169655Y1799052D01*
X1144255Y1773652D01*
Y1748252D01*
X5110935Y1513354D02*
X5136335Y1538754D01*
X5161735D01*
X5136335Y1564154D01*
X5161735Y1589554D01*
X5136335D01*
X5110935Y1614954D01*
X5085535Y1589554D01*
X5060135D01*
X5085535Y1564154D01*
X5060135Y1538754D01*
X5085535D01*
X5110935Y1513354D01*
X5000935D02*
X5026335Y1538754D01*
X5051735D01*
X5026335Y1564154D01*
X5051735Y1589554D01*
X5026335D01*
X5000935Y1614954D01*
X4975535Y1589554D01*
X4950135D01*
X4975535Y1564154D01*
X4950135Y1538754D01*
X4975535D01*
X5000935Y1513354D01*
X4890935D02*
X4916335Y1538754D01*
X4941735D01*
X4916335Y1564154D01*
X4941735Y1589554D01*
X4916335D01*
X4890935Y1614954D01*
X4865535Y1589554D01*
X4840135D01*
X4865535Y1564154D01*
X4840135Y1538754D01*
X4865535D01*
X4890935Y1513354D01*
X5110935Y1623354D02*
X5136335Y1648754D01*
X5161735D01*
X5136335Y1674154D01*
X5161735Y1699554D01*
X5136335D01*
X5110935Y1724954D01*
X5085535Y1699554D01*
X5060135D01*
X5085535Y1674154D01*
X5060135Y1648754D01*
X5085535D01*
X5110935Y1623354D01*
X5000935D02*
X5026335Y1648754D01*
X5051735D01*
X5026335Y1674154D01*
X5051735Y1699554D01*
X5026335D01*
X5000935Y1724954D01*
X4975535Y1699554D01*
X4950135D01*
X4975535Y1674154D01*
X4950135Y1648754D01*
X4975535D01*
X5000935Y1623354D01*
X4890935D02*
X4916335Y1648754D01*
X4941735D01*
X4916335Y1674154D01*
X4941735Y1699554D01*
X4916335D01*
X4890935Y1724954D01*
X4865535Y1699554D01*
X4840135D01*
X4865535Y1674154D01*
X4840135Y1648754D01*
X4865535D01*
X4890935Y1623354D01*
X5110935Y1733354D02*
X5136335Y1758754D01*
X5161735D01*
X5136335Y1784154D01*
X5161735Y1809554D01*
X5136335D01*
X5110935Y1834954D01*
X5085535Y1809554D01*
X5060135D01*
X5085535Y1784154D01*
X5060135Y1758754D01*
X5085535D01*
X5110935Y1733354D01*
X5000935D02*
X5026335Y1758754D01*
X5051735D01*
X5026335Y1784154D01*
X5051735Y1809554D01*
X5026335D01*
X5000935Y1834954D01*
X4975535Y1809554D01*
X4950135D01*
X4975535Y1784154D01*
X4950135Y1758754D01*
X4975535D01*
X5000935Y1733354D01*
X4890935D02*
X4916335Y1758754D01*
X4941735D01*
X4916335Y1784154D01*
X4941735Y1809554D01*
X4916335D01*
X4890935Y1834954D01*
X4865535Y1809554D01*
X4840135D01*
X4865535Y1784154D01*
X4840135Y1758754D01*
X4865535D01*
X4890935Y1733354D01*
X12137475Y1396675D02*
X12162875Y1422075D01*
X12188275D01*
X12162875Y1447475D01*
X12188275Y1472875D01*
X12162875D01*
X12137475Y1498275D01*
X12112075Y1472875D01*
X12086675D01*
X12112075Y1447475D01*
X12086675Y1422075D01*
X12112075D01*
X12137475Y1396675D01*
X4463954Y2673410D02*
X4489354Y2698810D01*
X4514754D01*
X4489354Y2724210D01*
X4514754Y2749610D01*
X4489354D01*
X4463954Y2775010D01*
X4438554Y2749610D01*
X4413154D01*
X4438554Y2724210D01*
X4413154Y2698810D01*
X4438554D01*
X4463954Y2673410D01*
X4788955Y2675310D02*
X4814355Y2700710D01*
X4839755D01*
X4814355Y2726110D01*
X4839755Y2751510D01*
X4814355D01*
X4788955Y2776910D01*
X4763555Y2751510D01*
X4738155D01*
X4763555Y2726110D01*
X4738155Y2700710D01*
X4763555D01*
X4788955Y2675310D01*
X5295318Y2248278D02*
X5320718Y2273678D01*
X5346118D01*
X5320718Y2299078D01*
X5346118Y2324478D01*
X5320718D01*
X5295318Y2349878D01*
X5269918Y2324478D01*
X5244518D01*
X5269918Y2299078D01*
X5244518Y2273678D01*
X5269918D01*
X5295318Y2248278D01*
X4917115Y1978954D02*
X4942515Y2004354D01*
X4967915D01*
X4942515Y2029754D01*
X4967915Y2055154D01*
X4942515D01*
X4917115Y2080554D01*
X4891715Y2055154D01*
X4866315D01*
X4891715Y2029754D01*
X4866315Y2004354D01*
X4891715D01*
X4917115Y1978954D01*
X4790115Y2084732D02*
X4815515Y2110132D01*
X4840915D01*
X4815515Y2135532D01*
X4840915Y2160932D01*
X4815515D01*
X4790115Y2186332D01*
X4764715Y2160932D01*
X4739315D01*
X4764715Y2135532D01*
X4739315Y2110132D01*
X4764715D01*
X4790115Y2084732D01*
X4853954Y2085310D02*
X4879354Y2110710D01*
X4904754D01*
X4879354Y2136110D01*
X4904754Y2161510D01*
X4879354D01*
X4853954Y2186910D01*
X4828554Y2161510D01*
X4803154D01*
X4828554Y2136110D01*
X4803154Y2110710D01*
X4828554D01*
X4853954Y2085310D01*
X5050935Y1938314D02*
X5076335Y1963714D01*
X5101735D01*
X5076335Y1989114D01*
X5101735Y2014514D01*
X5076335D01*
X5050935Y2039914D01*
X5025535Y2014514D01*
X5000135D01*
X5025535Y1989114D01*
X5000135Y1963714D01*
X5025535D01*
X5050935Y1938314D01*
X5000935Y1863354D02*
X5026335Y1888754D01*
X5051735D01*
X5026335Y1914154D01*
X5051735Y1939554D01*
X5026335D01*
X5000935Y1964954D01*
X4975535Y1939554D01*
X4950135D01*
X4975535Y1914154D01*
X4950135Y1888754D01*
X4975535D01*
X5000935Y1863354D01*
X4632359Y1824214D02*
X4657759Y1849614D01*
X4683159D01*
X4657759Y1875014D01*
X4683159Y1900414D01*
X4657759D01*
X4632359Y1925814D01*
X4606959Y1900414D01*
X4581559D01*
X4606959Y1875014D01*
X4581559Y1849614D01*
X4606959D01*
X4632359Y1824214D01*
X10779975Y1296675D02*
X10805375Y1322075D01*
X10830775D01*
X10805375Y1347475D01*
X10830775Y1372875D01*
X10805375D01*
X10779975Y1398275D01*
X10754575Y1372875D01*
X10729175D01*
X10754575Y1347475D01*
X10729175Y1322075D01*
X10754575D01*
X10779975Y1296675D01*
X12984975Y1417995D02*
X13010374Y1443395D01*
X13035774D01*
X13010374Y1468795D01*
X13035774Y1494195D01*
X13010374D01*
X12984975Y1519595D01*
X12959573Y1494195D01*
X12934174D01*
X12959573Y1468795D01*
X12934174Y1443395D01*
X12959573D01*
X12984975Y1417995D01*
X10778584Y1176675D02*
X10803984Y1202075D01*
X10829384D01*
X10803984Y1227475D01*
X10829384Y1252875D01*
X10803984D01*
X10778584Y1278275D01*
X10753184Y1252875D01*
X10727784D01*
X10753184Y1227475D01*
X10727784Y1202075D01*
X10753184D01*
X10778584Y1176675D01*
X11539975Y1186979D02*
X11565375Y1212379D01*
X11590775D01*
X11565375Y1237779D01*
X11590775Y1263179D01*
X11565375D01*
X11539975Y1288579D01*
X11514575Y1263179D01*
X11489175D01*
X11514575Y1237779D01*
X11489175Y1212379D01*
X11514575D01*
X11539975Y1186979D01*
X8171675Y2302475D02*
X8222475Y2353275D01*
X8273275Y2302475D01*
X8222475Y2251675D01*
X8171675Y2302475D01*
X10609555Y2849855D02*
X10660355Y2900655D01*
X10711155Y2849855D01*
X10660355Y2799055D01*
X10609555Y2849855D01*
X10612095Y2970789D02*
X10662895Y3021589D01*
X10713695Y2970789D01*
X10662895Y2919989D01*
X10612095Y2970789D01*
X10654175Y2658975D02*
X10704975Y2709775D01*
X10755775Y2658975D01*
X10704975Y2608175D01*
X10654175Y2658975D01*
X13627075Y1881495D02*
X13677875Y1932295D01*
X13728674Y1881495D01*
X13677875Y1830695D01*
X13627075Y1881495D01*
Y1941495D02*
X13677875Y1992295D01*
X13728674Y1941495D01*
X13677875Y1890695D01*
X13627075Y1941495D01*
X13562074D02*
X13612874Y1992295D01*
X13663673Y1941495D01*
X13612874Y1890695D01*
X13562074Y1941495D01*
Y1881495D02*
X13612874Y1932295D01*
X13663673Y1881495D01*
X13612874Y1830695D01*
X13562074Y1881495D01*
X13957275D02*
X14008075Y1932295D01*
X14058875Y1881495D01*
X14008075Y1830695D01*
X13957275Y1881495D01*
Y1941495D02*
X14008075Y1992295D01*
X14058875Y1941495D01*
X14008075Y1890695D01*
X13957275Y1941495D01*
X13892274D02*
X13943074Y1992295D01*
X13993874Y1941495D01*
X13943074Y1890695D01*
X13892274Y1941495D01*
Y1881495D02*
X13943074Y1932295D01*
X13993874Y1881495D01*
X13943074Y1830695D01*
X13892274Y1881495D01*
X13116534Y1227475D02*
X13167336Y1278275D01*
X13218135Y1227475D01*
X13167336Y1176675D01*
X13116534Y1227475D01*
X13176534D02*
X13227335Y1278275D01*
X13278134Y1227475D01*
X13227335Y1176675D01*
X13176534Y1227475D01*
Y1162474D02*
X13227335Y1213274D01*
X13278134Y1162474D01*
X13227335Y1111674D01*
X13176534Y1162474D01*
X13236534D02*
X13287334Y1213274D01*
X13338133Y1162474D01*
X13287334Y1111674D01*
X13236534Y1162474D01*
X13116534D02*
X13167336Y1213274D01*
X13218135Y1162474D01*
X13167336Y1111674D01*
X13116534Y1162474D01*
X11614355Y2717434D02*
X11665155Y2768234D01*
X11715955Y2717434D01*
X11665155Y2666634D01*
X11614355Y2717434D01*
Y2597434D02*
X11665155Y2648234D01*
X11715955Y2597434D01*
X11665155Y2546634D01*
X11614355Y2597434D01*
Y2537435D02*
X11665155Y2588235D01*
X11715955Y2537435D01*
X11665155Y2486635D01*
X11614355Y2537435D01*
Y2657434D02*
X11665155Y2708234D01*
X11715955Y2657434D01*
X11665155Y2606634D01*
X11614355Y2657434D01*
X11549355D02*
X11600155Y2708234D01*
X11650955Y2657434D01*
X11600155Y2606634D01*
X11549355Y2657434D01*
Y2597434D02*
X11600155Y2648234D01*
X11650955Y2597434D01*
X11600155Y2546634D01*
X11549355Y2597434D01*
Y2717434D02*
X11600155Y2768234D01*
X11650955Y2717434D01*
X11600155Y2666634D01*
X11549355Y2717434D01*
Y2537435D02*
X11600155Y2588235D01*
X11650955Y2537435D01*
X11600155Y2486635D01*
X11549355Y2537435D01*
X12626315Y2717434D02*
X12677115Y2768234D01*
X12727915Y2717434D01*
X12677115Y2666634D01*
X12626315Y2717434D01*
Y2597434D02*
X12677115Y2648234D01*
X12727915Y2597434D01*
X12677115Y2546634D01*
X12626315Y2597434D01*
Y2537435D02*
X12677115Y2588235D01*
X12727915Y2537435D01*
X12677115Y2486635D01*
X12626315Y2537435D01*
Y2657434D02*
X12677115Y2708234D01*
X12727915Y2657434D01*
X12677115Y2606634D01*
X12626315Y2657434D01*
X12561314D02*
X12612114Y2708234D01*
X12662914Y2657434D01*
X12612114Y2606634D01*
X12561314Y2657434D01*
Y2597434D02*
X12612114Y2648234D01*
X12662914Y2597434D01*
X12612114Y2546634D01*
X12561314Y2597434D01*
Y2717434D02*
X12612114Y2768234D01*
X12662914Y2717434D01*
X12612114Y2666634D01*
X12561314Y2717434D01*
Y2537435D02*
X12612114Y2588235D01*
X12662914Y2537435D01*
X12612114Y2486635D01*
X12561314Y2537435D01*
X4544359Y1500513D02*
X4569759Y1525913D01*
X4595159D01*
X4569759Y1551313D01*
X4595159Y1576713D01*
X4569759D01*
X4544359Y1602113D01*
X4518959Y1576713D01*
X4493559D01*
X4518959Y1551313D01*
X4493559Y1525913D01*
X4518959D01*
X4544359Y1500513D01*
X4767755Y1290701D02*
X4793155Y1316101D01*
X4818555D01*
X4793155Y1341501D01*
X4818555Y1366901D01*
X4793155D01*
X4767755Y1392301D01*
X4742355Y1366901D01*
X4716955D01*
X4742355Y1341501D01*
X4716955Y1316101D01*
X4742355D01*
X4767755Y1290701D01*
X10654175Y2912975D02*
X10704975Y2963775D01*
X10755775Y2912975D01*
X10704975Y2862175D01*
X10654175Y2912975D01*
Y2785975D02*
X10704975Y2836775D01*
X10755775Y2785975D01*
X10704975Y2735175D01*
X10654175Y2785975D01*
X11001175Y2342575D02*
X11051975Y2393375D01*
X11102775Y2342575D01*
X11051975Y2291775D01*
X11001175Y2342575D01*
X11191675Y2369975D02*
X11242475Y2420775D01*
X11293275Y2369975D01*
X11242475Y2319175D01*
X11191675Y2369975D01*
X11001175Y2400293D02*
X11051975Y2451093D01*
X11102775Y2400293D01*
X11051975Y2349493D01*
X11001175Y2400293D01*
X10937675Y2369975D02*
X10988475Y2420775D01*
X11039275Y2369975D01*
X10988475Y2319175D01*
X10937675Y2369975D01*
X11064675D02*
X11115475Y2420775D01*
X11166275Y2369975D01*
X11115475Y2319175D01*
X11064675Y2369975D01*
X13044135Y2414975D02*
X13094936Y2465775D01*
X13145735Y2414975D01*
X13094936Y2364175D01*
X13044135Y2414975D01*
X13042876Y2342575D02*
X13093675Y2393375D01*
X13144475Y2342575D01*
X13093675Y2291775D01*
X13042876Y2342575D01*
X13169176Y2414975D02*
X13219975Y2465775D01*
X13270775Y2414975D01*
X13219975Y2364175D01*
X13169176Y2414975D01*
Y2342575D02*
X13219975Y2393375D01*
X13270775Y2342575D01*
X13219975Y2291775D01*
X13169176Y2342575D01*
X13296635Y2416698D02*
X13347435Y2467498D01*
X13398235Y2416698D01*
X13347435Y2365898D01*
X13296635Y2416698D01*
Y2342575D02*
X13347435Y2393375D01*
X13398235Y2342575D01*
X13347435Y2291775D01*
X13296635Y2342575D01*
X13481676Y2849974D02*
X13532475Y2900774D01*
X13583275Y2849974D01*
X13532475Y2799174D01*
X13481676Y2849974D01*
X13554095Y2847475D02*
X13604895Y2898275D01*
X13655695Y2847475D01*
X13604895Y2796675D01*
X13554095Y2847475D01*
X13481676Y2722475D02*
X13532475Y2773275D01*
X13583275Y2722475D01*
X13532475Y2671675D01*
X13481676Y2722475D01*
X13554095D02*
X13604895Y2773275D01*
X13655695Y2722475D01*
X13604895Y2671675D01*
X13554095Y2722475D01*
X13481676Y2472275D02*
X13532475Y2523075D01*
X13583275Y2472275D01*
X13532475Y2421475D01*
X13481676Y2472275D01*
Y2594974D02*
X13532475Y2645774D01*
X13583275Y2594974D01*
X13532475Y2544174D01*
X13481676Y2594974D01*
X13554095Y2472275D02*
X13604895Y2523075D01*
X13655695Y2472275D01*
X13604895Y2421475D01*
X13554095Y2472275D01*
Y2594974D02*
X13604895Y2645774D01*
X13655695Y2594974D01*
X13604895Y2544174D01*
X13554095Y2594974D01*
X7399755Y1736999D02*
X7425155Y1762399D01*
X7450555D01*
X7425155Y1787799D01*
X7450555Y1813199D01*
X7425155D01*
X7399755Y1838599D01*
X7374355Y1813199D01*
X7348955D01*
X7374355Y1787799D01*
X7348955Y1762399D01*
X7374355D01*
X7399755Y1736999D01*
X8072795Y1518235D02*
X8098195Y1543635D01*
X8123595D01*
X8098195Y1569035D01*
X8123595Y1594435D01*
X8098195D01*
X8072795Y1619835D01*
X8047395Y1594435D01*
X8021995D01*
X8047395Y1569035D01*
X8021995Y1543635D01*
X8047395D01*
X8072795Y1518235D01*
X7857475Y1759175D02*
X7882875Y1784575D01*
X7908275D01*
X7882875Y1809975D01*
X7908275Y1835375D01*
X7882875D01*
X7857475Y1860775D01*
X7832075Y1835375D01*
X7806675D01*
X7832075Y1809975D01*
X7806675Y1784575D01*
X7832075D01*
X7857475Y1759175D01*
X2247175Y1322975D02*
X2272575Y1348375D01*
X2297975D01*
X2272575Y1373775D01*
X2297975Y1399175D01*
X2272575D01*
X2247175Y1424575D01*
X2221775Y1399175D01*
X2196375D01*
X2221775Y1373775D01*
X2196375Y1348375D01*
X2221775D01*
X2247175Y1322975D01*
X4530196Y1823867D02*
X4555596Y1849267D01*
X4580996D01*
X4555596Y1874667D01*
X4580996Y1900067D01*
X4555596D01*
X4530196Y1925467D01*
X4504796Y1900067D01*
X4479396D01*
X4504796Y1874667D01*
X4479396Y1849267D01*
X4504796D01*
X4530196Y1823867D01*
X2687474Y2209499D02*
X2712874Y2234899D01*
X2738274D01*
X2712874Y2260299D01*
X2738274Y2285699D01*
X2712874D01*
X2687474Y2311099D01*
X2662074Y2285699D01*
X2636674D01*
X2662074Y2260299D01*
X2636674Y2234899D01*
X2662074D01*
X2687474Y2209499D01*
Y2261285D02*
X2712874Y2286685D01*
X2738274D01*
X2712874Y2312085D01*
X2738274Y2337485D01*
X2712874D01*
X2687474Y2362885D01*
X2662074Y2337485D01*
X2636674D01*
X2662074Y2312085D01*
X2636674Y2286685D01*
X2662074D01*
X2687474Y2261285D01*
Y2313070D02*
X2712874Y2338470D01*
X2738274D01*
X2712874Y2363870D01*
X2738274Y2389270D01*
X2712874D01*
X2687474Y2414670D01*
X2662074Y2389270D01*
X2636674D01*
X2662074Y2363870D01*
X2636674Y2338470D01*
X2662074D01*
X2687474Y2313070D01*
Y2364856D02*
X2712874Y2390256D01*
X2738274D01*
X2712874Y2415656D01*
X2738274Y2441056D01*
X2712874D01*
X2687474Y2466456D01*
X2662074Y2441056D01*
X2636674D01*
X2662074Y2415656D01*
X2636674Y2390256D01*
X2662074D01*
X2687474Y2364856D01*
Y2468427D02*
X2712874Y2493827D01*
X2738274D01*
X2712874Y2519227D01*
X2738274Y2544627D01*
X2712874D01*
X2687474Y2570027D01*
X2662074Y2544627D01*
X2636674D01*
X2662074Y2519227D01*
X2636674Y2493827D01*
X2662074D01*
X2687474Y2468427D01*
Y2520212D02*
X2712874Y2545612D01*
X2738274D01*
X2712874Y2571012D01*
X2738274Y2596412D01*
X2712874D01*
X2687474Y2621812D01*
X2662074Y2596412D01*
X2636674D01*
X2662074Y2571012D01*
X2636674Y2545612D01*
X2662074D01*
X2687474Y2520212D01*
X2268935Y1770355D02*
Y1871955D01*
X2370535D01*
Y1770355D01*
X2268935D01*
X2289255Y1790675D02*
Y1851635D01*
X2350215D01*
Y1790675D01*
X2289255D01*
X2745715Y2519888D02*
X2771115Y2545288D01*
X2796515D01*
X2771115Y2570688D01*
X2796515Y2596088D01*
X2771115D01*
X2745715Y2621488D01*
X2720315Y2596088D01*
X2694915D01*
X2720315Y2570688D01*
X2694915Y2545288D01*
X2720315D01*
X2745715Y2519888D01*
Y2364531D02*
X2771115Y2389931D01*
X2796515D01*
X2771115Y2415331D01*
X2796515Y2440731D01*
X2771115D01*
X2745715Y2466131D01*
X2720315Y2440731D01*
X2694915D01*
X2720315Y2415331D01*
X2694915Y2389931D01*
X2720315D01*
X2745715Y2364531D01*
Y2312746D02*
X2771115Y2338146D01*
X2796515D01*
X2771115Y2363546D01*
X2796515Y2388946D01*
X2771115D01*
X2745715Y2414346D01*
X2720315Y2388946D01*
X2694915D01*
X2720315Y2363546D01*
X2694915Y2338146D01*
X2720315D01*
X2745715Y2312746D01*
Y2260960D02*
X2771115Y2286360D01*
X2796515D01*
X2771115Y2311760D01*
X2796515Y2337160D01*
X2771115D01*
X2745715Y2362560D01*
X2720315Y2337160D01*
X2694915D01*
X2720315Y2311760D01*
X2694915Y2286360D01*
X2720315D01*
X2745715Y2260960D01*
Y2209175D02*
X2771115Y2234575D01*
X2796515D01*
X2771115Y2259975D01*
X2796515Y2285375D01*
X2771115D01*
X2745715Y2310775D01*
X2720315Y2285375D01*
X2694915D01*
X2720315Y2259975D01*
X2694915Y2234575D01*
X2720315D01*
X2745715Y2209175D01*
X2885235Y2208850D02*
X2910635Y2234250D01*
X2936035D01*
X2910635Y2259650D01*
X2936035Y2285050D01*
X2910635D01*
X2885235Y2310450D01*
X2859835Y2285050D01*
X2834435D01*
X2859835Y2259650D01*
X2834435Y2234250D01*
X2859835D01*
X2885235Y2208850D01*
Y2260636D02*
X2910635Y2286036D01*
X2936035D01*
X2910635Y2311436D01*
X2936035Y2336836D01*
X2910635D01*
X2885235Y2362236D01*
X2859835Y2336836D01*
X2834435D01*
X2859835Y2311436D01*
X2834435Y2286036D01*
X2859835D01*
X2885235Y2260636D01*
Y2312421D02*
X2910635Y2337821D01*
X2936035D01*
X2910635Y2363221D01*
X2936035Y2388621D01*
X2910635D01*
X2885235Y2414021D01*
X2859835Y2388621D01*
X2834435D01*
X2859835Y2363221D01*
X2834435Y2337821D01*
X2859835D01*
X2885235Y2312421D01*
Y2364207D02*
X2910635Y2389607D01*
X2936035D01*
X2910635Y2415007D01*
X2936035Y2440407D01*
X2910635D01*
X2885235Y2465807D01*
X2859835Y2440407D01*
X2834435D01*
X2859835Y2415007D01*
X2834435Y2389607D01*
X2859835D01*
X2885235Y2364207D01*
X2826995Y2468102D02*
X2852395Y2493502D01*
X2877795D01*
X2852395Y2518902D01*
X2877795Y2544302D01*
X2852395D01*
X2826995Y2569702D01*
X2801595Y2544302D01*
X2776195D01*
X2801595Y2518902D01*
X2776195Y2493502D01*
X2801595D01*
X2826995Y2468102D01*
Y2364531D02*
X2852395Y2389931D01*
X2877795D01*
X2852395Y2415331D01*
X2877795Y2440731D01*
X2852395D01*
X2826995Y2466131D01*
X2801595Y2440731D01*
X2776195D01*
X2801595Y2415331D01*
X2776195Y2389931D01*
X2801595D01*
X2826995Y2364531D01*
Y2312746D02*
X2852395Y2338146D01*
X2877795D01*
X2852395Y2363546D01*
X2877795Y2388946D01*
X2852395D01*
X2826995Y2414346D01*
X2801595Y2388946D01*
X2776195D01*
X2801595Y2363546D01*
X2776195Y2338146D01*
X2801595D01*
X2826995Y2312746D01*
Y2260960D02*
X2852395Y2286360D01*
X2877795D01*
X2852395Y2311760D01*
X2877795Y2337160D01*
X2852395D01*
X2826995Y2362560D01*
X2801595Y2337160D01*
X2776195D01*
X2801595Y2311760D01*
X2776195Y2286360D01*
X2801595D01*
X2826995Y2260960D01*
Y2209175D02*
X2852395Y2234575D01*
X2877795D01*
X2852395Y2259975D01*
X2877795Y2285375D01*
X2852395D01*
X2826995Y2310775D01*
X2801595Y2285375D01*
X2776195D01*
X2801595Y2259975D01*
X2776195Y2234575D01*
X2801595D01*
X2826995Y2209175D01*
X4983954Y2675310D02*
X5009354Y2700710D01*
X5034754D01*
X5009354Y2726110D01*
X5034754Y2751510D01*
X5009354D01*
X4983954Y2776910D01*
X4958554Y2751510D01*
X4933154D01*
X4958554Y2726110D01*
X4933154Y2700710D01*
X4958554D01*
X4983954Y2675310D01*
X2745715Y2571673D02*
X2771115Y2597073D01*
X2796515D01*
X2771115Y2622473D01*
X2796515Y2647873D01*
X2771115D01*
X2745715Y2673273D01*
X2720315Y2647873D01*
X2694915D01*
X2720315Y2622473D01*
X2694915Y2597073D01*
X2720315D01*
X2745715Y2571673D01*
X2687474Y2571998D02*
X2712874Y2597398D01*
X2738274D01*
X2712874Y2622798D01*
X2738274Y2648198D01*
X2712874D01*
X2687474Y2673598D01*
X2662074Y2648198D01*
X2636674D01*
X2662074Y2622798D01*
X2636674Y2597398D01*
X2662074D01*
X2687474Y2571998D01*
X2826995Y2519888D02*
X2852395Y2545288D01*
X2877795D01*
X2852395Y2570688D01*
X2877795Y2596088D01*
X2852395D01*
X2826995Y2621488D01*
X2801595Y2596088D01*
X2776195D01*
X2801595Y2570688D01*
X2776195Y2545288D01*
X2801595D01*
X2826995Y2519888D01*
X2885235Y2519563D02*
X2910635Y2544963D01*
X2936035D01*
X2910635Y2570363D01*
X2936035Y2595763D01*
X2910635D01*
X2885235Y2621163D01*
X2859835Y2595763D01*
X2834435D01*
X2859835Y2570363D01*
X2834435Y2544963D01*
X2859835D01*
X2885235Y2519563D01*
Y2571349D02*
X2910635Y2596749D01*
X2936035D01*
X2910635Y2622149D01*
X2936035Y2647549D01*
X2910635D01*
X2885235Y2672949D01*
X2859835Y2647549D01*
X2834435D01*
X2859835Y2622149D01*
X2834435Y2596749D01*
X2859835D01*
X2885235Y2571349D01*
X2826995Y2571673D02*
X2852395Y2597073D01*
X2877795D01*
X2852395Y2622473D01*
X2877795Y2647873D01*
X2852395D01*
X2826995Y2673273D01*
X2801595Y2647873D01*
X2776195D01*
X2801595Y2622473D01*
X2776195Y2597073D01*
X2801595D01*
X2826995Y2571673D01*
X2687474Y2416641D02*
X2712874Y2442041D01*
X2738274D01*
X2712874Y2467441D01*
X2738274Y2492841D01*
X2712874D01*
X2687474Y2518241D01*
X2662074Y2492841D01*
X2636674D01*
X2662074Y2467441D01*
X2636674Y2442041D01*
X2662074D01*
X2687474Y2416641D01*
X2745715Y2468102D02*
X2771115Y2493502D01*
X2796515D01*
X2771115Y2518902D01*
X2796515Y2544302D01*
X2771115D01*
X2745715Y2569702D01*
X2720315Y2544302D01*
X2694915D01*
X2720315Y2518902D01*
X2694915Y2493502D01*
X2720315D01*
X2745715Y2468102D01*
Y2416317D02*
X2771115Y2441717D01*
X2796515D01*
X2771115Y2467117D01*
X2796515Y2492517D01*
X2771115D01*
X2745715Y2517917D01*
X2720315Y2492517D01*
X2694915D01*
X2720315Y2467117D01*
X2694915Y2441717D01*
X2720315D01*
X2745715Y2416317D01*
X2826995D02*
X2852395Y2441717D01*
X2877795D01*
X2852395Y2467117D01*
X2877795Y2492517D01*
X2852395D01*
X2826995Y2517917D01*
X2801595Y2492517D01*
X2776195D01*
X2801595Y2467117D01*
X2776195Y2441717D01*
X2801595D01*
X2826995Y2416317D01*
X2885235Y2467778D02*
X2910635Y2493178D01*
X2936035D01*
X2910635Y2518578D01*
X2936035Y2543978D01*
X2910635D01*
X2885235Y2569378D01*
X2859835Y2543978D01*
X2834435D01*
X2859835Y2518578D01*
X2834435Y2493178D01*
X2859835D01*
X2885235Y2467778D01*
Y2415992D02*
X2910635Y2441392D01*
X2936035D01*
X2910635Y2466792D01*
X2936035Y2492192D01*
X2910635D01*
X2885235Y2517592D01*
X2859835Y2492192D01*
X2834435D01*
X2859835Y2466792D01*
X2834435Y2441392D01*
X2859835D01*
X2885235Y2415992D01*
X4541495Y2532860D02*
X4566895Y2558260D01*
X4592295D01*
X4566895Y2583660D01*
X4592295Y2609060D01*
X4566895D01*
X4541495Y2634460D01*
X4516095Y2609060D01*
X4490695D01*
X4516095Y2583660D01*
X4490695Y2558260D01*
X4516095D01*
X4541495Y2532860D01*
X13957275Y1821495D02*
X14008075Y1872295D01*
X14058875Y1821495D01*
X14008075Y1770695D01*
X13957275Y1821495D01*
X13892274D02*
X13943074Y1872295D01*
X13993874Y1821495D01*
X13943074Y1770695D01*
X13892274Y1821495D01*
X13627075D02*
X13677875Y1872295D01*
X13728674Y1821495D01*
X13677875Y1770695D01*
X13627075Y1821495D01*
X13562074D02*
X13612874Y1872295D01*
X13663673Y1821495D01*
X13612874Y1770695D01*
X13562074Y1821495D01*
Y2001495D02*
X13612874Y2052295D01*
X13663673Y2001495D01*
X13612874Y1950695D01*
X13562074Y2001495D01*
X13627075D02*
X13677875Y2052295D01*
X13728674Y2001495D01*
X13677875Y1950695D01*
X13627075Y2001495D01*
X13892274D02*
X13943074Y2052295D01*
X13993874Y2001495D01*
X13943074Y1950695D01*
X13892274Y2001495D01*
X13957275D02*
X14008075Y2052295D01*
X14058875Y2001495D01*
X14008075Y1950695D01*
X13957275Y2001495D01*
X1581826Y2107195D02*
X1632626Y2157995D01*
X1683426Y2107195D01*
X1632626Y2056395D01*
X1581826Y2107195D01*
X1463015Y2174215D02*
X1513815Y2225015D01*
X1564615Y2174215D01*
X1513815Y2123415D01*
X1463015Y2174215D01*
Y2107195D02*
X1513815Y2157995D01*
X1564615Y2107195D01*
X1513815Y2056395D01*
X1463015Y2107195D01*
X1522420D02*
X1573220Y2157995D01*
X1624020Y2107195D01*
X1573220Y2056395D01*
X1522420Y2107195D01*
Y2174215D02*
X1573220Y2225015D01*
X1624020Y2174215D01*
X1573220Y2123415D01*
X1522420Y2174215D01*
X1581826D02*
X1632626Y2225015D01*
X1683426Y2174215D01*
X1632626Y2123415D01*
X1581826Y2174215D01*
X2247175D02*
X2272575Y2199615D01*
X2297975D01*
X2272575Y2225015D01*
X2297975Y2250415D01*
X2272575D01*
X2247175Y2275815D01*
X2221775Y2250415D01*
X2196375D01*
X2221775Y2225015D01*
X2196375Y2199615D01*
X2221775D01*
X2247175Y2174215D01*
X2575535Y2390115D02*
X2600935Y2415515D01*
X2626335D01*
X2600935Y2440915D01*
X2626335Y2466315D01*
X2600935D01*
X2575535Y2491715D01*
X2550135Y2466315D01*
X2524735D01*
X2550135Y2440915D01*
X2524735Y2415515D01*
X2550135D01*
X2575535Y2390115D01*
Y2338329D02*
X2600935Y2363729D01*
X2626335D01*
X2600935Y2389129D01*
X2626335Y2414529D01*
X2600935D01*
X2575535Y2439929D01*
X2550135Y2414529D01*
X2524735D01*
X2550135Y2389129D01*
X2524735Y2363729D01*
X2550135D01*
X2575535Y2338329D01*
X2517294Y2338654D02*
X2542694Y2364054D01*
X2568094D01*
X2542694Y2389454D01*
X2568094Y2414854D01*
X2542694D01*
X2517294Y2440254D01*
X2491894Y2414854D01*
X2466494D01*
X2491894Y2389454D01*
X2466494Y2364054D01*
X2491894D01*
X2517294Y2338654D01*
Y2286868D02*
X2542694Y2312268D01*
X2568094D01*
X2542694Y2337668D01*
X2568094Y2363068D01*
X2542694D01*
X2517294Y2388468D01*
X2491894Y2363068D01*
X2466494D01*
X2491894Y2337668D01*
X2466494Y2312268D01*
X2491894D01*
X2517294Y2286868D01*
X2575535Y2286544D02*
X2600935Y2311944D01*
X2626335D01*
X2600935Y2337344D01*
X2626335Y2362744D01*
X2600935D01*
X2575535Y2388144D01*
X2550135Y2362744D01*
X2524735D01*
X2550135Y2337344D01*
X2524735Y2311944D01*
X2550135D01*
X2575535Y2286544D01*
X2517294Y2390439D02*
X2542694Y2415839D01*
X2568094D01*
X2542694Y2441239D01*
X2568094Y2466639D01*
X2542694D01*
X2517294Y2492039D01*
X2491894Y2466639D01*
X2466494D01*
X2491894Y2441239D01*
X2466494Y2415839D01*
X2491894D01*
X2517294Y2390439D01*
X6482055Y2193488D02*
X6507455Y2218888D01*
X6532855D01*
X6507455Y2244288D01*
X6532855Y2269688D01*
X6507455D01*
X6482055Y2295088D01*
X6456655Y2269688D01*
X6431255D01*
X6456655Y2244288D01*
X6431255Y2218888D01*
X6456655D01*
X6482055Y2193488D01*
Y2245273D02*
X6507455Y2270673D01*
X6532855D01*
X6507455Y2296073D01*
X6532855Y2321473D01*
X6507455D01*
X6482055Y2346873D01*
X6456655Y2321473D01*
X6431255D01*
X6456655Y2296073D01*
X6431255Y2270673D01*
X6456655D01*
X6482055Y2245273D01*
X6423814Y2193812D02*
X6449214Y2219212D01*
X6474614D01*
X6449214Y2244612D01*
X6474614Y2270012D01*
X6449214D01*
X6423814Y2295412D01*
X6398414Y2270012D01*
X6373014D01*
X6398414Y2244612D01*
X6373014Y2219212D01*
X6398414D01*
X6423814Y2193812D01*
Y2349169D02*
X6449214Y2374569D01*
X6474614D01*
X6449214Y2399969D01*
X6474614Y2425369D01*
X6449214D01*
X6423814Y2450769D01*
X6398414Y2425369D01*
X6373014D01*
X6398414Y2399969D01*
X6373014Y2374569D01*
X6398414D01*
X6423814Y2349169D01*
X6482055Y2348844D02*
X6507455Y2374244D01*
X6532855D01*
X6507455Y2399644D01*
X6532855Y2425044D01*
X6507455D01*
X6482055Y2450444D01*
X6456655Y2425044D01*
X6431255D01*
X6456655Y2399644D01*
X6431255Y2374244D01*
X6456655D01*
X6482055Y2348844D01*
Y2141702D02*
X6507455Y2167102D01*
X6532855D01*
X6507455Y2192502D01*
X6532855Y2217902D01*
X6507455D01*
X6482055Y2243302D01*
X6456655Y2217902D01*
X6431255D01*
X6456655Y2192502D01*
X6431255Y2167102D01*
X6456655D01*
X6482055Y2141702D01*
Y2297059D02*
X6507455Y2322459D01*
X6532855D01*
X6507455Y2347859D01*
X6532855Y2373259D01*
X6507455D01*
X6482055Y2398659D01*
X6456655Y2373259D01*
X6431255D01*
X6456655Y2347859D01*
X6431255Y2322459D01*
X6456655D01*
X6482055Y2297059D01*
X6423814Y2297383D02*
X6449214Y2322783D01*
X6474614D01*
X6449214Y2348183D01*
X6474614Y2373583D01*
X6449214D01*
X6423814Y2398983D01*
X6398414Y2373583D01*
X6373014D01*
X6398414Y2348183D01*
X6373014Y2322783D01*
X6398414D01*
X6423814Y2297383D01*
Y2245598D02*
X6449214Y2270998D01*
X6474614D01*
X6449214Y2296398D01*
X6474614Y2321798D01*
X6449214D01*
X6423814Y2347198D01*
X6398414Y2321798D01*
X6373014D01*
X6398414Y2296398D01*
X6373014Y2270998D01*
X6398414D01*
X6423814Y2245598D01*
Y2142027D02*
X6449214Y2167427D01*
X6474614D01*
X6449214Y2192827D01*
X6474614Y2218227D01*
X6449214D01*
X6423814Y2243627D01*
X6398414Y2218227D01*
X6373014D01*
X6398414Y2192827D01*
X6373014Y2167427D01*
X6398414D01*
X6423814Y2142027D01*
X6596355Y2193488D02*
X6621755Y2218888D01*
X6647155D01*
X6621755Y2244288D01*
X6647155Y2269688D01*
X6621755D01*
X6596355Y2295088D01*
X6570955Y2269688D01*
X6545555D01*
X6570955Y2244288D01*
X6545555Y2218888D01*
X6570955D01*
X6596355Y2193488D01*
X6538114Y2193812D02*
X6563514Y2219212D01*
X6588914D01*
X6563514Y2244612D01*
X6588914Y2270012D01*
X6563514D01*
X6538114Y2295412D01*
X6512714Y2270012D01*
X6487314D01*
X6512714Y2244612D01*
X6487314Y2219212D01*
X6512714D01*
X6538114Y2193812D01*
Y2349169D02*
X6563514Y2374569D01*
X6588914D01*
X6563514Y2399969D01*
X6588914Y2425369D01*
X6563514D01*
X6538114Y2450769D01*
X6512714Y2425369D01*
X6487314D01*
X6512714Y2399969D01*
X6487314Y2374569D01*
X6512714D01*
X6538114Y2349169D01*
X6596355Y2348844D02*
X6621755Y2374244D01*
X6647155D01*
X6621755Y2399644D01*
X6647155Y2425044D01*
X6621755D01*
X6596355Y2450444D01*
X6570955Y2425044D01*
X6545555D01*
X6570955Y2399644D01*
X6545555Y2374244D01*
X6570955D01*
X6596355Y2348844D01*
Y2141702D02*
X6621755Y2167102D01*
X6647155D01*
X6621755Y2192502D01*
X6647155Y2217902D01*
X6621755D01*
X6596355Y2243302D01*
X6570955Y2217902D01*
X6545555D01*
X6570955Y2192502D01*
X6545555Y2167102D01*
X6570955D01*
X6596355Y2141702D01*
Y2297059D02*
X6621755Y2322459D01*
X6647155D01*
X6621755Y2347859D01*
X6647155Y2373259D01*
X6621755D01*
X6596355Y2398659D01*
X6570955Y2373259D01*
X6545555D01*
X6570955Y2347859D01*
X6545555Y2322459D01*
X6570955D01*
X6596355Y2297059D01*
X6538114Y2297383D02*
X6563514Y2322783D01*
X6588914D01*
X6563514Y2348183D01*
X6588914Y2373583D01*
X6563514D01*
X6538114Y2398983D01*
X6512714Y2373583D01*
X6487314D01*
X6512714Y2348183D01*
X6487314Y2322783D01*
X6512714D01*
X6538114Y2297383D01*
Y2245598D02*
X6563514Y2270998D01*
X6588914D01*
X6563514Y2296398D01*
X6588914Y2321798D01*
X6563514D01*
X6538114Y2347198D01*
X6512714Y2321798D01*
X6487314D01*
X6512714Y2296398D01*
X6487314Y2270998D01*
X6512714D01*
X6538114Y2245598D01*
Y2142027D02*
X6563514Y2167427D01*
X6588914D01*
X6563514Y2192827D01*
X6588914Y2218227D01*
X6563514D01*
X6538114Y2243627D01*
X6512714Y2218227D01*
X6487314D01*
X6512714Y2192827D01*
X6487314Y2167427D01*
X6512714D01*
X6538114Y2142027D01*
X6710655Y2193812D02*
X6736055Y2219212D01*
X6761455D01*
X6736055Y2244612D01*
X6761455Y2270012D01*
X6736055D01*
X6710655Y2295412D01*
X6685255Y2270012D01*
X6659855D01*
X6685255Y2244612D01*
X6659855Y2219212D01*
X6685255D01*
X6710655Y2193812D01*
Y2245598D02*
X6736055Y2270998D01*
X6761455D01*
X6736055Y2296398D01*
X6761455Y2321798D01*
X6736055D01*
X6710655Y2347198D01*
X6685255Y2321798D01*
X6659855D01*
X6685255Y2296398D01*
X6659855Y2270998D01*
X6685255D01*
X6710655Y2245598D01*
X6652414Y2194137D02*
X6677814Y2219537D01*
X6703214D01*
X6677814Y2244937D01*
X6703214Y2270337D01*
X6677814D01*
X6652414Y2295737D01*
X6627014Y2270337D01*
X6601614D01*
X6627014Y2244937D01*
X6601614Y2219537D01*
X6627014D01*
X6652414Y2194137D01*
Y2349493D02*
X6677814Y2374893D01*
X6703214D01*
X6677814Y2400293D01*
X6703214Y2425693D01*
X6677814D01*
X6652414Y2451093D01*
X6627014Y2425693D01*
X6601614D01*
X6627014Y2400293D01*
X6601614Y2374893D01*
X6627014D01*
X6652414Y2349493D01*
X6710655Y2349169D02*
X6736055Y2374569D01*
X6761455D01*
X6736055Y2399969D01*
X6761455Y2425369D01*
X6736055D01*
X6710655Y2450769D01*
X6685255Y2425369D01*
X6659855D01*
X6685255Y2399969D01*
X6659855Y2374569D01*
X6685255D01*
X6710655Y2349169D01*
Y2142027D02*
X6736055Y2167427D01*
X6761455D01*
X6736055Y2192827D01*
X6761455Y2218227D01*
X6736055D01*
X6710655Y2243627D01*
X6685255Y2218227D01*
X6659855D01*
X6685255Y2192827D01*
X6659855Y2167427D01*
X6685255D01*
X6710655Y2142027D01*
Y2297383D02*
X6736055Y2322783D01*
X6761455D01*
X6736055Y2348183D01*
X6761455Y2373583D01*
X6736055D01*
X6710655Y2398983D01*
X6685255Y2373583D01*
X6659855D01*
X6685255Y2348183D01*
X6659855Y2322783D01*
X6685255D01*
X6710655Y2297383D01*
X6652414Y2297708D02*
X6677814Y2323108D01*
X6703214D01*
X6677814Y2348508D01*
X6703214Y2373908D01*
X6677814D01*
X6652414Y2399308D01*
X6627014Y2373908D01*
X6601614D01*
X6627014Y2348508D01*
X6601614Y2323108D01*
X6627014D01*
X6652414Y2297708D01*
Y2245922D02*
X6677814Y2271322D01*
X6703214D01*
X6677814Y2296722D01*
X6703214Y2322122D01*
X6677814D01*
X6652414Y2347522D01*
X6627014Y2322122D01*
X6601614D01*
X6627014Y2296722D01*
X6601614Y2271322D01*
X6627014D01*
X6652414Y2245922D01*
Y2142351D02*
X6677814Y2167751D01*
X6703214D01*
X6677814Y2193151D01*
X6703214Y2218551D01*
X6677814D01*
X6652414Y2243951D01*
X6627014Y2218551D01*
X6601614D01*
X6627014Y2193151D01*
X6601614Y2167751D01*
X6627014D01*
X6652414Y2142351D01*
X6596355Y2245273D02*
X6621755Y2270673D01*
X6647155D01*
X6621755Y2296073D01*
X6647155Y2321473D01*
X6621755D01*
X6596355Y2346873D01*
X6570955Y2321473D01*
X6545555D01*
X6570955Y2296073D01*
X6545555Y2270673D01*
X6570955D01*
X6596355Y2245273D01*
X2072615Y1318235D02*
X2098015Y1343635D01*
X2123415D01*
X2098015Y1369035D01*
X2123415Y1394435D01*
X2098015D01*
X2072615Y1419835D01*
X2047215Y1394435D01*
X2021815D01*
X2047215Y1369035D01*
X2021815Y1343635D01*
X2047215D01*
X2072615Y1318235D01*
X3047474Y3017175D02*
X3072874Y3042575D01*
X3098274D01*
X3072874Y3067975D01*
X3098274Y3093375D01*
X3072874D01*
X3047474Y3118775D01*
X3022074Y3093375D01*
X2996674D01*
X3022074Y3067975D01*
X2996674Y3042575D01*
X3022074D01*
X3047474Y3017175D01*
Y2889175D02*
X3072874Y2914575D01*
X3098274D01*
X3072874Y2939975D01*
X3098274Y2965375D01*
X3072874D01*
X3047474Y2990775D01*
X3022074Y2965375D01*
X2996674D01*
X3022074Y2939975D01*
X2996674Y2914575D01*
X3022074D01*
X3047474Y2889175D01*
Y2764175D02*
X3072874Y2789575D01*
X3098274D01*
X3072874Y2814975D01*
X3098274Y2840375D01*
X3072874D01*
X3047474Y2865775D01*
X3022074Y2840375D01*
X2996674D01*
X3022074Y2814975D01*
X2996674Y2789575D01*
X3022074D01*
X3047474Y2764175D01*
X3369975Y2636175D02*
X3395375Y2661575D01*
X3420775D01*
X3395375Y2686975D01*
X3420775Y2712375D01*
X3395375D01*
X3369975Y2737775D01*
X3344575Y2712375D01*
X3319175D01*
X3344575Y2686975D01*
X3319175Y2661575D01*
X3344575D01*
X3369975Y2636175D01*
X4153974Y3016675D02*
X4179374Y3042075D01*
X4204774D01*
X4179374Y3067475D01*
X4204774Y3092875D01*
X4179374D01*
X4153974Y3118275D01*
X4128574Y3092875D01*
X4103174D01*
X4128574Y3067475D01*
X4103174Y3042075D01*
X4128574D01*
X4153974Y3016675D01*
X4184975Y2889175D02*
X4210375Y2914575D01*
X4235775D01*
X4210375Y2939975D01*
X4235775Y2965375D01*
X4210375D01*
X4184975Y2990775D01*
X4159575Y2965375D01*
X4134175D01*
X4159575Y2939975D01*
X4134175Y2914575D01*
X4159575D01*
X4184975Y2889175D01*
X4725854Y2978906D02*
X4751254Y3004306D01*
X4776654D01*
X4751254Y3029706D01*
X4776654Y3055106D01*
X4751254D01*
X4725854Y3080506D01*
X4700454Y3055106D01*
X4675054D01*
X4700454Y3029706D01*
X4675054Y3004306D01*
X4700454D01*
X4725854Y2978906D01*
X4840154D02*
X4865554Y3004306D01*
X4890954D01*
X4865554Y3029706D01*
X4890954Y3055106D01*
X4865554D01*
X4840154Y3080506D01*
X4814754Y3055106D01*
X4789354D01*
X4814754Y3029706D01*
X4789354Y3004306D01*
X4814754D01*
X4840154Y2978906D01*
X4954454D02*
X4979854Y3004306D01*
X5005254D01*
X4979854Y3029706D01*
X5005254Y3055106D01*
X4979854D01*
X4954454Y3080506D01*
X4929054Y3055106D01*
X4903654D01*
X4929054Y3029706D01*
X4903654Y3004306D01*
X4929054D01*
X4954454Y2978906D01*
X7728372Y1539215D02*
X7753772Y1564615D01*
X7779172D01*
X7753772Y1590015D01*
X7779172Y1615415D01*
X7753772D01*
X7728372Y1640815D01*
X7702972Y1615415D01*
X7677572D01*
X7702972Y1590015D01*
X7677572Y1564615D01*
X7702972D01*
X7728372Y1539215D01*
X7837331D02*
X7862731Y1564615D01*
X7888131D01*
X7862731Y1590015D01*
X7888131Y1615415D01*
X7862731D01*
X7837331Y1640815D01*
X7811931Y1615415D01*
X7786531D01*
X7811931Y1590015D01*
X7786531Y1564615D01*
X7811931D01*
X7837331Y1539215D01*
X7729195Y1432535D02*
X7754595Y1457935D01*
X7779995D01*
X7754595Y1483335D01*
X7779995Y1508735D01*
X7754595D01*
X7729195Y1534135D01*
X7703795Y1508735D01*
X7678395D01*
X7703795Y1483335D01*
X7678395Y1457935D01*
X7703795D01*
X7729195Y1432535D01*
X7782475Y1484175D02*
X7807875Y1509575D01*
X7833275D01*
X7807875Y1534975D01*
X7833275Y1560375D01*
X7807875D01*
X7782475Y1585775D01*
X7757075Y1560375D01*
X7731675D01*
X7757075Y1534975D01*
X7731675Y1509575D01*
X7757075D01*
X7782475Y1484175D01*
X7387215Y1372354D02*
X7412615Y1397754D01*
X7438015D01*
X7412615Y1423154D01*
X7438015Y1448554D01*
X7412615D01*
X7387215Y1473954D01*
X7361815Y1448554D01*
X7336415D01*
X7361815Y1423154D01*
X7336415Y1397754D01*
X7361815D01*
X7387215Y1372354D01*
X1447775Y2913355D02*
X1473175Y2938755D01*
X1498575D01*
X1473175Y2964155D01*
X1498575Y2989555D01*
X1473175D01*
X1447775Y3014955D01*
X1422375Y2989555D01*
X1396975D01*
X1422375Y2964155D01*
X1396975Y2938755D01*
X1422375D01*
X1447775Y2913355D01*
X1640515Y3044455D02*
X1665915Y3069855D01*
X1691315D01*
X1665915Y3095255D01*
X1691315Y3120655D01*
X1665915D01*
X1640515Y3146055D01*
X1615115Y3120655D01*
X1589715D01*
X1615115Y3095255D01*
X1589715Y3069855D01*
X1615115D01*
X1640515Y3044455D01*
Y2785375D02*
X1665915Y2810775D01*
X1691315D01*
X1665915Y2836175D01*
X1691315Y2861575D01*
X1665915D01*
X1640515Y2886975D01*
X1615115Y2861575D01*
X1589715D01*
X1615115Y2836175D01*
X1589715Y2810775D01*
X1615115D01*
X1640515Y2785375D01*
X1877035Y1698614D02*
X1902435Y1724014D01*
X1927835D01*
X1902435Y1749414D01*
X1927835Y1774814D01*
X1902435D01*
X1877035Y1800214D01*
X1851635Y1774814D01*
X1826235D01*
X1851635Y1749414D01*
X1826235Y1724014D01*
X1851635D01*
X1877035Y1698614D01*
X2199175Y1692999D02*
Y1794599D01*
X2300775D01*
Y1692999D01*
X2199175D01*
X2219495Y1713319D02*
Y1774279D01*
X2280455D01*
Y1713319D01*
X2219495D01*
X2087855Y1965935D02*
Y2067535D01*
X2189455D01*
Y1965935D01*
X2087855D01*
X2108175Y1986255D02*
Y2047215D01*
X2169135D01*
Y1986255D01*
X2108175D01*
X2984654Y2572750D02*
X3010054Y2598150D01*
X3035454D01*
X3010054Y2623550D01*
X3035454Y2648950D01*
X3010054D01*
X2984654Y2674350D01*
X2959254Y2648950D01*
X2933854D01*
X2959254Y2623550D01*
X2933854Y2598150D01*
X2959254D01*
X2984654Y2572750D01*
X3042895Y2468855D02*
X3068295Y2494255D01*
X3093695D01*
X3068295Y2519655D01*
X3093695Y2545055D01*
X3068295D01*
X3042895Y2570455D01*
X3017495Y2545055D01*
X2992095D01*
X3017495Y2519655D01*
X2992095Y2494255D01*
X3017495D01*
X3042895Y2468855D01*
X2984654Y2469179D02*
X3010054Y2494579D01*
X3035454D01*
X3010054Y2519979D01*
X3035454Y2545379D01*
X3010054D01*
X2984654Y2570779D01*
X2959254Y2545379D01*
X2933854D01*
X2959254Y2519979D01*
X2933854Y2494579D01*
X2959254D01*
X2984654Y2469179D01*
Y2520965D02*
X3010054Y2546365D01*
X3035454D01*
X3010054Y2571765D01*
X3035454Y2597165D01*
X3010054D01*
X2984654Y2622565D01*
X2959254Y2597165D01*
X2933854D01*
X2959254Y2571765D01*
X2933854Y2546365D01*
X2959254D01*
X2984654Y2520965D01*
X3042895Y2520640D02*
X3068295Y2546040D01*
X3093695D01*
X3068295Y2571440D01*
X3093695Y2596840D01*
X3068295D01*
X3042895Y2622240D01*
X3017495Y2596840D01*
X2992095D01*
X3017495Y2571440D01*
X2992095Y2546040D01*
X3017495D01*
X3042895Y2520640D01*
Y2572426D02*
X3068295Y2597826D01*
X3093695D01*
X3068295Y2623226D01*
X3093695Y2648626D01*
X3068295D01*
X3042895Y2674026D01*
X3017495Y2648626D01*
X2992095D01*
X3017495Y2623226D01*
X2992095Y2597826D01*
X3017495D01*
X3042895Y2572426D01*
X1877035Y1610614D02*
X1902435Y1636014D01*
X1927835D01*
X1902435Y1661414D01*
X1927835Y1686814D01*
X1902435D01*
X1877035Y1712214D01*
X1851635Y1686814D01*
X1826235D01*
X1851635Y1661414D01*
X1826235Y1636014D01*
X1851635D01*
X1877035Y1610614D01*
X1254435Y2913355D02*
X1279835Y2938755D01*
X1305235D01*
X1279835Y2964155D01*
X1305235Y2989555D01*
X1279835D01*
X1254435Y3014955D01*
X1229035Y2989555D01*
X1203635D01*
X1229035Y2964155D01*
X1203635Y2938755D01*
X1229035D01*
X1254435Y2913355D01*
Y3044455D02*
X1279835Y3069855D01*
X1305235D01*
X1279835Y3095255D01*
X1305235Y3120655D01*
X1279835D01*
X1254435Y3146055D01*
X1229035Y3120655D01*
X1203635D01*
X1229035Y3095255D01*
X1203635Y3069855D01*
X1229035D01*
X1254435Y3044455D01*
Y2785375D02*
X1279835Y2810775D01*
X1305235D01*
X1279835Y2836175D01*
X1305235Y2861575D01*
X1279835D01*
X1254435Y2886975D01*
X1229035Y2861575D01*
X1203635D01*
X1229035Y2836175D01*
X1203635Y2810775D01*
X1229035D01*
X1254435Y2785375D01*
X1447775D02*
X1473175Y2810775D01*
X1498575D01*
X1473175Y2836175D01*
X1498575Y2861575D01*
X1473175D01*
X1447775Y2886975D01*
X1422375Y2861575D01*
X1396975D01*
X1422375Y2836175D01*
X1396975Y2810775D01*
X1422375D01*
X1447775Y2785375D01*
Y3044455D02*
X1473175Y3069855D01*
X1498575D01*
X1473175Y3095255D01*
X1498575Y3120655D01*
X1473175D01*
X1447775Y3146055D01*
X1422375Y3120655D01*
X1396975D01*
X1422375Y3095255D01*
X1396975Y3069855D01*
X1422375D01*
X1447775Y3044455D01*
X1640515Y2913355D02*
X1665915Y2938755D01*
X1691315D01*
X1665915Y2964155D01*
X1691315Y2989555D01*
X1665915D01*
X1640515Y3014955D01*
X1615115Y2989555D01*
X1589715D01*
X1615115Y2964155D01*
X1589715Y2938755D01*
X1615115D01*
X1640515Y2913355D01*
X3832835Y2420595D02*
X3858235Y2445995D01*
X3883635D01*
X3858235Y2471395D01*
X3883635Y2496795D01*
X3858235D01*
X3832835Y2522195D01*
X3807435Y2496795D01*
X3782035D01*
X3807435Y2471395D01*
X3782035Y2445995D01*
X3807435D01*
X3832835Y2420595D01*
X3713455Y2476475D02*
X3738855Y2501875D01*
X3764255D01*
X3738855Y2527275D01*
X3764255Y2552675D01*
X3738855D01*
X3713455Y2578075D01*
X3688055Y2552675D01*
X3662655D01*
X3688055Y2527275D01*
X3662655Y2501875D01*
X3688055D01*
X3713455Y2476475D01*
X3680435Y2530395D02*
X3705835Y2555795D01*
X3731235D01*
X3705835Y2581195D01*
X3731235Y2606595D01*
X3705835D01*
X3680435Y2631995D01*
X3655035Y2606595D01*
X3629635D01*
X3655035Y2581195D01*
X3629635Y2555795D01*
X3655035D01*
X3680435Y2530395D01*
X5853881Y2398415D02*
X5879281Y2423815D01*
X5904681D01*
X5879281Y2449215D01*
X5904681Y2474615D01*
X5879281D01*
X5853881Y2500015D01*
X5828481Y2474615D01*
X5803081D01*
X5828481Y2449215D01*
X5803081Y2423815D01*
X5828481D01*
X5853881Y2398415D01*
X5749741Y2158648D02*
X5775141Y2184048D01*
X5800541D01*
X5775141Y2209448D01*
X5800541Y2234848D01*
X5775141D01*
X5749741Y2260248D01*
X5724341Y2234848D01*
X5698941D01*
X5724341Y2209448D01*
X5698941Y2184048D01*
X5724341D01*
X5749741Y2158648D01*
X6463975Y1399515D02*
X6489375Y1424915D01*
X6514775D01*
X6489375Y1450315D01*
X6514775Y1475715D01*
X6489375D01*
X6463975Y1501115D01*
X6438575Y1475715D01*
X6413175D01*
X6438575Y1450315D01*
X6413175Y1424915D01*
X6438575D01*
X6463975Y1399515D01*
X5948655Y1317855D02*
X5974055Y1343255D01*
X5999455D01*
X5974055Y1368655D01*
X5999455Y1394055D01*
X5974055D01*
X5948655Y1419455D01*
X5923255Y1394055D01*
X5897855D01*
X5923255Y1368655D01*
X5897855Y1343255D01*
X5923255D01*
X5948655Y1317855D01*
X3275655Y1374115D02*
X3301055Y1399515D01*
X3326455D01*
X3301055Y1424915D01*
X3326455Y1450315D01*
X3301055D01*
X3275655Y1475715D01*
X3250255Y1450315D01*
X3224855D01*
X3250255Y1424915D01*
X3224855Y1399515D01*
X3250255D01*
X3275655Y1374115D01*
X4137635Y1379195D02*
X4163035Y1404595D01*
X4188435D01*
X4163035Y1429995D01*
X4188435Y1455395D01*
X4163035D01*
X4137635Y1480795D01*
X4112235Y1455395D01*
X4086835D01*
X4112235Y1429995D01*
X4086835Y1404595D01*
X4112235D01*
X4137635Y1379195D01*
X4594835Y2473935D02*
X4620235Y2499335D01*
X4645635D01*
X4620235Y2524735D01*
X4645635Y2550135D01*
X4620235D01*
X4594835Y2575535D01*
X4569435Y2550135D01*
X4544035D01*
X4569435Y2524735D01*
X4544035Y2499335D01*
X4569435D01*
X4594835Y2473935D01*
X3731235Y1920215D02*
X3756635Y1945615D01*
X3782035D01*
X3756635Y1971015D01*
X3782035Y1996415D01*
X3756635D01*
X3731235Y2021815D01*
X3705835Y1996415D01*
X3680435D01*
X3705835Y1971015D01*
X3680435Y1945615D01*
X3705835D01*
X3731235Y1920215D01*
X7967842Y2297337D02*
X8018642Y2348137D01*
X8069442Y2297337D01*
X8018642Y2246537D01*
X7967842Y2297337D01*
X6812255Y1551915D02*
X6863055Y1602715D01*
X6913855Y1551915D01*
X6863055Y1501115D01*
X6812255Y1551915D01*
X9883623Y2374887D02*
X9909023Y2400287D01*
X9934423D01*
X9909023Y2425687D01*
X9934423Y2451087D01*
X9909023D01*
X9883623Y2476487D01*
X9858223Y2451087D01*
X9832823D01*
X9858223Y2425687D01*
X9832823Y2400287D01*
X9858223D01*
X9883623Y2374887D01*
Y2219530D02*
X9909023Y2244930D01*
X9934423D01*
X9909023Y2270330D01*
X9934423Y2295730D01*
X9909023D01*
X9883623Y2321130D01*
X9858223Y2295730D01*
X9832823D01*
X9858223Y2270330D01*
X9832823Y2244930D01*
X9858223D01*
X9883623Y2219530D01*
Y2426673D02*
X9909023Y2452073D01*
X9934423D01*
X9909023Y2477473D01*
X9934423Y2502873D01*
X9909023D01*
X9883623Y2528273D01*
X9858223Y2502873D01*
X9832823D01*
X9858223Y2477473D01*
X9832823Y2452073D01*
X9858223D01*
X9883623Y2426673D01*
Y2323102D02*
X9909023Y2348502D01*
X9934423D01*
X9909023Y2373902D01*
X9934423Y2399302D01*
X9909023D01*
X9883623Y2424702D01*
X9858223Y2399302D01*
X9832823D01*
X9858223Y2373902D01*
X9832823Y2348502D01*
X9858223D01*
X9883623Y2323102D01*
Y2271316D02*
X9909023Y2296716D01*
X9934423D01*
X9909023Y2322116D01*
X9934423Y2347516D01*
X9909023D01*
X9883623Y2372916D01*
X9858223Y2347516D01*
X9832823D01*
X9858223Y2322116D01*
X9832823Y2296716D01*
X9858223D01*
X9883623Y2271316D01*
X9596782Y2219530D02*
X9622182Y2244930D01*
X9647582D01*
X9622182Y2270330D01*
X9647582Y2295730D01*
X9622182D01*
X9596782Y2321130D01*
X9571382Y2295730D01*
X9545982D01*
X9571382Y2270330D01*
X9545982Y2244930D01*
X9571382D01*
X9596782Y2219530D01*
Y2323102D02*
X9622182Y2348502D01*
X9647582D01*
X9622182Y2373902D01*
X9647582Y2399302D01*
X9622182D01*
X9596782Y2424702D01*
X9571382Y2399302D01*
X9545982D01*
X9571382Y2373902D01*
X9545982Y2348502D01*
X9571382D01*
X9596782Y2323102D01*
Y2374887D02*
X9622182Y2400287D01*
X9647582D01*
X9622182Y2425687D01*
X9647582Y2451087D01*
X9622182D01*
X9596782Y2476487D01*
X9571382Y2451087D01*
X9545982D01*
X9571382Y2425687D01*
X9545982Y2400287D01*
X9571382D01*
X9596782Y2374887D01*
Y2426673D02*
X9622182Y2452073D01*
X9647582D01*
X9622182Y2477473D01*
X9647582Y2502873D01*
X9622182D01*
X9596782Y2528273D01*
X9571382Y2502873D01*
X9545982D01*
X9571382Y2477473D01*
X9545982Y2452073D01*
X9571382D01*
X9596782Y2426673D01*
Y2271316D02*
X9622182Y2296716D01*
X9647582D01*
X9622182Y2322116D01*
X9647582Y2347516D01*
X9622182D01*
X9596782Y2372916D01*
X9571382Y2347516D01*
X9545982D01*
X9571382Y2322116D01*
X9545982Y2296716D01*
X9571382D01*
X9596782Y2271316D01*
X12984953Y1295634D02*
X13010355Y1321034D01*
X13035754D01*
X13010355Y1346434D01*
X13035754Y1371834D01*
X13010355D01*
X12984953Y1397234D01*
X12959554Y1371834D01*
X12934154D01*
X12959554Y1346434D01*
X12934154Y1321034D01*
X12959554D01*
X12984953Y1295634D01*
X12289175Y1536675D02*
Y1638275D01*
X12390775D01*
Y1536675D01*
X12289175D01*
X12309495Y1556995D02*
Y1617955D01*
X12370455D01*
Y1556995D01*
X12309495D01*
X7782475Y1854331D02*
X7807875Y1879731D01*
X7833275D01*
X7807875Y1905131D01*
X7833275Y1930531D01*
X7807875D01*
X7782475Y1955931D01*
X7757075Y1930531D01*
X7731675D01*
X7757075Y1905131D01*
X7731675Y1879731D01*
X7757075D01*
X7782475Y1854331D01*
X3677895Y1234415D02*
X3703295Y1259815D01*
X3728695D01*
X3703295Y1285215D01*
X3728695Y1310615D01*
X3703295D01*
X3677895Y1336015D01*
X3652495Y1310615D01*
X3627095D01*
X3652495Y1285215D01*
X3627095Y1259815D01*
X3652495D01*
X3677895Y1234415D01*
X8371815Y2259650D02*
X8422615Y2310450D01*
X8473415Y2259650D01*
X8422615Y2208850D01*
X8371815Y2259650D01*
X8295615D02*
X8346415Y2310450D01*
X8397215Y2259650D01*
X8346415Y2208850D01*
X8295615Y2259650D01*
X8371815Y2346010D02*
X8422615Y2396810D01*
X8473415Y2346010D01*
X8422615Y2295210D01*
X8371815Y2346010D01*
X8295615D02*
X8346415Y2396810D01*
X8397215Y2346010D01*
X8346415Y2295210D01*
X8295615Y2346010D01*
X7109435Y1762735D02*
X7160235Y1813535D01*
X7211035Y1762735D01*
X7160235Y1711935D01*
X7109435Y1762735D01*
X7185635D02*
X7236435Y1813535D01*
X7287235Y1762735D01*
X7236435Y1711935D01*
X7185635Y1762735D01*
X7109435Y1676375D02*
X7160235Y1727175D01*
X7211035Y1676375D01*
X7160235Y1625575D01*
X7109435Y1676375D01*
X7185635D02*
X7236435Y1727175D01*
X7287235Y1676375D01*
X7236435Y1625575D01*
X7185635Y1676375D01*
X7109435Y1574775D02*
X7160235Y1625575D01*
X7211035Y1574775D01*
X7160235Y1523975D01*
X7109435Y1574775D01*
X7185635D02*
X7236435Y1625575D01*
X7287235Y1574775D01*
X7236435Y1523975D01*
X7185635Y1574775D01*
X7109435Y1488415D02*
X7160235Y1539215D01*
X7211035Y1488415D01*
X7160235Y1437615D01*
X7109435Y1488415D01*
X7185635D02*
X7236435Y1539215D01*
X7287235Y1488415D01*
X7236435Y1437615D01*
X7185635Y1488415D01*
X1284075Y1331335D02*
X1334875Y1382135D01*
X1385675Y1331335D01*
X1334875Y1280535D01*
X1284075Y1331335D01*
X2553174Y1147475D02*
X2603974Y1198275D01*
X2654774Y1147475D01*
X2603974Y1096675D01*
X2553174Y1147475D01*
X2575535Y1306435D02*
X2600935Y1331835D01*
X2626335D01*
X2600935Y1357235D01*
X2626335Y1382635D01*
X2600935D01*
X2575535Y1408035D01*
X2550135Y1382635D01*
X2524735D01*
X2550135Y1357235D01*
X2524735Y1331835D01*
X2550135D01*
X2575535Y1306435D01*
X3112175Y2357095D02*
X3162975Y2407895D01*
X3213775Y2357095D01*
X3162975Y2306295D01*
X3112175Y2357095D01*
X4474831Y1963014D02*
X4525631Y2013814D01*
X4576431Y1963014D01*
X4525631Y1912214D01*
X4474831Y1963014D01*
X4581559D02*
X4632359Y2013814D01*
X4683159Y1963014D01*
X4632359Y1912214D01*
X4581559Y1963014D01*
X8689135Y1554374D02*
X8714535Y1579774D01*
X8739935D01*
X8714535Y1605174D01*
X8739935Y1630574D01*
X8714535D01*
X8689135Y1655974D01*
X8663735Y1630574D01*
X8638335D01*
X8663735Y1605174D01*
X8638335Y1579774D01*
X8663735D01*
X8689135Y1554374D01*
X8630895Y1502913D02*
X8656295Y1528313D01*
X8681695D01*
X8656295Y1553713D01*
X8681695Y1579113D01*
X8656295D01*
X8630895Y1604513D01*
X8605495Y1579113D01*
X8580095D01*
X8605495Y1553713D01*
X8580095Y1528313D01*
X8605495D01*
X8630895Y1502913D01*
Y1554699D02*
X8656295Y1580099D01*
X8681695D01*
X8656295Y1605499D01*
X8681695Y1630899D01*
X8656295D01*
X8630895Y1656299D01*
X8605495Y1630899D01*
X8580095D01*
X8605495Y1605499D01*
X8580095Y1580099D01*
X8605495D01*
X8630895Y1554699D01*
X8803435Y1502589D02*
X8828835Y1527989D01*
X8854235D01*
X8828835Y1553389D01*
X8854235Y1578789D01*
X8828835D01*
X8803435Y1604189D01*
X8778035Y1578789D01*
X8752635D01*
X8778035Y1553389D01*
X8752635Y1527989D01*
X8778035D01*
X8803435Y1502589D01*
X8745195Y1502913D02*
X8770595Y1528313D01*
X8795995D01*
X8770595Y1553713D01*
X8795995Y1579113D01*
X8770595D01*
X8745195Y1604513D01*
X8719795Y1579113D01*
X8694395D01*
X8719795Y1553713D01*
X8694395Y1528313D01*
X8719795D01*
X8745195Y1502913D01*
X8803435Y1606160D02*
X8828835Y1631560D01*
X8854235D01*
X8828835Y1656960D01*
X8854235Y1682360D01*
X8828835D01*
X8803435Y1707760D01*
X8778035Y1682360D01*
X8752635D01*
X8778035Y1656960D01*
X8752635Y1631560D01*
X8778035D01*
X8803435Y1606160D01*
X8745195Y1554699D02*
X8770595Y1580099D01*
X8795995D01*
X8770595Y1605499D01*
X8795995Y1630899D01*
X8770595D01*
X8745195Y1656299D01*
X8719795Y1630899D01*
X8694395D01*
X8719795Y1605499D01*
X8694395Y1580099D01*
X8719795D01*
X8745195Y1554699D01*
X8917735Y1502913D02*
X8943135Y1528313D01*
X8968535D01*
X8943135Y1553713D01*
X8968535Y1579113D01*
X8943135D01*
X8917735Y1604513D01*
X8892335Y1579113D01*
X8866935D01*
X8892335Y1553713D01*
X8866935Y1528313D01*
X8892335D01*
X8917735Y1502913D01*
Y1554699D02*
X8943135Y1580099D01*
X8968535D01*
X8943135Y1605499D01*
X8968535Y1630899D01*
X8943135D01*
X8917735Y1656299D01*
X8892335Y1630899D01*
X8866935D01*
X8892335Y1605499D01*
X8866935Y1580099D01*
X8892335D01*
X8917735Y1554699D01*
X8859495Y1503238D02*
X8884895Y1528638D01*
X8910295D01*
X8884895Y1554038D01*
X8910295Y1579438D01*
X8884895D01*
X8859495Y1604838D01*
X8834095Y1579438D01*
X8808695D01*
X8834095Y1554038D01*
X8808695Y1528638D01*
X8834095D01*
X8859495Y1503238D01*
Y1606809D02*
X8884895Y1632209D01*
X8910295D01*
X8884895Y1657609D01*
X8910295Y1683009D01*
X8884895D01*
X8859495Y1708409D01*
X8834095Y1683009D01*
X8808695D01*
X8834095Y1657609D01*
X8808695Y1632209D01*
X8834095D01*
X8859495Y1606809D01*
Y1555024D02*
X8884895Y1580424D01*
X8910295D01*
X8884895Y1605824D01*
X8910295Y1631224D01*
X8884895D01*
X8859495Y1656624D01*
X8834095Y1631224D01*
X8808695D01*
X8834095Y1605824D01*
X8808695Y1580424D01*
X8834095D01*
X8859495Y1555024D01*
X8803435Y1554374D02*
X8828835Y1579774D01*
X8854235D01*
X8828835Y1605174D01*
X8854235Y1630574D01*
X8828835D01*
X8803435Y1655974D01*
X8778035Y1630574D01*
X8752635D01*
X8778035Y1605174D01*
X8752635Y1579774D01*
X8778035D01*
X8803435Y1554374D01*
X1522420Y1694155D02*
X1573220Y1744955D01*
X1624020Y1694155D01*
X1573220Y1643355D01*
X1522420Y1694155D01*
Y1751598D02*
X1573220Y1802398D01*
X1624020Y1751598D01*
X1573220Y1700798D01*
X1522420Y1751598D01*
X1461873D02*
X1512673Y1802398D01*
X1563473Y1751598D01*
X1512673Y1700798D01*
X1461873Y1751598D01*
Y1694155D02*
X1512673Y1744955D01*
X1563473Y1694155D01*
X1512673Y1643355D01*
X1461873Y1694155D01*
X2489385Y1741744D02*
Y1843344D01*
X2590985D01*
Y1741744D01*
X2489385D01*
X2509705Y1762064D02*
Y1823024D01*
X2570665D01*
Y1762064D01*
X2509705D01*
X2393267Y1737335D02*
Y1838935D01*
X2494867D01*
Y1737335D01*
X2393267D01*
X2413587Y1757655D02*
Y1818615D01*
X2474547D01*
Y1757655D01*
X2413587D01*
X2475511Y1818615D02*
Y1920215D01*
X2577111D01*
Y1818615D01*
X2475511D01*
X2495831Y1838935D02*
Y1899895D01*
X2556791D01*
Y1838935D01*
X2495831D01*
X2393267Y1818615D02*
Y1920215D01*
X2494867D01*
Y1818615D01*
X2393267D01*
X2413587Y1838935D02*
Y1899895D01*
X2474547D01*
Y1838935D01*
X2413587D01*
X2279836Y3059831D02*
X2330636Y3110631D01*
X2381436Y3059831D01*
X2330636Y3009031D01*
X2279836Y3059831D01*
X2330636Y2729031D02*
X2356036Y2754431D01*
X2381436D01*
X2356036Y2779831D01*
X2381436Y2805231D01*
X2356036D01*
X2330636Y2830631D01*
X2305236Y2805231D01*
X2279836D01*
X2305236Y2779831D01*
X2279836Y2754431D01*
X2305236D01*
X2330636Y2729031D01*
X2511886Y3058435D02*
X2562686Y3109235D01*
X2613486Y3058435D01*
X2562686Y3007635D01*
X2511886Y3058435D01*
X3327375Y2203813D02*
X3352775Y2229213D01*
X3378175D01*
X3352775Y2254613D01*
X3378175Y2280013D01*
X3352775D01*
X3327375Y2305413D01*
X3301975Y2280013D01*
X3276575D01*
X3301975Y2254613D01*
X3276575Y2229213D01*
X3301975D01*
X3327375Y2203813D01*
X1647165Y1079313D02*
X1672565Y1104713D01*
X1697965D01*
X1672565Y1130113D01*
X1697965Y1155513D01*
X1672565D01*
X1647165Y1180913D01*
X1621765Y1155513D01*
X1596365D01*
X1621765Y1130113D01*
X1596365Y1104713D01*
X1621765D01*
X1647165Y1079313D01*
X7502975Y1485575D02*
X7528375Y1510975D01*
X7553775D01*
X7528375Y1536375D01*
X7553775Y1561775D01*
X7528375D01*
X7502975Y1587175D01*
X7477575Y1561775D01*
X7452175D01*
X7477575Y1536375D01*
X7452175Y1510975D01*
X7477575D01*
X7502975Y1485575D01*
X8177724Y1401614D02*
X8203124Y1427014D01*
X8228524D01*
X8203124Y1452414D01*
X8228524Y1477814D01*
X8203124D01*
X8177724Y1503214D01*
X8152324Y1477814D01*
X8126924D01*
X8152324Y1452414D01*
X8126924Y1427014D01*
X8152324D01*
X8177724Y1401614D01*
X7638475Y1404175D02*
X7663875Y1429575D01*
X7689275D01*
X7663875Y1454975D01*
X7689275Y1480375D01*
X7663875D01*
X7638475Y1505775D01*
X7613075Y1480375D01*
X7587675D01*
X7613075Y1454975D01*
X7587675Y1429575D01*
X7613075D01*
X7638475Y1404175D01*
X8859495Y1451453D02*
X8884895Y1476853D01*
X8910295D01*
X8884895Y1502253D01*
X8910295Y1527653D01*
X8884895D01*
X8859495Y1553053D01*
X8834095Y1527653D01*
X8808695D01*
X8834095Y1502253D01*
X8808695Y1476853D01*
X8834095D01*
X8859495Y1451453D01*
X7926475Y1404175D02*
X7951875Y1429575D01*
X7977275D01*
X7951875Y1454975D01*
X7977275Y1480375D01*
X7951875D01*
X7926475Y1505775D01*
X7901075Y1480375D01*
X7875675D01*
X7901075Y1454975D01*
X7875675Y1429575D01*
X7901075D01*
X7926475Y1404175D01*
X8745195Y1451128D02*
X8770595Y1476528D01*
X8795995D01*
X8770595Y1501928D01*
X8795995Y1527328D01*
X8770595D01*
X8745195Y1552728D01*
X8719795Y1527328D01*
X8694395D01*
X8719795Y1501928D01*
X8694395Y1476528D01*
X8719795D01*
X8745195Y1451128D01*
X8917735D02*
X8943135Y1476528D01*
X8968535D01*
X8943135Y1501928D01*
X8968535Y1527328D01*
X8943135D01*
X8917735Y1552728D01*
X8892335Y1527328D01*
X8866935D01*
X8892335Y1501928D01*
X8866935Y1476528D01*
X8892335D01*
X8917735Y1451128D01*
X8630895D02*
X8656295Y1476528D01*
X8681695D01*
X8656295Y1501928D01*
X8681695Y1527328D01*
X8656295D01*
X8630895Y1552728D01*
X8605495Y1527328D01*
X8580095D01*
X8605495Y1501928D01*
X8580095Y1476528D01*
X8605495D01*
X8630895Y1451128D01*
X8689135Y1502589D02*
X8714535Y1527989D01*
X8739935D01*
X8714535Y1553389D01*
X8739935Y1578789D01*
X8714535D01*
X8689135Y1604189D01*
X8663735Y1578789D01*
X8638335D01*
X8663735Y1553389D01*
X8638335Y1527989D01*
X8663735D01*
X8689135Y1502589D01*
Y1450803D02*
X8714535Y1476203D01*
X8739935D01*
X8714535Y1501603D01*
X8739935Y1527003D01*
X8714535D01*
X8689135Y1552403D01*
X8663735Y1527003D01*
X8638335D01*
X8663735Y1501603D01*
X8638335Y1476203D01*
X8663735D01*
X8689135Y1450803D01*
X8803435D02*
X8828835Y1476203D01*
X8854235D01*
X8828835Y1501603D01*
X8854235Y1527003D01*
X8828835D01*
X8803435Y1552403D01*
X8778035Y1527003D01*
X8752635D01*
X8778035Y1501603D01*
X8752635Y1476203D01*
X8778035D01*
X8803435Y1450803D01*
X7139915Y1320775D02*
X7165315Y1346175D01*
X7190715D01*
X7165315Y1371575D01*
X7190715Y1396975D01*
X7165315D01*
X7139915Y1422375D01*
X7114515Y1396975D01*
X7089115D01*
X7114515Y1371575D01*
X7089115Y1346175D01*
X7114515D01*
X7139915Y1320775D01*
X7275455Y1272515D02*
X7300855Y1297915D01*
X7326255D01*
X7300855Y1323315D01*
X7326255Y1348715D01*
X7300855D01*
X7275455Y1374115D01*
X7250055Y1348715D01*
X7224655D01*
X7250055Y1323315D01*
X7224655Y1297915D01*
X7250055D01*
X7275455Y1272515D01*
X7023075Y1320775D02*
X7048475Y1346175D01*
X7073875D01*
X7048475Y1371575D01*
X7073875Y1396975D01*
X7048475D01*
X7023075Y1422375D01*
X6997675Y1396975D01*
X6972275D01*
X6997675Y1371575D01*
X6972275Y1346175D01*
X6997675D01*
X7023075Y1320775D01*
X8613294Y2210960D02*
X8638694Y2236360D01*
X8664094D01*
X8638694Y2261760D01*
X8664094Y2287160D01*
X8638694D01*
X8613294Y2312560D01*
X8587894Y2287160D01*
X8562494D01*
X8587894Y2261760D01*
X8562494Y2236360D01*
X8587894D01*
X8613294Y2210960D01*
Y2314531D02*
X8638694Y2339931D01*
X8664094D01*
X8638694Y2365331D01*
X8664094Y2390731D01*
X8638694D01*
X8613294Y2416131D01*
X8587894Y2390731D01*
X8562494D01*
X8587894Y2365331D01*
X8562494Y2339931D01*
X8587894D01*
X8613294Y2314531D01*
Y2262745D02*
X8638694Y2288145D01*
X8664094D01*
X8638694Y2313545D01*
X8664094Y2338945D01*
X8638694D01*
X8613294Y2364345D01*
X8587894Y2338945D01*
X8562494D01*
X8587894Y2313545D01*
X8562494Y2288145D01*
X8587894D01*
X8613294Y2262745D01*
Y2159174D02*
X8638694Y2184574D01*
X8664094D01*
X8638694Y2209974D01*
X8664094Y2235374D01*
X8638694D01*
X8613294Y2260774D01*
X8587894Y2235374D01*
X8562494D01*
X8587894Y2209974D01*
X8562494Y2184574D01*
X8587894D01*
X8613294Y2159174D01*
X8900135Y2210960D02*
X8925535Y2236360D01*
X8950935D01*
X8925535Y2261760D01*
X8950935Y2287160D01*
X8925535D01*
X8900135Y2312560D01*
X8874735Y2287160D01*
X8849335D01*
X8874735Y2261760D01*
X8849335Y2236360D01*
X8874735D01*
X8900135Y2210960D01*
Y2262745D02*
X8925535Y2288145D01*
X8950935D01*
X8925535Y2313545D01*
X8950935Y2338945D01*
X8925535D01*
X8900135Y2364345D01*
X8874735Y2338945D01*
X8849335D01*
X8874735Y2313545D01*
X8849335Y2288145D01*
X8874735D01*
X8900135Y2262745D01*
Y2366316D02*
X8925535Y2391716D01*
X8950935D01*
X8925535Y2417116D01*
X8950935Y2442516D01*
X8925535D01*
X8900135Y2467916D01*
X8874735Y2442516D01*
X8849335D01*
X8874735Y2417116D01*
X8849335Y2391716D01*
X8874735D01*
X8900135Y2366316D01*
Y2159174D02*
X8925535Y2184574D01*
X8950935D01*
X8925535Y2209974D01*
X8950935Y2235374D01*
X8925535D01*
X8900135Y2260774D01*
X8874735Y2235374D01*
X8849335D01*
X8874735Y2209974D01*
X8849335Y2184574D01*
X8874735D01*
X8900135Y2159174D01*
Y2314531D02*
X8925535Y2339931D01*
X8950935D01*
X8925535Y2365331D01*
X8950935Y2390731D01*
X8925535D01*
X8900135Y2416131D01*
X8874735Y2390731D01*
X8849335D01*
X8874735Y2365331D01*
X8849335Y2339931D01*
X8874735D01*
X8900135Y2314531D01*
X7791675Y2384975D02*
X7842475Y2435775D01*
X7893275Y2384975D01*
X7842475Y2334175D01*
X7791675Y2384975D01*
X11678895Y2537435D02*
X11729695Y2588235D01*
X11780495Y2537435D01*
X11729695Y2486635D01*
X11678895Y2537435D01*
Y2717434D02*
X11729695Y2768234D01*
X11780495Y2717434D01*
X11729695Y2666634D01*
X11678895Y2717434D01*
Y2597434D02*
X11729695Y2648234D01*
X11780495Y2597434D01*
X11729695Y2546634D01*
X11678895Y2597434D01*
Y2657434D02*
X11729695Y2708234D01*
X11780495Y2657434D01*
X11729695Y2606634D01*
X11678895Y2657434D01*
X11743895D02*
X11794695Y2708234D01*
X11845495Y2657434D01*
X11794695Y2606634D01*
X11743895Y2657434D01*
Y2537435D02*
X11794695Y2588235D01*
X11845495Y2537435D01*
X11794695Y2486635D01*
X11743895Y2537435D01*
Y2597434D02*
X11794695Y2648234D01*
X11845495Y2597434D01*
X11794695Y2546634D01*
X11743895Y2597434D01*
Y2717434D02*
X11794695Y2768234D01*
X11845495Y2717434D01*
X11794695Y2666634D01*
X11743895Y2717434D01*
X12436195Y2537435D02*
X12486995Y2588235D01*
X12537795Y2537435D01*
X12486995Y2486635D01*
X12436195Y2537435D01*
Y2717434D02*
X12486995Y2768234D01*
X12537795Y2717434D01*
X12486995Y2666634D01*
X12436195Y2717434D01*
Y2597434D02*
X12486995Y2648234D01*
X12537795Y2597434D01*
X12486995Y2546634D01*
X12436195Y2597434D01*
Y2657434D02*
X12486995Y2708234D01*
X12537795Y2657434D01*
X12486995Y2606634D01*
X12436195Y2657434D01*
X12501195D02*
X12551995Y2708234D01*
X12602795Y2657434D01*
X12551995Y2606634D01*
X12501195Y2657434D01*
Y2537435D02*
X12551995Y2588235D01*
X12602795Y2537435D01*
X12551995Y2486635D01*
X12501195Y2537435D01*
Y2597434D02*
X12551995Y2648234D01*
X12602795Y2597434D01*
X12551995Y2546634D01*
X12501195Y2597434D01*
Y2717434D02*
X12551995Y2768234D01*
X12602795Y2717434D01*
X12551995Y2666634D01*
X12501195Y2717434D01*
X11126675Y2399644D02*
X11177475Y2450444D01*
X11228275Y2399644D01*
X11177475Y2348844D01*
X11126675Y2399644D01*
Y2341855D02*
X11177475Y2392655D01*
X11228275Y2341855D01*
X11177475Y2291055D01*
X11126675Y2341855D01*
X11254175Y2399644D02*
X11304975Y2450444D01*
X11355775Y2399644D01*
X11304975Y2348844D01*
X11254175Y2399644D01*
Y2343470D02*
X11304975Y2394270D01*
X11355775Y2343470D01*
X11304975Y2292670D01*
X11254175Y2343470D01*
X10695915Y2970789D02*
X10746715Y3021589D01*
X10797515Y2970789D01*
X10746715Y2919989D01*
X10695915Y2970789D01*
X10690835Y2849855D02*
X10741635Y2900655D01*
X10792435Y2849855D01*
X10741635Y2799055D01*
X10690835Y2849855D01*
X10609555Y2720885D02*
X10660355Y2771685D01*
X10711155Y2720885D01*
X10660355Y2670085D01*
X10609555Y2720885D01*
X10690835D02*
X10741635Y2771685D01*
X10792435Y2720885D01*
X10741635Y2670085D01*
X10690835Y2720885D01*
X9773895Y1952475D02*
X9824695Y2003275D01*
X9875495Y1952475D01*
X9824695Y1901675D01*
X9773895Y1952475D01*
X7251456Y2012475D02*
X7302256Y2063275D01*
X7353056Y2012475D01*
X7302256Y1961675D01*
X7251456Y2012475D01*
X7146876Y2013390D02*
X7197676Y2064190D01*
X7248476Y2013390D01*
X7197676Y1962590D01*
X7146876Y2013390D01*
X7357455D02*
X7408255Y2064190D01*
X7459055Y2013390D01*
X7408255Y1962590D01*
X7357455Y2013390D01*
X7251455Y2078014D02*
X7302255Y2128814D01*
X7353055Y2078014D01*
X7302255Y2027214D01*
X7251455Y2078014D01*
Y1945934D02*
X7302255Y1996734D01*
X7353055Y1945934D01*
X7302255Y1895134D01*
X7251455Y1945934D01*
X7146876D02*
X7197676Y1996734D01*
X7248476Y1945934D01*
X7197676Y1895134D01*
X7146876Y1945934D01*
X7357455Y1945414D02*
X7408255Y1996214D01*
X7459055Y1945414D01*
X7408255Y1894614D01*
X7357455Y1945414D01*
Y2078014D02*
X7408255Y2128814D01*
X7459055Y2078014D01*
X7408255Y2027214D01*
X7357455Y2078014D01*
X7146876Y2078475D02*
X7197676Y2129275D01*
X7248476Y2078475D01*
X7197676Y2027675D01*
X7146876Y2078475D01*
X8266675Y1953390D02*
X8317475Y2004190D01*
X8368275Y1953390D01*
X8317475Y1902590D01*
X8266675Y1953390D01*
X8266675Y2019275D02*
X8317475Y2070075D01*
X8368275Y2019275D01*
X8317475Y1968475D01*
X8266675Y2019275D01*
X8266675Y1887195D02*
X8317475Y1937995D01*
X8368275Y1887195D01*
X8317475Y1836395D01*
X8266675Y1887195D01*
X8158455Y1953391D02*
X8209255Y2004191D01*
X8260055Y1953391D01*
X8209255Y1902591D01*
X8158455Y1953391D01*
X8157185Y2019275D02*
X8207985Y2070075D01*
X8258785Y2019275D01*
X8207985Y1968475D01*
X8157185Y2019275D01*
X8158455Y1887195D02*
X8209255Y1937995D01*
X8260055Y1887195D01*
X8209255Y1836395D01*
X8158455Y1887195D01*
X8374355Y2019275D02*
X8425155Y2070075D01*
X8475955Y2019275D01*
X8425155Y1968475D01*
X8374355Y2019275D01*
Y1953390D02*
X8425155Y2004190D01*
X8475955Y1953390D01*
X8425155Y1902590D01*
X8374355Y1953390D01*
Y1889975D02*
X8425155Y1940775D01*
X8475955Y1889975D01*
X8425155Y1839175D01*
X8374355Y1889975D01*
X6236675Y1958392D02*
X6287475Y2009192D01*
X6338275Y1958392D01*
X6287475Y1907592D01*
X6236675Y1958392D01*
X6559175D02*
X6609975Y2009192D01*
X6660775Y1958392D01*
X6609975Y1907592D01*
X6559175Y1958392D01*
X6881675D02*
X6932475Y2009192D01*
X6983275Y1958392D01*
X6932475Y1907592D01*
X6881675Y1958392D01*
X6986877Y1719974D02*
X7037677Y1770774D01*
X7088477Y1719974D01*
X7037677Y1669174D01*
X6986877Y1719974D01*
Y1552794D02*
X7037677Y1603594D01*
X7088477Y1552794D01*
X7037677Y1501994D01*
X6986877Y1552794D01*
X2930675Y2320474D02*
X2981475Y2371274D01*
X3032275Y2320474D01*
X2981475Y2269674D01*
X2930675Y2320474D01*
X3651753Y2283435D02*
X3702553Y2334235D01*
X3753353Y2283435D01*
X3702553Y2232635D01*
X3651753Y2283435D01*
X3426435Y2283100D02*
X3477235Y2333900D01*
X3528035Y2283100D01*
X3477235Y2232300D01*
X3426435Y2283100D01*
X2526735Y1454735D02*
Y1556335D01*
X2628335D01*
Y1454735D01*
X2526735D01*
X2547055Y1475055D02*
Y1536015D01*
X2608015D01*
Y1475055D01*
X2547055D01*
X3723615Y1691615D02*
X3774415Y1742415D01*
X3825215Y1691615D01*
X3774415Y1640815D01*
X3723615Y1691615D01*
X3634715Y1783354D02*
X3660115Y1808754D01*
X3685515D01*
X3660115Y1834154D01*
X3685515Y1859554D01*
X3660115D01*
X3634715Y1884954D01*
X3609315Y1859554D01*
X3583915D01*
X3609315Y1834154D01*
X3583915Y1808754D01*
X3609315D01*
X3634715Y1783354D01*
X3842519D02*
X3867919Y1808754D01*
X3893319D01*
X3867919Y1834154D01*
X3893319Y1859554D01*
X3867919D01*
X3842519Y1884954D01*
X3817119Y1859554D01*
X3791719D01*
X3817119Y1834154D01*
X3791719Y1808754D01*
X3817119D01*
X3842519Y1783354D01*
X9956775Y2097261D02*
X10007575Y2148061D01*
X10058375Y2097261D01*
X10007575Y2046461D01*
X9956775Y2097261D01*
Y2039735D02*
X10007575Y2090535D01*
X10058375Y2039735D01*
X10007575Y1988935D01*
X9956775Y2039735D01*
Y2154788D02*
X10007575Y2205588D01*
X10058375Y2154788D01*
X10007575Y2103988D01*
X9956775Y2154788D01*
X9432746Y2638338D02*
X9483546Y2689138D01*
X9534346Y2638338D01*
X9483546Y2587538D01*
X9432746Y2638338D01*
X9773895Y2112475D02*
X9824695Y2163275D01*
X9875495Y2112475D01*
X9824695Y2061675D01*
X9773895Y2112475D01*
X9633818Y2638338D02*
X9684618Y2689138D01*
X9735418Y2638338D01*
X9684618Y2587538D01*
X9633818Y2638338D01*
X9834889D02*
X9885689Y2689138D01*
X9936489Y2638338D01*
X9885689Y2587538D01*
X9834889Y2638338D01*
X10035960D02*
X10086760Y2689138D01*
X10137560Y2638338D01*
X10086760Y2587538D01*
X10035960Y2638338D01*
X9231713Y3087411D02*
X9282513Y3138211D01*
X9333313Y3087411D01*
X9282513Y3036611D01*
X9231713Y3087411D01*
X9332678D02*
X9383478Y3138211D01*
X9434278Y3087411D01*
X9383478Y3036611D01*
X9332678Y3087411D01*
X9433643D02*
X9484443Y3138211D01*
X9535243Y3087411D01*
X9484443Y3036611D01*
X9433643Y3087411D01*
X9534608D02*
X9585408Y3138211D01*
X9636208Y3087411D01*
X9585408Y3036611D01*
X9534608Y3087411D01*
X9635573D02*
X9686373Y3138211D01*
X9737173Y3087411D01*
X9686373Y3036611D01*
X9635573Y3087411D01*
X9736538D02*
X9787338Y3138211D01*
X9838138Y3087411D01*
X9787338Y3036611D01*
X9736538Y3087411D01*
X9837503D02*
X9888303Y3138211D01*
X9939103Y3087411D01*
X9888303Y3036611D01*
X9837503Y3087411D01*
X9938468D02*
X9989268Y3138211D01*
X10040068Y3087411D01*
X9989268Y3036611D01*
X9938468Y3087411D01*
X10039433D02*
X10090233Y3138211D01*
X10141033Y3087411D01*
X10090233Y3036611D01*
X10039433Y3087411D01*
X9231713Y3013635D02*
X9282513Y3064435D01*
X9333313Y3013635D01*
X9282513Y2962835D01*
X9231713Y3013635D01*
X9332678D02*
X9383478Y3064435D01*
X9434278Y3013635D01*
X9383478Y2962835D01*
X9332678Y3013635D01*
X9433643D02*
X9484443Y3064435D01*
X9535243Y3013635D01*
X9484443Y2962835D01*
X9433643Y3013635D01*
X9534608D02*
X9585408Y3064435D01*
X9636208Y3013635D01*
X9585408Y2962835D01*
X9534608Y3013635D01*
X9635573D02*
X9686373Y3064435D01*
X9737173Y3013635D01*
X9686373Y2962835D01*
X9635573Y3013635D01*
X9736538D02*
X9787338Y3064435D01*
X9838138Y3013635D01*
X9787338Y2962835D01*
X9736538Y3013635D01*
X9837503D02*
X9888303Y3064435D01*
X9939103Y3013635D01*
X9888303Y2962835D01*
X9837503Y3013635D01*
X9938468D02*
X9989268Y3064435D01*
X10040068Y3013635D01*
X9989268Y2962835D01*
X9938468Y3013635D01*
X10039433D02*
X10090233Y3064435D01*
X10141033Y3013635D01*
X10090233Y2962835D01*
X10039433Y3013635D01*
X12141755Y1396675D02*
Y1498275D01*
X12243355D01*
Y1396675D01*
X12141755D01*
X12162075Y1416995D02*
Y1477955D01*
X12223035D01*
Y1416995D01*
X12162075D01*
X12197055Y1452855D02*
Y1554455D01*
X12298655D01*
Y1452855D01*
X12197055D01*
X12217375Y1473175D02*
Y1534135D01*
X12278335D01*
Y1473175D01*
X12217375D01*
X12142898Y1341095D02*
Y1442695D01*
X12244498D01*
Y1341095D01*
X12142898D01*
X12163218Y1361415D02*
Y1422375D01*
X12224178D01*
Y1361415D01*
X12163218D01*
X12197055Y1341095D02*
Y1442695D01*
X12298655D01*
Y1341095D01*
X12197055D01*
X12217375Y1361415D02*
Y1422375D01*
X12278335D01*
Y1361415D01*
X12217375D01*
X10234188Y2637195D02*
X10284988Y2687995D01*
X10335788Y2637195D01*
X10284988Y2586395D01*
X10234188Y2637195D01*
X9234705Y2641221D02*
X9285505Y2692021D01*
X9336305Y2641221D01*
X9285505Y2590421D01*
X9234705Y2641221D01*
X11976413Y1452855D02*
Y1554455D01*
X12078013D01*
Y1452855D01*
X11976413D01*
X11996733Y1473175D02*
Y1534135D01*
X12057693D01*
Y1473175D01*
X11996733D01*
X12031675Y1506251D02*
Y1607851D01*
X12133275D01*
Y1506251D01*
X12031675D01*
X12051995Y1526571D02*
Y1587531D01*
X12112955D01*
Y1526571D01*
X12051995D01*
X12031595Y1452855D02*
Y1554455D01*
X12133195D01*
Y1452855D01*
X12031595D01*
X12051915Y1473175D02*
Y1534135D01*
X12112875D01*
Y1473175D01*
X12051915D01*
X13106175Y2370838D02*
X13156975Y2421638D01*
X13207774Y2370838D01*
X13156975Y2320038D01*
X13106175Y2370838D01*
X13233176D02*
X13283975Y2421638D01*
X13334775Y2370838D01*
X13283975Y2320038D01*
X13233176Y2370838D01*
X13360175D02*
X13410976Y2421638D01*
X13461775Y2370838D01*
X13410976Y2320038D01*
X13360175Y2370838D01*
X13561674Y2337475D02*
X13612474Y2388275D01*
X13663274Y2337475D01*
X13612474Y2286675D01*
X13561674Y2337475D01*
X13754173Y2338338D02*
X13804974Y2389138D01*
X13855774Y2338338D01*
X13804974Y2287538D01*
X13754173Y2338338D01*
X13946674Y2337475D02*
X13997475Y2388275D01*
X14048274Y2337475D01*
X13997475Y2286675D01*
X13946674Y2337475D01*
X13514175Y2532838D02*
X13564975Y2583638D01*
X13615775Y2532838D01*
X13564975Y2482038D01*
X13514175Y2532838D01*
Y2659838D02*
X13564975Y2710638D01*
X13615775Y2659838D01*
X13564975Y2609038D01*
X13514175Y2659838D01*
Y2786838D02*
X13564975Y2837638D01*
X13615775Y2786838D01*
X13564975Y2736038D01*
X13514175Y2786838D01*
X15007796Y1472255D02*
X15058595Y1523055D01*
X15109395Y1472255D01*
X15058595Y1421455D01*
X15007796Y1472255D01*
Y1412255D02*
X15058595Y1463055D01*
X15109395Y1412255D01*
X15058595Y1361455D01*
X15007796Y1412255D01*
X14942795Y1472255D02*
X14993594Y1523055D01*
X15044395Y1472255D01*
X14993594Y1421455D01*
X14942795Y1472255D01*
Y1412255D02*
X14993594Y1463055D01*
X15044395Y1412255D01*
X14993594Y1361455D01*
X14942795Y1412255D01*
X15008675Y1269975D02*
X15059476Y1320775D01*
X15110275Y1269975D01*
X15059476Y1219175D01*
X15008675Y1269975D01*
Y1209975D02*
X15059476Y1260775D01*
X15110275Y1209975D01*
X15059476Y1159175D01*
X15008675Y1209975D01*
X14943675Y1269975D02*
X14994475Y1320775D01*
X15045274Y1269975D01*
X14994475Y1219175D01*
X14943675Y1269975D01*
Y1209975D02*
X14994475Y1260775D01*
X15045274Y1209975D01*
X14994475Y1159175D01*
X14943675Y1209975D01*
X13561674Y2177475D02*
X13612474Y2228275D01*
X13663274Y2177475D01*
X13612474Y2126675D01*
X13561674Y2177475D01*
X13754173Y2178338D02*
X13804974Y2229138D01*
X13855774Y2178338D01*
X13804974Y2127538D01*
X13754173Y2178338D01*
X13946674Y2177475D02*
X13997475Y2228275D01*
X14048274Y2177475D01*
X13997475Y2126675D01*
X13946674Y2177475D01*
X14815326Y1441110D02*
X14866125Y1491910D01*
X14916927Y1441110D01*
X14866125Y1390310D01*
X14815326Y1441110D01*
Y1238610D02*
X14866125Y1289410D01*
X14916927Y1238610D01*
X14866125Y1187810D01*
X14815326Y1238610D01*
X9956775Y2212315D02*
X10007575Y2263115D01*
X10058375Y2212315D01*
X10007575Y2161515D01*
X9956775Y2212315D01*
X10378415Y2214715D02*
X10429215Y2265515D01*
X10480015Y2214715D01*
X10429215Y2163915D01*
X10378415Y2214715D01*
Y2157188D02*
X10429215Y2207988D01*
X10480015Y2157188D01*
X10429215Y2106388D01*
X10378415Y2157188D01*
Y2042135D02*
X10429215Y2092935D01*
X10480015Y2042135D01*
X10429215Y1991335D01*
X10378415Y2042135D01*
Y2099661D02*
X10429215Y2150461D01*
X10480015Y2099661D01*
X10429215Y2048861D01*
X10378415Y2099661D01*
X14752295Y1762555D02*
X14803094Y1813355D01*
X14853896Y1762555D01*
X14803094Y1711755D01*
X14752295Y1762555D01*
Y1705028D02*
X14803094Y1755828D01*
X14853896Y1705028D01*
X14803094Y1654228D01*
X14752295Y1705028D01*
Y1589975D02*
X14803094Y1640775D01*
X14853896Y1589975D01*
X14803094Y1539175D01*
X14752295Y1589975D01*
Y1647502D02*
X14803094Y1698302D01*
X14853896Y1647502D01*
X14803094Y1596702D01*
X14752295Y1647502D01*
X6236675Y2250392D02*
X6287475Y2301192D01*
X6338275Y2250392D01*
X6287475Y2199592D01*
X6236675Y2250392D01*
X7837331Y1432535D02*
X7862731Y1457935D01*
X7888131D01*
X7862731Y1483335D01*
X7888131Y1508735D01*
X7862731D01*
X7837331Y1534135D01*
X7811931Y1508735D01*
X7786531D01*
X7811931Y1483335D01*
X7786531Y1457935D01*
X7811931D01*
X7837331Y1432535D01*
X1877443Y1509555D02*
X1902843Y1534955D01*
X1928243D01*
X1902843Y1560355D01*
X1928243Y1585755D01*
X1902843D01*
X1877443Y1611155D01*
X1852043Y1585755D01*
X1826643D01*
X1852043Y1560355D01*
X1826643Y1534955D01*
X1852043D01*
X1877443Y1509555D01*
X2019275Y1935636D02*
X2044675Y1961036D01*
X2070075D01*
X2044675Y1986436D01*
X2070075Y2011836D01*
X2044675D01*
X2019275Y2037236D01*
X1993875Y2011836D01*
X1968475D01*
X1993875Y1986436D01*
X1968475Y1961036D01*
X1993875D01*
X2019275Y1935636D01*
X4698975Y1630655D02*
X4724375Y1656055D01*
X4749775D01*
X4724375Y1681455D01*
X4749775Y1706855D01*
X4724375D01*
X4698975Y1732255D01*
X4673575Y1706855D01*
X4648175D01*
X4673575Y1681455D01*
X4648175Y1656055D01*
X4673575D01*
X4698975Y1630655D01*
Y1567155D02*
X4724375Y1592555D01*
X4749775D01*
X4724375Y1617955D01*
X4749775Y1643355D01*
X4724375D01*
X4698975Y1668755D01*
X4673575Y1643355D01*
X4648175D01*
X4673575Y1617955D01*
X4648175Y1592555D01*
X4673575D01*
X4698975Y1567155D01*
X4422475Y1543375D02*
X4447875Y1568775D01*
X4473275D01*
X4447875Y1594175D01*
X4473275Y1619575D01*
X4447875D01*
X4422475Y1644975D01*
X4397075Y1619575D01*
X4371675D01*
X4397075Y1594175D01*
X4371675Y1568775D01*
X4397075D01*
X4422475Y1543375D01*
Y1653375D02*
X4447875Y1678775D01*
X4473275D01*
X4447875Y1704175D01*
X4473275Y1729575D01*
X4447875D01*
X4422475Y1754975D01*
X4397075Y1729575D01*
X4371675D01*
X4397075Y1704175D01*
X4371675Y1678775D01*
X4397075D01*
X4422475Y1653375D01*
X4422115Y1724635D02*
X4447515Y1750035D01*
X4472915D01*
X4447515Y1775435D01*
X4472915Y1800835D01*
X4447515D01*
X4422115Y1826235D01*
X4396715Y1800835D01*
X4371315D01*
X4396715Y1775435D01*
X4371315Y1750035D01*
X4396715D01*
X4422115Y1724635D01*
Y1474333D02*
X4447515Y1499733D01*
X4472915D01*
X4447515Y1525133D01*
X4472915Y1550533D01*
X4447515D01*
X4422115Y1575933D01*
X4396715Y1550533D01*
X4371315D01*
X4396715Y1525133D01*
X4371315Y1499733D01*
X4396715D01*
X4422115Y1474333D01*
X1581826Y1750436D02*
X1632626Y1801236D01*
X1683426Y1750436D01*
X1632626Y1699636D01*
X1581826Y1750436D01*
Y1694155D02*
X1632626Y1744955D01*
X1683426Y1694155D01*
X1632626Y1643355D01*
X1581826Y1694155D01*
X14335735Y1760055D02*
X14386536Y1810855D01*
X14437335Y1760055D01*
X14386536Y1709255D01*
X14335735Y1760055D01*
Y1702528D02*
X14386536Y1753328D01*
X14437335Y1702528D01*
X14386536Y1651728D01*
X14335735Y1702528D01*
Y1587475D02*
X14386536Y1638275D01*
X14437335Y1587475D01*
X14386536Y1536675D01*
X14335735Y1587475D01*
Y1645001D02*
X14386536Y1695801D01*
X14437335Y1645001D01*
X14386536Y1594201D01*
X14335735Y1645001D01*
X14102055Y1163763D02*
X14152855Y1214563D01*
X14203654Y1163763D01*
X14152855Y1112963D01*
X14102055Y1163763D01*
X14042055D02*
X14092854Y1214563D01*
X14143655Y1163763D01*
X14092854Y1112963D01*
X14042055Y1163763D01*
X13982056D02*
X14032855Y1214563D01*
X14083655Y1163763D01*
X14032855Y1112963D01*
X13982056Y1163763D01*
X13922055D02*
X13972855Y1214563D01*
X14023656Y1163763D01*
X13972855Y1112963D01*
X13922055Y1163763D01*
X13538174Y1162779D02*
X13588976Y1213579D01*
X13639775Y1162779D01*
X13588976Y1111979D01*
X13538174Y1162779D01*
X13478175D02*
X13528975Y1213579D01*
X13579774Y1162779D01*
X13528975Y1111979D01*
X13478175Y1162779D01*
X13418175D02*
X13468974Y1213579D01*
X13519775Y1162779D01*
X13468974Y1111979D01*
X13418175Y1162779D01*
X13358176D02*
X13408975Y1213579D01*
X13459775Y1162779D01*
X13408975Y1111979D01*
X13358176Y1162779D01*
X13236534Y1227475D02*
X13287334Y1278275D01*
X13338133Y1227475D01*
X13287334Y1176675D01*
X13236534Y1227475D01*
X13296535Y1162474D02*
X13347334Y1213274D01*
X13398134Y1162474D01*
X13347334Y1111674D01*
X13296535Y1162474D01*
X14102055Y1228763D02*
X14152855Y1279563D01*
X14203654Y1228763D01*
X14152855Y1177963D01*
X14102055Y1228763D01*
X14042055D02*
X14092854Y1279563D01*
X14143655Y1228763D01*
X14092854Y1177963D01*
X14042055Y1228763D01*
X13982056D02*
X14032855Y1279563D01*
X14083655Y1228763D01*
X14032855Y1177963D01*
X13982056Y1228763D01*
X13922055D02*
X13972855Y1279563D01*
X14023656Y1228763D01*
X13972855Y1177963D01*
X13922055Y1228763D01*
X13538174Y1227779D02*
X13588976Y1278579D01*
X13639775Y1227779D01*
X13588976Y1176979D01*
X13538174Y1227779D01*
X13478175D02*
X13528975Y1278579D01*
X13579774Y1227779D01*
X13528975Y1176979D01*
X13478175Y1227779D01*
X13418175D02*
X13468974Y1278579D01*
X13519775Y1227779D01*
X13468974Y1176979D01*
X13418175Y1227779D01*
X13358176D02*
X13408975Y1278579D01*
X13459775Y1227779D01*
X13408975Y1176979D01*
X13358176Y1227779D01*
X13296535Y1227475D02*
X13347334Y1278275D01*
X13398134Y1227475D01*
X13347334Y1176675D01*
X13296535Y1227475D01*
X14673715Y1141675D02*
X14699115Y1167075D01*
X14724515D01*
X14699115Y1192475D01*
X14724515Y1217875D01*
X14699115D01*
X14673715Y1243275D01*
X14648315Y1217875D01*
X14622916D01*
X14648315Y1192475D01*
X14622916Y1167075D01*
X14648315D01*
X14673715Y1141675D01*
X14513715Y1141675D02*
X14539114Y1167075D01*
X14564516D01*
X14539114Y1192475D01*
X14564516Y1217875D01*
X14539114D01*
X14513715Y1243275D01*
X14488315Y1217875D01*
X14462915D01*
X14488315Y1192475D01*
X14462915Y1167075D01*
X14488315D01*
X14513715Y1141675D01*
X10810675Y2319175D02*
Y2420775D01*
X10912275D01*
Y2319175D01*
X10810675D01*
X10830995Y2339495D02*
Y2400455D01*
X10891955D01*
Y2339495D01*
X10830995D01*
X10654175Y2481175D02*
Y2582775D01*
X10755775D01*
Y2481175D01*
X10654175D01*
X10674495Y2501495D02*
Y2562455D01*
X10735455D01*
Y2501495D01*
X10674495D01*
X11209175Y2531975D02*
X11259975Y2582775D01*
X11310775Y2531975D01*
X11259975Y2481175D01*
X11209175Y2531975D01*
Y2658975D02*
X11259975Y2709775D01*
X11310775Y2658975D01*
X11259975Y2608175D01*
X11209175Y2658975D01*
Y2785975D02*
X11259975Y2836775D01*
X11310775Y2785975D01*
X11259975Y2735175D01*
X11209175Y2785975D01*
Y2912975D02*
X11259975Y2963775D01*
X11310775Y2912975D01*
X11259975Y2862175D01*
X11209175Y2912975D01*
X10805315D02*
X10856115Y2963775D01*
X10906915Y2912975D01*
X10856115Y2862175D01*
X10805315Y2912975D01*
Y2785975D02*
X10856115Y2836775D01*
X10906915Y2785975D01*
X10856115Y2735175D01*
X10805315Y2785975D01*
Y2658975D02*
X10856115Y2709775D01*
X10906915Y2658975D01*
X10856115Y2608175D01*
X10805315Y2658975D01*
Y2531975D02*
X10856115Y2582775D01*
X10906915Y2531975D01*
X10856115Y2481175D01*
X10805315Y2531975D01*
X10805135Y2722855D02*
X10855935Y2773655D01*
X10906735Y2722855D01*
X10855935Y2672055D01*
X10805135Y2722855D01*
X10805315Y2849855D02*
X10856115Y2900655D01*
X10906915Y2849855D01*
X10856115Y2799055D01*
X10805315Y2849855D01*
Y2595855D02*
X10856115Y2646655D01*
X10906915Y2595855D01*
X10856115Y2545055D01*
X10805315Y2595855D01*
X10975855Y2912595D02*
X11026655Y2963395D01*
X11077455Y2912595D01*
X11026655Y2861795D01*
X10975855Y2912595D01*
Y2785595D02*
X11026655Y2836395D01*
X11077455Y2785595D01*
X11026655Y2734795D01*
X10975855Y2785595D01*
Y2658595D02*
X11026655Y2709395D01*
X11077455Y2658595D01*
X11026655Y2607795D01*
X10975855Y2658595D01*
Y2531595D02*
X11026655Y2582395D01*
X11077455Y2531595D01*
X11026655Y2480795D01*
X10975855Y2531595D01*
X10975675Y2722475D02*
X11026475Y2773275D01*
X11077275Y2722475D01*
X11026475Y2671675D01*
X10975675Y2722475D01*
X10975855Y2849475D02*
X11026655Y2900275D01*
X11077455Y2849475D01*
X11026655Y2798675D01*
X10975855Y2849475D01*
Y2595475D02*
X11026655Y2646275D01*
X11077455Y2595475D01*
X11026655Y2544675D01*
X10975855Y2595475D01*
X13193855Y2912458D02*
X13244655Y2963258D01*
X13295454Y2912458D01*
X13244655Y2861658D01*
X13193855Y2912458D01*
Y2785458D02*
X13244655Y2836258D01*
X13295454Y2785458D01*
X13244655Y2734658D01*
X13193855Y2785458D01*
Y2658458D02*
X13244655Y2709258D01*
X13295454Y2658458D01*
X13244655Y2607658D01*
X13193855Y2658458D01*
Y2531458D02*
X13244655Y2582258D01*
X13295454Y2531458D01*
X13244655Y2480658D01*
X13193855Y2531458D01*
X13193675Y2722338D02*
X13244475Y2773138D01*
X13295274Y2722338D01*
X13244475Y2671538D01*
X13193675Y2722338D01*
X13193855Y2849338D02*
X13244655Y2900138D01*
X13295454Y2849338D01*
X13244655Y2798538D01*
X13193855Y2849338D01*
Y2595338D02*
X13244655Y2646138D01*
X13295454Y2595338D01*
X13244655Y2544538D01*
X13193855Y2595338D01*
X13360555Y2913458D02*
X13411356Y2964258D01*
X13462155Y2913458D01*
X13411356Y2862658D01*
X13360555Y2913458D01*
Y2786458D02*
X13411356Y2837258D01*
X13462155Y2786458D01*
X13411356Y2735658D01*
X13360555Y2786458D01*
Y2659458D02*
X13411356Y2710258D01*
X13462155Y2659458D01*
X13411356Y2608658D01*
X13360555Y2659458D01*
Y2532458D02*
X13411356Y2583258D01*
X13462155Y2532458D01*
X13411356Y2481658D01*
X13360555Y2532458D01*
X13360374Y2723338D02*
X13411176Y2774138D01*
X13461975Y2723338D01*
X13411176Y2672538D01*
X13360374Y2723338D01*
X13360555Y2850338D02*
X13411356Y2901138D01*
X13462155Y2850338D01*
X13411356Y2799538D01*
X13360555Y2850338D01*
Y2596338D02*
X13411356Y2647138D01*
X13462155Y2596338D01*
X13411356Y2545538D01*
X13360555Y2596338D01*
X10811055Y2048655D02*
X10861855Y2099455D01*
X10912655Y2048655D01*
X10861855Y1997855D01*
X10811055Y2048655D01*
X10938055D02*
X10988855Y2099455D01*
X11039655Y2048655D01*
X10988855Y1997855D01*
X10938055Y2048655D01*
X11065055D02*
X11115855Y2099455D01*
X11166655Y2048655D01*
X11115855Y1997855D01*
X11065055Y2048655D01*
X11192055D02*
X11242855Y2099455D01*
X11293655Y2048655D01*
X11242855Y1997855D01*
X11192055Y2048655D01*
X11001175Y2048475D02*
X11051975Y2099275D01*
X11102775Y2048475D01*
X11051975Y1997675D01*
X11001175Y2048475D01*
X10874175Y2048655D02*
X10924975Y2099455D01*
X10975775Y2048655D01*
X10924975Y1997855D01*
X10874175Y2048655D01*
X11128175D02*
X11178975Y2099455D01*
X11229775Y2048655D01*
X11178975Y1997855D01*
X11128175Y2048655D01*
X13359795Y2049158D02*
X13410596Y2099958D01*
X13461395Y2049158D01*
X13410596Y1998358D01*
X13359795Y2049158D01*
X13232796D02*
X13283595Y2099958D01*
X13334395Y2049158D01*
X13283595Y1998358D01*
X13232796Y2049158D01*
X13105795D02*
X13156595Y2099958D01*
X13207394Y2049158D01*
X13156595Y1998358D01*
X13105795Y2049158D01*
X12978795D02*
X13029594Y2099958D01*
X13080396Y2049158D01*
X13029594Y1998358D01*
X12978795Y2049158D01*
X13169675Y2049338D02*
X13220474Y2100138D01*
X13271275Y2049338D01*
X13220474Y1998538D01*
X13169675Y2049338D01*
X13296675Y2049158D02*
X13347475Y2099958D01*
X13398276Y2049158D01*
X13347475Y1998358D01*
X13296675Y2049158D01*
X13042674D02*
X13093475Y2099958D01*
X13144275Y2049158D01*
X13093475Y1998358D01*
X13042674Y2049158D01*
X13359296Y2217214D02*
X13410095Y2268014D01*
X13460895Y2217214D01*
X13410095Y2166414D01*
X13359296Y2217214D01*
X13232295D02*
X13283095Y2268014D01*
X13333894Y2217214D01*
X13283095Y2166414D01*
X13232295Y2217214D01*
X13105295D02*
X13156094Y2268014D01*
X13206895Y2217214D01*
X13156094Y2166414D01*
X13105295Y2217214D01*
X12978294D02*
X13029095Y2268014D01*
X13079895Y2217214D01*
X13029095Y2166414D01*
X12978294Y2217214D01*
X13169176Y2217395D02*
X13219975Y2268195D01*
X13270775Y2217395D01*
X13219975Y2166595D01*
X13169176Y2217395D01*
X13296175Y2217214D02*
X13346976Y2268014D01*
X13397775Y2217214D01*
X13346976Y2166414D01*
X13296175Y2217214D01*
X13042175D02*
X13092975Y2268014D01*
X13143774Y2217214D01*
X13092975Y2166414D01*
X13042175Y2217214D01*
X11191294Y2161334D02*
X11242094Y2212134D01*
X11292894Y2161334D01*
X11242094Y2110534D01*
X11191294Y2161334D01*
X11064294D02*
X11115094Y2212134D01*
X11165894Y2161334D01*
X11115094Y2110534D01*
X11064294Y2161334D01*
X10937294D02*
X10988094Y2212134D01*
X11038894Y2161334D01*
X10988094Y2110534D01*
X10937294Y2161334D01*
X10810294D02*
X10861094Y2212134D01*
X10911894Y2161334D01*
X10861094Y2110534D01*
X10810294Y2161334D01*
X11001174Y2161515D02*
X11051974Y2212315D01*
X11102774Y2161515D01*
X11051974Y2110715D01*
X11001174Y2161515D01*
X11128174Y2161334D02*
X11178974Y2212134D01*
X11229774Y2161334D01*
X11178974Y2110534D01*
X11128174Y2161334D01*
X10874174D02*
X10924974Y2212134D01*
X10975774Y2161334D01*
X10924974Y2110534D01*
X10874174Y2161334D01*
X10810675Y1814975D02*
X10861475Y1865775D01*
X10912275Y1814975D01*
X10861475Y1764175D01*
X10810675Y1814975D01*
X10937675D02*
X10988475Y1865775D01*
X11039275Y1814975D01*
X10988475Y1764175D01*
X10937675Y1814975D01*
X11064675D02*
X11115475Y1865775D01*
X11166275Y1814975D01*
X11115475Y1764175D01*
X11064675Y1814975D01*
X11191675D02*
X11242475Y1865775D01*
X11293275Y1814975D01*
X11242475Y1764175D01*
X11191675Y1814975D01*
X12979175Y1815838D02*
X13029974Y1866638D01*
X13080775Y1815838D01*
X13029974Y1765038D01*
X12979175Y1815838D01*
X13106175D02*
X13156975Y1866638D01*
X13207774Y1815838D01*
X13156975Y1765038D01*
X13106175Y1815838D01*
X13233176D02*
X13283975Y1866638D01*
X13334775Y1815838D01*
X13283975Y1765038D01*
X13233176Y1815838D01*
X13360175D02*
X13410976Y1866638D01*
X13461775Y1815838D01*
X13410976Y1765038D01*
X13360175Y1815838D01*
X13359995Y1884474D02*
X13410796Y1935274D01*
X13461595Y1884474D01*
X13410796Y1833674D01*
X13359995Y1884474D01*
X13232996D02*
X13283795Y1935274D01*
X13334595Y1884474D01*
X13283795Y1833674D01*
X13232996Y1884474D01*
X13105995D02*
X13156795Y1935274D01*
X13207594Y1884474D01*
X13156795Y1833674D01*
X13105995Y1884474D01*
X12978995D02*
X13029794Y1935274D01*
X13080595Y1884474D01*
X13029794Y1833674D01*
X12978995Y1884474D01*
X13169875Y1884655D02*
X13220676Y1935455D01*
X13271475Y1884655D01*
X13220676Y1833855D01*
X13169875Y1884655D01*
X13296875Y1884474D02*
X13347675Y1935274D01*
X13398476Y1884474D01*
X13347675Y1833674D01*
X13296875Y1884474D01*
X13042876D02*
X13093675Y1935274D01*
X13144475Y1884474D01*
X13093675Y1833674D01*
X13042876Y1884474D01*
X11191295Y1885234D02*
X11242095Y1936034D01*
X11292895Y1885234D01*
X11242095Y1834434D01*
X11191295Y1885234D01*
X11064295D02*
X11115095Y1936034D01*
X11165895Y1885234D01*
X11115095Y1834434D01*
X11064295Y1885234D01*
X10937295D02*
X10988095Y1936034D01*
X11038895Y1885234D01*
X10988095Y1834434D01*
X10937295Y1885234D01*
X10810295D02*
X10861095Y1936034D01*
X10911895Y1885234D01*
X10861095Y1834434D01*
X10810295Y1885234D01*
X11001175Y1885415D02*
X11051975Y1936215D01*
X11102775Y1885415D01*
X11051975Y1834615D01*
X11001175Y1885415D01*
X11128175Y1885234D02*
X11178975Y1936034D01*
X11229775Y1885234D01*
X11178975Y1834434D01*
X11128175Y1885234D01*
X10874175D02*
X10924975Y1936034D01*
X10975775Y1885234D01*
X10924975Y1834434D01*
X10874175Y1885234D01*
X11140595Y2914330D02*
X11191395Y2965130D01*
X11242195Y2914330D01*
X11191395Y2863530D01*
X11140595Y2914330D01*
Y2787330D02*
X11191395Y2838130D01*
X11242195Y2787330D01*
X11191395Y2736530D01*
X11140595Y2787330D01*
Y2660330D02*
X11191395Y2711130D01*
X11242195Y2660330D01*
X11191395Y2609530D01*
X11140595Y2660330D01*
Y2533330D02*
X11191395Y2584130D01*
X11242195Y2533330D01*
X11191395Y2482530D01*
X11140595Y2533330D01*
X11140415Y2724210D02*
X11191215Y2775010D01*
X11242015Y2724210D01*
X11191215Y2673410D01*
X11140415Y2724210D01*
X11140595Y2851210D02*
X11191395Y2902010D01*
X11242195Y2851210D01*
X11191395Y2800410D01*
X11140595Y2851210D01*
Y2597210D02*
X11191395Y2648010D01*
X11242195Y2597210D01*
X11191395Y2546410D01*
X11140595Y2597210D01*
X12960175Y2531838D02*
X13010974Y2582638D01*
X13061774Y2531838D01*
X13010974Y2481038D01*
X12960175Y2531838D01*
Y2658838D02*
X13010974Y2709638D01*
X13061774Y2658838D01*
X13010974Y2608038D01*
X12960175Y2658838D01*
Y2785838D02*
X13010974Y2836638D01*
X13061774Y2785838D01*
X13010974Y2735038D01*
X12960175Y2785838D01*
Y2912838D02*
X13010974Y2963638D01*
X13061774Y2912838D01*
X13010974Y2862038D01*
X12960175Y2912838D01*
X13032533Y2530195D02*
X13083334Y2580995D01*
X13134134Y2530195D01*
X13083334Y2479395D01*
X13032533Y2530195D01*
Y2657195D02*
X13083334Y2707995D01*
X13134134Y2657195D01*
X13083334Y2606395D01*
X13032533Y2657195D01*
Y2784195D02*
X13083334Y2834995D01*
X13134134Y2784195D01*
X13083334Y2733395D01*
X13032533Y2784195D01*
Y2911195D02*
X13083334Y2961995D01*
X13134134Y2911195D01*
X13083334Y2860395D01*
X13032533Y2911195D01*
X13032715Y2720315D02*
X13083514Y2771115D01*
X13134315Y2720315D01*
X13083514Y2669515D01*
X13032715Y2720315D01*
X13032533Y2593315D02*
X13083334Y2644115D01*
X13134134Y2593315D01*
X13083334Y2542515D01*
X13032533Y2593315D01*
Y2847315D02*
X13083334Y2898115D01*
X13134134Y2847315D01*
X13083334Y2796515D01*
X13032533Y2847315D01*
X10573175Y1883096D02*
X10623975Y1933896D01*
X10674775Y1883096D01*
X10623975Y1832296D01*
X10573175Y1883096D01*
X10661175D02*
X10711975Y1933896D01*
X10762775Y1883096D01*
X10711975Y1832296D01*
X10661175Y1883096D01*
X10572595Y1991996D02*
X10623395Y2042796D01*
X10674195Y1991996D01*
X10623395Y1941196D01*
X10572595Y1991996D01*
X10660595D02*
X10711395Y2042796D01*
X10762195Y1991996D01*
X10711395Y1941196D01*
X10660595Y1991996D01*
X10654675Y3024975D02*
X10705475Y3075775D01*
X10756275Y3024975D01*
X10705475Y2974175D01*
X10654675Y3024975D01*
X11303675Y2369475D02*
X11354475Y2420275D01*
X11405275Y2369475D01*
X11354475Y2318675D01*
X11303675Y2369475D01*
X13395403Y2415007D02*
X13446202Y2465807D01*
X13497002Y2415007D01*
X13446202Y2364207D01*
X13395403Y2415007D01*
X13072855Y1549587D02*
X13123656Y1600387D01*
X13174455Y1549587D01*
X13123656Y1498787D01*
X13072855Y1549587D01*
X13072839Y1705595D02*
X13123639Y1756395D01*
X13174438Y1705595D01*
X13123639Y1654795D01*
X13072839Y1705595D01*
X11489175Y1690334D02*
Y1791934D01*
X11590775D01*
Y1690334D01*
X11489175D01*
X11509495Y1710654D02*
Y1771614D01*
X11570455D01*
Y1710654D01*
X11509495D01*
X12031595Y1396675D02*
Y1498275D01*
X12133195D01*
Y1396675D01*
X12031595D01*
X12051915Y1416995D02*
Y1477955D01*
X12112875D01*
Y1416995D01*
X12051915D01*
X12086675Y1341595D02*
Y1443195D01*
X12188275D01*
Y1341595D01*
X12086675D01*
X12106995Y1361915D02*
Y1422875D01*
X12167955D01*
Y1361915D01*
X12106995D01*
X12031713Y1340555D02*
Y1442155D01*
X12133313D01*
Y1340555D01*
X12031713D01*
X12052033Y1360875D02*
Y1421835D01*
X12112993D01*
Y1360875D01*
X12052033D01*
X11976075Y1341514D02*
Y1443114D01*
X12077675D01*
Y1341514D01*
X11976075D01*
X11996395Y1361834D02*
Y1422794D01*
X12057355D01*
Y1361834D01*
X11996395D01*
X12031955Y1286675D02*
Y1388275D01*
X12133555D01*
Y1286675D01*
X12031955D01*
X12052275Y1306995D02*
Y1367955D01*
X12113235D01*
Y1306995D01*
X12052275D01*
X12044315Y1878109D02*
Y1979709D01*
X12145915D01*
Y1878109D01*
X12044315D01*
X12064635Y1898429D02*
Y1959389D01*
X12125595D01*
Y1898429D01*
X12064635D01*
X10663168Y1175995D02*
X10688568Y1201395D01*
X10713968D01*
X10688568Y1226795D01*
X10713968Y1252195D01*
X10688568D01*
X10663168Y1277595D01*
X10637768Y1252195D01*
X10612368D01*
X10637768Y1226795D01*
X10612368Y1201395D01*
X10637768D01*
X10663168Y1175995D01*
X11231926Y1176675D02*
X11257326Y1202075D01*
X11282726D01*
X11257326Y1227475D01*
X11282726Y1252875D01*
X11257326D01*
X11231926Y1278275D01*
X11206526Y1252875D01*
X11181126D01*
X11206526Y1227475D01*
X11181126Y1202075D01*
X11206526D01*
X11231926Y1176675D01*
X11539975Y1343635D02*
X11565375Y1369035D01*
X11590775D01*
X11565375Y1394435D01*
X11590775Y1419835D01*
X11565375D01*
X11539975Y1445235D01*
X11514575Y1419835D01*
X11489175D01*
X11514575Y1394435D01*
X11489175Y1369035D01*
X11514575D01*
X11539975Y1343635D01*
X11096926Y1176675D02*
X11122326Y1202075D01*
X11147726D01*
X11122326Y1227475D01*
X11147726Y1252875D01*
X11122326D01*
X11096926Y1278275D01*
X11071526Y1252875D01*
X11046126D01*
X11071526Y1227475D01*
X11046126Y1202075D01*
X11071526D01*
X11096926Y1176675D01*
X12200721Y1885351D02*
Y1986951D01*
X12302321D01*
Y1885351D01*
X12200721D01*
X12221041Y1905671D02*
Y1966631D01*
X12282001D01*
Y1905671D01*
X12221041D01*
X12086675Y1451755D02*
Y1553355D01*
X12188275D01*
Y1451755D01*
X12086675D01*
X12106995Y1472075D02*
Y1533035D01*
X12167955D01*
Y1472075D01*
X12106995D01*
X12141755Y1506675D02*
Y1608275D01*
X12243355D01*
Y1506675D01*
X12141755D01*
X12162075Y1526995D02*
Y1587955D01*
X12223035D01*
Y1526995D01*
X12162075D01*
X12187315Y1599175D02*
Y1700775D01*
X12288915D01*
Y1599175D01*
X12187315D01*
X12207635Y1619495D02*
Y1680455D01*
X12268595D01*
Y1619495D01*
X12207635D01*
X12141755Y1451755D02*
Y1553355D01*
X12243355D01*
Y1451755D01*
X12141755D01*
X12162075Y1472075D02*
Y1533035D01*
X12223035D01*
Y1472075D01*
X12162075D01*
X8917735Y1606484D02*
X8943135Y1631884D01*
X8968535D01*
X8943135Y1657284D01*
X8968535Y1682684D01*
X8943135D01*
X8917735Y1708084D01*
X8892335Y1682684D01*
X8866935D01*
X8892335Y1657284D01*
X8866935Y1631884D01*
X8892335D01*
X8917735Y1606484D01*
X8745195D02*
X8770595Y1631884D01*
X8795995D01*
X8770595Y1657284D01*
X8795995Y1682684D01*
X8770595D01*
X8745195Y1708084D01*
X8719795Y1682684D01*
X8694395D01*
X8719795Y1657284D01*
X8694395Y1631884D01*
X8719795D01*
X8745195Y1606484D01*
X9655023Y2374562D02*
X9680423Y2399962D01*
X9705823D01*
X9680423Y2425362D01*
X9705823Y2450762D01*
X9680423D01*
X9655023Y2476162D01*
X9629623Y2450762D01*
X9604223D01*
X9629623Y2425362D01*
X9604223Y2399962D01*
X9629623D01*
X9655023Y2374562D01*
X9711082Y2374887D02*
X9736482Y2400287D01*
X9761882D01*
X9736482Y2425687D01*
X9761882Y2451087D01*
X9736482D01*
X9711082Y2476487D01*
X9685682Y2451087D01*
X9660282D01*
X9685682Y2425687D01*
X9660282Y2400287D01*
X9685682D01*
X9711082Y2374887D01*
X9825382Y2375212D02*
X9850782Y2400612D01*
X9876182D01*
X9850782Y2426012D01*
X9876182Y2451412D01*
X9850782D01*
X9825382Y2476812D01*
X9799982Y2451412D01*
X9774582D01*
X9799982Y2426012D01*
X9774582Y2400612D01*
X9799982D01*
X9825382Y2375212D01*
X9655023Y2426348D02*
X9680423Y2451748D01*
X9705823D01*
X9680423Y2477148D01*
X9705823Y2502548D01*
X9680423D01*
X9655023Y2527948D01*
X9629623Y2502548D01*
X9604223D01*
X9629623Y2477148D01*
X9604223Y2451748D01*
X9629623D01*
X9655023Y2426348D01*
X9711082Y2426673D02*
X9736482Y2452073D01*
X9761882D01*
X9736482Y2477473D01*
X9761882Y2502873D01*
X9736482D01*
X9711082Y2528273D01*
X9685682Y2502873D01*
X9660282D01*
X9685682Y2477473D01*
X9660282Y2452073D01*
X9685682D01*
X9711082Y2426673D01*
X9655023Y2270991D02*
X9680423Y2296391D01*
X9705823D01*
X9680423Y2321791D01*
X9705823Y2347191D01*
X9680423D01*
X9655023Y2372591D01*
X9629623Y2347191D01*
X9604223D01*
X9629623Y2321791D01*
X9604223Y2296391D01*
X9629623D01*
X9655023Y2270991D01*
X9711082Y2219530D02*
X9736482Y2244930D01*
X9761882D01*
X9736482Y2270330D01*
X9761882Y2295730D01*
X9736482D01*
X9711082Y2321130D01*
X9685682Y2295730D01*
X9660282D01*
X9685682Y2270330D01*
X9660282Y2244930D01*
X9685682D01*
X9711082Y2219530D01*
X9769323Y2219206D02*
X9794723Y2244606D01*
X9820123D01*
X9794723Y2270006D01*
X9820123Y2295406D01*
X9794723D01*
X9769323Y2320806D01*
X9743923Y2295406D01*
X9718523D01*
X9743923Y2270006D01*
X9718523Y2244606D01*
X9743923D01*
X9769323Y2219206D01*
Y2270991D02*
X9794723Y2296391D01*
X9820123D01*
X9794723Y2321791D01*
X9820123Y2347191D01*
X9794723D01*
X9769323Y2372591D01*
X9743923Y2347191D01*
X9718523D01*
X9743923Y2321791D01*
X9718523Y2296391D01*
X9743923D01*
X9769323Y2270991D01*
X9825382Y2426997D02*
X9850782Y2452397D01*
X9876182D01*
X9850782Y2477797D01*
X9876182Y2503197D01*
X9850782D01*
X9825382Y2528597D01*
X9799982Y2503197D01*
X9774582D01*
X9799982Y2477797D01*
X9774582Y2452397D01*
X9799982D01*
X9825382Y2426997D01*
Y2219855D02*
X9850782Y2245255D01*
X9876182D01*
X9850782Y2270655D01*
X9876182Y2296055D01*
X9850782D01*
X9825382Y2321455D01*
X9799982Y2296055D01*
X9774582D01*
X9799982Y2270655D01*
X9774582Y2245255D01*
X9799982D01*
X9825382Y2219855D01*
X8785835Y2158850D02*
X8811235Y2184250D01*
X8836635D01*
X8811235Y2209650D01*
X8836635Y2235050D01*
X8811235D01*
X8785835Y2260450D01*
X8760435Y2235050D01*
X8735035D01*
X8760435Y2209650D01*
X8735035Y2184250D01*
X8760435D01*
X8785835Y2158850D01*
Y2210635D02*
X8811235Y2236035D01*
X8836635D01*
X8811235Y2261435D01*
X8836635Y2286835D01*
X8811235D01*
X8785835Y2312235D01*
X8760435Y2286835D01*
X8735035D01*
X8760435Y2261435D01*
X8735035Y2236035D01*
X8760435D01*
X8785835Y2210635D01*
X8841894Y2366641D02*
X8867294Y2392041D01*
X8892694D01*
X8867294Y2417441D01*
X8892694Y2442841D01*
X8867294D01*
X8841894Y2468241D01*
X8816494Y2442841D01*
X8791094D01*
X8816494Y2417441D01*
X8791094Y2392041D01*
X8816494D01*
X8841894Y2366641D01*
X8727594Y2159174D02*
X8752994Y2184574D01*
X8778394D01*
X8752994Y2209974D01*
X8778394Y2235374D01*
X8752994D01*
X8727594Y2260774D01*
X8702194Y2235374D01*
X8676794D01*
X8702194Y2209974D01*
X8676794Y2184574D01*
X8702194D01*
X8727594Y2159174D01*
X8841894Y2159499D02*
X8867294Y2184899D01*
X8892694D01*
X8867294Y2210299D01*
X8892694Y2235699D01*
X8867294D01*
X8841894Y2261099D01*
X8816494Y2235699D01*
X8791094D01*
X8816494Y2210299D01*
X8791094Y2184899D01*
X8816494D01*
X8841894Y2159499D01*
X8671535Y2210635D02*
X8696935Y2236035D01*
X8722335D01*
X8696935Y2261435D01*
X8722335Y2286835D01*
X8696935D01*
X8671535Y2312235D01*
X8646135Y2286835D01*
X8620735D01*
X8646135Y2261435D01*
X8620735Y2236035D01*
X8646135D01*
X8671535Y2210635D01*
X8841894Y2314855D02*
X8867294Y2340255D01*
X8892694D01*
X8867294Y2365655D01*
X8892694Y2391055D01*
X8867294D01*
X8841894Y2416455D01*
X8816494Y2391055D01*
X8791094D01*
X8816494Y2365655D01*
X8791094Y2340255D01*
X8816494D01*
X8841894Y2314855D01*
X8671535Y2314206D02*
X8696935Y2339606D01*
X8722335D01*
X8696935Y2365006D01*
X8722335Y2390406D01*
X8696935D01*
X8671535Y2415806D01*
X8646135Y2390406D01*
X8620735D01*
X8646135Y2365006D01*
X8620735Y2339606D01*
X8646135D01*
X8671535Y2314206D01*
X8727594Y2314531D02*
X8752994Y2339931D01*
X8778394D01*
X8752994Y2365331D01*
X8778394Y2390731D01*
X8752994D01*
X8727594Y2416131D01*
X8702194Y2390731D01*
X8676794D01*
X8702194Y2365331D01*
X8676794Y2339931D01*
X8702194D01*
X8727594Y2314531D01*
X9711082Y2323102D02*
X9736482Y2348502D01*
X9761882D01*
X9736482Y2373902D01*
X9761882Y2399302D01*
X9736482D01*
X9711082Y2424702D01*
X9685682Y2399302D01*
X9660282D01*
X9685682Y2373902D01*
X9660282Y2348502D01*
X9685682D01*
X9711082Y2323102D01*
Y2271316D02*
X9736482Y2296716D01*
X9761882D01*
X9736482Y2322116D01*
X9761882Y2347516D01*
X9736482D01*
X9711082Y2372916D01*
X9685682Y2347516D01*
X9660282D01*
X9685682Y2322116D01*
X9660282Y2296716D01*
X9685682D01*
X9711082Y2271316D01*
X9655023Y2219206D02*
X9680423Y2244606D01*
X9705823D01*
X9680423Y2270006D01*
X9705823Y2295406D01*
X9680423D01*
X9655023Y2320806D01*
X9629623Y2295406D01*
X9604223D01*
X9629623Y2270006D01*
X9604223Y2244606D01*
X9629623D01*
X9655023Y2219206D01*
Y2322777D02*
X9680423Y2348177D01*
X9705823D01*
X9680423Y2373577D01*
X9705823Y2398977D01*
X9680423D01*
X9655023Y2424377D01*
X9629623Y2398977D01*
X9604223D01*
X9629623Y2373577D01*
X9604223Y2348177D01*
X9629623D01*
X9655023Y2322777D01*
X9825382Y2271641D02*
X9850782Y2297041D01*
X9876182D01*
X9850782Y2322441D01*
X9876182Y2347841D01*
X9850782D01*
X9825382Y2373241D01*
X9799982Y2347841D01*
X9774582D01*
X9799982Y2322441D01*
X9774582Y2297041D01*
X9799982D01*
X9825382Y2271641D01*
Y2323426D02*
X9850782Y2348826D01*
X9876182D01*
X9850782Y2374226D01*
X9876182Y2399626D01*
X9850782D01*
X9825382Y2425026D01*
X9799982Y2399626D01*
X9774582D01*
X9799982Y2374226D01*
X9774582Y2348826D01*
X9799982D01*
X9825382Y2323426D01*
X9769323Y2322777D02*
X9794723Y2348177D01*
X9820123D01*
X9794723Y2373577D01*
X9820123Y2398977D01*
X9794723D01*
X9769323Y2424377D01*
X9743923Y2398977D01*
X9718523D01*
X9743923Y2373577D01*
X9718523Y2348177D01*
X9743923D01*
X9769323Y2322777D01*
Y2426348D02*
X9794723Y2451748D01*
X9820123D01*
X9794723Y2477148D01*
X9820123Y2502548D01*
X9794723D01*
X9769323Y2527948D01*
X9743923Y2502548D01*
X9718523D01*
X9743923Y2477148D01*
X9718523Y2451748D01*
X9743923D01*
X9769323Y2426348D01*
Y2374562D02*
X9794723Y2399962D01*
X9820123D01*
X9794723Y2425362D01*
X9820123Y2450762D01*
X9794723D01*
X9769323Y2476162D01*
X9743923Y2450762D01*
X9718523D01*
X9743923Y2425362D01*
X9718523Y2399962D01*
X9743923D01*
X9769323Y2374562D01*
X8671535Y2262421D02*
X8696935Y2287821D01*
X8722335D01*
X8696935Y2313221D01*
X8722335Y2338621D01*
X8696935D01*
X8671535Y2364021D01*
X8646135Y2338621D01*
X8620735D01*
X8646135Y2313221D01*
X8620735Y2287821D01*
X8646135D01*
X8671535Y2262421D01*
Y2158850D02*
X8696935Y2184250D01*
X8722335D01*
X8696935Y2209650D01*
X8722335Y2235050D01*
X8696935D01*
X8671535Y2260450D01*
X8646135Y2235050D01*
X8620735D01*
X8646135Y2209650D01*
X8620735Y2184250D01*
X8646135D01*
X8671535Y2158850D01*
X8727594Y2210960D02*
X8752994Y2236360D01*
X8778394D01*
X8752994Y2261760D01*
X8778394Y2287160D01*
X8752994D01*
X8727594Y2312560D01*
X8702194Y2287160D01*
X8676794D01*
X8702194Y2261760D01*
X8676794Y2236360D01*
X8702194D01*
X8727594Y2210960D01*
Y2262745D02*
X8752994Y2288145D01*
X8778394D01*
X8752994Y2313545D01*
X8778394Y2338945D01*
X8752994D01*
X8727594Y2364345D01*
X8702194Y2338945D01*
X8676794D01*
X8702194Y2313545D01*
X8676794Y2288145D01*
X8702194D01*
X8727594Y2262745D01*
X8785835Y2262421D02*
X8811235Y2287821D01*
X8836635D01*
X8811235Y2313221D01*
X8836635Y2338621D01*
X8811235D01*
X8785835Y2364021D01*
X8760435Y2338621D01*
X8735035D01*
X8760435Y2313221D01*
X8735035Y2287821D01*
X8760435D01*
X8785835Y2262421D01*
X8841894Y2263070D02*
X8867294Y2288470D01*
X8892694D01*
X8867294Y2313870D01*
X8892694Y2339270D01*
X8867294D01*
X8841894Y2364670D01*
X8816494Y2339270D01*
X8791094D01*
X8816494Y2313870D01*
X8791094Y2288470D01*
X8816494D01*
X8841894Y2263070D01*
Y2211284D02*
X8867294Y2236684D01*
X8892694D01*
X8867294Y2262084D01*
X8892694Y2287484D01*
X8867294D01*
X8841894Y2312884D01*
X8816494Y2287484D01*
X8791094D01*
X8816494Y2262084D01*
X8791094Y2236684D01*
X8816494D01*
X8841894Y2211284D01*
X8785835Y2314206D02*
X8811235Y2339606D01*
X8836635D01*
X8811235Y2365006D01*
X8836635Y2390406D01*
X8811235D01*
X8785835Y2415806D01*
X8760435Y2390406D01*
X8735035D01*
X8760435Y2365006D01*
X8735035Y2339606D01*
X8760435D01*
X8785835Y2314206D01*
X11628095Y1554455D02*
Y1656055D01*
X11729695D01*
Y1554455D01*
X11628095D01*
X11648415Y1574775D02*
Y1635735D01*
X11709375D01*
Y1574775D01*
X11648415D01*
X13644325Y1444770D02*
X13695126Y1495570D01*
X13745926Y1444770D01*
X13695126Y1393970D01*
X13644325Y1444770D01*
Y1604770D02*
X13695126Y1655570D01*
X13745926Y1604770D01*
X13695126Y1553970D01*
X13644325Y1604770D01*
X13839326Y1444770D02*
X13890126Y1495570D01*
X13940926Y1444770D01*
X13890126Y1393970D01*
X13839326Y1444770D01*
Y1604770D02*
X13890126Y1655570D01*
X13940926Y1604770D01*
X13890126Y1553970D01*
X13839326Y1604770D01*
X9941535Y1445916D02*
X9992335Y1496716D01*
X10043135Y1445916D01*
X9992335Y1395116D01*
X9941535Y1445916D01*
X8989564Y1944073D02*
X9040364Y1994873D01*
X9091164Y1944073D01*
X9040364Y1893273D01*
X8989564Y1944073D01*
X8661375Y1944076D02*
X8712175Y1994876D01*
X8762975Y1944076D01*
X8712175Y1893276D01*
X8661375Y1944076D01*
X9321475Y1941755D02*
X9372275Y1992555D01*
X9423075Y1941755D01*
X9372275Y1890955D01*
X9321475Y1941755D01*
X9581781Y1953534D02*
X9632581Y2004334D01*
X9683381Y1953534D01*
X9632581Y1902734D01*
X9581781Y1953534D01*
Y2113534D02*
X9632581Y2164334D01*
X9683381Y2113534D01*
X9632581Y2062734D01*
X9581781Y2113534D01*
X9405595Y2222475D02*
X9456395Y2273275D01*
X9507195Y2222475D01*
X9456395Y2171675D01*
X9405595Y2222475D01*
Y2404586D02*
X9456395Y2455386D01*
X9507195Y2404586D01*
X9456395Y2353786D01*
X9405595Y2404586D01*
X9309227Y2222475D02*
X9360027Y2273275D01*
X9410827Y2222475D01*
X9360027Y2171675D01*
X9309227Y2222475D01*
X9212854Y2404586D02*
X9263654Y2455386D01*
X9314454Y2404586D01*
X9263654Y2353786D01*
X9212854Y2404586D01*
X9212717Y2222475D02*
X9263517Y2273275D01*
X9314317Y2222475D01*
X9263517Y2171675D01*
X9212717Y2222475D01*
X9309315Y2313376D02*
X9360115Y2364176D01*
X9410915Y2313376D01*
X9360115Y2262576D01*
X9309315Y2313376D01*
X9405595D02*
X9456395Y2364176D01*
X9507195Y2313376D01*
X9456395Y2262576D01*
X9405595Y2313376D01*
X9212555D02*
X9263355Y2364176D01*
X9314155Y2313376D01*
X9263355Y2262576D01*
X9212555Y2313376D01*
X9309315Y2405373D02*
X9360115Y2456173D01*
X9410915Y2405373D01*
X9360115Y2354573D01*
X9309315Y2405373D01*
X13249326Y1603555D02*
X13300127Y1654355D01*
X13350926Y1603555D01*
X13300127Y1552755D01*
X13249326Y1603555D01*
X13446826D02*
X13497626Y1654355D01*
X13548425Y1603555D01*
X13497626Y1552755D01*
X13446826Y1603555D01*
X13249326Y1443555D02*
X13300127Y1494355D01*
X13350926Y1443555D01*
X13300127Y1392755D01*
X13249326Y1443555D01*
X13446826D02*
X13497626Y1494355D01*
X13548425Y1443555D01*
X13497626Y1392755D01*
X13446826Y1443555D01*
X2311023Y1818615D02*
Y1920215D01*
X2412623D01*
Y1818615D01*
X2311023D01*
X2331343Y1838935D02*
Y1899895D01*
X2392303D01*
Y1838935D01*
X2331343D01*
X2434565Y1856715D02*
Y1958315D01*
X2536165D01*
Y1856715D01*
X2434565D01*
X2454885Y1877035D02*
Y1937995D01*
X2515845D01*
Y1877035D01*
X2454885D01*
X2351178Y1770355D02*
Y1871955D01*
X2452778D01*
Y1770355D01*
X2351178D01*
X2371498Y1790675D02*
Y1851635D01*
X2432458D01*
Y1790675D01*
X2371498D01*
X2433422Y1770355D02*
Y1871955D01*
X2535022D01*
Y1770355D01*
X2433422D01*
X2453742Y1790675D02*
Y1851635D01*
X2514702D01*
Y1790675D01*
X2453742D01*
X2352332Y1856715D02*
Y1958315D01*
X2453932D01*
Y1856715D01*
X2352332D01*
X2372652Y1877035D02*
Y1937995D01*
X2433612D01*
Y1877035D01*
X2372652D01*
X2528355Y2527475D02*
Y2629075D01*
X2629955D01*
Y2527475D01*
X2528355D01*
X2548675Y2547795D02*
Y2608755D01*
X2609635D01*
Y2547795D01*
X2548675D01*
X2311023Y1737335D02*
Y1838935D01*
X2412623D01*
Y1737335D01*
X2311023D01*
X2331343Y1757655D02*
Y1818615D01*
X2392303D01*
Y1757655D01*
X2331343D01*
X2311023Y1664847D02*
Y1766447D01*
X2412623D01*
Y1664847D01*
X2311023D01*
X2331343Y1685167D02*
Y1746127D01*
X2392303D01*
Y1685167D01*
X2331343D01*
X3408655Y1602715D02*
X3434055Y1628115D01*
X3459455D01*
X3434055Y1653515D01*
X3459455Y1678915D01*
X3434055D01*
X3408655Y1704315D01*
X3383255Y1678915D01*
X3357855D01*
X3383255Y1653515D01*
X3357855Y1628115D01*
X3383255D01*
X3408655Y1602715D01*
X3345155Y2513655D02*
X3395955Y2564455D01*
X3446755Y2513655D01*
X3395955Y2462855D01*
X3345155Y2513655D01*
X13396384Y2317101D02*
X13447183Y2367901D01*
X13497983Y2317101D01*
X13447183Y2266301D01*
X13396384Y2317101D01*
X6177495Y1196318D02*
X6228295Y1247118D01*
X6279095Y1196318D01*
X6228295Y1145518D01*
X6177495Y1196318D01*
X7390455Y1272515D02*
X7415855Y1297915D01*
X7441255D01*
X7415855Y1323315D01*
X7441255Y1348715D01*
X7415855D01*
X7390455Y1374115D01*
X7365055Y1348715D01*
X7339655D01*
X7365055Y1323315D01*
X7339655Y1297915D01*
X7365055D01*
X7390455Y1272515D01*
X8630895Y1606484D02*
X8656295Y1631884D01*
X8681695D01*
X8656295Y1657284D01*
X8681695Y1682684D01*
X8656295D01*
X8630895Y1708084D01*
X8605495Y1682684D01*
X8580095D01*
X8605495Y1657284D01*
X8580095Y1631884D01*
X8605495D01*
X8630895Y1606484D01*
X8689135Y1606160D02*
X8714535Y1631560D01*
X8739935D01*
X8714535Y1656960D01*
X8739935Y1682360D01*
X8714535D01*
X8689135Y1707760D01*
X8663735Y1682360D01*
X8638335D01*
X8663735Y1656960D01*
X8638335Y1631560D01*
X8663735D01*
X8689135Y1606160D01*
X4297655Y1340055D02*
X4323055Y1365455D01*
X4348455D01*
X4323055Y1390855D01*
X4348455Y1416255D01*
X4323055D01*
X4297655Y1441655D01*
X4272255Y1416255D01*
X4246855D01*
X4272255Y1390855D01*
X4246855Y1365455D01*
X4272255D01*
X4297655Y1340055D01*
X3761713Y1178534D02*
X3787113Y1203934D01*
X3812513D01*
X3787113Y1229334D01*
X3812513Y1254734D01*
X3787113D01*
X3761713Y1280134D01*
X3736313Y1254734D01*
X3710913D01*
X3736313Y1229334D01*
X3710913Y1203934D01*
X3736313D01*
X3761713Y1178534D01*
X5478755Y1401614D02*
X5504155Y1427014D01*
X5529555D01*
X5504155Y1452414D01*
X5529555Y1477814D01*
X5504155D01*
X5478755Y1503214D01*
X5453355Y1477814D01*
X5427955D01*
X5453355Y1452414D01*
X5427955Y1427014D01*
X5453355D01*
X5478755Y1401614D01*
X6747418Y1485484D02*
X6798218Y1536284D01*
X6849018Y1485484D01*
X6798218Y1434684D01*
X6747418Y1485484D01*
X6682715Y1262355D02*
X6708115Y1287755D01*
X6733515D01*
X6708115Y1313155D01*
X6733515Y1338555D01*
X6708115D01*
X6682715Y1363955D01*
X6657315Y1338555D01*
X6631915D01*
X6657315Y1313155D01*
X6631915Y1287755D01*
X6657315D01*
X6682715Y1262355D01*
X5176495Y2587415D02*
X5201895Y2612815D01*
X5227295D01*
X5201895Y2638215D01*
X5227295Y2663615D01*
X5201895D01*
X5176495Y2689015D01*
X5151095Y2663615D01*
X5125695D01*
X5151095Y2638215D01*
X5125695Y2612815D01*
X5151095D01*
X5176495Y2587415D01*
X5295335Y2587675D02*
X5320735Y2613075D01*
X5346135D01*
X5320735Y2638475D01*
X5346135Y2663875D01*
X5320735D01*
X5295335Y2689275D01*
X5269935Y2663875D01*
X5244535D01*
X5269935Y2638475D01*
X5244535Y2613075D01*
X5269935D01*
X5295335Y2587675D01*
X12979175Y2320038D02*
Y2421638D01*
X13080775D01*
Y2320038D01*
X12979175D01*
X12999495Y2340358D02*
Y2401318D01*
X13060455D01*
Y2340358D01*
X12999495D01*
X5664175Y2707615D02*
X5689575Y2733015D01*
X5714975D01*
X5689575Y2758415D01*
X5714975Y2783815D01*
X5689575D01*
X5664175Y2809215D01*
X5638775Y2783815D01*
X5613375D01*
X5638775Y2758415D01*
X5613375Y2733015D01*
X5638775D01*
X5664175Y2707615D01*
X4206215Y1983715D02*
X4231615Y2009115D01*
X4257015D01*
X4231615Y2034515D01*
X4257015Y2059915D01*
X4231615D01*
X4206215Y2085315D01*
X4180815Y2059915D01*
X4155415D01*
X4180815Y2034515D01*
X4155415Y2009115D01*
X4180815D01*
X4206215Y1983715D01*
X4348455Y2087057D02*
X4373855Y2112457D01*
X4399255D01*
X4373855Y2137857D01*
X4399255Y2163257D01*
X4373855D01*
X4348455Y2188657D01*
X4323055Y2163257D01*
X4297655D01*
X4323055Y2137857D01*
X4297655Y2112457D01*
X4323055D01*
X4348455Y2087057D01*
X4223995Y1907434D02*
X4249395Y1932834D01*
X4274795D01*
X4249395Y1958234D01*
X4274795Y1983634D01*
X4249395D01*
X4223995Y2009034D01*
X4198595Y1983634D01*
X4173195D01*
X4198595Y1958234D01*
X4173195Y1932834D01*
X4198595D01*
X4223995Y1907434D01*
X4140175Y1648435D02*
X4165575Y1673835D01*
X4190975D01*
X4165575Y1699235D01*
X4190975Y1724635D01*
X4165575D01*
X4140175Y1750035D01*
X4114775Y1724635D01*
X4089375D01*
X4114775Y1699235D01*
X4089375Y1673835D01*
X4114775D01*
X4140175Y1648435D01*
X3072554Y1261675D02*
X3097954Y1287075D01*
X3123354D01*
X3097954Y1312475D01*
X3123354Y1337875D01*
X3097954D01*
X3072554Y1363275D01*
X3047154Y1337875D01*
X3021754D01*
X3047154Y1312475D01*
X3021754Y1287075D01*
X3047154D01*
X3072554Y1261675D01*
X3160555D02*
X3185955Y1287075D01*
X3211355D01*
X3185955Y1312475D01*
X3211355Y1337875D01*
X3185955D01*
X3160555Y1363275D01*
X3135155Y1337875D01*
X3109755D01*
X3135155Y1312475D01*
X3109755Y1287075D01*
X3135155D01*
X3160555Y1261675D01*
X3477235Y1902435D02*
X3528035Y1953235D01*
X3578835Y1902435D01*
X3528035Y1851635D01*
X3477235Y1902435D01*
X3635831D02*
X3686631Y1953235D01*
X3737431Y1902435D01*
X3686631Y1851635D01*
X3635831Y1902435D01*
X3639795Y1374115D02*
X3665195Y1399515D01*
X3690595D01*
X3665195Y1424915D01*
X3690595Y1450315D01*
X3665195D01*
X3639795Y1475715D01*
X3614395Y1450315D01*
X3588995D01*
X3614395Y1424915D01*
X3588995Y1399515D01*
X3614395D01*
X3639795Y1374115D01*
X1917675Y1354695D02*
X1968475Y1405495D01*
X2019275Y1354695D01*
X1968475Y1303895D01*
X1917675Y1354695D01*
X2468855Y1419014D02*
X2494255Y1444414D01*
X2519655D01*
X2494255Y1469814D01*
X2519655Y1495214D01*
X2494255D01*
X2468855Y1520614D01*
X2443455Y1495214D01*
X2418055D01*
X2443455Y1469814D01*
X2418055Y1444414D01*
X2443455D01*
X2468855Y1419014D01*
X2352015Y1397235D02*
X2377415Y1422635D01*
X2402815D01*
X2377415Y1448035D01*
X2402815Y1473435D01*
X2377415D01*
X2352015Y1498835D01*
X2326615Y1473435D01*
X2301215D01*
X2326615Y1448035D01*
X2301215Y1422635D01*
X2326615D01*
X2352015Y1397235D01*
X3210825Y2070075D02*
X3236225Y2095475D01*
X3261625D01*
X3236225Y2120875D01*
X3261625Y2146275D01*
X3236225D01*
X3210825Y2171675D01*
X3185425Y2146275D01*
X3160025D01*
X3185425Y2120875D01*
X3160025Y2095475D01*
X3185425D01*
X3210825Y2070075D01*
X3209622Y1965935D02*
X3235022Y1991335D01*
X3260422D01*
X3235022Y2016735D01*
X3260422Y2042135D01*
X3235022D01*
X3209622Y2067535D01*
X3184222Y2042135D01*
X3158822D01*
X3184222Y2016735D01*
X3158822Y1991335D01*
X3184222D01*
X3209622Y1965935D01*
X3919195Y1109955D02*
X3944595Y1135355D01*
X3969995D01*
X3944595Y1160755D01*
X3969995Y1186155D01*
X3944595D01*
X3919195Y1211555D01*
X3893795Y1186155D01*
X3868395D01*
X3893795Y1160755D01*
X3868395Y1135355D01*
X3893795D01*
X3919195Y1109955D01*
X4124935Y1064175D02*
X4150335Y1089575D01*
X4175735D01*
X4150335Y1114975D01*
X4175735Y1140375D01*
X4150335D01*
X4124935Y1165775D01*
X4099535Y1140375D01*
X4074135D01*
X4099535Y1114975D01*
X4074135Y1089575D01*
X4099535D01*
X4124935Y1064175D01*
X4041115Y1066775D02*
X4066515Y1092175D01*
X4091915D01*
X4066515Y1117575D01*
X4091915Y1142975D01*
X4066515D01*
X4041115Y1168375D01*
X4015715Y1142975D01*
X3990315D01*
X4015715Y1117575D01*
X3990315Y1092175D01*
X4015715D01*
X4041115Y1066775D01*
X12141175Y1287755D02*
Y1389355D01*
X12242775D01*
Y1287755D01*
X12141175D01*
X12161495Y1308075D02*
Y1369035D01*
X12222455D01*
Y1308075D01*
X12161495D01*
X10782475Y1381675D02*
X10807875Y1407075D01*
X10833275D01*
X10807875Y1432475D01*
X10833275Y1457875D01*
X10807875D01*
X10782475Y1483275D01*
X10757075Y1457875D01*
X10731675D01*
X10757075Y1432475D01*
X10731675Y1407075D01*
X10757075D01*
X10782475Y1381675D01*
X11489175Y1560334D02*
Y1661934D01*
X11590775D01*
Y1560334D01*
X11489175D01*
X11509495Y1580654D02*
Y1641614D01*
X11570455D01*
Y1580654D01*
X11509495D01*
X11934975Y1336075D02*
X11960375Y1361475D01*
X11985775D01*
X11960375Y1386875D01*
X11985775Y1412275D01*
X11960375D01*
X11934975Y1437675D01*
X11909575Y1412275D01*
X11884175D01*
X11909575Y1386875D01*
X11884175Y1361475D01*
X11909575D01*
X11934975Y1336075D01*
X12602475Y1164175D02*
X12627875Y1189575D01*
X12653275D01*
X12627875Y1214975D01*
X12653275Y1240375D01*
X12627875D01*
X12602475Y1265775D01*
X12577075Y1240375D01*
X12551675D01*
X12577075Y1214975D01*
X12551675Y1189575D01*
X12577075D01*
X12602475Y1164175D01*
X12077475Y1129175D02*
X12102875Y1154575D01*
X12128275D01*
X12102875Y1179975D01*
X12128275Y1205375D01*
X12102875D01*
X12077475Y1230775D01*
X12052075Y1205375D01*
X12026675D01*
X12052075Y1179975D01*
X12026675Y1154575D01*
X12052075D01*
X12077475Y1129175D01*
X12157475Y1113613D02*
X12182875Y1139013D01*
X12208275D01*
X12182875Y1164413D01*
X12208275Y1189813D01*
X12182875D01*
X12157475Y1215213D01*
X12132075Y1189813D01*
X12106675D01*
X12132075Y1164413D01*
X12106675Y1139013D01*
X12132075D01*
X12157475Y1113613D01*
X10921975Y1107415D02*
X10947375Y1132815D01*
X10972775D01*
X10947375Y1158215D01*
X10972775Y1183615D01*
X10947375D01*
X10921975Y1209015D01*
X10896575Y1183615D01*
X10871175D01*
X10896575Y1158215D01*
X10871175Y1132815D01*
X10896575D01*
X10921975Y1107415D01*
X12117475Y1194175D02*
X12142875Y1219575D01*
X12168275D01*
X12142875Y1244975D01*
X12168275Y1270375D01*
X12142875D01*
X12117475Y1295775D01*
X12092075Y1270375D01*
X12066675D01*
X12092075Y1244975D01*
X12066675Y1219575D01*
X12092075D01*
X12117475Y1194175D01*
X12038115D02*
X12063515Y1219575D01*
X12088915D01*
X12063515Y1244975D01*
X12088915Y1270375D01*
X12063515D01*
X12038115Y1295775D01*
X12012715Y1270375D01*
X11987315D01*
X12012715Y1244975D01*
X11987315Y1219575D01*
X12012715D01*
X12038115Y1194175D01*
X12526475Y1426835D02*
X12551875Y1452235D01*
X12577275D01*
X12551875Y1477635D01*
X12577275Y1503035D01*
X12551875D01*
X12526475Y1528435D01*
X12501075Y1503035D01*
X12475675D01*
X12501075Y1477635D01*
X12475675Y1452235D01*
X12501075D01*
X12526475Y1426835D01*
X12496775Y1348715D02*
X12522175Y1374115D01*
X12547575D01*
X12522175Y1399515D01*
X12547575Y1424915D01*
X12522175D01*
X12496775Y1450315D01*
X12471375Y1424915D01*
X12445975D01*
X12471375Y1399515D01*
X12445975Y1374115D01*
X12471375D01*
X12496775Y1348715D01*
X12339975Y1296675D02*
X12365375Y1322075D01*
X12390775D01*
X12365375Y1347475D01*
X12390775Y1372875D01*
X12365375D01*
X12339975Y1398275D01*
X12314575Y1372875D01*
X12289175D01*
X12314575Y1347475D01*
X12289175Y1322075D01*
X12314575D01*
X12339975Y1296675D01*
X12438652Y1312842D02*
X12464052Y1338242D01*
X12489452D01*
X12464052Y1363642D01*
X12489452Y1389042D01*
X12464052D01*
X12438652Y1414442D01*
X12413252Y1389042D01*
X12387852D01*
X12413252Y1363642D01*
X12387852Y1338242D01*
X12413252D01*
X12438652Y1312842D01*
X11986675Y1599175D02*
Y1700775D01*
X12088275D01*
Y1599175D01*
X11986675D01*
X12006995Y1619495D02*
Y1680455D01*
X12067955D01*
Y1619495D01*
X12006995D01*
X11826215Y1376655D02*
X11851615Y1402055D01*
X11877015D01*
X11851615Y1427455D01*
X11877015Y1452855D01*
X11851615D01*
X11826215Y1478255D01*
X11800815Y1452855D01*
X11775415D01*
X11800815Y1427455D01*
X11775415Y1402055D01*
X11800815D01*
X11826215Y1376655D01*
X11934975Y1416675D02*
X11960375Y1442075D01*
X11985775D01*
X11960375Y1467475D01*
X11985775Y1492875D01*
X11960375D01*
X11934975Y1518275D01*
X11909575Y1492875D01*
X11884175D01*
X11909575Y1467475D01*
X11884175Y1442075D01*
X11909575D01*
X11934975Y1416675D01*
X4244315Y2359635D02*
X4269715Y2385035D01*
X4295115D01*
X4269715Y2410435D01*
X4295115Y2435835D01*
X4269715D01*
X4244315Y2461235D01*
X4218915Y2435835D01*
X4193515D01*
X4218915Y2410435D01*
X4193515Y2385035D01*
X4218915D01*
X4244315Y2359635D01*
X2085315Y2517695D02*
X2110715Y2543095D01*
X2136115D01*
X2110715Y2568495D01*
X2136115Y2593895D01*
X2110715D01*
X2085315Y2619295D01*
X2059915Y2593895D01*
X2034515D01*
X2059915Y2568495D01*
X2034515Y2543095D01*
X2059915D01*
X2085315Y2517695D01*
Y2645675D02*
X2110715Y2671075D01*
X2136115D01*
X2110715Y2696475D01*
X2136115Y2721875D01*
X2110715D01*
X2085315Y2747275D01*
X2059915Y2721875D01*
X2034515D01*
X2059915Y2696475D01*
X2034515Y2671075D01*
X2059915D01*
X2085315Y2645675D01*
Y2776775D02*
X2110715Y2802175D01*
X2136115D01*
X2110715Y2827575D01*
X2136115Y2852975D01*
X2110715D01*
X2085315Y2878375D01*
X2059915Y2852975D01*
X2034515D01*
X2059915Y2827575D01*
X2034515Y2802175D01*
X2059915D01*
X2085315Y2776775D01*
X1831315Y2937675D02*
X1856715Y2963075D01*
X1882115D01*
X1856715Y2988475D01*
X1882115Y3013875D01*
X1856715D01*
X1831315Y3039275D01*
X1805915Y3013875D01*
X1780515D01*
X1805915Y2988475D01*
X1780515Y2963075D01*
X1805915D01*
X1831315Y2937675D01*
Y3068775D02*
X1856715Y3094175D01*
X1882115D01*
X1856715Y3119575D01*
X1882115Y3144975D01*
X1856715D01*
X1831315Y3170375D01*
X1805915Y3144975D01*
X1780515D01*
X1805915Y3119575D01*
X1780515Y3094175D01*
X1805915D01*
X1831315Y3068775D01*
Y2809695D02*
X1856715Y2835095D01*
X1882115D01*
X1856715Y2860495D01*
X1882115Y2885895D01*
X1856715D01*
X1831315Y2911295D01*
X1805915Y2885895D01*
X1780515D01*
X1805915Y2860495D01*
X1780515Y2835095D01*
X1805915D01*
X1831315Y2809695D01*
X5100055Y1973794D02*
X5125455Y1999194D01*
X5150855D01*
X5125455Y2024594D01*
X5150855Y2049994D01*
X5125455D01*
X5100055Y2075394D01*
X5074655Y2049994D01*
X5049255D01*
X5074655Y2024594D01*
X5049255Y1999194D01*
X5074655D01*
X5100055Y1973794D01*
X12066675Y1599175D02*
Y1700775D01*
X12168275D01*
Y1599175D01*
X12066675D01*
X12086995Y1619495D02*
Y1680455D01*
X12147955D01*
Y1619495D01*
X12086995D01*
X2418055Y1557815D02*
X2468855Y1608615D01*
X2519655Y1557815D01*
X2468855Y1507015D01*
X2418055Y1557815D01*
X2301375Y1348715D02*
X2352175Y1399515D01*
X2402975Y1348715D01*
X2352175Y1297915D01*
X2301375Y1348715D01*
X2842235Y1811285D02*
X2867635Y1836685D01*
X2893035D01*
X2867635Y1862085D01*
X2893035Y1887485D01*
X2867635D01*
X2842235Y1912885D01*
X2816835Y1887485D01*
X2791435D01*
X2816835Y1862085D01*
X2791435Y1836685D01*
X2816835D01*
X2842235Y1811285D01*
X2680455Y1867335D02*
X2705855Y1892735D01*
X2731255D01*
X2705855Y1918135D01*
X2731255Y1943535D01*
X2705855D01*
X2680455Y1968935D01*
X2655055Y1943535D01*
X2629655D01*
X2655055Y1918135D01*
X2629655Y1892735D01*
X2655055D01*
X2680455Y1867335D01*
X2839889Y2010935D02*
X2865289Y2036335D01*
X2890689D01*
X2865289Y2061735D01*
X2890689Y2087135D01*
X2865289D01*
X2839889Y2112535D01*
X2814489Y2087135D01*
X2789089D01*
X2814489Y2061735D01*
X2789089Y2036335D01*
X2814489D01*
X2839889Y2010935D01*
X2842235Y1865895D02*
X2867635Y1891295D01*
X2893035D01*
X2867635Y1916695D01*
X2893035Y1942095D01*
X2867635D01*
X2842235Y1967495D01*
X2816835Y1942095D01*
X2791435D01*
X2816835Y1916695D01*
X2791435Y1891295D01*
X2816835D01*
X2842235Y1865895D01*
X2680455Y1703505D02*
X2705855Y1728905D01*
X2731255D01*
X2705855Y1754305D01*
X2731255Y1779705D01*
X2705855D01*
X2680455Y1805105D01*
X2655055Y1779705D01*
X2629655D01*
X2655055Y1754305D01*
X2629655Y1728905D01*
X2655055D01*
X2680455Y1703505D01*
X2733600Y2059915D02*
X2759000Y2085315D01*
X2784400D01*
X2759000Y2110715D01*
X2784400Y2136115D01*
X2759000D01*
X2733600Y2161515D01*
X2708200Y2136115D01*
X2682800D01*
X2708200Y2110715D01*
X2682800Y2085315D01*
X2708200D01*
X2733600Y2059915D01*
X2895454Y1867335D02*
X2920854Y1892735D01*
X2946254D01*
X2920854Y1918135D01*
X2946254Y1943535D01*
X2920854D01*
X2895454Y1968935D01*
X2870054Y1943535D01*
X2844654D01*
X2870054Y1918135D01*
X2844654Y1892735D01*
X2870054D01*
X2895454Y1867335D01*
X2733015Y1866875D02*
X2758415Y1892275D01*
X2783815D01*
X2758415Y1917675D01*
X2783815Y1943075D01*
X2758415D01*
X2733015Y1968475D01*
X2707615Y1943075D01*
X2682215D01*
X2707615Y1917675D01*
X2682215Y1892275D01*
X2707615D01*
X2733015Y1866875D01*
X2895454Y1703505D02*
X2920854Y1728905D01*
X2946254D01*
X2920854Y1754305D01*
X2946254Y1779705D01*
X2920854D01*
X2895454Y1805105D01*
X2870054Y1779705D01*
X2844654D01*
X2870054Y1754305D01*
X2844654Y1728905D01*
X2870054D01*
X2895454Y1703505D01*
X2870616Y1967307D02*
X2896016Y1992707D01*
X2921416D01*
X2896016Y2018107D01*
X2921416Y2043507D01*
X2896016D01*
X2870616Y2068907D01*
X2845216Y2043507D01*
X2819816D01*
X2845216Y2018107D01*
X2819816Y1992707D01*
X2845216D01*
X2870616Y1967307D01*
X2787955Y1703505D02*
X2813355Y1728905D01*
X2838755D01*
X2813355Y1754305D01*
X2838755Y1779705D01*
X2813355D01*
X2787955Y1805105D01*
X2762555Y1779705D01*
X2737155D01*
X2762555Y1754305D01*
X2737155Y1728905D01*
X2762555D01*
X2787955Y1703505D01*
X2733015Y1703045D02*
X2758415Y1728445D01*
X2783815D01*
X2758415Y1753845D01*
X2783815Y1779245D01*
X2758415D01*
X2733015Y1804645D01*
X2707615Y1779245D01*
X2682215D01*
X2707615Y1753845D01*
X2682215Y1728445D01*
X2707615D01*
X2733015Y1703045D01*
X2786744Y2059915D02*
X2812144Y2085315D01*
X2837544D01*
X2812144Y2110715D01*
X2837544Y2136115D01*
X2812144D01*
X2786744Y2161515D01*
X2761344Y2136115D01*
X2735944D01*
X2761344Y2110715D01*
X2735944Y2085315D01*
X2761344D01*
X2786744Y2059915D01*
X2703315Y1965935D02*
X2728715Y1991335D01*
X2754115D01*
X2728715Y2016735D01*
X2754115Y2042135D01*
X2728715D01*
X2703315Y2067535D01*
X2677915Y2042135D01*
X2652515D01*
X2677915Y2016735D01*
X2652515Y1991335D01*
X2677915D01*
X2703315Y1965935D01*
X2547155Y1834615D02*
Y1936215D01*
X2648755D01*
Y1834615D01*
X2547155D01*
X2567475Y1854935D02*
Y1915895D01*
X2628435D01*
Y1854935D01*
X2567475D01*
X3065336Y1714475D02*
X3090736Y1739875D01*
X3116136D01*
X3090736Y1765275D01*
X3116136Y1790675D01*
X3090736D01*
X3065336Y1816075D01*
X3039936Y1790675D01*
X3014536D01*
X3039936Y1765275D01*
X3014536Y1739875D01*
X3039936D01*
X3065336Y1714475D01*
X2733015Y1812265D02*
X2758415Y1837665D01*
X2783815D01*
X2758415Y1863065D01*
X2783815Y1888465D01*
X2758415D01*
X2733015Y1913865D01*
X2707615Y1888465D01*
X2682215D01*
X2707615Y1863065D01*
X2682215Y1837665D01*
X2707615D01*
X2733015Y1812265D01*
X2680455Y1648895D02*
X2705855Y1674295D01*
X2731255D01*
X2705855Y1699695D01*
X2731255Y1725095D01*
X2705855D01*
X2680455Y1750495D01*
X2655055Y1725095D01*
X2629655D01*
X2655055Y1699695D01*
X2629655Y1674295D01*
X2655055D01*
X2680455Y1648895D01*
X2839889Y2059915D02*
X2865289Y2085315D01*
X2890689D01*
X2865289Y2110715D01*
X2890689Y2136115D01*
X2865289D01*
X2839889Y2161515D01*
X2814489Y2136115D01*
X2789089D01*
X2814489Y2110715D01*
X2789089Y2085315D01*
X2814489D01*
X2839889Y2059915D01*
X2787955Y1812725D02*
X2813355Y1838125D01*
X2838755D01*
X2813355Y1863525D01*
X2838755Y1888925D01*
X2813355D01*
X2787955Y1914325D01*
X2762555Y1888925D01*
X2737155D01*
X2762555Y1863525D01*
X2737155Y1838125D01*
X2762555D01*
X2787955Y1812725D01*
X2733600Y2010935D02*
X2759000Y2036335D01*
X2784400D01*
X2759000Y2061735D01*
X2784400Y2087135D01*
X2759000D01*
X2733600Y2112535D01*
X2708200Y2087135D01*
X2682800D01*
X2708200Y2061735D01*
X2682800Y2036335D01*
X2708200D01*
X2733600Y2010935D01*
X2547155Y1754614D02*
Y1856214D01*
X2648755D01*
Y1754614D01*
X2547155D01*
X2567475Y1774934D02*
Y1835894D01*
X2628435D01*
Y1774934D01*
X2567475D01*
X2680455Y1812725D02*
X2705855Y1838125D01*
X2731255D01*
X2705855Y1863525D01*
X2731255Y1888925D01*
X2705855D01*
X2680455Y1914325D01*
X2655055Y1888925D01*
X2629655D01*
X2655055Y1863525D01*
X2629655Y1838125D01*
X2655055D01*
X2680455Y1812725D01*
X2893034Y2059915D02*
X2918434Y2085315D01*
X2943834D01*
X2918434Y2110715D01*
X2943834Y2136115D01*
X2918434D01*
X2893034Y2161515D01*
X2867634Y2136115D01*
X2842234D01*
X2867634Y2110715D01*
X2842234Y2085315D01*
X2867634D01*
X2893034Y2059915D01*
X3095693Y1653073D02*
X3121093Y1678473D01*
X3146493D01*
X3121093Y1703873D01*
X3146493Y1729273D01*
X3121093D01*
X3095693Y1754673D01*
X3070293Y1729273D01*
X3044893D01*
X3070293Y1703873D01*
X3044893Y1678473D01*
X3070293D01*
X3095693Y1653073D01*
X2895454Y1648895D02*
X2920854Y1674295D01*
X2946254D01*
X2920854Y1699695D01*
X2946254Y1725095D01*
X2920854D01*
X2895454Y1750495D01*
X2870054Y1725095D01*
X2844654D01*
X2870054Y1699695D01*
X2844654Y1674295D01*
X2870054D01*
X2895454Y1648895D01*
X2733015Y1757655D02*
X2758415Y1783055D01*
X2783815D01*
X2758415Y1808455D01*
X2783815Y1833855D01*
X2758415D01*
X2733015Y1859255D01*
X2707615Y1833855D01*
X2682215D01*
X2707615Y1808455D01*
X2682215Y1783055D01*
X2707615D01*
X2733015Y1757655D01*
X2680455Y2059915D02*
X2705855Y2085315D01*
X2731255D01*
X2705855Y2110715D01*
X2731255Y2136115D01*
X2705855D01*
X2680455Y2161515D01*
X2655055Y2136115D01*
X2629655D01*
X2655055Y2110715D01*
X2629655Y2085315D01*
X2655055D01*
X2680455Y2059915D01*
X2895454Y1812725D02*
X2920854Y1838125D01*
X2946254D01*
X2920854Y1863525D01*
X2946254Y1888925D01*
X2920854D01*
X2895454Y1914325D01*
X2870054Y1888925D01*
X2844654D01*
X2870054Y1863525D01*
X2844654Y1838125D01*
X2870054D01*
X2895454Y1812725D01*
X2733015Y1648435D02*
X2758415Y1673835D01*
X2783815D01*
X2758415Y1699235D01*
X2783815Y1724635D01*
X2758415D01*
X2733015Y1750035D01*
X2707615Y1724635D01*
X2682215D01*
X2707615Y1699235D01*
X2682215Y1673835D01*
X2707615D01*
X2733015Y1648435D01*
X2842235Y1702065D02*
X2867635Y1727465D01*
X2893035D01*
X2867635Y1752865D01*
X2893035Y1778265D01*
X2867635D01*
X2842235Y1803665D01*
X2816835Y1778265D01*
X2791435D01*
X2816835Y1752865D01*
X2791435Y1727465D01*
X2816835D01*
X2842235Y1702065D01*
X2761540Y1965935D02*
X2786940Y1991335D01*
X2812340D01*
X2786940Y2016735D01*
X2812340Y2042135D01*
X2786940D01*
X2761540Y2067535D01*
X2736140Y2042135D01*
X2710740D01*
X2736140Y2016735D01*
X2710740Y1991335D01*
X2736140D01*
X2761540Y1965935D01*
X2842235Y1647455D02*
X2867635Y1672855D01*
X2893035D01*
X2867635Y1698255D01*
X2893035Y1723655D01*
X2867635D01*
X2842235Y1749055D01*
X2816835Y1723655D01*
X2791435D01*
X2816835Y1698255D01*
X2791435Y1672855D01*
X2816835D01*
X2842235Y1647455D01*
X2811755Y1966555D02*
X2837155Y1991955D01*
X2862555D01*
X2837155Y2017355D01*
X2862555Y2042755D01*
X2837155D01*
X2811755Y2068155D01*
X2786355Y2042755D01*
X2760955D01*
X2786355Y2017355D01*
X2760955Y1991955D01*
X2786355D01*
X2811755Y1966555D01*
X2842235Y1756675D02*
X2867635Y1782075D01*
X2893035D01*
X2867635Y1807475D01*
X2893035Y1832875D01*
X2867635D01*
X2842235Y1858275D01*
X2816835Y1832875D01*
X2791435D01*
X2816835Y1807475D01*
X2791435Y1782075D01*
X2816835D01*
X2842235Y1756675D01*
X4853954Y2675310D02*
X4879354Y2700710D01*
X4904754D01*
X4879354Y2726110D01*
X4904754Y2751510D01*
X4879354D01*
X4853954Y2776910D01*
X4828554Y2751510D01*
X4803154D01*
X4828554Y2726110D01*
X4803154Y2700710D01*
X4828554D01*
X4853954Y2675310D01*
X4918955D02*
X4944355Y2700710D01*
X4969755D01*
X4944355Y2726110D01*
X4969755Y2751510D01*
X4944355D01*
X4918955Y2776910D01*
X4893555Y2751510D01*
X4868155D01*
X4893555Y2726110D01*
X4868155Y2700710D01*
X4893555D01*
X4918955Y2675310D01*
X11780257Y1233512D02*
X11805657Y1258912D01*
X11831057D01*
X11805657Y1284312D01*
X11831057Y1309712D01*
X11805657D01*
X11780257Y1335112D01*
X11754857Y1309712D01*
X11729457D01*
X11754857Y1284312D01*
X11729457Y1258912D01*
X11754857D01*
X11780257Y1233512D01*
X1968475Y1871955D02*
Y1973555D01*
X2070075D01*
Y1871955D01*
X1968475D01*
X1988795Y1892275D02*
Y1953235D01*
X2049755D01*
Y1892275D01*
X1988795D01*
X8006055Y1653515D02*
X8031455Y1678915D01*
X8056855D01*
X8031455Y1704315D01*
X8056855Y1729715D01*
X8031455D01*
X8006055Y1755115D01*
X7980655Y1729715D01*
X7955255D01*
X7980655Y1704315D01*
X7955255Y1678915D01*
X7980655D01*
X8006055Y1653515D01*
X7622735Y1091462D02*
X7648135Y1116862D01*
X7673535D01*
X7648135Y1142262D01*
X7673535Y1167662D01*
X7648135D01*
X7622735Y1193062D01*
X7597335Y1167662D01*
X7571935D01*
X7597335Y1142262D01*
X7571935Y1116862D01*
X7597335D01*
X7622735Y1091462D01*
X7782535Y1274628D02*
X7807935Y1300028D01*
X7833335D01*
X7807935Y1325428D01*
X7833335Y1350828D01*
X7807935D01*
X7782535Y1376228D01*
X7757135Y1350828D01*
X7731735D01*
X7757135Y1325428D01*
X7731735Y1300028D01*
X7757135D01*
X7782535Y1274628D01*
X1284075Y2583779D02*
X1334875Y2634579D01*
X1385675Y2583779D01*
X1334875Y2532979D01*
X1284075Y2583779D01*
X1889735Y2130215D02*
X1915135Y2155615D01*
X1940535D01*
X1915135Y2181015D01*
X1940535Y2206415D01*
X1915135D01*
X1889735Y2231815D01*
X1864335Y2206415D01*
X1838935D01*
X1864335Y2181015D01*
X1838935Y2155615D01*
X1864335D01*
X1889735Y2130215D01*
Y2323254D02*
X1915135Y2348654D01*
X1940535D01*
X1915135Y2374054D01*
X1940535Y2399454D01*
X1915135D01*
X1889735Y2424854D01*
X1864335Y2399454D01*
X1838935D01*
X1864335Y2374054D01*
X1838935Y2348654D01*
X1864335D01*
X1889735Y2323254D01*
X1815035Y2603804D02*
X1865835Y2654604D01*
X1916635Y2603804D01*
X1865835Y2553004D01*
X1815035Y2603804D01*
X5485335Y3017911D02*
X5510735Y3043311D01*
X5536135D01*
X5510735Y3068711D01*
X5536135Y3094111D01*
X5510735D01*
X5485335Y3119511D01*
X5459935Y3094111D01*
X5434535D01*
X5459935Y3068711D01*
X5434535Y3043311D01*
X5459935D01*
X5485335Y3017911D01*
X13854173Y2532475D02*
X13904974Y2583275D01*
X13955774Y2532475D01*
X13904974Y2481675D01*
X13854173Y2532475D01*
X13794174D02*
X13844974Y2583275D01*
X13895773Y2532475D01*
X13844974Y2481675D01*
X13794174Y2532475D01*
X13854173Y2467475D02*
X13904974Y2518275D01*
X13955774Y2467475D01*
X13904974Y2416675D01*
X13854173Y2467475D01*
X13674174D02*
X13724976Y2518275D01*
X13775775Y2467475D01*
X13724976Y2416675D01*
X13674174Y2467475D01*
X13794174D02*
X13844974Y2518275D01*
X13895773Y2467475D01*
X13844974Y2416675D01*
X13794174Y2467475D01*
X13674174Y2532475D02*
X13724976Y2583275D01*
X13775775Y2532475D01*
X13724976Y2481675D01*
X13674174Y2532475D01*
X13734174D02*
X13784975Y2583275D01*
X13835774Y2532475D01*
X13784975Y2481675D01*
X13734174Y2532475D01*
Y2467475D02*
X13784975Y2518275D01*
X13835774Y2467475D01*
X13784975Y2416675D01*
X13734174Y2467475D01*
X14386194Y2077663D02*
X14436993Y2128463D01*
X14487794Y2077663D01*
X14436993Y2026863D01*
X14386194Y2077663D01*
Y2012662D02*
X14436993Y2063462D01*
X14487794Y2012662D01*
X14436993Y1961862D01*
X14386194Y2012662D01*
X14326193Y2077663D02*
X14376994Y2128463D01*
X14427794Y2077663D01*
X14376994Y2026863D01*
X14326193Y2077663D01*
X14206195Y2012662D02*
X14256995Y2063462D01*
X14307796Y2012662D01*
X14256995Y1961862D01*
X14206195Y2012662D01*
X14267155Y2525075D02*
X14317955Y2575875D01*
X14368755Y2525075D01*
X14317955Y2474275D01*
X14267155Y2525075D01*
Y2585075D02*
X14317955Y2635875D01*
X14368755Y2585075D01*
X14317955Y2534275D01*
X14267155Y2585075D01*
X14332155Y2645075D02*
X14382954Y2695875D01*
X14433755Y2645075D01*
X14382954Y2594275D01*
X14332155Y2645075D01*
Y2585075D02*
X14382954Y2635875D01*
X14433755Y2585075D01*
X14382954Y2534275D01*
X14332155Y2585075D01*
X14206195Y2077663D02*
X14256995Y2128463D01*
X14307796Y2077663D01*
X14256995Y2026863D01*
X14206195Y2077663D01*
X14266194D02*
X14316994Y2128463D01*
X14367793Y2077663D01*
X14316994Y2026863D01*
X14266194Y2077663D01*
X14326193Y2012662D02*
X14376994Y2063462D01*
X14427794Y2012662D01*
X14376994Y1961862D01*
X14326193Y2012662D01*
X14266194D02*
X14316994Y2063462D01*
X14367793Y2012662D01*
X14316994Y1961862D01*
X14266194Y2012662D01*
X14267155Y2645075D02*
X14317955Y2695875D01*
X14368755Y2645075D01*
X14317955Y2594275D01*
X14267155Y2645075D01*
X14332155Y2525075D02*
X14382954Y2575875D01*
X14433755Y2525075D01*
X14382954Y2474275D01*
X14332155Y2525075D01*
X14267155Y2705075D02*
X14317955Y2755875D01*
X14368755Y2705075D01*
X14317955Y2654275D01*
X14267155Y2705075D01*
X14332155D02*
X14382954Y2755875D01*
X14433755Y2705075D01*
X14382954Y2654275D01*
X14332155Y2705075D01*
X14849796Y2706654D02*
X14900595Y2757454D01*
X14951395Y2706654D01*
X14900595Y2655854D01*
X14849796Y2706654D01*
X14784795D02*
X14835596Y2757454D01*
X14886395Y2706654D01*
X14835596Y2655854D01*
X14784795Y2706654D01*
X14849796Y2526655D02*
X14900595Y2577455D01*
X14951395Y2526655D01*
X14900595Y2475855D01*
X14849796Y2526655D01*
X14784795Y2646655D02*
X14835596Y2697455D01*
X14886395Y2646655D01*
X14835596Y2595855D01*
X14784795Y2646655D01*
X14849796Y2586655D02*
X14900595Y2637455D01*
X14951395Y2586655D01*
X14900595Y2535855D01*
X14849796Y2586655D01*
Y2646655D02*
X14900595Y2697455D01*
X14951395Y2646655D01*
X14900595Y2595855D01*
X14849796Y2646655D01*
X14784795Y2586655D02*
X14835596Y2637455D01*
X14886395Y2586655D01*
X14835596Y2535855D01*
X14784795Y2586655D01*
Y2526655D02*
X14835596Y2577455D01*
X14886395Y2526655D01*
X14835596Y2475855D01*
X14784795Y2526655D01*
X8671535Y2365992D02*
X8696935Y2391392D01*
X8722335D01*
X8696935Y2416792D01*
X8722335Y2442192D01*
X8696935D01*
X8671535Y2467592D01*
X8646135Y2442192D01*
X8620735D01*
X8646135Y2416792D01*
X8620735Y2391392D01*
X8646135D01*
X8671535Y2365992D01*
X8613294Y2366316D02*
X8638694Y2391716D01*
X8664094D01*
X8638694Y2417116D01*
X8664094Y2442516D01*
X8638694D01*
X8613294Y2467916D01*
X8587894Y2442516D01*
X8562494D01*
X8587894Y2417116D01*
X8562494Y2391716D01*
X8587894D01*
X8613294Y2366316D01*
X8785835Y2365992D02*
X8811235Y2391392D01*
X8836635D01*
X8811235Y2416792D01*
X8836635Y2442192D01*
X8811235D01*
X8785835Y2467592D01*
X8760435Y2442192D01*
X8735035D01*
X8760435Y2416792D01*
X8735035Y2391392D01*
X8760435D01*
X8785835Y2365992D01*
X8727594Y2366316D02*
X8752994Y2391716D01*
X8778394D01*
X8752994Y2417116D01*
X8778394Y2442516D01*
X8752994D01*
X8727594Y2467916D01*
X8702194Y2442516D01*
X8676794D01*
X8702194Y2417116D01*
X8676794Y2391716D01*
X8702194D01*
X8727594Y2366316D01*
X9231713Y2939975D02*
X9282513Y2990775D01*
X9333313Y2939975D01*
X9282513Y2889175D01*
X9231713Y2939975D01*
X9433643D02*
X9484443Y2990775D01*
X9535243Y2939975D01*
X9484443Y2889175D01*
X9433643Y2939975D01*
X9332678D02*
X9383478Y2990775D01*
X9434278Y2939975D01*
X9383478Y2889175D01*
X9332678Y2939975D01*
X9635573D02*
X9686373Y2990775D01*
X9737173Y2939975D01*
X9686373Y2889175D01*
X9635573Y2939975D01*
X9534608D02*
X9585408Y2990775D01*
X9636208Y2939975D01*
X9585408Y2889175D01*
X9534608Y2939975D01*
X9837503D02*
X9888303Y2990775D01*
X9939103Y2939975D01*
X9888303Y2889175D01*
X9837503Y2939975D01*
X9736538D02*
X9787338Y2990775D01*
X9838138Y2939975D01*
X9787338Y2889175D01*
X9736538Y2939975D01*
X10039433D02*
X10090233Y2990775D01*
X10141033Y2939975D01*
X10090233Y2889175D01*
X10039433Y2939975D01*
X9938468D02*
X9989268Y2990775D01*
X10040068Y2939975D01*
X9989268Y2889175D01*
X9938468Y2939975D01*
X10233635Y2766035D02*
X10284435Y2816835D01*
X10335235Y2766035D01*
X10284435Y2715235D01*
X10233635Y2766035D01*
X10035515D02*
X10086315Y2816835D01*
X10137115Y2766035D01*
X10086315Y2715235D01*
X10035515Y2766035D01*
X9834855D02*
X9885655Y2816835D01*
X9936455Y2766035D01*
X9885655Y2715235D01*
X9834855Y2766035D01*
X9631655D02*
X9682455Y2816835D01*
X9733255Y2766035D01*
X9682455Y2715235D01*
X9631655Y2766035D01*
X9430995D02*
X9481795Y2816835D01*
X9532595Y2766035D01*
X9481795Y2715235D01*
X9430995Y2766035D01*
X9232875D02*
X9283675Y2816835D01*
X9334475Y2766035D01*
X9283675Y2715235D01*
X9232875Y2766035D01*
X13515175Y2862038D02*
Y2963638D01*
X13616776D01*
Y2862038D01*
X13515175D01*
X13535495Y2882358D02*
Y2943318D01*
X13596455D01*
Y2882358D01*
X13535495D01*
X7012915Y2151355D02*
X7063715Y2202155D01*
X7114515Y2151355D01*
X7063715Y2100555D01*
X7012915Y2151355D01*
X7316675Y2512035D02*
X7367475Y2562835D01*
X7418275Y2512035D01*
X7367475Y2461235D01*
X7316675Y2512035D01*
X6525235Y1598955D02*
X6550635Y1624355D01*
X6576035D01*
X6550635Y1649755D01*
X6576035Y1675155D01*
X6550635D01*
X6525235Y1700555D01*
X6499835Y1675155D01*
X6474435D01*
X6499835Y1649755D01*
X6474435Y1624355D01*
X6499835D01*
X6525235Y1598955D01*
X8007475Y1839175D02*
X8032875Y1864575D01*
X8058275D01*
X8032875Y1889975D01*
X8058275Y1915375D01*
X8032875D01*
X8007475Y1940775D01*
X7982075Y1915375D01*
X7956675D01*
X7982075Y1889975D01*
X7956675Y1864575D01*
X7982075D01*
X8007475Y1839175D01*
X8072095Y1824214D02*
X8097495Y1849614D01*
X8122895D01*
X8097495Y1875014D01*
X8122895Y1900414D01*
X8097495D01*
X8072095Y1925814D01*
X8046695Y1900414D01*
X8021295D01*
X8046695Y1875014D01*
X8021295Y1849614D01*
X8046695D01*
X8072095Y1824214D01*
X7614175Y2045234D02*
X7664975Y2096034D01*
X7715775Y2045234D01*
X7664975Y1994434D01*
X7614175Y2045234D01*
X6412975Y2946375D02*
X6438375Y2971775D01*
X6463775D01*
X6438375Y2997175D01*
X6463775Y3022575D01*
X6438375D01*
X6412975Y3047975D01*
X6387575Y3022575D01*
X6362175D01*
X6387575Y2997175D01*
X6362175Y2971775D01*
X6387575D01*
X6412975Y2946375D01*
X1890020Y2218500D02*
X1915420Y2243900D01*
X1940820D01*
X1915420Y2269300D01*
X1940820Y2294700D01*
X1915420D01*
X1890020Y2320100D01*
X1864620Y2294700D01*
X1839220D01*
X1864620Y2269300D01*
X1839220Y2243900D01*
X1864620D01*
X1890020Y2218500D01*
X6856255Y2701834D02*
X6907055Y2752634D01*
X6957855Y2701834D01*
X6907055Y2651034D01*
X6856255Y2701834D01*
X8017198Y2875655D02*
X8067998Y2926455D01*
X8118798Y2875655D01*
X8067998Y2824855D01*
X8017198Y2875655D01*
X5297495Y2084732D02*
X5322895Y2110132D01*
X5348295D01*
X5322895Y2135532D01*
X5348295Y2160932D01*
X5322895D01*
X5297495Y2186332D01*
X5272095Y2160932D01*
X5246695D01*
X5272095Y2135532D01*
X5246695Y2110132D01*
X5272095D01*
X5297495Y2084732D01*
X10522175Y1463015D02*
X10572975Y1513815D01*
X10623775Y1463015D01*
X10572975Y1412215D01*
X10522175Y1463015D01*
X4335755Y2305375D02*
X4361155Y2330775D01*
X4386555D01*
X4361155Y2356175D01*
X4386555Y2381575D01*
X4361155D01*
X4335755Y2406975D01*
X4310355Y2381575D01*
X4284955D01*
X4310355Y2356175D01*
X4284955Y2330775D01*
X4310355D01*
X4335755Y2305375D01*
X4528955Y2673410D02*
X4554355Y2698810D01*
X4579755D01*
X4554355Y2724210D01*
X4579755Y2749610D01*
X4554355D01*
X4528955Y2775010D01*
X4503555Y2749610D01*
X4478155D01*
X4503555Y2724210D01*
X4478155Y2698810D01*
X4503555D01*
X4528955Y2673410D01*
X3980155Y1884655D02*
X4005555Y1910055D01*
X4030955D01*
X4005555Y1935455D01*
X4030955Y1960855D01*
X4005555D01*
X3980155Y1986255D01*
X3954755Y1960855D01*
X3929355D01*
X3954755Y1935455D01*
X3929355Y1910055D01*
X3954755D01*
X3980155Y1884655D01*
X3914115Y1973555D02*
X3939515Y1998955D01*
X3964915D01*
X3939515Y2024355D01*
X3964915Y2049755D01*
X3939515D01*
X3914115Y2075155D01*
X3888715Y2049755D01*
X3863315D01*
X3888715Y2024355D01*
X3863315Y1998955D01*
X3888715D01*
X3914115Y1973555D01*
X3159075Y1714475D02*
X3184475Y1739875D01*
X3209875D01*
X3184475Y1765275D01*
X3209875Y1790675D01*
X3184475D01*
X3159075Y1816075D01*
X3133675Y1790675D01*
X3108275D01*
X3133675Y1765275D01*
X3108275Y1739875D01*
X3133675D01*
X3159075Y1714475D01*
X7951434Y1241795D02*
X7976834Y1267195D01*
X8002234D01*
X7976834Y1292595D01*
X8002234Y1317995D01*
X7976834D01*
X7951434Y1343395D01*
X7926034Y1317995D01*
X7900634D01*
X7926034Y1292595D01*
X7900634Y1267195D01*
X7926034D01*
X7951434Y1241795D01*
X6228055Y1599175D02*
X6253455Y1624575D01*
X6278855D01*
X6253455Y1649975D01*
X6278855Y1675375D01*
X6253455D01*
X6228055Y1700775D01*
X6202655Y1675375D01*
X6177255D01*
X6202655Y1649975D01*
X6177255Y1624575D01*
X6202655D01*
X6228055Y1599175D01*
X7364694Y1189090D02*
X7390094Y1214490D01*
X7415494D01*
X7390094Y1239890D01*
X7415494Y1265290D01*
X7390094D01*
X7364694Y1290690D01*
X7339294Y1265290D01*
X7313894D01*
X7339294Y1239890D01*
X7313894Y1214490D01*
X7339294D01*
X7364694Y1189090D01*
X6690395Y1178535D02*
X6741195Y1229335D01*
X6791995Y1178535D01*
X6741195Y1127735D01*
X6690395Y1178535D01*
X6428295Y1220519D02*
X6453695Y1245919D01*
X6479095D01*
X6453695Y1271319D01*
X6479095Y1296719D01*
X6453695D01*
X6428295Y1322119D01*
X6402895Y1296719D01*
X6377495D01*
X6402895Y1271319D01*
X6377495Y1245919D01*
X6402895D01*
X6428295Y1220519D01*
X6870236Y2331955D02*
X6895636Y2357355D01*
X6921036D01*
X6895636Y2382755D01*
X6921036Y2408155D01*
X6895636D01*
X6870236Y2433555D01*
X6844836Y2408155D01*
X6819436D01*
X6844836Y2382755D01*
X6819436Y2357355D01*
X6844836D01*
X6870236Y2331955D01*
X7088300Y2409386D02*
X7113700Y2434786D01*
X7139100D01*
X7113700Y2460186D01*
X7139100Y2485586D01*
X7113700D01*
X7088300Y2510986D01*
X7062900Y2485586D01*
X7037500D01*
X7062900Y2460186D01*
X7037500Y2434786D01*
X7062900D01*
X7088300Y2409386D01*
X5240935Y1723354D02*
X5266335Y1748754D01*
X5291735D01*
X5266335Y1774154D01*
X5291735Y1799554D01*
X5266335D01*
X5240935Y1824954D01*
X5215535Y1799554D01*
X5190135D01*
X5215535Y1774154D01*
X5190135Y1748754D01*
X5215535D01*
X5240935Y1723354D01*
X4422475Y1808455D02*
X4447875Y1833855D01*
X4473275D01*
X4447875Y1859255D01*
X4473275Y1884655D01*
X4447875D01*
X4422475Y1910055D01*
X4397075Y1884655D01*
X4371675D01*
X4397075Y1859255D01*
X4371675Y1833855D01*
X4397075D01*
X4422475Y1808455D01*
X5681955Y2844775D02*
X5707355Y2870175D01*
X5732755D01*
X5707355Y2895575D01*
X5732755Y2920975D01*
X5707355D01*
X5681955Y2946375D01*
X5656555Y2920975D01*
X5631155D01*
X5656555Y2895575D01*
X5631155Y2870175D01*
X5656555D01*
X5681955Y2844775D01*
X1669254Y2170052D02*
X1720054Y2220852D01*
X1770854Y2170052D01*
X1720054Y2119252D01*
X1669254Y2170052D01*
X1720054Y1647252D02*
X1745454Y1672652D01*
X1770854D01*
X1745454Y1698052D01*
X1770854Y1723452D01*
X1745454D01*
X1720054Y1748852D01*
X1694654Y1723452D01*
X1669254D01*
X1694654Y1698052D01*
X1669254Y1672652D01*
X1694654D01*
X1720054Y1647252D01*
X1784331Y2007413D02*
Y2109013D01*
X1885931D01*
Y2007413D01*
X1784331D01*
X1804651Y2027733D02*
Y2088693D01*
X1865611D01*
Y2027733D01*
X1804651D01*
X2007614Y2075635D02*
X2033014Y2101035D01*
X2058414D01*
X2033014Y2126435D01*
X2058414Y2151835D01*
X2033014D01*
X2007614Y2177235D01*
X1982214Y2151835D01*
X1956814D01*
X1982214Y2126435D01*
X1956814Y2101035D01*
X1982214D01*
X2007614Y2075635D01*
X2349974Y2016635D02*
X2375374Y2042035D01*
X2400774D01*
X2375374Y2067435D01*
X2400774Y2092835D01*
X2375374D01*
X2349974Y2118235D01*
X2324574Y2092835D01*
X2299174D01*
X2324574Y2067435D01*
X2299174Y2042035D01*
X2324574D01*
X2349974Y2016635D01*
X4236695Y2037055D02*
X4262095Y2062455D01*
X4287495D01*
X4262095Y2087855D01*
X4287495Y2113255D01*
X4262095D01*
X4236695Y2138655D01*
X4211295Y2113255D01*
X4185895D01*
X4211295Y2087855D01*
X4185895Y2062455D01*
X4211295D01*
X4236695Y2037055D01*
X4285294Y2072615D02*
X4310694Y2098015D01*
X4336094D01*
X4310694Y2123415D01*
X4336094Y2148815D01*
X4310694D01*
X4285294Y2174215D01*
X4259894Y2148815D01*
X4234494D01*
X4259894Y2123415D01*
X4234494Y2098015D01*
X4259894D01*
X4285294Y2072615D01*
X2349974Y2134215D02*
X2375374Y2159615D01*
X2400774D01*
X2375374Y2185015D01*
X2400774Y2210415D01*
X2375374D01*
X2349974Y2235815D01*
X2324574Y2210415D01*
X2299174D01*
X2324574Y2185015D01*
X2299174Y2159615D01*
X2324574D01*
X2349974Y2134215D01*
X4777715Y2233431D02*
X4803115Y2258831D01*
X4828515D01*
X4803115Y2284231D01*
X4828515Y2309631D01*
X4803115D01*
X4777715Y2335031D01*
X4752315Y2309631D01*
X4726915D01*
X4752315Y2284231D01*
X4726915Y2258831D01*
X4752315D01*
X4777715Y2233431D01*
X4528955Y2085310D02*
X4554355Y2110710D01*
X4579755D01*
X4554355Y2136110D01*
X4579755Y2161510D01*
X4554355D01*
X4528955Y2186910D01*
X4503555Y2161510D01*
X4478155D01*
X4503555Y2136110D01*
X4478155Y2110710D01*
X4503555D01*
X4528955Y2085310D01*
X5048955Y2112838D02*
X5074355Y2138238D01*
X5099755D01*
X5074355Y2163638D01*
X5099755Y2189038D01*
X5074355D01*
X5048955Y2214438D01*
X5023555Y2189038D01*
X4998155D01*
X5023555Y2163638D01*
X4998155Y2138238D01*
X5023555D01*
X5048955Y2112838D01*
X3936975Y2310935D02*
X3962375Y2336335D01*
X3987775D01*
X3962375Y2361735D01*
X3987775Y2387135D01*
X3962375D01*
X3936975Y2412535D01*
X3911575Y2387135D01*
X3886175D01*
X3911575Y2361735D01*
X3886175Y2336335D01*
X3911575D01*
X3936975Y2310935D01*
X3502505Y2313345D02*
X3527905Y2338745D01*
X3553305D01*
X3527905Y2364145D01*
X3553305Y2389545D01*
X3527905D01*
X3502505Y2414945D01*
X3477105Y2389545D01*
X3451705D01*
X3477105Y2364145D01*
X3451705Y2338745D01*
X3477105D01*
X3502505Y2313345D01*
X4000475Y2418055D02*
X4051275Y2468855D01*
X4102075Y2418055D01*
X4051275Y2367255D01*
X4000475Y2418055D01*
X3685515Y2628875D02*
X3710915Y2654275D01*
X3736315D01*
X3710915Y2679675D01*
X3736315Y2705075D01*
X3710915D01*
X3685515Y2730475D01*
X3660115Y2705075D01*
X3634715D01*
X3660115Y2679675D01*
X3634715Y2654275D01*
X3660115D01*
X3685515Y2628875D01*
X4083974Y2628740D02*
X4109374Y2654140D01*
X4134774D01*
X4109374Y2679540D01*
X4134774Y2704940D01*
X4109374D01*
X4083974Y2730340D01*
X4058574Y2704940D01*
X4033174D01*
X4058574Y2679540D01*
X4033174Y2654140D01*
X4058574D01*
X4083974Y2628740D01*
X10246335Y1518895D02*
X10271735Y1544295D01*
X10297135D01*
X10271735Y1569695D01*
X10297135Y1595095D01*
X10271735D01*
X10246335Y1620495D01*
X10220935Y1595095D01*
X10195535D01*
X10220935Y1569695D01*
X10195535Y1544295D01*
X10220935D01*
X10246335Y1518895D01*
X10192995D02*
X10218395Y1544295D01*
X10243795D01*
X10218395Y1569695D01*
X10243795Y1595095D01*
X10218395D01*
X10192995Y1620495D01*
X10167595Y1595095D01*
X10142195D01*
X10167595Y1569695D01*
X10142195Y1544295D01*
X10167595D01*
X10192995Y1518895D01*
X11791992Y1468094D02*
X11817392Y1493494D01*
X11842792D01*
X11817392Y1518894D01*
X11842792Y1544294D01*
X11817392D01*
X11791992Y1569694D01*
X11766592Y1544294D01*
X11741192D01*
X11766592Y1518894D01*
X11741192Y1493494D01*
X11766592D01*
X11791992Y1468094D01*
X11752555Y1511275D02*
X11777955Y1536675D01*
X11803355D01*
X11777955Y1562075D01*
X11803355Y1587475D01*
X11777955D01*
X11752555Y1612875D01*
X11727155Y1587475D01*
X11701755D01*
X11727155Y1562075D01*
X11701755Y1536675D01*
X11727155D01*
X11752555Y1511275D01*
D224*
X1360855Y1469052D02*
G03*
X1360855Y1469052I-50800J0D01*
G01*
X1675855D02*
G03*
X1675855Y1469052I-50800J0D01*
G01*
X1360855Y2399052D02*
G03*
X1360855Y2399052I-50800J0D01*
G01*
X1675855D02*
G03*
X1675855Y2399052I-50800J0D01*
G01*
%TF.MD5,0a39886864b940f71a3f8d8af8dc9ac4*%
M02*
