%TF.GenerationSoftware,Altium Limited,Altium Designer,19.0.15 (446)*%
G04 Layer_Color=128*
%FSLAX45Y45*%
%MOMM*%
%TF.FileFunction,Paste,Bot*%
%TF.Part,Single*%
G01*
G75*
%TA.AperFunction,SMDPad,CuDef*%
%ADD12R,0.60000X0.75000*%
%ADD13R,0.64000X0.60000*%
%ADD14R,0.60000X0.64000*%
%ADD15R,0.75000X0.60000*%
%ADD17R,0.85000X0.95000*%
%ADD21R,0.90000X1.00000*%
%ADD34R,0.95000X0.85000*%
%ADD39R,1.20000X1.20000*%
%ADD64R,1.00000X0.90000*%
G04:AMPARAMS|DCode=101|XSize=1.57mm|YSize=0.41mm|CornerRadius=0.05125mm|HoleSize=0mm|Usage=FLASHONLY|Rotation=0.000|XOffset=0mm|YOffset=0mm|HoleType=Round|Shape=RoundedRectangle|*
%AMROUNDEDRECTD101*
21,1,1.57000,0.30750,0,0,0.0*
21,1,1.46750,0.41000,0,0,0.0*
1,1,0.10250,0.73375,-0.15375*
1,1,0.10250,-0.73375,-0.15375*
1,1,0.10250,-0.73375,0.15375*
1,1,0.10250,0.73375,0.15375*
%
%ADD101ROUNDEDRECTD101*%
G04:AMPARAMS|DCode=102|XSize=1.23mm|YSize=0.6mm|CornerRadius=0.075mm|HoleSize=0mm|Usage=FLASHONLY|Rotation=180.000|XOffset=0mm|YOffset=0mm|HoleType=Round|Shape=RoundedRectangle|*
%AMROUNDEDRECTD102*
21,1,1.23000,0.45000,0,0,180.0*
21,1,1.08000,0.60000,0,0,180.0*
1,1,0.15000,-0.54000,0.22500*
1,1,0.15000,0.54000,0.22500*
1,1,0.15000,0.54000,-0.22500*
1,1,0.15000,-0.54000,-0.22500*
%
%ADD102ROUNDEDRECTD102*%
%ADD103R,1.00000X1.40000*%
%ADD104R,1.15000X1.35000*%
%ADD105R,2.50000X1.15000*%
D12*
X6596351Y2938795D02*
D03*
Y2823795D02*
D03*
D13*
X7089580Y2951287D02*
D03*
Y2863287D02*
D03*
X6896076Y2925287D02*
D03*
Y2837287D02*
D03*
D14*
X6819055Y2701834D02*
D03*
X6907055D02*
D03*
D15*
X6478587Y2525138D02*
D03*
X6363587D02*
D03*
Y2643720D02*
D03*
X6478587D02*
D03*
D17*
X8439354Y2710743D02*
D03*
X8309354D02*
D03*
X8439354Y2534723D02*
D03*
X8309354D02*
D03*
D21*
X8144675Y2710743D02*
D03*
X8009675D02*
D03*
Y2534723D02*
D03*
X8144675D02*
D03*
D34*
X6758916Y2816295D02*
D03*
Y2946295D02*
D03*
D39*
X2457175Y2646275D02*
D03*
X2247175D02*
D03*
Y2008775D02*
D03*
X2457175D02*
D03*
Y1373775D02*
D03*
X2247175D02*
D03*
D64*
X7835875Y2689343D02*
D03*
Y2554343D02*
D03*
D101*
X7089580Y2328906D02*
D03*
Y2393906D02*
D03*
Y2458906D02*
D03*
Y2523906D02*
D03*
Y2588906D02*
D03*
Y2653906D02*
D03*
Y2718906D02*
D03*
X7663580D02*
D03*
Y2653906D02*
D03*
Y2588906D02*
D03*
Y2523906D02*
D03*
Y2458906D02*
D03*
Y2393906D02*
D03*
Y2328906D02*
D03*
D102*
X6659516Y2476475D02*
D03*
X6871516Y2381475D02*
D03*
Y2571475D02*
D03*
D103*
X6317975Y2777175D02*
D03*
X6412975Y2997175D02*
D03*
X6222975D02*
D03*
D104*
X7482775Y2918435D02*
D03*
X7307775D02*
D03*
D105*
X8676159Y2465926D02*
D03*
Y2780926D02*
D03*
%TF.MD5,1f6c57e839c55539213eaa5b304458f6*%
M02*
