%TF.GenerationSoftware,Altium Limited,Altium Designer,19.0.15 (446)*%
G04 Layer_Color=16711935*
%FSLAX45Y45*%
%MOMM*%
%TF.FileFunction,Soldermask,Bot*%
%TF.Part,Single*%
G01*
G75*
%TA.AperFunction,ViaPad*%
%ADD97C,1.98000*%
%TA.AperFunction,NonConductor*%
%ADD111R,12.01760X3.97786*%
%ADD112R,11.75144X3.97786*%
%ADD113R,15.94336X3.97786*%
%ADD114R,15.25909X3.97786*%
%ADD115R,6.41606X3.72121*%
%ADD116R,10.68128X5.34060*%
%ADD117R,9.94686X3.97786*%
%TA.AperFunction,SMDPad,CuDef*%
G04:AMPARAMS|DCode=118|XSize=1.7732mm|YSize=0.6132mm|CornerRadius=0.15285mm|HoleSize=0mm|Usage=FLASHONLY|Rotation=0.000|XOffset=0mm|YOffset=0mm|HoleType=Round|Shape=RoundedRectangle|*
%AMROUNDEDRECTD118*
21,1,1.77320,0.30750,0,0,0.0*
21,1,1.46750,0.61320,0,0,0.0*
1,1,0.30570,0.73375,-0.15375*
1,1,0.30570,-0.73375,-0.15375*
1,1,0.30570,-0.73375,0.15375*
1,1,0.30570,0.73375,0.15375*
%
%ADD118ROUNDEDRECTD118*%
G04:AMPARAMS|DCode=119|XSize=1.4332mm|YSize=0.8032mm|CornerRadius=0.1766mm|HoleSize=0mm|Usage=FLASHONLY|Rotation=180.000|XOffset=0mm|YOffset=0mm|HoleType=Round|Shape=RoundedRectangle|*
%AMROUNDEDRECTD119*
21,1,1.43320,0.45000,0,0,180.0*
21,1,1.08000,0.80320,0,0,180.0*
1,1,0.35320,-0.54000,0.22500*
1,1,0.35320,0.54000,0.22500*
1,1,0.35320,0.54000,-0.22500*
1,1,0.35320,-0.54000,-0.22500*
%
%ADD119ROUNDEDRECTD119*%
%ADD120R,0.95320X0.80320*%
%ADD121R,0.80320X0.84320*%
%ADD122R,0.84320X0.80320*%
%ADD123R,1.15320X1.05320*%
%ADD124R,0.80320X0.95320*%
%ADD125R,1.20320X1.60320*%
%ADD126R,1.35320X1.55320*%
%ADD127R,1.05320X1.15320*%
%ADD128R,1.10320X1.20320*%
%ADD129R,1.20320X1.10320*%
%ADD130R,2.70320X1.35320*%
%ADD131R,1.40320X1.40320*%
%TA.AperFunction,ComponentPad*%
G04:AMPARAMS|DCode=132|XSize=1.2032mm|YSize=2.5032mm|CornerRadius=0.6016mm|HoleSize=0mm|Usage=FLASHONLY|Rotation=270.000|XOffset=0mm|YOffset=0mm|HoleType=Round|Shape=RoundedRectangle|*
%AMROUNDEDRECTD132*
21,1,1.20320,1.30000,0,0,270.0*
21,1,0.00000,2.50320,0,0,270.0*
1,1,1.20320,-0.65000,0.00000*
1,1,1.20320,-0.65000,0.00000*
1,1,1.20320,0.65000,0.00000*
1,1,1.20320,0.65000,0.00000*
%
%ADD132ROUNDEDRECTD132*%
%ADD133C,1.72720*%
%TA.AperFunction,ViaPad*%
%ADD134C,2.60000*%
%ADD135C,1.62400*%
D97*
X2054975Y2329975D02*
D03*
Y1694975D02*
D03*
D111*
X11512354Y2734399D02*
D03*
D112*
X12752482Y2734040D02*
D03*
D113*
X14346288Y2623022D02*
D03*
D114*
X13724442Y2013422D02*
D03*
D115*
X10992332Y1977814D02*
D03*
D116*
X9753411Y2423762D02*
D03*
D117*
X9679418Y2948247D02*
D03*
D118*
X7089580Y2328906D02*
D03*
Y2393906D02*
D03*
Y2458906D02*
D03*
Y2523906D02*
D03*
Y2588906D02*
D03*
Y2653906D02*
D03*
Y2718906D02*
D03*
X7663580D02*
D03*
Y2653906D02*
D03*
Y2588906D02*
D03*
Y2523906D02*
D03*
Y2458906D02*
D03*
Y2393906D02*
D03*
Y2328906D02*
D03*
D119*
X6659516Y2476475D02*
D03*
X6871516Y2381475D02*
D03*
Y2571475D02*
D03*
D120*
X6478587Y2525138D02*
D03*
X6363587D02*
D03*
Y2643720D02*
D03*
X6478587D02*
D03*
D121*
X6819055Y2701834D02*
D03*
X6907055D02*
D03*
D122*
X7089580Y2951287D02*
D03*
Y2863287D02*
D03*
X6896076Y2925287D02*
D03*
Y2837287D02*
D03*
D123*
X6758916Y2816295D02*
D03*
Y2946295D02*
D03*
D124*
X6596351Y2938795D02*
D03*
Y2823795D02*
D03*
D125*
X6317975Y2777175D02*
D03*
X6412975Y2997175D02*
D03*
X6222975D02*
D03*
D126*
X7482775Y2918435D02*
D03*
X7307775D02*
D03*
D127*
X8439354Y2710743D02*
D03*
X8309354D02*
D03*
X8439354Y2534723D02*
D03*
X8309354D02*
D03*
D128*
X8144675Y2710743D02*
D03*
X8009675D02*
D03*
Y2534723D02*
D03*
X8144675D02*
D03*
D129*
X7835875Y2689343D02*
D03*
Y2554343D02*
D03*
D130*
X8676159Y2465926D02*
D03*
Y2780926D02*
D03*
D131*
X2457175Y2646275D02*
D03*
X2247175D02*
D03*
Y2008775D02*
D03*
X2457175D02*
D03*
Y1373775D02*
D03*
X2247175D02*
D03*
D132*
X1310055Y1469052D02*
D03*
X1625055D02*
D03*
X1310055Y2399052D02*
D03*
X1625055D02*
D03*
D133*
X5166335Y3068295D02*
D03*
X5669238D02*
D03*
D134*
X15001215Y1668755D02*
D03*
X8679155Y3017495D02*
D03*
D135*
X3568675Y1681455D02*
D03*
X3190215Y2603804D02*
D03*
X5524475Y1993875D02*
D03*
Y1798909D02*
D03*
%TF.MD5,468e3bf36be277a6ff6ff092ff579877*%
M02*
