%TF.GenerationSoftware,Altium Limited,Altium Designer,19.0.15 (446)*%
G04 Layer_Color=16711935*
%FSLAX45Y45*%
%MOMM*%
%TF.FileFunction,Other,Mechanical_13*%
%TF.Part,Single*%
G01*
G75*
%TA.AperFunction,NonConductor*%
%ADD88C,0.12700*%
%ADD106C,0.20000*%
%ADD136C,0.10000*%
%ADD204R,2.90000X0.65000*%
%ADD205R,4.60000X1.02220*%
%ADD206R,1.02220X4.60000*%
D88*
X7156580Y2273906D02*
X7596580D01*
X7156580Y2773906D02*
X7596580D01*
X7156580Y2273906D02*
Y2773906D01*
X7596580Y2273906D02*
Y2773906D01*
X6700516Y2622475D02*
X6830516D01*
X6700516Y2330475D02*
Y2622475D01*
Y2330475D02*
X6830516D01*
Y2622475D01*
X6242975Y2822174D02*
X6392975D01*
X6172975Y2902175D02*
Y2952175D01*
X6292975D01*
X6342975D02*
X6462975D01*
Y2902175D02*
Y2952175D01*
X3059235Y1916655D02*
X3133235D01*
Y1852655D02*
Y1916655D01*
X3059235Y1852655D02*
X3133235D01*
X3059235D02*
Y1916655D01*
X2587954Y1605415D02*
Y2205414D01*
X2987955D01*
Y1605415D02*
Y2205414D01*
X2587954Y1605415D02*
X2987955D01*
X2176974Y1337975D02*
Y1411975D01*
X2112974Y1337975D02*
X2176974D01*
X2112974D02*
Y1411975D01*
X2176974D01*
X2042615Y2176435D02*
X2102615D01*
Y2076435D02*
Y2176435D01*
X2042615Y2076435D02*
X2102615D01*
X2042615D02*
Y2176435D01*
X3417474Y3127475D02*
X3817475D01*
X3417474Y2627475D02*
X3817475D01*
X3417474D02*
Y3127475D01*
X3817475Y2627475D02*
Y3127475D01*
X7632475Y1384975D02*
X7932475D01*
X7632475Y1684975D02*
X7932475D01*
X7632475Y1384975D02*
Y1684975D01*
X7932475Y1384975D02*
Y1684975D01*
X2494974Y2489975D02*
X2694975D01*
X2494974Y2289975D02*
X2694975D01*
X2494974D02*
Y2489975D01*
X2694975Y2289975D02*
Y2489975D01*
X1740975Y1286235D02*
X1814975D01*
X1740975D02*
Y1350235D01*
X1814975D01*
Y1286235D02*
Y1350235D01*
X1257275Y2822155D02*
Y3106155D01*
Y2822155D02*
X1638275D01*
Y3106155D01*
X1257275D02*
X1638275D01*
X7846035Y2712935D02*
Y2996935D01*
X7465035D02*
X7846035D01*
X7465035Y2712935D02*
Y2996935D01*
Y2712935D02*
X7846035D01*
X6632475Y3105891D02*
X7322475D01*
X6632475Y2415891D02*
Y3105891D01*
Y2415891D02*
X7322475D01*
Y3105891D01*
X5373435Y2833075D02*
X5543435D01*
Y2958075D01*
X5373435D02*
X5543435D01*
X5373435Y2833075D02*
Y2958075D01*
X10875475Y1412975D02*
Y1486975D01*
X10939474D01*
Y1412975D02*
Y1486975D01*
X10875475Y1412975D02*
X10939474D01*
X10702975Y2462475D02*
Y2982475D01*
Y2462475D02*
X11257975D01*
Y2982475D01*
X10702975D02*
X11257975D01*
X10791975Y2371975D02*
X11311975D01*
X10791975Y1816975D02*
Y2371975D01*
Y1816975D02*
X11311975D01*
Y2371975D01*
X11573635Y2121415D02*
X12703634D01*
Y3141415D01*
X11573635D02*
X12703634D01*
X11573635Y2121415D02*
Y3141415D01*
X12960475Y2372838D02*
X13480475D01*
X12960475Y1817838D02*
Y2372838D01*
Y1817838D02*
X13480475D01*
Y2372838D01*
X14147775Y2811995D02*
X14528775D01*
X14147775D02*
Y3095995D01*
X14528775D01*
Y2811995D02*
Y3095995D01*
X13616975Y1765475D02*
Y2049475D01*
Y1765475D02*
X13997975D01*
Y2049475D01*
X13616975D02*
X13997975D01*
X13567975Y2462338D02*
Y2982338D01*
X13012975D02*
X13567975D01*
X13012975Y2462338D02*
Y2982338D01*
Y2462338D02*
X13567975D01*
X8516794Y1066974D02*
X8922795D01*
X8516794Y1472975D02*
X8922795D01*
Y1066974D02*
Y1472975D01*
X8516794Y1066974D02*
Y1472975D01*
X9929976Y2234972D02*
Y2518972D01*
X9548976D02*
X9929976D01*
X9548976Y2234972D02*
Y2518972D01*
Y2234972D02*
X9929976D01*
X6200475Y2904715D02*
X6484474D01*
X6200475Y2523715D02*
Y2904715D01*
Y2523715D02*
X6484474D01*
Y2904715D01*
D106*
X6962580Y2297906D02*
G03*
X6962580Y2297906I-10000J0D01*
G01*
X7025516Y2596475D02*
G03*
X7025516Y2596475I-10000J0D01*
G01*
X2677955Y1530415D02*
G03*
X2677955Y1530415I-10000J0D01*
G01*
X3182975Y3127974D02*
G03*
X3182975Y3127974I-10000J0D01*
G01*
X7712475Y1287975D02*
G03*
X7712475Y1287975I-10000J0D01*
G01*
X2413974Y2454975D02*
G03*
X2413974Y2454975I-10000J0D01*
G01*
X5263535Y2895575D02*
G03*
X5263535Y2895575I-10000J0D01*
G01*
X10630475Y2912474D02*
G03*
X10630475Y2912474I-10000J0D01*
G01*
X11251975Y2454475D02*
G03*
X11251975Y2454475I-10000J0D01*
G01*
X13420474Y2455338D02*
G03*
X13420474Y2455338I-10000J0D01*
G01*
X13660475Y2532339D02*
G03*
X13660475Y2532339I-10000J0D01*
G01*
D136*
X3021234Y1914655D02*
G03*
X3021234Y1914655I-5000J0D01*
G01*
X2179974Y1454975D02*
G03*
X2179974Y1454975I-5000J0D01*
G01*
X2007614Y2126435D02*
G03*
X2007614Y2126435I-5000J0D01*
G01*
X1862975Y1288235D02*
G03*
X1862975Y1288235I-5000J0D01*
G01*
X4890935Y1834154D02*
G03*
X4890935Y1834154I-50000J0D01*
G01*
X4566454Y2296110D02*
G03*
X4566454Y2296110I-50000J0D01*
G01*
X10882475Y1369975D02*
G03*
X10882475Y1369975I-5000J0D01*
G01*
X12069975Y1564975D02*
G03*
X12069975Y1564975I-50000J0D01*
G01*
X5737835Y1605155D02*
Y1833855D01*
X5991835Y1605155D02*
Y1833855D01*
X5737835D02*
X5763235D01*
X5966435D01*
X5991835D01*
X5600635Y1421255D02*
X5737835D01*
X5600635Y1484755D02*
X5737835D01*
X5600635Y1421255D02*
Y1484755D01*
X5833035Y1738454D02*
X5896635D01*
X5833035Y1674954D02*
X5896635D01*
X5991835Y1738454D02*
X6129034D01*
X5991835Y1674954D02*
X6129034D01*
X5896635D02*
Y1738454D01*
X5833035Y1674954D02*
Y1738454D01*
X5966435Y1590455D02*
X5991835Y1605155D01*
X5737835D02*
X5763235Y1590455D01*
X5966435Y1579855D02*
Y1590455D01*
X5763235Y1579855D02*
Y1590455D01*
X5991835Y1325855D02*
Y1554555D01*
X5737835Y1325855D02*
Y1554555D01*
X5833035Y1421255D02*
X5896635D01*
X5833035Y1484755D02*
X5896635D01*
X5833035Y1421255D02*
Y1484755D01*
X5896635Y1421255D02*
Y1484755D01*
X5737835Y1554555D02*
X5763235Y1569255D01*
X5966435D02*
X5991835Y1554555D01*
X5763235Y1569255D02*
Y1579855D01*
X5966435Y1569255D02*
Y1579855D01*
X6129034Y1674954D02*
Y1738454D01*
X5966435Y1325855D02*
X5991835D01*
X5763235D02*
X5966435D01*
X5737835D02*
X5763235D01*
X7480934Y1252294D02*
X7535934D01*
X7480934Y1147294D02*
X7535934D01*
Y1252294D01*
X7480934Y1147294D02*
Y1252294D01*
X7595234Y1252262D02*
X7650234D01*
X7595234Y1147262D02*
X7650234D01*
Y1252262D01*
X7595234Y1147262D02*
Y1252262D01*
X6368587Y2552638D02*
X6473587D01*
X6368587Y2497638D02*
X6473587D01*
Y2552638D01*
X6368587Y2497638D02*
Y2552638D01*
Y2616220D02*
X6473587D01*
X6368587Y2671219D02*
X6473587D01*
X6368587Y2616220D02*
Y2671219D01*
X6473587Y2616220D02*
Y2671219D01*
X6811555Y2675834D02*
Y2727834D01*
X6914555Y2675834D02*
Y2727834D01*
X6811555Y2675834D02*
X6914555D01*
X6811555Y2727834D02*
X6914555D01*
X7063580Y2958787D02*
X7115580D01*
X7063580Y2855787D02*
X7115580D01*
X7063580D02*
Y2958787D01*
X7115580Y2855787D02*
Y2958787D01*
X6870076Y2932787D02*
X6922076D01*
X6870076Y2829787D02*
X6922076D01*
X6870076D02*
Y2932787D01*
X6922076Y2829787D02*
Y2932787D01*
X6806416Y2793795D02*
Y2968795D01*
X6711416Y2793795D02*
Y2968795D01*
Y2793795D02*
X6806416D01*
X6711416Y2968795D02*
X6806416D01*
X6568851Y2828795D02*
Y2933795D01*
X6623851Y2828795D02*
Y2933795D01*
X6568851D02*
X6623851D01*
X6568851Y2828795D02*
X6623851D01*
X7285275Y2985935D02*
X7505275D01*
X7285275Y2850935D02*
X7505275D01*
Y2985935D01*
X7285275Y2850935D02*
Y2985935D01*
X8286854Y2758243D02*
X8461855D01*
X8286854Y2663243D02*
X8461855D01*
Y2758243D01*
X8286854Y2663243D02*
Y2758243D01*
Y2582223D02*
X8461855D01*
X8286854Y2487223D02*
X8461855D01*
Y2582223D01*
X8286854Y2487223D02*
Y2582223D01*
X7989675Y2663243D02*
X8164675D01*
X7989675Y2758243D02*
X8164675D01*
X7989675Y2663243D02*
Y2758243D01*
X8164675Y2663243D02*
Y2758243D01*
X7989675Y2487223D02*
X8164675D01*
X7989675Y2582223D02*
X8164675D01*
X7989675Y2487223D02*
Y2582223D01*
X8164675Y2487223D02*
Y2582223D01*
X7883375Y2534343D02*
Y2709343D01*
X7788375Y2534343D02*
Y2709343D01*
Y2534343D02*
X7883375D01*
X7788375Y2709343D02*
X7883375D01*
X8546159Y2460926D02*
X8806159D01*
X8546159Y2785926D02*
X8806159D01*
Y2460926D02*
Y2785926D01*
X8546159Y2460926D02*
Y2785926D01*
X2242175Y2713775D02*
X2462175D01*
X2242175Y2578775D02*
X2462175D01*
Y2713775D01*
X2242175Y2578775D02*
Y2713775D01*
Y1941275D02*
Y2076275D01*
X2462175Y1941275D02*
Y2076275D01*
X2242175Y1941275D02*
X2462175D01*
X2242175Y2076275D02*
X2462175D01*
X2242175Y1441275D02*
X2462175D01*
X2242175Y1306275D02*
X2462175D01*
Y1441275D01*
X2242175Y1306275D02*
Y1441275D01*
X2442855Y1462315D02*
Y1565315D01*
X2494855Y1462315D02*
Y1565315D01*
X2442855Y1462315D02*
X2494855D01*
X2442855Y1565315D02*
X2494855D01*
X3065055Y1338475D02*
X3168055D01*
X3065055Y1286475D02*
X3168055D01*
X3065055D02*
Y1338475D01*
X3168055Y1286475D02*
Y1338475D01*
X2779975Y1357175D02*
X2834975D01*
X2779975Y1462175D02*
X2834975D01*
X2779975Y1357175D02*
Y1462175D01*
X2834975Y1357175D02*
Y1462175D01*
X3165655Y1397415D02*
X3270655D01*
X3165655Y1452414D02*
X3270655D01*
Y1397415D02*
Y1452414D01*
X3165655Y1397415D02*
Y1452414D01*
X3165694Y1621374D02*
Y1676374D01*
X3270695Y1621374D02*
Y1676374D01*
X3165694D02*
X3270695D01*
X3165694Y1621374D02*
X3270695D01*
X3619475Y1066775D02*
Y1295475D01*
X3365475Y1066775D02*
Y1295475D01*
X3594075Y1066775D02*
X3619475D01*
X3390875D02*
X3594075D01*
X3365475D02*
X3390875D01*
X3619475Y1479374D02*
X3756674D01*
X3619475Y1415874D02*
X3756674D01*
Y1479374D01*
X3460675Y1162175D02*
X3524275D01*
X3460675Y1225675D02*
X3524275D01*
X3228275Y1162175D02*
X3365475D01*
X3228275Y1225675D02*
X3365475D01*
X3460675Y1162175D02*
Y1225675D01*
X3524275Y1162175D02*
Y1225675D01*
X3365475Y1295475D02*
X3390875Y1310175D01*
X3594075D02*
X3619475Y1295475D01*
X3390875Y1310175D02*
Y1320775D01*
X3594075Y1310175D02*
Y1320775D01*
X3365475Y1346075D02*
Y1574775D01*
X3619475Y1346075D02*
Y1574775D01*
X3460675Y1479374D02*
X3524275D01*
X3460675Y1415874D02*
X3524275D01*
Y1479374D01*
X3460675Y1415874D02*
Y1479374D01*
X3594075Y1331375D02*
X3619475Y1346075D01*
X3365475D02*
X3390875Y1331375D01*
X3594075Y1320775D02*
Y1331375D01*
X3390875Y1320775D02*
Y1331375D01*
X3228275Y1162175D02*
Y1225675D01*
X3365475Y1574775D02*
X3390875D01*
X3594075D01*
X3619475D01*
X3409735Y2251195D02*
X3544735D01*
X3409735Y2031195D02*
X3544735D01*
Y2251195D01*
X3409735Y2031195D02*
Y2251195D01*
X3206854Y1837475D02*
Y1932475D01*
X3381855Y1837475D02*
Y1932475D01*
X3206854D02*
X3381855D01*
X3206854Y1837475D02*
X3381855D01*
X3299875Y2019974D02*
Y2124974D01*
X3354874Y2019974D02*
Y2124974D01*
X3299875Y2019974D02*
X3354874D01*
X3299875Y2124974D02*
X3354874D01*
X3204622Y1989235D02*
Y2044235D01*
X3099622Y1989235D02*
Y2044235D01*
Y1989235D02*
X3204622D01*
X3099622Y2044235D02*
X3204622D01*
X3204615Y2093375D02*
Y2148375D01*
X3099615Y2093375D02*
Y2148375D01*
Y2093375D02*
X3204615D01*
X3099615Y2148375D02*
X3204615D01*
X3138015Y2247095D02*
X3193015D01*
X3138015Y2352095D02*
X3193015D01*
X3138015Y2247095D02*
Y2352095D01*
X3193015Y2247095D02*
Y2352095D01*
X3368455Y2403655D02*
X3423455D01*
X3368455Y2508655D02*
X3423455D01*
X3368455Y2403655D02*
Y2508655D01*
X3423455Y2403655D02*
Y2508655D01*
X2885974Y2294474D02*
X2988974D01*
X2885974Y2346474D02*
X2988974D01*
Y2294474D02*
Y2346474D01*
X2885974Y2294474D02*
Y2346474D01*
X3047818Y2600474D02*
Y2740474D01*
X2827819Y2600474D02*
Y2740474D01*
Y2600474D02*
X3047818D01*
X2827819Y2740474D02*
X3047818D01*
X2559155Y2530775D02*
X2734155D01*
X2559155Y2625775D02*
X2734155D01*
Y2530775D02*
Y2625775D01*
X2559155Y2530775D02*
Y2625775D01*
X2601535Y1349735D02*
Y1452735D01*
X2549535Y1349735D02*
Y1452735D01*
X2601535D01*
X2549535Y1349735D02*
X2601535D01*
X2301474Y1064975D02*
Y1229975D01*
X2626474Y1064975D02*
Y1229975D01*
X2301474D02*
X2626474D01*
X2301474Y1064975D02*
X2626474D01*
X2096475Y1264975D02*
X2191475D01*
X2096475Y1089974D02*
X2191475D01*
Y1264975D01*
X2096475Y1089974D02*
Y1264975D01*
X1901475Y1109975D02*
Y1329975D01*
X2036475Y1109975D02*
Y1329975D01*
X1901475Y1109975D02*
X2036475D01*
X1901475Y1329975D02*
X2036475D01*
X1903442Y1464855D02*
Y1567855D01*
X1851443Y1464855D02*
Y1567855D01*
X1903442D01*
X1851443Y1464855D02*
X1903442D01*
X2659795Y1357175D02*
X2714795D01*
X2659795Y1462175D02*
X2714795D01*
X2659795Y1357175D02*
Y1462175D01*
X2714795Y1357175D02*
Y1462175D01*
X2379515Y1453035D02*
Y1558035D01*
X2324515Y1453035D02*
Y1558035D01*
X2379515D01*
X2324515Y1453035D02*
X2379515D01*
X2335823Y1811147D02*
X2387823D01*
X2335823Y1708147D02*
X2387823D01*
Y1811147D01*
X2335823Y1708147D02*
Y1811147D01*
X2223975Y1736299D02*
Y1839299D01*
X2275975Y1736299D02*
Y1839299D01*
X2223975Y1736299D02*
X2275975D01*
X2223975Y1839299D02*
X2275975D01*
X2442195Y2039935D02*
Y2094935D01*
X2337194Y2039935D02*
Y2094935D01*
Y2039935D02*
X2442195D01*
X2337194Y2094935D02*
X2442195D01*
X2275974Y1918475D02*
Y2021475D01*
X2223974Y1918475D02*
Y2021475D01*
X2275974D01*
X2223974Y1918475D02*
X2275974D01*
X2442195Y2154975D02*
Y2209975D01*
X2337194Y2154975D02*
Y2209975D01*
Y2154975D02*
X2442195D01*
X2337194Y2209975D02*
X2442195D01*
X1851035Y1653914D02*
Y1756914D01*
X1903035Y1653914D02*
Y1756914D01*
X1851035Y1653914D02*
X1903035D01*
X1851035Y1756914D02*
X1903035D01*
X3157475Y2787475D02*
Y2842475D01*
X3052474Y2787475D02*
Y2842475D01*
Y2787475D02*
X3157475D01*
X3052474Y2842475D02*
X3157475D01*
Y3040475D02*
Y3095475D01*
X3052474Y3040475D02*
Y3095475D01*
Y3040475D02*
X3157475D01*
X3052474Y3095475D02*
X3157475D01*
Y2912475D02*
Y2967475D01*
X3052474Y2912475D02*
Y2967475D01*
Y2912475D02*
X3157475D01*
X3052474Y2967475D02*
X3157475D01*
X3889475Y2374555D02*
Y2549555D01*
X3984475Y2374555D02*
Y2549555D01*
X3889475Y2374555D02*
X3984475D01*
X3889475Y2549555D02*
X3984475D01*
X4036474Y2657040D02*
Y2832040D01*
X4131474Y2657040D02*
Y2832040D01*
X4036474Y2657040D02*
X4131474D01*
X4036474Y2832040D02*
X4131474D01*
X4058474Y3093475D02*
X4161475D01*
X4058474Y3041475D02*
X4161475D01*
X4058474D02*
Y3093475D01*
X4161475Y3041475D02*
Y3093475D01*
X5187495Y2163032D02*
X5292495D01*
X5187495Y2108032D02*
X5292495D01*
X5187495D02*
Y2163032D01*
X5292495Y2108032D02*
Y2163032D01*
X5321318Y2291578D02*
Y2394578D01*
X5269318Y2291578D02*
Y2394578D01*
X5321318D01*
X5269318Y2291578D02*
X5321318D01*
X5203995Y2281735D02*
Y2386735D01*
X5148995Y2281735D02*
Y2386735D01*
X5203995D01*
X5148995Y2281735D02*
X5203995D01*
X9227275Y1608255D02*
Y1983255D01*
X9517275D01*
Y1608255D02*
Y1983255D01*
X9227275Y1608255D02*
X9517275D01*
X8895364Y1610573D02*
Y1985573D01*
X9185364D01*
Y1610573D02*
Y1985573D01*
X8895364Y1610573D02*
X9185364D01*
X8567175Y1610576D02*
Y1985576D01*
X8857175D01*
Y1610576D02*
Y1985576D01*
X8567175Y1610576D02*
X8857175D01*
X7511255Y1629891D02*
Y1681890D01*
X7408255Y1629891D02*
Y1681890D01*
Y1629891D02*
X7511255D01*
X7408255Y1681890D02*
X7511255D01*
X7756475Y1912631D02*
X7808475D01*
X7756475Y1809631D02*
X7808475D01*
Y1912631D01*
X7756475Y1809631D02*
Y1912631D01*
X7007677Y1649975D02*
X7227676D01*
X7007677Y1789975D02*
X7227676D01*
Y1649975D02*
Y1789975D01*
X7007677Y1649975D02*
Y1789975D01*
X8185224Y1426414D02*
Y1478414D01*
X8082224Y1426414D02*
Y1478414D01*
Y1426414D02*
X8185224D01*
X8082224Y1478414D02*
X8185224D01*
X8095525Y1660984D02*
Y1712984D01*
X8198525Y1660984D02*
Y1712984D01*
X8095525D02*
X8198525D01*
X8095525Y1660984D02*
X8198525D01*
X12887975Y1202935D02*
Y1254934D01*
X12784975Y1202935D02*
Y1254934D01*
Y1202935D02*
X12887975D01*
X12784975Y1254934D02*
X12887975D01*
X11025275Y1317923D02*
Y1372923D01*
X10920275Y1317923D02*
Y1372923D01*
Y1317923D02*
X11025275D01*
X10920275Y1372923D02*
X11025275D01*
X10669975Y1374975D02*
X10774975D01*
X10669975Y1319975D02*
X10774975D01*
X10669975D02*
Y1374975D01*
X10774975Y1319975D02*
Y1374975D01*
X10997475Y1449974D02*
X11092475D01*
X10997475Y1624975D02*
X11092475D01*
X10997475Y1449974D02*
Y1624975D01*
X11092475Y1449974D02*
Y1624975D01*
X10669975Y1494975D02*
X10774975D01*
X10669975Y1439975D02*
X10774975D01*
X10669975D02*
Y1494975D01*
X10774975Y1439975D02*
Y1494975D01*
X10640250Y1542602D02*
Y1677602D01*
X10860250Y1542602D02*
Y1677602D01*
X10640250D02*
X10860250D01*
X10640250Y1542602D02*
X10860250D01*
X10041635Y1503576D02*
Y1678576D01*
X9946635Y1503576D02*
Y1678576D01*
X10041635D01*
X9946635Y1503576D02*
X10041635D01*
X12127474Y1077474D02*
X12232474D01*
X12127474Y1132474D02*
X12232474D01*
Y1077474D02*
Y1132474D01*
X12127474Y1077474D02*
Y1132474D01*
X11819975Y1078972D02*
X11994974D01*
X11819975Y1173971D02*
X11994974D01*
Y1078972D02*
Y1173971D01*
X11819975Y1078972D02*
Y1173971D01*
X11556455Y1075174D02*
X11661455D01*
X11556455Y1130174D02*
X11661455D01*
Y1075174D02*
Y1130174D01*
X11556455Y1075174D02*
Y1130174D01*
X11397475Y1097475D02*
Y1202475D01*
X11342475Y1097475D02*
Y1202475D01*
X11397475D01*
X11342475Y1097475D02*
X11397475D01*
X10344974Y1784257D02*
Y1959257D01*
X10249974Y1784257D02*
Y1959257D01*
X10344974D01*
X10249974Y1784257D02*
X10344974D01*
X10132475Y1704333D02*
X10307475D01*
X10132475Y1609334D02*
X10307475D01*
X10132475D02*
Y1704333D01*
X10307475Y1609334D02*
Y1704333D01*
X10189975Y1784257D02*
Y1959257D01*
X10094974Y1784257D02*
Y1959257D01*
X10189975D01*
X10094974Y1784257D02*
X10189975D01*
X10491955Y1501308D02*
Y1676308D01*
X10396955Y1501308D02*
Y1676308D01*
X10491955D01*
X10396955Y1501308D02*
X10491955D01*
X10783584Y1254975D02*
X10888584D01*
X10783584Y1199975D02*
X10888584D01*
X10783584D02*
Y1254975D01*
X10888584Y1199975D02*
Y1254975D01*
X10669975Y1134974D02*
X10774975D01*
X10669975Y1079974D02*
X10774975D01*
X10669975D02*
Y1134974D01*
X10774975Y1079974D02*
Y1134974D01*
X11076927Y1179975D02*
X11251926D01*
X11076927Y1274974D02*
X11251926D01*
Y1179975D02*
Y1274974D01*
X11076927Y1179975D02*
Y1274974D01*
X11112695Y1065813D02*
X11217695D01*
X11112695Y1120813D02*
X11217695D01*
Y1065813D02*
Y1120813D01*
X11112695Y1065813D02*
Y1120813D01*
X12887975Y1560295D02*
Y1612295D01*
X12784974Y1560295D02*
Y1612295D01*
Y1560295D02*
X12887975D01*
X12784974Y1612295D02*
X12887975D01*
X12992474Y1442795D02*
Y1494795D01*
X12889474Y1442795D02*
Y1494795D01*
Y1442795D02*
X12992474D01*
X12889474Y1494795D02*
X12992474D01*
X12377474Y1077474D02*
X12482474D01*
X12377474Y1132474D02*
X12482474D01*
Y1077474D02*
Y1132474D01*
X12377474Y1077474D02*
Y1132474D01*
X12492475Y1239935D02*
X12597475D01*
X12492475Y1184935D02*
X12597475D01*
X12492475D02*
Y1239935D01*
X12597475Y1184935D02*
Y1239935D01*
X12430975Y1451635D02*
Y1503635D01*
X12533975Y1451635D02*
Y1503635D01*
X12430975D02*
X12533975D01*
X12430975Y1451635D02*
X12533975D01*
X12658474Y1496295D02*
X12763474D01*
X12658474Y1441295D02*
X12763474D01*
X12658474D02*
Y1496295D01*
X12763474Y1441295D02*
Y1496295D01*
X5033115Y1285975D02*
Y1340974D01*
X4928115Y1285975D02*
Y1340974D01*
Y1285975D02*
X5033115D01*
X4928115Y1340974D02*
X5033115D01*
X3047818Y2405474D02*
Y2545474D01*
X2827818Y2405474D02*
Y2545474D01*
Y2405474D02*
X3047818D01*
X2827818Y2545474D02*
X3047818D01*
X1915735Y2173515D02*
Y2276515D01*
X1863735Y2173515D02*
Y2276515D01*
X1915735D01*
X1863735Y2173515D02*
X1915735D01*
X1863735Y2366555D02*
Y2469555D01*
X1915735Y2366555D02*
Y2469555D01*
X1863735Y2366555D02*
X1915735D01*
X1863735Y2469555D02*
X1915735D01*
X1329875Y2516279D02*
X1549875D01*
X1329875Y2651279D02*
X1549875D01*
Y2516279D02*
Y2651279D01*
X1329875Y2516279D02*
Y2651279D01*
X1675935Y1133843D02*
Y1238843D01*
X1620935Y1133843D02*
Y1238843D01*
X1675935D01*
X1620935Y1133843D02*
X1675935D01*
X1462375Y1098835D02*
Y1273835D01*
X1557375Y1098835D02*
Y1273835D01*
X1462375Y1098835D02*
X1557375D01*
X1462375Y1273835D02*
X1557375D01*
X1267375Y1111255D02*
Y1331255D01*
X1402375Y1111255D02*
Y1331255D01*
X1267375Y1111255D02*
X1402375D01*
X1267375Y1331255D02*
X1402375D01*
X1704315Y2944075D02*
Y2969475D01*
Y2740875D02*
Y2944075D01*
Y2715475D02*
Y2740875D01*
X2053414Y2578275D02*
X2116914D01*
X1947715Y2740875D02*
X1958315D01*
X1947715Y2944075D02*
X1958315D01*
X1933015Y2715475D02*
X1947715Y2740875D01*
X1933015Y2969475D02*
X1947715Y2944075D01*
X1799715Y2810675D02*
X1863215D01*
X1799715Y2874275D02*
X1863215D01*
Y2810675D02*
Y2874275D01*
X1799715Y2810675D02*
Y2874275D01*
X1704315Y2969475D02*
X1933015D01*
X1704315Y2715475D02*
X1933015D01*
X1958315Y2944075D02*
X1968915D01*
X1958315Y2740875D02*
X1968915D01*
Y2944075D02*
X1983615Y2969475D01*
X1968915Y2740875D02*
X1983615Y2715475D01*
X2053414Y2874275D02*
X2116914D01*
X2053414Y2810675D02*
X2116914D01*
X2053414Y2578275D02*
Y2715475D01*
X2116914Y2578275D02*
Y2715475D01*
X2053414Y2810675D02*
Y2874275D01*
X2116914Y2810675D02*
Y2874275D01*
X1799715Y3106675D02*
X1863215D01*
Y2969475D02*
Y3106675D01*
X1799715Y2969475D02*
Y3106675D01*
X2212315Y2715475D02*
Y2740875D01*
Y2944075D01*
Y2969475D01*
X1983615Y2715475D02*
X2212315D01*
X1983615Y2969475D02*
X2212315D01*
X1713335Y2651304D02*
X1888335D01*
X1713335Y2556303D02*
X1888335D01*
X1713335D02*
Y2651304D01*
X1888335Y2556303D02*
Y2651304D01*
X2248136Y2757331D02*
X2413136D01*
X2248136Y3082331D02*
X2413136D01*
X2248136Y2757331D02*
Y3082331D01*
X2413136Y2757331D02*
Y3082331D01*
X2480186Y2755935D02*
X2645186D01*
X2480186Y3080935D02*
X2645186D01*
X2480186Y2755935D02*
Y3080935D01*
X2645186Y2755935D02*
Y3080935D01*
X8192475Y2232475D02*
X8412474D01*
X8192475Y2372475D02*
X8412474D01*
Y2232475D02*
Y2372475D01*
X8192475Y2232475D02*
Y2372475D01*
X8193724Y2429975D02*
X8413724D01*
X8193724Y2569975D02*
X8413724D01*
Y2429975D02*
Y2569975D01*
X8193724Y2429975D02*
Y2569975D01*
X7951142Y2292337D02*
X8086142D01*
X7951142Y2512337D02*
X8086142D01*
X7951142Y2292337D02*
Y2512337D01*
X8086142Y2292337D02*
Y2512337D01*
X7732475Y2297474D02*
Y2517475D01*
X7597475Y2297474D02*
Y2517475D01*
X7732475D01*
X7597475Y2297474D02*
X7732475D01*
X7442475Y2359974D02*
X7537475D01*
X7442475Y2534975D02*
X7537475D01*
X7442475Y2359974D02*
Y2534975D01*
X7537475Y2359974D02*
Y2534975D01*
X8078015Y1541755D02*
X8183015D01*
X8078015Y1596754D02*
X8183015D01*
Y1541755D02*
Y1596754D01*
X8078015Y1541755D02*
Y1596754D01*
X8068525Y1361667D02*
X8173525D01*
X8068525Y1306667D02*
X8173525D01*
X8068525D02*
Y1361667D01*
X8173525Y1306667D02*
Y1361667D01*
X8069094Y1187141D02*
X8174094D01*
X8069094Y1242141D02*
X8174094D01*
Y1187141D02*
Y1242141D01*
X8069094Y1187141D02*
Y1242141D01*
X7280455Y1295815D02*
Y1350814D01*
X7385455Y1295815D02*
Y1350814D01*
X7280455D02*
X7385455D01*
X7280455Y1295815D02*
X7385455D01*
X7392215Y1395654D02*
X7497215D01*
X7392215Y1450654D02*
X7497215D01*
Y1395654D02*
Y1450654D01*
X7392215Y1395654D02*
Y1450654D01*
X7392975Y1563875D02*
X7497975D01*
X7392975Y1508875D02*
X7497975D01*
X7392975D02*
Y1563875D01*
X7497975Y1508875D02*
Y1563875D01*
X7769975Y1242141D02*
X7874975D01*
X7769975Y1187141D02*
X7874975D01*
X7769975D02*
Y1242141D01*
X7874975Y1187141D02*
Y1242141D01*
X7028995Y1341535D02*
Y1396534D01*
X7133995Y1341535D02*
Y1396534D01*
X7028995D02*
X7133995D01*
X7028995Y1341535D02*
X7133995D01*
X7007677Y1462475D02*
X7227676D01*
X7007677Y1602475D02*
X7227676D01*
Y1462475D02*
Y1602475D01*
X7007677Y1462475D02*
Y1602475D01*
X6526195Y1246035D02*
X6746195D01*
X6526195Y1111035D02*
X6746195D01*
X6526195D02*
Y1246035D01*
X6746195Y1111035D02*
Y1246035D01*
X6482975Y1323315D02*
X6508375D01*
X6711575D01*
X6736975D01*
X6874175Y1672414D02*
Y1735914D01*
X6711575Y1566715D02*
Y1577315D01*
X6508375Y1566715D02*
Y1577315D01*
X6711575Y1566715D02*
X6736975Y1552015D01*
X6482975D02*
X6508375Y1566715D01*
X6641775Y1418715D02*
Y1482215D01*
X6578175Y1418715D02*
Y1482215D01*
X6641775D01*
X6578175Y1418715D02*
X6641775D01*
X6482975Y1323315D02*
Y1552015D01*
X6736975Y1323315D02*
Y1552015D01*
X6508375Y1577315D02*
Y1587915D01*
X6711575Y1577315D02*
Y1587915D01*
X6482975Y1602615D02*
X6508375Y1587915D01*
X6711575D02*
X6736975Y1602615D01*
X6578175Y1672414D02*
Y1735914D01*
X6641775Y1672414D02*
Y1735914D01*
X6736975Y1672414D02*
X6874175D01*
X6736975Y1735914D02*
X6874175D01*
X6578175Y1672414D02*
X6641775D01*
X6578175Y1735914D02*
X6641775D01*
X6345775Y1418715D02*
Y1482215D01*
X6482975D01*
X6345775Y1418715D02*
X6482975D01*
X6711575Y1831315D02*
X6736975D01*
X6508375D02*
X6711575D01*
X6482975D02*
X6508375D01*
X6736975Y1602615D02*
Y1831315D01*
X6482975Y1602615D02*
Y1831315D01*
X6205795Y1131038D02*
X6380795D01*
X6205795Y1226038D02*
X6380795D01*
Y1131038D02*
Y1226038D01*
X6205795Y1131038D02*
Y1226038D01*
X6432475Y1916892D02*
Y2291892D01*
X6142475Y1916892D02*
X6432475D01*
X6142475D02*
Y2291892D01*
X6432475D01*
X6754975Y1916892D02*
Y2291892D01*
X6464975Y1916892D02*
X6754975D01*
X6464975D02*
Y2291892D01*
X6754975D01*
X7077475Y1916892D02*
Y2291892D01*
X6787475Y1916892D02*
X7077475D01*
X6787475D02*
Y2291892D01*
X7077475D01*
X7869975Y2389975D02*
Y2494975D01*
X7814975Y2389975D02*
Y2494975D01*
X7869975D01*
X7814975Y2389975D02*
X7869975D01*
X4250155Y1238355D02*
Y1413355D01*
X4345155Y1238355D02*
Y1413355D01*
X4250155Y1238355D02*
X4345155D01*
X4250155Y1413355D02*
X4345155D01*
X4412755Y1243474D02*
X4692755D01*
X4412755Y1383474D02*
X4692755D01*
X4412755Y1243474D02*
Y1383474D01*
X4692755Y1243474D02*
Y1383474D01*
X4740255Y1218801D02*
Y1323801D01*
X4795255Y1218801D02*
Y1323801D01*
X4740255Y1218801D02*
X4795255D01*
X4740255Y1323801D02*
X4795255D01*
X4750935Y1424154D02*
X5250935D01*
X4750935Y1924154D02*
X5250935D01*
Y1424154D02*
Y1924154D01*
X4750935Y1424154D02*
Y1924154D01*
X5417355Y1596654D02*
Y1701654D01*
X5362355Y1596654D02*
Y1701654D01*
X5417355D01*
X5362355Y1596654D02*
X5417355D01*
X4536859Y1525313D02*
X4639859D01*
X4536859Y1577313D02*
X4639859D01*
Y1525313D02*
Y1577313D01*
X4536859Y1525313D02*
Y1577313D01*
Y1639613D02*
X4639859D01*
X4536859Y1691613D02*
X4639859D01*
Y1639613D02*
Y1691613D01*
X4536859Y1639613D02*
Y1691613D01*
X4658359Y1867514D02*
Y1970514D01*
X4606359Y1867514D02*
Y1970514D01*
X4658359D01*
X4606359Y1867514D02*
X4658359D01*
X4551631D02*
Y1970514D01*
X4499631Y1867514D02*
Y1970514D01*
X4551631D01*
X4499631Y1867514D02*
X4551631D01*
X4312475Y1566675D02*
Y1621674D01*
X4417475Y1566675D02*
Y1621674D01*
X4312475D02*
X4417475D01*
X4312475Y1566675D02*
X4417475D01*
X4312475Y1676675D02*
X4417475D01*
X4312475Y1731674D02*
X4417475D01*
Y1676675D02*
Y1731674D01*
X4312475Y1676675D02*
Y1731674D01*
X4308255Y2246175D02*
Y2351175D01*
X4363254Y2246175D02*
Y2351175D01*
X4308255Y2246175D02*
X4363254D01*
X4308255Y2351175D02*
X4363254D01*
X5269335Y2630974D02*
X5321335D01*
X5269335Y2733974D02*
X5321335D01*
X5269335Y2630974D02*
Y2733974D01*
X5321335Y2630974D02*
Y2733974D01*
X5150495Y2630715D02*
X5202495D01*
X5150495Y2733715D02*
X5202495D01*
X5150495Y2630715D02*
Y2733715D01*
X5202495Y2630715D02*
Y2733715D01*
X4426454Y2206110D02*
X5086454D01*
X4426454Y2656110D02*
X5086454D01*
X4426454Y2206110D02*
Y2656110D01*
X5086454Y2206110D02*
Y2656110D01*
X4196495Y2676840D02*
X4251494D01*
X4196495Y2571840D02*
X4251494D01*
Y2676840D01*
X4196495Y2571840D02*
Y2676840D01*
X4928454Y2934206D02*
Y3037206D01*
X4980454Y2934206D02*
Y3037206D01*
X4928454Y2934206D02*
X4980454D01*
X4928454Y3037206D02*
X4980454D01*
X4814154Y2934206D02*
Y3037206D01*
X4866154Y2934206D02*
Y3037206D01*
X4814154Y2934206D02*
X4866154D01*
X4814154Y3037206D02*
X4866154D01*
X4699854Y2934206D02*
Y3037206D01*
X4751854Y2934206D02*
Y3037206D01*
X4699854Y2934206D02*
X4751854D01*
X4699854Y3037206D02*
X4751854D01*
X4582475Y2934975D02*
X4637475D01*
X4582475Y3039975D02*
X4637475D01*
X4582475Y2934975D02*
Y3039975D01*
X4637475Y2934975D02*
Y3039975D01*
X4469975Y2934975D02*
X4524975D01*
X4469975Y3039975D02*
X4524975D01*
X4469975Y2934975D02*
Y3039975D01*
X4524975Y2934975D02*
Y3039975D01*
X4074975Y2912474D02*
Y2967474D01*
X4179975Y2912474D02*
Y2967474D01*
X4074975D02*
X4179975D01*
X4074975Y2912474D02*
X4179975D01*
X5332835Y3116211D02*
X5507835D01*
X5332835Y3021211D02*
X5507835D01*
X5332835D02*
Y3116211D01*
X5507835Y3021211D02*
Y3116211D01*
X8062998Y2808155D02*
X8282998D01*
X8062998Y2943155D02*
X8282998D01*
Y2808155D02*
Y2943155D01*
X8062998Y2808155D02*
Y2943155D01*
X8124674Y2649955D02*
X8299675D01*
X8124674Y2744955D02*
X8299675D01*
Y2649955D02*
Y2744955D01*
X8124674Y2649955D02*
Y2744955D01*
X10057474Y2046757D02*
X10382475D01*
X10057474Y2211757D02*
X10382475D01*
Y2046757D02*
Y2211757D01*
X10057474Y2046757D02*
Y2211757D01*
X10214988Y2607195D02*
Y2827195D01*
X10354988Y2607195D02*
Y2827195D01*
X10214988Y2607195D02*
X10354988D01*
X10214988Y2827195D02*
X10354988D01*
X10016760Y2608338D02*
Y2828338D01*
X10156760Y2608338D02*
Y2828338D01*
X10016760Y2608338D02*
X10156760D01*
X10016760Y2828338D02*
X10156760D01*
X9815689Y2608338D02*
Y2828338D01*
X9955689Y2608338D02*
Y2828338D01*
X9815689Y2608338D02*
X9955689D01*
X9815689Y2828338D02*
X9955689D01*
X9614618Y2608338D02*
Y2828338D01*
X9754618Y2608338D02*
Y2828338D01*
X9614618Y2608338D02*
X9754618D01*
X9614618Y2828338D02*
X9754618D01*
X9413547Y2608338D02*
Y2828338D01*
X9553547Y2608338D02*
Y2828338D01*
X9413547Y2608338D02*
X9553547D01*
X9413547Y2828338D02*
X9553547D01*
X9215505Y2611221D02*
Y2831221D01*
X9355505Y2611221D02*
Y2831221D01*
X9215505Y2611221D02*
X9355505D01*
X9215505Y2831221D02*
X9355505D01*
X11519975Y1346935D02*
X11694975D01*
X11519975Y1441934D02*
X11694975D01*
Y1346935D02*
Y1441934D01*
X11519975Y1346935D02*
Y1441934D01*
X11519975Y1190279D02*
X11694975D01*
X11519975Y1285279D02*
X11694975D01*
Y1190279D02*
Y1285279D01*
X11519975Y1190279D02*
Y1285279D01*
X10615895Y1965996D02*
Y2017996D01*
X10718895Y1965996D02*
Y2017996D01*
X10615895D02*
X10718895D01*
X10615895Y1965996D02*
X10718895D01*
X10616475Y1857096D02*
Y1909096D01*
X10719475Y1857096D02*
Y1909096D01*
X10616475D02*
X10719475D01*
X10616475Y1857096D02*
X10719475D01*
X10517475Y2522475D02*
Y2697475D01*
X10612475Y2522475D02*
Y2697475D01*
X10517475Y2522475D02*
X10612475D01*
X10517475Y2697475D02*
X10612475D01*
X11609974Y1551135D02*
Y1771134D01*
X11469975Y1551135D02*
Y1771134D01*
X11609974D01*
X11469975Y1551135D02*
X11609974D01*
X11929975Y1239975D02*
X12344975D01*
X11929975Y1654975D02*
X12344975D01*
Y1239975D02*
Y1654975D01*
X11929975Y1239975D02*
Y1654975D01*
X12421335Y1616815D02*
Y1791815D01*
X12516334Y1616815D02*
Y1791815D01*
X12421335Y1616815D02*
X12516334D01*
X12421335Y1791815D02*
X12516334D01*
X12204021Y1781151D02*
Y1956151D01*
X12299021Y1781151D02*
Y1956151D01*
X12204021Y1781151D02*
X12299021D01*
X12204021Y1956151D02*
X12299021D01*
X12142615Y1776408D02*
Y1951409D01*
X12047615Y1776408D02*
Y1951409D01*
X12142615D01*
X12047615Y1776408D02*
X12142615D01*
X11882855Y1741275D02*
Y1916275D01*
X11977854Y1741275D02*
Y1916275D01*
X11882855Y1741275D02*
X11977854D01*
X11882855Y1916275D02*
X11977854D01*
X14836127Y1511110D02*
X15056126D01*
X14836127Y1371110D02*
X15056126D01*
X14836127D02*
Y1511110D01*
X15056126Y1371110D02*
Y1511110D01*
X14836127Y1308610D02*
X15056126D01*
X14836127Y1168610D02*
X15056126D01*
X14836127D02*
Y1308610D01*
X15056126Y1168610D02*
Y1308610D01*
X14561215Y1169975D02*
Y1344975D01*
X14466216Y1169975D02*
Y1344975D01*
X14561215D01*
X14466216Y1169975D02*
X14561215D01*
X14721214Y1169975D02*
Y1344975D01*
X14626215Y1169975D02*
Y1344975D01*
X14721214D01*
X14626215Y1169975D02*
X14721214D01*
X14506215Y1424975D02*
X14681215D01*
X14506215Y1519975D02*
X14681215D01*
Y1424975D02*
Y1519975D01*
X14506215Y1424975D02*
Y1519975D01*
X14431215Y1589975D02*
X14756215D01*
X14431215Y1754975D02*
X14756215D01*
Y1589975D02*
Y1754975D01*
X14431215Y1589975D02*
Y1754975D01*
X13171156Y1538075D02*
Y1713075D01*
X13076157Y1538075D02*
Y1713075D01*
X13171156D01*
X13076157Y1538075D02*
X13171156D01*
X12658975Y1373935D02*
X12763975D01*
X12658975Y1318935D02*
X12763975D01*
X12658975D02*
Y1373935D01*
X12763975Y1318935D02*
Y1373935D01*
X13370126Y1413555D02*
Y1633555D01*
X13230125Y1413555D02*
Y1633555D01*
X13370126D01*
X13230125Y1413555D02*
X13370126D01*
X12992455Y1320434D02*
Y1372434D01*
X12889455Y1320434D02*
Y1372434D01*
Y1320434D02*
X12992455D01*
X12889455Y1372434D02*
X12992455D01*
X13567625Y1413555D02*
Y1633555D01*
X13427626Y1413555D02*
Y1633555D01*
X13567625D01*
X13427626Y1413555D02*
X13567625D01*
X13765126Y1414770D02*
Y1634770D01*
X13625127Y1414770D02*
Y1634770D01*
X13765126D01*
X13625127Y1414770D02*
X13765126D01*
X13820126D02*
X13960126D01*
X13820126Y1634770D02*
X13960126D01*
X13820126Y1414770D02*
Y1634770D01*
X13960126Y1414770D02*
Y1634770D01*
X14578435Y1932473D02*
Y2692473D01*
X14118436Y1932473D02*
Y2692473D01*
X14578435D01*
X14118436Y1932473D02*
X14578435D01*
X15088976Y1932465D02*
Y2692465D01*
X14628975Y1932465D02*
Y2692465D01*
X15088976D01*
X14628975Y1932465D02*
X15088976D01*
X13927475Y2147475D02*
Y2367475D01*
X14067474Y2147475D02*
Y2367475D01*
X13927475Y2147475D02*
X14067474D01*
X13927475Y2367475D02*
X14067474D01*
X13734975Y2148338D02*
Y2368338D01*
X13874976Y2148338D02*
Y2368338D01*
X13734975Y2148338D02*
X13874976D01*
X13734975Y2368338D02*
X13874976D01*
X13542474Y2147475D02*
Y2367475D01*
X13682475Y2147475D02*
Y2367475D01*
X13542474Y2147475D02*
X13682475D01*
X13542474Y2367475D02*
X13682475D01*
X13409975Y3047474D02*
X13584975D01*
X13409975Y3142474D02*
X13584975D01*
Y3047474D02*
Y3142474D01*
X13409975Y3047474D02*
Y3142474D01*
X8677615Y2543376D02*
X9437615D01*
X8677615Y2083377D02*
X9437615D01*
X8677615D02*
Y2543376D01*
X9437615Y2083377D02*
Y2543376D01*
D204*
X9372272Y1640744D02*
D03*
X9040363Y1643097D02*
D03*
X8712173Y1643137D02*
D03*
X6287487Y2259391D02*
D03*
X6610024Y2259389D02*
D03*
X6932487Y2259391D02*
D03*
D205*
X14348434Y1983583D02*
D03*
X14858975Y1983574D02*
D03*
D206*
X9386505Y2313377D02*
D03*
%TF.MD5,b445125fb0d63811ab17d244be6f978d*%
M02*
