%TF.GenerationSoftware,Altium Limited,Altium Designer,19.0.15 (446)*%
G04 Layer_Color=16711935*
%FSLAX45Y45*%
%MOMM*%
%TF.FileFunction,Keep-out,Top*%
%TF.Part,CustomerPanel*%
G01*
G75*
%TA.AperFunction,NonConductor*%
%ADD119C,0.50000*%
%ADD207R,150.92680X36.31052*%
D119*
X9814020Y5950380D02*
G03*
X9864020Y5900380I50000J0D01*
G01*
X9162443D02*
G03*
X9212443Y5950380I0J50000D01*
G01*
X9814020D02*
G03*
X9764020Y6000380I-50000J0D01*
G01*
X9262443D02*
G03*
X9212443Y5950380I0J-50000D01*
G01*
X9864020Y8100358D02*
G03*
X9814020Y8050359I0J-50000D01*
G01*
X9212443D02*
G03*
X9162443Y8100358I-50000J0D01*
G01*
X9212443Y8050359D02*
G03*
X9262443Y8000359I50000J0D01*
G01*
X9764020D02*
G03*
X9814020Y8050359I0J50000D01*
G01*
X7454356Y8100358D02*
G03*
X7404356Y8050358I0J-50000D01*
G01*
X7224366Y7900358D02*
G03*
X7274366Y7850358I50000J0D01*
G01*
X7354366D02*
G03*
X7404366Y7900358I0J50000D01*
G01*
X7224366Y8050358D02*
G03*
X7174366Y8100358I-50000J0D01*
G01*
X4353106Y8099620D02*
G03*
X4303106Y8049620I0J-50000D01*
G01*
X4123116Y7899620D02*
G03*
X4173116Y7849621I50000J0D01*
G01*
X4253116D02*
G03*
X4303116Y7899620I0J50000D01*
G01*
X4123116Y8049620D02*
G03*
X4073116Y8099620I-50000J0D01*
G01*
X16549120Y5900459D02*
G03*
X16599120Y5950459I0J50000D01*
G01*
X16598019Y8050359D02*
G03*
X16548120Y8100259I-49900J0D01*
G01*
X15208116Y7850459D02*
G03*
X15258015Y7900359I0J49900D01*
G01*
X15078116D02*
G03*
X15128017Y7850459I49900J0D01*
G01*
X15308116Y8100159D02*
G03*
X15258215Y8050259I0J-49900D01*
G01*
X15078017Y8050359D02*
G03*
X15028116Y8100259I-49900J0D01*
G01*
X15128107Y6150458D02*
G03*
X15078107Y6100458I0J-50000D01*
G01*
X15258105D02*
G03*
X15208105Y6150458I-50000J0D01*
G01*
X15258105Y5950459D02*
G03*
X15308105Y5900459I50000J0D01*
G01*
X15028116D02*
G03*
X15078116Y5950459I0J50000D01*
G01*
X2499120D02*
G03*
X2549120Y5900459I50000J0D01*
G01*
Y8100248D02*
G03*
X2499220Y8050348I0J-49900D01*
G01*
X11624176Y8050458D02*
G03*
X11574276Y8100358I-49900J0D01*
G01*
X11854276Y8100259D02*
G03*
X11804376Y8050359I0J-49900D01*
G01*
X11624276Y7900458D02*
G03*
X11674176Y7850558I49900J0D01*
G01*
X11574286Y5900459D02*
G03*
X11624286Y5950459I0J50000D01*
G01*
X11804276D02*
G03*
X11854276Y5900459I50000J0D01*
G01*
X11804276Y6100458D02*
G03*
X11754276Y6150458I-50000J0D01*
G01*
X7404356Y5950459D02*
G03*
X7454356Y5900459I50000J0D01*
G01*
X7404356Y6100458D02*
G03*
X7354356Y6150458I-50000J0D01*
G01*
X4303116Y5950459D02*
G03*
X4353116Y5900459I50000J0D01*
G01*
X4173116Y6150458D02*
G03*
X4123116Y6100458I0J-50000D01*
G01*
X11754276Y7850558D02*
G03*
X11804176Y7900458I0J49900D01*
G01*
X11674276Y6150458D02*
G03*
X11624276Y6100458I0J-50000D01*
G01*
X7274356Y6150458D02*
G03*
X7224356Y6100458I0J-50000D01*
G01*
X7174366Y5900459D02*
G03*
X7224366Y5950459I0J50000D01*
G01*
X4303116Y6100458D02*
G03*
X4253116Y6150458I-50000J0D01*
G01*
X4073126Y5900459D02*
G03*
X4123126Y5950459I0J50000D01*
G01*
X7454356Y5900459D02*
X9162365D01*
X9864020Y5900380D02*
X11574286D01*
X9262443Y6000380D02*
X9764020D01*
X16598019Y8050359D02*
X16599120Y5950459D01*
X2499220Y5950558D02*
Y8050348D01*
X9262443Y8000359D02*
X9764020D01*
X7454356Y8100358D02*
X9162443D01*
X9864020D02*
X11574276Y8100358D01*
X15308105Y5900459D02*
X16549120D01*
X15308116Y8100259D02*
X16548120D01*
X11854276D02*
X15028116D01*
X11854276Y5900459D02*
X15028116D01*
X4353106Y8100358D02*
X7174366D01*
X4353116Y5900459D02*
X7174366D01*
X2549120D02*
X4073126D01*
X2549120Y8100248D02*
X4073116D01*
X7274366Y7850358D02*
X7354366D01*
X7404366Y7900358D02*
Y8050358D01*
X7224356Y7901303D02*
Y8050358D01*
X4173116Y7849620D02*
X4253116D01*
X4303116Y7899620D02*
Y8049620D01*
X4123106Y7900565D02*
Y8049620D01*
X15128116Y7850359D02*
X15208116D01*
X15078116Y7900359D02*
Y8050359D01*
X15258116Y7900359D02*
Y8050359D01*
X15128107Y6150459D02*
X15208105D01*
X15258105Y5950459D02*
Y6100458D01*
X15078107Y5950459D02*
Y6100458D01*
X11624276Y5950459D02*
Y6100458D01*
X7404366Y5950459D02*
Y6100458D01*
X7224356Y5950459D02*
Y6100458D01*
X4303126Y5950459D02*
Y6099514D01*
X11804276Y5950459D02*
Y6100458D01*
Y7900458D02*
Y8050458D01*
X4123116Y5950459D02*
Y6100458D01*
X11674276Y6150459D02*
X11754276D01*
X11624276Y7900458D02*
Y8050458D01*
X11674276Y7850459D02*
X11754276D01*
X7274356Y6150459D02*
X7354366D01*
X4173116D02*
X4253116D01*
D207*
X9547860Y3814506D02*
D03*
Y10188514D02*
D03*
%TF.MD5,a1e9b53c5db3f35982d2998960a7f930*%
M02*
