%TF.GenerationSoftware,Altium Limited,Altium Designer,19.0.15 (446)*%
G04 Layer_Physical_Order=2*
G04 Layer_Color=32768*
%FSLAX45Y45*%
%MOMM*%
%TF.FileFunction,Copper,L2,Inr,Plane*%
%TF.Part,CustomerPanel*%
G01*
G75*
%TA.AperFunction,ViaPad*%
%ADD93C,0.45720*%
%TA.AperFunction,NonConductor*%
%ADD96C,1.01600*%
%TA.AperFunction,WasherPad*%
%ADD97C,1.81600*%
%TA.AperFunction,ViaPad*%
%ADD98C,1.01600*%
%TA.AperFunction,ComponentPad*%
%ADD99C,0.45400*%
%TA.AperFunction,ViaPad*%
%ADD100C,1.75400*%
%TA.AperFunction,ComponentPad*%
%ADD101C,2.62900*%
%ADD102C,1.15400*%
%ADD103C,1.01600*%
%TA.AperFunction,ViaPad*%
%ADD104C,0.55880*%
%ADD105C,0.50800*%
%ADD106C,0.85400*%
%ADD107C,2.23400*%
G36*
X9243736Y8380770D02*
X9261589Y8373375D01*
X9277657Y8362638D01*
X9291322Y8348974D01*
X9302058Y8332906D01*
X9309453Y8315052D01*
X9313223Y8296099D01*
Y8286437D01*
Y8049900D01*
Y8039954D01*
X9305611Y8021577D01*
X9291546Y8007512D01*
X9273169Y7999900D01*
X9253278D01*
X9234901Y8007512D01*
X9220835Y8021577D01*
X9213223Y8039954D01*
Y8049900D01*
X9212262Y8059654D01*
X9204797Y8077678D01*
X9191002Y8091473D01*
X9172978Y8098939D01*
X9163223Y8099900D01*
Y8099899D01*
X7455136D01*
X7445382Y8098939D01*
X7427358Y8091473D01*
X7413563Y8077678D01*
X7406097Y8059654D01*
X7405136Y8049900D01*
X7405146D01*
Y7899900D01*
X7405146Y7889954D01*
X7397534Y7871577D01*
X7383469Y7857512D01*
X7365091Y7849900D01*
X7355146D01*
Y7849899D01*
X7275146D01*
X7265200Y7849900D01*
X7246823Y7857512D01*
X7232758Y7871577D01*
X7225146Y7889954D01*
Y7899900D01*
X7225136Y7900844D01*
Y8049900D01*
X7225146D01*
X7224185Y8059654D01*
X7216719Y8077678D01*
X7202925Y8091473D01*
X7184901Y8098939D01*
X7175146Y8099899D01*
X4353886D01*
Y8099162D01*
X4344132Y8098201D01*
X4326108Y8090735D01*
X4312313Y8076940D01*
X4304847Y8058916D01*
X4303886Y8049162D01*
X4303896D01*
Y7899162D01*
X4303896Y7889216D01*
X4296284Y7870839D01*
X4282219Y7856774D01*
X4263842Y7849162D01*
X4253896D01*
Y7849162D01*
X4173896D01*
X4163951Y7849162D01*
X4145573Y7856774D01*
X4131508Y7870839D01*
X4123896Y7889216D01*
Y7899162D01*
X4123886Y7900106D01*
Y8049162D01*
X4123896D01*
X4122935Y8058916D01*
X4115470Y8076940D01*
X4101675Y8090735D01*
X4083651Y8098201D01*
X4073896Y8099162D01*
Y8099790D01*
X2549900D01*
X2540165Y8098831D01*
X2522177Y8091380D01*
X2508410Y8077612D01*
X2500959Y8059624D01*
X2500000Y8049890D01*
Y8037638D01*
X2490623Y8015002D01*
X2473298Y7997676D01*
X2450661Y7988300D01*
X2431655D01*
X2418403Y7990936D01*
X2405921Y7996106D01*
X2394686Y8003613D01*
X2385133Y8013166D01*
X2377626Y8024401D01*
X2372456Y8036883D01*
X2369820Y8050135D01*
Y8056890D01*
Y8257540D01*
Y8270048D01*
X2374700Y8294584D01*
X2384274Y8317697D01*
X2398172Y8338498D01*
X2415862Y8356187D01*
X2436663Y8370086D01*
X2459775Y8379659D01*
X2484312Y8384540D01*
X9224782D01*
X9243736Y8380770D01*
D02*
G37*
G36*
X16639024Y8377774D02*
X16662137Y8368201D01*
X16682938Y8354302D01*
X16700629Y8336612D01*
X16714526Y8315812D01*
X16724100Y8292699D01*
X16728979Y8268163D01*
Y8255655D01*
Y8056901D01*
Y8050145D01*
X16726344Y8036893D01*
X16721175Y8024411D01*
X16713667Y8013177D01*
X16704114Y8003623D01*
X16692879Y7996116D01*
X16680397Y7990946D01*
X16667145Y7988310D01*
X16648138D01*
X16625502Y7997687D01*
X16608177Y8015012D01*
X16598801Y8037649D01*
Y8049900D01*
X16597841Y8059635D01*
X16590390Y8077623D01*
X16576624Y8091390D01*
X16558635Y8098841D01*
X16548900Y8099800D01*
X15308896D01*
Y8099700D01*
X15299161Y8098741D01*
X15281174Y8091290D01*
X15267406Y8077523D01*
X15259953Y8059535D01*
X15258997Y8049800D01*
X15258896Y8049900D01*
Y7899900D01*
X15258797D01*
Y7889974D01*
X15251199Y7871634D01*
X15237161Y7857596D01*
X15218822Y7850000D01*
X15208896D01*
Y7849900D01*
X15128896D01*
X15128796Y7850000D01*
X15118871D01*
X15100529Y7857596D01*
X15086493Y7871634D01*
X15078896Y7889974D01*
Y7899900D01*
Y8049900D01*
X15078796D01*
X15077837Y8059635D01*
X15070386Y8077623D01*
X15056619Y8091390D01*
X15038631Y8098841D01*
X15028896Y8099800D01*
X11855056D01*
X11845321Y8098841D01*
X11827333Y8091390D01*
X11813566Y8077623D01*
X11806115Y8059635D01*
X11805156Y8049900D01*
X11805056Y8050000D01*
Y7900000D01*
X11804956D01*
Y7890074D01*
X11797359Y7871734D01*
X11783322Y7857696D01*
X11764982Y7850100D01*
X11755056D01*
Y7850000D01*
X11675056D01*
X11674956Y7850100D01*
X11665031D01*
X11646690Y7857696D01*
X11632653Y7871734D01*
X11625056Y7890074D01*
Y7900000D01*
Y8050000D01*
X11624956D01*
X11623998Y8059734D01*
X11616547Y8077722D01*
X11602779Y8091490D01*
X11584791Y8098941D01*
X11575056Y8099900D01*
X9864800Y8099899D01*
Y8099900D01*
X9855046Y8098939D01*
X9837021Y8091473D01*
X9823227Y8077678D01*
X9815761Y8059654D01*
X9814800Y8049900D01*
Y8039954D01*
X9807188Y8021577D01*
X9793123Y8007512D01*
X9774746Y7999900D01*
X9754855D01*
X9736478Y8007512D01*
X9722412Y8021577D01*
X9714800Y8039954D01*
Y8049900D01*
Y8287320D01*
Y8296710D01*
X9718464Y8315128D01*
X9725650Y8332478D01*
X9736084Y8348092D01*
X9749363Y8361371D01*
X9764977Y8371804D01*
X9782326Y8378991D01*
X9800745Y8382654D01*
X9810134D01*
X16248380Y8382655D01*
X16614488D01*
X16639024Y8377774D01*
D02*
G37*
G36*
X4253896Y6150660D02*
X4263842D01*
X4282219Y6143047D01*
X4296284Y6128982D01*
X4303896Y6110605D01*
X4303896Y6100660D01*
Y5950660D01*
X4303886D01*
X4304847Y5940905D01*
X4312313Y5922881D01*
X4326108Y5909086D01*
X4344132Y5901620D01*
X4353886Y5900660D01*
Y5899922D01*
X7175146D01*
X7184901Y5900883D01*
X7202925Y5908348D01*
X7216719Y5922143D01*
X7224185Y5940167D01*
X7225146Y5949922D01*
X7225136D01*
Y6098977D01*
X7225146Y6099922D01*
Y6109867D01*
X7232758Y6128244D01*
X7246823Y6142310D01*
X7265200Y6149922D01*
X7275146Y6149922D01*
X7355146D01*
Y6149922D01*
X7365091D01*
X7383469Y6142310D01*
X7397534Y6128244D01*
X7405146Y6109867D01*
X7405146Y6099922D01*
Y5949922D01*
X7405136D01*
X7406097Y5940167D01*
X7413563Y5922143D01*
X7427358Y5908348D01*
X7445382Y5900883D01*
X7455136Y5899922D01*
X9163223D01*
Y5899922D01*
X9172978Y5900882D01*
X9191002Y5908348D01*
X9204797Y5922143D01*
X9212262Y5940167D01*
X9213223Y5949922D01*
Y5959867D01*
X9220835Y5978244D01*
X9234901Y5992309D01*
X9253278Y5999921D01*
X9273169D01*
X9291546Y5992309D01*
X9305611Y5978244D01*
X9313223Y5959867D01*
Y5949922D01*
Y5713385D01*
Y5703722D01*
X9309453Y5684769D01*
X9302058Y5666915D01*
X9291322Y5650847D01*
X9277657Y5637183D01*
X9261589Y5626446D01*
X9243736Y5619051D01*
X9224782Y5615281D01*
X2484312D01*
X2459775Y5620162D01*
X2436663Y5629735D01*
X2415862Y5643634D01*
X2398172Y5661323D01*
X2384274Y5682124D01*
X2374700Y5705237D01*
X2369820Y5729773D01*
Y5742281D01*
Y5942931D01*
Y5949686D01*
X2372456Y5962938D01*
X2377626Y5975421D01*
X2385133Y5986655D01*
X2394686Y5996208D01*
X2405921Y6003715D01*
X2418403Y6008885D01*
X2431655Y6011521D01*
X2450661D01*
X2473298Y6002145D01*
X2490623Y5984819D01*
X2500000Y5962183D01*
Y5949932D01*
X2500959Y5940197D01*
X2508410Y5922209D01*
X2522177Y5908441D01*
X2540165Y5900990D01*
X2549900Y5900032D01*
X4073896D01*
Y5900660D01*
X4083651Y5901620D01*
X4101675Y5909086D01*
X4115470Y5922881D01*
X4122935Y5940905D01*
X4123896Y5950660D01*
X4123886D01*
Y6099715D01*
X4123896Y6100660D01*
Y6110605D01*
X4131508Y6128982D01*
X4145573Y6143047D01*
X4163951Y6150660D01*
X4173896Y6150660D01*
X4253896D01*
Y6150660D01*
D02*
G37*
G36*
X15209937Y6149822D02*
X15219862D01*
X15238202Y6142225D01*
X15252238Y6128187D01*
X15259836Y6109847D01*
Y6099922D01*
X15259937D01*
Y5949922D01*
X15260036Y5950021D01*
X15260995Y5940286D01*
X15268446Y5922298D01*
X15282213Y5908531D01*
X15300201Y5901080D01*
X15309937Y5900121D01*
Y5900021D01*
X16549940D01*
X16559676Y5900980D01*
X16577663Y5908431D01*
X16591431Y5922198D01*
X16598882Y5940186D01*
X16599841Y5949922D01*
Y5962172D01*
X16609216Y5984809D01*
X16626543Y6002135D01*
X16649179Y6011511D01*
X16668185D01*
X16681438Y6008875D01*
X16693919Y6003705D01*
X16705154Y5996198D01*
X16714708Y5986645D01*
X16722214Y5975410D01*
X16727385Y5962928D01*
X16730022Y5949676D01*
Y5942921D01*
Y5744167D01*
Y5731658D01*
X16725140Y5707122D01*
X16715567Y5684009D01*
X16701668Y5663209D01*
X16683978Y5645519D01*
X16663177Y5631620D01*
X16640065Y5622047D01*
X16615529Y5617167D01*
X16249420D01*
X9811175Y5617167D01*
X9801785D01*
X9783367Y5620831D01*
X9766017Y5628017D01*
X9750403Y5638450D01*
X9737124Y5651729D01*
X9726691Y5667343D01*
X9719504Y5684693D01*
X9715841Y5703111D01*
Y5712501D01*
Y5949922D01*
Y5959867D01*
X9723453Y5978244D01*
X9737518Y5992309D01*
X9755895Y5999921D01*
X9775786D01*
X9794163Y5992309D01*
X9808229Y5978244D01*
X9815841Y5959867D01*
Y5949922D01*
X9816801Y5940167D01*
X9824267Y5922143D01*
X9838062Y5908348D01*
X9856086Y5900882D01*
X9865841Y5899922D01*
Y5899922D01*
X11576097Y5899922D01*
X11585832Y5900880D01*
X11603820Y5908331D01*
X11617587Y5922099D01*
X11625038Y5940087D01*
X11625997Y5949822D01*
X11626097D01*
Y6099822D01*
Y6109747D01*
X11633693Y6128088D01*
X11647731Y6142125D01*
X11666071Y6149722D01*
X11675997D01*
X11676097Y6149822D01*
X11756097D01*
Y6149722D01*
X11766022D01*
X11784363Y6142125D01*
X11798400Y6128088D01*
X11805997Y6109747D01*
Y6099822D01*
X11806097D01*
Y5949822D01*
X11806197Y5949922D01*
X11807155Y5940186D01*
X11814606Y5922198D01*
X11828374Y5908431D01*
X11846362Y5900980D01*
X11856097Y5900021D01*
X15029936D01*
X15039671Y5900980D01*
X15057658Y5908431D01*
X15071426Y5922198D01*
X15078877Y5940186D01*
X15079836Y5949922D01*
X15079936D01*
Y6099922D01*
Y6109847D01*
X15087534Y6128187D01*
X15101570Y6142225D01*
X15119911Y6149822D01*
X15129836D01*
X15129936Y6149921D01*
X15209937D01*
Y6149822D01*
D02*
G37*
D93*
X5815620Y6758900D02*
D03*
X6634080Y6673800D02*
D03*
X8481445Y7359832D02*
D03*
X8263381Y7282400D02*
D03*
X7821440Y6170964D02*
D03*
X8757840Y6139536D02*
D03*
X7621200Y6549621D02*
D03*
X9344580Y6192241D02*
D03*
X4552220Y6664920D02*
D03*
X5307260Y6924000D02*
D03*
X5373300Y6835100D02*
D03*
X5922100Y7623856D02*
D03*
X5728900Y7255820D02*
D03*
X6690640Y7035177D02*
D03*
X3283165Y7168946D02*
D03*
X7806120Y7896820D02*
D03*
X9465240Y6774660D02*
D03*
X9400620Y6789620D02*
D03*
X7918380Y6549400D02*
D03*
X3743120Y7084660D02*
D03*
X5678440Y7023060D02*
D03*
X5629840Y6987500D02*
D03*
X3743120Y6967081D02*
D03*
X3113200Y6623098D02*
D03*
X3282880Y7273700D02*
D03*
X9175680Y6225074D02*
D03*
X9399200Y6603960D02*
D03*
X13173402Y6183958D02*
D03*
X6312100Y7625756D02*
D03*
X6247100D02*
D03*
X4204900Y6917000D02*
D03*
X4154685Y6916380D02*
D03*
X4073600Y7010360D02*
D03*
X4488839Y6603519D02*
D03*
X4286180Y7010360D02*
D03*
X4126745Y6961380D02*
D03*
X4233035Y7010360D02*
D03*
X4458481Y6664920D02*
D03*
X4096460Y6916380D02*
D03*
X4179890Y7010360D02*
D03*
X4263762Y6917753D02*
D03*
X4126745Y7010360D02*
D03*
X4233035Y6961380D02*
D03*
X6493200Y6924240D02*
D03*
X5637460Y7310080D02*
D03*
X13328120Y6367121D02*
D03*
X13185136Y6418540D02*
D03*
X13219360Y6327100D02*
D03*
X13831798Y6263287D02*
D03*
X13733121Y6247121D02*
D03*
X13889920Y6299160D02*
D03*
X13431261Y6144621D02*
D03*
X13510620D02*
D03*
X12315120Y6057860D02*
D03*
X13550620Y6064058D02*
D03*
X13470621Y6079620D02*
D03*
X13995621Y6114620D02*
D03*
X13328120Y6286521D02*
D03*
X13145700Y6461720D02*
D03*
X11639480Y6454100D02*
D03*
X11586793Y6454580D02*
D03*
X12175620Y6332120D02*
D03*
X5434260Y6017220D02*
D03*
X5518080Y6014620D02*
D03*
X5312340Y6060400D02*
D03*
X4602768Y6916380D02*
D03*
X4603970Y7020520D02*
D03*
X5032940Y6324560D02*
D03*
X4465700Y6212120D02*
D03*
X5533320Y6598880D02*
D03*
X5617140Y6857880D02*
D03*
X5922100Y7035756D02*
D03*
X7057320Y7658060D02*
D03*
X8075860Y6212800D02*
D03*
X6871900Y6352060D02*
D03*
X5154859Y6128979D02*
D03*
X5690800Y6290500D02*
D03*
X10082280Y6556606D02*
D03*
X10024040Y6556930D02*
D03*
X8783600Y6222960D02*
D03*
X4801800Y6553160D02*
D03*
X11162468Y7325008D02*
D03*
Y7376794D02*
D03*
Y7273223D02*
D03*
X11218528Y7273872D02*
D03*
Y7222086D02*
D03*
X11048168Y7273223D02*
D03*
Y7169652D02*
D03*
X11104228Y7221762D02*
D03*
Y7273547D02*
D03*
X11218528Y7170301D02*
D03*
Y7377443D02*
D03*
X11162468Y7221437D02*
D03*
Y7169652D02*
D03*
X11104228Y7169976D02*
D03*
X11048168Y7221437D02*
D03*
X11104228Y7377118D02*
D03*
X11048168Y7376794D02*
D03*
X11218528Y7325657D02*
D03*
X11104228Y7325333D02*
D03*
X11048168Y7325008D02*
D03*
X10138340Y6556930D02*
D03*
X10310880D02*
D03*
X12625072Y6127120D02*
D03*
X12056313Y6126440D02*
D03*
X15906860Y6092121D02*
D03*
X16066859Y6092120D02*
D03*
X5815620Y6603820D02*
D03*
Y6493820D02*
D03*
X6092120Y6517600D02*
D03*
Y6581100D02*
D03*
X3270588Y6460001D02*
D03*
X5235664Y6733800D02*
D03*
X5027860D02*
D03*
X8416220Y6271220D02*
D03*
X8668600Y6222960D02*
D03*
X8533060Y6271220D02*
D03*
X10196580Y6401249D02*
D03*
X10082280D02*
D03*
Y6453035D02*
D03*
X10024040Y6401574D02*
D03*
X10310880D02*
D03*
X10138340D02*
D03*
X9319620Y6354621D02*
D03*
X10252640Y6401898D02*
D03*
X9031620Y6354621D02*
D03*
X8896120Y6436020D02*
D03*
X3723781Y7679477D02*
D03*
X10196580Y6504820D02*
D03*
X10252640Y6505469D02*
D03*
Y6557255D02*
D03*
Y6453684D02*
D03*
X10310880Y6505145D02*
D03*
Y6453359D02*
D03*
X10138340Y6505145D02*
D03*
X10196580Y6556606D02*
D03*
X10138340Y6453359D02*
D03*
X10196580Y6453035D02*
D03*
X10024040Y6505145D02*
D03*
Y6453359D02*
D03*
X10082280Y6504820D02*
D03*
X5071040Y6184860D02*
D03*
X10989928Y7221762D02*
D03*
Y7377118D02*
D03*
Y7325333D02*
D03*
Y7273547D02*
D03*
Y7169976D02*
D03*
X11276768Y7221762D02*
D03*
Y7273547D02*
D03*
Y7377118D02*
D03*
Y7169976D02*
D03*
Y7325333D02*
D03*
X5124380Y6870660D02*
D03*
X5987980Y7424380D02*
D03*
X5530780Y6329640D02*
D03*
X4668800Y6324560D02*
D03*
X7341800Y6268301D02*
D03*
X7857120Y6349960D02*
D03*
X7247026Y7348861D02*
D03*
X5073580Y7480841D02*
D03*
X5106600Y7426920D02*
D03*
X5225980Y7371040D02*
D03*
X3270180Y6561060D02*
D03*
X7989500Y7195719D02*
D03*
X8045560Y7092797D02*
D03*
Y7196368D02*
D03*
Y7248154D02*
D03*
X8103800Y7247829D02*
D03*
Y7092472D02*
D03*
Y7299615D02*
D03*
X8045560Y7299939D02*
D03*
Y7144583D02*
D03*
X8103800Y7196044D02*
D03*
Y7144258D02*
D03*
X7931260Y7092472D02*
D03*
Y7196044D02*
D03*
Y7247829D02*
D03*
X7989500Y7247504D02*
D03*
Y7092148D02*
D03*
Y7299290D02*
D03*
X7931260Y7299615D02*
D03*
Y7144258D02*
D03*
X7989500Y7143933D02*
D03*
X7816960Y7092472D02*
D03*
Y7196044D02*
D03*
Y7247829D02*
D03*
X7875200Y7247504D02*
D03*
Y7092148D02*
D03*
Y7299290D02*
D03*
X7816960Y7299615D02*
D03*
Y7144258D02*
D03*
X7875200Y7195719D02*
D03*
Y7143933D02*
D03*
X3640320Y7124660D02*
D03*
X5934640Y7483306D02*
D03*
X4278380Y7366438D02*
D03*
Y7418223D02*
D03*
X4220140Y7366763D02*
D03*
X4138860D02*
D03*
Y7418548D02*
D03*
X4080620Y7367087D02*
D03*
X4220140Y7522119D02*
D03*
X4278380Y7521794D02*
D03*
Y7470009D02*
D03*
X4220140Y7470334D02*
D03*
X4080620Y7522444D02*
D03*
X4138860Y7522119D02*
D03*
X6377100Y7625756D02*
D03*
X4220140Y7159620D02*
D03*
Y7211406D02*
D03*
Y7263191D02*
D03*
Y7314977D02*
D03*
Y7418548D02*
D03*
X4278380Y7314652D02*
D03*
Y7262867D02*
D03*
Y7211081D02*
D03*
Y7159296D02*
D03*
X4138860Y7159620D02*
D03*
Y7211406D02*
D03*
Y7263191D02*
D03*
Y7314977D02*
D03*
Y7470334D02*
D03*
X4080620Y7470658D02*
D03*
Y7418873D02*
D03*
Y7315302D02*
D03*
Y7263516D02*
D03*
Y7211731D02*
D03*
Y7159945D02*
D03*
X3640320Y6273421D02*
D03*
X9250620Y6709620D02*
D03*
X9465940Y6468680D02*
D03*
X8792900Y6687445D02*
D03*
X12171729Y6127120D02*
D03*
X12173120Y6247120D02*
D03*
X6394080Y6813800D02*
D03*
X6444080Y6888760D02*
D03*
X6247100Y7035756D02*
D03*
X6183260Y7035177D02*
D03*
X6310260Y6929400D02*
D03*
X5857100Y7623856D02*
D03*
D96*
X15209937Y6149822D02*
Y6149921D01*
Y6149822D02*
X15219862D01*
X15238202Y6142225D01*
X15252238Y6128187D01*
X15259836Y6109847D01*
Y6099922D02*
Y6109847D01*
Y6099922D02*
X15259937D01*
Y5949922D02*
Y6099922D01*
Y5949922D02*
X15260036Y5950021D01*
X15260995Y5940286D01*
X15268446Y5922298D01*
X15282213Y5908531D01*
X15300201Y5901080D01*
X15309937Y5900121D01*
Y5900021D02*
Y5900121D01*
Y5900021D02*
X16549940D01*
X16559676Y5900980D01*
X16577663Y5908431D01*
X16591431Y5922198D01*
X16598882Y5940186D01*
X16599841Y5949922D01*
Y5962172D01*
X16609216Y5984809D01*
X16626543Y6002135D01*
X16649179Y6011511D01*
X16668185D01*
X16681438Y6008875D01*
X16693919Y6003705D01*
X16705154Y5996198D01*
X16714708Y5986645D01*
X16722214Y5975410D01*
X16727385Y5962928D01*
X16730022Y5949676D01*
Y5942921D02*
Y5949676D01*
Y5744167D02*
Y5942921D01*
Y5731658D02*
Y5744167D01*
X16725140Y5707122D02*
X16730022Y5731658D01*
X16715567Y5684009D02*
X16725140Y5707122D01*
X16701668Y5663209D02*
X16715567Y5684009D01*
X16683978Y5645519D02*
X16701668Y5663209D01*
X16663177Y5631620D02*
X16683978Y5645519D01*
X16640065Y5622047D02*
X16663177Y5631620D01*
X16615529Y5617167D02*
X16640065Y5622047D01*
X16249420Y5617167D02*
X16615529D01*
X9811175Y5617167D02*
X16249420Y5617167D01*
X9801785Y5617167D02*
X9811175D01*
X9783367Y5620831D02*
X9801785Y5617167D01*
X9766017Y5628017D02*
X9783367Y5620831D01*
X9750403Y5638450D02*
X9766017Y5628017D01*
X9737124Y5651729D02*
X9750403Y5638450D01*
X9726691Y5667343D02*
X9737124Y5651729D01*
X9719504Y5684693D02*
X9726691Y5667343D01*
X9715841Y5703111D02*
X9719504Y5684693D01*
X9715841Y5703111D02*
Y5712501D01*
Y5949922D01*
Y5959867D01*
X9723453Y5978244D01*
X9737518Y5992309D01*
X9755895Y5999921D01*
X9775786D01*
X9794163Y5992309D01*
X9808229Y5978244D01*
X9815841Y5959867D01*
Y5949922D02*
Y5959867D01*
Y5949922D02*
X9816801Y5940167D01*
X9824267Y5922143D01*
X9838062Y5908348D01*
X9856086Y5900882D01*
X9865841Y5899922D01*
Y5899922D01*
X11576097Y5899922D01*
X11585832Y5900880D01*
X11603820Y5908331D01*
X11617587Y5922099D01*
X11625038Y5940087D01*
X11625997Y5949822D01*
X11626097D01*
Y6099822D01*
Y6109747D01*
X11633693Y6128088D01*
X11647731Y6142125D01*
X11666071Y6149722D01*
X11675997D01*
X11676097Y6149822D01*
X11756097D01*
Y6149722D02*
Y6149822D01*
Y6149722D02*
X11766022D01*
X11784363Y6142125D01*
X11798400Y6128088D01*
X11805997Y6109747D01*
Y6099822D02*
Y6109747D01*
Y6099822D02*
X11806097D01*
Y5949822D02*
Y6099822D01*
Y5949822D02*
X11806197Y5949922D01*
X11807155Y5940186D01*
X11814606Y5922198D01*
X11828374Y5908431D01*
X11846362Y5900980D01*
X11856097Y5900021D01*
X15029936D01*
X15039671Y5900980D01*
X15057658Y5908431D01*
X15071426Y5922198D01*
X15078877Y5940186D01*
X15079836Y5949922D01*
X15079936D01*
Y6099922D01*
Y6109847D01*
X15087534Y6128187D01*
X15101570Y6142225D01*
X15119911Y6149822D01*
X15129836D01*
X15129936Y6149921D01*
X15209937D01*
X4253896Y6150660D02*
Y6150660D01*
Y6150660D02*
X4263842D01*
X4282219Y6143047D01*
X4296284Y6128982D01*
X4303896Y6110605D01*
X4303896Y6100660D01*
Y5950660D02*
Y6100660D01*
X4303886Y5950660D02*
X4303896D01*
X4303886D02*
X4304847Y5940905D01*
X4312313Y5922881D01*
X4326108Y5909086D01*
X4344132Y5901620D01*
X4353886Y5900660D01*
Y5899922D02*
Y5900660D01*
Y5899922D02*
X7175146D01*
X7184901Y5900883D01*
X7202925Y5908348D01*
X7216719Y5922143D01*
X7224185Y5940167D01*
X7225146Y5949922D01*
X7225136D02*
X7225146D01*
X7225136D02*
Y6098977D01*
X7225146Y6099922D01*
Y6109867D01*
X7232758Y6128244D01*
X7246823Y6142310D01*
X7265200Y6149922D01*
X7275146Y6149922D01*
X7355146D01*
Y6149922D02*
Y6149922D01*
Y6149922D02*
X7365091D01*
X7383469Y6142310D01*
X7397534Y6128244D01*
X7405146Y6109867D01*
X7405146Y6099922D01*
Y5949922D02*
Y6099922D01*
X7405136Y5949922D02*
X7405146D01*
X7405136D02*
X7406097Y5940167D01*
X7413563Y5922143D01*
X7427358Y5908348D01*
X7445382Y5900883D01*
X7455136Y5899922D01*
X9163223D01*
Y5899922D02*
Y5899922D01*
Y5899922D02*
X9172978Y5900882D01*
X9191002Y5908348D01*
X9204797Y5922143D01*
X9212262Y5940167D01*
X9213223Y5949922D01*
Y5959867D01*
X9220835Y5978244D01*
X9234901Y5992309D01*
X9253278Y5999921D01*
X9273169D01*
X9291546Y5992309D01*
X9305611Y5978244D01*
X9313223Y5959867D01*
Y5949922D02*
Y5959867D01*
Y5713385D02*
Y5949922D01*
Y5703722D02*
Y5713385D01*
X9309453Y5684769D02*
X9313223Y5703722D01*
X9302058Y5666915D02*
X9309453Y5684769D01*
X9291322Y5650847D02*
X9302058Y5666915D01*
X9277657Y5637183D02*
X9291322Y5650847D01*
X9261589Y5626446D02*
X9277657Y5637183D01*
X9243736Y5619051D02*
X9261589Y5626446D01*
X9224782Y5615281D02*
X9243736Y5619051D01*
X2484312Y5615281D02*
X9224782D01*
X2459775Y5620162D02*
X2484312Y5615281D01*
X2436663Y5629735D02*
X2459775Y5620162D01*
X2415862Y5643634D02*
X2436663Y5629735D01*
X2398172Y5661323D02*
X2415862Y5643634D01*
X2384274Y5682124D02*
X2398172Y5661323D01*
X2374700Y5705237D02*
X2384274Y5682124D01*
X2369820Y5729773D02*
X2374700Y5705237D01*
X2369820Y5729773D02*
Y5742281D01*
Y5942931D01*
Y5949686D01*
X2372456Y5962938D01*
X2377626Y5975421D01*
X2385133Y5986655D01*
X2394686Y5996208D01*
X2405921Y6003715D01*
X2418403Y6008885D01*
X2431655Y6011521D01*
X2450661D01*
X2473298Y6002145D01*
X2490623Y5984819D01*
X2500000Y5962183D01*
Y5949932D02*
Y5962183D01*
Y5949932D02*
X2500959Y5940197D01*
X2508410Y5922209D01*
X2522177Y5908441D01*
X2540165Y5900990D01*
X2549900Y5900032D01*
X4073896D01*
Y5900660D01*
X4083651Y5901620D01*
X4101675Y5909086D01*
X4115470Y5922881D01*
X4122935Y5940905D01*
X4123896Y5950660D01*
X4123886D02*
X4123896D01*
X4123886D02*
Y6099715D01*
X4123896Y6100660D01*
Y6110605D01*
X4131508Y6128982D01*
X4145573Y6143047D01*
X4163951Y6150660D01*
X4173896Y6150660D01*
X4253896D01*
X16614488Y8382655D02*
X16639024Y8377774D01*
X16662137Y8368201D01*
X16682938Y8354302D01*
X16700629Y8336612D01*
X16714526Y8315812D01*
X16724100Y8292699D01*
X16728979Y8268163D01*
Y8255655D02*
Y8268163D01*
Y8056901D02*
Y8255655D01*
Y8050145D02*
Y8056901D01*
X16726344Y8036893D02*
X16728979Y8050145D01*
X16721175Y8024411D02*
X16726344Y8036893D01*
X16713667Y8013177D02*
X16721175Y8024411D01*
X16704114Y8003623D02*
X16713667Y8013177D01*
X16692879Y7996116D02*
X16704114Y8003623D01*
X16680397Y7990946D02*
X16692879Y7996116D01*
X16667145Y7988310D02*
X16680397Y7990946D01*
X16648138Y7988310D02*
X16667145D01*
X16625502Y7997687D02*
X16648138Y7988310D01*
X16608177Y8015012D02*
X16625502Y7997687D01*
X16598801Y8037649D02*
X16608177Y8015012D01*
X16598801Y8037649D02*
Y8049900D01*
X16597841Y8059635D02*
X16598801Y8049900D01*
X16590390Y8077623D02*
X16597841Y8059635D01*
X16576624Y8091390D02*
X16590390Y8077623D01*
X16558635Y8098841D02*
X16576624Y8091390D01*
X16548900Y8099800D02*
X16558635Y8098841D01*
X15308896Y8099800D02*
X16548900D01*
X15308896Y8099700D02*
Y8099800D01*
X15299161Y8098741D02*
X15308896Y8099700D01*
X15281174Y8091290D02*
X15299161Y8098741D01*
X15267406Y8077523D02*
X15281174Y8091290D01*
X15259953Y8059535D02*
X15267406Y8077523D01*
X15258997Y8049800D02*
X15259953Y8059535D01*
X15258896Y8049900D02*
X15258997Y8049800D01*
X15258896Y7899900D02*
Y8049900D01*
X15258797Y7899900D02*
X15258896D01*
X15258797Y7889974D02*
Y7899900D01*
X15251199Y7871634D02*
X15258797Y7889974D01*
X15237161Y7857596D02*
X15251199Y7871634D01*
X15218822Y7850000D02*
X15237161Y7857596D01*
X15208896Y7850000D02*
X15218822D01*
X15208896Y7849900D02*
Y7850000D01*
X15128896Y7849900D02*
X15208896D01*
X15128796Y7850000D02*
X15128896Y7849900D01*
X15118871Y7850000D02*
X15128796D01*
X15100529Y7857596D02*
X15118871Y7850000D01*
X15086493Y7871634D02*
X15100529Y7857596D01*
X15078896Y7889974D02*
X15086493Y7871634D01*
X15078896Y7889974D02*
Y7899900D01*
Y8049900D01*
X15078796D02*
X15078896D01*
X15077837Y8059635D02*
X15078796Y8049900D01*
X15070386Y8077623D02*
X15077837Y8059635D01*
X15056619Y8091390D02*
X15070386Y8077623D01*
X15038631Y8098841D02*
X15056619Y8091390D01*
X15028896Y8099800D02*
X15038631Y8098841D01*
X11855056Y8099800D02*
X15028896D01*
X11845321Y8098841D02*
X11855056Y8099800D01*
X11827333Y8091390D02*
X11845321Y8098841D01*
X11813566Y8077623D02*
X11827333Y8091390D01*
X11806115Y8059635D02*
X11813566Y8077623D01*
X11805156Y8049900D02*
X11806115Y8059635D01*
X11805056Y8050000D02*
X11805156Y8049900D01*
X11805056Y7900000D02*
Y8050000D01*
X11804956Y7900000D02*
X11805056D01*
X11804956Y7890074D02*
Y7900000D01*
X11797359Y7871734D02*
X11804956Y7890074D01*
X11783322Y7857696D02*
X11797359Y7871734D01*
X11764982Y7850100D02*
X11783322Y7857696D01*
X11755056Y7850100D02*
X11764982D01*
X11755056Y7850000D02*
Y7850100D01*
X11675056Y7850000D02*
X11755056D01*
X11674956Y7850100D02*
X11675056Y7850000D01*
X11665031Y7850100D02*
X11674956D01*
X11646690Y7857696D02*
X11665031Y7850100D01*
X11632653Y7871734D02*
X11646690Y7857696D01*
X11625056Y7890074D02*
X11632653Y7871734D01*
X11625056Y7890074D02*
Y7900000D01*
Y8050000D01*
X11624956D02*
X11625056D01*
X11623998Y8059734D02*
X11624956Y8050000D01*
X11616547Y8077722D02*
X11623998Y8059734D01*
X11602779Y8091490D02*
X11616547Y8077722D01*
X11584791Y8098941D02*
X11602779Y8091490D01*
X11575056Y8099900D02*
X11584791Y8098941D01*
X9864800Y8099899D02*
X11575056Y8099900D01*
X9864800Y8099899D02*
Y8099900D01*
X9855046Y8098939D02*
X9864800Y8099900D01*
X9837021Y8091473D02*
X9855046Y8098939D01*
X9823227Y8077678D02*
X9837021Y8091473D01*
X9815761Y8059654D02*
X9823227Y8077678D01*
X9814800Y8049900D02*
X9815761Y8059654D01*
X9814800Y8039954D02*
Y8049900D01*
X9807188Y8021577D02*
X9814800Y8039954D01*
X9793123Y8007512D02*
X9807188Y8021577D01*
X9774746Y7999900D02*
X9793123Y8007512D01*
X9754855Y7999900D02*
X9774746D01*
X9736478Y8007512D02*
X9754855Y7999900D01*
X9722412Y8021577D02*
X9736478Y8007512D01*
X9714800Y8039954D02*
X9722412Y8021577D01*
X9714800Y8039954D02*
Y8049900D01*
Y8287320D01*
Y8296710D01*
X9718464Y8315128D01*
X9725650Y8332478D01*
X9736084Y8348092D01*
X9749363Y8361371D01*
X9764977Y8371804D01*
X9782326Y8378991D01*
X9800745Y8382654D01*
X9810134D01*
X16248380Y8382655D01*
X16614488D01*
X9224782Y8384540D02*
X9243736Y8380770D01*
X9261589Y8373375D01*
X9277657Y8362638D01*
X9291322Y8348974D01*
X9302058Y8332906D01*
X9309453Y8315052D01*
X9313223Y8296099D01*
Y8286437D02*
Y8296099D01*
Y8049900D02*
Y8286437D01*
Y8039954D02*
Y8049900D01*
X9305611Y8021577D02*
X9313223Y8039954D01*
X9291546Y8007512D02*
X9305611Y8021577D01*
X9273169Y7999900D02*
X9291546Y8007512D01*
X9253278Y7999900D02*
X9273169D01*
X9234901Y8007512D02*
X9253278Y7999900D01*
X9220835Y8021577D02*
X9234901Y8007512D01*
X9213223Y8039954D02*
X9220835Y8021577D01*
X9213223Y8039954D02*
Y8049900D01*
X9212262Y8059654D02*
X9213223Y8049900D01*
X9204797Y8077678D02*
X9212262Y8059654D01*
X9191002Y8091473D02*
X9204797Y8077678D01*
X9172978Y8098939D02*
X9191002Y8091473D01*
X9163223Y8099900D02*
X9172978Y8098939D01*
X9163223Y8099899D02*
Y8099900D01*
X7455136Y8099899D02*
X9163223D01*
X7445382Y8098939D02*
X7455136Y8099899D01*
X7427358Y8091473D02*
X7445382Y8098939D01*
X7413563Y8077678D02*
X7427358Y8091473D01*
X7406097Y8059654D02*
X7413563Y8077678D01*
X7405136Y8049900D02*
X7406097Y8059654D01*
X7405136Y8049900D02*
X7405146D01*
Y7899900D02*
Y8049900D01*
X7405146Y7889954D02*
X7405146Y7899900D01*
X7397534Y7871577D02*
X7405146Y7889954D01*
X7383469Y7857512D02*
X7397534Y7871577D01*
X7365091Y7849900D02*
X7383469Y7857512D01*
X7355146Y7849900D02*
X7365091D01*
X7355146Y7849899D02*
Y7849900D01*
X7275146Y7849899D02*
X7355146D01*
X7265200Y7849900D02*
X7275146Y7849899D01*
X7246823Y7857512D02*
X7265200Y7849900D01*
X7232758Y7871577D02*
X7246823Y7857512D01*
X7225146Y7889954D02*
X7232758Y7871577D01*
X7225146Y7889954D02*
Y7899900D01*
X7225136Y7900844D02*
X7225146Y7899900D01*
X7225136Y7900844D02*
Y8049900D01*
X7225146D01*
X7224185Y8059654D02*
X7225146Y8049900D01*
X7216719Y8077678D02*
X7224185Y8059654D01*
X7202925Y8091473D02*
X7216719Y8077678D01*
X7184901Y8098939D02*
X7202925Y8091473D01*
X7175146Y8099899D02*
X7184901Y8098939D01*
X4353886Y8099899D02*
X7175146D01*
X4353886Y8099162D02*
Y8099899D01*
X4344132Y8098201D02*
X4353886Y8099162D01*
X4326108Y8090735D02*
X4344132Y8098201D01*
X4312313Y8076940D02*
X4326108Y8090735D01*
X4304847Y8058916D02*
X4312313Y8076940D01*
X4303886Y8049162D02*
X4304847Y8058916D01*
X4303886Y8049162D02*
X4303896D01*
Y7899162D02*
Y8049162D01*
X4303896Y7889216D02*
X4303896Y7899162D01*
X4296284Y7870839D02*
X4303896Y7889216D01*
X4282219Y7856774D02*
X4296284Y7870839D01*
X4263842Y7849162D02*
X4282219Y7856774D01*
X4253896Y7849162D02*
X4263842D01*
X4253896Y7849162D02*
Y7849162D01*
X4173896Y7849162D02*
X4253896D01*
X4163951Y7849162D02*
X4173896Y7849162D01*
X4145573Y7856774D02*
X4163951Y7849162D01*
X4131508Y7870839D02*
X4145573Y7856774D01*
X4123896Y7889216D02*
X4131508Y7870839D01*
X4123896Y7889216D02*
Y7899162D01*
X4123886Y7900106D02*
X4123896Y7899162D01*
X4123886Y7900106D02*
Y8049162D01*
X4123896D01*
X4122935Y8058916D02*
X4123896Y8049162D01*
X4115470Y8076940D02*
X4122935Y8058916D01*
X4101675Y8090735D02*
X4115470Y8076940D01*
X4083651Y8098201D02*
X4101675Y8090735D01*
X4073896Y8099162D02*
X4083651Y8098201D01*
X4073896Y8099162D02*
Y8099790D01*
X2549900D02*
X4073896D01*
X2540165Y8098831D02*
X2549900Y8099790D01*
X2522177Y8091380D02*
X2540165Y8098831D01*
X2508410Y8077612D02*
X2522177Y8091380D01*
X2500959Y8059624D02*
X2508410Y8077612D01*
X2500000Y8049890D02*
X2500959Y8059624D01*
X2500000Y8037638D02*
Y8049890D01*
X2490623Y8015002D02*
X2500000Y8037638D01*
X2473298Y7997676D02*
X2490623Y8015002D01*
X2450661Y7988300D02*
X2473298Y7997676D01*
X2431655Y7988300D02*
X2450661D01*
X2418403Y7990936D02*
X2431655Y7988300D01*
X2405921Y7996106D02*
X2418403Y7990936D01*
X2394686Y8003613D02*
X2405921Y7996106D01*
X2385133Y8013166D02*
X2394686Y8003613D01*
X2377626Y8024401D02*
X2385133Y8013166D01*
X2372456Y8036883D02*
X2377626Y8024401D01*
X2369820Y8050135D02*
X2372456Y8036883D01*
X2369820Y8050135D02*
Y8056890D01*
Y8257540D01*
Y8270048D01*
X2374700Y8294584D01*
X2384274Y8317697D01*
X2398172Y8338498D01*
X2415862Y8356187D01*
X2436663Y8370086D01*
X2459775Y8379659D01*
X2484312Y8384540D01*
X9224782D01*
X17100000Y2000000D02*
Y12000000D01*
X2000000D02*
X17100000D01*
X2000000Y2000000D02*
Y12000000D01*
Y2000000D02*
X17100000D01*
X4073126Y5900459D02*
G03*
X4123126Y5950459I0J50000D01*
G01*
X4173116Y6150458D02*
G03*
X4123116Y6100458I0J-50000D01*
G01*
X4303116D02*
G03*
X4253116Y6150458I-50000J0D01*
G01*
X4303116Y5950459D02*
G03*
X4353116Y5900459I50000J0D01*
G01*
X7174366D02*
G03*
X7224366Y5950459I0J50000D01*
G01*
X7274356Y6150458D02*
G03*
X7224356Y6100458I0J-50000D01*
G01*
X7404356D02*
G03*
X7354356Y6150458I-50000J0D01*
G01*
X7404356Y5950459D02*
G03*
X7454356Y5900459I50000J0D01*
G01*
X9162443Y5900380D02*
G03*
X9212443Y5950380I0J50000D01*
G01*
X9262443Y6000380D02*
G03*
X9212443Y5950380I0J-50000D01*
G01*
X9814020D02*
G03*
X9764020Y6000380I-50000J0D01*
G01*
X9814020Y5950380D02*
G03*
X9864020Y5900380I50000J0D01*
G01*
X11574286Y5900459D02*
G03*
X11624286Y5950459I0J50000D01*
G01*
X11674276Y6150458D02*
G03*
X11624276Y6100458I0J-50000D01*
G01*
X11804276D02*
G03*
X11754276Y6150458I-50000J0D01*
G01*
X11804276Y5950459D02*
G03*
X11854276Y5900459I50000J0D01*
G01*
X15028116D02*
G03*
X15078116Y5950459I0J50000D01*
G01*
X15128107Y6150458D02*
G03*
X15078107Y6100458I0J-50000D01*
G01*
X15258105D02*
G03*
X15208105Y6150458I-50000J0D01*
G01*
X15258105Y5950459D02*
G03*
X15308105Y5900459I50000J0D01*
G01*
X16549120D02*
G03*
X16599120Y5950459I0J50000D01*
G01*
X16598019Y8050359D02*
G03*
X16548120Y8100259I-49900J0D01*
G01*
X15308116Y8100159D02*
G03*
X15258215Y8050259I0J-49900D01*
G01*
X15208116Y7850459D02*
G03*
X15258015Y7900359I0J49900D01*
G01*
X15078116D02*
G03*
X15128017Y7850459I49900J0D01*
G01*
X15078017Y8050359D02*
G03*
X15028116Y8100259I-49900J0D01*
G01*
X11854276D02*
G03*
X11804376Y8050359I0J-49900D01*
G01*
X11754276Y7850558D02*
G03*
X11804176Y7900458I0J49900D01*
G01*
X11624276D02*
G03*
X11674176Y7850558I49900J0D01*
G01*
X11624176Y8050458D02*
G03*
X11574276Y8100358I-49900J0D01*
G01*
X9864020D02*
G03*
X9814020Y8050359I0J-50000D01*
G01*
X9764020Y8000359D02*
G03*
X9814020Y8050359I0J50000D01*
G01*
X9212443D02*
G03*
X9262443Y8000359I50000J0D01*
G01*
X9212443Y8050359D02*
G03*
X9162443Y8100358I-50000J0D01*
G01*
X7454356Y8100358D02*
G03*
X7404356Y8050358I0J-50000D01*
G01*
X7354366Y7850358D02*
G03*
X7404366Y7900358I0J50000D01*
G01*
X7224366D02*
G03*
X7274366Y7850358I50000J0D01*
G01*
X7224366Y8050358D02*
G03*
X7174366Y8100358I-50000J0D01*
G01*
X4353106Y8099620D02*
G03*
X4303106Y8049620I0J-50000D01*
G01*
X4253116Y7849621D02*
G03*
X4303116Y7899620I0J50000D01*
G01*
X4123116D02*
G03*
X4173116Y7849621I50000J0D01*
G01*
X4123116Y8049620D02*
G03*
X4073116Y8099620I-50000J0D01*
G01*
X2549120Y8100248D02*
G03*
X2499220Y8050348I0J-49900D01*
G01*
X2499120Y5950459D02*
G03*
X2549120Y5900459I50000J0D01*
G01*
X2499120Y5950459D02*
X2499220Y5950558D01*
Y8050348D01*
X7454356Y8100358D02*
X9162443D01*
Y8100358D01*
X9262443Y8000359D02*
X9764020D01*
X9864020Y8100358D02*
Y8100358D01*
Y8100358D02*
X11574276Y8100358D01*
X11574286Y5900380D02*
Y5900459D01*
X9864020Y5900380D02*
X11574286D01*
X9262443Y6000380D02*
X9764020D01*
X9162365Y5900459D02*
X9162443Y5900380D01*
X7454356Y5900459D02*
X9162365D01*
X2549120Y8100248D02*
X4073116D01*
Y8099620D02*
Y8100248D01*
X4123106Y8049620D02*
X4123116D01*
X4123106Y7900565D02*
Y8049620D01*
Y7900565D02*
X4123116Y7899620D01*
X4173116Y7849620D02*
Y7849621D01*
Y7849620D02*
X4253116D01*
Y7849621D01*
X4303116Y7899620D02*
X4303116D01*
Y8049620D01*
X4303106D02*
X4303116D01*
X4353106Y8099620D02*
Y8100358D01*
X7174366D01*
X7224356Y8050358D02*
X7224366D01*
X7224356Y7901303D02*
Y8050358D01*
Y7901303D02*
X7224366Y7900358D01*
X7274366Y7850358D02*
Y7850358D01*
Y7850358D02*
X7354366D01*
Y7850358D01*
X7404366Y7900358D02*
X7404366D01*
Y8050358D01*
X7404356D02*
X7404366D01*
X11624176Y8050458D02*
X11624276D01*
Y7900458D02*
Y8050458D01*
X11674176Y7850558D02*
X11674276Y7850459D01*
X11754276D01*
Y7850558D01*
X11804176Y7900458D02*
X11804276D01*
Y8050458D01*
X11804376Y8050359D01*
X11854276Y8100259D02*
X15028116D01*
X15078017Y8050359D02*
X15078116D01*
Y7900359D02*
Y8050359D01*
X15128017Y7850459D02*
X15128116Y7850359D01*
X15208116D01*
Y7850459D01*
X15258015Y7900359D02*
X15258116D01*
Y8050359D01*
X15258215Y8050259D01*
X15308116Y8100159D02*
Y8100259D01*
X16548120D01*
X16598019Y8050359D02*
X16599120Y5950459D01*
X15308105Y5900459D02*
X16549120D01*
X15258105Y5950459D02*
X15258105D01*
X15258105D02*
Y6100458D01*
X15258105D01*
X15208105Y6150459D02*
X15208105Y6150458D01*
X15128107Y6150459D02*
X15208105D01*
X15128107D02*
X15128107Y6150458D01*
X15078107Y6100458D02*
X15078107D01*
X15078107Y5950459D02*
Y6100458D01*
Y5950459D02*
X15078116D01*
X11854276Y5900459D02*
X15028116D01*
X11804276Y5950459D02*
X11804276D01*
X11804276D02*
Y6100458D01*
X11804276D01*
X11754276Y6150459D02*
X11754276Y6150458D01*
X11674276Y6150459D02*
X11754276D01*
X11674276D02*
X11674276Y6150458D01*
X11624276Y6100458D02*
X11624276D01*
X11624276Y5950459D02*
Y6100458D01*
Y5950459D02*
X11624286D01*
X7404356D02*
X7404366D01*
Y6100458D01*
X7404356D02*
X7404366D01*
X7354356Y6150458D02*
X7354366Y6150459D01*
X7274356D02*
X7354366D01*
X7274356Y6150458D02*
Y6150459D01*
X7224356Y6100458D02*
X7224356D01*
X7224356Y5950459D02*
Y6100458D01*
Y5950459D02*
X7224366D01*
X4353116Y5900459D02*
X7174366D01*
X4303116Y5950459D02*
X4303126D01*
Y6099514D01*
X4303116Y6100458D02*
X4303126Y6099514D01*
X4253116Y6150458D02*
Y6150459D01*
X4173116D02*
X4253116D01*
X4173116Y6150458D02*
Y6150459D01*
X4123116Y6100458D02*
X4123116D01*
X4123116Y5950459D02*
Y6100458D01*
Y5950459D02*
X4123126D01*
X2549120Y5900459D02*
X4073126D01*
D97*
X9321800Y5958840D02*
D03*
X9451340Y5958126D02*
D03*
X9580880Y5958840D02*
D03*
X9710420D02*
D03*
X9707880Y8039100D02*
D03*
X9578340D02*
D03*
X9448800Y8038386D02*
D03*
X9319260Y8039100D02*
D03*
D98*
X6917620Y6698554D02*
D03*
Y6893520D02*
D03*
X4583360Y7503449D02*
D03*
X4961820Y6581100D02*
D03*
D99*
X4288600Y6961060D02*
D03*
X4073600D02*
D03*
X4181100D02*
D03*
D100*
X10072300Y7917140D02*
D03*
X16394360Y6568400D02*
D03*
D101*
X6886620Y7555860D02*
D03*
Y7238360D02*
D03*
X7394620D02*
D03*
Y7555860D02*
D03*
D102*
X7140620D02*
D03*
X7242220Y7047860D02*
D03*
X7039020D02*
D03*
D103*
X6559480Y7967940D02*
D03*
D104*
X8134340Y6078180D02*
D03*
X9461143Y7775300D02*
D03*
X8300200Y7601479D02*
D03*
X9058120Y6944880D02*
D03*
X8456860Y7051000D02*
D03*
X15710139Y6912308D02*
D03*
X15770140D02*
D03*
X15710139Y6977308D02*
D03*
X15650140D02*
D03*
Y6912308D02*
D03*
X15770140Y6977308D02*
D03*
X15830141Y6912308D02*
D03*
Y6977308D02*
D03*
X2728020Y7483425D02*
D03*
X3113200Y7084938D02*
D03*
X3745320Y6248360D02*
D03*
X3862000Y6457460D02*
D03*
X3361620Y6254341D02*
D03*
X5079776Y6802080D02*
D03*
X4921180D02*
D03*
X8191363Y6385130D02*
D03*
X14840327Y7216746D02*
D03*
X5429180Y7284680D02*
D03*
X4789100Y7413300D02*
D03*
X14890771Y6503200D02*
D03*
X14693272D02*
D03*
X10753260Y7305019D02*
D03*
X10656500Y7213022D02*
D03*
X10849540D02*
D03*
X10753260D02*
D03*
X10656662Y7122120D02*
D03*
X10656799Y7304232D02*
D03*
X10753172Y7122120D02*
D03*
X10849540Y7304232D02*
D03*
Y7122120D02*
D03*
X11025726Y7013180D02*
D03*
Y6853180D02*
D03*
X15283272Y6504416D02*
D03*
X15088272D02*
D03*
X14516785Y6605241D02*
D03*
X14839346Y7314652D02*
D03*
X12747620Y7269120D02*
D03*
X12104540Y6891642D02*
D03*
X12105120Y6782742D02*
D03*
X14476480Y7746960D02*
D03*
Y7492960D02*
D03*
X14476660Y7619960D02*
D03*
X14476480Y7810840D02*
D03*
Y7683840D02*
D03*
Y7556840D02*
D03*
Y7429840D02*
D03*
X14404120Y7812484D02*
D03*
Y7685484D02*
D03*
Y7558484D02*
D03*
Y7431484D02*
D03*
X12584540Y7496856D02*
D03*
Y7750856D02*
D03*
X12584360Y7623856D02*
D03*
X12584540Y7432976D02*
D03*
Y7559976D02*
D03*
Y7686976D02*
D03*
Y7813976D02*
D03*
X12318120Y6784880D02*
D03*
X12572120D02*
D03*
X12445120Y6785060D02*
D03*
X12254240Y6784880D02*
D03*
X12381240D02*
D03*
X12508240D02*
D03*
X12635240D02*
D03*
X14486819Y6784120D02*
D03*
X14740820D02*
D03*
X14613820Y6784300D02*
D03*
X14422940Y6784120D02*
D03*
X14549940D02*
D03*
X14676939D02*
D03*
X14803940D02*
D03*
X14804120Y6715484D02*
D03*
X14677119D02*
D03*
X14550121D02*
D03*
X14423120D02*
D03*
X12635620Y6714620D02*
D03*
X12508620D02*
D03*
X12381620D02*
D03*
X12254620D02*
D03*
X12318119Y7060980D02*
D03*
X12572119D02*
D03*
X12445119Y7061160D02*
D03*
X12254239Y7060980D02*
D03*
X12381239D02*
D03*
X12508239D02*
D03*
X12635239D02*
D03*
X14486121Y7116860D02*
D03*
X14740120D02*
D03*
X14613120Y7117040D02*
D03*
X14422240Y7116860D02*
D03*
X14549240D02*
D03*
X14676241D02*
D03*
X14803239D02*
D03*
X14486620Y6948804D02*
D03*
X14740620D02*
D03*
X14613620Y6948984D02*
D03*
X14422740Y6948804D02*
D03*
X14549741D02*
D03*
X14676740D02*
D03*
X14803740D02*
D03*
X12572120Y6948301D02*
D03*
X12318120D02*
D03*
X12445120Y6948120D02*
D03*
X12636000Y6948301D02*
D03*
X12509000D02*
D03*
X12382000D02*
D03*
X12255000D02*
D03*
X14804500Y7495984D02*
D03*
Y7749984D02*
D03*
X14804320Y7622984D02*
D03*
X14804500Y7432104D02*
D03*
Y7559104D02*
D03*
Y7686104D02*
D03*
Y7813104D02*
D03*
X14637801Y7494984D02*
D03*
Y7748984D02*
D03*
X14637621Y7621984D02*
D03*
X14637801Y7431104D02*
D03*
Y7558104D02*
D03*
Y7685104D02*
D03*
Y7812104D02*
D03*
X12419800Y7495120D02*
D03*
Y7749120D02*
D03*
X12419620Y7622120D02*
D03*
X12419800Y7431240D02*
D03*
Y7558240D02*
D03*
Y7685240D02*
D03*
Y7812240D02*
D03*
X12249260Y7495500D02*
D03*
Y7749500D02*
D03*
X12249080Y7622500D02*
D03*
X12249260Y7431620D02*
D03*
Y7558620D02*
D03*
Y7685620D02*
D03*
Y7812620D02*
D03*
X12653120D02*
D03*
Y7685620D02*
D03*
Y7558620D02*
D03*
Y7431620D02*
D03*
X15779680Y6544647D02*
D03*
Y6487120D02*
D03*
Y6602174D02*
D03*
Y6659700D02*
D03*
X3025771Y6614120D02*
D03*
Y6670401D02*
D03*
X7680620Y7150038D02*
D03*
X16196240Y6547147D02*
D03*
Y6489621D02*
D03*
Y6604674D02*
D03*
Y6662201D02*
D03*
X11822360Y6999307D02*
D03*
Y6941780D02*
D03*
Y7056834D02*
D03*
Y7114360D02*
D03*
X11400720Y7111960D02*
D03*
X16259271Y6138256D02*
D03*
Y6340756D02*
D03*
X15390620Y7077120D02*
D03*
X15198120Y7077984D02*
D03*
X15005620Y7077120D02*
D03*
X14804120Y7270484D02*
D03*
X14677119D02*
D03*
X14550121D02*
D03*
X10678650Y7540867D02*
D03*
X11678134Y7536841D02*
D03*
X11479905Y7537984D02*
D03*
X11278834D02*
D03*
X11077763D02*
D03*
X11217840Y7012120D02*
D03*
X10876692Y7537984D02*
D03*
X11400720Y7054434D02*
D03*
Y6939380D02*
D03*
Y6996907D02*
D03*
X5167560Y6591260D02*
D03*
X4870380Y7182746D02*
D03*
X5095698Y7183080D02*
D03*
X11217840Y6852120D02*
D03*
X12698120Y7243116D02*
D03*
Y7299290D02*
D03*
X12570620Y7241500D02*
D03*
Y7299290D02*
D03*
X13945140Y7617080D02*
D03*
Y7497080D02*
D03*
Y7437080D02*
D03*
Y7557080D02*
D03*
X13880141D02*
D03*
Y7497080D02*
D03*
Y7617080D02*
D03*
Y7437080D02*
D03*
X13187840Y7617080D02*
D03*
Y7497080D02*
D03*
Y7437080D02*
D03*
Y7557080D02*
D03*
X13122839D02*
D03*
Y7497080D02*
D03*
Y7617080D02*
D03*
Y7437080D02*
D03*
X3955831Y7958080D02*
D03*
X3723781Y7959477D02*
D03*
X2905818Y6614120D02*
D03*
Y6671563D02*
D03*
X2966365D02*
D03*
Y6614120D02*
D03*
X6025504Y6862660D02*
D03*
X5918776D02*
D03*
X5578120Y7714120D02*
D03*
X4556120Y7256740D02*
D03*
X3997120Y6047120D02*
D03*
X2728020Y6230980D02*
D03*
X8629580Y6388060D02*
D03*
X8553380D02*
D03*
X8629580Y6474420D02*
D03*
X8553380D02*
D03*
X8629580Y6576020D02*
D03*
X8553380D02*
D03*
X8629580Y6662380D02*
D03*
X8553380D02*
D03*
X9739560Y7245656D02*
D03*
X9815760D02*
D03*
X9739560Y7159296D02*
D03*
X9815760D02*
D03*
X8256200Y6451560D02*
D03*
X9411787Y7196983D02*
D03*
X3025771Y7094180D02*
D03*
X2966365D02*
D03*
Y7027161D02*
D03*
X2906960D02*
D03*
Y7094180D02*
D03*
X3025771Y7027161D02*
D03*
X15401221Y6901140D02*
D03*
X15336220D02*
D03*
X15071021D02*
D03*
X15006020D02*
D03*
Y6721141D02*
D03*
X15071021D02*
D03*
X15336220D02*
D03*
X15401221D02*
D03*
X14740581Y7242220D02*
D03*
Y7316344D02*
D03*
X14613120Y7242220D02*
D03*
Y7314620D02*
D03*
X14486819Y7242220D02*
D03*
X14488080Y7314620D02*
D03*
X12508620Y7269620D02*
D03*
X12381620D02*
D03*
X12445120Y7299939D02*
D03*
X12635620Y7269620D02*
D03*
X12445120Y7242220D02*
D03*
X14005260Y7437080D02*
D03*
Y7617080D02*
D03*
Y7497080D02*
D03*
Y7557080D02*
D03*
X14070261D02*
D03*
Y7437080D02*
D03*
Y7497080D02*
D03*
Y7617080D02*
D03*
X12993300Y7437080D02*
D03*
Y7617080D02*
D03*
Y7497080D02*
D03*
Y7557080D02*
D03*
X13058299D02*
D03*
Y7437080D02*
D03*
Y7497080D02*
D03*
Y7617080D02*
D03*
X15336220Y6781141D02*
D03*
Y6841140D02*
D03*
X15401221D02*
D03*
Y6781141D02*
D03*
X15006020D02*
D03*
Y6841140D02*
D03*
X15071021D02*
D03*
Y6781141D02*
D03*
D105*
X14959120Y7812484D02*
D03*
X3203715Y6982420D02*
D03*
X3412420Y6822400D02*
D03*
X3991100Y6705060D02*
D03*
Y6785060D02*
D03*
X13510620Y6549621D02*
D03*
X13430620D02*
D03*
X14423120Y7270484D02*
D03*
X3754968Y6687780D02*
D03*
X3796277Y6807160D02*
D03*
X3877368Y6720800D02*
D03*
X3795124D02*
D03*
X3878510Y6807160D02*
D03*
X3754968Y6769060D02*
D03*
X13072040Y6504900D02*
D03*
X13631261Y6549621D02*
D03*
X13488260Y6828554D02*
D03*
X12933121Y6640780D02*
D03*
X12098120Y7431620D02*
D03*
X12254620Y7269620D02*
D03*
X3970680Y6405181D02*
D03*
X3837212Y6769060D02*
D03*
X3919456D02*
D03*
X3837212Y6687780D02*
D03*
X3919456D02*
D03*
X13733121Y6487121D02*
D03*
X3712880Y6720800D02*
D03*
D106*
X2588200Y6724098D02*
D03*
Y6994098D02*
D03*
D107*
X3448120Y6594620D02*
D03*
Y7229620D02*
D03*
%TF.MD5,51718058dbff01ce29049536a57ef85e*%
M02*
