%TF.GenerationSoftware,Altium Limited,Altium Designer,19.0.15 (446)*%
G04 Layer_Color=255*
%FSLAX45Y45*%
%MOMM*%
%TF.FileFunction,Pads,Bot*%
%TF.Part,CustomerPanel*%
G01*
G75*
%TA.AperFunction,SMDPad,CuDef*%
%ADD10R,0.60000X0.75000*%
%ADD11R,0.85000X0.95000*%
%ADD16R,0.64000X0.60000*%
%ADD17R,1.20000X1.20000*%
%ADD18R,0.90000X1.00000*%
%ADD19R,0.75000X0.60000*%
%ADD27R,0.60000X0.64000*%
%ADD37R,0.95000X0.85000*%
%ADD61R,1.00000X0.90000*%
%TA.AperFunction,ViaPad*%
%ADD85C,1.52400*%
%TA.AperFunction,ComponentPad*%
G04:AMPARAMS|DCode=86|XSize=1mm|YSize=2.3mm|CornerRadius=0.5mm|HoleSize=0mm|Usage=FLASHONLY|Rotation=270.000|XOffset=0mm|YOffset=0mm|HoleType=Round|Shape=RoundedRectangle|*
%AMROUNDEDRECTD86*
21,1,1.00000,1.30000,0,0,270.0*
21,1,0.00000,2.30000,0,0,270.0*
1,1,1.00000,-0.65000,0.00000*
1,1,1.00000,-0.65000,0.00000*
1,1,1.00000,0.65000,0.00000*
1,1,1.00000,0.65000,0.00000*
%
%ADD86ROUNDEDRECTD86*%
%ADD87C,0.40000*%
%TA.AperFunction,ViaPad*%
%ADD88C,2.50000*%
%TA.AperFunction,ComponentPad*%
%ADD89C,2.37500*%
%ADD90C,0.85000*%
%ADD91C,1.52400*%
%ADD92C,0.45720*%
%TA.AperFunction,SMDPad,CuDef*%
%ADD109R,1.00000X1.40000*%
%ADD110R,2.50000X1.15000*%
%ADD111R,1.15000X1.35000*%
G04:AMPARAMS|DCode=112|XSize=1.23mm|YSize=0.6mm|CornerRadius=0.075mm|HoleSize=0mm|Usage=FLASHONLY|Rotation=180.000|XOffset=0mm|YOffset=0mm|HoleType=Round|Shape=RoundedRectangle|*
%AMROUNDEDRECTD112*
21,1,1.23000,0.45000,0,0,180.0*
21,1,1.08000,0.60000,0,0,180.0*
1,1,0.15000,-0.54000,0.22500*
1,1,0.15000,0.54000,0.22500*
1,1,0.15000,0.54000,-0.22500*
1,1,0.15000,-0.54000,-0.22500*
%
%ADD112ROUNDEDRECTD112*%
%TA.AperFunction,ConnectorPad*%
%ADD113R,0.64000X0.60000*%
%TA.AperFunction,SMDPad,CuDef*%
G04:AMPARAMS|DCode=114|XSize=1.57mm|YSize=0.41mm|CornerRadius=0.05125mm|HoleSize=0mm|Usage=FLASHONLY|Rotation=0.000|XOffset=0mm|YOffset=0mm|HoleType=Round|Shape=RoundedRectangle|*
%AMROUNDEDRECTD114*
21,1,1.57000,0.30750,0,0,0.0*
21,1,1.46750,0.41000,0,0,0.0*
1,1,0.10250,0.73375,-0.15375*
1,1,0.10250,-0.73375,-0.15375*
1,1,0.10250,-0.73375,0.15375*
1,1,0.10250,0.73375,0.15375*
%
%ADD114ROUNDEDRECTD114*%
D10*
X7989496Y7723441D02*
D03*
Y7838441D02*
D03*
D11*
X9702500Y7434369D02*
D03*
Y7610389D02*
D03*
X9832500Y7434369D02*
D03*
Y7610389D02*
D03*
D16*
X8482725Y7762933D02*
D03*
Y7850933D02*
D03*
D17*
X3850320Y6908421D02*
D03*
X3640320D02*
D03*
Y6273421D02*
D03*
X3850320D02*
D03*
X3640320Y7545921D02*
D03*
X3850320D02*
D03*
D18*
X9402820Y7610389D02*
D03*
X9537820Y7434369D02*
D03*
X9402820D02*
D03*
X9537820Y7610389D02*
D03*
D19*
X7756732Y7424784D02*
D03*
X7871732D02*
D03*
Y7543365D02*
D03*
X7756732D02*
D03*
D27*
X8300200Y7601479D02*
D03*
X8212200D02*
D03*
D37*
X8152061Y7845941D02*
D03*
Y7715941D02*
D03*
D61*
X9229020Y7453989D02*
D03*
Y7588989D02*
D03*
D85*
X6917620Y6698554D02*
D03*
Y6893520D02*
D03*
X4583360Y7503449D02*
D03*
X4961820Y6581100D02*
D03*
D86*
X3018200Y7324098D02*
D03*
X2703200D02*
D03*
X3018200Y6394098D02*
D03*
X2703200D02*
D03*
D87*
X4288600Y6961060D02*
D03*
X4073600D02*
D03*
X4181100D02*
D03*
Y6819560D02*
D03*
Y6597560D02*
D03*
X4288600Y6708560D02*
D03*
X4073600D02*
D03*
X4181100D02*
D03*
D88*
X10072300Y7917140D02*
D03*
X16394360Y6568400D02*
D03*
D89*
X6886620Y7555860D02*
D03*
Y7238360D02*
D03*
X7394620D02*
D03*
Y7555860D02*
D03*
D90*
X7140620D02*
D03*
X7242220Y7047860D02*
D03*
X7039020D02*
D03*
D91*
X6559480Y7967940D02*
D03*
X7062384D02*
D03*
D92*
X13420621Y6457121D02*
D03*
X13640620D02*
D03*
X13420621Y6237121D02*
D03*
X13640620D02*
D03*
X13420621Y6347121D02*
D03*
X13530620Y6457121D02*
D03*
Y6237121D02*
D03*
X13638120Y6347121D02*
D03*
D109*
X7616120Y7896820D02*
D03*
X7806120D02*
D03*
X7711120Y7676820D02*
D03*
D110*
X10069304Y7680572D02*
D03*
Y7365572D02*
D03*
D111*
X8700920Y7818080D02*
D03*
X8875920D02*
D03*
D112*
X8264661Y7471120D02*
D03*
Y7281120D02*
D03*
X8052661Y7376120D02*
D03*
D113*
X8289221Y7736933D02*
D03*
Y7824933D02*
D03*
D114*
X9056725Y7228551D02*
D03*
Y7293552D02*
D03*
Y7358551D02*
D03*
Y7423552D02*
D03*
Y7488552D02*
D03*
Y7553552D02*
D03*
Y7618552D02*
D03*
X8482725D02*
D03*
Y7553552D02*
D03*
Y7488552D02*
D03*
Y7423552D02*
D03*
Y7358551D02*
D03*
Y7293552D02*
D03*
Y7228551D02*
D03*
%TF.MD5,360f1b91d76868d7b13e5bf6279a4703*%
M02*
