%TF.GenerationSoftware,Altium Limited,Altium Designer,19.0.15 (446)*%
G04 Layer_Color=16777215*
%FSLAX45Y45*%
%MOMM*%
%TF.FileFunction,Legend,Top*%
%TF.Part,CustomerPanel*%
G01*
G75*
%TA.AperFunction,NonConductor*%
%ADD116C,0.20000*%
%ADD117C,0.15000*%
%ADD118C,0.12700*%
%ADD119C,0.50000*%
%ADD120C,0.25400*%
%ADD147C,0.10000*%
%ADD148C,0.60000*%
%ADD149C,0.25000*%
%ADD150R,0.67500X0.55000*%
%ADD151R,0.55000X0.67500*%
G36*
X8285620Y7274038D02*
X8175620D01*
Y7304038D01*
X8285620D01*
Y7274038D01*
D02*
G37*
G36*
X7963120D02*
X7853120D01*
Y7304038D01*
X7963120D01*
Y7274038D01*
D02*
G37*
G36*
X7640620D02*
X7530620D01*
Y7304038D01*
X7640620D01*
Y7274038D01*
D02*
G37*
G36*
X8473670Y7273526D02*
X8363670D01*
Y7303526D01*
X8473670D01*
Y7273526D01*
D02*
G37*
G36*
X8151170D02*
X8041170D01*
Y7303526D01*
X8151170D01*
Y7273526D01*
D02*
G37*
G36*
X7828670D02*
X7718670D01*
Y7303526D01*
X7828670D01*
Y7273526D01*
D02*
G37*
G36*
X6174080Y6793800D02*
X6129080Y6778800D01*
Y6838800D01*
X6189080D01*
X6174080Y6793800D01*
D02*
G37*
G36*
X10067271Y6398234D02*
X9957271D01*
Y6428234D01*
X10067271D01*
Y6398234D01*
D02*
G37*
G36*
X10395460Y6398231D02*
X10285460D01*
Y6428230D01*
X10395460D01*
Y6398231D01*
D02*
G37*
G36*
X10255320Y6397722D02*
X10145320D01*
Y6427722D01*
X10255320D01*
Y6397722D01*
D02*
G37*
G36*
X10583509Y6397718D02*
X10473509D01*
Y6427718D01*
X10583509D01*
Y6397718D01*
D02*
G37*
G36*
X10727371Y6395913D02*
X10617371D01*
Y6425912D01*
X10727371D01*
Y6395913D01*
D02*
G37*
G36*
X10915420Y6395400D02*
X10805420D01*
Y6425400D01*
X10915420D01*
Y6395400D01*
D02*
G37*
G36*
X11126535Y6299979D02*
Y6297577D01*
Y6295174D01*
Y6292772D01*
Y6290369D01*
X11128937D01*
Y6287967D01*
Y6285565D01*
Y6283162D01*
Y6280760D01*
Y6278358D01*
Y6275955D01*
Y6273553D01*
Y6271150D01*
Y6268747D01*
X11016022D01*
Y6266345D01*
X11018425D01*
Y6263943D01*
Y6261540D01*
Y6259138D01*
X11020827D01*
Y6256735D01*
Y6254333D01*
X11023230D01*
Y6251930D01*
Y6249528D01*
X11025632D01*
Y6247126D01*
X11030437D01*
Y6244723D01*
X11032840D01*
Y6242321D01*
X11040047D01*
Y6239918D01*
X11073681D01*
Y6242321D01*
X11078486D01*
Y6244723D01*
X11083291D01*
Y6247126D01*
X11085693D01*
Y6249528D01*
X11090498D01*
Y6251930D01*
X11092901D01*
Y6254333D01*
Y6256735D01*
X11097706D01*
Y6254333D01*
X11102510D01*
Y6251930D01*
X11107315D01*
Y6249528D01*
X11114523D01*
Y6247126D01*
X11119328D01*
Y6244723D01*
X11124132D01*
Y6242321D01*
Y6239918D01*
X11121730D01*
Y6237516D01*
X11119328D01*
Y6235114D01*
X11116925D01*
Y6232711D01*
X11114523D01*
Y6230308D01*
X11112120D01*
Y6227906D01*
X11109718D01*
Y6225504D01*
X11104913D01*
Y6223101D01*
X11100108D01*
Y6220699D01*
X11097706D01*
Y6218296D01*
X11090498D01*
Y6215894D01*
X11083291D01*
Y6213491D01*
X11071279D01*
Y6211089D01*
X11037644D01*
Y6213491D01*
X11028035D01*
Y6215894D01*
X11018425D01*
Y6218296D01*
X11013620D01*
Y6220699D01*
X11008815D01*
Y6223101D01*
X11004010D01*
Y6225504D01*
X11001608D01*
Y6227906D01*
X10999205D01*
Y6230308D01*
X10994400D01*
Y6232711D01*
X10991998D01*
Y6235114D01*
Y6237516D01*
X10989595D01*
Y6239918D01*
X10987193D01*
Y6242321D01*
X10984791D01*
Y6244723D01*
Y6247126D01*
X10982388D01*
Y6249528D01*
Y6251930D01*
Y6254333D01*
X10979986D01*
Y6256735D01*
Y6259138D01*
Y6261540D01*
X10977583D01*
Y6263943D01*
Y6266345D01*
Y6268747D01*
Y6271150D01*
Y6273553D01*
Y6275955D01*
Y6278358D01*
Y6280760D01*
Y6283162D01*
Y6285565D01*
Y6287967D01*
Y6290369D01*
Y6292772D01*
X10979986D01*
Y6295174D01*
Y6297577D01*
Y6299979D01*
X10982388D01*
Y6302382D01*
X11018425D01*
Y6299979D01*
Y6297577D01*
Y6295174D01*
X11016022D01*
Y6292772D01*
Y6290369D01*
X11088096D01*
Y6292772D01*
Y6295174D01*
Y6297577D01*
Y6299979D01*
X11085693D01*
Y6302382D01*
X11126535D01*
Y6299979D01*
D02*
G37*
G36*
X10547546D02*
X10549948D01*
Y6297577D01*
Y6295174D01*
Y6292772D01*
Y6290369D01*
X10552350D01*
Y6287967D01*
Y6285565D01*
Y6283162D01*
Y6280760D01*
Y6278358D01*
Y6275955D01*
Y6273553D01*
Y6271150D01*
Y6268747D01*
X10439435D01*
Y6266345D01*
X10441838D01*
Y6263943D01*
Y6261540D01*
Y6259138D01*
Y6256735D01*
X10444240D01*
Y6254333D01*
X10446643D01*
Y6251930D01*
Y6249528D01*
X10449045D01*
Y6247126D01*
X10453850D01*
Y6244723D01*
X10456253D01*
Y6242321D01*
X10463460D01*
Y6239918D01*
X10497094D01*
Y6242321D01*
X10501899D01*
Y6244723D01*
X10506704D01*
Y6247126D01*
X10509106D01*
Y6249528D01*
X10513911D01*
Y6251930D01*
X10516314D01*
Y6254333D01*
Y6256735D01*
X10521119D01*
Y6254333D01*
X10525924D01*
Y6251930D01*
X10530728D01*
Y6249528D01*
X10535533D01*
Y6247126D01*
X10542740D01*
Y6244723D01*
X10547546D01*
Y6242321D01*
Y6239918D01*
X10545143D01*
Y6237516D01*
X10542740D01*
Y6235114D01*
X10540338D01*
Y6232711D01*
X10537936D01*
Y6230308D01*
X10535533D01*
Y6227906D01*
X10533131D01*
Y6225504D01*
X10528326D01*
Y6223101D01*
X10523521D01*
Y6220699D01*
X10521119D01*
Y6218296D01*
X10513911D01*
Y6215894D01*
X10506704D01*
Y6213491D01*
X10494692D01*
Y6211089D01*
X10461057D01*
Y6213491D01*
X10449045D01*
Y6215894D01*
X10441838D01*
Y6218296D01*
X10437033D01*
Y6220699D01*
X10432228D01*
Y6223101D01*
X10427423D01*
Y6225504D01*
X10425021D01*
Y6227906D01*
X10422618D01*
Y6230308D01*
X10417814D01*
Y6232711D01*
X10415411D01*
Y6235114D01*
Y6237516D01*
X10413009D01*
Y6239918D01*
X10410606D01*
Y6242321D01*
X10408204D01*
Y6244723D01*
Y6247126D01*
X10405801D01*
Y6249528D01*
Y6251930D01*
Y6254333D01*
X10403399D01*
Y6256735D01*
Y6259138D01*
Y6261540D01*
Y6263943D01*
Y6266345D01*
Y6268747D01*
Y6271150D01*
Y6273553D01*
Y6275955D01*
Y6278358D01*
Y6280760D01*
Y6283162D01*
Y6285565D01*
Y6287967D01*
Y6290369D01*
Y6292772D01*
Y6295174D01*
Y6297577D01*
Y6299979D01*
Y6302382D01*
X10441838D01*
Y6299979D01*
Y6297577D01*
Y6295174D01*
X10439435D01*
Y6292772D01*
Y6290369D01*
X10511509D01*
Y6292772D01*
Y6295174D01*
Y6297577D01*
Y6299979D01*
X10509106D01*
Y6302382D01*
X10547546D01*
Y6299979D01*
D02*
G37*
G36*
X11582999D02*
X11585402D01*
Y6297577D01*
Y6295174D01*
Y6292772D01*
Y6290369D01*
Y6287967D01*
X11587804D01*
Y6285565D01*
Y6283162D01*
Y6280760D01*
Y6278358D01*
Y6275955D01*
Y6273553D01*
Y6271150D01*
Y6268747D01*
X11585402D01*
Y6266345D01*
Y6263943D01*
Y6261540D01*
Y6259138D01*
Y6256735D01*
X11582999D01*
Y6254333D01*
Y6251930D01*
X11580597D01*
Y6249528D01*
Y6247126D01*
X11578195D01*
Y6244723D01*
Y6242321D01*
X11575792D01*
Y6239918D01*
X11573390D01*
Y6237516D01*
Y6235114D01*
X11570987D01*
Y6232711D01*
X11568585D01*
Y6230308D01*
X11566182D01*
Y6227906D01*
X11561377D01*
Y6225504D01*
X11558975D01*
Y6223101D01*
X11554170D01*
Y6220699D01*
X11549365D01*
Y6218296D01*
X11544560D01*
Y6215894D01*
X11537353D01*
Y6213491D01*
X11525341D01*
Y6211089D01*
X11491707D01*
Y6213491D01*
X11482097D01*
Y6215894D01*
X11472487D01*
Y6218296D01*
X11467682D01*
Y6220699D01*
X11462877D01*
Y6223101D01*
X11458072D01*
Y6225504D01*
X11455670D01*
Y6227906D01*
X11450865D01*
Y6230308D01*
X11448462D01*
Y6232711D01*
X11446060D01*
Y6235114D01*
X11443658D01*
Y6237516D01*
Y6239918D01*
X11441255D01*
Y6242321D01*
X11438853D01*
Y6244723D01*
Y6247126D01*
X11436450D01*
Y6249528D01*
Y6251930D01*
X11434048D01*
Y6254333D01*
Y6256735D01*
X11431645D01*
Y6259138D01*
Y6261540D01*
Y6263943D01*
Y6266345D01*
Y6268747D01*
X11429243D01*
Y6271150D01*
Y6273553D01*
Y6275955D01*
Y6278358D01*
Y6280760D01*
Y6283162D01*
Y6285565D01*
Y6287967D01*
X11431645D01*
Y6290369D01*
Y6292772D01*
Y6295174D01*
Y6297577D01*
X11434048D01*
Y6299979D01*
Y6302382D01*
X11477292D01*
Y6299979D01*
X11474889D01*
Y6297577D01*
Y6295174D01*
Y6292772D01*
Y6290369D01*
X11472487D01*
Y6287967D01*
Y6285565D01*
Y6283162D01*
Y6280760D01*
Y6278358D01*
Y6275955D01*
Y6273553D01*
Y6271150D01*
Y6268747D01*
Y6266345D01*
X11474889D01*
Y6263943D01*
Y6261540D01*
Y6259138D01*
Y6256735D01*
X11477292D01*
Y6254333D01*
X11479694D01*
Y6251930D01*
Y6249528D01*
X11482097D01*
Y6247126D01*
X11484499D01*
Y6244723D01*
X11489304D01*
Y6242321D01*
X11491707D01*
Y6239918D01*
X11503719D01*
Y6237516D01*
X11513329D01*
Y6239918D01*
X11525341D01*
Y6242321D01*
X11530146D01*
Y6244723D01*
X11532548D01*
Y6247126D01*
X11534950D01*
Y6249528D01*
X11537353D01*
Y6251930D01*
X11539755D01*
Y6254333D01*
Y6256735D01*
X11542158D01*
Y6259138D01*
Y6261540D01*
Y6263943D01*
Y6266345D01*
X11544560D01*
Y6268747D01*
Y6271150D01*
Y6273553D01*
Y6275955D01*
Y6278358D01*
Y6280760D01*
Y6283162D01*
Y6285565D01*
Y6287967D01*
Y6290369D01*
X11542158D01*
Y6292772D01*
Y6295174D01*
Y6297577D01*
Y6299979D01*
X11539755D01*
Y6302382D01*
X11582999D01*
Y6299979D01*
D02*
G37*
G36*
X11325938D02*
X11328340D01*
Y6297577D01*
X11335548D01*
Y6295174D01*
X11354767D01*
Y6292772D01*
X11376389D01*
Y6290369D01*
X11390804D01*
Y6287967D01*
X11398011D01*
Y6285565D01*
X11402816D01*
Y6283162D01*
X11407621D01*
Y6280760D01*
X11410023D01*
Y6278358D01*
X11412426D01*
Y6275955D01*
X11414828D01*
Y6273553D01*
X11417231D01*
Y6271150D01*
Y6268747D01*
X11419633D01*
Y6266345D01*
Y6263943D01*
Y6261540D01*
X11422036D01*
Y6259138D01*
Y6256735D01*
Y6254333D01*
Y6251930D01*
Y6249528D01*
Y6247126D01*
X11419633D01*
Y6244723D01*
Y6242321D01*
Y6239918D01*
X11417231D01*
Y6237516D01*
Y6235114D01*
X11414828D01*
Y6232711D01*
Y6230308D01*
X11412426D01*
Y6227906D01*
X11410023D01*
Y6225504D01*
X11407621D01*
Y6223101D01*
X11402816D01*
Y6220699D01*
X11398011D01*
Y6218296D01*
X11393206D01*
Y6215894D01*
X11385999D01*
Y6213491D01*
X11373987D01*
Y6211089D01*
X11337950D01*
Y6213491D01*
X11323535D01*
Y6215894D01*
X11313926D01*
Y6218296D01*
X11309121D01*
Y6220699D01*
X11301913D01*
Y6223101D01*
X11297108D01*
Y6225504D01*
X11294706D01*
Y6227906D01*
X11289901D01*
Y6230308D01*
X11287499D01*
Y6232711D01*
X11285096D01*
Y6235114D01*
X11282694D01*
Y6237516D01*
X11280291D01*
Y6239918D01*
X11282694D01*
Y6242321D01*
X11285096D01*
Y6244723D01*
X11287499D01*
Y6247126D01*
X11289901D01*
Y6249528D01*
X11292304D01*
Y6251930D01*
X11297108D01*
Y6254333D01*
X11299511D01*
Y6256735D01*
X11301913D01*
Y6254333D01*
X11304316D01*
Y6251930D01*
X11309121D01*
Y6249528D01*
X11311523D01*
Y6247126D01*
X11316328D01*
Y6244723D01*
X11321133D01*
Y6242321D01*
X11328340D01*
Y6239918D01*
X11337950D01*
Y6237516D01*
X11373987D01*
Y6239918D01*
X11378792D01*
Y6242321D01*
X11383596D01*
Y6244723D01*
Y6247126D01*
Y6249528D01*
Y6251930D01*
Y6254333D01*
Y6256735D01*
X11381194D01*
Y6259138D01*
X11376389D01*
Y6261540D01*
X11364377D01*
Y6263943D01*
X11345157D01*
Y6266345D01*
X11325938D01*
Y6268747D01*
X11316328D01*
Y6271150D01*
X11309121D01*
Y6273553D01*
X11304316D01*
Y6275955D01*
X11299511D01*
Y6278358D01*
X11297108D01*
Y6280760D01*
X11294706D01*
Y6283162D01*
X11292304D01*
Y6285565D01*
X11289901D01*
Y6287967D01*
Y6290369D01*
X11287499D01*
Y6292772D01*
Y6295174D01*
Y6297577D01*
Y6299979D01*
Y6302382D01*
X11325938D01*
Y6299979D01*
D02*
G37*
G36*
X11179389D02*
X11181791D01*
Y6297577D01*
X11188998D01*
Y6295174D01*
X11208218D01*
Y6292772D01*
X11229840D01*
Y6290369D01*
X11244255D01*
Y6287967D01*
X11251462D01*
Y6285565D01*
X11256267D01*
Y6283162D01*
X11261072D01*
Y6280760D01*
X11263474D01*
Y6278358D01*
X11265877D01*
Y6275955D01*
X11268279D01*
Y6273553D01*
X11270682D01*
Y6271150D01*
Y6268747D01*
X11273084D01*
Y6266345D01*
Y6263943D01*
Y6261540D01*
Y6259138D01*
X11275486D01*
Y6256735D01*
Y6254333D01*
Y6251930D01*
Y6249528D01*
X11273084D01*
Y6247126D01*
Y6244723D01*
Y6242321D01*
Y6239918D01*
X11270682D01*
Y6237516D01*
Y6235114D01*
X11268279D01*
Y6232711D01*
Y6230308D01*
X11265877D01*
Y6227906D01*
X11263474D01*
Y6225504D01*
X11258669D01*
Y6223101D01*
X11256267D01*
Y6220699D01*
X11251462D01*
Y6218296D01*
X11246657D01*
Y6215894D01*
X11239450D01*
Y6213491D01*
X11227438D01*
Y6211089D01*
X11191401D01*
Y6213491D01*
X11176986D01*
Y6215894D01*
X11167376D01*
Y6218296D01*
X11160169D01*
Y6220699D01*
X11155364D01*
Y6223101D01*
X11150559D01*
Y6225504D01*
X11148157D01*
Y6227906D01*
X11143352D01*
Y6230308D01*
X11140950D01*
Y6232711D01*
X11138547D01*
Y6235114D01*
X11136145D01*
Y6237516D01*
X11133742D01*
Y6239918D01*
X11136145D01*
Y6242321D01*
X11138547D01*
Y6244723D01*
X11140950D01*
Y6247126D01*
X11143352D01*
Y6249528D01*
X11145754D01*
Y6251930D01*
X11150559D01*
Y6254333D01*
X11152962D01*
Y6256735D01*
X11155364D01*
Y6254333D01*
X11157767D01*
Y6251930D01*
X11160169D01*
Y6249528D01*
X11164974D01*
Y6247126D01*
X11169779D01*
Y6244723D01*
X11174584D01*
Y6242321D01*
X11181791D01*
Y6239918D01*
X11191401D01*
Y6237516D01*
X11225035D01*
Y6239918D01*
X11232242D01*
Y6242321D01*
X11234645D01*
Y6244723D01*
X11237047D01*
Y6247126D01*
Y6249528D01*
Y6251930D01*
Y6254333D01*
Y6256735D01*
X11234645D01*
Y6259138D01*
X11229840D01*
Y6261540D01*
X11217828D01*
Y6263943D01*
X11198608D01*
Y6266345D01*
X11179389D01*
Y6268747D01*
X11169779D01*
Y6271150D01*
X11162572D01*
Y6273553D01*
X11157767D01*
Y6275955D01*
X11152962D01*
Y6278358D01*
X11150559D01*
Y6280760D01*
X11148157D01*
Y6283162D01*
X11145754D01*
Y6285565D01*
X11143352D01*
Y6287967D01*
Y6290369D01*
X11140950D01*
Y6292772D01*
Y6295174D01*
Y6297577D01*
Y6299979D01*
X11138547D01*
Y6302382D01*
X11179389D01*
Y6299979D01*
D02*
G37*
G36*
X10862266D02*
Y6297577D01*
Y6295174D01*
Y6292772D01*
X10864668D01*
Y6290369D01*
Y6287967D01*
Y6285565D01*
Y6283162D01*
Y6280760D01*
Y6278358D01*
Y6275955D01*
Y6273553D01*
Y6271150D01*
Y6268747D01*
Y6266345D01*
Y6263943D01*
X10862266D01*
Y6261540D01*
Y6259138D01*
Y6256735D01*
Y6254333D01*
X10859863D01*
Y6251930D01*
Y6249528D01*
Y6247126D01*
X10857461D01*
Y6244723D01*
Y6242321D01*
X10855059D01*
Y6239918D01*
X10852656D01*
Y6237516D01*
Y6235114D01*
X10850254D01*
Y6232711D01*
X10847851D01*
Y6230308D01*
X10845449D01*
Y6227906D01*
X10843046D01*
Y6225504D01*
X10840644D01*
Y6223101D01*
X10838241D01*
Y6220699D01*
X10833437D01*
Y6218296D01*
X10828632D01*
Y6215894D01*
X10821424D01*
Y6213491D01*
X10814217D01*
Y6211089D01*
X10787790D01*
Y6213491D01*
X10778180D01*
Y6215894D01*
X10773375D01*
Y6218296D01*
X10768571D01*
Y6220699D01*
X10763766D01*
Y6223101D01*
X10761363D01*
Y6225504D01*
X10758961D01*
Y6227906D01*
X10756558D01*
Y6230308D01*
X10754156D01*
Y6232711D01*
X10751753D01*
Y6230308D01*
Y6227906D01*
Y6225504D01*
Y6223101D01*
Y6220699D01*
Y6218296D01*
Y6215894D01*
Y6213491D01*
Y6211089D01*
Y6208686D01*
Y6206284D01*
Y6203882D01*
Y6201479D01*
Y6199077D01*
Y6196674D01*
Y6194272D01*
Y6191869D01*
Y6189467D01*
Y6187065D01*
Y6184662D01*
Y6182260D01*
Y6179857D01*
Y6177455D01*
Y6175052D01*
Y6172650D01*
Y6170247D01*
Y6167845D01*
Y6165442D01*
X10708509D01*
Y6167845D01*
Y6170247D01*
Y6172650D01*
Y6175052D01*
Y6177455D01*
Y6179857D01*
Y6182260D01*
Y6184662D01*
Y6187065D01*
Y6189467D01*
Y6191869D01*
Y6194272D01*
Y6196674D01*
Y6199077D01*
Y6201479D01*
Y6203882D01*
Y6206284D01*
Y6208686D01*
Y6211089D01*
Y6213491D01*
Y6215894D01*
Y6218296D01*
Y6220699D01*
Y6223101D01*
Y6225504D01*
Y6227906D01*
Y6230308D01*
Y6232711D01*
Y6235114D01*
Y6237516D01*
Y6239918D01*
Y6242321D01*
Y6244723D01*
Y6247126D01*
Y6249528D01*
Y6251930D01*
Y6254333D01*
Y6256735D01*
Y6259138D01*
Y6261540D01*
Y6263943D01*
Y6266345D01*
Y6268747D01*
Y6271150D01*
Y6273553D01*
Y6275955D01*
Y6278358D01*
Y6280760D01*
Y6283162D01*
Y6285565D01*
Y6287967D01*
Y6290369D01*
Y6292772D01*
Y6295174D01*
Y6297577D01*
Y6299979D01*
Y6302382D01*
X10754156D01*
Y6299979D01*
Y6297577D01*
X10751753D01*
Y6295174D01*
Y6292772D01*
Y6290369D01*
X10749351D01*
Y6287967D01*
Y6285565D01*
Y6283162D01*
Y6280760D01*
Y6278358D01*
Y6275955D01*
Y6273553D01*
Y6271150D01*
Y6268747D01*
Y6266345D01*
X10751753D01*
Y6263943D01*
Y6261540D01*
Y6259138D01*
X10754156D01*
Y6256735D01*
Y6254333D01*
X10756558D01*
Y6251930D01*
Y6249528D01*
X10758961D01*
Y6247126D01*
X10761363D01*
Y6244723D01*
X10766168D01*
Y6242321D01*
X10770973D01*
Y6239918D01*
X10782985D01*
Y6237516D01*
X10787790D01*
Y6239918D01*
X10799802D01*
Y6242321D01*
X10804607D01*
Y6244723D01*
X10809412D01*
Y6247126D01*
X10811814D01*
Y6249528D01*
X10814217D01*
Y6251930D01*
Y6254333D01*
X10816619D01*
Y6256735D01*
Y6259138D01*
X10819022D01*
Y6261540D01*
Y6263943D01*
Y6266345D01*
X10821424D01*
Y6268747D01*
Y6271150D01*
Y6273553D01*
Y6275955D01*
Y6278358D01*
Y6280760D01*
Y6283162D01*
Y6285565D01*
Y6287967D01*
Y6290369D01*
X10819022D01*
Y6292772D01*
Y6295174D01*
Y6297577D01*
X10816619D01*
Y6299979D01*
Y6302382D01*
X10862266D01*
Y6299979D01*
D02*
G37*
G36*
X10602802D02*
X10605204D01*
Y6297577D01*
X10614814D01*
Y6295174D01*
X10634034D01*
Y6292772D01*
X10655656D01*
Y6290369D01*
X10667668D01*
Y6287967D01*
X10674875D01*
Y6285565D01*
X10679680D01*
Y6283162D01*
X10684485D01*
Y6280760D01*
X10689290D01*
Y6278358D01*
X10691692D01*
Y6275955D01*
Y6273553D01*
X10694095D01*
Y6271150D01*
X10696497D01*
Y6268747D01*
Y6266345D01*
Y6263943D01*
X10698900D01*
Y6261540D01*
Y6259138D01*
Y6256735D01*
Y6254333D01*
Y6251930D01*
Y6249528D01*
Y6247126D01*
Y6244723D01*
Y6242321D01*
X10696497D01*
Y6239918D01*
Y6237516D01*
X10694095D01*
Y6235114D01*
Y6232711D01*
X10691692D01*
Y6230308D01*
X10689290D01*
Y6227906D01*
X10686887D01*
Y6225504D01*
X10684485D01*
Y6223101D01*
X10679680D01*
Y6220699D01*
X10677277D01*
Y6218296D01*
X10670070D01*
Y6215894D01*
X10662863D01*
Y6213491D01*
X10650851D01*
Y6211089D01*
X10614814D01*
Y6213491D01*
X10600399D01*
Y6215894D01*
X10593192D01*
Y6218296D01*
X10585985D01*
Y6220699D01*
X10581180D01*
Y6223101D01*
X10576375D01*
Y6225504D01*
X10571570D01*
Y6227906D01*
X10569168D01*
Y6230308D01*
X10566765D01*
Y6232711D01*
X10561960D01*
Y6235114D01*
X10559558D01*
Y6237516D01*
X10557155D01*
Y6239918D01*
X10559558D01*
Y6242321D01*
X10561960D01*
Y6244723D01*
X10564363D01*
Y6247126D01*
X10569168D01*
Y6249528D01*
X10571570D01*
Y6251930D01*
X10573972D01*
Y6254333D01*
X10576375D01*
Y6256735D01*
X10581180D01*
Y6254333D01*
X10583582D01*
Y6251930D01*
X10585985D01*
Y6249528D01*
X10588387D01*
Y6247126D01*
X10593192D01*
Y6244723D01*
X10597997D01*
Y6242321D01*
X10605204D01*
Y6239918D01*
X10617217D01*
Y6237516D01*
X10650851D01*
Y6239918D01*
X10658058D01*
Y6242321D01*
X10660461D01*
Y6244723D01*
X10662863D01*
Y6247126D01*
Y6249528D01*
Y6251930D01*
Y6254333D01*
Y6256735D01*
X10660461D01*
Y6259138D01*
X10655656D01*
Y6261540D01*
X10643643D01*
Y6263943D01*
X10622021D01*
Y6266345D01*
X10605204D01*
Y6268747D01*
X10593192D01*
Y6271150D01*
X10588387D01*
Y6273553D01*
X10581180D01*
Y6275955D01*
X10578777D01*
Y6278358D01*
X10573972D01*
Y6280760D01*
X10571570D01*
Y6283162D01*
Y6285565D01*
X10569168D01*
Y6287967D01*
X10566765D01*
Y6290369D01*
Y6292772D01*
Y6295174D01*
X10564363D01*
Y6297577D01*
Y6299979D01*
Y6302382D01*
X10602802D01*
Y6299979D01*
D02*
G37*
G36*
X10939144D02*
X10936742D01*
Y6297577D01*
X10931937D01*
Y6295174D01*
Y6292772D01*
X10929534D01*
Y6290369D01*
X10927132D01*
Y6287967D01*
Y6285565D01*
X10924729D01*
Y6283162D01*
Y6280760D01*
Y6278358D01*
Y6275955D01*
X10922327D01*
Y6273553D01*
Y6271150D01*
Y6268747D01*
Y6266345D01*
Y6263943D01*
Y6261540D01*
Y6259138D01*
Y6256735D01*
Y6254333D01*
Y6251930D01*
Y6249528D01*
Y6247126D01*
Y6244723D01*
Y6242321D01*
Y6239918D01*
Y6237516D01*
Y6235114D01*
Y6232711D01*
Y6230308D01*
Y6227906D01*
Y6225504D01*
Y6223101D01*
Y6220699D01*
Y6218296D01*
Y6215894D01*
X10881485D01*
Y6218296D01*
Y6220699D01*
Y6223101D01*
Y6225504D01*
Y6227906D01*
Y6230308D01*
Y6232711D01*
Y6235114D01*
Y6237516D01*
Y6239918D01*
Y6242321D01*
Y6244723D01*
Y6247126D01*
Y6249528D01*
Y6251930D01*
Y6254333D01*
Y6256735D01*
Y6259138D01*
Y6261540D01*
Y6263943D01*
Y6266345D01*
Y6268747D01*
Y6271150D01*
Y6273553D01*
Y6275955D01*
Y6278358D01*
Y6280760D01*
Y6283162D01*
Y6285565D01*
Y6287967D01*
Y6290369D01*
Y6292772D01*
Y6295174D01*
Y6297577D01*
Y6299979D01*
Y6302382D01*
X10939144D01*
Y6299979D01*
D02*
G37*
G36*
X10811814Y6153430D02*
X10823827D01*
Y6151028D01*
X10828632D01*
Y6148625D01*
X10833437D01*
Y6146223D01*
X10838241D01*
Y6143821D01*
X10840644D01*
Y6141418D01*
X10843046D01*
Y6139016D01*
X10845449D01*
Y6136613D01*
X10847851D01*
Y6134210D01*
X10850254D01*
Y6131808D01*
X10852656D01*
Y6129406D01*
X10855059D01*
Y6127003D01*
Y6124601D01*
X10857461D01*
Y6122198D01*
Y6119796D01*
X10859863D01*
Y6117394D01*
Y6114991D01*
Y6112589D01*
X10814217D01*
Y6114991D01*
Y6117394D01*
X10811814D01*
Y6119796D01*
X10809412D01*
Y6122198D01*
X10804607D01*
Y6124601D01*
X10799802D01*
Y6127003D01*
X10770973D01*
Y6124601D01*
X10766168D01*
Y6122198D01*
X10761363D01*
Y6119796D01*
X10758961D01*
Y6117394D01*
X10756558D01*
Y6114991D01*
Y6112589D01*
X10708509D01*
Y6114991D01*
Y6117394D01*
Y6119796D01*
Y6122198D01*
Y6124601D01*
Y6127003D01*
Y6129406D01*
Y6131808D01*
Y6134210D01*
Y6136613D01*
Y6139016D01*
Y6141418D01*
Y6143821D01*
Y6146223D01*
Y6148625D01*
Y6151028D01*
X10749351D01*
Y6148625D01*
Y6146223D01*
Y6143821D01*
Y6141418D01*
Y6139016D01*
Y6136613D01*
Y6134210D01*
Y6131808D01*
Y6129406D01*
X10751753D01*
Y6131808D01*
X10754156D01*
Y6134210D01*
X10756558D01*
Y6136613D01*
Y6139016D01*
X10758961D01*
Y6141418D01*
X10763766D01*
Y6143821D01*
X10766168D01*
Y6146223D01*
X10770973D01*
Y6148625D01*
X10775778D01*
Y6151028D01*
X10780583D01*
Y6153430D01*
X10792595D01*
Y6155832D01*
X10811814D01*
Y6153430D01*
D02*
G37*
G36*
X10975181D02*
Y6151028D01*
Y6148625D01*
Y6146223D01*
Y6143821D01*
Y6141418D01*
Y6139016D01*
Y6136613D01*
Y6134210D01*
Y6131808D01*
Y6129406D01*
Y6127003D01*
Y6124601D01*
Y6122198D01*
Y6119796D01*
Y6117394D01*
X10951156D01*
Y6114991D01*
X10943949D01*
Y6112589D01*
X10881485D01*
Y6114991D01*
Y6117394D01*
Y6119796D01*
Y6122198D01*
Y6124601D01*
Y6127003D01*
Y6129406D01*
Y6131808D01*
Y6134210D01*
Y6136613D01*
Y6139016D01*
Y6141418D01*
Y6143821D01*
Y6146223D01*
Y6148625D01*
Y6151028D01*
X10917522D01*
Y6148625D01*
Y6146223D01*
Y6143821D01*
Y6141418D01*
Y6139016D01*
Y6136613D01*
Y6134210D01*
Y6131808D01*
Y6129406D01*
Y6127003D01*
Y6124601D01*
Y6122198D01*
Y6119796D01*
Y6117394D01*
X10922327D01*
Y6119796D01*
Y6122198D01*
Y6124601D01*
X10924729D01*
Y6127003D01*
Y6129406D01*
X10927132D01*
Y6131808D01*
Y6134210D01*
X10929534D01*
Y6136613D01*
X10931937D01*
Y6139016D01*
X10934339D01*
Y6141418D01*
X10936742D01*
Y6143821D01*
X10939144D01*
Y6146223D01*
X10941547D01*
Y6148625D01*
X10946351D01*
Y6151028D01*
X10953559D01*
Y6153430D01*
X10965571D01*
Y6155832D01*
X10975181D01*
Y6153430D01*
D02*
G37*
G36*
X11366779D02*
X11381194D01*
Y6151028D01*
X11390804D01*
Y6148625D01*
X11398011D01*
Y6146223D01*
X11402816D01*
Y6143821D01*
X11407621D01*
Y6141418D01*
X11412426D01*
Y6139016D01*
X11414828D01*
Y6136613D01*
X11417231D01*
Y6134210D01*
X11419633D01*
Y6131808D01*
X11417231D01*
Y6129406D01*
X11414828D01*
Y6127003D01*
X11412426D01*
Y6124601D01*
X11410023D01*
Y6122198D01*
X11407621D01*
Y6119796D01*
X11405218D01*
Y6117394D01*
X11402816D01*
Y6114991D01*
X11400414D01*
Y6117394D01*
X11395609D01*
Y6119796D01*
X11390804D01*
Y6122198D01*
X11385999D01*
Y6124601D01*
X11378792D01*
Y6127003D01*
X11369182D01*
Y6129406D01*
X11333145D01*
Y6127003D01*
X11325938D01*
Y6124601D01*
X11323535D01*
Y6122198D01*
Y6119796D01*
Y6117394D01*
Y6114991D01*
Y6112589D01*
X11285096D01*
Y6114991D01*
Y6117394D01*
X11287499D01*
Y6119796D01*
Y6122198D01*
Y6124601D01*
Y6127003D01*
X11289901D01*
Y6129406D01*
Y6131808D01*
X11292304D01*
Y6134210D01*
Y6136613D01*
X11294706D01*
Y6139016D01*
X11297108D01*
Y6141418D01*
X11299511D01*
Y6143821D01*
X11304316D01*
Y6146223D01*
X11309121D01*
Y6148625D01*
X11313926D01*
Y6151028D01*
X11323535D01*
Y6153430D01*
X11337950D01*
Y6155832D01*
X11366779D01*
Y6153430D01*
D02*
G37*
G36*
X11220230D02*
X11234645D01*
Y6151028D01*
X11244255D01*
Y6148625D01*
X11251462D01*
Y6146223D01*
X11256267D01*
Y6143821D01*
X11261072D01*
Y6141418D01*
X11263474D01*
Y6139016D01*
X11268279D01*
Y6136613D01*
X11270682D01*
Y6134210D01*
X11273084D01*
Y6131808D01*
X11270682D01*
Y6129406D01*
X11268279D01*
Y6127003D01*
X11265877D01*
Y6124601D01*
X11263474D01*
Y6122198D01*
X11261072D01*
Y6119796D01*
X11258669D01*
Y6117394D01*
X11256267D01*
Y6114991D01*
X11251462D01*
Y6117394D01*
X11249060D01*
Y6119796D01*
X11244255D01*
Y6122198D01*
X11239450D01*
Y6124601D01*
X11232242D01*
Y6127003D01*
X11222633D01*
Y6129406D01*
X11186596D01*
Y6127003D01*
X11179389D01*
Y6124601D01*
X11176986D01*
Y6122198D01*
Y6119796D01*
Y6117394D01*
Y6114991D01*
Y6112589D01*
X11138547D01*
Y6114991D01*
Y6117394D01*
Y6119796D01*
X11140950D01*
Y6122198D01*
Y6124601D01*
Y6127003D01*
Y6129406D01*
X11143352D01*
Y6131808D01*
X11145754D01*
Y6134210D01*
Y6136613D01*
X11148157D01*
Y6139016D01*
X11150559D01*
Y6141418D01*
X11152962D01*
Y6143821D01*
X11157767D01*
Y6146223D01*
X11162572D01*
Y6148625D01*
X11167376D01*
Y6151028D01*
X11176986D01*
Y6153430D01*
X11188998D01*
Y6155832D01*
X11220230D01*
Y6153430D01*
D02*
G37*
G36*
X10643643D02*
X10660461D01*
Y6151028D01*
X10670070D01*
Y6148625D01*
X10674875D01*
Y6146223D01*
X10679680D01*
Y6143821D01*
X10684485D01*
Y6141418D01*
X10689290D01*
Y6139016D01*
X10691692D01*
Y6136613D01*
X10696497D01*
Y6134210D01*
Y6131808D01*
X10694095D01*
Y6129406D01*
X10691692D01*
Y6127003D01*
X10689290D01*
Y6124601D01*
X10686887D01*
Y6122198D01*
X10684485D01*
Y6119796D01*
X10682083D01*
Y6117394D01*
X10679680D01*
Y6114991D01*
X10677277D01*
Y6117394D01*
X10672473D01*
Y6119796D01*
X10670070D01*
Y6122198D01*
X10665265D01*
Y6124601D01*
X10658058D01*
Y6127003D01*
X10646046D01*
Y6129406D01*
X10610009D01*
Y6127003D01*
X10605204D01*
Y6124601D01*
X10602802D01*
Y6122198D01*
X10600399D01*
Y6119796D01*
Y6117394D01*
Y6114991D01*
X10602802D01*
Y6112589D01*
X10564363D01*
Y6114991D01*
Y6117394D01*
Y6119796D01*
Y6122198D01*
Y6124601D01*
X10566765D01*
Y6127003D01*
Y6129406D01*
Y6131808D01*
X10569168D01*
Y6134210D01*
X10571570D01*
Y6136613D01*
X10573972D01*
Y6139016D01*
X10576375D01*
Y6141418D01*
X10578777D01*
Y6143821D01*
X10581180D01*
Y6146223D01*
X10585985D01*
Y6148625D01*
X10593192D01*
Y6151028D01*
X10600399D01*
Y6153430D01*
X10614814D01*
Y6155832D01*
X10643643D01*
Y6153430D01*
D02*
G37*
G36*
X11522938D02*
X11534950D01*
Y6151028D01*
X11542158D01*
Y6148625D01*
X11549365D01*
Y6146223D01*
X11554170D01*
Y6143821D01*
X11558975D01*
Y6141418D01*
X11561377D01*
Y6139016D01*
X11566182D01*
Y6136613D01*
X11568585D01*
Y6134210D01*
X11570987D01*
Y6131808D01*
X11573390D01*
Y6129406D01*
Y6127003D01*
X11575792D01*
Y6124601D01*
X11578195D01*
Y6122198D01*
Y6119796D01*
X11580597D01*
Y6117394D01*
Y6114991D01*
X11582999D01*
Y6112589D01*
X11539755D01*
Y6114991D01*
X11537353D01*
Y6117394D01*
X11534950D01*
Y6119796D01*
X11532548D01*
Y6122198D01*
X11527743D01*
Y6124601D01*
X11522938D01*
Y6127003D01*
X11494109D01*
Y6124601D01*
X11489304D01*
Y6122198D01*
X11484499D01*
Y6119796D01*
X11482097D01*
Y6117394D01*
X11479694D01*
Y6114991D01*
Y6112589D01*
X11434048D01*
Y6114991D01*
X11436450D01*
Y6117394D01*
Y6119796D01*
X11438853D01*
Y6122198D01*
Y6124601D01*
X11441255D01*
Y6127003D01*
X11443658D01*
Y6129406D01*
Y6131808D01*
X11446060D01*
Y6134210D01*
X11448462D01*
Y6136613D01*
X11453267D01*
Y6139016D01*
X11455670D01*
Y6141418D01*
X11458072D01*
Y6143821D01*
X11462877D01*
Y6146223D01*
X11467682D01*
Y6148625D01*
X11474889D01*
Y6151028D01*
X11482097D01*
Y6153430D01*
X11494109D01*
Y6155832D01*
X11522938D01*
Y6153430D01*
D02*
G37*
G36*
X11066474D02*
X11080888D01*
Y6151028D01*
X11088096D01*
Y6148625D01*
X11092901D01*
Y6146223D01*
X11097706D01*
Y6143821D01*
X11102510D01*
Y6141418D01*
X11104913D01*
Y6139016D01*
X11109718D01*
Y6136613D01*
X11112120D01*
Y6134210D01*
X11114523D01*
Y6131808D01*
Y6129406D01*
X11116925D01*
Y6127003D01*
X11119328D01*
Y6124601D01*
Y6122198D01*
X11121730D01*
Y6119796D01*
Y6117394D01*
X11124132D01*
Y6114991D01*
Y6112589D01*
X11085693D01*
Y6114991D01*
Y6117394D01*
X11083291D01*
Y6119796D01*
Y6122198D01*
X11080888D01*
Y6124601D01*
X11078486D01*
Y6127003D01*
X11073681D01*
Y6129406D01*
X11066474D01*
Y6131808D01*
X11037644D01*
Y6129406D01*
X11032840D01*
Y6127003D01*
X11028035D01*
Y6124601D01*
X11025632D01*
Y6122198D01*
X11023230D01*
Y6119796D01*
X11020827D01*
Y6117394D01*
Y6114991D01*
X11018425D01*
Y6112589D01*
X10982388D01*
Y6114991D01*
Y6117394D01*
X10984791D01*
Y6119796D01*
Y6122198D01*
X10987193D01*
Y6124601D01*
Y6127003D01*
X10989595D01*
Y6129406D01*
X10991998D01*
Y6131808D01*
X10994400D01*
Y6134210D01*
X10996803D01*
Y6136613D01*
X10999205D01*
Y6139016D01*
X11001608D01*
Y6141418D01*
X11004010D01*
Y6143821D01*
X11008815D01*
Y6146223D01*
X11013620D01*
Y6148625D01*
X11018425D01*
Y6151028D01*
X11028035D01*
Y6153430D01*
X11040047D01*
Y6155832D01*
X11066474D01*
Y6153430D01*
D02*
G37*
G36*
X10489887D02*
X10504301D01*
Y6151028D01*
X10511509D01*
Y6148625D01*
X10516314D01*
Y6146223D01*
X10521119D01*
Y6143821D01*
X10525924D01*
Y6141418D01*
X10528326D01*
Y6139016D01*
X10530728D01*
Y6136613D01*
X10535533D01*
Y6134210D01*
Y6131808D01*
X10537936D01*
Y6129406D01*
X10540338D01*
Y6127003D01*
X10542740D01*
Y6124601D01*
Y6122198D01*
X10545143D01*
Y6119796D01*
Y6117394D01*
X10547546D01*
Y6114991D01*
Y6112589D01*
X10509106D01*
Y6114991D01*
Y6117394D01*
X10506704D01*
Y6119796D01*
Y6122198D01*
X10504301D01*
Y6124601D01*
X10499496D01*
Y6127003D01*
X10497094D01*
Y6129406D01*
X10489887D01*
Y6131808D01*
X10461057D01*
Y6129406D01*
X10456253D01*
Y6127003D01*
X10451448D01*
Y6124601D01*
X10449045D01*
Y6122198D01*
X10446643D01*
Y6119796D01*
X10444240D01*
Y6117394D01*
Y6114991D01*
X10441838D01*
Y6112589D01*
X10405801D01*
Y6114991D01*
Y6117394D01*
X10408204D01*
Y6119796D01*
Y6122198D01*
X10410606D01*
Y6124601D01*
Y6127003D01*
X10413009D01*
Y6129406D01*
X10415411D01*
Y6131808D01*
X10417814D01*
Y6134210D01*
X10420216D01*
Y6136613D01*
X10422618D01*
Y6139016D01*
X10425021D01*
Y6141418D01*
X10427423D01*
Y6143821D01*
X10432228D01*
Y6146223D01*
X10437033D01*
Y6148625D01*
X10441838D01*
Y6151028D01*
X10451448D01*
Y6153430D01*
X10463460D01*
Y6155832D01*
X10489887D01*
Y6153430D01*
D02*
G37*
G36*
X11062622Y6052610D02*
X11024701D01*
X11022186Y6031508D01*
X11022305Y6031746D01*
X11022587Y6032169D01*
X11023009Y6032874D01*
X11023432Y6033579D01*
X11024137Y6034284D01*
X11024842Y6035129D01*
X11025829Y6036116D01*
X11026816Y6036962D01*
X11028084Y6037808D01*
X11029635Y6038513D01*
X11031186Y6039359D01*
X11033018Y6039922D01*
X11035133Y6040345D01*
X11037247Y6040627D01*
X11039785Y6040768D01*
X11041054D01*
X11041899Y6040627D01*
X11042886Y6040486D01*
X11044155Y6040345D01*
X11046974Y6039781D01*
X11050076Y6038795D01*
X11051767Y6038231D01*
X11053459Y6037385D01*
X11055010Y6036398D01*
X11056560Y6035411D01*
X11058111Y6034143D01*
X11059521Y6032733D01*
X11059662Y6032592D01*
X11059803Y6032310D01*
X11060226Y6031887D01*
X11060648Y6031323D01*
X11061212Y6030477D01*
X11061776Y6029491D01*
X11062481Y6028363D01*
X11063186Y6027094D01*
X11063750Y6025543D01*
X11064455Y6023993D01*
X11065019Y6022160D01*
X11065582Y6020187D01*
X11066005Y6018213D01*
X11066428Y6015957D01*
X11066569Y6013702D01*
X11066710Y6011165D01*
Y6011024D01*
Y6010742D01*
Y6010319D01*
Y6009614D01*
X11066569Y6008768D01*
Y6007922D01*
X11066287Y6005667D01*
X11065723Y6003129D01*
X11065019Y6000310D01*
X11064032Y5997490D01*
X11062763Y5994812D01*
Y5994671D01*
X11062622Y5994530D01*
X11062058Y5993684D01*
X11061212Y5992415D01*
X11059944Y5990865D01*
X11058393Y5989173D01*
X11056560Y5987341D01*
X11054446Y5985649D01*
X11051908Y5984098D01*
X11051767D01*
X11051626Y5983957D01*
X11051203Y5983816D01*
X11050640Y5983534D01*
X11049230Y5982971D01*
X11047256Y5982266D01*
X11044719Y5981561D01*
X11041899Y5980997D01*
X11038798Y5980574D01*
X11035274Y5980433D01*
X11034146D01*
X11033300Y5980574D01*
X11032173D01*
X11031045Y5980715D01*
X11029635Y5980997D01*
X11028225Y5981279D01*
X11024983Y5981984D01*
X11021600Y5983111D01*
X11018076Y5984662D01*
X11016384Y5985508D01*
X11014833Y5986636D01*
X11014692Y5986777D01*
X11014551Y5986918D01*
X11014128Y5987341D01*
X11013564Y5987763D01*
X11012860Y5988468D01*
X11012155Y5989314D01*
X11011309Y5990160D01*
X11010604Y5991288D01*
X11008771Y5993966D01*
X11007221Y5997068D01*
X11005811Y6000733D01*
X11005388Y6002847D01*
X11004965Y6004962D01*
X11021882Y6007217D01*
Y6006935D01*
X11022164Y6006231D01*
X11022446Y6004962D01*
X11023009Y6003552D01*
X11023573Y6002001D01*
X11024419Y6000451D01*
X11025406Y5998900D01*
X11026534Y5997631D01*
X11026675Y5997490D01*
X11027239Y5997208D01*
X11027943Y5996645D01*
X11028930Y5996081D01*
X11030340Y5995517D01*
X11031891Y5994953D01*
X11033582Y5994671D01*
X11035556Y5994530D01*
X11036684D01*
X11037811Y5994812D01*
X11039362Y5995094D01*
X11041054Y5995517D01*
X11042745Y5996222D01*
X11044296Y5997208D01*
X11045847Y5998618D01*
X11045988Y5998759D01*
X11046410Y5999464D01*
X11047115Y6000310D01*
X11047820Y6001720D01*
X11048384Y6003411D01*
X11049089Y6005385D01*
X11049512Y6007781D01*
X11049653Y6010460D01*
Y6010601D01*
Y6010742D01*
Y6011165D01*
Y6011728D01*
X11049512Y6013138D01*
X11049230Y6014971D01*
X11048807Y6016944D01*
X11048102Y6018918D01*
X11047256Y6020891D01*
X11045988Y6022724D01*
X11045847Y6022865D01*
X11045283Y6023429D01*
X11044578Y6024134D01*
X11043450Y6024980D01*
X11042040Y6025825D01*
X11040349Y6026530D01*
X11038234Y6027094D01*
X11035979Y6027235D01*
X11035133D01*
X11034146Y6027094D01*
X11032877Y6026953D01*
X11031468Y6026530D01*
X11030058Y6026107D01*
X11028648Y6025402D01*
X11027239Y6024416D01*
X11027098Y6024275D01*
X11026675Y6023852D01*
X11026111Y6023147D01*
X11025406Y6022160D01*
X11024560Y6020891D01*
X11023714Y6019341D01*
X11022868Y6017508D01*
X11022164Y6015253D01*
X11006516Y6016662D01*
X11011591Y6066989D01*
X11062622D01*
Y6052610D01*
D02*
G37*
G36*
X10971273Y6068539D02*
X10972119D01*
X10974375Y6068257D01*
X10976771Y6067834D01*
X10979591Y6067271D01*
X10982269Y6066566D01*
X10984948Y6065438D01*
X10985089D01*
X10985229Y6065297D01*
X10986075Y6064874D01*
X10987344Y6064028D01*
X10988895Y6063041D01*
X10990727Y6061773D01*
X10992560Y6060081D01*
X10994252Y6058248D01*
X10995802Y6055993D01*
X10995943Y6055711D01*
X10996366Y6054865D01*
X10997071Y6053596D01*
X10997776Y6051905D01*
X10998340Y6049931D01*
X10999045Y6047535D01*
X10999467Y6044856D01*
X10999608Y6041896D01*
Y6041755D01*
Y6041332D01*
Y6040627D01*
X10999467Y6039781D01*
X10999326Y6038795D01*
X10999186Y6037526D01*
X10998622Y6034706D01*
X10997635Y6031464D01*
X10996930Y6029914D01*
X10996084Y6028222D01*
X10995097Y6026530D01*
X10994111Y6024980D01*
X10992701Y6023429D01*
X10991291Y6022019D01*
X10991150Y6021878D01*
X10990868Y6021737D01*
X10990445Y6021314D01*
X10989741Y6020891D01*
X10988895Y6020328D01*
X10987908Y6019764D01*
X10986780Y6019059D01*
X10985370Y6018354D01*
X10983820Y6017649D01*
X10982128Y6016944D01*
X10980296Y6016380D01*
X10978322Y6015817D01*
X10976066Y6015394D01*
X10973811Y6014971D01*
X10971273Y6014830D01*
X10968736Y6014689D01*
X10952102D01*
Y5982125D01*
X10934339D01*
Y6068680D01*
X10970428D01*
X10971273Y6068539D01*
D02*
G37*
G36*
X11569569Y6170247D02*
X11564160D01*
Y6190444D01*
X11557642Y6170247D01*
X11552557D01*
X11545993Y6190442D01*
Y6170247D01*
X11540769D01*
Y6198631D01*
X11548489D01*
X11554868Y6178938D01*
Y6178892D01*
X11554915Y6178846D01*
X11555007Y6178568D01*
X11555146Y6178106D01*
X11555200Y6177906D01*
X11555331Y6178383D01*
X11555516Y6178938D01*
X11561803Y6198631D01*
X11569569D01*
Y6170247D01*
D02*
G37*
G36*
X11537579Y6193777D02*
X11529212D01*
Y6170247D01*
X11523341D01*
Y6193777D01*
X11514974D01*
Y6198631D01*
X11537579D01*
Y6193777D01*
D02*
G37*
%LPC*%
G36*
X10966058Y6054583D02*
X10952102D01*
Y6028786D01*
X10967185D01*
X10968454Y6028927D01*
X10970005Y6029209D01*
X10971696Y6029632D01*
X10973529Y6030195D01*
X10975362Y6031041D01*
X10976912Y6032169D01*
X10977053Y6032310D01*
X10977617Y6032874D01*
X10978181Y6033579D01*
X10979027Y6034706D01*
X10979732Y6036116D01*
X10980437Y6037667D01*
X10980859Y6039640D01*
X10981000Y6041755D01*
Y6042037D01*
Y6042742D01*
X10980859Y6043870D01*
X10980437Y6045138D01*
X10980014Y6046689D01*
X10979309Y6048240D01*
X10978322Y6049649D01*
X10976912Y6051059D01*
X10976771Y6051200D01*
X10976207Y6051623D01*
X10975362Y6052187D01*
X10974093Y6052892D01*
X10972542Y6053456D01*
X10970710Y6054019D01*
X10968454Y6054442D01*
X10966058Y6054583D01*
D02*
G37*
%LPD*%
D116*
X6656680Y7795220D02*
G03*
X6656680Y7795220I-10000J0D01*
G01*
X14813620Y7354984D02*
G03*
X14813620Y7354984I-10000J0D01*
G01*
X15053619Y7431984D02*
G03*
X15053619Y7431984I-10000J0D01*
G01*
X12023620Y7812120D02*
G03*
X12023620Y7812120I-10000J0D01*
G01*
X12645120Y7354120D02*
G03*
X12645120Y7354120I-10000J0D01*
G01*
X4071100Y6430060D02*
G03*
X4071100Y6430060I-10000J0D01*
G01*
X3807120Y7354621D02*
G03*
X3807120Y7354621I-10000J0D01*
G01*
X4576120Y8027620D02*
G03*
X4576120Y8027620I-10000J0D01*
G01*
X9105620Y6187621D02*
G03*
X9105620Y6187621I-10000J0D01*
G01*
X6964837Y7440595D02*
G03*
X6960620Y7411860I95783J-28735D01*
G01*
Y7051860D02*
G03*
X7060620Y6951860I100000J0D01*
G01*
X7222224Y7612974D02*
G03*
X7058992Y7612991I-81622J-56692D01*
G01*
X7320620Y7411860D02*
G03*
X7316403Y7440595I-100000J0D01*
G01*
X7220620Y6951860D02*
G03*
X7320620Y7051860I0J100000D01*
G01*
X6129080Y6778800D02*
G03*
X6189080Y6838800I0J60000D01*
G01*
X6479600Y7145756D02*
Y7515756D01*
X5819600Y7145756D02*
Y7515756D01*
X6479600D01*
X5819600Y7145756D02*
X6479600D01*
X10617371Y6395913D02*
Y6425912D01*
Y6395913D02*
X10727371D01*
Y6425912D01*
X10617371D02*
X10727371D01*
X10617371D02*
Y6965912D01*
X10697371D01*
X10915420Y6395400D02*
Y6425400D01*
X10805420Y6395400D02*
X10915420D01*
X10805420D02*
Y6425400D01*
X10915420D01*
Y6965400D01*
X10835420D02*
X10915420D01*
X10285460Y6398231D02*
Y6428230D01*
Y6398231D02*
X10395460D01*
Y6428230D01*
X10285460D02*
X10395460D01*
X10285460D02*
Y6968230D01*
X10365460D01*
X10583509Y6397718D02*
Y6427718D01*
X10473509Y6397718D02*
X10583509D01*
X10473509D02*
Y6427718D01*
X10583509D01*
Y6967718D01*
X10503510D02*
X10583509D01*
X9957271Y6398234D02*
Y6428234D01*
Y6398234D02*
X10067271D01*
Y6428234D01*
X9957271D02*
X10067271D01*
X9957271D02*
Y6968234D01*
X10037271D01*
X10255320Y6397722D02*
Y6427722D01*
X10145320Y6397722D02*
X10255320D01*
X10145320D02*
Y6427722D01*
X10255320D01*
Y6967722D01*
X10175320D02*
X10255320D01*
X9518121Y6655536D02*
X9903121D01*
Y7050536D01*
X9518121D02*
X9903121D01*
X9518121Y6655536D02*
Y7050536D01*
X8502901Y7109620D02*
X8887901D01*
X8502901Y6714620D02*
Y7109620D01*
Y6714620D02*
X8887901D01*
Y7109620D01*
X8473670Y7273526D02*
Y7303526D01*
X8363670D02*
X8473670D01*
X8363670Y7273526D02*
Y7303526D01*
Y7273526D02*
X8473670D01*
Y6733526D02*
Y7273526D01*
X8393670Y6733526D02*
X8473670D01*
X8175620Y7274038D02*
Y7304038D01*
X8285620D01*
Y7274038D02*
Y7304038D01*
X8175620Y7274038D02*
X8285620D01*
X8175620Y6734038D02*
Y7274038D01*
Y6734038D02*
X8255620D01*
X8151170Y7273526D02*
Y7303526D01*
X8041170D02*
X8151170D01*
X8041170Y7273526D02*
Y7303526D01*
Y7273526D02*
X8151170D01*
Y6733526D02*
Y7273526D01*
X8071170Y6733526D02*
X8151170D01*
X7853120Y7274038D02*
Y7304038D01*
X7963120D01*
Y7274038D02*
Y7304038D01*
X7853120Y7274038D02*
X7963120D01*
X7853120Y6734038D02*
Y7274038D01*
Y6734038D02*
X7933120D01*
X7828670Y7273526D02*
Y7303526D01*
X7718670D02*
X7828670D01*
X7718670Y7273526D02*
Y7303526D01*
Y7273526D02*
X7828670D01*
Y6733526D02*
Y7273526D01*
X7748670Y6733526D02*
X7828670D01*
X7530620Y7274038D02*
Y7304038D01*
X7640620D01*
Y7274038D02*
Y7304038D01*
X7530620Y7274038D02*
X7640620D01*
X7530620Y6734038D02*
Y7274038D01*
Y6734038D02*
X7610620D01*
X3845831Y7818080D02*
X4065831D01*
X4035831Y7588080D02*
X4065831D01*
Y8048080D01*
X4035831D02*
X4065831D01*
X3845831D02*
X3875831D01*
X3845831Y7588080D02*
Y8048080D01*
Y7588080D02*
X3875831D01*
X3613781Y7819477D02*
X3833782D01*
X3803782Y7589477D02*
X3833782D01*
Y8049477D01*
X3803782D02*
X3833782D01*
X3613781D02*
X3643781D01*
X3613781Y7589477D02*
Y8049477D01*
Y7589477D02*
X3643781D01*
X3857120Y5937120D02*
Y6157121D01*
X3627119Y5937120D02*
Y5967120D01*
Y5937120D02*
X4087120D01*
Y5967120D01*
Y6127121D02*
Y6157121D01*
X3627119D02*
X4087120D01*
X3627119Y6127121D02*
Y6157121D01*
X6960620Y7355860D02*
Y7411860D01*
Y7051860D02*
X6960620Y7121861D01*
X7320620D02*
X7320620Y7051860D01*
Y7355860D02*
Y7411860D01*
X7038217Y7575946D02*
X7059016Y7612974D01*
X7027817Y7557431D02*
X7038217Y7575946D01*
X7243023D02*
X7253423Y7557431D01*
X7222224Y7612974D02*
X7243023Y7575946D01*
X7060620Y6951860D02*
X7220620D01*
X13308121Y6537121D02*
Y6569621D01*
X13340620D01*
X13720621D02*
X13753120D01*
Y6537121D02*
Y6569621D01*
Y6124621D02*
Y6157121D01*
X13720621Y6124621D02*
X13753120D01*
X13308121D02*
Y6157121D01*
Y6124621D02*
X13340620D01*
X15511580Y6832118D02*
Y7592118D01*
X15971581Y6832118D02*
Y7592118D01*
X15511580Y6832118D02*
X15579080D01*
X15511580Y7592118D02*
X15579080D01*
X15904080Y6832118D02*
X15971581D01*
X15904080Y7592118D02*
X15971581D01*
X15904080Y6832118D02*
Y6887118D01*
X15971581D01*
X15511580D02*
X15579080D01*
Y6832118D02*
Y6887118D01*
X15756860Y6652121D02*
Y6682121D01*
X16216859D01*
Y6652121D02*
Y6682121D01*
Y6462121D02*
Y6492121D01*
X15756860Y6462121D02*
X16216859D01*
X15756860D02*
Y6492121D01*
X15986861Y6462121D02*
Y6682121D01*
X16022121Y6832110D02*
Y7592110D01*
X16482120Y6832110D02*
Y7592110D01*
X16022121Y6832110D02*
X16089619D01*
X16022121Y7592110D02*
X16089619D01*
X16414619Y6832110D02*
X16482120D01*
X16414619Y7592110D02*
X16482120D01*
X16414619Y6832110D02*
Y6887110D01*
X16482120D01*
X16022121D02*
X16089619D01*
Y6832110D02*
Y6887110D01*
X10070760Y6983022D02*
X10830760D01*
X10070760Y7443022D02*
X10830760D01*
Y6983022D02*
Y7050522D01*
X10070760Y6983022D02*
Y7050522D01*
X10830760Y7375522D02*
Y7443022D01*
X10070760Y7375522D02*
Y7443022D01*
X10775760Y7375522D02*
X10830760D01*
X10775760D02*
Y7443022D01*
Y6983022D02*
Y7050522D01*
X10830760D01*
X11383120Y7108903D02*
Y7138903D01*
X11843120D01*
Y7108903D02*
Y7138903D01*
Y6918903D02*
Y6948903D01*
X11383120Y6918903D02*
X11843120D01*
X11383120D02*
Y6948903D01*
X11613120Y6918903D02*
Y7138903D01*
X5915900Y6143120D02*
X5975900D01*
X6018400Y6283120D02*
X6090900D01*
Y6193120D02*
Y6283120D01*
X5800900D02*
X5873400D01*
X5800900Y6193120D02*
Y6283120D01*
X6129080Y6778800D02*
Y6838800D01*
X6189080D01*
X6599080D02*
X6659080D01*
Y6778800D02*
Y6838800D01*
Y6308800D02*
Y6368800D01*
X6599080Y6308800D02*
X6659080D01*
X6129080D02*
Y6368800D01*
Y6308800D02*
X6189080D01*
D117*
X6607740Y7119580D02*
X6620440D01*
Y7348180D01*
X6607740D02*
X6620440D01*
X6518840D02*
X6531540D01*
X6518840Y7119580D02*
Y7348180D01*
Y7119580D02*
X6531540D01*
X6518840Y7233880D02*
X6620440D01*
X6821100Y6434500D02*
X6833800D01*
Y6663100D01*
X6821100D02*
X6833800D01*
X6732200D02*
X6744900D01*
X6732200Y6434500D02*
Y6663100D01*
Y6434500D02*
X6744900D01*
X6732200Y6548800D02*
X6833800D01*
X6813480Y7898357D02*
Y8038357D01*
X6940480Y7898357D02*
Y7917557D01*
X6686480Y7898357D02*
X6940480D01*
X6686480D02*
Y7917557D01*
Y8019157D02*
Y8038357D01*
X6940480D01*
Y8019157D02*
Y8038357D01*
X6718480Y7482120D02*
X6738480D01*
Y7682120D01*
X6718480D02*
X6738480D01*
X6638480D02*
X6658480D01*
X6638480Y7482120D02*
Y7682120D01*
Y7482120D02*
X6658480D01*
X6599640Y7481860D02*
X6619640D01*
Y7681860D01*
X6599640D02*
X6619640D01*
X6519640D02*
X6539640D01*
X6519640Y7481860D02*
Y7681860D01*
Y7481860D02*
X6539640D01*
X3704968Y6759293D02*
X3724968D01*
X3704968Y6559293D02*
Y6759293D01*
Y6559293D02*
X3724968D01*
X3784968D02*
X3804968D01*
Y6759293D01*
X3784968D02*
X3804968D01*
X7686440Y6008184D02*
Y6148184D01*
X7559440Y6128984D02*
Y6148184D01*
X7813440D01*
Y6128984D02*
Y6148184D01*
Y6008184D02*
Y6027384D01*
X7559440Y6008184D02*
X7813440D01*
X7559440D02*
Y6027384D01*
X7826140Y6052780D02*
X7838840D01*
X7826140Y5988180D02*
Y6052780D01*
Y5988180D02*
X7838840D01*
X7826140Y6168180D02*
X7838840D01*
X7826140Y6103580D02*
Y6168180D01*
Y6103580D02*
X7838840D01*
X8232540Y5988180D02*
Y6008180D01*
X7838840Y5988180D02*
X8232540D01*
X7838840D02*
Y6052780D01*
X8232540Y6148180D02*
Y6168180D01*
X7838840D02*
X8232540D01*
X7838840Y6103580D02*
Y6168180D01*
X8029340Y5988180D02*
Y6168180D01*
X8003940Y6078180D02*
X8029340D01*
X8054740Y6052780D02*
Y6103580D01*
X8029340Y6078180D02*
X8054740Y6052780D01*
X8029340Y6078180D02*
X8054740Y6103580D01*
X3899800Y7407920D02*
Y7437921D01*
Y7407920D02*
X4179800D01*
Y7437921D01*
Y7517920D02*
Y7547921D01*
X3899800D02*
X4179800D01*
X3899800Y7517920D02*
Y7547921D01*
X4039800Y7407920D02*
Y7547921D01*
X9605320Y7527100D02*
Y7667100D01*
X9478320Y7647900D02*
Y7667100D01*
X9732320D01*
Y7647900D02*
Y7667100D01*
Y7527100D02*
Y7546300D01*
X9478320Y7527100D02*
X9732320D01*
X9478320D02*
Y7546300D01*
X9756643Y7800700D02*
X9769343D01*
Y7865300D01*
X9756643D02*
X9769343D01*
X9756643Y7685300D02*
X9769343D01*
Y7749900D01*
X9756643D02*
X9769343D01*
X9362943Y7845301D02*
Y7865300D01*
X9756643D01*
Y7800700D02*
Y7865300D01*
X9362943Y7685300D02*
Y7705300D01*
Y7685300D02*
X9756643D01*
Y7749900D01*
X9566143Y7685300D02*
Y7865300D01*
Y7775300D02*
X9591543D01*
X9540743Y7749900D02*
Y7800700D01*
X9566143Y7775300D01*
X9540743Y7749900D02*
X9566143Y7775300D01*
X3023520Y7508825D02*
X3036220D01*
Y7573425D01*
X3023520D02*
X3036220D01*
X3023520Y7393425D02*
X3036220D01*
Y7458025D01*
X3023520D02*
X3036220D01*
X2629820Y7553425D02*
Y7573425D01*
X3023520D01*
Y7508825D02*
Y7573425D01*
X2629820Y7393425D02*
Y7413425D01*
Y7393425D02*
X3023520D01*
Y7458025D01*
X2833020Y7393425D02*
Y7573425D01*
Y7483425D02*
X2858420D01*
X2807620Y7458025D02*
Y7508825D01*
X2833020Y7483425D01*
X2807620Y7458025D02*
X2833020Y7483425D01*
X3193980Y7433449D02*
Y7573449D01*
X3320980Y7433449D02*
Y7452649D01*
X3066980Y7433449D02*
X3320980D01*
X3066980D02*
Y7452649D01*
Y7554249D02*
Y7573449D01*
X3320980D01*
Y7554249D02*
Y7573449D01*
X12365920Y6194269D02*
Y6295869D01*
X12480220Y6194269D02*
Y6206969D01*
X12251620Y6194269D02*
X12480220D01*
X12251620D02*
Y6206969D01*
Y6283169D02*
Y6295869D01*
X12480220D01*
Y6283169D02*
Y6295869D01*
X11961120Y6732742D02*
Y6752742D01*
Y6732742D02*
X12161120D01*
Y6752742D01*
Y6812742D02*
Y6832742D01*
X11961120D02*
X12161120D01*
X11961120Y6812742D02*
Y6832742D01*
X8474640Y6217880D02*
Y6319480D01*
X8360340Y6306780D02*
Y6319480D01*
X8588940D01*
Y6306780D02*
Y6319480D01*
Y6217880D02*
Y6230580D01*
X8360340Y6217880D02*
X8588940D01*
X8360340D02*
Y6230580D01*
X8726100Y6172160D02*
Y6273760D01*
X8611800Y6261060D02*
Y6273760D01*
X8840400D01*
Y6261060D02*
Y6273760D01*
Y6172160D02*
Y6184860D01*
X8611800Y6172160D02*
X8840400D01*
X8611800D02*
Y6184860D01*
X4850060Y7470100D02*
X4862760D01*
X4850060Y7241500D02*
Y7470100D01*
Y7241500D02*
X4862760D01*
X4938960D02*
X4951660D01*
Y7470100D01*
X4938960D02*
X4951660D01*
X4850060Y7355800D02*
X4951660D01*
X4545268Y6865580D02*
Y6967180D01*
X4659568Y6865580D02*
Y6878280D01*
X4430968Y6865580D02*
X4659568D01*
X4430968D02*
Y6878280D01*
Y6954480D02*
Y6967180D01*
X4659568D01*
Y6954480D02*
Y6967180D01*
X4545260Y6969720D02*
Y7071320D01*
X4659560Y6969720D02*
Y6982420D01*
X4430960Y6969720D02*
X4659560D01*
X4430960D02*
Y6982420D01*
Y7058620D02*
Y7071320D01*
X4659560D01*
Y7058620D02*
Y7071320D01*
X9273720Y7227820D02*
X9286420D01*
Y7456420D01*
X9273720D02*
X9286420D01*
X9184820D02*
X9197520D01*
X9184820Y7227820D02*
Y7456420D01*
Y7227820D02*
X9197520D01*
X9184820Y7342120D02*
X9286420D01*
X4669720Y7086420D02*
X4682420D01*
X4669720Y6857820D02*
Y7086420D01*
Y6857820D02*
X4682420D01*
X4758620D02*
X4771320D01*
Y7086420D01*
X4758620D02*
X4771320D01*
X4669720Y6972120D02*
X4771320D01*
X3783260Y6290881D02*
X3795960D01*
Y6519481D01*
X3783260D02*
X3795960D01*
X3694360D02*
X3707060D01*
X3694360Y6290881D02*
Y6519481D01*
Y6290881D02*
X3707060D01*
X3694360Y6405181D02*
X3795960D01*
X3079680Y5971688D02*
X3092380D01*
Y6200288D01*
X3079680D02*
X3092380D01*
X2990780D02*
X3003480D01*
X2990780Y5971688D02*
Y6200288D01*
Y5971688D02*
X3003480D01*
X2990780Y6085988D02*
X3092380D01*
X3782840Y7031320D02*
Y7132920D01*
X3897140Y7031320D02*
Y7044020D01*
X3668540Y7031320D02*
X3897140D01*
X3668540D02*
Y7044020D01*
Y7120220D02*
Y7132920D01*
X3897140D01*
Y7120220D02*
Y7132920D01*
X3782840Y6916281D02*
Y7017881D01*
X3897140Y6916281D02*
Y6928981D01*
X3668540Y6916281D02*
X3897140D01*
X3668540D02*
Y6928981D01*
Y7005181D02*
Y7017881D01*
X3897140D01*
Y7005181D02*
Y7017881D01*
X4149820Y6309320D02*
X4251420D01*
X4149820Y6195020D02*
X4162520D01*
X4149820D02*
Y6423620D01*
X4162520D01*
X4238720D02*
X4251420D01*
Y6195020D02*
Y6423620D01*
X4238720Y6195020D02*
X4251420D01*
X4029640Y6309320D02*
X4131240D01*
X4029640Y6195020D02*
X4042340D01*
X4029640D02*
Y6423620D01*
X4042340D01*
X4118540D02*
X4131240D01*
Y6195020D02*
Y6423620D01*
X4118540Y6195020D02*
X4131240D01*
X3467120Y6204120D02*
X3486320D01*
X3467120Y5950120D02*
Y6204120D01*
Y5950120D02*
X3486320D01*
X3587920D02*
X3607120D01*
Y6204120D01*
X3587920D02*
X3607120D01*
X3467120Y6077120D02*
X3607120D01*
X3918680Y6200880D02*
X3938680D01*
X3918680D02*
Y6400881D01*
X3938680D01*
X3998680D02*
X4018680D01*
Y6200880D02*
Y6400881D01*
X3998680Y6200880D02*
X4018680D01*
X3892000Y6513460D02*
X3912000D01*
Y6313460D02*
Y6513460D01*
X3892000Y6313460D02*
X3912000D01*
X3812000D02*
X3832000D01*
X3812000D02*
Y6513460D01*
X3832000D01*
X4498120Y7788820D02*
Y7890420D01*
X4612420Y7788820D02*
Y7801520D01*
X4383820Y7788820D02*
X4612420D01*
X4383820D02*
Y7801520D01*
Y7877720D02*
Y7890420D01*
X4612420D01*
Y7877720D02*
Y7890420D01*
X4498120Y7916820D02*
Y8018420D01*
X4612420Y7916820D02*
Y7929520D01*
X4383820Y7916820D02*
X4612420D01*
X4383820D02*
Y7929520D01*
Y8005720D02*
Y8018420D01*
X4612420D01*
Y8005720D02*
Y8018420D01*
X4498120Y7663820D02*
Y7765420D01*
X4612420Y7663820D02*
Y7676520D01*
X4383820Y7663820D02*
X4612420D01*
X4383820D02*
Y7676520D01*
Y7752720D02*
Y7765420D01*
X4612420D01*
Y7752720D02*
Y7765420D01*
X4738300Y7355800D02*
X4839900D01*
X4738300Y7241500D02*
X4751000D01*
X4738300D02*
Y7470100D01*
X4751000D01*
X4827200D02*
X4839900D01*
Y7241500D02*
Y7470100D01*
X4827200Y7241500D02*
X4839900D01*
X5520620Y7663320D02*
Y7764920D01*
X5406320Y7752220D02*
Y7764920D01*
X5634920D01*
Y7752220D02*
Y7764920D01*
Y7663320D02*
Y7676020D01*
X5406320Y7663320D02*
X5634920D01*
X5406320D02*
Y7676020D01*
X5520620Y7788820D02*
Y7890420D01*
X5406320Y7877720D02*
Y7890420D01*
X5634920D01*
Y7877720D02*
Y7890420D01*
Y7788820D02*
Y7801520D01*
X5406320Y7788820D02*
X5634920D01*
X5406320D02*
Y7801520D01*
X5603120Y7917121D02*
Y7937121D01*
X5403120Y7917121D02*
X5603120D01*
X5403120D02*
Y7937121D01*
Y7997120D02*
Y8017120D01*
X5603120D01*
Y7997120D02*
Y8017120D01*
X4160964Y7620120D02*
Y7660120D01*
X4500964D01*
Y7620120D02*
Y7660120D01*
Y7480120D02*
Y7520120D01*
X4160964Y7480120D02*
X4500964D01*
X4160964D02*
Y7520120D01*
X4330964Y7480120D02*
Y7660120D01*
X4160963Y7425120D02*
Y7465120D01*
X4500963D01*
Y7425120D02*
Y7465120D01*
Y7285120D02*
Y7325120D01*
X4160963Y7285120D02*
X4500963D01*
X4160963D02*
Y7325120D01*
X4330963Y7285120D02*
Y7465120D01*
X4230620Y7250120D02*
Y7270120D01*
X4430620D01*
Y7250120D02*
Y7270120D01*
Y7170120D02*
Y7190120D01*
X4230620Y7170120D02*
X4430620D01*
X4230620D02*
Y7190120D01*
X4507860Y7199240D02*
X4609460D01*
X4507860Y7084940D02*
X4520560D01*
X4507860D02*
Y7313540D01*
X4520560D01*
X4596760D02*
X4609460D01*
Y7084940D02*
Y7313540D01*
X4596760Y7084940D02*
X4609460D01*
X4611340Y6497720D02*
Y6599320D01*
X4497040Y6586620D02*
Y6599320D01*
X4725640D01*
Y6586620D02*
Y6599320D01*
Y6497720D02*
Y6510420D01*
X4497040Y6497720D02*
X4725640D01*
X4497040D02*
Y6510420D01*
X4560500Y6714621D02*
Y6733821D01*
Y6714621D02*
X4814500D01*
Y6733821D01*
Y6835421D02*
Y6854621D01*
X4560500D02*
X4814500D01*
X4560500Y6835421D02*
Y6854621D01*
X4687500Y6714621D02*
Y6854621D01*
X4844980Y7066240D02*
X4870380Y7040840D01*
X4895780Y7066240D01*
X4844980D02*
X4895780D01*
X4870380Y7015440D02*
Y7040840D01*
X4780380D02*
X4960380D01*
X4780380Y6850340D02*
X4844980D01*
X4780380D02*
Y7244040D01*
X4800380D01*
X4895780Y6850340D02*
X4960380D01*
Y7244040D01*
X4940380D02*
X4960380D01*
X4844980Y6837640D02*
Y6850340D01*
X4780380Y6837640D02*
X4844980D01*
X4780380D02*
Y6850340D01*
X4960380Y6837640D02*
Y6850340D01*
X4895780Y6837640D02*
X4960380D01*
X4895780D02*
Y6850340D01*
X4609700Y6162121D02*
Y6182120D01*
X4409700Y6162121D02*
X4609700D01*
X4409700D02*
Y6182120D01*
Y6242120D02*
Y6262120D01*
X4609700D01*
Y6242120D02*
Y6262120D01*
X3593120Y6769620D02*
X3613120D01*
X3593120D02*
Y6969621D01*
X3613120D01*
X3673120D02*
X3693120D01*
Y6769620D02*
Y6969621D01*
X3673120Y6769620D02*
X3693120D01*
X3673120Y6787445D02*
X3693120D01*
Y6587445D02*
Y6787445D01*
X3673120Y6587445D02*
X3693120D01*
X3593120D02*
X3613120D01*
X3593120D02*
Y6787445D01*
X3613120D01*
X12117996Y6484348D02*
X12143396Y6509748D01*
X12117996Y6535148D02*
X12143396Y6509748D01*
X12117996Y6484348D02*
Y6535148D01*
X12143396Y6509748D02*
X12168796D01*
X12143396Y6419748D02*
Y6599748D01*
X12333896Y6419748D02*
Y6484348D01*
X11940196Y6419748D02*
X12333896D01*
X11940196D02*
Y6439748D01*
X12333896Y6535148D02*
Y6599748D01*
X11940196D02*
X12333896D01*
X11940196Y6579748D02*
Y6599748D01*
X12333896Y6484348D02*
X12346596D01*
Y6419748D02*
Y6484348D01*
X12333896Y6419748D02*
X12346596D01*
X12333896Y6599748D02*
X12346596D01*
Y6535148D02*
Y6599748D01*
X12333896Y6535148D02*
X12346596D01*
X12488920Y6310120D02*
X12508120D01*
Y6564120D01*
X12488920D02*
X12508120D01*
X12368120D02*
X12387320D01*
X12368120Y6310120D02*
Y6564120D01*
Y6310120D02*
X12387320D01*
X12368120Y6437120D02*
X12508120D01*
X9411787Y7301983D02*
X9437187Y7276583D01*
X9386387D02*
X9411787Y7301983D01*
X9386387Y7276583D02*
X9437187D01*
X9411787Y7301983D02*
Y7327383D01*
X9321787Y7301983D02*
X9501787D01*
X9437187Y7492483D02*
X9501787D01*
Y7098783D02*
Y7492483D01*
X9481787Y7098783D02*
X9501787D01*
X9321787Y7492483D02*
X9386387D01*
X9321787Y7098783D02*
Y7492483D01*
Y7098783D02*
X9341787D01*
X9437187Y7492483D02*
Y7505183D01*
X9501787D01*
Y7492483D02*
Y7505183D01*
X9321787Y7492483D02*
Y7505183D01*
X9386387D01*
Y7492483D02*
Y7505183D01*
X8933920Y7220120D02*
X8953120D01*
Y7474120D01*
X8933920D02*
X8953120D01*
X8813120D02*
X8832320D01*
X8813120Y7220120D02*
Y7474120D01*
Y7220120D02*
X8832320D01*
X8813120Y7347120D02*
X8953120D01*
X5952320Y7887121D02*
X6053920D01*
X5952320Y7772821D02*
X5965020D01*
X5952320D02*
Y8001421D01*
X5965020D01*
X6041220D02*
X6053920D01*
Y7772821D02*
Y8001421D01*
X6041220Y7772821D02*
X6053920D01*
X5839820Y7887121D02*
X5941420D01*
X5839820Y7772821D02*
X5852520D01*
X5839820D02*
Y8001421D01*
X5852520D01*
X5928720D02*
X5941420D01*
Y7772821D02*
Y8001421D01*
X5928720Y7772821D02*
X5941420D01*
X3232880Y7024660D02*
X3252880D01*
X3232880D02*
Y7224660D01*
X3252880D01*
X3312880D02*
X3332880D01*
Y7024660D02*
Y7224660D01*
X3312880Y7024660D02*
X3332880D01*
X3312880Y7417700D02*
X3332880D01*
Y7217700D02*
Y7417700D01*
X3312880Y7217700D02*
X3332880D01*
X3232880D02*
X3252880D01*
X3232880D02*
Y7417700D01*
X3252880D01*
X3300180Y6705060D02*
X3320180D01*
Y6505060D02*
Y6705060D01*
X3300180Y6505060D02*
X3320180D01*
X3220180D02*
X3240180D01*
X3220180D02*
Y6705060D01*
X3240180D01*
X3220588Y6316000D02*
X3240588D01*
X3220588D02*
Y6516000D01*
X3240588D01*
X3300588D02*
X3320588D01*
Y6316000D02*
Y6516000D01*
X3300588Y6316000D02*
X3320588D01*
X5678100Y7312620D02*
X5690800D01*
X5678100Y7084020D02*
Y7312620D01*
Y7084020D02*
X5690800D01*
X5767000D02*
X5779700D01*
Y7312620D01*
X5767000D02*
X5779700D01*
X5678100Y7198320D02*
X5779700D01*
X4497000Y6273760D02*
Y6286460D01*
Y6273760D02*
X4725600D01*
Y6286460D01*
Y6362660D02*
Y6375360D01*
X4497000D02*
X4725600D01*
X4497000Y6362660D02*
Y6375360D01*
X4611300Y6273760D02*
Y6375360D01*
X6747440Y7073277D02*
Y7085977D01*
X6518840D02*
X6747440D01*
X6518840Y7073277D02*
Y7085977D01*
Y6984377D02*
Y6997077D01*
Y6984377D02*
X6747440D01*
Y6997077D01*
X6633140Y6984377D02*
Y7085977D01*
X9695620Y7112120D02*
Y7292121D01*
X9865620Y7252120D02*
Y7292121D01*
X9525620D02*
X9865620D01*
X9525620Y7252120D02*
Y7292121D01*
Y7112120D02*
Y7152121D01*
Y7112120D02*
X9865620D01*
Y7152121D01*
X9409360Y6418100D02*
Y6430800D01*
Y6418100D02*
X9637960D01*
Y6430800D01*
Y6507000D02*
Y6519700D01*
X9409360D02*
X9637960D01*
X9409360Y6507000D02*
Y6519700D01*
X9523660Y6418100D02*
Y6519700D01*
X9440170Y6536630D02*
Y6556630D01*
Y6536630D02*
X9640170D01*
Y6556630D01*
Y6616630D02*
Y6636630D01*
X9440170D02*
X9640170D01*
X9440170Y6616630D02*
Y6636630D01*
X9696870Y7309620D02*
Y7489621D01*
X9866870Y7449620D02*
Y7489621D01*
X9526870D02*
X9866870D01*
X9526870Y7449620D02*
Y7489621D01*
Y7309620D02*
Y7349621D01*
Y7309620D02*
X9866870D01*
Y7349621D01*
X8850780Y6213740D02*
X8863480D01*
X8850780Y5985140D02*
Y6213740D01*
Y5985140D02*
X8863480D01*
X8939680D02*
X8952380D01*
Y6213740D01*
X8939680D02*
X8952380D01*
X8850780Y6099440D02*
X8952380D01*
X8965080Y6213708D02*
X8977780D01*
X8965080Y5985108D02*
Y6213708D01*
Y5985108D02*
X8977780D01*
X9053980D02*
X9066680D01*
Y6213708D01*
X9053980D02*
X9066680D01*
X8965080Y6099408D02*
X9066680D01*
X9400440Y6063487D02*
Y6076187D01*
Y6063487D02*
X9629040D01*
Y6076187D01*
Y6152387D02*
Y6165087D01*
X9400440D02*
X9629040D01*
X9400440Y6152387D02*
Y6165087D01*
X9514740Y6063487D02*
Y6165087D01*
X8510822Y6342120D02*
Y6522120D01*
X8680822Y6482120D02*
Y6522120D01*
X8340822D02*
X8680822D01*
X8340822Y6482120D02*
Y6522120D01*
Y6342120D02*
Y6382120D01*
Y6342120D02*
X8680822D01*
Y6382120D01*
X8510822Y6529620D02*
Y6709620D01*
X8680822Y6669620D02*
Y6709620D01*
X8340822D02*
X8680822D01*
X8340822Y6669620D02*
Y6709620D01*
Y6529620D02*
Y6569620D01*
Y6529620D02*
X8680822D01*
Y6569620D01*
X9329920Y6152387D02*
Y6165087D01*
X9101320D02*
X9329920D01*
X9101320Y6152387D02*
Y6165087D01*
Y6063487D02*
Y6076187D01*
Y6063487D02*
X9329920D01*
Y6076187D01*
X9215620Y6063487D02*
Y6165087D01*
X9125621Y6860777D02*
X9145621D01*
X9125621Y6660777D02*
Y6860777D01*
Y6660777D02*
X9145621D01*
X9205621D02*
X9225621D01*
Y6860777D01*
X9205621D02*
X9225621D01*
X9626869Y6382060D02*
Y6402060D01*
X9426869D02*
X9626869D01*
X9426869Y6382060D02*
Y6402060D01*
Y6302060D02*
Y6322060D01*
Y6302060D02*
X9626869D01*
Y6322060D01*
X8723560Y6272000D02*
Y6284700D01*
Y6272000D02*
X8952160D01*
Y6284700D01*
Y6360900D02*
Y6373600D01*
X8723560D02*
X8952160D01*
X8723560Y6360900D02*
Y6373600D01*
X8837860Y6272000D02*
Y6373600D01*
X9628470Y6271913D02*
Y6284613D01*
X9399870D02*
X9628470D01*
X9399870Y6271913D02*
Y6284613D01*
Y6183013D02*
Y6195713D01*
Y6183013D02*
X9628470D01*
Y6195713D01*
X9514170Y6183013D02*
Y6284613D01*
X8952920Y6474120D02*
Y6486820D01*
X8724320D02*
X8952920D01*
X8724320Y6474120D02*
Y6486820D01*
Y6385220D02*
Y6397920D01*
Y6385220D02*
X8952920D01*
Y6397920D01*
X8838620Y6385220D02*
Y6486820D01*
X8952900Y6585536D02*
Y6605536D01*
X8752900D02*
X8952900D01*
X8752900Y6585536D02*
Y6605536D01*
Y6505536D02*
Y6525536D01*
Y6505536D02*
X8952900D01*
Y6525536D01*
X3387520Y5916420D02*
Y5929120D01*
Y5916420D02*
X3452120D01*
Y5929120D01*
X3272120Y5916420D02*
Y5929120D01*
Y5916420D02*
X3336720D01*
Y5929120D01*
X3432120Y6322820D02*
X3452120D01*
Y5929120D02*
Y6322820D01*
X3387520Y5929120D02*
X3452120D01*
X3272120Y6322820D02*
X3292120D01*
X3272120Y5929120D02*
Y6322820D01*
Y5929120D02*
X3336720D01*
X3272120Y6119620D02*
X3452120D01*
X3362120Y6094220D02*
Y6119620D01*
X3336720Y6145020D02*
X3387520D01*
X3362120Y6119620D02*
X3387520Y6145020D01*
X3336720D02*
X3362120Y6119620D01*
X2753420Y5922780D02*
Y5935480D01*
Y5922780D02*
X2818020D01*
Y5935480D01*
X2638020Y5922780D02*
Y5935480D01*
Y5922780D02*
X2702620D01*
Y5935480D01*
X2798020Y6329180D02*
X2818020D01*
Y5935480D02*
Y6329180D01*
X2753420Y5935480D02*
X2818020D01*
X2638020Y6329180D02*
X2658020D01*
X2638020Y5935480D02*
Y6329180D01*
Y5935480D02*
X2702620D01*
X2638020Y6125980D02*
X2818020D01*
X2728020Y6100580D02*
Y6125980D01*
X2702620Y6151380D02*
X2753420D01*
X2728020Y6125980D02*
X2753420Y6151380D01*
X2702620D02*
X2728020Y6125980D01*
X2833020Y6085980D02*
X2973020D01*
X2953820Y6212980D02*
X2973020D01*
Y5958980D02*
Y6212980D01*
X2953820Y5958980D02*
X2973020D01*
X2833020D02*
X2852220D01*
X2833020D02*
Y6212980D01*
X2852220D01*
X9032720Y7497620D02*
Y7510320D01*
X8968120D02*
X9032720D01*
X8968120Y7497620D02*
Y7510320D01*
X9148120Y7497620D02*
Y7510320D01*
X9083520D02*
X9148120D01*
X9083520Y7497620D02*
Y7510320D01*
X8968120Y7103920D02*
X8988120D01*
X8968120D02*
Y7497620D01*
X9032720D01*
X9128120Y7103920D02*
X9148120D01*
Y7497620D01*
X9083520D02*
X9148120D01*
X8968120Y7307120D02*
X9148120D01*
X9058120D02*
Y7332520D01*
X9032720Y7281720D02*
X9083520D01*
X9032720D02*
X9058120Y7307120D01*
X9083520Y7281720D01*
X6110100Y6285247D02*
X6122800D01*
X6110100Y6056647D02*
Y6285247D01*
Y6056647D02*
X6122800D01*
X6199000D02*
X6211700D01*
Y6285247D01*
X6199000D02*
X6211700D01*
X6110100Y6170947D02*
X6211700D01*
X13775620Y6327280D02*
Y6347280D01*
Y6327280D02*
X13975620D01*
Y6347280D01*
Y6407280D02*
Y6427280D01*
X13775620D02*
X13975620D01*
X13775620Y6407280D02*
Y6427280D01*
X12343529Y6165220D02*
Y6177920D01*
X12114929D02*
X12343529D01*
X12114929Y6165220D02*
Y6177920D01*
Y6076320D02*
Y6089020D01*
Y6076320D02*
X12343529D01*
Y6089020D01*
X12229229Y6076320D02*
Y6177920D01*
X11888120Y7649620D02*
X11918120D01*
X11888120Y7369621D02*
Y7649620D01*
Y7369621D02*
X11918120D01*
X11998120D02*
X12028120D01*
Y7649620D01*
X11998120D02*
X12028120D01*
X11888120Y7509620D02*
X12028120D01*
X12229920Y6045220D02*
Y6057920D01*
X12001320D02*
X12229920D01*
X12001320Y6045220D02*
Y6057920D01*
Y5956320D02*
Y5969020D01*
Y5956320D02*
X12229920D01*
Y5969020D01*
X12115620Y5956320D02*
Y6057920D01*
X12229920Y6285220D02*
Y6297920D01*
X12001320D02*
X12229920D01*
X12001320Y6285220D02*
Y6297920D01*
Y6196320D02*
Y6209020D01*
Y6196320D02*
X12229920D01*
Y6209020D01*
X12115620Y6196320D02*
Y6297920D01*
X12229920Y6405220D02*
Y6417920D01*
X12001320D02*
X12229920D01*
X12001320Y6405220D02*
Y6417920D01*
Y6316320D02*
Y6329020D01*
Y6316320D02*
X12229920D01*
Y6329020D01*
X12115620Y6316320D02*
Y6417920D01*
X12887801Y5951520D02*
Y5964220D01*
Y5951520D02*
X13116400D01*
Y5964220D01*
Y6040420D02*
Y6053120D01*
X12887801D02*
X13116400D01*
X12887801Y6040420D02*
Y6053120D01*
X13002100Y5951520D02*
Y6053120D01*
X12801221Y5935320D02*
X12813921D01*
Y6163920D01*
X12801221D02*
X12813921D01*
X12712320D02*
X12725020D01*
X12712320Y5935320D02*
Y6163920D01*
Y5935320D02*
X12725020D01*
X12712320Y6049620D02*
X12813921D01*
X12843120Y6560780D02*
X13023120D01*
X12843120Y6730780D02*
X12883121D01*
X12843120Y6390780D02*
Y6730780D01*
Y6390780D02*
X12883121D01*
X12983121D02*
X13023120D01*
Y6730780D01*
X12983121D02*
X13023120D01*
X13708820Y5953820D02*
Y5966520D01*
Y5953820D02*
X13937421D01*
Y5966520D01*
Y6042720D02*
Y6055420D01*
X13708820D02*
X13937421D01*
X13708820Y6042720D02*
Y6055420D01*
X13823120Y5953820D02*
Y6055420D01*
X14052420Y6150180D02*
Y6162880D01*
X13823820D02*
X14052420D01*
X13823820Y6150180D02*
Y6162880D01*
Y6061280D02*
Y6073980D01*
Y6061280D02*
X14052420D01*
Y6073980D01*
X13938120Y6061280D02*
Y6162880D01*
X12444040Y5942159D02*
Y5954859D01*
Y5942159D02*
X12672640D01*
Y5954859D01*
Y6031059D02*
Y6043759D01*
X12444040D02*
X12672640D01*
X12444040Y6031059D02*
Y6043759D01*
X12558340Y5942159D02*
Y6043759D01*
X13458820Y5953820D02*
Y5966520D01*
Y5953820D02*
X13687421D01*
Y5966520D01*
Y6042720D02*
Y6055420D01*
X13458820D02*
X13687421D01*
X13458820Y6042720D02*
Y6055420D01*
X13573120Y5953820D02*
Y6055420D01*
X5620800Y6225500D02*
X5760800D01*
X5741600Y6352500D02*
X5760800D01*
Y6098500D02*
Y6352500D01*
X5741600Y6098500D02*
X5760800D01*
X5620800D02*
X5640000D01*
X5620800D02*
Y6352500D01*
X5640000D01*
X15333272Y6594416D02*
X15373273D01*
Y6254416D02*
Y6594416D01*
X15333272Y6254416D02*
X15373273D01*
X15193272D02*
X15233272D01*
X15193272D02*
Y6594416D01*
X15233272D01*
X15193272Y6424416D02*
X15373273D01*
X5758120Y6443020D02*
Y6544620D01*
X5643820Y6531920D02*
Y6544620D01*
X5872420D01*
Y6531920D02*
Y6544620D01*
Y6443020D02*
Y6455720D01*
X5643820Y6443020D02*
X5872420D01*
X5643820D02*
Y6455720D01*
X12860620Y6067425D02*
Y6097425D01*
Y6067425D02*
X13140620D01*
Y6097425D01*
Y6177425D02*
Y6207425D01*
X12860620D02*
X13140620D01*
X12860620Y6177425D02*
Y6207425D01*
X13000620Y6067425D02*
Y6207425D01*
X14218919Y6284180D02*
Y6296880D01*
X13990320D02*
X14218919D01*
X13990320Y6284180D02*
Y6296880D01*
Y6195280D02*
Y6207980D01*
Y6195280D02*
X14218919D01*
Y6207980D01*
X14104620Y6195280D02*
Y6296880D01*
X14434100Y6276080D02*
Y6296080D01*
X14234100D02*
X14434100D01*
X14234100Y6276080D02*
Y6296080D01*
Y6196080D02*
Y6216080D01*
Y6196080D02*
X14434100D01*
Y6216080D01*
X14329620Y6515940D02*
Y6535940D01*
X14129620D02*
X14329620D01*
X14129620Y6515940D02*
Y6535940D01*
Y6435941D02*
Y6455941D01*
Y6435941D02*
X14329620D01*
Y6455941D01*
X11960540Y6841642D02*
Y6861642D01*
Y6841642D02*
X12160540D01*
Y6861642D01*
Y6921642D02*
Y6941642D01*
X11960540D02*
X12160540D01*
X11960540Y6921642D02*
Y6941642D01*
X14556801Y6385220D02*
X14586801D01*
Y6665220D01*
X14556801D02*
X14586801D01*
X14446802D02*
X14476801D01*
X14446802Y6385220D02*
Y6665220D01*
Y6385220D02*
X14476801D01*
X14446802Y6525220D02*
X14586801D01*
X12860620Y6224080D02*
Y6254080D01*
Y6224080D02*
X13140620D01*
Y6254080D01*
Y6334080D02*
Y6364080D01*
X12860620D02*
X13140620D01*
X12860620Y6334080D02*
Y6364080D01*
X13000620Y6224080D02*
Y6364080D01*
X13160620Y5956117D02*
Y5986118D01*
Y5956117D02*
X13440620D01*
Y5986118D01*
Y6066117D02*
Y6096118D01*
X13160620D02*
X13440620D01*
X13160620Y6066117D02*
Y6096118D01*
X13300620Y5956117D02*
Y6096118D01*
X13418260Y6763554D02*
X13558260D01*
X13418260Y6636554D02*
X13437460D01*
X13418260D02*
Y6890554D01*
X13437460D01*
X13539059D02*
X13558260D01*
Y6636554D02*
Y6890554D01*
X13539059Y6636554D02*
X13558260D01*
X13574666Y6908297D02*
X13604666D01*
X13574666Y6628297D02*
Y6908297D01*
Y6628297D02*
X13604666D01*
X13684666D02*
X13714667D01*
Y6908297D01*
X13684666D02*
X13714667D01*
X13574666Y6768297D02*
X13714667D01*
X14218419Y6406541D02*
Y6419241D01*
X13989819D02*
X14218419D01*
X13989819Y6406541D02*
Y6419241D01*
Y6317641D02*
Y6330341D01*
Y6317641D02*
X14218419D01*
Y6330341D01*
X14104118Y6317641D02*
Y6419241D01*
X14434119Y6398441D02*
Y6418441D01*
X14234119D02*
X14434119D01*
X14234119Y6398441D02*
Y6418441D01*
Y6318441D02*
Y6338441D01*
Y6318441D02*
X14434119D01*
Y6338441D01*
X14329620Y6158580D02*
Y6178580D01*
X14129620D02*
X14329620D01*
X14129620Y6158580D02*
Y6178580D01*
Y6078580D02*
Y6098580D01*
Y6078580D02*
X14329620D01*
Y6098580D01*
X15836861Y6157121D02*
X15976860D01*
X15836861Y6030121D02*
X15856059D01*
X15836861D02*
Y6284121D01*
X15856059D01*
X15957660D02*
X15976860D01*
Y6030121D02*
Y6284121D01*
X15957660Y6030121D02*
X15976860D01*
X15996860Y6157121D02*
X16136861D01*
X15996860Y6030121D02*
X16016060D01*
X15996860D02*
Y6284121D01*
X16016060D01*
X16117661D02*
X16136861D01*
Y6030121D02*
Y6284121D01*
X16117661Y6030121D02*
X16136861D01*
X11753120Y6596479D02*
Y6626479D01*
X11473120D02*
X11753120D01*
X11473120Y6596479D02*
Y6626479D01*
Y6486479D02*
Y6516479D01*
Y6486479D02*
X11753120D01*
Y6516479D01*
X11613120Y6486479D02*
Y6626479D01*
X11877600Y6348454D02*
X11907600D01*
Y6628454D01*
X11877600D02*
X11907600D01*
X11767600D02*
X11797600D01*
X11767600Y6348454D02*
Y6628454D01*
Y6348454D02*
X11797600D01*
X11767600Y6488454D02*
X11907600D01*
X11427280Y6350721D02*
X11457280D01*
Y6630721D01*
X11427280D02*
X11457280D01*
X11317280D02*
X11347280D01*
X11317280Y6350721D02*
Y6630721D01*
Y6350721D02*
X11347280D01*
X11317280Y6490721D02*
X11457280D01*
X11465620Y6771403D02*
X11605620D01*
X11465620Y6644403D02*
X11484820D01*
X11465620D02*
Y6898403D01*
X11484820D01*
X11586420D02*
X11605620D01*
Y6644403D02*
Y6898403D01*
X11586420Y6644403D02*
X11605620D01*
X11620620Y6771403D02*
X11760620D01*
X11620620Y6644403D02*
X11639820D01*
X11620620D02*
Y6898403D01*
X11639820D01*
X11741420D02*
X11760620D01*
Y6644403D02*
Y6898403D01*
X11741420Y6644403D02*
X11760620D01*
X14750620Y7924620D02*
Y7954620D01*
Y7924620D02*
X15030620D01*
Y7954620D01*
Y8034620D02*
Y8064620D01*
X14750620D02*
X15030620D01*
X14750620Y8034620D02*
Y8064620D01*
X14890620Y7924620D02*
Y8064620D01*
X12417572Y6057120D02*
Y6087120D01*
Y6057120D02*
X12697572D01*
Y6087120D01*
Y6167120D02*
Y6197120D01*
X12417572D02*
X12697572D01*
X12417572Y6167120D02*
Y6197120D01*
X12557572Y6057120D02*
Y6197120D01*
X13253500Y6868420D02*
X13283501D01*
X13253500Y6588420D02*
Y6868420D01*
Y6588420D02*
X13283501D01*
X13363499D02*
X13393500D01*
Y6868420D01*
X13363499D02*
X13393500D01*
X13253500Y6728420D02*
X13393500D01*
X13791980Y6743960D02*
X13821980D01*
X13791980Y6463960D02*
Y6743960D01*
Y6463960D02*
X13821980D01*
X13901981D02*
X13931979D01*
Y6743960D01*
X13901981D02*
X13931979D01*
X13791980Y6603960D02*
X13931979D01*
X15846860Y6302120D02*
Y6332121D01*
Y6302120D02*
X16126860D01*
Y6332121D01*
Y6412121D02*
Y6442121D01*
X15846860D02*
X16126860D01*
X15846860Y6412121D02*
Y6442121D01*
X15986861Y6302120D02*
Y6442121D01*
X16339272Y6048256D02*
Y6228256D01*
X16169272Y6048256D02*
Y6088256D01*
Y6048256D02*
X16509271D01*
Y6088256D01*
Y6188256D02*
Y6228256D01*
X16169272D02*
X16509271D01*
X16169272Y6188256D02*
Y6228256D01*
X16339272Y6250756D02*
Y6430756D01*
X16169272Y6250756D02*
Y6290756D01*
Y6250756D02*
X16509271D01*
Y6290756D01*
Y6390756D02*
Y6430756D01*
X16169272D02*
X16509271D01*
X16169272Y6390756D02*
Y6430756D01*
X14603271Y6423201D02*
X14783272D01*
X14603271Y6593200D02*
X14643272D01*
X14603271Y6253201D02*
Y6593200D01*
Y6253201D02*
X14643272D01*
X14743272D02*
X14783272D01*
Y6593200D01*
X14743272D02*
X14783272D01*
X14998273Y6424416D02*
X15178271D01*
X14998273Y6594416D02*
X15038272D01*
X14998273Y6254416D02*
Y6594416D01*
Y6254416D02*
X15038272D01*
X15138271D02*
X15178271D01*
Y6594416D01*
X15138271D02*
X15178271D01*
X15300620Y7157120D02*
X15480620D01*
X15440620Y6987120D02*
X15480620D01*
Y7327120D01*
X15440620D02*
X15480620D01*
X15300620D02*
X15340620D01*
X15300620Y6987120D02*
Y7327120D01*
Y6987120D02*
X15340620D01*
X14915620Y7157120D02*
X15095621D01*
X15055620Y6987120D02*
X15095621D01*
Y7327120D01*
X15055620D02*
X15095621D01*
X14915620D02*
X14955620D01*
X14915620Y6987120D02*
Y7327120D01*
Y6987120D02*
X14955620D01*
X14800772Y6423201D02*
X14980772D01*
X14800772Y6593200D02*
X14840771D01*
X14800772Y6253201D02*
Y6593200D01*
Y6253201D02*
X14840771D01*
X14940771D02*
X14980772D01*
Y6593200D01*
X14940771D02*
X14980772D01*
X15108121Y7157984D02*
X15288120D01*
X15248120Y6987984D02*
X15288120D01*
Y7327984D01*
X15248120D02*
X15288120D01*
X15108121D02*
X15148120D01*
X15108121Y6987984D02*
Y7327984D01*
Y6987984D02*
X15148120D01*
X10786692Y7617984D02*
X10966692D01*
X10926692Y7447984D02*
X10966692D01*
Y7787984D01*
X10926692D02*
X10966692D01*
X10786692D02*
X10826692D01*
X10786692Y7447984D02*
Y7787984D01*
Y7447984D02*
X10826692D01*
X10987763Y7617984D02*
X11167763D01*
X11127763Y7447984D02*
X11167763D01*
Y7787984D01*
X11127763D02*
X11167763D01*
X10987763D02*
X11027763D01*
X10987763Y7447984D02*
Y7787984D01*
Y7447984D02*
X11027763D01*
X11188834Y7617984D02*
X11368834D01*
X11328834Y7447984D02*
X11368834D01*
Y7787984D01*
X11328834D02*
X11368834D01*
X11188834D02*
X11228834D01*
X11188834Y7447984D02*
Y7787984D01*
Y7447984D02*
X11228834D01*
X11389905Y7617984D02*
X11569905D01*
X11529905Y7447984D02*
X11569905D01*
Y7787984D01*
X11529905D02*
X11569905D01*
X11389905D02*
X11429906D01*
X11389905Y7447984D02*
Y7787984D01*
Y7447984D02*
X11429906D01*
X10588650Y7620867D02*
X10768651D01*
X10728650Y7450867D02*
X10768651D01*
Y7790867D01*
X10728650D02*
X10768651D01*
X10588650D02*
X10628651D01*
X10588650Y7450867D02*
Y7790867D01*
Y7450867D02*
X10628651D01*
X11588134Y7616841D02*
X11768134D01*
X11728134Y7446841D02*
X11768134D01*
Y7786841D01*
X11728134D02*
X11768134D01*
X11588134D02*
X11628134D01*
X11588134Y7446841D02*
Y7786841D01*
Y7446841D02*
X11628134D01*
X6638464Y7142723D02*
X6658464D01*
X6638464D02*
Y7342723D01*
X6658464D01*
X6718464D02*
X6738464D01*
Y7142723D02*
Y7342723D01*
X6718464Y7142723D02*
X6738464D01*
X5975504Y6718660D02*
X5995504D01*
X5975504D02*
Y6918660D01*
X5995504D01*
X6055504D02*
X6075504D01*
Y6718660D02*
Y6918660D01*
X6055504Y6718660D02*
X6075504D01*
X5868776D02*
X5888776D01*
X5868776D02*
Y6918660D01*
X5888776D01*
X5948776D02*
X5968776D01*
Y6718660D02*
Y6918660D01*
X5948776Y6718660D02*
X5968776D01*
X6377599Y7985352D02*
X6397599D01*
Y7785352D02*
Y7985352D01*
X6377599Y7785352D02*
X6397599D01*
X6297599D02*
X6317599D01*
X6297599D02*
Y7985352D01*
X6317599D01*
X6263299D02*
X6283299D01*
Y7785352D02*
Y7985352D01*
X6263299Y7785352D02*
X6283299D01*
X6183299D02*
X6203299D01*
X6183299D02*
Y7985352D01*
X6203299D01*
X6148999D02*
X6168999D01*
Y7785352D02*
Y7985352D01*
X6148999Y7785352D02*
X6168999D01*
X6068999D02*
X6088999D01*
X6068999D02*
Y7985352D01*
X6088999D01*
X5881504Y6595259D02*
Y6615259D01*
X6081504D01*
Y6595259D02*
Y6615259D01*
Y6515259D02*
Y6535259D01*
X5881504Y6515259D02*
X6081504D01*
X5881504D02*
Y6535259D01*
Y6480959D02*
Y6500959D01*
X6081504D01*
Y6480959D02*
Y6500959D01*
Y6400959D02*
Y6420959D01*
X5881504Y6400959D02*
X6081504D01*
X5881504D02*
Y6420959D01*
X6373760Y6162320D02*
Y6263920D01*
X6488060Y6162320D02*
Y6175020D01*
X6259460Y6162320D02*
X6488060D01*
X6259460D02*
Y6175020D01*
Y6251220D02*
Y6263920D01*
X6488060D01*
Y6251220D02*
Y6263920D01*
X5643820Y6553020D02*
Y6565720D01*
Y6553020D02*
X5872420D01*
Y6565720D01*
Y6641920D02*
Y6654620D01*
X5643820D02*
X5872420D01*
X5643820Y6641920D02*
Y6654620D01*
X5758120Y6553020D02*
Y6654620D01*
D118*
X3495760Y6976081D02*
Y7076080D01*
X3435760Y6976081D02*
Y7076080D01*
X3495760D01*
X3435760Y6976081D02*
X3495760D01*
X6766580Y7857720D02*
X6936580D01*
X6766580Y7732720D02*
X6936580D01*
X6766580Y7852220D02*
Y7857720D01*
Y7732720D02*
Y7738220D01*
X6936580Y7852220D02*
Y7857720D01*
Y7732720D02*
Y7738220D01*
X12966780Y7673060D02*
Y8041060D01*
X14099280D01*
Y7673060D02*
Y8041060D01*
X12966780Y7021060D02*
Y7389060D01*
Y7021060D02*
X14096780D01*
Y7389060D01*
X14849620Y6717484D02*
X14873621D01*
Y7272484D01*
X14849620D02*
X14873621D01*
X14353619D02*
X14377620D01*
X14353619Y6717484D02*
Y7272484D01*
Y6717484D02*
X14377620D01*
X14406120Y7361984D02*
Y7385984D01*
Y7361984D02*
X14961121D01*
Y7385984D01*
Y7857984D02*
Y7881984D01*
X14406120D02*
X14961121D01*
X14406120Y7857984D02*
Y7881984D01*
X12651120Y7858120D02*
Y7882120D01*
X12096120D02*
X12651120D01*
X12096120Y7858120D02*
Y7882120D01*
Y7362120D02*
Y7386120D01*
Y7362120D02*
X12651120D01*
Y7386120D01*
X12681120Y6716620D02*
X12705120D01*
Y7271620D01*
X12681120D02*
X12705120D01*
X12185120D02*
X12209120D01*
X12185120Y6716620D02*
Y7271620D01*
Y6716620D02*
X12209120D01*
X4323100Y6505060D02*
X4381100D01*
X3981100D02*
X4039100D01*
X4381100Y7087060D02*
Y7105060D01*
Y6505060D02*
Y6523060D01*
X4343400Y7105060D02*
X4381100D01*
X3981100D02*
X4018800D01*
X3981100Y7087060D02*
Y7105060D01*
Y6505060D02*
Y6523060D01*
X3888120Y7176621D02*
X4088120D01*
X3888120Y7402621D02*
X4088120D01*
X4810620Y7524620D02*
X5210620D01*
X4810620Y8029620D02*
X5210620D01*
X8715621Y7315537D02*
Y7518537D01*
X8025620Y7315537D02*
X8715621D01*
X8025620D02*
Y7518537D01*
X8715621Y7802537D02*
Y8005537D01*
X8025620D02*
X8715621D01*
X8025620Y7802537D02*
Y8005537D01*
X9325620Y6557621D02*
Y6584621D01*
X9025620Y6557621D02*
Y6584621D01*
X9325620Y6284621D02*
Y6311621D01*
X9025620Y6284621D02*
Y6311621D01*
X9298620Y6584621D02*
X9325620D01*
X9025620D02*
X9052620D01*
X9298620Y6284621D02*
X9325620D01*
X9025620D02*
X9052620D01*
X9909940Y6372620D02*
X10315940D01*
X9909940Y5966620D02*
X10315940D01*
X9909940Y6321620D02*
Y6372620D01*
Y5966620D02*
Y6017620D01*
X10315940Y6321620D02*
Y6372620D01*
Y5966620D02*
Y6017620D01*
D119*
X9883121Y7095536D02*
G03*
X9883121Y7095536I-2500J0D01*
G01*
X8527901Y6669620D02*
G03*
X8527901Y6669620I-2500J0D01*
G01*
D120*
X7686804Y6502758D02*
X7674108Y6515454D01*
X7648716D01*
X7636020Y6502758D01*
Y6490062D01*
X7648716Y6477367D01*
X7674108D01*
X7686804Y6464671D01*
Y6451975D01*
X7674108Y6439279D01*
X7648716D01*
X7636020Y6451975D01*
X7762979Y6502758D02*
X7750283Y6515454D01*
X7724892D01*
X7712196Y6502758D01*
Y6451975D01*
X7724892Y6439279D01*
X7750283D01*
X7762979Y6451975D01*
X7788371Y6515454D02*
Y6439279D01*
X7839155D01*
X6823640Y6670521D02*
X6747465D01*
Y6708608D01*
X6760160Y6721304D01*
X6785552D01*
X6798248Y6708608D01*
Y6670521D01*
X6747465Y6746696D02*
X6823640D01*
X6785552D01*
Y6797479D01*
X6747465D01*
X6823640D01*
X6994622Y6752210D02*
Y6828385D01*
X7020013Y6802994D01*
X7045405Y6828385D01*
Y6752210D01*
X7070797Y6828385D02*
X7096189D01*
X7083493D01*
Y6752210D01*
X7070797D01*
X7096189D01*
X7185060D02*
X7134276D01*
X7185060Y6802994D01*
Y6815689D01*
X7172364Y6828385D01*
X7146972D01*
X7134276Y6815689D01*
X7261235D02*
X7248539Y6828385D01*
X7223148D01*
X7210452Y6815689D01*
Y6764906D01*
X7223148Y6752210D01*
X7248539D01*
X7261235Y6764906D01*
X6742385Y6884984D02*
Y6834200D01*
X6780472D01*
Y6859592D01*
Y6834200D01*
X6818560D01*
Y6910376D02*
X6767776D01*
X6742385Y6935767D01*
X6767776Y6961159D01*
X6818560D01*
X6780472D01*
Y6910376D01*
X7044620Y6567907D02*
Y6644082D01*
X7070012Y6618690D01*
X7095403Y6644082D01*
Y6567907D01*
X7421741Y6819221D02*
X7409045Y6806526D01*
Y6781134D01*
X7421741Y6768438D01*
X7434437D01*
X7447133Y6781134D01*
Y6806526D01*
X7459829Y6819221D01*
X7472525D01*
X7485220Y6806526D01*
Y6781134D01*
X7472525Y6768438D01*
X7421741Y6895397D02*
X7409045Y6882701D01*
Y6857309D01*
X7421741Y6844613D01*
X7472525D01*
X7485220Y6857309D01*
Y6882701D01*
X7472525Y6895397D01*
X7409045Y6920789D02*
X7485220D01*
Y6971572D01*
X7475983Y6377242D02*
X7463288Y6389938D01*
X7437896D01*
X7425200Y6377242D01*
Y6364546D01*
X7437896Y6351851D01*
X7463288D01*
X7475983Y6339155D01*
Y6326459D01*
X7463288Y6313763D01*
X7437896D01*
X7425200Y6326459D01*
X6945543Y6504550D02*
X6932848Y6517246D01*
X6907456D01*
X6894760Y6504550D01*
Y6491854D01*
X6907456Y6479159D01*
X6932848D01*
X6945543Y6466463D01*
Y6453767D01*
X6932848Y6441071D01*
X6907456D01*
X6894760Y6453767D01*
X6970935Y6517246D02*
Y6441071D01*
X7009023D01*
X7021719Y6453767D01*
Y6504550D01*
X7009023Y6517246D01*
X6970935D01*
X7047111Y6441071D02*
Y6491854D01*
X7072502Y6517246D01*
X7097894Y6491854D01*
Y6441071D01*
Y6479159D01*
X7047111D01*
X7786300Y6556903D02*
Y6633078D01*
X7811692Y6607686D01*
X7837083Y6633078D01*
Y6556903D01*
X8217663Y6366238D02*
X8204968Y6378934D01*
X8179576D01*
X8166880Y6366238D01*
Y6353542D01*
X8179576Y6340846D01*
X8204968D01*
X8217663Y6328150D01*
Y6315454D01*
X8204968Y6302759D01*
X8179576D01*
X8166880Y6315454D01*
X7296100Y6809684D02*
X7283405Y6796988D01*
Y6771596D01*
X7296100Y6758900D01*
X7308796D01*
X7321492Y6771596D01*
Y6796988D01*
X7334188Y6809684D01*
X7346884D01*
X7359580Y6796988D01*
Y6771596D01*
X7346884Y6758900D01*
X7283405Y6835076D02*
X7359580D01*
Y6873164D01*
X7346884Y6885859D01*
X7296100D01*
X7283405Y6873164D01*
Y6835076D01*
X7359580Y6911251D02*
X7308796D01*
X7283405Y6936643D01*
X7308796Y6962035D01*
X7359580D01*
X7321492D01*
Y6911251D01*
X6335960Y7171740D02*
X6259785D01*
Y7209828D01*
X6272480Y7222524D01*
X6297872D01*
X6310568Y7209828D01*
Y7171740D01*
Y7197132D02*
X6335960Y7222524D01*
X6272480Y7247916D02*
X6259785Y7260612D01*
Y7286003D01*
X6272480Y7298699D01*
X6285176D01*
X6297872Y7286003D01*
X6310568Y7298699D01*
X6323264D01*
X6335960Y7286003D01*
Y7260612D01*
X6323264Y7247916D01*
X6310568D01*
X6297872Y7260612D01*
X6285176Y7247916D01*
X6272480D01*
X6297872Y7260612D02*
Y7286003D01*
X6335960Y7324091D02*
Y7349483D01*
Y7336787D01*
X6259785D01*
X6272480Y7324091D01*
X6823640Y6212104D02*
X6747465D01*
Y6250192D01*
X6760160Y6262888D01*
X6785552D01*
X6798248Y6250192D01*
Y6212104D01*
Y6237496D02*
X6823640Y6262888D01*
X6760160Y6288280D02*
X6747465Y6300975D01*
Y6326367D01*
X6760160Y6339063D01*
X6772856D01*
X6785552Y6326367D01*
X6798248Y6339063D01*
X6810944D01*
X6823640Y6326367D01*
Y6300975D01*
X6810944Y6288280D01*
X6798248D01*
X6785552Y6300975D01*
X6772856Y6288280D01*
X6760160D01*
X6785552Y6300975D02*
Y6326367D01*
X6760160Y6364455D02*
X6747465Y6377151D01*
Y6402543D01*
X6760160Y6415238D01*
X6810944D01*
X6823640Y6402543D01*
Y6377151D01*
X6810944Y6364455D01*
X6760160D01*
X16216544Y7886432D02*
X16203848Y7899127D01*
X16178456D01*
X16165759Y7886432D01*
Y7835648D01*
X16178456Y7822952D01*
X16203848D01*
X16216544Y7835648D01*
Y7861040D01*
X16191151D01*
X16241936Y7822952D02*
Y7899127D01*
X16292719Y7822952D01*
Y7899127D01*
X16318111D02*
Y7822952D01*
X16356198D01*
X16368893Y7835648D01*
Y7886432D01*
X16356198Y7899127D01*
X16318111D01*
X3069540Y7805364D02*
X3056845Y7792668D01*
Y7767276D01*
X3069540Y7754580D01*
X3120324D01*
X3133020Y7767276D01*
Y7792668D01*
X3120324Y7805364D01*
X3094932D01*
Y7779972D01*
X3133020Y7830756D02*
X3056845D01*
X3133020Y7881539D01*
X3056845D01*
Y7906931D02*
X3133020D01*
Y7945019D01*
X3120324Y7957715D01*
X3069540D01*
X3056845Y7945019D01*
Y7906931D01*
X7529760Y6267136D02*
Y6216352D01*
X7555152Y6190960D01*
X7580543Y6216352D01*
Y6267136D01*
X7656719Y6254440D02*
X7644023Y6267136D01*
X7618631D01*
X7605935Y6254440D01*
Y6241744D01*
X7618631Y6229048D01*
X7644023D01*
X7656719Y6216352D01*
Y6203656D01*
X7644023Y6190960D01*
X7618631D01*
X7605935Y6203656D01*
X7682111Y6267136D02*
Y6254440D01*
X7707502Y6229048D01*
X7732894Y6254440D01*
Y6267136D01*
X7707502Y6229048D02*
Y6190960D01*
X7809069Y6254440D02*
X7796374Y6267136D01*
X7770982D01*
X7758286Y6254440D01*
Y6241744D01*
X7770982Y6229048D01*
X7796374D01*
X7809069Y6216352D01*
Y6203656D01*
X7796374Y6190960D01*
X7770982D01*
X7758286Y6203656D01*
X9885454Y7668586D02*
X9809279D01*
Y7706673D01*
X9821975Y7719369D01*
X9847366D01*
X9860062Y7706673D01*
Y7668586D01*
X9885454Y7744761D02*
X9809279D01*
Y7782849D01*
X9821975Y7795544D01*
X9847366D01*
X9860062Y7782849D01*
Y7744761D01*
X9809279Y7820936D02*
X9885454D01*
X9847366D01*
Y7871720D01*
X9809279D01*
X9885454D01*
X9809279Y7897112D02*
X9860062D01*
X9885454Y7922504D01*
X9860062Y7947895D01*
X9809279D01*
X2658040Y7670736D02*
Y7619952D01*
X2683432Y7594560D01*
X2708823Y7619952D01*
Y7670736D01*
X2734215D02*
Y7594560D01*
X2772303D01*
X2784999Y7607256D01*
Y7619952D01*
X2772303Y7632648D01*
X2734215D01*
X2772303D01*
X2784999Y7645344D01*
Y7658040D01*
X2772303Y7670736D01*
X2734215D01*
X2810391D02*
Y7607256D01*
X2823087Y7594560D01*
X2848478D01*
X2861174Y7607256D01*
Y7670736D01*
X2937349Y7658040D02*
X2924654Y7670736D01*
X2899262D01*
X2886566Y7658040D01*
Y7645344D01*
X2899262Y7632648D01*
X2924654D01*
X2937349Y7619952D01*
Y7607256D01*
X2924654Y7594560D01*
X2899262D01*
X2886566Y7607256D01*
X12640228Y6458936D02*
X12614836D01*
X12602140Y6446240D01*
Y6395456D01*
X12614836Y6382760D01*
X12640228D01*
X12652923Y6395456D01*
Y6446240D01*
X12640228Y6458936D01*
X12678315D02*
Y6382760D01*
Y6408152D01*
X12729099Y6458936D01*
X12691011Y6420848D01*
X12729099Y6382760D01*
X3397163Y7990780D02*
X3384468Y8003476D01*
X3359076D01*
X3346380Y7990780D01*
Y7939996D01*
X3359076Y7927300D01*
X3384468D01*
X3397163Y7939996D01*
Y7965388D01*
X3371772D01*
X3422555Y7927300D02*
Y8003476D01*
X3473339Y7927300D01*
Y8003476D01*
X3498731D02*
Y7927300D01*
X3536818D01*
X3549514Y7939996D01*
Y7990780D01*
X3536818Y8003476D01*
X3498731D01*
X8775763Y7569700D02*
X8788459Y7582396D01*
X8813851D01*
X8826546Y7569700D01*
Y7557004D01*
X8813851Y7544309D01*
X8801155D01*
X8813851D01*
X8826546Y7531613D01*
Y7518917D01*
X8813851Y7506221D01*
X8788459D01*
X8775763Y7518917D01*
X8851938Y7582396D02*
Y7531613D01*
X8877330Y7506221D01*
X8902722Y7531613D01*
Y7582396D01*
X8928113Y7569700D02*
X8940809Y7582396D01*
X8966201D01*
X8978897Y7569700D01*
Y7557004D01*
X8966201Y7544309D01*
X8953505D01*
X8966201D01*
X8978897Y7531613D01*
Y7518917D01*
X8966201Y7506221D01*
X8940809D01*
X8928113Y7518917D01*
X9404263Y7611796D02*
X9353480D01*
Y7573708D01*
X9378872Y7586404D01*
X9391568D01*
X9404263Y7573708D01*
Y7548316D01*
X9391568Y7535620D01*
X9366176D01*
X9353480Y7548316D01*
X9429655Y7611796D02*
Y7561012D01*
X9455047Y7535620D01*
X9480439Y7561012D01*
Y7611796D01*
X5231085Y5966420D02*
X5307260D01*
Y6004508D01*
X5294564Y6017204D01*
X5243780D01*
X5231085Y6004508D01*
Y5966420D01*
Y6093379D02*
Y6042596D01*
X5307260D01*
Y6093379D01*
X5269172Y6042596D02*
Y6067988D01*
X5307260Y6118771D02*
X5256476D01*
X5231085Y6144163D01*
X5256476Y6169555D01*
X5307260D01*
X5269172D01*
Y6118771D01*
X5231085Y6194946D02*
X5307260D01*
Y6233034D01*
X5294564Y6245730D01*
X5243780D01*
X5231085Y6233034D01*
Y6194946D01*
Y6347297D02*
X5307260D01*
Y6385385D01*
X5294564Y6398081D01*
X5281868D01*
X5269172Y6385385D01*
Y6347297D01*
Y6385385D01*
X5256476Y6398081D01*
X5243780D01*
X5231085Y6385385D01*
Y6347297D01*
X5307260Y6423473D02*
X5256476D01*
X5231085Y6448864D01*
X5256476Y6474256D01*
X5307260D01*
X5269172D01*
Y6423473D01*
X5231085Y6499648D02*
Y6550431D01*
Y6525040D01*
X5307260D01*
X5231085Y6575823D02*
Y6626607D01*
Y6601215D01*
X5307260D01*
X15411380Y6587553D02*
Y6536770D01*
X15436772Y6511378D01*
X15462163Y6536770D01*
Y6587553D01*
X15538339Y6574858D02*
X15525642Y6587553D01*
X15500250D01*
X15487555Y6574858D01*
Y6562162D01*
X15500250Y6549466D01*
X15525642D01*
X15538339Y6536770D01*
Y6524074D01*
X15525642Y6511378D01*
X15500250D01*
X15487555Y6524074D01*
X15563731Y6587553D02*
Y6574858D01*
X15589122Y6549466D01*
X15614514Y6574858D01*
Y6587553D01*
X15589122Y6549466D02*
Y6511378D01*
X15690689Y6574858D02*
X15677994Y6587553D01*
X15652602D01*
X15639906Y6574858D01*
Y6562162D01*
X15652602Y6549466D01*
X15677994D01*
X15690689Y6536770D01*
Y6524074D01*
X15677994Y6511378D01*
X15652602D01*
X15639906Y6524074D01*
X12584343Y6554217D02*
X12571648Y6566913D01*
X12546256D01*
X12533560Y6554217D01*
Y6503434D01*
X12546256Y6490738D01*
X12571648D01*
X12584343Y6503434D01*
X12609735Y6566913D02*
Y6490738D01*
Y6528825D01*
X12660519D01*
Y6566913D01*
Y6490738D01*
X12685911D02*
Y6566913D01*
X12723998D01*
X12736694Y6554217D01*
Y6528825D01*
X12723998Y6516129D01*
X12685911D01*
X12711302D02*
X12736694Y6490738D01*
X12812869Y6554217D02*
X12800174Y6566913D01*
X12774782D01*
X12762086Y6554217D01*
Y6503434D01*
X12774782Y6490738D01*
X12800174D01*
X12812869Y6503434D01*
Y6528825D01*
X12787478D01*
X4998771Y7080644D02*
X5024163D01*
X5011467D01*
Y7004468D01*
X4998771D01*
X5024163D01*
X5100339Y7080644D02*
X5074947D01*
X5062251Y7067948D01*
Y7017164D01*
X5074947Y7004468D01*
X5100339D01*
X5113034Y7017164D01*
Y7067948D01*
X5100339Y7080644D01*
X5138426Y7004468D02*
X5163818D01*
X5151122D01*
Y7080644D01*
X5138426Y7067948D01*
X5201906Y7004468D02*
X5227297D01*
X5214601D01*
Y7080644D01*
X5201906Y7067948D01*
X2538685Y6035985D02*
Y6061377D01*
Y6048681D01*
X2614860D01*
Y6035985D01*
Y6061377D01*
X2538685Y6137552D02*
Y6112160D01*
X2551380Y6099464D01*
X2602164D01*
X2614860Y6112160D01*
Y6137552D01*
X2602164Y6150248D01*
X2551380D01*
X2538685Y6137552D01*
Y6175640D02*
Y6226423D01*
X2551380D01*
X2602164Y6175640D01*
X2614860D01*
X3169664Y6032460D02*
Y6057852D01*
Y6045156D01*
X3245840D01*
Y6032460D01*
Y6057852D01*
X3169664Y6134028D02*
Y6108636D01*
X3182360Y6095940D01*
X3233144D01*
X3245840Y6108636D01*
Y6134028D01*
X3233144Y6146723D01*
X3182360D01*
X3169664Y6134028D01*
Y6222899D02*
X3182360Y6197507D01*
X3207752Y6172115D01*
X3233144D01*
X3245840Y6184811D01*
Y6210203D01*
X3233144Y6222899D01*
X3220448D01*
X3207752Y6210203D01*
Y6172115D01*
X10272483Y7832433D02*
Y7908609D01*
X10323266Y7832433D01*
Y7908609D01*
X10399442D02*
X10348658D01*
Y7832433D01*
X10399442D01*
X10348658Y7870521D02*
X10374050D01*
X10475617Y7895913D02*
X10462921Y7908609D01*
X10437530D01*
X10424834Y7895913D01*
Y7845129D01*
X10437530Y7832433D01*
X10462921D01*
X10475617Y7845129D01*
Y7870521D01*
X10450225D01*
X7725323Y8000936D02*
X7674540D01*
Y7962848D01*
X7699932Y7975544D01*
X7712628D01*
X7725323Y7962848D01*
Y7937456D01*
X7712628Y7924760D01*
X7687236D01*
X7674540Y7937456D01*
X7750715Y8000936D02*
Y7950152D01*
X7776107Y7924760D01*
X7801499Y7950152D01*
Y8000936D01*
X11405298Y7226260D02*
Y7302436D01*
X11443386D01*
X11456082Y7289740D01*
Y7264348D01*
X11443386Y7251652D01*
X11405298D01*
X11481474Y7226260D02*
Y7302436D01*
X11519562D01*
X11532257Y7289740D01*
Y7264348D01*
X11519562Y7251652D01*
X11481474D01*
X11557649Y7302436D02*
Y7226260D01*
Y7264348D01*
X11608433D01*
Y7302436D01*
Y7226260D01*
X11633825Y7302436D02*
Y7251652D01*
X11659216Y7226260D01*
X11684608Y7251652D01*
Y7302436D01*
X16465401Y6798016D02*
X16414616D01*
Y6759929D01*
X16440009Y6772624D01*
X16452704D01*
X16465401Y6759929D01*
Y6734537D01*
X16452704Y6721841D01*
X16427312D01*
X16414616Y6734537D01*
X16541576Y6785320D02*
X16528879Y6798016D01*
X16503487D01*
X16490791Y6785320D01*
Y6772624D01*
X16503487Y6759929D01*
X16528879D01*
X16541576Y6747233D01*
Y6734537D01*
X16528879Y6721841D01*
X16503487D01*
X16490791Y6734537D01*
X8873403Y7960320D02*
X8822620D01*
X8873403Y8011104D01*
Y8023800D01*
X8860708Y8036496D01*
X8835316D01*
X8822620Y8023800D01*
X8949579Y7960320D02*
X8898795D01*
X8949579Y8011104D01*
Y8023800D01*
X8936883Y8036496D01*
X8911491D01*
X8898795Y8023800D01*
X10242480Y8016176D02*
Y7940000D01*
X10280568D01*
X10293263Y7952696D01*
Y7965392D01*
X10280568Y7978088D01*
X10242480D01*
X10280568D01*
X10293263Y7990784D01*
Y8003480D01*
X10280568Y8016176D01*
X10242480D01*
X10318655Y7940000D02*
Y7990784D01*
X10344047Y8016176D01*
X10369439Y7990784D01*
Y7940000D01*
Y7978088D01*
X10318655D01*
X10394831Y8016176D02*
X10445614D01*
X10420222D01*
Y7940000D01*
X10471006Y8016176D02*
X10521789D01*
X10496398D01*
Y7940000D01*
X6390834Y7706414D02*
Y7782589D01*
X6428922D01*
X6441618Y7769893D01*
Y7744501D01*
X6428922Y7731805D01*
X6390834D01*
X6467009Y7782589D02*
X6492401D01*
X6479705D01*
Y7706414D01*
X6467009D01*
X6492401D01*
X6581272Y7782589D02*
X6530489D01*
Y7706414D01*
X6581272D01*
X6530489Y7744501D02*
X6555881D01*
X6606664Y7782589D02*
X6657448D01*
Y7769893D01*
X6606664Y7719110D01*
Y7706414D01*
X6657448D01*
X6720927Y7782589D02*
X6695536D01*
X6682840Y7769893D01*
Y7719110D01*
X6695536Y7706414D01*
X6720927D01*
X6733623Y7719110D01*
Y7769893D01*
X6720927Y7782589D01*
X7064011Y7820195D02*
X7051316Y7832891D01*
X7025924D01*
X7013228Y7820195D01*
Y7769412D01*
X7025924Y7756716D01*
X7051316D01*
X7064011Y7769412D01*
Y7794804D01*
X7038620D01*
X7089403Y7756716D02*
Y7832891D01*
X7140187Y7756716D01*
Y7832891D01*
X7165579D02*
Y7756716D01*
X7203666D01*
X7216362Y7769412D01*
Y7820195D01*
X7203666Y7832891D01*
X7165579D01*
X6516283Y7869112D02*
X6503588Y7881808D01*
X6478196D01*
X6465500Y7869112D01*
Y7856416D01*
X6478196Y7843721D01*
X6503588D01*
X6516283Y7831025D01*
Y7818329D01*
X6503588Y7805633D01*
X6478196D01*
X6465500Y7818329D01*
X6541675Y7881808D02*
X6567067D01*
X6554371D01*
Y7805633D01*
X6541675D01*
X6567067D01*
X6655938Y7869112D02*
X6643242Y7881808D01*
X6617851D01*
X6605155Y7869112D01*
Y7818329D01*
X6617851Y7805633D01*
X6643242D01*
X6655938Y7818329D01*
Y7843721D01*
X6630547D01*
X7572940Y5921340D02*
Y5997516D01*
X7611028D01*
X7623723Y5984820D01*
Y5959428D01*
X7611028Y5946732D01*
X7572940D01*
X7598332D02*
X7623723Y5921340D01*
X7687203D02*
Y5997516D01*
X7649115Y5959428D01*
X7699899D01*
X7725291Y5984820D02*
X7737987Y5997516D01*
X7763378D01*
X7776074Y5984820D01*
Y5972124D01*
X7763378Y5959428D01*
X7776074Y5946732D01*
Y5934036D01*
X7763378Y5921340D01*
X7737987D01*
X7725291Y5934036D01*
Y5946732D01*
X7737987Y5959428D01*
X7725291Y5972124D01*
Y5984820D01*
X7737987Y5959428D02*
X7763378D01*
X7834560Y5976556D02*
Y5900380D01*
X7872648D01*
X7885343Y5913076D01*
Y5963860D01*
X7872648Y5976556D01*
X7834560D01*
X7910735Y5900380D02*
X7936127D01*
X7923431D01*
Y5976556D01*
X7910735Y5963860D01*
X7974215D02*
X7986911Y5976556D01*
X8012302D01*
X8024998Y5963860D01*
Y5913076D01*
X8012302Y5900380D01*
X7986911D01*
X7974215Y5913076D01*
Y5963860D01*
X3845075Y6616059D02*
X3832379Y6603363D01*
Y6577971D01*
X3845075Y6565275D01*
X3895858D01*
X3908554Y6577971D01*
Y6603363D01*
X3895858Y6616059D01*
X3845075Y6641451D02*
X3832379Y6654146D01*
Y6679538D01*
X3845075Y6692234D01*
X3857771D01*
X3870466Y6679538D01*
Y6666842D01*
Y6679538D01*
X3883162Y6692234D01*
X3895858D01*
X3908554Y6679538D01*
Y6654146D01*
X3895858Y6641451D01*
X3845075Y6717626D02*
X3832379Y6730322D01*
Y6755714D01*
X3845075Y6768409D01*
X3895858D01*
X3908554Y6755714D01*
Y6730322D01*
X3895858Y6717626D01*
X3845075D01*
X3364160Y6941756D02*
Y6878276D01*
X3376856Y6865580D01*
X3402248D01*
X3414943Y6878276D01*
Y6941756D01*
X3440335Y6878276D02*
X3453031Y6865580D01*
X3478423D01*
X3491119Y6878276D01*
Y6929060D01*
X3478423Y6941756D01*
X3453031D01*
X3440335Y6929060D01*
Y6916364D01*
X3453031Y6903668D01*
X3491119D01*
X9754800Y7551380D02*
Y7627556D01*
X9792888D01*
X9805583Y7614860D01*
Y7589468D01*
X9792888Y7576772D01*
X9754800D01*
X9780192D02*
X9805583Y7551380D01*
X9830975Y7627556D02*
X9881759D01*
Y7614860D01*
X9830975Y7564076D01*
Y7551380D01*
X9945238D02*
Y7627556D01*
X9907151Y7589468D01*
X9957934D01*
X9364363Y7969587D02*
Y7893412D01*
X9402451D01*
X9415147Y7906108D01*
Y7956891D01*
X9402451Y7969587D01*
X9364363D01*
X9440539Y7893412D02*
X9465931D01*
X9453235D01*
Y7969587D01*
X9440539Y7956891D01*
X9504018D02*
X9516714Y7969587D01*
X9542106D01*
X9554802Y7956891D01*
Y7944195D01*
X9542106Y7931500D01*
X9529410D01*
X9542106D01*
X9554802Y7918804D01*
Y7906108D01*
X9542106Y7893412D01*
X9516714D01*
X9504018Y7906108D01*
X4086340Y7619944D02*
X4073644Y7607248D01*
Y7581856D01*
X4086340Y7569160D01*
X4137124D01*
X4149820Y7581856D01*
Y7607248D01*
X4137124Y7619944D01*
X4149820Y7696119D02*
Y7645336D01*
X4099036Y7696119D01*
X4086340D01*
X4073644Y7683424D01*
Y7658032D01*
X4086340Y7645336D01*
X4149820Y7759599D02*
X4073644D01*
X4111732Y7721511D01*
Y7772295D01*
X14217563Y7144976D02*
Y7195760D01*
X14204868Y7208456D01*
X14179475D01*
X14166780Y7195760D01*
Y7144976D01*
X14179475Y7132280D01*
X14204868D01*
X14192172Y7157672D02*
X14217563Y7132280D01*
X14204868D02*
X14217563Y7144976D01*
X14281042Y7132280D02*
Y7208456D01*
X14242955Y7170368D01*
X14293739D01*
X14400443Y7955236D02*
Y8006020D01*
X14387749Y8018716D01*
X14362357D01*
X14349660Y8006020D01*
Y7955236D01*
X14362357Y7942540D01*
X14387749D01*
X14375052Y7967932D02*
X14400443Y7942540D01*
X14387749D02*
X14400443Y7955236D01*
X14425835Y8006020D02*
X14438531Y8018716D01*
X14463924D01*
X14476619Y8006020D01*
Y7993324D01*
X14463924Y7980628D01*
X14451227D01*
X14463924D01*
X14476619Y7967932D01*
Y7955236D01*
X14463924Y7942540D01*
X14438531D01*
X14425835Y7955236D01*
X12157623Y7960316D02*
Y8011100D01*
X12144928Y8023796D01*
X12119536D01*
X12106840Y8011100D01*
Y7960316D01*
X12119536Y7947620D01*
X12144928D01*
X12132232Y7973012D02*
X12157623Y7947620D01*
X12144928D02*
X12157623Y7960316D01*
X12233799Y7947620D02*
X12183015D01*
X12233799Y7998404D01*
Y8011100D01*
X12221103Y8023796D01*
X12195711D01*
X12183015Y8011100D01*
X12076343Y7230615D02*
Y7281399D01*
X12063648Y7294095D01*
X12038256D01*
X12025560Y7281399D01*
Y7230615D01*
X12038256Y7217919D01*
X12063648D01*
X12050952Y7243311D02*
X12076343Y7217919D01*
X12063648D02*
X12076343Y7230615D01*
X12101735Y7217919D02*
X12127127D01*
X12114431D01*
Y7294095D01*
X12101735Y7281399D01*
X5157400Y7252890D02*
X5081225D01*
Y7290978D01*
X5093920Y7303674D01*
X5119312D01*
X5132008Y7290978D01*
Y7252890D01*
Y7278282D02*
X5157400Y7303674D01*
X5081225Y7329066D02*
Y7379849D01*
X5093920D01*
X5144704Y7329066D01*
X5157400D01*
Y7456024D02*
Y7405241D01*
X5106616Y7456024D01*
X5093920D01*
X5081225Y7443329D01*
Y7417937D01*
X5093920Y7405241D01*
X3610540Y7456931D02*
Y7393452D01*
X3623236Y7380756D01*
X3648628D01*
X3661323Y7393452D01*
Y7456931D01*
X3686715Y7444236D02*
X3699411Y7456931D01*
X3724803D01*
X3737499Y7444236D01*
Y7431540D01*
X3724803Y7418844D01*
X3712107D01*
X3724803D01*
X3737499Y7406148D01*
Y7393452D01*
X3724803Y7380756D01*
X3699411D01*
X3686715Y7393452D01*
X5690800Y7505796D02*
Y7442316D01*
X5703496Y7429620D01*
X5728888D01*
X5741583Y7442316D01*
Y7505796D01*
X5766975Y7429620D02*
X5792367D01*
X5779671D01*
Y7505796D01*
X5766975Y7493100D01*
X8510400Y7214879D02*
Y7151400D01*
X8523096Y7138704D01*
X8548488D01*
X8561184Y7151400D01*
Y7214879D01*
X8586576Y7202183D02*
X8599272Y7214879D01*
X8624663D01*
X8637359Y7202183D01*
Y7189487D01*
X8624663Y7176792D01*
X8637359Y7164096D01*
Y7151400D01*
X8624663Y7138704D01*
X8599272D01*
X8586576Y7151400D01*
Y7164096D01*
X8599272Y7176792D01*
X8586576Y7189487D01*
Y7202183D01*
X8599272Y7176792D02*
X8624663D01*
X9358200Y6939216D02*
Y6875736D01*
X9370896Y6863040D01*
X9396288D01*
X9408984Y6875736D01*
Y6939216D01*
X9485159D02*
X9459767Y6926520D01*
X9434376Y6901128D01*
Y6875736D01*
X9447072Y6863040D01*
X9472463D01*
X9485159Y6875736D01*
Y6888432D01*
X9472463Y6901128D01*
X9434376D01*
X9325900Y7072975D02*
Y6996799D01*
X9363987D01*
X9376683Y7009495D01*
Y7060279D01*
X9363987Y7072975D01*
X9325900D01*
X9402075Y7009495D02*
X9414771Y6996799D01*
X9440163D01*
X9452858Y7009495D01*
Y7060279D01*
X9440163Y7072975D01*
X9414771D01*
X9402075Y7060279D01*
Y7047583D01*
X9414771Y7034887D01*
X9452858D01*
X9292520Y6708076D02*
Y6644596D01*
X9305216Y6631900D01*
X9330608D01*
X9343303Y6644596D01*
Y6708076D01*
X9368695D02*
X9419479D01*
Y6695380D01*
X9368695Y6644596D01*
Y6631900D01*
X5223440Y7507656D02*
Y7444176D01*
X5236136Y7431480D01*
X5261528D01*
X5274223Y7444176D01*
Y7507656D01*
X5350399D02*
X5299615D01*
Y7469568D01*
X5325007Y7482264D01*
X5337703D01*
X5350399Y7469568D01*
Y7444176D01*
X5337703Y7431480D01*
X5312311D01*
X5299615Y7444176D01*
X3774448Y7407449D02*
X3837927D01*
X3850623Y7420145D01*
Y7445537D01*
X3837927Y7458233D01*
X3774448D01*
X3850623Y7521712D02*
X3774448D01*
X3812535Y7483625D01*
Y7534408D01*
X8614340Y5962260D02*
X8538165D01*
Y6000348D01*
X8550860Y6013044D01*
X8576252D01*
X8588948Y6000348D01*
Y5962260D01*
Y5987652D02*
X8614340Y6013044D01*
X8538165Y6089219D02*
X8550860Y6063828D01*
X8576252Y6038436D01*
X8601644D01*
X8614340Y6051132D01*
Y6076524D01*
X8601644Y6089219D01*
X8588948D01*
X8576252Y6076524D01*
Y6038436D01*
X8550860Y6114611D02*
X8538165Y6127307D01*
Y6152699D01*
X8550860Y6165395D01*
X8563556D01*
X8576252Y6152699D01*
Y6140003D01*
Y6152699D01*
X8588948Y6165395D01*
X8601644D01*
X8614340Y6152699D01*
Y6127307D01*
X8601644Y6114611D01*
X8512740Y5961340D02*
X8436565D01*
Y5999428D01*
X8449260Y6012124D01*
X8474652D01*
X8487348Y5999428D01*
Y5961340D01*
Y5986732D02*
X8512740Y6012124D01*
X8436565Y6088299D02*
X8449260Y6062908D01*
X8474652Y6037516D01*
X8500044D01*
X8512740Y6050212D01*
Y6075604D01*
X8500044Y6088299D01*
X8487348D01*
X8474652Y6075604D01*
Y6037516D01*
X8512740Y6164475D02*
Y6113691D01*
X8461956Y6164475D01*
X8449260D01*
X8436565Y6151779D01*
Y6126387D01*
X8449260Y6113691D01*
X8637901Y5958800D02*
Y6034976D01*
X8675989D01*
X8688684Y6022280D01*
Y5996888D01*
X8675989Y5984192D01*
X8637901D01*
X8663293D02*
X8688684Y5958800D01*
X8764860Y6034976D02*
X8739468Y6022280D01*
X8714076Y5996888D01*
Y5971496D01*
X8726772Y5958800D01*
X8752164D01*
X8764860Y5971496D01*
Y5984192D01*
X8752164Y5996888D01*
X8714076D01*
X8790252Y5958800D02*
X8815644D01*
X8802948D01*
Y6034976D01*
X8790252Y6022280D01*
X9662607Y6434600D02*
Y6510776D01*
X9700695D01*
X9713390Y6498080D01*
Y6472688D01*
X9700695Y6459992D01*
X9662607D01*
X9687999D02*
X9713390Y6434600D01*
X9789566Y6510776D02*
X9764174Y6498080D01*
X9738782Y6472688D01*
Y6447296D01*
X9751478Y6434600D01*
X9776870D01*
X9789566Y6447296D01*
Y6459992D01*
X9776870Y6472688D01*
X9738782D01*
X9814958Y6498080D02*
X9827653Y6510776D01*
X9853045D01*
X9865741Y6498080D01*
Y6447296D01*
X9853045Y6434600D01*
X9827653D01*
X9814958Y6447296D01*
Y6498080D01*
X9650660Y6076320D02*
Y6152496D01*
X9688748D01*
X9701443Y6139800D01*
Y6114408D01*
X9688748Y6101712D01*
X9650660D01*
X9676052D02*
X9701443Y6076320D01*
X9777619Y6152496D02*
X9726835D01*
Y6114408D01*
X9752227Y6127104D01*
X9764923D01*
X9777619Y6114408D01*
Y6089016D01*
X9764923Y6076320D01*
X9739531D01*
X9726835Y6089016D01*
X9803011D02*
X9815707Y6076320D01*
X9841098D01*
X9853794Y6089016D01*
Y6139800D01*
X9841098Y6152496D01*
X9815707D01*
X9803011Y6139800D01*
Y6127104D01*
X9815707Y6114408D01*
X9853794D01*
X8207741Y6066400D02*
Y6142576D01*
X8245829D01*
X8258525Y6129880D01*
Y6104488D01*
X8245829Y6091792D01*
X8207741D01*
X8233133D02*
X8258525Y6066400D01*
X8334700Y6142576D02*
X8283917D01*
Y6104488D01*
X8309309Y6117184D01*
X8322004D01*
X8334700Y6104488D01*
Y6079096D01*
X8322004Y6066400D01*
X8296613D01*
X8283917Y6079096D01*
X8360092Y6129880D02*
X8372788Y6142576D01*
X8398180D01*
X8410875Y6129880D01*
Y6117184D01*
X8398180Y6104488D01*
X8410875Y6091792D01*
Y6079096D01*
X8398180Y6066400D01*
X8372788D01*
X8360092Y6079096D01*
Y6091792D01*
X8372788Y6104488D01*
X8360092Y6117184D01*
Y6129880D01*
X8372788Y6104488D02*
X8398180D01*
X8205440Y5962260D02*
Y6038436D01*
X8243528D01*
X8256224Y6025740D01*
Y6000348D01*
X8243528Y5987652D01*
X8205440D01*
X8230832D02*
X8256224Y5962260D01*
X8332399Y6038436D02*
X8281616D01*
Y6000348D01*
X8307008Y6013044D01*
X8319703D01*
X8332399Y6000348D01*
Y5974956D01*
X8319703Y5962260D01*
X8294312D01*
X8281616Y5974956D01*
X8357791Y6038436D02*
X8408574D01*
Y6025740D01*
X8357791Y5974956D01*
Y5962260D01*
X9668440Y6204378D02*
Y6280554D01*
X9706528D01*
X9719223Y6267858D01*
Y6242466D01*
X9706528Y6229770D01*
X9668440D01*
X9693832D02*
X9719223Y6204378D01*
X9795399Y6280554D02*
X9744615D01*
Y6242466D01*
X9770007Y6255162D01*
X9782703D01*
X9795399Y6242466D01*
Y6217074D01*
X9782703Y6204378D01*
X9757311D01*
X9744615Y6217074D01*
X9871574Y6280554D02*
X9846182Y6267858D01*
X9820791Y6242466D01*
Y6217074D01*
X9833487Y6204378D01*
X9858878D01*
X9871574Y6217074D01*
Y6229770D01*
X9858878Y6242466D01*
X9820791D01*
X5655982Y7801860D02*
Y7878036D01*
X5694069D01*
X5706765Y7865340D01*
Y7839948D01*
X5694069Y7827252D01*
X5655982D01*
X5681373D02*
X5706765Y7801860D01*
X5782940Y7878036D02*
X5732157D01*
Y7839948D01*
X5757549Y7852644D01*
X5770245D01*
X5782940Y7839948D01*
Y7814556D01*
X5770245Y7801860D01*
X5744853D01*
X5732157Y7814556D01*
X5859116Y7878036D02*
X5808332D01*
Y7839948D01*
X5833724Y7852644D01*
X5846420D01*
X5859116Y7839948D01*
Y7814556D01*
X5846420Y7801860D01*
X5821028D01*
X5808332Y7814556D01*
X4905779Y7698110D02*
Y7774285D01*
X4943867D01*
X4956563Y7761590D01*
Y7736198D01*
X4943867Y7723502D01*
X4905779D01*
X4931171D02*
X4956563Y7698110D01*
X5032738Y7774285D02*
X4981954D01*
Y7736198D01*
X5007346Y7748894D01*
X5020042D01*
X5032738Y7736198D01*
Y7710806D01*
X5020042Y7698110D01*
X4994650D01*
X4981954Y7710806D01*
X5096218Y7698110D02*
Y7774285D01*
X5058130Y7736198D01*
X5108913D01*
X4907199Y7804790D02*
Y7880965D01*
X4945287D01*
X4957983Y7868270D01*
Y7842878D01*
X4945287Y7830182D01*
X4907199D01*
X4932591D02*
X4957983Y7804790D01*
X5034158Y7880965D02*
X4983375D01*
Y7842878D01*
X5008766Y7855574D01*
X5021462D01*
X5034158Y7842878D01*
Y7817486D01*
X5021462Y7804790D01*
X4996071D01*
X4983375Y7817486D01*
X5059550Y7868270D02*
X5072246Y7880965D01*
X5097638D01*
X5110333Y7868270D01*
Y7855574D01*
X5097638Y7842878D01*
X5084942D01*
X5097638D01*
X5110333Y7830182D01*
Y7817486D01*
X5097638Y7804790D01*
X5072246D01*
X5059550Y7817486D01*
X4907199Y7911470D02*
Y7987645D01*
X4945287D01*
X4957983Y7974950D01*
Y7949558D01*
X4945287Y7936862D01*
X4907199D01*
X4932591D02*
X4957983Y7911470D01*
X5034158Y7987645D02*
X4983375D01*
Y7949558D01*
X5008766Y7962254D01*
X5021462D01*
X5034158Y7949558D01*
Y7924166D01*
X5021462Y7911470D01*
X4996071D01*
X4983375Y7924166D01*
X5110333Y7911470D02*
X5059550D01*
X5110333Y7962254D01*
Y7974950D01*
X5097638Y7987645D01*
X5072246D01*
X5059550Y7974950D01*
X3702101Y6821194D02*
Y6897369D01*
X3740188D01*
X3752884Y6884674D01*
Y6859282D01*
X3740188Y6846586D01*
X3702101D01*
X3727492D02*
X3752884Y6821194D01*
X3829059Y6897369D02*
X3778276D01*
Y6859282D01*
X3803668Y6871978D01*
X3816364D01*
X3829059Y6859282D01*
Y6833890D01*
X3816364Y6821194D01*
X3790972D01*
X3778276Y6833890D01*
X3854451Y6821194D02*
X3879843D01*
X3867147D01*
Y6897369D01*
X3854451Y6884674D01*
X3745160Y7155140D02*
X3668985D01*
Y7193228D01*
X3681680Y7205924D01*
X3707072D01*
X3719768Y7193228D01*
Y7155140D01*
Y7180532D02*
X3745160Y7205924D01*
Y7269404D02*
X3668985D01*
X3707072Y7231316D01*
Y7282099D01*
X3732464Y7307491D02*
X3745160Y7320187D01*
Y7345579D01*
X3732464Y7358275D01*
X3681680D01*
X3668985Y7345579D01*
Y7320187D01*
X3681680Y7307491D01*
X3694376D01*
X3707072Y7320187D01*
Y7358275D01*
X4545923Y5943168D02*
X4469748D01*
Y5981256D01*
X4482444Y5993952D01*
X4507836D01*
X4520531Y5981256D01*
Y5943168D01*
Y5968560D02*
X4545923Y5993952D01*
Y6057431D02*
X4469748D01*
X4507836Y6019344D01*
Y6070127D01*
X4469748Y6095519D02*
Y6146302D01*
X4482444D01*
X4533227Y6095519D01*
X4545923D01*
X4433500Y5938897D02*
X4357325D01*
Y5976985D01*
X4370020Y5989681D01*
X4395412D01*
X4408108Y5976985D01*
Y5938897D01*
Y5964289D02*
X4433500Y5989681D01*
Y6053160D02*
X4357325D01*
X4395412Y6015073D01*
Y6065856D01*
X4357325Y6142031D02*
X4370020Y6116640D01*
X4395412Y6091248D01*
X4420804D01*
X4433500Y6103944D01*
Y6129336D01*
X4420804Y6142031D01*
X4408108D01*
X4395412Y6129336D01*
Y6091248D01*
X4705280Y7097990D02*
X4629105D01*
Y7136078D01*
X4641800Y7148774D01*
X4667192D01*
X4679888Y7136078D01*
Y7097990D01*
Y7123382D02*
X4705280Y7148774D01*
Y7212254D02*
X4629105D01*
X4667192Y7174166D01*
Y7224949D01*
X4629105Y7301125D02*
Y7250341D01*
X4667192D01*
X4654496Y7275733D01*
Y7288429D01*
X4667192Y7301125D01*
X4692584D01*
X4705280Y7288429D01*
Y7263037D01*
X4692584Y7250341D01*
X5053260Y7252890D02*
X4977085D01*
Y7290978D01*
X4989780Y7303674D01*
X5015172D01*
X5027868Y7290978D01*
Y7252890D01*
Y7278282D02*
X5053260Y7303674D01*
Y7367153D02*
X4977085D01*
X5015172Y7329066D01*
Y7379849D01*
X5053260Y7443329D02*
X4977085D01*
X5015172Y7405241D01*
Y7456024D01*
X5655240Y7674367D02*
Y7750542D01*
X5693328D01*
X5706023Y7737846D01*
Y7712454D01*
X5693328Y7699759D01*
X5655240D01*
X5680632D02*
X5706023Y7674367D01*
X5769503D02*
Y7750542D01*
X5731415Y7712454D01*
X5782199D01*
X5807591Y7737846D02*
X5820287Y7750542D01*
X5845678D01*
X5858374Y7737846D01*
Y7725150D01*
X5845678Y7712454D01*
X5832982D01*
X5845678D01*
X5858374Y7699759D01*
Y7687063D01*
X5845678Y7674367D01*
X5820287D01*
X5807591Y7687063D01*
X4827437Y6388060D02*
X4751262D01*
Y6426148D01*
X4763958Y6438844D01*
X4789350D01*
X4802046Y6426148D01*
Y6388060D01*
Y6413452D02*
X4827437Y6438844D01*
Y6502324D02*
X4751262D01*
X4789350Y6464236D01*
Y6515019D01*
X4827437Y6591195D02*
Y6540411D01*
X4776654Y6591195D01*
X4763958D01*
X4751262Y6578499D01*
Y6553107D01*
X4763958Y6540411D01*
X5970200Y7282140D02*
X5894025D01*
Y7320228D01*
X5906720Y7332924D01*
X5932112D01*
X5944808Y7320228D01*
Y7282140D01*
Y7307532D02*
X5970200Y7332924D01*
Y7396404D02*
X5894025D01*
X5932112Y7358316D01*
Y7409099D01*
X5970200Y7434491D02*
Y7459883D01*
Y7447187D01*
X5894025D01*
X5906720Y7434491D01*
X6084500Y7285120D02*
X6008325D01*
Y7323208D01*
X6021020Y7335904D01*
X6046412D01*
X6059108Y7323208D01*
Y7285120D01*
Y7310512D02*
X6084500Y7335904D01*
Y7399383D02*
X6008325D01*
X6046412Y7361296D01*
Y7412079D01*
X6021020Y7437471D02*
X6008325Y7450167D01*
Y7475559D01*
X6021020Y7488255D01*
X6071804D01*
X6084500Y7475559D01*
Y7450167D01*
X6071804Y7437471D01*
X6021020D01*
X9270539Y7490508D02*
X9194364D01*
Y7528596D01*
X9207060Y7541291D01*
X9232451D01*
X9245147Y7528596D01*
Y7490508D01*
Y7515900D02*
X9270539Y7541291D01*
X9207060Y7566683D02*
X9194364Y7579379D01*
Y7604771D01*
X9207060Y7617467D01*
X9219755D01*
X9232451Y7604771D01*
Y7592075D01*
Y7604771D01*
X9245147Y7617467D01*
X9257843D01*
X9270539Y7604771D01*
Y7579379D01*
X9257843Y7566683D01*
Y7642858D02*
X9270539Y7655554D01*
Y7680946D01*
X9257843Y7693642D01*
X9207060D01*
X9194364Y7680946D01*
Y7655554D01*
X9207060Y7642858D01*
X9219755D01*
X9232451Y7655554D01*
Y7693642D01*
X8808120Y7212120D02*
X8731944D01*
Y7250208D01*
X8744640Y7262904D01*
X8770032D01*
X8782728Y7250208D01*
Y7212120D01*
Y7237512D02*
X8808120Y7262904D01*
X8744640Y7288296D02*
X8731944Y7300991D01*
Y7326383D01*
X8744640Y7339079D01*
X8757336D01*
X8770032Y7326383D01*
Y7313687D01*
Y7326383D01*
X8782728Y7339079D01*
X8795424D01*
X8808120Y7326383D01*
Y7300991D01*
X8795424Y7288296D01*
X8744640Y7364471D02*
X8731944Y7377167D01*
Y7402559D01*
X8744640Y7415254D01*
X8757336D01*
X8770032Y7402559D01*
X8782728Y7415254D01*
X8795424D01*
X8808120Y7402559D01*
Y7377167D01*
X8795424Y7364471D01*
X8782728D01*
X8770032Y7377167D01*
X8757336Y7364471D01*
X8744640D01*
X8770032Y7377167D02*
Y7402559D01*
X4832280Y6746380D02*
Y6822556D01*
X4870368D01*
X4883063Y6809860D01*
Y6784468D01*
X4870368Y6771772D01*
X4832280D01*
X4857672D02*
X4883063Y6746380D01*
X4908455Y6809860D02*
X4921151Y6822556D01*
X4946543D01*
X4959239Y6809860D01*
Y6797164D01*
X4946543Y6784468D01*
X4933847D01*
X4946543D01*
X4959239Y6771772D01*
Y6759076D01*
X4946543Y6746380D01*
X4921151D01*
X4908455Y6759076D01*
X5035414Y6822556D02*
X5010022Y6809860D01*
X4984631Y6784468D01*
Y6759076D01*
X4997327Y6746380D01*
X5022718D01*
X5035414Y6759076D01*
Y6771772D01*
X5022718Y6784468D01*
X4984631D01*
X5155320Y6760371D02*
Y6811154D01*
X5142624Y6823850D01*
X5117233D01*
X5104537Y6811154D01*
Y6760371D01*
X5117233Y6747675D01*
X5142624D01*
X5129929Y6773067D02*
X5155320Y6747675D01*
X5142624D02*
X5155320Y6760371D01*
X5180712Y6823850D02*
X5231496D01*
Y6811154D01*
X5180712Y6760371D01*
Y6747675D01*
X3051723Y6239314D02*
Y6290097D01*
X3039028Y6302793D01*
X3013636D01*
X3000940Y6290097D01*
Y6239314D01*
X3013636Y6226618D01*
X3039028D01*
X3026332Y6252010D02*
X3051723Y6226618D01*
X3039028D02*
X3051723Y6239314D01*
X3127899Y6302793D02*
X3102507Y6290097D01*
X3077115Y6264706D01*
Y6239314D01*
X3089811Y6226618D01*
X3115203D01*
X3127899Y6239314D01*
Y6252010D01*
X3115203Y6264706D01*
X3077115D01*
X3490906Y6388056D02*
Y6438840D01*
X3478210Y6451536D01*
X3452818D01*
X3440122Y6438840D01*
Y6388056D01*
X3452818Y6375360D01*
X3478210D01*
X3465514Y6400752D02*
X3490906Y6375360D01*
X3478210D02*
X3490906Y6388056D01*
X3567081Y6451536D02*
X3516298D01*
Y6413448D01*
X3541690Y6426144D01*
X3554386D01*
X3567081Y6413448D01*
Y6388056D01*
X3554386Y6375360D01*
X3528994D01*
X3516298Y6388056D01*
X7872660Y8044532D02*
Y7968357D01*
X7923443D01*
X7948835Y8031836D02*
X7961531Y8044532D01*
X7986923D01*
X7999619Y8031836D01*
Y8019140D01*
X7986923Y8006445D01*
X7974227D01*
X7986923D01*
X7999619Y7993749D01*
Y7981053D01*
X7986923Y7968357D01*
X7961531D01*
X7948835Y7981053D01*
X11946820Y6702655D02*
Y6626479D01*
X11984908D01*
X11997603Y6639175D01*
Y6689959D01*
X11984908Y6702655D01*
X11946820D01*
X12022995D02*
X12073779D01*
Y6689959D01*
X12022995Y6639175D01*
Y6626479D01*
X4997380Y7205916D02*
Y7129740D01*
X5035468D01*
X5048163Y7142436D01*
Y7193220D01*
X5035468Y7205916D01*
X4997380D01*
X5124339D02*
X5098947Y7193220D01*
X5073555Y7167828D01*
Y7142436D01*
X5086251Y7129740D01*
X5111643D01*
X5124339Y7142436D01*
Y7155132D01*
X5111643Y7167828D01*
X5073555D01*
X7593243Y7393880D02*
X7580548Y7406576D01*
X7555156D01*
X7542460Y7393880D01*
Y7343096D01*
X7555156Y7330400D01*
X7580548D01*
X7593243Y7343096D01*
X7618635Y7393880D02*
X7631331Y7406576D01*
X7656723D01*
X7669419Y7393880D01*
Y7381184D01*
X7656723Y7368488D01*
X7669419Y7355792D01*
Y7343096D01*
X7656723Y7330400D01*
X7631331D01*
X7618635Y7343096D01*
Y7355792D01*
X7631331Y7368488D01*
X7618635Y7381184D01*
Y7393880D01*
X7631331Y7368488D02*
X7656723D01*
X7694811Y7393880D02*
X7707507Y7406576D01*
X7732898D01*
X7745594Y7393880D01*
Y7343096D01*
X7732898Y7330400D01*
X7707507D01*
X7694811Y7343096D01*
Y7393880D01*
X7905663D02*
X7892968Y7406576D01*
X7867576D01*
X7854880Y7393880D01*
Y7343096D01*
X7867576Y7330400D01*
X7892968D01*
X7905663Y7343096D01*
X7931055Y7406576D02*
X7981839D01*
Y7393880D01*
X7931055Y7343096D01*
Y7330400D01*
X8007231Y7343096D02*
X8019927Y7330400D01*
X8045318D01*
X8058014Y7343096D01*
Y7393880D01*
X8045318Y7406576D01*
X8019927D01*
X8007231Y7393880D01*
Y7381184D01*
X8019927Y7368488D01*
X8058014D01*
X8233323Y7398960D02*
X8220628Y7411656D01*
X8195236D01*
X8182540Y7398960D01*
Y7348176D01*
X8195236Y7335480D01*
X8220628D01*
X8233323Y7348176D01*
X8258715Y7411656D02*
X8309499D01*
Y7398960D01*
X8258715Y7348176D01*
Y7335480D01*
X8334891Y7398960D02*
X8347587Y7411656D01*
X8372978D01*
X8385674Y7398960D01*
Y7386264D01*
X8372978Y7373568D01*
X8385674Y7360872D01*
Y7348176D01*
X8372978Y7335480D01*
X8347587D01*
X8334891Y7348176D01*
Y7360872D01*
X8347587Y7373568D01*
X8334891Y7386264D01*
Y7398960D01*
X8347587Y7373568D02*
X8372978D01*
X8754023Y6685220D02*
X8741328Y6697916D01*
X8715936D01*
X8703240Y6685220D01*
Y6634436D01*
X8715936Y6621740D01*
X8741328D01*
X8754023Y6634436D01*
X8779415Y6697916D02*
X8830199D01*
Y6685220D01*
X8779415Y6634436D01*
Y6621740D01*
X8855591Y6697916D02*
X8906374D01*
Y6685220D01*
X8855591Y6634436D01*
Y6621740D01*
X8256220Y6361572D02*
X8243525Y6348876D01*
Y6323484D01*
X8256220Y6310788D01*
X8307004D01*
X8319700Y6323484D01*
Y6348876D01*
X8307004Y6361572D01*
X8243525Y6386964D02*
Y6437747D01*
X8256220D01*
X8307004Y6386964D01*
X8319700D01*
X8243525Y6513922D02*
X8256220Y6488531D01*
X8281612Y6463139D01*
X8307004D01*
X8319700Y6475835D01*
Y6501227D01*
X8307004Y6513922D01*
X8294308D01*
X8281612Y6501227D01*
Y6463139D01*
X9714318Y6622530D02*
X9701622Y6635225D01*
X9676230D01*
X9663534Y6622530D01*
Y6571746D01*
X9676230Y6559050D01*
X9701622D01*
X9714318Y6571746D01*
X9739710Y6635225D02*
X9790493D01*
Y6622530D01*
X9739710Y6571746D01*
Y6559050D01*
X9866669Y6635225D02*
X9815885D01*
Y6597138D01*
X9841277Y6609834D01*
X9853973D01*
X9866669Y6597138D01*
Y6571746D01*
X9853973Y6559050D01*
X9828581D01*
X9815885Y6571746D01*
X10013603Y7047786D02*
X10000907Y7060482D01*
X9975515D01*
X9962819Y7047786D01*
Y6997002D01*
X9975515Y6984306D01*
X10000907D01*
X10013603Y6997002D01*
X10038994Y7060482D02*
X10089778D01*
Y7047786D01*
X10038994Y6997002D01*
Y6984306D01*
X10153258D02*
Y7060482D01*
X10115170Y7022394D01*
X10165953D01*
X10341792Y7047782D02*
X10329097Y7060478D01*
X10303705D01*
X10291009Y7047782D01*
Y6996999D01*
X10303705Y6984303D01*
X10329097D01*
X10341792Y6996999D01*
X10367184Y7060478D02*
X10417968D01*
Y7047782D01*
X10367184Y6996999D01*
Y6984303D01*
X10443360Y7047782D02*
X10456056Y7060478D01*
X10481447D01*
X10494143Y7047782D01*
Y7035086D01*
X10481447Y7022391D01*
X10468751D01*
X10481447D01*
X10494143Y7009695D01*
Y6996999D01*
X10481447Y6984303D01*
X10456056D01*
X10443360Y6996999D01*
X10956776Y6667428D02*
X10944080Y6654732D01*
Y6629341D01*
X10956776Y6616645D01*
X11007559D01*
X11020255Y6629341D01*
Y6654732D01*
X11007559Y6667428D01*
X10944080Y6692820D02*
Y6743603D01*
X10956776D01*
X11007559Y6692820D01*
X11020255D01*
Y6819779D02*
Y6768995D01*
X10969472Y6819779D01*
X10956776D01*
X10944080Y6807083D01*
Y6781691D01*
X10956776Y6768995D01*
X9904680Y7391668D02*
X9891985Y7378973D01*
Y7353581D01*
X9904680Y7340885D01*
X9955464D01*
X9968160Y7353581D01*
Y7378973D01*
X9955464Y7391668D01*
X9891985Y7417060D02*
Y7467844D01*
X9904680D01*
X9955464Y7417060D01*
X9968160D01*
Y7493236D02*
Y7518628D01*
Y7505932D01*
X9891985D01*
X9904680Y7493236D01*
Y7143581D02*
X9891985Y7130885D01*
Y7105493D01*
X9904680Y7092797D01*
X9955464D01*
X9968160Y7105493D01*
Y7130885D01*
X9955464Y7143581D01*
X9891985Y7168972D02*
Y7219756D01*
X9904680D01*
X9955464Y7168972D01*
X9968160D01*
X9904680Y7245148D02*
X9891985Y7257844D01*
Y7283236D01*
X9904680Y7295931D01*
X9955464D01*
X9968160Y7283236D01*
Y7257844D01*
X9955464Y7245148D01*
X9904680D01*
X8202843Y6236560D02*
X8190148Y6249256D01*
X8164756D01*
X8152060Y6236560D01*
Y6185776D01*
X8164756Y6173080D01*
X8190148D01*
X8202843Y6185776D01*
X8279019Y6249256D02*
X8253627Y6236560D01*
X8228235Y6211168D01*
Y6185776D01*
X8240931Y6173080D01*
X8266323D01*
X8279019Y6185776D01*
Y6198472D01*
X8266323Y6211168D01*
X8228235D01*
X8304411Y6185776D02*
X8317107Y6173080D01*
X8342498D01*
X8355194Y6185776D01*
Y6236560D01*
X8342498Y6249256D01*
X8317107D01*
X8304411Y6236560D01*
Y6223864D01*
X8317107Y6211168D01*
X8355194D01*
X9711603Y6384603D02*
X9698908Y6397299D01*
X9673516D01*
X9660820Y6384603D01*
Y6333820D01*
X9673516Y6321124D01*
X9698908D01*
X9711603Y6333820D01*
X9787779Y6397299D02*
X9762387Y6384603D01*
X9736995Y6359212D01*
Y6333820D01*
X9749691Y6321124D01*
X9775083D01*
X9787779Y6333820D01*
Y6346516D01*
X9775083Y6359212D01*
X9736995D01*
X9813171Y6384603D02*
X9825867Y6397299D01*
X9851258D01*
X9863954Y6384603D01*
Y6371907D01*
X9851258Y6359212D01*
X9863954Y6346516D01*
Y6333820D01*
X9851258Y6321124D01*
X9825867D01*
X9813171Y6333820D01*
Y6346516D01*
X9825867Y6359212D01*
X9813171Y6371907D01*
Y6384603D01*
X9825867Y6359212D02*
X9851258D01*
X9040390Y6708084D02*
X9027694Y6695388D01*
Y6669996D01*
X9040390Y6657300D01*
X9091174D01*
X9103870Y6669996D01*
Y6695388D01*
X9091174Y6708084D01*
X9027694Y6784259D02*
X9040390Y6758868D01*
X9065782Y6733476D01*
X9091174D01*
X9103870Y6746172D01*
Y6771564D01*
X9091174Y6784259D01*
X9078478D01*
X9065782Y6771564D01*
Y6733476D01*
X9027694Y6809651D02*
Y6860435D01*
X9040390D01*
X9091174Y6809651D01*
X9103870D01*
X5675543Y7993520D02*
X5662848Y8006216D01*
X5637456D01*
X5624760Y7993520D01*
Y7942736D01*
X5637456Y7930041D01*
X5662848D01*
X5675543Y7942736D01*
X5751719Y8006216D02*
X5726327Y7993520D01*
X5700935Y7968128D01*
Y7942736D01*
X5713631Y7930041D01*
X5739023D01*
X5751719Y7942736D01*
Y7955432D01*
X5739023Y7968128D01*
X5700935D01*
X5827894Y8006216D02*
X5802502Y7993520D01*
X5777111Y7968128D01*
Y7942736D01*
X5789807Y7930041D01*
X5815198D01*
X5827894Y7942736D01*
Y7955432D01*
X5815198Y7968128D01*
X5777111D01*
X3254960Y6845941D02*
X3242265Y6833245D01*
Y6807853D01*
X3254960Y6795157D01*
X3305744D01*
X3318440Y6807853D01*
Y6833245D01*
X3305744Y6845941D01*
X3242265Y6922116D02*
X3254960Y6896724D01*
X3280352Y6871332D01*
X3305744D01*
X3318440Y6884028D01*
Y6909420D01*
X3305744Y6922116D01*
X3293048D01*
X3280352Y6909420D01*
Y6871332D01*
X3254960Y6947508D02*
X3242265Y6960204D01*
Y6985596D01*
X3254960Y6998291D01*
X3267656D01*
X3280352Y6985596D01*
Y6972900D01*
Y6985596D01*
X3293048Y6998291D01*
X3305744D01*
X3318440Y6985596D01*
Y6960204D01*
X3305744Y6947508D01*
X3348940Y6382904D02*
X3336245Y6370208D01*
Y6344816D01*
X3348940Y6332120D01*
X3399724D01*
X3412420Y6344816D01*
Y6370208D01*
X3399724Y6382904D01*
X3336245Y6459079D02*
X3348940Y6433688D01*
X3374332Y6408296D01*
X3399724D01*
X3412420Y6420992D01*
Y6446384D01*
X3399724Y6459079D01*
X3387028D01*
X3374332Y6446384D01*
Y6408296D01*
X3412420Y6484471D02*
Y6509863D01*
Y6497167D01*
X3336245D01*
X3348940Y6484471D01*
X4217583Y7748964D02*
X4204888Y7761660D01*
X4179496D01*
X4166800Y7748964D01*
Y7698180D01*
X4179496Y7685484D01*
X4204888D01*
X4217583Y7698180D01*
X4293759Y7761660D02*
X4242975D01*
Y7723572D01*
X4268367Y7736268D01*
X4281063D01*
X4293759Y7723572D01*
Y7698180D01*
X4281063Y7685484D01*
X4255671D01*
X4242975Y7698180D01*
X4319151D02*
X4331847Y7685484D01*
X4357238D01*
X4369934Y7698180D01*
Y7748964D01*
X4357238Y7761660D01*
X4331847D01*
X4319151Y7748964D01*
Y7736268D01*
X4331847Y7723572D01*
X4369934D01*
X4573407Y7406580D02*
X4560711Y7419276D01*
X4535319D01*
X4522623Y7406580D01*
Y7355796D01*
X4535319Y7343100D01*
X4560711D01*
X4573407Y7355796D01*
X4649582Y7419276D02*
X4598799D01*
Y7381188D01*
X4624190Y7393884D01*
X4636886D01*
X4649582Y7381188D01*
Y7355796D01*
X4636886Y7343100D01*
X4611494D01*
X4598799Y7355796D01*
X4674974Y7406580D02*
X4687670Y7419276D01*
X4713062D01*
X4725757Y7406580D01*
Y7393884D01*
X4713062Y7381188D01*
X4725757Y7368492D01*
Y7355796D01*
X4713062Y7343100D01*
X4687670D01*
X4674974Y7355796D01*
Y7368492D01*
X4687670Y7381188D01*
X4674974Y7393884D01*
Y7406580D01*
X4687670Y7381188D02*
X4713062D01*
X3612730Y6415984D02*
X3600034Y6403288D01*
Y6377896D01*
X3612730Y6365200D01*
X3663514D01*
X3676210Y6377896D01*
Y6403288D01*
X3663514Y6415984D01*
X3600034Y6492159D02*
Y6441376D01*
X3638122D01*
X3625426Y6466768D01*
Y6479464D01*
X3638122Y6492159D01*
X3663514D01*
X3676210Y6479464D01*
Y6454072D01*
X3663514Y6441376D01*
X3600034Y6517551D02*
Y6568335D01*
X3612730D01*
X3663514Y6517551D01*
X3676210D01*
X3420636Y6784012D02*
X3407940Y6796708D01*
X3382548D01*
X3369853Y6784012D01*
Y6733229D01*
X3382548Y6720533D01*
X3407940D01*
X3420636Y6733229D01*
X3496811Y6796708D02*
X3446028D01*
Y6758620D01*
X3471420Y6771316D01*
X3484116D01*
X3496811Y6758620D01*
Y6733229D01*
X3484116Y6720533D01*
X3458724D01*
X3446028Y6733229D01*
X3572987Y6796708D02*
X3547595Y6784012D01*
X3522203Y6758620D01*
Y6733229D01*
X3534899Y6720533D01*
X3560291D01*
X3572987Y6733229D01*
Y6745925D01*
X3560291Y6758620D01*
X3522203D01*
X4325015Y6230564D02*
X4312319Y6217868D01*
Y6192476D01*
X4325015Y6179780D01*
X4375799D01*
X4388495Y6192476D01*
Y6217868D01*
X4375799Y6230564D01*
X4312319Y6306739D02*
Y6255956D01*
X4350407D01*
X4337711Y6281348D01*
Y6294044D01*
X4350407Y6306739D01*
X4375799D01*
X4388495Y6294044D01*
Y6268652D01*
X4375799Y6255956D01*
X4388495Y6370219D02*
X4312319D01*
X4350407Y6332131D01*
Y6382915D01*
X6113745Y5964240D02*
Y6040415D01*
X6151833D01*
X6164529Y6027719D01*
Y6002327D01*
X6151833Y5989631D01*
X6113745D01*
X6139137D02*
X6164529Y5964240D01*
X6189921Y5976935D02*
X6202616Y5964240D01*
X6228008D01*
X6240704Y5976935D01*
Y6027719D01*
X6228008Y6040415D01*
X6202616D01*
X6189921Y6027719D01*
Y6015023D01*
X6202616Y6002327D01*
X6240704D01*
X13831483Y6286440D02*
X13818788Y6299136D01*
X13793396D01*
X13780701Y6286440D01*
Y6235656D01*
X13793396Y6222960D01*
X13818788D01*
X13831483Y6235656D01*
X13856876Y6222960D02*
X13882268D01*
X13869571D01*
Y6299136D01*
X13856876Y6286440D01*
X13920355D02*
X13933051Y6299136D01*
X13958443D01*
X13971138Y6286440D01*
Y6273744D01*
X13958443Y6261048D01*
X13945747D01*
X13958443D01*
X13971138Y6248352D01*
Y6235656D01*
X13958443Y6222960D01*
X13933051D01*
X13920355Y6235656D01*
X11892294Y6089020D02*
Y6165196D01*
X11930382D01*
X11943078Y6152500D01*
Y6127108D01*
X11930382Y6114412D01*
X11892294D01*
X11917686D02*
X11943078Y6089020D01*
X12019253D02*
X11968470D01*
X12019253Y6139804D01*
Y6152500D01*
X12006558Y6165196D01*
X11981166D01*
X11968470Y6152500D01*
X12044645Y6101716D02*
X12057341Y6089020D01*
X12082733D01*
X12095429Y6101716D01*
Y6152500D01*
X12082733Y6165196D01*
X12057341D01*
X12044645Y6152500D01*
Y6139804D01*
X12057341Y6127108D01*
X12095429D01*
X12229920Y5969020D02*
Y6045195D01*
X12268008D01*
X12280704Y6032499D01*
Y6007108D01*
X12268008Y5994412D01*
X12229920D01*
X12255312D02*
X12280704Y5969020D01*
X12356879D02*
X12306096D01*
X12356879Y6019804D01*
Y6032499D01*
X12344184Y6045195D01*
X12318792D01*
X12306096Y6032499D01*
X12433055Y5969020D02*
X12382271D01*
X12433055Y6019804D01*
Y6032499D01*
X12420359Y6045195D01*
X12394967D01*
X12382271Y6032499D01*
X11779180Y6210260D02*
Y6286436D01*
X11817268D01*
X11829963Y6273740D01*
Y6248348D01*
X11817268Y6235652D01*
X11779180D01*
X11804572D02*
X11829963Y6210260D01*
X11906139D02*
X11855355D01*
X11906139Y6261044D01*
Y6273740D01*
X11893443Y6286436D01*
X11868051D01*
X11855355Y6273740D01*
X11931531D02*
X11944227Y6286436D01*
X11969618D01*
X11982314Y6273740D01*
Y6222956D01*
X11969618Y6210260D01*
X11944227D01*
X11931531Y6222956D01*
Y6273740D01*
X11932140Y7726404D02*
X11919445Y7713708D01*
Y7688316D01*
X11932140Y7675620D01*
X11982924D01*
X11995620Y7688316D01*
Y7713708D01*
X11982924Y7726404D01*
X11932140Y7751796D02*
X11919445Y7764492D01*
Y7789884D01*
X11932140Y7802579D01*
X11944836D01*
X11957532Y7789884D01*
Y7777188D01*
Y7789884D01*
X11970228Y7802579D01*
X11982924D01*
X11995620Y7789884D01*
Y7764492D01*
X11982924Y7751796D01*
X11932140Y7827971D02*
X11919445Y7840667D01*
Y7866059D01*
X11932140Y7878755D01*
X11944836D01*
X11957532Y7866059D01*
X11970228Y7878755D01*
X11982924D01*
X11995620Y7866059D01*
Y7840667D01*
X11982924Y7827971D01*
X11970228D01*
X11957532Y7840667D01*
X11944836Y7827971D01*
X11932140D01*
X11957532Y7840667D02*
Y7866059D01*
X12757100Y6643656D02*
X12744405Y6630960D01*
Y6605568D01*
X12757100Y6592873D01*
X12807884D01*
X12820580Y6605568D01*
Y6630960D01*
X12807884Y6643656D01*
X12820580Y6669048D02*
Y6694440D01*
Y6681744D01*
X12744405D01*
X12757100Y6669048D01*
X12807884Y6732527D02*
X12820580Y6745223D01*
Y6770615D01*
X12807884Y6783311D01*
X12757100D01*
X12744405Y6770615D01*
Y6745223D01*
X12757100Y6732527D01*
X12769796D01*
X12782492Y6745223D01*
Y6783311D01*
X5655982Y7092148D02*
X5579806D01*
Y7130236D01*
X5592502Y7142931D01*
X5617894D01*
X5630590Y7130236D01*
Y7092148D01*
Y7117540D02*
X5655982Y7142931D01*
X5579806Y7219107D02*
X5592502Y7193715D01*
X5617894Y7168323D01*
X5643286D01*
X5655982Y7181019D01*
Y7206411D01*
X5643286Y7219107D01*
X5630590D01*
X5617894Y7206411D01*
Y7168323D01*
X4509890Y6397286D02*
Y6473461D01*
X4547978D01*
X4560674Y6460765D01*
Y6435374D01*
X4547978Y6422678D01*
X4509890D01*
X4535282D02*
X4560674Y6397286D01*
X4636849D02*
X4586066D01*
X4636849Y6448069D01*
Y6460765D01*
X4624153Y6473461D01*
X4598761D01*
X4586066Y6460765D01*
X6790620Y6997660D02*
Y7073836D01*
X6828708D01*
X6841403Y7061140D01*
Y7035748D01*
X6828708Y7023052D01*
X6790620D01*
X6816012D02*
X6841403Y6997660D01*
X6866795D02*
X6892187D01*
X6879491D01*
Y7073836D01*
X6866795Y7061140D01*
X15406320Y6306764D02*
X15393625Y6294068D01*
Y6268676D01*
X15406320Y6255980D01*
X15457104D01*
X15469800Y6268676D01*
Y6294068D01*
X15457104Y6306764D01*
X15469800Y6370244D02*
X15393625D01*
X15431712Y6332156D01*
Y6382939D01*
X15393625Y6459115D02*
X15406320Y6433723D01*
X15431712Y6408331D01*
X15457104D01*
X15469800Y6421027D01*
Y6446419D01*
X15457104Y6459115D01*
X15444408D01*
X15431712Y6446419D01*
Y6408331D01*
X3611833Y7491229D02*
Y7567405D01*
X3649921D01*
X3662616Y7554709D01*
Y7529317D01*
X3649921Y7516621D01*
X3611833D01*
X3637225D02*
X3662616Y7491229D01*
X3726096D02*
Y7567405D01*
X3688008Y7529317D01*
X3738792D01*
X3633400Y6179780D02*
Y6255956D01*
X3671488D01*
X3684183Y6243260D01*
Y6217868D01*
X3671488Y6205172D01*
X3633400D01*
X3658792D02*
X3684183Y6179780D01*
X3709575Y6243260D02*
X3722271Y6255956D01*
X3747663D01*
X3760359Y6243260D01*
Y6230564D01*
X3747663Y6217868D01*
X3734967D01*
X3747663D01*
X3760359Y6205172D01*
Y6192476D01*
X3747663Y6179780D01*
X3722271D01*
X3709575Y6192476D01*
X5596820Y6106862D02*
X5520645D01*
Y6144950D01*
X5533340Y6157646D01*
X5558732D01*
X5571428Y6144950D01*
Y6106862D01*
Y6132254D02*
X5596820Y6157646D01*
X5520645Y6183037D02*
Y6233821D01*
X5533340D01*
X5584124Y6183037D01*
X5596820D01*
X5418356Y6461544D02*
Y6537719D01*
X5456444D01*
X5469139Y6525024D01*
Y6499632D01*
X5456444Y6486936D01*
X5418356D01*
X5443748D02*
X5469139Y6461544D01*
X5494531D02*
X5519923D01*
X5507227D01*
Y6537719D01*
X5494531Y6525024D01*
X5608794Y6461544D02*
X5558011D01*
X5608794Y6512328D01*
Y6525024D01*
X5596099Y6537719D01*
X5570707D01*
X5558011Y6525024D01*
X13078120Y6458296D02*
Y6394816D01*
X13090816Y6382120D01*
X13116208D01*
X13128903Y6394816D01*
Y6458296D01*
X13205080Y6382120D02*
X13154295D01*
X13205080Y6432904D01*
Y6445600D01*
X13192383Y6458296D01*
X13166991D01*
X13154295Y6445600D01*
X11392085Y6662120D02*
X11315910D01*
Y6700208D01*
X11328606Y6712904D01*
X11353997D01*
X11366693Y6700208D01*
Y6662120D01*
Y6687512D02*
X11392085Y6712904D01*
X11328606Y6738296D02*
X11315910Y6750992D01*
Y6776383D01*
X11328606Y6789079D01*
X11341302D01*
X11353997Y6776383D01*
Y6763688D01*
Y6776383D01*
X11366693Y6789079D01*
X11379389D01*
X11392085Y6776383D01*
Y6750992D01*
X11379389Y6738296D01*
X11328606Y6814471D02*
X11315910Y6827167D01*
Y6852559D01*
X11328606Y6865254D01*
X11341302D01*
X11353997Y6852559D01*
Y6839863D01*
Y6852559D01*
X11366693Y6865254D01*
X11379389D01*
X11392085Y6852559D01*
Y6827167D01*
X11379389Y6814471D01*
X11288960Y6662120D02*
X11212785D01*
Y6700208D01*
X11225480Y6712904D01*
X11250872D01*
X11263568Y6700208D01*
Y6662120D01*
Y6687512D02*
X11288960Y6712904D01*
X11225480Y6738296D02*
X11212785Y6750992D01*
Y6776383D01*
X11225480Y6789079D01*
X11238176D01*
X11250872Y6776383D01*
Y6763688D01*
Y6776383D01*
X11263568Y6789079D01*
X11276264D01*
X11288960Y6776383D01*
Y6750992D01*
X11276264Y6738296D01*
X11288960Y6865254D02*
Y6814471D01*
X11238176Y6865254D01*
X11225480D01*
X11212785Y6852559D01*
Y6827167D01*
X11225480Y6814471D01*
X11838120Y7167815D02*
X11761944D01*
Y7205903D01*
X11774640Y7218599D01*
X11800032D01*
X11812728Y7205903D01*
Y7167815D01*
Y7193207D02*
X11838120Y7218599D01*
X11774640Y7243991D02*
X11761944Y7256687D01*
Y7282078D01*
X11774640Y7294774D01*
X11787336D01*
X11800032Y7282078D01*
Y7269382D01*
Y7282078D01*
X11812728Y7294774D01*
X11825424D01*
X11838120Y7282078D01*
Y7256687D01*
X11825424Y7243991D01*
X11838120Y7320166D02*
Y7345558D01*
Y7332862D01*
X11761944D01*
X11774640Y7320166D01*
X15813680Y5955833D02*
X15737505D01*
Y5993921D01*
X15750200Y6006617D01*
X15775592D01*
X15788287Y5993921D01*
Y5955833D01*
Y5981225D02*
X15813680Y6006617D01*
Y6082792D02*
Y6032009D01*
X15762897Y6082792D01*
X15750200D01*
X15737505Y6070097D01*
Y6044705D01*
X15750200Y6032009D01*
X15737505Y6108184D02*
Y6158968D01*
X15750200D01*
X15800984Y6108184D01*
X15813680D01*
X15686180Y5953334D02*
X15610005D01*
Y5991421D01*
X15622701Y6004117D01*
X15648093D01*
X15660788Y5991421D01*
Y5953334D01*
Y5978725D02*
X15686180Y6004117D01*
Y6080292D02*
Y6029509D01*
X15635396Y6080292D01*
X15622701D01*
X15610005Y6067597D01*
Y6042205D01*
X15622701Y6029509D01*
X15610005Y6156468D02*
X15622701Y6131076D01*
X15648093Y6105684D01*
X15673483D01*
X15686180Y6118380D01*
Y6143772D01*
X15673483Y6156468D01*
X15660788D01*
X15648093Y6143772D01*
Y6105684D01*
X13323500Y6934160D02*
Y7010336D01*
X13361588D01*
X13374283Y6997640D01*
Y6972248D01*
X13361588Y6959552D01*
X13323500D01*
X13348892D02*
X13374283Y6934160D01*
X13450459D02*
X13399675D01*
X13450459Y6984944D01*
Y6997640D01*
X13437762Y7010336D01*
X13412370D01*
X13399675Y6997640D01*
X13475851D02*
X13488547Y7010336D01*
X13513937D01*
X13526634Y6997640D01*
Y6984944D01*
X13513937Y6972248D01*
X13526634Y6959552D01*
Y6946856D01*
X13513937Y6934160D01*
X13488547D01*
X13475851Y6946856D01*
Y6959552D01*
X13488547Y6972248D01*
X13475851Y6984944D01*
Y6997640D01*
X13488547Y6972248D02*
X13513937D01*
X14125620Y8030796D02*
Y7954620D01*
X14176402D01*
X14201794D02*
X14227187D01*
X14214491D01*
Y8030796D01*
X14201794Y8018100D01*
X15423100Y7495452D02*
X15410405Y7482756D01*
Y7457364D01*
X15423100Y7444668D01*
X15473885D01*
X15486580Y7457364D01*
Y7482756D01*
X15473885Y7495452D01*
X15410405Y7571627D02*
Y7520844D01*
X15448492D01*
X15435796Y7546236D01*
Y7558932D01*
X15448492Y7571627D01*
X15473885D01*
X15486580Y7558932D01*
Y7533540D01*
X15473885Y7520844D01*
X15423100Y7597019D02*
X15410405Y7609715D01*
Y7635107D01*
X15423100Y7647803D01*
X15435796D01*
X15448492Y7635107D01*
Y7622411D01*
Y7635107D01*
X15461188Y7647803D01*
X15473885D01*
X15486580Y7635107D01*
Y7609715D01*
X15473885Y7597019D01*
X14719792Y6014664D02*
X14707095Y6001968D01*
Y5976576D01*
X14719792Y5963880D01*
X14770576D01*
X14783272Y5976576D01*
Y6001968D01*
X14770576Y6014664D01*
X14707095Y6090839D02*
Y6040056D01*
X14745184D01*
X14732487Y6065448D01*
Y6078144D01*
X14745184Y6090839D01*
X14770576D01*
X14783272Y6078144D01*
Y6052752D01*
X14770576Y6040056D01*
X14719792Y6116231D02*
X14707095Y6128927D01*
Y6154319D01*
X14719792Y6167015D01*
X14770576D01*
X14783272Y6154319D01*
Y6128927D01*
X14770576Y6116231D01*
X14719792D01*
X14613840Y6012124D02*
X14601144Y5999428D01*
Y5974036D01*
X14613840Y5961340D01*
X14664624D01*
X14677319Y5974036D01*
Y5999428D01*
X14664624Y6012124D01*
X14677319Y6075604D02*
X14601144D01*
X14639232Y6037516D01*
Y6088299D01*
X14601144Y6164475D02*
Y6113691D01*
X14639232D01*
X14626537Y6139083D01*
Y6151779D01*
X14639232Y6164475D01*
X14664624D01*
X14677319Y6151779D01*
Y6126387D01*
X14664624Y6113691D01*
X14824660Y6017204D02*
X14811964Y6004508D01*
Y5979116D01*
X14824660Y5966420D01*
X14875444D01*
X14888139Y5979116D01*
Y6004508D01*
X14875444Y6017204D01*
X14888139Y6080684D02*
X14811964D01*
X14850052Y6042596D01*
Y6093379D01*
X14824660Y6118771D02*
X14811964Y6131467D01*
Y6156859D01*
X14824660Y6169555D01*
X14837357D01*
X14850052Y6156859D01*
Y6144163D01*
Y6156859D01*
X14862749Y6169555D01*
X14875444D01*
X14888139Y6156859D01*
Y6131467D01*
X14875444Y6118771D01*
X14491920Y6200908D02*
X14479225Y6188213D01*
Y6162821D01*
X14491920Y6150125D01*
X14542703D01*
X14555400Y6162821D01*
Y6188213D01*
X14542703Y6200908D01*
X14555400Y6264388D02*
X14479225D01*
X14517313Y6226300D01*
Y6277084D01*
X14555400Y6353259D02*
Y6302476D01*
X14504616Y6353259D01*
X14491920D01*
X14479225Y6340563D01*
Y6315172D01*
X14491920Y6302476D01*
X14576402Y8013100D02*
X14563708Y8025796D01*
X14538316D01*
X14525620Y8013100D01*
Y7962316D01*
X14538316Y7949620D01*
X14563708D01*
X14576402Y7962316D01*
X14639883Y7949620D02*
Y8025796D01*
X14601794Y7987708D01*
X14652579D01*
X14677971Y7949620D02*
X14703363D01*
X14690668D01*
Y8025796D01*
X14677971Y8013100D01*
X11815305Y6703952D02*
X11802609Y6691256D01*
Y6665864D01*
X11815305Y6653169D01*
X11866089D01*
X11878784Y6665864D01*
Y6691256D01*
X11866089Y6703952D01*
X11878784Y6767432D02*
X11802609D01*
X11840697Y6729344D01*
Y6780127D01*
X11815305Y6805519D02*
X11802609Y6818215D01*
Y6843607D01*
X11815305Y6856303D01*
X11866089D01*
X11878784Y6843607D01*
Y6818215D01*
X11866089Y6805519D01*
X11815305D01*
X11230105Y6403884D02*
X11217409Y6391188D01*
Y6365796D01*
X11230105Y6353100D01*
X11280889D01*
X11293585Y6365796D01*
Y6391188D01*
X11280889Y6403884D01*
X11230105Y6429276D02*
X11217409Y6441972D01*
Y6467363D01*
X11230105Y6480059D01*
X11242801D01*
X11255497Y6467363D01*
Y6454668D01*
Y6467363D01*
X11268193Y6480059D01*
X11280889D01*
X11293585Y6467363D01*
Y6441972D01*
X11280889Y6429276D01*
Y6505451D02*
X11293585Y6518147D01*
Y6543539D01*
X11280889Y6556235D01*
X11230105D01*
X11217409Y6543539D01*
Y6518147D01*
X11230105Y6505451D01*
X11242801D01*
X11255497Y6518147D01*
Y6556235D01*
X11563263Y6445982D02*
X11550568Y6458678D01*
X11525176D01*
X11512480Y6445982D01*
Y6395198D01*
X11525176Y6382502D01*
X11550568D01*
X11563263Y6395198D01*
X11588655Y6445982D02*
X11601351Y6458678D01*
X11626743D01*
X11639439Y6445982D01*
Y6433286D01*
X11626743Y6420590D01*
X11614047D01*
X11626743D01*
X11639439Y6407894D01*
Y6395198D01*
X11626743Y6382502D01*
X11601351D01*
X11588655Y6395198D01*
X11664831Y6458678D02*
X11715614D01*
Y6445982D01*
X11664831Y6395198D01*
Y6382502D01*
X13961060Y6517584D02*
X13948364Y6504888D01*
Y6479496D01*
X13961060Y6466800D01*
X14011844D01*
X14024541Y6479496D01*
Y6504888D01*
X14011844Y6517584D01*
X13961060Y6542976D02*
X13948364Y6555672D01*
Y6581064D01*
X13961060Y6593759D01*
X13973756D01*
X13986452Y6581064D01*
Y6568368D01*
Y6581064D01*
X13999149Y6593759D01*
X14011844D01*
X14024541Y6581064D01*
Y6555672D01*
X14011844Y6542976D01*
X13948364Y6669935D02*
X13961060Y6644543D01*
X13986452Y6619151D01*
X14011844D01*
X14024541Y6631847D01*
Y6657239D01*
X14011844Y6669935D01*
X13999149D01*
X13986452Y6657239D01*
Y6619151D01*
X13076784Y6810984D02*
X13064088Y6823680D01*
X13038696D01*
X13025999Y6810984D01*
Y6760200D01*
X13038696Y6747504D01*
X13064088D01*
X13076784Y6760200D01*
X13102174Y6810984D02*
X13114871Y6823680D01*
X13140263D01*
X13152959Y6810984D01*
Y6798288D01*
X13140263Y6785592D01*
X13127567D01*
X13140263D01*
X13152959Y6772896D01*
Y6760200D01*
X13140263Y6747504D01*
X13114871D01*
X13102174Y6760200D01*
X13229134Y6823680D02*
X13178351D01*
Y6785592D01*
X13203741Y6798288D01*
X13216438D01*
X13229134Y6785592D01*
Y6760200D01*
X13216438Y6747504D01*
X13191048D01*
X13178351Y6760200D01*
X12000143Y7035081D02*
X11987448Y7047777D01*
X11962056D01*
X11949360Y7035081D01*
Y6984298D01*
X11962056Y6971602D01*
X11987448D01*
X12000143Y6984298D01*
X12025535Y7035081D02*
X12038231Y7047777D01*
X12063623D01*
X12076319Y7035081D01*
Y7022385D01*
X12063623Y7009690D01*
X12050927D01*
X12063623D01*
X12076319Y6996994D01*
Y6984298D01*
X12063623Y6971602D01*
X12038231D01*
X12025535Y6984298D01*
X12139798Y6971602D02*
Y7047777D01*
X12101711Y7009690D01*
X12152494D01*
X12000143Y7140122D02*
X11987448Y7152818D01*
X11962056D01*
X11949360Y7140122D01*
Y7089338D01*
X11962056Y7076642D01*
X11987448D01*
X12000143Y7089338D01*
X12025535Y7140122D02*
X12038231Y7152818D01*
X12063623D01*
X12076319Y7140122D01*
Y7127426D01*
X12063623Y7114730D01*
X12050927D01*
X12063623D01*
X12076319Y7102034D01*
Y7089338D01*
X12063623Y7076642D01*
X12038231D01*
X12025535Y7089338D01*
X12101711Y7140122D02*
X12114407Y7152818D01*
X12139798D01*
X12152494Y7140122D01*
Y7127426D01*
X12139798Y7114730D01*
X12127102D01*
X12139798D01*
X12152494Y7102034D01*
Y7089338D01*
X12139798Y7076642D01*
X12114407D01*
X12101711Y7089338D01*
X10123083Y7531502D02*
X10110388Y7544198D01*
X10084996D01*
X10072300Y7531502D01*
Y7480718D01*
X10084996Y7468022D01*
X10110388D01*
X10123083Y7480718D01*
X10148475Y7531502D02*
X10161171Y7544198D01*
X10186563D01*
X10199259Y7531502D01*
Y7518806D01*
X10186563Y7506110D01*
X10173867D01*
X10186563D01*
X10199259Y7493414D01*
Y7480718D01*
X10186563Y7468022D01*
X10161171D01*
X10148475Y7480718D01*
X10275434Y7468022D02*
X10224651D01*
X10275434Y7518806D01*
Y7531502D01*
X10262738Y7544198D01*
X10237347D01*
X10224651Y7531502D01*
X10852140Y7857904D02*
X10839444Y7845208D01*
Y7819816D01*
X10852140Y7807120D01*
X10902924D01*
X10915620Y7819816D01*
Y7845208D01*
X10902924Y7857904D01*
X10852140Y7883296D02*
X10839444Y7895992D01*
Y7921383D01*
X10852140Y7934079D01*
X10864836D01*
X10877532Y7921383D01*
Y7908688D01*
Y7921383D01*
X10890228Y7934079D01*
X10902924D01*
X10915620Y7921383D01*
Y7895992D01*
X10902924Y7883296D01*
X10915620Y7959471D02*
Y7984863D01*
Y7972167D01*
X10839444D01*
X10852140Y7959471D01*
X11052140Y7860404D02*
X11039445Y7847708D01*
Y7822316D01*
X11052140Y7809620D01*
X11102924D01*
X11115620Y7822316D01*
Y7847708D01*
X11102924Y7860404D01*
X11115620Y7936579D02*
Y7885796D01*
X11064836Y7936579D01*
X11052140D01*
X11039445Y7923884D01*
Y7898492D01*
X11052140Y7885796D01*
X11102924Y7961971D02*
X11115620Y7974667D01*
Y8000059D01*
X11102924Y8012755D01*
X11052140D01*
X11039445Y8000059D01*
Y7974667D01*
X11052140Y7961971D01*
X11064836D01*
X11077532Y7974667D01*
Y8012755D01*
X11257141Y7857904D02*
X11244445Y7845208D01*
Y7819816D01*
X11257141Y7807120D01*
X11307924D01*
X11320620Y7819816D01*
Y7845208D01*
X11307924Y7857904D01*
X11320620Y7934079D02*
Y7883296D01*
X11269836Y7934079D01*
X11257141D01*
X11244445Y7921383D01*
Y7895992D01*
X11257141Y7883296D01*
Y7959471D02*
X11244445Y7972167D01*
Y7997559D01*
X11257141Y8010254D01*
X11269836D01*
X11282532Y7997559D01*
X11295228Y8010254D01*
X11307924D01*
X11320620Y7997559D01*
Y7972167D01*
X11307924Y7959471D01*
X11295228D01*
X11282532Y7972167D01*
X11269836Y7959471D01*
X11257141D01*
X11282532Y7972167D02*
Y7997559D01*
X11452140Y7862904D02*
X11439444Y7850208D01*
Y7824816D01*
X11452140Y7812120D01*
X11502924D01*
X11515620Y7824816D01*
Y7850208D01*
X11502924Y7862904D01*
X11515620Y7939079D02*
Y7888296D01*
X11464836Y7939079D01*
X11452140D01*
X11439444Y7926383D01*
Y7900992D01*
X11452140Y7888296D01*
X11439444Y7964471D02*
Y8015254D01*
X11452140D01*
X11502924Y7964471D01*
X11515620D01*
X10648900Y7860404D02*
X10636205Y7847708D01*
Y7822316D01*
X10648900Y7809620D01*
X10699684D01*
X10712380Y7822316D01*
Y7847708D01*
X10699684Y7860404D01*
X10712380Y7936579D02*
Y7885796D01*
X10661596Y7936579D01*
X10648900D01*
X10636205Y7923884D01*
Y7898492D01*
X10648900Y7885796D01*
X10636205Y8012755D02*
X10648900Y7987363D01*
X10674292Y7961971D01*
X10699684D01*
X10712380Y7974667D01*
Y8000059D01*
X10699684Y8012755D01*
X10686988D01*
X10674292Y8000059D01*
Y7961971D01*
X11802608Y7498767D02*
X11789912Y7486072D01*
Y7460680D01*
X11802608Y7447984D01*
X11853391D01*
X11866087Y7460680D01*
Y7486072D01*
X11853391Y7498767D01*
X11866087Y7574943D02*
Y7524159D01*
X11815304Y7574943D01*
X11802608D01*
X11789912Y7562247D01*
Y7536855D01*
X11802608Y7524159D01*
X11789912Y7651118D02*
Y7600335D01*
X11827999D01*
X11815304Y7625726D01*
Y7638422D01*
X11827999Y7651118D01*
X11853391D01*
X11866087Y7638422D01*
Y7613030D01*
X11853391Y7600335D01*
X16036877Y7680904D02*
X16024182Y7668208D01*
Y7642816D01*
X16036877Y7630120D01*
X16087662D01*
X16100357Y7642816D01*
Y7668208D01*
X16087662Y7680904D01*
X16100357Y7706296D02*
Y7731688D01*
Y7718992D01*
X16024182D01*
X16036877Y7706296D01*
X16024182Y7820559D02*
X16036877Y7795167D01*
X16062270Y7769775D01*
X16087662D01*
X16100357Y7782471D01*
Y7807863D01*
X16087662Y7820559D01*
X16074965D01*
X16062270Y7807863D01*
Y7769775D01*
X13182339Y6167904D02*
X13169644Y6155208D01*
Y6129816D01*
X13182339Y6117120D01*
X13233124D01*
X13245821Y6129816D01*
Y6155208D01*
X13233124Y6167904D01*
X13245821Y6244079D02*
Y6193296D01*
X13195036Y6244079D01*
X13182339D01*
X13169644Y6231384D01*
Y6205992D01*
X13182339Y6193296D01*
Y6269471D02*
X13169644Y6282167D01*
Y6307559D01*
X13182339Y6320255D01*
X13233124D01*
X13245821Y6307559D01*
Y6282167D01*
X13233124Y6269471D01*
X13182339D01*
X12693903Y6313100D02*
X12681208Y6325796D01*
X12655816D01*
X12643120Y6313100D01*
Y6262316D01*
X12655816Y6249620D01*
X12681208D01*
X12693903Y6262316D01*
X12770079Y6249620D02*
X12719295D01*
X12770079Y6300404D01*
Y6313100D01*
X12757383Y6325796D01*
X12731991D01*
X12719295Y6313100D01*
X12795471D02*
X12808167Y6325796D01*
X12833559D01*
X12846254Y6313100D01*
Y6300404D01*
X12833559Y6287708D01*
X12820863D01*
X12833559D01*
X12846254Y6275012D01*
Y6262316D01*
X12833559Y6249620D01*
X12808167D01*
X12795471Y6262316D01*
X13628278Y6995600D02*
X13615581Y7008296D01*
X13590189D01*
X13577493Y6995600D01*
Y6944816D01*
X13590189Y6932121D01*
X13615581D01*
X13628278Y6944816D01*
X13704453Y6932121D02*
X13653668D01*
X13704453Y6982904D01*
Y6995600D01*
X13691756Y7008296D01*
X13666364D01*
X13653668Y6995600D01*
X13780627Y6932121D02*
X13729845D01*
X13780627Y6982904D01*
Y6995600D01*
X13767932Y7008296D01*
X13742540D01*
X13729845Y6995600D01*
X10046900Y6329307D02*
Y6253132D01*
X10097683D01*
X10173859D02*
X10123075D01*
X10173859Y6303915D01*
Y6316611D01*
X10161163Y6329307D01*
X10135771D01*
X10123075Y6316611D01*
X6269799Y6062560D02*
Y6138735D01*
X6307887D01*
X6320583Y6126040D01*
Y6100648D01*
X6307887Y6087952D01*
X6269799D01*
X6295191D02*
X6320583Y6062560D01*
X6345975D02*
X6371366D01*
X6358671D01*
Y6138735D01*
X6345975Y6126040D01*
X6409454D02*
X6422150Y6138735D01*
X6447542D01*
X6460238Y6126040D01*
Y6075256D01*
X6447542Y6062560D01*
X6422150D01*
X6409454Y6075256D01*
Y6126040D01*
X5853512Y6043735D02*
X5878904D01*
X5866208D01*
Y5967560D01*
X5853512D01*
X5878904D01*
X5967775Y6031039D02*
X5955079Y6043735D01*
X5929687D01*
X5916991Y6031039D01*
Y5980256D01*
X5929687Y5967560D01*
X5955079D01*
X5967775Y5980256D01*
X5993167Y5967560D02*
X6018558D01*
X6005863D01*
Y6043735D01*
X5993167Y6031039D01*
X6528400Y6253736D02*
X6553792D01*
X6541096D01*
Y6177560D01*
X6528400D01*
X6553792D01*
X6642663Y6241040D02*
X6629967Y6253736D01*
X6604576D01*
X6591880Y6241040D01*
Y6190256D01*
X6604576Y6177560D01*
X6629967D01*
X6642663Y6190256D01*
X6718838Y6177560D02*
X6668055D01*
X6718838Y6228344D01*
Y6241040D01*
X6706143Y6253736D01*
X6680751D01*
X6668055Y6241040D01*
X8822901Y7194837D02*
Y7118661D01*
X8860989D01*
X8873685Y7131357D01*
Y7182141D01*
X8860989Y7194837D01*
X8822901D01*
X8899076Y7182141D02*
X8911772Y7194837D01*
X8937164D01*
X8949860Y7182141D01*
Y7169445D01*
X8937164Y7156749D01*
X8949860Y7144053D01*
Y7131357D01*
X8937164Y7118661D01*
X8911772D01*
X8899076Y7131357D01*
Y7144053D01*
X8911772Y7156749D01*
X8899076Y7169445D01*
Y7182141D01*
X8911772Y7156749D02*
X8937164D01*
X6391860Y7221604D02*
X6379165Y7208908D01*
Y7183516D01*
X6391860Y7170820D01*
X6442644D01*
X6455340Y7183516D01*
Y7208908D01*
X6442644Y7221604D01*
X6455340Y7246996D02*
Y7272388D01*
Y7259692D01*
X6379165D01*
X6391860Y7246996D01*
X5647640Y6830004D02*
X5634945Y6817308D01*
Y6791916D01*
X5647640Y6779220D01*
X5698424D01*
X5711120Y6791916D01*
Y6817308D01*
X5698424Y6830004D01*
X5647640Y6855396D02*
X5634945Y6868092D01*
Y6893484D01*
X5647640Y6906179D01*
X5660336D01*
X5673032Y6893484D01*
X5685728Y6906179D01*
X5698424D01*
X5711120Y6893484D01*
Y6868092D01*
X5698424Y6855396D01*
X5685728D01*
X5673032Y6868092D01*
X5660336Y6855396D01*
X5647640D01*
X5673032Y6868092D02*
Y6893484D01*
X5756860Y6830004D02*
X5744165Y6817308D01*
Y6791916D01*
X5756860Y6779220D01*
X5807644D01*
X5820340Y6791916D01*
Y6817308D01*
X5807644Y6830004D01*
X5744165Y6855396D02*
Y6906179D01*
X5756860D01*
X5807644Y6855396D01*
X5820340D01*
X6128680Y7411024D02*
X6115984Y7398328D01*
Y7372936D01*
X6128680Y7360240D01*
X6179463D01*
X6192159Y7372936D01*
Y7398328D01*
X6179463Y7411024D01*
X6115984Y7487199D02*
X6128680Y7461807D01*
X6154071Y7436415D01*
X6179463D01*
X6192159Y7449111D01*
Y7474503D01*
X6179463Y7487199D01*
X6166767D01*
X6154071Y7474503D01*
Y7436415D01*
X6243080Y7411024D02*
X6230385Y7398328D01*
Y7372936D01*
X6243080Y7360240D01*
X6293864D01*
X6306560Y7372936D01*
Y7398328D01*
X6293864Y7411024D01*
X6230385Y7487199D02*
Y7436415D01*
X6268472D01*
X6255776Y7461807D01*
Y7474503D01*
X6268472Y7487199D01*
X6293864D01*
X6306560Y7474503D01*
Y7449111D01*
X6293864Y7436415D01*
X6357280Y7411024D02*
X6344584Y7398328D01*
Y7372936D01*
X6357280Y7360240D01*
X6408063D01*
X6420759Y7372936D01*
Y7398328D01*
X6408063Y7411024D01*
X6420759Y7474503D02*
X6344584D01*
X6382671Y7436415D01*
Y7487199D01*
X6580244Y6131040D02*
X6567548Y6143735D01*
X6542156D01*
X6529460Y6131040D01*
Y6080256D01*
X6542156Y6067560D01*
X6567548D01*
X6580244Y6080256D01*
X6605636Y6131040D02*
X6618331Y6143735D01*
X6643723D01*
X6656419Y6131040D01*
Y6118344D01*
X6643723Y6105648D01*
X6631027D01*
X6643723D01*
X6656419Y6092952D01*
Y6080256D01*
X6643723Y6067560D01*
X6618331D01*
X6605636Y6080256D01*
X6580244Y6031039D02*
X6567548Y6043735D01*
X6542156D01*
X6529460Y6031039D01*
Y5980256D01*
X6542156Y5967560D01*
X6567548D01*
X6580244Y5980256D01*
X6656419Y5967560D02*
X6605636D01*
X6656419Y6018344D01*
Y6031039D01*
X6643723Y6043735D01*
X6618331D01*
X6605636Y6031039D01*
X5652700Y6680160D02*
Y6756336D01*
X5690788D01*
X5703483Y6743640D01*
Y6718248D01*
X5690788Y6705552D01*
X5652700D01*
X5678092D02*
X5703483Y6680160D01*
X5728875D02*
X5754267D01*
X5741571D01*
Y6756336D01*
X5728875Y6743640D01*
X5792355Y6680160D02*
X5817747D01*
X5805051D01*
Y6756336D01*
X5792355Y6743640D01*
D147*
X3400760Y7026080D02*
G03*
X3400760Y7026080I-5000J0D01*
G01*
X4414380Y6814300D02*
G03*
X4414380Y6814300I-5000J0D01*
G01*
X12275620Y6269620D02*
G03*
X12275620Y6269620I-5000J0D01*
G01*
X3573120Y6354621D02*
G03*
X3573120Y6354621I-5000J0D01*
G01*
X2938020Y6352161D02*
G03*
X2938020Y6352161I-5000J0D01*
G01*
D148*
X5949600Y7245756D02*
G03*
X5949600Y7245756I-30000J0D01*
G01*
D149*
X5792100Y7035756D02*
G03*
X5792100Y7035756I-12500J0D01*
G01*
X13335159Y6610581D02*
G03*
X13335159Y6610581I-12500J0D01*
G01*
X15576579Y6767118D02*
G03*
X15576579Y6767118I-12500J0D01*
G01*
X16087120Y6767110D02*
G03*
X16087120Y6767110I-12500J0D01*
G01*
X10908260Y7035522D02*
G03*
X10908260Y7035522I-12500J0D01*
G01*
X6157660Y6881140D02*
G03*
X6157660Y6881140I-12500J0D01*
G01*
D150*
X15937823Y6859616D02*
D03*
X15545335Y6859621D02*
D03*
X16448366Y6859610D02*
D03*
X16055875Y6859611D02*
D03*
D151*
X10803261Y7409267D02*
D03*
X10803259Y7016778D02*
D03*
%TF.MD5,272751ed24f7af3b59547f2fcd59d685*%
M02*
