%TF.GenerationSoftware,Altium Limited,Altium Designer,19.0.15 (446)*%
G04 Layer_Color=8421504*
%FSLAX45Y45*%
%MOMM*%
%TF.FileFunction,Paste,Top*%
%TF.Part,CustomerPanel*%
G01*
G75*
%TA.AperFunction,SMDPad,CuDef*%
%ADD10R,0.60000X0.75000*%
%ADD11R,0.85000X0.95000*%
%TA.AperFunction,ConnectorPad*%
%ADD12R,1.00000X0.30000*%
%ADD13R,1.00000X0.60000*%
%TA.AperFunction,SMDPad,CuDef*%
G04:AMPARAMS|DCode=14|XSize=0.2mm|YSize=0.2mm|CornerRadius=0.05mm|HoleSize=0mm|Usage=FLASHONLY|Rotation=0.000|XOffset=0mm|YOffset=0mm|HoleType=Round|Shape=RoundedRectangle|*
%AMROUNDEDRECTD14*
21,1,0.20000,0.10000,0,0,0.0*
21,1,0.10000,0.20000,0,0,0.0*
1,1,0.10000,0.05000,-0.05000*
1,1,0.10000,-0.05000,-0.05000*
1,1,0.10000,-0.05000,0.05000*
1,1,0.10000,0.05000,0.05000*
%
%ADD14ROUNDEDRECTD14*%
%ADD15R,0.70000X0.50000*%
%ADD16R,0.64000X0.60000*%
%ADD17R,1.20000X1.20000*%
%ADD18R,0.90000X1.00000*%
%ADD19R,0.75000X0.60000*%
%ADD20R,2.50000X3.00000*%
%ADD21R,0.50000X0.65000*%
%ADD22R,0.50000X0.55000*%
%ADD24R,0.65000X0.50000*%
%ADD25R,0.55000X0.50000*%
%ADD27R,0.60000X0.64000*%
%ADD28O,0.70000X0.20000*%
%ADD29C,0.80010*%
G04:AMPARAMS|DCode=34|XSize=0.2mm|YSize=0.6mm|CornerRadius=0.04mm|HoleSize=0mm|Usage=FLASHONLY|Rotation=90.000|XOffset=0mm|YOffset=0mm|HoleType=Round|Shape=RoundedRectangle|*
%AMROUNDEDRECTD34*
21,1,0.20000,0.52000,0,0,90.0*
21,1,0.12000,0.60000,0,0,90.0*
1,1,0.08000,0.26000,0.06000*
1,1,0.08000,0.26000,-0.06000*
1,1,0.08000,-0.26000,-0.06000*
1,1,0.08000,-0.26000,0.06000*
%
%ADD34ROUNDEDRECTD34*%
G04:AMPARAMS|DCode=35|XSize=0.6mm|YSize=0.2mm|CornerRadius=0.04mm|HoleSize=0mm|Usage=FLASHONLY|Rotation=90.000|XOffset=0mm|YOffset=0mm|HoleType=Round|Shape=RoundedRectangle|*
%AMROUNDEDRECTD35*
21,1,0.60000,0.12000,0,0,90.0*
21,1,0.52000,0.20000,0,0,90.0*
1,1,0.08000,0.06000,0.26000*
1,1,0.08000,0.06000,-0.26000*
1,1,0.08000,-0.06000,-0.26000*
1,1,0.08000,-0.06000,0.26000*
%
%ADD35ROUNDEDRECTD35*%
%ADD36R,1.27000X3.43000*%
%ADD37R,0.95000X0.85000*%
%ADD38R,1.30000X1.40000*%
%ADD39R,0.17000X0.52000*%
%ADD40R,0.27000X0.17000*%
%ADD41R,1.20000X1.20000*%
%ADD42R,0.52000X0.17000*%
%ADD43R,0.17000X0.27000*%
%ADD44R,4.70000X3.43000*%
%ADD46R,0.66000X0.32000*%
G04:AMPARAMS|DCode=47|XSize=1.97mm|YSize=0.6mm|CornerRadius=0.075mm|HoleSize=0mm|Usage=FLASHONLY|Rotation=0.000|XOffset=0mm|YOffset=0mm|HoleType=Round|Shape=RoundedRectangle|*
%AMROUNDEDRECTD47*
21,1,1.97000,0.45000,0,0,0.0*
21,1,1.82000,0.60000,0,0,0.0*
1,1,0.15000,0.91000,-0.22500*
1,1,0.15000,-0.91000,-0.22500*
1,1,0.15000,-0.91000,0.22500*
1,1,0.15000,0.91000,0.22500*
%
%ADD47ROUNDEDRECTD47*%
%ADD48R,3.43000X1.27000*%
%ADD49O,0.45000X1.40000*%
%ADD50R,2.23000X1.80000*%
%ADD51R,0.35000X0.30000*%
%ADD52R,0.44000X0.65000*%
%ADD53R,1.09000X0.65000*%
%ADD55R,3.43000X4.70000*%
%ADD56R,2.70000X2.20000*%
G04:AMPARAMS|DCode=57|XSize=0.83mm|YSize=0.22mm|CornerRadius=0.0275mm|HoleSize=0mm|Usage=FLASHONLY|Rotation=180.000|XOffset=0mm|YOffset=0mm|HoleType=Round|Shape=RoundedRectangle|*
%AMROUNDEDRECTD57*
21,1,0.83000,0.16500,0,0,180.0*
21,1,0.77500,0.22000,0,0,180.0*
1,1,0.05500,-0.38750,0.08250*
1,1,0.05500,0.38750,0.08250*
1,1,0.05500,0.38750,-0.08250*
1,1,0.05500,-0.38750,-0.08250*
%
%ADD57ROUNDEDRECTD57*%
G04:AMPARAMS|DCode=58|XSize=0.83mm|YSize=0.22mm|CornerRadius=0.0275mm|HoleSize=0mm|Usage=FLASHONLY|Rotation=90.000|XOffset=0mm|YOffset=0mm|HoleType=Round|Shape=RoundedRectangle|*
%AMROUNDEDRECTD58*
21,1,0.83000,0.16500,0,0,90.0*
21,1,0.77500,0.22000,0,0,90.0*
1,1,0.05500,0.08250,0.38750*
1,1,0.05500,0.08250,-0.38750*
1,1,0.05500,-0.08250,-0.38750*
1,1,0.05500,-0.08250,0.38750*
%
%ADD58ROUNDEDRECTD58*%
%ADD60R,1.50000X2.40000*%
%ADD61R,1.00000X0.90000*%
%ADD62R,1.40000X1.30000*%
%ADD63R,1.65000X1.20000*%
%ADD64R,1.20000X1.65000*%
%ADD66O,0.20000X0.70000*%
%ADD67R,3.00000X3.00000*%
%ADD68R,2.45000X2.55000*%
%ADD69R,2.55000X2.45000*%
%ADD70R,0.80000X0.90000*%
%ADD71O,0.95000X0.30000*%
%ADD72O,0.30000X0.95000*%
%ADD73R,3.35000X3.35000*%
%TA.AperFunction,NonConductor*%
%ADD152R,0.70000X0.70000*%
%ADD153R,0.70000X0.70000*%
%ADD154R,0.70000X0.70000*%
%TA.AperFunction,SMDPad,CuDef*%
%ADD155R,1.10000X1.10000*%
D10*
X6569640Y7176380D02*
D03*
Y7291380D02*
D03*
X6783000Y6491300D02*
D03*
Y6606300D02*
D03*
X4900860Y7413300D02*
D03*
Y7298300D02*
D03*
X9235620Y7284620D02*
D03*
Y7399620D02*
D03*
X4720520Y7029620D02*
D03*
Y6914620D02*
D03*
X3745160Y6347681D02*
D03*
Y6462681D02*
D03*
X3041580Y6028488D02*
D03*
Y6143488D02*
D03*
X4200620Y6366820D02*
D03*
Y6251820D02*
D03*
X4080440Y6366820D02*
D03*
Y6251820D02*
D03*
X4789100Y7413300D02*
D03*
Y7298300D02*
D03*
X4558660Y7256740D02*
D03*
Y7141740D02*
D03*
X6003120Y7944621D02*
D03*
Y7829621D02*
D03*
X5890620Y7944621D02*
D03*
Y7829621D02*
D03*
X5728900Y7255820D02*
D03*
Y7140820D02*
D03*
X8901580Y6156940D02*
D03*
Y6041940D02*
D03*
X9015880Y6156908D02*
D03*
Y6041908D02*
D03*
X6160900Y6228447D02*
D03*
Y6113446D02*
D03*
X12763120Y5992120D02*
D03*
Y6107120D02*
D03*
D11*
X6878480Y7968357D02*
D03*
X6748480D02*
D03*
X7621440Y6078184D02*
D03*
X7751440D02*
D03*
X9540320Y7597100D02*
D03*
X9670320D02*
D03*
X3258980Y7503449D02*
D03*
X3128980D02*
D03*
X4752500Y6784621D02*
D03*
X4622500D02*
D03*
D12*
X3113200Y6784098D02*
D03*
Y6834098D02*
D03*
Y6884098D02*
D03*
Y6934098D02*
D03*
Y7034098D02*
D03*
Y6984098D02*
D03*
Y6734098D02*
D03*
Y6684098D02*
D03*
D13*
Y7175098D02*
D03*
Y7095098D02*
D03*
Y6623098D02*
D03*
Y6543098D02*
D03*
D14*
X3450760Y7026080D02*
D03*
X3480760Y6992081D02*
D03*
Y7060080D02*
D03*
D15*
X6751580Y7795220D02*
D03*
X6951580D02*
D03*
D16*
X6688480Y7626120D02*
D03*
Y7538120D02*
D03*
X6569640Y7625861D02*
D03*
Y7537860D02*
D03*
X3754968Y6615293D02*
D03*
Y6703293D02*
D03*
X3968680Y6256881D02*
D03*
Y6344881D02*
D03*
X3862000Y6457460D02*
D03*
Y6369460D02*
D03*
X3643120Y6825621D02*
D03*
Y6913621D02*
D03*
X3643120Y6731445D02*
D03*
Y6643445D02*
D03*
X3282880Y7080660D02*
D03*
Y7168661D02*
D03*
Y7361700D02*
D03*
Y7273700D02*
D03*
X3270180Y6649060D02*
D03*
Y6561060D02*
D03*
X3270588Y6372000D02*
D03*
Y6460001D02*
D03*
X9175621Y6716777D02*
D03*
Y6804777D02*
D03*
X6688464Y7198723D02*
D03*
Y7286724D02*
D03*
X6025504Y6774660D02*
D03*
Y6862660D02*
D03*
X5918776Y6774660D02*
D03*
Y6862660D02*
D03*
X6347599Y7929352D02*
D03*
Y7841352D02*
D03*
X6233299Y7929352D02*
D03*
Y7841352D02*
D03*
X6118999Y7929352D02*
D03*
Y7841352D02*
D03*
D17*
X8134340Y6078180D02*
D03*
X7924340D02*
D03*
X9461143Y7775300D02*
D03*
X9671143D02*
D03*
X2728020Y7483425D02*
D03*
X2938020D02*
D03*
X12248396Y6509748D02*
D03*
X12038396D02*
D03*
D18*
X3972300Y7477921D02*
D03*
X4107300D02*
D03*
X12933121Y6137425D02*
D03*
X13068120D02*
D03*
X12933121Y6294080D02*
D03*
X13068120D02*
D03*
X13233121Y6026117D02*
D03*
X13368120D02*
D03*
X11680620Y6556479D02*
D03*
X11545620D02*
D03*
X14823120Y7994620D02*
D03*
X14958121D02*
D03*
X12490072Y6127120D02*
D03*
X12625072D02*
D03*
X15919360Y6372121D02*
D03*
X16054359D02*
D03*
D19*
X12308420Y6245069D02*
D03*
X12423420D02*
D03*
X3840340Y6967081D02*
D03*
Y7082120D02*
D03*
X8532140Y6268680D02*
D03*
X8417140D02*
D03*
X8783600Y6222960D02*
D03*
X8668600D02*
D03*
X4487768Y6916380D02*
D03*
X4602768D02*
D03*
X4487760Y7020520D02*
D03*
X4602760D02*
D03*
X3725340Y7082120D02*
D03*
Y6967081D02*
D03*
X4440620Y7839620D02*
D03*
X4555620D02*
D03*
X4440620Y7967620D02*
D03*
X4555620D02*
D03*
X4440620Y7714620D02*
D03*
X4555620D02*
D03*
X5578120Y7714120D02*
D03*
X5463120D02*
D03*
X5578120Y7839620D02*
D03*
X5463120D02*
D03*
X4668840Y6548520D02*
D03*
X4553840D02*
D03*
X4553800Y6324560D02*
D03*
X4668800D02*
D03*
X6690640Y7035177D02*
D03*
X6575640D02*
D03*
X9466160Y6468900D02*
D03*
X9581160D02*
D03*
X9457240Y6114287D02*
D03*
X9572240D02*
D03*
X9273120D02*
D03*
X9158120D02*
D03*
X8780360Y6322800D02*
D03*
X8895360D02*
D03*
X9571670Y6233813D02*
D03*
X9456670D02*
D03*
X8896120Y6436020D02*
D03*
X8781120D02*
D03*
X12286729Y6127120D02*
D03*
X12171729D02*
D03*
X12173120Y6007120D02*
D03*
X12058120D02*
D03*
X12173120Y6247120D02*
D03*
X12058120D02*
D03*
X12173120Y6367120D02*
D03*
X12058120D02*
D03*
X12944600Y6002320D02*
D03*
X13059599D02*
D03*
X13765620Y6004620D02*
D03*
X13880620D02*
D03*
X13995621Y6112080D02*
D03*
X13880620D02*
D03*
X12500840Y5992959D02*
D03*
X12615840D02*
D03*
X13515620Y6004620D02*
D03*
X13630620D02*
D03*
X5815620Y6493820D02*
D03*
X5700620D02*
D03*
X14162120Y6246080D02*
D03*
X14047121D02*
D03*
X14161620Y6368441D02*
D03*
X14046619D02*
D03*
X6316260Y6213120D02*
D03*
X6431260D02*
D03*
X5700620Y6603820D02*
D03*
X5815620D02*
D03*
D20*
X13091776Y7531060D02*
D03*
X13971779D02*
D03*
D21*
X14804120Y7270484D02*
D03*
X14677119D02*
D03*
X14550121D02*
D03*
X14423120D02*
D03*
X12635620Y7269620D02*
D03*
X12508620D02*
D03*
X12381620D02*
D03*
X12254620D02*
D03*
D22*
X14423120Y6715484D02*
D03*
X14550121D02*
D03*
X14677119D02*
D03*
X14804120D02*
D03*
X12254620Y6714620D02*
D03*
X12381620D02*
D03*
X12508620D02*
D03*
X12635620D02*
D03*
D24*
X14959120Y7431484D02*
D03*
Y7558484D02*
D03*
Y7685484D02*
D03*
Y7812484D02*
D03*
X12098120Y7812620D02*
D03*
Y7685620D02*
D03*
Y7558620D02*
D03*
Y7431620D02*
D03*
D25*
X14404120Y7812484D02*
D03*
Y7685484D02*
D03*
Y7558484D02*
D03*
Y7431484D02*
D03*
X12653120Y7431620D02*
D03*
Y7558620D02*
D03*
Y7685620D02*
D03*
Y7812620D02*
D03*
D27*
X12105120Y6782742D02*
D03*
X12017120D02*
D03*
X5547120Y7967120D02*
D03*
X5459120D02*
D03*
X4286620Y7220120D02*
D03*
X4374620D02*
D03*
X4553700Y6212120D02*
D03*
X4465700D02*
D03*
X9584170Y6586630D02*
D03*
X9496170D02*
D03*
X9482869Y6352060D02*
D03*
X9570869D02*
D03*
X8808900Y6555536D02*
D03*
X8896900D02*
D03*
X13919620Y6377280D02*
D03*
X13831619D02*
D03*
X14290100Y6246080D02*
D03*
X14378101D02*
D03*
X14185620Y6485941D02*
D03*
X14273621D02*
D03*
X12104540Y6891642D02*
D03*
X12016540D02*
D03*
X14290118Y6368441D02*
D03*
X14378119D02*
D03*
X14185620Y6128580D02*
D03*
X14273621D02*
D03*
X5937504Y6565259D02*
D03*
X6025504D02*
D03*
X5937504Y6450959D02*
D03*
X6025504D02*
D03*
D28*
X13733121Y6287121D02*
D03*
Y6327121D02*
D03*
X13328120Y6487121D02*
D03*
Y6447121D02*
D03*
Y6407121D02*
D03*
Y6367121D02*
D03*
Y6327121D02*
D03*
Y6287121D02*
D03*
Y6247121D02*
D03*
Y6207121D02*
D03*
X13733121D02*
D03*
Y6247121D02*
D03*
Y6367121D02*
D03*
Y6407121D02*
D03*
Y6447121D02*
D03*
Y6487121D02*
D03*
D29*
X7204120Y6894080D02*
D03*
X7077072Y6895560D02*
D03*
D34*
X3991100Y6565060D02*
D03*
Y6605060D02*
D03*
Y6645060D02*
D03*
Y6845060D02*
D03*
Y6885060D02*
D03*
Y6925060D02*
D03*
Y6965060D02*
D03*
Y7005060D02*
D03*
Y7045060D02*
D03*
X4371100D02*
D03*
Y7005060D02*
D03*
Y6965060D02*
D03*
Y6925060D02*
D03*
Y6885060D02*
D03*
Y6845060D02*
D03*
Y6805060D02*
D03*
Y6765060D02*
D03*
Y6725060D02*
D03*
Y6685060D02*
D03*
Y6645060D02*
D03*
Y6605060D02*
D03*
Y6565060D02*
D03*
D35*
X4281100Y6515060D02*
D03*
X4241100D02*
D03*
X4201100D02*
D03*
X4161100D02*
D03*
X4121100D02*
D03*
X4081100D02*
D03*
D36*
X3478460Y7596120D02*
D03*
X3224460Y7888120D02*
D03*
D37*
X3537120Y6012120D02*
D03*
Y6142120D02*
D03*
X12438120Y6502120D02*
D03*
Y6372120D02*
D03*
X8883120Y7412120D02*
D03*
Y7282120D02*
D03*
X2903020Y6150981D02*
D03*
Y6020981D02*
D03*
X5690800Y6290500D02*
D03*
Y6160501D02*
D03*
X13488260Y6698554D02*
D03*
Y6828554D02*
D03*
X15906860Y6092121D02*
D03*
Y6222121D02*
D03*
X16066859Y6092120D02*
D03*
Y6222120D02*
D03*
X11535620Y6706403D02*
D03*
Y6836403D02*
D03*
X11690620Y6706403D02*
D03*
Y6836403D02*
D03*
D38*
X4250964Y7570120D02*
D03*
X4410964D02*
D03*
X4250964Y7375120D02*
D03*
X4410963D02*
D03*
X9615620Y7202120D02*
D03*
X9775620D02*
D03*
X9616870Y7399620D02*
D03*
X9776869D02*
D03*
X8430822Y6432120D02*
D03*
X8590822D02*
D03*
X8430822Y6619620D02*
D03*
X8590822D02*
D03*
X16419272Y6138256D02*
D03*
X16259271D02*
D03*
X16419272Y6340756D02*
D03*
X16259271D02*
D03*
D39*
X4511880Y6784300D02*
D03*
D40*
X4471880Y6766800D02*
D03*
Y6801800D02*
D03*
D41*
X4870380Y6935840D02*
D03*
Y7145840D02*
D03*
X9411787Y7406983D02*
D03*
Y7196983D02*
D03*
X3362120Y6224621D02*
D03*
Y6014620D02*
D03*
X2728020Y6230980D02*
D03*
Y6020980D02*
D03*
X9058120Y7202120D02*
D03*
Y7412120D02*
D03*
D42*
X12300620Y6372121D02*
D03*
X3538120Y6252120D02*
D03*
X2903020Y6249660D02*
D03*
D43*
X12318120Y6332120D02*
D03*
X12283120D02*
D03*
X3520620Y6292121D02*
D03*
X3555620D02*
D03*
X2885520Y6289661D02*
D03*
X2920520D02*
D03*
D44*
X15731419Y7853640D02*
D03*
X2840920Y7863800D02*
D03*
X9048680Y7754580D02*
D03*
X11132621Y7276618D02*
D03*
X15200620Y6807120D02*
D03*
D46*
X4090620Y7354621D02*
D03*
Y7289621D02*
D03*
Y7224621D02*
D03*
X3885620D02*
D03*
Y7289621D02*
D03*
Y7354621D02*
D03*
D47*
X5258120Y7967620D02*
D03*
Y7840620D02*
D03*
Y7713620D02*
D03*
Y7586620D02*
D03*
X4763120D02*
D03*
Y7713620D02*
D03*
Y7840620D02*
D03*
Y7967620D02*
D03*
D48*
X5031620Y6347420D02*
D03*
X4739620Y6093420D02*
D03*
X8149120Y6603960D02*
D03*
X7857120Y6349960D02*
D03*
X7403980Y6606500D02*
D03*
X7111980Y6352500D02*
D03*
D49*
X6442100Y7625756D02*
D03*
X6377100D02*
D03*
X6312100D02*
D03*
X6247100D02*
D03*
X6182100D02*
D03*
X6117100D02*
D03*
X6052100D02*
D03*
X5987100D02*
D03*
X5922100D02*
D03*
X5857100D02*
D03*
X6442100Y7035756D02*
D03*
X6377100D02*
D03*
X6312100D02*
D03*
X6247100D02*
D03*
X6182100D02*
D03*
X6117100D02*
D03*
X6052100D02*
D03*
X5987100D02*
D03*
X5922100D02*
D03*
X5857100D02*
D03*
D50*
X10765420Y6549400D02*
D03*
Y6841400D02*
D03*
X10433509Y6551718D02*
D03*
Y6843718D02*
D03*
X10105320Y6551722D02*
D03*
Y6843722D02*
D03*
X8325620Y7150038D02*
D03*
Y6858038D02*
D03*
X8003120Y7150038D02*
D03*
Y6858038D02*
D03*
X7680620Y7150038D02*
D03*
Y6858038D02*
D03*
D51*
X9868121Y6913036D02*
D03*
Y6793036D02*
D03*
X9553121D02*
D03*
X9553121Y6913036D02*
D03*
X8537901Y6852120D02*
D03*
Y6972120D02*
D03*
X8852901D02*
D03*
X8852900Y6852120D02*
D03*
D52*
X9678120Y7000536D02*
D03*
X9613121Y7000536D02*
D03*
X9808120Y6705536D02*
D03*
X9743120D02*
D03*
X9678120D02*
D03*
X9613121D02*
D03*
X8727902Y6764620D02*
D03*
X8792900Y6764620D02*
D03*
X8597902Y7059620D02*
D03*
X8662902D02*
D03*
X8727902D02*
D03*
X8792900D02*
D03*
D53*
X9775620Y7000536D02*
D03*
X8630402Y6764620D02*
D03*
D55*
X7735620Y7613860D02*
D03*
D56*
X8625621Y7660537D02*
D03*
X8115621D02*
D03*
D57*
X9319620Y6354621D02*
D03*
Y6394621D02*
D03*
Y6434621D02*
D03*
Y6474621D02*
D03*
Y6514621D02*
D03*
X9031620D02*
D03*
Y6474621D02*
D03*
Y6434621D02*
D03*
Y6394621D02*
D03*
Y6354621D02*
D03*
D58*
X9095620Y6290621D02*
D03*
X9135620D02*
D03*
X9175620D02*
D03*
X9215620D02*
D03*
X9255620D02*
D03*
Y6578621D02*
D03*
X9215620D02*
D03*
X9175620D02*
D03*
X9135620D02*
D03*
X9095620D02*
D03*
D60*
X10297940Y6169620D02*
D03*
X9927940D02*
D03*
D61*
X11958120Y7577120D02*
D03*
Y7442120D02*
D03*
X14516801Y6457720D02*
D03*
Y6592720D02*
D03*
X13644666Y6835797D02*
D03*
Y6700797D02*
D03*
X11837600Y6420954D02*
D03*
Y6555954D02*
D03*
X11387280Y6423221D02*
D03*
Y6558221D02*
D03*
X13323500Y6795920D02*
D03*
Y6660920D02*
D03*
X13861980Y6671460D02*
D03*
Y6536460D02*
D03*
D62*
X12933121Y6480780D02*
D03*
Y6640780D02*
D03*
X15283272Y6504416D02*
D03*
Y6344416D02*
D03*
X14693272Y6343200D02*
D03*
Y6503200D02*
D03*
X15088272Y6344416D02*
D03*
Y6504416D02*
D03*
X15390620Y7237120D02*
D03*
Y7077120D02*
D03*
X15005620Y7237120D02*
D03*
Y7077120D02*
D03*
X14890771Y6343200D02*
D03*
Y6503200D02*
D03*
X15198120Y7237984D02*
D03*
Y7077984D02*
D03*
X10876692Y7697984D02*
D03*
Y7537984D02*
D03*
X11077763Y7697984D02*
D03*
Y7537984D02*
D03*
X11278834Y7697984D02*
D03*
Y7537984D02*
D03*
X11479905Y7697984D02*
D03*
Y7537984D02*
D03*
X10678650Y7700867D02*
D03*
Y7540867D02*
D03*
X11678134Y7696841D02*
D03*
Y7536841D02*
D03*
D63*
X3955831Y7958080D02*
D03*
Y7678080D02*
D03*
X3723781Y7959477D02*
D03*
Y7679477D02*
D03*
D64*
X3997120Y6047120D02*
D03*
X3717120D02*
D03*
X15846860Y6572121D02*
D03*
X16126860D02*
D03*
X11473120Y7028903D02*
D03*
X11753120D02*
D03*
D66*
X13390620Y6144621D02*
D03*
X13430620D02*
D03*
X13470621D02*
D03*
X13510620D02*
D03*
X13550620D02*
D03*
X13590620D02*
D03*
X13630620D02*
D03*
X13670621D02*
D03*
Y6549621D02*
D03*
X13630620D02*
D03*
X13590620D02*
D03*
X13550620D02*
D03*
X13510620D02*
D03*
X13470621D02*
D03*
X13430620D02*
D03*
X13390620D02*
D03*
D67*
X13530620Y6347121D02*
D03*
D68*
X15741580Y6909618D02*
D03*
Y7514618D02*
D03*
X16252119Y6909610D02*
D03*
Y7514610D02*
D03*
D69*
X10753260Y7213022D02*
D03*
X10148260D02*
D03*
D70*
X5945900Y6313120D02*
D03*
X6040900Y6113120D02*
D03*
X5850900D02*
D03*
D71*
X6154080Y6723800D02*
D03*
Y6673800D02*
D03*
Y6623800D02*
D03*
Y6573800D02*
D03*
Y6523800D02*
D03*
Y6473800D02*
D03*
Y6423800D02*
D03*
X6634080D02*
D03*
Y6473800D02*
D03*
Y6523800D02*
D03*
Y6573800D02*
D03*
Y6623800D02*
D03*
Y6673800D02*
D03*
Y6723800D02*
D03*
D72*
X6244080Y6333800D02*
D03*
X6294080D02*
D03*
X6344080D02*
D03*
X6394080D02*
D03*
X6444080D02*
D03*
X6494080D02*
D03*
X6544080D02*
D03*
Y6813800D02*
D03*
X6494080D02*
D03*
X6444080D02*
D03*
X6394080D02*
D03*
X6344080D02*
D03*
X6294080D02*
D03*
X6244080D02*
D03*
D73*
X6394080Y6573800D02*
D03*
D152*
X9618121Y6900536D02*
D03*
Y6805536D02*
D03*
X8787901Y6864621D02*
D03*
Y6959621D02*
D03*
D153*
X9710621Y6805536D02*
D03*
X9803121D02*
D03*
X8695401Y6959620D02*
D03*
X8602901D02*
D03*
D154*
X9708121Y6900536D02*
D03*
X9803121D02*
D03*
X8697901Y6864621D02*
D03*
X8602901D02*
D03*
D155*
X9175620Y6434621D02*
D03*
%TF.MD5,bf57bf1e4b86f56be22cea78932bbbf1*%
M02*
