%TF.GenerationSoftware,Altium Limited,Altium Designer,19.0.15 (446)*%
G04 Layer_Color=32896*
%FSLAX45Y45*%
%MOMM*%
%TF.FileFunction,Legend,Bot*%
%TF.Part,CustomerPanel*%
G01*
G75*
%TA.AperFunction,NonConductor*%
%ADD115C,0.00000*%
%ADD116C,0.20000*%
%ADD117C,0.15000*%
%ADD118C,0.12700*%
%ADD119C,0.50000*%
%ADD120C,0.25400*%
D115*
X7541120Y7966820D02*
G03*
X7541120Y7966820I-10000J0D01*
G01*
D116*
X8418661Y7496120D02*
G03*
X8418661Y7496120I-10000J0D01*
G01*
X8355725Y7197552D02*
G03*
X8355725Y7197552I-10000J0D01*
G01*
X9919304Y7283072D02*
X9989304D01*
X9919304D02*
Y7763072D01*
X9989304D01*
X10149304D02*
X10219304D01*
Y7283072D02*
Y7763072D01*
X10149304Y7283072D02*
X10219304D01*
X9919304Y7523072D02*
X10219304D01*
D117*
X7938696Y7666641D02*
X7951396D01*
X7938696D02*
Y7895241D01*
X7951396D01*
X8027596D02*
X8040296D01*
Y7666641D02*
Y7895241D01*
X8027596Y7666641D02*
X8040296D01*
X7938696Y7780941D02*
X8040296D01*
X7699932Y7462884D02*
Y7475584D01*
X7928532D01*
Y7462884D02*
Y7475584D01*
Y7373984D02*
Y7386684D01*
X7699932Y7373984D02*
X7928532D01*
X7699932D02*
Y7386684D01*
X7814232Y7373984D02*
Y7475584D01*
X7928532Y7492565D02*
Y7505265D01*
X7699932Y7492565D02*
X7928532D01*
X7699932D02*
Y7505265D01*
Y7581465D02*
Y7594165D01*
X7928532D01*
Y7581465D02*
Y7594165D01*
X7814232Y7492565D02*
Y7594165D01*
X8618420Y7728080D02*
Y7748080D01*
Y7728080D02*
X8958420D01*
Y7748080D01*
X8618420Y7888080D02*
Y7908080D01*
X8958420D01*
Y7888080D02*
Y7908080D01*
X8788420Y7728080D02*
Y7908080D01*
X8319221Y7880933D02*
X8339221D01*
Y7680933D02*
Y7880933D01*
X8319221Y7680933D02*
X8339221D01*
X8239221D02*
X8259221D01*
X8239221D02*
Y7880933D01*
X8259221D01*
X8156200Y7631479D02*
Y7651479D01*
X8356200D01*
Y7631479D02*
Y7651479D01*
Y7551479D02*
Y7571479D01*
X8156200Y7551479D02*
X8356200D01*
X8156200D02*
Y7571479D01*
X8512725Y7906933D02*
X8532725D01*
Y7706933D02*
Y7906933D01*
X8512725Y7706933D02*
X8532725D01*
X8432725D02*
X8452725D01*
X8432725D02*
Y7906933D01*
X8452725D01*
X8082061Y7780941D02*
X8222061D01*
X8082061Y7907941D02*
X8101261D01*
X8082061Y7653941D02*
Y7907941D01*
Y7653941D02*
X8101261D01*
X8202861D02*
X8222061D01*
Y7907941D01*
X8202861D02*
X8222061D01*
X9269020Y7661489D02*
X9299020D01*
Y7381489D02*
Y7661489D01*
X9269020Y7381489D02*
X9299020D01*
X9159020D02*
X9189020D01*
X9159020D02*
Y7661489D01*
X9189020D01*
X9159020Y7521489D02*
X9299020D01*
X9610320Y7364369D02*
Y7394369D01*
X9330320Y7364369D02*
X9610320D01*
X9330320D02*
Y7394369D01*
Y7474369D02*
Y7504369D01*
X9610320D01*
Y7474369D02*
Y7504369D01*
X9470320Y7364369D02*
Y7504369D01*
X9767500Y7364369D02*
Y7504369D01*
X9640500Y7364369D02*
Y7383569D01*
Y7364369D02*
X9894500D01*
Y7383569D01*
Y7485169D02*
Y7504369D01*
X9640500D02*
X9894500D01*
X9640500Y7485169D02*
Y7504369D01*
X9610320Y7540389D02*
Y7570389D01*
X9330320Y7540389D02*
X9610320D01*
X9330320D02*
Y7570389D01*
Y7650389D02*
Y7680389D01*
X9610320D01*
Y7650389D02*
Y7680389D01*
X9470320Y7540389D02*
Y7680389D01*
X9767500Y7540389D02*
Y7680389D01*
X9640500Y7540389D02*
Y7559589D01*
Y7540389D02*
X9894500D01*
Y7559589D01*
Y7661189D02*
Y7680389D01*
X9640500D02*
X9894500D01*
X9640500Y7661189D02*
Y7680389D01*
X3719920Y6933821D02*
X3745320Y6908421D01*
X3719920Y6883021D02*
X3745320Y6908421D01*
X3719920Y6883021D02*
Y6933821D01*
X3745320Y6908421D02*
X3770720D01*
X3745320Y6818420D02*
Y6998421D01*
X3935820Y6933821D02*
Y6998421D01*
X3542120D02*
X3935820D01*
X3542120Y6978421D02*
Y6998421D01*
X3935820Y6818420D02*
Y6883021D01*
X3542120Y6818420D02*
X3935820D01*
X3542120D02*
Y6838420D01*
X3935820Y6933821D02*
X3948520D01*
Y6998421D01*
X3935820D02*
X3948520D01*
X3935820Y6818420D02*
X3948520D01*
Y6883021D01*
X3935820D02*
X3948520D01*
X3935820Y6248021D02*
X3948520D01*
Y6183420D02*
Y6248021D01*
X3935820Y6183420D02*
X3948520D01*
X3935820Y6363421D02*
X3948520D01*
Y6298821D02*
Y6363421D01*
X3935820Y6298821D02*
X3948520D01*
X3542120Y6183420D02*
Y6203420D01*
Y6183420D02*
X3935820D01*
Y6248021D01*
X3542120Y6343421D02*
Y6363421D01*
X3935820D01*
Y6298821D02*
Y6363421D01*
X3745320Y6183420D02*
Y6363421D01*
Y6273421D02*
X3770720D01*
X3719920Y6248021D02*
Y6298821D01*
Y6248021D02*
X3745320Y6273421D01*
X3719920Y6298821D02*
X3745320Y6273421D01*
X3935820Y7520521D02*
X3948520D01*
Y7455921D02*
Y7520521D01*
X3935820Y7455921D02*
X3948520D01*
X3935820Y7635921D02*
X3948520D01*
Y7571321D02*
Y7635921D01*
X3935820Y7571321D02*
X3948520D01*
X3542120Y7455921D02*
Y7475921D01*
Y7455921D02*
X3935820D01*
Y7520521D01*
X3542120Y7615921D02*
Y7635921D01*
X3935820D01*
Y7571321D02*
Y7635921D01*
X3745320Y7455921D02*
Y7635921D01*
Y7545921D02*
X3770720D01*
X3719920Y7520521D02*
Y7571321D01*
Y7520521D02*
X3745320Y7545921D01*
X3719920Y7571321D02*
X3745320Y7545921D01*
D118*
X7566120Y7721820D02*
Y7801820D01*
X7856120Y7721820D02*
Y7801820D01*
X7786120Y7721820D02*
X7856120D01*
X7566120D02*
X7636120D01*
X8093661Y7438120D02*
Y7522120D01*
X8171161D01*
X8093661Y7230120D02*
Y7314120D01*
Y7230120D02*
X8171161D01*
X8223661Y7343120D02*
Y7409120D01*
X8549725Y7673552D02*
X8989725D01*
X8549725Y7173552D02*
X8989725D01*
D119*
X3885620Y7432120D02*
Y7662120D01*
X3555620Y7432120D02*
X3885620D01*
X3555620D02*
Y7662120D01*
X3885620D01*
X3555620Y7027120D02*
X3885620D01*
X3555620Y6797120D02*
Y7027120D01*
Y6797120D02*
X3885620D01*
Y7027120D01*
X3555620Y6392120D02*
X3885620D01*
X3555620Y6162120D02*
Y6392120D01*
Y6162120D02*
X3885620D01*
Y6392120D01*
X2575620Y7724620D02*
X3885620D01*
X2577470Y6098620D02*
X3885620D01*
Y7662120D02*
Y7724620D01*
Y6098620D02*
Y6162120D01*
Y7364620D02*
Y7432120D01*
X3555620Y7364620D02*
X3885620D01*
Y7027120D02*
Y7094620D01*
X3555620D02*
X3885620D01*
X3555620D02*
Y7364620D01*
X3885620Y6729620D02*
Y6797120D01*
Y6392120D02*
Y6459620D01*
X3555620D02*
X3885620D01*
X3555620D02*
Y6729620D01*
X3885620D01*
X3275620Y6098620D02*
Y7724620D01*
X2576035Y7364620D02*
X3275620D01*
X2576462Y7094620D02*
X3275620D01*
X2576894Y6729620D02*
X3275620D01*
X2577195Y6459620D02*
X3275620D01*
X2575620Y7364620D02*
Y7724620D01*
X2576462Y6729620D02*
Y7094620D01*
X2577195Y6098620D02*
Y6459620D01*
D120*
X7578020Y7440595D02*
X7654195D01*
Y7478683D01*
X7641499Y7491379D01*
X7616108D01*
X7603412Y7478683D01*
Y7440595D01*
Y7465987D02*
X7578020Y7491379D01*
X7654195Y7516771D02*
Y7567554D01*
X7641499D01*
X7590716Y7516771D01*
X7578020D01*
X7654195Y7643729D02*
X7641499Y7618338D01*
X7616108Y7592946D01*
X7590716D01*
X7578020Y7605642D01*
Y7631034D01*
X7590716Y7643729D01*
X7603412D01*
X7616108Y7631034D01*
Y7592946D01*
X7920920Y7265038D02*
Y7341213D01*
X7882832D01*
X7870136Y7328517D01*
Y7303126D01*
X7882832Y7290430D01*
X7920920D01*
X7895528D02*
X7870136Y7265038D01*
X7844745Y7341213D02*
X7793961D01*
Y7328517D01*
X7844745Y7277734D01*
Y7265038D01*
X7717786Y7341213D02*
X7768569D01*
Y7303126D01*
X7743177Y7315821D01*
X7730481D01*
X7717786Y7303126D01*
Y7277734D01*
X7730481Y7265038D01*
X7755873D01*
X7768569Y7277734D01*
X10264554Y7294840D02*
X10340729D01*
Y7332928D01*
X10328033Y7345624D01*
X10302641D01*
X10289945Y7332928D01*
Y7294840D01*
Y7320232D02*
X10264554Y7345624D01*
Y7371016D02*
Y7396408D01*
Y7383712D01*
X10340729D01*
X10328033Y7371016D01*
Y7434495D02*
X10340729Y7447191D01*
Y7472583D01*
X10328033Y7485279D01*
X10315337D01*
X10302641Y7472583D01*
Y7459887D01*
Y7472583D01*
X10289945Y7485279D01*
X10277249D01*
X10264554Y7472583D01*
Y7447191D01*
X10277249Y7434495D01*
X8947080Y7937460D02*
Y8013636D01*
X8908992D01*
X8896296Y8000940D01*
Y7975548D01*
X8908992Y7962852D01*
X8947080D01*
X8921688D02*
X8896296Y7937460D01*
X8870905Y8013636D02*
X8820121D01*
Y8000940D01*
X8870905Y7950156D01*
Y7937460D01*
X8794729Y7950156D02*
X8782033Y7937460D01*
X8756641D01*
X8743946Y7950156D01*
Y8000940D01*
X8756641Y8013636D01*
X8782033D01*
X8794729Y8000940D01*
Y7988244D01*
X8782033Y7975548D01*
X8743946D01*
X8217001Y7942540D02*
Y8018716D01*
X8178913D01*
X8166217Y8006020D01*
Y7980628D01*
X8178913Y7967932D01*
X8217001D01*
X8191609D02*
X8166217Y7942540D01*
X8140825Y8018716D02*
X8090042D01*
Y8006020D01*
X8140825Y7955236D01*
Y7942540D01*
X8064650Y8006020D02*
X8051954Y8018716D01*
X8026562D01*
X8013867Y8006020D01*
Y7993324D01*
X8026562Y7980628D01*
X8013867Y7967932D01*
Y7955236D01*
X8026562Y7942540D01*
X8051954D01*
X8064650Y7955236D01*
Y7967932D01*
X8051954Y7980628D01*
X8064650Y7993324D01*
Y8006020D01*
X8051954Y7980628D02*
X8026562D01*
X7976800Y7939621D02*
Y8015796D01*
X7938712D01*
X7926016Y8003100D01*
Y7977708D01*
X7938712Y7965013D01*
X7976800D01*
X7951408D02*
X7926016Y7939621D01*
X7900625Y8015796D02*
X7849841D01*
Y8003100D01*
X7900625Y7952317D01*
Y7939621D01*
X7824449Y8015796D02*
X7773666D01*
Y8003100D01*
X7824449Y7952317D01*
Y7939621D01*
X9889420Y7700867D02*
Y7777042D01*
X9851332D01*
X9838636Y7764346D01*
Y7738955D01*
X9851332Y7726259D01*
X9889420D01*
X9864028D02*
X9838636Y7700867D01*
X9762461Y7777042D02*
X9813245D01*
Y7738955D01*
X9787853Y7751650D01*
X9775157D01*
X9762461Y7738955D01*
Y7713563D01*
X9775157Y7700867D01*
X9800549D01*
X9813245Y7713563D01*
X9737069Y7764346D02*
X9724373Y7777042D01*
X9698981D01*
X9686286Y7764346D01*
Y7713563D01*
X9698981Y7700867D01*
X9724373D01*
X9737069Y7713563D01*
Y7764346D01*
X9883137Y7264652D02*
Y7340827D01*
X9845049D01*
X9832353Y7328131D01*
Y7302740D01*
X9845049Y7290044D01*
X9883137D01*
X9857745D02*
X9832353Y7264652D01*
X9806962D02*
X9781570D01*
X9794266D01*
Y7340827D01*
X9806962Y7328131D01*
X9705394Y7264652D02*
Y7340827D01*
X9743482Y7302740D01*
X9692699D01*
X8200336Y7121330D02*
Y7172113D01*
X8213032Y7184809D01*
X8238424D01*
X8251120Y7172113D01*
Y7121330D01*
X8238424Y7108634D01*
X8213032D01*
X8225728Y7134026D02*
X8200336Y7108634D01*
X8213032D02*
X8200336Y7121330D01*
X8174945Y7108634D02*
X8149553D01*
X8162249D01*
Y7184809D01*
X8174945Y7172113D01*
X8111465D02*
X8098769Y7184809D01*
X8073377D01*
X8060682Y7172113D01*
Y7121330D01*
X8073377Y7108634D01*
X8098769D01*
X8111465Y7121330D01*
Y7172113D01*
X7481516Y7740228D02*
Y7791011D01*
X7494212Y7803707D01*
X7519604D01*
X7532300Y7791011D01*
Y7740228D01*
X7519604Y7727532D01*
X7494212D01*
X7506908Y7752924D02*
X7481516Y7727532D01*
X7494212D02*
X7481516Y7740228D01*
X7456125D02*
X7443429Y7727532D01*
X7418037D01*
X7405341Y7740228D01*
Y7791011D01*
X7418037Y7803707D01*
X7443429D01*
X7456125Y7791011D01*
Y7778315D01*
X7443429Y7765619D01*
X7405341D01*
X8315441Y7952716D02*
X8328137Y7940021D01*
Y7914629D01*
X8315441Y7901933D01*
X8264657D01*
X8251961Y7914629D01*
Y7940021D01*
X8264657Y7952716D01*
X8315441Y7978108D02*
X8328137Y7990804D01*
Y8016196D01*
X8315441Y8028892D01*
X8302745D01*
X8290049Y8016196D01*
X8277353Y8028892D01*
X8264657D01*
X8251961Y8016196D01*
Y7990804D01*
X8264657Y7978108D01*
X8277353D01*
X8290049Y7990804D01*
X8302745Y7978108D01*
X8315441D01*
X8290049Y7990804D02*
Y8016196D01*
X8328137Y8105067D02*
Y8054284D01*
X8290049D01*
X8302745Y8079675D01*
Y8092371D01*
X8290049Y8105067D01*
X8264657D01*
X8251961Y8092371D01*
Y8066980D01*
X8264657Y8054284D01*
X9550346Y7769546D02*
X9563042Y7782242D01*
X9588434D01*
X9601130Y7769546D01*
Y7718763D01*
X9588434Y7706067D01*
X9563042D01*
X9550346Y7718763D01*
X9524955Y7769546D02*
X9512259Y7782242D01*
X9486867D01*
X9474171Y7769546D01*
Y7756850D01*
X9486867Y7744154D01*
X9474171Y7731459D01*
Y7718763D01*
X9486867Y7706067D01*
X9512259D01*
X9524955Y7718763D01*
Y7731459D01*
X9512259Y7744154D01*
X9524955Y7756850D01*
Y7769546D01*
X9512259Y7744154D02*
X9486867D01*
X9410691Y7706067D02*
Y7782242D01*
X9448779Y7744154D01*
X9397996D01*
X9544839Y7329299D02*
X9557535Y7341995D01*
X9582926D01*
X9595622Y7329299D01*
Y7278516D01*
X9582926Y7265820D01*
X9557535D01*
X9544839Y7278516D01*
X9519447Y7329299D02*
X9506751Y7341995D01*
X9481359D01*
X9468664Y7329299D01*
Y7316603D01*
X9481359Y7303907D01*
X9468664Y7291211D01*
Y7278516D01*
X9481359Y7265820D01*
X9506751D01*
X9519447Y7278516D01*
Y7291211D01*
X9506751Y7303907D01*
X9519447Y7316603D01*
Y7329299D01*
X9506751Y7303907D02*
X9481359D01*
X9443272Y7329299D02*
X9430576Y7341995D01*
X9405184D01*
X9392488Y7329299D01*
Y7316603D01*
X9405184Y7303907D01*
X9417880D01*
X9405184D01*
X9392488Y7291211D01*
Y7278516D01*
X9405184Y7265820D01*
X9430576D01*
X9443272Y7278516D01*
X8088267Y7617514D02*
X8100963Y7630210D01*
X8126355D01*
X8139051Y7617514D01*
Y7566730D01*
X8126355Y7554034D01*
X8100963D01*
X8088267Y7566730D01*
X8062875Y7617514D02*
X8050179Y7630210D01*
X8024788D01*
X8012092Y7617514D01*
Y7604818D01*
X8024788Y7592122D01*
X8012092Y7579426D01*
Y7566730D01*
X8024788Y7554034D01*
X8050179D01*
X8062875Y7566730D01*
Y7579426D01*
X8050179Y7592122D01*
X8062875Y7604818D01*
Y7617514D01*
X8050179Y7592122D02*
X8024788D01*
X7935917Y7554034D02*
X7986700D01*
X7935917Y7604818D01*
Y7617514D01*
X7948612Y7630210D01*
X7974004D01*
X7986700Y7617514D01*
X9236656Y7755037D02*
X9249352Y7767732D01*
X9274744D01*
X9287440Y7755037D01*
Y7704253D01*
X9274744Y7691557D01*
X9249352D01*
X9236656Y7704253D01*
X9211265Y7755037D02*
X9198569Y7767732D01*
X9173177D01*
X9160481Y7755037D01*
Y7742341D01*
X9173177Y7729645D01*
X9160481Y7716949D01*
Y7704253D01*
X9173177Y7691557D01*
X9198569D01*
X9211265Y7704253D01*
Y7716949D01*
X9198569Y7729645D01*
X9211265Y7742341D01*
Y7755037D01*
X9198569Y7729645D02*
X9173177D01*
X9135089Y7691557D02*
X9109697D01*
X9122393D01*
Y7767732D01*
X9135089Y7755037D01*
X8587117Y8003480D02*
X8599813Y8016176D01*
X8625205D01*
X8637901Y8003480D01*
Y7952696D01*
X8625205Y7940000D01*
X8599813D01*
X8587117Y7952696D01*
X8523638Y7940000D02*
Y8016176D01*
X8561726Y7978088D01*
X8510942D01*
X8485550Y7952696D02*
X8472854Y7940000D01*
X8447462D01*
X8434767Y7952696D01*
Y8003480D01*
X8447462Y8016176D01*
X8472854D01*
X8485550Y8003480D01*
Y7990784D01*
X8472854Y7978088D01*
X8434767D01*
X8982383Y7147496D02*
Y7084016D01*
X8969687Y7071320D01*
X8944295D01*
X8931600Y7084016D01*
Y7147496D01*
X8906208Y7071320D02*
X8880816D01*
X8893512D01*
Y7147496D01*
X8906208Y7134800D01*
X8842728D02*
X8830032Y7147496D01*
X8804641D01*
X8791945Y7134800D01*
Y7084016D01*
X8804641Y7071320D01*
X8830032D01*
X8842728Y7084016D01*
Y7134800D01*
X4046396Y6844005D02*
X3970221D01*
Y6882093D01*
X3982917Y6894789D01*
X4033700D01*
X4046396Y6882093D01*
Y6844005D01*
X4033700Y6920181D02*
X4046396Y6932877D01*
Y6958269D01*
X4033700Y6970964D01*
X4021004D01*
X4008308Y6958269D01*
Y6945573D01*
Y6958269D01*
X3995613Y6970964D01*
X3982917D01*
X3970221Y6958269D01*
Y6932877D01*
X3982917Y6920181D01*
X4044855Y6220624D02*
X3968680D01*
Y6258712D01*
X3981376Y6271407D01*
X4032159D01*
X4044855Y6258712D01*
Y6220624D01*
X3968680Y6296799D02*
Y6322191D01*
Y6309495D01*
X4044855D01*
X4032159Y6296799D01*
X4048475Y7477921D02*
X3972300D01*
Y7516008D01*
X3984996Y7528704D01*
X4035779D01*
X4048475Y7516008D01*
Y7477921D01*
X3972300Y7604879D02*
Y7554096D01*
X4023083Y7604879D01*
X4035779D01*
X4048475Y7592184D01*
Y7566792D01*
X4035779Y7554096D01*
%TF.MD5,d5adef6122a3bd44027cb00120338af1*%
M02*
