%TF.GenerationSoftware,Altium Limited,Altium Designer,19.0.15 (446)*%
G04 Layer_Color=0*
%FSLAX45Y45*%
%MOMM*%
%TF.FileFunction,Profile,NP*%
%TF.Part,CustomerPanel*%
G01*
G75*
%TA.AperFunction,Profile*%
%ADD213C,0.02540*%
G36*
X9715841Y5949922D02*
Y5959867D01*
X9723453Y5978244D01*
X9737518Y5992309D01*
X9755895Y5999921D01*
X9765841D01*
X9775786D01*
X9794163Y5992309D01*
X9808229Y5978244D01*
X9815841Y5959867D01*
Y5949922D01*
X9816801Y5940167D01*
X9824267Y5922143D01*
X9838062Y5908348D01*
X9856086Y5900882D01*
X9865841Y5899922D01*
D01*
Y5899922D01*
X11576097Y5899922D01*
X11585832Y5900880D01*
X11603820Y5908331D01*
X11617587Y5922099D01*
X11625038Y5940087D01*
X11625997Y5949822D01*
D01*
X11626097D01*
Y6099822D01*
Y6109747D01*
X11633693Y6128088D01*
X11647731Y6142125D01*
X11666071Y6149722D01*
X11675997D01*
D01*
X11676097Y6149822D01*
X11756097D01*
Y6149722D01*
X11766022D01*
X11784363Y6142125D01*
X11798400Y6128088D01*
X11805997Y6109747D01*
Y6099822D01*
D01*
X11806097D01*
Y5949822D01*
X11806197Y5949922D01*
X11807155Y5940186D01*
X11814606Y5922198D01*
X11828374Y5908431D01*
X11846362Y5900980D01*
X11856097Y5900021D01*
D01*
X15029936D01*
X15039671Y5900980D01*
X15057658Y5908431D01*
X15071426Y5922198D01*
X15078877Y5940186D01*
X15079836Y5949922D01*
D01*
X15079936D01*
Y6099922D01*
Y6109847D01*
X15087534Y6128187D01*
X15101570Y6142225D01*
X15119911Y6149822D01*
X15129836D01*
D01*
X15129936Y6149921D01*
X15209937D01*
Y6149822D01*
X15219862D01*
X15238202Y6142225D01*
X15252238Y6128187D01*
X15259836Y6109847D01*
Y6099922D01*
D01*
X15259937D01*
Y5949922D01*
X15260036Y5950021D01*
X15260995Y5940286D01*
X15268446Y5922298D01*
X15282213Y5908531D01*
X15300201Y5901080D01*
X15309937Y5900121D01*
D01*
Y5900021D01*
X16549940D01*
X16559676Y5900980D01*
X16577663Y5908431D01*
X16591431Y5922198D01*
X16598882Y5940186D01*
X16599841Y5949922D01*
Y5962172D01*
X16609216Y5984809D01*
X16626543Y6002135D01*
X16649179Y6011511D01*
X16661430D01*
X16668185D01*
X16681438Y6008875D01*
X16693919Y6003705D01*
X16705154Y5996198D01*
X16714708Y5986645D01*
X16722214Y5975410D01*
X16727385Y5962928D01*
X16730022Y5949676D01*
Y5942921D01*
D01*
Y5744167D01*
Y5731658D01*
X16725140Y5707122D01*
X16715567Y5684009D01*
X16701668Y5663209D01*
X16683978Y5645519D01*
X16663177Y5631620D01*
X16640065Y5622047D01*
X16615529Y5617167D01*
X16603021D01*
D01*
X16249420D01*
X9811175Y5617167D01*
X9801785D01*
X9783367Y5620831D01*
X9766017Y5628017D01*
X9750403Y5638450D01*
X9737124Y5651729D01*
X9726691Y5667343D01*
X9719504Y5684693D01*
X9715841Y5703111D01*
Y5712501D01*
D01*
Y5949922D01*
D02*
G37*
G36*
X9714800Y8049900D02*
Y8039954D01*
X9722412Y8021577D01*
X9736478Y8007512D01*
X9754855Y7999900D01*
X9764800D01*
X9774746D01*
X9793123Y8007512D01*
X9807188Y8021577D01*
X9814800Y8039954D01*
Y8049900D01*
X9815761Y8059654D01*
X9823227Y8077678D01*
X9837021Y8091473D01*
X9855046Y8098939D01*
X9864800Y8099900D01*
D01*
Y8099899D01*
X11575056Y8099900D01*
X11584791Y8098941D01*
X11602779Y8091490D01*
X11616547Y8077722D01*
X11623998Y8059734D01*
X11624956Y8050000D01*
D01*
X11625056D01*
Y7900000D01*
Y7890074D01*
X11632653Y7871734D01*
X11646690Y7857696D01*
X11665031Y7850100D01*
X11674956D01*
D01*
X11675056Y7850000D01*
X11755056D01*
Y7850100D01*
X11764982D01*
X11783322Y7857696D01*
X11797359Y7871734D01*
X11804956Y7890074D01*
Y7900000D01*
D01*
X11805056D01*
Y8050000D01*
X11805156Y8049900D01*
X11806115Y8059635D01*
X11813566Y8077623D01*
X11827333Y8091390D01*
X11845321Y8098841D01*
X11855056Y8099800D01*
D01*
X15028896D01*
X15038631Y8098841D01*
X15056619Y8091390D01*
X15070386Y8077623D01*
X15077837Y8059635D01*
X15078796Y8049900D01*
D01*
X15078896D01*
Y7899900D01*
Y7889974D01*
X15086493Y7871634D01*
X15100529Y7857596D01*
X15118871Y7850000D01*
X15128796D01*
D01*
X15128896Y7849900D01*
X15208896D01*
Y7850000D01*
X15218822D01*
X15237161Y7857596D01*
X15251199Y7871634D01*
X15258797Y7889974D01*
Y7899900D01*
D01*
X15258896D01*
Y8049900D01*
X15258997Y8049800D01*
X15259953Y8059535D01*
X15267406Y8077523D01*
X15281174Y8091290D01*
X15299161Y8098741D01*
X15308896Y8099700D01*
D01*
Y8099800D01*
X16548900D01*
X16558635Y8098841D01*
X16576624Y8091390D01*
X16590390Y8077623D01*
X16597841Y8059635D01*
X16598801Y8049900D01*
Y8037649D01*
X16608177Y8015012D01*
X16625502Y7997687D01*
X16648138Y7988310D01*
X16660390D01*
X16667145D01*
X16680397Y7990946D01*
X16692879Y7996116D01*
X16704114Y8003623D01*
X16713667Y8013177D01*
X16721175Y8024411D01*
X16726344Y8036893D01*
X16728979Y8050145D01*
Y8056901D01*
D01*
Y8255655D01*
Y8268163D01*
X16724100Y8292699D01*
X16714526Y8315812D01*
X16700629Y8336612D01*
X16682938Y8354302D01*
X16662137Y8368201D01*
X16639024Y8377774D01*
X16614488Y8382655D01*
X16601981D01*
D01*
X16248380D01*
X9810134Y8382654D01*
X9800745D01*
X9782326Y8378991D01*
X9764977Y8371804D01*
X9749363Y8361371D01*
X9736084Y8348092D01*
X9725650Y8332478D01*
X9718464Y8315128D01*
X9714800Y8296710D01*
Y8287320D01*
D01*
Y8049900D01*
D02*
G37*
G36*
X4123886Y6099715D02*
Y5950660D01*
X4123896D01*
X4122935Y5940905D01*
X4115470Y5922881D01*
X4101675Y5909086D01*
X4083651Y5901620D01*
X4073896Y5900660D01*
D01*
Y5900032D01*
X2549900D01*
X2540165Y5900990D01*
X2522177Y5908441D01*
X2508410Y5922209D01*
X2500959Y5940197D01*
X2500000Y5949932D01*
Y5962183D01*
X2490623Y5984819D01*
X2473298Y6002145D01*
X2450661Y6011521D01*
X2438410D01*
X2431655D01*
X2418403Y6008885D01*
X2405921Y6003715D01*
X2394686Y5996208D01*
X2385133Y5986655D01*
X2377626Y5975421D01*
X2372456Y5962938D01*
X2369820Y5949686D01*
Y5942931D01*
D01*
Y5742281D01*
Y5729773D01*
X2374700Y5705237D01*
X2384274Y5682124D01*
X2398172Y5661323D01*
X2415862Y5643634D01*
X2436663Y5629735D01*
X2459775Y5620162D01*
X2484312Y5615281D01*
X2496820D01*
D01*
X9215120D01*
X9224782D01*
X9243736Y5619051D01*
X9261589Y5626446D01*
X9277657Y5637183D01*
X9291322Y5650847D01*
X9302058Y5666915D01*
X9309453Y5684769D01*
X9313223Y5703722D01*
Y5713385D01*
D01*
Y5949922D01*
Y5959867D01*
X9305611Y5978244D01*
X9291546Y5992309D01*
X9273169Y5999921D01*
X9263223D01*
X9253278D01*
X9234901Y5992309D01*
X9220835Y5978244D01*
X9213223Y5959867D01*
Y5949922D01*
X9212262Y5940167D01*
X9204797Y5922143D01*
X9191002Y5908348D01*
X9172978Y5900882D01*
X9163223Y5899922D01*
D01*
Y5899922D01*
X7455136D01*
X7445382Y5900883D01*
X7427358Y5908348D01*
X7413563Y5922143D01*
X7406097Y5940167D01*
X7405136Y5949922D01*
D01*
X7405146D01*
Y6099922D01*
X7405146Y6109867D01*
X7397534Y6128244D01*
X7383469Y6142310D01*
X7365091Y6149922D01*
X7355146D01*
D01*
Y6149922D01*
X7275146D01*
X7265200Y6149922D01*
X7246823Y6142310D01*
X7232758Y6128244D01*
X7225146Y6109867D01*
Y6099922D01*
D01*
X7225136Y6098977D01*
Y5949922D01*
X7225146D01*
X7224185Y5940167D01*
X7216719Y5922143D01*
X7202925Y5908348D01*
X7184901Y5900883D01*
X7175146Y5899922D01*
D01*
X4353886D01*
Y5900660D01*
X4344132Y5901620D01*
X4326108Y5909086D01*
X4312313Y5922881D01*
X4304847Y5940905D01*
X4303886Y5950660D01*
D01*
X4303896D01*
Y6100660D01*
X4303896Y6110605D01*
X4296284Y6128982D01*
X4282219Y6143047D01*
X4263842Y6150660D01*
X4253896D01*
D01*
Y6150660D01*
X4173896D01*
X4163951Y6150660D01*
X4145573Y6143047D01*
X4131508Y6128982D01*
X4123896Y6110605D01*
Y6100660D01*
X4123886Y6099715D01*
D02*
G37*
G36*
Y7900106D02*
Y8049162D01*
X4123896D01*
X4122935Y8058916D01*
X4115470Y8076940D01*
X4101675Y8090735D01*
X4083651Y8098201D01*
X4073896Y8099162D01*
D01*
Y8099790D01*
X2549900D01*
X2540165Y8098831D01*
X2522177Y8091380D01*
X2508410Y8077612D01*
X2500959Y8059624D01*
X2500000Y8049890D01*
Y8037638D01*
X2490623Y8015002D01*
X2473298Y7997676D01*
X2450661Y7988300D01*
X2438410D01*
X2431655D01*
X2418403Y7990936D01*
X2405921Y7996106D01*
X2394686Y8003613D01*
X2385133Y8013166D01*
X2377626Y8024401D01*
X2372456Y8036883D01*
X2369820Y8050135D01*
Y8056890D01*
D01*
Y8257540D01*
Y8270048D01*
X2374700Y8294584D01*
X2384274Y8317697D01*
X2398172Y8338498D01*
X2415862Y8356187D01*
X2436663Y8370086D01*
X2459775Y8379659D01*
X2484312Y8384540D01*
X2496820D01*
D01*
X9215120D01*
X9224782D01*
X9243736Y8380770D01*
X9261589Y8373375D01*
X9277657Y8362638D01*
X9291322Y8348974D01*
X9302058Y8332906D01*
X9309453Y8315052D01*
X9313223Y8296099D01*
Y8286437D01*
D01*
Y8049900D01*
Y8039954D01*
X9305611Y8021577D01*
X9291546Y8007512D01*
X9273169Y7999900D01*
X9263223D01*
X9253278D01*
X9234901Y8007512D01*
X9220835Y8021577D01*
X9213223Y8039954D01*
Y8049900D01*
X9212262Y8059654D01*
X9204797Y8077678D01*
X9191002Y8091473D01*
X9172978Y8098939D01*
X9163223Y8099900D01*
D01*
Y8099899D01*
X7455136D01*
X7445382Y8098939D01*
X7427358Y8091473D01*
X7413563Y8077678D01*
X7406097Y8059654D01*
X7405136Y8049900D01*
D01*
X7405146D01*
Y7899900D01*
X7405146Y7889954D01*
X7397534Y7871577D01*
X7383469Y7857512D01*
X7365091Y7849900D01*
X7355146D01*
D01*
Y7849899D01*
X7275146D01*
X7265200Y7849900D01*
X7246823Y7857512D01*
X7232758Y7871577D01*
X7225146Y7889954D01*
Y7899900D01*
D01*
X7225136Y7900844D01*
Y8049900D01*
X7225146D01*
X7224185Y8059654D01*
X7216719Y8077678D01*
X7202925Y8091473D01*
X7184901Y8098939D01*
X7175146Y8099899D01*
D01*
X4353886D01*
Y8099162D01*
X4344132Y8098201D01*
X4326108Y8090735D01*
X4312313Y8076940D01*
X4304847Y8058916D01*
X4303886Y8049162D01*
D01*
X4303896D01*
Y7899162D01*
X4303896Y7889216D01*
X4296284Y7870839D01*
X4282219Y7856774D01*
X4263842Y7849162D01*
X4253896D01*
D01*
Y7849162D01*
X4173896D01*
X4163951Y7849162D01*
X4145573Y7856774D01*
X4131508Y7870839D01*
X4123896Y7889216D01*
Y7899162D01*
X4123886Y7900106D01*
D02*
G37*
D213*
X2000000Y2000000D02*
Y12000000D01*
X17100000D01*
Y2000000D01*
X2000000D01*
%TF.MD5,86ff1ae00e40995096aec803f77447a6*%
M02*
