%TF.GenerationSoftware,Altium Limited,Altium Designer,19.0.15 (446)*%
G04 Layer_Physical_Order=1*
G04 Layer_Color=794757*
%FSLAX45Y45*%
%MOMM*%
%TF.FileFunction,Copper,L1,Top,Signal*%
%TF.Part,CustomerPanel*%
G01*
G75*
%TA.AperFunction,SMDPad,CuDef*%
%ADD10R,0.60000X0.75000*%
%ADD11R,0.85000X0.95000*%
%TA.AperFunction,ConnectorPad*%
%ADD12R,1.00000X0.30000*%
%ADD13R,1.00000X0.60000*%
%TA.AperFunction,SMDPad,CuDef*%
G04:AMPARAMS|DCode=14|XSize=0.2mm|YSize=0.2mm|CornerRadius=0.05mm|HoleSize=0mm|Usage=FLASHONLY|Rotation=0.000|XOffset=0mm|YOffset=0mm|HoleType=Round|Shape=RoundedRectangle|*
%AMROUNDEDRECTD14*
21,1,0.20000,0.10000,0,0,0.0*
21,1,0.10000,0.20000,0,0,0.0*
1,1,0.10000,0.05000,-0.05000*
1,1,0.10000,-0.05000,-0.05000*
1,1,0.10000,-0.05000,0.05000*
1,1,0.10000,0.05000,0.05000*
%
%ADD14ROUNDEDRECTD14*%
%ADD15R,0.70000X0.50000*%
%ADD16R,0.64000X0.60000*%
%ADD17R,1.20000X1.20000*%
%ADD18R,0.90000X1.00000*%
%ADD19R,0.75000X0.60000*%
%ADD20R,2.50000X3.00000*%
%ADD21R,0.50000X0.65000*%
%ADD22R,0.50000X0.55000*%
%ADD23R,4.60000X4.12000*%
%ADD24R,0.65000X0.50000*%
%ADD25R,0.55000X0.50000*%
%ADD26R,4.12000X4.60000*%
%ADD27R,0.60000X0.64000*%
%ADD28O,0.70000X0.20000*%
%ADD29C,0.80010*%
G04:AMPARAMS|DCode=30|XSize=0.7mm|YSize=0.7mm|CornerRadius=0.0875mm|HoleSize=0mm|Usage=FLASHONLY|Rotation=90.000|XOffset=0mm|YOffset=0mm|HoleType=Round|Shape=RoundedRectangle|*
%AMROUNDEDRECTD30*
21,1,0.70000,0.52500,0,0,90.0*
21,1,0.52500,0.70000,0,0,90.0*
1,1,0.17500,0.26250,0.26250*
1,1,0.17500,0.26250,-0.26250*
1,1,0.17500,-0.26250,-0.26250*
1,1,0.17500,-0.26250,0.26250*
%
%ADD30ROUNDEDRECTD30*%
G04:AMPARAMS|DCode=31|XSize=0.7mm|YSize=1.253mm|CornerRadius=0.0875mm|HoleSize=0mm|Usage=FLASHONLY|Rotation=90.000|XOffset=0mm|YOffset=0mm|HoleType=Round|Shape=RoundedRectangle|*
%AMROUNDEDRECTD31*
21,1,0.70000,1.07800,0,0,90.0*
21,1,0.52500,1.25300,0,0,90.0*
1,1,0.17500,0.53900,0.26250*
1,1,0.17500,0.53900,-0.26250*
1,1,0.17500,-0.53900,-0.26250*
1,1,0.17500,-0.53900,0.26250*
%
%ADD31ROUNDEDRECTD31*%
G04:AMPARAMS|DCode=32|XSize=1.53mm|YSize=2.65mm|CornerRadius=0.03825mm|HoleSize=0mm|Usage=FLASHONLY|Rotation=90.000|XOffset=0mm|YOffset=0mm|HoleType=Round|Shape=RoundedRectangle|*
%AMROUNDEDRECTD32*
21,1,1.53000,2.57350,0,0,90.0*
21,1,1.45350,2.65000,0,0,90.0*
1,1,0.07650,1.28675,0.72675*
1,1,0.07650,1.28675,-0.72675*
1,1,0.07650,-1.28675,-0.72675*
1,1,0.07650,-1.28675,0.72675*
%
%ADD32ROUNDEDRECTD32*%
G04:AMPARAMS|DCode=33|XSize=2.72mm|YSize=2.65mm|CornerRadius=0.06625mm|HoleSize=0mm|Usage=FLASHONLY|Rotation=90.000|XOffset=0mm|YOffset=0mm|HoleType=Round|Shape=RoundedRectangle|*
%AMROUNDEDRECTD33*
21,1,2.72000,2.51750,0,0,90.0*
21,1,2.58750,2.65000,0,0,90.0*
1,1,0.13250,1.25875,1.29375*
1,1,0.13250,1.25875,-1.29375*
1,1,0.13250,-1.25875,-1.29375*
1,1,0.13250,-1.25875,1.29375*
%
%ADD33ROUNDEDRECTD33*%
G04:AMPARAMS|DCode=34|XSize=0.2mm|YSize=0.6mm|CornerRadius=0.04mm|HoleSize=0mm|Usage=FLASHONLY|Rotation=90.000|XOffset=0mm|YOffset=0mm|HoleType=Round|Shape=RoundedRectangle|*
%AMROUNDEDRECTD34*
21,1,0.20000,0.52000,0,0,90.0*
21,1,0.12000,0.60000,0,0,90.0*
1,1,0.08000,0.26000,0.06000*
1,1,0.08000,0.26000,-0.06000*
1,1,0.08000,-0.26000,-0.06000*
1,1,0.08000,-0.26000,0.06000*
%
%ADD34ROUNDEDRECTD34*%
G04:AMPARAMS|DCode=35|XSize=0.6mm|YSize=0.2mm|CornerRadius=0.04mm|HoleSize=0mm|Usage=FLASHONLY|Rotation=90.000|XOffset=0mm|YOffset=0mm|HoleType=Round|Shape=RoundedRectangle|*
%AMROUNDEDRECTD35*
21,1,0.60000,0.12000,0,0,90.0*
21,1,0.52000,0.20000,0,0,90.0*
1,1,0.08000,0.06000,0.26000*
1,1,0.08000,0.06000,-0.26000*
1,1,0.08000,-0.06000,-0.26000*
1,1,0.08000,-0.06000,0.26000*
%
%ADD35ROUNDEDRECTD35*%
%ADD36R,1.27000X3.43000*%
%ADD37R,0.95000X0.85000*%
%ADD38R,1.30000X1.40000*%
%ADD39R,0.17000X0.52000*%
%ADD40R,0.27000X0.17000*%
%ADD41R,1.20000X1.20000*%
%ADD42R,0.52000X0.17000*%
%ADD43R,0.17000X0.27000*%
%ADD44R,4.70000X3.43000*%
%ADD45R,1.00000X1.60000*%
%ADD46R,0.66000X0.32000*%
G04:AMPARAMS|DCode=47|XSize=1.97mm|YSize=0.6mm|CornerRadius=0.075mm|HoleSize=0mm|Usage=FLASHONLY|Rotation=0.000|XOffset=0mm|YOffset=0mm|HoleType=Round|Shape=RoundedRectangle|*
%AMROUNDEDRECTD47*
21,1,1.97000,0.45000,0,0,0.0*
21,1,1.82000,0.60000,0,0,0.0*
1,1,0.15000,0.91000,-0.22500*
1,1,0.15000,-0.91000,-0.22500*
1,1,0.15000,-0.91000,0.22500*
1,1,0.15000,0.91000,0.22500*
%
%ADD47ROUNDEDRECTD47*%
%ADD48R,3.43000X1.27000*%
%ADD49O,0.45000X1.40000*%
%ADD50R,2.23000X1.80000*%
%ADD51R,0.35000X0.30000*%
%ADD52R,0.44000X0.65000*%
%ADD53R,1.09000X0.65000*%
%ADD54R,2.80000X1.90000*%
%ADD55R,3.43000X4.70000*%
%ADD56R,2.70000X2.20000*%
G04:AMPARAMS|DCode=57|XSize=0.83mm|YSize=0.22mm|CornerRadius=0.0275mm|HoleSize=0mm|Usage=FLASHONLY|Rotation=180.000|XOffset=0mm|YOffset=0mm|HoleType=Round|Shape=RoundedRectangle|*
%AMROUNDEDRECTD57*
21,1,0.83000,0.16500,0,0,180.0*
21,1,0.77500,0.22000,0,0,180.0*
1,1,0.05500,-0.38750,0.08250*
1,1,0.05500,0.38750,0.08250*
1,1,0.05500,0.38750,-0.08250*
1,1,0.05500,-0.38750,-0.08250*
%
%ADD57ROUNDEDRECTD57*%
G04:AMPARAMS|DCode=58|XSize=0.83mm|YSize=0.22mm|CornerRadius=0.0275mm|HoleSize=0mm|Usage=FLASHONLY|Rotation=90.000|XOffset=0mm|YOffset=0mm|HoleType=Round|Shape=RoundedRectangle|*
%AMROUNDEDRECTD58*
21,1,0.83000,0.16500,0,0,90.0*
21,1,0.77500,0.22000,0,0,90.0*
1,1,0.05500,0.08250,0.38750*
1,1,0.05500,0.08250,-0.38750*
1,1,0.05500,-0.08250,-0.38750*
1,1,0.05500,-0.08250,0.38750*
%
%ADD58ROUNDEDRECTD58*%
%ADD59R,1.75000X1.75000*%
%ADD60R,1.50000X2.40000*%
%ADD61R,1.00000X0.90000*%
%ADD62R,1.40000X1.30000*%
%ADD63R,1.65000X1.20000*%
%ADD64R,1.20000X1.65000*%
%TA.AperFunction,BGAPad,CuDef*%
%ADD65C,0.80000*%
%TA.AperFunction,SMDPad,CuDef*%
%ADD66O,0.20000X0.70000*%
%ADD67R,3.00000X3.00000*%
%ADD68R,2.45000X2.55000*%
%ADD69R,2.55000X2.45000*%
%ADD70R,0.80000X0.90000*%
%ADD71O,0.95000X0.30000*%
%ADD72O,0.30000X0.95000*%
%ADD73R,3.35000X3.35000*%
%TA.AperFunction,Conductor*%
%ADD74C,0.25400*%
%ADD75C,0.38100*%
%ADD76C,0.20320*%
%ADD77C,0.23066*%
%ADD78C,0.30480*%
%ADD79C,0.50800*%
%ADD80C,0.16962*%
%ADD81C,0.10564*%
%ADD82C,0.12700*%
%ADD83C,0.15240*%
%ADD84C,0.40640*%
%TA.AperFunction,ViaPad*%
%ADD85C,1.52400*%
%TA.AperFunction,ComponentPad*%
G04:AMPARAMS|DCode=86|XSize=1mm|YSize=2.3mm|CornerRadius=0.5mm|HoleSize=0mm|Usage=FLASHONLY|Rotation=270.000|XOffset=0mm|YOffset=0mm|HoleType=Round|Shape=RoundedRectangle|*
%AMROUNDEDRECTD86*
21,1,1.00000,1.30000,0,0,270.0*
21,1,0.00000,2.30000,0,0,270.0*
1,1,1.00000,-0.65000,0.00000*
1,1,1.00000,-0.65000,0.00000*
1,1,1.00000,0.65000,0.00000*
1,1,1.00000,0.65000,0.00000*
%
%ADD86ROUNDEDRECTD86*%
%ADD87C,0.40000*%
%TA.AperFunction,ViaPad*%
%ADD88C,2.50000*%
%TA.AperFunction,ComponentPad*%
%ADD89C,2.37500*%
%ADD90C,0.85000*%
%ADD91C,1.52400*%
%ADD92C,0.45720*%
%TA.AperFunction,ViaPad*%
%ADD93C,0.45720*%
%ADD94C,0.60000*%
%ADD95C,1.98000*%
G36*
X9864020Y8061920D02*
X10028814D01*
X10031340Y8049220D01*
X10002856Y8037421D01*
X9974091Y8015349D01*
X9952019Y7986584D01*
X9938144Y7953087D01*
X9933412Y7917140D01*
X9938144Y7881194D01*
X9952019Y7847696D01*
X9974091Y7818932D01*
X10002856Y7796860D01*
X10036353Y7782985D01*
X10072300Y7778252D01*
X10108247Y7782985D01*
X10141744Y7796860D01*
X10170509Y7818932D01*
X10192581Y7847696D01*
X10206456Y7881194D01*
X10211188Y7917140D01*
X10206456Y7953087D01*
X10192581Y7986584D01*
X10170509Y8015349D01*
X10141744Y8037421D01*
X10113260Y8049220D01*
X10115786Y8061920D01*
X11574276Y8061920D01*
X11574878Y8062040D01*
X11578958Y8060350D01*
X11585737Y8050458D01*
X11585837Y8037795D01*
Y7900458D01*
X11585820D01*
X11588831Y7877590D01*
X11597658Y7856280D01*
X11611699Y7837981D01*
X11629998Y7823940D01*
X11651308Y7815113D01*
X11673244Y7812225D01*
X11674276Y7812020D01*
X11754276D01*
X11755503Y7812264D01*
X11777144Y7815113D01*
X11798454Y7823940D01*
X11816753Y7837981D01*
X11830794Y7856280D01*
X11839621Y7877590D01*
X11842470Y7899231D01*
X11842714Y7900458D01*
Y8049855D01*
X11842815Y8050358D01*
X11842815D01*
X11849595Y8060250D01*
X11853674Y8061940D01*
X11854276Y8061820D01*
X14889584D01*
X14900420Y8057320D01*
X14900420Y8049120D01*
Y7931920D01*
X14925748D01*
Y7850184D01*
X14913921D01*
Y7774784D01*
X15004320D01*
Y7850184D01*
X14990492D01*
Y7931920D01*
X15015820D01*
X15015820Y8057320D01*
X15026656Y8061820D01*
X15028116D01*
X15028719Y8061940D01*
X15032797Y8060250D01*
X15039577Y8050359D01*
X15039677Y8037695D01*
Y7900359D01*
X15039661D01*
X15042670Y7877490D01*
X15051497Y7856181D01*
X15065540Y7837881D01*
X15083838Y7823840D01*
X15105148Y7815013D01*
X15127084Y7812125D01*
X15128116Y7811920D01*
X15208116D01*
X15209343Y7812164D01*
X15230984Y7815013D01*
X15252293Y7823840D01*
X15270593Y7837881D01*
X15284634Y7856181D01*
X15293462Y7877490D01*
X15296310Y7899131D01*
X15296555Y7900359D01*
Y8049756D01*
X15296654Y8050258D01*
X15296654D01*
X15301315Y8057059D01*
X15308116Y8061720D01*
X15320779Y8061820D01*
X16548120D01*
X16548721Y8061940D01*
X16552802Y8060250D01*
X16559581Y8050358D01*
X16559589Y8037659D01*
X16560037Y7179620D01*
D01*
X16560681Y5950438D01*
X16560802Y5949837D01*
X16557562Y5942017D01*
X16549736Y5938775D01*
X16549120Y5938897D01*
X15308105D01*
X15307491Y5938775D01*
X15303244Y5940533D01*
X15296545Y5950459D01*
X15296544Y5962399D01*
Y6100457D01*
X15296544Y6100458D01*
X15296562D01*
X15293549Y6123353D01*
X15284712Y6144687D01*
X15270654Y6163007D01*
X15252335Y6177064D01*
X15231000Y6185901D01*
X15208105Y6188915D01*
Y6188898D01*
X15208105Y6188897D01*
X15128107D01*
Y6188915D01*
X15105212Y6185901D01*
X15083878Y6177064D01*
X15065558Y6163007D01*
X15051500Y6144687D01*
X15042664Y6123353D01*
X15039648Y6100458D01*
X15039667D01*
Y5950459D01*
X15039793Y5949827D01*
X15036559Y5942017D01*
X15028731Y5938775D01*
X15028116Y5938897D01*
X14455620D01*
Y6511474D01*
X14576193D01*
Y6440375D01*
X14580220Y6430654D01*
X14589940Y6426628D01*
X14610571D01*
Y6425500D01*
X14775970D01*
Y6426628D01*
X14808072D01*
Y6425500D01*
X14973471D01*
Y6426628D01*
X15845615D01*
Y6051548D01*
X15846660Y6049022D01*
Y6036921D01*
X15967059D01*
Y6037802D01*
X16006660D01*
Y6036920D01*
X16127060D01*
Y6036920D01*
X16129286Y6038407D01*
X16129366Y6038374D01*
X16330620D01*
X16340340Y6042400D01*
X16344366Y6052120D01*
Y6416812D01*
X16528979D01*
X16538699Y6420838D01*
X16542726Y6430558D01*
Y7152120D01*
X16538699Y7161841D01*
X16528979Y7165867D01*
X16066701Y7165867D01*
X16057288Y7161968D01*
X16047873Y7165867D01*
X14888300D01*
X14887231Y7166426D01*
X14879025Y7176673D01*
Y7852120D01*
X14875000Y7861841D01*
X14865280Y7865867D01*
X13540477D01*
X13539177Y7865328D01*
X13537796Y7865603D01*
X13534460Y7863375D01*
X13531042Y7861959D01*
X13525620Y7864205D01*
X12638320D01*
Y7864820D01*
X12200920D01*
Y7864205D01*
X12184022D01*
X12174301Y7860179D01*
X12170275Y7850459D01*
Y7401257D01*
X12143320D01*
Y7469320D01*
X12052920D01*
Y7463992D01*
X12020820D01*
Y7499820D01*
X11902146D01*
X11889446Y7510046D01*
Y7607120D01*
X11885420Y7616841D01*
X11875700Y7620867D01*
X10575254Y7620867D01*
X10565533Y7616840D01*
X10561507Y7607120D01*
Y7594420D01*
D01*
X10561507Y6944320D01*
X10565533Y6934600D01*
X10575253Y6930574D01*
X11366215Y6930573D01*
X11367223Y6925506D01*
X11375082Y6913743D01*
X11386845Y6905884D01*
X11400720Y6903124D01*
X11414595Y6905884D01*
X11426357Y6913743D01*
X11434217Y6925506D01*
X11435225Y6930573D01*
X11500195D01*
Y6915802D01*
X11484820D01*
X11475099Y6911776D01*
X11471073Y6902055D01*
Y6743660D01*
X9842820D01*
Y6750736D01*
X9578422D01*
Y6743660D01*
X9502569D01*
X9495780Y6756360D01*
X9498737Y6760785D01*
X9501497Y6774660D01*
X9498737Y6788535D01*
X9491137Y6799908D01*
Y6956322D01*
X9509454Y6974639D01*
X9578422D01*
Y6955336D01*
X9647821D01*
Y6955336D01*
X9701310D01*
X9703100Y6951016D01*
X9712820Y6946990D01*
X9840620D01*
X9850340Y6951016D01*
X9854366Y6960736D01*
X9854366Y7316921D01*
X9854569D01*
Y7482320D01*
X9848736D01*
X9840619Y7485682D01*
X9714385D01*
X9710620Y7485683D01*
X9702463Y7482321D01*
X9699169D01*
X9696872Y7471936D01*
X9696873Y7470572D01*
X9696873Y7087952D01*
X9684173Y7082692D01*
X9673932Y7092933D01*
X9665531Y7098547D01*
X9655620Y7100518D01*
X9431839D01*
X9426663Y7109981D01*
X9426220Y7112859D01*
X9430100Y7116739D01*
X9435140Y7124283D01*
X9484487D01*
Y7269683D01*
X9339087D01*
X9335620Y7280947D01*
Y7323019D01*
X9339087Y7334283D01*
X9484487D01*
Y7479683D01*
X9339087D01*
X9335620Y7490947D01*
Y7514620D01*
Y7961920D01*
X9764020D01*
Y7961902D01*
X9786914Y7964916D01*
X9808248Y7973753D01*
X9826568Y7987810D01*
X9840626Y8006130D01*
X9849463Y8027464D01*
X9852477Y8050358D01*
X9859167Y8060287D01*
X9863404Y8062042D01*
X9864020Y8061920D01*
D02*
G37*
G36*
X7182808Y8058800D02*
X7186043Y8050990D01*
X7185917Y8050358D01*
Y7901303D01*
X7185909Y7900358D01*
X7185909D01*
X7188923Y7877464D01*
X7197760Y7856130D01*
X7211817Y7837810D01*
X7230137Y7823753D01*
X7251471Y7814916D01*
X7274366Y7811902D01*
Y7811920D01*
X7354366D01*
Y7811902D01*
X7377260Y7814916D01*
X7398594Y7823753D01*
X7416673Y7837625D01*
X7421434Y7836987D01*
X7429373Y7834292D01*
Y7696679D01*
X7416673Y7685541D01*
X7394620Y7688445D01*
X7360305Y7683927D01*
X7328328Y7670682D01*
X7300869Y7649612D01*
X7279799Y7622153D01*
X7269360Y7596951D01*
X7260913Y7596636D01*
X7255832Y7597480D01*
X7250892Y7604873D01*
X7179392Y7676373D01*
X7170990Y7681987D01*
X7161080Y7683958D01*
X7082568D01*
X7071195Y7691557D01*
X7057320Y7694317D01*
X7043445Y7691557D01*
X7031682Y7683698D01*
X7023823Y7671935D01*
X7021063Y7658060D01*
X7023823Y7644186D01*
X7031682Y7632423D01*
X7043445Y7624564D01*
X7057320Y7621804D01*
X7071195Y7624564D01*
X7082568Y7632163D01*
X7149745D01*
X7156688Y7623481D01*
X7151019Y7612622D01*
X7140620Y7614691D01*
X7118107Y7610212D01*
X7099021Y7597460D01*
X7086268Y7578374D01*
X7081790Y7555860D01*
X7086268Y7533347D01*
X7099021Y7514261D01*
X7118107Y7501508D01*
X7140620Y7497030D01*
X7163133Y7501508D01*
X7172078Y7507485D01*
X7181235Y7498329D01*
X7180194Y7496771D01*
X7178222Y7486861D01*
Y7474938D01*
X7166125Y7466855D01*
X7154478Y7449423D01*
X7150388Y7428860D01*
X7154478Y7408298D01*
X7166125Y7390866D01*
X7183557Y7379218D01*
X7204120Y7375128D01*
X7204667Y7375237D01*
X7211979Y7364961D01*
X7207343Y7354952D01*
X7204120Y7355593D01*
X7183557Y7351503D01*
X7166125Y7339855D01*
X7154478Y7322423D01*
X7150388Y7301860D01*
X7154478Y7281298D01*
X7166125Y7263866D01*
X7183557Y7252218D01*
X7204120Y7248128D01*
X7224683Y7252218D01*
X7242115Y7263866D01*
X7253762Y7281298D01*
X7257852Y7301860D01*
X7255385Y7314267D01*
X7260901Y7315364D01*
X7272664Y7323223D01*
X7280523Y7334986D01*
X7283283Y7348861D01*
X7280523Y7362735D01*
X7272664Y7374498D01*
X7260901Y7382357D01*
X7252783Y7383972D01*
X7246400Y7396420D01*
X7246356Y7397214D01*
X7253762Y7408298D01*
X7257852Y7428860D01*
X7253762Y7449423D01*
X7242115Y7466855D01*
X7240068Y7468223D01*
X7238457Y7484573D01*
X7250892Y7497008D01*
X7256506Y7505410D01*
X7257474Y7510277D01*
X7270682Y7511578D01*
X7279799Y7489568D01*
X7300869Y7462109D01*
X7328328Y7441039D01*
X7360305Y7427794D01*
X7394620Y7423276D01*
X7416673Y7426179D01*
X7429373Y7415042D01*
Y7379179D01*
X7416673Y7368041D01*
X7394620Y7370945D01*
X7360305Y7366427D01*
X7328328Y7353182D01*
X7300869Y7332112D01*
X7279799Y7304653D01*
X7266553Y7272676D01*
X7262036Y7238360D01*
X7266553Y7204045D01*
X7279799Y7172068D01*
X7300869Y7144609D01*
X7328328Y7123539D01*
X7360305Y7110294D01*
X7394620Y7105776D01*
X7416673Y7108679D01*
X7429373Y7097542D01*
Y7020536D01*
X7432876Y7012080D01*
X7430684Y7006789D01*
Y6767120D01*
X7434711Y6757400D01*
X7444431Y6753374D01*
X8498993D01*
Y6702320D01*
X8353122D01*
Y6536920D01*
X8498993D01*
Y6514820D01*
X8353122D01*
Y6349420D01*
X8505385D01*
X8512740Y6346374D01*
X8689999D01*
X8699720Y6350400D01*
X8703746Y6360120D01*
Y6649409D01*
X8716446Y6654670D01*
X8760068Y6611048D01*
X8760670Y6610646D01*
X8766200Y6600236D01*
X8766200Y6592937D01*
Y6510837D01*
X8766200Y6510837D01*
X8766200D01*
X8763166Y6498931D01*
X8762808Y6498573D01*
X8757194Y6490171D01*
X8755223Y6480261D01*
Y6478720D01*
X8730920D01*
Y6393320D01*
X8831320D01*
Y6478720D01*
X8831321Y6478720D01*
X8828343Y6491420D01*
X8832826Y6498130D01*
X8834798Y6508040D01*
X8837594Y6510836D01*
X8851600Y6510836D01*
X8864300Y6510836D01*
X8893696D01*
X8914078Y6490454D01*
X8909218Y6478720D01*
X8845920D01*
Y6393320D01*
X8946320D01*
Y6408723D01*
X8972314D01*
X8977117Y6402870D01*
Y6386371D01*
X8978316Y6380342D01*
X8981401Y6374620D01*
X8978316Y6368899D01*
X8977117Y6362870D01*
Y6357614D01*
X8976818Y6357013D01*
X8964417Y6348177D01*
X8961800Y6348698D01*
X8945560D01*
Y6365500D01*
X8845160D01*
Y6280100D01*
X8945560D01*
Y6284455D01*
X8958260Y6289716D01*
X8975667Y6272308D01*
X8984069Y6266694D01*
X8993980Y6264723D01*
X9071617D01*
Y6251871D01*
X9072816Y6245842D01*
X9076231Y6240732D01*
X9077265Y6240041D01*
X9080189Y6227547D01*
X9079850Y6224665D01*
X9068529Y6213345D01*
X9058580Y6207108D01*
Y6207108D01*
X9058579Y6207108D01*
X8973180D01*
Y6182838D01*
X8944280D01*
Y6207140D01*
X8858880D01*
Y6106740D01*
X8944280D01*
Y6131042D01*
X8973180D01*
Y6106708D01*
X9058580D01*
Y6132998D01*
X9058660Y6133014D01*
X9067062Y6138628D01*
X9132006Y6203572D01*
X9148356Y6201961D01*
X9150042Y6199437D01*
X9161805Y6191577D01*
X9175680Y6188817D01*
X9177722Y6189224D01*
X9190422Y6178801D01*
Y6163587D01*
X9185006Y6156987D01*
X9107920D01*
Y6108212D01*
X9083628Y6083920D01*
X9078014Y6075518D01*
X9077281Y6071834D01*
X9073253Y6067805D01*
X9058580D01*
Y6092108D01*
X8973180D01*
Y5991708D01*
X9058580D01*
Y6016010D01*
X9083980D01*
X9093890Y6017982D01*
X9102292Y6023596D01*
X9120253Y6041556D01*
X9125867Y6049958D01*
X9126599Y6053642D01*
X9144545Y6071587D01*
X9208320D01*
Y6105150D01*
X9221020Y6111939D01*
X9222920Y6110669D01*
Y6071587D01*
X9323320D01*
Y6088389D01*
X9407040D01*
Y6071587D01*
X9507440D01*
Y6156987D01*
X9407040D01*
Y6140184D01*
X9332311D01*
X9332046Y6140557D01*
X9329968Y6147471D01*
X9340255Y6156844D01*
X9344580Y6155984D01*
X9358454Y6158744D01*
X9370217Y6166603D01*
X9378076Y6178366D01*
X9380836Y6192241D01*
X9378076Y6206115D01*
X9370217Y6217878D01*
X9358454Y6225737D01*
X9344580Y6228497D01*
X9330705Y6225737D01*
X9318942Y6217878D01*
X9311083Y6206115D01*
X9308323Y6192241D01*
X9311083Y6178366D01*
X9316882Y6169687D01*
X9313031Y6159207D01*
X9311256Y6156987D01*
X9259545D01*
X9242217Y6174314D01*
Y6231889D01*
X9247370Y6236118D01*
X9263870D01*
X9269898Y6237317D01*
X9275009Y6240732D01*
X9278424Y6245842D01*
X9279623Y6251871D01*
Y6264723D01*
X9381635D01*
X9406470Y6239888D01*
Y6191113D01*
X9506870D01*
Y6276512D01*
X9443095D01*
X9410674Y6308933D01*
X9402272Y6314547D01*
X9401288Y6314743D01*
X9402539Y6327443D01*
X9440169D01*
Y6307360D01*
X9515469D01*
X9525569Y6307360D01*
X9536392Y6307360D01*
X9545372Y6298380D01*
Y6276512D01*
X9521470D01*
Y6191113D01*
X9619173D01*
X9621870Y6191112D01*
X9631874Y6184603D01*
Y6038819D01*
X9262443D01*
Y6038837D01*
X9239549Y6035823D01*
X9218215Y6026986D01*
X9199895Y6012929D01*
X9185837Y5994609D01*
X9177000Y5973275D01*
X9173986Y5950381D01*
X9167296Y5940452D01*
X9163161Y5938739D01*
X9162365Y5938897D01*
X7454356D01*
X7453740Y5938775D01*
X7445914Y5942017D01*
X7442679Y5949827D01*
X7442805Y5950459D01*
Y6100458D01*
X7442813D01*
X7439799Y6123353D01*
X7430962Y6144687D01*
X7416904Y6163007D01*
X7398584Y6177064D01*
X7377250Y6185901D01*
X7354356Y6188915D01*
Y6188897D01*
X7274356D01*
Y6188915D01*
X7251462Y6185901D01*
X7230128Y6177064D01*
X7211808Y6163007D01*
X7197750Y6144687D01*
X7188913Y6123353D01*
X7185900Y6100458D01*
X7185917D01*
Y5950459D01*
X7186043Y5949827D01*
X7182808Y5942017D01*
X7174982Y5938775D01*
X7174366Y5938897D01*
X4353116D01*
X4352500Y5938775D01*
X4344674Y5942017D01*
X4341439Y5949827D01*
X4341565Y5950459D01*
Y6099514D01*
X4341573Y6100459D01*
X4341573D01*
X4338559Y6123353D01*
X4329722Y6144687D01*
X4315664Y6163007D01*
X4297344Y6177064D01*
X4276010Y6185901D01*
X4253116Y6188915D01*
Y6188897D01*
X4173116D01*
Y6188915D01*
X4150222Y6185901D01*
X4128888Y6177064D01*
X4110568Y6163007D01*
X4096510Y6144687D01*
X4087674Y6123353D01*
X4086239Y6112455D01*
X4084660Y6100458D01*
X4084677D01*
Y5950459D01*
X4084803Y5949827D01*
X4081568Y5942017D01*
X4073742Y5938775D01*
X4073126Y5938897D01*
X3446268D01*
X3434820Y5941921D01*
X3434820Y5951597D01*
Y5975774D01*
X3476920D01*
Y5956920D01*
X3597320D01*
Y6067320D01*
X3476920D01*
Y6053467D01*
X3434820D01*
Y6087320D01*
X3289420D01*
X3289420Y5941921D01*
X3277973Y5938897D01*
X2808727D01*
X2800720Y5948280D01*
X2800720Y5951597D01*
Y5982134D01*
X2842820D01*
Y5965781D01*
X2963220D01*
Y6076181D01*
X2842820D01*
Y6059827D01*
X2800720D01*
Y6093680D01*
X2655320D01*
Y5951597D01*
X2655320Y5948280D01*
X2647313Y5938897D01*
X2549120D01*
X2548504Y5938775D01*
X2540678Y5942017D01*
X2537490Y5949713D01*
X2537658Y5950558D01*
Y6327348D01*
X2550358Y6331659D01*
X2561388Y6317285D01*
X2583885Y6300022D01*
X2610085Y6289170D01*
X2638200Y6285469D01*
X2768200D01*
X2796315Y6289170D01*
X2797935Y6289841D01*
X2811227Y6281600D01*
X2812503Y6275186D01*
X2820362Y6263423D01*
X2832125Y6255564D01*
X2846000Y6252804D01*
X2851620Y6253922D01*
X2864320Y6244423D01*
Y6228460D01*
X2877123D01*
Y6206181D01*
X2842820D01*
Y6095781D01*
X2963220D01*
Y6206181D01*
X2928918D01*
Y6228460D01*
X2941720D01*
Y6266353D01*
X3018272D01*
Y6193688D01*
X2998880D01*
Y6093288D01*
X3084280D01*
Y6193688D01*
X3064888D01*
Y6266353D01*
X3204088D01*
X3213008Y6268127D01*
X3220569Y6273179D01*
X3234202Y6286813D01*
X3420996D01*
X3429369Y6278077D01*
X3430736Y6274878D01*
X3429503Y6268680D01*
X3432263Y6254806D01*
X3440122Y6243043D01*
X3451885Y6235184D01*
X3465760Y6232424D01*
X3479635Y6235184D01*
X3486720Y6239917D01*
X3499420Y6233930D01*
Y6230920D01*
X3512222D01*
Y6197320D01*
X3476920D01*
Y6086920D01*
X3597320D01*
Y6130037D01*
X3610020Y6133889D01*
X3612852Y6129652D01*
X3644420Y6098084D01*
Y5951921D01*
X3789819D01*
Y6142320D01*
X3710057D01*
X3679167Y6173211D01*
Y6273421D01*
X3676210Y6288286D01*
X3667789Y6300889D01*
X3655186Y6309310D01*
X3640320Y6312267D01*
X3625454Y6309310D01*
X3612852Y6300889D01*
X3604431Y6288286D01*
X3601474Y6273421D01*
Y6208300D01*
X3597320Y6197321D01*
X3588773Y6197320D01*
X3564017D01*
Y6230920D01*
X3576820D01*
Y6278129D01*
X3579546Y6282210D01*
X3581517Y6292121D01*
Y6337653D01*
X3682578Y6438714D01*
X3702460D01*
Y6412481D01*
X3787860D01*
Y6451081D01*
X3823528Y6486750D01*
X3824411Y6486025D01*
X3824412Y6486024D01*
X3833393Y6478654D01*
X3832444Y6477233D01*
X3828503Y6471335D01*
X3828269Y6470160D01*
X3849300D01*
Y6491191D01*
X3848125Y6490957D01*
X3842228Y6487017D01*
X3840806Y6486068D01*
X3832711Y6495932D01*
X3916002Y6579223D01*
X3990620D01*
X4000530Y6581194D01*
X4001786Y6582033D01*
X4017100D01*
X4022821Y6583171D01*
X4024109Y6583158D01*
X4027465Y6581989D01*
X4036079Y6576382D01*
X4037021Y6571645D01*
X4041292Y6565253D01*
X4047685Y6560982D01*
X4052422Y6560039D01*
X4058029Y6551425D01*
X4059197Y6548069D01*
X4059211Y6546782D01*
X4058073Y6541060D01*
Y6529198D01*
X3970221Y6441346D01*
X3956805Y6438678D01*
X3945043Y6430818D01*
X3937183Y6419056D01*
X3934423Y6405181D01*
X3935398Y6400281D01*
X3925561Y6387581D01*
X3923980D01*
Y6302181D01*
X3923979D01*
Y6299580D01*
X3923980D01*
Y6214181D01*
X4013380D01*
Y6228453D01*
X4037740D01*
Y6201620D01*
X4123140D01*
Y6228453D01*
X4157920D01*
Y6201620D01*
X4243320D01*
Y6262814D01*
X4255053Y6267675D01*
X4447620Y6075108D01*
X4456021Y6069494D01*
X4465932Y6067523D01*
X4555420D01*
Y6017220D01*
X4923820D01*
Y6145365D01*
X4935553Y6150225D01*
X4973279Y6112499D01*
X4980840Y6107447D01*
X4989760Y6105673D01*
X5127664D01*
X5129221Y6103342D01*
X5140984Y6095483D01*
X5154859Y6092723D01*
X5168733Y6095483D01*
X5180496Y6103342D01*
X5188355Y6115105D01*
X5191115Y6128979D01*
X5188355Y6142854D01*
X5180496Y6154617D01*
X5168733Y6162476D01*
X5154859Y6165236D01*
X5140984Y6162476D01*
X5129221Y6154617D01*
X5127665Y6152288D01*
X5107318D01*
X5100530Y6164988D01*
X5104537Y6170986D01*
X5107297Y6184860D01*
X5104537Y6198735D01*
X5096677Y6210498D01*
X5084915Y6218357D01*
X5071040Y6221117D01*
X5069943Y6220899D01*
X5040251Y6250591D01*
X5032235Y6255947D01*
X5022780Y6257828D01*
X4871362D01*
X4870899Y6258520D01*
X4877687Y6271220D01*
X5215820D01*
Y6423620D01*
X4847420D01*
Y6286963D01*
X4836031Y6282245D01*
X4826507Y6290084D01*
Y6526902D01*
X4827437Y6527523D01*
X4835297Y6539286D01*
X4838057Y6553160D01*
X4837838Y6554257D01*
X4854831Y6571249D01*
X4859684Y6578513D01*
X4862515Y6578848D01*
X4872690Y6577023D01*
X4875208Y6557893D01*
X4884166Y6536267D01*
X4898416Y6517696D01*
X4916986Y6503446D01*
X4938612Y6494489D01*
X4961820Y6491433D01*
X4985027Y6494489D01*
X5006653Y6503446D01*
X5025224Y6517696D01*
X5039474Y6536267D01*
X5048432Y6557893D01*
X5051487Y6581100D01*
X5048432Y6604308D01*
X5039474Y6625934D01*
X5025224Y6644505D01*
X5006653Y6658754D01*
X4985027Y6667712D01*
X4961820Y6670767D01*
X4938799Y6667736D01*
X4938412Y6668028D01*
X4931694Y6678593D01*
X4980023Y6726921D01*
X4993803Y6722741D01*
X4994363Y6719925D01*
X5002222Y6708163D01*
X5013985Y6700303D01*
X5027860Y6697543D01*
X5041735Y6700303D01*
X5053497Y6708163D01*
X5061357Y6719925D01*
X5064117Y6733800D01*
X5061357Y6747675D01*
X5053497Y6759438D01*
X5052567Y6760059D01*
Y7337946D01*
X5105503Y7390882D01*
X5106600Y7390664D01*
X5120475Y7393424D01*
X5132237Y7401283D01*
X5140097Y7413046D01*
X5142857Y7426920D01*
X5140097Y7440795D01*
X5132237Y7452558D01*
X5120475Y7460417D01*
X5117841Y7460941D01*
X5107246Y7466871D01*
X5108623Y7474738D01*
X5109837Y7480841D01*
X5107077Y7494716D01*
X5099217Y7506478D01*
X5087455Y7514338D01*
X5073580Y7517097D01*
X5059705Y7514338D01*
X5047942Y7506478D01*
X5040083Y7494716D01*
X5037323Y7480841D01*
X5037541Y7479744D01*
X4959589Y7401792D01*
X4956260Y7396809D01*
X4943560Y7400261D01*
Y7429376D01*
X5074907Y7560723D01*
X5147200D01*
X5148092Y7556239D01*
X5152557Y7549557D01*
X5159238Y7545092D01*
X5167120Y7543525D01*
X5349120D01*
X5357001Y7545092D01*
X5363683Y7549557D01*
X5368148Y7556239D01*
X5369715Y7564121D01*
Y7609120D01*
X5368148Y7617002D01*
X5363683Y7623684D01*
X5357001Y7628148D01*
X5349120Y7629716D01*
X5167120D01*
X5159238Y7628148D01*
X5152557Y7623684D01*
X5148092Y7617002D01*
X5147200Y7612518D01*
X5064180D01*
X5054269Y7610547D01*
X5045867Y7604933D01*
X4904435Y7463500D01*
X4858160D01*
Y7363100D01*
X4934491D01*
X4938706Y7355801D01*
X4934491Y7348500D01*
X4858160D01*
Y7323008D01*
X4831800D01*
Y7348500D01*
X4746400D01*
Y7290542D01*
X4660088Y7204230D01*
X4648355Y7209090D01*
Y7355373D01*
X4734667Y7441685D01*
X4746400Y7436825D01*
Y7363100D01*
X4831800D01*
Y7463500D01*
X4787037D01*
X4780249Y7476200D01*
X4781059Y7477413D01*
X4883080D01*
X4892535Y7479294D01*
X4900551Y7484649D01*
X5105314Y7689413D01*
X5146864D01*
X5148092Y7683239D01*
X5152557Y7676557D01*
X5159238Y7672092D01*
X5167120Y7670525D01*
X5349120D01*
X5357001Y7672092D01*
X5363683Y7676557D01*
X5368148Y7683239D01*
X5369376Y7689413D01*
X5412920D01*
Y7671420D01*
X5513320D01*
Y7756820D01*
X5412920D01*
Y7738828D01*
X5369177D01*
X5368148Y7744002D01*
X5363683Y7750684D01*
X5357001Y7755148D01*
X5349120Y7756716D01*
X5167120D01*
X5159238Y7755148D01*
X5152557Y7750684D01*
X5148092Y7744002D01*
X5147063Y7738828D01*
X5095080D01*
X5085625Y7736947D01*
X5077609Y7731591D01*
X4872846Y7526828D01*
X4760160D01*
X4750705Y7524947D01*
X4742689Y7519591D01*
X4661549Y7438452D01*
X4651981Y7446843D01*
X4661014Y7458616D01*
X4669972Y7480242D01*
X4673027Y7503449D01*
X4669972Y7526657D01*
X4668010Y7531393D01*
X4669140Y7534728D01*
X4676731Y7543525D01*
X4854120D01*
X4862001Y7545092D01*
X4868683Y7549557D01*
X4873148Y7556239D01*
X4874716Y7564121D01*
Y7609120D01*
X4873148Y7617002D01*
X4868683Y7623684D01*
X4862001Y7628148D01*
X4854120Y7629716D01*
X4672120D01*
X4664239Y7628148D01*
X4657557Y7623684D01*
X4653092Y7617002D01*
X4651524Y7609120D01*
Y7579209D01*
X4638824Y7572946D01*
X4628193Y7581103D01*
X4606567Y7590061D01*
X4583360Y7593116D01*
X4560152Y7590061D01*
X4538526Y7581103D01*
X4519956Y7566854D01*
X4505706Y7548283D01*
X4503126Y7542055D01*
X4490426Y7544582D01*
Y7649620D01*
X4486400Y7659341D01*
X4489217Y7671920D01*
X4490820D01*
Y7757320D01*
X4390420D01*
Y7676067D01*
X4390419Y7671920D01*
X4381263Y7663367D01*
X4341866D01*
X4334993Y7660520D01*
X4328120Y7663367D01*
X4185620D01*
X4178747Y7660520D01*
X4171873Y7663367D01*
X4051031D01*
Y7750780D01*
X3860631D01*
Y7605381D01*
X3875261D01*
X3880122Y7593647D01*
X3634157Y7347683D01*
X3327580D01*
Y7404400D01*
X3238180D01*
Y7400547D01*
X3160291D01*
X3160012Y7400910D01*
X3137514Y7418174D01*
X3111315Y7429026D01*
X3099742Y7430549D01*
X3100574Y7443249D01*
X3184180D01*
Y7563649D01*
X3073780D01*
Y7535821D01*
X3058980D01*
X3046592Y7533357D01*
X3036089Y7526340D01*
X3025546Y7515797D01*
X3010720D01*
Y7556125D01*
X2865320D01*
Y7410725D01*
X2869920D01*
X2873992Y7398566D01*
X2866697Y7388741D01*
X2854350D01*
X2845012Y7400910D01*
X2822514Y7418174D01*
X2800720Y7427201D01*
Y7556125D01*
X2655320D01*
Y7432727D01*
X2638200D01*
X2610085Y7429026D01*
X2583885Y7418174D01*
X2561388Y7400910D01*
X2550358Y7386537D01*
X2537658Y7390848D01*
Y8050348D01*
X2537538Y8050951D01*
X2540754Y8058714D01*
X2548518Y8061930D01*
X2549120Y8061810D01*
X3148260D01*
Y7703920D01*
X3300660D01*
Y8061810D01*
X4060675D01*
X4073116Y8061181D01*
X4083041Y8054482D01*
X4084793Y8050252D01*
X4084667Y8049620D01*
Y7900565D01*
X4084659Y7899620D01*
X4084659D01*
X4085816Y7890834D01*
X4087673Y7876726D01*
X4096510Y7855392D01*
X4110568Y7837072D01*
X4128888Y7823015D01*
X4150222Y7814178D01*
X4173116Y7811164D01*
Y7811182D01*
X4253116D01*
Y7811164D01*
X4276010Y7814178D01*
X4297344Y7823015D01*
X4315664Y7837072D01*
X4329722Y7855392D01*
X4338559Y7876726D01*
X4341572Y7899620D01*
X4341555D01*
Y8049620D01*
X4341429Y8050252D01*
X4343181Y8054482D01*
X4353106Y8061181D01*
X4353106Y8061182D01*
X4356816Y8061920D01*
X6520872D01*
X6523398Y8049220D01*
X6514646Y8045594D01*
X6496076Y8031345D01*
X6481826Y8012774D01*
X6472868Y7991148D01*
X6469813Y7967940D01*
X6472868Y7944733D01*
X6481826Y7923107D01*
X6496076Y7904536D01*
X6514646Y7890286D01*
X6536272Y7881329D01*
X6559480Y7878273D01*
X6582687Y7881329D01*
X6604313Y7890286D01*
X6622884Y7904536D01*
X6637134Y7923107D01*
X6639481Y7928774D01*
X6693280D01*
Y7908157D01*
X6709634D01*
Y7832920D01*
X6703880D01*
Y7757520D01*
X6709634D01*
Y7700661D01*
X6677793Y7668820D01*
X6643780D01*
Y7664837D01*
X6614340D01*
Y7668560D01*
X6524940D01*
Y7664705D01*
X6477989D01*
Y7673256D01*
X6475257Y7686990D01*
X6467478Y7698634D01*
X6455834Y7706414D01*
X6442100Y7709146D01*
X6428366Y7706414D01*
X6416722Y7698634D01*
X6415950Y7697478D01*
X6403250D01*
X6402477Y7698634D01*
X6390834Y7706414D01*
X6377100Y7709146D01*
X6363365Y7706414D01*
X6351722Y7698634D01*
X6350950Y7697478D01*
X6338250D01*
X6337478Y7698634D01*
X6325834Y7706414D01*
X6312100Y7709146D01*
X6298366Y7706414D01*
X6286722Y7698634D01*
X6285950Y7697478D01*
X6273250D01*
X6272477Y7698634D01*
X6260834Y7706414D01*
X6247100Y7709146D01*
X6233365Y7706414D01*
X6221722Y7698634D01*
X6220950Y7697478D01*
X6208250D01*
X6207478Y7698634D01*
X6195834Y7706414D01*
X6182100Y7709146D01*
X6168366Y7706414D01*
X6156722Y7698634D01*
X6148942Y7686990D01*
X6146210Y7673256D01*
Y7627602D01*
X6145843Y7625756D01*
X6146210Y7623910D01*
Y7578256D01*
X6148942Y7564522D01*
X6156722Y7552878D01*
X6168366Y7545099D01*
X6182100Y7542367D01*
X6195834Y7545099D01*
X6207478Y7552878D01*
X6208250Y7554034D01*
X6220950D01*
X6221722Y7552878D01*
X6233365Y7545099D01*
X6247100Y7542367D01*
X6260834Y7545099D01*
X6272477Y7552878D01*
X6273250Y7554034D01*
X6285950D01*
X6286722Y7552878D01*
X6298366Y7545099D01*
X6312100Y7542367D01*
X6325834Y7545099D01*
X6337478Y7552878D01*
X6338250Y7554034D01*
X6350950D01*
X6351722Y7552878D01*
X6363365Y7545099D01*
X6377100Y7542367D01*
X6390834Y7545099D01*
X6402477Y7552878D01*
X6403250Y7554034D01*
X6415950D01*
X6416722Y7552878D01*
X6428366Y7545099D01*
X6442100Y7542367D01*
X6455834Y7545099D01*
X6467478Y7552878D01*
X6475257Y7564522D01*
X6477989Y7578256D01*
Y7587012D01*
X6514912D01*
X6524940Y7580560D01*
X6524940Y7570460D01*
Y7495161D01*
X6614340D01*
Y7570460D01*
X6614340Y7580560D01*
X6624313Y7587144D01*
X6633699D01*
X6643780Y7580820D01*
X6643780Y7570720D01*
Y7495420D01*
X6733180D01*
Y7570720D01*
X6733180Y7580820D01*
X6733180Y7593520D01*
Y7614333D01*
X6775949Y7657102D01*
X6784369Y7669704D01*
X6787327Y7684570D01*
Y7757520D01*
X6799280D01*
Y7832920D01*
X6787327D01*
Y7908157D01*
X6803680D01*
Y8028557D01*
X6693280D01*
Y8006467D01*
X6639746D01*
X6637134Y8012774D01*
X6622884Y8031345D01*
X6604313Y8045594D01*
X6595561Y8049220D01*
X6598087Y8061920D01*
X7023776D01*
X7026302Y8049220D01*
X7017550Y8045594D01*
X6998979Y8031345D01*
X6984730Y8012774D01*
X6975772Y7991148D01*
X6972717Y7967940D01*
X6975772Y7944733D01*
X6984730Y7923107D01*
X6998979Y7904536D01*
X7017550Y7890286D01*
X7039176Y7881329D01*
X7062384Y7878273D01*
X7085591Y7881329D01*
X7107217Y7890286D01*
X7125788Y7904536D01*
X7140038Y7923107D01*
X7148995Y7944733D01*
X7152051Y7967940D01*
X7148995Y7991148D01*
X7140038Y8012774D01*
X7125788Y8031345D01*
X7107217Y8045594D01*
X7098465Y8049220D01*
X7100991Y8061920D01*
X7174366D01*
X7174982Y8062042D01*
X7182808Y8058800D01*
D02*
G37*
G36*
X9167296Y8060287D02*
X9173986Y8050358D01*
X9177000Y8027464D01*
X9185837Y8006130D01*
X9199895Y7987810D01*
X9218215Y7973753D01*
X9239549Y7964916D01*
X9262443Y7961902D01*
Y7961920D01*
X9321873D01*
Y7607120D01*
Y7490947D01*
X9322680Y7489000D01*
X9322482Y7486902D01*
X9325950Y7475638D01*
X9328085Y7473058D01*
X9329367Y7469962D01*
X9331314Y7469156D01*
X9332657Y7467533D01*
X9335993Y7467218D01*
X9339087Y7465936D01*
Y7439492D01*
X9278320D01*
Y7449821D01*
X9192920D01*
Y7349420D01*
X9278320D01*
Y7374748D01*
X9339087D01*
Y7348029D01*
X9335993Y7346748D01*
X9332657Y7346433D01*
X9331314Y7344810D01*
X9329367Y7344003D01*
X9328085Y7340908D01*
X9325950Y7338328D01*
X9322482Y7327064D01*
X9322680Y7324966D01*
X9321873Y7323019D01*
Y7280947D01*
X9322680Y7279000D01*
X9322482Y7276902D01*
X9325950Y7265638D01*
X9328085Y7263058D01*
X9329367Y7259962D01*
X9331314Y7259156D01*
X9332657Y7257533D01*
X9335993Y7257218D01*
X9339087Y7255936D01*
Y7124283D01*
X9347800D01*
X9352660Y7112550D01*
X9124468Y6884357D01*
X9123189Y6884103D01*
X9114787Y6878489D01*
X9077307Y6841009D01*
X9071694Y6832607D01*
X9069722Y6822697D01*
Y6690778D01*
X9071694Y6680867D01*
X9077307Y6672465D01*
X9104005Y6645767D01*
X9098689Y6633123D01*
X9087370D01*
X9081342Y6631924D01*
X9076231Y6628509D01*
X9072816Y6623399D01*
X9071617Y6617371D01*
Y6611688D01*
X9058917Y6607488D01*
X8983137Y6683268D01*
Y7018000D01*
X8981166Y7027911D01*
X8975552Y7036313D01*
X8933932Y7077933D01*
X8925531Y7083547D01*
X8915620Y7085518D01*
X8827600D01*
Y7104820D01*
X8774366D01*
Y7250214D01*
X8785861Y7260524D01*
X8822920D01*
Y7226920D01*
X8943320D01*
Y7337320D01*
X8822920D01*
Y7303716D01*
X8794806D01*
X8782216Y7316306D01*
Y7383343D01*
X8786258Y7386043D01*
X8794117Y7397806D01*
X8796877Y7411680D01*
X8794117Y7425555D01*
X8786258Y7437318D01*
X8774495Y7445177D01*
X8773778Y7446517D01*
X8774366Y7447937D01*
Y7974814D01*
X8770340Y7984534D01*
X8760620Y7988560D01*
X8466866D01*
X8459993Y7985714D01*
X8453120Y7988560D01*
X8339047D01*
X8329326Y7984534D01*
X8325300Y7974814D01*
Y7602833D01*
X8323141Y7591977D01*
X8317758Y7583921D01*
X8309702Y7578539D01*
X8300200Y7576649D01*
X8290698Y7578539D01*
X8282642Y7583921D01*
X8277260Y7591977D01*
X8275100Y7602833D01*
Y8012306D01*
X8277260Y8023163D01*
X8282642Y8031218D01*
X8292477Y8037790D01*
X8295329Y8042058D01*
X8296920Y8043273D01*
X8297114Y8044724D01*
X8298320Y8046524D01*
X8298510Y8047478D01*
X8298166Y8049219D01*
X8299511Y8055253D01*
X8304639Y8061920D01*
X9162443D01*
X9163059Y8062042D01*
X9167296Y8060287D01*
D02*
G37*
G36*
X12200920Y7379420D02*
X12269540D01*
Y7314821D01*
X12216920D01*
Y7224420D01*
X12269540D01*
Y7157120D01*
X12745620Y7157120D01*
Y6592273D01*
X11900300D01*
Y6613654D01*
X11774900D01*
Y6592273D01*
X11751866D01*
Y6902055D01*
X11747840Y6911776D01*
X11738120Y6915802D01*
Y6948120D01*
X11713433Y6948120D01*
X11704453Y6957101D01*
X11704452Y7387510D01*
X11895420D01*
Y7384421D01*
X12020820D01*
Y7387510D01*
X12200920D01*
Y7379420D01*
D02*
G37*
G36*
X8760620Y7447937D02*
X8746745Y7445177D01*
X8734983Y7437318D01*
X8727123Y7425555D01*
X8724363Y7411680D01*
X8727123Y7397806D01*
X8734983Y7386043D01*
X8739024Y7383343D01*
Y7307361D01*
X8740668Y7299096D01*
X8745349Y7292090D01*
X8760620Y7276819D01*
Y7104820D01*
X8758200D01*
Y7019820D01*
X8542701D01*
Y7019620D01*
X8493935D01*
X8487146Y7032320D01*
X8490357Y7037126D01*
X8493117Y7051000D01*
X8490357Y7064875D01*
X8482497Y7076638D01*
X8470735Y7084497D01*
X8466866Y7085267D01*
Y7313526D01*
X8479566Y7323949D01*
X8481445Y7323575D01*
X8495320Y7326335D01*
X8507083Y7334194D01*
X8514942Y7345957D01*
X8517702Y7359832D01*
X8514942Y7373706D01*
X8507083Y7385469D01*
X8495320Y7393328D01*
X8481445Y7396088D01*
X8479566Y7395715D01*
X8466866Y7406137D01*
Y7974814D01*
X8760620D01*
Y7447937D01*
D02*
G37*
G36*
X4029373Y7543852D02*
Y7382321D01*
X4033400Y7372600D01*
X4037073Y7371078D01*
Y7208163D01*
X4033400Y7206641D01*
X4029373Y7196921D01*
Y7165300D01*
X3826440Y7165300D01*
X3826440Y7430091D01*
X3940201Y7543852D01*
X4029373Y7543852D01*
D02*
G37*
G36*
X4328120Y7059620D02*
X4200341D01*
X4189220Y7068811D01*
Y7121310D01*
X4187555Y7129679D01*
X4185620Y7132576D01*
Y7649620D01*
X4328120D01*
Y7059620D01*
D02*
G37*
G36*
X4171873Y7132576D02*
X4173408Y7128871D01*
X4173946Y7126166D01*
X4172980Y7121310D01*
Y7068811D01*
X4161859Y7059620D01*
X4043120D01*
Y7196921D01*
X4050820D01*
Y7382321D01*
X4043120D01*
Y7605381D01*
X4051031D01*
Y7649620D01*
X4171873D01*
Y7132576D01*
D02*
G37*
G36*
X4476680Y7101448D02*
X4437066D01*
X4427611Y7099567D01*
X4419595Y7094211D01*
X4408556Y7083172D01*
X4403200Y7075157D01*
X4401319Y7065701D01*
Y7038295D01*
X4392793Y7029768D01*
X4371100D01*
X4362702Y7028097D01*
X4339520D01*
Y7053955D01*
X4341866Y7059620D01*
Y7649620D01*
X4476680D01*
Y7101448D01*
D02*
G37*
G36*
X7454356Y8061920D02*
X8281913D01*
X8285031Y8050174D01*
X8284840Y8049220D01*
X8272731Y8041129D01*
X8264311Y8028526D01*
X8261354Y8013660D01*
Y7601479D01*
X8264311Y7586613D01*
X8272731Y7574011D01*
X8285334Y7565590D01*
X8300200Y7562633D01*
X8315066Y7565590D01*
X8327669Y7574011D01*
X8336089Y7586613D01*
X8339047Y7601479D01*
Y7974814D01*
X8453120D01*
Y7392204D01*
X8404209D01*
X8391821Y7389740D01*
X8381319Y7382722D01*
X8313369Y7314773D01*
X8278939D01*
X8277256Y7315897D01*
X8263381Y7318657D01*
X8249506Y7315897D01*
X8237743Y7308038D01*
X8229884Y7296275D01*
X8227124Y7282400D01*
X8229884Y7268526D01*
X8237743Y7256763D01*
X8249506Y7248904D01*
X8263381Y7246144D01*
X8277256Y7248904D01*
X8278939Y7250028D01*
X8326778D01*
X8339166Y7252492D01*
X8349668Y7259510D01*
X8417618Y7327460D01*
X8453120D01*
Y7020536D01*
X7443120Y7020536D01*
Y7116169D01*
X7460912Y7123539D01*
X7488371Y7144609D01*
X7509441Y7172068D01*
X7522687Y7204045D01*
X7527204Y7238360D01*
X7522687Y7272676D01*
X7509441Y7304653D01*
X7488371Y7332112D01*
X7460912Y7353182D01*
X7443120Y7360551D01*
Y7433669D01*
X7460912Y7441039D01*
X7488371Y7462109D01*
X7509441Y7489568D01*
X7522687Y7521545D01*
X7527204Y7555860D01*
X7522687Y7590176D01*
X7509441Y7622153D01*
X7488371Y7649612D01*
X7460912Y7670682D01*
X7443120Y7678051D01*
Y8052055D01*
X7445914Y8058800D01*
X7453740Y8062042D01*
X7454356Y8061920D01*
D02*
G37*
G36*
X8875936Y6767120D02*
X8827600D01*
Y6809821D01*
X8758200D01*
Y6809820D01*
X8700248D01*
X8699720Y6811096D01*
X8689999Y6815122D01*
X8512740D01*
X8503020Y6811096D01*
X8498993Y6801376D01*
Y6767120D01*
X7444431D01*
Y7006789D01*
X8453120Y7006790D01*
X8453918Y7007120D01*
X8489147D01*
X8489945Y7006466D01*
X8492014Y7006670D01*
X8493935Y7005874D01*
X8542701D01*
X8543183Y7006074D01*
X8758200D01*
X8760727Y7007120D01*
X8875936D01*
Y6767120D01*
D02*
G37*
G36*
X3162675Y7061798D02*
X3050500D01*
Y7006398D01*
Y6999620D01*
X2883275D01*
X2883275Y7125013D01*
X3162675D01*
X3162675Y7061798D01*
D02*
G37*
G36*
X9840620Y6960736D02*
X9712820D01*
Y7045736D01*
X9710620D01*
X9710620Y7471936D01*
X9840619D01*
X9840620Y6960736D01*
D02*
G37*
G36*
X11875700Y7401521D02*
X11524219Y7401519D01*
X11524220Y7047959D01*
X11473120D01*
X11464855Y7046315D01*
X11457849Y7041634D01*
X11453168Y7034627D01*
X11451524Y7026363D01*
X11453168Y7018098D01*
X11457849Y7011092D01*
X11464855Y7006411D01*
X11473120Y7004767D01*
X11524220D01*
Y6944320D01*
X10575253Y6944320D01*
X10575254Y7607120D01*
X11875700Y7607120D01*
X11875700Y7401521D01*
D02*
G37*
G36*
X4858160Y7248100D02*
X4943560D01*
X4952352Y7239042D01*
Y7016815D01*
X4943080Y7008540D01*
X4797680D01*
Y6863140D01*
X4844495D01*
Y6845840D01*
X4820400Y6821745D01*
X4807700Y6827006D01*
Y6844821D01*
X4717294D01*
X4712255Y6856434D01*
X4718746Y6864420D01*
X4763220D01*
Y6964820D01*
X4711230D01*
X4702798Y6977520D01*
X4703597Y6979420D01*
X4763220D01*
Y7079820D01*
X4746417D01*
Y7129010D01*
X4754017Y7140384D01*
X4756777Y7154258D01*
X4754017Y7168133D01*
X4746157Y7179896D01*
X4734395Y7187755D01*
X4731945Y7188243D01*
X4727764Y7202023D01*
X4773842Y7248100D01*
X4831800D01*
Y7273593D01*
X4858160D01*
Y7248100D01*
D02*
G37*
G36*
X13525620Y6883754D02*
X13428059D01*
Y6802878D01*
X13416327Y6798018D01*
X13400111Y6814233D01*
X13391710Y6819847D01*
X13386200Y6820943D01*
Y6853620D01*
X13260800D01*
Y6738220D01*
X13386200D01*
X13387363Y6726002D01*
Y6628554D01*
X13389334Y6618644D01*
X13394948Y6610242D01*
X13405774Y6599415D01*
X13413481Y6591708D01*
X13409238Y6583477D01*
X13408005Y6577277D01*
X13404984Y6575258D01*
X13397124Y6563495D01*
X13394363Y6549621D01*
X13397124Y6535746D01*
X13404984Y6523983D01*
X13400597Y6511865D01*
X13399097Y6509821D01*
X13367920D01*
X13367920Y6509821D01*
X13355231Y6509846D01*
X13353120Y6510265D01*
X13329004D01*
X13328104Y6510444D01*
X13283084D01*
X13264526Y6529001D01*
X13256966Y6534054D01*
X13248045Y6535828D01*
X13145193D01*
X13023761Y6657261D01*
X13016200Y6662314D01*
X13015820Y6662389D01*
Y6718480D01*
X12850420D01*
Y6592273D01*
X12759366D01*
Y7157120D01*
X12758647Y7158858D01*
Y7171607D01*
X12283286D01*
Y7224420D01*
X12292320D01*
Y7314821D01*
X12283286D01*
Y7379420D01*
X12279260Y7389141D01*
X12269540Y7393167D01*
X12212324D01*
X12210641Y7397231D01*
X12200920Y7401257D01*
X12184022D01*
Y7850459D01*
X13525620D01*
Y6883754D01*
D02*
G37*
G36*
X3953060Y6827020D02*
X3958584Y6823329D01*
X3965100Y6822033D01*
X3989992D01*
X3991100Y6821813D01*
X4025620D01*
Y6759967D01*
X4017350Y6753180D01*
X3964850D01*
X3956481Y6751516D01*
X3953645Y6749620D01*
X3898242D01*
X3891242Y6754297D01*
X3877368Y6757057D01*
X3863493Y6754297D01*
X3856493Y6749620D01*
X3815998D01*
X3808998Y6754297D01*
X3795124Y6757057D01*
X3781249Y6754297D01*
X3774249Y6749620D01*
X3733754D01*
X3726755Y6754297D01*
X3726235Y6754401D01*
X3722055Y6768181D01*
X3780995Y6827120D01*
X3952993D01*
X3953060Y6827020D01*
D02*
G37*
G36*
X3885879Y6741348D02*
X3890605Y6738190D01*
X3894537Y6737408D01*
X3898242Y6735874D01*
X3905117D01*
X3905581Y6735564D01*
X3919456Y6732804D01*
X3933331Y6735564D01*
X3933795Y6735874D01*
X3953645D01*
X3957349Y6737408D01*
X3959923Y6737920D01*
X3964850Y6736940D01*
X4017350D01*
X4025620Y6730153D01*
Y6679342D01*
X4017100Y6668088D01*
X3992334D01*
X3990620Y6668428D01*
X3949400D01*
X3940481Y6666654D01*
X3937437Y6664620D01*
X3690900D01*
X3687820Y6677321D01*
X3687820Y6686144D01*
X3687820D01*
Y6688745D01*
X3687820D01*
Y6733946D01*
X3695995Y6742120D01*
X3720235D01*
X3726117Y6738190D01*
X3730049Y6737408D01*
X3733754Y6735874D01*
X3740629D01*
X3741093Y6735564D01*
X3754968Y6732804D01*
X3768843Y6735564D01*
X3769307Y6735874D01*
X3774249D01*
X3777954Y6737408D01*
X3781886Y6738190D01*
X3786612Y6741348D01*
X3790494Y6742120D01*
X3799753D01*
X3803635Y6741348D01*
X3808361Y6738190D01*
X3812293Y6737408D01*
X3815998Y6735874D01*
X3822873D01*
X3823337Y6735564D01*
X3837212Y6732804D01*
X3851087Y6735564D01*
X3851551Y6735874D01*
X3856493D01*
X3860198Y6737408D01*
X3864130Y6738190D01*
X3868856Y6741348D01*
X3872738Y6742120D01*
X3881997D01*
X3885879Y6741348D01*
D02*
G37*
G36*
X4943080Y6863140D02*
X4952352Y6854866D01*
Y6769135D01*
X4819889Y6636671D01*
X4814533Y6628656D01*
X4812652Y6619200D01*
Y6598955D01*
X4802897Y6589199D01*
X4801800Y6589417D01*
X4787925Y6586657D01*
X4776162Y6578798D01*
X4768303Y6567035D01*
X4765543Y6553160D01*
X4768303Y6539286D01*
X4776162Y6527523D01*
X4777092Y6526902D01*
Y6279680D01*
X4778973Y6270225D01*
X4784329Y6262209D01*
X4818630Y6227908D01*
X4813370Y6215208D01*
X4692554D01*
X4637635Y6270127D01*
X4642495Y6281860D01*
X4719000D01*
Y6367260D01*
X4618600D01*
Y6314069D01*
X4605900Y6306225D01*
X4604000Y6307177D01*
Y6367260D01*
X4578547D01*
Y6505820D01*
X4604040D01*
Y6591220D01*
X4576928D01*
Y6638662D01*
X4577857Y6639283D01*
X4585717Y6651046D01*
X4588477Y6664920D01*
X4585717Y6678795D01*
X4577857Y6690558D01*
X4566095Y6698417D01*
X4552220Y6701177D01*
X4551123Y6700959D01*
X4521619Y6730463D01*
X4517971Y6732900D01*
X4521824Y6745600D01*
X4533080D01*
Y6755813D01*
X4567300D01*
Y6724421D01*
X4677700D01*
Y6824181D01*
X4684969Y6828090D01*
X4697300Y6820909D01*
Y6724421D01*
X4807700D01*
Y6758723D01*
X4819900D01*
X4829811Y6760694D01*
X4838213Y6766308D01*
X4888704Y6816800D01*
X4894318Y6825202D01*
X4896290Y6835113D01*
Y6863140D01*
X4943080D01*
D02*
G37*
G36*
X14865280Y7176673D02*
X14856320Y7167684D01*
X14370920D01*
Y7165867D01*
X14278120D01*
Y6581598D01*
X14121060D01*
X14111150Y6579627D01*
X14102748Y6574013D01*
X13989606Y6460870D01*
X13869672D01*
X13859761Y6458899D01*
X13851360Y6453285D01*
X13820055Y6421980D01*
X13815385D01*
X13811932Y6425433D01*
X13803531Y6431047D01*
X13793620Y6433018D01*
X13733121D01*
X13723210Y6431047D01*
X13722040Y6430265D01*
X13708121D01*
X13706020Y6429848D01*
X13693320Y6438644D01*
Y6455597D01*
X13695364Y6457097D01*
X13707483Y6461483D01*
X13719244Y6453624D01*
X13733121Y6450864D01*
X13746996Y6453624D01*
X13758759Y6461483D01*
X13760776Y6464504D01*
X13766977Y6465738D01*
X13774486Y6470755D01*
X13779503Y6478264D01*
X13781265Y6487121D01*
X13779503Y6495978D01*
X13774486Y6503486D01*
X13766977Y6508504D01*
X13760776Y6509737D01*
X13758759Y6512758D01*
X13746996Y6520617D01*
X13733121Y6523377D01*
X13719244Y6520617D01*
X13707483Y6512758D01*
X13697054Y6515125D01*
X13693336Y6518594D01*
X13693346Y6522510D01*
X13693765Y6524621D01*
Y6557504D01*
X13703236Y6566975D01*
X13736592D01*
X13746503Y6568946D01*
X13754904Y6574560D01*
X13781232Y6600888D01*
X13786845Y6609290D01*
X13787361Y6611876D01*
X13799280Y6613760D01*
X13799280Y6613760D01*
X13799281Y6613760D01*
X13924680D01*
Y6729160D01*
X13799280D01*
Y6697358D01*
X13781882D01*
X13771971Y6695387D01*
X13763570Y6689773D01*
X13744608Y6670811D01*
X13741113Y6665581D01*
X13728413Y6669359D01*
Y6763554D01*
X13724387Y6773275D01*
X13714667Y6777301D01*
X13707365Y6786594D01*
Y6893497D01*
X13581966D01*
X13581966Y6778097D01*
X13569595Y6777301D01*
X13548460D01*
Y6883754D01*
X13539366D01*
Y7850458D01*
X13540477Y7852120D01*
X14865280D01*
Y7176673D01*
D02*
G37*
G36*
X13714667Y6618770D02*
X13692509D01*
X13682597Y6616799D01*
X13674196Y6611185D01*
X13658951Y6595939D01*
X13649918Y6592200D01*
X13641270Y6594805D01*
X13639478Y6596004D01*
X13630620Y6597765D01*
X13621764Y6596004D01*
X13614255Y6590986D01*
X13606985D01*
X13599477Y6596004D01*
X13590620Y6597765D01*
X13581763Y6596004D01*
X13574255Y6590986D01*
X13569237Y6583478D01*
X13567476Y6574621D01*
Y6560701D01*
X13566695Y6559531D01*
X13564723Y6549621D01*
Y6509821D01*
X13542143D01*
X13540643Y6511865D01*
X13536258Y6523983D01*
X13544118Y6535746D01*
X13546877Y6549621D01*
X13544118Y6563495D01*
X13536258Y6575258D01*
X13533237Y6577277D01*
X13532002Y6583478D01*
X13526987Y6590986D01*
X13519476Y6596004D01*
X13510620Y6597765D01*
X13507332Y6597111D01*
X13500658Y6596683D01*
X13489851Y6603318D01*
X13488933Y6604692D01*
X13465292Y6628333D01*
X13456889Y6633947D01*
X13446979Y6635918D01*
X13442520D01*
X13440759Y6637679D01*
Y6763554D01*
X13714667D01*
Y6618770D01*
D02*
G37*
G36*
X3050500Y6698554D02*
Y6656398D01*
X3163262D01*
X3163262Y6586180D01*
X2879019Y6586180D01*
X2879020Y6698554D01*
X3050500Y6698554D01*
D02*
G37*
G36*
X11471073Y6575916D02*
X11449980D01*
Y6615921D01*
X11324580D01*
Y6500521D01*
X11449980D01*
Y6532724D01*
X11471073D01*
Y6501399D01*
X11475099Y6491679D01*
X11484820Y6487653D01*
X11551164D01*
X11557638Y6474953D01*
X11553297Y6468455D01*
X11550537Y6454580D01*
X11553297Y6440706D01*
X11561156Y6428943D01*
X11572919Y6421084D01*
X11586793Y6418324D01*
X11600668Y6421084D01*
X11602834Y6422531D01*
X11613843Y6428463D01*
X11625605Y6420604D01*
X11639480Y6417844D01*
X11653355Y6420604D01*
X11665117Y6428463D01*
X11672977Y6440226D01*
X11675737Y6454100D01*
X11672977Y6467975D01*
X11668315Y6474953D01*
X11674391Y6487653D01*
X11738120D01*
X11747840Y6491679D01*
X11751866Y6501399D01*
Y6532343D01*
X11774900D01*
Y6498254D01*
X11900300D01*
Y6578526D01*
X12100192D01*
X12101873Y6576010D01*
Y6419497D01*
X12103548Y6415454D01*
X12104646Y6411218D01*
X12111947Y6401541D01*
X12112814Y6401031D01*
X12113199Y6400101D01*
X12115620Y6399098D01*
Y6215143D01*
X12113199Y6214140D01*
X12112814Y6213210D01*
X12111947Y6212699D01*
X12104646Y6203023D01*
X12103548Y6198787D01*
X12101873Y6194744D01*
Y6180073D01*
X12103245Y6176761D01*
X12103710Y6173208D01*
X12109620Y6162956D01*
X12111096Y6161821D01*
X12111809Y6160100D01*
X12115120Y6158729D01*
X12115620Y6158345D01*
Y5975142D01*
X12113200Y5974140D01*
X12112815Y5973210D01*
X12111947Y5972700D01*
X12104647Y5963024D01*
X12103548Y5958787D01*
X12101873Y5954744D01*
Y5938897D01*
X11853365D01*
X11849414Y5940533D01*
X11842715Y5950459D01*
X11842714Y5962399D01*
Y6100457D01*
X11842715Y6100458D01*
X11842733D01*
X11839719Y6123353D01*
X11830882Y6144687D01*
X11816824Y6163007D01*
X11798504Y6177064D01*
X11777171Y6185901D01*
X11754276Y6188915D01*
Y6188898D01*
X11754276Y6188897D01*
X11674276D01*
Y6188915D01*
X11651382Y6185901D01*
X11630048Y6177064D01*
X11611728Y6163007D01*
X11597670Y6144687D01*
X11588834Y6123353D01*
X11585820Y6100458D01*
X11585837D01*
Y5950459D01*
X11585963Y5949827D01*
X11582728Y5942017D01*
X11575197Y5938897D01*
X9959366D01*
Y6036920D01*
X10015640D01*
Y6302320D01*
X9959366D01*
Y6729914D01*
X11471073D01*
Y6575916D01*
D02*
G37*
G36*
X13062825Y6552273D02*
X13058646Y6538493D01*
X13058165Y6538397D01*
X13046402Y6530538D01*
X13038544Y6518775D01*
X13035783Y6504900D01*
X13038544Y6491026D01*
X13046402Y6479263D01*
X13048732Y6477706D01*
Y6356780D01*
X13010420D01*
Y6269343D01*
X12981506Y6240428D01*
X12775620D01*
X12766701Y6238654D01*
X12759139Y6233602D01*
X12746639Y6221102D01*
X12741586Y6213540D01*
X12739812Y6204621D01*
Y6157320D01*
X12720420D01*
Y6056920D01*
X12805820D01*
Y6157320D01*
X12786428D01*
Y6193813D01*
X12875420D01*
Y6150125D01*
X12933121D01*
X12990820D01*
Y6185048D01*
X12998593Y6189329D01*
X13010420Y6181885D01*
Y6074725D01*
X13036292D01*
Y6045020D01*
X13009399D01*
Y5959620D01*
X13109801D01*
Y6045020D01*
X13082909D01*
Y6074725D01*
X13125819D01*
Y6101313D01*
X13239061D01*
X13247981Y6103087D01*
X13255542Y6108139D01*
X13331380Y6183976D01*
X13353120D01*
X13358585Y6185063D01*
X13361993Y6182955D01*
X13366454Y6178495D01*
X13368562Y6175084D01*
X13367474Y6169621D01*
Y6156019D01*
X13366054Y6153891D01*
X13364082Y6143980D01*
Y6088817D01*
X13310420D01*
Y5963418D01*
X13425819D01*
Y6061543D01*
X13429042Y6062741D01*
X13438519Y6063656D01*
X13444983Y6053983D01*
X13456746Y6046124D01*
X13470621Y6043364D01*
X13484496Y6046124D01*
X13496259Y6053983D01*
X13502150Y6062802D01*
X13515054Y6060586D01*
X13517123Y6050184D01*
X13524983Y6038421D01*
X13536745Y6030562D01*
X13550620Y6027802D01*
X13564494Y6030562D01*
X13567720Y6032716D01*
X13580420Y6025928D01*
Y5961920D01*
X13680820D01*
Y5981312D01*
X13715421D01*
Y5961920D01*
X13815820D01*
Y6006647D01*
X13828520Y6013435D01*
X13830420Y6012166D01*
Y5961920D01*
X13930820D01*
Y6047320D01*
X13903928D01*
Y6069381D01*
X13930820D01*
Y6154780D01*
X13925336D01*
X13920474Y6166514D01*
X13949367Y6195405D01*
X13961099Y6190545D01*
Y6186010D01*
X14028641D01*
X14030640Y6183021D01*
X14046432Y6167227D01*
X14040918Y6154781D01*
X14035150Y6154780D01*
X13945419D01*
Y6069381D01*
X14045821D01*
Y6143245D01*
X14045821Y6149878D01*
X14058266Y6155393D01*
X14094701Y6118960D01*
X14102261Y6113907D01*
X14111182Y6112133D01*
X14142920D01*
Y6083880D01*
X14218221D01*
X14228320Y6083880D01*
X14241020Y6083880D01*
X14260921D01*
Y6128581D01*
Y6173280D01*
X14241020D01*
X14230920Y6173281D01*
X14218221Y6173280D01*
X14142920D01*
Y6158748D01*
X14120836D01*
X14105307Y6174277D01*
X14110167Y6186010D01*
X14428600D01*
Y5938897D01*
X12817268D01*
X12805820Y5941921D01*
X12805820Y5951597D01*
Y6042320D01*
X12720420D01*
Y6018437D01*
X12666040D01*
Y6035658D01*
X12648380D01*
Y6064420D01*
X12682772D01*
Y6189820D01*
X12567372D01*
Y6064420D01*
X12601764D01*
Y6035658D01*
X12565640D01*
Y5951597D01*
X12565640Y5950259D01*
X12562408Y5938897D01*
X12115620D01*
Y5954744D01*
X12122921Y5964420D01*
X12128320Y5964420D01*
X12223320D01*
Y6024358D01*
X12233515Y6034553D01*
X12287926D01*
X12289482Y6032223D01*
X12301245Y6024364D01*
X12315120Y6021604D01*
X12328995Y6024364D01*
X12340757Y6032223D01*
X12348617Y6043986D01*
X12351377Y6057860D01*
X12348617Y6071735D01*
X12340757Y6083498D01*
X12328995Y6091357D01*
X12315120Y6094117D01*
X12301245Y6091357D01*
X12289482Y6083498D01*
X12287926Y6081168D01*
X12233282D01*
X12223419Y6083994D01*
X12221929Y6093516D01*
Y6169820D01*
X12128320D01*
X12121529Y6169821D01*
X12115620Y6180073D01*
Y6194744D01*
X12122920Y6204420D01*
X12128320Y6204420D01*
X12223320D01*
Y6289820D01*
X12210084D01*
X12204270Y6302520D01*
X12207467Y6306223D01*
X12257222D01*
Y6266568D01*
X12258220Y6261552D01*
Y6202369D01*
X12358620D01*
Y6287768D01*
X12309017D01*
Y6332120D01*
X12308738Y6333523D01*
X12318357Y6346223D01*
X12377920D01*
Y6316920D01*
X12498320D01*
Y6427320D01*
X12377920D01*
Y6398018D01*
X12300620D01*
X12290709Y6396047D01*
X12286629Y6393320D01*
X12261920D01*
Y6358018D01*
X12223320D01*
Y6409820D01*
X12128320D01*
X12122920Y6409821D01*
X12115620Y6419497D01*
Y6576010D01*
X12175696D01*
Y6437048D01*
X12321095D01*
Y6463274D01*
X12377920D01*
Y6446920D01*
X12498320D01*
Y6557320D01*
X12377920D01*
Y6540967D01*
X12321095D01*
Y6576010D01*
X12850420D01*
Y6563080D01*
X13015820D01*
Y6576010D01*
X13039088D01*
X13062825Y6552273D01*
D02*
G37*
G36*
X13661763Y6503238D02*
X13670621Y6501476D01*
X13676083Y6502563D01*
X13679494Y6500455D01*
X13683954Y6495995D01*
X13686063Y6492584D01*
X13684975Y6487121D01*
X13686737Y6478264D01*
X13686781Y6477380D01*
X13683598Y6465318D01*
X13679733Y6457685D01*
X13679996Y6456615D01*
X13679573Y6455597D01*
X13679575Y6453388D01*
Y6438644D01*
X13680067Y6437451D01*
X13679794Y6436188D01*
X13682024Y6432728D01*
X13683600Y6428924D01*
X13687218Y6416696D01*
X13686737Y6415978D01*
X13684975Y6407121D01*
X13686737Y6398264D01*
X13691754Y6390755D01*
Y6383486D01*
X13686737Y6375978D01*
X13684975Y6367121D01*
X13686737Y6358264D01*
X13691754Y6350755D01*
Y6343486D01*
X13686737Y6335978D01*
X13684975Y6327121D01*
X13686737Y6318264D01*
X13688055Y6316290D01*
X13690704Y6307120D01*
X13688055Y6297952D01*
X13686737Y6295978D01*
X13684975Y6287121D01*
X13686737Y6278264D01*
X13691754Y6270755D01*
Y6263486D01*
X13686737Y6255978D01*
X13684975Y6247121D01*
X13686737Y6238264D01*
X13691754Y6230755D01*
Y6223486D01*
X13686737Y6215978D01*
X13684975Y6207121D01*
X13685770Y6203128D01*
X13683479Y6197771D01*
X13679494Y6193787D01*
X13676083Y6191678D01*
X13670621Y6192765D01*
X13661763Y6191004D01*
X13654256Y6185986D01*
X13646986D01*
X13639478Y6191004D01*
X13630620Y6192765D01*
X13621764Y6191004D01*
X13614255Y6185986D01*
X13606985D01*
X13599477Y6191004D01*
X13590620Y6192765D01*
X13581763Y6191004D01*
X13574255Y6185986D01*
X13566986D01*
X13559477Y6191004D01*
X13550620Y6192765D01*
X13541763Y6191004D01*
X13539789Y6189685D01*
X13530620Y6187036D01*
X13521451Y6189685D01*
X13519476Y6191004D01*
X13510620Y6192765D01*
X13501762Y6191004D01*
X13499789Y6189685D01*
X13490620Y6187036D01*
X13481451Y6189685D01*
X13479477Y6191004D01*
X13470621Y6192765D01*
X13461763Y6191004D01*
X13454256Y6185986D01*
X13446986D01*
X13439478Y6191004D01*
X13430620Y6192765D01*
X13421764Y6191004D01*
X13414255Y6185986D01*
X13406985D01*
X13399477Y6191004D01*
X13390620Y6192765D01*
X13385156Y6191678D01*
X13381746Y6193787D01*
X13377286Y6198247D01*
X13375179Y6201657D01*
X13376265Y6207121D01*
X13374503Y6215978D01*
X13369485Y6223486D01*
Y6230755D01*
X13374503Y6238264D01*
X13376265Y6247121D01*
X13374503Y6255978D01*
X13369485Y6263486D01*
Y6270755D01*
X13374503Y6278264D01*
X13376265Y6287121D01*
X13374503Y6295978D01*
X13373184Y6297952D01*
X13370535Y6307121D01*
X13373184Y6316290D01*
X13374503Y6318264D01*
X13376265Y6327121D01*
X13374503Y6335978D01*
X13369485Y6343486D01*
Y6350755D01*
X13374503Y6358264D01*
X13376265Y6367121D01*
X13374503Y6375978D01*
X13369485Y6383486D01*
Y6390755D01*
X13374503Y6398264D01*
X13376265Y6407121D01*
X13374503Y6415978D01*
X13373184Y6417952D01*
X13370535Y6427121D01*
X13373184Y6436290D01*
X13374503Y6438264D01*
X13376265Y6447121D01*
X13374503Y6455978D01*
X13369485Y6463486D01*
Y6470755D01*
X13374503Y6478264D01*
X13376265Y6487120D01*
X13387433Y6496074D01*
X13399097D01*
X13400114Y6496496D01*
X13401186Y6496233D01*
X13404854Y6498459D01*
X13408817Y6500100D01*
X13419576Y6503345D01*
X13421764Y6503238D01*
X13430620Y6501476D01*
X13439478Y6503238D01*
X13446986Y6508255D01*
X13454256D01*
X13461763Y6503238D01*
X13470621Y6501476D01*
X13479477Y6503238D01*
X13486986Y6508255D01*
X13494255D01*
X13501762Y6503238D01*
X13510620Y6501476D01*
X13519476Y6503238D01*
X13520360Y6503281D01*
X13532423Y6500100D01*
X13540054Y6496233D01*
X13541125Y6496496D01*
X13542143Y6496074D01*
X13544353Y6496074D01*
X13557132D01*
X13560983Y6483374D01*
X13560063Y6482758D01*
X13552203Y6470995D01*
X13551970Y6469821D01*
X13619431D01*
X13619197Y6470995D01*
X13611337Y6482758D01*
X13603864Y6487752D01*
X13602686Y6501794D01*
X13609206Y6508255D01*
X13614255D01*
X13621764Y6503238D01*
X13630620Y6501476D01*
X13639478Y6503238D01*
X13646986Y6508255D01*
X13654256D01*
X13661763Y6503238D01*
D02*
G37*
G36*
X14884448Y7153462D02*
X14885718Y7152763D01*
X14886324Y7152939D01*
X14888300Y7152120D01*
X16047873D01*
Y6728182D01*
X15914301D01*
X15904581Y6724156D01*
X15900552Y6714436D01*
Y6440375D01*
X14589940D01*
Y6525220D01*
X14326775D01*
X14316319Y6530641D01*
X14316319Y6530640D01*
X14308121Y6541533D01*
X14308121Y7152120D01*
X14370920D01*
X14374577Y7153635D01*
X14882527D01*
X14884448Y7153462D01*
D02*
G37*
G36*
X8689999Y6360120D02*
X8512740D01*
Y6801376D01*
X8689999D01*
Y6360120D01*
D02*
G37*
G36*
X16528979Y6430558D02*
X16330620D01*
Y6052120D01*
X16129366D01*
Y6426628D01*
X16125340Y6436349D01*
X16115620Y6440375D01*
X16114360D01*
Y6440976D01*
X16066701Y6441577D01*
Y7152120D01*
X16528979Y7152120D01*
Y6430558D01*
D02*
G37*
G36*
X9833099Y6733940D02*
X9842820Y6729914D01*
X9945620D01*
Y5938819D01*
X9864020D01*
X9863404Y5938697D01*
X9859167Y5940452D01*
X9852477Y5950381D01*
X9849463Y5973275D01*
X9840626Y5994609D01*
X9826568Y6012929D01*
X9808248Y6026986D01*
X9786914Y6035823D01*
X9764020Y6038837D01*
Y6038819D01*
X9645620D01*
Y6660336D01*
X9647821D01*
Y6736990D01*
X9831836D01*
X9833099Y6733940D01*
D02*
G37*
%LPC*%
G36*
X9533843Y7848000D02*
X9388443D01*
Y7702601D01*
X9533843D01*
Y7848000D01*
D02*
G37*
G36*
X9743843D02*
X9598443D01*
Y7702601D01*
X9631885D01*
Y7657300D01*
X9615120D01*
Y7536900D01*
X9725520D01*
Y7657300D01*
X9709578D01*
Y7702601D01*
X9743843D01*
Y7848000D01*
D02*
G37*
G36*
X11025726Y6889437D02*
X11011852Y6886677D01*
X11000089Y6878817D01*
X10992230Y6867055D01*
X10989470Y6853180D01*
X10992230Y6839305D01*
X11000089Y6827542D01*
X11011852Y6819683D01*
X11025726Y6816923D01*
X11039601Y6819683D01*
X11051364Y6827542D01*
X11059223Y6839305D01*
X11061983Y6853180D01*
X11059223Y6867055D01*
X11051364Y6878817D01*
X11039601Y6886677D01*
X11025726Y6889437D01*
D02*
G37*
G36*
X11217840Y6888377D02*
X11203965Y6885617D01*
X11192202Y6877758D01*
X11184343Y6865995D01*
X11181583Y6852120D01*
X11184343Y6838246D01*
X11192202Y6826483D01*
X11203965Y6818624D01*
X11217840Y6815864D01*
X11231715Y6818624D01*
X11243477Y6826483D01*
X11251337Y6838246D01*
X11254097Y6852120D01*
X11251337Y6865995D01*
X11243477Y6877758D01*
X11231715Y6885617D01*
X11217840Y6888377D01*
D02*
G37*
G36*
X5501819Y8011821D02*
Y8011821D01*
X5492088Y8011820D01*
X5416420D01*
Y7999742D01*
X5366985D01*
X5363683Y8004684D01*
X5357001Y8009148D01*
X5349120Y8010716D01*
X5167120D01*
X5159238Y8009148D01*
X5152557Y8004684D01*
X5148092Y7998002D01*
X5146524Y7990120D01*
Y7945121D01*
X5148092Y7937239D01*
X5152557Y7930557D01*
X5159238Y7926092D01*
X5167120Y7924525D01*
X5349120D01*
X5357001Y7926092D01*
X5363683Y7930557D01*
X5366651Y7934998D01*
X5416420D01*
Y7922421D01*
X5428693D01*
X5430299Y7914345D01*
X5437317Y7903843D01*
X5447106Y7894054D01*
X5442246Y7882320D01*
X5412920D01*
Y7866018D01*
X5369139D01*
X5368148Y7871002D01*
X5363683Y7877684D01*
X5357001Y7882148D01*
X5349120Y7883716D01*
X5167120D01*
X5159238Y7882148D01*
X5152557Y7877684D01*
X5148092Y7871002D01*
X5146524Y7863120D01*
Y7818121D01*
X5148092Y7810239D01*
X5152557Y7803557D01*
X5159238Y7799092D01*
X5167120Y7797525D01*
X5349120D01*
X5357001Y7799092D01*
X5363683Y7803557D01*
X5368148Y7810239D01*
X5368940Y7814223D01*
X5412920D01*
Y7796920D01*
X5513320D01*
Y7869528D01*
X5527920D01*
Y7796920D01*
X5628320D01*
X5635568Y7787222D01*
Y7766518D01*
X5628320Y7756820D01*
X5527920D01*
Y7671420D01*
X5628320D01*
X5635568Y7661722D01*
Y7534922D01*
X5419696Y7319051D01*
X5415305Y7318177D01*
X5403542Y7310318D01*
X5395683Y7298555D01*
X5394810Y7294164D01*
X5223233Y7122588D01*
X5216216Y7112086D01*
X5213752Y7099697D01*
Y6873506D01*
X5144669Y6804424D01*
X5137652Y6793922D01*
X5135188Y6781533D01*
Y6606818D01*
X5134063Y6605135D01*
X5131303Y6591260D01*
X5134063Y6577386D01*
X5141922Y6565623D01*
X5153685Y6557764D01*
X5167560Y6555004D01*
X5181435Y6557764D01*
X5193197Y6565623D01*
X5201057Y6577386D01*
X5203817Y6591260D01*
X5201057Y6605135D01*
X5199932Y6606818D01*
Y6700796D01*
X5203375Y6703308D01*
X5212632Y6706422D01*
X5221789Y6700303D01*
X5235664Y6697543D01*
X5240836Y6686373D01*
Y6107197D01*
X5242717Y6097742D01*
X5248073Y6089726D01*
X5276301Y6061497D01*
X5276083Y6060400D01*
X5278843Y6046526D01*
X5286702Y6034763D01*
X5298465Y6026904D01*
X5312340Y6024144D01*
X5326215Y6026904D01*
X5337977Y6034763D01*
X5345837Y6046526D01*
X5346868Y6051710D01*
X5360648Y6055890D01*
X5398221Y6018317D01*
X5398003Y6017220D01*
X5400763Y6003346D01*
X5408622Y5991583D01*
X5420385Y5983724D01*
X5434260Y5980964D01*
X5448135Y5983724D01*
X5459897Y5991583D01*
X5467757Y6003345D01*
X5481451Y6007093D01*
X5483461Y6006385D01*
X5484583Y6000746D01*
X5492442Y5988983D01*
X5504205Y5981124D01*
X5518080Y5978364D01*
X5531955Y5981124D01*
X5543717Y5988983D01*
X5551577Y6000746D01*
X5554337Y6014620D01*
X5551577Y6028495D01*
X5543717Y6040258D01*
X5531955Y6048117D01*
X5518080Y6050877D01*
X5516983Y6050659D01*
X5398007Y6169635D01*
Y6808842D01*
X5398937Y6809463D01*
X5406797Y6821226D01*
X5409557Y6835100D01*
X5406797Y6848975D01*
X5398937Y6860738D01*
X5387175Y6868597D01*
X5373300Y6871357D01*
X5359425Y6868597D01*
X5347662Y6860738D01*
X5344667Y6856256D01*
X5331967Y6860108D01*
Y6897742D01*
X5332897Y6898363D01*
X5340757Y6910126D01*
X5343517Y6924000D01*
X5340757Y6937875D01*
X5332897Y6949638D01*
X5321135Y6957497D01*
X5307260Y6960257D01*
X5293385Y6957497D01*
X5291196Y6956034D01*
X5278496Y6962823D01*
Y7086288D01*
X5444068Y7251861D01*
X5454817Y7259043D01*
X5461999Y7269792D01*
X5690830Y7498623D01*
X5697848Y7509125D01*
X5700312Y7521514D01*
Y7716480D01*
Y7869800D01*
X5697848Y7882188D01*
X5690830Y7892691D01*
X5658730Y7924791D01*
X5648228Y7931808D01*
X5635840Y7934272D01*
X5589820D01*
Y8011820D01*
X5514151D01*
X5504420Y8011821D01*
Y8011821D01*
X5501819D01*
D02*
G37*
G36*
X4854120Y8010716D02*
X4672120D01*
X4664239Y8009148D01*
X4657557Y8004684D01*
X4653092Y7998002D01*
X4652200Y7993518D01*
X4605820D01*
Y8010320D01*
X4505420D01*
Y7924920D01*
X4605820D01*
Y7941723D01*
X4652200D01*
X4653092Y7937239D01*
X4657557Y7930557D01*
X4664239Y7926092D01*
X4672120Y7924525D01*
X4854120D01*
X4862001Y7926092D01*
X4868683Y7930557D01*
X4873148Y7937239D01*
X4874716Y7945121D01*
Y7990120D01*
X4873148Y7998002D01*
X4868683Y8004684D01*
X4862001Y8009148D01*
X4854120Y8010716D01*
D02*
G37*
G36*
X4490820Y8010320D02*
X4390420D01*
Y7924920D01*
X4490820D01*
Y8010320D01*
D02*
G37*
G36*
X6933680Y8028557D02*
X6823280D01*
Y7908157D01*
X6933680D01*
Y8028557D01*
D02*
G37*
G36*
X6392299Y7972052D02*
X6302899D01*
Y7886652D01*
X6392299D01*
Y7972052D01*
D02*
G37*
G36*
X6277999D02*
X6188599D01*
Y7886652D01*
X6277999D01*
Y7972052D01*
D02*
G37*
G36*
X6163699D02*
X6074299D01*
Y7886652D01*
X6163699D01*
Y7972052D01*
D02*
G37*
G36*
X4854120Y7883716D02*
X4672120D01*
X4664239Y7882148D01*
X4657557Y7877684D01*
X4653092Y7871002D01*
X4652101Y7866018D01*
X4605820D01*
Y7882320D01*
X4505420D01*
Y7796920D01*
X4605820D01*
Y7814223D01*
X4652300D01*
X4653092Y7810239D01*
X4657557Y7803557D01*
X4664239Y7799092D01*
X4672120Y7797525D01*
X4854120D01*
X4862001Y7799092D01*
X4868683Y7803557D01*
X4873148Y7810239D01*
X4874716Y7818121D01*
Y7863120D01*
X4873148Y7871002D01*
X4868683Y7877684D01*
X4862001Y7882148D01*
X4854120Y7883716D01*
D02*
G37*
G36*
X6045820Y7879821D02*
X5960420D01*
Y7803856D01*
X5948687Y7798995D01*
X5933320Y7814362D01*
Y7879821D01*
X5847920D01*
Y7779421D01*
X5898378D01*
X5962392Y7715406D01*
Y7699082D01*
X5958869Y7697478D01*
X5948250D01*
X5947478Y7698634D01*
X5935834Y7706414D01*
X5922100Y7709146D01*
X5908366Y7706414D01*
X5896722Y7698634D01*
X5895950Y7697478D01*
X5883250D01*
X5882477Y7698634D01*
X5870834Y7706414D01*
X5857100Y7709146D01*
X5843366Y7706414D01*
X5831722Y7698634D01*
X5823942Y7686990D01*
X5821210Y7673256D01*
Y7625702D01*
X5820843Y7623856D01*
X5821210Y7622010D01*
Y7578256D01*
X5823942Y7564522D01*
X5831722Y7552878D01*
X5843366Y7545099D01*
X5857100Y7542367D01*
X5870834Y7545099D01*
X5882477Y7552878D01*
X5883250Y7554034D01*
X5895950D01*
X5896722Y7552878D01*
X5908366Y7545099D01*
X5922100Y7542367D01*
X5935834Y7545099D01*
X5947477Y7552878D01*
X5949499Y7552974D01*
X5957712Y7541834D01*
X5957554Y7541162D01*
X5935737Y7519344D01*
X5934640Y7519562D01*
X5920765Y7516802D01*
X5909002Y7508943D01*
X5901143Y7497180D01*
X5898383Y7483306D01*
X5901143Y7469431D01*
X5909002Y7457668D01*
X5920765Y7449809D01*
X5934640Y7447049D01*
X5946686Y7449445D01*
X5951319Y7445258D01*
X5955082Y7439152D01*
X5954483Y7438255D01*
X5951723Y7424380D01*
X5954483Y7410506D01*
X5962342Y7398743D01*
X5974105Y7390884D01*
X5987980Y7388124D01*
X6001855Y7390884D01*
X6013617Y7398743D01*
X6021477Y7410506D01*
X6024237Y7424380D01*
X6024018Y7425477D01*
X6069571Y7471030D01*
X6074927Y7479045D01*
X6076808Y7488500D01*
Y7552431D01*
X6077478Y7552878D01*
X6085257Y7564522D01*
X6087989Y7578256D01*
Y7673256D01*
X6085257Y7686990D01*
X6077478Y7698634D01*
X6076808Y7699082D01*
Y7773141D01*
X6074927Y7782596D01*
X6069571Y7790612D01*
X6045820Y7814362D01*
Y7879821D01*
D02*
G37*
G36*
X4490820Y7882320D02*
X4390420D01*
Y7796920D01*
X4490820D01*
Y7882320D01*
D02*
G37*
G36*
X6999280Y7832920D02*
X6903880D01*
Y7757520D01*
X6999280D01*
Y7769323D01*
X7049852D01*
X7061225Y7761724D01*
X7075100Y7758964D01*
X7088975Y7761724D01*
X7100737Y7769583D01*
X7108597Y7781346D01*
X7111357Y7795220D01*
X7108597Y7809095D01*
X7100737Y7820858D01*
X7088975Y7828717D01*
X7075100Y7831477D01*
X7061225Y7828717D01*
X7049852Y7821118D01*
X6999280D01*
Y7832920D01*
D02*
G37*
G36*
X3088620Y8048000D02*
X2593220D01*
Y7679600D01*
X3088620D01*
Y8048000D01*
D02*
G37*
G36*
X4605820Y7757320D02*
X4505420D01*
Y7671920D01*
X4605820D01*
Y7688223D01*
X4652101D01*
X4653092Y7683239D01*
X4657557Y7676557D01*
X4664239Y7672092D01*
X4672120Y7670525D01*
X4854120D01*
X4862001Y7672092D01*
X4868683Y7676557D01*
X4873148Y7683239D01*
X4874716Y7691121D01*
Y7736120D01*
X4873148Y7744002D01*
X4868683Y7750684D01*
X4862001Y7755148D01*
X4854120Y7756716D01*
X4672120D01*
X4664239Y7755148D01*
X4657557Y7750684D01*
X4653092Y7744002D01*
X4652300Y7740018D01*
X4605820D01*
Y7757320D01*
D02*
G37*
G36*
X3818981Y7752177D02*
X3628582D01*
Y7606777D01*
X3818981D01*
Y7752177D01*
D02*
G37*
G36*
X3314180Y7563649D02*
X3203780D01*
Y7443249D01*
X3314180D01*
Y7563649D01*
D02*
G37*
G36*
X7089820Y7480067D02*
Y7441560D01*
X7128326D01*
X7126762Y7449423D01*
X7115115Y7466855D01*
X7097683Y7478503D01*
X7089820Y7480067D01*
D02*
G37*
G36*
X7064420Y7480067D02*
X7056557Y7478503D01*
X7039125Y7466855D01*
X7027478Y7449423D01*
X7025914Y7441560D01*
X7064420D01*
Y7480067D01*
D02*
G37*
G36*
X3554660Y7780320D02*
X3402260D01*
Y7411920D01*
X3554660D01*
Y7780320D01*
D02*
G37*
G36*
X6886620Y7688445D02*
X6852305Y7683927D01*
X6820328Y7670682D01*
X6792869Y7649612D01*
X6771799Y7622153D01*
X6758553Y7590176D01*
X6754036Y7555860D01*
X6758553Y7521545D01*
X6771799Y7489568D01*
X6792869Y7462109D01*
X6820328Y7441039D01*
X6840948Y7432498D01*
X6838422Y7419798D01*
X6795640D01*
X6785730Y7417827D01*
X6777328Y7412213D01*
X6694539Y7329423D01*
X6643764D01*
Y7312618D01*
X6612340D01*
Y7341580D01*
X6526940D01*
Y7312618D01*
X6165280D01*
X6155369Y7310646D01*
X6146967Y7305032D01*
X6033788Y7191853D01*
X6028174Y7183451D01*
X6026202Y7173540D01*
Y7125000D01*
X6018361Y7120472D01*
X6012163Y7123886D01*
X6011026Y7129601D01*
X6005412Y7138003D01*
X5984282Y7159133D01*
X5975880Y7164747D01*
X5965970Y7166718D01*
X5771600D01*
Y7191020D01*
X5686200D01*
Y7090620D01*
X5771600D01*
Y7114923D01*
X5820650D01*
X5827438Y7102223D01*
X5823942Y7096990D01*
X5821210Y7083256D01*
Y6988256D01*
X5823942Y6974522D01*
X5831202Y6963657D01*
Y6951167D01*
X5797308Y6917273D01*
X5791694Y6908871D01*
X5789722Y6898961D01*
Y6784148D01*
X5782123Y6772775D01*
X5779363Y6758900D01*
X5782123Y6745026D01*
X5789983Y6733263D01*
X5801745Y6725404D01*
X5811311Y6723500D01*
Y6710552D01*
X5801385Y6708577D01*
X5789622Y6700718D01*
X5781763Y6688955D01*
X5779003Y6675080D01*
X5781763Y6661206D01*
X5783090Y6659220D01*
X5776301Y6646520D01*
X5765420D01*
Y6561120D01*
X5865820D01*
Y6646520D01*
X5854219D01*
X5847430Y6659220D01*
X5848757Y6661206D01*
X5851517Y6675080D01*
X5848757Y6688955D01*
X5840897Y6700718D01*
X5829135Y6708577D01*
X5819568Y6710481D01*
Y6723429D01*
X5829495Y6725404D01*
X5841258Y6733263D01*
X5849117Y6745026D01*
X5851877Y6758900D01*
X5849117Y6772775D01*
X5841518Y6784148D01*
Y6888233D01*
X5875412Y6922128D01*
X5881026Y6930530D01*
X5882997Y6940440D01*
Y6958475D01*
X5894352Y6963808D01*
X5897434Y6962403D01*
X5908366Y6955099D01*
X5922100Y6952367D01*
X5935834Y6955099D01*
X5947478Y6962878D01*
X5948250Y6964034D01*
X5960950D01*
X5961722Y6962878D01*
X5973365Y6955099D01*
X5987100Y6952367D01*
X6000834Y6955099D01*
X6011766Y6962403D01*
X6015344Y6964034D01*
X6023856D01*
X6027434Y6962403D01*
X6038366Y6955099D01*
X6052100Y6952367D01*
X6065834Y6955099D01*
X6077478Y6962878D01*
X6085257Y6974522D01*
X6087989Y6988256D01*
Y7083256D01*
X6085257Y7096990D01*
X6077997Y7107855D01*
Y7162813D01*
X6176007Y7260822D01*
X6526940D01*
Y7241180D01*
X6612340D01*
Y7260822D01*
X6634783D01*
X6643763Y7251842D01*
Y7244024D01*
X6643764Y7231323D01*
Y7168697D01*
X6643763Y7156842D01*
X6634204Y7148441D01*
X6612752Y7169893D01*
X6612340Y7170168D01*
Y7226580D01*
X6526940D01*
Y7126180D01*
X6583215D01*
X6610667Y7098728D01*
X6619069Y7093114D01*
X6628980Y7091143D01*
X6726667D01*
X6727044Y7090577D01*
X6720256Y7077877D01*
X6640440D01*
Y6992478D01*
X6740840D01*
Y7065200D01*
X6745070Y7068605D01*
X6753540Y7071409D01*
X6759642Y7066725D01*
Y6777248D01*
X6732533Y6750138D01*
X6676156D01*
X6666580Y6752043D01*
X6601580D01*
X6590772Y6749893D01*
X6586980Y6747359D01*
X6574280Y6753921D01*
Y6754000D01*
X6574201D01*
X6567639Y6766700D01*
X6570173Y6770492D01*
X6572323Y6781300D01*
Y6846300D01*
X6570173Y6857108D01*
X6564051Y6866271D01*
X6554888Y6872393D01*
X6544080Y6874543D01*
X6533272Y6872393D01*
X6531798Y6871408D01*
X6519098Y6878197D01*
Y6898992D01*
X6526697Y6910365D01*
X6529457Y6924240D01*
X6526697Y6938115D01*
X6518838Y6949877D01*
X6507075Y6957737D01*
X6493200Y6960497D01*
X6479326Y6957737D01*
X6479309Y6957725D01*
X6470152Y6966882D01*
X6475257Y6974522D01*
X6477989Y6988256D01*
Y7006690D01*
X6525440D01*
Y6992478D01*
X6625840D01*
Y7077877D01*
X6525440D01*
Y7063665D01*
X6477989D01*
Y7083256D01*
X6475257Y7096990D01*
X6467478Y7108634D01*
X6455834Y7116414D01*
X6442100Y7119146D01*
X6428366Y7116414D01*
X6416722Y7108634D01*
X6415950Y7107478D01*
X6403250D01*
X6402477Y7108634D01*
X6390834Y7116414D01*
X6377100Y7119146D01*
X6363365Y7116414D01*
X6351722Y7108634D01*
X6350950Y7107478D01*
X6338250D01*
X6337478Y7108634D01*
X6325834Y7116414D01*
X6312100Y7119146D01*
X6298366Y7116414D01*
X6286722Y7108634D01*
X6285950Y7107478D01*
X6273250D01*
X6272477Y7108634D01*
X6260834Y7116414D01*
X6247100Y7119146D01*
X6233365Y7116414D01*
X6221722Y7108634D01*
X6220950Y7107478D01*
X6208250D01*
X6207478Y7108634D01*
X6195834Y7116414D01*
X6182100Y7119146D01*
X6168366Y7116414D01*
X6156722Y7108634D01*
X6148942Y7096990D01*
X6146210Y7083256D01*
Y6988256D01*
X6148942Y6974522D01*
X6156722Y6962878D01*
X6168366Y6955099D01*
X6182100Y6952367D01*
X6195834Y6955099D01*
X6207478Y6962878D01*
X6208250Y6964034D01*
X6220950D01*
X6221722Y6962878D01*
X6233365Y6955099D01*
X6247100Y6952367D01*
X6260834Y6955099D01*
X6263134Y6956635D01*
X6278325Y6951511D01*
X6279664Y6947616D01*
X6276763Y6943275D01*
X6274003Y6929400D01*
X6276763Y6915525D01*
X6284623Y6903763D01*
X6296385Y6895903D01*
X6301532Y6894880D01*
X6310151Y6881767D01*
X6304888Y6872393D01*
X6294080Y6874543D01*
X6283272Y6872393D01*
X6274110Y6866271D01*
X6264051D01*
X6254888Y6872393D01*
X6244080Y6874543D01*
X6233272Y6872393D01*
X6224109Y6866271D01*
X6217987Y6857108D01*
X6215837Y6846300D01*
Y6781300D01*
X6217987Y6770492D01*
X6220521Y6766700D01*
X6213959Y6754000D01*
X6213880D01*
Y6749698D01*
X6197681D01*
X6197388Y6749893D01*
X6186580Y6752043D01*
X6121580D01*
X6110772Y6749893D01*
X6101609Y6743771D01*
X6095487Y6734608D01*
X6093337Y6723800D01*
X6095487Y6712992D01*
X6099200Y6707435D01*
X6100722Y6698800D01*
X6099200Y6690165D01*
X6095487Y6684608D01*
X6093337Y6673800D01*
X6095487Y6662992D01*
X6099200Y6657436D01*
X6100722Y6648800D01*
X6099200Y6640165D01*
X6095487Y6634608D01*
X6093337Y6623800D01*
X6093353Y6623722D01*
X6092120Y6617357D01*
X6078245Y6614597D01*
X6066482Y6606738D01*
X6058623Y6594975D01*
X6055863Y6581100D01*
X6058623Y6567226D01*
X6066482Y6555463D01*
Y6543238D01*
X6058623Y6531475D01*
X6055863Y6517600D01*
X6058623Y6503726D01*
X6066482Y6491963D01*
X6078245Y6484104D01*
X6092120Y6481344D01*
X6105995Y6484104D01*
X6117757Y6491963D01*
X6120326Y6495807D01*
X6121580Y6495557D01*
X6186580D01*
X6197388Y6497707D01*
X6201180Y6500241D01*
X6213880Y6493679D01*
Y6393600D01*
X6213959D01*
X6220521Y6380900D01*
X6217987Y6377108D01*
X6215837Y6366300D01*
Y6348680D01*
X6214172Y6346188D01*
X6211708Y6333800D01*
Y6287988D01*
X6203600Y6278647D01*
X6199008Y6278647D01*
X6118200D01*
Y6178246D01*
X6184627D01*
X6191415Y6165546D01*
X6190146Y6163647D01*
X6118200D01*
Y6145492D01*
X6093600D01*
Y6170820D01*
X5988200D01*
Y6055420D01*
X6093600D01*
Y6080748D01*
X6118200D01*
Y6063246D01*
X6203600D01*
Y6082168D01*
X6208848Y6083212D01*
X6219351Y6090230D01*
X6266971Y6137850D01*
X6273988Y6148352D01*
X6276452Y6160740D01*
Y6170420D01*
X6366460D01*
Y6255820D01*
X6319098D01*
Y6269404D01*
X6331798Y6276192D01*
X6333272Y6275207D01*
X6344080Y6273057D01*
X6354888Y6275207D01*
X6364051Y6281329D01*
X6374110D01*
X6383272Y6275207D01*
X6394080Y6273057D01*
X6404888Y6275207D01*
X6414051Y6281329D01*
X6424110D01*
X6433272Y6275207D01*
X6444080Y6273057D01*
X6454888Y6275207D01*
X6464051Y6281329D01*
X6474110D01*
X6483272Y6275207D01*
X6494080Y6273057D01*
X6504888Y6275207D01*
X6514051Y6281329D01*
X6524110D01*
X6533272Y6275207D01*
X6544080Y6273057D01*
X6554888Y6275207D01*
X6564051Y6281329D01*
X6570173Y6290492D01*
X6572323Y6301300D01*
Y6366300D01*
X6570173Y6377108D01*
X6569978Y6377401D01*
Y6393600D01*
X6574280D01*
Y6397903D01*
X6590480D01*
X6590772Y6397707D01*
X6601580Y6395557D01*
X6666580D01*
X6677388Y6397707D01*
X6677681Y6397903D01*
X6723000D01*
X6732911Y6399874D01*
X6741312Y6405488D01*
X6776925Y6441100D01*
X6825700D01*
Y6541500D01*
X6740300D01*
Y6477725D01*
X6712273Y6449698D01*
X6699065D01*
X6692276Y6462398D01*
X6692673Y6462992D01*
X6694823Y6473800D01*
X6692673Y6484608D01*
X6688960Y6490165D01*
X6687438Y6498800D01*
X6688960Y6507435D01*
X6692673Y6512992D01*
X6694823Y6523800D01*
X6692673Y6534608D01*
X6688960Y6540165D01*
X6687438Y6548800D01*
X6688960Y6557435D01*
X6692673Y6562992D01*
X6694823Y6573800D01*
X6692673Y6584608D01*
X6688960Y6590165D01*
X6687438Y6598800D01*
X6688960Y6607435D01*
X6692673Y6612992D01*
X6694823Y6623800D01*
X6692673Y6634608D01*
X6692276Y6635203D01*
X6699065Y6647903D01*
X6712273D01*
X6740300Y6619876D01*
Y6556100D01*
X6825700D01*
Y6656500D01*
X6776925D01*
X6747239Y6686186D01*
X6751420Y6699966D01*
X6753171Y6700314D01*
X6761572Y6705928D01*
X6803852Y6748208D01*
X6809466Y6756610D01*
X6811437Y6766520D01*
Y7081841D01*
X6809466Y7091752D01*
X6803852Y7100154D01*
X6768653Y7135353D01*
X6760251Y7140967D01*
X6750341Y7142938D01*
X6649989D01*
X6649815Y7143323D01*
X6654864Y7153007D01*
X6658009Y7156024D01*
X6733164D01*
Y7231323D01*
X6733164Y7241423D01*
X6733164Y7254124D01*
Y7294799D01*
X6806368Y7368003D01*
X6822922D01*
X6825448Y7355303D01*
X6820328Y7353182D01*
X6792869Y7332112D01*
X6771799Y7304653D01*
X6758553Y7272676D01*
X6754036Y7238360D01*
X6758553Y7204045D01*
X6771799Y7172068D01*
X6792869Y7144609D01*
X6820328Y7123539D01*
X6852305Y7110294D01*
X6886620Y7105776D01*
X6920935Y7110294D01*
X6952912Y7123539D01*
X6980371Y7144609D01*
X7001441Y7172068D01*
X7014687Y7204045D01*
X7019204Y7238360D01*
X7014687Y7272676D01*
X7001441Y7304653D01*
X6980371Y7332112D01*
X6952912Y7353182D01*
X6947792Y7355303D01*
X6950318Y7368003D01*
X6974353D01*
X7026226Y7316130D01*
X7023388Y7301860D01*
X7027478Y7281298D01*
X7039125Y7263866D01*
X7056557Y7252218D01*
X7077120Y7248128D01*
X7097683Y7252218D01*
X7115115Y7263866D01*
X7126762Y7281298D01*
X7130852Y7301860D01*
X7126762Y7322423D01*
X7115115Y7339855D01*
X7097683Y7351503D01*
X7077120Y7355593D01*
X7062851Y7352754D01*
X7041802Y7373803D01*
X7049898Y7383668D01*
X7056557Y7379218D01*
X7064420Y7377654D01*
Y7416160D01*
X7025914D01*
X7027478Y7408298D01*
X7031928Y7401638D01*
X7022063Y7393542D01*
X7003392Y7412213D01*
X6994991Y7417827D01*
X6985080Y7419798D01*
X6934818D01*
X6932292Y7432498D01*
X6952912Y7441039D01*
X6980371Y7462109D01*
X7001441Y7489568D01*
X7014687Y7521545D01*
X7019204Y7555860D01*
X7014687Y7590176D01*
X7001441Y7622153D01*
X6980371Y7649612D01*
X6952912Y7670682D01*
X6920935Y7683927D01*
X6886620Y7688445D01*
D02*
G37*
G36*
X7128326Y7416160D02*
X7089820D01*
Y7377654D01*
X7097683Y7379218D01*
X7115115Y7390866D01*
X7126762Y7408298D01*
X7128326Y7416160D01*
D02*
G37*
G36*
X5771600Y7306020D02*
X5686200D01*
Y7205620D01*
X5771600D01*
Y7306020D01*
D02*
G37*
G36*
X7204120Y7228593D02*
X7183557Y7224503D01*
X7166125Y7212855D01*
X7154478Y7195423D01*
X7150665Y7176257D01*
X7143283Y7172639D01*
X7138535Y7171155D01*
X7130512Y7176570D01*
X7126762Y7195423D01*
X7115115Y7212855D01*
X7097683Y7224503D01*
X7077120Y7228593D01*
X7056557Y7224503D01*
X7039125Y7212855D01*
X7027478Y7195423D01*
X7023388Y7174860D01*
X7027478Y7154298D01*
X7039125Y7136866D01*
X7056557Y7125218D01*
X7075616Y7121427D01*
X7115418Y7081626D01*
X7128020Y7073205D01*
X7142886Y7070248D01*
X7157752Y7073205D01*
X7170355Y7081626D01*
X7178776Y7094228D01*
X7181733Y7109094D01*
X7180991Y7112821D01*
X7191800Y7123579D01*
X7204120Y7121128D01*
X7224683Y7125218D01*
X7242115Y7136866D01*
X7253762Y7154298D01*
X7257852Y7174860D01*
X7253762Y7195423D01*
X7242115Y7212855D01*
X7224683Y7224503D01*
X7204120Y7228593D01*
D02*
G37*
G36*
X5637460Y7346337D02*
X5623585Y7343577D01*
X5611822Y7335718D01*
X5603963Y7323955D01*
X5601295Y7310540D01*
X5515008Y7224253D01*
X5509394Y7215851D01*
X5507422Y7205940D01*
Y6624128D01*
X5499823Y6612755D01*
X5497063Y6598880D01*
X5499823Y6585006D01*
X5507682Y6573243D01*
X5519445Y6565384D01*
X5533320Y6562624D01*
X5542982Y6564546D01*
X5555682Y6556943D01*
Y6391168D01*
X5530320Y6365806D01*
X5516905Y6363137D01*
X5505142Y6355278D01*
X5497283Y6343515D01*
X5494523Y6329640D01*
X5497283Y6315766D01*
X5505142Y6304003D01*
X5516905Y6296144D01*
X5530780Y6293384D01*
X5544655Y6296144D01*
X5556417Y6304003D01*
X5564277Y6315766D01*
X5566945Y6329181D01*
X5599892Y6362128D01*
X5605506Y6370530D01*
X5607477Y6380440D01*
Y6535574D01*
X5620177Y6540834D01*
X5650420Y6510592D01*
Y6451120D01*
X5750820D01*
Y6536520D01*
X5676349D01*
X5663482Y6549387D01*
X5668342Y6561120D01*
X5750820D01*
Y6646520D01*
X5665608D01*
Y6665044D01*
X5704774Y6704210D01*
X5708748Y6710158D01*
X5710144Y6717174D01*
Y6984060D01*
X5708748Y6991077D01*
X5704774Y6997025D01*
X5704197Y6997602D01*
X5707898Y7003142D01*
X5713214Y7008892D01*
X5724173Y7006379D01*
X5727725Y7004006D01*
X5741600Y7001246D01*
X5755475Y7004006D01*
X5767237Y7011865D01*
X5775097Y7023628D01*
X5777857Y7037503D01*
X5775097Y7051377D01*
X5767237Y7063140D01*
X5755475Y7070999D01*
X5741600Y7073759D01*
X5727725Y7070999D01*
X5715962Y7063140D01*
X5712141Y7057421D01*
X5706825Y7051671D01*
X5695867Y7054184D01*
X5692314Y7056557D01*
X5678440Y7059317D01*
X5664565Y7056557D01*
X5652802Y7048698D01*
X5644943Y7036935D01*
X5644231Y7033357D01*
X5630091Y7023707D01*
X5629840Y7023757D01*
X5615965Y7020997D01*
X5604202Y7013138D01*
X5596343Y7001375D01*
X5593583Y6987500D01*
X5596343Y6973626D01*
X5594624Y6969475D01*
X5585485Y6967657D01*
X5573722Y6959798D01*
X5571917Y6957097D01*
X5559217Y6960949D01*
Y7195213D01*
X5637919Y7273915D01*
X5651335Y7276584D01*
X5663097Y7284443D01*
X5670957Y7296206D01*
X5673717Y7310080D01*
X5670957Y7323955D01*
X5663097Y7335718D01*
X5651335Y7343577D01*
X5637460Y7346337D01*
D02*
G37*
G36*
X7242220Y7106691D02*
X7219707Y7102212D01*
X7200621Y7089460D01*
X7187868Y7070374D01*
X7183390Y7047860D01*
X7187868Y7025347D01*
X7200621Y7006261D01*
X7219707Y6993508D01*
X7242220Y6989030D01*
X7264733Y6993508D01*
X7283819Y7006261D01*
X7296572Y7025347D01*
X7301050Y7047860D01*
X7296572Y7070374D01*
X7283819Y7089460D01*
X7264733Y7102212D01*
X7242220Y7106691D01*
D02*
G37*
G36*
X7039020D02*
X7016507Y7102212D01*
X6997421Y7089460D01*
X6984668Y7070374D01*
X6980190Y7047860D01*
X6984668Y7025347D01*
X6997421Y7006261D01*
X7016507Y6993508D01*
X7039020Y6989030D01*
X7061533Y6993508D01*
X7080619Y7006261D01*
X7093372Y7025347D01*
X7097850Y7047860D01*
X7093372Y7070374D01*
X7080619Y7089460D01*
X7061533Y7102212D01*
X7039020Y7106691D01*
D02*
G37*
G36*
X5225980Y7407297D02*
X5212105Y7404537D01*
X5200342Y7396678D01*
X5192483Y7384915D01*
X5189815Y7371500D01*
X5154328Y7336013D01*
X5148714Y7327611D01*
X5146742Y7317700D01*
Y6929648D01*
X5123920Y6906826D01*
X5110505Y6904157D01*
X5098742Y6896298D01*
X5090883Y6884535D01*
X5088123Y6870660D01*
X5090883Y6856786D01*
X5098742Y6845023D01*
X5110505Y6837164D01*
X5124380Y6834404D01*
X5138255Y6837164D01*
X5150017Y6845023D01*
X5157877Y6856786D01*
X5160545Y6870201D01*
X5190952Y6900608D01*
X5196566Y6909010D01*
X5198537Y6918920D01*
Y7306973D01*
X5226439Y7334875D01*
X5239855Y7337544D01*
X5251617Y7345403D01*
X5259477Y7357166D01*
X5262237Y7371040D01*
X5259477Y7384915D01*
X5251617Y7396678D01*
X5239855Y7404537D01*
X5225980Y7407297D01*
D02*
G37*
G36*
X6070204Y6817360D02*
X5980804D01*
Y6813160D01*
X5963476D01*
Y6817360D01*
X5874076D01*
Y6731960D01*
X5963476D01*
Y6735467D01*
X5980804D01*
Y6731960D01*
X6070204D01*
Y6817360D01*
D02*
G37*
G36*
X6917620Y6983187D02*
X6894412Y6980132D01*
X6872786Y6971174D01*
X6854216Y6956925D01*
X6839966Y6938354D01*
X6831008Y6916728D01*
X6827953Y6893520D01*
X6831008Y6870313D01*
X6839966Y6848687D01*
X6854216Y6830116D01*
X6872786Y6815866D01*
X6894412Y6806909D01*
X6917620Y6803853D01*
X6940827Y6806909D01*
X6962453Y6815866D01*
X6981024Y6830116D01*
X6995274Y6848687D01*
X7004232Y6870313D01*
X7007287Y6893520D01*
X7004232Y6916728D01*
X6995274Y6938354D01*
X6981024Y6956925D01*
X6962453Y6971174D01*
X6940827Y6980132D01*
X6917620Y6983187D01*
D02*
G37*
G36*
Y6788221D02*
X6894412Y6785166D01*
X6872786Y6776208D01*
X6854216Y6761959D01*
X6839966Y6743388D01*
X6831008Y6721762D01*
X6827953Y6698554D01*
X6831008Y6675347D01*
X6839966Y6653721D01*
X6854216Y6635150D01*
X6872786Y6620900D01*
X6894412Y6611943D01*
X6917620Y6608887D01*
X6940827Y6611943D01*
X6962453Y6620900D01*
X6981024Y6635150D01*
X6995274Y6653721D01*
X7004232Y6675347D01*
X7007287Y6698554D01*
X7004232Y6721762D01*
X6995274Y6743388D01*
X6981024Y6761959D01*
X6962453Y6776208D01*
X6940827Y6785166D01*
X6917620Y6788221D01*
D02*
G37*
G36*
X3874700Y6491191D02*
Y6470160D01*
X3895730D01*
X3895497Y6471335D01*
X3887637Y6483098D01*
X3875875Y6490957D01*
X3874700Y6491191D01*
D02*
G37*
G36*
X5980204Y6609959D02*
X5894804D01*
Y6520559D01*
X5898658D01*
Y6495659D01*
X5894804D01*
Y6406259D01*
X5980204D01*
Y6495659D01*
X5976351D01*
Y6520559D01*
X5980204D01*
Y6609959D01*
D02*
G37*
G36*
X5865820Y6536520D02*
X5765420D01*
Y6451120D01*
X5774819D01*
X5781763Y6438653D01*
X5779003Y6424779D01*
X5781763Y6410904D01*
X5789622Y6399141D01*
X5801385Y6391282D01*
X5815260Y6388522D01*
X5829135Y6391282D01*
X5840897Y6399141D01*
X5848757Y6410904D01*
X5851517Y6424779D01*
X5848757Y6438653D01*
X5855701Y6451120D01*
X5865820D01*
Y6536520D01*
D02*
G37*
G36*
X3895730Y6444760D02*
X3828269D01*
X3828503Y6443586D01*
X3836362Y6431823D01*
X3836677Y6431612D01*
X3839494Y6414457D01*
X3837725Y6412160D01*
X3817300D01*
Y6326760D01*
X3906700D01*
Y6412160D01*
X3886275D01*
X3884506Y6414457D01*
X3887323Y6431612D01*
X3887637Y6431823D01*
X3895497Y6443586D01*
X3895730Y6444760D01*
D02*
G37*
G36*
X3787860Y6397881D02*
X3702460D01*
Y6297481D01*
X3787860D01*
Y6397881D01*
D02*
G37*
G36*
X8830560Y6365500D02*
X8730160D01*
Y6280100D01*
X8830560D01*
Y6365500D01*
D02*
G37*
G36*
X5751000Y6345701D02*
X5630600D01*
Y6235300D01*
X5751000D01*
Y6345701D01*
D02*
G37*
G36*
X8582340Y6311380D02*
X8481940D01*
Y6225980D01*
X8582340D01*
Y6311380D01*
D02*
G37*
G36*
X8467340D02*
X8366940D01*
Y6225980D01*
X8467340D01*
Y6311380D01*
D02*
G37*
G36*
X8718800Y6265660D02*
X8618400D01*
Y6180260D01*
X8718800D01*
Y6265660D01*
D02*
G37*
G36*
X8833800D02*
X8733400D01*
Y6181248D01*
X8733400Y6180260D01*
X8735775Y6167560D01*
X8732202Y6165174D01*
X8724343Y6153411D01*
X8721583Y6139536D01*
X8724343Y6125661D01*
X8732202Y6113899D01*
X8743965Y6106039D01*
X8757840Y6103279D01*
X8771714Y6106039D01*
X8783477Y6113899D01*
X8791336Y6125661D01*
X8794096Y6139536D01*
X8791336Y6153411D01*
X8783477Y6165174D01*
X8779905Y6167560D01*
X8783757Y6180260D01*
X8833800D01*
Y6265660D01*
D02*
G37*
G36*
X5751000Y6215701D02*
X5630600D01*
Y6105300D01*
X5705713D01*
X5718036Y6092977D01*
X5718037Y6092976D01*
X5727279Y6086801D01*
X5738180Y6084632D01*
X5738182Y6084633D01*
X5798200D01*
Y6055420D01*
X5903600D01*
Y6170820D01*
X5798200D01*
Y6141607D01*
X5751000D01*
Y6215701D01*
D02*
G37*
G36*
X7676640Y6138384D02*
X7566240D01*
Y6017984D01*
X7676640D01*
Y6138384D01*
D02*
G37*
G36*
X7077072Y6949298D02*
X7056508Y6945207D01*
X7039074Y6933558D01*
X7027425Y6916124D01*
X7023335Y6895560D01*
X7027425Y6874996D01*
X7039074Y6857562D01*
X7052365Y6848681D01*
Y6653016D01*
X7054245Y6643560D01*
X7059601Y6635545D01*
X7106117Y6589029D01*
X7114132Y6583674D01*
X7123587Y6581793D01*
X7219780D01*
Y6530300D01*
X7379272D01*
Y6489115D01*
X7324330Y6434172D01*
X7318974Y6426156D01*
X7317093Y6416701D01*
Y6294560D01*
X7316163Y6293938D01*
X7308880Y6283038D01*
X7307955Y6282917D01*
X7296180Y6290443D01*
Y6428700D01*
X6927780D01*
Y6376768D01*
X6898159D01*
X6897537Y6377698D01*
X6885775Y6385557D01*
X6871900Y6388317D01*
X6858025Y6385557D01*
X6846262Y6377698D01*
X6838403Y6365935D01*
X6835643Y6352060D01*
X6838403Y6338185D01*
X6846262Y6326423D01*
X6858025Y6318563D01*
X6871900Y6315803D01*
X6885775Y6318563D01*
X6897537Y6326423D01*
X6898159Y6327353D01*
X6927780D01*
Y6276300D01*
X7288409D01*
X7294186Y6276300D01*
X7302328Y6270565D01*
X7307353Y6259206D01*
X7308304Y6254426D01*
X7316163Y6242663D01*
X7327926Y6234804D01*
X7341800Y6232044D01*
X7355675Y6234804D01*
X7367438Y6242663D01*
X7375297Y6254426D01*
X7378057Y6268301D01*
X7375297Y6282176D01*
X7367438Y6293938D01*
X7366508Y6294560D01*
Y6406467D01*
X7421451Y6461409D01*
X7426807Y6469425D01*
X7428687Y6478880D01*
Y6530300D01*
X7588180D01*
X7594845Y6524875D01*
X7595561Y6523985D01*
X7595562Y6523983D01*
X7597892Y6522427D01*
Y6318552D01*
X7599666Y6309633D01*
X7604719Y6302071D01*
X7752306Y6154483D01*
X7757393Y6151084D01*
X7755259Y6138384D01*
X7696240D01*
Y6017984D01*
X7806640D01*
Y6039338D01*
X7851640D01*
Y6005480D01*
X7997040D01*
Y6150880D01*
X7865665D01*
X7864399Y6151613D01*
X7856228Y6163581D01*
X7857697Y6170964D01*
X7854937Y6184839D01*
X7847078Y6196602D01*
X7835315Y6204461D01*
X7821440Y6207221D01*
X7807565Y6204461D01*
X7795803Y6196602D01*
X7794246Y6194272D01*
X7778442D01*
X7710687Y6262027D01*
X7715547Y6273760D01*
X8041320D01*
X8051152Y6266836D01*
Y6239059D01*
X8050222Y6238438D01*
X8042363Y6226675D01*
X8039603Y6212800D01*
X8042363Y6198926D01*
X8050222Y6187163D01*
X8061985Y6179304D01*
X8075860Y6176544D01*
X8089268Y6179211D01*
X8089791Y6179271D01*
X8101968Y6172203D01*
Y6150880D01*
X8061640D01*
Y6005480D01*
X8207040D01*
Y6114072D01*
X8219740Y6115322D01*
X8220310Y6112455D01*
X8228731Y6099852D01*
X8314112Y6014471D01*
X8326714Y6006050D01*
X8341580Y6003093D01*
X8858880D01*
Y5991740D01*
X8944280D01*
Y6092140D01*
X8858880D01*
Y6080786D01*
X8357671D01*
X8295046Y6143411D01*
Y6451560D01*
X8292089Y6466426D01*
X8283668Y6479029D01*
X8271066Y6487450D01*
X8256200Y6490407D01*
X8241334Y6487450D01*
X8228731Y6479029D01*
X8220310Y6466426D01*
X8217353Y6451560D01*
Y6425806D01*
X8205352Y6418695D01*
X8204653Y6418743D01*
X8191363Y6421387D01*
X8182926Y6419709D01*
X8182500Y6419901D01*
X8172952Y6429707D01*
X8173828Y6434112D01*
Y6527760D01*
X8333320D01*
Y6680160D01*
X7964920D01*
Y6628668D01*
X7690773D01*
X7604030Y6715411D01*
X7596014Y6720767D01*
X7586559Y6722648D01*
X7252454D01*
X7228828Y6746275D01*
Y6847201D01*
X7242118Y6856082D01*
X7253767Y6873515D01*
X7257857Y6894080D01*
X7253767Y6914644D01*
X7242118Y6932078D01*
X7224684Y6943727D01*
X7204120Y6947817D01*
X7183556Y6943727D01*
X7166122Y6932078D01*
X7154473Y6914644D01*
X7150382Y6894080D01*
X7154473Y6873515D01*
X7166122Y6856082D01*
X7179412Y6847201D01*
Y6736040D01*
X7181293Y6726585D01*
X7186649Y6718569D01*
X7212964Y6692254D01*
X7219779Y6682700D01*
X7219780D01*
X7219780Y6682700D01*
Y6631208D01*
X7133822D01*
X7101780Y6663250D01*
Y6848681D01*
X7115070Y6857562D01*
X7126719Y6874996D01*
X7130810Y6895560D01*
X7126719Y6916124D01*
X7115070Y6933558D01*
X7097637Y6945207D01*
X7077072Y6949298D01*
D02*
G37*
G36*
X3084280Y6078688D02*
X2998880D01*
Y5978288D01*
X3084280D01*
Y6078688D01*
D02*
G37*
G36*
X9130820Y7484820D02*
X8985420D01*
Y7444492D01*
X8943320D01*
Y7467320D01*
X8822920D01*
Y7356920D01*
X8943320D01*
Y7379748D01*
X8985420D01*
Y7339420D01*
X9130820D01*
Y7484820D01*
D02*
G37*
G36*
X9278320Y7334820D02*
X9192920D01*
Y7234420D01*
X9278320D01*
Y7334820D01*
D02*
G37*
G36*
X12059240Y6936342D02*
X11973840D01*
Y6846942D01*
X12059240D01*
Y6936342D01*
D02*
G37*
G36*
X12059820Y6827442D02*
X11974420D01*
Y6738042D01*
X12059820D01*
Y6827442D01*
D02*
G37*
G36*
X7806120Y7933077D02*
X7792245Y7930317D01*
X7780483Y7922458D01*
X7772623Y7910695D01*
X7769863Y7896820D01*
X7772623Y7882946D01*
X7780483Y7871183D01*
X7792245Y7863324D01*
X7806120Y7860564D01*
X7819995Y7863324D01*
X7831758Y7871183D01*
X7839617Y7882946D01*
X7842377Y7896820D01*
X7839617Y7910695D01*
X7831758Y7922458D01*
X7819995Y7930317D01*
X7806120Y7933077D01*
D02*
G37*
G36*
X11025726Y7049436D02*
X11011852Y7046677D01*
X11000089Y7038817D01*
X10992230Y7027055D01*
X10989470Y7013180D01*
X10992230Y6999305D01*
X11000089Y6987542D01*
X11011852Y6979683D01*
X11025726Y6976923D01*
X11039601Y6979683D01*
X11051364Y6987542D01*
X11059223Y6999305D01*
X11061983Y7013180D01*
X11059223Y7027055D01*
X11051364Y7038817D01*
X11039601Y7046677D01*
X11025726Y7049436D01*
D02*
G37*
G36*
X11217840Y7048377D02*
X11203965Y7045617D01*
X11192202Y7037758D01*
X11184343Y7025995D01*
X11181583Y7012120D01*
X11184343Y6998246D01*
X11192202Y6986483D01*
X11203965Y6978624D01*
X11217840Y6975864D01*
X11231715Y6978624D01*
X11243477Y6986483D01*
X11251337Y6998246D01*
X11254097Y7012120D01*
X11251337Y7025995D01*
X11243477Y7037758D01*
X11231715Y7045617D01*
X11217840Y7048377D01*
D02*
G37*
G36*
X14460820Y7315684D02*
X14385420D01*
Y7225284D01*
X14460820D01*
Y7315684D01*
D02*
G37*
G36*
X11900300Y6478654D02*
X11774900D01*
Y6363254D01*
X11900300D01*
Y6395057D01*
X11928262D01*
X11938295Y6385024D01*
X11932623Y6376535D01*
X11929863Y6362660D01*
X11932623Y6348786D01*
X11940483Y6337023D01*
X11952245Y6329164D01*
X11966120Y6326404D01*
X11979995Y6329164D01*
X11991758Y6337023D01*
X11999617Y6348786D01*
X12002377Y6362660D01*
X11999617Y6376535D01*
X11992018Y6387908D01*
Y6393824D01*
X11990046Y6403734D01*
X11984432Y6412136D01*
X11957302Y6439267D01*
X11948900Y6444880D01*
X11938990Y6446852D01*
X11900300D01*
Y6478654D01*
D02*
G37*
G36*
X11449980Y6480921D02*
X11324580D01*
Y6365521D01*
X11341938D01*
X11350667Y6352821D01*
X11349223Y6345561D01*
X11351983Y6331687D01*
X11359842Y6319924D01*
X11371605Y6312065D01*
X11385480Y6309305D01*
X11399355Y6312065D01*
X11411117Y6319924D01*
X11418977Y6331687D01*
X11421737Y6345561D01*
X11420292Y6352821D01*
X11429022Y6365521D01*
X11449980D01*
Y6480921D01*
D02*
G37*
G36*
X12945821Y6327811D02*
Y6306780D01*
X12966850D01*
X12966617Y6307955D01*
X12958757Y6319718D01*
X12946996Y6327577D01*
X12945821Y6327811D01*
D02*
G37*
G36*
X12920419D02*
X12919244Y6327577D01*
X12907481Y6319718D01*
X12899623Y6307955D01*
X12899390Y6306780D01*
X12920419D01*
Y6327811D01*
D02*
G37*
G36*
X12966850Y6281380D02*
X12945821D01*
Y6260350D01*
X12946996Y6260584D01*
X12958757Y6268443D01*
X12966617Y6280206D01*
X12966850Y6281380D01*
D02*
G37*
G36*
X12920419D02*
X12899390D01*
X12899623Y6280206D01*
X12907481Y6268443D01*
X12919244Y6260584D01*
X12920419Y6260350D01*
Y6281380D01*
D02*
G37*
G36*
X14286320Y6173280D02*
Y6141281D01*
X14316319D01*
Y6173280D01*
X14286320D01*
D02*
G37*
G36*
X12502772Y6160851D02*
Y6139820D01*
X12523802D01*
X12523569Y6140995D01*
X12515709Y6152758D01*
X12503947Y6160617D01*
X12502772Y6160851D01*
D02*
G37*
G36*
X12477372D02*
X12476197Y6160617D01*
X12464434Y6152758D01*
X12456575Y6140995D01*
X12456341Y6139820D01*
X12477372D01*
Y6160851D01*
D02*
G37*
G36*
X12523802Y6114420D02*
X12502772D01*
Y6093390D01*
X12503947Y6093624D01*
X12515709Y6101483D01*
X12523569Y6113246D01*
X12523802Y6114420D01*
D02*
G37*
G36*
X12477372D02*
X12456341D01*
X12456575Y6113246D01*
X12464434Y6101483D01*
X12476197Y6093624D01*
X12477372Y6093390D01*
Y6114420D01*
D02*
G37*
G36*
X14316319Y6115881D02*
X14286320D01*
Y6083880D01*
X14316319D01*
Y6115881D01*
D02*
G37*
G36*
X12990820Y6124725D02*
X12945821D01*
Y6074725D01*
X12990820D01*
Y6124725D01*
D02*
G37*
G36*
X12920419D02*
X12875420D01*
Y6074725D01*
X12920419D01*
Y6124725D01*
D02*
G37*
G36*
X13619431Y6444421D02*
X13551970D01*
X13552203Y6443246D01*
X13554691Y6439523D01*
X13559225Y6429660D01*
X13554691Y6419798D01*
X13552203Y6416075D01*
X13551970Y6414901D01*
X13619431D01*
X13619197Y6416075D01*
X13616708Y6419798D01*
X13612175Y6429661D01*
X13616708Y6439523D01*
X13619197Y6443246D01*
X13619431Y6444421D01*
D02*
G37*
G36*
Y6389501D02*
X13598399D01*
Y6368470D01*
X13599574Y6368704D01*
X13611337Y6376563D01*
X13619197Y6388326D01*
X13619431Y6389501D01*
D02*
G37*
G36*
X13573000D02*
X13551970D01*
X13552203Y6388326D01*
X13560063Y6376563D01*
X13571825Y6368704D01*
X13573000Y6368470D01*
Y6389501D01*
D02*
G37*
%LPD*%
D10*
X6569640Y7176380D02*
D03*
Y7291380D02*
D03*
X6783000Y6491300D02*
D03*
Y6606300D02*
D03*
X4900860Y7413300D02*
D03*
Y7298300D02*
D03*
X9235620Y7284620D02*
D03*
Y7399620D02*
D03*
X4720520Y7029620D02*
D03*
Y6914620D02*
D03*
X3745160Y6347681D02*
D03*
Y6462681D02*
D03*
X3041580Y6028488D02*
D03*
Y6143488D02*
D03*
X4200620Y6366820D02*
D03*
Y6251820D02*
D03*
X4080440Y6366820D02*
D03*
Y6251820D02*
D03*
X4789100Y7413300D02*
D03*
Y7298300D02*
D03*
X4558660Y7256740D02*
D03*
Y7141740D02*
D03*
X6003120Y7944621D02*
D03*
Y7829621D02*
D03*
X5890620Y7944621D02*
D03*
Y7829621D02*
D03*
X5728900Y7255820D02*
D03*
Y7140820D02*
D03*
X8901580Y6156940D02*
D03*
Y6041940D02*
D03*
X9015880Y6156908D02*
D03*
Y6041908D02*
D03*
X6160900Y6228447D02*
D03*
Y6113446D02*
D03*
X12763120Y5992120D02*
D03*
Y6107120D02*
D03*
D11*
X6878480Y7968357D02*
D03*
X6748480D02*
D03*
X7621440Y6078184D02*
D03*
X7751440D02*
D03*
X9540320Y7597100D02*
D03*
X9670320D02*
D03*
X3258980Y7503449D02*
D03*
X3128980D02*
D03*
X4752500Y6784621D02*
D03*
X4622500D02*
D03*
D12*
X3113200Y6784098D02*
D03*
Y6834098D02*
D03*
Y6884098D02*
D03*
Y6934098D02*
D03*
Y7034098D02*
D03*
Y6984098D02*
D03*
Y6734098D02*
D03*
Y6684098D02*
D03*
D13*
Y7175098D02*
D03*
Y7095098D02*
D03*
Y6623098D02*
D03*
Y6543098D02*
D03*
D14*
X3450760Y7026080D02*
D03*
X3480760Y6992081D02*
D03*
Y7060080D02*
D03*
D15*
X6751580Y7795220D02*
D03*
X6951580D02*
D03*
D16*
X6688480Y7626120D02*
D03*
Y7538120D02*
D03*
X6569640Y7625861D02*
D03*
Y7537860D02*
D03*
X3754968Y6615293D02*
D03*
Y6703293D02*
D03*
X3968680Y6256881D02*
D03*
Y6344881D02*
D03*
X3862000Y6457460D02*
D03*
Y6369460D02*
D03*
X3643120Y6825621D02*
D03*
Y6913621D02*
D03*
X3643120Y6731445D02*
D03*
Y6643445D02*
D03*
X3282880Y7080660D02*
D03*
Y7168661D02*
D03*
Y7361700D02*
D03*
Y7273700D02*
D03*
X3270180Y6649060D02*
D03*
Y6561060D02*
D03*
X3270588Y6372000D02*
D03*
Y6460001D02*
D03*
X9175621Y6716777D02*
D03*
Y6804777D02*
D03*
X6688464Y7198723D02*
D03*
Y7286724D02*
D03*
X6025504Y6774660D02*
D03*
Y6862660D02*
D03*
X5918776Y6774660D02*
D03*
Y6862660D02*
D03*
X6347599Y7929352D02*
D03*
Y7841352D02*
D03*
X6233299Y7929352D02*
D03*
Y7841352D02*
D03*
X6118999Y7929352D02*
D03*
Y7841352D02*
D03*
D17*
X8134340Y6078180D02*
D03*
X7924340D02*
D03*
X9461143Y7775300D02*
D03*
X9671143D02*
D03*
X2728020Y7483425D02*
D03*
X2938020D02*
D03*
X12248396Y6509748D02*
D03*
X12038396D02*
D03*
D18*
X3972300Y7477921D02*
D03*
X4107300D02*
D03*
X12933121Y6137425D02*
D03*
X13068120D02*
D03*
X12933121Y6294080D02*
D03*
X13068120D02*
D03*
X13233121Y6026117D02*
D03*
X13368120D02*
D03*
X11680620Y6556479D02*
D03*
X11545620D02*
D03*
X14823120Y7994620D02*
D03*
X14958121D02*
D03*
X12490072Y6127120D02*
D03*
X12625072D02*
D03*
X15919360Y6372121D02*
D03*
X16054359D02*
D03*
D19*
X12308420Y6245069D02*
D03*
X12423420D02*
D03*
X3840340Y6967081D02*
D03*
Y7082120D02*
D03*
X8532140Y6268680D02*
D03*
X8417140D02*
D03*
X8783600Y6222960D02*
D03*
X8668600D02*
D03*
X4487768Y6916380D02*
D03*
X4602768D02*
D03*
X4487760Y7020520D02*
D03*
X4602760D02*
D03*
X3725340Y7082120D02*
D03*
Y6967081D02*
D03*
X4440620Y7839620D02*
D03*
X4555620D02*
D03*
X4440620Y7967620D02*
D03*
X4555620D02*
D03*
X4440620Y7714620D02*
D03*
X4555620D02*
D03*
X5578120Y7714120D02*
D03*
X5463120D02*
D03*
X5578120Y7839620D02*
D03*
X5463120D02*
D03*
X4668840Y6548520D02*
D03*
X4553840D02*
D03*
X4553800Y6324560D02*
D03*
X4668800D02*
D03*
X6690640Y7035177D02*
D03*
X6575640D02*
D03*
X9466160Y6468900D02*
D03*
X9581160D02*
D03*
X9457240Y6114287D02*
D03*
X9572240D02*
D03*
X9273120D02*
D03*
X9158120D02*
D03*
X8780360Y6322800D02*
D03*
X8895360D02*
D03*
X9571670Y6233813D02*
D03*
X9456670D02*
D03*
X8896120Y6436020D02*
D03*
X8781120D02*
D03*
X12286729Y6127120D02*
D03*
X12171729D02*
D03*
X12173120Y6007120D02*
D03*
X12058120D02*
D03*
X12173120Y6247120D02*
D03*
X12058120D02*
D03*
X12173120Y6367120D02*
D03*
X12058120D02*
D03*
X12944600Y6002320D02*
D03*
X13059599D02*
D03*
X13765620Y6004620D02*
D03*
X13880620D02*
D03*
X13995621Y6112080D02*
D03*
X13880620D02*
D03*
X12500840Y5992959D02*
D03*
X12615840D02*
D03*
X13515620Y6004620D02*
D03*
X13630620D02*
D03*
X5815620Y6493820D02*
D03*
X5700620D02*
D03*
X14162120Y6246080D02*
D03*
X14047121D02*
D03*
X14161620Y6368441D02*
D03*
X14046619D02*
D03*
X6316260Y6213120D02*
D03*
X6431260D02*
D03*
X5700620Y6603820D02*
D03*
X5815620D02*
D03*
D20*
X13091776Y7531060D02*
D03*
X13971779D02*
D03*
D21*
X14804120Y7270484D02*
D03*
X14677119D02*
D03*
X14550121D02*
D03*
X14423120D02*
D03*
X12635620Y7269620D02*
D03*
X12508620D02*
D03*
X12381620D02*
D03*
X12254620D02*
D03*
D22*
X14423120Y6715484D02*
D03*
X14550121D02*
D03*
X14677119D02*
D03*
X14804120D02*
D03*
X12254620Y6714620D02*
D03*
X12381620D02*
D03*
X12508620D02*
D03*
X12635620D02*
D03*
D23*
X14613620Y6948984D02*
D03*
X12445120Y6948120D02*
D03*
D24*
X14959120Y7431484D02*
D03*
Y7558484D02*
D03*
Y7685484D02*
D03*
Y7812484D02*
D03*
X12098120Y7812620D02*
D03*
Y7685620D02*
D03*
Y7558620D02*
D03*
Y7431620D02*
D03*
D25*
X14404120Y7812484D02*
D03*
Y7685484D02*
D03*
Y7558484D02*
D03*
Y7431484D02*
D03*
X12653120Y7431620D02*
D03*
Y7558620D02*
D03*
Y7685620D02*
D03*
Y7812620D02*
D03*
D26*
X14637621Y7621984D02*
D03*
X12419620Y7622120D02*
D03*
D27*
X12105120Y6782742D02*
D03*
X12017120D02*
D03*
X5547120Y7967120D02*
D03*
X5459120D02*
D03*
X4286620Y7220120D02*
D03*
X4374620D02*
D03*
X4553700Y6212120D02*
D03*
X4465700D02*
D03*
X9584170Y6586630D02*
D03*
X9496170D02*
D03*
X9482869Y6352060D02*
D03*
X9570869D02*
D03*
X8808900Y6555536D02*
D03*
X8896900D02*
D03*
X13919620Y6377280D02*
D03*
X13831619D02*
D03*
X14290100Y6246080D02*
D03*
X14378101D02*
D03*
X14185620Y6485941D02*
D03*
X14273621D02*
D03*
X12104540Y6891642D02*
D03*
X12016540D02*
D03*
X14290118Y6368441D02*
D03*
X14378119D02*
D03*
X14185620Y6128580D02*
D03*
X14273621D02*
D03*
X5937504Y6565259D02*
D03*
X6025504D02*
D03*
X5937504Y6450959D02*
D03*
X6025504D02*
D03*
D28*
X13733121Y6287121D02*
D03*
Y6327121D02*
D03*
X13328120Y6487121D02*
D03*
Y6447121D02*
D03*
Y6407121D02*
D03*
Y6367121D02*
D03*
Y6327121D02*
D03*
Y6287121D02*
D03*
Y6247121D02*
D03*
Y6207121D02*
D03*
X13733121D02*
D03*
Y6247121D02*
D03*
Y6367121D02*
D03*
Y6407121D02*
D03*
Y6447121D02*
D03*
Y6487121D02*
D03*
D29*
X7204120Y6894080D02*
D03*
X7077072Y6895560D02*
D03*
D30*
X3991100Y6705060D02*
D03*
Y6785060D02*
D03*
D31*
X4248750Y7095060D02*
D03*
X4113450D02*
D03*
D32*
X4181100Y6961060D02*
D03*
D33*
Y6708560D02*
D03*
D34*
X3991100Y6565060D02*
D03*
Y6605060D02*
D03*
Y6645060D02*
D03*
Y6845060D02*
D03*
Y6885060D02*
D03*
Y6925060D02*
D03*
Y6965060D02*
D03*
Y7005060D02*
D03*
Y7045060D02*
D03*
X4371100D02*
D03*
Y7005060D02*
D03*
Y6965060D02*
D03*
Y6925060D02*
D03*
Y6885060D02*
D03*
Y6845060D02*
D03*
Y6805060D02*
D03*
Y6765060D02*
D03*
Y6725060D02*
D03*
Y6685060D02*
D03*
Y6645060D02*
D03*
Y6605060D02*
D03*
Y6565060D02*
D03*
D35*
X4281100Y6515060D02*
D03*
X4241100D02*
D03*
X4201100D02*
D03*
X4161100D02*
D03*
X4121100D02*
D03*
X4081100D02*
D03*
D36*
X3478460Y7596120D02*
D03*
X3224460Y7888120D02*
D03*
D37*
X3537120Y6012120D02*
D03*
Y6142120D02*
D03*
X12438120Y6502120D02*
D03*
Y6372120D02*
D03*
X8883120Y7412120D02*
D03*
Y7282120D02*
D03*
X2903020Y6150981D02*
D03*
Y6020981D02*
D03*
X5690800Y6290500D02*
D03*
Y6160501D02*
D03*
X13488260Y6698554D02*
D03*
Y6828554D02*
D03*
X15906860Y6092121D02*
D03*
Y6222121D02*
D03*
X16066859Y6092120D02*
D03*
Y6222120D02*
D03*
X11535620Y6706403D02*
D03*
Y6836403D02*
D03*
X11690620Y6706403D02*
D03*
Y6836403D02*
D03*
D38*
X4250964Y7570120D02*
D03*
X4410964D02*
D03*
X4250964Y7375120D02*
D03*
X4410963D02*
D03*
X9615620Y7202120D02*
D03*
X9775620D02*
D03*
X9616870Y7399620D02*
D03*
X9776869D02*
D03*
X8430822Y6432120D02*
D03*
X8590822D02*
D03*
X8430822Y6619620D02*
D03*
X8590822D02*
D03*
X16419272Y6138256D02*
D03*
X16259271D02*
D03*
X16419272Y6340756D02*
D03*
X16259271D02*
D03*
D39*
X4511880Y6784300D02*
D03*
D40*
X4471880Y6766800D02*
D03*
Y6801800D02*
D03*
D41*
X4870380Y6935840D02*
D03*
Y7145840D02*
D03*
X9411787Y7406983D02*
D03*
Y7196983D02*
D03*
X3362120Y6224621D02*
D03*
Y6014620D02*
D03*
X2728020Y6230980D02*
D03*
Y6020980D02*
D03*
X9058120Y7202120D02*
D03*
Y7412120D02*
D03*
D42*
X12300620Y6372121D02*
D03*
X3538120Y6252120D02*
D03*
X2903020Y6249660D02*
D03*
D43*
X12318120Y6332120D02*
D03*
X12283120D02*
D03*
X3520620Y6292121D02*
D03*
X3555620D02*
D03*
X2885520Y6289661D02*
D03*
X2920520D02*
D03*
D44*
X15731419Y7853640D02*
D03*
X2840920Y7863800D02*
D03*
X9048680Y7754580D02*
D03*
X11132621Y7276618D02*
D03*
X15200620Y6807120D02*
D03*
D45*
X3988120Y7289621D02*
D03*
D46*
X4090620Y7354621D02*
D03*
Y7289621D02*
D03*
Y7224621D02*
D03*
X3885620D02*
D03*
Y7289621D02*
D03*
Y7354621D02*
D03*
D47*
X5258120Y7967620D02*
D03*
Y7840620D02*
D03*
Y7713620D02*
D03*
Y7586620D02*
D03*
X4763120D02*
D03*
Y7713620D02*
D03*
Y7840620D02*
D03*
Y7967620D02*
D03*
D48*
X5031620Y6347420D02*
D03*
X4739620Y6093420D02*
D03*
X8149120Y6603960D02*
D03*
X7857120Y6349960D02*
D03*
X7403980Y6606500D02*
D03*
X7111980Y6352500D02*
D03*
D49*
X6442100Y7625756D02*
D03*
X6377100D02*
D03*
X6312100D02*
D03*
X6247100D02*
D03*
X6182100D02*
D03*
X6117100D02*
D03*
X6052100D02*
D03*
X5987100D02*
D03*
X5922100D02*
D03*
X5857100D02*
D03*
X6442100Y7035756D02*
D03*
X6377100D02*
D03*
X6312100D02*
D03*
X6247100D02*
D03*
X6182100D02*
D03*
X6117100D02*
D03*
X6052100D02*
D03*
X5987100D02*
D03*
X5922100D02*
D03*
X5857100D02*
D03*
D50*
X10765420Y6549400D02*
D03*
Y6841400D02*
D03*
X10433509Y6551718D02*
D03*
Y6843718D02*
D03*
X10105320Y6551722D02*
D03*
Y6843722D02*
D03*
X8325620Y7150038D02*
D03*
Y6858038D02*
D03*
X8003120Y7150038D02*
D03*
Y6858038D02*
D03*
X7680620Y7150038D02*
D03*
Y6858038D02*
D03*
D51*
X9868121Y6913036D02*
D03*
Y6793036D02*
D03*
X9553121D02*
D03*
X9553121Y6913036D02*
D03*
X8537901Y6852120D02*
D03*
Y6972120D02*
D03*
X8852901D02*
D03*
X8852900Y6852120D02*
D03*
D52*
X9678120Y7000536D02*
D03*
X9613121Y7000536D02*
D03*
X9808120Y6705536D02*
D03*
X9743120D02*
D03*
X9678120D02*
D03*
X9613121D02*
D03*
X8727902Y6764620D02*
D03*
X8792900Y6764620D02*
D03*
X8597902Y7059620D02*
D03*
X8662902D02*
D03*
X8727902D02*
D03*
X8792900D02*
D03*
D53*
X9775620Y7000536D02*
D03*
X8630402Y6764620D02*
D03*
D54*
X9710621Y6853036D02*
D03*
X8695401Y6912120D02*
D03*
D55*
X7735620Y7613860D02*
D03*
D56*
X8625621Y7660537D02*
D03*
X8115621D02*
D03*
D57*
X9319620Y6354621D02*
D03*
Y6394621D02*
D03*
Y6434621D02*
D03*
Y6474621D02*
D03*
Y6514621D02*
D03*
X9031620D02*
D03*
Y6474621D02*
D03*
Y6434621D02*
D03*
Y6394621D02*
D03*
Y6354621D02*
D03*
D58*
X9095620Y6290621D02*
D03*
X9135620D02*
D03*
X9175620D02*
D03*
X9215620D02*
D03*
X9255620D02*
D03*
Y6578621D02*
D03*
X9215620D02*
D03*
X9175620D02*
D03*
X9135620D02*
D03*
X9095620D02*
D03*
D59*
X9175620Y6434621D02*
D03*
D60*
X10297940Y6169620D02*
D03*
X9927940D02*
D03*
D61*
X11958120Y7577120D02*
D03*
Y7442120D02*
D03*
X14516801Y6457720D02*
D03*
Y6592720D02*
D03*
X13644666Y6835797D02*
D03*
Y6700797D02*
D03*
X11837600Y6420954D02*
D03*
Y6555954D02*
D03*
X11387280Y6423221D02*
D03*
Y6558221D02*
D03*
X13323500Y6795920D02*
D03*
Y6660920D02*
D03*
X13861980Y6671460D02*
D03*
Y6536460D02*
D03*
D62*
X12933121Y6480780D02*
D03*
Y6640780D02*
D03*
X15283272Y6504416D02*
D03*
Y6344416D02*
D03*
X14693272Y6343200D02*
D03*
Y6503200D02*
D03*
X15088272Y6344416D02*
D03*
Y6504416D02*
D03*
X15390620Y7237120D02*
D03*
Y7077120D02*
D03*
X15005620Y7237120D02*
D03*
Y7077120D02*
D03*
X14890771Y6343200D02*
D03*
Y6503200D02*
D03*
X15198120Y7237984D02*
D03*
Y7077984D02*
D03*
X10876692Y7697984D02*
D03*
Y7537984D02*
D03*
X11077763Y7697984D02*
D03*
Y7537984D02*
D03*
X11278834Y7697984D02*
D03*
Y7537984D02*
D03*
X11479905Y7697984D02*
D03*
Y7537984D02*
D03*
X10678650Y7700867D02*
D03*
Y7540867D02*
D03*
X11678134Y7696841D02*
D03*
Y7536841D02*
D03*
D63*
X3955831Y7958080D02*
D03*
Y7678080D02*
D03*
X3723781Y7959477D02*
D03*
Y7679477D02*
D03*
D64*
X3997120Y6047120D02*
D03*
X3717120D02*
D03*
X15846860Y6572121D02*
D03*
X16126860D02*
D03*
X11473120Y7028903D02*
D03*
X11753120D02*
D03*
D65*
X7204120Y7301860D02*
D03*
X7077120Y7174860D02*
D03*
Y7301860D02*
D03*
X7204120Y7428860D02*
D03*
X7077120D02*
D03*
X7204120Y7174860D02*
D03*
D66*
X13390620Y6144621D02*
D03*
X13430620D02*
D03*
X13470621D02*
D03*
X13510620D02*
D03*
X13550620D02*
D03*
X13590620D02*
D03*
X13630620D02*
D03*
X13670621D02*
D03*
Y6549621D02*
D03*
X13630620D02*
D03*
X13590620D02*
D03*
X13550620D02*
D03*
X13510620D02*
D03*
X13470621D02*
D03*
X13430620D02*
D03*
X13390620D02*
D03*
D67*
X13530620Y6347121D02*
D03*
D68*
X15741580Y6909618D02*
D03*
Y7514618D02*
D03*
X16252119Y6909610D02*
D03*
Y7514610D02*
D03*
D69*
X10753260Y7213022D02*
D03*
X10148260D02*
D03*
D70*
X5945900Y6313120D02*
D03*
X6040900Y6113120D02*
D03*
X5850900D02*
D03*
D71*
X6154080Y6723800D02*
D03*
Y6673800D02*
D03*
Y6623800D02*
D03*
Y6573800D02*
D03*
Y6523800D02*
D03*
Y6473800D02*
D03*
Y6423800D02*
D03*
X6634080D02*
D03*
Y6473800D02*
D03*
Y6523800D02*
D03*
Y6573800D02*
D03*
Y6623800D02*
D03*
Y6673800D02*
D03*
Y6723800D02*
D03*
D72*
X6244080Y6333800D02*
D03*
X6294080D02*
D03*
X6344080D02*
D03*
X6394080D02*
D03*
X6444080D02*
D03*
X6494080D02*
D03*
X6544080D02*
D03*
Y6813800D02*
D03*
X6494080D02*
D03*
X6444080D02*
D03*
X6394080D02*
D03*
X6344080D02*
D03*
X6294080D02*
D03*
X6244080D02*
D03*
D73*
X6394080Y6573800D02*
D03*
D74*
X6951580Y7795220D02*
X7075100D01*
X6785540Y6766520D02*
Y7081841D01*
X6743260Y6724241D02*
X6785540Y6766520D01*
X6634521Y6724241D02*
X6743260D01*
X6750341Y7117040D02*
X6785540Y7081841D01*
X6634080Y6723800D02*
X6634521Y6724241D01*
X6628980Y7117040D02*
X6750341D01*
X6594440Y7151580D02*
X6628980Y7117040D01*
X6586940Y7151580D02*
X6594440D01*
X6569640Y7168880D02*
X6586940Y7151580D01*
X6569640Y7168880D02*
Y7176380D01*
X5857100Y6940440D02*
Y7035756D01*
X5815620Y6898961D02*
X5857100Y6940440D01*
X5815620Y6758900D02*
Y6898961D01*
X6783000Y6606300D02*
Y6613800D01*
X6723000Y6673800D02*
X6783000Y6613800D01*
X6634080Y6673800D02*
X6723000D01*
X6783000Y6483800D02*
Y6491300D01*
X6723000Y6423800D02*
X6783000Y6483800D01*
X6634080Y6423800D02*
X6723000D01*
X5172640Y6918920D02*
Y7317700D01*
X5124380Y6870660D02*
X5172640Y6918920D01*
Y7317700D02*
X5225980Y7371040D01*
X5922100Y7623856D02*
Y7625756D01*
X11966120Y6362660D02*
Y6393824D01*
X11938990Y6420954D02*
X11966120Y6393824D01*
X11837600Y6420954D02*
X11938990D01*
X3282880Y7168661D02*
Y7273700D01*
X9095620Y6822697D02*
X9133100Y6860177D01*
X9095620Y6690778D02*
Y6822697D01*
X9136912Y6860177D02*
X9411787Y7135052D01*
X9133100Y6860177D02*
X9136912D01*
X9411787Y7135052D02*
Y7196983D01*
X9095620Y6690778D02*
X9135620Y6650777D01*
X9498726Y7000536D02*
X9613121D01*
X9465240Y6967050D02*
X9498726Y7000536D01*
X9465240Y6774660D02*
Y6967050D01*
X9434036Y6705536D02*
X9613121D01*
X9307120Y6578621D02*
X9434036Y6705536D01*
X9416257Y6468900D02*
X9466160D01*
X9382197Y6434841D02*
X9416257Y6468900D01*
X9476439Y6584630D02*
X9496170D01*
X9368130Y6476321D02*
X9476439Y6584630D01*
X9496170D02*
Y6586630D01*
X9400620Y6789620D02*
Y7047121D01*
X9320900Y6353340D02*
X9481589D01*
X9319840Y6434841D02*
X9382197D01*
X13590620Y6407121D02*
Y6549621D01*
X13585699Y6402201D02*
X13590620Y6407121D01*
X13530620Y6347121D02*
X13585699Y6402201D01*
X3018200Y7313938D02*
X3063013D01*
X6274080Y6673800D02*
X6284080Y6683800D01*
X4237120Y6765121D02*
X4471880D01*
X4197120Y6725120D02*
X4370620D01*
X6494080Y6453800D02*
X6504080Y6463800D01*
X4180620Y6712120D02*
X4313620Y6845120D01*
X4180620Y6705121D02*
Y6712120D01*
X4181100Y6705061D02*
X4321100Y6565060D01*
X4180620Y6705121D02*
X4234305Y6651436D01*
X3971210Y6254350D02*
X4198090D01*
X3114038Y6983259D02*
X3202876D01*
X3203715Y6982420D01*
X3113200Y6984098D02*
X3114038Y6983259D01*
X3113200Y6684098D02*
X3198387D01*
X9265620Y6114287D02*
X9457240D01*
X9175650Y6225104D02*
X9175680Y6225074D01*
X9175650Y6225104D02*
Y6290591D01*
X9175620Y6290621D02*
X9175650Y6290591D01*
X9216320Y6163587D02*
X9265620Y6114287D01*
X9216320Y6163587D02*
Y6289921D01*
X9215620Y6290621D02*
X9216320Y6289921D01*
X9083980Y6041908D02*
X9101940Y6059868D01*
Y6065607D01*
X9150620Y6114287D01*
X9158120D01*
X9015880Y6041908D02*
X9083980D01*
X9481589Y6353340D02*
X9482869Y6352060D01*
X9319620Y6354621D02*
X9320900Y6353340D01*
X9399200Y6561272D02*
Y6603960D01*
X9352548Y6514621D02*
X9399200Y6561272D01*
X9319620Y6514621D02*
X9352548D01*
X9321320Y6476321D02*
X9368130D01*
X9319620Y6474621D02*
X9321320Y6476321D01*
X9135620Y6243811D02*
Y6290621D01*
X9048749Y6156940D02*
X9135620Y6243811D01*
X9571270Y6234213D02*
X9571670Y6233813D01*
X9571270Y6234213D02*
Y6351660D01*
X9570869Y6352060D02*
X9571270Y6351660D01*
X9255620Y6290621D02*
X9392362D01*
X9449170Y6233813D01*
X9456670D01*
X8901580Y6156940D02*
X9048749D01*
X3047656Y7298581D02*
X3063013Y7313938D01*
X3412420Y6822400D02*
X3639900D01*
X3643120Y6825621D01*
X3245734Y6731445D02*
X3648694D01*
X3198387Y6684098D02*
X3245734Y6731445D01*
X3082220Y7349621D02*
X3083200D01*
X4080620Y6515121D02*
X4120620D01*
X4321100Y6565060D02*
X4371100D01*
X4181100Y6705061D02*
Y6708560D01*
X4305300Y6897260D02*
X4317500Y6885060D01*
X4187625Y6924115D02*
X4214480Y6897260D01*
X4117300D02*
X4181100Y6961060D01*
X4047080Y6885060D02*
X4059280Y6897260D01*
X4117300D01*
X4317500Y6885060D02*
X4371100D01*
X3991100D02*
X4047080D01*
X4313620Y6845120D02*
X4370620D01*
X4181100Y6930640D02*
X4187625Y6924115D01*
X4214480Y6897260D02*
X4305300D01*
X5987100Y7035756D02*
Y7119690D01*
X5983349Y7039506D02*
X5987100Y7035756D01*
X5965970Y7140820D02*
X5987100Y7119690D01*
X5728900Y7140820D02*
X5965970D01*
X13446979Y6610021D02*
X13470621Y6586380D01*
X13431793Y6610021D02*
X13446979D01*
X13470621Y6557746D02*
Y6586380D01*
X13413260Y6628554D02*
X13431793Y6610021D01*
X3772670Y6855420D02*
X3885982D01*
X3952922Y6922360D01*
X3973800D01*
X3756346Y6895621D02*
X3872301D01*
X3939040Y6962360D01*
X3988400D01*
X3991100Y6965060D01*
X13413260Y6628554D02*
Y6764460D01*
X6493200Y6814680D02*
Y6924240D01*
Y6814680D02*
X6494080Y6813800D01*
X6504080Y6463800D02*
X6544080Y6423800D01*
Y6333800D02*
Y6423800D01*
X6494080Y6333800D02*
Y6453800D01*
X6394080Y6573800D02*
X6504080Y6463800D01*
X6544080Y6423800D02*
X6634080D01*
X6284080Y6683800D02*
X6344080Y6623800D01*
X6394080Y6573800D01*
X6154080Y6623800D02*
X6344080D01*
X6154080Y6673800D02*
X6274080D01*
X6244080Y6723800D02*
X6284080Y6683800D01*
X6154080Y6723800D02*
X6244080D01*
X3400760Y7026080D02*
X3450760D01*
X3643120Y6825621D02*
X3686346D01*
X3756346Y6895621D01*
X4460173Y6212120D02*
X4465700D01*
X4200620Y6471674D02*
X4460173Y6212120D01*
X5533320Y7205940D02*
X5637460Y7310080D01*
X5533320Y6598880D02*
Y7205940D01*
X12174370Y6333371D02*
X12175620Y6332120D01*
X12174370Y6333371D02*
Y6365870D01*
X12173120Y6367120D02*
X12174370Y6365870D01*
X13869672Y6434972D02*
X14000333D01*
X14121060Y6555700D01*
X13831619Y6396920D02*
X13869672Y6434972D01*
X13831619Y6367120D02*
Y6396920D01*
X12175620Y6332120D02*
X12283120D01*
X8942000Y6629360D02*
X9031620Y6539740D01*
X8778380Y6629360D02*
X8942000D01*
X8727902Y6679839D02*
X8778380Y6629360D01*
X8993980Y6290621D02*
X9095620D01*
X8961800Y6322800D02*
X8993980Y6290621D01*
X8895360Y6322800D02*
X8961800D01*
X4206585Y6352767D02*
X4465932Y6093420D01*
X4200620Y6352767D02*
X4206585D01*
X4465932Y6093420D02*
X4739620D01*
X3648694Y6731445D02*
X3772670Y6855420D01*
X3764765Y6464611D02*
X3905274Y6605120D01*
X3671851Y6464611D02*
X3764765D01*
X3905274Y6605120D02*
X3990620D01*
X2846000Y6289061D02*
X2846300Y6289361D01*
X2881560D01*
X3489200Y6292121D02*
X3516692D01*
X4198090Y6254350D02*
X4200620Y6251820D01*
X3968680Y6256881D02*
X3971210Y6254350D01*
X4200620Y6471674D02*
Y6515121D01*
Y6352767D02*
Y6371900D01*
X4120620Y6410120D02*
Y6515121D01*
X4080620Y6370120D02*
X4120620Y6410120D01*
X4160620Y6407621D02*
X4198120Y6370120D01*
X4160620Y6407621D02*
Y6515121D01*
X5581580Y6380440D02*
Y6822320D01*
X5617140Y6857880D01*
X5530780Y6329640D02*
X5581580Y6380440D01*
X7232580Y7515321D02*
Y7586560D01*
X7161080Y7658060D02*
X7232580Y7586560D01*
X7057320Y7658060D02*
X7161080D01*
X7204120Y7428860D02*
Y7486861D01*
X7232580Y7515321D01*
X6795640Y7393900D02*
X6985080D01*
X6688460Y7286720D02*
X6795640Y7393900D01*
X5665580Y7714120D02*
X5667940Y7716480D01*
X5578120Y7714120D02*
X5665580D01*
X3555620Y6348380D02*
X3671851Y6464611D01*
X11385480Y6345561D02*
Y6421421D01*
X11387280Y6423221D01*
X13781882Y6671460D02*
X13861980D01*
X13762920Y6652499D02*
X13781882Y6671460D01*
X13762920Y6619200D02*
Y6652499D01*
X13736592Y6592873D02*
X13762920Y6619200D01*
X13692509Y6592873D02*
X13736592D01*
X13381799Y6795920D02*
X13413260Y6764460D01*
X13672298Y6572662D02*
X13692509Y6592873D01*
X13323500Y6795920D02*
X13381799D01*
X14423120Y6613920D02*
Y6715484D01*
X14364900Y6555700D02*
X14423120Y6613920D01*
X14121060Y6555700D02*
X14364900D01*
X3970680Y6344881D02*
Y6405181D01*
X4906208Y7407953D02*
Y7428649D01*
X5064180Y7586620D02*
X5258120D01*
X4906208Y7428649D02*
X5064180Y7586620D01*
X4707820Y6890980D02*
Y6915502D01*
X4674877Y6858038D02*
X4707820Y6890980D01*
X4486756Y6858038D02*
X4674877D01*
X4850060Y6933848D02*
X4870392Y6913516D01*
Y6835113D02*
Y6913516D01*
X4819900Y6784621D02*
X4870392Y6835113D01*
X4419720Y6965060D02*
X4475180Y7020520D01*
X4371100Y6965060D02*
X4419720D01*
X4474008Y6925060D02*
X4482688Y6916380D01*
X4371100Y6925060D02*
X4474008D01*
X4475180Y7020520D02*
X4482680D01*
X4471880Y6843162D02*
X4486756Y6858038D01*
X9135620Y6578621D02*
Y6650777D01*
X9175620Y6578621D02*
Y6716776D01*
X9175621Y6716777D01*
X9175620Y6578621D02*
X9175620Y6578621D01*
X8808900Y6508041D02*
Y6555536D01*
X8781120Y6480261D02*
X8808900Y6508041D01*
X8781120Y6436020D02*
Y6480261D01*
X9031620Y6514621D02*
Y6539740D01*
X8902887Y6538269D02*
Y6555520D01*
X8896120Y6434621D02*
X9031620D01*
X9051160Y6578621D02*
X9095620D01*
X8957240Y6672540D02*
X9051160Y6578621D01*
X8957240Y6672540D02*
Y7018000D01*
X8727902Y6679839D02*
Y6764620D01*
X3555620Y6292121D02*
Y6348380D01*
X4720520Y7029620D02*
Y7154258D01*
X4752500Y6784621D02*
X4819900D01*
X4471880Y6805121D02*
Y6843162D01*
X4370620Y6805121D02*
X4471880D01*
X12283120Y6266568D02*
Y6332120D01*
Y6266568D02*
X12304620Y6245069D01*
X12310645D01*
X8915620Y7059620D02*
X8957240Y7018000D01*
X13793620Y6407121D02*
X13831619Y6369121D01*
X13733121Y6407121D02*
X13793620D01*
X3970680Y6405181D02*
X4080620Y6515121D01*
X3968680Y6344881D02*
X3970680D01*
X4631620Y6093420D02*
X4739620D01*
X7204120Y7301860D02*
Y7303907D01*
X7247026Y7346813D02*
Y7348861D01*
X7204120Y7303907D02*
X7247026Y7346813D01*
X3531800Y6916380D02*
X3533180Y6915001D01*
X3641740D02*
X3643120Y6913621D01*
X3465760Y6268680D02*
X3489200Y6292121D01*
X6052100Y7173540D02*
X6165280Y7286720D01*
X6688460D01*
X6052100Y7035756D02*
Y7173540D01*
X6985080Y7393900D02*
X7077072Y7301908D01*
X7077120D01*
X6377100Y6925120D02*
Y7035756D01*
X6344080Y6892100D02*
X6377100Y6925120D01*
X6344080Y6813800D02*
Y6892100D01*
X6293200Y6202060D02*
Y6332920D01*
X6294080Y6333800D01*
X2900520Y6153481D02*
X2903020Y6155981D01*
Y6243280D01*
X2900520Y6153481D02*
X2903020Y6150981D01*
X3537120Y6142120D02*
X3538120Y6143120D01*
Y6245820D01*
X9428120Y7074620D02*
X9655620D01*
X9400620Y7047121D02*
X9428120Y7074620D01*
X9678120Y7000536D02*
Y7052120D01*
X9655620Y7074620D02*
X9678120Y7052120D01*
X9255620Y6578621D02*
X9307120D01*
X9465940Y6468680D02*
X9466160Y6468900D01*
X9319620Y6434621D02*
X9319840Y6434841D01*
X9579464Y6477989D02*
X9579693Y6477760D01*
X9579464Y6477989D02*
Y6580032D01*
X9579236Y6580260D02*
X9579464Y6580032D01*
X8792900Y7059620D02*
X8915620D01*
X8902887Y6538269D02*
X8966536Y6474621D01*
X12300620Y6372121D02*
X12438120D01*
X3534620Y6014620D02*
X3537120Y6012120D01*
X2903020Y6020980D02*
X2903020Y6020981D01*
X4752500Y6784621D02*
X4752500Y6784620D01*
X5462620Y7840120D02*
X5463120Y7839620D01*
X5258620Y7840120D02*
X5462620D01*
X5258120Y7840620D02*
X5258620Y7840120D01*
X4762620Y7714120D02*
X4763120Y7713620D01*
X4556120Y7714120D02*
X4762620D01*
X4555620Y7714620D02*
X4556120Y7714120D01*
X4762620Y7840120D02*
X4763120Y7840620D01*
X4556120Y7840120D02*
X4762620D01*
X4555620Y7839620D02*
X4556120Y7840120D01*
X4555620Y7967620D02*
X4763120D01*
X8966536Y6474621D02*
X9031620D01*
X12615840Y5992959D02*
X12616260Y5992539D01*
X12762701D01*
X13363120Y6004620D02*
X13389980Y6031480D01*
Y6143980D01*
X13880620Y6004620D02*
X13880620D01*
X13389980Y6143980D02*
X13390620Y6144621D01*
X6444080Y6813800D02*
Y6888760D01*
X6310260Y6929400D02*
X6311180Y6930320D01*
Y7034836D01*
X6312100Y7035756D01*
X5857100Y7623856D02*
Y7625756D01*
D75*
X8326778Y7282400D02*
X8404209Y7359832D01*
X8263381Y7282400D02*
X8326778D01*
X8404209Y7359832D02*
X8481445D01*
X8134340Y6078180D02*
Y6328107D01*
X5246124Y6860097D02*
Y7099697D01*
X3058980Y7503449D02*
X3128980D01*
X3038955Y7483425D02*
X3058980Y7503449D01*
X2938020Y7483425D02*
X3038955D01*
X8134340Y6328107D02*
X8191363Y6385130D01*
X5246124Y7099697D02*
X5667940Y7521514D01*
Y7716480D02*
Y7869800D01*
Y7521514D02*
Y7716480D01*
X5635840Y7901900D02*
X5667940Y7869800D01*
X5485040Y7901900D02*
X5635840D01*
X5460207Y7926733D02*
X5485040Y7901900D01*
X5167560Y6781533D02*
X5246124Y6860097D01*
X5167560Y6591260D02*
Y6781533D01*
X5460207Y7926733D02*
Y7947820D01*
X5467828Y7955441D01*
X5468654D01*
X5459120Y7967120D02*
X5468654Y7955441D01*
X9235620Y7407120D02*
X9411650D01*
X8883120Y7412120D02*
X9058120D01*
X6244080Y6160740D02*
Y6333800D01*
X6196460Y6113120D02*
X6244080Y6160740D01*
X6160900Y6113120D02*
X6196460D01*
X5458870Y7967370D02*
X5459120Y7967120D01*
X5258370Y7967370D02*
X5458870D01*
X5258120Y7967620D02*
X5258370Y7967370D01*
X14958121Y7813484D02*
Y7994620D01*
X6040900Y6113120D02*
X6160900D01*
X11968620Y7431620D02*
X12098120D01*
D76*
X7768788Y6170964D02*
X7821440D01*
X7621200Y6318552D02*
X7768788Y6170964D01*
X7621200Y6318552D02*
Y6549621D01*
X4682900Y6191900D02*
X4926840D01*
X4605240Y6269560D02*
X4682900Y6191900D01*
X4471420Y6269560D02*
X4605240D01*
X4281100Y6459880D02*
X4471420Y6269560D01*
X4281100Y6459880D02*
Y6515060D01*
X14273621Y6133440D02*
X14331940D01*
X12933121Y6000996D02*
X12944600Y5989516D01*
X3991100Y6845120D02*
X4047620D01*
X4180620Y6712120D01*
X13068120Y6289080D02*
X13173244Y6183958D01*
X13173402D01*
X13068120Y6289080D02*
X13185718D01*
X13733121Y6207121D02*
X13880620D01*
X13972479Y6298981D01*
X13971941Y6250940D02*
X14047121D01*
X13888120Y6167120D02*
X13971941Y6250940D01*
X13670621Y6167120D02*
X13888120D01*
X13972479Y6298981D02*
Y6343621D01*
X13997301Y6368441D01*
X14046619D01*
X13430621Y6144621D02*
X13431261D01*
X13652319Y6075420D02*
X13809819D01*
X13630620Y6097120D02*
X13652319Y6075420D01*
X13630620Y6097120D02*
Y6144621D01*
X12223861Y6057860D02*
X12315120D01*
X13470621Y6079620D02*
Y6144621D01*
X13590620Y6087120D02*
Y6144621D01*
Y6087120D02*
X13630620Y6047121D01*
X13185718Y6289080D02*
X13227678Y6247121D01*
X13328120D01*
X13068120Y6124620D02*
X13239061D01*
X13201579Y6327100D02*
X13322960D01*
X13323050Y6327190D01*
X13273430Y6487137D02*
X13328104D01*
X13248045Y6512520D02*
X13273430Y6487137D01*
X13135539Y6512520D02*
X13248045D01*
X13239061Y6124620D02*
X13321562Y6207121D01*
X13238608Y6327100D02*
X13238698Y6327190D01*
X13068120Y6289080D02*
Y6294080D01*
X12933121Y6640780D02*
X13007280D01*
X13135539Y6512520D01*
X13630620Y6004620D02*
Y6047121D01*
X3662662Y6547147D02*
X3797012D01*
X3890545Y6640680D01*
X3944960D01*
X3949400Y6645121D01*
X3990620D01*
X3425636Y6310120D02*
X3662662Y6547147D01*
X3224548Y6310120D02*
X3425636D01*
X3204088Y6289661D02*
X3224548Y6310120D01*
X4989760Y6128980D02*
X5154860D01*
X4926840Y6191900D02*
X4989760Y6128980D01*
X13068120Y6294080D02*
X13072040Y6298000D01*
Y6504900D01*
X12991161Y6217121D02*
X13068120Y6294080D01*
X3041580Y6143488D02*
Y6289661D01*
X2927280D02*
X3204088D01*
X12775620Y6217121D02*
X12991161D01*
X13321562Y6207121D02*
X13328120D01*
X13630620Y6004620D02*
X13765620D01*
X13670621Y6144621D02*
Y6167120D01*
X14378101Y6179600D02*
Y6246080D01*
X9411650Y7407120D02*
X9411787Y7406983D01*
X12173120Y6007120D02*
X12223861Y6057860D01*
X9250620Y6667120D02*
Y6709620D01*
X9215620Y6632120D02*
X9250620Y6667120D01*
X9215620Y6578621D02*
Y6632120D01*
X8792900Y6687445D02*
Y6764620D01*
X12438120Y6372121D02*
X12438120Y6372120D01*
X14046619Y6430558D02*
X14102002Y6485941D01*
X14046619Y6368441D02*
Y6430558D01*
X14102002Y6485941D02*
X14185620D01*
X12625072Y6002190D02*
Y6127120D01*
X12615840Y5992959D02*
X12625072Y6002190D01*
X13059599Y6116101D02*
X13068120Y6124620D01*
X13059599Y5989516D02*
Y6116101D01*
X14331940Y6133440D02*
X14378101Y6179600D01*
X14162120Y6250940D02*
X14292120D01*
X14185620Y6133440D02*
Y6135441D01*
X14111182D02*
X14185620D01*
X14047121Y6199502D02*
X14111182Y6135441D01*
X14047121Y6199502D02*
Y6250940D01*
X13880620Y6004620D02*
Y6114620D01*
X13809819Y6075420D02*
X13880620Y6004620D01*
X13430620Y6144620D02*
X13430620Y6144620D01*
Y6144621D02*
X13430621D01*
X13430620Y6144620D02*
X13430620Y6144621D01*
X14378119Y6368441D02*
Y6441921D01*
X14334100Y6485941D02*
X14378119Y6441921D01*
X14273621Y6485941D02*
X14334100D01*
X14161620Y6368441D02*
X14290118D01*
X13430620Y6144620D02*
X13430621Y6144621D01*
X12763120Y6204621D02*
X12775620Y6217121D01*
X12763120Y6107120D02*
Y6204621D01*
D77*
X4504148Y6712992D02*
X4552220Y6664920D01*
X4430959Y6712992D02*
X4504148D01*
X4552220Y6561620D02*
Y6664920D01*
X4546480Y6555880D02*
X4552220Y6561620D01*
X4403027Y6685060D02*
X4430959Y6712992D01*
X4546480Y6555880D02*
X4553840Y6548520D01*
X4553800Y6324560D02*
X4553840Y6324600D01*
Y6548520D01*
X5307260Y6144220D02*
Y6924000D01*
X5373300Y6159400D02*
Y6835100D01*
X4977060Y6758900D02*
Y7384321D01*
X4837360Y6619200D02*
X4977060Y6758900D01*
X4837360Y6588720D02*
Y6619200D01*
X4801800Y6553160D02*
X4837360Y6588720D01*
X4977060Y7384321D02*
X5073580Y7480841D01*
X4371100Y6685060D02*
X4403027D01*
X7918380Y6493920D02*
Y6549400D01*
X7857120Y6432660D02*
X7918380Y6493920D01*
X7857120Y6349960D02*
Y6432660D01*
X4371100Y6605060D02*
X4487297D01*
X4438621Y6645060D02*
X4458481Y6664920D01*
X4487297Y6605060D02*
X4488838Y6603519D01*
X4371100Y6645060D02*
X4438621D01*
X4488838Y6603519D02*
X4488839D01*
X4556120Y7094598D02*
Y7149240D01*
X13550620Y6064058D02*
Y6144621D01*
X5307260Y6144220D02*
X5434260Y6017220D01*
X5373300Y6159400D02*
X5518080Y6014620D01*
X5265543Y6107197D02*
X5312340Y6060400D01*
X4602768Y6916380D02*
X4605188D01*
X4603970Y7020520D02*
X4605180D01*
X4426027Y7065701D02*
X4437066Y7076740D01*
X4426027Y7028868D02*
Y7065701D01*
X4403027Y7005060D02*
X4425333Y7027366D01*
Y7028173D01*
X4426027Y7028868D01*
X4538262Y7076740D02*
X4556120Y7094598D01*
X8075860Y6360852D02*
X8149120Y6434112D01*
X8075860Y6212800D02*
Y6360852D01*
X7111540Y6352060D02*
X7111980Y6352500D01*
X6871900Y6352060D02*
X7111540D01*
X4848360Y6233120D02*
X5022780D01*
X4801800Y6279680D02*
X4848360Y6233120D01*
X4801800Y6279680D02*
Y6553160D01*
X5022780Y6233120D02*
X5071040Y6184860D01*
X4503126Y7414229D02*
X4583360Y7494462D01*
X4503126Y7202234D02*
Y7414229D01*
Y7202234D02*
X4556120Y7149240D01*
X4583360Y7494462D02*
Y7503449D01*
X5940087Y7483306D02*
Y7488752D01*
X5890620Y7822120D02*
X5987100Y7725641D01*
Y7625756D02*
Y7725641D01*
X6003120Y7822120D02*
Y7829621D01*
Y7822120D02*
X6052100Y7773141D01*
Y7625756D02*
Y7773141D01*
Y7488500D02*
Y7625756D01*
X5987980Y7424380D02*
X6052100Y7488500D01*
X5890620Y7822120D02*
Y7829621D01*
X5986710Y7535376D02*
Y7625366D01*
X5987100Y7625756D01*
X5940087Y7488752D02*
X5986710Y7535376D01*
X5934640Y7483306D02*
X5940087D01*
X8149120Y6434112D02*
Y6603960D01*
X7586559Y6697940D02*
X7680539Y6603960D01*
X8149120D01*
X7242220Y6697940D02*
X7586559D01*
X7204120Y6736040D02*
X7242220Y6697940D01*
X7204120Y6736040D02*
Y6894080D01*
X7341800Y6416701D02*
X7403980Y6478880D01*
X7341800Y6268301D02*
Y6416701D01*
X7403980Y6478880D02*
Y6606500D01*
X7123587D02*
X7403980D01*
X7077072Y6653016D02*
X7123587Y6606500D01*
X7077072Y6653016D02*
Y6895560D01*
X5265543Y6107197D02*
Y6703921D01*
X5235664Y6733800D02*
X5265543Y6703921D01*
X5027860Y6733800D02*
Y7348180D01*
X5106600Y7426920D01*
X4664640Y7173840D02*
X4789100Y7298300D01*
X4664640Y6975832D02*
Y7173840D01*
X4789100Y7298300D02*
X4900860D01*
X4605188Y6916380D02*
X4664640Y6975832D01*
X5095080Y7714120D02*
X5463120D01*
X4883080Y7502120D02*
X5095080Y7714120D01*
X4760160Y7502120D02*
X4883080D01*
X4623647Y7365608D02*
X4760160Y7502120D01*
X4623647Y7038987D02*
Y7365608D01*
X4605180Y7020520D02*
X4623647Y7038987D01*
X4437066Y7076740D02*
X4538262D01*
X4371100Y7005060D02*
X4403027D01*
D78*
X6442679Y7035177D02*
X6575640D01*
X6442100Y7035756D02*
X6442679Y7035177D01*
X5738180Y6113120D02*
X5850900D01*
X5690800Y6160501D02*
X5738180Y6113120D01*
X4622179Y6784300D02*
X4622500Y6784621D01*
X4519860Y6784300D02*
X4622179D01*
D79*
X9670320Y7579320D02*
X9670731Y7579732D01*
Y7757109D01*
X9671143Y7757520D01*
X8300200Y8013660D02*
X8993464D01*
X8300200Y7601479D02*
Y8013660D01*
X9058120Y6944880D02*
Y7202120D01*
X3082220Y7313938D02*
Y7349621D01*
X3108120Y6473858D02*
Y6543098D01*
X3018200Y6383938D02*
X3108120Y6473858D01*
X3095280Y7361700D02*
X3282880D01*
X3047656Y7298581D02*
X3113200Y7233038D01*
Y7175098D02*
Y7233038D01*
X3083979Y6372000D02*
X3270588D01*
X6748480Y7795220D02*
Y7967104D01*
X3640320Y6157121D02*
Y6273421D01*
Y6157121D02*
X3707920Y6089520D01*
Y6056320D02*
Y6089520D01*
X3083200Y7349621D02*
X3095280Y7361700D01*
X6748480Y7967104D02*
Y7967620D01*
Y7684570D02*
Y7785352D01*
X6607420Y7967620D02*
X6748480D01*
X6442202Y7625858D02*
X6572078D01*
X6589960Y7950160D02*
X6607420Y7967620D01*
X6690030Y7626120D02*
X6748480Y7684570D01*
X6688480Y7626120D02*
X6690030D01*
X6688350Y7625990D02*
X6688480Y7626120D01*
X6569770Y7625990D02*
X6688350D01*
X6569640Y7625861D02*
X6569770Y7625990D01*
X6572078Y7625858D02*
X6572180Y7625960D01*
X6442100Y7625756D02*
X6442202Y7625858D01*
X7751440Y6078184D02*
X7924336D01*
X8256200Y6127320D02*
Y6451560D01*
Y6127320D02*
X8341580Y6041940D01*
X8901580D01*
X3955831Y7614419D02*
Y7682541D01*
X3640320Y7298908D02*
X3955831Y7614419D01*
X3640320Y7124660D02*
Y7298908D01*
X7077120Y7174860D02*
X7142886Y7109094D01*
X5937504Y6450959D02*
Y6565259D01*
X5923341Y6774313D02*
X6025157D01*
X3707920Y6056320D02*
X3717120Y6047120D01*
X12270620Y6502120D02*
X12438120D01*
X3362120Y6014620D02*
X3534620D01*
X2728020Y6020980D02*
X2903020D01*
D80*
X8760620Y7307361D02*
X8785860Y7282120D01*
X8760620Y7307361D02*
Y7411680D01*
X8785860Y7282120D02*
X8883120D01*
X13251906Y6412289D02*
X13297128D01*
X13226312Y6437882D02*
X13251906Y6412289D01*
X13297128D02*
X13302298Y6407121D01*
X13238599Y6467544D02*
X13264192Y6441952D01*
X13153482Y6461720D02*
X13159306Y6467544D01*
X13238599D01*
X13185136Y6418540D02*
X13192918D01*
X13212260Y6437882D01*
X13226312D01*
X13145700Y6461720D02*
X13153482D01*
X13264192Y6441952D02*
X13297128D01*
X13302969Y6447793D01*
X13328120D01*
X13302298Y6407121D02*
X13328120D01*
X11690620Y6553939D02*
X11842739D01*
X11385620Y6554320D02*
X11545239D01*
X11656601Y6669844D02*
X11690620Y6703863D01*
X11644101Y6595458D02*
X11680620Y6558939D01*
Y6548939D02*
Y6553939D01*
X11644101Y6512420D02*
X11680620Y6548939D01*
X11637887Y6669844D02*
X11656601D01*
X11627951Y6605394D02*
X11637887Y6595458D01*
X11638260Y6512420D02*
X11644101D01*
X11637887Y6595458D02*
X11644101D01*
X11627951Y6643732D02*
Y6659907D01*
X11637887Y6669844D01*
X11627951Y6605394D02*
Y6643732D01*
X11627951Y6643732D02*
X11627951Y6643732D01*
X11628324Y6465256D02*
X11639480Y6454100D01*
X11628324Y6465256D02*
Y6502484D01*
X11638260Y6512420D01*
X11598289Y6631446D02*
X11598289Y6631446D01*
Y6605394D02*
Y6631446D01*
X11598289Y6631446D02*
Y6659907D01*
X11598662Y6466449D02*
Y6502111D01*
X11588352Y6669844D02*
X11598289Y6659907D01*
X11588353Y6595458D02*
X11598289Y6605394D01*
X11569639Y6669844D02*
X11588352D01*
X11582139Y6595458D02*
X11588353D01*
X11545620Y6558939D02*
X11582139Y6595458D01*
X11535620Y6703863D02*
X11569639Y6669844D01*
X11545620Y6548939D02*
Y6553939D01*
X11582139Y6512420D02*
X11588353D01*
X11598662Y6502111D01*
X11586793Y6454580D02*
X11598662Y6466449D01*
X11545620Y6548939D02*
X11582139Y6512420D01*
X11663102Y7026363D02*
X11753120D01*
X11627951Y6991211D02*
X11663102Y7026363D01*
X11627951Y6875689D02*
Y6991211D01*
X11591220Y6868120D02*
X11598289Y6875189D01*
X11569878Y6868120D02*
X11591220D01*
X11598289Y6875189D02*
Y6991194D01*
X11635520Y6868120D02*
X11656362D01*
X11627951Y6875689D02*
X11635520Y6868120D01*
X11563120Y7026363D02*
X11598289Y6991194D01*
X11656362Y6868120D02*
X11690620Y6833863D01*
X11535620D02*
X11569878Y6868120D01*
X11473120Y7026363D02*
X11563120D01*
D81*
X3035511Y6820730D02*
X3064831D01*
X3018200Y6838040D02*
X3035511Y6820730D01*
X3018200Y6838040D02*
Y6880301D01*
X3025875Y6797466D02*
X3064832D01*
X2994936Y6828404D02*
X3025875Y6797466D01*
X2994936Y6828404D02*
Y6889937D01*
X3064831Y6820730D02*
X3078200Y6834098D01*
X3113200D01*
X3018200Y6880301D02*
X3035366Y6897466D01*
X3078200Y6784098D02*
X3113200D01*
X3064832Y6797466D02*
X3078200Y6784098D01*
X3035366Y6897466D02*
X3064831D01*
X3078200Y6884098D01*
X3113200D01*
X3725340Y6967081D02*
Y7006780D01*
Y7042421D02*
Y7082120D01*
X5682430Y6993440D02*
X5691810Y6984060D01*
X5693802Y6597002D02*
X5700620Y6603820D01*
X5647274Y6597002D02*
X5693802D01*
X5682430Y6993440D02*
Y7019070D01*
X5691810Y6717174D02*
Y6984060D01*
X5678440Y7023060D02*
X5682430Y7019070D01*
X5647274Y6597002D02*
Y6672638D01*
X5691810Y6717174D01*
X3480760Y7060080D02*
X3482767Y7058073D01*
X3719152Y7036233D02*
X3725340Y7042421D01*
X3490435Y7036233D02*
X3719152D01*
X3383843Y7066922D02*
X3428880D01*
X3435722Y7060080D01*
X3367538Y7050618D02*
X3383843Y7066922D01*
X3482767Y7043901D02*
Y7058073D01*
X3435722Y7060080D02*
X3480760D01*
X3482767Y7043901D02*
X3490435Y7036233D01*
X3367538Y7026225D02*
Y7050618D01*
X3261837Y6920524D02*
X3367538Y7026225D01*
X3188887Y6920524D02*
X3261837D01*
X3188682Y6920730D02*
X3188887Y6920524D01*
X3113200Y6934098D02*
X3148200D01*
X3161568Y6920730D01*
X3188682D01*
X5629840Y6987500D02*
X5633830Y6983510D01*
X5659460D01*
X3719152Y7012969D02*
X3725340Y7006780D01*
X5659460Y6983510D02*
X5668546Y6974424D01*
Y6726810D02*
Y6974424D01*
X5624010Y6682274D02*
X5668546Y6726810D01*
X5693120Y6493820D02*
X5700620D01*
X5624010Y6562930D02*
X5693120Y6493820D01*
X5624010Y6562930D02*
Y6682274D01*
X3487476Y7012969D02*
X3719152D01*
X3482767Y7008260D02*
X3487476Y7012969D01*
X3482767Y6994088D02*
Y7008260D01*
X3477170Y6995671D02*
X3480760Y6992081D01*
X3482767Y6994088D01*
X3463741Y6995671D02*
X3477170D01*
X3463469Y6995399D02*
X3463741Y6995671D01*
X3436038Y6995399D02*
X3463469D01*
X3425878Y6985239D02*
X3436038Y6995399D01*
X3367271Y6993059D02*
X3376022D01*
X3383843Y6985239D01*
X3271473Y6897260D02*
X3367271Y6993059D01*
X3383843Y6985239D02*
X3425878D01*
X3179251Y6897260D02*
X3271473D01*
X3179046Y6897466D02*
X3179251Y6897260D01*
X3161568Y6897466D02*
X3179046D01*
X3148200Y6884098D02*
X3161568Y6897466D01*
X3113200Y6884098D02*
X3148200D01*
X2994936Y6889937D02*
X3025730Y6920730D01*
X3078200Y6934098D02*
X3113200D01*
X3064832Y6920730D02*
X3078200Y6934098D01*
X3025730Y6920730D02*
X3064832D01*
X7924336Y6095964D02*
X7924340Y6095960D01*
X6150980Y6520700D02*
X6154080Y6523800D01*
X6097760Y6520700D02*
X6150980D01*
X6094660Y6517600D02*
X6097760Y6520700D01*
X6150430Y6577450D02*
X6154080Y6573800D01*
X6098310Y6577450D02*
X6150430D01*
X6094660Y6581100D02*
X6098310Y6577450D01*
X3864768Y7013428D02*
X3962732D01*
X3858120Y7006780D02*
X3864768Y7013428D01*
X3863848Y7036692D02*
X3962732D01*
X3858120Y7042421D02*
X3863848Y7036692D01*
X3962732D02*
X3971100Y7045060D01*
X3991100D01*
X3971100Y7005060D02*
X3991100D01*
X3962732Y7013428D02*
X3971100Y7005060D01*
X3858120Y6967081D02*
Y7006780D01*
Y7042421D02*
Y7082120D01*
D82*
X13812315Y6305197D02*
X13849158D01*
X13822862Y6272223D02*
X13831798Y6263287D01*
X13855194Y6299160D02*
X13889920D01*
X13849158Y6305197D02*
X13855194Y6299160D01*
X13797691Y6319821D02*
X13812315Y6305197D01*
X13809369Y6272223D02*
X13822862D01*
X13787170Y6294421D02*
X13809369Y6272223D01*
X13767397Y6294421D02*
X13787170D01*
X13767397Y6319821D02*
X13797691D01*
X13760097Y6327121D02*
X13767397Y6319821D01*
X13733121Y6327121D02*
X13760097D01*
Y6287121D02*
X13767397Y6294421D01*
X13733121Y6287121D02*
X13760097D01*
X16030121Y6572121D02*
X16126860D01*
X15999561Y6541560D02*
X16030121Y6572121D01*
X15999561Y6426921D02*
Y6541560D01*
X15974159Y6426921D02*
Y6541560D01*
X15919360Y6372121D02*
X15974159Y6426921D01*
X15999561Y6317321D02*
X16054359Y6372121D01*
X15999561Y6289420D02*
Y6317321D01*
Y6289420D02*
X16066859Y6222120D01*
X15919360Y6372121D02*
X15974159Y6317321D01*
Y6289420D02*
Y6317321D01*
X15948010Y6263271D02*
X15974159Y6289420D01*
X15999561Y6426921D02*
X16054359Y6372121D01*
X15943600Y6572121D02*
X15974159Y6541560D01*
X15948010Y6258271D02*
Y6263271D01*
X15911861Y6222121D02*
X15948010Y6258271D01*
X15906860Y6222121D02*
X15911861D01*
X15846860Y6572121D02*
X15943600D01*
D83*
X13919620Y6367120D02*
Y6377280D01*
D84*
X3533180Y6915001D02*
X3641740D01*
D85*
X6917620Y6698554D02*
D03*
Y6893520D02*
D03*
X4583360Y7503449D02*
D03*
X4961820Y6581100D02*
D03*
D86*
X3018200Y7324098D02*
D03*
X2703200D02*
D03*
X3018200Y6394098D02*
D03*
X2703200D02*
D03*
D87*
X4288600Y6961060D02*
D03*
X4073600D02*
D03*
X4181100D02*
D03*
Y6819560D02*
D03*
Y6597560D02*
D03*
X4288600Y6708560D02*
D03*
X4073600D02*
D03*
X4181100D02*
D03*
D88*
X10072300Y7917140D02*
D03*
X16394360Y6568400D02*
D03*
D89*
X6886620Y7555860D02*
D03*
Y7238360D02*
D03*
X7394620D02*
D03*
Y7555860D02*
D03*
D90*
X7140620D02*
D03*
X7242220Y7047860D02*
D03*
X7039020D02*
D03*
D91*
X6559480Y7967940D02*
D03*
X7062384D02*
D03*
D92*
X13420621Y6457121D02*
D03*
X13640620D02*
D03*
X13420621Y6237121D02*
D03*
X13640620D02*
D03*
X13420621Y6347121D02*
D03*
X13530620Y6457121D02*
D03*
Y6237121D02*
D03*
X13638120Y6347121D02*
D03*
D93*
X7075100Y7795220D02*
D03*
X5815620Y6758900D02*
D03*
X6634080Y6673800D02*
D03*
X8481445Y7359832D02*
D03*
X8263381Y7282400D02*
D03*
X7821440Y6170964D02*
D03*
X8134340Y6078180D02*
D03*
X8757840Y6139536D02*
D03*
X7621200Y6549621D02*
D03*
X9344580Y6192241D02*
D03*
X4552220Y6664920D02*
D03*
X5307260Y6924000D02*
D03*
X5373300Y6835100D02*
D03*
X5922100Y7623856D02*
D03*
X5728900Y7255820D02*
D03*
X11966120Y6362660D02*
D03*
X6690640Y7035177D02*
D03*
X9461143Y7775300D02*
D03*
X8300200Y7601479D02*
D03*
X3283165Y7168946D02*
D03*
X7806120Y7896820D02*
D03*
X9058120Y6944880D02*
D03*
X9465240Y6774660D02*
D03*
X9400620Y6789620D02*
D03*
X7918380Y6549400D02*
D03*
X8760620Y7411680D02*
D03*
X8456860Y7051000D02*
D03*
X14959120Y7812484D02*
D03*
X10676820Y7665680D02*
D03*
X10874940D02*
D03*
X11075600D02*
D03*
X11278800D02*
D03*
X11479460D02*
D03*
X11677580D02*
D03*
X11382413Y7839620D02*
D03*
X11483378D02*
D03*
X11180483D02*
D03*
X11281448D02*
D03*
X10978553D02*
D03*
X11079518D02*
D03*
X10776623D02*
D03*
X10877588D02*
D03*
X10675658D02*
D03*
X10120740Y7316762D02*
D03*
X10178980Y7316437D02*
D03*
X10006440Y7316762D02*
D03*
X10064680Y7316437D02*
D03*
X16228740Y7426301D02*
D03*
Y7486300D02*
D03*
X16293739Y7546300D02*
D03*
Y7486300D02*
D03*
X16228740Y7546300D02*
D03*
X16293739Y7426301D02*
D03*
X16228740Y7606300D02*
D03*
X16293739D02*
D03*
X15776100Y7604720D02*
D03*
X15711099D02*
D03*
X15776100Y7424721D02*
D03*
X15711099Y7544720D02*
D03*
X15710139Y6912308D02*
D03*
X15770140D02*
D03*
X15710139Y6977308D02*
D03*
X15650140D02*
D03*
X15776100Y7484721D02*
D03*
Y7544720D02*
D03*
X15711099Y7484721D02*
D03*
Y7424721D02*
D03*
X15650140Y6912308D02*
D03*
X15770140Y6977308D02*
D03*
X15830141Y6912308D02*
D03*
Y6977308D02*
D03*
X15178120Y7367120D02*
D03*
Y7432121D02*
D03*
X15118120D02*
D03*
X15238120Y7367120D02*
D03*
X15118120D02*
D03*
X15298120D02*
D03*
X15238120Y7432121D02*
D03*
X15298120D02*
D03*
X6878480Y7968357D02*
D03*
X3743120Y7084660D02*
D03*
X5678440Y7023060D02*
D03*
X5629840Y6987500D02*
D03*
X3743120Y6967081D02*
D03*
X3258980Y7503449D02*
D03*
X3113200Y6623098D02*
D03*
X3203715Y6982420D02*
D03*
X3282880Y7273700D02*
D03*
Y7080660D02*
D03*
X2728020Y7483425D02*
D03*
X9175680Y6225074D02*
D03*
X9015880Y6041908D02*
D03*
X9399200Y6603960D02*
D03*
X3113200Y7084938D02*
D03*
X3412420Y6822400D02*
D03*
X13173402Y6183958D02*
D03*
X6312100Y7625756D02*
D03*
X6247100D02*
D03*
X4235380Y6707120D02*
D03*
X4204900Y6917000D02*
D03*
X4235380Y6597900D02*
D03*
X4154685Y6916380D02*
D03*
X4235380Y6652510D02*
D03*
X4126160Y6598880D02*
D03*
X4288600Y6763170D02*
D03*
X4073600Y7010360D02*
D03*
X4126160Y6708100D02*
D03*
X4288600Y6599340D02*
D03*
X4488839Y6603519D02*
D03*
X4286180Y7010360D02*
D03*
X4073600Y6763170D02*
D03*
X3991100Y6705060D02*
D03*
X4126745Y6961380D02*
D03*
X4181100Y6763170D02*
D03*
X4233035Y7010360D02*
D03*
X4073600Y6599340D02*
D03*
X4126160Y6762710D02*
D03*
X4458481Y6664920D02*
D03*
X3991100Y6785060D02*
D03*
X4096460Y6916380D02*
D03*
X4179890Y7010360D02*
D03*
X4126160Y6653490D02*
D03*
X4181100Y6653950D02*
D03*
X4263762Y6917753D02*
D03*
X4288600Y6653950D02*
D03*
X4126160Y6817320D02*
D03*
X4288600Y6817780D02*
D03*
X4126745Y7010360D02*
D03*
X4073600Y6653950D02*
D03*
X4235380Y6816340D02*
D03*
X4233035Y6961380D02*
D03*
X4073600Y6817780D02*
D03*
X4235380Y6761730D02*
D03*
X3745320Y6248360D02*
D03*
X3862000Y6457460D02*
D03*
X13510620Y6549621D02*
D03*
X6493200Y6924240D02*
D03*
X3400760Y7026080D02*
D03*
X3224460Y7760140D02*
D03*
Y8019220D02*
D03*
Y7888120D02*
D03*
X3478460Y7727221D02*
D03*
Y7596120D02*
D03*
Y7468141D02*
D03*
X5637460Y7310080D02*
D03*
X13328120Y6367121D02*
D03*
X13185136Y6418540D02*
D03*
X13219360Y6327100D02*
D03*
X13430620Y6549621D02*
D03*
X13831798Y6263287D02*
D03*
X13733121Y6247121D02*
D03*
X13889920Y6299160D02*
D03*
X13919620Y6377280D02*
D03*
X13431261Y6144621D02*
D03*
X13510620D02*
D03*
X12315120Y6057860D02*
D03*
X13550620Y6064058D02*
D03*
X13470621Y6079620D02*
D03*
X13995621Y6114620D02*
D03*
X13328120Y6286521D02*
D03*
X13145700Y6461720D02*
D03*
X11639480Y6454100D02*
D03*
X11586793Y6454580D02*
D03*
X12933121Y6510780D02*
D03*
X12175620Y6332120D02*
D03*
X13585120Y6238200D02*
D03*
X5434260Y6017220D02*
D03*
X5518080Y6014620D02*
D03*
X5312340Y6060400D02*
D03*
X4602768Y6916380D02*
D03*
X4603970Y7020520D02*
D03*
X3745160Y6347681D02*
D03*
X3862000Y6369460D02*
D03*
X3361620Y6254341D02*
D03*
X5032940Y6324560D02*
D03*
X5079776Y6802080D02*
D03*
X4921180D02*
D03*
X4553700Y6212120D02*
D03*
X4465700D02*
D03*
X5533320Y6598880D02*
D03*
X5617140Y6857880D02*
D03*
X5741600Y7037503D02*
D03*
X5599360Y6934160D02*
D03*
X5922100Y7035756D02*
D03*
X7057320Y7658060D02*
D03*
X14423120Y7270484D02*
D03*
X6688480Y7538120D02*
D03*
X6569640Y7537860D02*
D03*
X8075860Y6212800D02*
D03*
X8191363Y6385130D02*
D03*
X6871900Y6352060D02*
D03*
X5154859Y6128979D02*
D03*
X5690800Y6290500D02*
D03*
X10082280Y6556606D02*
D03*
X10024040Y6556930D02*
D03*
X8783600Y6222960D02*
D03*
X7621440Y6095964D02*
D03*
X14840327Y7216746D02*
D03*
X5429180Y7284680D02*
D03*
X4789100Y7413300D02*
D03*
X4801800Y6553160D02*
D03*
X3754968Y6615293D02*
D03*
Y6687780D02*
D03*
X3972300Y7477921D02*
D03*
X3796277Y6807160D02*
D03*
X3877368Y6720800D02*
D03*
X3795124D02*
D03*
X3878510Y6807160D02*
D03*
X3754968Y6769060D02*
D03*
X14890771Y6343200D02*
D03*
X14693272D02*
D03*
X14890771Y6503200D02*
D03*
X14693272D02*
D03*
X10753260Y7305019D02*
D03*
X10656500Y7213022D02*
D03*
X10849540D02*
D03*
X10753260D02*
D03*
X10656662Y7122120D02*
D03*
X10656799Y7304232D02*
D03*
X10753172Y7122120D02*
D03*
X10849540Y7304232D02*
D03*
Y7122120D02*
D03*
X11025726Y7013180D02*
D03*
Y6853180D02*
D03*
X10765420Y6841400D02*
D03*
X10105320Y6843722D02*
D03*
X10433509Y6843718D02*
D03*
X11385480Y6345561D02*
D03*
X15283272Y6504416D02*
D03*
Y6344416D02*
D03*
X15088272Y6504416D02*
D03*
Y6344416D02*
D03*
X13072040Y6504900D02*
D03*
X10178980Y7264652D02*
D03*
X10235040Y7161730D02*
D03*
Y7213516D02*
D03*
X10178980Y7212866D02*
D03*
X10120740Y7213191D02*
D03*
Y7161406D02*
D03*
X10064680Y7109295D02*
D03*
Y7212866D02*
D03*
X11162468Y7325008D02*
D03*
Y7376794D02*
D03*
Y7273223D02*
D03*
X11218528Y7273872D02*
D03*
Y7222086D02*
D03*
X11048168Y7273223D02*
D03*
Y7169652D02*
D03*
X11104228Y7221762D02*
D03*
Y7273547D02*
D03*
X10120740Y7264977D02*
D03*
X10064680Y7264652D02*
D03*
X10235040Y7265301D02*
D03*
X10064680Y7161081D02*
D03*
X10235040Y7109945D02*
D03*
X10120740Y7109620D02*
D03*
X10235040Y7317087D02*
D03*
X10178980Y7161081D02*
D03*
Y7109295D02*
D03*
X11218528Y7170301D02*
D03*
Y7377443D02*
D03*
X11162468Y7221437D02*
D03*
Y7169652D02*
D03*
X11104228Y7169976D02*
D03*
X11048168Y7221437D02*
D03*
X11104228Y7377118D02*
D03*
X11048168Y7376794D02*
D03*
X11218528Y7325657D02*
D03*
X11104228Y7325333D02*
D03*
X11048168Y7325008D02*
D03*
X10138340Y6556930D02*
D03*
X10310880D02*
D03*
X13585699Y6402201D02*
D03*
X13631261Y6549621D02*
D03*
X13585699Y6457121D02*
D03*
X13530620Y6402201D02*
D03*
X13644666Y6835797D02*
D03*
X12490072Y6127120D02*
D03*
X12933121Y6294080D02*
D03*
X12625072Y6127120D02*
D03*
X12056313Y6126440D02*
D03*
X13488260Y6828554D02*
D03*
X13475900Y6237121D02*
D03*
X13420020Y6291960D02*
D03*
X13475659Y6291000D02*
D03*
X13530620Y6292041D02*
D03*
X13475540Y6347121D02*
D03*
X12933121Y6640780D02*
D03*
X14516785Y6605241D02*
D03*
X14516801Y6449233D02*
D03*
X14839346Y7314652D02*
D03*
X12747620Y7269120D02*
D03*
X12098620Y7924620D02*
D03*
X12104540Y6891642D02*
D03*
X12016540D02*
D03*
X12105120Y6782742D02*
D03*
X12017120D02*
D03*
X14476480Y7746960D02*
D03*
Y7492960D02*
D03*
X14476660Y7619960D02*
D03*
X14476480Y7810840D02*
D03*
Y7683840D02*
D03*
Y7556840D02*
D03*
Y7429840D02*
D03*
X14404120Y7812484D02*
D03*
Y7685484D02*
D03*
Y7558484D02*
D03*
Y7431484D02*
D03*
X12584540Y7496856D02*
D03*
Y7750856D02*
D03*
X12584360Y7623856D02*
D03*
X12584540Y7432976D02*
D03*
Y7559976D02*
D03*
Y7686976D02*
D03*
Y7813976D02*
D03*
X12318120Y6784880D02*
D03*
X12572120D02*
D03*
X12445120Y6785060D02*
D03*
X12254240Y6784880D02*
D03*
X12381240D02*
D03*
X12508240D02*
D03*
X12635240D02*
D03*
X14486819Y6784120D02*
D03*
X14740820D02*
D03*
X14613820Y6784300D02*
D03*
X14422940Y6784120D02*
D03*
X14549940D02*
D03*
X14676939D02*
D03*
X14803940D02*
D03*
X14804120Y6715484D02*
D03*
X14677119D02*
D03*
X14550121D02*
D03*
X14423120D02*
D03*
X12635620Y6714620D02*
D03*
X12508620D02*
D03*
X12381620D02*
D03*
X12254620D02*
D03*
X12318119Y7060980D02*
D03*
X12572119D02*
D03*
X12445119Y7061160D02*
D03*
X12254239Y7060980D02*
D03*
X12381239D02*
D03*
X12508239D02*
D03*
X12635239D02*
D03*
X14486121Y7116860D02*
D03*
X14740120D02*
D03*
X14613120Y7117040D02*
D03*
X14422240Y7116860D02*
D03*
X14549240D02*
D03*
X14676241D02*
D03*
X14803239D02*
D03*
X14486620Y6948804D02*
D03*
X14740620D02*
D03*
X14613620Y6948984D02*
D03*
X14422740Y6948804D02*
D03*
X14549741D02*
D03*
X14676740D02*
D03*
X14803740D02*
D03*
X12572120Y6948301D02*
D03*
X12318120D02*
D03*
X12445120Y6948120D02*
D03*
X12636000Y6948301D02*
D03*
X12509000D02*
D03*
X12382000D02*
D03*
X12255000D02*
D03*
X14804500Y7495984D02*
D03*
Y7749984D02*
D03*
X14804320Y7622984D02*
D03*
X14804500Y7432104D02*
D03*
Y7559104D02*
D03*
Y7686104D02*
D03*
Y7813104D02*
D03*
X14637801Y7494984D02*
D03*
Y7748984D02*
D03*
X14637621Y7621984D02*
D03*
X14637801Y7431104D02*
D03*
Y7558104D02*
D03*
Y7685104D02*
D03*
Y7812104D02*
D03*
X12419800Y7495120D02*
D03*
Y7749120D02*
D03*
X12419620Y7622120D02*
D03*
X12419800Y7431240D02*
D03*
Y7558240D02*
D03*
Y7685240D02*
D03*
Y7812240D02*
D03*
X12249260Y7495500D02*
D03*
Y7749500D02*
D03*
X12249080Y7622500D02*
D03*
X12249260Y7431620D02*
D03*
Y7558620D02*
D03*
Y7685620D02*
D03*
Y7812620D02*
D03*
X12653120D02*
D03*
Y7685620D02*
D03*
Y7558620D02*
D03*
Y7431620D02*
D03*
X12098120D02*
D03*
X12254620Y7269620D02*
D03*
X15906860Y6092121D02*
D03*
X16066859Y6092120D02*
D03*
X14740480Y6127120D02*
D03*
X14802119Y6127425D02*
D03*
X14862120D02*
D03*
X14922121D02*
D03*
X14982120D02*
D03*
X15366000Y6128409D02*
D03*
X15425999D02*
D03*
X15486000D02*
D03*
X15546001D02*
D03*
X14740480Y6062120D02*
D03*
X14680479Y6127120D02*
D03*
X14802119Y6062425D02*
D03*
X14862120D02*
D03*
X14922121D02*
D03*
X14982120D02*
D03*
X15366000Y6063409D02*
D03*
X15425999D02*
D03*
X15486000D02*
D03*
X15546001D02*
D03*
X15779680Y6544647D02*
D03*
Y6487120D02*
D03*
Y6602174D02*
D03*
Y6659700D02*
D03*
X3025771Y6614120D02*
D03*
Y6670401D02*
D03*
X5815260Y6424779D02*
D03*
Y6675080D02*
D03*
X5815620Y6603820D02*
D03*
Y6493820D02*
D03*
X6092120Y6517600D02*
D03*
Y6581100D02*
D03*
X3412420Y6886082D02*
D03*
X3270588Y6460001D02*
D03*
X9230476Y6382980D02*
D03*
X7680620Y7150038D02*
D03*
X16196240Y6547147D02*
D03*
Y6489621D02*
D03*
Y6604674D02*
D03*
Y6662201D02*
D03*
X11822360Y6999307D02*
D03*
Y6941780D02*
D03*
Y7056834D02*
D03*
Y7114360D02*
D03*
X11400720Y7111960D02*
D03*
X16259271Y6138256D02*
D03*
Y6340756D02*
D03*
X15390620Y7077120D02*
D03*
X15198120Y7077984D02*
D03*
X15005620Y7077120D02*
D03*
X16387621Y6109620D02*
D03*
Y6169620D02*
D03*
X16452620Y6109620D02*
D03*
Y6169620D02*
D03*
X16386740Y6311901D02*
D03*
Y6371900D02*
D03*
X16451740Y6311901D02*
D03*
Y6371900D02*
D03*
X14958121Y7686484D02*
D03*
Y7559484D02*
D03*
Y7432484D02*
D03*
X15390620Y7237120D02*
D03*
X15198120Y7237984D02*
D03*
X15005620Y7237120D02*
D03*
X14804120Y7270484D02*
D03*
X14677119D02*
D03*
X14550121D02*
D03*
X13475540Y6403300D02*
D03*
X13475620Y6456697D02*
D03*
X13420358Y6403300D02*
D03*
X10678650Y7540867D02*
D03*
X11678134Y7536841D02*
D03*
X13641000Y6291540D02*
D03*
X13586842D02*
D03*
X13641000Y6403300D02*
D03*
X13585699Y6347121D02*
D03*
X11483378Y7913280D02*
D03*
X11382413D02*
D03*
X11281448D02*
D03*
X11180483D02*
D03*
X11079518D02*
D03*
X10978553D02*
D03*
X10877588D02*
D03*
X10776623D02*
D03*
X10675658D02*
D03*
X11483378Y7987056D02*
D03*
X11382413D02*
D03*
X11281448D02*
D03*
X11180483D02*
D03*
X11079518D02*
D03*
X10978553D02*
D03*
X10877588D02*
D03*
X10776623D02*
D03*
X10675658D02*
D03*
X11479905Y7537984D02*
D03*
X11278834D02*
D03*
X11077763D02*
D03*
X11217840Y7012120D02*
D03*
X10876692Y7537984D02*
D03*
X11400720Y7054434D02*
D03*
Y6939380D02*
D03*
Y6996907D02*
D03*
X5235664Y6733800D02*
D03*
X5027860D02*
D03*
X5167560Y6591260D02*
D03*
X3970680Y6405181D02*
D03*
X4870380Y7182746D02*
D03*
X5095698Y7183080D02*
D03*
X4374620Y7220120D02*
D03*
X8430822Y6452440D02*
D03*
Y6619620D02*
D03*
X8325620Y6858038D02*
D03*
X8003120D02*
D03*
X7680620D02*
D03*
X9818300Y6789620D02*
D03*
Y6853036D02*
D03*
Y6918920D02*
D03*
X9602400Y6786840D02*
D03*
X9601130Y6918920D02*
D03*
X9602400Y6853036D02*
D03*
X9710620Y6786840D02*
D03*
X9710621Y6918920D02*
D03*
X9710620Y6853036D02*
D03*
X8590822Y6978120D02*
D03*
X8801400Y6977660D02*
D03*
Y6845060D02*
D03*
X8590822Y6845580D02*
D03*
X8695400D02*
D03*
Y6977660D02*
D03*
X8801400Y6913036D02*
D03*
X8590822D02*
D03*
X8695401Y6912120D02*
D03*
X11217840Y6852120D02*
D03*
X12134780Y7620530D02*
D03*
X12053500D02*
D03*
X12134780Y7749500D02*
D03*
X12139860Y7870435D02*
D03*
X12698120Y7243116D02*
D03*
Y7299290D02*
D03*
X12570620Y7241500D02*
D03*
Y7299290D02*
D03*
X13945140Y7617080D02*
D03*
Y7497080D02*
D03*
Y7437080D02*
D03*
Y7557080D02*
D03*
X13880141D02*
D03*
Y7497080D02*
D03*
Y7617080D02*
D03*
Y7437080D02*
D03*
X13187840Y7617080D02*
D03*
Y7497080D02*
D03*
Y7437080D02*
D03*
Y7557080D02*
D03*
X13122839D02*
D03*
Y7497080D02*
D03*
Y7617080D02*
D03*
Y7437080D02*
D03*
X9235620Y7284620D02*
D03*
X10293280Y7264977D02*
D03*
Y7109620D02*
D03*
Y7316762D02*
D03*
Y7213191D02*
D03*
Y7161406D02*
D03*
X10006440Y7109620D02*
D03*
Y7213191D02*
D03*
Y7264977D02*
D03*
Y7161406D02*
D03*
X8416220Y6271220D02*
D03*
X8668600Y6222960D02*
D03*
X8533060Y6271220D02*
D03*
X10196580Y6401249D02*
D03*
X10082280D02*
D03*
Y6453035D02*
D03*
X10024040Y6401574D02*
D03*
X10310880D02*
D03*
X10138340D02*
D03*
X9319620Y6354621D02*
D03*
X10252640Y6401898D02*
D03*
X9031620Y6354621D02*
D03*
X9570869Y6352060D02*
D03*
X8896120Y6436020D02*
D03*
X3040310Y6029758D02*
D03*
X4720520Y7154258D02*
D03*
X3955831Y7958080D02*
D03*
X3723781Y7679477D02*
D03*
Y7959477D02*
D03*
X3837212Y6769060D02*
D03*
X3919456D02*
D03*
X3837212Y6687780D02*
D03*
X3919456D02*
D03*
X2905818Y6614120D02*
D03*
Y6671563D02*
D03*
X2966365D02*
D03*
Y6614120D02*
D03*
X10196580Y6504820D02*
D03*
X10252640Y6505469D02*
D03*
Y6557255D02*
D03*
Y6453684D02*
D03*
X10310880Y6505145D02*
D03*
Y6453359D02*
D03*
X10138340Y6505145D02*
D03*
X10196580Y6556606D02*
D03*
X10138340Y6453359D02*
D03*
X10196580Y6453035D02*
D03*
X10024040Y6505145D02*
D03*
Y6453359D02*
D03*
X10082280Y6504820D02*
D03*
X6025504Y6862660D02*
D03*
X5918776D02*
D03*
X5578120Y7714120D02*
D03*
X4556120Y7256740D02*
D03*
X3968680Y6256881D02*
D03*
X3997120Y6047120D02*
D03*
X2728020Y6230980D02*
D03*
X8629580Y6388060D02*
D03*
X8553380D02*
D03*
X8629580Y6474420D02*
D03*
X8553380D02*
D03*
X8629580Y6576020D02*
D03*
X8553380D02*
D03*
X8629580Y6662380D02*
D03*
X8553380D02*
D03*
X9739560Y7245656D02*
D03*
X9815760D02*
D03*
X9739560Y7159296D02*
D03*
X9815760D02*
D03*
X5071040Y6184860D02*
D03*
X9175621Y6804777D02*
D03*
X13733121Y6487121D02*
D03*
X14378101Y6246080D02*
D03*
X10989928Y7221762D02*
D03*
Y7377118D02*
D03*
Y7325333D02*
D03*
Y7273547D02*
D03*
Y7169976D02*
D03*
X11276768Y7221762D02*
D03*
Y7273547D02*
D03*
Y7377118D02*
D03*
Y7169976D02*
D03*
Y7325333D02*
D03*
X8256200Y6451560D02*
D03*
X9411787Y7196983D02*
D03*
X5124380Y6870660D02*
D03*
X5987980Y7424380D02*
D03*
X5530780Y6329640D02*
D03*
X4668800Y6324560D02*
D03*
X7341800Y6268301D02*
D03*
X7857120Y6349960D02*
D03*
X7142886Y7109094D02*
D03*
X7247026Y7348861D02*
D03*
X5073580Y7480841D02*
D03*
X5106600Y7426920D02*
D03*
X5225980Y7371040D02*
D03*
X3033660Y7863800D02*
D03*
X2840920Y7994900D02*
D03*
Y7735820D02*
D03*
X2647580D02*
D03*
Y7994900D02*
D03*
Y7863800D02*
D03*
X3270180Y6561060D02*
D03*
X4436040Y7522871D02*
D03*
Y7471086D02*
D03*
X4377800Y7471411D02*
D03*
Y7419625D02*
D03*
X4436040Y7419300D02*
D03*
X4377800Y7523196D02*
D03*
X3531800Y6916380D02*
D03*
X3643120Y6643445D02*
D03*
X3270180Y6649060D02*
D03*
X3033660Y7735820D02*
D03*
Y7994900D02*
D03*
X2840920Y7863800D02*
D03*
X8780360Y6322800D02*
D03*
X9175620Y6434621D02*
D03*
X9122340Y6382980D02*
D03*
X9230476Y6489660D02*
D03*
X9121517D02*
D03*
X6347599Y7929352D02*
D03*
X6233299D02*
D03*
X6118999D02*
D03*
X5578120Y7839620D02*
D03*
X5547120Y7967120D02*
D03*
X4763120Y7586620D02*
D03*
X4440620Y7714620D02*
D03*
Y7839620D02*
D03*
Y7967620D02*
D03*
X3465760Y6268680D02*
D03*
X2846000Y6289061D02*
D03*
X7989500Y7195719D02*
D03*
X8045560Y7092797D02*
D03*
Y7196368D02*
D03*
Y7248154D02*
D03*
X8103800Y7247829D02*
D03*
Y7092472D02*
D03*
Y7299615D02*
D03*
X8045560Y7299939D02*
D03*
Y7144583D02*
D03*
X8103800Y7196044D02*
D03*
Y7144258D02*
D03*
X7931260Y7092472D02*
D03*
Y7196044D02*
D03*
Y7247829D02*
D03*
X7989500Y7247504D02*
D03*
Y7092148D02*
D03*
Y7299290D02*
D03*
X7931260Y7299615D02*
D03*
Y7144258D02*
D03*
X7989500Y7143933D02*
D03*
X7816960Y7092472D02*
D03*
Y7196044D02*
D03*
Y7247829D02*
D03*
X7875200Y7247504D02*
D03*
Y7092148D02*
D03*
Y7299290D02*
D03*
X7816960Y7299615D02*
D03*
Y7144258D02*
D03*
X7875200Y7195719D02*
D03*
Y7143933D02*
D03*
X3910440Y7340885D02*
D03*
X3968680Y7236989D02*
D03*
X3910440Y7237314D02*
D03*
Y7289099D02*
D03*
X3968680Y7288775D02*
D03*
Y7340560D02*
D03*
X3640320Y7124660D02*
D03*
X3025771Y7094180D02*
D03*
X2966365D02*
D03*
Y7027161D02*
D03*
X2906960D02*
D03*
Y7094180D02*
D03*
X3025771Y7027161D02*
D03*
X15401221Y6901140D02*
D03*
X15336220D02*
D03*
X15071021D02*
D03*
X15006020D02*
D03*
Y6721141D02*
D03*
X15071021D02*
D03*
X15336220D02*
D03*
X15401221D02*
D03*
X5934640Y7483306D02*
D03*
X4278380Y7366438D02*
D03*
Y7418223D02*
D03*
X4220140Y7366763D02*
D03*
X4138860D02*
D03*
Y7418548D02*
D03*
X4080620Y7367087D02*
D03*
X4220140Y7522119D02*
D03*
X4278380Y7521794D02*
D03*
Y7470009D02*
D03*
X4220140Y7470334D02*
D03*
X4080620Y7522444D02*
D03*
X4138860Y7522119D02*
D03*
X6377100Y7625756D02*
D03*
X4220140Y7159620D02*
D03*
Y7211406D02*
D03*
Y7263191D02*
D03*
Y7314977D02*
D03*
Y7418548D02*
D03*
X4278380Y7314652D02*
D03*
Y7262867D02*
D03*
Y7211081D02*
D03*
Y7159296D02*
D03*
X4138860Y7159620D02*
D03*
Y7211406D02*
D03*
Y7263191D02*
D03*
Y7314977D02*
D03*
Y7470334D02*
D03*
X3712880Y6720800D02*
D03*
X4080620Y7470658D02*
D03*
Y7418873D02*
D03*
Y7315302D02*
D03*
Y7263516D02*
D03*
Y7211731D02*
D03*
Y7159945D02*
D03*
X5923341Y6774313D02*
D03*
X3640320Y6273421D02*
D03*
X9250620Y6709620D02*
D03*
X9465940Y6468680D02*
D03*
X8792900Y6687445D02*
D03*
X14998039Y7494620D02*
D03*
Y7371920D02*
D03*
X14925620Y7494620D02*
D03*
Y7371920D02*
D03*
X14998039Y7622120D02*
D03*
X14925620D02*
D03*
X14998039Y7747120D02*
D03*
X14925620Y7749620D02*
D03*
X14740581Y7242220D02*
D03*
Y7316344D02*
D03*
X14613120Y7242220D02*
D03*
Y7314620D02*
D03*
X14486819Y7242220D02*
D03*
X14488080Y7314620D02*
D03*
X12508620Y7269620D02*
D03*
X12381620D02*
D03*
X12445120Y7299939D02*
D03*
X12635620Y7269620D02*
D03*
X12445120Y7242220D02*
D03*
X12098120Y7685620D02*
D03*
Y7812620D02*
D03*
X6160900Y6241147D02*
D03*
X5937504Y6450959D02*
D03*
X14005260Y7437080D02*
D03*
Y7617080D02*
D03*
Y7497080D02*
D03*
Y7557080D02*
D03*
X14070261D02*
D03*
Y7437080D02*
D03*
Y7497080D02*
D03*
Y7617080D02*
D03*
X12993300Y7437080D02*
D03*
Y7617080D02*
D03*
Y7497080D02*
D03*
Y7557080D02*
D03*
X13058299D02*
D03*
Y7437080D02*
D03*
Y7497080D02*
D03*
Y7617080D02*
D03*
X14560480Y6062120D02*
D03*
X14680479D02*
D03*
X14620480D02*
D03*
Y6127120D02*
D03*
X14560480D02*
D03*
X15336220Y6781141D02*
D03*
Y6841140D02*
D03*
X15401221D02*
D03*
Y6781141D02*
D03*
X15006020D02*
D03*
Y6841140D02*
D03*
X15071021D02*
D03*
Y6781141D02*
D03*
X12098120Y7558620D02*
D03*
X12056040Y7870435D02*
D03*
X12053500Y7749500D02*
D03*
X9615620Y7202120D02*
D03*
X12933121Y6137425D02*
D03*
X12171729Y6127120D02*
D03*
X14378119Y6368441D02*
D03*
X12173120Y6247120D02*
D03*
X6025504Y6774660D02*
D03*
X6394080Y6813800D02*
D03*
X6444080Y6888760D02*
D03*
X6247100Y7035756D02*
D03*
X6183260Y7035177D02*
D03*
X6310260Y6929400D02*
D03*
X6688464Y7198723D02*
D03*
X13530620Y6347121D02*
D03*
X6182100Y7625756D02*
D03*
X5857100Y7623856D02*
D03*
X6284080Y6683800D02*
D03*
X6394080D02*
D03*
X6504080D02*
D03*
X6284080Y6573800D02*
D03*
X6394080D02*
D03*
X6504080D02*
D03*
X6284080Y6463800D02*
D03*
X6394080D02*
D03*
X6504080D02*
D03*
D94*
X2588200Y6724098D02*
D03*
Y6994098D02*
D03*
X2953200Y7199098D02*
D03*
Y6519098D02*
D03*
D95*
X3448120Y6594620D02*
D03*
Y7229620D02*
D03*
%TF.MD5,0631aa496c74efbc63678a13e9fb8a51*%
M02*
