M48
;Layer_Color=9474304
;FILE_FORMAT=2:5
INCH,TZ
;TYPE=PLATED
T1F00S00C0.00800
T2F00S00C0.01200
T3F00S00C0.01600
T4F00S00C0.02362
T6F00S00C0.03000
T7F00S00C0.03937
T8F00S00C0.04016
T9F00S00C0.05906
T10F00S00C0.07874
;TYPE=NON_PLATED
T11F00S00C0.03543
T12F00S00C0.05000
T14F00S00C0.09350
%
T01
X71400Y68967
Y71303
X77936Y73268
Y78810
X83000Y78300
Y73769
X89600Y72174
X92041Y72178
X94663Y72174
Y76269
X98600
X100568Y76237
X102537Y76269
X100568Y78237
Y80206
X98600
X96631
Y82174
X94663Y80206
X90300Y82668
X87600Y82500
X85000Y82400
X79200Y88800
X75672
X77900Y93900
X76600Y98100
X83500Y93800
X91158Y93200
X95858
X100568Y93232
Y89768
X98600Y86674
X102537Y82174
X107258Y79335
Y75032
Y71568
Y63768
X96631Y64068
X101080Y69202
X80122Y68168
X66342Y85083
X68788Y114012
X73800Y114079
X78930Y114184
X107300Y90581
X123266Y103100
X143059Y106941
X145618
X148200Y109800
X150736Y112100
X148547Y118771
X153047
X155854Y107016
X150736Y89664
Y83787
X155854
X143059Y83764
X145875Y74473
X150375
X154751Y71505
Y69537
Y67568
X153900Y65569
X154800Y63600
X146225Y60764
Y68416
X138800Y69659
X159869Y69931
X164200
X168531
Y65600
X164200
X159869
Y61269
X164200
X168531
X168150Y56200
X170150
X173649Y59694
X168137Y75049
X164200
X160900Y79600
X158413Y83787
X168600Y81500
X171800Y88568
Y92032
X171700Y102041
X171748Y107237
X190575Y102599
X192150Y99989
Y95147
X201589Y95889
X218300Y92500
X218295Y89260
X237400Y99743
X241600Y72191
X251700Y55564
X256700Y55000
X286109Y57200
X286600Y118100
X289500
X292500
X275100Y116809
X272600
X270100
X208526Y116362
X157547Y118771
X348900Y109643
X354842Y108500
X360157
X366256Y106484
X372100Y106442
X378000Y106484
X385500Y107959
X385611Y102800
X393100Y102659
X399000
X398600Y107600
X398500Y110600
X392075Y109175
X389300Y116312
X383300Y116214
X395300Y121529
X401400
X405550Y109600
X412350
X412400Y101900
X405550
X404900Y95700
X409000Y96900
X410279Y93000
X413900Y87300
Y84000
Y80800
Y78500
X415799Y76201
X416800Y82400
X416900Y85675
X419700Y89100
X422900Y87500
X406858Y86043
X402528
Y81713
Y77480
X406858Y77382
Y81713
X398197
Y86043
X391600Y87300
X389885Y85700
X388200Y80700
X383800Y82466
X380541Y80503
X376500Y72700
X365503Y72835
Y76300
X361000Y72835
X360059Y89260
X354941
X354842Y95425
X360059Y95406
X366200Y93900
X372338
Y99357
X382600Y96200
X391200Y75500
X393000Y71100
X395500Y63335
X390142Y63324
X375424Y57554
X371240
X360428Y54200
X354882Y102008
X354941Y115000
X398197Y77382
X407224Y69900
X411000Y70600
X412757Y65658
X418900Y70600
X424267Y71200
X426000Y57700
X428400
X430800
X433200
X435291Y52103
Y45803
X443291
Y52103
X451291
X450791Y57700
X448391
X445991
X453191
X459291Y52103
Y45803
X467291
Y52103
X451291Y45803
X427291
Y52103
X419500Y52200
Y45800
X418000Y41600
X436300Y64500
X439903Y80503
X440000Y86400
X440888Y94700
Y96900
X440900Y99000
X438100
X438088Y96900
Y94700
X449100
X449112Y96900
X449100Y99000
X451700
X451688Y96900
Y94700
X456700Y91300
X460100Y91200
X461391Y86065
Y76269
X458400Y78700
X465800Y93651
X468300
X470800Y93650
X473300
X491479Y97400
Y102400
X495613Y102735
Y107065
Y111396
X499944
X504275
Y107065
X499944
Y102735
X504275
Y98404
X499944
X495613
X491479Y107400
Y112400
X507142Y119700
X521200Y122508
X522204Y112075
Y107744
Y103413
X526535
Y107744
Y112075
X530865
Y107744
Y103413
X535196
Y107744
Y112075
X536200Y99279
X531200
X526200
X521200
X521364Y92404
Y86105
Y78900
Y72601
X521300Y66120
X526300
X526635Y61987
X530965
X535296
Y57656
Y53325
X530965
Y57656
X526635
Y53325
X522304
Y57656
Y61987
X531300Y66120
X536300
X537355Y72601
Y78900
X537364Y86105
Y92404
X529364
Y86105
X529355Y78900
Y72601
X514500Y73000
X503975Y71996
X499644
X495313
Y67665
X499644
X503975
Y63335
X499644
X495313
Y59004
X499644
X503975
X502100Y50000
Y46535
X507043Y43700
X512358
X512257Y50000
X506943
X501700Y76100
X508700Y95345
X485300Y64226
Y61900
X481300Y61936
Y64226
X475291Y52103
Y45803
X563650Y56839
Y61831
Y66799
X569000
Y61831
Y56862
X574350Y56839
Y61831
Y66799
X582358Y48600
X574350Y98201
Y103169
Y108138
X569000
Y103169
Y98201
X563650
Y103169
Y108138
X582500Y116100
T02
X63800Y68902
X66342
X68900Y68900
X68890Y87484
X66342
X63800
X514704Y97396
X514708Y102300
Y107400
X526200Y122508
X531200
X536200
X514408Y68000
Y63000
Y58000
X521300Y42892
X526300
X531300
T03
X441100Y60600
T04
X45672Y72878
Y83508
X60043Y91579
Y64807
T06
X172900Y117200
X181700
X190000
X299778Y63586
X315526Y63400
X326700Y43800
X380886Y56950
T07
X45800Y107744
Y119300
X58400Y119196
Y107744
X137500Y45803
X253400Y95700
T08
X429089Y113800
X440900
X452711
X464522
T09
X484600Y118300
T10
X47600Y47600
X394792Y47700
T11
X184000Y95800
X204000Y99800
Y91800
T12
X417278Y121517
X476333
T14
X184000Y85800
X196500
Y105800
X184000
M30
