G04*
G04 #@! TF.GenerationSoftware,Altium Limited,Altium Designer,19.0.15 (446)*
G04*
G04 Layer_Color=255*
%FSLAX25Y25*%
%MOIN*%
G70*
G01*
G75*
%ADD109C,0.09350*%
%ADD110C,0.03347*%
%ADD111O,0.09055X0.07874*%
%ADD114C,0.01800*%
G04:AMPARAMS|DCode=127|XSize=39.37mil|YSize=90.55mil|CornerRadius=19.68mil|HoleSize=0mil|Usage=FLASHONLY|Rotation=270.000|XOffset=0mil|YOffset=0mil|HoleType=Round|Shape=RoundedRectangle|*
%AMROUNDEDRECTD127*
21,1,0.03937,0.05118,0,0,270.0*
21,1,0.00000,0.09055,0,0,270.0*
1,1,0.03937,-0.02559,0.00000*
1,1,0.03937,-0.02559,0.00000*
1,1,0.03937,0.02559,0.00000*
1,1,0.03937,0.02559,0.00000*
%
%ADD127ROUNDEDRECTD127*%
%ADD128C,0.05984*%
%ADD129C,0.05000*%
%ADD130R,0.05984X0.05984*%
%ADD131C,0.06000*%
%ADD132C,0.09843*%
%ADD133C,0.11811*%
D109*
X184000Y85800D02*
D03*
X196500D02*
D03*
Y105800D02*
D03*
X184000D02*
D03*
D110*
Y95800D02*
D03*
X204000Y99800D02*
D03*
Y91800D02*
D03*
D111*
X122282Y117055D02*
D03*
Y48945D02*
D03*
D114*
X406858Y86043D02*
D03*
Y77382D02*
D03*
X398197Y86043D02*
D03*
Y77382D02*
D03*
X402528Y86043D02*
D03*
X406858Y81713D02*
D03*
X398197D02*
D03*
X402528Y77480D02*
D03*
D127*
X62602Y96500D02*
D03*
X50200D02*
D03*
X62602Y59886D02*
D03*
X50200D02*
D03*
D128*
X464522Y113800D02*
D03*
X452711D02*
D03*
X440900D02*
D03*
D129*
X476333Y121517D02*
D03*
X417278D02*
D03*
D130*
X429089Y113800D02*
D03*
D131*
X380886Y56950D02*
D03*
X326700Y43800D02*
D03*
X315526Y63400D02*
D03*
X137500Y45803D02*
D03*
X299778Y63586D02*
D03*
X45800Y107744D02*
D03*
Y119300D02*
D03*
X58400Y119196D02*
D03*
X253400Y95700D02*
D03*
X58400Y107744D02*
D03*
X190000Y117200D02*
D03*
X181700D02*
D03*
X172900D02*
D03*
D132*
X47600Y47600D02*
D03*
X484600Y118300D02*
D03*
D133*
X394792Y47700D02*
D03*
M02*
