G04*
G04 #@! TF.GenerationSoftware,Altium Limited,Altium Designer,19.0.15 (446)*
G04*
G04 Layer_Color=8421504*
%FSLAX25Y25*%
%MOIN*%
G70*
G01*
G75*
%ADD19R,0.03937X0.02362*%
%ADD20R,0.03937X0.01181*%
%ADD21R,0.03740X0.03347*%
%ADD22R,0.05512X0.05118*%
%ADD23R,0.07087X0.05118*%
%ADD24R,0.03937X0.03543*%
%ADD25R,0.06496X0.04724*%
%ADD26R,0.07087X0.19685*%
%ADD27R,0.02362X0.05512*%
%ADD28R,0.02362X0.07087*%
%ADD29R,0.09843X0.06693*%
%ADD30R,0.02362X0.02953*%
%ADD31R,0.08465X0.09646*%
%ADD32R,0.13780X0.09252*%
%ADD33O,0.01772X0.05512*%
%ADD34O,0.00787X0.02756*%
%ADD35O,0.02756X0.00787*%
%ADD36R,0.11811X0.11811*%
%ADD37C,0.01024*%
%ADD38R,0.03740X0.02559*%
%ADD39R,0.02953X0.02362*%
%ADD40R,0.02520X0.02362*%
%ADD41R,0.05118X0.05512*%
%ADD42O,0.05512X0.01968*%
%ADD43O,0.03937X0.01968*%
%ADD44R,0.03543X0.03937*%
%ADD45R,0.09646X0.10039*%
%ADD46R,0.03347X0.03740*%
%ADD47O,0.01968X0.05512*%
%ADD48O,0.01968X0.03937*%
%ADD49R,0.04724X0.06496*%
%ADD50R,0.19685X0.17717*%
%ADD51R,0.01575X0.02756*%
%ADD52R,0.03543X0.03150*%
%ADD53R,0.02362X0.02520*%
%ADD54R,0.04724X0.04724*%
%ADD55O,0.03740X0.01181*%
%ADD56O,0.01181X0.03740*%
%ADD57R,0.13189X0.13189*%
%ADD58R,0.05118X0.07087*%
%ADD59R,0.03740X0.03543*%
G36*
X536968Y102395D02*
X536974Y102264D01*
X537026Y102005D01*
X537126Y101762D01*
X537273Y101543D01*
X537361Y101445D01*
Y100264D01*
X520039D01*
Y101445D01*
X520039D01*
X520127Y101543D01*
X520274Y101762D01*
X520374Y102005D01*
X520426Y102264D01*
X520432Y102395D01*
Y114437D01*
X536968D01*
Y102395D01*
D02*
G37*
G36*
X493743Y113473D02*
X493962Y113326D01*
X494205Y113226D01*
X494464Y113174D01*
X494595Y113168D01*
X506637D01*
Y96632D01*
X494595D01*
X494464Y96626D01*
X494205Y96574D01*
X493962Y96474D01*
X493743Y96327D01*
X493645Y96239D01*
X492464Y96239D01*
Y113561D01*
X493645D01*
X493743Y113473D01*
D02*
G37*
G36*
X227940Y105183D02*
Y97703D01*
X225381Y95144D01*
X223019D01*
X220460Y97703D01*
Y105183D01*
X223019Y107743D01*
X225381D01*
X227940Y105183D01*
D02*
G37*
G36*
X493443Y74073D02*
X493662Y73926D01*
X493905Y73826D01*
X494164Y73774D01*
X494295Y73768D01*
X506337D01*
Y57232D01*
X494295D01*
X494164Y57226D01*
X493905Y57174D01*
X493662Y57074D01*
X493443Y56927D01*
X493345Y56839D01*
X492164Y56839D01*
Y74161D01*
X493345D01*
X493443Y74073D01*
D02*
G37*
G36*
X537461Y63955D02*
Y63955D01*
X537373Y63857D01*
X537226Y63638D01*
X537126Y63395D01*
X537074Y63136D01*
X537068Y63005D01*
Y50963D01*
X520532D01*
Y63005D01*
X520526Y63136D01*
X520474Y63395D01*
X520374Y63638D01*
X520227Y63857D01*
X520139Y63955D01*
X520139Y65136D01*
X537461D01*
Y63955D01*
D02*
G37*
D19*
X66342Y90634D02*
D03*
Y87484D02*
D03*
Y68902D02*
D03*
Y65752D02*
D03*
D20*
Y85083D02*
D03*
Y83114D02*
D03*
Y81146D02*
D03*
Y79177D02*
D03*
Y77209D02*
D03*
Y75240D02*
D03*
Y73272D02*
D03*
Y71303D02*
D03*
D21*
X138800Y69659D02*
D03*
Y64541D02*
D03*
X366142Y93782D02*
D03*
Y98900D02*
D03*
X393100Y97541D02*
D03*
Y102659D02*
D03*
X401705Y67959D02*
D03*
Y62841D02*
D03*
X384057Y67859D02*
D03*
Y62741D02*
D03*
X366573Y54176D02*
D03*
Y59294D02*
D03*
X389300Y121430D02*
D03*
Y116312D02*
D03*
X385500Y107959D02*
D03*
Y102841D02*
D03*
X360428Y59318D02*
D03*
Y54200D02*
D03*
X378000Y111602D02*
D03*
Y106484D02*
D03*
X366256Y106484D02*
D03*
Y111602D02*
D03*
X399000Y97541D02*
D03*
Y102659D02*
D03*
X171600Y107259D02*
D03*
Y102141D02*
D03*
D22*
X521364Y79300D02*
D03*
Y73001D02*
D03*
X483200Y80905D02*
D03*
Y87204D02*
D03*
X537355Y73001D02*
D03*
Y79300D02*
D03*
X529355Y73001D02*
D03*
Y79300D02*
D03*
X498609Y80851D02*
D03*
Y87150D02*
D03*
X490909Y80851D02*
D03*
Y87150D02*
D03*
X521364Y92404D02*
D03*
Y86105D02*
D03*
X529364Y92404D02*
D03*
Y86105D02*
D03*
X537364Y92404D02*
D03*
Y86105D02*
D03*
X506300Y80805D02*
D03*
Y87104D02*
D03*
X475291Y45803D02*
D03*
Y52103D02*
D03*
X467291Y45803D02*
D03*
Y52103D02*
D03*
X459291Y45803D02*
D03*
Y52103D02*
D03*
X451291Y45803D02*
D03*
Y52103D02*
D03*
X443291Y45803D02*
D03*
Y52103D02*
D03*
X435291Y45803D02*
D03*
Y52103D02*
D03*
X427291Y45803D02*
D03*
Y52103D02*
D03*
X419291Y45803D02*
D03*
Y52103D02*
D03*
D23*
X272600Y105391D02*
D03*
Y116809D02*
D03*
X241600Y83946D02*
D03*
Y72528D02*
D03*
D24*
X237400Y99743D02*
D03*
Y105058D02*
D03*
X372338Y93642D02*
D03*
Y98958D02*
D03*
X348900Y109643D02*
D03*
Y114957D02*
D03*
X395300Y116214D02*
D03*
Y121529D02*
D03*
X401400D02*
D03*
Y116214D02*
D03*
X383300D02*
D03*
Y121529D02*
D03*
X372100Y106442D02*
D03*
Y111758D02*
D03*
D25*
X105200Y99888D02*
D03*
Y110912D02*
D03*
X95600Y99988D02*
D03*
Y111012D02*
D03*
X86000Y99988D02*
D03*
Y111012D02*
D03*
X483300Y52088D02*
D03*
Y63112D02*
D03*
D26*
X247907Y111800D02*
D03*
X261293D02*
D03*
D27*
X230105Y90813D02*
D03*
X218295D02*
D03*
D28*
X224200Y91601D02*
D03*
D29*
X208526Y116362D02*
D03*
X224274D02*
D03*
D30*
X68800Y114000D02*
D03*
Y118528D02*
D03*
X78942Y114172D02*
D03*
Y118700D02*
D03*
X73800Y118606D02*
D03*
Y114079D02*
D03*
X251700Y55564D02*
D03*
Y51036D02*
D03*
X245900Y61322D02*
D03*
Y65850D02*
D03*
D31*
X299778Y71657D02*
D03*
Y54728D02*
D03*
X315526Y71629D02*
D03*
Y54700D02*
D03*
X289500Y118465D02*
D03*
Y101535D02*
D03*
D32*
X272619Y67202D02*
D03*
Y90824D02*
D03*
D33*
X166091Y107016D02*
D03*
X163531D02*
D03*
X160972D02*
D03*
X158413D02*
D03*
X155854D02*
D03*
X153295D02*
D03*
X150736D02*
D03*
X148177D02*
D03*
X145618D02*
D03*
X143059D02*
D03*
X166091Y83787D02*
D03*
X163531D02*
D03*
X160972D02*
D03*
X158413D02*
D03*
X155854D02*
D03*
X153295D02*
D03*
X150736D02*
D03*
X148177D02*
D03*
X145618D02*
D03*
X143059D02*
D03*
D34*
X408039Y89685D02*
D03*
X406465D02*
D03*
X404890D02*
D03*
X403315D02*
D03*
X401740D02*
D03*
X400165D02*
D03*
X398590D02*
D03*
X397016D02*
D03*
Y73740D02*
D03*
X398590D02*
D03*
X400165D02*
D03*
X401740D02*
D03*
X403315D02*
D03*
X404890D02*
D03*
X406465D02*
D03*
X408039D02*
D03*
D35*
X394555Y87224D02*
D03*
Y85650D02*
D03*
Y84075D02*
D03*
Y82500D02*
D03*
Y80925D02*
D03*
Y79350D02*
D03*
Y77776D02*
D03*
Y76201D02*
D03*
X410500D02*
D03*
Y77776D02*
D03*
Y79350D02*
D03*
Y80925D02*
D03*
Y82500D02*
D03*
Y84075D02*
D03*
Y85650D02*
D03*
Y87224D02*
D03*
D36*
X402528Y81713D02*
D03*
D37*
X102537Y74300D02*
D03*
X100568D02*
D03*
X98600D02*
D03*
X96631D02*
D03*
X94663D02*
D03*
X92694D02*
D03*
X102537Y76269D02*
D03*
X100568D02*
D03*
X98600D02*
D03*
X96631D02*
D03*
X94663D02*
D03*
X92694D02*
D03*
X102537Y78237D02*
D03*
X100568D02*
D03*
X98600D02*
D03*
X96631D02*
D03*
X94663D02*
D03*
X92694D02*
D03*
X102537Y80206D02*
D03*
X100568D02*
D03*
X98600D02*
D03*
X96631D02*
D03*
X94663D02*
D03*
X92694D02*
D03*
X102537Y82174D02*
D03*
X100568D02*
D03*
X98600D02*
D03*
X96631D02*
D03*
X94663D02*
D03*
X92694D02*
D03*
D38*
X267713Y58837D02*
D03*
Y54900D02*
D03*
Y50963D02*
D03*
X256887D02*
D03*
Y54900D02*
D03*
Y58837D02*
D03*
D39*
X361036Y80832D02*
D03*
X365564D02*
D03*
X371036Y65300D02*
D03*
X375564D02*
D03*
X75672Y83968D02*
D03*
X80200D02*
D03*
X75595Y68168D02*
D03*
X80122D02*
D03*
X161136Y51400D02*
D03*
X165664D02*
D03*
X96557Y64102D02*
D03*
X101084D02*
D03*
X96553Y69102D02*
D03*
X101080D02*
D03*
X86194Y64102D02*
D03*
X90722D02*
D03*
X86194Y69102D02*
D03*
X90722D02*
D03*
D40*
X361000Y76300D02*
D03*
Y72835D02*
D03*
X375424Y61019D02*
D03*
Y57554D02*
D03*
X502100Y50000D02*
D03*
Y46535D02*
D03*
X371240Y61019D02*
D03*
Y57554D02*
D03*
X365503Y76300D02*
D03*
Y72835D02*
D03*
X171800Y88568D02*
D03*
Y92032D02*
D03*
X107258Y79335D02*
D03*
Y82800D02*
D03*
X95858Y93200D02*
D03*
Y89736D02*
D03*
X107300Y90581D02*
D03*
Y87116D02*
D03*
X150375Y74473D02*
D03*
Y77938D02*
D03*
X145875Y74473D02*
D03*
Y77938D02*
D03*
X157547Y118771D02*
D03*
Y115307D02*
D03*
X153047Y118771D02*
D03*
Y115307D02*
D03*
X148547Y118771D02*
D03*
Y115307D02*
D03*
X100568Y89768D02*
D03*
Y93232D02*
D03*
X91158Y89736D02*
D03*
Y93200D02*
D03*
X107258Y75032D02*
D03*
Y71568D02*
D03*
Y67232D02*
D03*
Y63768D02*
D03*
D41*
X398350Y109200D02*
D03*
X392050D02*
D03*
X405550Y109600D02*
D03*
X411850D02*
D03*
X405550Y101900D02*
D03*
X411850D02*
D03*
D42*
X491180Y58000D02*
D03*
Y63000D02*
D03*
Y68000D02*
D03*
Y73000D02*
D03*
X491479Y97400D02*
D03*
Y102400D02*
D03*
Y107400D02*
D03*
Y112400D02*
D03*
D43*
X514408Y73000D02*
D03*
Y68000D02*
D03*
Y63000D02*
D03*
Y58000D02*
D03*
X514708Y112400D02*
D03*
Y107400D02*
D03*
Y102400D02*
D03*
Y97400D02*
D03*
D44*
X512257Y50000D02*
D03*
X506943D02*
D03*
X412757Y65658D02*
D03*
X407443D02*
D03*
X354842Y108500D02*
D03*
X360157D02*
D03*
X354842Y95425D02*
D03*
X360157D02*
D03*
X507043Y43700D02*
D03*
X512358D02*
D03*
X507142Y119700D02*
D03*
X512458D02*
D03*
X582358Y48600D02*
D03*
X577042D02*
D03*
X582457Y116200D02*
D03*
X577142D02*
D03*
X395458Y63324D02*
D03*
X390142D02*
D03*
D45*
X449600Y85500D02*
D03*
Y61681D02*
D03*
X429600Y85510D02*
D03*
Y61690D02*
D03*
X469600D02*
D03*
Y85510D02*
D03*
D46*
X354941Y89260D02*
D03*
X360059D02*
D03*
X354941Y115000D02*
D03*
X360059D02*
D03*
X360914Y65700D02*
D03*
X366032D02*
D03*
X360039Y101969D02*
D03*
X354921D02*
D03*
X382759Y92500D02*
D03*
X377641D02*
D03*
X385659Y86300D02*
D03*
X380541D02*
D03*
D47*
X521300Y66120D02*
D03*
X526300D02*
D03*
X531300D02*
D03*
X536300D02*
D03*
X536200Y99279D02*
D03*
X531200D02*
D03*
X526200D02*
D03*
X521200D02*
D03*
D48*
X536300Y42892D02*
D03*
X531300D02*
D03*
X526300D02*
D03*
X521300D02*
D03*
X521200Y122508D02*
D03*
X526200D02*
D03*
X531200D02*
D03*
X536200D02*
D03*
D49*
X449763Y96893D02*
D03*
X438739D02*
D03*
D50*
X569000Y61831D02*
D03*
Y103169D02*
D03*
D51*
X77936Y73268D02*
D03*
X75180D02*
D03*
X77936Y78810D02*
D03*
X75180D02*
D03*
D52*
X151537Y51900D02*
D03*
X143663Y48160D02*
D03*
Y55640D02*
D03*
D53*
X79137Y88800D02*
D03*
X75672D02*
D03*
X146225Y65264D02*
D03*
X149689D02*
D03*
X146225Y60764D02*
D03*
X149689D02*
D03*
X86490Y78368D02*
D03*
X83026D02*
D03*
X86490Y73734D02*
D03*
X83026D02*
D03*
X250868Y65700D02*
D03*
X254332D02*
D03*
D54*
X131534Y83000D02*
D03*
X123266D02*
D03*
X131534Y64500D02*
D03*
X123266D02*
D03*
X131534Y103100D02*
D03*
X123266D02*
D03*
D55*
X154751Y71505D02*
D03*
Y69537D02*
D03*
Y67568D02*
D03*
Y65600D02*
D03*
Y63631D02*
D03*
Y61663D02*
D03*
Y59694D02*
D03*
X173649D02*
D03*
Y61663D02*
D03*
Y63631D02*
D03*
Y65600D02*
D03*
Y67568D02*
D03*
Y69537D02*
D03*
Y71505D02*
D03*
D56*
X158294Y56151D02*
D03*
X160263D02*
D03*
X162232D02*
D03*
X164200D02*
D03*
X166168D02*
D03*
X168137D02*
D03*
X170106D02*
D03*
Y75049D02*
D03*
X168137D02*
D03*
X166168D02*
D03*
X164200D02*
D03*
X162232D02*
D03*
X160263D02*
D03*
X158294D02*
D03*
D57*
X164200Y65600D02*
D03*
D58*
X286109Y57200D02*
D03*
X274691D02*
D03*
D59*
X250900Y84532D02*
D03*
Y72131D02*
D03*
M02*
