G04*
G04 #@! TF.GenerationSoftware,Altium Limited,Altium Designer,19.0.15 (446)*
G04*
G04 Layer_Physical_Order=1*
G04 Layer_Color=794757*
%FSLAX25Y25*%
%MOIN*%
G70*
G01*
G75*
%ADD12C,0.02362*%
%ADD17C,0.01000*%
%ADD19R,0.03937X0.02362*%
%ADD20R,0.03937X0.01181*%
%ADD21R,0.03740X0.03347*%
%ADD22R,0.05512X0.05118*%
%ADD23R,0.07087X0.05118*%
%ADD24R,0.03937X0.03543*%
%ADD25R,0.06496X0.04724*%
%ADD26R,0.07087X0.19685*%
%ADD27R,0.02362X0.05512*%
%ADD28R,0.02362X0.07087*%
%ADD29R,0.09843X0.06693*%
%ADD30R,0.02362X0.02953*%
%ADD31R,0.08465X0.09646*%
%ADD32R,0.13780X0.09252*%
%ADD33O,0.01772X0.05512*%
%ADD34O,0.00787X0.02756*%
%ADD35O,0.02756X0.00787*%
%ADD36R,0.11811X0.11811*%
%ADD37C,0.01024*%
%ADD38R,0.03740X0.02559*%
%ADD39R,0.02953X0.02362*%
%ADD40R,0.02520X0.02362*%
%ADD41R,0.05118X0.05512*%
%ADD42O,0.05512X0.01968*%
%ADD43O,0.03937X0.01968*%
%ADD44R,0.03543X0.03937*%
%ADD45R,0.09646X0.10039*%
%ADD46R,0.03347X0.03740*%
%ADD47O,0.01968X0.05512*%
%ADD48O,0.01968X0.03937*%
%ADD49R,0.04724X0.06496*%
%ADD50R,0.19685X0.17717*%
%ADD51R,0.01575X0.02756*%
%ADD52R,0.03543X0.03150*%
%ADD53R,0.02362X0.02520*%
%ADD54R,0.04724X0.04724*%
%ADD55O,0.03740X0.01181*%
%ADD56O,0.01181X0.03740*%
%ADD57R,0.13189X0.13189*%
%ADD58R,0.05118X0.07087*%
%ADD59R,0.03740X0.03543*%
%ADD109C,0.09350*%
%ADD110C,0.03347*%
%ADD111O,0.09055X0.07874*%
%ADD114C,0.01800*%
%ADD115C,0.03150*%
%ADD116C,0.05000*%
%ADD117C,0.01500*%
%ADD118C,0.02000*%
%ADD119C,0.04000*%
%ADD120C,0.02300*%
%ADD121C,0.03900*%
%ADD122C,0.10000*%
%ADD123C,0.08000*%
%ADD124C,0.03000*%
%ADD125C,0.02500*%
%ADD126C,0.03500*%
G04:AMPARAMS|DCode=127|XSize=39.37mil|YSize=90.55mil|CornerRadius=19.68mil|HoleSize=0mil|Usage=FLASHONLY|Rotation=270.000|XOffset=0mil|YOffset=0mil|HoleType=Round|Shape=RoundedRectangle|*
%AMROUNDEDRECTD127*
21,1,0.03937,0.05118,0,0,270.0*
21,1,0.00000,0.09055,0,0,270.0*
1,1,0.03937,-0.02559,0.00000*
1,1,0.03937,-0.02559,0.00000*
1,1,0.03937,0.02559,0.00000*
1,1,0.03937,0.02559,0.00000*
%
%ADD127ROUNDEDRECTD127*%
%ADD128C,0.05984*%
%ADD129C,0.05000*%
%ADD130R,0.05984X0.05984*%
%ADD131C,0.06000*%
%ADD132C,0.09843*%
%ADD133C,0.11811*%
%ADD134C,0.02362*%
%ADD135C,0.03200*%
G36*
X539990Y124442D02*
X540257Y124053D01*
X540261Y123554D01*
Y118147D01*
X540260D01*
X540379Y117247D01*
X540726Y116408D01*
X541279Y115687D01*
X541999Y115135D01*
X542838Y114787D01*
X543644Y114681D01*
X543743Y114661D01*
X546892D01*
X546999Y114683D01*
X547792Y114787D01*
X548631Y115135D01*
X549352Y115687D01*
X549905Y116408D01*
X550252Y117247D01*
X550363Y118087D01*
X550374Y118143D01*
Y124029D01*
X550378Y124049D01*
X550378D01*
X550645Y124438D01*
X550805Y124505D01*
X550829Y124500D01*
X598467D01*
X598491Y124505D01*
X598796Y124378D01*
X598923Y124073D01*
X598918Y124049D01*
Y76300D01*
X542790D01*
X542790Y76300D01*
Y89628D01*
X542712Y90018D01*
X542491Y90349D01*
X542160Y90570D01*
X541770Y90648D01*
X540320D01*
Y95163D01*
X534408D01*
Y90648D01*
X532320D01*
Y95163D01*
X526408D01*
Y90648D01*
X524320D01*
Y95163D01*
X518408D01*
Y90648D01*
X509300D01*
Y94423D01*
X509493Y94552D01*
X509736Y94916D01*
X509822Y95345D01*
X509736Y95774D01*
X509720Y95799D01*
Y110978D01*
X510122Y111380D01*
X513118D01*
X513262Y111284D01*
X513724Y111193D01*
X515692D01*
X516154Y111284D01*
X516546Y111546D01*
X516808Y111938D01*
X516900Y112400D01*
X516808Y112862D01*
X516546Y113254D01*
X516154Y113515D01*
X515692Y113607D01*
X513724D01*
X513262Y113515D01*
X513118Y113420D01*
X509700D01*
X509300Y113850D01*
Y124500D01*
X519791D01*
X520040Y124080D01*
X519841Y123627D01*
X518608D01*
X518218Y123550D01*
X517887Y123329D01*
X515278Y120720D01*
X514429D01*
Y121869D01*
X510486D01*
Y117532D01*
X514429D01*
Y118680D01*
X515700D01*
X516090Y118758D01*
X516421Y118979D01*
X519030Y121588D01*
X519993D01*
Y121524D01*
X520084Y121062D01*
X520346Y120670D01*
X520738Y120408D01*
X521200Y120316D01*
X521662Y120408D01*
X522054Y120670D01*
X522316Y121062D01*
X522407Y121524D01*
Y123492D01*
X522316Y123954D01*
X522285Y124000D01*
X522552Y124500D01*
X524848D01*
X525115Y124000D01*
X525084Y123954D01*
X524993Y123492D01*
Y121524D01*
X525084Y121062D01*
X525346Y120670D01*
X525738Y120408D01*
X526200Y120316D01*
X526662Y120408D01*
X527054Y120670D01*
X527316Y121062D01*
X527407Y121524D01*
Y123492D01*
X527316Y123954D01*
X527285Y124000D01*
X527552Y124500D01*
X529848D01*
X530115Y124000D01*
X530085Y123954D01*
X529993Y123492D01*
Y121524D01*
X530085Y121062D01*
X530346Y120670D01*
X530738Y120408D01*
X531200Y120316D01*
X531662Y120408D01*
X532054Y120670D01*
X532315Y121062D01*
X532407Y121524D01*
Y123492D01*
X532315Y123954D01*
X532285Y124000D01*
X532552Y124500D01*
X534848D01*
X535115Y124000D01*
X535084Y123954D01*
X534993Y123492D01*
Y121524D01*
X535084Y121062D01*
X535346Y120670D01*
X535738Y120408D01*
X536200Y120316D01*
X536662Y120408D01*
X537054Y120670D01*
X537316Y121062D01*
X537407Y121524D01*
Y123492D01*
X537316Y123954D01*
X537285Y124000D01*
X537552Y124500D01*
X539806D01*
X539836Y124506D01*
X539990Y124442D01*
D02*
G37*
G36*
X508280Y121869D02*
X505171D01*
Y117532D01*
X508280D01*
Y113850D01*
X508316Y113672D01*
X508344Y113494D01*
X508354Y113478D01*
X508358Y113460D01*
X508459Y113309D01*
X508553Y113156D01*
X508775Y112917D01*
X507979Y112121D01*
X507758Y111790D01*
X507680Y111400D01*
Y95799D01*
X507664Y95774D01*
X507578Y95345D01*
X507664Y94916D01*
X507907Y94552D01*
X508271Y94309D01*
X508280Y94307D01*
Y90648D01*
X508358Y90258D01*
X508579Y89927D01*
X508910Y89706D01*
X509300Y89628D01*
X541770D01*
Y76300D01*
X509419D01*
Y76300D01*
X502782D01*
X502736Y76529D01*
X502493Y76893D01*
X502129Y77136D01*
X501700Y77222D01*
X501271Y77136D01*
X500907Y76893D01*
X500664Y76529D01*
X500618Y76300D01*
X462506D01*
X462427Y76698D01*
X462410Y76723D01*
Y85611D01*
X462427Y85635D01*
X462512Y86065D01*
X462427Y86494D01*
X462184Y86858D01*
X461820Y87101D01*
X461391Y87186D01*
X460961Y87101D01*
X460620Y86872D01*
X460493Y86898D01*
X460120Y87042D01*
Y89778D01*
X460500Y90158D01*
X460529Y90164D01*
X460893Y90407D01*
X461136Y90771D01*
X461222Y91200D01*
X461136Y91629D01*
X460893Y91993D01*
X460529Y92236D01*
X460100Y92322D01*
X459671Y92236D01*
X459307Y91993D01*
X459064Y91629D01*
X459058Y91600D01*
X458522Y91064D01*
X458030Y91052D01*
X457898Y91101D01*
X457809Y91236D01*
X457822Y91300D01*
X457736Y91729D01*
X457493Y92093D01*
X457129Y92336D01*
X456700Y92422D01*
X456271Y92336D01*
X455907Y92093D01*
X455664Y91729D01*
X455578Y91300D01*
X455664Y90871D01*
X455680Y90846D01*
Y76300D01*
X446400D01*
Y89720D01*
X446690Y89778D01*
X447021Y89999D01*
X447242Y90329D01*
X447320Y90720D01*
X447320Y108509D01*
X458900D01*
X459290Y108586D01*
X459621Y108807D01*
X459842Y109138D01*
X459920Y109528D01*
Y124500D01*
X475174D01*
X475273Y124000D01*
X474971Y123875D01*
X474407Y123442D01*
X473975Y122878D01*
X473703Y122221D01*
X473610Y121517D01*
X473703Y120812D01*
X473975Y120155D01*
X474407Y119591D01*
X474971Y119158D01*
X475628Y118886D01*
X476333Y118793D01*
X477038Y118886D01*
X477695Y119158D01*
X478259Y119591D01*
X478691Y120155D01*
X478964Y120812D01*
X479056Y121517D01*
X478964Y122221D01*
X478691Y122878D01*
X478259Y123442D01*
X477695Y123875D01*
X477393Y124000D01*
X477492Y124500D01*
X508280D01*
Y121869D01*
D02*
G37*
G36*
X458900Y109528D02*
X446300D01*
X446300Y90720D01*
X444577D01*
Y84498D01*
X444354Y83960D01*
X444251Y83177D01*
Y78102D01*
X442849Y76700D01*
X423920Y76700D01*
Y87046D01*
X423936Y87071D01*
X424022Y87500D01*
X423936Y87929D01*
X423693Y88293D01*
X423329Y88536D01*
X422900Y88622D01*
X422820Y88606D01*
X422320Y88991D01*
Y91400D01*
X422242Y91790D01*
X422021Y92121D01*
X420421Y93721D01*
X420090Y93942D01*
X419700Y94020D01*
X410733D01*
X410708Y94036D01*
X410279Y94122D01*
X410138Y94279D01*
X409956Y94567D01*
X410020Y94887D01*
Y96446D01*
X410036Y96471D01*
X410122Y96900D01*
X410036Y97329D01*
X409793Y97693D01*
X409429Y97936D01*
X409000Y98022D01*
X408571Y97936D01*
X408420Y97835D01*
X407920Y98095D01*
Y98944D01*
X408309D01*
Y104856D01*
X407920D01*
X407920Y106644D01*
X408309D01*
Y112556D01*
X407920D01*
Y114161D01*
X407920Y114661D01*
X411069D01*
X411118Y114671D01*
X411970Y114783D01*
X412809Y115131D01*
X413529Y115683D01*
X414082Y116404D01*
X414429Y117243D01*
X414541Y118095D01*
X414551Y118143D01*
Y119814D01*
X415051Y119983D01*
X415352Y119591D01*
X415916Y119158D01*
X416573Y118886D01*
X417278Y118793D01*
X417983Y118886D01*
X418640Y119158D01*
X419204Y119591D01*
X419636Y120155D01*
X419909Y120812D01*
X420001Y121517D01*
X419909Y122221D01*
X419636Y122878D01*
X419204Y123442D01*
X418640Y123875D01*
X418338Y124000D01*
X418437Y124500D01*
X458900D01*
Y109528D01*
D02*
G37*
G36*
X231532Y124443D02*
X231799Y124053D01*
X231804Y123555D01*
Y118143D01*
X231815Y118086D01*
X231925Y117247D01*
X232273Y116408D01*
X232826Y115688D01*
X233297Y115326D01*
X233128Y114826D01*
X230680D01*
X229395Y116111D01*
Y119909D01*
X219153D01*
Y112816D01*
X224132D01*
X227287Y109660D01*
X227914Y109179D01*
X228644Y108877D01*
X229427Y108774D01*
X244164D01*
Y101758D01*
X244633D01*
X244778Y101258D01*
X237360Y93839D01*
X230105D01*
X229574Y93769D01*
X228724D01*
Y93489D01*
X228593Y93434D01*
X227966Y92953D01*
X227485Y92326D01*
X227183Y91597D01*
X227080Y90813D01*
X227183Y90030D01*
X227485Y89300D01*
X227966Y88674D01*
X228593Y88193D01*
X228724Y88138D01*
Y87858D01*
X229574D01*
X230105Y87787D01*
X238613D01*
X239397Y87891D01*
X240126Y88193D01*
X240753Y88674D01*
X250047Y97967D01*
X250528Y98594D01*
X250830Y99324D01*
X250933Y100107D01*
Y101758D01*
X251650D01*
Y121843D01*
X244164D01*
Y114826D01*
X239410D01*
X239241Y115326D01*
X239713Y115688D01*
X240266Y116409D01*
X240613Y117248D01*
X240723Y118080D01*
X240735Y118143D01*
Y124031D01*
X240739Y124049D01*
X240739D01*
X241006Y124438D01*
X241166Y124505D01*
X241190Y124500D01*
X403983D01*
X404006Y124505D01*
X404167Y124438D01*
X404434Y124049D01*
X404438Y123550D01*
Y118143D01*
X404437D01*
X404556Y117243D01*
X404903Y116404D01*
X405456Y115683D01*
X406177Y115131D01*
X406931Y114818D01*
X406900Y114661D01*
X406900Y114161D01*
Y112556D01*
X402791D01*
Y106644D01*
X406546D01*
X406900Y106290D01*
X406900Y104856D01*
X402791D01*
Y98944D01*
X406900D01*
Y98095D01*
X406930Y97942D01*
X406948Y97787D01*
X406969Y97748D01*
X406978Y97704D01*
X407064Y97575D01*
X407139Y97438D01*
X407174Y97411D01*
X407199Y97374D01*
X407328Y97287D01*
X407450Y97190D01*
X407891Y96961D01*
X407878Y96900D01*
X407964Y96471D01*
X407980Y96446D01*
Y95310D01*
X406376Y93706D01*
X405914Y93897D01*
Y95238D01*
X405936Y95271D01*
X406021Y95700D01*
X405936Y96129D01*
X405693Y96493D01*
X405329Y96736D01*
X404900Y96822D01*
X404471Y96736D01*
X404107Y96493D01*
X403864Y96129D01*
X403784Y95728D01*
X403670Y95653D01*
X403309Y95495D01*
X401070Y97735D01*
Y99414D01*
X396930D01*
Y95863D01*
X396430Y95816D01*
X395170Y97075D01*
Y99414D01*
X391030D01*
Y96665D01*
X390568Y96474D01*
X386921Y100121D01*
X386590Y100342D01*
X386200Y100420D01*
X382742D01*
X382061Y101101D01*
Y110635D01*
X381983Y111026D01*
X381762Y111356D01*
X380897Y112221D01*
X380567Y112442D01*
X380176Y112520D01*
X380070D01*
Y113476D01*
X375930D01*
Y112520D01*
X374269D01*
Y113729D01*
X369932D01*
Y112520D01*
X368326D01*
Y113476D01*
X364186D01*
Y109729D01*
X368326D01*
Y110480D01*
X369932D01*
Y109786D01*
X374269D01*
Y110480D01*
X375930D01*
Y109729D01*
X380021D01*
Y108357D01*
X375930D01*
Y104611D01*
X376878D01*
Y103171D01*
X376846Y103141D01*
X376413Y102928D01*
X375838Y103504D01*
X375507Y103725D01*
X375117Y103803D01*
X361913D01*
Y104039D01*
X358166D01*
Y99898D01*
X361913D01*
Y101764D01*
X374694D01*
X375480Y100978D01*
Y73154D01*
X375464Y73129D01*
X375378Y72700D01*
X375464Y72271D01*
X375707Y71907D01*
X375651Y71368D01*
X375549Y71220D01*
X367365D01*
X366963Y71454D01*
X366963Y71720D01*
Y74217D01*
X364043D01*
X364043Y71454D01*
X363640Y71220D01*
X362863D01*
X362663Y71336D01*
X362460Y71675D01*
Y74217D01*
X359540D01*
Y71454D01*
X361910D01*
X362061Y70954D01*
X362011Y70921D01*
X360193Y69103D01*
X359972Y68772D01*
X359894Y68382D01*
Y67770D01*
X359041D01*
Y63630D01*
X359409D01*
Y61191D01*
X358358D01*
Y57445D01*
X362498D01*
Y61191D01*
X361448D01*
Y63630D01*
X362787D01*
Y67770D01*
X362451D01*
X362244Y68270D01*
X363155Y69180D01*
X365185D01*
X365376Y68718D01*
X365311Y68653D01*
X365090Y68322D01*
X365013Y67932D01*
Y67770D01*
X364159D01*
Y63630D01*
X365553D01*
Y61167D01*
X364503D01*
Y57421D01*
X368643D01*
Y61167D01*
X367593D01*
Y63630D01*
X367905D01*
Y67680D01*
X376531D01*
X376739Y67180D01*
X376239Y66681D01*
X376028D01*
X376028Y66681D01*
X375442Y66798D01*
X374857Y66681D01*
X374857Y66681D01*
X373887D01*
Y63919D01*
X373913D01*
Y61037D01*
X373964Y60779D01*
Y59638D01*
X374837D01*
X374857Y59624D01*
X375442Y59508D01*
X376028Y59624D01*
X376048Y59638D01*
X376884D01*
Y60596D01*
X376972Y61037D01*
Y63919D01*
X377240D01*
Y64798D01*
X381525Y69083D01*
X381987Y68892D01*
Y65986D01*
X385159D01*
X385351Y65858D01*
X385741Y65780D01*
X387790D01*
X388171Y65492D01*
X388171Y65280D01*
Y64598D01*
X386128D01*
Y64614D01*
X381987D01*
Y60868D01*
X386128D01*
Y62049D01*
X388171D01*
Y61155D01*
X392114D01*
Y65280D01*
X392114Y65492D01*
X392495Y65780D01*
X393105D01*
X393486Y65492D01*
Y61155D01*
X397429D01*
Y62049D01*
X399635D01*
Y60968D01*
X399831D01*
X399968Y60628D01*
X399971Y60468D01*
X398869Y59623D01*
X392689Y53442D01*
X392444Y53368D01*
X391384Y52801D01*
X390454Y52038D01*
X389691Y51108D01*
X389124Y50048D01*
X388775Y48897D01*
X388657Y47700D01*
X388775Y46503D01*
X389124Y45352D01*
X389691Y44292D01*
X390454Y43362D01*
X391384Y42599D01*
X392444Y42032D01*
X393595Y41683D01*
X394792Y41565D01*
X395989Y41683D01*
X397140Y42032D01*
X398201Y42599D01*
X399130Y43362D01*
X399893Y44292D01*
X400460Y45352D01*
X400534Y45597D01*
X404809Y49871D01*
X404908Y49845D01*
X405103Y49278D01*
X404904Y49018D01*
X404556Y48178D01*
X404437Y47277D01*
X404438D01*
Y41372D01*
X404443Y41347D01*
X404374Y41180D01*
X403983Y40916D01*
X403491Y40916D01*
X329020D01*
X328850Y41416D01*
X328982Y41518D01*
X329495Y42186D01*
X329818Y42965D01*
X329928Y43800D01*
X329818Y44635D01*
X329495Y45414D01*
X328982Y46082D01*
X328314Y46595D01*
X327535Y46918D01*
X326700Y47028D01*
X325865Y46918D01*
X325086Y46595D01*
X324418Y46082D01*
X323905Y45414D01*
X323582Y44635D01*
X323472Y43800D01*
X323582Y42965D01*
X323905Y42186D01*
X324418Y41518D01*
X324550Y41416D01*
X324380Y40916D01*
X241781D01*
X241757Y40912D01*
X241449Y41039D01*
X241321Y41347D01*
X241326Y41372D01*
Y47277D01*
X241327D01*
X241208Y48178D01*
X240860Y49018D01*
X240307Y49740D01*
X239585Y50293D01*
X238745Y50641D01*
X237844Y50760D01*
Y50759D01*
X234695D01*
Y50760D01*
X233793Y50641D01*
X232953Y50293D01*
X232232Y49740D01*
X231679Y49018D01*
X231331Y48178D01*
X231212Y47277D01*
X231213D01*
Y41372D01*
X231218Y41347D01*
X231090Y41039D01*
X230782Y40912D01*
X230758Y40916D01*
X105564D01*
X105540Y40912D01*
X105232Y41039D01*
X105104Y41347D01*
X105109Y41372D01*
Y47240D01*
X105110Y47277D01*
X105110D01*
X104991Y48178D01*
X104643Y49018D01*
X104090Y49740D01*
X103368Y50293D01*
X102529Y50641D01*
X101627Y50760D01*
Y50759D01*
X98478D01*
Y50760D01*
X97576Y50641D01*
X96736Y50293D01*
X96015Y49740D01*
X95462Y49018D01*
X95114Y48178D01*
X94995Y47277D01*
X94996D01*
Y41372D01*
X95001Y41347D01*
X94873Y41039D01*
X94565Y40912D01*
X94541Y40916D01*
X41392D01*
X41368Y40912D01*
X41060Y41039D01*
X40933Y41347D01*
X40937Y41372D01*
Y53006D01*
X40933Y53031D01*
X41002Y53197D01*
X41392Y53461D01*
X42294Y53579D01*
X43134Y53927D01*
X43855Y54481D01*
X44409Y55202D01*
X44756Y56042D01*
X44811Y56460D01*
X45345Y56681D01*
X45654Y56444D01*
X46612Y56047D01*
X47641Y55912D01*
X52759D01*
X53788Y56047D01*
X54746Y56444D01*
X55569Y57076D01*
X55809Y57388D01*
X56993D01*
X57232Y57076D01*
X58056Y56444D01*
X59014Y56047D01*
X60043Y55912D01*
X65161D01*
X66189Y56047D01*
X67148Y56444D01*
X67971Y57076D01*
X68602Y57899D01*
X68999Y58857D01*
X69135Y59886D01*
X68999Y60914D01*
X68602Y61873D01*
X67971Y62696D01*
X67148Y63327D01*
X66507Y63593D01*
X66559Y64113D01*
X66985Y64198D01*
X67245Y64371D01*
X68510D01*
Y66887D01*
X68900Y67186D01*
X69556Y67316D01*
X69880Y67533D01*
X70380Y67266D01*
Y65800D01*
X70458Y65410D01*
X70679Y65079D01*
X72378Y63381D01*
X72708Y63160D01*
X73098Y63082D01*
X84518D01*
Y62721D01*
X87871D01*
Y65483D01*
X84725D01*
X84517Y65982D01*
X86255Y67721D01*
X87871D01*
Y70483D01*
X84518D01*
Y68867D01*
X82520Y66869D01*
X81798D01*
Y69549D01*
X78446D01*
Y66869D01*
X77271D01*
Y69549D01*
X76407D01*
Y72143D01*
X76907Y72375D01*
X76949Y72340D01*
Y71690D01*
X78924D01*
Y72766D01*
X78972Y72839D01*
X79058Y73268D01*
X78972Y73697D01*
X78924Y73770D01*
Y74846D01*
X76949D01*
Y73788D01*
X76921Y73763D01*
X76599Y73678D01*
X76384Y73664D01*
X76200Y73865D01*
Y75120D01*
X76122Y75510D01*
X75901Y75841D01*
X74971Y76770D01*
X75163Y77232D01*
X76168D01*
Y78308D01*
X76371Y78478D01*
X76793Y78401D01*
X76926Y78342D01*
X76949Y78308D01*
Y77232D01*
X78924D01*
Y78308D01*
X78972Y78381D01*
X79058Y78810D01*
X78972Y79239D01*
X78924Y79312D01*
Y80388D01*
X76949D01*
Y79808D01*
X76946Y79804D01*
X76499Y79922D01*
X76446Y79969D01*
Y82587D01*
X77349D01*
Y85349D01*
X74370D01*
X74163Y85849D01*
X75655Y87340D01*
X77053D01*
Y90260D01*
X74291D01*
Y88861D01*
X69564Y84134D01*
X68945D01*
X68510Y84292D01*
Y85770D01*
X68890D01*
X69546Y85901D01*
X70102Y86272D01*
X70474Y86828D01*
X70604Y87484D01*
X70474Y88140D01*
X70102Y88696D01*
X69546Y89068D01*
X68890Y89198D01*
X68510Y89253D01*
Y92015D01*
X67245D01*
X66985Y92188D01*
X66559Y92273D01*
X66507Y92793D01*
X67148Y93058D01*
X67971Y93690D01*
X68602Y94513D01*
X68999Y95471D01*
X69135Y96500D01*
X68999Y97529D01*
X68602Y98487D01*
X67971Y99310D01*
X67148Y99942D01*
X66189Y100339D01*
X65161Y100474D01*
X60043D01*
X59014Y100339D01*
X58056Y99942D01*
X57232Y99310D01*
X56993Y98998D01*
X55809D01*
X55569Y99310D01*
X54746Y99942D01*
X53788Y100339D01*
X52759Y100474D01*
X47641D01*
X46612Y100339D01*
X45654Y99942D01*
X45347Y99707D01*
X44814Y99927D01*
X44756Y100364D01*
X44409Y101204D01*
X43855Y101926D01*
X43134Y102479D01*
X42294Y102827D01*
X41392Y102945D01*
X41002Y103209D01*
X40933Y103375D01*
X40938Y103400D01*
X40941Y123549D01*
X40941Y124049D01*
X41208Y124438D01*
X41369Y124505D01*
X41392Y124500D01*
X95131D01*
X95155Y124505D01*
X95315Y124438D01*
X95582Y124049D01*
X95587Y123550D01*
Y118143D01*
X95597Y118089D01*
X95709Y117243D01*
X96056Y116404D01*
X96609Y115683D01*
X97330Y115131D01*
X98169Y114783D01*
X99019Y114671D01*
X99068Y114661D01*
X101037D01*
X101091Y114672D01*
X101937Y114784D01*
X102776Y115131D01*
X103496Y115684D01*
X104049Y116404D01*
X104397Y117243D01*
X104509Y118094D01*
X104518Y118143D01*
Y124025D01*
X104522Y124044D01*
X104522D01*
X104706Y124312D01*
X104974Y124496D01*
X105472Y124500D01*
X231349D01*
X231379Y124506D01*
X231532Y124443D01*
D02*
G37*
G36*
X390379Y88979D02*
X390710Y88758D01*
X390858Y88728D01*
X390964Y88198D01*
X390807Y88093D01*
X390564Y87729D01*
X390478Y87300D01*
X390494Y87220D01*
X390467Y87130D01*
X390071Y86785D01*
X389885Y86822D01*
X389456Y86736D01*
X389092Y86493D01*
X388849Y86129D01*
X388764Y85700D01*
X388769Y85674D01*
X388452Y85260D01*
X387970Y85234D01*
X387532Y85672D01*
Y88370D01*
X383786D01*
Y84230D01*
X385934D01*
X386096Y84020D01*
X385851Y83520D01*
X384140D01*
X383800Y83587D01*
X383371Y83502D01*
X383007Y83259D01*
X382764Y82895D01*
X382679Y82466D01*
X382764Y82037D01*
X383007Y81673D01*
X383371Y81429D01*
X383800Y81344D01*
X384229Y81429D01*
X384305Y81480D01*
X386843D01*
X387134Y80980D01*
X387078Y80700D01*
X387164Y80271D01*
X387407Y79907D01*
X387771Y79664D01*
X388200Y79578D01*
X388362Y79611D01*
X388608Y79150D01*
X387078Y77620D01*
X382832D01*
X382442Y77542D01*
X382111Y77321D01*
X378020Y73229D01*
X377520Y73436D01*
Y90430D01*
X379514D01*
Y93650D01*
X379976Y93841D01*
X380886Y92931D01*
Y90430D01*
X384632D01*
Y94019D01*
X385132Y94226D01*
X390379Y88979D01*
D02*
G37*
G36*
X502583Y75300D02*
X502683D01*
X502782Y75280D01*
X508380D01*
Y52469D01*
X507443D01*
Y50000D01*
Y47532D01*
X508380D01*
Y45869D01*
X505071D01*
Y41532D01*
X508380D01*
Y40916D01*
X480320D01*
Y49077D01*
X483600D01*
X484383Y49180D01*
X485113Y49482D01*
X485170Y49526D01*
X486748D01*
Y54650D01*
X485208D01*
X485113Y54723D01*
X484383Y55026D01*
X483600Y55129D01*
X480320D01*
Y66980D01*
X480242Y67371D01*
X480021Y67701D01*
X479690Y67922D01*
X479300Y68000D01*
Y75280D01*
X500618D01*
X500717Y75300D01*
X500817D01*
X500891Y75331D01*
X500907Y75307D01*
X501271Y75064D01*
X501700Y74978D01*
X502129Y75064D01*
X502493Y75307D01*
X502509Y75331D01*
X502583Y75300D01*
D02*
G37*
G36*
X598918Y41372D02*
X598919Y41370D01*
X598918Y41368D01*
X598918D01*
X598651Y40978D01*
X598491Y40912D01*
X598467Y40916D01*
X550829D01*
X550805Y40912D01*
X550497Y41039D01*
X550369Y41347D01*
X550374Y41372D01*
Y47277D01*
X550375D01*
X550256Y48178D01*
X549908Y49018D01*
X549355Y49740D01*
X548633Y50293D01*
X547793Y50641D01*
X546892Y50760D01*
Y50759D01*
X546892Y50759D01*
X543743D01*
Y50760D01*
X542841Y50641D01*
X542001Y50293D01*
X541280Y49740D01*
X540727Y49018D01*
X540379Y48178D01*
X540260Y47277D01*
X540261D01*
Y41372D01*
X540266Y41347D01*
X540197Y41180D01*
X539806Y40916D01*
X539314Y40916D01*
X537663D01*
X537396Y41416D01*
X537416Y41446D01*
X537507Y41908D01*
Y43876D01*
X537416Y44339D01*
X537320Y44482D01*
Y46500D01*
X537242Y46890D01*
X537021Y47221D01*
X535221Y49021D01*
X534890Y49242D01*
X534500Y49320D01*
X519600D01*
X519210Y49242D01*
X518879Y49021D01*
X514829Y44971D01*
X514329Y45178D01*
Y45869D01*
X510386D01*
Y41532D01*
X514329D01*
Y42680D01*
X515000D01*
X515390Y42758D01*
X515721Y42979D01*
X520022Y47280D01*
X534078D01*
X535280Y46078D01*
Y44482D01*
X535184Y44339D01*
X535093Y43876D01*
Y41908D01*
X535184Y41446D01*
X535204Y41416D01*
X534937Y40916D01*
X532663D01*
X532396Y41416D01*
X532415Y41446D01*
X532507Y41908D01*
Y43876D01*
X532415Y44339D01*
X532154Y44730D01*
X531762Y44992D01*
X531300Y45084D01*
X530838Y44992D01*
X530446Y44730D01*
X530185Y44339D01*
X530093Y43876D01*
Y41908D01*
X530185Y41446D01*
X530204Y41416D01*
X529937Y40916D01*
X527663D01*
X527396Y41416D01*
X527416Y41446D01*
X527507Y41908D01*
Y43876D01*
X527416Y44339D01*
X527154Y44730D01*
X526762Y44992D01*
X526300Y45084D01*
X525838Y44992D01*
X525446Y44730D01*
X525184Y44339D01*
X525093Y43876D01*
Y41908D01*
X525184Y41446D01*
X525204Y41416D01*
X524937Y40916D01*
X522663D01*
X522396Y41416D01*
X522415Y41446D01*
X522507Y41908D01*
Y43876D01*
X522415Y44339D01*
X522154Y44730D01*
X521762Y44992D01*
X521300Y45084D01*
X520838Y44992D01*
X520446Y44730D01*
X520185Y44339D01*
X520093Y43876D01*
Y41908D01*
X520185Y41446D01*
X520204Y41416D01*
X519937Y40916D01*
X509400D01*
Y75280D01*
X518408D01*
Y70242D01*
X524320D01*
Y75280D01*
X526399D01*
Y70242D01*
X532311D01*
Y75280D01*
X534399D01*
Y70242D01*
X540311D01*
Y75280D01*
X598918D01*
Y41372D01*
D02*
G37*
G36*
X421880Y72567D02*
X421958Y72176D01*
X422179Y71846D01*
X423225Y70800D01*
X423231Y70771D01*
X423474Y70407D01*
X423837Y70164D01*
X424267Y70078D01*
X424696Y70164D01*
X425060Y70407D01*
X425303Y70771D01*
X425388Y71200D01*
X425303Y71629D01*
X425060Y71993D01*
X424696Y72236D01*
X424667Y72242D01*
X423920Y72989D01*
Y75680D01*
X429837D01*
X435026Y70492D01*
Y67145D01*
X434623Y66910D01*
X434525Y66910D01*
X424577D01*
Y56471D01*
X434623D01*
Y63961D01*
X435122Y64012D01*
X435399Y63599D01*
X435812Y63323D01*
X436300Y63226D01*
X436788Y63323D01*
X437201Y63599D01*
X437477Y64012D01*
X437574Y64500D01*
X438074Y64499D01*
Y60600D01*
X438177Y59817D01*
X438480Y59087D01*
X438960Y58460D01*
X439587Y57980D01*
X440317Y57677D01*
X441100Y57574D01*
X441883Y57677D01*
X442613Y57980D01*
X443240Y58460D01*
X443720Y59087D01*
X444023Y59817D01*
X444077Y60230D01*
X444577Y60197D01*
Y56461D01*
X454623D01*
Y66901D01*
X444626D01*
X444577Y66901D01*
X444126Y67018D01*
Y69418D01*
X449417Y74709D01*
X449417Y74709D01*
X449855Y75280D01*
X455680D01*
Y71500D01*
X455758Y71110D01*
X455979Y70779D01*
X459479Y67279D01*
X459810Y67058D01*
X460200Y66980D01*
X479300D01*
Y40916D01*
X419422D01*
X419085Y41416D01*
X419122Y41600D01*
X419036Y42029D01*
X418793Y42393D01*
X418567Y42544D01*
X418718Y43044D01*
X422247D01*
Y48562D01*
X416335D01*
Y43044D01*
X417282D01*
X417434Y42544D01*
X417207Y42393D01*
X416964Y42029D01*
X416878Y41600D01*
X416915Y41416D01*
X416578Y40916D01*
X415006D01*
X414982Y40912D01*
X414815Y40981D01*
X414551Y41372D01*
X414551Y41842D01*
Y47277D01*
X414551Y47277D01*
X414552D01*
X414433Y48178D01*
X414085Y49018D01*
X413532Y49740D01*
X412811Y50293D01*
X411971Y50641D01*
X411500Y50703D01*
Y63489D01*
X414729D01*
Y67826D01*
X411500D01*
Y69611D01*
X411793Y69807D01*
X412036Y70171D01*
X412122Y70600D01*
X412036Y71029D01*
X411793Y71393D01*
X411500Y71589D01*
Y75181D01*
X415345D01*
X415370Y75165D01*
X415799Y75079D01*
X416228Y75165D01*
X416592Y75408D01*
X416835Y75772D01*
X416921Y76201D01*
X417331Y76700D01*
X418680D01*
Y71822D01*
X418500Y71642D01*
X418471Y71636D01*
X418107Y71393D01*
X417864Y71029D01*
X417778Y70600D01*
X417864Y70171D01*
X418107Y69807D01*
X418471Y69564D01*
X418900Y69478D01*
X419329Y69564D01*
X419693Y69807D01*
X419936Y70171D01*
X419942Y70200D01*
X420421Y70679D01*
X420642Y71010D01*
X420720Y71400D01*
Y76700D01*
X421880D01*
Y72567D01*
D02*
G37*
%LPC*%
G36*
X579414Y118668D02*
X577642D01*
Y116700D01*
X579414D01*
Y118668D01*
D02*
G37*
G36*
X576643D02*
X574871D01*
Y116700D01*
X576643D01*
Y118668D01*
D02*
G37*
G36*
X584429Y118368D02*
X580486D01*
Y114032D01*
X584429D01*
Y118368D01*
D02*
G37*
G36*
X579414Y115700D02*
X577642D01*
Y113732D01*
X579414D01*
Y115700D01*
D02*
G37*
G36*
X576643D02*
X574871D01*
Y113732D01*
X576643D01*
Y115700D01*
D02*
G37*
G36*
X574850Y109466D02*
Y108638D01*
X575678D01*
X575669Y108684D01*
X575359Y109147D01*
X574896Y109457D01*
X574850Y109466D01*
D02*
G37*
G36*
X573850D02*
X573804Y109457D01*
X573341Y109147D01*
X573031Y108684D01*
X573022Y108638D01*
X573850D01*
Y109466D01*
D02*
G37*
G36*
X569500D02*
Y108638D01*
X570328D01*
X570319Y108684D01*
X570009Y109147D01*
X569546Y109457D01*
X569500Y109466D01*
D02*
G37*
G36*
X568500D02*
X568454Y109457D01*
X567991Y109147D01*
X567681Y108684D01*
X567672Y108638D01*
X568500D01*
Y109466D01*
D02*
G37*
G36*
X564150D02*
Y108638D01*
X564978D01*
X564969Y108684D01*
X564659Y109147D01*
X564196Y109457D01*
X564150Y109466D01*
D02*
G37*
G36*
X563150D02*
X563104Y109457D01*
X562641Y109147D01*
X562331Y108684D01*
X562322Y108638D01*
X563150D01*
Y109466D01*
D02*
G37*
G36*
X515208Y108728D02*
Y107900D01*
X516036D01*
X516027Y107946D01*
X515717Y108409D01*
X515254Y108719D01*
X515208Y108728D01*
D02*
G37*
G36*
X514208D02*
X514162Y108719D01*
X513698Y108409D01*
X513389Y107946D01*
X513380Y107900D01*
X514208D01*
Y108728D01*
D02*
G37*
G36*
X575678Y107638D02*
X574850D01*
Y106810D01*
X574896Y106819D01*
X575359Y107129D01*
X575669Y107592D01*
X575678Y107638D01*
D02*
G37*
G36*
X573850D02*
X573022D01*
X573031Y107592D01*
X573341Y107129D01*
X573804Y106819D01*
X573850Y106810D01*
Y107638D01*
D02*
G37*
G36*
X570328D02*
X569500D01*
Y106810D01*
X569546Y106819D01*
X570009Y107129D01*
X570319Y107592D01*
X570328Y107638D01*
D02*
G37*
G36*
X568500D02*
X567672D01*
X567681Y107592D01*
X567991Y107129D01*
X568454Y106819D01*
X568500Y106810D01*
Y107638D01*
D02*
G37*
G36*
X564978D02*
X564150D01*
Y106810D01*
X564196Y106819D01*
X564659Y107129D01*
X564969Y107592D01*
X564978Y107638D01*
D02*
G37*
G36*
X563150D02*
X562322D01*
X562331Y107592D01*
X562641Y107129D01*
X563104Y106819D01*
X563150Y106810D01*
Y107638D01*
D02*
G37*
G36*
X516036Y106900D02*
X515208D01*
Y106072D01*
X515254Y106081D01*
X515717Y106391D01*
X516027Y106854D01*
X516036Y106900D01*
D02*
G37*
G36*
X514208D02*
X513380D01*
X513389Y106854D01*
X513698Y106391D01*
X514162Y106081D01*
X514208Y106072D01*
Y106900D01*
D02*
G37*
G36*
X574850Y104497D02*
Y103669D01*
X575678D01*
X575669Y103716D01*
X575359Y104179D01*
X574896Y104488D01*
X574850Y104497D01*
D02*
G37*
G36*
X573850D02*
X573804Y104488D01*
X573341Y104179D01*
X573031Y103716D01*
X573022Y103669D01*
X573850D01*
Y104497D01*
D02*
G37*
G36*
X569500D02*
Y103669D01*
X570328D01*
X570319Y103716D01*
X570009Y104179D01*
X569546Y104488D01*
X569500Y104497D01*
D02*
G37*
G36*
X568500D02*
X568454Y104488D01*
X567991Y104179D01*
X567681Y103716D01*
X567672Y103669D01*
X568500D01*
Y104497D01*
D02*
G37*
G36*
X564150D02*
Y103669D01*
X564978D01*
X564969Y103716D01*
X564659Y104179D01*
X564196Y104488D01*
X564150Y104497D01*
D02*
G37*
G36*
X563150D02*
X563104Y104488D01*
X562641Y104179D01*
X562331Y103716D01*
X562322Y103669D01*
X563150D01*
Y104497D01*
D02*
G37*
G36*
X515208Y103628D02*
Y102800D01*
X516036D01*
X516027Y102846D01*
X515717Y103309D01*
X515254Y103619D01*
X515208Y103628D01*
D02*
G37*
G36*
X514208D02*
X514162Y103619D01*
X513698Y103309D01*
X513389Y102846D01*
X513380Y102800D01*
X514208D01*
Y103628D01*
D02*
G37*
G36*
X575678Y102669D02*
X574850D01*
Y101841D01*
X574896Y101850D01*
X575359Y102160D01*
X575669Y102623D01*
X575678Y102669D01*
D02*
G37*
G36*
X573850D02*
X573022D01*
X573031Y102623D01*
X573341Y102160D01*
X573804Y101850D01*
X573850Y101841D01*
Y102669D01*
D02*
G37*
G36*
X570328D02*
X569500D01*
Y101841D01*
X569546Y101850D01*
X570009Y102160D01*
X570319Y102623D01*
X570328Y102669D01*
D02*
G37*
G36*
X568500D02*
X567672D01*
X567681Y102623D01*
X567991Y102160D01*
X568454Y101850D01*
X568500Y101841D01*
Y102669D01*
D02*
G37*
G36*
X564978D02*
X564150D01*
Y101841D01*
X564196Y101850D01*
X564659Y102160D01*
X564969Y102623D01*
X564978Y102669D01*
D02*
G37*
G36*
X563150D02*
X562322D01*
X562331Y102623D01*
X562641Y102160D01*
X563104Y101850D01*
X563150Y101841D01*
Y102669D01*
D02*
G37*
G36*
X516036Y101800D02*
X515208D01*
Y100972D01*
X515254Y100981D01*
X515717Y101291D01*
X516027Y101754D01*
X516036Y101800D01*
D02*
G37*
G36*
X514208D02*
X513380D01*
X513389Y101754D01*
X513698Y101291D01*
X514162Y100981D01*
X514208Y100972D01*
Y101800D01*
D02*
G37*
G36*
X537226Y100264D02*
X536700D01*
Y99779D01*
X537528D01*
X537519Y99826D01*
X537226Y100264D01*
D02*
G37*
G36*
X535700D02*
X535174D01*
X534881Y99826D01*
X534872Y99779D01*
X535700D01*
Y100264D01*
D02*
G37*
G36*
X532226D02*
X531700D01*
Y99779D01*
X532528D01*
X532519Y99826D01*
X532226Y100264D01*
D02*
G37*
G36*
X530700D02*
X530174D01*
X529881Y99826D01*
X529872Y99779D01*
X530700D01*
Y100264D01*
D02*
G37*
G36*
X527226D02*
X526700D01*
Y99779D01*
X527528D01*
X527519Y99826D01*
X527226Y100264D01*
D02*
G37*
G36*
X525700D02*
X525174D01*
X524881Y99826D01*
X524872Y99779D01*
X525700D01*
Y100264D01*
D02*
G37*
G36*
X522226D02*
X521700D01*
Y99779D01*
X522528D01*
X522519Y99826D01*
X522226Y100264D01*
D02*
G37*
G36*
X520700D02*
X520174D01*
X519881Y99826D01*
X519872Y99779D01*
X520700D01*
Y100264D01*
D02*
G37*
G36*
X574850Y99528D02*
Y98700D01*
X575678D01*
X575669Y98747D01*
X575359Y99210D01*
X574896Y99519D01*
X574850Y99528D01*
D02*
G37*
G36*
X573850D02*
X573804Y99519D01*
X573341Y99210D01*
X573031Y98747D01*
X573022Y98700D01*
X573850D01*
Y99528D01*
D02*
G37*
G36*
X569500D02*
Y98700D01*
X570328D01*
X570319Y98747D01*
X570009Y99210D01*
X569546Y99519D01*
X569500Y99528D01*
D02*
G37*
G36*
X568500D02*
X568454Y99519D01*
X567991Y99210D01*
X567681Y98747D01*
X567672Y98700D01*
X568500D01*
Y99528D01*
D02*
G37*
G36*
X564150D02*
Y98700D01*
X564978D01*
X564969Y98747D01*
X564659Y99210D01*
X564196Y99519D01*
X564150Y99528D01*
D02*
G37*
G36*
X563150D02*
X563104Y99519D01*
X562641Y99210D01*
X562331Y98747D01*
X562322Y98700D01*
X563150D01*
Y99528D01*
D02*
G37*
G36*
X537528Y98779D02*
X536700D01*
Y97952D01*
X536746Y97961D01*
X537209Y98270D01*
X537519Y98733D01*
X537528Y98779D01*
D02*
G37*
G36*
X535700D02*
X534872D01*
X534881Y98733D01*
X535191Y98270D01*
X535654Y97961D01*
X535700Y97952D01*
Y98779D01*
D02*
G37*
G36*
X532528D02*
X531700D01*
Y97952D01*
X531746Y97961D01*
X532209Y98270D01*
X532519Y98733D01*
X532528Y98779D01*
D02*
G37*
G36*
X530700D02*
X529872D01*
X529881Y98733D01*
X530191Y98270D01*
X530654Y97961D01*
X530700Y97952D01*
Y98779D01*
D02*
G37*
G36*
X527528D02*
X526700D01*
Y97952D01*
X526746Y97961D01*
X527209Y98270D01*
X527519Y98733D01*
X527528Y98779D01*
D02*
G37*
G36*
X525700D02*
X524872D01*
X524881Y98733D01*
X525191Y98270D01*
X525654Y97961D01*
X525700Y97952D01*
Y98779D01*
D02*
G37*
G36*
X522528D02*
X521700D01*
Y97952D01*
X521746Y97961D01*
X522209Y98270D01*
X522519Y98733D01*
X522528Y98779D01*
D02*
G37*
G36*
X520700D02*
X519872D01*
X519881Y98733D01*
X520191Y98270D01*
X520654Y97961D01*
X520700Y97952D01*
Y98779D01*
D02*
G37*
G36*
X515204Y98724D02*
Y97896D01*
X516032D01*
X516023Y97942D01*
X515713Y98405D01*
X515250Y98715D01*
X515204Y98724D01*
D02*
G37*
G36*
X514204D02*
X514158Y98715D01*
X513695Y98405D01*
X513385Y97942D01*
X513376Y97896D01*
X514204D01*
Y98724D01*
D02*
G37*
G36*
X575678Y97701D02*
X574850D01*
Y96873D01*
X574896Y96882D01*
X575359Y97191D01*
X575669Y97654D01*
X575678Y97701D01*
D02*
G37*
G36*
X573850D02*
X573022D01*
X573031Y97654D01*
X573341Y97191D01*
X573804Y96882D01*
X573850Y96873D01*
Y97701D01*
D02*
G37*
G36*
X570328D02*
X569500D01*
Y96873D01*
X569546Y96882D01*
X570009Y97191D01*
X570319Y97654D01*
X570328Y97701D01*
D02*
G37*
G36*
X568500D02*
X567672D01*
X567681Y97654D01*
X567991Y97191D01*
X568454Y96882D01*
X568500Y96873D01*
Y97701D01*
D02*
G37*
G36*
X564978D02*
X564150D01*
Y96873D01*
X564196Y96882D01*
X564659Y97191D01*
X564969Y97654D01*
X564978Y97701D01*
D02*
G37*
G36*
X563150D02*
X562322D01*
X562331Y97654D01*
X562641Y97191D01*
X563104Y96882D01*
X563150Y96873D01*
Y97701D01*
D02*
G37*
G36*
X516032Y96896D02*
X515204D01*
Y96068D01*
X515250Y96077D01*
X515713Y96387D01*
X516023Y96850D01*
X516032Y96896D01*
D02*
G37*
G36*
X514204D02*
X513376D01*
X513385Y96850D01*
X513695Y96387D01*
X514158Y96077D01*
X514204Y96068D01*
Y96896D01*
D02*
G37*
G36*
X485100Y123702D02*
Y118800D01*
X490002D01*
X489882Y119715D01*
X489335Y121034D01*
X488467Y122167D01*
X487334Y123036D01*
X486015Y123582D01*
X485100Y123702D01*
D02*
G37*
G36*
X484100D02*
X483185Y123582D01*
X481866Y123036D01*
X480733Y122167D01*
X479865Y121034D01*
X479318Y119715D01*
X479198Y118800D01*
X484100D01*
Y123702D01*
D02*
G37*
G36*
X491980Y113728D02*
Y112900D01*
X492464D01*
Y113426D01*
X492026Y113719D01*
X491980Y113728D01*
D02*
G37*
G36*
X490979D02*
X490933Y113719D01*
X490470Y113409D01*
X490161Y112946D01*
X490152Y112900D01*
X490979D01*
Y113728D01*
D02*
G37*
G36*
X490002Y117800D02*
X485100D01*
Y112898D01*
X486015Y113018D01*
X487334Y113565D01*
X488467Y114434D01*
X489335Y115566D01*
X489882Y116885D01*
X490002Y117800D01*
D02*
G37*
G36*
X484100D02*
X479198D01*
X479318Y116885D01*
X479865Y115566D01*
X480733Y114434D01*
X481866Y113565D01*
X483185Y113018D01*
X484100Y112898D01*
Y117800D01*
D02*
G37*
G36*
X492464Y111900D02*
X491980D01*
Y111072D01*
X492026Y111081D01*
X492464Y111374D01*
Y111900D01*
D02*
G37*
G36*
X490979D02*
X490152D01*
X490161Y111854D01*
X490470Y111391D01*
X490933Y111081D01*
X490979Y111072D01*
Y111900D01*
D02*
G37*
G36*
X464522Y117020D02*
X463689Y116910D01*
X462912Y116588D01*
X462245Y116077D01*
X461734Y115410D01*
X461412Y114633D01*
X461302Y113800D01*
X461412Y112967D01*
X461734Y112190D01*
X462245Y111523D01*
X462912Y111012D01*
X463689Y110690D01*
X464522Y110580D01*
X465355Y110690D01*
X466132Y111012D01*
X466799Y111523D01*
X467310Y112190D01*
X467632Y112967D01*
X467742Y113800D01*
X467632Y114633D01*
X467310Y115410D01*
X466799Y116077D01*
X466132Y116588D01*
X465355Y116910D01*
X464522Y117020D01*
D02*
G37*
G36*
X491980Y108728D02*
Y107900D01*
X492464D01*
Y108426D01*
X492026Y108719D01*
X491980Y108728D01*
D02*
G37*
G36*
X490979D02*
X490933Y108719D01*
X490470Y108409D01*
X490161Y107946D01*
X490152Y107900D01*
X490979D01*
Y108728D01*
D02*
G37*
G36*
X492464Y106900D02*
X491980D01*
Y106072D01*
X492026Y106081D01*
X492464Y106374D01*
Y106900D01*
D02*
G37*
G36*
X490979D02*
X490152D01*
X490161Y106854D01*
X490470Y106391D01*
X490933Y106081D01*
X490979Y106072D01*
Y106900D01*
D02*
G37*
G36*
X491980Y103728D02*
Y102900D01*
X492464D01*
Y103426D01*
X492026Y103719D01*
X491980Y103728D01*
D02*
G37*
G36*
X490979D02*
X490933Y103719D01*
X490470Y103409D01*
X490161Y102946D01*
X490152Y102900D01*
X490979D01*
Y103728D01*
D02*
G37*
G36*
X492464Y101900D02*
X491980D01*
Y101072D01*
X492026Y101081D01*
X492464Y101374D01*
Y101900D01*
D02*
G37*
G36*
X490979D02*
X490152D01*
X490161Y101854D01*
X490470Y101391D01*
X490933Y101081D01*
X490979Y101072D01*
Y101900D01*
D02*
G37*
G36*
X491980Y98728D02*
Y97900D01*
X492464D01*
Y98426D01*
X492026Y98719D01*
X491980Y98728D01*
D02*
G37*
G36*
X490979D02*
X490933Y98719D01*
X490470Y98409D01*
X490161Y97946D01*
X490152Y97900D01*
X490979D01*
Y98728D01*
D02*
G37*
G36*
X492464Y96900D02*
X491980D01*
Y96072D01*
X492026Y96081D01*
X492464Y96374D01*
Y96900D01*
D02*
G37*
G36*
X490979D02*
X490152D01*
X490161Y96854D01*
X490470Y96391D01*
X490933Y96081D01*
X490979Y96072D01*
Y96900D01*
D02*
G37*
G36*
X537864Y87433D02*
Y86605D01*
X538692D01*
X538683Y86651D01*
X538374Y87114D01*
X537910Y87424D01*
X537864Y87433D01*
D02*
G37*
G36*
X536864D02*
X536818Y87424D01*
X536355Y87114D01*
X536045Y86651D01*
X536036Y86605D01*
X536864D01*
Y87433D01*
D02*
G37*
G36*
X529864D02*
Y86605D01*
X530692D01*
X530683Y86651D01*
X530373Y87114D01*
X529910Y87424D01*
X529864Y87433D01*
D02*
G37*
G36*
X528864D02*
X528818Y87424D01*
X528355Y87114D01*
X528045Y86651D01*
X528036Y86605D01*
X528864D01*
Y87433D01*
D02*
G37*
G36*
X521864D02*
Y86605D01*
X522692D01*
X522683Y86651D01*
X522373Y87114D01*
X521910Y87424D01*
X521864Y87433D01*
D02*
G37*
G36*
X520864D02*
X520818Y87424D01*
X520355Y87114D01*
X520045Y86651D01*
X520036Y86605D01*
X520864D01*
Y87433D01*
D02*
G37*
G36*
X538692Y85605D02*
X537864D01*
Y84777D01*
X537910Y84786D01*
X538374Y85096D01*
X538683Y85559D01*
X538692Y85605D01*
D02*
G37*
G36*
X536864D02*
X536036D01*
X536045Y85559D01*
X536355Y85096D01*
X536818Y84786D01*
X536864Y84777D01*
Y85605D01*
D02*
G37*
G36*
X530692D02*
X529864D01*
Y84777D01*
X529910Y84786D01*
X530373Y85096D01*
X530683Y85559D01*
X530692Y85605D01*
D02*
G37*
G36*
X528864D02*
X528036D01*
X528045Y85559D01*
X528355Y85096D01*
X528818Y84786D01*
X528864Y84777D01*
Y85605D01*
D02*
G37*
G36*
X522692D02*
X521864D01*
Y84777D01*
X521910Y84786D01*
X522373Y85096D01*
X522683Y85559D01*
X522692Y85605D01*
D02*
G37*
G36*
X520864D02*
X520036D01*
X520045Y85559D01*
X520355Y85096D01*
X520818Y84786D01*
X520864Y84777D01*
Y85605D01*
D02*
G37*
G36*
X537855Y80228D02*
Y79400D01*
X538683D01*
X538673Y79446D01*
X538364Y79909D01*
X537901Y80219D01*
X537855Y80228D01*
D02*
G37*
G36*
X536855D02*
X536808Y80219D01*
X536345Y79909D01*
X536036Y79446D01*
X536027Y79400D01*
X536855D01*
Y80228D01*
D02*
G37*
G36*
X529855D02*
Y79400D01*
X530683D01*
X530673Y79446D01*
X530364Y79909D01*
X529901Y80219D01*
X529855Y80228D01*
D02*
G37*
G36*
X528855D02*
X528808Y80219D01*
X528345Y79909D01*
X528036Y79446D01*
X528027Y79400D01*
X528855D01*
Y80228D01*
D02*
G37*
G36*
X521864D02*
Y79400D01*
X522692D01*
X522683Y79446D01*
X522373Y79909D01*
X521910Y80219D01*
X521864Y80228D01*
D02*
G37*
G36*
X520864D02*
X520818Y80219D01*
X520355Y79909D01*
X520045Y79446D01*
X520036Y79400D01*
X520864D01*
Y80228D01*
D02*
G37*
G36*
X474623Y95974D02*
X464577D01*
X464187Y95897D01*
X463856Y95676D01*
X463635Y95345D01*
X463558Y94955D01*
Y80290D01*
X463635Y79900D01*
X463856Y79569D01*
X464187Y79348D01*
X464577Y79270D01*
X472038D01*
X472305Y79003D01*
X473132Y78450D01*
X474107Y78256D01*
X480244D01*
Y78146D01*
X486156D01*
Y78256D01*
X487954D01*
Y78092D01*
X493865D01*
Y78256D01*
X495653D01*
Y78092D01*
X501565D01*
Y78256D01*
X503344D01*
Y78046D01*
X504900D01*
D01*
X509256D01*
Y83564D01*
X503344D01*
Y83354D01*
X501565D01*
Y83610D01*
X495653D01*
Y83354D01*
X493865D01*
Y83610D01*
X487954D01*
Y83354D01*
X486156D01*
Y83664D01*
X480244D01*
Y83354D01*
X475642D01*
Y94955D01*
X475565Y95345D01*
X475344Y95676D01*
X475013Y95897D01*
X474623Y95974D01*
D02*
G37*
G36*
X538683Y78400D02*
X537855D01*
Y77572D01*
X537901Y77581D01*
X538364Y77891D01*
X538673Y78354D01*
X538683Y78400D01*
D02*
G37*
G36*
X536855D02*
X536027D01*
X536036Y78354D01*
X536345Y77891D01*
X536808Y77581D01*
X536855Y77572D01*
Y78400D01*
D02*
G37*
G36*
X530683D02*
X529855D01*
Y77572D01*
X529901Y77581D01*
X530364Y77891D01*
X530673Y78354D01*
X530683Y78400D01*
D02*
G37*
G36*
X528855D02*
X528027D01*
X528036Y78354D01*
X528345Y77891D01*
X528808Y77581D01*
X528855Y77572D01*
Y78400D01*
D02*
G37*
G36*
X522692D02*
X521864D01*
Y77572D01*
X521910Y77581D01*
X522373Y77891D01*
X522683Y78354D01*
X522692Y78400D01*
D02*
G37*
G36*
X520864D02*
X520036D01*
X520045Y78354D01*
X520355Y77891D01*
X520818Y77581D01*
X520864Y77572D01*
Y78400D01*
D02*
G37*
%LPD*%
G36*
X474623Y80290D02*
X464577D01*
Y94955D01*
X474623D01*
Y80290D01*
D02*
G37*
%LPC*%
G36*
X432281Y116992D02*
X425897D01*
Y110608D01*
X432281D01*
Y116992D01*
D02*
G37*
G36*
X412850Y110928D02*
Y110100D01*
X413678D01*
X413668Y110146D01*
X413359Y110609D01*
X412896Y110919D01*
X412850Y110928D01*
D02*
G37*
G36*
X411850D02*
X411803Y110919D01*
X411340Y110609D01*
X411031Y110146D01*
X411022Y110100D01*
X411850D01*
Y110928D01*
D02*
G37*
G36*
X413678Y109100D02*
X412850D01*
Y108272D01*
X412896Y108281D01*
X413359Y108591D01*
X413668Y109054D01*
X413678Y109100D01*
D02*
G37*
G36*
X411850D02*
X411022D01*
X411031Y109054D01*
X411340Y108591D01*
X411803Y108281D01*
X411850Y108272D01*
Y109100D01*
D02*
G37*
G36*
X412900Y103228D02*
Y102400D01*
X413728D01*
X413719Y102446D01*
X413409Y102909D01*
X412946Y103219D01*
X412900Y103228D01*
D02*
G37*
G36*
X411900D02*
X411854Y103219D01*
X411391Y102909D01*
X411081Y102446D01*
X411072Y102400D01*
X411900D01*
Y103228D01*
D02*
G37*
G36*
X413728Y101400D02*
X412900D01*
Y100572D01*
X412946Y100581D01*
X413409Y100891D01*
X413719Y101354D01*
X413728Y101400D01*
D02*
G37*
G36*
X411900D02*
X411072D01*
X411081Y101354D01*
X411391Y100891D01*
X411854Y100581D01*
X411900Y100572D01*
Y101400D01*
D02*
G37*
G36*
X440000Y87522D02*
X439571Y87436D01*
X439207Y87193D01*
X438964Y86829D01*
X438878Y86400D01*
X438964Y85971D01*
X438980Y85946D01*
Y81102D01*
X438867Y80932D01*
X438782Y80503D01*
X438867Y80074D01*
X439110Y79710D01*
X439474Y79467D01*
X439903Y79382D01*
X440332Y79467D01*
X440696Y79710D01*
X440939Y80074D01*
X441025Y80503D01*
X441012Y80564D01*
X441020Y80600D01*
Y85946D01*
X441036Y85971D01*
X441122Y86400D01*
X441036Y86829D01*
X440793Y87193D01*
X440429Y87436D01*
X440000Y87522D01*
D02*
G37*
G36*
X397468Y123501D02*
X393131D01*
Y122548D01*
X391370D01*
Y123304D01*
X387230D01*
Y122548D01*
X385469D01*
Y123501D01*
X381132D01*
Y119557D01*
X385469D01*
Y120509D01*
X387230D01*
Y119557D01*
X391370D01*
Y120509D01*
X393131D01*
Y119557D01*
X397468D01*
Y123501D01*
D02*
G37*
G36*
X403569D02*
X399232D01*
Y119557D01*
X403569D01*
Y123501D01*
D02*
G37*
G36*
X80623Y120676D02*
X79442D01*
Y119200D01*
X80623D01*
Y120676D01*
D02*
G37*
G36*
X78442D02*
X77261D01*
Y119200D01*
X78442D01*
Y120676D01*
D02*
G37*
G36*
X75481Y120583D02*
X74300D01*
Y119106D01*
X75481D01*
Y120583D01*
D02*
G37*
G36*
X73300D02*
X72119D01*
Y119106D01*
X73300D01*
Y120583D01*
D02*
G37*
G36*
X70481Y120504D02*
X69300D01*
Y119028D01*
X70481D01*
Y120504D01*
D02*
G37*
G36*
X68300D02*
X67119D01*
Y119028D01*
X68300D01*
Y120504D01*
D02*
G37*
G36*
X190500Y120664D02*
Y117700D01*
X193464D01*
X193410Y118114D01*
X193057Y118965D01*
X192496Y119696D01*
X191765Y120257D01*
X190914Y120610D01*
X190500Y120664D01*
D02*
G37*
G36*
X189500D02*
X189086Y120610D01*
X188235Y120257D01*
X187504Y119696D01*
X186943Y118965D01*
X186590Y118114D01*
X186536Y117700D01*
X189500D01*
Y120664D01*
D02*
G37*
G36*
X80623Y118200D02*
X79442D01*
Y116724D01*
X80623D01*
Y118200D01*
D02*
G37*
G36*
X78442D02*
X77261D01*
Y116724D01*
X78442D01*
Y118200D01*
D02*
G37*
G36*
X75481Y118106D02*
X74300D01*
Y116630D01*
X75481D01*
Y118106D01*
D02*
G37*
G36*
X73300D02*
X72119D01*
Y116630D01*
X73300D01*
Y118106D01*
D02*
G37*
G36*
X70481Y118028D02*
X69300D01*
Y116551D01*
X70481D01*
Y118028D01*
D02*
G37*
G36*
X68300D02*
X67119D01*
Y116551D01*
X68300D01*
Y118028D01*
D02*
G37*
G36*
X45800Y122528D02*
X44965Y122418D01*
X44186Y122095D01*
X43518Y121582D01*
X43005Y120914D01*
X42682Y120135D01*
X42572Y119300D01*
X42682Y118465D01*
X43005Y117686D01*
X43518Y117018D01*
X44186Y116505D01*
X44965Y116182D01*
X45800Y116072D01*
X46635Y116182D01*
X47414Y116505D01*
X48082Y117018D01*
X48595Y117686D01*
X48918Y118465D01*
X49028Y119300D01*
X48918Y120135D01*
X48595Y120914D01*
X48082Y121582D01*
X47414Y122095D01*
X46635Y122418D01*
X45800Y122528D01*
D02*
G37*
G36*
X356814Y117070D02*
X353068D01*
Y115977D01*
X351068D01*
Y116929D01*
X346731D01*
Y112986D01*
X351068D01*
Y113938D01*
X353068D01*
Y112930D01*
X356814D01*
Y117070D01*
D02*
G37*
G36*
X58400Y122424D02*
X57565Y122314D01*
X56786Y121992D01*
X56118Y121479D01*
X55605Y120810D01*
X55282Y120032D01*
X55172Y119196D01*
X55282Y118361D01*
X55605Y117582D01*
X56118Y116914D01*
X56786Y116401D01*
X57565Y116079D01*
X58400Y115969D01*
X59235Y116079D01*
X60014Y116401D01*
X60682Y116914D01*
X61195Y117582D01*
X61518Y118361D01*
X61628Y119196D01*
X61518Y120032D01*
X61195Y120810D01*
X60682Y121479D01*
X60014Y121992D01*
X59235Y122314D01*
X58400Y122424D01*
D02*
G37*
G36*
X159007Y120152D02*
X156087D01*
Y117488D01*
X156087Y117390D01*
X155852Y116988D01*
X155787D01*
Y115807D01*
X159307D01*
Y116988D01*
X159243D01*
X159007Y117390D01*
X159007Y117488D01*
Y120152D01*
D02*
G37*
G36*
X154507D02*
X151587D01*
Y117488D01*
X151587Y117390D01*
X151352Y116988D01*
X151287D01*
Y115807D01*
X154807D01*
Y116988D01*
X154743D01*
X154507Y117390D01*
X154507Y117488D01*
Y120152D01*
D02*
G37*
G36*
X150007D02*
X147087D01*
Y117488D01*
X147087Y117390D01*
X146852Y116988D01*
X146787D01*
Y115807D01*
X150307D01*
Y116988D01*
X150243D01*
X150007Y117390D01*
X150007Y117488D01*
Y120152D01*
D02*
G37*
G36*
X391370Y118185D02*
X387230D01*
Y114586D01*
X387222Y114429D01*
X386928Y114064D01*
X386816Y114042D01*
X386485Y113821D01*
X384582Y111918D01*
X384361Y111587D01*
X384284Y111197D01*
Y109832D01*
X383430D01*
Y106086D01*
X387570D01*
Y109832D01*
X386323D01*
Y110775D01*
X387629Y112080D01*
X389291D01*
Y106244D01*
X394810D01*
Y112156D01*
X393762D01*
X393555Y112656D01*
X395142Y114242D01*
X397468D01*
Y114823D01*
X399232D01*
Y114242D01*
X403569D01*
Y118185D01*
X399232D01*
Y116862D01*
X397468D01*
Y118185D01*
X393131D01*
Y115116D01*
X392135Y114120D01*
X391738D01*
X391370Y114439D01*
X391370Y114620D01*
Y118185D01*
D02*
G37*
G36*
X385469Y118185D02*
X381132D01*
Y114242D01*
X385469D01*
Y118185D01*
D02*
G37*
G36*
X276343Y119568D02*
X268857D01*
Y114050D01*
X276343D01*
Y119568D01*
D02*
G37*
G36*
X181700Y120428D02*
X180865Y120318D01*
X180086Y119995D01*
X179418Y119482D01*
X178905Y118814D01*
X178582Y118035D01*
X178472Y117200D01*
X178582Y116365D01*
X178905Y115586D01*
X179418Y114918D01*
X180086Y114405D01*
X180865Y114082D01*
X181700Y113972D01*
X182535Y114082D01*
X183314Y114405D01*
X183982Y114918D01*
X184495Y115586D01*
X184818Y116365D01*
X184928Y117200D01*
X184818Y118035D01*
X184495Y118814D01*
X183982Y119482D01*
X183314Y119995D01*
X182535Y120318D01*
X181700Y120428D01*
D02*
G37*
G36*
X172900D02*
X172065Y120318D01*
X171286Y119995D01*
X170618Y119482D01*
X170105Y118814D01*
X169782Y118035D01*
X169672Y117200D01*
X169782Y116365D01*
X170105Y115586D01*
X170618Y114918D01*
X171286Y114405D01*
X172065Y114082D01*
X172900Y113972D01*
X173735Y114082D01*
X174514Y114405D01*
X175182Y114918D01*
X175695Y115586D01*
X176018Y116365D01*
X176128Y117200D01*
X176018Y118035D01*
X175695Y118814D01*
X175182Y119482D01*
X174514Y119995D01*
X173735Y120318D01*
X172900Y120428D01*
D02*
G37*
G36*
X193464Y116700D02*
X190500D01*
Y113736D01*
X190914Y113790D01*
X191765Y114143D01*
X192496Y114704D01*
X193057Y115435D01*
X193410Y116286D01*
X193464Y116700D01*
D02*
G37*
G36*
X189500D02*
X186536D01*
X186590Y116286D01*
X186943Y115435D01*
X187504Y114704D01*
X188235Y114143D01*
X189086Y113790D01*
X189500Y113736D01*
Y116700D01*
D02*
G37*
G36*
X159307Y114807D02*
X158047D01*
Y113626D01*
X159307D01*
Y114807D01*
D02*
G37*
G36*
X157047D02*
X155787D01*
Y113626D01*
X157047D01*
Y114807D01*
D02*
G37*
G36*
X154807D02*
X153547D01*
Y113626D01*
X154807D01*
Y114807D01*
D02*
G37*
G36*
X148047D02*
X146787D01*
Y113626D01*
X148047D01*
Y114807D01*
D02*
G37*
G36*
X152547D02*
X151287D01*
Y114007D01*
X151232Y113918D01*
X150867Y113582D01*
X150501Y113586D01*
X150307Y113799D01*
Y114807D01*
X149047D01*
Y113626D01*
X149870D01*
X150021Y113126D01*
X149835Y113001D01*
X149559Y112588D01*
X149462Y112100D01*
Y110792D01*
X149128Y110650D01*
X148962Y110614D01*
X148629Y110836D01*
X148200Y110922D01*
X147771Y110836D01*
X147407Y110593D01*
X147164Y110229D01*
X147078Y109800D01*
X146988Y109690D01*
X146401Y109669D01*
X146042Y109908D01*
X145618Y109993D01*
X145194Y109908D01*
X144835Y109669D01*
X144595Y109309D01*
X144594Y109300D01*
X144084D01*
X144082Y109309D01*
X143842Y109669D01*
X143483Y109908D01*
X143059Y109993D01*
X142635Y109908D01*
X142276Y109669D01*
X142036Y109309D01*
X141952Y108886D01*
Y107013D01*
X141937Y106941D01*
X141952Y106868D01*
Y105146D01*
X142006Y104875D01*
X141713Y104375D01*
X134096D01*
Y105662D01*
X128972D01*
Y100538D01*
X134096D01*
Y101825D01*
X148085D01*
X148143Y101665D01*
X148168Y101326D01*
X147833Y101101D01*
X132294Y85562D01*
X128972D01*
Y80438D01*
X134096D01*
X134225Y79991D01*
Y68994D01*
X132294Y67062D01*
X128972D01*
Y61938D01*
X134096D01*
Y65260D01*
X136345Y67509D01*
X136730Y67786D01*
X140870D01*
Y71532D01*
X136775D01*
Y82872D01*
X150628Y96725D01*
X160500D01*
X160988Y96823D01*
X161401Y97099D01*
X164433Y100130D01*
X164709Y100544D01*
X164806Y101031D01*
Y104214D01*
X165306Y104365D01*
X165308Y104363D01*
X165667Y104123D01*
X166091Y104038D01*
X166514Y104123D01*
X166873Y104363D01*
X167113Y104722D01*
X167198Y105146D01*
Y105963D01*
X169530D01*
Y105386D01*
X173670D01*
Y109132D01*
X169530D01*
Y108512D01*
X167198D01*
Y108886D01*
X167113Y109309D01*
X166873Y109669D01*
X166514Y109908D01*
X166091Y109993D01*
X165667Y109908D01*
X165308Y109669D01*
X165068Y109309D01*
X165066Y109300D01*
X164556D01*
X164554Y109309D01*
X164314Y109669D01*
X163955Y109908D01*
X163531Y109993D01*
X163108Y109908D01*
X162749Y109669D01*
X162509Y109309D01*
X162507Y109300D01*
X161997D01*
X161995Y109309D01*
X161755Y109669D01*
X161396Y109908D01*
X160972Y109993D01*
X160549Y109908D01*
X160190Y109669D01*
X159950Y109309D01*
X159948Y109300D01*
X159438D01*
X159436Y109309D01*
X159196Y109669D01*
X158837Y109908D01*
X158413Y109993D01*
X157990Y109908D01*
X157631Y109669D01*
X157391Y109309D01*
X157389Y109300D01*
X156879D01*
X156877Y109309D01*
X156637Y109669D01*
X156278Y109908D01*
X155854Y109993D01*
X155431Y109908D01*
X155071Y109669D01*
X155034Y109613D01*
X154455Y109645D01*
X154294Y109885D01*
X153836Y110191D01*
X153795Y110199D01*
Y107016D01*
X152795D01*
Y110199D01*
X152754Y110191D01*
X152511Y110028D01*
X152011Y110289D01*
Y112100D01*
X151914Y112588D01*
X151736Y112853D01*
X151488Y113245D01*
X151488Y113247D01*
X151603Y113626D01*
X151725Y113626D01*
X151725Y113626D01*
X151726Y113626D01*
X152547D01*
Y114807D01*
D02*
G37*
G36*
X293932Y123487D02*
X285068D01*
Y113442D01*
X293932D01*
Y123487D01*
D02*
G37*
G36*
X122872Y121824D02*
X121691D01*
X120457Y121661D01*
X119307Y121185D01*
X118320Y120427D01*
X117562Y119439D01*
X117086Y118289D01*
X116923Y117055D01*
X117086Y115821D01*
X117562Y114671D01*
X118320Y113683D01*
X119307Y112926D01*
X120457Y112449D01*
X121691Y112287D01*
X122872D01*
X124107Y112449D01*
X125257Y112926D01*
X126244Y113683D01*
X127002Y114671D01*
X127478Y115821D01*
X127641Y117055D01*
X127478Y118289D01*
X127002Y119439D01*
X126244Y120427D01*
X125257Y121185D01*
X124107Y121661D01*
X122872Y121824D01*
D02*
G37*
G36*
X99348Y113874D02*
X96100D01*
Y111512D01*
X99348D01*
Y113874D01*
D02*
G37*
G36*
X89748D02*
X86500D01*
Y111512D01*
X89748D01*
Y113874D01*
D02*
G37*
G36*
X95100D02*
X91852D01*
Y111512D01*
X95100D01*
Y113874D01*
D02*
G37*
G36*
X85500D02*
X82252D01*
Y111512D01*
X85500D01*
Y113874D01*
D02*
G37*
G36*
X108948Y113774D02*
X105700D01*
Y111412D01*
X108948D01*
Y113774D01*
D02*
G37*
G36*
X104700D02*
X101452D01*
Y111412D01*
X104700D01*
Y113774D01*
D02*
G37*
G36*
X99348Y110512D02*
X95600D01*
X91852D01*
Y108429D01*
X89748D01*
Y110512D01*
X86500D01*
Y108150D01*
X86980D01*
X87187Y107650D01*
X84919Y105381D01*
X84587Y104885D01*
X84471Y104300D01*
Y102550D01*
X82552D01*
Y97426D01*
X89448D01*
Y102550D01*
X87529D01*
Y103666D01*
X89233Y105371D01*
X98135D01*
X98182Y105308D01*
X98320Y104871D01*
X95999Y102550D01*
X92152D01*
Y97426D01*
X99048D01*
Y101273D01*
X100145Y102371D01*
X101752D01*
Y97326D01*
X108648D01*
Y98359D01*
X109423D01*
X115171Y92611D01*
Y67100D01*
X115287Y66515D01*
X115619Y66019D01*
X118219Y63419D01*
X118715Y63087D01*
X119300Y62971D01*
X120704D01*
Y61938D01*
X125828D01*
Y67062D01*
X120704D01*
Y66029D01*
X119933D01*
X118229Y67734D01*
Y93245D01*
X118113Y93830D01*
X117781Y94326D01*
X111138Y100970D01*
X110642Y101301D01*
X110057Y101418D01*
X108648D01*
Y102371D01*
X110467D01*
X121737Y91100D01*
Y85562D01*
X120704D01*
Y80438D01*
X125828D01*
Y85562D01*
X124795D01*
Y91734D01*
X124679Y92319D01*
X124348Y92815D01*
X115599Y101564D01*
X115918Y101952D01*
X116315Y101687D01*
X116900Y101571D01*
X120704D01*
Y100538D01*
X125828D01*
Y105662D01*
X120704D01*
Y104629D01*
X117534D01*
X114181Y107981D01*
X113685Y108313D01*
X113100Y108429D01*
X108948D01*
Y110412D01*
X105200D01*
X101452D01*
Y108429D01*
X99348D01*
Y110512D01*
D02*
G37*
G36*
X85500D02*
X82252D01*
Y108150D01*
X85500D01*
Y110512D01*
D02*
G37*
G36*
X351068Y111614D02*
X346731D01*
Y107671D01*
X351068D01*
Y111614D01*
D02*
G37*
G36*
X361932Y117070D02*
X358186D01*
Y112930D01*
X359039D01*
Y110669D01*
X358186D01*
Y106332D01*
X362129D01*
Y110669D01*
X361079D01*
Y112930D01*
X361932D01*
Y117070D01*
D02*
G37*
G36*
X356814Y110669D02*
X352871D01*
Y108839D01*
X352803Y108500D01*
X352871Y108160D01*
Y106332D01*
X356814D01*
Y107923D01*
X356921Y108461D01*
X356814Y108998D01*
Y110669D01*
D02*
G37*
G36*
X401109Y112156D02*
X395591D01*
Y106244D01*
X401109D01*
Y112156D01*
D02*
G37*
G36*
X276643Y108450D02*
X273100D01*
Y105891D01*
X276643D01*
Y108450D01*
D02*
G37*
G36*
X272100D02*
X268557D01*
Y105891D01*
X272100D01*
Y108450D01*
D02*
G37*
G36*
X368326Y108357D02*
X364186D01*
Y104611D01*
X368326D01*
Y108357D01*
D02*
G37*
G36*
X58400Y110972D02*
X57565Y110862D01*
X56786Y110539D01*
X56118Y110026D01*
X55605Y109358D01*
X55282Y108580D01*
X55172Y107744D01*
X55282Y106909D01*
X55605Y106130D01*
X56118Y105462D01*
X56786Y104949D01*
X57565Y104627D01*
X58400Y104516D01*
X59235Y104627D01*
X60014Y104949D01*
X60682Y105462D01*
X61195Y106130D01*
X61518Y106909D01*
X61628Y107744D01*
X61518Y108580D01*
X61195Y109358D01*
X60682Y110026D01*
X60014Y110539D01*
X59235Y110862D01*
X58400Y110972D01*
D02*
G37*
G36*
X45800D02*
X44965Y110862D01*
X44186Y110539D01*
X43518Y110026D01*
X43005Y109358D01*
X42682Y108580D01*
X42572Y107744D01*
X42682Y106909D01*
X43005Y106130D01*
X43518Y105462D01*
X44186Y104949D01*
X44965Y104627D01*
X45800Y104516D01*
X46635Y104627D01*
X47414Y104949D01*
X48082Y105462D01*
X48595Y106130D01*
X48918Y106909D01*
X49028Y107744D01*
X48918Y108580D01*
X48595Y109358D01*
X48082Y110026D01*
X47414Y110539D01*
X46635Y110862D01*
X45800Y110972D01*
D02*
G37*
G36*
X374269Y108414D02*
X369932D01*
Y104471D01*
X374269D01*
Y108414D01*
D02*
G37*
G36*
X401370Y104832D02*
X399500D01*
Y103159D01*
X401370D01*
Y104832D01*
D02*
G37*
G36*
X395470D02*
X393600D01*
Y103159D01*
X395470D01*
Y104832D01*
D02*
G37*
G36*
X398500D02*
X396630D01*
Y103159D01*
X398500D01*
Y104832D01*
D02*
G37*
G36*
X392600D02*
X390730D01*
Y103159D01*
X392600D01*
Y104832D01*
D02*
G37*
G36*
X213647Y119909D02*
X203405D01*
Y112816D01*
X208468D01*
X219440Y101843D01*
Y97703D01*
X219518Y97313D01*
X219739Y96982D01*
X222161Y94560D01*
Y92376D01*
X222316Y91596D01*
X222758Y90934D01*
X222819Y90893D01*
Y87858D01*
X225581D01*
Y90893D01*
X225642Y90934D01*
X226084Y91596D01*
X226239Y92376D01*
Y94560D01*
X228661Y96982D01*
X228882Y97313D01*
X228960Y97703D01*
Y103528D01*
X235231D01*
Y103086D01*
X239568D01*
Y107029D01*
X235231D01*
Y106587D01*
X227979D01*
X226102Y108464D01*
X225771Y108685D01*
X225381Y108762D01*
X223019D01*
X222629Y108685D01*
X222298Y108464D01*
X221164Y107329D01*
X213647Y114846D01*
Y119909D01*
D02*
G37*
G36*
X276643Y104891D02*
X273100D01*
Y102332D01*
X276643D01*
Y104891D01*
D02*
G37*
G36*
X272100D02*
X268557D01*
Y102332D01*
X272100D01*
Y104891D01*
D02*
G37*
G36*
X387570Y104714D02*
X383430D01*
Y100968D01*
X387570D01*
Y104714D01*
D02*
G37*
G36*
X196500Y110717D02*
X195227Y110550D01*
X194041Y110058D01*
X193023Y109277D01*
X192242Y108259D01*
X191750Y107073D01*
X191583Y105800D01*
X191750Y104527D01*
X192242Y103341D01*
X193023Y102323D01*
X194041Y101541D01*
X195227Y101050D01*
X196500Y100883D01*
X197773Y101050D01*
X198959Y101541D01*
X199977Y102323D01*
X200759Y103341D01*
X201250Y104527D01*
X201417Y105800D01*
X201250Y107073D01*
X200759Y108259D01*
X199977Y109277D01*
X198959Y110058D01*
X197773Y110550D01*
X196500Y110717D01*
D02*
G37*
G36*
X184000D02*
X182727Y110550D01*
X181541Y110058D01*
X180523Y109277D01*
X179742Y108259D01*
X179250Y107073D01*
X179083Y105800D01*
X179250Y104527D01*
X179742Y103341D01*
X180523Y102323D01*
X181541Y101541D01*
X182727Y101050D01*
X184000Y100883D01*
X185273Y101050D01*
X186459Y101541D01*
X187477Y102323D01*
X188259Y103341D01*
X188750Y104527D01*
X188917Y105800D01*
X188750Y107073D01*
X188259Y108259D01*
X187477Y109277D01*
X186459Y110058D01*
X185273Y110550D01*
X184000Y110717D01*
D02*
G37*
G36*
X401370Y102159D02*
X399500D01*
Y100486D01*
X401370D01*
Y102159D01*
D02*
G37*
G36*
X398500D02*
X396630D01*
Y100486D01*
X398500D01*
Y102159D01*
D02*
G37*
G36*
X395470D02*
X393600D01*
Y100486D01*
X395470D01*
Y102159D01*
D02*
G37*
G36*
X392600D02*
X390730D01*
Y100486D01*
X392600D01*
Y102159D01*
D02*
G37*
G36*
X374507Y100929D02*
X370170D01*
Y100377D01*
X368212D01*
Y100773D01*
X364072D01*
Y98182D01*
X364067Y98157D01*
X364072Y98133D01*
Y97027D01*
X368212D01*
Y98338D01*
X370170D01*
Y96986D01*
X374507D01*
Y100929D01*
D02*
G37*
G36*
X173670Y104014D02*
X169530D01*
Y100268D01*
X173670D01*
Y104014D01*
D02*
G37*
G36*
X354882Y104047D02*
X354839Y104039D01*
X353048D01*
Y102863D01*
X352998Y102788D01*
X352843Y102008D01*
X352998Y101227D01*
X353048Y101153D01*
Y99898D01*
X356795D01*
Y101172D01*
X356805Y101188D01*
X356960Y101969D01*
X356805Y102749D01*
X356795Y102765D01*
Y104039D01*
X354925D01*
X354882Y104047D01*
D02*
G37*
G36*
X80323Y115849D02*
X77561D01*
Y112496D01*
X77922D01*
Y99001D01*
X77422Y98849D01*
X77393Y98893D01*
X77029Y99136D01*
X77000Y99142D01*
X74820Y101322D01*
Y112402D01*
X75181D01*
Y115755D01*
X72419D01*
Y112402D01*
X72780D01*
Y101469D01*
X72280Y101261D01*
X69808Y103734D01*
Y112324D01*
X70181D01*
Y115676D01*
X67419D01*
Y112324D01*
X67769D01*
Y103312D01*
X67846Y102921D01*
X68067Y102591D01*
X76784Y93875D01*
X76864Y93471D01*
X77107Y93107D01*
X77471Y92864D01*
X77875Y92783D01*
X79936Y90722D01*
X79745Y90260D01*
X77756D01*
Y87340D01*
X80518D01*
Y89487D01*
X80980Y89678D01*
X82180Y88478D01*
Y86900D01*
X82258Y86510D01*
X82479Y86179D01*
X83171Y85487D01*
X82964Y84987D01*
X81876D01*
Y85349D01*
X78524D01*
Y82587D01*
X81876D01*
Y82948D01*
X82893D01*
X84152Y81689D01*
X84207Y81607D01*
X84571Y81364D01*
X85000Y81278D01*
X85429Y81364D01*
X85793Y81607D01*
X86014Y81937D01*
X86062Y81977D01*
X86489Y82083D01*
X86565Y82068D01*
X86807Y81707D01*
X87171Y81464D01*
X87600Y81378D01*
X88029Y81464D01*
X88393Y81707D01*
X88636Y82071D01*
X88655Y82164D01*
X88774Y82200D01*
X89264Y82239D01*
X89507Y81875D01*
X89871Y81632D01*
X90054Y81595D01*
X90080Y81522D01*
X90107Y81075D01*
X89885Y80927D01*
X88424Y79466D01*
X87872D01*
Y79828D01*
X85109D01*
Y76908D01*
X87534D01*
X87741Y76408D01*
X86527Y75194D01*
X85109D01*
Y72274D01*
X87872D01*
Y73419D01*
X88080Y73576D01*
X88580Y73326D01*
Y72628D01*
X88564Y72603D01*
X88478Y72174D01*
X88564Y71745D01*
X88807Y71381D01*
X89171Y71138D01*
X89249Y71122D01*
X89448Y70573D01*
X89375Y70483D01*
X89046D01*
Y67721D01*
X92398D01*
Y68182D01*
X94876D01*
Y67721D01*
X98229D01*
Y70483D01*
X98229D01*
X98106Y70781D01*
X98617Y71292D01*
X101631D01*
X102022Y71370D01*
X102352Y71591D01*
X103080Y72319D01*
X103580Y72112D01*
Y69900D01*
X103658Y69510D01*
X103879Y69179D01*
X105798Y67260D01*
Y65851D01*
X108718D01*
Y68613D01*
X107328D01*
X106255Y69687D01*
X106462Y70187D01*
X108718D01*
Y72949D01*
X106056Y72949D01*
X105855Y73300D01*
X106056Y73651D01*
X108718D01*
Y76413D01*
X105798Y76413D01*
X105620Y76839D01*
Y77026D01*
X105542Y77416D01*
X105321Y77747D01*
X104158Y78910D01*
X104112Y79086D01*
X104116Y79398D01*
X104159Y79527D01*
X105298Y80666D01*
X105798Y80459D01*
X105798Y80323D01*
Y77954D01*
X108718D01*
Y80717D01*
X106399D01*
X106156Y81142D01*
X106149Y81217D01*
X106300Y81419D01*
X106625D01*
X106673Y81387D01*
X107258Y81271D01*
X109766D01*
X111571Y79466D01*
Y65400D01*
X111687Y64815D01*
X112019Y64319D01*
X117619Y58719D01*
X118115Y58387D01*
X118700Y58271D01*
X132867D01*
X135971Y55167D01*
Y48634D01*
X135886Y48599D01*
X135218Y48086D01*
X134705Y47417D01*
X134382Y46639D01*
X134272Y45803D01*
X134382Y44968D01*
X134705Y44190D01*
X135218Y43521D01*
X135886Y43008D01*
X136665Y42686D01*
X137500Y42576D01*
X138335Y42686D01*
X139114Y43008D01*
X139782Y43521D01*
X140295Y44190D01*
X140618Y44968D01*
X140728Y45803D01*
X140618Y46639D01*
X140295Y47417D01*
X139782Y48086D01*
X139114Y48599D01*
X139029Y48634D01*
Y55800D01*
X138913Y56385D01*
X138581Y56881D01*
X134581Y60881D01*
X134085Y61213D01*
X133500Y61329D01*
X119334D01*
X114629Y66034D01*
Y80100D01*
X114513Y80685D01*
X114181Y81181D01*
X111481Y83881D01*
X110985Y84213D01*
X110400Y84329D01*
X107258D01*
X107208Y84319D01*
X106656Y84720D01*
X106642Y84837D01*
X107261Y85456D01*
X107448Y85735D01*
X108760D01*
Y88498D01*
X105840D01*
Y87177D01*
X105819Y87156D01*
X105598Y86826D01*
X105561Y86640D01*
X102343Y83422D01*
X101843Y83629D01*
Y88387D01*
X102028D01*
Y91149D01*
X99109D01*
Y88387D01*
X99085Y88338D01*
X98481Y88235D01*
X97318Y89398D01*
Y91117D01*
X94398D01*
Y88354D01*
X95478D01*
X97558Y86274D01*
X97564Y86245D01*
X97580Y86220D01*
Y83464D01*
X97080Y83197D01*
X97061Y83210D01*
X96631Y83296D01*
X96202Y83210D01*
X96184Y83198D01*
X95684Y83465D01*
Y84562D01*
X95606Y84952D01*
X95385Y85282D01*
X92770Y87898D01*
X92618Y88354D01*
X92618D01*
X92618Y88354D01*
Y91117D01*
X89698D01*
Y88354D01*
X90139D01*
Y88068D01*
X90216Y87678D01*
X90307Y87542D01*
X89918Y87224D01*
X88820Y88322D01*
Y89500D01*
X88742Y89890D01*
X88521Y90221D01*
X84542Y94200D01*
X84536Y94229D01*
X84293Y94593D01*
X83929Y94836D01*
X83900Y94842D01*
X79962Y98780D01*
Y112496D01*
X80323D01*
Y115849D01*
D02*
G37*
G36*
X204000Y101810D02*
X203231Y101657D01*
X202578Y101222D01*
X202143Y100569D01*
X201990Y99800D01*
X202143Y99031D01*
X202578Y98378D01*
X203231Y97943D01*
X204000Y97790D01*
X204769Y97943D01*
X205421Y98378D01*
X205857Y99031D01*
X206010Y99800D01*
X205857Y100569D01*
X205421Y101222D01*
X204769Y101657D01*
X204000Y101810D01*
D02*
G37*
G36*
X239568Y101714D02*
X235231D01*
Y97771D01*
X239568D01*
Y101714D01*
D02*
G37*
G36*
X192150Y101111D02*
X191720Y101025D01*
X191357Y100782D01*
X191113Y100418D01*
X191028Y99989D01*
X191113Y99560D01*
X191357Y99196D01*
X191720Y98953D01*
X191850Y98927D01*
X192238Y98539D01*
X192190Y98300D01*
X192328Y97607D01*
X192720Y97020D01*
X193307Y96628D01*
X194000Y96490D01*
X194693Y96628D01*
X195280Y97020D01*
X195672Y97607D01*
X195810Y98300D01*
X195672Y98993D01*
X195280Y99580D01*
X194693Y99972D01*
X194000Y100110D01*
X193626Y100035D01*
X193071Y100591D01*
X192943Y100782D01*
X192579Y101025D01*
X192150Y101111D01*
D02*
G37*
G36*
X190575Y103721D02*
X190146Y103636D01*
X189782Y103392D01*
X189539Y103029D01*
X189533Y102999D01*
X188279Y101745D01*
X188058Y101415D01*
X187980Y101024D01*
Y99753D01*
X187720Y99580D01*
X187328Y98993D01*
X187190Y98300D01*
X187328Y97607D01*
X187720Y97020D01*
X188307Y96628D01*
X189000Y96490D01*
X189692Y96628D01*
X190280Y97020D01*
X190672Y97607D01*
X190810Y98300D01*
X190672Y98993D01*
X190280Y99580D01*
X190020Y99753D01*
Y100602D01*
X190975Y101557D01*
X191004Y101563D01*
X191368Y101806D01*
X191611Y102170D01*
X191696Y102599D01*
X191611Y103029D01*
X191368Y103392D01*
X191004Y103636D01*
X190575Y103721D01*
D02*
G37*
G36*
X253900Y99164D02*
Y96200D01*
X256864D01*
X256810Y96614D01*
X256457Y97465D01*
X255896Y98196D01*
X255165Y98757D01*
X254314Y99110D01*
X253900Y99164D01*
D02*
G37*
G36*
X252900D02*
X252486Y99110D01*
X251635Y98757D01*
X250904Y98196D01*
X250343Y97465D01*
X249990Y96614D01*
X249936Y96200D01*
X252900D01*
Y99164D01*
D02*
G37*
G36*
X192150Y96268D02*
X191720Y96183D01*
X191357Y95940D01*
X191113Y95576D01*
X191028Y95147D01*
X191101Y94782D01*
X191113Y94717D01*
X190682Y94517D01*
X190681Y94518D01*
X190496Y94796D01*
X189810Y95254D01*
X189500Y95316D01*
Y93800D01*
X191016D01*
X190958Y94093D01*
X190954Y94109D01*
X191357Y94353D01*
X191387Y94333D01*
X191720Y94110D01*
X191752Y94104D01*
X192251Y93605D01*
X192190Y93300D01*
X192328Y92607D01*
X192720Y92020D01*
X193307Y91628D01*
X194000Y91490D01*
X194693Y91628D01*
X195280Y92020D01*
X195672Y92607D01*
X195810Y93300D01*
X195672Y93993D01*
X195280Y94580D01*
X194693Y94972D01*
X194000Y95110D01*
X193692Y95048D01*
X193191Y95549D01*
X193186Y95576D01*
X192943Y95940D01*
X192579Y96183D01*
X192150Y96268D01*
D02*
G37*
G36*
X188500Y95316D02*
X188190Y95254D01*
X187504Y94796D01*
X187046Y94110D01*
X186984Y93800D01*
X188500D01*
Y95316D01*
D02*
G37*
G36*
X184000Y97810D02*
X183231Y97657D01*
X182579Y97221D01*
X182143Y96569D01*
X181990Y95800D01*
X182143Y95031D01*
X182579Y94379D01*
X183231Y93943D01*
X184000Y93790D01*
X184769Y93943D01*
X185422Y94379D01*
X185857Y95031D01*
X186010Y95800D01*
X185857Y96569D01*
X185422Y97221D01*
X184769Y97657D01*
X184000Y97810D01*
D02*
G37*
G36*
X362129Y97594D02*
X358186D01*
Y93257D01*
X362129D01*
Y97594D01*
D02*
G37*
G36*
X356814D02*
X352871D01*
Y93257D01*
X356814D01*
Y97594D01*
D02*
G37*
G36*
X256864Y95200D02*
X253900D01*
Y92236D01*
X254314Y92290D01*
X255165Y92643D01*
X255896Y93204D01*
X256457Y93935D01*
X256810Y94786D01*
X256864Y95200D01*
D02*
G37*
G36*
X252900D02*
X249936D01*
X249990Y94786D01*
X250343Y93935D01*
X250904Y93204D01*
X251635Y92643D01*
X252486Y92290D01*
X252900Y92236D01*
Y95200D01*
D02*
G37*
G36*
X368212Y95655D02*
X364072D01*
Y91909D01*
X368212D01*
Y95655D01*
D02*
G37*
G36*
X102028Y94613D02*
X99109D01*
Y91851D01*
X102028D01*
Y94613D01*
D02*
G37*
G36*
X97318Y94581D02*
X94398D01*
Y91819D01*
X97318D01*
Y94581D01*
D02*
G37*
G36*
X92618D02*
X89698D01*
Y91819D01*
X92618D01*
Y94581D01*
D02*
G37*
G36*
X374507Y95614D02*
X370170D01*
Y91671D01*
X374507D01*
Y95614D01*
D02*
G37*
G36*
X199000Y100110D02*
X198308Y99972D01*
X197720Y99580D01*
X197328Y98993D01*
X197190Y98300D01*
X197328Y97607D01*
X197720Y97020D01*
X198308Y96628D01*
X199000Y96490D01*
X199400Y96570D01*
X199646Y96109D01*
X198559Y95022D01*
X198308Y94972D01*
X197720Y94580D01*
X197328Y93993D01*
X197190Y93300D01*
X197328Y92607D01*
X197720Y92020D01*
X198308Y91628D01*
X199000Y91490D01*
X199692Y91628D01*
X200280Y92020D01*
X200672Y92607D01*
X200722Y92859D01*
X202671Y94808D01*
X203002Y95304D01*
X203119Y95889D01*
X203002Y96474D01*
X202671Y96971D01*
X202174Y97302D01*
X201589Y97419D01*
X201079Y97317D01*
X200874Y97464D01*
X200689Y97693D01*
X200810Y98300D01*
X200672Y98993D01*
X200280Y99580D01*
X199692Y99972D01*
X199000Y100110D01*
D02*
G37*
G36*
X191016Y92800D02*
X189500D01*
Y91284D01*
X189810Y91346D01*
X190496Y91804D01*
X190954Y92490D01*
X191016Y92800D01*
D02*
G37*
G36*
X188500D02*
X186984D01*
X187046Y92490D01*
X187504Y91804D01*
X188190Y91346D01*
X188500Y91284D01*
Y92800D01*
D02*
G37*
G36*
X173260Y93413D02*
X170340D01*
Y90651D01*
X173260D01*
Y93413D01*
D02*
G37*
G36*
X204000Y93810D02*
X203231Y93657D01*
X202578Y93221D01*
X202143Y92569D01*
X201990Y91800D01*
X202143Y91031D01*
X202578Y90378D01*
X203231Y89943D01*
X204000Y89790D01*
X204769Y89943D01*
X205421Y90378D01*
X205857Y91031D01*
X206010Y91800D01*
X205857Y92569D01*
X205421Y93221D01*
X204769Y93657D01*
X204000Y93810D01*
D02*
G37*
G36*
X108760Y91962D02*
X105840D01*
Y89200D01*
X108760D01*
Y91962D01*
D02*
G37*
G36*
X219676Y93769D02*
X216913D01*
Y87858D01*
X219676D01*
Y93769D01*
D02*
G37*
G36*
X361932Y91330D02*
X358186D01*
Y87190D01*
X361932D01*
Y91330D01*
D02*
G37*
G36*
X356814D02*
X353068D01*
Y87190D01*
X356814D01*
Y91330D01*
D02*
G37*
G36*
X173260Y89949D02*
X170340D01*
Y87187D01*
X173260D01*
Y89949D01*
D02*
G37*
G36*
X164636Y90938D02*
X150736D01*
X150249Y90841D01*
X149835Y90565D01*
X149559Y90152D01*
X149462Y89664D01*
X149559Y89176D01*
X149835Y88763D01*
X150249Y88486D01*
X150736Y88389D01*
X164108D01*
X164816Y87682D01*
Y86589D01*
X164316Y86437D01*
X164314Y86440D01*
X163955Y86680D01*
X163531Y86764D01*
X163108Y86680D01*
X162749Y86440D01*
X162509Y86081D01*
X162507Y86072D01*
X161997D01*
X161995Y86081D01*
X161755Y86440D01*
X161396Y86680D01*
X160972Y86764D01*
X160549Y86680D01*
X160190Y86440D01*
X159950Y86081D01*
X159948Y86072D01*
X159438D01*
X159436Y86081D01*
X159196Y86440D01*
X158837Y86680D01*
X158413Y86764D01*
X157990Y86680D01*
X157631Y86440D01*
X157391Y86081D01*
X157389Y86072D01*
X156879D01*
X156877Y86081D01*
X156637Y86440D01*
X156278Y86680D01*
X155854Y86764D01*
X155431Y86680D01*
X155071Y86440D01*
X155034Y86385D01*
X154455Y86417D01*
X154294Y86656D01*
X153836Y86963D01*
X153795Y86971D01*
Y83787D01*
Y80604D01*
X153836Y80612D01*
X154294Y80918D01*
X154455Y81158D01*
X155034Y81190D01*
X155071Y81134D01*
X155431Y80894D01*
X155854Y80810D01*
X156278Y80894D01*
X156637Y81134D01*
X156877Y81494D01*
X156879Y81503D01*
X157389D01*
X157391Y81494D01*
X157631Y81134D01*
X157990Y80894D01*
X158413Y80810D01*
X158837Y80894D01*
X159196Y81134D01*
X159417Y81464D01*
X159453Y81470D01*
X159917Y81221D01*
Y80108D01*
X159864Y80029D01*
X159778Y79600D01*
X159864Y79171D01*
X160107Y78807D01*
X160471Y78564D01*
X160776Y78503D01*
X161039Y78279D01*
X161212Y78031D01*
Y77201D01*
X161124Y77130D01*
X160712Y76979D01*
X160572Y77073D01*
X160263Y77134D01*
X159955Y77073D01*
X159693Y76898D01*
X159542Y76672D01*
X159279Y76643D01*
X159016Y76672D01*
X158864Y76898D01*
X158603Y77073D01*
X158294Y77134D01*
X157986Y77073D01*
X157724Y76898D01*
X157550Y76637D01*
X157488Y76328D01*
Y73769D01*
X157550Y73461D01*
X157724Y73199D01*
X157986Y73025D01*
X158294Y72963D01*
X158603Y73025D01*
X158864Y73199D01*
X159016Y73426D01*
X159279Y73455D01*
X159542Y73426D01*
X159693Y73199D01*
X159955Y73025D01*
X160263Y72963D01*
X160572Y73025D01*
X160833Y73199D01*
X160984Y73426D01*
X161247Y73455D01*
X161510Y73426D01*
X161662Y73199D01*
X161923Y73025D01*
X162232Y72963D01*
X162540Y73025D01*
X162801Y73199D01*
X162952Y73426D01*
X163216Y73455D01*
X163479Y73426D01*
X163630Y73199D01*
X163891Y73025D01*
X164200Y72963D01*
X164508Y73025D01*
X164770Y73199D01*
X164921Y73426D01*
X165184Y73455D01*
X165447Y73426D01*
X165598Y73199D01*
X165860Y73025D01*
X166168Y72963D01*
X166477Y73025D01*
X166738Y73199D01*
X166890Y73426D01*
X167153Y73455D01*
X167416Y73426D01*
X167567Y73199D01*
X167829Y73025D01*
X168137Y72963D01*
X168446Y73025D01*
X168707Y73199D01*
X168858Y73426D01*
X169121Y73455D01*
X169385Y73426D01*
X169536Y73199D01*
X169797Y73025D01*
X170106Y72963D01*
X170414Y73025D01*
X170676Y73199D01*
X170850Y73461D01*
X170912Y73769D01*
Y76328D01*
X170850Y76637D01*
X170676Y76898D01*
X170414Y77073D01*
X170106Y77134D01*
X169797Y77073D01*
X169536Y76898D01*
X169385Y76672D01*
X169121Y76643D01*
X168858Y76672D01*
X168707Y76898D01*
X168446Y77073D01*
X168137Y77134D01*
X167829Y77073D01*
X167477Y77440D01*
X167443Y77592D01*
X167448Y77606D01*
X169321Y79479D01*
X169542Y79810D01*
X169620Y80200D01*
Y81046D01*
X169636Y81071D01*
X169722Y81500D01*
X169636Y81929D01*
X169393Y82293D01*
X169029Y82536D01*
X168600Y82622D01*
X168171Y82536D01*
X167807Y82293D01*
X167698Y82130D01*
X167198Y82281D01*
Y83194D01*
X167268Y83299D01*
X167365Y83787D01*
Y88209D01*
X167268Y88697D01*
X166992Y89111D01*
X165537Y90565D01*
X165124Y90841D01*
X164636Y90938D01*
D02*
G37*
G36*
X152795Y86971D02*
X152754Y86963D01*
X152296Y86656D01*
X152136Y86417D01*
X151556Y86385D01*
X151519Y86440D01*
X151160Y86680D01*
X150736Y86764D01*
X150312Y86680D01*
X149953Y86440D01*
X149713Y86081D01*
X149712Y86072D01*
X149202D01*
X149200Y86081D01*
X148960Y86440D01*
X148601Y86680D01*
X148177Y86764D01*
X147754Y86680D01*
X147394Y86440D01*
X147154Y86081D01*
X147152Y86072D01*
X146643D01*
X146641Y86081D01*
X146401Y86440D01*
X146042Y86680D01*
X145618Y86764D01*
X145194Y86680D01*
X144835Y86440D01*
X144595Y86081D01*
X144594Y86072D01*
X144084D01*
X144082Y86081D01*
X143842Y86440D01*
X143483Y86680D01*
X143059Y86764D01*
X142635Y86680D01*
X142276Y86440D01*
X142036Y86081D01*
X141952Y85657D01*
Y83988D01*
X141880Y83628D01*
X141952Y83268D01*
Y81917D01*
X142036Y81494D01*
X142276Y81134D01*
X142635Y80894D01*
X143059Y80810D01*
X143483Y80894D01*
X143842Y81134D01*
X144082Y81494D01*
X144084Y81503D01*
X144594D01*
X144595Y81494D01*
X144835Y81134D01*
X145194Y80894D01*
X145618Y80810D01*
X146042Y80894D01*
X146401Y81134D01*
X146641Y81494D01*
X146643Y81503D01*
X147152D01*
X147154Y81494D01*
X147394Y81134D01*
X147754Y80894D01*
X148177Y80810D01*
X148601Y80894D01*
X148960Y81134D01*
X149200Y81494D01*
X149202Y81503D01*
X149712D01*
X149713Y81494D01*
X149953Y81134D01*
X150312Y80894D01*
X150736Y80810D01*
X151160Y80894D01*
X151519Y81134D01*
X151556Y81190D01*
X152136Y81158D01*
X152296Y80918D01*
X152754Y80612D01*
X152795Y80604D01*
Y83787D01*
Y86971D01*
D02*
G37*
G36*
X253270Y86804D02*
X251400D01*
Y85032D01*
X253270D01*
Y86804D01*
D02*
G37*
G36*
X250400D02*
X248530D01*
Y85032D01*
X250400D01*
Y86804D01*
D02*
G37*
G36*
X245643Y87005D02*
X242100D01*
Y84446D01*
X245643D01*
Y87005D01*
D02*
G37*
G36*
X241100D02*
X237557D01*
Y84446D01*
X241100D01*
Y87005D01*
D02*
G37*
G36*
X253270Y84032D02*
X251400D01*
Y82261D01*
X253270D01*
Y84032D01*
D02*
G37*
G36*
X250400D02*
X248530D01*
Y82261D01*
X250400D01*
Y84032D01*
D02*
G37*
G36*
X245643Y83446D02*
X242100D01*
Y80887D01*
X245643D01*
Y83446D01*
D02*
G37*
G36*
X241100D02*
X237557D01*
Y80887D01*
X241100D01*
Y83446D01*
D02*
G37*
G36*
X196500Y90717D02*
X195227Y90550D01*
X194041Y90058D01*
X193023Y89277D01*
X192242Y88259D01*
X191750Y87073D01*
X191583Y85800D01*
X191750Y84527D01*
X192242Y83341D01*
X193023Y82323D01*
X194041Y81542D01*
X195227Y81050D01*
X196500Y80883D01*
X197773Y81050D01*
X198959Y81542D01*
X199977Y82323D01*
X200759Y83341D01*
X201250Y84527D01*
X201417Y85800D01*
X201250Y87073D01*
X200759Y88259D01*
X199977Y89277D01*
X198959Y90058D01*
X197773Y90550D01*
X196500Y90717D01*
D02*
G37*
G36*
X184000D02*
X182727Y90550D01*
X181541Y90058D01*
X180523Y89277D01*
X179742Y88259D01*
X179250Y87073D01*
X179083Y85800D01*
X179250Y84527D01*
X179742Y83341D01*
X180523Y82323D01*
X181541Y81542D01*
X182727Y81050D01*
X184000Y80883D01*
X185273Y81050D01*
X186459Y81542D01*
X187477Y82323D01*
X188259Y83341D01*
X188750Y84527D01*
X188917Y85800D01*
X188750Y87073D01*
X188259Y88259D01*
X187477Y89277D01*
X186459Y90058D01*
X185273Y90550D01*
X184000Y90717D01*
D02*
G37*
G36*
X152135Y79619D02*
X150875D01*
Y78438D01*
X152135D01*
Y79619D01*
D02*
G37*
G36*
X147635D02*
X146375D01*
Y78438D01*
X147635D01*
Y79619D01*
D02*
G37*
G36*
X149875D02*
X148615D01*
Y78438D01*
X149875D01*
Y79619D01*
D02*
G37*
G36*
X145375D02*
X144115D01*
Y78438D01*
X145375D01*
Y79619D01*
D02*
G37*
G36*
X84407Y79828D02*
X81645D01*
Y76908D01*
X84407D01*
Y79828D01*
D02*
G37*
G36*
X367240Y82213D02*
X363887D01*
Y79451D01*
X364473D01*
Y77681D01*
X364043D01*
Y74919D01*
X366963D01*
Y77681D01*
X366512D01*
Y79451D01*
X367240D01*
Y82213D01*
D02*
G37*
G36*
X362713D02*
X359360D01*
Y79451D01*
X359954D01*
Y77681D01*
X359540D01*
Y74919D01*
X362460D01*
Y77681D01*
X361993D01*
Y79451D01*
X362713D01*
Y82213D01*
D02*
G37*
G36*
X152135Y77438D02*
X150375D01*
X148615D01*
Y76257D01*
X148679D01*
X148915Y75854D01*
X148915Y75757D01*
Y73092D01*
X151835D01*
Y75757D01*
X151835Y75854D01*
X152070Y76257D01*
X152135D01*
Y77438D01*
D02*
G37*
G36*
X147635D02*
X145875D01*
X144115D01*
Y76257D01*
X144179D01*
X144415Y75854D01*
X144415Y75757D01*
Y73092D01*
X147335D01*
Y75757D01*
X147335Y75854D01*
X147570Y76257D01*
X147635D01*
Y77438D01*
D02*
G37*
G36*
X84407Y75194D02*
X81645D01*
Y72274D01*
X84407D01*
Y75194D01*
D02*
G37*
G36*
X245343Y75287D02*
X237857D01*
Y69769D01*
X245343D01*
Y75287D01*
D02*
G37*
G36*
X293932Y106558D02*
X285068D01*
Y96513D01*
X286474D01*
Y83553D01*
X274948Y72028D01*
X265529D01*
Y67484D01*
X254332D01*
X253649Y67348D01*
X253433Y67204D01*
X252951Y67160D01*
Y67160D01*
X252913Y67138D01*
X252413Y67424D01*
Y70159D01*
X252970D01*
Y74102D01*
X248830D01*
Y70159D01*
X249355D01*
Y65781D01*
X249338Y65700D01*
Y62432D01*
X249455Y61847D01*
X249786Y61351D01*
X253382Y57756D01*
X253878Y57424D01*
X254463Y57308D01*
X256887D01*
X257137Y57358D01*
X258957D01*
Y60316D01*
X257137D01*
X256887Y60366D01*
X255097D01*
X252397Y63066D01*
Y64003D01*
X252897Y64275D01*
X252951Y64240D01*
Y64240D01*
X253433Y64196D01*
X253649Y64052D01*
X254332Y63916D01*
X265419D01*
Y58837D01*
X265594Y57959D01*
X265643Y57885D01*
Y57358D01*
X265996D01*
X266091Y57215D01*
X266593Y56880D01*
X266441Y56379D01*
X265643D01*
Y53421D01*
X266778D01*
X267031Y53251D01*
X267713Y53116D01*
X273983D01*
X277141Y49958D01*
X277802Y49516D01*
X278583Y49361D01*
X300000D01*
X300780Y49516D01*
X301063Y49705D01*
X302043D01*
X302325Y49516D01*
X303105Y49361D01*
X312278D01*
X313058Y49516D01*
X313299Y49677D01*
X319958D01*
Y59723D01*
X315942D01*
X315909Y60223D01*
X316361Y60282D01*
X317140Y60605D01*
X317808Y61118D01*
X318321Y61786D01*
X318644Y62565D01*
X318754Y63400D01*
X318644Y64235D01*
X318552Y64457D01*
Y66606D01*
X319958D01*
Y76652D01*
X311094D01*
Y66606D01*
X312500D01*
Y64457D01*
X312408Y64235D01*
X312298Y63400D01*
X312408Y62565D01*
X312731Y61786D01*
X313244Y61118D01*
X313912Y60605D01*
X314691Y60282D01*
X315143Y60223D01*
X315110Y59723D01*
X311094D01*
Y53439D01*
X304210D01*
Y59750D01*
X295346D01*
Y53439D01*
X289360D01*
X288868Y53457D01*
X288868Y53939D01*
Y60943D01*
X283350D01*
X283350Y53457D01*
X282857Y53439D01*
X279427D01*
X277450Y55416D01*
Y60943D01*
X271932D01*
Y56684D01*
X269864D01*
X269615Y57184D01*
X269745Y57358D01*
X269783D01*
Y57885D01*
X269833Y57959D01*
X270007Y58837D01*
Y62376D01*
X279709D01*
Y68229D01*
X291640Y80160D01*
X291640Y80160D01*
X292121Y80787D01*
X292423Y81517D01*
X292526Y82300D01*
Y96513D01*
X293932D01*
Y106558D01*
D02*
G37*
G36*
X247581Y67826D02*
X246400D01*
Y66350D01*
X247581D01*
Y67826D01*
D02*
G37*
G36*
X245400D02*
X244219D01*
Y66350D01*
X245400D01*
Y67826D01*
D02*
G37*
G36*
X151370Y67024D02*
X150189D01*
Y65764D01*
X151370D01*
Y67024D01*
D02*
G37*
G36*
X98233Y65483D02*
X94880D01*
Y65221D01*
X92398D01*
Y65483D01*
X89046D01*
Y62721D01*
X92398D01*
Y63182D01*
X94880D01*
Y62721D01*
X98233D01*
Y65483D01*
D02*
G37*
G36*
X247581Y65350D02*
X246400D01*
Y63873D01*
X247581D01*
Y65350D01*
D02*
G37*
G36*
X245400D02*
X244219D01*
Y63873D01*
X245400D01*
Y65350D01*
D02*
G37*
G36*
X151370Y64764D02*
X150189D01*
Y63504D01*
X151370D01*
Y64764D01*
D02*
G37*
G36*
X146225Y69690D02*
X145737Y69593D01*
X145323Y69317D01*
X145047Y68903D01*
X144950Y68416D01*
Y66724D01*
X144843D01*
Y63804D01*
X147508D01*
X147606Y63804D01*
X148008Y63568D01*
Y63504D01*
X149189D01*
Y65264D01*
Y67024D01*
X148008D01*
Y67024D01*
X147579Y67195D01*
X147499Y67241D01*
Y68416D01*
X147402Y68903D01*
X147126Y69317D01*
X146712Y69593D01*
X146225Y69690D01*
D02*
G37*
G36*
X102757Y70483D02*
X99404D01*
Y67721D01*
X100013D01*
Y65483D01*
X99408D01*
Y62721D01*
X102761D01*
Y65483D01*
X102053D01*
Y67721D01*
X102757D01*
Y70483D01*
D02*
G37*
G36*
X108718Y65149D02*
X105798D01*
Y62387D01*
X108718D01*
Y65149D01*
D02*
G37*
G36*
X151370Y62524D02*
X150189D01*
Y61264D01*
X151370D01*
Y62524D01*
D02*
G37*
G36*
X304210Y76679D02*
X295346D01*
Y66634D01*
X297739D01*
Y66055D01*
X297496Y65868D01*
X296983Y65200D01*
X296660Y64421D01*
X296550Y63586D01*
X296660Y62751D01*
X296983Y61972D01*
X297496Y61304D01*
X298164Y60791D01*
X298943Y60468D01*
X299778Y60358D01*
X300613Y60468D01*
X301392Y60791D01*
X302060Y61304D01*
X302573Y61972D01*
X302896Y62751D01*
X303006Y63586D01*
X302896Y64421D01*
X302573Y65200D01*
X302060Y65868D01*
X301817Y66055D01*
Y66634D01*
X304210D01*
Y76679D01*
D02*
G37*
G36*
X370933Y66816D02*
X370348Y66700D01*
X370320Y66681D01*
X369360D01*
Y63919D01*
X369711D01*
Y61019D01*
X369780Y60669D01*
Y59638D01*
X370607D01*
X370655Y59606D01*
X371240Y59490D01*
X371825Y59606D01*
X371873Y59638D01*
X372700D01*
Y60669D01*
X372769Y61019D01*
Y64979D01*
X372713Y65266D01*
Y66681D01*
X371546D01*
X371518Y66700D01*
X370933Y66816D01*
D02*
G37*
G36*
X151370Y60264D02*
X150189D01*
Y59004D01*
X151370D01*
Y60264D01*
D02*
G37*
G36*
X140870Y66414D02*
X136730D01*
Y62668D01*
X139758D01*
X142643Y59782D01*
Y57415D01*
X141691D01*
Y53865D01*
X145635D01*
Y57415D01*
X144683D01*
Y58871D01*
X144843Y59304D01*
X145183Y59304D01*
X147508D01*
X147606Y59304D01*
X148008Y59068D01*
Y59004D01*
X149189D01*
Y60764D01*
Y62524D01*
X148008D01*
Y62459D01*
X147606Y62224D01*
X147508Y62224D01*
X144843D01*
Y61138D01*
X144514Y60986D01*
X144343Y60966D01*
X140870Y64440D01*
Y66414D01*
D02*
G37*
G36*
X154751Y72627D02*
X154322Y72542D01*
X153978Y72312D01*
X153472D01*
X153163Y72250D01*
X152902Y72075D01*
X152727Y71814D01*
X152666Y71505D01*
X152727Y71197D01*
X152902Y70936D01*
X153128Y70784D01*
X153157Y70521D01*
X153128Y70258D01*
X152902Y70107D01*
X152727Y69845D01*
X152666Y69537D01*
X152727Y69229D01*
X152902Y68967D01*
X153128Y68816D01*
X153157Y68553D01*
X153128Y68290D01*
X152902Y68138D01*
X152727Y67877D01*
X152666Y67568D01*
X152727Y67260D01*
X152902Y66999D01*
X153031Y66912D01*
X153108Y66373D01*
X153107Y66362D01*
X153041Y66263D01*
X152902Y66170D01*
X152727Y65908D01*
X152666Y65600D01*
X152727Y65292D01*
X152902Y65030D01*
X152965Y64988D01*
X153052Y64858D01*
X153068Y64787D01*
X153051Y64542D01*
X152984Y64256D01*
X152902Y64201D01*
X152727Y63940D01*
X152666Y63631D01*
X152727Y63323D01*
X152861Y63122D01*
X152897Y63038D01*
X152802Y62527D01*
X152685Y62449D01*
X152494Y62163D01*
X154751D01*
Y61163D01*
X152494D01*
X152685Y60877D01*
Y60481D01*
X152494Y60194D01*
X154751D01*
Y59694D01*
X155251D01*
Y58583D01*
X156031D01*
X156456Y58667D01*
X156817Y58908D01*
X156905Y59041D01*
X157405Y58889D01*
Y58806D01*
X170994D01*
Y72395D01*
X157405D01*
Y62816D01*
X156905Y62552D01*
X156665Y62717D01*
X156605Y63038D01*
X156641Y63122D01*
X156775Y63323D01*
X156837Y63631D01*
X156775Y63940D01*
X156601Y64201D01*
X156375Y64353D01*
X156345Y64616D01*
X156375Y64879D01*
X156601Y65030D01*
X156775Y65292D01*
X156837Y65600D01*
X156775Y65908D01*
X156601Y66170D01*
X156375Y66321D01*
X156345Y66584D01*
X156375Y66847D01*
X156601Y66999D01*
X156775Y67260D01*
X156837Y67568D01*
X156775Y67877D01*
X156601Y68138D01*
X156375Y68290D01*
X156345Y68553D01*
X156375Y68816D01*
X156601Y68967D01*
X156775Y69229D01*
X156837Y69537D01*
X156775Y69845D01*
X156601Y70107D01*
X156375Y70258D01*
X156345Y70521D01*
X156375Y70784D01*
X156601Y70936D01*
X156775Y71197D01*
X156837Y71505D01*
X156775Y71814D01*
X156601Y72075D01*
X156339Y72250D01*
X156031Y72312D01*
X155525D01*
X155180Y72542D01*
X154751Y72627D01*
D02*
G37*
G36*
X154251Y59194D02*
X152494D01*
X152685Y58908D01*
X153046Y58667D01*
X153472Y58583D01*
X154251D01*
Y59194D01*
D02*
G37*
G36*
X174928Y72312D02*
X172369D01*
X172061Y72250D01*
X171799Y72075D01*
X171625Y71814D01*
X171563Y71505D01*
X171625Y71197D01*
X171799Y70936D01*
X172026Y70784D01*
X172055Y70521D01*
X172026Y70258D01*
X171799Y70107D01*
X171625Y69845D01*
X171563Y69537D01*
X171625Y69229D01*
X171799Y68967D01*
X172026Y68816D01*
X172055Y68553D01*
X172026Y68290D01*
X171799Y68138D01*
X171625Y67877D01*
X171563Y67568D01*
X171625Y67260D01*
X171799Y66999D01*
X172026Y66847D01*
X172055Y66584D01*
X172026Y66321D01*
X171799Y66170D01*
X171625Y65908D01*
X171563Y65600D01*
X171625Y65292D01*
X171799Y65030D01*
X172026Y64879D01*
X172055Y64616D01*
X172026Y64353D01*
X171799Y64201D01*
X171625Y63940D01*
X171563Y63631D01*
X171625Y63323D01*
X171799Y63061D01*
X172026Y62910D01*
X172055Y62647D01*
X172026Y62384D01*
X171799Y62233D01*
X171625Y61971D01*
X171563Y61663D01*
X171625Y61355D01*
X171799Y61093D01*
X172026Y60942D01*
X172055Y60679D01*
X172026Y60416D01*
X171799Y60264D01*
X171625Y60003D01*
X171563Y59694D01*
X171625Y59386D01*
X171799Y59124D01*
X172061Y58950D01*
X172369Y58889D01*
X172875D01*
X173220Y58658D01*
X173649Y58573D01*
X174078Y58658D01*
X174423Y58889D01*
X174928D01*
X175237Y58950D01*
X175498Y59124D01*
X175673Y59386D01*
X175734Y59694D01*
X175673Y60003D01*
X175498Y60264D01*
X175272Y60416D01*
X175243Y60679D01*
X175272Y60942D01*
X175498Y61093D01*
X175673Y61355D01*
X175734Y61663D01*
X175673Y61971D01*
X175498Y62233D01*
X175272Y62384D01*
X175243Y62647D01*
X175272Y62910D01*
X175498Y63061D01*
X175673Y63323D01*
X175734Y63631D01*
X175673Y63940D01*
X175498Y64201D01*
X175272Y64353D01*
X175243Y64616D01*
X175272Y64879D01*
X175498Y65030D01*
X175673Y65292D01*
X175734Y65600D01*
X175673Y65908D01*
X175498Y66170D01*
X175272Y66321D01*
X175243Y66584D01*
X175272Y66847D01*
X175498Y66999D01*
X175673Y67260D01*
X175734Y67568D01*
X175673Y67877D01*
X175498Y68138D01*
X175272Y68290D01*
X175243Y68553D01*
X175272Y68816D01*
X175498Y68967D01*
X175673Y69229D01*
X175734Y69537D01*
X175673Y69845D01*
X175498Y70107D01*
X175272Y70258D01*
X175243Y70521D01*
X175272Y70784D01*
X175498Y70936D01*
X175673Y71197D01*
X175734Y71505D01*
X175673Y71814D01*
X175498Y72075D01*
X175237Y72250D01*
X174928Y72312D01*
D02*
G37*
G36*
X170106Y58237D02*
X169797Y58175D01*
X169536Y58001D01*
X169385Y57775D01*
X169121Y57745D01*
X168858Y57775D01*
X168707Y58001D01*
X168446Y58175D01*
X168137Y58237D01*
X167829Y58175D01*
X167567Y58001D01*
X167416Y57775D01*
X167153Y57745D01*
X166890Y57775D01*
X166738Y58001D01*
X166477Y58175D01*
X166168Y58237D01*
X165860Y58175D01*
X165598Y58001D01*
X165447Y57775D01*
X165184Y57745D01*
X164921Y57775D01*
X164770Y58001D01*
X164508Y58175D01*
X164200Y58237D01*
X163891Y58175D01*
X163630Y58001D01*
X163479Y57775D01*
X163216Y57745D01*
X162952Y57775D01*
X162801Y58001D01*
X162540Y58175D01*
X162232Y58237D01*
X161923Y58175D01*
X161662Y58001D01*
X161510Y57775D01*
X161247Y57745D01*
X160984Y57775D01*
X160833Y58001D01*
X160572Y58175D01*
X160263Y58237D01*
X159955Y58175D01*
X159693Y58001D01*
X159542Y57775D01*
X159279Y57745D01*
X159016Y57775D01*
X158864Y58001D01*
X158603Y58175D01*
X158294Y58237D01*
X157986Y58175D01*
X157724Y58001D01*
X157550Y57739D01*
X157488Y57431D01*
Y57116D01*
X157393Y57052D01*
X157117Y56639D01*
X157020Y56151D01*
Y54322D01*
X155772Y53075D01*
X153509D01*
Y53675D01*
X149565D01*
Y50125D01*
X153509D01*
Y50525D01*
X156300D01*
X156788Y50622D01*
X157201Y50899D01*
X158709Y52406D01*
X159209Y52199D01*
Y50965D01*
X159286Y50574D01*
X159460Y50315D01*
Y50019D01*
X159857D01*
X160228Y49945D01*
X160600Y50019D01*
X162813D01*
Y52781D01*
X161248D01*
Y54023D01*
X161430Y54146D01*
X161748Y54244D01*
X161923Y54127D01*
X162232Y54066D01*
X162540Y54127D01*
X162801Y54302D01*
X162952Y54528D01*
X163216Y54557D01*
X163479Y54528D01*
X163630Y54302D01*
X163891Y54127D01*
X164200Y54066D01*
X164508Y54127D01*
X164770Y54302D01*
X164921Y54528D01*
X165184Y54557D01*
X165447Y54528D01*
X165598Y54302D01*
X165860Y54127D01*
X166168Y54066D01*
X166477Y54127D01*
X166738Y54302D01*
X166890Y54528D01*
X167153Y54557D01*
X167416Y54528D01*
X167567Y54302D01*
X167829Y54127D01*
X168137Y54066D01*
X168446Y54127D01*
X168707Y54302D01*
X168858Y54528D01*
X169121Y54557D01*
X169385Y54528D01*
X169536Y54302D01*
X169797Y54127D01*
X170106Y54066D01*
X170414Y54127D01*
X170676Y54302D01*
X170850Y54563D01*
X170912Y54872D01*
Y55386D01*
X170943Y55407D01*
X171186Y55771D01*
X171271Y56200D01*
X171186Y56629D01*
X170943Y56993D01*
X170912Y57014D01*
Y57431D01*
X170850Y57739D01*
X170676Y58001D01*
X170414Y58175D01*
X170106Y58237D01*
D02*
G37*
G36*
X376884Y58935D02*
X373964D01*
Y56173D01*
X376884D01*
Y58935D01*
D02*
G37*
G36*
X372700D02*
X369780D01*
Y56173D01*
X372700D01*
Y58935D01*
D02*
G37*
G36*
X368943Y56349D02*
X367073D01*
Y54676D01*
X368943D01*
Y56349D01*
D02*
G37*
G36*
X366073D02*
X364203D01*
Y54676D01*
X366073D01*
Y56349D01*
D02*
G37*
G36*
X380886Y60178D02*
X380050Y60068D01*
X379272Y59745D01*
X378604Y59232D01*
X378091Y58564D01*
X377768Y57785D01*
X377658Y56950D01*
X377768Y56115D01*
X378091Y55336D01*
X378604Y54668D01*
X379272Y54155D01*
X380050Y53832D01*
X380886Y53722D01*
X381721Y53832D01*
X382500Y54155D01*
X383168Y54668D01*
X383681Y55336D01*
X384003Y56115D01*
X384113Y56950D01*
X384003Y57785D01*
X383681Y58564D01*
X383168Y59232D01*
X382500Y59745D01*
X381721Y60068D01*
X380886Y60178D01*
D02*
G37*
G36*
X247281Y62998D02*
X244519D01*
Y61955D01*
X244487Y61907D01*
X244371Y61322D01*
X244487Y60737D01*
X244519Y60689D01*
Y59646D01*
X245413D01*
X247271Y57789D01*
Y52900D01*
X247387Y52315D01*
X247719Y51819D01*
X249656Y49882D01*
X250152Y49550D01*
X250319Y49517D01*
Y49360D01*
X251067D01*
X251115Y49328D01*
X251700Y49211D01*
X252285Y49328D01*
X252333Y49360D01*
X253081D01*
Y49434D01*
X256887D01*
X257137Y49483D01*
X258957D01*
Y52443D01*
X257137D01*
X256887Y52492D01*
X253081D01*
Y52713D01*
X251150D01*
X250806Y53057D01*
X250902Y53465D01*
X251115Y53587D01*
X251700Y53471D01*
X254817D01*
Y53421D01*
X258957D01*
Y56379D01*
X257335D01*
X257285Y56413D01*
X256700Y56529D01*
X253081D01*
Y57240D01*
X250329D01*
Y58422D01*
X250213Y59007D01*
X249881Y59504D01*
X247281Y62104D01*
Y62998D01*
D02*
G37*
G36*
X362498Y56073D02*
X358358D01*
Y52327D01*
X362498D01*
Y56073D01*
D02*
G37*
G36*
X368943Y53676D02*
X367073D01*
Y52003D01*
X368943D01*
Y53676D01*
D02*
G37*
G36*
X366073D02*
X364203D01*
Y52003D01*
X366073D01*
Y53676D01*
D02*
G37*
G36*
X167640Y53081D02*
X166164D01*
Y51900D01*
X167640D01*
Y53081D01*
D02*
G37*
G36*
X165164D02*
X163687D01*
Y51900D01*
X165164D01*
Y53081D01*
D02*
G37*
G36*
X167640Y50900D02*
X166164D01*
Y49719D01*
X167640D01*
Y50900D01*
D02*
G37*
G36*
X165164D02*
X163687D01*
Y49719D01*
X165164D01*
Y50900D01*
D02*
G37*
G36*
X269783Y52443D02*
X265643D01*
Y49483D01*
X269783D01*
Y52443D01*
D02*
G37*
G36*
X145935Y50235D02*
X144163D01*
Y48660D01*
X145935D01*
Y50235D01*
D02*
G37*
G36*
X143163D02*
X141391D01*
Y48660D01*
X143163D01*
Y50235D01*
D02*
G37*
G36*
X145935Y47660D02*
X144163D01*
Y46085D01*
X145935D01*
Y47660D01*
D02*
G37*
G36*
X143163D02*
X141391D01*
Y46085D01*
X143163D01*
Y47660D01*
D02*
G37*
G36*
X122872Y53713D02*
X121691D01*
X120457Y53551D01*
X119307Y53074D01*
X118320Y52317D01*
X117562Y51329D01*
X117086Y50179D01*
X116923Y48945D01*
X117086Y47711D01*
X117562Y46561D01*
X118320Y45573D01*
X119307Y44815D01*
X120457Y44339D01*
X121691Y44177D01*
X122872D01*
X124107Y44339D01*
X125257Y44815D01*
X126244Y45573D01*
X127002Y46561D01*
X127478Y47711D01*
X127641Y48945D01*
X127478Y50179D01*
X127002Y51329D01*
X126244Y52317D01*
X125257Y53074D01*
X124107Y53551D01*
X122872Y53713D01*
D02*
G37*
G36*
X47600Y52765D02*
X46263Y52589D01*
X45017Y52073D01*
X43947Y51253D01*
X43127Y50183D01*
X42611Y48937D01*
X42435Y47600D01*
X42611Y46263D01*
X43127Y45017D01*
X43947Y43947D01*
X45017Y43127D01*
X46263Y42611D01*
X47600Y42435D01*
X48937Y42611D01*
X50183Y43127D01*
X51253Y43947D01*
X52073Y45017D01*
X52589Y46263D01*
X52765Y47600D01*
X52589Y48937D01*
X52073Y50183D01*
X51253Y51253D01*
X50183Y52073D01*
X48937Y52589D01*
X47600Y52765D01*
D02*
G37*
%LPD*%
G36*
X227940Y105183D02*
Y97703D01*
X225381Y95144D01*
X223019D01*
X220460Y97703D01*
Y105183D01*
X223019Y107743D01*
X225381D01*
X227940Y105183D01*
D02*
G37*
%LPC*%
G36*
X382714Y88670D02*
X381041D01*
Y86800D01*
X382714D01*
Y88670D01*
D02*
G37*
G36*
X380041D02*
X378368D01*
Y86800D01*
X380041D01*
Y88670D01*
D02*
G37*
G36*
X382714Y85800D02*
X381041D01*
Y83930D01*
X382714D01*
Y85800D01*
D02*
G37*
G36*
X380041D02*
X378368D01*
Y83930D01*
X380041D01*
Y85800D01*
D02*
G37*
G36*
X381041Y81831D02*
Y81003D01*
X381869D01*
X381860Y81049D01*
X381550Y81512D01*
X381087Y81822D01*
X381041Y81831D01*
D02*
G37*
G36*
X380041D02*
X379995Y81822D01*
X379532Y81512D01*
X379222Y81049D01*
X379213Y81003D01*
X380041D01*
Y81831D01*
D02*
G37*
G36*
X381869Y80003D02*
X381041D01*
Y79175D01*
X381087Y79184D01*
X381550Y79494D01*
X381860Y79957D01*
X381869Y80003D01*
D02*
G37*
G36*
X380041D02*
X379213D01*
X379222Y79957D01*
X379532Y79494D01*
X379995Y79184D01*
X380041Y79175D01*
Y80003D01*
D02*
G37*
G36*
X503860Y51681D02*
X502600D01*
Y50500D01*
X503860D01*
Y51681D01*
D02*
G37*
G36*
X506442Y52469D02*
X504671D01*
Y50500D01*
X506442D01*
Y52469D01*
D02*
G37*
G36*
X501600Y51681D02*
X500340D01*
Y50500D01*
X501600D01*
Y51681D01*
D02*
G37*
G36*
X506442Y49500D02*
X504671D01*
Y47532D01*
X506442D01*
Y49500D01*
D02*
G37*
G36*
X503860D02*
X502100D01*
X500340D01*
Y48319D01*
X500404D01*
X500640Y47916D01*
X500640Y47819D01*
Y45154D01*
X503560D01*
Y47819D01*
X503560Y47916D01*
X503796Y48319D01*
X503860D01*
Y49500D01*
D02*
G37*
G36*
X515392Y74207D02*
X513424D01*
X512961Y74116D01*
X512570Y73854D01*
X512308Y73462D01*
X512216Y73000D01*
X512308Y72538D01*
X512570Y72146D01*
X512961Y71885D01*
X513424Y71793D01*
X515392D01*
X515854Y71885D01*
X516246Y72146D01*
X516508Y72538D01*
X516600Y73000D01*
X516508Y73462D01*
X516246Y73854D01*
X515854Y74116D01*
X515392Y74207D01*
D02*
G37*
G36*
X514908Y69328D02*
Y68500D01*
X515736D01*
X515727Y68546D01*
X515417Y69009D01*
X514954Y69319D01*
X514908Y69328D01*
D02*
G37*
G36*
X513908D02*
X513862Y69319D01*
X513399Y69009D01*
X513089Y68546D01*
X513080Y68500D01*
X513908D01*
Y69328D01*
D02*
G37*
G36*
X574850Y68127D02*
Y67299D01*
X575678D01*
X575669Y67346D01*
X575359Y67809D01*
X574896Y68118D01*
X574850Y68127D01*
D02*
G37*
G36*
X573850D02*
X573804Y68118D01*
X573341Y67809D01*
X573031Y67346D01*
X573022Y67299D01*
X573850D01*
Y68127D01*
D02*
G37*
G36*
X569500D02*
Y67299D01*
X570328D01*
X570319Y67346D01*
X570009Y67809D01*
X569546Y68118D01*
X569500Y68127D01*
D02*
G37*
G36*
X568500D02*
X568454Y68118D01*
X567991Y67809D01*
X567681Y67346D01*
X567672Y67299D01*
X568500D01*
Y68127D01*
D02*
G37*
G36*
X564150D02*
Y67299D01*
X564978D01*
X564969Y67346D01*
X564659Y67809D01*
X564196Y68118D01*
X564150Y68127D01*
D02*
G37*
G36*
X563150D02*
X563104Y68118D01*
X562641Y67809D01*
X562331Y67346D01*
X562322Y67299D01*
X563150D01*
Y68127D01*
D02*
G37*
G36*
X515736Y67500D02*
X514908D01*
Y66672D01*
X514954Y66681D01*
X515417Y66991D01*
X515727Y67454D01*
X515736Y67500D01*
D02*
G37*
G36*
X513908D02*
X513080D01*
X513089Y67454D01*
X513399Y66991D01*
X513862Y66681D01*
X513908Y66672D01*
Y67500D01*
D02*
G37*
G36*
X536800Y67449D02*
Y66620D01*
X537628D01*
X537619Y66667D01*
X537309Y67130D01*
X536846Y67439D01*
X536800Y67449D01*
D02*
G37*
G36*
X535800D02*
X535754Y67439D01*
X535291Y67130D01*
X534981Y66667D01*
X534972Y66620D01*
X535800D01*
Y67449D01*
D02*
G37*
G36*
X531800D02*
Y66620D01*
X532628D01*
X532619Y66667D01*
X532309Y67130D01*
X531846Y67439D01*
X531800Y67449D01*
D02*
G37*
G36*
X530800D02*
X530754Y67439D01*
X530291Y67130D01*
X529981Y66667D01*
X529972Y66620D01*
X530800D01*
Y67449D01*
D02*
G37*
G36*
X526800D02*
Y66620D01*
X527628D01*
X527619Y66667D01*
X527309Y67130D01*
X526846Y67439D01*
X526800Y67449D01*
D02*
G37*
G36*
X525800D02*
X525754Y67439D01*
X525291Y67130D01*
X524981Y66667D01*
X524972Y66620D01*
X525800D01*
Y67449D01*
D02*
G37*
G36*
X521800D02*
Y66620D01*
X522628D01*
X522619Y66667D01*
X522309Y67130D01*
X521846Y67439D01*
X521800Y67449D01*
D02*
G37*
G36*
X520800D02*
X520754Y67439D01*
X520291Y67130D01*
X519981Y66667D01*
X519972Y66620D01*
X520800D01*
Y67449D01*
D02*
G37*
G36*
X575678Y66299D02*
X574850D01*
Y65472D01*
X574896Y65481D01*
X575359Y65790D01*
X575669Y66253D01*
X575678Y66299D01*
D02*
G37*
G36*
X573850D02*
X573022D01*
X573031Y66253D01*
X573341Y65790D01*
X573804Y65481D01*
X573850Y65472D01*
Y66299D01*
D02*
G37*
G36*
X570328D02*
X569500D01*
Y65472D01*
X569546Y65481D01*
X570009Y65790D01*
X570319Y66253D01*
X570328Y66299D01*
D02*
G37*
G36*
X568500D02*
X567672D01*
X567681Y66253D01*
X567991Y65790D01*
X568454Y65481D01*
X568500Y65472D01*
Y66299D01*
D02*
G37*
G36*
X564978D02*
X564150D01*
Y65472D01*
X564196Y65481D01*
X564659Y65790D01*
X564969Y66253D01*
X564978Y66299D01*
D02*
G37*
G36*
X563150D02*
X562322D01*
X562331Y66253D01*
X562641Y65790D01*
X563104Y65481D01*
X563150Y65472D01*
Y66299D01*
D02*
G37*
G36*
X537628Y65620D02*
X536800D01*
Y65136D01*
X537326D01*
X537619Y65574D01*
X537628Y65620D01*
D02*
G37*
G36*
X535800D02*
X534972D01*
X534981Y65574D01*
X535274Y65136D01*
X535800D01*
Y65620D01*
D02*
G37*
G36*
X532628D02*
X531800D01*
Y65136D01*
X532326D01*
X532619Y65574D01*
X532628Y65620D01*
D02*
G37*
G36*
X530800D02*
X529972D01*
X529981Y65574D01*
X530274Y65136D01*
X530800D01*
Y65620D01*
D02*
G37*
G36*
X527628D02*
X526800D01*
Y65136D01*
X527326D01*
X527619Y65574D01*
X527628Y65620D01*
D02*
G37*
G36*
X525800D02*
X524972D01*
X524981Y65574D01*
X525274Y65136D01*
X525800D01*
Y65620D01*
D02*
G37*
G36*
X522628D02*
X521800D01*
Y65136D01*
X522326D01*
X522619Y65574D01*
X522628Y65620D01*
D02*
G37*
G36*
X520800D02*
X519972D01*
X519981Y65574D01*
X520274Y65136D01*
X520800D01*
Y65620D01*
D02*
G37*
G36*
X514908Y64328D02*
Y63500D01*
X515736D01*
X515727Y63546D01*
X515417Y64009D01*
X514954Y64319D01*
X514908Y64328D01*
D02*
G37*
G36*
X513908D02*
X513862Y64319D01*
X513399Y64009D01*
X513089Y63546D01*
X513080Y63500D01*
X513908D01*
Y64328D01*
D02*
G37*
G36*
X574850Y63159D02*
Y62331D01*
X575678D01*
X575669Y62377D01*
X575359Y62840D01*
X574896Y63149D01*
X574850Y63159D01*
D02*
G37*
G36*
X573850D02*
X573804Y63149D01*
X573341Y62840D01*
X573031Y62377D01*
X573022Y62331D01*
X573850D01*
Y63159D01*
D02*
G37*
G36*
X569500D02*
Y62331D01*
X570328D01*
X570319Y62377D01*
X570009Y62840D01*
X569546Y63149D01*
X569500Y63159D01*
D02*
G37*
G36*
X568500D02*
X568454Y63149D01*
X567991Y62840D01*
X567681Y62377D01*
X567672Y62331D01*
X568500D01*
Y63159D01*
D02*
G37*
G36*
X564150D02*
Y62331D01*
X564978D01*
X564969Y62377D01*
X564659Y62840D01*
X564196Y63149D01*
X564150Y63159D01*
D02*
G37*
G36*
X563150D02*
X563104Y63149D01*
X562641Y62840D01*
X562331Y62377D01*
X562322Y62331D01*
X563150D01*
Y63159D01*
D02*
G37*
G36*
X515736Y62500D02*
X514908D01*
Y61672D01*
X514954Y61681D01*
X515417Y61991D01*
X515727Y62454D01*
X515736Y62500D01*
D02*
G37*
G36*
X513908D02*
X513080D01*
X513089Y62454D01*
X513399Y61991D01*
X513862Y61681D01*
X513908Y61672D01*
Y62500D01*
D02*
G37*
G36*
X575678Y61331D02*
X574850D01*
Y60503D01*
X574896Y60512D01*
X575359Y60821D01*
X575669Y61285D01*
X575678Y61331D01*
D02*
G37*
G36*
X573850D02*
X573022D01*
X573031Y61285D01*
X573341Y60821D01*
X573804Y60512D01*
X573850Y60503D01*
Y61331D01*
D02*
G37*
G36*
X570328D02*
X569500D01*
Y60503D01*
X569546Y60512D01*
X570009Y60821D01*
X570319Y61285D01*
X570328Y61331D01*
D02*
G37*
G36*
X568500D02*
X567672D01*
X567681Y61285D01*
X567991Y60821D01*
X568454Y60512D01*
X568500Y60503D01*
Y61331D01*
D02*
G37*
G36*
X564978D02*
X564150D01*
Y60503D01*
X564196Y60512D01*
X564659Y60821D01*
X564969Y61285D01*
X564978Y61331D01*
D02*
G37*
G36*
X563150D02*
X562322D01*
X562331Y61285D01*
X562641Y60821D01*
X563104Y60512D01*
X563150Y60503D01*
Y61331D01*
D02*
G37*
G36*
X514908Y59328D02*
Y58500D01*
X515736D01*
X515727Y58546D01*
X515417Y59009D01*
X514954Y59319D01*
X514908Y59328D01*
D02*
G37*
G36*
X513908D02*
X513862Y59319D01*
X513399Y59009D01*
X513089Y58546D01*
X513080Y58500D01*
X513908D01*
Y59328D01*
D02*
G37*
G36*
X569500Y58190D02*
Y57362D01*
X570328D01*
X570319Y57408D01*
X570009Y57871D01*
X569546Y58181D01*
X569500Y58190D01*
D02*
G37*
G36*
X568500D02*
X568454Y58181D01*
X567991Y57871D01*
X567681Y57408D01*
X567672Y57362D01*
X568500D01*
Y58190D01*
D02*
G37*
G36*
X574850Y58166D02*
Y57339D01*
X575678D01*
X575669Y57385D01*
X575359Y57848D01*
X574896Y58157D01*
X574850Y58166D01*
D02*
G37*
G36*
X573850D02*
X573804Y58157D01*
X573341Y57848D01*
X573031Y57385D01*
X573022Y57339D01*
X573850D01*
Y58166D01*
D02*
G37*
G36*
X564150D02*
Y57339D01*
X564978D01*
X564969Y57385D01*
X564659Y57848D01*
X564196Y58157D01*
X564150Y58166D01*
D02*
G37*
G36*
X563150D02*
X563104Y58157D01*
X562641Y57848D01*
X562331Y57385D01*
X562322Y57339D01*
X563150D01*
Y58166D01*
D02*
G37*
G36*
X515736Y57500D02*
X514908D01*
Y56672D01*
X514954Y56681D01*
X515417Y56991D01*
X515727Y57454D01*
X515736Y57500D01*
D02*
G37*
G36*
X513908D02*
X513080D01*
X513089Y57454D01*
X513399Y56991D01*
X513862Y56681D01*
X513908Y56672D01*
Y57500D01*
D02*
G37*
G36*
X570328Y56362D02*
X569500D01*
Y55534D01*
X569546Y55543D01*
X570009Y55853D01*
X570319Y56316D01*
X570328Y56362D01*
D02*
G37*
G36*
X568500D02*
X567672D01*
X567681Y56316D01*
X567991Y55853D01*
X568454Y55543D01*
X568500Y55534D01*
Y56362D01*
D02*
G37*
G36*
X575678Y56339D02*
X574850D01*
Y55511D01*
X574896Y55520D01*
X575359Y55829D01*
X575669Y56292D01*
X575678Y56339D01*
D02*
G37*
G36*
X573850D02*
X573022D01*
X573031Y56292D01*
X573341Y55829D01*
X573804Y55520D01*
X573850Y55511D01*
Y56339D01*
D02*
G37*
G36*
X564978D02*
X564150D01*
Y55511D01*
X564196Y55520D01*
X564659Y55829D01*
X564969Y56292D01*
X564978Y56339D01*
D02*
G37*
G36*
X563150D02*
X562322D01*
X562331Y56292D01*
X562641Y55829D01*
X563104Y55520D01*
X563150Y55511D01*
Y56339D01*
D02*
G37*
G36*
X579314Y51069D02*
X577542D01*
Y49100D01*
X579314D01*
Y51069D01*
D02*
G37*
G36*
X576543D02*
X574771D01*
Y49100D01*
X576543D01*
Y51069D01*
D02*
G37*
G36*
X514229Y52169D02*
X510286D01*
Y47831D01*
X514229D01*
Y52169D01*
D02*
G37*
G36*
X584329Y50769D02*
X580386D01*
Y46431D01*
X584329D01*
Y50769D01*
D02*
G37*
G36*
X579314Y48100D02*
X577542D01*
Y46132D01*
X579314D01*
Y48100D01*
D02*
G37*
G36*
X576543D02*
X574771D01*
Y46132D01*
X576543D01*
Y48100D01*
D02*
G37*
G36*
X478246Y48562D02*
X472335D01*
Y43044D01*
X478246D01*
Y48562D01*
D02*
G37*
G36*
X470247D02*
X464335D01*
Y43044D01*
X470247D01*
Y48562D01*
D02*
G37*
G36*
X462247D02*
X456335D01*
Y43044D01*
X462247D01*
Y48562D01*
D02*
G37*
G36*
X454247D02*
X448335D01*
Y43044D01*
X454247D01*
Y48562D01*
D02*
G37*
G36*
X446246D02*
X440335D01*
Y43044D01*
X446246D01*
Y48562D01*
D02*
G37*
G36*
X438246D02*
X432335D01*
Y43044D01*
X438246D01*
Y48562D01*
D02*
G37*
G36*
X430246D02*
X424335D01*
Y43044D01*
X430246D01*
Y48562D01*
D02*
G37*
%LPD*%
D12*
X68898Y68902D02*
X68900Y68900D01*
X66342Y68902D02*
X68898D01*
X66342Y87484D02*
X68890D01*
X63800D02*
X66342D01*
X63800Y68902D02*
X66342D01*
D17*
X63800Y68902D02*
X63800Y68902D01*
X392428Y109528D02*
X392478Y109478D01*
X392075Y109175D02*
X392378Y109478D01*
X66342Y73272D02*
X72228D01*
X73100Y72400D01*
X66548Y71303D02*
X71400D01*
X66445Y71200D02*
X66548Y71303D01*
X71400Y65800D02*
Y68967D01*
X73100Y66500D02*
Y72400D01*
Y66500D02*
X73750Y65850D01*
X82942D01*
X86194Y69102D01*
X66405Y77200D02*
X73100D01*
X75180Y75120D01*
X71400Y65800D02*
X73098Y64102D01*
X86194D01*
X75180Y73268D02*
Y75120D01*
X66342Y71303D02*
X66548D01*
X66342Y83114D02*
X69987D01*
X75672Y88800D01*
X66342Y77200D02*
X66405D01*
Y78963D01*
X66342Y71303D02*
X66445Y71200D01*
X105986Y82796D02*
X107258D01*
X421200Y52203D02*
X421300Y52303D01*
Y91400D01*
X375442Y65268D02*
X375461Y65287D01*
X375424Y61019D02*
X375442Y61037D01*
X375461Y65287D02*
X376287D01*
X400643Y80932D02*
X401747Y79828D01*
X402528D01*
X400643Y80932D02*
Y81713D01*
X142900Y83628D02*
X142911Y83617D01*
X73690Y78810D02*
X75180D01*
X71354Y81146D02*
X73690Y78810D01*
X66342Y81146D02*
X71354D01*
X91801Y76269D02*
X92694D01*
X89600Y74068D02*
X91801Y76269D01*
X89600Y72174D02*
Y74068D01*
X410500Y84075D02*
X413900D01*
X413862Y87262D02*
X413900Y87300D01*
X410538Y87262D02*
X413862D01*
X410500Y87224D02*
X410538Y87262D01*
X377897Y105882D02*
X378500Y106484D01*
X413176Y77776D02*
X413900Y78500D01*
X410500Y77776D02*
X413176D01*
X410500Y85675D02*
X416900D01*
X413837Y80863D02*
X413900Y80800D01*
X410563Y80863D02*
X413837D01*
X410500Y80925D02*
X410563Y80863D01*
X410600Y82400D02*
X416800D01*
X410500Y82500D02*
X410600Y82400D01*
X64146Y81146D02*
X66342D01*
X63506Y80506D02*
X64146Y81146D01*
X64160Y75240D02*
X66342D01*
X63506Y75894D02*
X64160Y75240D01*
X378000Y111500D02*
X380176D01*
X366256D02*
X378000D01*
X382320Y99400D02*
X386200D01*
X381041Y100679D02*
X382320Y99400D01*
X381041Y100679D02*
Y110635D01*
X380176Y111500D02*
X381041Y110635D01*
X377897Y103157D02*
Y105882D01*
Y103157D02*
X378500Y102554D01*
Y97900D02*
Y102554D01*
X378000Y106484D02*
X378500D01*
X63506Y75894D02*
Y80506D01*
X75426Y79056D02*
Y83722D01*
X75180Y78810D02*
X75426Y79056D01*
Y83722D02*
X75672Y83968D01*
X166168Y77768D02*
X168600Y80200D01*
X166168Y75049D02*
Y77768D01*
X168600Y80200D02*
Y81500D01*
X383800Y82466D02*
X383834Y82500D01*
X394555D01*
X388425Y80925D02*
X394555D01*
X388200Y80700D02*
X388425Y80925D01*
X360428Y64673D02*
X361455Y65700D01*
X376432Y70200D02*
X382832Y76600D01*
X387500D01*
X390250Y79350D01*
X394555D01*
X366573Y60114D02*
X367428Y59259D01*
X366573Y60114D02*
Y65700D01*
X377200Y68700D02*
X383700Y75200D01*
X388100D01*
X390676Y77776D01*
X394555D01*
X365492Y76610D02*
Y80832D01*
X393101Y76201D02*
X394555D01*
X392400Y75500D02*
X393101Y76201D01*
X391200Y75500D02*
X392400D01*
X419700Y71400D02*
Y89100D01*
Y93000D02*
X421300Y91400D01*
X410279Y93000D02*
X419700D01*
X418900Y70600D02*
X419700Y71400D01*
X422900Y72567D02*
X424267Y71200D01*
X422900Y72567D02*
Y87500D01*
X413900Y84000D02*
Y84075D01*
X406465Y70659D02*
Y73740D01*
Y70659D02*
X407224Y69900D01*
X409300Y70600D02*
X411000D01*
X408039Y71861D02*
X409300Y70600D01*
X459100Y90200D02*
X460100Y91200D01*
X459100Y79400D02*
Y90200D01*
X458400Y78700D02*
X459100Y79400D01*
X440000Y80600D02*
Y86400D01*
X439903Y80503D02*
X440000Y80600D01*
X383300Y121529D02*
X395300D01*
X367242Y98900D02*
X367699Y99357D01*
X365086Y98157D02*
X366535Y99606D01*
X367242Y98900D01*
X367699Y99357D02*
X372338D01*
X410100Y93000D02*
X410279D01*
X408039Y90939D02*
X410100Y93000D01*
X409000Y94887D02*
Y96900D01*
X406465Y92352D02*
X409000Y94887D01*
X406465Y89685D02*
Y92352D01*
X518608Y122608D02*
X520500D01*
X515700Y119700D02*
X518608Y122608D01*
X512458Y119700D02*
X515700D01*
X461391Y76269D02*
Y86065D01*
X404895Y95695D02*
X404900Y95700D01*
X404895Y89690D02*
Y95695D01*
X404890Y89685D02*
X404895Y89690D01*
X395300Y115842D02*
X399800D01*
X385303Y107959D02*
Y111197D01*
X387206Y113100D02*
X392558D01*
X395300Y115842D01*
X385303Y111197D02*
X387206Y113100D01*
X408039Y89685D02*
Y90939D01*
X392237Y93363D02*
X398751D01*
X386200Y99400D02*
X392237Y93363D01*
X378500Y96759D02*
Y97900D01*
X385300D01*
X391237Y91963D01*
X396041Y94763D02*
X399937D01*
X393552Y97252D02*
X396041Y94763D01*
X391237Y91963D02*
X398171D01*
X391100Y89700D02*
X397001D01*
X384600Y96200D02*
X391100Y89700D01*
X382600Y96200D02*
X384600D01*
X403315Y89685D02*
Y94048D01*
X400052Y97311D02*
X403315Y94048D01*
X401740Y89685D02*
Y92960D01*
X399937Y94763D02*
X401740Y92960D01*
X378500Y96759D02*
X382759Y92500D01*
X376500Y72700D02*
Y101400D01*
X377480Y92521D02*
X377897Y92103D01*
X375117Y102783D02*
X376500Y101400D01*
X360854Y102783D02*
X375117D01*
X512358Y43700D02*
X515000D01*
X483600Y52100D02*
Y52103D01*
X393028Y109678D02*
X393657Y109050D01*
X391676Y87224D02*
X394555D01*
X391600Y87300D02*
X391676Y87224D01*
X460200Y68000D02*
X491180D01*
X456700Y71500D02*
X460200Y68000D01*
X456700Y71500D02*
Y91300D01*
X68788Y103312D02*
Y114012D01*
Y103312D02*
X83200Y88900D01*
X354898Y114957D02*
X354941Y115000D01*
X349100Y114957D02*
X354898D01*
X404890Y68210D02*
X407400Y65700D01*
X400165Y71633D02*
Y73740D01*
X395332Y66800D02*
X400165Y71633D01*
X385741Y66800D02*
X395332D01*
X398590Y72247D02*
Y73740D01*
X397443Y71100D02*
X398590Y72247D01*
X393000Y71100D02*
X397443D01*
X384740Y73740D02*
X397016D01*
X376287Y65287D02*
X384740Y73740D01*
X401740Y66859D02*
Y73740D01*
X366800Y68700D02*
X377200D01*
X366032Y67932D02*
X366800Y68700D01*
X366032Y65700D02*
Y67932D01*
X360914Y68382D02*
X362732Y70200D01*
X376432D01*
X360914Y65700D02*
Y68382D01*
X360973Y76300D02*
Y80830D01*
X389885Y85700D02*
X394530D01*
X394555Y85675D01*
X387687Y84075D02*
X394555D01*
X385659Y86103D02*
X387687Y84075D01*
X104600Y69900D02*
X107300Y67200D01*
X86490Y78447D02*
X88847D01*
X76600Y98100D02*
X85600Y89100D01*
X73800Y100900D02*
X76600Y98100D01*
X312278Y51400D02*
Y54700D01*
X83500Y93800D02*
X87800Y89500D01*
X78942Y98358D02*
X83500Y93800D01*
X515000Y43700D02*
X519600Y48300D01*
X536300Y42892D02*
Y46500D01*
X534500Y48300D02*
X536300Y46500D01*
X519600Y48300D02*
X534500D01*
X508700Y95345D02*
Y111400D01*
X509700Y112400D02*
X514708D01*
X508700Y111400D02*
X509700Y112400D01*
X410500Y76201D02*
X415799D01*
X404890Y68210D02*
Y73740D01*
X408039Y71861D02*
Y73740D01*
X92694Y82174D02*
Y83005D01*
X87800Y87900D02*
X92694Y83005D01*
X87800Y87900D02*
Y89500D01*
X85600Y87368D02*
Y89100D01*
X73800Y100900D02*
Y114079D01*
X78942Y98358D02*
Y114172D01*
X83200Y86900D02*
Y88900D01*
X385659Y86103D02*
Y86300D01*
X138800Y64095D02*
X139773D01*
X143663Y55640D02*
Y60205D01*
X139773Y64095D02*
X143663Y60205D01*
X85600Y87368D02*
X90300Y82668D01*
X83026Y73700D02*
Y73734D01*
X160900Y79600D02*
X160936Y79636D01*
Y83751D01*
X160972Y83787D01*
X163531Y79431D02*
Y83787D01*
X162232Y78132D02*
X163531Y79431D01*
X162232Y75049D02*
Y78132D01*
X299778Y54728D02*
X303105Y51400D01*
X160228Y50965D02*
Y56116D01*
X160263Y56151D01*
X84883Y82400D02*
X85000D01*
X83315Y83968D02*
X84883Y82400D01*
X80200Y83968D02*
X83315D01*
X107221Y87116D02*
X107300D01*
X106540Y86435D02*
X107221Y87116D01*
X106540Y86177D02*
Y86435D01*
X102537Y82174D02*
X106540Y86177D01*
X83200Y86900D02*
X87600Y82500D01*
X96557Y64102D02*
X96631Y64176D01*
Y64068D02*
Y64176D01*
X75387Y68375D02*
X75595Y68168D01*
X75387Y68375D02*
Y73061D01*
X75180Y73268D02*
X75387Y73061D01*
X86490Y78368D02*
Y78447D01*
X88847D02*
X90605Y80206D01*
X92694D01*
X148189Y109789D02*
X148200Y109800D01*
X148189Y107027D02*
Y109789D01*
X148177Y107016D02*
X148189Y107027D01*
X274691Y57016D02*
Y57200D01*
X272632Y54957D02*
X274691Y57016D01*
X224865Y116362D02*
X224917Y116310D01*
X103389Y78237D02*
X104600Y77026D01*
Y69900D02*
Y77026D01*
X90722Y64202D02*
X96458D01*
X101033Y69154D02*
X101080Y69202D01*
X100986Y64202D02*
X101033Y64249D01*
Y69154D01*
X90722Y69202D02*
X96553D01*
X90246Y69677D02*
X90722Y69202D01*
X142911Y83617D02*
X143059Y83764D01*
X102537Y78237D02*
X103389D01*
X91158Y88068D02*
Y89736D01*
X95858Y89416D02*
X98600Y86674D01*
X94665Y82176D02*
Y84562D01*
X91158Y88068D02*
X94665Y84562D01*
X142900Y83628D02*
X142911Y83640D01*
X360039Y101969D02*
X360854Y102783D01*
X398751Y93363D02*
X400165Y91949D01*
Y89685D02*
Y91949D01*
X360059Y108598D02*
X360157Y108500D01*
X360059Y108598D02*
Y115000D01*
X354842Y115098D02*
X354941Y115000D01*
X393316Y85650D02*
X394555D01*
X397001Y89700D02*
X397016Y89685D01*
X398171Y91963D02*
X398590Y91544D01*
Y89685D02*
Y91544D01*
X360428Y59318D02*
Y64673D01*
X402528Y79828D02*
X403006Y79350D01*
X410500D01*
X96553Y70670D02*
X98194Y72312D01*
X101631D01*
X103396Y80206D02*
X105986Y82796D01*
X102658Y80206D02*
X103396D01*
X101631Y72312D02*
X102537Y73217D01*
X98600Y82174D02*
Y86674D01*
X92041Y73647D02*
X92694Y74300D01*
X92041Y72178D02*
Y73647D01*
X94663Y72174D02*
Y74300D01*
X96553Y69202D02*
Y70670D01*
X91012Y78237D02*
X92694D01*
X86452Y73677D02*
X91012Y78237D01*
X192150Y95147D02*
X192151D01*
X193998Y93300D01*
X194000D01*
X192150Y99989D02*
X192230D01*
X193919Y98300D01*
X194000D01*
X189000Y101024D02*
X190575Y102599D01*
X189000Y98300D02*
Y101024D01*
X102537Y73217D02*
Y74300D01*
X145618Y106941D02*
Y107016D01*
X143059Y106941D02*
Y107016D01*
X94663Y82174D02*
X94665Y82176D01*
D19*
X66342Y90634D02*
D03*
Y87484D02*
D03*
Y68902D02*
D03*
Y65752D02*
D03*
D20*
Y85083D02*
D03*
Y83114D02*
D03*
Y81146D02*
D03*
Y79177D02*
D03*
Y77209D02*
D03*
Y75240D02*
D03*
Y73272D02*
D03*
Y71303D02*
D03*
D21*
X138800Y69659D02*
D03*
Y64541D02*
D03*
X366142Y93782D02*
D03*
Y98900D02*
D03*
X393100Y97541D02*
D03*
Y102659D02*
D03*
X401705Y67959D02*
D03*
Y62841D02*
D03*
X384057Y67859D02*
D03*
Y62741D02*
D03*
X366573Y54176D02*
D03*
Y59294D02*
D03*
X389300Y121430D02*
D03*
Y116312D02*
D03*
X385500Y107959D02*
D03*
Y102841D02*
D03*
X360428Y59318D02*
D03*
Y54200D02*
D03*
X378000Y111602D02*
D03*
Y106484D02*
D03*
X366256Y106484D02*
D03*
Y111602D02*
D03*
X399000Y97541D02*
D03*
Y102659D02*
D03*
X171600Y107259D02*
D03*
Y102141D02*
D03*
D22*
X521364Y79300D02*
D03*
Y73001D02*
D03*
X483200Y80905D02*
D03*
Y87204D02*
D03*
X537355Y73001D02*
D03*
Y79300D02*
D03*
X529355Y73001D02*
D03*
Y79300D02*
D03*
X498609Y80851D02*
D03*
Y87150D02*
D03*
X490909Y80851D02*
D03*
Y87150D02*
D03*
X521364Y92404D02*
D03*
Y86105D02*
D03*
X529364Y92404D02*
D03*
Y86105D02*
D03*
X537364Y92404D02*
D03*
Y86105D02*
D03*
X506300Y80805D02*
D03*
Y87104D02*
D03*
X475291Y45803D02*
D03*
Y52103D02*
D03*
X467291Y45803D02*
D03*
Y52103D02*
D03*
X459291Y45803D02*
D03*
Y52103D02*
D03*
X451291Y45803D02*
D03*
Y52103D02*
D03*
X443291Y45803D02*
D03*
Y52103D02*
D03*
X435291Y45803D02*
D03*
Y52103D02*
D03*
X427291Y45803D02*
D03*
Y52103D02*
D03*
X419291Y45803D02*
D03*
Y52103D02*
D03*
D23*
X272600Y105391D02*
D03*
Y116809D02*
D03*
X241600Y83946D02*
D03*
Y72528D02*
D03*
D24*
X237400Y99743D02*
D03*
Y105058D02*
D03*
X372338Y93642D02*
D03*
Y98958D02*
D03*
X348900Y109643D02*
D03*
Y114957D02*
D03*
X395300Y116214D02*
D03*
Y121529D02*
D03*
X401400D02*
D03*
Y116214D02*
D03*
X383300D02*
D03*
Y121529D02*
D03*
X372100Y106442D02*
D03*
Y111758D02*
D03*
D25*
X105200Y99888D02*
D03*
Y110912D02*
D03*
X95600Y99988D02*
D03*
Y111012D02*
D03*
X86000Y99988D02*
D03*
Y111012D02*
D03*
X483300Y52088D02*
D03*
Y63112D02*
D03*
D26*
X247907Y111800D02*
D03*
X261293D02*
D03*
D27*
X230105Y90813D02*
D03*
X218295D02*
D03*
D28*
X224200Y91601D02*
D03*
D29*
X208526Y116362D02*
D03*
X224274D02*
D03*
D30*
X68800Y114000D02*
D03*
Y118528D02*
D03*
X78942Y114172D02*
D03*
Y118700D02*
D03*
X73800Y118606D02*
D03*
Y114079D02*
D03*
X251700Y55564D02*
D03*
Y51036D02*
D03*
X245900Y61322D02*
D03*
Y65850D02*
D03*
D31*
X299778Y71657D02*
D03*
Y54728D02*
D03*
X315526Y71629D02*
D03*
Y54700D02*
D03*
X289500Y118465D02*
D03*
Y101535D02*
D03*
D32*
X272619Y67202D02*
D03*
Y90824D02*
D03*
D33*
X166091Y107016D02*
D03*
X163531D02*
D03*
X160972D02*
D03*
X158413D02*
D03*
X155854D02*
D03*
X153295D02*
D03*
X150736D02*
D03*
X148177D02*
D03*
X145618D02*
D03*
X143059D02*
D03*
X166091Y83787D02*
D03*
X163531D02*
D03*
X160972D02*
D03*
X158413D02*
D03*
X155854D02*
D03*
X153295D02*
D03*
X150736D02*
D03*
X148177D02*
D03*
X145618D02*
D03*
X143059D02*
D03*
D34*
X408039Y89685D02*
D03*
X406465D02*
D03*
X404890D02*
D03*
X403315D02*
D03*
X401740D02*
D03*
X400165D02*
D03*
X398590D02*
D03*
X397016D02*
D03*
Y73740D02*
D03*
X398590D02*
D03*
X400165D02*
D03*
X401740D02*
D03*
X403315D02*
D03*
X404890D02*
D03*
X406465D02*
D03*
X408039D02*
D03*
D35*
X394555Y87224D02*
D03*
Y85650D02*
D03*
Y84075D02*
D03*
Y82500D02*
D03*
Y80925D02*
D03*
Y79350D02*
D03*
Y77776D02*
D03*
Y76201D02*
D03*
X410500D02*
D03*
Y77776D02*
D03*
Y79350D02*
D03*
Y80925D02*
D03*
Y82500D02*
D03*
Y84075D02*
D03*
Y85650D02*
D03*
Y87224D02*
D03*
D36*
X402528Y81713D02*
D03*
D37*
X102537Y74300D02*
D03*
X100568D02*
D03*
X98600D02*
D03*
X96631D02*
D03*
X94663D02*
D03*
X92694D02*
D03*
X102537Y76269D02*
D03*
X100568D02*
D03*
X98600D02*
D03*
X96631D02*
D03*
X94663D02*
D03*
X92694D02*
D03*
X102537Y78237D02*
D03*
X100568D02*
D03*
X98600D02*
D03*
X96631D02*
D03*
X94663D02*
D03*
X92694D02*
D03*
X102537Y80206D02*
D03*
X100568D02*
D03*
X98600D02*
D03*
X96631D02*
D03*
X94663D02*
D03*
X92694D02*
D03*
X102537Y82174D02*
D03*
X100568D02*
D03*
X98600D02*
D03*
X96631D02*
D03*
X94663D02*
D03*
X92694D02*
D03*
D38*
X267713Y58837D02*
D03*
Y54900D02*
D03*
Y50963D02*
D03*
X256887D02*
D03*
Y54900D02*
D03*
Y58837D02*
D03*
D39*
X361036Y80832D02*
D03*
X365564D02*
D03*
X371036Y65300D02*
D03*
X375564D02*
D03*
X75672Y83968D02*
D03*
X80200D02*
D03*
X75595Y68168D02*
D03*
X80122D02*
D03*
X161136Y51400D02*
D03*
X165664D02*
D03*
X96557Y64102D02*
D03*
X101084D02*
D03*
X96553Y69102D02*
D03*
X101080D02*
D03*
X86194Y64102D02*
D03*
X90722D02*
D03*
X86194Y69102D02*
D03*
X90722D02*
D03*
D40*
X361000Y76300D02*
D03*
Y72835D02*
D03*
X375424Y61019D02*
D03*
Y57554D02*
D03*
X502100Y50000D02*
D03*
Y46535D02*
D03*
X371240Y61019D02*
D03*
Y57554D02*
D03*
X365503Y76300D02*
D03*
Y72835D02*
D03*
X171800Y88568D02*
D03*
Y92032D02*
D03*
X107258Y79335D02*
D03*
Y82800D02*
D03*
X95858Y93200D02*
D03*
Y89736D02*
D03*
X107300Y90581D02*
D03*
Y87116D02*
D03*
X150375Y74473D02*
D03*
Y77938D02*
D03*
X145875Y74473D02*
D03*
Y77938D02*
D03*
X157547Y118771D02*
D03*
Y115307D02*
D03*
X153047Y118771D02*
D03*
Y115307D02*
D03*
X148547Y118771D02*
D03*
Y115307D02*
D03*
X100568Y89768D02*
D03*
Y93232D02*
D03*
X91158Y89736D02*
D03*
Y93200D02*
D03*
X107258Y75032D02*
D03*
Y71568D02*
D03*
Y67232D02*
D03*
Y63768D02*
D03*
D41*
X398350Y109200D02*
D03*
X392050D02*
D03*
X405550Y109600D02*
D03*
X411850D02*
D03*
X405550Y101900D02*
D03*
X411850D02*
D03*
D42*
X491180Y58000D02*
D03*
Y63000D02*
D03*
Y68000D02*
D03*
Y73000D02*
D03*
X491479Y97400D02*
D03*
Y102400D02*
D03*
Y107400D02*
D03*
Y112400D02*
D03*
D43*
X514408Y73000D02*
D03*
Y68000D02*
D03*
Y63000D02*
D03*
Y58000D02*
D03*
X514708Y112400D02*
D03*
Y107400D02*
D03*
Y102400D02*
D03*
Y97400D02*
D03*
D44*
X512257Y50000D02*
D03*
X506943D02*
D03*
X412757Y65658D02*
D03*
X407443D02*
D03*
X354842Y108500D02*
D03*
X360157D02*
D03*
X354842Y95425D02*
D03*
X360157D02*
D03*
X507043Y43700D02*
D03*
X512358D02*
D03*
X507142Y119700D02*
D03*
X512458D02*
D03*
X582358Y48600D02*
D03*
X577042D02*
D03*
X582457Y116200D02*
D03*
X577142D02*
D03*
X395458Y63324D02*
D03*
X390142D02*
D03*
D45*
X449600Y85500D02*
D03*
Y61681D02*
D03*
X429600Y85510D02*
D03*
Y61690D02*
D03*
X469600D02*
D03*
Y85510D02*
D03*
D46*
X354941Y89260D02*
D03*
X360059D02*
D03*
X354941Y115000D02*
D03*
X360059D02*
D03*
X360914Y65700D02*
D03*
X366032D02*
D03*
X360039Y101969D02*
D03*
X354921D02*
D03*
X382759Y92500D02*
D03*
X377641D02*
D03*
X385659Y86300D02*
D03*
X380541D02*
D03*
D47*
X521300Y66120D02*
D03*
X526300D02*
D03*
X531300D02*
D03*
X536300D02*
D03*
X536200Y99279D02*
D03*
X531200D02*
D03*
X526200D02*
D03*
X521200D02*
D03*
D48*
X536300Y42892D02*
D03*
X531300D02*
D03*
X526300D02*
D03*
X521300D02*
D03*
X521200Y122508D02*
D03*
X526200D02*
D03*
X531200D02*
D03*
X536200D02*
D03*
D49*
X449763Y96893D02*
D03*
X438739D02*
D03*
D50*
X569000Y61831D02*
D03*
Y103169D02*
D03*
D51*
X77936Y73268D02*
D03*
X75180D02*
D03*
X77936Y78810D02*
D03*
X75180D02*
D03*
D52*
X151537Y51900D02*
D03*
X143663Y48160D02*
D03*
Y55640D02*
D03*
D53*
X79137Y88800D02*
D03*
X75672D02*
D03*
X146225Y65264D02*
D03*
X149689D02*
D03*
X146225Y60764D02*
D03*
X149689D02*
D03*
X86490Y78368D02*
D03*
X83026D02*
D03*
X86490Y73734D02*
D03*
X83026D02*
D03*
X250868Y65700D02*
D03*
X254332D02*
D03*
D54*
X131534Y83000D02*
D03*
X123266D02*
D03*
X131534Y64500D02*
D03*
X123266D02*
D03*
X131534Y103100D02*
D03*
X123266D02*
D03*
D55*
X154751Y71505D02*
D03*
Y69537D02*
D03*
Y67568D02*
D03*
Y65600D02*
D03*
Y63631D02*
D03*
Y61663D02*
D03*
Y59694D02*
D03*
X173649D02*
D03*
Y61663D02*
D03*
Y63631D02*
D03*
Y65600D02*
D03*
Y67568D02*
D03*
Y69537D02*
D03*
Y71505D02*
D03*
D56*
X158294Y56151D02*
D03*
X160263D02*
D03*
X162232D02*
D03*
X164200D02*
D03*
X166168D02*
D03*
X168137D02*
D03*
X170106D02*
D03*
Y75049D02*
D03*
X168137D02*
D03*
X166168D02*
D03*
X164200D02*
D03*
X162232D02*
D03*
X160263D02*
D03*
X158294D02*
D03*
D57*
X164200Y65600D02*
D03*
D58*
X286109Y57200D02*
D03*
X274691D02*
D03*
D59*
X250900Y84532D02*
D03*
Y72131D02*
D03*
D109*
X184000Y85800D02*
D03*
X196500D02*
D03*
Y105800D02*
D03*
X184000D02*
D03*
D110*
Y95800D02*
D03*
X204000Y99800D02*
D03*
Y91800D02*
D03*
D111*
X122282Y117055D02*
D03*
Y48945D02*
D03*
D114*
X406858Y86043D02*
D03*
Y77382D02*
D03*
X398197Y86043D02*
D03*
Y77382D02*
D03*
X402528Y86043D02*
D03*
X406858Y81713D02*
D03*
X398197D02*
D03*
X402528Y77480D02*
D03*
X506943Y50000D02*
D03*
X514708Y102300D02*
D03*
X412400Y101900D02*
D03*
X412350Y109600D02*
D03*
X449100Y99000D02*
D03*
X451688Y94700D02*
D03*
X451700Y99000D02*
D03*
X451688Y96900D02*
D03*
X440888Y94700D02*
D03*
X440900Y99000D02*
D03*
X440888Y96900D02*
D03*
X63800Y87484D02*
D03*
X66342Y68902D02*
D03*
X63800D02*
D03*
X68900Y68900D02*
D03*
X68890Y87484D02*
D03*
X537355Y78900D02*
D03*
Y72601D02*
D03*
X529355Y78900D02*
D03*
Y72601D02*
D03*
X521364D02*
D03*
Y78900D02*
D03*
X71400Y71303D02*
D03*
Y68967D02*
D03*
X66342Y87484D02*
D03*
X390142Y63324D02*
D03*
X375424Y57554D02*
D03*
X371240D02*
D03*
X89600Y72174D02*
D03*
X436300Y64500D02*
D03*
X419500Y45800D02*
D03*
X413900Y78500D02*
D03*
X416900Y85675D02*
D03*
X413900Y80800D02*
D03*
X416800Y82400D02*
D03*
X413900Y87300D02*
D03*
X372100Y106442D02*
D03*
X378000Y106484D02*
D03*
X66342Y85083D02*
D03*
X75672Y88800D02*
D03*
X154800Y63600D02*
D03*
X153900Y65569D02*
D03*
X164200Y75049D02*
D03*
X168150Y56200D02*
D03*
X154751Y71505D02*
D03*
Y69537D02*
D03*
Y67568D02*
D03*
X168600Y81500D02*
D03*
X168137Y75049D02*
D03*
X173649Y59694D02*
D03*
X170150Y56200D02*
D03*
X383800Y82466D02*
D03*
X388200Y80700D02*
D03*
X391200Y75500D02*
D03*
X485300Y61900D02*
D03*
Y64226D02*
D03*
X419700Y89100D02*
D03*
X418900Y70600D02*
D03*
X422900Y87500D02*
D03*
X413900Y84000D02*
D03*
X418000Y41600D02*
D03*
X407224Y69900D02*
D03*
X411000Y70600D02*
D03*
X460100Y91200D02*
D03*
X458400Y78700D02*
D03*
X440000Y86400D02*
D03*
X372338Y93900D02*
D03*
X366200D02*
D03*
X372338Y99357D02*
D03*
X468300Y93651D02*
D03*
X473300Y93650D02*
D03*
X470800D02*
D03*
X465800Y93651D02*
D03*
X438088Y96900D02*
D03*
X438100Y99000D02*
D03*
X438088Y94700D02*
D03*
X449112Y96900D02*
D03*
X449100Y94700D02*
D03*
X410279Y93000D02*
D03*
X409000Y96900D02*
D03*
X491479Y97400D02*
D03*
X461391Y86065D02*
D03*
X537364Y86105D02*
D03*
X529364D02*
D03*
X521364D02*
D03*
X501700Y76100D02*
D03*
X405550Y109600D02*
D03*
X380541Y80503D02*
D03*
X393100Y102659D02*
D03*
X399000D02*
D03*
X404900Y95700D02*
D03*
X398600Y107600D02*
D03*
X385500Y107959D02*
D03*
X395300Y121529D02*
D03*
X401400D02*
D03*
X389300Y116312D02*
D03*
X383300Y116214D02*
D03*
X385611Y102800D02*
D03*
X382600Y96200D02*
D03*
X348900Y109643D02*
D03*
X360157Y108500D02*
D03*
X366256Y106484D02*
D03*
X491479Y107400D02*
D03*
X405550Y101900D02*
D03*
X529364Y92404D02*
D03*
X521364D02*
D03*
X537364D02*
D03*
X392075Y109175D02*
D03*
X481300Y61936D02*
D03*
Y64226D02*
D03*
X507043Y43700D02*
D03*
X475291Y52103D02*
D03*
X512358Y43700D02*
D03*
X467291Y45803D02*
D03*
X475291D02*
D03*
X398500Y110600D02*
D03*
X536200Y122508D02*
D03*
X531200D02*
D03*
X521200D02*
D03*
X536200Y99279D02*
D03*
X521200D02*
D03*
X526200Y122508D02*
D03*
X531200Y99279D02*
D03*
X526200D02*
D03*
X563650Y56839D02*
D03*
X574350D02*
D03*
Y108138D02*
D03*
X563650D02*
D03*
Y103169D02*
D03*
X424267Y71200D02*
D03*
X459291Y45803D02*
D03*
X451291D02*
D03*
X443291D02*
D03*
X435291D02*
D03*
X427291D02*
D03*
X395500Y63335D02*
D03*
X393000Y71100D02*
D03*
X360428Y54200D02*
D03*
X448391Y57700D02*
D03*
X450791D02*
D03*
X453191D02*
D03*
X445991D02*
D03*
X433200D02*
D03*
X430800D02*
D03*
X428400D02*
D03*
X426000D02*
D03*
X514408Y63000D02*
D03*
X502100Y50000D02*
D03*
X526300Y42892D02*
D03*
X376500Y72700D02*
D03*
X365503Y76300D02*
D03*
X361000Y72835D02*
D03*
X365503D02*
D03*
X391600Y87300D02*
D03*
X389885Y85700D02*
D03*
X563650Y66799D02*
D03*
X569000D02*
D03*
X574350D02*
D03*
Y61831D02*
D03*
X569000D02*
D03*
X563650D02*
D03*
X569000Y56862D02*
D03*
Y108138D02*
D03*
X574350Y103169D02*
D03*
X569000D02*
D03*
X574350Y98201D02*
D03*
X569000D02*
D03*
X563650D02*
D03*
X507142Y119700D02*
D03*
X514708Y107400D02*
D03*
X514704Y97396D02*
D03*
X491479Y112400D02*
D03*
Y102400D02*
D03*
X536300Y66120D02*
D03*
X531300D02*
D03*
X526300D02*
D03*
X521300D02*
D03*
X514408Y68000D02*
D03*
Y58000D02*
D03*
X502100Y46535D02*
D03*
X514500Y73000D02*
D03*
X439903Y80503D02*
D03*
X512257Y50000D02*
D03*
X531300Y42892D02*
D03*
X521300D02*
D03*
X419500Y52200D02*
D03*
X456700Y91300D02*
D03*
X508700Y95345D02*
D03*
X461391Y76269D02*
D03*
X582358Y48600D02*
D03*
X582500Y116100D02*
D03*
X415799Y76201D02*
D03*
X412757Y65658D02*
D03*
X77900Y93900D02*
D03*
X76600Y98100D02*
D03*
X83500Y93800D02*
D03*
X467291Y52103D02*
D03*
X459291D02*
D03*
X451291D02*
D03*
X443291D02*
D03*
X435291D02*
D03*
X427291D02*
D03*
X256700Y55000D02*
D03*
X275100Y116809D02*
D03*
X270100D02*
D03*
X272600D02*
D03*
X237400Y99743D02*
D03*
X218295Y89260D02*
D03*
X218300Y92500D02*
D03*
X241600Y72191D02*
D03*
X123266Y103100D02*
D03*
X208526Y116362D02*
D03*
X138800Y69659D02*
D03*
X78930Y114184D02*
D03*
X68788Y114012D02*
D03*
X73800Y114079D02*
D03*
X83000Y73769D02*
D03*
Y78300D02*
D03*
X171748Y107237D02*
D03*
X160900Y79600D02*
D03*
X158413Y83787D02*
D03*
X155854D02*
D03*
X251700Y55564D02*
D03*
X146225Y68416D02*
D03*
Y60764D02*
D03*
X85000Y82400D02*
D03*
X292500Y118100D02*
D03*
X286600D02*
D03*
X289500D02*
D03*
X96631Y64068D02*
D03*
X79200Y88800D02*
D03*
X77936Y73268D02*
D03*
X150736Y89664D02*
D03*
X148200Y109800D02*
D03*
X150736Y112100D02*
D03*
X77936Y78810D02*
D03*
X87600Y82500D02*
D03*
X100568Y89768D02*
D03*
X286109Y57200D02*
D03*
X171700Y102041D02*
D03*
X171800Y92032D02*
D03*
Y88568D02*
D03*
X201589Y95889D02*
D03*
X157547Y118771D02*
D03*
X153047D02*
D03*
X148547D02*
D03*
X90300Y82668D02*
D03*
X95858Y93200D02*
D03*
X100568Y93232D02*
D03*
X107258Y75032D02*
D03*
X101080Y69202D02*
D03*
X107258Y71568D02*
D03*
X80122Y68168D02*
D03*
X143059Y83764D02*
D03*
X91158Y93200D02*
D03*
X107300Y90581D02*
D03*
X107258Y63768D02*
D03*
Y79335D02*
D03*
X150736Y83787D02*
D03*
X354842Y95425D02*
D03*
X354882Y102008D02*
D03*
X354842Y108500D02*
D03*
X402528Y81713D02*
D03*
X354941Y89260D02*
D03*
X495313Y71996D02*
D03*
X499644D02*
D03*
X503975D02*
D03*
X495313Y67665D02*
D03*
X499644D02*
D03*
X503975D02*
D03*
X495313Y63335D02*
D03*
X499644D02*
D03*
X503975D02*
D03*
X495313Y59004D02*
D03*
X499644D02*
D03*
X503975D02*
D03*
X495613Y111396D02*
D03*
X499944D02*
D03*
X504275D02*
D03*
X495613Y107065D02*
D03*
X499944D02*
D03*
X504275D02*
D03*
X495613Y102735D02*
D03*
X499944D02*
D03*
X504275D02*
D03*
X495613Y98404D02*
D03*
X499944D02*
D03*
X504275D02*
D03*
X535296Y61987D02*
D03*
Y57656D02*
D03*
Y53325D02*
D03*
X530965Y61987D02*
D03*
Y57656D02*
D03*
Y53325D02*
D03*
X526635Y61987D02*
D03*
Y57656D02*
D03*
Y53325D02*
D03*
X522304Y61987D02*
D03*
Y57656D02*
D03*
Y53325D02*
D03*
X354941Y115000D02*
D03*
X360059Y95406D02*
D03*
Y89260D02*
D03*
X522204Y103413D02*
D03*
Y107744D02*
D03*
Y112075D02*
D03*
X526535Y103413D02*
D03*
Y107744D02*
D03*
Y112075D02*
D03*
X530865Y103413D02*
D03*
Y107744D02*
D03*
Y112075D02*
D03*
X535196Y103413D02*
D03*
Y107744D02*
D03*
Y112075D02*
D03*
X98600Y76269D02*
D03*
X100568Y76237D02*
D03*
X102537Y76269D02*
D03*
X100568Y80206D02*
D03*
Y78237D02*
D03*
X102537Y82174D02*
D03*
X98600Y80206D02*
D03*
X92041Y72178D02*
D03*
X96631Y80206D02*
D03*
X94663D02*
D03*
X96631Y82174D02*
D03*
X98600Y86674D02*
D03*
X94663Y76269D02*
D03*
Y72174D02*
D03*
X155854Y107016D02*
D03*
X150375Y74473D02*
D03*
X145875D02*
D03*
X192150Y95147D02*
D03*
Y99989D02*
D03*
X145618Y106941D02*
D03*
X143059D02*
D03*
X190575Y102599D02*
D03*
X159869Y69931D02*
D03*
X164200D02*
D03*
X168531D02*
D03*
X159869Y65600D02*
D03*
X164200D02*
D03*
X168531D02*
D03*
X159869Y61269D02*
D03*
X164200D02*
D03*
X168531D02*
D03*
D115*
X194000Y98300D02*
D03*
X199000Y93300D02*
D03*
X194000D02*
D03*
X189000Y98300D02*
D03*
Y93300D02*
D03*
X199000Y98300D02*
D03*
D116*
X475291Y52103D02*
X483600D01*
X419500Y52103D02*
X451291D01*
X441100Y60600D02*
Y70672D01*
X447277Y76849D01*
X467291Y52103D02*
X475291D01*
X459291D02*
X467291D01*
X451291Y52103D02*
X459291Y52103D01*
X447277Y83177D02*
X449600Y85500D01*
X447277Y76849D02*
Y83177D01*
X224917Y116310D02*
X229427Y111800D01*
X315526Y63400D02*
Y71629D01*
X247907Y100107D02*
Y111800D01*
X238613Y90813D02*
X247907Y100107D01*
X230105Y90813D02*
X238613D01*
X229427Y111800D02*
X247907D01*
X289500Y82300D02*
Y101535D01*
X274831Y67631D02*
X289500Y82300D01*
X273800Y67631D02*
X274831D01*
D117*
X407400Y65418D02*
Y65700D01*
X395458Y63324D02*
X401222D01*
X384057D02*
X390142D01*
X429600Y77720D02*
X436300Y71020D01*
Y64500D02*
Y71020D01*
X404823Y62841D02*
X407400Y65418D01*
X401705Y62841D02*
X404823D01*
X401222Y63324D02*
X401705Y62841D01*
X384057Y62741D02*
Y63324D01*
X429600Y77720D02*
Y85510D01*
X158413Y104300D02*
X158427D01*
X151437Y51800D02*
X156300D01*
X166216Y107237D02*
X171748D01*
X135500Y83400D02*
X150100Y98000D01*
X135500Y68466D02*
Y83400D01*
X131534Y64500D02*
X135500Y68466D01*
X158294Y53794D02*
Y56151D01*
X156300Y51800D02*
X158294Y53794D01*
X146225Y65264D02*
Y68416D01*
X166091Y83787D02*
Y88209D01*
X164636Y89664D02*
X166091Y88209D01*
X150736Y89664D02*
X164636D01*
X150736Y107343D02*
Y112100D01*
Y107343D02*
X150800Y107279D01*
X160500Y98000D02*
X163531Y101031D01*
X150100Y98000D02*
X160500D01*
X171748Y107237D02*
X171869Y107359D01*
X166091Y107112D02*
X166216Y107237D01*
X166091Y107016D02*
Y107112D01*
X100568Y82174D02*
Y89685D01*
X163531Y101031D02*
Y107016D01*
X159287Y100200D02*
X160972Y101886D01*
Y107016D01*
X148734Y100200D02*
X159287D01*
X131534Y83000D02*
X148734Y100200D01*
X157227Y103100D02*
X158427Y104300D01*
X158413D02*
Y107016D01*
X131534Y103100D02*
X157227D01*
X150736Y107216D02*
X150800Y107279D01*
X150736Y107016D02*
Y107216D01*
D118*
X137500Y45803D02*
Y55800D01*
X133500Y59800D02*
X137500Y55800D01*
X118700Y59800D02*
X133500D01*
X113100Y65400D02*
X118700Y59800D01*
X370933Y65287D02*
X371240Y64979D01*
Y61019D02*
Y64979D01*
X375442Y61037D02*
Y65268D01*
X111100Y103900D02*
X123266Y91734D01*
X99512Y103900D02*
X111100D01*
X95600Y99988D02*
X99512Y103900D01*
X113100Y106900D02*
X116900Y103100D01*
X88600Y106900D02*
X113100D01*
X86000Y104300D02*
X88600Y106900D01*
X366200Y93561D02*
Y93900D01*
X365860Y93701D02*
X366159Y94000D01*
X365930Y93630D02*
X366100Y93461D01*
X365860Y93701D02*
X365930Y93630D01*
X251700Y55000D02*
X256700D01*
X569000Y61831D02*
X577042Y53788D01*
X569000Y103169D02*
X577142Y111312D01*
X372319Y94063D02*
X372339Y94043D01*
X366100Y93461D02*
X366200Y93561D01*
X366159Y94083D02*
X366179Y94063D01*
X380541Y80503D02*
Y86300D01*
X577142Y111312D02*
Y116200D01*
X577042Y48600D02*
Y53788D01*
X250737Y50963D02*
X251700D01*
X256887D01*
X251700D02*
Y51036D01*
Y50741D02*
Y50963D01*
X86000Y99988D02*
Y104300D01*
X251700Y55000D02*
Y55564D01*
X245900Y61322D02*
X248800Y58422D01*
Y52900D02*
Y58422D01*
Y52900D02*
X250737Y50963D01*
X268100Y64300D02*
X269499Y65700D01*
X250884Y72114D02*
X250900Y72131D01*
X250884Y65716D02*
Y72114D01*
X250868Y65700D02*
X250884Y65716D01*
X250868Y62432D02*
Y65700D01*
Y62432D02*
X254463Y58837D01*
X256887D01*
X116700Y67100D02*
Y93245D01*
X110057Y99888D02*
X116700Y93245D01*
X105200Y99888D02*
X110057D01*
X226157Y105058D02*
X237400D01*
X224200Y103100D02*
X226157Y105058D01*
X116900Y103100D02*
X123266D01*
Y83000D02*
Y91734D01*
X113100Y65400D02*
Y80100D01*
X119300Y64500D02*
X123266D01*
X116700Y67100D02*
X119300Y64500D01*
X110400Y82800D02*
X113100Y80100D01*
X250802Y72131D02*
X250900D01*
X107258Y82800D02*
X110400D01*
X199000Y93300D02*
X201589Y95889D01*
D119*
X474107Y80805D02*
X506300D01*
X469600Y85313D02*
X474107Y80805D01*
X469600Y85313D02*
Y85510D01*
X208526Y116362D02*
X224200Y100688D01*
D120*
X63966Y90634D02*
X66342D01*
X62602Y91998D02*
X63966Y90634D01*
X62602Y91998D02*
Y96500D01*
Y64402D02*
X63952Y65752D01*
X62602Y59886D02*
Y64402D01*
X63952Y65752D02*
X66342D01*
D121*
X50200Y59886D02*
X62602D01*
X50200Y96500D02*
X62602D01*
D122*
X394792Y47700D02*
X402792Y55700D01*
X394758Y47700D02*
X394792D01*
X402792Y55700D02*
X417000D01*
D123*
X419100Y53600D01*
D124*
X224200Y100688D02*
Y103100D01*
Y92376D02*
Y100688D01*
X278583Y51400D02*
X300000D01*
X274691Y55291D02*
X278583Y51400D01*
X303105D02*
X312278D01*
X354842Y108500D02*
X354882Y108461D01*
Y102008D02*
X354921Y101969D01*
X299778Y63586D02*
Y71657D01*
D125*
X271869Y65700D02*
X273800Y67631D01*
X269499Y65700D02*
X271869D01*
X254332D02*
X269499D01*
X267713Y54900D02*
X274300D01*
X267713Y64300D02*
X268100D01*
D126*
X267713Y58837D02*
Y64300D01*
D127*
X62602Y96500D02*
D03*
X50200D02*
D03*
X62602Y59886D02*
D03*
X50200D02*
D03*
D128*
X464522Y113800D02*
D03*
X452711D02*
D03*
X440900D02*
D03*
D129*
X476333Y121517D02*
D03*
X417278D02*
D03*
D130*
X429089Y113800D02*
D03*
D131*
X380886Y56950D02*
D03*
X326700Y43800D02*
D03*
X315526Y63400D02*
D03*
X137500Y45803D02*
D03*
X299778Y63586D02*
D03*
X45800Y107744D02*
D03*
Y119300D02*
D03*
X58400Y119196D02*
D03*
X253400Y95700D02*
D03*
X58400Y107744D02*
D03*
X190000Y117200D02*
D03*
X181700D02*
D03*
X172900D02*
D03*
D132*
X47600Y47600D02*
D03*
X484600Y118300D02*
D03*
D133*
X394792Y47700D02*
D03*
D134*
X45672Y72878D02*
D03*
Y83508D02*
D03*
X60043Y91579D02*
D03*
Y64807D02*
D03*
D135*
X441100Y60600D02*
D03*
M02*
