G04*
G04 #@! TF.GenerationSoftware,Altium Limited,Altium Designer,19.0.15 (446)*
G04*
G04 Layer_Color=16711935*
%FSLAX25Y25*%
%MOIN*%
G70*
G01*
G75*
G04:AMPARAMS|DCode=103|XSize=47.37mil|YSize=98.55mil|CornerRadius=23.68mil|HoleSize=0mil|Usage=FLASHONLY|Rotation=270.000|XOffset=0mil|YOffset=0mil|HoleType=Round|Shape=RoundedRectangle|*
%AMROUNDEDRECTD103*
21,1,0.04737,0.05118,0,0,270.0*
21,1,0.00000,0.09855,0,0,270.0*
1,1,0.04737,-0.02559,0.00000*
1,1,0.04737,-0.02559,0.00000*
1,1,0.04737,0.02559,0.00000*
1,1,0.04737,0.02559,0.00000*
%
%ADD103ROUNDEDRECTD103*%
%ADD104C,0.06584*%
%ADD105C,0.05600*%
%ADD106R,0.06584X0.06584*%
%ADD107C,0.10642*%
%ADD108C,0.06800*%
%ADD109C,0.09350*%
%ADD110C,0.03347*%
%ADD111O,0.09055X0.07874*%
%ADD112C,0.12611*%
D103*
X62602Y96500D02*
D03*
X50200D02*
D03*
X62602Y59886D02*
D03*
X50200D02*
D03*
D104*
X464522Y113800D02*
D03*
X452711D02*
D03*
X440900D02*
D03*
D105*
X476333Y121517D02*
D03*
X417278D02*
D03*
D106*
X429089Y113800D02*
D03*
D107*
X47600Y47600D02*
D03*
X484600Y118300D02*
D03*
D108*
X137500Y45803D02*
D03*
X45800Y107744D02*
D03*
Y119300D02*
D03*
X58400Y119196D02*
D03*
X253400Y95700D02*
D03*
X58400Y107744D02*
D03*
X190000Y117200D02*
D03*
X181700D02*
D03*
X172900D02*
D03*
D109*
X184000Y85800D02*
D03*
X196500D02*
D03*
Y105800D02*
D03*
X184000D02*
D03*
D110*
Y95800D02*
D03*
X204000Y99800D02*
D03*
Y91800D02*
D03*
D111*
X122282Y117055D02*
D03*
Y48945D02*
D03*
D112*
X394792Y47700D02*
D03*
M02*
