G04*
G04 #@! TF.GenerationSoftware,Altium Limited,Altium Designer,19.0.15 (446)*
G04*
G04 Layer_Color=16711935*
%FSLAX25Y25*%
%MOIN*%
G70*
G01*
G75*
%ADD16C,0.01968*%
D16*
X43361Y99463D02*
X43097Y100447D01*
X42377Y101168D01*
X41392Y101432D01*
X39424Y103400D02*
X39688Y102416D01*
X40408Y101695D01*
X41392Y101432D01*
X41392Y54975D02*
X42377Y55238D01*
X43097Y55959D01*
X43361Y56943D01*
X41392Y54975D02*
X40408Y54711D01*
X39688Y53991D01*
X39424Y53006D01*
X539806Y39403D02*
X540790Y39667D01*
X541511Y40387D01*
X541774Y41372D01*
X405947Y124049D02*
X405684Y125031D01*
X404965Y125750D01*
X403983Y126013D01*
X237253Y116183D02*
X238235Y116447D01*
X238954Y117166D01*
X239218Y118148D01*
X233321Y118148D02*
X233584Y117165D01*
X234303Y116446D01*
X235285Y116183D01*
X97104Y118143D02*
X97368Y117161D01*
X98087Y116442D01*
X99069Y116179D01*
X548861Y47277D02*
X548597Y48261D01*
X547876Y48982D01*
X546892Y49246D01*
X415006Y126009D02*
X414024Y125746D01*
X413305Y125027D01*
X413042Y124045D01*
X405951Y118143D02*
X406214Y117161D01*
X406933Y116442D01*
X407916Y116179D01*
X241190Y126013D02*
X240208Y125750D01*
X239489Y125031D01*
X239226Y124049D01*
X550829Y126013D02*
X549847Y125750D01*
X549128Y125031D01*
X548865Y124049D01*
X403983Y39403D02*
X404967Y39667D01*
X405688Y40387D01*
X405952Y41372D01*
X543743Y49246D02*
X542758Y48982D01*
X542038Y48261D01*
X541774Y47277D01*
X413038Y41372D02*
X413302Y40387D01*
X414022Y39667D01*
X415006Y39403D01*
X541774Y118147D02*
X542037Y117165D01*
X542756Y116446D01*
X543739Y116183D01*
X413038Y47277D02*
X412774Y48261D01*
X412053Y48982D01*
X411069Y49246D01*
X239813Y41372D02*
X240076Y40387D01*
X240797Y39667D01*
X241781Y39403D01*
X239813Y47277D02*
X239549Y48261D01*
X238828Y48982D01*
X237844Y49246D01*
X103596Y41372D02*
X103859Y40387D01*
X104580Y39667D01*
X105564Y39403D01*
X98478Y49246D02*
X97493Y48982D01*
X96773Y48261D01*
X96509Y47277D01*
X39424Y41372D02*
X39688Y40387D01*
X40408Y39667D01*
X41392Y39403D01*
Y126013D02*
X40410Y125750D01*
X39691Y125031D01*
X39428Y124049D01*
X598467Y39403D02*
X599449Y39666D01*
X600168Y40385D01*
X600431Y41368D01*
X600431Y124049D02*
X600168Y125031D01*
X599449Y125750D01*
X598467Y126013D01*
X541770Y124053D02*
X541507Y125035D01*
X540788Y125754D01*
X539806Y126017D01*
X411069Y116179D02*
X412052Y116442D01*
X412771Y117161D01*
X413034Y118143D01*
X104974Y126009D02*
X103991Y125746D01*
X103272Y125027D01*
X103009Y124044D01*
X548861Y41372D02*
X549124Y40387D01*
X549845Y39667D01*
X550829Y39403D01*
X546892Y116183D02*
X547874Y116446D01*
X548594Y117165D01*
X548857Y118147D01*
X233312Y124053D02*
X233049Y125035D01*
X232330Y125754D01*
X231348Y126018D01*
X407920Y49246D02*
X406935Y48982D01*
X406215Y48261D01*
X405951Y47277D01*
X234695Y49246D02*
X233710Y48982D01*
X232990Y48261D01*
X232726Y47277D01*
X230758Y39403D02*
X231742Y39667D01*
X232463Y40387D01*
X232726Y41372D01*
X103596Y47277D02*
X103332Y48261D01*
X102611Y48982D01*
X101627Y49246D01*
X94541Y39403D02*
X95525Y39667D01*
X96246Y40387D01*
X96509Y41372D01*
X101037Y116179D02*
X102019Y116442D01*
X102738Y117161D01*
X103001Y118144D01*
X97096Y124049D02*
X96833Y125031D01*
X96113Y125750D01*
X95131Y126013D01*
X39424Y41372D02*
Y53006D01*
X39424Y103400D02*
X39428Y124049D01*
X43361Y99463D02*
X43361Y56943D01*
X541774Y41372D02*
Y47277D01*
Y118143D02*
Y124049D01*
X405951Y41372D02*
Y47277D01*
X239813Y41372D02*
Y47277D01*
X232726Y41372D02*
Y47277D01*
X103596Y41372D02*
Y47240D01*
X600431Y41372D02*
Y124049D01*
X413038Y41372D02*
Y47277D01*
X103005Y118143D02*
Y124049D01*
X99068Y116175D02*
X101037D01*
X550829Y39403D02*
X598467D01*
X415006Y126013D02*
X539806D01*
X413038Y118143D02*
Y124049D01*
X241781Y39403D02*
X403983D01*
X241190Y126013D02*
X403983D01*
X96509Y41372D02*
Y47277D01*
X97100Y118143D02*
Y124049D01*
X548861Y41372D02*
Y47277D01*
X543743Y49246D02*
X546892D01*
X548861Y118143D02*
Y124049D01*
X543743Y116175D02*
X546892D01*
X407920Y49246D02*
X411069D01*
X405951Y118143D02*
Y124049D01*
X239222Y118143D02*
Y124049D01*
X233317Y118143D02*
Y124049D01*
X407920Y116175D02*
X411069D01*
X234695Y49246D02*
X237844D01*
X235285Y116175D02*
X237253D01*
X98478Y49246D02*
X101627D01*
X550829Y126013D02*
X598467D01*
X415006Y39403D02*
X539806D01*
X105564D02*
X230758D01*
X104974Y126013D02*
X231349D01*
X41392Y39403D02*
X94541D01*
X41392Y126013D02*
X95131D01*
M02*
