G04*
G04 #@! TF.GenerationSoftware,Altium Limited,Altium Designer,19.0.15 (446)*
G04*
G04 Layer_Color=32768*
%FSLAX25Y25*%
%MOIN*%
G70*
G01*
G75*
%ADD11C,0.00787*%
%ADD136C,0.00394*%
%ADD141C,0.00197*%
D11*
X43350Y97091D02*
X65554D01*
Y59295D02*
Y97091D01*
X36421Y59295D02*
X65554D01*
X43350D02*
Y97091D01*
X36421Y59295D02*
Y97091D01*
X43350D01*
D136*
X178252Y107611D02*
X177233Y107477D01*
X176284Y107084D01*
X175468Y106458D01*
X174842Y105642D01*
X174449Y104693D01*
X174315Y103674D01*
Y87926D02*
X174449Y86907D01*
X174842Y85957D01*
X175468Y85142D01*
X176284Y84516D01*
X177233Y84123D01*
X178252Y83989D01*
X213685Y103674D02*
X213551Y104693D01*
X213158Y105642D01*
X212532Y106458D01*
X211717Y107084D01*
X210767Y107477D01*
X209748Y107611D01*
Y83989D02*
X210767Y84123D01*
X211717Y84516D01*
X212532Y85142D01*
X213158Y85957D01*
X213551Y86907D01*
X213685Y87926D01*
X138800Y65230D02*
Y68970D01*
X136930Y67100D02*
X140670D01*
X519396Y76150D02*
X523333D01*
X521364Y74182D02*
Y78119D01*
X272600Y109132D02*
Y113068D01*
X270632Y111100D02*
X274569D01*
X237400Y100530D02*
Y104270D01*
X235530Y102400D02*
X239270D01*
X105200Y103431D02*
Y107369D01*
X103232Y105400D02*
X107168D01*
X95600Y103532D02*
Y107468D01*
X93632Y105500D02*
X97569D01*
X86000Y103532D02*
Y107468D01*
X84031Y105500D02*
X87968D01*
X254600Y110619D02*
Y112981D01*
X253419Y111800D02*
X255781D01*
X222232Y97989D02*
X226168D01*
X224200Y96020D02*
Y99957D01*
X216400Y114394D02*
Y118331D01*
X214432Y116362D02*
X218369D01*
X67717Y116264D02*
X69883D01*
X68800Y115181D02*
Y117347D01*
X66635Y111441D02*
Y121087D01*
X70965Y111441D02*
Y121087D01*
X66635Y111441D02*
X70965D01*
X66635Y121087D02*
X70965D01*
X213685Y87926D02*
Y103674D01*
X178252Y83989D02*
X209748D01*
X178252Y107611D02*
X209748D01*
X174315Y87926D02*
Y103674D01*
X299778Y61224D02*
Y65161D01*
X297809Y63192D02*
X301747D01*
X315526Y61196D02*
Y65133D01*
X313558Y63165D02*
X317495D01*
X152606Y95401D02*
X156543D01*
X154575Y93433D02*
Y97370D01*
X402528Y79744D02*
Y83681D01*
X400559Y81713D02*
X404496D01*
X97616Y76269D02*
Y80206D01*
X95647Y78237D02*
X99584D01*
X262300Y52931D02*
Y56868D01*
X260332Y54900D02*
X264268D01*
X372338Y94430D02*
Y98170D01*
X370468Y96300D02*
X374208D01*
X366142Y94471D02*
Y98211D01*
X364272Y96341D02*
X368012D01*
X358477Y78667D02*
Y82998D01*
X368123Y78667D02*
Y82998D01*
X358477D02*
X368123D01*
X358477Y78667D02*
X368123D01*
X362217Y80832D02*
X364383D01*
X363300Y79750D02*
Y81915D01*
X359976Y74568D02*
X362024D01*
X361000Y73544D02*
Y75591D01*
X393232Y109200D02*
X397168D01*
X395200Y107231D02*
Y111169D01*
X374401Y59287D02*
X376448D01*
X375424Y58263D02*
Y60310D01*
X501076Y48268D02*
X503124D01*
X502100Y47244D02*
Y49291D01*
X502400Y63532D02*
Y67469D01*
X500431Y65500D02*
X504368D01*
X507730Y50000D02*
X511470D01*
X509600Y48130D02*
Y51870D01*
X449600Y71622D02*
Y75559D01*
X447632Y73590D02*
X451569D01*
X408230Y65658D02*
X411970D01*
X410100Y63787D02*
Y67528D01*
X355630Y108500D02*
X359370D01*
X357500Y106630D02*
Y110370D01*
X355630Y89260D02*
X359370D01*
X357500Y87390D02*
Y91130D01*
X355630Y95425D02*
X359370D01*
X357500Y93555D02*
Y97295D01*
X355630Y115000D02*
X359370D01*
X357500Y113130D02*
Y116870D01*
X348900Y110430D02*
Y114170D01*
X347030Y112300D02*
X350770D01*
X502700Y102931D02*
Y106869D01*
X500732Y104900D02*
X504669D01*
X526831Y54900D02*
X530768D01*
X528800Y52931D02*
Y56868D01*
X368477Y63135D02*
Y67465D01*
X378123Y63135D02*
Y67465D01*
X368477D02*
X378123D01*
X368477Y63135D02*
X378123D01*
X372217Y65300D02*
X374383D01*
X373300Y64217D02*
Y66383D01*
X370216Y59287D02*
X372264D01*
X371240Y58263D02*
Y60310D01*
X364479Y74568D02*
X366526D01*
X365503Y73544D02*
Y75591D01*
X393100Y98230D02*
Y101970D01*
X391230Y100100D02*
X394970D01*
X401705Y63530D02*
Y67270D01*
X399834Y65400D02*
X403575D01*
X384057Y63430D02*
Y67170D01*
X382187Y65300D02*
X385928D01*
X442283Y96893D02*
X446220D01*
X444251Y94924D02*
Y98861D01*
X361603Y65700D02*
X365343D01*
X363473Y63830D02*
Y67570D01*
X507830Y43700D02*
X511570D01*
X509700Y41830D02*
Y45570D01*
X366573Y54865D02*
Y58605D01*
X364703Y56735D02*
X368443D01*
X395300Y117001D02*
Y120741D01*
X393430Y118871D02*
X397170D01*
X401400Y117001D02*
Y120741D01*
X399530Y118871D02*
X403270D01*
X383300Y117001D02*
Y120741D01*
X381430Y118871D02*
X385170D01*
X389300Y117001D02*
Y120741D01*
X387430Y118871D02*
X391170D01*
X385500Y103530D02*
Y107270D01*
X383630Y105400D02*
X387370D01*
X507930Y119700D02*
X511670D01*
X509800Y117830D02*
Y121570D01*
X360428Y54889D02*
Y58629D01*
X358558Y56759D02*
X362298D01*
X378000Y107173D02*
Y110913D01*
X376130Y109043D02*
X379870D01*
X366256Y107173D02*
Y110913D01*
X364386Y109043D02*
X368126D01*
X372100Y107230D02*
Y110970D01*
X370230Y109100D02*
X373970D01*
X355610Y101969D02*
X359350D01*
X357480Y100098D02*
Y103839D01*
X378330Y92500D02*
X382070D01*
X380200Y90630D02*
Y94370D01*
X577830Y48600D02*
X581570D01*
X579700Y46730D02*
Y50470D01*
X577930Y116200D02*
X581670D01*
X579800Y114330D02*
Y118070D01*
X381230Y86300D02*
X384970D01*
X383100Y84430D02*
Y88170D01*
X399000Y98230D02*
Y101970D01*
X397130Y100100D02*
X400870D01*
X429600Y71631D02*
Y75568D01*
X427632Y73600D02*
X431568D01*
X469600Y71631D02*
Y75568D01*
X467631Y73600D02*
X471568D01*
X526731Y110500D02*
X530668D01*
X528700Y108531D02*
Y112469D01*
X390930Y63324D02*
X394670D01*
X392800Y61453D02*
Y65194D01*
X406732Y109600D02*
X410669D01*
X408700Y107632D02*
Y111568D01*
X406732Y101900D02*
X410669D01*
X408700Y99932D02*
Y103868D01*
X483200Y82086D02*
Y86023D01*
X481231Y84055D02*
X485169D01*
X537355Y74182D02*
Y78119D01*
X535386Y76150D02*
X539323D01*
X529355Y74182D02*
Y78119D01*
X527386Y76150D02*
X531323D01*
X483300Y55632D02*
Y59569D01*
X481331Y57600D02*
X485268D01*
X498609Y82032D02*
Y85969D01*
X496641Y84000D02*
X500578D01*
X490909Y82032D02*
Y85969D01*
X488941Y84000D02*
X492878D01*
X521364Y87286D02*
Y91223D01*
X519396Y89254D02*
X523333D01*
X529364Y87286D02*
Y91223D01*
X527396Y89254D02*
X531333D01*
X537364Y87286D02*
Y91223D01*
X535396Y89254D02*
X539333D01*
X506300Y81986D02*
Y85923D01*
X504331Y83955D02*
X508268D01*
X475291Y46985D02*
Y50922D01*
X473322Y48953D02*
X477259D01*
X467291Y46985D02*
Y50922D01*
X465322Y48953D02*
X469259D01*
X459291Y46985D02*
Y50922D01*
X457322Y48953D02*
X461259D01*
X451291Y46985D02*
Y50922D01*
X449322Y48953D02*
X453259D01*
X443291Y46985D02*
Y50922D01*
X441322Y48953D02*
X445259D01*
X435291Y46985D02*
Y50922D01*
X433322Y48953D02*
X437259D01*
X427291Y46985D02*
Y50922D01*
X425322Y48953D02*
X429259D01*
X419291Y46985D02*
Y50922D01*
X417322Y48953D02*
X421259D01*
X76558Y72284D02*
Y74252D01*
X75574Y73268D02*
X77543D01*
X76558Y77826D02*
Y79795D01*
X75574Y78810D02*
X77543D01*
X171800Y89276D02*
Y91324D01*
X170776Y90300D02*
X172824D01*
X147600Y49931D02*
Y53869D01*
X145632Y51900D02*
X149568D01*
X107258Y80044D02*
Y82091D01*
X106235Y81068D02*
X108282D01*
X77936Y82885D02*
Y85050D01*
X76854Y83968D02*
X79019D01*
X73113Y86133D02*
X82759D01*
X73113Y81802D02*
X82759D01*
X73113D02*
Y86133D01*
X82759Y81802D02*
Y86133D01*
X77858Y67085D02*
Y69251D01*
X76776Y68168D02*
X78941D01*
X73035Y70333D02*
X82681D01*
X73035Y66003D02*
X82681D01*
X73035D02*
Y70333D01*
X82681Y66003D02*
Y70333D01*
X95858Y90444D02*
Y92491D01*
X94835Y91468D02*
X96882D01*
X76381Y88800D02*
X78428D01*
X77405Y87776D02*
Y89824D01*
X107300Y87825D02*
Y89872D01*
X106276Y88849D02*
X108324D01*
X169730Y104700D02*
X173470D01*
X171600Y102830D02*
Y106570D01*
X150375Y75182D02*
Y77229D01*
X149351Y76205D02*
X151398D01*
X145875Y75182D02*
Y77229D01*
X144851Y76205D02*
X146898D01*
X127400Y81032D02*
Y84969D01*
X125432Y83000D02*
X129368D01*
X127400Y62532D02*
Y66469D01*
X125432Y64500D02*
X129368D01*
X127400Y101131D02*
Y105069D01*
X125432Y103100D02*
X129368D01*
X157547Y116015D02*
Y118063D01*
X156524Y117039D02*
X158571D01*
X153047Y116015D02*
Y118063D01*
X152024Y117039D02*
X154071D01*
X148547Y116015D02*
Y118063D01*
X147524Y117039D02*
X149571D01*
X146933Y65264D02*
X148980D01*
X147957Y64240D02*
Y66287D01*
X146933Y60764D02*
X148980D01*
X147957Y59740D02*
Y61787D01*
X162232Y65600D02*
X166168D01*
X164200Y63631D02*
Y67568D01*
X163400Y50317D02*
Y52483D01*
X162317Y51400D02*
X164483D01*
X158577Y53565D02*
X168223D01*
X158577Y49235D02*
X168223D01*
X158577D02*
Y53565D01*
X168223Y49235D02*
Y53565D01*
X241600Y76269D02*
Y80206D01*
X239632Y78237D02*
X243568D01*
X289500Y108031D02*
Y111969D01*
X287531Y110000D02*
X291469D01*
X76777Y111613D02*
X81107D01*
X76777Y121259D02*
X81107D01*
X76777Y111613D02*
Y121259D01*
X81107Y111613D02*
Y121259D01*
X78942Y115354D02*
Y117519D01*
X77859Y116436D02*
X80025D01*
X71635Y121165D02*
X75965D01*
X71635Y111520D02*
X75965D01*
Y121165D01*
X71635Y111520D02*
Y121165D01*
X73800Y115260D02*
Y117425D01*
X72717Y116342D02*
X74883D01*
X99545Y91500D02*
X101592D01*
X100568Y90476D02*
Y92524D01*
X93998Y61936D02*
Y66267D01*
X103643Y61936D02*
Y66267D01*
X93998D02*
X103643D01*
X93998Y61936D02*
X103643D01*
X97738Y64102D02*
X99903D01*
X98821Y63019D02*
Y65184D01*
X93994Y66936D02*
Y71267D01*
X103639Y66936D02*
Y71267D01*
X93994D02*
X103639D01*
X93994Y66936D02*
X103639D01*
X97734Y69102D02*
X99899D01*
X98817Y68019D02*
Y70184D01*
X83635Y61936D02*
Y66267D01*
X93281Y61936D02*
Y66267D01*
X83635D02*
X93281D01*
X83635Y61936D02*
X93281D01*
X87376Y64102D02*
X89541D01*
X88458Y63019D02*
Y65184D01*
X83635Y66936D02*
Y71267D01*
X93281Y66936D02*
Y71267D01*
X83635D02*
X93281D01*
X83635Y66936D02*
X93281D01*
X87376Y69102D02*
X89541D01*
X88458Y68019D02*
Y70184D01*
X84758Y77344D02*
Y79391D01*
X83735Y78368D02*
X85782D01*
X84758Y72710D02*
Y74758D01*
X83735Y73734D02*
X85782D01*
X90135Y91468D02*
X92182D01*
X91158Y90444D02*
Y92491D01*
X106235Y73300D02*
X108282D01*
X107258Y72276D02*
Y74324D01*
X106235Y65500D02*
X108282D01*
X107258Y64476D02*
Y66524D01*
X278432Y57200D02*
X282368D01*
X280400Y55231D02*
Y59168D01*
X249535Y58123D02*
X253865D01*
X249535Y48477D02*
X253865D01*
Y58123D01*
X249535Y48477D02*
Y58123D01*
X251700Y52217D02*
Y54383D01*
X250617Y53300D02*
X252783D01*
X252600Y64676D02*
Y66724D01*
X251576Y65700D02*
X253624D01*
X250900Y76363D02*
Y80300D01*
X248932Y78331D02*
X252869D01*
X243735Y58763D02*
X248065D01*
X243735Y68409D02*
X248065D01*
X243735Y58763D02*
Y68409D01*
X248065Y58763D02*
Y68409D01*
X245900Y62503D02*
Y64669D01*
X244817Y63586D02*
X246983D01*
D141*
X478089Y101300D02*
Y123800D01*
X415589Y101300D02*
Y123800D01*
X478089D01*
X415589Y101300D02*
X478089D01*
X135847Y72415D02*
X141753D01*
X135847Y61785D02*
X141753D01*
Y72415D01*
X135847Y61785D02*
Y72415D01*
X525104Y69458D02*
Y82843D01*
X517624Y69458D02*
Y82843D01*
X525104D01*
X517624Y69458D02*
X525104D01*
X268072Y101848D02*
X277128D01*
X268072Y120352D02*
X277128D01*
X268072Y101848D02*
Y120352D01*
X277128Y101848D02*
Y120352D01*
X234447Y97085D02*
X240353D01*
X234447Y107715D02*
X240353D01*
X234447Y97085D02*
Y107715D01*
X240353Y97085D02*
Y107715D01*
X100869Y96542D02*
X109531D01*
X100869Y114258D02*
X109531D01*
X100869Y96542D02*
Y114258D01*
X109531Y96542D02*
Y114258D01*
X91269Y96642D02*
X99931D01*
X91269Y114358D02*
X99931D01*
X91269Y96642D02*
Y114358D01*
X99931Y96642D02*
Y114358D01*
X81669Y96642D02*
X90331D01*
X81669Y114358D02*
X90331D01*
X81669Y96642D02*
Y114358D01*
X90331Y96642D02*
Y114358D01*
X243576Y101170D02*
X265624D01*
X243576D02*
Y122430D01*
X265624Y101170D02*
Y122430D01*
X243576D02*
X265624D01*
X234239Y87073D02*
Y108727D01*
X214161Y87073D02*
Y108727D01*
X234239D01*
X214161Y87073D02*
X234239D01*
X202400Y123252D02*
X230400D01*
X202400Y109472D02*
X230400D01*
X202400D02*
Y123252D01*
X230400Y109472D02*
Y123252D01*
X291510Y77759D02*
X308046D01*
X291510Y48625D02*
X308046D01*
Y77759D01*
X291510Y48625D02*
Y77759D01*
X307258Y77732D02*
X323794D01*
X307258Y48598D02*
X323794D01*
Y77732D01*
X307258Y48598D02*
Y77732D01*
X168551Y80047D02*
Y110756D01*
X140598Y80047D02*
Y110756D01*
X168551D01*
X140598Y80047D02*
X168551D01*
X392193Y92047D02*
X412862D01*
X392193Y71378D02*
X412862D01*
Y92047D01*
X392193Y71378D02*
Y92047D01*
X90529Y72036D02*
X104702D01*
X90529Y84438D02*
X104702D01*
Y72036D02*
Y84438D01*
X90529Y72036D02*
Y84438D01*
X254032Y47813D02*
X270568D01*
X254032Y61987D02*
X270568D01*
Y47813D02*
Y61987D01*
X254032Y47813D02*
Y61987D01*
X369386Y90985D02*
X375291D01*
X369386Y101615D02*
X375291D01*
X369386Y90985D02*
Y101615D01*
X375291Y90985D02*
Y101615D01*
X363189Y91026D02*
X369094D01*
X363189Y101656D02*
X369094D01*
X363189Y91026D02*
Y101656D01*
X369094Y91026D02*
Y101656D01*
X362968Y70828D02*
Y78308D01*
X359032Y70828D02*
Y78308D01*
X362968D01*
X359032Y70828D02*
X362968D01*
X401893Y105460D02*
Y112940D01*
X388507Y105460D02*
Y112940D01*
Y105460D02*
X401893D01*
X388507Y112940D02*
X401893D01*
X377393Y55546D02*
Y63027D01*
X373456Y55546D02*
Y63027D01*
X377393D01*
X373456Y55546D02*
X377393D01*
X504069Y44528D02*
Y52008D01*
X500132Y44528D02*
Y52008D01*
X504069D01*
X500132Y44528D02*
X504069D01*
X487735Y78492D02*
X517065D01*
X487735Y52508D02*
X517065D01*
X487735D02*
Y78492D01*
X517065Y52508D02*
Y78492D01*
X514915Y47047D02*
Y52953D01*
X504285Y47047D02*
Y52953D01*
Y47047D02*
X514915D01*
X504285Y52953D02*
X514915D01*
X439561Y91504D02*
X459639D01*
X439561Y55677D02*
X459639D01*
Y91504D01*
X439561Y55677D02*
Y91504D01*
X415415Y62705D02*
Y68610D01*
X404785Y62705D02*
Y68610D01*
Y62705D02*
X415415D01*
X404785Y68610D02*
X415415D01*
X352185Y105547D02*
Y111453D01*
X362815Y105547D02*
Y111453D01*
X352185D02*
X362815D01*
X352185Y105547D02*
X362815D01*
X352185Y86307D02*
Y92213D01*
X362815Y86307D02*
Y92213D01*
X352185D02*
X362815D01*
X352185Y86307D02*
X362815D01*
X352185Y92472D02*
Y98378D01*
X362815Y92472D02*
Y98378D01*
X352185D02*
X362815D01*
X352185Y92472D02*
X362815D01*
X352185Y112047D02*
Y117953D01*
X362815Y112047D02*
Y117953D01*
X352185D02*
X362815D01*
X352185Y112047D02*
X362815D01*
X345947Y106985D02*
X351853D01*
X345947Y117615D02*
X351853D01*
X345947Y106985D02*
Y117615D01*
X351853Y106985D02*
Y117615D01*
X488035Y117892D02*
X517365D01*
X488035Y91908D02*
X517365D01*
X488035D02*
Y117892D01*
X517365Y91908D02*
Y117892D01*
X541792Y40235D02*
Y69565D01*
X515808Y40235D02*
Y69565D01*
X541792D01*
X515808Y40235D02*
X541792D01*
X373209Y55546D02*
Y63027D01*
X369272Y55546D02*
Y63027D01*
X373209D01*
X369272Y55546D02*
X373209D01*
X367471Y70828D02*
Y78308D01*
X363534Y70828D02*
Y78308D01*
X367471D01*
X363534Y70828D02*
X367471D01*
X390147Y94785D02*
X396053D01*
X390147Y105415D02*
X396053D01*
X390147Y94785D02*
Y105415D01*
X396053Y94785D02*
Y105415D01*
X398752Y70715D02*
X404657D01*
X398752Y60085D02*
X404657D01*
Y70715D01*
X398752Y60085D02*
Y70715D01*
X381105Y70615D02*
X387010D01*
X381105Y59985D02*
X387010D01*
Y70615D01*
X381105Y59985D02*
Y70615D01*
X453110Y92562D02*
Y101224D01*
X435393Y92562D02*
Y101224D01*
Y92562D02*
X453110D01*
X435393Y101224D02*
X453110D01*
X358158Y62747D02*
Y68653D01*
X368788Y62747D02*
Y68653D01*
X358158D02*
X368788D01*
X358158Y62747D02*
X368788D01*
X504385Y40747D02*
Y46653D01*
X515015Y40747D02*
Y46653D01*
X504385D02*
X515015D01*
X504385Y40747D02*
X515015D01*
X363620Y51420D02*
X369526D01*
X363620Y62050D02*
X369526D01*
X363620Y51420D02*
Y62050D01*
X369526Y51420D02*
Y62050D01*
X392347Y113556D02*
X398253D01*
X392347Y124186D02*
X398253D01*
X392347Y113556D02*
Y124186D01*
X398253Y113556D02*
Y124186D01*
X398447D02*
X404353D01*
X398447Y113556D02*
X404353D01*
Y124186D01*
X398447Y113556D02*
Y124186D01*
X380347Y113556D02*
X386253D01*
X380347Y124186D02*
X386253D01*
X380347Y113556D02*
Y124186D01*
X386253Y113556D02*
Y124186D01*
X386347Y124186D02*
X392253D01*
X386347Y113556D02*
X392253D01*
Y124186D01*
X386347Y113556D02*
Y124186D01*
X382547Y110715D02*
X388453D01*
X382547Y100085D02*
X388453D01*
Y110715D01*
X382547Y100085D02*
Y110715D01*
X504485Y116747D02*
Y122653D01*
X515115Y116747D02*
Y122653D01*
X504485D02*
X515115D01*
X504485Y116747D02*
X515115D01*
X357475Y62074D02*
X363381D01*
X357475Y51444D02*
X363381D01*
Y62074D01*
X357475Y51444D02*
Y62074D01*
X375047Y114358D02*
X380953D01*
X375047Y103728D02*
X380953D01*
Y114358D01*
X375047Y103728D02*
Y114358D01*
X363303Y103728D02*
X369209D01*
X363303Y114358D02*
X369209D01*
X363303Y103728D02*
Y114358D01*
X369209Y103728D02*
Y114358D01*
X369147Y103785D02*
X375053D01*
X369147Y114415D02*
X375053D01*
X369147Y103785D02*
Y114415D01*
X375053Y103785D02*
Y114415D01*
X362795Y99016D02*
Y104921D01*
X352165Y99016D02*
Y104921D01*
Y99016D02*
X362795D01*
X352165Y104921D02*
X362795D01*
X385515Y89547D02*
Y95453D01*
X374885Y89547D02*
Y95453D01*
Y89547D02*
X385515D01*
X374885Y95453D02*
X385515D01*
X585015Y45647D02*
Y51553D01*
X574385Y45647D02*
Y51553D01*
Y45647D02*
X585015D01*
X574385Y51553D02*
X585015D01*
X585115Y113247D02*
Y119153D01*
X574485Y113247D02*
Y119153D01*
Y113247D02*
X585115D01*
X574485Y119153D02*
X585115D01*
X388415Y83347D02*
Y89253D01*
X377785Y83347D02*
Y89253D01*
Y83347D02*
X388415D01*
X377785Y89253D02*
X388415D01*
X396047Y94785D02*
X401953D01*
X396047Y105415D02*
X401953D01*
X396047Y94785D02*
Y105415D01*
X401953Y94785D02*
Y105415D01*
X419561Y91513D02*
X439639D01*
X419561Y55687D02*
X439639D01*
Y91513D01*
X419561Y55687D02*
Y91513D01*
X459561Y55687D02*
X479639D01*
X459561Y91513D02*
X479639D01*
X459561Y55687D02*
Y91513D01*
X479639Y55687D02*
Y91513D01*
X515708Y95835D02*
Y125165D01*
X541692Y95835D02*
Y125165D01*
X515708Y95835D02*
X541692D01*
X515708Y125165D02*
X541692D01*
X398115Y60371D02*
Y66276D01*
X387485Y60371D02*
Y66276D01*
Y60371D02*
X398115D01*
X387485Y66276D02*
X398115D01*
X402007Y105860D02*
Y113340D01*
X415393Y105860D02*
Y113340D01*
X402007D02*
X415393D01*
X402007Y105860D02*
X415393D01*
X402007Y98160D02*
Y105640D01*
X415393Y98160D02*
Y105640D01*
X402007D02*
X415393D01*
X402007Y98160D02*
X415393D01*
X479460Y77362D02*
X486940D01*
X479460Y90748D02*
X486940D01*
X479460Y77362D02*
Y90748D01*
X486940Y77362D02*
Y90748D01*
X533614Y69458D02*
X541095D01*
X533614Y82843D02*
X541095D01*
X533614Y69458D02*
Y82843D01*
X541095Y69458D02*
Y82843D01*
X525615Y69458D02*
X533095D01*
X525615Y82843D02*
X533095D01*
X525615Y69458D02*
Y82843D01*
X533095Y69458D02*
Y82843D01*
X478969Y48742D02*
X487631D01*
X478969Y66458D02*
X487631D01*
X478969Y48742D02*
Y66458D01*
X487631Y48742D02*
Y66458D01*
X494869Y77307D02*
X502350D01*
X494869Y90693D02*
X502350D01*
X494869Y77307D02*
Y90693D01*
X502350Y77307D02*
Y90693D01*
X487169Y77307D02*
X494650D01*
X487169Y90693D02*
X494650D01*
X487169Y77307D02*
Y90693D01*
X494650Y77307D02*
Y90693D01*
X517624Y95947D02*
X525104D01*
X517624Y82562D02*
X525104D01*
Y95947D01*
X517624Y82562D02*
Y95947D01*
X525624D02*
X533104D01*
X525624Y82562D02*
X533104D01*
Y95947D01*
X525624Y82562D02*
Y95947D01*
X533624D02*
X541104D01*
X533624Y82562D02*
X541104D01*
Y95947D01*
X533624Y82562D02*
Y95947D01*
X502560Y77262D02*
X510040D01*
X502560Y90648D02*
X510040D01*
X502560Y77262D02*
Y90648D01*
X510040Y77262D02*
Y90648D01*
X471550Y42260D02*
X479031D01*
X471550Y55646D02*
X479031D01*
X471550Y42260D02*
Y55646D01*
X479031Y42260D02*
Y55646D01*
X463550Y42260D02*
X471031D01*
X463550Y55646D02*
X471031D01*
X463550Y42260D02*
Y55646D01*
X471031Y42260D02*
Y55646D01*
X455550Y42260D02*
X463031D01*
X455550Y55646D02*
X463031D01*
X455550Y42260D02*
Y55646D01*
X463031Y42260D02*
Y55646D01*
X447550Y42260D02*
X455031D01*
X447550Y55646D02*
X455031D01*
X447550Y42260D02*
Y55646D01*
X455031Y42260D02*
Y55646D01*
X439550Y42260D02*
X447031D01*
X439550Y55646D02*
X447031D01*
X439550Y42260D02*
Y55646D01*
X447031Y42260D02*
Y55646D01*
X431550Y42260D02*
X439031D01*
X431550Y55646D02*
X439031D01*
X431550Y42260D02*
Y55646D01*
X439031Y42260D02*
Y55646D01*
X423550Y42260D02*
X431031D01*
X423550Y55646D02*
X431031D01*
X423550Y42260D02*
Y55646D01*
X431031Y42260D02*
Y55646D01*
X415550Y42260D02*
X423031D01*
X415550Y55646D02*
X423031D01*
X415550Y42260D02*
Y55646D01*
X423031Y42260D02*
Y55646D01*
X73409Y70906D02*
X79708D01*
X73409Y75630D02*
X79708D01*
Y70906D02*
Y75630D01*
X73409Y70906D02*
Y75630D01*
Y76448D02*
X79708D01*
X73409Y81173D02*
X79708D01*
Y76448D02*
Y81173D01*
X73409Y76448D02*
Y81173D01*
X169832Y86560D02*
X173768D01*
X169832Y94040D02*
X173768D01*
X169832Y86560D02*
Y94040D01*
X173768Y86560D02*
Y94040D01*
X140907Y45207D02*
X154293D01*
X140907Y58593D02*
X154293D01*
Y45207D02*
Y58593D01*
X140907Y45207D02*
Y58593D01*
X105290Y77328D02*
X109227D01*
X105290Y84808D02*
X109227D01*
X105290Y77328D02*
Y84808D01*
X109227Y77328D02*
Y84808D01*
X93890Y95208D02*
X97827D01*
X93890Y87728D02*
X97827D01*
Y95208D01*
X93890Y87728D02*
Y95208D01*
X81145Y86831D02*
Y90768D01*
X73664Y86831D02*
Y90768D01*
Y86831D02*
X81145D01*
X73664Y90768D02*
X81145D01*
X105332Y92589D02*
X109268D01*
X105332Y85109D02*
X109268D01*
Y92589D01*
X105332Y85109D02*
Y92589D01*
X174553Y99385D02*
Y110015D01*
X168647Y99385D02*
Y110015D01*
X174553D01*
X168647Y99385D02*
X174553D01*
X148406Y72465D02*
X152343D01*
X148406Y79945D02*
X152343D01*
X148406Y72465D02*
Y79945D01*
X152343Y72465D02*
Y79945D01*
X143906Y72465D02*
X147843D01*
X143906Y79945D02*
X147843D01*
X143906Y72465D02*
Y79945D01*
X147843Y72465D02*
Y79945D01*
X119900Y79260D02*
X134900D01*
X119900Y86740D02*
X134900D01*
Y79260D02*
Y86740D01*
X119900Y79260D02*
Y86740D01*
Y60760D02*
X134900D01*
X119900Y68240D02*
X134900D01*
Y60760D02*
Y68240D01*
X119900Y60760D02*
Y68240D01*
Y99360D02*
X134900D01*
X119900Y106840D02*
X134900D01*
Y99360D02*
Y106840D01*
X119900Y99360D02*
Y106840D01*
X155579Y120779D02*
X159516D01*
X155579Y113299D02*
X159516D01*
Y120779D01*
X155579Y113299D02*
Y120779D01*
X151079D02*
X155016D01*
X151079Y113299D02*
X155016D01*
Y120779D01*
X151079Y113299D02*
Y120779D01*
X146579D02*
X150516D01*
X146579Y113299D02*
X150516D01*
Y120779D01*
X146579Y113299D02*
Y120779D01*
X144217Y63295D02*
Y67232D01*
X151697Y63295D02*
Y67232D01*
X144217D02*
X151697D01*
X144217Y63295D02*
X151697D01*
X144217Y58795D02*
Y62732D01*
X151697Y58795D02*
Y62732D01*
X144217D02*
X151697D01*
X144217Y58795D02*
X151697D01*
X152094Y53494D02*
Y77706D01*
X176306Y53494D02*
Y77706D01*
X152094D02*
X176306D01*
X152094Y53494D02*
X176306D01*
X237072Y87489D02*
X246128D01*
X237072Y68985D02*
X246128D01*
Y87489D01*
X237072Y68985D02*
Y87489D01*
X281232Y124567D02*
X297768D01*
X281232Y95433D02*
X297768D01*
Y124567D01*
X281232Y95433D02*
Y124567D01*
X98600Y87760D02*
Y95240D01*
X102537Y87760D02*
Y95240D01*
X98600Y87760D02*
X102537D01*
X98600Y95240D02*
X102537D01*
X81018Y76399D02*
X88498D01*
X81018Y80336D02*
X88498D01*
Y76399D02*
Y80336D01*
X81018Y76399D02*
Y80336D01*
Y71766D02*
X88498D01*
X81018Y75703D02*
X88498D01*
Y71766D02*
Y75703D01*
X81018Y71766D02*
Y75703D01*
X89190Y87728D02*
Y95208D01*
X93127Y87728D02*
Y95208D01*
X89190Y87728D02*
X93127D01*
X89190Y95208D02*
X93127D01*
X109227Y69560D02*
Y77040D01*
X105290Y69560D02*
Y77040D01*
X109227D01*
X105290Y69560D02*
X109227D01*
Y61760D02*
Y69240D01*
X105290Y61760D02*
Y69240D01*
X109227D01*
X105290Y61760D02*
X109227D01*
X289652Y52672D02*
Y61728D01*
X271148Y52672D02*
Y61728D01*
Y52672D02*
X289652D01*
X271148Y61728D02*
X289652D01*
X248860Y67668D02*
X256340D01*
X248860Y63731D02*
X256340D01*
X248860D02*
Y67668D01*
X256340Y63731D02*
Y67668D01*
X246963Y87387D02*
X254837D01*
X246963Y69276D02*
X254837D01*
X254443D02*
Y87387D01*
X246963Y69276D02*
Y87387D01*
M02*
