%TF.GenerationSoftware,Altium Limited,Altium Designer,19.0.15 (446)*%
G04 Layer_Color=32896*
%FSLAX45Y45*%
%MOMM*%
%TF.FileFunction,Legend,Bot*%
%TF.Part,Single*%
G01*
G75*
%TA.AperFunction,NonConductor*%
%ADD114C,0.00000*%
%ADD115C,0.20000*%
%ADD116C,0.15000*%
%ADD117C,0.12700*%
%ADD118C,0.50000*%
%ADD119C,0.25400*%
D114*
X6148000Y3067200D02*
G03*
X6148000Y3067200I-10000J0D01*
G01*
D115*
X7025541Y2596500D02*
G03*
X7025541Y2596500I-10000J0D01*
G01*
X6962605Y2297931D02*
G03*
X6962605Y2297931I-10000J0D01*
G01*
X8526184Y2383451D02*
X8596184D01*
X8526184D02*
Y2863451D01*
X8596184D01*
X8756184D02*
X8826184D01*
Y2383451D02*
Y2863451D01*
X8756184Y2383451D02*
X8826184D01*
X8526184Y2623451D02*
X8826184D01*
D116*
X6545576Y2767021D02*
X6558276D01*
X6545576D02*
Y2995621D01*
X6558276D01*
X6634476D02*
X6647176D01*
Y2767021D02*
Y2995621D01*
X6634476Y2767021D02*
X6647176D01*
X6545576Y2881321D02*
X6647176D01*
X6306812Y2563263D02*
Y2575963D01*
X6535412D01*
Y2563263D02*
Y2575963D01*
Y2474363D02*
Y2487063D01*
X6306812Y2474363D02*
X6535412D01*
X6306812D02*
Y2487063D01*
X6421112Y2474363D02*
Y2575963D01*
X6535412Y2592945D02*
Y2605645D01*
X6306812Y2592945D02*
X6535412D01*
X6306812D02*
Y2605645D01*
Y2681845D02*
Y2694545D01*
X6535412D01*
Y2681845D02*
Y2694545D01*
X6421112Y2592945D02*
Y2694545D01*
X7225301Y2828460D02*
Y2848460D01*
Y2828460D02*
X7565300D01*
Y2848460D01*
X7225301Y2988460D02*
Y3008460D01*
X7565300D01*
Y2988460D02*
Y3008460D01*
X7395300Y2828460D02*
Y3008460D01*
X6926101Y2981313D02*
X6946101D01*
Y2781313D02*
Y2981313D01*
X6926101Y2781313D02*
X6946101D01*
X6846101D02*
X6866101D01*
X6846101D02*
Y2981313D01*
X6866101D01*
X6763080Y2731859D02*
Y2751859D01*
X6963080D01*
Y2731859D02*
Y2751859D01*
Y2651859D02*
Y2671859D01*
X6763080Y2651859D02*
X6963080D01*
X6763080D02*
Y2671859D01*
X7119605Y3007313D02*
X7139605D01*
Y2807313D02*
Y3007313D01*
X7119605Y2807313D02*
X7139605D01*
X7039605D02*
X7059605D01*
X7039605D02*
Y3007313D01*
X7059605D01*
X6688941Y2881320D02*
X6828941D01*
X6688941Y3008320D02*
X6708141D01*
X6688941Y2754320D02*
Y3008320D01*
Y2754320D02*
X6708141D01*
X6809741D02*
X6828941D01*
Y3008320D01*
X6809741D02*
X6828941D01*
X7875900Y2761868D02*
X7905900D01*
Y2481868D02*
Y2761868D01*
X7875900Y2481868D02*
X7905900D01*
X7765900D02*
X7795900D01*
X7765900D02*
Y2761868D01*
X7795900D01*
X7765900Y2621868D02*
X7905900D01*
X8217200Y2464748D02*
Y2494748D01*
X7937200Y2464748D02*
X8217200D01*
X7937200D02*
Y2494748D01*
Y2574748D02*
Y2604748D01*
X8217200D01*
Y2574748D02*
Y2604748D01*
X8077200Y2464748D02*
Y2604748D01*
X8374380Y2464748D02*
Y2604748D01*
X8247380Y2464748D02*
Y2483948D01*
Y2464748D02*
X8501380D01*
Y2483948D01*
Y2585548D02*
Y2604748D01*
X8247380D02*
X8501380D01*
X8247380Y2585548D02*
Y2604748D01*
X8217200Y2640768D02*
Y2670768D01*
X7937200Y2640768D02*
X8217200D01*
X7937200D02*
Y2670768D01*
Y2750768D02*
Y2780768D01*
X8217200D01*
Y2750768D02*
Y2780768D01*
X8077200Y2640768D02*
Y2780768D01*
X8374380Y2640768D02*
Y2780768D01*
X8247380Y2640768D02*
Y2659968D01*
Y2640768D02*
X8501380D01*
Y2659968D01*
Y2761568D02*
Y2780768D01*
X8247380D02*
X8501380D01*
X8247380Y2761568D02*
Y2780768D01*
X2326800Y2034200D02*
X2352200Y2008800D01*
X2326800Y1983400D02*
X2352200Y2008800D01*
X2326800Y1983400D02*
Y2034200D01*
X2352200Y2008800D02*
X2377600D01*
X2352200Y1918800D02*
Y2098800D01*
X2542700Y2034200D02*
Y2098800D01*
X2149000D02*
X2542700D01*
X2149000Y2078800D02*
Y2098800D01*
X2542700Y1918800D02*
Y1983400D01*
X2149000Y1918800D02*
X2542700D01*
X2149000D02*
Y1938800D01*
X2542700Y2034200D02*
X2555400D01*
Y2098800D01*
X2542700D02*
X2555400D01*
X2542700Y1918800D02*
X2555400D01*
Y1983400D01*
X2542700D02*
X2555400D01*
X2542700Y1348400D02*
X2555400D01*
Y1283800D02*
Y1348400D01*
X2542700Y1283800D02*
X2555400D01*
X2542700Y1463800D02*
X2555400D01*
Y1399200D02*
Y1463800D01*
X2542700Y1399200D02*
X2555400D01*
X2149000Y1283800D02*
Y1303800D01*
Y1283800D02*
X2542700D01*
Y1348400D01*
X2149000Y1443800D02*
Y1463800D01*
X2542700D01*
Y1399200D02*
Y1463800D01*
X2352200Y1283800D02*
Y1463800D01*
Y1373800D02*
X2377600D01*
X2326800Y1348400D02*
Y1399200D01*
Y1348400D02*
X2352200Y1373800D01*
X2326800Y1399200D02*
X2352200Y1373800D01*
X2542700Y2620900D02*
X2555400D01*
Y2556300D02*
Y2620900D01*
X2542700Y2556300D02*
X2555400D01*
X2542700Y2736300D02*
X2555400D01*
Y2671700D02*
Y2736300D01*
X2542700Y2671700D02*
X2555400D01*
X2149000Y2556300D02*
Y2576300D01*
Y2556300D02*
X2542700D01*
Y2620900D01*
X2149000Y2716300D02*
Y2736300D01*
X2542700D01*
Y2671700D02*
Y2736300D01*
X2352200Y2556300D02*
Y2736300D01*
Y2646300D02*
X2377600D01*
X2326800Y2620900D02*
Y2671700D01*
Y2620900D02*
X2352200Y2646300D01*
X2326800Y2671700D02*
X2352200Y2646300D01*
D117*
X6173000Y2822200D02*
Y2902200D01*
X6463000Y2822200D02*
Y2902200D01*
X6393000Y2822200D02*
X6463000D01*
X6173000D02*
X6243000D01*
X6700541Y2538500D02*
Y2622500D01*
X6778041D01*
X6700541Y2330500D02*
Y2414500D01*
Y2330500D02*
X6778041D01*
X6830541Y2443500D02*
Y2509500D01*
X7156605Y2773931D02*
X7596605D01*
X7156605Y2273931D02*
X7596605D01*
D118*
X2492500Y2532500D02*
Y2762500D01*
X2162500Y2532500D02*
X2492500D01*
X2162500D02*
Y2762500D01*
X2492500D01*
X2162500Y2127500D02*
X2492500D01*
X2162500Y1897500D02*
Y2127500D01*
Y1897500D02*
X2492500D01*
Y2127500D01*
X2162500Y1492500D02*
X2492500D01*
X2162500Y1262500D02*
Y1492500D01*
Y1262500D02*
X2492500D01*
Y1492500D01*
X1182500Y2825000D02*
X2492500D01*
X1184350Y1199000D02*
X2492500D01*
Y2762500D02*
Y2825000D01*
Y1199000D02*
Y1262500D01*
Y2465000D02*
Y2532500D01*
X2162500Y2465000D02*
X2492500D01*
Y2127500D02*
Y2195000D01*
X2162500D02*
X2492500D01*
X2162500D02*
Y2465000D01*
X2492500Y1830000D02*
Y1897500D01*
Y1492500D02*
Y1560000D01*
X2162500D02*
X2492500D01*
X2162500D02*
Y1830000D01*
X2492500D01*
X1882500Y1199000D02*
Y2825000D01*
X1182915Y2465000D02*
X1882500D01*
X1183342Y2195000D02*
X1882500D01*
X1183774Y1830000D02*
X1882500D01*
X1184075Y1560000D02*
X1882500D01*
X1182500Y2465000D02*
Y2825000D01*
X1183342Y1830000D02*
Y2195000D01*
X1184075Y1199000D02*
Y1560000D01*
D119*
X6184900Y2540975D02*
X6261075D01*
Y2579063D01*
X6248379Y2591758D01*
X6222988D01*
X6210292Y2579063D01*
Y2540975D01*
Y2566367D02*
X6184900Y2591758D01*
X6261075Y2617150D02*
Y2667934D01*
X6248379D01*
X6197596Y2617150D01*
X6184900D01*
X6261075Y2744109D02*
X6248379Y2718717D01*
X6222988Y2693326D01*
X6197596D01*
X6184900Y2706022D01*
Y2731413D01*
X6197596Y2744109D01*
X6210292D01*
X6222988Y2731413D01*
Y2693326D01*
X6527800Y2365417D02*
Y2441593D01*
X6489712D01*
X6477017Y2428897D01*
Y2403505D01*
X6489712Y2390809D01*
X6527800D01*
X6502408D02*
X6477017Y2365417D01*
X6451625Y2441593D02*
X6400841D01*
Y2428897D01*
X6451625Y2378113D01*
Y2365417D01*
X6324666Y2441593D02*
X6375449D01*
Y2403505D01*
X6350057Y2416201D01*
X6337361D01*
X6324666Y2403505D01*
Y2378113D01*
X6337361Y2365417D01*
X6362753D01*
X6375449Y2378113D01*
X8871434Y2395220D02*
X8947609D01*
Y2433308D01*
X8934913Y2446003D01*
X8909521D01*
X8896825Y2433308D01*
Y2395220D01*
Y2420612D02*
X8871434Y2446003D01*
Y2471395D02*
Y2496787D01*
Y2484091D01*
X8947609D01*
X8934913Y2471395D01*
Y2534875D02*
X8947609Y2547571D01*
Y2572963D01*
X8934913Y2585658D01*
X8922217D01*
X8909521Y2572963D01*
Y2560267D01*
Y2572963D01*
X8896825Y2585658D01*
X8884130D01*
X8871434Y2572963D01*
Y2547571D01*
X8884130Y2534875D01*
X7553960Y3037840D02*
Y3114015D01*
X7515872D01*
X7503177Y3101319D01*
Y3075928D01*
X7515872Y3063232D01*
X7553960D01*
X7528568D02*
X7503177Y3037840D01*
X7477785Y3114015D02*
X7427001D01*
Y3101319D01*
X7477785Y3050536D01*
Y3037840D01*
X7401609Y3050536D02*
X7388913Y3037840D01*
X7363521D01*
X7350826Y3050536D01*
Y3101319D01*
X7363521Y3114015D01*
X7388913D01*
X7401609Y3101319D01*
Y3088623D01*
X7388913Y3075928D01*
X7350826D01*
X6823881Y3042920D02*
Y3119095D01*
X6785793D01*
X6773097Y3106399D01*
Y3081008D01*
X6785793Y3068312D01*
X6823881D01*
X6798489D02*
X6773097Y3042920D01*
X6747706Y3119095D02*
X6696922D01*
Y3106399D01*
X6747706Y3055616D01*
Y3042920D01*
X6671530Y3106399D02*
X6658834Y3119095D01*
X6633442D01*
X6620747Y3106399D01*
Y3093703D01*
X6633442Y3081008D01*
X6620747Y3068312D01*
Y3055616D01*
X6633442Y3042920D01*
X6658834D01*
X6671530Y3055616D01*
Y3068312D01*
X6658834Y3081008D01*
X6671530Y3093703D01*
Y3106399D01*
X6658834Y3081008D02*
X6633442D01*
X6583680Y3040000D02*
Y3116176D01*
X6545592D01*
X6532897Y3103480D01*
Y3078088D01*
X6545592Y3065392D01*
X6583680D01*
X6558288D02*
X6532897Y3040000D01*
X6507505Y3116176D02*
X6456721D01*
Y3103480D01*
X6507505Y3052696D01*
Y3040000D01*
X6431329Y3116176D02*
X6380546D01*
Y3103480D01*
X6431329Y3052696D01*
Y3040000D01*
X8496300Y2801246D02*
Y2877422D01*
X8458212D01*
X8445517Y2864726D01*
Y2839334D01*
X8458212Y2826638D01*
X8496300D01*
X8470908D02*
X8445517Y2801246D01*
X8369341Y2877422D02*
X8420125D01*
Y2839334D01*
X8394733Y2852030D01*
X8382037D01*
X8369341Y2839334D01*
Y2813942D01*
X8382037Y2801246D01*
X8407429D01*
X8420125Y2813942D01*
X8343949Y2864726D02*
X8331253Y2877422D01*
X8305861D01*
X8293166Y2864726D01*
Y2813942D01*
X8305861Y2801246D01*
X8331253D01*
X8343949Y2813942D01*
Y2864726D01*
X8490017Y2365032D02*
Y2441207D01*
X8451929D01*
X8439234Y2428511D01*
Y2403119D01*
X8451929Y2390423D01*
X8490017D01*
X8464625D02*
X8439234Y2365032D01*
X8413842D02*
X8388450D01*
X8401146D01*
Y2441207D01*
X8413842Y2428511D01*
X8312274Y2365032D02*
Y2441207D01*
X8350362Y2403119D01*
X8299579D01*
X6807217Y2221709D02*
Y2272493D01*
X6819912Y2285189D01*
X6845304D01*
X6858000Y2272493D01*
Y2221709D01*
X6845304Y2209013D01*
X6819912D01*
X6832608Y2234405D02*
X6807217Y2209013D01*
X6819912D02*
X6807217Y2221709D01*
X6781825Y2209013D02*
X6756433D01*
X6769129D01*
Y2285189D01*
X6781825Y2272493D01*
X6718345D02*
X6705649Y2285189D01*
X6680257D01*
X6667562Y2272493D01*
Y2221709D01*
X6680257Y2209013D01*
X6705649D01*
X6718345Y2221709D01*
Y2272493D01*
X6088397Y2840607D02*
Y2891391D01*
X6101092Y2904087D01*
X6126484D01*
X6139180Y2891391D01*
Y2840607D01*
X6126484Y2827911D01*
X6101092D01*
X6113788Y2853303D02*
X6088397Y2827911D01*
X6101092D02*
X6088397Y2840607D01*
X6063005D02*
X6050309Y2827911D01*
X6024917D01*
X6012221Y2840607D01*
Y2891391D01*
X6024917Y2904087D01*
X6050309D01*
X6063005Y2891391D01*
Y2878695D01*
X6050309Y2865999D01*
X6012221D01*
X6922321Y3053096D02*
X6935017Y3040400D01*
Y3015008D01*
X6922321Y3002313D01*
X6871537D01*
X6858841Y3015008D01*
Y3040400D01*
X6871537Y3053096D01*
X6922321Y3078488D02*
X6935017Y3091184D01*
Y3116576D01*
X6922321Y3129271D01*
X6909625D01*
X6896929Y3116576D01*
X6884233Y3129271D01*
X6871537D01*
X6858841Y3116576D01*
Y3091184D01*
X6871537Y3078488D01*
X6884233D01*
X6896929Y3091184D01*
X6909625Y3078488D01*
X6922321D01*
X6896929Y3091184D02*
Y3116576D01*
X6935017Y3205447D02*
Y3154663D01*
X6896929D01*
X6909625Y3180055D01*
Y3192751D01*
X6896929Y3205447D01*
X6871537D01*
X6858841Y3192751D01*
Y3167359D01*
X6871537Y3154663D01*
X8157227Y2869926D02*
X8169922Y2882622D01*
X8195314D01*
X8208010Y2869926D01*
Y2819142D01*
X8195314Y2806446D01*
X8169922D01*
X8157227Y2819142D01*
X8131835Y2869926D02*
X8119139Y2882622D01*
X8093747D01*
X8081051Y2869926D01*
Y2857230D01*
X8093747Y2844534D01*
X8081051Y2831838D01*
Y2819142D01*
X8093747Y2806446D01*
X8119139D01*
X8131835Y2819142D01*
Y2831838D01*
X8119139Y2844534D01*
X8131835Y2857230D01*
Y2869926D01*
X8119139Y2844534D02*
X8093747D01*
X8017571Y2806446D02*
Y2882622D01*
X8055659Y2844534D01*
X8004876D01*
X8151719Y2429679D02*
X8164415Y2442375D01*
X8189807D01*
X8202503Y2429679D01*
Y2378895D01*
X8189807Y2366199D01*
X8164415D01*
X8151719Y2378895D01*
X8126327Y2429679D02*
X8113631Y2442375D01*
X8088239D01*
X8075544Y2429679D01*
Y2416983D01*
X8088239Y2404287D01*
X8075544Y2391591D01*
Y2378895D01*
X8088239Y2366199D01*
X8113631D01*
X8126327Y2378895D01*
Y2391591D01*
X8113631Y2404287D01*
X8126327Y2416983D01*
Y2429679D01*
X8113631Y2404287D02*
X8088239D01*
X8050152Y2429679D02*
X8037456Y2442375D01*
X8012064D01*
X7999368Y2429679D01*
Y2416983D01*
X8012064Y2404287D01*
X8024760D01*
X8012064D01*
X7999368Y2391591D01*
Y2378895D01*
X8012064Y2366199D01*
X8037456D01*
X8050152Y2378895D01*
X6695147Y2717893D02*
X6707843Y2730589D01*
X6733235D01*
X6745931Y2717893D01*
Y2667110D01*
X6733235Y2654414D01*
X6707843D01*
X6695147Y2667110D01*
X6669756Y2717893D02*
X6657060Y2730589D01*
X6631668D01*
X6618972Y2717893D01*
Y2705198D01*
X6631668Y2692502D01*
X6618972Y2679806D01*
Y2667110D01*
X6631668Y2654414D01*
X6657060D01*
X6669756Y2667110D01*
Y2679806D01*
X6657060Y2692502D01*
X6669756Y2705198D01*
Y2717893D01*
X6657060Y2692502D02*
X6631668D01*
X6542797Y2654414D02*
X6593580D01*
X6542797Y2705198D01*
Y2717893D01*
X6555492Y2730589D01*
X6580884D01*
X6593580Y2717893D01*
X7843537Y2855416D02*
X7856232Y2868112D01*
X7881624D01*
X7894320Y2855416D01*
Y2804633D01*
X7881624Y2791937D01*
X7856232D01*
X7843537Y2804633D01*
X7818145Y2855416D02*
X7805449Y2868112D01*
X7780057D01*
X7767361Y2855416D01*
Y2842720D01*
X7780057Y2830025D01*
X7767361Y2817329D01*
Y2804633D01*
X7780057Y2791937D01*
X7805449D01*
X7818145Y2804633D01*
Y2817329D01*
X7805449Y2830025D01*
X7818145Y2842720D01*
Y2855416D01*
X7805449Y2830025D02*
X7780057D01*
X7741969Y2791937D02*
X7716577D01*
X7729273D01*
Y2868112D01*
X7741969Y2855416D01*
X7193998Y3103859D02*
X7206693Y3116555D01*
X7232085D01*
X7244781Y3103859D01*
Y3053076D01*
X7232085Y3040380D01*
X7206693D01*
X7193998Y3053076D01*
X7130518Y3040380D02*
Y3116555D01*
X7168606Y3078468D01*
X7117822D01*
X7092430Y3053076D02*
X7079734Y3040380D01*
X7054343D01*
X7041647Y3053076D01*
Y3103859D01*
X7054343Y3116555D01*
X7079734D01*
X7092430Y3103859D01*
Y3091163D01*
X7079734Y3078468D01*
X7041647D01*
X7589263Y2247875D02*
Y2184396D01*
X7576567Y2171700D01*
X7551175D01*
X7538480Y2184396D01*
Y2247875D01*
X7513088Y2171700D02*
X7487696D01*
X7500392D01*
Y2247875D01*
X7513088Y2235179D01*
X7449608D02*
X7436912Y2247875D01*
X7411521D01*
X7398825Y2235179D01*
Y2184396D01*
X7411521Y2171700D01*
X7436912D01*
X7449608Y2184396D01*
Y2235179D01*
X2653276Y1944385D02*
X2577101D01*
Y1982473D01*
X2589797Y1995168D01*
X2640580D01*
X2653276Y1982473D01*
Y1944385D01*
X2640580Y2020560D02*
X2653276Y2033256D01*
Y2058648D01*
X2640580Y2071344D01*
X2627884D01*
X2615189Y2058648D01*
Y2045952D01*
Y2058648D01*
X2602493Y2071344D01*
X2589797D01*
X2577101Y2058648D01*
Y2033256D01*
X2589797Y2020560D01*
X2651735Y1321003D02*
X2575560D01*
Y1359091D01*
X2588256Y1371787D01*
X2639039D01*
X2651735Y1359091D01*
Y1321003D01*
X2575560Y1397179D02*
Y1422571D01*
Y1409875D01*
X2651735D01*
X2639039Y1397179D01*
X2655355Y2578300D02*
X2579180D01*
Y2616388D01*
X2591876Y2629084D01*
X2642659D01*
X2655355Y2616388D01*
Y2578300D01*
X2579180Y2705259D02*
Y2654476D01*
X2629963Y2705259D01*
X2642659D01*
X2655355Y2692563D01*
Y2667171D01*
X2642659Y2654476D01*
%TF.MD5,556e5b53eb76d32f4f942d0c0cc04c21*%
M02*
