%TF.GenerationSoftware,Altium Limited,Altium Designer,19.0.15 (446)*%
G04 Layer_Physical_Order=2*
G04 Layer_Color=32768*
%FSLAX45Y45*%
%MOMM*%
%TF.FileFunction,Copper,L2,Inr,Plane*%
%TF.Part,Single*%
G01*
G75*
%TA.AperFunction,ViaPad*%
%ADD93C,0.45720*%
%TA.AperFunction,NonConductor*%
%ADD96C,1.01600*%
%TA.AperFunction,ViaPad*%
%ADD97C,1.01600*%
%TA.AperFunction,ComponentPad*%
%ADD98C,0.45400*%
%TA.AperFunction,ViaPad*%
%ADD99C,1.75400*%
%TA.AperFunction,ComponentPad*%
%ADD100C,2.62900*%
%ADD101C,1.15400*%
%ADD102C,1.01600*%
%TA.AperFunction,ViaPad*%
%ADD103C,0.55880*%
%ADD104C,0.50800*%
%ADD105C,0.85400*%
%ADD106C,2.23400*%
D93*
X11752580Y1562100D02*
D03*
X11792018Y1518920D02*
D03*
X10193020Y1569720D02*
D03*
X10246360D02*
D03*
X4084000Y2679565D02*
D03*
X3685540Y2679700D02*
D03*
X3502530Y2364170D02*
D03*
X3937000Y2361760D02*
D03*
X5048980Y2163664D02*
D03*
X4528980Y2136136D02*
D03*
X4777740Y2284257D02*
D03*
X2350000Y2185040D02*
D03*
X4285320Y2123440D02*
D03*
X4236720Y2087880D02*
D03*
X2350000Y2067460D02*
D03*
X1720080Y1698077D02*
D03*
X4422500Y1859280D02*
D03*
X5240960Y1774180D02*
D03*
X7088325Y2460211D02*
D03*
X6870261Y2382780D02*
D03*
X6428320Y1271344D02*
D03*
X7364720Y1239916D02*
D03*
X6228080Y1650000D02*
D03*
X7951460Y1292620D02*
D03*
X3159100Y1765300D02*
D03*
X3914140Y2024380D02*
D03*
X3980180Y1935480D02*
D03*
X4528980Y2724236D02*
D03*
X4335780Y2356200D02*
D03*
X5297520Y2135557D02*
D03*
X1890045Y2269325D02*
D03*
X6413000Y2997200D02*
D03*
X8072120Y1875040D02*
D03*
X8007500Y1890000D02*
D03*
X6525260Y1649780D02*
D03*
X1889760Y2374080D02*
D03*
X7782560Y1325454D02*
D03*
X8006080Y1704340D02*
D03*
X11780283Y1284337D02*
D03*
X4918980Y2726136D02*
D03*
X4853980D02*
D03*
X2811780Y2017380D02*
D03*
X2761565Y2016760D02*
D03*
X2680480Y2110740D02*
D03*
X3095719Y1703899D02*
D03*
X2893060Y2110740D02*
D03*
X2733625Y2061760D02*
D03*
X2839915Y2110740D02*
D03*
X3065361Y1765300D02*
D03*
X2703340Y2016760D02*
D03*
X2786770Y2110740D02*
D03*
X2870642Y2018133D02*
D03*
X2733625Y2110740D02*
D03*
X2839915Y2061760D02*
D03*
X5100080Y2024620D02*
D03*
X4244340Y2410460D02*
D03*
X11935000Y1467500D02*
D03*
X11826240Y1427480D02*
D03*
X12438678Y1363667D02*
D03*
X12340000Y1347500D02*
D03*
X12496800Y1399540D02*
D03*
X12038140Y1245000D02*
D03*
X12117500D02*
D03*
X10922000Y1158240D02*
D03*
X12157500Y1164438D02*
D03*
X12077500Y1180000D02*
D03*
X12602500Y1215000D02*
D03*
X11935000Y1386900D02*
D03*
X10782500Y1432500D02*
D03*
X4041140Y1117600D02*
D03*
X4124960Y1115000D02*
D03*
X3919220Y1160780D02*
D03*
X3209648Y2016760D02*
D03*
X3210850Y2120900D02*
D03*
X3639820Y1424940D02*
D03*
X3072580Y1312500D02*
D03*
X4140200Y1699260D02*
D03*
X4224020Y1958260D02*
D03*
X5664200Y2758440D02*
D03*
X6682740Y1313180D02*
D03*
X5478780Y1452440D02*
D03*
X3761739Y1229359D02*
D03*
X4297680Y1390880D02*
D03*
X8689160Y1656985D02*
D03*
X8630920Y1657310D02*
D03*
X7390480Y1323340D02*
D03*
X3408680Y1653540D02*
D03*
X9769348Y2425388D02*
D03*
Y2477173D02*
D03*
Y2373602D02*
D03*
X9825408Y2374252D02*
D03*
Y2322466D02*
D03*
X9655048Y2373602D02*
D03*
Y2270031D02*
D03*
X9711108Y2322141D02*
D03*
Y2373927D02*
D03*
X9825408Y2270680D02*
D03*
Y2477823D02*
D03*
X9769348Y2321817D02*
D03*
Y2270031D02*
D03*
X9711108Y2270356D02*
D03*
X9655048Y2321817D02*
D03*
X9711108Y2477498D02*
D03*
X9655048Y2477173D02*
D03*
X9825408Y2426037D02*
D03*
X9711108Y2425712D02*
D03*
X9655048Y2425388D02*
D03*
X8745220Y1657310D02*
D03*
X8917760D02*
D03*
X11231952Y1227500D02*
D03*
X10663193Y1226820D02*
D03*
X14513741Y1192500D02*
D03*
X14673740Y1192500D02*
D03*
X4422500Y1704200D02*
D03*
Y1594200D02*
D03*
X4699000Y1617980D02*
D03*
Y1681480D02*
D03*
X1877468Y1560380D02*
D03*
X3842544Y1834180D02*
D03*
X3634740D02*
D03*
X7023100Y1371600D02*
D03*
X7275480Y1323340D02*
D03*
X7139940Y1371600D02*
D03*
X8803460Y1501629D02*
D03*
X8689160D02*
D03*
Y1553414D02*
D03*
X8630920Y1501953D02*
D03*
X8917760D02*
D03*
X8745220D02*
D03*
X7926500Y1455000D02*
D03*
X8859520Y1502278D02*
D03*
X7638500Y1455000D02*
D03*
X7503000Y1536400D02*
D03*
X2330662Y2779856D02*
D03*
X8803460Y1605200D02*
D03*
X8859520Y1605849D02*
D03*
Y1657634D02*
D03*
Y1554063D02*
D03*
X8917760Y1605524D02*
D03*
Y1553739D02*
D03*
X8745220Y1605524D02*
D03*
X8803460Y1656985D02*
D03*
X8745220Y1553739D02*
D03*
X8803460Y1553414D02*
D03*
X8630920Y1605524D02*
D03*
Y1553739D02*
D03*
X8689160Y1605200D02*
D03*
X3677920Y1285240D02*
D03*
X9596808Y2322141D02*
D03*
Y2477498D02*
D03*
Y2425712D02*
D03*
Y2373927D02*
D03*
Y2270356D02*
D03*
X9883648Y2322141D02*
D03*
Y2373927D02*
D03*
Y2477498D02*
D03*
Y2270356D02*
D03*
Y2425712D02*
D03*
X3731260Y1971040D02*
D03*
X4594860Y2524760D02*
D03*
X4137660Y1430020D02*
D03*
X3275680Y1424940D02*
D03*
X5948681Y1368681D02*
D03*
X6464001Y1450340D02*
D03*
X5853906Y2449240D02*
D03*
X3680460Y2581220D02*
D03*
X3713480Y2527300D02*
D03*
X3832860Y2471420D02*
D03*
X1877060Y1661440D02*
D03*
X6596380Y2296099D02*
D03*
X6652440Y2193177D02*
D03*
Y2296748D02*
D03*
Y2348533D02*
D03*
X6710680Y2348209D02*
D03*
Y2192852D02*
D03*
Y2399994D02*
D03*
X6652440Y2400319D02*
D03*
Y2244962D02*
D03*
X6710680Y2296423D02*
D03*
Y2244638D02*
D03*
X6538140Y2192852D02*
D03*
Y2296423D02*
D03*
Y2348209D02*
D03*
X6596380Y2347884D02*
D03*
Y2192527D02*
D03*
Y2399670D02*
D03*
X6538140Y2399994D02*
D03*
Y2244638D02*
D03*
X6596380Y2244313D02*
D03*
X6423840Y2192852D02*
D03*
Y2296423D02*
D03*
Y2348209D02*
D03*
X6482080Y2347884D02*
D03*
Y2192527D02*
D03*
Y2399670D02*
D03*
X6423840Y2399994D02*
D03*
Y2244638D02*
D03*
X6482080Y2296099D02*
D03*
Y2244313D02*
D03*
X2247200Y2225040D02*
D03*
X4541520Y2583685D02*
D03*
X2885260Y2466818D02*
D03*
Y2518603D02*
D03*
X2827020Y2467142D02*
D03*
X2745740D02*
D03*
Y2518928D02*
D03*
X2687500Y2467467D02*
D03*
X2827020Y2622499D02*
D03*
X2885260Y2622174D02*
D03*
Y2570389D02*
D03*
X2827020Y2570713D02*
D03*
X2687500Y2622823D02*
D03*
X2745740Y2622499D02*
D03*
X4983980Y2726136D02*
D03*
X2827020Y2260000D02*
D03*
Y2311786D02*
D03*
Y2363571D02*
D03*
Y2415357D02*
D03*
Y2518928D02*
D03*
X2885260Y2415032D02*
D03*
Y2363246D02*
D03*
Y2311461D02*
D03*
Y2259675D02*
D03*
X2745740Y2260000D02*
D03*
Y2311786D02*
D03*
Y2363571D02*
D03*
Y2415357D02*
D03*
Y2570713D02*
D03*
X2687500Y2571038D02*
D03*
Y2519252D02*
D03*
Y2415681D02*
D03*
Y2363896D02*
D03*
Y2312110D02*
D03*
Y2260325D02*
D03*
X2247200Y1373800D02*
D03*
X7857500Y1810000D02*
D03*
X8072820Y1569060D02*
D03*
X7399780Y1787824D02*
D03*
X10778609Y1227500D02*
D03*
X10780000Y1347500D02*
D03*
X5000960Y1914180D02*
D03*
X5050960Y1989140D02*
D03*
X4853980Y2136136D02*
D03*
X4790140Y2135557D02*
D03*
X4917140Y2029780D02*
D03*
X4463980Y2724236D02*
D03*
D96*
X2680006Y1000838D02*
G03*
X2730006Y1050838I0J50000D01*
G01*
X2779996Y1250838D02*
G03*
X2729996Y1200838I0J-50000D01*
G01*
X2909996D02*
G03*
X2859996Y1250838I-50000J0D01*
G01*
X2909996Y1050838D02*
G03*
X2959996Y1000838I50000J0D01*
G01*
X5781246D02*
G03*
X5831246Y1050838I0J50000D01*
G01*
X5881236Y1250838D02*
G03*
X5831236Y1200838I0J-50000D01*
G01*
X6011236D02*
G03*
X5961236Y1250838I-50000J0D01*
G01*
X6011236Y1050838D02*
G03*
X6061236Y1000838I50000J0D01*
G01*
X7769323Y1000760D02*
G03*
X7819323Y1050760I0J50000D01*
G01*
X7869323Y1100760D02*
G03*
X7819323Y1050760I0J-50000D01*
G01*
X8420900D02*
G03*
X8370900Y1100760I-50000J0D01*
G01*
X8420900Y1050760D02*
G03*
X8470900Y1000760I50000J0D01*
G01*
X10181166Y1000838D02*
G03*
X10231166Y1050838I0J50000D01*
G01*
X10281156Y1250838D02*
G03*
X10231156Y1200838I0J-50000D01*
G01*
X10411156D02*
G03*
X10361156Y1250838I-50000J0D01*
G01*
X10411156Y1050838D02*
G03*
X10461156Y1000838I50000J0D01*
G01*
X13634996D02*
G03*
X13684996Y1050838I0J50000D01*
G01*
X13734985Y1250838D02*
G03*
X13684985Y1200838I0J-50000D01*
G01*
X13864986D02*
G03*
X13814986Y1250838I-50000J0D01*
G01*
X13864986Y1050838D02*
G03*
X13914986Y1000838I50000J0D01*
G01*
X15156000D02*
G03*
X15206000Y1050838I0J50000D01*
G01*
X15204900Y3150738D02*
G03*
X15155000Y3200638I-49900J0D01*
G01*
X13914996Y3200538D02*
G03*
X13865096Y3150638I0J-49900D01*
G01*
X13814996Y2950838D02*
G03*
X13864896Y3000738I0J49900D01*
G01*
X13684996D02*
G03*
X13734895Y2950838I49900J0D01*
G01*
X13684895Y3150738D02*
G03*
X13634996Y3200638I-49900J0D01*
G01*
X10461156D02*
G03*
X10411256Y3150738I0J-49900D01*
G01*
X10361156Y2950938D02*
G03*
X10411056Y3000838I0J49900D01*
G01*
X10231156D02*
G03*
X10281056Y2950938I49900J0D01*
G01*
X10231056Y3150838D02*
G03*
X10181156Y3200738I-49900J0D01*
G01*
X8470900D02*
G03*
X8420900Y3150738I0J-50000D01*
G01*
X8370900Y3100738D02*
G03*
X8420900Y3150738I0J50000D01*
G01*
X7819323D02*
G03*
X7869323Y3100738I50000J0D01*
G01*
X7819323Y3150738D02*
G03*
X7769323Y3200738I-50000J0D01*
G01*
X6061236Y3200738D02*
G03*
X6011236Y3150738I0J-50000D01*
G01*
X5961246Y2950738D02*
G03*
X6011246Y3000738I0J50000D01*
G01*
X5831246D02*
G03*
X5881246Y2950738I50000J0D01*
G01*
X5831246Y3150738D02*
G03*
X5781246Y3200738I-50000J0D01*
G01*
X2959986Y3200000D02*
G03*
X2909986Y3150000I0J-50000D01*
G01*
X2859996Y2950000D02*
G03*
X2909996Y3000000I0J50000D01*
G01*
X2729996D02*
G03*
X2779996Y2950000I50000J0D01*
G01*
X2729996Y3150000D02*
G03*
X2679996Y3200000I-50000J0D01*
G01*
X1156000Y3200628D02*
G03*
X1106100Y3150728I0J-49900D01*
G01*
X1106000Y1050838D02*
G03*
X1156000Y1000838I50000J0D01*
G01*
X1106000Y1050838D02*
X1106100Y1050938D01*
Y3150728D01*
X6061236Y3200738D02*
X7769323D01*
Y3200738D01*
X7869323Y3100738D02*
X8370900D01*
X8470900Y3200738D02*
Y3200738D01*
Y3200738D02*
X10181156Y3200738D01*
X10181166Y1000760D02*
Y1000838D01*
X8470900Y1000760D02*
X10181166D01*
X7869323Y1100760D02*
X8370900D01*
X7769245Y1000838D02*
X7769323Y1000760D01*
X6061236Y1000838D02*
X7769245D01*
X1156000Y3200628D02*
X2679996D01*
Y3200000D02*
Y3200628D01*
X2729986Y3150000D02*
X2729996D01*
X2729986Y3000944D02*
Y3150000D01*
Y3000944D02*
X2729996Y3000000D01*
X2779996Y2950000D02*
Y2950000D01*
Y2950000D02*
X2859996D01*
Y2950000D01*
X2909996Y3000000D02*
X2909996D01*
Y3150000D01*
X2909986D02*
X2909996D01*
X2959986Y3200000D02*
Y3200738D01*
X5781246D01*
X5831236Y3150738D02*
X5831246D01*
X5831236Y3001682D02*
Y3150738D01*
Y3001682D02*
X5831246Y3000738D01*
X5881246Y2950738D02*
Y2950738D01*
Y2950738D02*
X5961246D01*
Y2950738D01*
X6011246Y3000738D02*
X6011246D01*
Y3150738D01*
X6011236D02*
X6011246D01*
X10231056Y3150838D02*
X10231156D01*
Y3000838D02*
Y3150838D01*
X10281056Y2950938D02*
X10281156Y2950838D01*
X10361156D01*
Y2950938D01*
X10411056Y3000838D02*
X10411156D01*
Y3150838D01*
X10411256Y3150738D01*
X10461156Y3200638D02*
X13634996D01*
X13684895Y3150738D02*
X13684996D01*
Y3000738D02*
Y3150738D01*
X13734895Y2950838D02*
X13734996Y2950738D01*
X13814996D01*
Y2950838D01*
X13864896Y3000738D02*
X13864996D01*
Y3150738D01*
X13865096Y3150638D01*
X13914996Y3200538D02*
Y3200638D01*
X15155000D01*
X15204900Y3150738D02*
X15206000Y1050838D01*
X13914986Y1000838D02*
X15156000D01*
X13864986Y1050838D02*
X13864986D01*
X13864986D02*
Y1200838D01*
X13864986D01*
X13814986Y1250838D02*
X13814986Y1250838D01*
X13734985Y1250838D02*
X13814986D01*
X13734985D02*
X13734985Y1250838D01*
X13684985Y1200838D02*
X13684985D01*
X13684985Y1050838D02*
Y1200838D01*
Y1050838D02*
X13684996D01*
X10461156Y1000838D02*
X13634996D01*
X10411156Y1050838D02*
X10411156D01*
X10411156D02*
Y1200838D01*
X10411156D01*
X10361156Y1250838D02*
X10361156Y1250838D01*
X10281156Y1250838D02*
X10361156D01*
X10281156D02*
X10281156Y1250838D01*
X10231156Y1200838D02*
X10231156D01*
X10231156Y1050838D02*
Y1200838D01*
Y1050838D02*
X10231166D01*
X6011236D02*
X6011246D01*
Y1200838D01*
X6011236D02*
X6011246D01*
X5961236Y1250838D02*
X5961246Y1250838D01*
X5881236D02*
X5961246D01*
X5881236Y1250838D02*
Y1250838D01*
X5831236Y1200838D02*
X5831236D01*
X5831236Y1050838D02*
Y1200838D01*
Y1050838D02*
X5831246D01*
X2959996Y1000838D02*
X5781246D01*
X2909996Y1050838D02*
X2910006D01*
Y1199894D01*
X2909996Y1200838D02*
X2910006Y1199894D01*
X2859996Y1250838D02*
Y1250838D01*
X2779996D02*
X2859996D01*
X2779996Y1250838D02*
Y1250838D01*
X2729996Y1200838D02*
X2729996D01*
X2729996Y1050838D02*
Y1200838D01*
Y1050838D02*
X2730006D01*
X1156000Y1000838D02*
X2680006D01*
D97*
X5524500Y1798934D02*
D03*
Y1993900D02*
D03*
X3190240Y2603829D02*
D03*
X3568700Y1681480D02*
D03*
D98*
X2895480Y2061440D02*
D03*
X2680480D02*
D03*
X2787980D02*
D03*
D99*
X8679180Y3017520D02*
D03*
X15001241Y1668780D02*
D03*
D100*
X5493500Y2656240D02*
D03*
Y2338740D02*
D03*
X6001500D02*
D03*
Y2656240D02*
D03*
D101*
X5747500D02*
D03*
X5849100Y2148240D02*
D03*
X5645900D02*
D03*
D102*
X5166360Y3068320D02*
D03*
D103*
X4051300Y2418080D02*
D03*
X1720080Y2170077D02*
D03*
X6741220Y1178560D02*
D03*
X8068023Y2875680D02*
D03*
X6907080Y2701859D02*
D03*
X7665000Y2045260D02*
D03*
X7063740Y2151380D02*
D03*
X14317020Y2012688D02*
D03*
X14377020D02*
D03*
X14317020Y2077688D02*
D03*
X14257021D02*
D03*
Y2012688D02*
D03*
X14377020Y2077688D02*
D03*
X14437019Y2012688D02*
D03*
Y2077688D02*
D03*
X1334900Y2583804D02*
D03*
X2352200Y1348740D02*
D03*
X2468880Y1557840D02*
D03*
X1968500Y1354720D02*
D03*
X3686656Y1902460D02*
D03*
X3528060D02*
D03*
X6798243Y1485510D02*
D03*
X13447209Y2317126D02*
D03*
X3395980Y2513680D02*
D03*
X13497652Y1603580D02*
D03*
X13300153D02*
D03*
X9360140Y2405399D02*
D03*
X9263380Y2313402D02*
D03*
X9456420D02*
D03*
X9360140D02*
D03*
X9263542Y2222500D02*
D03*
X9263679Y2404612D02*
D03*
X9360052Y2222500D02*
D03*
X9456420Y2404612D02*
D03*
Y2222500D02*
D03*
X9632607Y2113559D02*
D03*
Y1953559D02*
D03*
X13890152Y1604795D02*
D03*
X13695152D02*
D03*
X13123665Y1705620D02*
D03*
X13446227Y2415032D02*
D03*
X11354500Y2369500D02*
D03*
X10711420Y1992022D02*
D03*
X10712000Y1883122D02*
D03*
X13083360Y2847340D02*
D03*
Y2593340D02*
D03*
X13083540Y2720340D02*
D03*
X13083360Y2911220D02*
D03*
Y2784220D02*
D03*
Y2657220D02*
D03*
Y2530220D02*
D03*
X13011000Y2912864D02*
D03*
Y2785864D02*
D03*
Y2658864D02*
D03*
Y2531864D02*
D03*
X11191420Y2597236D02*
D03*
Y2851236D02*
D03*
X11191240Y2724236D02*
D03*
X11191420Y2533356D02*
D03*
Y2660356D02*
D03*
Y2787356D02*
D03*
Y2914356D02*
D03*
X10925000Y1885260D02*
D03*
X11179000D02*
D03*
X11052000Y1885440D02*
D03*
X10861120Y1885260D02*
D03*
X10988120D02*
D03*
X11115120D02*
D03*
X11242120D02*
D03*
X13093700Y1884500D02*
D03*
X13347701D02*
D03*
X13220700Y1884680D02*
D03*
X13029820Y1884500D02*
D03*
X13156821D02*
D03*
X13283820D02*
D03*
X13410820D02*
D03*
X13411000Y1815864D02*
D03*
X13284000D02*
D03*
X13157001D02*
D03*
X13030000D02*
D03*
X11242500Y1815000D02*
D03*
X11115500D02*
D03*
X10988500D02*
D03*
X10861500D02*
D03*
X10924999Y2161360D02*
D03*
X11178999D02*
D03*
X11051999Y2161540D02*
D03*
X10861119Y2161360D02*
D03*
X10988119D02*
D03*
X11115119D02*
D03*
X11242119D02*
D03*
X13092999Y2217240D02*
D03*
X13347000D02*
D03*
X13220000Y2217420D02*
D03*
X13029120Y2217240D02*
D03*
X13156120D02*
D03*
X13283121D02*
D03*
X13410120D02*
D03*
X13093500Y2049183D02*
D03*
X13347501D02*
D03*
X13220500Y2049364D02*
D03*
X13029620Y2049183D02*
D03*
X13156619D02*
D03*
X13283620D02*
D03*
X13410620D02*
D03*
X11179000Y2048680D02*
D03*
X10925000D02*
D03*
X11052000Y2048500D02*
D03*
X11242880Y2048680D02*
D03*
X11115880D02*
D03*
X10988880D02*
D03*
X10861880D02*
D03*
X13411380Y2596364D02*
D03*
Y2850364D02*
D03*
X13411200Y2723364D02*
D03*
X13411380Y2532484D02*
D03*
Y2659484D02*
D03*
Y2786484D02*
D03*
Y2913484D02*
D03*
X13244679Y2595364D02*
D03*
Y2849364D02*
D03*
X13244501Y2722364D02*
D03*
X13244679Y2531484D02*
D03*
Y2658484D02*
D03*
Y2785484D02*
D03*
Y2912484D02*
D03*
X11026681Y2595500D02*
D03*
Y2849500D02*
D03*
X11026500Y2722500D02*
D03*
X11026681Y2531620D02*
D03*
Y2658620D02*
D03*
Y2785620D02*
D03*
Y2912620D02*
D03*
X10856140Y2595880D02*
D03*
Y2849880D02*
D03*
X10855960Y2722880D02*
D03*
X10856140Y2532000D02*
D03*
Y2659000D02*
D03*
Y2786000D02*
D03*
Y2913000D02*
D03*
X11260000D02*
D03*
Y2786000D02*
D03*
Y2659000D02*
D03*
Y2532000D02*
D03*
X14386560Y1645027D02*
D03*
Y1587500D02*
D03*
Y1702553D02*
D03*
Y1760080D02*
D03*
X1632651Y1694180D02*
D03*
Y1750461D02*
D03*
X6287501Y2250417D02*
D03*
X14803120Y1647527D02*
D03*
Y1590000D02*
D03*
Y1705054D02*
D03*
Y1762580D02*
D03*
X10429240Y2099687D02*
D03*
Y2042160D02*
D03*
Y2157213D02*
D03*
Y2214740D02*
D03*
X10007600Y2212340D02*
D03*
X14866151Y1238636D02*
D03*
Y1441136D02*
D03*
X13997501Y2177500D02*
D03*
X13805000Y2178364D02*
D03*
X13612500Y2177500D02*
D03*
X13411000Y2370864D02*
D03*
X13284000D02*
D03*
X13157001D02*
D03*
X9285531Y2641247D02*
D03*
X10285014Y2637221D02*
D03*
X10086786Y2638364D02*
D03*
X9885714D02*
D03*
X9684643D02*
D03*
X9824720Y2112500D02*
D03*
X9483572Y2638364D02*
D03*
X10007600Y2154813D02*
D03*
Y2039760D02*
D03*
Y2097287D02*
D03*
X3774440Y1691640D02*
D03*
X3477260Y2283125D02*
D03*
X3702578Y2283460D02*
D03*
X9824720Y1952500D02*
D03*
X11305000Y2343495D02*
D03*
Y2399670D02*
D03*
X11177500Y2341880D02*
D03*
Y2399670D02*
D03*
X12552020Y2717460D02*
D03*
Y2597460D02*
D03*
Y2537460D02*
D03*
Y2657460D02*
D03*
X12487020D02*
D03*
Y2597460D02*
D03*
Y2717460D02*
D03*
Y2537460D02*
D03*
X11794720Y2717460D02*
D03*
Y2597460D02*
D03*
Y2537460D02*
D03*
Y2657460D02*
D03*
X11729720D02*
D03*
Y2597460D02*
D03*
Y2717460D02*
D03*
Y2537460D02*
D03*
X2562711Y3058460D02*
D03*
X2330662Y3059856D02*
D03*
X1512698Y1694180D02*
D03*
Y1751623D02*
D03*
X1573246D02*
D03*
Y1694180D02*
D03*
X4632384Y1963040D02*
D03*
X4525656D02*
D03*
X3163000Y2357120D02*
D03*
X2604000Y1147500D02*
D03*
X1334900Y1331360D02*
D03*
X7236460Y1488440D02*
D03*
X7160260D02*
D03*
X7236460Y1574800D02*
D03*
X7160260D02*
D03*
X7236460Y1676400D02*
D03*
X7160260D02*
D03*
X7236460Y1762760D02*
D03*
X7160260D02*
D03*
X8346440Y2346035D02*
D03*
X8422640D02*
D03*
X8346440Y2259675D02*
D03*
X8422640D02*
D03*
X6863080Y1551940D02*
D03*
X8018667Y2297362D02*
D03*
X1632651Y2174240D02*
D03*
X1573246D02*
D03*
Y2107220D02*
D03*
X1513840D02*
D03*
Y2174240D02*
D03*
X1632651Y2107220D02*
D03*
X14008099Y2001520D02*
D03*
X13943100D02*
D03*
X13677901D02*
D03*
X13612900D02*
D03*
Y1821520D02*
D03*
X13677901D02*
D03*
X13943100D02*
D03*
X14008099D02*
D03*
X13347459Y2342600D02*
D03*
Y2416724D02*
D03*
X13220000Y2342600D02*
D03*
Y2415000D02*
D03*
X13093700Y2342600D02*
D03*
X13094960Y2415000D02*
D03*
X11115500Y2370000D02*
D03*
X10988500D02*
D03*
X11052000Y2400319D02*
D03*
X11242500Y2370000D02*
D03*
X11052000Y2342600D02*
D03*
X12612140Y2537460D02*
D03*
Y2717460D02*
D03*
Y2597460D02*
D03*
Y2657460D02*
D03*
X12677140D02*
D03*
Y2537460D02*
D03*
Y2597460D02*
D03*
Y2717460D02*
D03*
X11600180Y2537460D02*
D03*
Y2717460D02*
D03*
Y2597460D02*
D03*
Y2657460D02*
D03*
X11665180D02*
D03*
Y2537460D02*
D03*
Y2597460D02*
D03*
Y2717460D02*
D03*
X13943100Y1881520D02*
D03*
Y1941520D02*
D03*
X14008099D02*
D03*
Y1881520D02*
D03*
X13612900D02*
D03*
Y1941520D02*
D03*
X13677901D02*
D03*
Y1881520D02*
D03*
D104*
X1835156Y2058239D02*
D03*
X13566000Y2912864D02*
D03*
X2019300Y1922780D02*
D03*
X2597980Y1805440D02*
D03*
Y1885440D02*
D03*
X12117500Y1650000D02*
D03*
X12037500D02*
D03*
X13030000Y2370864D02*
D03*
X2361848Y1788160D02*
D03*
X2403158Y1907540D02*
D03*
X2484248Y1821180D02*
D03*
X2402004D02*
D03*
X2485390Y1907540D02*
D03*
X2361848Y1869440D02*
D03*
X11678920Y1605280D02*
D03*
X12238140Y1650000D02*
D03*
X12095140Y1928934D02*
D03*
X11540000Y1741160D02*
D03*
X10705000Y2532000D02*
D03*
X10861500Y2370000D02*
D03*
X2577560Y1505561D02*
D03*
X2444092Y1869440D02*
D03*
X2526336D02*
D03*
X2444092Y1788160D02*
D03*
X2540211Y1792570D02*
D03*
X12340000Y1587500D02*
D03*
X2319760Y1821180D02*
D03*
D105*
X1195080Y1799077D02*
D03*
Y2069077D02*
D03*
D106*
X2055000Y1695000D02*
D03*
Y2330000D02*
D03*
%TF.MD5,3e95789cacb3587ae8f56c2094da3488*%
M02*
