%TF.GenerationSoftware,Altium Limited,Altium Designer,19.0.15 (446)*%
G04 Layer_Color=16777215*
%FSLAX45Y45*%
%MOMM*%
%TF.FileFunction,Legend,Top*%
%TF.Part,Single*%
G01*
G75*
%TA.AperFunction,NonConductor*%
%ADD115C,0.20000*%
%ADD116C,0.15000*%
%ADD117C,0.12700*%
%ADD118C,0.50000*%
%ADD119C,0.25400*%
%ADD146C,0.10000*%
%ADD147C,0.60000*%
%ADD148C,0.25000*%
%ADD149R,0.67500X0.55000*%
%ADD150R,0.55000X0.67500*%
G36*
X6892501Y2374417D02*
X6782501D01*
Y2404417D01*
X6892501D01*
Y2374417D01*
D02*
G37*
G36*
X6570001D02*
X6460001D01*
Y2404417D01*
X6570001D01*
Y2374417D01*
D02*
G37*
G36*
X6247501D02*
X6137501D01*
Y2404417D01*
X6247501D01*
Y2374417D01*
D02*
G37*
G36*
X7080550Y2373905D02*
X6970550D01*
Y2403905D01*
X7080550D01*
Y2373905D01*
D02*
G37*
G36*
X6758050D02*
X6648050D01*
Y2403905D01*
X6758050D01*
Y2373905D01*
D02*
G37*
G36*
X6435550D02*
X6325550D01*
Y2403905D01*
X6435550D01*
Y2373905D01*
D02*
G37*
G36*
X4780960Y1894180D02*
X4735960Y1879180D01*
Y1939180D01*
X4795960D01*
X4780960Y1894180D01*
D02*
G37*
G36*
X8674151Y1498614D02*
X8564151D01*
Y1528614D01*
X8674151D01*
Y1498614D01*
D02*
G37*
G36*
X9002340Y1498610D02*
X8892340D01*
Y1528610D01*
X9002340D01*
Y1498610D01*
D02*
G37*
G36*
X8862200Y1498102D02*
X8752200D01*
Y1528102D01*
X8862200D01*
Y1498102D01*
D02*
G37*
G36*
X9190390Y1498098D02*
X9080390D01*
Y1528098D01*
X9190390D01*
Y1498098D01*
D02*
G37*
G36*
X9334251Y1496292D02*
X9224251D01*
Y1526292D01*
X9334251D01*
Y1496292D01*
D02*
G37*
G36*
X9522300Y1495780D02*
X9412300D01*
Y1525780D01*
X9522300D01*
Y1495780D01*
D02*
G37*
G36*
X9733415Y1400359D02*
Y1397957D01*
Y1395554D01*
Y1393152D01*
Y1390749D01*
X9735817D01*
Y1388347D01*
Y1385944D01*
Y1383542D01*
Y1381139D01*
Y1378737D01*
Y1376335D01*
Y1373932D01*
Y1371530D01*
Y1369127D01*
X9622902D01*
Y1366725D01*
X9625305D01*
Y1364322D01*
Y1361920D01*
Y1359517D01*
X9627707D01*
Y1357115D01*
Y1354713D01*
X9630110D01*
Y1352310D01*
Y1349908D01*
X9632512D01*
Y1347505D01*
X9637317D01*
Y1345103D01*
X9639720D01*
Y1342700D01*
X9646927D01*
Y1340298D01*
X9680561D01*
Y1342700D01*
X9685366D01*
Y1345103D01*
X9690171D01*
Y1347505D01*
X9692573D01*
Y1349908D01*
X9697378D01*
Y1352310D01*
X9699781D01*
Y1354713D01*
Y1357115D01*
X9704586D01*
Y1354713D01*
X9709391D01*
Y1352310D01*
X9714195D01*
Y1349908D01*
X9721403D01*
Y1347505D01*
X9726208D01*
Y1345103D01*
X9731013D01*
Y1342700D01*
Y1340298D01*
X9728610D01*
Y1337895D01*
X9726208D01*
Y1335493D01*
X9723805D01*
Y1333091D01*
X9721403D01*
Y1330688D01*
X9719000D01*
Y1328286D01*
X9716598D01*
Y1325883D01*
X9711793D01*
Y1323481D01*
X9706988D01*
Y1321078D01*
X9704586D01*
Y1318676D01*
X9697378D01*
Y1316273D01*
X9690171D01*
Y1313871D01*
X9678159D01*
Y1311469D01*
X9644525D01*
Y1313871D01*
X9634915D01*
Y1316273D01*
X9625305D01*
Y1318676D01*
X9620500D01*
Y1321078D01*
X9615695D01*
Y1323481D01*
X9610890D01*
Y1325883D01*
X9608488D01*
Y1328286D01*
X9606085D01*
Y1330688D01*
X9601281D01*
Y1333091D01*
X9598878D01*
Y1335493D01*
Y1337895D01*
X9596476D01*
Y1340298D01*
X9594073D01*
Y1342700D01*
X9591671D01*
Y1345103D01*
Y1347505D01*
X9589268D01*
Y1349908D01*
Y1352310D01*
Y1354713D01*
X9586866D01*
Y1357115D01*
Y1359517D01*
Y1361920D01*
X9584463D01*
Y1364322D01*
Y1366725D01*
Y1369127D01*
Y1371530D01*
Y1373932D01*
Y1376335D01*
Y1378737D01*
Y1381139D01*
Y1383542D01*
Y1385944D01*
Y1388347D01*
Y1390749D01*
Y1393152D01*
X9586866D01*
Y1395554D01*
Y1397957D01*
Y1400359D01*
X9589268D01*
Y1402761D01*
X9625305D01*
Y1400359D01*
Y1397957D01*
Y1395554D01*
X9622902D01*
Y1393152D01*
Y1390749D01*
X9694976D01*
Y1393152D01*
Y1395554D01*
Y1397957D01*
Y1400359D01*
X9692573D01*
Y1402761D01*
X9733415D01*
Y1400359D01*
D02*
G37*
G36*
X9154426D02*
X9156828D01*
Y1397957D01*
Y1395554D01*
Y1393152D01*
Y1390749D01*
X9159231D01*
Y1388347D01*
Y1385944D01*
Y1383542D01*
Y1381139D01*
Y1378737D01*
Y1376335D01*
Y1373932D01*
Y1371530D01*
Y1369127D01*
X9046315D01*
Y1366725D01*
X9048718D01*
Y1364322D01*
Y1361920D01*
Y1359517D01*
Y1357115D01*
X9051121D01*
Y1354713D01*
X9053523D01*
Y1352310D01*
Y1349908D01*
X9055925D01*
Y1347505D01*
X9060730D01*
Y1345103D01*
X9063133D01*
Y1342700D01*
X9070340D01*
Y1340298D01*
X9103974D01*
Y1342700D01*
X9108779D01*
Y1345103D01*
X9113584D01*
Y1347505D01*
X9115987D01*
Y1349908D01*
X9120792D01*
Y1352310D01*
X9123194D01*
Y1354713D01*
Y1357115D01*
X9127999D01*
Y1354713D01*
X9132804D01*
Y1352310D01*
X9137609D01*
Y1349908D01*
X9142413D01*
Y1347505D01*
X9149621D01*
Y1345103D01*
X9154426D01*
Y1342700D01*
Y1340298D01*
X9152023D01*
Y1337895D01*
X9149621D01*
Y1335493D01*
X9147218D01*
Y1333091D01*
X9144816D01*
Y1330688D01*
X9142413D01*
Y1328286D01*
X9140011D01*
Y1325883D01*
X9135206D01*
Y1323481D01*
X9130401D01*
Y1321078D01*
X9127999D01*
Y1318676D01*
X9120792D01*
Y1316273D01*
X9113584D01*
Y1313871D01*
X9101572D01*
Y1311469D01*
X9067937D01*
Y1313871D01*
X9055925D01*
Y1316273D01*
X9048718D01*
Y1318676D01*
X9043913D01*
Y1321078D01*
X9039108D01*
Y1323481D01*
X9034303D01*
Y1325883D01*
X9031901D01*
Y1328286D01*
X9029498D01*
Y1330688D01*
X9024694D01*
Y1333091D01*
X9022291D01*
Y1335493D01*
Y1337895D01*
X9019889D01*
Y1340298D01*
X9017486D01*
Y1342700D01*
X9015084D01*
Y1345103D01*
Y1347505D01*
X9012681D01*
Y1349908D01*
Y1352310D01*
Y1354713D01*
X9010279D01*
Y1357115D01*
Y1359517D01*
Y1361920D01*
Y1364322D01*
Y1366725D01*
Y1369127D01*
Y1371530D01*
Y1373932D01*
Y1376335D01*
Y1378737D01*
Y1381139D01*
Y1383542D01*
Y1385944D01*
Y1388347D01*
Y1390749D01*
Y1393152D01*
Y1395554D01*
Y1397957D01*
Y1400359D01*
Y1402761D01*
X9048718D01*
Y1400359D01*
Y1397957D01*
Y1395554D01*
X9046315D01*
Y1393152D01*
Y1390749D01*
X9118389D01*
Y1393152D01*
Y1395554D01*
Y1397957D01*
Y1400359D01*
X9115987D01*
Y1402761D01*
X9154426D01*
Y1400359D01*
D02*
G37*
G36*
X10189880D02*
X10192282D01*
Y1397957D01*
Y1395554D01*
Y1393152D01*
Y1390749D01*
Y1388347D01*
X10194684D01*
Y1385944D01*
Y1383542D01*
Y1381139D01*
Y1378737D01*
Y1376335D01*
Y1373932D01*
Y1371530D01*
Y1369127D01*
X10192282D01*
Y1366725D01*
Y1364322D01*
Y1361920D01*
Y1359517D01*
Y1357115D01*
X10189880D01*
Y1354713D01*
Y1352310D01*
X10187477D01*
Y1349908D01*
Y1347505D01*
X10185075D01*
Y1345103D01*
Y1342700D01*
X10182672D01*
Y1340298D01*
X10180270D01*
Y1337895D01*
Y1335493D01*
X10177867D01*
Y1333091D01*
X10175465D01*
Y1330688D01*
X10173062D01*
Y1328286D01*
X10168258D01*
Y1325883D01*
X10165855D01*
Y1323481D01*
X10161050D01*
Y1321078D01*
X10156245D01*
Y1318676D01*
X10151440D01*
Y1316273D01*
X10144233D01*
Y1313871D01*
X10132221D01*
Y1311469D01*
X10098587D01*
Y1313871D01*
X10088977D01*
Y1316273D01*
X10079367D01*
Y1318676D01*
X10074562D01*
Y1321078D01*
X10069757D01*
Y1323481D01*
X10064952D01*
Y1325883D01*
X10062550D01*
Y1328286D01*
X10057745D01*
Y1330688D01*
X10055343D01*
Y1333091D01*
X10052940D01*
Y1335493D01*
X10050538D01*
Y1337895D01*
Y1340298D01*
X10048135D01*
Y1342700D01*
X10045733D01*
Y1345103D01*
Y1347505D01*
X10043330D01*
Y1349908D01*
Y1352310D01*
X10040928D01*
Y1354713D01*
Y1357115D01*
X10038526D01*
Y1359517D01*
Y1361920D01*
Y1364322D01*
Y1366725D01*
Y1369127D01*
X10036123D01*
Y1371530D01*
Y1373932D01*
Y1376335D01*
Y1378737D01*
Y1381139D01*
Y1383542D01*
Y1385944D01*
Y1388347D01*
X10038526D01*
Y1390749D01*
Y1393152D01*
Y1395554D01*
Y1397957D01*
X10040928D01*
Y1400359D01*
Y1402761D01*
X10084172D01*
Y1400359D01*
X10081770D01*
Y1397957D01*
Y1395554D01*
Y1393152D01*
Y1390749D01*
X10079367D01*
Y1388347D01*
Y1385944D01*
Y1383542D01*
Y1381139D01*
Y1378737D01*
Y1376335D01*
Y1373932D01*
Y1371530D01*
Y1369127D01*
Y1366725D01*
X10081770D01*
Y1364322D01*
Y1361920D01*
Y1359517D01*
Y1357115D01*
X10084172D01*
Y1354713D01*
X10086574D01*
Y1352310D01*
Y1349908D01*
X10088977D01*
Y1347505D01*
X10091379D01*
Y1345103D01*
X10096184D01*
Y1342700D01*
X10098587D01*
Y1340298D01*
X10110599D01*
Y1337895D01*
X10120209D01*
Y1340298D01*
X10132221D01*
Y1342700D01*
X10137026D01*
Y1345103D01*
X10139428D01*
Y1347505D01*
X10141830D01*
Y1349908D01*
X10144233D01*
Y1352310D01*
X10146636D01*
Y1354713D01*
Y1357115D01*
X10149038D01*
Y1359517D01*
Y1361920D01*
Y1364322D01*
Y1366725D01*
X10151440D01*
Y1369127D01*
Y1371530D01*
Y1373932D01*
Y1376335D01*
Y1378737D01*
Y1381139D01*
Y1383542D01*
Y1385944D01*
Y1388347D01*
Y1390749D01*
X10149038D01*
Y1393152D01*
Y1395554D01*
Y1397957D01*
Y1400359D01*
X10146636D01*
Y1402761D01*
X10189880D01*
Y1400359D01*
D02*
G37*
G36*
X9932818D02*
X9935220D01*
Y1397957D01*
X9942428D01*
Y1395554D01*
X9961647D01*
Y1393152D01*
X9983269D01*
Y1390749D01*
X9997684D01*
Y1388347D01*
X10004891D01*
Y1385944D01*
X10009696D01*
Y1383542D01*
X10014501D01*
Y1381139D01*
X10016904D01*
Y1378737D01*
X10019306D01*
Y1376335D01*
X10021708D01*
Y1373932D01*
X10024111D01*
Y1371530D01*
Y1369127D01*
X10026513D01*
Y1366725D01*
Y1364322D01*
Y1361920D01*
X10028916D01*
Y1359517D01*
Y1357115D01*
Y1354713D01*
Y1352310D01*
Y1349908D01*
Y1347505D01*
X10026513D01*
Y1345103D01*
Y1342700D01*
Y1340298D01*
X10024111D01*
Y1337895D01*
Y1335493D01*
X10021708D01*
Y1333091D01*
Y1330688D01*
X10019306D01*
Y1328286D01*
X10016904D01*
Y1325883D01*
X10014501D01*
Y1323481D01*
X10009696D01*
Y1321078D01*
X10004891D01*
Y1318676D01*
X10000086D01*
Y1316273D01*
X9992879D01*
Y1313871D01*
X9980867D01*
Y1311469D01*
X9944830D01*
Y1313871D01*
X9930415D01*
Y1316273D01*
X9920806D01*
Y1318676D01*
X9916001D01*
Y1321078D01*
X9908793D01*
Y1323481D01*
X9903989D01*
Y1325883D01*
X9901586D01*
Y1328286D01*
X9896781D01*
Y1330688D01*
X9894379D01*
Y1333091D01*
X9891976D01*
Y1335493D01*
X9889574D01*
Y1337895D01*
X9887171D01*
Y1340298D01*
X9889574D01*
Y1342700D01*
X9891976D01*
Y1345103D01*
X9894379D01*
Y1347505D01*
X9896781D01*
Y1349908D01*
X9899184D01*
Y1352310D01*
X9903989D01*
Y1354713D01*
X9906391D01*
Y1357115D01*
X9908793D01*
Y1354713D01*
X9911196D01*
Y1352310D01*
X9916001D01*
Y1349908D01*
X9918403D01*
Y1347505D01*
X9923208D01*
Y1345103D01*
X9928013D01*
Y1342700D01*
X9935220D01*
Y1340298D01*
X9944830D01*
Y1337895D01*
X9980867D01*
Y1340298D01*
X9985672D01*
Y1342700D01*
X9990477D01*
Y1345103D01*
Y1347505D01*
Y1349908D01*
Y1352310D01*
Y1354713D01*
Y1357115D01*
X9988074D01*
Y1359517D01*
X9983269D01*
Y1361920D01*
X9971257D01*
Y1364322D01*
X9952038D01*
Y1366725D01*
X9932818D01*
Y1369127D01*
X9923208D01*
Y1371530D01*
X9916001D01*
Y1373932D01*
X9911196D01*
Y1376335D01*
X9906391D01*
Y1378737D01*
X9903989D01*
Y1381139D01*
X9901586D01*
Y1383542D01*
X9899184D01*
Y1385944D01*
X9896781D01*
Y1388347D01*
Y1390749D01*
X9894379D01*
Y1393152D01*
Y1395554D01*
Y1397957D01*
Y1400359D01*
Y1402761D01*
X9932818D01*
Y1400359D01*
D02*
G37*
G36*
X9786269D02*
X9788671D01*
Y1397957D01*
X9795879D01*
Y1395554D01*
X9815098D01*
Y1393152D01*
X9836720D01*
Y1390749D01*
X9851135D01*
Y1388347D01*
X9858342D01*
Y1385944D01*
X9863147D01*
Y1383542D01*
X9867952D01*
Y1381139D01*
X9870354D01*
Y1378737D01*
X9872757D01*
Y1376335D01*
X9875159D01*
Y1373932D01*
X9877562D01*
Y1371530D01*
Y1369127D01*
X9879964D01*
Y1366725D01*
Y1364322D01*
Y1361920D01*
Y1359517D01*
X9882367D01*
Y1357115D01*
Y1354713D01*
Y1352310D01*
Y1349908D01*
X9879964D01*
Y1347505D01*
Y1345103D01*
Y1342700D01*
Y1340298D01*
X9877562D01*
Y1337895D01*
Y1335493D01*
X9875159D01*
Y1333091D01*
Y1330688D01*
X9872757D01*
Y1328286D01*
X9870354D01*
Y1325883D01*
X9865549D01*
Y1323481D01*
X9863147D01*
Y1321078D01*
X9858342D01*
Y1318676D01*
X9853537D01*
Y1316273D01*
X9846330D01*
Y1313871D01*
X9834318D01*
Y1311469D01*
X9798281D01*
Y1313871D01*
X9783866D01*
Y1316273D01*
X9774257D01*
Y1318676D01*
X9767049D01*
Y1321078D01*
X9762244D01*
Y1323481D01*
X9757439D01*
Y1325883D01*
X9755037D01*
Y1328286D01*
X9750232D01*
Y1330688D01*
X9747830D01*
Y1333091D01*
X9745427D01*
Y1335493D01*
X9743025D01*
Y1337895D01*
X9740622D01*
Y1340298D01*
X9743025D01*
Y1342700D01*
X9745427D01*
Y1345103D01*
X9747830D01*
Y1347505D01*
X9750232D01*
Y1349908D01*
X9752635D01*
Y1352310D01*
X9757439D01*
Y1354713D01*
X9759842D01*
Y1357115D01*
X9762244D01*
Y1354713D01*
X9764647D01*
Y1352310D01*
X9767049D01*
Y1349908D01*
X9771854D01*
Y1347505D01*
X9776659D01*
Y1345103D01*
X9781464D01*
Y1342700D01*
X9788671D01*
Y1340298D01*
X9798281D01*
Y1337895D01*
X9831915D01*
Y1340298D01*
X9839123D01*
Y1342700D01*
X9841525D01*
Y1345103D01*
X9843927D01*
Y1347505D01*
Y1349908D01*
Y1352310D01*
Y1354713D01*
Y1357115D01*
X9841525D01*
Y1359517D01*
X9836720D01*
Y1361920D01*
X9824708D01*
Y1364322D01*
X9805488D01*
Y1366725D01*
X9786269D01*
Y1369127D01*
X9776659D01*
Y1371530D01*
X9769452D01*
Y1373932D01*
X9764647D01*
Y1376335D01*
X9759842D01*
Y1378737D01*
X9757439D01*
Y1381139D01*
X9755037D01*
Y1383542D01*
X9752635D01*
Y1385944D01*
X9750232D01*
Y1388347D01*
Y1390749D01*
X9747830D01*
Y1393152D01*
Y1395554D01*
Y1397957D01*
Y1400359D01*
X9745427D01*
Y1402761D01*
X9786269D01*
Y1400359D01*
D02*
G37*
G36*
X9469146D02*
Y1397957D01*
Y1395554D01*
Y1393152D01*
X9471548D01*
Y1390749D01*
Y1388347D01*
Y1385944D01*
Y1383542D01*
Y1381139D01*
Y1378737D01*
Y1376335D01*
Y1373932D01*
Y1371530D01*
Y1369127D01*
Y1366725D01*
Y1364322D01*
X9469146D01*
Y1361920D01*
Y1359517D01*
Y1357115D01*
Y1354713D01*
X9466744D01*
Y1352310D01*
Y1349908D01*
Y1347505D01*
X9464341D01*
Y1345103D01*
Y1342700D01*
X9461939D01*
Y1340298D01*
X9459536D01*
Y1337895D01*
Y1335493D01*
X9457134D01*
Y1333091D01*
X9454731D01*
Y1330688D01*
X9452329D01*
Y1328286D01*
X9449926D01*
Y1325883D01*
X9447524D01*
Y1323481D01*
X9445122D01*
Y1321078D01*
X9440317D01*
Y1318676D01*
X9435512D01*
Y1316273D01*
X9428304D01*
Y1313871D01*
X9421097D01*
Y1311469D01*
X9394670D01*
Y1313871D01*
X9385060D01*
Y1316273D01*
X9380255D01*
Y1318676D01*
X9375451D01*
Y1321078D01*
X9370646D01*
Y1323481D01*
X9368243D01*
Y1325883D01*
X9365841D01*
Y1328286D01*
X9363438D01*
Y1330688D01*
X9361036D01*
Y1333091D01*
X9358634D01*
Y1330688D01*
Y1328286D01*
Y1325883D01*
Y1323481D01*
Y1321078D01*
Y1318676D01*
Y1316273D01*
Y1313871D01*
Y1311469D01*
Y1309066D01*
Y1306664D01*
Y1304261D01*
Y1301859D01*
Y1299456D01*
Y1297054D01*
Y1294651D01*
Y1292249D01*
Y1289847D01*
Y1287444D01*
Y1285042D01*
Y1282639D01*
Y1280237D01*
Y1277834D01*
Y1275432D01*
Y1273029D01*
Y1270627D01*
Y1268225D01*
Y1265822D01*
X9315389D01*
Y1268225D01*
Y1270627D01*
Y1273029D01*
Y1275432D01*
Y1277834D01*
Y1280237D01*
Y1282639D01*
Y1285042D01*
Y1287444D01*
Y1289847D01*
Y1292249D01*
Y1294651D01*
Y1297054D01*
Y1299456D01*
Y1301859D01*
Y1304261D01*
Y1306664D01*
Y1309066D01*
Y1311469D01*
Y1313871D01*
Y1316273D01*
Y1318676D01*
Y1321078D01*
Y1323481D01*
Y1325883D01*
Y1328286D01*
Y1330688D01*
Y1333091D01*
Y1335493D01*
Y1337895D01*
Y1340298D01*
Y1342700D01*
Y1345103D01*
Y1347505D01*
Y1349908D01*
Y1352310D01*
Y1354713D01*
Y1357115D01*
Y1359517D01*
Y1361920D01*
Y1364322D01*
Y1366725D01*
Y1369127D01*
Y1371530D01*
Y1373932D01*
Y1376335D01*
Y1378737D01*
Y1381139D01*
Y1383542D01*
Y1385944D01*
Y1388347D01*
Y1390749D01*
Y1393152D01*
Y1395554D01*
Y1397957D01*
Y1400359D01*
Y1402761D01*
X9361036D01*
Y1400359D01*
Y1397957D01*
X9358634D01*
Y1395554D01*
Y1393152D01*
Y1390749D01*
X9356231D01*
Y1388347D01*
Y1385944D01*
Y1383542D01*
Y1381139D01*
Y1378737D01*
Y1376335D01*
Y1373932D01*
Y1371530D01*
Y1369127D01*
Y1366725D01*
X9358634D01*
Y1364322D01*
Y1361920D01*
Y1359517D01*
X9361036D01*
Y1357115D01*
Y1354713D01*
X9363438D01*
Y1352310D01*
Y1349908D01*
X9365841D01*
Y1347505D01*
X9368243D01*
Y1345103D01*
X9373048D01*
Y1342700D01*
X9377853D01*
Y1340298D01*
X9389865D01*
Y1337895D01*
X9394670D01*
Y1340298D01*
X9406682D01*
Y1342700D01*
X9411487D01*
Y1345103D01*
X9416292D01*
Y1347505D01*
X9418694D01*
Y1349908D01*
X9421097D01*
Y1352310D01*
Y1354713D01*
X9423500D01*
Y1357115D01*
Y1359517D01*
X9425902D01*
Y1361920D01*
Y1364322D01*
Y1366725D01*
X9428304D01*
Y1369127D01*
Y1371530D01*
Y1373932D01*
Y1376335D01*
Y1378737D01*
Y1381139D01*
Y1383542D01*
Y1385944D01*
Y1388347D01*
Y1390749D01*
X9425902D01*
Y1393152D01*
Y1395554D01*
Y1397957D01*
X9423500D01*
Y1400359D01*
Y1402761D01*
X9469146D01*
Y1400359D01*
D02*
G37*
G36*
X9209682D02*
X9212084D01*
Y1397957D01*
X9221694D01*
Y1395554D01*
X9240914D01*
Y1393152D01*
X9262536D01*
Y1390749D01*
X9274548D01*
Y1388347D01*
X9281755D01*
Y1385944D01*
X9286560D01*
Y1383542D01*
X9291365D01*
Y1381139D01*
X9296170D01*
Y1378737D01*
X9298572D01*
Y1376335D01*
Y1373932D01*
X9300975D01*
Y1371530D01*
X9303377D01*
Y1369127D01*
Y1366725D01*
Y1364322D01*
X9305780D01*
Y1361920D01*
Y1359517D01*
Y1357115D01*
Y1354713D01*
Y1352310D01*
Y1349908D01*
Y1347505D01*
Y1345103D01*
Y1342700D01*
X9303377D01*
Y1340298D01*
Y1337895D01*
X9300975D01*
Y1335493D01*
Y1333091D01*
X9298572D01*
Y1330688D01*
X9296170D01*
Y1328286D01*
X9293768D01*
Y1325883D01*
X9291365D01*
Y1323481D01*
X9286560D01*
Y1321078D01*
X9284157D01*
Y1318676D01*
X9276950D01*
Y1316273D01*
X9269743D01*
Y1313871D01*
X9257731D01*
Y1311469D01*
X9221694D01*
Y1313871D01*
X9207279D01*
Y1316273D01*
X9200072D01*
Y1318676D01*
X9192865D01*
Y1321078D01*
X9188060D01*
Y1323481D01*
X9183255D01*
Y1325883D01*
X9178450D01*
Y1328286D01*
X9176048D01*
Y1330688D01*
X9173645D01*
Y1333091D01*
X9168840D01*
Y1335493D01*
X9166438D01*
Y1337895D01*
X9164035D01*
Y1340298D01*
X9166438D01*
Y1342700D01*
X9168840D01*
Y1345103D01*
X9171243D01*
Y1347505D01*
X9176048D01*
Y1349908D01*
X9178450D01*
Y1352310D01*
X9180852D01*
Y1354713D01*
X9183255D01*
Y1357115D01*
X9188060D01*
Y1354713D01*
X9190462D01*
Y1352310D01*
X9192865D01*
Y1349908D01*
X9195267D01*
Y1347505D01*
X9200072D01*
Y1345103D01*
X9204877D01*
Y1342700D01*
X9212084D01*
Y1340298D01*
X9224097D01*
Y1337895D01*
X9257731D01*
Y1340298D01*
X9264938D01*
Y1342700D01*
X9267341D01*
Y1345103D01*
X9269743D01*
Y1347505D01*
Y1349908D01*
Y1352310D01*
Y1354713D01*
Y1357115D01*
X9267341D01*
Y1359517D01*
X9262536D01*
Y1361920D01*
X9250524D01*
Y1364322D01*
X9228902D01*
Y1366725D01*
X9212084D01*
Y1369127D01*
X9200072D01*
Y1371530D01*
X9195267D01*
Y1373932D01*
X9188060D01*
Y1376335D01*
X9185658D01*
Y1378737D01*
X9180852D01*
Y1381139D01*
X9178450D01*
Y1383542D01*
Y1385944D01*
X9176048D01*
Y1388347D01*
X9173645D01*
Y1390749D01*
Y1393152D01*
Y1395554D01*
X9171243D01*
Y1397957D01*
Y1400359D01*
Y1402761D01*
X9209682D01*
Y1400359D01*
D02*
G37*
G36*
X9546024D02*
X9543622D01*
Y1397957D01*
X9538817D01*
Y1395554D01*
Y1393152D01*
X9536415D01*
Y1390749D01*
X9534012D01*
Y1388347D01*
Y1385944D01*
X9531610D01*
Y1383542D01*
Y1381139D01*
Y1378737D01*
Y1376335D01*
X9529207D01*
Y1373932D01*
Y1371530D01*
Y1369127D01*
Y1366725D01*
Y1364322D01*
Y1361920D01*
Y1359517D01*
Y1357115D01*
Y1354713D01*
Y1352310D01*
Y1349908D01*
Y1347505D01*
Y1345103D01*
Y1342700D01*
Y1340298D01*
Y1337895D01*
Y1335493D01*
Y1333091D01*
Y1330688D01*
Y1328286D01*
Y1325883D01*
Y1323481D01*
Y1321078D01*
Y1318676D01*
Y1316273D01*
X9488365D01*
Y1318676D01*
Y1321078D01*
Y1323481D01*
Y1325883D01*
Y1328286D01*
Y1330688D01*
Y1333091D01*
Y1335493D01*
Y1337895D01*
Y1340298D01*
Y1342700D01*
Y1345103D01*
Y1347505D01*
Y1349908D01*
Y1352310D01*
Y1354713D01*
Y1357115D01*
Y1359517D01*
Y1361920D01*
Y1364322D01*
Y1366725D01*
Y1369127D01*
Y1371530D01*
Y1373932D01*
Y1376335D01*
Y1378737D01*
Y1381139D01*
Y1383542D01*
Y1385944D01*
Y1388347D01*
Y1390749D01*
Y1393152D01*
Y1395554D01*
Y1397957D01*
Y1400359D01*
Y1402761D01*
X9546024D01*
Y1400359D01*
D02*
G37*
G36*
X9418694Y1253810D02*
X9430707D01*
Y1251407D01*
X9435512D01*
Y1249005D01*
X9440317D01*
Y1246603D01*
X9445122D01*
Y1244200D01*
X9447524D01*
Y1241798D01*
X9449926D01*
Y1239395D01*
X9452329D01*
Y1236993D01*
X9454731D01*
Y1234590D01*
X9457134D01*
Y1232188D01*
X9459536D01*
Y1229785D01*
X9461939D01*
Y1227383D01*
Y1224981D01*
X9464341D01*
Y1222578D01*
Y1220176D01*
X9466744D01*
Y1217773D01*
Y1215371D01*
Y1212968D01*
X9421097D01*
Y1215371D01*
Y1217773D01*
X9418694D01*
Y1220176D01*
X9416292D01*
Y1222578D01*
X9411487D01*
Y1224981D01*
X9406682D01*
Y1227383D01*
X9377853D01*
Y1224981D01*
X9373048D01*
Y1222578D01*
X9368243D01*
Y1220176D01*
X9365841D01*
Y1217773D01*
X9363438D01*
Y1215371D01*
Y1212968D01*
X9315389D01*
Y1215371D01*
Y1217773D01*
Y1220176D01*
Y1222578D01*
Y1224981D01*
Y1227383D01*
Y1229785D01*
Y1232188D01*
Y1234590D01*
Y1236993D01*
Y1239395D01*
Y1241798D01*
Y1244200D01*
Y1246603D01*
Y1249005D01*
Y1251407D01*
X9356231D01*
Y1249005D01*
Y1246603D01*
Y1244200D01*
Y1241798D01*
Y1239395D01*
Y1236993D01*
Y1234590D01*
Y1232188D01*
Y1229785D01*
X9358634D01*
Y1232188D01*
X9361036D01*
Y1234590D01*
X9363438D01*
Y1236993D01*
Y1239395D01*
X9365841D01*
Y1241798D01*
X9370646D01*
Y1244200D01*
X9373048D01*
Y1246603D01*
X9377853D01*
Y1249005D01*
X9382658D01*
Y1251407D01*
X9387463D01*
Y1253810D01*
X9399475D01*
Y1256212D01*
X9418694D01*
Y1253810D01*
D02*
G37*
G36*
X9582061D02*
Y1251407D01*
Y1249005D01*
Y1246603D01*
Y1244200D01*
Y1241798D01*
Y1239395D01*
Y1236993D01*
Y1234590D01*
Y1232188D01*
Y1229785D01*
Y1227383D01*
Y1224981D01*
Y1222578D01*
Y1220176D01*
Y1217773D01*
X9558037D01*
Y1215371D01*
X9550829D01*
Y1212968D01*
X9488365D01*
Y1215371D01*
Y1217773D01*
Y1220176D01*
Y1222578D01*
Y1224981D01*
Y1227383D01*
Y1229785D01*
Y1232188D01*
Y1234590D01*
Y1236993D01*
Y1239395D01*
Y1241798D01*
Y1244200D01*
Y1246603D01*
Y1249005D01*
Y1251407D01*
X9524402D01*
Y1249005D01*
Y1246603D01*
Y1244200D01*
Y1241798D01*
Y1239395D01*
Y1236993D01*
Y1234590D01*
Y1232188D01*
Y1229785D01*
Y1227383D01*
Y1224981D01*
Y1222578D01*
Y1220176D01*
Y1217773D01*
X9529207D01*
Y1220176D01*
Y1222578D01*
Y1224981D01*
X9531610D01*
Y1227383D01*
Y1229785D01*
X9534012D01*
Y1232188D01*
Y1234590D01*
X9536415D01*
Y1236993D01*
X9538817D01*
Y1239395D01*
X9541219D01*
Y1241798D01*
X9543622D01*
Y1244200D01*
X9546024D01*
Y1246603D01*
X9548427D01*
Y1249005D01*
X9553231D01*
Y1251407D01*
X9560439D01*
Y1253810D01*
X9572451D01*
Y1256212D01*
X9582061D01*
Y1253810D01*
D02*
G37*
G36*
X9973660D02*
X9988074D01*
Y1251407D01*
X9997684D01*
Y1249005D01*
X10004891D01*
Y1246603D01*
X10009696D01*
Y1244200D01*
X10014501D01*
Y1241798D01*
X10019306D01*
Y1239395D01*
X10021708D01*
Y1236993D01*
X10024111D01*
Y1234590D01*
X10026513D01*
Y1232188D01*
X10024111D01*
Y1229785D01*
X10021708D01*
Y1227383D01*
X10019306D01*
Y1224981D01*
X10016904D01*
Y1222578D01*
X10014501D01*
Y1220176D01*
X10012099D01*
Y1217773D01*
X10009696D01*
Y1215371D01*
X10007294D01*
Y1217773D01*
X10002489D01*
Y1220176D01*
X9997684D01*
Y1222578D01*
X9992879D01*
Y1224981D01*
X9985672D01*
Y1227383D01*
X9976062D01*
Y1229785D01*
X9940025D01*
Y1227383D01*
X9932818D01*
Y1224981D01*
X9930415D01*
Y1222578D01*
Y1220176D01*
Y1217773D01*
Y1215371D01*
Y1212968D01*
X9891976D01*
Y1215371D01*
Y1217773D01*
X9894379D01*
Y1220176D01*
Y1222578D01*
Y1224981D01*
Y1227383D01*
X9896781D01*
Y1229785D01*
Y1232188D01*
X9899184D01*
Y1234590D01*
Y1236993D01*
X9901586D01*
Y1239395D01*
X9903989D01*
Y1241798D01*
X9906391D01*
Y1244200D01*
X9911196D01*
Y1246603D01*
X9916001D01*
Y1249005D01*
X9920806D01*
Y1251407D01*
X9930415D01*
Y1253810D01*
X9944830D01*
Y1256212D01*
X9973660D01*
Y1253810D01*
D02*
G37*
G36*
X9827110D02*
X9841525D01*
Y1251407D01*
X9851135D01*
Y1249005D01*
X9858342D01*
Y1246603D01*
X9863147D01*
Y1244200D01*
X9867952D01*
Y1241798D01*
X9870354D01*
Y1239395D01*
X9875159D01*
Y1236993D01*
X9877562D01*
Y1234590D01*
X9879964D01*
Y1232188D01*
X9877562D01*
Y1229785D01*
X9875159D01*
Y1227383D01*
X9872757D01*
Y1224981D01*
X9870354D01*
Y1222578D01*
X9867952D01*
Y1220176D01*
X9865549D01*
Y1217773D01*
X9863147D01*
Y1215371D01*
X9858342D01*
Y1217773D01*
X9855940D01*
Y1220176D01*
X9851135D01*
Y1222578D01*
X9846330D01*
Y1224981D01*
X9839123D01*
Y1227383D01*
X9829513D01*
Y1229785D01*
X9793476D01*
Y1227383D01*
X9786269D01*
Y1224981D01*
X9783866D01*
Y1222578D01*
Y1220176D01*
Y1217773D01*
Y1215371D01*
Y1212968D01*
X9745427D01*
Y1215371D01*
Y1217773D01*
Y1220176D01*
X9747830D01*
Y1222578D01*
Y1224981D01*
Y1227383D01*
Y1229785D01*
X9750232D01*
Y1232188D01*
X9752635D01*
Y1234590D01*
Y1236993D01*
X9755037D01*
Y1239395D01*
X9757439D01*
Y1241798D01*
X9759842D01*
Y1244200D01*
X9764647D01*
Y1246603D01*
X9769452D01*
Y1249005D01*
X9774257D01*
Y1251407D01*
X9783866D01*
Y1253810D01*
X9795879D01*
Y1256212D01*
X9827110D01*
Y1253810D01*
D02*
G37*
G36*
X9250524D02*
X9267341D01*
Y1251407D01*
X9276950D01*
Y1249005D01*
X9281755D01*
Y1246603D01*
X9286560D01*
Y1244200D01*
X9291365D01*
Y1241798D01*
X9296170D01*
Y1239395D01*
X9298572D01*
Y1236993D01*
X9303377D01*
Y1234590D01*
Y1232188D01*
X9300975D01*
Y1229785D01*
X9298572D01*
Y1227383D01*
X9296170D01*
Y1224981D01*
X9293768D01*
Y1222578D01*
X9291365D01*
Y1220176D01*
X9288963D01*
Y1217773D01*
X9286560D01*
Y1215371D01*
X9284157D01*
Y1217773D01*
X9279353D01*
Y1220176D01*
X9276950D01*
Y1222578D01*
X9272146D01*
Y1224981D01*
X9264938D01*
Y1227383D01*
X9252926D01*
Y1229785D01*
X9216889D01*
Y1227383D01*
X9212084D01*
Y1224981D01*
X9209682D01*
Y1222578D01*
X9207279D01*
Y1220176D01*
Y1217773D01*
Y1215371D01*
X9209682D01*
Y1212968D01*
X9171243D01*
Y1215371D01*
Y1217773D01*
Y1220176D01*
Y1222578D01*
Y1224981D01*
X9173645D01*
Y1227383D01*
Y1229785D01*
Y1232188D01*
X9176048D01*
Y1234590D01*
X9178450D01*
Y1236993D01*
X9180852D01*
Y1239395D01*
X9183255D01*
Y1241798D01*
X9185658D01*
Y1244200D01*
X9188060D01*
Y1246603D01*
X9192865D01*
Y1249005D01*
X9200072D01*
Y1251407D01*
X9207279D01*
Y1253810D01*
X9221694D01*
Y1256212D01*
X9250524D01*
Y1253810D01*
D02*
G37*
G36*
X10129818D02*
X10141830D01*
Y1251407D01*
X10149038D01*
Y1249005D01*
X10156245D01*
Y1246603D01*
X10161050D01*
Y1244200D01*
X10165855D01*
Y1241798D01*
X10168258D01*
Y1239395D01*
X10173062D01*
Y1236993D01*
X10175465D01*
Y1234590D01*
X10177867D01*
Y1232188D01*
X10180270D01*
Y1229785D01*
Y1227383D01*
X10182672D01*
Y1224981D01*
X10185075D01*
Y1222578D01*
Y1220176D01*
X10187477D01*
Y1217773D01*
Y1215371D01*
X10189880D01*
Y1212968D01*
X10146636D01*
Y1215371D01*
X10144233D01*
Y1217773D01*
X10141830D01*
Y1220176D01*
X10139428D01*
Y1222578D01*
X10134623D01*
Y1224981D01*
X10129818D01*
Y1227383D01*
X10100989D01*
Y1224981D01*
X10096184D01*
Y1222578D01*
X10091379D01*
Y1220176D01*
X10088977D01*
Y1217773D01*
X10086574D01*
Y1215371D01*
Y1212968D01*
X10040928D01*
Y1215371D01*
X10043330D01*
Y1217773D01*
Y1220176D01*
X10045733D01*
Y1222578D01*
Y1224981D01*
X10048135D01*
Y1227383D01*
X10050538D01*
Y1229785D01*
Y1232188D01*
X10052940D01*
Y1234590D01*
X10055343D01*
Y1236993D01*
X10060147D01*
Y1239395D01*
X10062550D01*
Y1241798D01*
X10064952D01*
Y1244200D01*
X10069757D01*
Y1246603D01*
X10074562D01*
Y1249005D01*
X10081770D01*
Y1251407D01*
X10088977D01*
Y1253810D01*
X10100989D01*
Y1256212D01*
X10129818D01*
Y1253810D01*
D02*
G37*
G36*
X9673354D02*
X9687768D01*
Y1251407D01*
X9694976D01*
Y1249005D01*
X9699781D01*
Y1246603D01*
X9704586D01*
Y1244200D01*
X9709391D01*
Y1241798D01*
X9711793D01*
Y1239395D01*
X9716598D01*
Y1236993D01*
X9719000D01*
Y1234590D01*
X9721403D01*
Y1232188D01*
Y1229785D01*
X9723805D01*
Y1227383D01*
X9726208D01*
Y1224981D01*
Y1222578D01*
X9728610D01*
Y1220176D01*
Y1217773D01*
X9731013D01*
Y1215371D01*
Y1212968D01*
X9692573D01*
Y1215371D01*
Y1217773D01*
X9690171D01*
Y1220176D01*
Y1222578D01*
X9687768D01*
Y1224981D01*
X9685366D01*
Y1227383D01*
X9680561D01*
Y1229785D01*
X9673354D01*
Y1232188D01*
X9644525D01*
Y1229785D01*
X9639720D01*
Y1227383D01*
X9634915D01*
Y1224981D01*
X9632512D01*
Y1222578D01*
X9630110D01*
Y1220176D01*
X9627707D01*
Y1217773D01*
Y1215371D01*
X9625305D01*
Y1212968D01*
X9589268D01*
Y1215371D01*
Y1217773D01*
X9591671D01*
Y1220176D01*
Y1222578D01*
X9594073D01*
Y1224981D01*
Y1227383D01*
X9596476D01*
Y1229785D01*
X9598878D01*
Y1232188D01*
X9601281D01*
Y1234590D01*
X9603683D01*
Y1236993D01*
X9606085D01*
Y1239395D01*
X9608488D01*
Y1241798D01*
X9610890D01*
Y1244200D01*
X9615695D01*
Y1246603D01*
X9620500D01*
Y1249005D01*
X9625305D01*
Y1251407D01*
X9634915D01*
Y1253810D01*
X9646927D01*
Y1256212D01*
X9673354D01*
Y1253810D01*
D02*
G37*
G36*
X9096767D02*
X9111181D01*
Y1251407D01*
X9118389D01*
Y1249005D01*
X9123194D01*
Y1246603D01*
X9127999D01*
Y1244200D01*
X9132804D01*
Y1241798D01*
X9135206D01*
Y1239395D01*
X9137609D01*
Y1236993D01*
X9142413D01*
Y1234590D01*
Y1232188D01*
X9144816D01*
Y1229785D01*
X9147218D01*
Y1227383D01*
X9149621D01*
Y1224981D01*
Y1222578D01*
X9152023D01*
Y1220176D01*
Y1217773D01*
X9154426D01*
Y1215371D01*
Y1212968D01*
X9115987D01*
Y1215371D01*
Y1217773D01*
X9113584D01*
Y1220176D01*
Y1222578D01*
X9111181D01*
Y1224981D01*
X9106377D01*
Y1227383D01*
X9103974D01*
Y1229785D01*
X9096767D01*
Y1232188D01*
X9067937D01*
Y1229785D01*
X9063133D01*
Y1227383D01*
X9058328D01*
Y1224981D01*
X9055925D01*
Y1222578D01*
X9053523D01*
Y1220176D01*
X9051121D01*
Y1217773D01*
Y1215371D01*
X9048718D01*
Y1212968D01*
X9012681D01*
Y1215371D01*
Y1217773D01*
X9015084D01*
Y1220176D01*
Y1222578D01*
X9017486D01*
Y1224981D01*
Y1227383D01*
X9019889D01*
Y1229785D01*
X9022291D01*
Y1232188D01*
X9024694D01*
Y1234590D01*
X9027096D01*
Y1236993D01*
X9029498D01*
Y1239395D01*
X9031901D01*
Y1241798D01*
X9034303D01*
Y1244200D01*
X9039108D01*
Y1246603D01*
X9043913D01*
Y1249005D01*
X9048718D01*
Y1251407D01*
X9058328D01*
Y1253810D01*
X9070340D01*
Y1256212D01*
X9096767D01*
Y1253810D01*
D02*
G37*
G36*
X9913960Y1166460D02*
X9914806Y1166319D01*
X9915652Y1166178D01*
X9916780Y1166037D01*
Y1153209D01*
X9916639D01*
X9916075Y1153350D01*
X9915370D01*
X9914524Y1153491D01*
X9912409Y1153632D01*
X9911423Y1153773D01*
X9909731D01*
X9908885Y1153632D01*
X9907757Y1153491D01*
X9906489Y1153209D01*
X9905361Y1152786D01*
X9904233Y1152222D01*
X9903387Y1151376D01*
X9903528D01*
X9903669Y1151094D01*
X9904374Y1150389D01*
X9905361Y1149262D01*
X9906630Y1147570D01*
X9907757Y1145596D01*
X9908744Y1143059D01*
X9909449Y1140240D01*
X9909731Y1138689D01*
Y1136997D01*
Y1136715D01*
Y1136010D01*
X9909590Y1134742D01*
X9909308Y1133332D01*
X9908885Y1131499D01*
X9908321Y1129667D01*
X9907616Y1127693D01*
X9906489Y1125861D01*
X9906348Y1125579D01*
X9905925Y1125015D01*
X9905220Y1124169D01*
X9904233Y1123041D01*
X9902964Y1121772D01*
X9901414Y1120504D01*
X9899722Y1119235D01*
X9897608Y1118107D01*
X9897326Y1117966D01*
X9896621Y1117684D01*
X9895352Y1117261D01*
X9893801Y1116839D01*
X9891828Y1116275D01*
X9889431Y1115852D01*
X9886894Y1115570D01*
X9884074Y1115429D01*
X9882947D01*
X9881537Y1115570D01*
X9879845Y1115711D01*
X9878013Y1115993D01*
X9876039Y1116275D01*
X9874066Y1116839D01*
X9872233Y1117543D01*
X9872092D01*
X9871951Y1117402D01*
X9871387Y1116839D01*
X9870682Y1115711D01*
X9870541Y1115147D01*
X9870400Y1114301D01*
Y1114160D01*
X9870541Y1113596D01*
X9870823Y1113032D01*
X9871387Y1112186D01*
X9872233Y1111482D01*
X9873643Y1110777D01*
X9874629Y1110495D01*
X9875616Y1110213D01*
X9876744Y1110072D01*
X9895634D01*
X9896480Y1109931D01*
X9897467Y1109790D01*
X9899863Y1109508D01*
X9902542Y1108944D01*
X9905220Y1108098D01*
X9907898Y1106830D01*
X9910295Y1105279D01*
X9910577Y1104997D01*
X9911141Y1104433D01*
X9912127Y1103305D01*
X9913255Y1101896D01*
X9914242Y1099922D01*
X9915229Y1097667D01*
X9915793Y1094988D01*
X9916075Y1091887D01*
Y1091746D01*
Y1091464D01*
Y1090900D01*
X9915934Y1090195D01*
X9915793Y1089349D01*
X9915652Y1088363D01*
X9915088Y1086248D01*
X9913960Y1083711D01*
X9913396Y1082442D01*
X9912550Y1081032D01*
X9911564Y1079763D01*
X9910436Y1078495D01*
X9909167Y1077367D01*
X9907616Y1076239D01*
X9907475D01*
X9907194Y1075957D01*
X9906771Y1075675D01*
X9906066Y1075393D01*
X9905220Y1074970D01*
X9904092Y1074407D01*
X9902823Y1073843D01*
X9901414Y1073420D01*
X9899722Y1072856D01*
X9897890Y1072292D01*
X9895916Y1071869D01*
X9893660Y1071305D01*
X9891264Y1071023D01*
X9888726Y1070741D01*
X9886048Y1070459D01*
X9881678D01*
X9880691Y1070600D01*
X9879422D01*
X9878013Y1070741D01*
X9876462Y1070882D01*
X9874770Y1071023D01*
X9871105Y1071587D01*
X9867440Y1072433D01*
X9863916Y1073420D01*
X9862365Y1074125D01*
X9860955Y1074970D01*
X9860814D01*
X9860673Y1075252D01*
X9859828Y1075816D01*
X9858700Y1076803D01*
X9857431Y1078213D01*
X9856162Y1079904D01*
X9855035Y1082019D01*
X9854189Y1084415D01*
X9854048Y1085684D01*
X9853907Y1087094D01*
Y1087235D01*
Y1087799D01*
X9854048Y1088645D01*
X9854189Y1089631D01*
X9854612Y1090759D01*
X9855035Y1092028D01*
X9855739Y1093437D01*
X9856585Y1094706D01*
X9856726Y1094847D01*
X9857149Y1095270D01*
X9857713Y1095834D01*
X9858559Y1096398D01*
X9859546Y1097103D01*
X9860814Y1097808D01*
X9862224Y1098230D01*
X9863775Y1098653D01*
X9863634D01*
X9863493Y1098794D01*
X9862647Y1099076D01*
X9861378Y1099781D01*
X9860110Y1100768D01*
X9858700Y1102178D01*
X9857431Y1104010D01*
X9856585Y1106407D01*
X9856444Y1107675D01*
X9856303Y1109226D01*
Y1109508D01*
Y1110072D01*
X9856444Y1110918D01*
X9856585Y1112186D01*
X9856867Y1113455D01*
X9857431Y1114865D01*
X9857995Y1116275D01*
X9858841Y1117543D01*
X9858982Y1117684D01*
X9859264Y1118107D01*
X9859969Y1118671D01*
X9860673Y1119376D01*
X9861660Y1120081D01*
X9862788Y1120927D01*
X9864198Y1121491D01*
X9865607Y1122054D01*
X9865466Y1122195D01*
X9865044Y1122336D01*
X9864480Y1122759D01*
X9863775Y1123464D01*
X9862929Y1124169D01*
X9862083Y1125156D01*
X9861237Y1126424D01*
X9860392Y1127834D01*
X9860251Y1127975D01*
X9860110Y1128539D01*
X9859828Y1129385D01*
X9859405Y1130513D01*
X9858982Y1131922D01*
X9858700Y1133473D01*
X9858559Y1135165D01*
X9858418Y1136997D01*
Y1137138D01*
Y1137420D01*
Y1137843D01*
X9858559Y1138548D01*
X9858700Y1139394D01*
X9858841Y1140240D01*
X9859264Y1142495D01*
X9860110Y1144892D01*
X9861378Y1147429D01*
X9862083Y1148698D01*
X9863070Y1149966D01*
X9864057Y1151094D01*
X9865325Y1152222D01*
X9865466Y1152363D01*
X9865607Y1152504D01*
X9866030Y1152786D01*
X9866594Y1153209D01*
X9867299Y1153632D01*
X9868145Y1154055D01*
X9869132Y1154618D01*
X9870259Y1155182D01*
X9872938Y1156310D01*
X9876180Y1157156D01*
X9879845Y1157861D01*
X9884074Y1158143D01*
X9885343D01*
X9886612Y1158002D01*
X9888304Y1157861D01*
X9890136Y1157579D01*
X9892110Y1157156D01*
X9894083Y1156592D01*
X9895775Y1155887D01*
Y1156028D01*
X9896057Y1156592D01*
X9896339Y1157438D01*
X9896903Y1158425D01*
X9897608Y1159693D01*
X9898453Y1160821D01*
X9899722Y1162090D01*
X9901132Y1163359D01*
X9901273Y1163500D01*
X9901978Y1163922D01*
X9902823Y1164345D01*
X9904092Y1165050D01*
X9905784Y1165614D01*
X9907616Y1166037D01*
X9909731Y1166460D01*
X9912127Y1166601D01*
X9913255D01*
X9913960Y1166460D01*
D02*
G37*
G36*
X9633148Y1183517D02*
X9634417Y1183376D01*
X9635967Y1183235D01*
X9637800Y1182953D01*
X9639632Y1182671D01*
X9643580Y1181544D01*
X9645694Y1180980D01*
X9647809Y1180134D01*
X9649923Y1179147D01*
X9651897Y1178019D01*
X9653870Y1176751D01*
X9655703Y1175200D01*
X9655844Y1175059D01*
X9656126Y1174777D01*
X9656549Y1174354D01*
X9657254Y1173649D01*
X9657959Y1172804D01*
X9658804Y1171817D01*
X9659650Y1170548D01*
X9660637Y1169138D01*
X9661624Y1167588D01*
X9662611Y1165755D01*
X9663597Y1163782D01*
X9664443Y1161667D01*
X9665289Y1159411D01*
X9665994Y1157015D01*
X9666558Y1154337D01*
X9666981Y1151517D01*
X9648937Y1148980D01*
Y1149121D01*
Y1149403D01*
X9648796Y1149966D01*
X9648655Y1150671D01*
X9648514Y1151376D01*
X9648232Y1152363D01*
X9647668Y1154477D01*
X9646822Y1156874D01*
X9645835Y1159270D01*
X9644425Y1161667D01*
X9642734Y1163641D01*
X9642452Y1163922D01*
X9641888Y1164486D01*
X9640760Y1165191D01*
X9639351Y1166178D01*
X9637518Y1167024D01*
X9635262Y1167870D01*
X9632725Y1168434D01*
X9629906Y1168574D01*
X9628919D01*
X9628214Y1168434D01*
X9627368Y1168293D01*
X9626381Y1168152D01*
X9623985Y1167588D01*
X9621447Y1166601D01*
X9620038Y1166037D01*
X9618769Y1165191D01*
X9617359Y1164204D01*
X9616090Y1163218D01*
X9614822Y1161949D01*
X9613694Y1160539D01*
Y1160398D01*
X9613412Y1160116D01*
X9613130Y1159693D01*
X9612707Y1159130D01*
X9612284Y1158284D01*
X9611861Y1157297D01*
X9611298Y1156169D01*
X9610734Y1154759D01*
X9610170Y1153350D01*
X9609606Y1151658D01*
X9609183Y1149825D01*
X9608760Y1147852D01*
X9608337Y1145737D01*
X9608055Y1143482D01*
X9607914Y1141085D01*
X9607773Y1138548D01*
Y1138407D01*
Y1137984D01*
Y1137279D01*
X9607914Y1136292D01*
Y1135024D01*
X9608055Y1133755D01*
X9608337Y1132204D01*
X9608478Y1130513D01*
X9609183Y1126988D01*
X9610311Y1123323D01*
X9611720Y1119658D01*
X9613694Y1116275D01*
X9613835Y1116134D01*
X9613976Y1115993D01*
X9614258Y1115570D01*
X9614822Y1115006D01*
X9616231Y1113737D01*
X9618064Y1112186D01*
X9620461Y1110636D01*
X9623280Y1109367D01*
X9624831Y1108803D01*
X9626522Y1108521D01*
X9628355Y1108239D01*
X9630328Y1108098D01*
X9631033D01*
X9631597Y1108239D01*
X9633007Y1108380D01*
X9634699Y1108662D01*
X9636672Y1109226D01*
X9638787Y1110072D01*
X9640760Y1111200D01*
X9642734Y1112750D01*
X9643016Y1113032D01*
X9643580Y1113596D01*
X9644425Y1114724D01*
X9645553Y1116416D01*
X9646681Y1118389D01*
X9647809Y1120927D01*
X9648796Y1123887D01*
X9649641Y1127411D01*
X9667122Y1123887D01*
Y1123746D01*
X9666981Y1123182D01*
X9666840Y1122477D01*
X9666558Y1121491D01*
X9666135Y1120222D01*
X9665712Y1118812D01*
X9665148Y1117261D01*
X9664443Y1115429D01*
X9662893Y1111764D01*
X9660637Y1107957D01*
X9658100Y1104292D01*
X9656549Y1102601D01*
X9654857Y1101050D01*
X9654716Y1100909D01*
X9654434Y1100768D01*
X9653870Y1100345D01*
X9653166Y1099781D01*
X9652179Y1099217D01*
X9651051Y1098512D01*
X9649782Y1097808D01*
X9648232Y1097103D01*
X9646540Y1096257D01*
X9644707Y1095552D01*
X9642734Y1094847D01*
X9640478Y1094283D01*
X9638223Y1093719D01*
X9635685Y1093297D01*
X9633007Y1093156D01*
X9630187Y1093015D01*
X9628919D01*
X9627932Y1093156D01*
X9626804D01*
X9625535Y1093297D01*
X9623985Y1093437D01*
X9622434Y1093719D01*
X9618910Y1094424D01*
X9615104Y1095411D01*
X9611438Y1096821D01*
X9607773Y1098794D01*
X9607632Y1098935D01*
X9607350Y1099076D01*
X9606927Y1099358D01*
X9606223Y1099922D01*
X9604672Y1101191D01*
X9602698Y1103023D01*
X9600443Y1105279D01*
X9598187Y1107957D01*
X9595932Y1111200D01*
X9594099Y1114865D01*
Y1115006D01*
X9593958Y1115288D01*
X9593676Y1115852D01*
X9593394Y1116698D01*
X9593112Y1117684D01*
X9592689Y1118812D01*
X9592267Y1120222D01*
X9591844Y1121631D01*
X9591421Y1123323D01*
X9590998Y1125156D01*
X9590293Y1129103D01*
X9589729Y1133614D01*
X9589588Y1138407D01*
Y1138548D01*
Y1138971D01*
Y1139676D01*
X9589729Y1140662D01*
Y1141790D01*
X9589870Y1143200D01*
X9590011Y1144751D01*
X9590152Y1146442D01*
X9590716Y1150107D01*
X9591562Y1154055D01*
X9592830Y1158002D01*
X9594381Y1161949D01*
Y1162090D01*
X9594663Y1162372D01*
X9594945Y1162936D01*
X9595227Y1163641D01*
X9595791Y1164486D01*
X9596355Y1165473D01*
X9597905Y1167870D01*
X9599879Y1170407D01*
X9602275Y1173086D01*
X9605095Y1175623D01*
X9608337Y1177879D01*
X9608478D01*
X9608760Y1178160D01*
X9609324Y1178442D01*
X9610029Y1178724D01*
X9610875Y1179288D01*
X9612002Y1179711D01*
X9613130Y1180275D01*
X9614540Y1180839D01*
X9616090Y1181262D01*
X9617782Y1181826D01*
X9621588Y1182812D01*
X9625817Y1183376D01*
X9630469Y1183658D01*
X9632020D01*
X9633148Y1183517D01*
D02*
G37*
G36*
X9231242Y1158002D02*
X9233075Y1157579D01*
X9235049Y1157156D01*
X9237304Y1156451D01*
X9239560Y1155464D01*
X9241674Y1154055D01*
X9241956Y1153914D01*
X9242661Y1153350D01*
X9243648Y1152363D01*
X9244916Y1151094D01*
X9246326Y1149544D01*
X9247877Y1147570D01*
X9249287Y1145173D01*
X9250555Y1142636D01*
Y1142495D01*
X9250696Y1142354D01*
X9250837Y1141931D01*
X9250978Y1141367D01*
X9251542Y1139817D01*
X9252106Y1137843D01*
X9252670Y1135447D01*
X9253234Y1132627D01*
X9253516Y1129385D01*
X9253657Y1126002D01*
Y1125861D01*
Y1125579D01*
Y1125015D01*
Y1124451D01*
X9253516Y1123605D01*
Y1122618D01*
X9253234Y1120222D01*
X9252811Y1117684D01*
X9252247Y1114724D01*
X9251542Y1111764D01*
X9250414Y1108944D01*
Y1108803D01*
X9250273Y1108662D01*
X9250132Y1108239D01*
X9249850Y1107675D01*
X9249146Y1106407D01*
X9248018Y1104715D01*
X9246749Y1102882D01*
X9245198Y1101050D01*
X9243366Y1099217D01*
X9241251Y1097526D01*
X9240969Y1097385D01*
X9240264Y1096962D01*
X9238996Y1096257D01*
X9237445Y1095552D01*
X9235471Y1094847D01*
X9233216Y1094142D01*
X9230679Y1093719D01*
X9227859Y1093578D01*
X9226731D01*
X9225604Y1093719D01*
X9224053Y1094001D01*
X9222220Y1094283D01*
X9220388Y1094706D01*
X9218414Y1095411D01*
X9216582Y1096398D01*
X9216441Y1096539D01*
X9215877Y1096962D01*
X9215031Y1097526D01*
X9214185Y1098371D01*
X9213198Y1099358D01*
X9212493Y1100627D01*
X9211789Y1101896D01*
X9211507Y1103446D01*
Y1071869D01*
X9194731D01*
Y1156733D01*
X9210802D01*
Y1146724D01*
X9210943Y1147288D01*
X9211225Y1148275D01*
X9211648Y1149403D01*
X9212352Y1150812D01*
X9213339Y1152222D01*
X9214749Y1153632D01*
X9216441Y1154900D01*
X9216722Y1155041D01*
X9217427Y1155464D01*
X9218414Y1155887D01*
X9219965Y1156592D01*
X9221656Y1157156D01*
X9223771Y1157579D01*
X9226027Y1158002D01*
X9228564Y1158143D01*
X9229833D01*
X9231242Y1158002D01*
D02*
G37*
G36*
X9849396D02*
X9850665Y1157720D01*
Y1141931D01*
X9847422Y1142072D01*
X9846154D01*
X9844885Y1141931D01*
X9843193Y1141649D01*
X9841361Y1141085D01*
X9839528Y1140380D01*
X9837695Y1139394D01*
X9836004Y1138125D01*
X9835863Y1137984D01*
X9835581Y1137561D01*
X9835017Y1136997D01*
X9834453Y1136151D01*
X9833748Y1135165D01*
X9833043Y1134037D01*
X9832479Y1132627D01*
X9832057Y1131076D01*
Y1130936D01*
X9831916Y1130372D01*
X9831775Y1129526D01*
X9831634Y1128257D01*
X9831352Y1126847D01*
X9831211Y1125156D01*
X9831070Y1123182D01*
Y1121068D01*
Y1094988D01*
X9814294D01*
Y1156733D01*
X9830083D01*
Y1142777D01*
X9830224Y1143623D01*
X9830365Y1144892D01*
X9830788Y1146442D01*
X9831352Y1148134D01*
X9832198Y1149966D01*
X9833466Y1151799D01*
X9835158Y1153632D01*
X9835440Y1153773D01*
X9836004Y1154337D01*
X9837131Y1155041D01*
X9838682Y1155887D01*
X9840515Y1156733D01*
X9842629Y1157438D01*
X9845026Y1158002D01*
X9847704Y1158143D01*
X9848550D01*
X9849396Y1158002D01*
D02*
G37*
G36*
X9300459D02*
X9301727Y1157720D01*
Y1141931D01*
X9298485Y1142072D01*
X9297216D01*
X9295948Y1141931D01*
X9294256Y1141649D01*
X9292423Y1141085D01*
X9290591Y1140380D01*
X9288758Y1139394D01*
X9287067Y1138125D01*
X9286926Y1137984D01*
X9286644Y1137561D01*
X9286080Y1136997D01*
X9285516Y1136151D01*
X9284811Y1135165D01*
X9284106Y1134037D01*
X9283542Y1132627D01*
X9283119Y1131076D01*
Y1130936D01*
X9282978Y1130372D01*
X9282837Y1129526D01*
X9282696Y1128257D01*
X9282415Y1126847D01*
X9282274Y1125156D01*
X9282133Y1123182D01*
Y1121068D01*
Y1094988D01*
X9265357D01*
Y1156733D01*
X9281146D01*
Y1142777D01*
X9281287Y1143623D01*
X9281428Y1144892D01*
X9281851Y1146442D01*
X9282415Y1148134D01*
X9283260Y1149966D01*
X9284529Y1151799D01*
X9286221Y1153632D01*
X9286503Y1153773D01*
X9287067Y1154337D01*
X9288194Y1155041D01*
X9289745Y1155887D01*
X9291578Y1156733D01*
X9293692Y1157438D01*
X9296089Y1158002D01*
X9298767Y1158143D01*
X9299613D01*
X9300459Y1158002D01*
D02*
G37*
G36*
X9461587D02*
X9462574D01*
X9464830Y1157720D01*
X9467508Y1157156D01*
X9470328Y1156451D01*
X9473288Y1155464D01*
X9475966Y1154196D01*
X9476107D01*
X9476248Y1154055D01*
X9477094Y1153491D01*
X9478363Y1152645D01*
X9479773Y1151376D01*
X9481323Y1149685D01*
X9482874Y1147711D01*
X9484284Y1145314D01*
X9485411Y1142636D01*
X9473711Y1136715D01*
X9473570Y1136856D01*
X9473288Y1137420D01*
X9472724Y1138266D01*
X9471878Y1139253D01*
X9470891Y1140240D01*
X9469905Y1141367D01*
X9468636Y1142354D01*
X9467226Y1143200D01*
X9467085Y1143341D01*
X9466521Y1143482D01*
X9465816Y1143905D01*
X9464689Y1144328D01*
X9463420Y1144610D01*
X9461869Y1145033D01*
X9460178Y1145173D01*
X9458345Y1145314D01*
X9457640D01*
X9456794Y1145173D01*
X9455808D01*
X9453411Y1144610D01*
X9452424Y1144328D01*
X9451438Y1143764D01*
X9451297D01*
X9451156Y1143482D01*
X9450310Y1142777D01*
X9449605Y1141367D01*
X9449323Y1140521D01*
X9449182Y1139535D01*
Y1139394D01*
Y1139112D01*
X9449323Y1138689D01*
Y1138125D01*
X9449887Y1136856D01*
X9450169Y1136292D01*
X9450733Y1135728D01*
X9450874D01*
X9451015Y1135588D01*
X9451860Y1135024D01*
X9452988Y1134460D01*
X9454539Y1134037D01*
X9467649Y1131640D01*
X9467790D01*
X9468072Y1131499D01*
X9468495D01*
X9469200Y1131358D01*
X9470750Y1130936D01*
X9472724Y1130372D01*
X9474839Y1129526D01*
X9477094Y1128398D01*
X9479068Y1127129D01*
X9480900Y1125579D01*
X9481041Y1125438D01*
X9481605Y1124733D01*
X9482310Y1123746D01*
X9483015Y1122336D01*
X9483861Y1120645D01*
X9484425Y1118530D01*
X9484988Y1116134D01*
X9485129Y1113455D01*
Y1113314D01*
Y1113032D01*
Y1112609D01*
X9484988Y1111905D01*
X9484706Y1110213D01*
X9484284Y1108239D01*
X9483438Y1105843D01*
X9482169Y1103446D01*
X9481464Y1102319D01*
X9480477Y1101050D01*
X9479491Y1099922D01*
X9478222Y1098935D01*
X9478081D01*
X9477940Y1098653D01*
X9477517Y1098512D01*
X9476953Y1098089D01*
X9476248Y1097667D01*
X9475402Y1097244D01*
X9474416Y1096821D01*
X9473288Y1096257D01*
X9470609Y1095270D01*
X9467508Y1094424D01*
X9463702Y1093860D01*
X9459473Y1093578D01*
X9458486D01*
X9457640Y1093719D01*
X9456794D01*
X9455667Y1093860D01*
X9453270Y1094142D01*
X9450451Y1094706D01*
X9447349Y1095411D01*
X9444248Y1096539D01*
X9441288Y1097949D01*
X9441147D01*
X9441006Y1098089D01*
X9440019Y1098794D01*
X9438750Y1099781D01*
X9437200Y1101332D01*
X9435508Y1103164D01*
X9433675Y1105561D01*
X9432125Y1108239D01*
X9430856Y1111482D01*
X9443402Y1116979D01*
X9443543Y1116698D01*
X9443825Y1116134D01*
X9444389Y1115006D01*
X9445094Y1113878D01*
X9445940Y1112468D01*
X9447067Y1111200D01*
X9448336Y1109931D01*
X9449746Y1108803D01*
X9449887Y1108662D01*
X9450451Y1108380D01*
X9451297Y1107957D01*
X9452565Y1107534D01*
X9453975Y1107112D01*
X9455667Y1106689D01*
X9457640Y1106407D01*
X9459755Y1106266D01*
X9460601D01*
X9461446Y1106407D01*
X9462574Y1106548D01*
X9464971Y1106971D01*
X9466098Y1107394D01*
X9467085Y1107957D01*
X9467226Y1108098D01*
X9467508Y1108239D01*
X9467931Y1108662D01*
X9468354Y1109226D01*
X9469200Y1110636D01*
X9469482Y1111623D01*
X9469623Y1112609D01*
Y1112750D01*
Y1113032D01*
X9469482Y1113455D01*
Y1114019D01*
X9468918Y1115147D01*
X9468495Y1115711D01*
X9467931Y1116275D01*
X9467649Y1116557D01*
X9467226Y1116698D01*
X9466662Y1116979D01*
X9465957Y1117261D01*
X9465112Y1117684D01*
X9464125Y1117966D01*
X9462856Y1118248D01*
X9451579Y1120081D01*
X9451438D01*
X9450874Y1120222D01*
X9449887Y1120504D01*
X9448759Y1120786D01*
X9447490Y1121350D01*
X9445940Y1121913D01*
X9444248Y1122759D01*
X9442697Y1123605D01*
X9441006Y1124733D01*
X9439314Y1126002D01*
X9437763Y1127552D01*
X9436495Y1129244D01*
X9435367Y1131217D01*
X9434380Y1133473D01*
X9433816Y1136010D01*
X9433675Y1138689D01*
Y1138830D01*
Y1139112D01*
Y1139535D01*
X9433816Y1140099D01*
X9434098Y1141790D01*
X9434521Y1143764D01*
X9435367Y1146019D01*
X9436636Y1148275D01*
X9437341Y1149544D01*
X9438327Y1150671D01*
X9439314Y1151799D01*
X9440583Y1152786D01*
X9440724D01*
X9440865Y1153068D01*
X9441288Y1153350D01*
X9441852Y1153632D01*
X9442556Y1154055D01*
X9443402Y1154477D01*
X9444389Y1154900D01*
X9445517Y1155464D01*
X9448195Y1156451D01*
X9451297Y1157297D01*
X9454962Y1157861D01*
X9459050Y1158143D01*
X9460742D01*
X9461587Y1158002D01*
D02*
G37*
G36*
X9401252D02*
X9402239D01*
X9404495Y1157720D01*
X9407173Y1157156D01*
X9409992Y1156451D01*
X9412953Y1155464D01*
X9415631Y1154196D01*
X9415772D01*
X9415913Y1154055D01*
X9416759Y1153491D01*
X9418028Y1152645D01*
X9419437Y1151376D01*
X9420988Y1149685D01*
X9422539Y1147711D01*
X9423948Y1145314D01*
X9425076Y1142636D01*
X9413376Y1136715D01*
X9413235Y1136856D01*
X9412953Y1137420D01*
X9412389Y1138266D01*
X9411543Y1139253D01*
X9410556Y1140240D01*
X9409569Y1141367D01*
X9408301Y1142354D01*
X9406891Y1143200D01*
X9406750Y1143341D01*
X9406186Y1143482D01*
X9405481Y1143905D01*
X9404354Y1144328D01*
X9403085Y1144610D01*
X9401534Y1145033D01*
X9399843Y1145173D01*
X9398010Y1145314D01*
X9397305D01*
X9396459Y1145173D01*
X9395472D01*
X9393076Y1144610D01*
X9392089Y1144328D01*
X9391102Y1143764D01*
X9390961D01*
X9390820Y1143482D01*
X9389975Y1142777D01*
X9389270Y1141367D01*
X9388988Y1140521D01*
X9388847Y1139535D01*
Y1139394D01*
Y1139112D01*
X9388988Y1138689D01*
Y1138125D01*
X9389552Y1136856D01*
X9389834Y1136292D01*
X9390398Y1135728D01*
X9390538D01*
X9390679Y1135588D01*
X9391525Y1135024D01*
X9392653Y1134460D01*
X9394204Y1134037D01*
X9407314Y1131640D01*
X9407455D01*
X9407737Y1131499D01*
X9408160D01*
X9408865Y1131358D01*
X9410415Y1130936D01*
X9412389Y1130372D01*
X9414503Y1129526D01*
X9416759Y1128398D01*
X9418732Y1127129D01*
X9420565Y1125579D01*
X9420706Y1125438D01*
X9421270Y1124733D01*
X9421975Y1123746D01*
X9422680Y1122336D01*
X9423525Y1120645D01*
X9424089Y1118530D01*
X9424653Y1116134D01*
X9424794Y1113455D01*
Y1113314D01*
Y1113032D01*
Y1112609D01*
X9424653Y1111905D01*
X9424371Y1110213D01*
X9423948Y1108239D01*
X9423103Y1105843D01*
X9421834Y1103446D01*
X9421129Y1102319D01*
X9420142Y1101050D01*
X9419155Y1099922D01*
X9417887Y1098935D01*
X9417746D01*
X9417605Y1098653D01*
X9417182Y1098512D01*
X9416618Y1098089D01*
X9415913Y1097667D01*
X9415067Y1097244D01*
X9414080Y1096821D01*
X9412953Y1096257D01*
X9410274Y1095270D01*
X9407173Y1094424D01*
X9403367Y1093860D01*
X9399138Y1093578D01*
X9398151D01*
X9397305Y1093719D01*
X9396459D01*
X9395331Y1093860D01*
X9392935Y1094142D01*
X9390116Y1094706D01*
X9387014Y1095411D01*
X9383913Y1096539D01*
X9380953Y1097949D01*
X9380812D01*
X9380671Y1098089D01*
X9379684Y1098794D01*
X9378415Y1099781D01*
X9376864Y1101332D01*
X9375173Y1103164D01*
X9373340Y1105561D01*
X9371789Y1108239D01*
X9370521Y1111482D01*
X9383067Y1116979D01*
X9383208Y1116698D01*
X9383490Y1116134D01*
X9384054Y1115006D01*
X9384759Y1113878D01*
X9385605Y1112468D01*
X9386732Y1111200D01*
X9388001Y1109931D01*
X9389411Y1108803D01*
X9389552Y1108662D01*
X9390116Y1108380D01*
X9390961Y1107957D01*
X9392230Y1107534D01*
X9393640Y1107112D01*
X9395331Y1106689D01*
X9397305Y1106407D01*
X9399420Y1106266D01*
X9400265D01*
X9401111Y1106407D01*
X9402239Y1106548D01*
X9404635Y1106971D01*
X9405763Y1107394D01*
X9406750Y1107957D01*
X9406891Y1108098D01*
X9407173Y1108239D01*
X9407596Y1108662D01*
X9408019Y1109226D01*
X9408865Y1110636D01*
X9409147Y1111623D01*
X9409288Y1112609D01*
Y1112750D01*
Y1113032D01*
X9409147Y1113455D01*
Y1114019D01*
X9408583Y1115147D01*
X9408160Y1115711D01*
X9407596Y1116275D01*
X9407314Y1116557D01*
X9406891Y1116698D01*
X9406327Y1116979D01*
X9405622Y1117261D01*
X9404776Y1117684D01*
X9403790Y1117966D01*
X9402521Y1118248D01*
X9391243Y1120081D01*
X9391102D01*
X9390538Y1120222D01*
X9389552Y1120504D01*
X9388424Y1120786D01*
X9387155Y1121350D01*
X9385605Y1121913D01*
X9383913Y1122759D01*
X9382362Y1123605D01*
X9380671Y1124733D01*
X9378979Y1126002D01*
X9377428Y1127552D01*
X9376160Y1129244D01*
X9375032Y1131217D01*
X9374045Y1133473D01*
X9373481Y1136010D01*
X9373340Y1138689D01*
Y1138830D01*
Y1139112D01*
Y1139535D01*
X9373481Y1140099D01*
X9373763Y1141790D01*
X9374186Y1143764D01*
X9375032Y1146019D01*
X9376301Y1148275D01*
X9377005Y1149544D01*
X9377992Y1150671D01*
X9378979Y1151799D01*
X9380248Y1152786D01*
X9380389D01*
X9380530Y1153068D01*
X9380953Y1153350D01*
X9381516Y1153632D01*
X9382221Y1154055D01*
X9383067Y1154477D01*
X9384054Y1154900D01*
X9385182Y1155464D01*
X9387860Y1156451D01*
X9390961Y1157297D01*
X9394627Y1157861D01*
X9398715Y1158143D01*
X9400406D01*
X9401252Y1158002D01*
D02*
G37*
G36*
X9159489D02*
X9160475D01*
X9162731Y1157720D01*
X9165409Y1157156D01*
X9168229Y1156451D01*
X9171189Y1155464D01*
X9173868Y1154196D01*
X9174009D01*
X9174150Y1154055D01*
X9174995Y1153491D01*
X9176264Y1152645D01*
X9177674Y1151376D01*
X9179224Y1149685D01*
X9180775Y1147711D01*
X9182185Y1145314D01*
X9183313Y1142636D01*
X9171612Y1136715D01*
X9171471Y1136856D01*
X9171189Y1137420D01*
X9170625Y1138266D01*
X9169779Y1139253D01*
X9168793Y1140240D01*
X9167806Y1141367D01*
X9166537Y1142354D01*
X9165127Y1143200D01*
X9164986Y1143341D01*
X9164423Y1143482D01*
X9163718Y1143905D01*
X9162590Y1144328D01*
X9161321Y1144610D01*
X9159771Y1145033D01*
X9158079Y1145173D01*
X9156246Y1145314D01*
X9155542D01*
X9154696Y1145173D01*
X9153709D01*
X9151312Y1144610D01*
X9150326Y1144328D01*
X9149339Y1143764D01*
X9149198D01*
X9149057Y1143482D01*
X9148211Y1142777D01*
X9147506Y1141367D01*
X9147224Y1140521D01*
X9147083Y1139535D01*
Y1139394D01*
Y1139112D01*
X9147224Y1138689D01*
Y1138125D01*
X9147788Y1136856D01*
X9148070Y1136292D01*
X9148634Y1135728D01*
X9148775D01*
X9148916Y1135588D01*
X9149762Y1135024D01*
X9150889Y1134460D01*
X9152440Y1134037D01*
X9165550Y1131640D01*
X9165691D01*
X9165973Y1131499D01*
X9166396D01*
X9167101Y1131358D01*
X9168652Y1130936D01*
X9170625Y1130372D01*
X9172740Y1129526D01*
X9174995Y1128398D01*
X9176969Y1127129D01*
X9178802Y1125579D01*
X9178943Y1125438D01*
X9179506Y1124733D01*
X9180211Y1123746D01*
X9180916Y1122336D01*
X9181762Y1120645D01*
X9182326Y1118530D01*
X9182890Y1116134D01*
X9183031Y1113455D01*
Y1113314D01*
Y1113032D01*
Y1112609D01*
X9182890Y1111905D01*
X9182608Y1110213D01*
X9182185Y1108239D01*
X9181339Y1105843D01*
X9180070Y1103446D01*
X9179365Y1102319D01*
X9178379Y1101050D01*
X9177392Y1099922D01*
X9176123Y1098935D01*
X9175982D01*
X9175841Y1098653D01*
X9175418Y1098512D01*
X9174854Y1098089D01*
X9174150Y1097667D01*
X9173304Y1097244D01*
X9172317Y1096821D01*
X9171189Y1096257D01*
X9168511Y1095270D01*
X9165409Y1094424D01*
X9161603Y1093860D01*
X9157374Y1093578D01*
X9156387D01*
X9155542Y1093719D01*
X9154696D01*
X9153568Y1093860D01*
X9151171Y1094142D01*
X9148352Y1094706D01*
X9145251Y1095411D01*
X9142149Y1096539D01*
X9139189Y1097949D01*
X9139048D01*
X9138907Y1098089D01*
X9137920Y1098794D01*
X9136652Y1099781D01*
X9135101Y1101332D01*
X9133409Y1103164D01*
X9131577Y1105561D01*
X9130026Y1108239D01*
X9128757Y1111482D01*
X9141304Y1116979D01*
X9141445Y1116698D01*
X9141726Y1116134D01*
X9142290Y1115006D01*
X9142995Y1113878D01*
X9143841Y1112468D01*
X9144969Y1111200D01*
X9146237Y1109931D01*
X9147647Y1108803D01*
X9147788Y1108662D01*
X9148352Y1108380D01*
X9149198Y1107957D01*
X9150467Y1107534D01*
X9151876Y1107112D01*
X9153568Y1106689D01*
X9155542Y1106407D01*
X9157656Y1106266D01*
X9158502D01*
X9159348Y1106407D01*
X9160475Y1106548D01*
X9162872Y1106971D01*
X9164000Y1107394D01*
X9164986Y1107957D01*
X9165127Y1108098D01*
X9165409Y1108239D01*
X9165832Y1108662D01*
X9166255Y1109226D01*
X9167101Y1110636D01*
X9167383Y1111623D01*
X9167524Y1112609D01*
Y1112750D01*
Y1113032D01*
X9167383Y1113455D01*
Y1114019D01*
X9166819Y1115147D01*
X9166396Y1115711D01*
X9165832Y1116275D01*
X9165550Y1116557D01*
X9165127Y1116698D01*
X9164564Y1116979D01*
X9163859Y1117261D01*
X9163013Y1117684D01*
X9162026Y1117966D01*
X9160757Y1118248D01*
X9149480Y1120081D01*
X9149339D01*
X9148775Y1120222D01*
X9147788Y1120504D01*
X9146660Y1120786D01*
X9145392Y1121350D01*
X9143841Y1121913D01*
X9142149Y1122759D01*
X9140599Y1123605D01*
X9138907Y1124733D01*
X9137215Y1126002D01*
X9135665Y1127552D01*
X9134396Y1129244D01*
X9133268Y1131217D01*
X9132281Y1133473D01*
X9131718Y1136010D01*
X9131577Y1138689D01*
Y1138830D01*
Y1139112D01*
Y1139535D01*
X9131718Y1140099D01*
X9132000Y1141790D01*
X9132422Y1143764D01*
X9133268Y1146019D01*
X9134537Y1148275D01*
X9135242Y1149544D01*
X9136229Y1150671D01*
X9137215Y1151799D01*
X9138484Y1152786D01*
X9138625D01*
X9138766Y1153068D01*
X9139189Y1153350D01*
X9139753Y1153632D01*
X9140458Y1154055D01*
X9141304Y1154477D01*
X9142290Y1154900D01*
X9143418Y1155464D01*
X9146097Y1156451D01*
X9149198Y1157297D01*
X9152863Y1157861D01*
X9156951Y1158143D01*
X9158643D01*
X9159489Y1158002D01*
D02*
G37*
G36*
X10051547Y1094988D02*
X10034208D01*
X10012780Y1156733D01*
X10029978D01*
X10041538Y1118671D01*
X10041679Y1118389D01*
X10041820Y1117825D01*
X10042102Y1116839D01*
X10042525Y1115711D01*
X10042807Y1114442D01*
X10042870Y1114229D01*
X10043089Y1115429D01*
X10043653Y1117261D01*
X10044216Y1119235D01*
X10055776Y1156733D01*
X10072974D01*
X10051547Y1094988D01*
D02*
G37*
G36*
X10110754D02*
X10093556D01*
Y1155605D01*
X10093274Y1155182D01*
X10092992Y1154618D01*
X10092569Y1154055D01*
X10091723Y1153491D01*
X10090736Y1152927D01*
X10089327Y1152363D01*
X10089186D01*
X10088622Y1152081D01*
X10087776Y1151940D01*
X10086789Y1151658D01*
X10085521Y1151376D01*
X10084111Y1151235D01*
X10081010Y1150953D01*
X10075935D01*
Y1166460D01*
X10080728D01*
X10081291Y1166601D01*
X10082419Y1166742D01*
X10083688Y1166883D01*
X10085098Y1167306D01*
X10086789Y1167870D01*
X10088340Y1168715D01*
X10090032Y1169702D01*
X10090173Y1169843D01*
X10090736Y1170266D01*
X10091441Y1171112D01*
X10092428Y1172099D01*
X10093415Y1173508D01*
X10094543Y1175341D01*
X10095529Y1177456D01*
X10096375Y1179852D01*
X10110754D01*
Y1094988D01*
D02*
G37*
G36*
X9774682Y1158002D02*
X9775810D01*
X9777078Y1157861D01*
X9780180Y1157297D01*
X9783422Y1156592D01*
X9786805Y1155464D01*
X9790047Y1153914D01*
X9791457Y1152927D01*
X9792726Y1151799D01*
X9792867D01*
X9793008Y1151517D01*
X9793290Y1151094D01*
X9793713Y1150671D01*
X9794277Y1149966D01*
X9794840Y1149121D01*
X9795404Y1148134D01*
X9795968Y1147006D01*
X9796532Y1145737D01*
X9797096Y1144328D01*
X9797660Y1142636D01*
X9798224Y1140944D01*
X9798647Y1138971D01*
X9798929Y1136856D01*
X9799211Y1134601D01*
Y1132204D01*
Y1114583D01*
Y1114442D01*
Y1114019D01*
Y1113455D01*
Y1112609D01*
Y1111623D01*
X9799351Y1110354D01*
X9799492Y1107675D01*
X9799633Y1104574D01*
X9799915Y1101332D01*
X9800338Y1098089D01*
X9800902Y1094988D01*
X9784268D01*
Y1095270D01*
X9784127Y1095975D01*
X9783986Y1097103D01*
X9783845Y1098371D01*
X9783563Y1100063D01*
X9783422Y1101755D01*
X9783281Y1105138D01*
Y1104856D01*
X9783140Y1104292D01*
X9782999Y1103305D01*
X9782576Y1102178D01*
X9781871Y1100909D01*
X9780884Y1099499D01*
X9779475Y1098089D01*
X9777642Y1096821D01*
X9777360Y1096680D01*
X9776655Y1096257D01*
X9775528Y1095834D01*
X9773977Y1095270D01*
X9772003Y1094565D01*
X9769889Y1094142D01*
X9767351Y1093719D01*
X9764673Y1093578D01*
X9763686D01*
X9763122Y1093719D01*
X9762276D01*
X9761290Y1093860D01*
X9759175Y1094283D01*
X9756638Y1094847D01*
X9754100Y1095693D01*
X9751422Y1096962D01*
X9749025Y1098653D01*
X9748743Y1098935D01*
X9748038Y1099640D01*
X9747193Y1100768D01*
X9746065Y1102319D01*
X9744937Y1104292D01*
X9744091Y1106548D01*
X9743386Y1109226D01*
X9743104Y1112327D01*
Y1112468D01*
Y1113032D01*
X9743245Y1114019D01*
X9743386Y1115006D01*
X9743527Y1116275D01*
X9743950Y1117684D01*
X9744373Y1119094D01*
X9745078Y1120504D01*
X9745219Y1120645D01*
X9745501Y1121068D01*
X9745924Y1121772D01*
X9746488Y1122618D01*
X9747334Y1123605D01*
X9748320Y1124592D01*
X9749448Y1125579D01*
X9750717Y1126565D01*
X9750858Y1126706D01*
X9751281Y1126988D01*
X9752127Y1127270D01*
X9753113Y1127834D01*
X9754241Y1128257D01*
X9755651Y1128821D01*
X9757201Y1129385D01*
X9758893Y1129949D01*
X9759175D01*
X9759739Y1130231D01*
X9760726Y1130372D01*
X9762135Y1130654D01*
X9763827Y1131076D01*
X9765801Y1131499D01*
X9768056Y1131781D01*
X9770594Y1132204D01*
X9782294Y1133614D01*
Y1134178D01*
Y1134319D01*
Y1134460D01*
Y1135165D01*
X9782153Y1136292D01*
X9782012Y1137561D01*
X9781730Y1139112D01*
X9781307Y1140521D01*
X9780743Y1141790D01*
X9779898Y1142918D01*
X9779757Y1143059D01*
X9779475Y1143341D01*
X9778911Y1143764D01*
X9778065Y1144328D01*
X9777078Y1144751D01*
X9775810Y1145173D01*
X9774259Y1145455D01*
X9772426Y1145596D01*
X9771721D01*
X9770876Y1145455D01*
X9769748Y1145314D01*
X9768620Y1145033D01*
X9767351Y1144610D01*
X9766224Y1144046D01*
X9765096Y1143200D01*
X9764955Y1143059D01*
X9764673Y1142777D01*
X9764250Y1142213D01*
X9763686Y1141367D01*
X9763122Y1140240D01*
X9762699Y1138830D01*
X9762276Y1137138D01*
X9761994Y1135165D01*
X9744937D01*
Y1135306D01*
Y1135728D01*
X9745078Y1136292D01*
X9745219Y1136997D01*
X9745360Y1137984D01*
X9745642Y1139112D01*
X9746347Y1141508D01*
X9747334Y1144328D01*
X9748743Y1147147D01*
X9750717Y1149825D01*
X9751845Y1151094D01*
X9753113Y1152222D01*
X9753254Y1152363D01*
X9753395Y1152504D01*
X9753818Y1152786D01*
X9754382Y1153209D01*
X9755228Y1153632D01*
X9756074Y1154055D01*
X9757060Y1154618D01*
X9758329Y1155182D01*
X9761008Y1156310D01*
X9764391Y1157156D01*
X9768197Y1157861D01*
X9772426Y1158143D01*
X9773695D01*
X9774682Y1158002D01*
D02*
G37*
G36*
X9694611Y1146019D02*
X9694752Y1146442D01*
X9695034Y1147006D01*
X9695316Y1147852D01*
X9695880Y1148698D01*
X9696443Y1149825D01*
X9697148Y1150812D01*
X9697994Y1152081D01*
X9699122Y1153209D01*
X9700391Y1154337D01*
X9701800Y1155323D01*
X9703492Y1156169D01*
X9705325Y1157015D01*
X9707439Y1157579D01*
X9709836Y1158002D01*
X9712373Y1158143D01*
X9713360D01*
X9714065Y1158002D01*
X9714910D01*
X9715897Y1157861D01*
X9718153Y1157297D01*
X9720690Y1156592D01*
X9723228Y1155464D01*
X9725765Y1153773D01*
X9726893Y1152786D01*
X9727880Y1151658D01*
Y1151517D01*
X9728162Y1151376D01*
X9728444Y1150953D01*
X9728726Y1150530D01*
X9729148Y1149825D01*
X9729571Y1148980D01*
X9729994Y1147993D01*
X9730558Y1146865D01*
X9731122Y1145596D01*
X9731545Y1144328D01*
X9732391Y1141085D01*
X9732955Y1137279D01*
X9733237Y1133050D01*
Y1094988D01*
X9716461D01*
Y1131922D01*
Y1132063D01*
Y1132204D01*
Y1132909D01*
X9716320Y1134037D01*
X9716179Y1135447D01*
X9715897Y1136997D01*
X9715333Y1138548D01*
X9714769Y1139958D01*
X9713924Y1141226D01*
X9713783Y1141367D01*
X9713501Y1141649D01*
X9712937Y1142213D01*
X9712091Y1142777D01*
X9711104Y1143341D01*
X9709836Y1143905D01*
X9708426Y1144187D01*
X9706734Y1144328D01*
X9705747D01*
X9704761Y1144046D01*
X9703492Y1143764D01*
X9701941Y1143200D01*
X9700532Y1142495D01*
X9698981Y1141367D01*
X9697712Y1139958D01*
X9697571Y1139817D01*
X9697289Y1139112D01*
X9696725Y1138266D01*
X9696161Y1136856D01*
X9695598Y1135165D01*
X9695034Y1133050D01*
X9694752Y1130513D01*
X9694611Y1127693D01*
Y1094988D01*
X9677835D01*
Y1183376D01*
X9694611D01*
Y1146019D01*
D02*
G37*
G36*
X9952727Y1158002D02*
X9953855Y1157861D01*
X9955123Y1157720D01*
X9956533Y1157438D01*
X9958225Y1157156D01*
X9961467Y1156310D01*
X9964991Y1154900D01*
X9966683Y1154055D01*
X9968375Y1152927D01*
X9969925Y1151799D01*
X9971335Y1150389D01*
X9971476Y1150248D01*
X9971617Y1150107D01*
X9972040Y1149544D01*
X9972463Y1148980D01*
X9973027Y1148134D01*
X9973731Y1147288D01*
X9974436Y1146160D01*
X9975141Y1144892D01*
X9975705Y1143341D01*
X9976410Y1141790D01*
X9977115Y1139958D01*
X9977679Y1138125D01*
X9978101Y1136010D01*
X9978524Y1133755D01*
X9978665Y1131358D01*
X9978806Y1128821D01*
Y1121068D01*
X9937079D01*
Y1120786D01*
X9937220Y1120081D01*
X9937361Y1119094D01*
X9937643Y1117684D01*
X9938207Y1116134D01*
X9938912Y1114442D01*
X9939899Y1112750D01*
X9941167Y1111200D01*
X9941308Y1111059D01*
X9941872Y1110636D01*
X9942718Y1109931D01*
X9943987Y1109226D01*
X9945396Y1108380D01*
X9947229Y1107816D01*
X9949344Y1107253D01*
X9951599Y1107112D01*
X9952445D01*
X9953291Y1107253D01*
X9954418Y1107394D01*
X9955687Y1107675D01*
X9956956Y1108098D01*
X9958366Y1108662D01*
X9959634Y1109367D01*
X9959775Y1109508D01*
X9960198Y1109790D01*
X9960903Y1110354D01*
X9961608Y1111200D01*
X9962595Y1112186D01*
X9963441Y1113596D01*
X9964427Y1115147D01*
X9965414Y1116979D01*
X9978242Y1111341D01*
Y1111200D01*
X9978101Y1110918D01*
X9977820Y1110495D01*
X9977538Y1109790D01*
X9976692Y1108239D01*
X9975564Y1106266D01*
X9974154Y1104010D01*
X9972322Y1101755D01*
X9970207Y1099640D01*
X9967670Y1097808D01*
X9967529D01*
X9967388Y1097667D01*
X9966965Y1097385D01*
X9966401Y1097103D01*
X9964991Y1096539D01*
X9963018Y1095693D01*
X9960480Y1094988D01*
X9957802Y1094283D01*
X9954559Y1093719D01*
X9951176Y1093578D01*
X9949766D01*
X9948780Y1093719D01*
X9947652Y1093860D01*
X9946242Y1094001D01*
X9944692Y1094283D01*
X9943000Y1094565D01*
X9939476Y1095552D01*
X9937643Y1096257D01*
X9935810Y1097103D01*
X9933978Y1098089D01*
X9932145Y1099217D01*
X9930454Y1100486D01*
X9928903Y1101896D01*
X9928762Y1102037D01*
X9928621Y1102319D01*
X9928198Y1102742D01*
X9927634Y1103446D01*
X9927070Y1104292D01*
X9926365Y1105279D01*
X9925661Y1106548D01*
X9924956Y1107957D01*
X9924110Y1109508D01*
X9923405Y1111200D01*
X9922700Y1113173D01*
X9922136Y1115288D01*
X9921572Y1117543D01*
X9921150Y1119940D01*
X9921009Y1122618D01*
X9920868Y1125297D01*
Y1125438D01*
Y1126002D01*
Y1126706D01*
X9921009Y1127834D01*
X9921150Y1129103D01*
X9921291Y1130513D01*
X9921572Y1132204D01*
X9921854Y1133896D01*
X9922700Y1137843D01*
X9924110Y1141790D01*
X9925097Y1143764D01*
X9926084Y1145737D01*
X9927211Y1147570D01*
X9928621Y1149262D01*
X9928762Y1149403D01*
X9929044Y1149685D01*
X9929467Y1150107D01*
X9930031Y1150671D01*
X9930877Y1151376D01*
X9931863Y1152081D01*
X9932991Y1152927D01*
X9934260Y1153773D01*
X9935810Y1154477D01*
X9937361Y1155323D01*
X9939194Y1156028D01*
X9941167Y1156733D01*
X9943282Y1157297D01*
X9945537Y1157720D01*
X9947934Y1158002D01*
X9950471Y1158143D01*
X9951740D01*
X9952727Y1158002D01*
D02*
G37*
G36*
X9524460D02*
X9525447D01*
X9527561Y1157720D01*
X9529958Y1157156D01*
X9532636Y1156592D01*
X9535315Y1155605D01*
X9537993Y1154337D01*
X9538134D01*
X9538275Y1154196D01*
X9539121Y1153632D01*
X9540390Y1152786D01*
X9541940Y1151517D01*
X9543632Y1149966D01*
X9545465Y1147993D01*
X9547156Y1145737D01*
X9548707Y1143200D01*
Y1143059D01*
X9548848Y1142918D01*
X9549130Y1142495D01*
X9549271Y1141931D01*
X9549553Y1141226D01*
X9549976Y1140380D01*
X9550680Y1138266D01*
X9551244Y1135728D01*
X9551949Y1132909D01*
X9552372Y1129526D01*
X9552513Y1126002D01*
Y1125861D01*
Y1125579D01*
Y1125015D01*
Y1124310D01*
X9552372Y1123464D01*
Y1122477D01*
X9552090Y1120081D01*
X9551526Y1117402D01*
X9550962Y1114442D01*
X9549976Y1111482D01*
X9548707Y1108521D01*
Y1108380D01*
X9548566Y1108239D01*
X9548002Y1107253D01*
X9547156Y1105984D01*
X9545887Y1104433D01*
X9544478Y1102601D01*
X9542645Y1100768D01*
X9540390Y1098935D01*
X9537993Y1097385D01*
X9537852D01*
X9537711Y1097244D01*
X9537288Y1097103D01*
X9536724Y1096821D01*
X9535315Y1096116D01*
X9533482Y1095552D01*
X9531086Y1094847D01*
X9528407Y1094142D01*
X9525447Y1093719D01*
X9522204Y1093578D01*
X9520654D01*
X9519949Y1093719D01*
X9519103D01*
X9516848Y1094001D01*
X9514451Y1094565D01*
X9511773Y1095129D01*
X9509094Y1096116D01*
X9506416Y1097385D01*
X9506275D01*
X9506134Y1097526D01*
X9505288Y1098089D01*
X9504019Y1098935D01*
X9502469Y1100204D01*
X9500777Y1101755D01*
X9498944Y1103728D01*
X9497253Y1105984D01*
X9495702Y1108521D01*
Y1108662D01*
X9495561Y1108803D01*
X9495420Y1109226D01*
X9495138Y1109790D01*
X9494856Y1110495D01*
X9494433Y1111341D01*
X9493870Y1113455D01*
X9493165Y1115993D01*
X9492460Y1118953D01*
X9492037Y1122336D01*
X9491896Y1126002D01*
Y1126143D01*
Y1126424D01*
Y1126988D01*
Y1127693D01*
X9492037Y1128539D01*
Y1129526D01*
X9492319Y1131922D01*
X9492883Y1134601D01*
X9493447Y1137420D01*
X9494433Y1140380D01*
X9495702Y1143200D01*
Y1143341D01*
X9495843Y1143482D01*
X9496407Y1144469D01*
X9497253Y1145737D01*
X9498522Y1147288D01*
X9499931Y1149121D01*
X9501764Y1150953D01*
X9504019Y1152786D01*
X9506416Y1154337D01*
X9506557D01*
X9506698Y1154477D01*
X9507121Y1154759D01*
X9507685Y1154900D01*
X9509094Y1155605D01*
X9510927Y1156310D01*
X9513323Y1156874D01*
X9516002Y1157579D01*
X9518962Y1158002D01*
X9522204Y1158143D01*
X9523755D01*
X9524460Y1158002D01*
D02*
G37*
G36*
X9337957D02*
X9339084Y1157861D01*
X9340353Y1157720D01*
X9341763Y1157438D01*
X9343455Y1157156D01*
X9346697Y1156310D01*
X9350221Y1154900D01*
X9351913Y1154055D01*
X9353604Y1152927D01*
X9355155Y1151799D01*
X9356565Y1150389D01*
X9356706Y1150248D01*
X9356847Y1150107D01*
X9357270Y1149544D01*
X9357692Y1148980D01*
X9358256Y1148134D01*
X9358961Y1147288D01*
X9359666Y1146160D01*
X9360371Y1144892D01*
X9360935Y1143341D01*
X9361640Y1141790D01*
X9362344Y1139958D01*
X9362908Y1138125D01*
X9363331Y1136010D01*
X9363754Y1133755D01*
X9363895Y1131358D01*
X9364036Y1128821D01*
Y1121068D01*
X9322309D01*
Y1120786D01*
X9322450Y1120081D01*
X9322591Y1119094D01*
X9322873Y1117684D01*
X9323437Y1116134D01*
X9324142Y1114442D01*
X9325128Y1112750D01*
X9326397Y1111200D01*
X9326538Y1111059D01*
X9327102Y1110636D01*
X9327948Y1109931D01*
X9329217Y1109226D01*
X9330626Y1108380D01*
X9332459Y1107816D01*
X9334573Y1107253D01*
X9336829Y1107112D01*
X9337675D01*
X9338521Y1107253D01*
X9339648Y1107394D01*
X9340917Y1107675D01*
X9342186Y1108098D01*
X9343595Y1108662D01*
X9344864Y1109367D01*
X9345005Y1109508D01*
X9345428Y1109790D01*
X9346133Y1110354D01*
X9346838Y1111200D01*
X9347825Y1112186D01*
X9348670Y1113596D01*
X9349657Y1115147D01*
X9350644Y1116979D01*
X9363472Y1111341D01*
Y1111200D01*
X9363331Y1110918D01*
X9363049Y1110495D01*
X9362767Y1109790D01*
X9361922Y1108239D01*
X9360794Y1106266D01*
X9359384Y1104010D01*
X9357552Y1101755D01*
X9355437Y1099640D01*
X9352900Y1097808D01*
X9352759D01*
X9352618Y1097667D01*
X9352195Y1097385D01*
X9351631Y1097103D01*
X9350221Y1096539D01*
X9348247Y1095693D01*
X9345710Y1094988D01*
X9343032Y1094283D01*
X9339789Y1093719D01*
X9336406Y1093578D01*
X9334996D01*
X9334010Y1093719D01*
X9332882Y1093860D01*
X9331472Y1094001D01*
X9329921Y1094283D01*
X9328230Y1094565D01*
X9324706Y1095552D01*
X9322873Y1096257D01*
X9321040Y1097103D01*
X9319208Y1098089D01*
X9317375Y1099217D01*
X9315683Y1100486D01*
X9314133Y1101896D01*
X9313992Y1102037D01*
X9313851Y1102319D01*
X9313428Y1102742D01*
X9312864Y1103446D01*
X9312300Y1104292D01*
X9311595Y1105279D01*
X9310890Y1106548D01*
X9310186Y1107957D01*
X9309340Y1109508D01*
X9308635Y1111200D01*
X9307930Y1113173D01*
X9307366Y1115288D01*
X9306802Y1117543D01*
X9306379Y1119940D01*
X9306238Y1122618D01*
X9306097Y1125297D01*
Y1125438D01*
Y1126002D01*
Y1126706D01*
X9306238Y1127834D01*
X9306379Y1129103D01*
X9306520Y1130513D01*
X9306802Y1132204D01*
X9307084Y1133896D01*
X9307930Y1137843D01*
X9309340Y1141790D01*
X9310327Y1143764D01*
X9311313Y1145737D01*
X9312441Y1147570D01*
X9313851Y1149262D01*
X9313992Y1149403D01*
X9314274Y1149685D01*
X9314697Y1150107D01*
X9315261Y1150671D01*
X9316106Y1151376D01*
X9317093Y1152081D01*
X9318221Y1152927D01*
X9319490Y1153773D01*
X9321040Y1154477D01*
X9322591Y1155323D01*
X9324424Y1156028D01*
X9326397Y1156733D01*
X9328512Y1157297D01*
X9330767Y1157720D01*
X9333164Y1158002D01*
X9335701Y1158143D01*
X9336970D01*
X9337957Y1158002D01*
D02*
G37*
G36*
X9096193D02*
X9097321Y1157861D01*
X9098590Y1157720D01*
X9099999Y1157438D01*
X9101691Y1157156D01*
X9104933Y1156310D01*
X9108458Y1154900D01*
X9110149Y1154055D01*
X9111841Y1152927D01*
X9113391Y1151799D01*
X9114801Y1150389D01*
X9114942Y1150248D01*
X9115083Y1150107D01*
X9115506Y1149544D01*
X9115929Y1148980D01*
X9116493Y1148134D01*
X9117198Y1147288D01*
X9117903Y1146160D01*
X9118607Y1144892D01*
X9119171Y1143341D01*
X9119876Y1141790D01*
X9120581Y1139958D01*
X9121145Y1138125D01*
X9121568Y1136010D01*
X9121991Y1133755D01*
X9122132Y1131358D01*
X9122273Y1128821D01*
Y1121068D01*
X9080545D01*
Y1120786D01*
X9080686Y1120081D01*
X9080827Y1119094D01*
X9081109Y1117684D01*
X9081673Y1116134D01*
X9082378Y1114442D01*
X9083365Y1112750D01*
X9084634Y1111200D01*
X9084775Y1111059D01*
X9085338Y1110636D01*
X9086184Y1109931D01*
X9087453Y1109226D01*
X9088863Y1108380D01*
X9090695Y1107816D01*
X9092810Y1107253D01*
X9095065Y1107112D01*
X9095911D01*
X9096757Y1107253D01*
X9097885Y1107394D01*
X9099154Y1107675D01*
X9100422Y1108098D01*
X9101832Y1108662D01*
X9103101Y1109367D01*
X9103242Y1109508D01*
X9103665Y1109790D01*
X9104369Y1110354D01*
X9105074Y1111200D01*
X9106061Y1112186D01*
X9106907Y1113596D01*
X9107894Y1115147D01*
X9108880Y1116979D01*
X9121709Y1111341D01*
Y1111200D01*
X9121568Y1110918D01*
X9121286Y1110495D01*
X9121004Y1109790D01*
X9120158Y1108239D01*
X9119030Y1106266D01*
X9117621Y1104010D01*
X9115788Y1101755D01*
X9113673Y1099640D01*
X9111136Y1097808D01*
X9110995D01*
X9110854Y1097667D01*
X9110431Y1097385D01*
X9109867Y1097103D01*
X9108458Y1096539D01*
X9106484Y1095693D01*
X9103946Y1094988D01*
X9101268Y1094283D01*
X9098026Y1093719D01*
X9094642Y1093578D01*
X9093233D01*
X9092246Y1093719D01*
X9091118Y1093860D01*
X9089709Y1094001D01*
X9088158Y1094283D01*
X9086466Y1094565D01*
X9082942Y1095552D01*
X9081109Y1096257D01*
X9079277Y1097103D01*
X9077444Y1098089D01*
X9075612Y1099217D01*
X9073920Y1100486D01*
X9072369Y1101896D01*
X9072228Y1102037D01*
X9072087Y1102319D01*
X9071664Y1102742D01*
X9071100Y1103446D01*
X9070537Y1104292D01*
X9069832Y1105279D01*
X9069127Y1106548D01*
X9068422Y1107957D01*
X9067576Y1109508D01*
X9066871Y1111200D01*
X9066167Y1113173D01*
X9065603Y1115288D01*
X9065039Y1117543D01*
X9064616Y1119940D01*
X9064475Y1122618D01*
X9064334Y1125297D01*
Y1125438D01*
Y1126002D01*
Y1126706D01*
X9064475Y1127834D01*
X9064616Y1129103D01*
X9064757Y1130513D01*
X9065039Y1132204D01*
X9065321Y1133896D01*
X9066167Y1137843D01*
X9067576Y1141790D01*
X9068563Y1143764D01*
X9069550Y1145737D01*
X9070678Y1147570D01*
X9072087Y1149262D01*
X9072228Y1149403D01*
X9072510Y1149685D01*
X9072933Y1150107D01*
X9073497Y1150671D01*
X9074343Y1151376D01*
X9075330Y1152081D01*
X9076457Y1152927D01*
X9077726Y1153773D01*
X9079277Y1154477D01*
X9080827Y1155323D01*
X9082660Y1156028D01*
X9084634Y1156733D01*
X9086748Y1157297D01*
X9089004Y1157720D01*
X9091400Y1158002D01*
X9093938Y1158143D01*
X9095206D01*
X9096193Y1158002D01*
D02*
G37*
G36*
X10176449Y1270627D02*
X10171040D01*
Y1290824D01*
X10164522Y1270627D01*
X10159437D01*
X10152873Y1290821D01*
Y1270627D01*
X10147649D01*
Y1299011D01*
X10155369D01*
X10161749Y1279318D01*
Y1279272D01*
X10161795Y1279225D01*
X10161887Y1278948D01*
X10162026Y1278486D01*
X10162081Y1278285D01*
X10162211Y1278763D01*
X10162396Y1279318D01*
X10168683Y1299011D01*
X10176449D01*
Y1270627D01*
D02*
G37*
G36*
X10144459Y1294157D02*
X10136092D01*
Y1270627D01*
X10130221D01*
Y1294157D01*
X10121854D01*
Y1299011D01*
X10144459D01*
Y1294157D01*
D02*
G37*
%LPC*%
G36*
X9884074Y1147006D02*
X9883370D01*
X9882524Y1146865D01*
X9881537Y1146724D01*
X9880409Y1146301D01*
X9879141Y1145878D01*
X9878013Y1145173D01*
X9876885Y1144187D01*
X9876744Y1144046D01*
X9876462Y1143764D01*
X9876039Y1143059D01*
X9875616Y1142354D01*
X9875193Y1141226D01*
X9874770Y1140099D01*
X9874489Y1138548D01*
X9874348Y1136997D01*
Y1136856D01*
Y1136292D01*
X9874489Y1135306D01*
X9874629Y1134319D01*
X9874911Y1133050D01*
X9875475Y1131781D01*
X9876039Y1130513D01*
X9876885Y1129385D01*
X9877026Y1129244D01*
X9877449Y1128962D01*
X9878013Y1128539D01*
X9878859Y1127975D01*
X9879845Y1127411D01*
X9881114Y1126988D01*
X9882524Y1126706D01*
X9884074Y1126565D01*
X9884779D01*
X9885625Y1126706D01*
X9886471Y1126988D01*
X9887599Y1127270D01*
X9888726Y1127693D01*
X9889854Y1128398D01*
X9890982Y1129385D01*
X9891123Y1129526D01*
X9891405Y1129949D01*
X9891828Y1130513D01*
X9892392Y1131358D01*
X9892815Y1132486D01*
X9893238Y1133755D01*
X9893519Y1135165D01*
X9893660Y1136856D01*
Y1136997D01*
Y1137561D01*
X9893519Y1138407D01*
X9893378Y1139535D01*
X9892956Y1140662D01*
X9892533Y1141931D01*
X9891828Y1143059D01*
X9890982Y1144187D01*
X9890841Y1144328D01*
X9890559Y1144610D01*
X9889995Y1145033D01*
X9889149Y1145596D01*
X9888163Y1146160D01*
X9887035Y1146583D01*
X9885625Y1146865D01*
X9884074Y1147006D01*
D02*
G37*
G36*
X9871528Y1095693D02*
X9871387Y1095552D01*
X9870964Y1095270D01*
X9870541Y1094847D01*
X9869977Y1094142D01*
X9869273Y1093297D01*
X9868850Y1092310D01*
X9868427Y1091041D01*
X9868286Y1089631D01*
Y1089490D01*
Y1089349D01*
X9868568Y1088504D01*
X9869132Y1087235D01*
X9869555Y1086530D01*
X9870259Y1085966D01*
X9871105Y1085261D01*
X9872092Y1084556D01*
X9873361Y1083852D01*
X9874911Y1083288D01*
X9876744Y1082865D01*
X9878859Y1082442D01*
X9881255Y1082301D01*
X9884074Y1082160D01*
X9885625D01*
X9886612Y1082301D01*
X9887881Y1082442D01*
X9889290Y1082583D01*
X9892392Y1083147D01*
X9895352Y1083992D01*
X9896762Y1084556D01*
X9898030Y1085261D01*
X9899017Y1086107D01*
X9899863Y1087094D01*
X9900427Y1088222D01*
X9900568Y1089490D01*
Y1089772D01*
X9900427Y1090477D01*
X9900145Y1091323D01*
X9899440Y1092451D01*
X9898312Y1093578D01*
X9897608Y1094001D01*
X9896762Y1094424D01*
X9895775Y1094847D01*
X9894506Y1095129D01*
X9893097Y1095411D01*
X9874489D01*
X9872938Y1095552D01*
X9871528Y1095693D01*
D02*
G37*
G36*
X9223771Y1144751D02*
X9222784D01*
X9221656Y1144469D01*
X9220388Y1144187D01*
X9218837Y1143623D01*
X9217286Y1142918D01*
X9215877Y1141790D01*
X9214467Y1140240D01*
X9214326Y1140099D01*
X9213903Y1139394D01*
X9213339Y1138407D01*
X9212775Y1136997D01*
X9212211Y1135165D01*
X9211648Y1132909D01*
X9211225Y1130231D01*
X9211084Y1127270D01*
Y1124310D01*
Y1124169D01*
Y1123887D01*
Y1123464D01*
Y1122900D01*
X9211225Y1121491D01*
X9211507Y1119658D01*
X9211930Y1117543D01*
X9212493Y1115429D01*
X9213339Y1113314D01*
X9214467Y1111482D01*
X9214608Y1111341D01*
X9215172Y1110777D01*
X9215877Y1110072D01*
X9217004Y1109226D01*
X9218273Y1108239D01*
X9219824Y1107534D01*
X9221656Y1106971D01*
X9223630Y1106830D01*
X9223912D01*
X9224617Y1106971D01*
X9225604Y1107112D01*
X9226872Y1107394D01*
X9228282Y1108098D01*
X9229833Y1108944D01*
X9231383Y1110072D01*
X9232793Y1111764D01*
X9232934Y1112046D01*
X9233357Y1112750D01*
X9233921Y1113878D01*
X9234626Y1115429D01*
X9235190Y1117543D01*
X9235753Y1119940D01*
X9236176Y1122759D01*
X9236317Y1126002D01*
Y1126143D01*
Y1126424D01*
Y1126847D01*
Y1127552D01*
X9236176Y1129103D01*
X9235894Y1131076D01*
X9235471Y1133332D01*
X9234908Y1135588D01*
X9234062Y1137843D01*
X9232934Y1139817D01*
X9232793Y1140099D01*
X9232370Y1140662D01*
X9231524Y1141367D01*
X9230538Y1142354D01*
X9229269Y1143200D01*
X9227577Y1144046D01*
X9225886Y1144610D01*
X9223771Y1144751D01*
D02*
G37*
G36*
X9782576Y1123041D02*
X9770876Y1121068D01*
X9770594D01*
X9769889Y1120927D01*
X9768902Y1120645D01*
X9767633Y1120363D01*
X9764955Y1119376D01*
X9763686Y1118812D01*
X9762699Y1118107D01*
X9762558Y1117966D01*
X9762276Y1117825D01*
X9761994Y1117402D01*
X9761572Y1116839D01*
X9761008Y1116134D01*
X9760726Y1115147D01*
X9760444Y1114160D01*
X9760303Y1113032D01*
Y1112891D01*
Y1112468D01*
X9760444Y1111905D01*
X9760585Y1111059D01*
X9760867Y1110213D01*
X9761290Y1109367D01*
X9761853Y1108521D01*
X9762558Y1107816D01*
X9762699Y1107675D01*
X9762981Y1107534D01*
X9763545Y1107253D01*
X9764250Y1106971D01*
X9765237Y1106548D01*
X9766365Y1106266D01*
X9767633Y1106125D01*
X9769184Y1105984D01*
X9770171D01*
X9771298Y1106266D01*
X9772708Y1106548D01*
X9774259Y1106971D01*
X9775810Y1107675D01*
X9777501Y1108662D01*
X9778911Y1109931D01*
X9779052Y1110072D01*
X9779475Y1110636D01*
X9780039Y1111482D01*
X9780743Y1112750D01*
X9781448Y1114301D01*
X9782012Y1115993D01*
X9782435Y1118107D01*
X9782576Y1120504D01*
Y1123041D01*
D02*
G37*
G36*
X9950189Y1146160D02*
X9949203D01*
X9948075Y1146019D01*
X9946665Y1145737D01*
X9945114Y1145173D01*
X9943564Y1144610D01*
X9942013Y1143623D01*
X9940603Y1142354D01*
X9940462Y1142213D01*
X9940040Y1141649D01*
X9939617Y1140944D01*
X9938912Y1139817D01*
X9938348Y1138407D01*
X9937784Y1136715D01*
X9937361Y1134883D01*
X9937079Y1132768D01*
X9962172D01*
Y1132909D01*
Y1133755D01*
X9962031Y1134883D01*
X9961749Y1136433D01*
X9961467Y1138125D01*
X9960903Y1139817D01*
X9960057Y1141367D01*
X9959071Y1142777D01*
X9958930Y1142918D01*
X9958507Y1143341D01*
X9957802Y1143905D01*
X9956815Y1144469D01*
X9955546Y1145033D01*
X9953996Y1145596D01*
X9952304Y1146019D01*
X9950189Y1146160D01*
D02*
G37*
G36*
X9522204Y1144892D02*
X9521218D01*
X9519949Y1144610D01*
X9518539Y1144328D01*
X9516989Y1143764D01*
X9515438Y1142918D01*
X9513746Y1141790D01*
X9512337Y1140240D01*
X9512196Y1139958D01*
X9511773Y1139394D01*
X9511209Y1138266D01*
X9510645Y1136715D01*
X9509940Y1134742D01*
X9509376Y1132345D01*
X9508953Y1129385D01*
X9508812Y1126002D01*
Y1125861D01*
Y1125579D01*
Y1125015D01*
Y1124451D01*
X9508953Y1123605D01*
Y1122618D01*
X9509235Y1120504D01*
X9509658Y1118248D01*
X9510363Y1115711D01*
X9511209Y1113455D01*
X9512337Y1111482D01*
X9512478Y1111341D01*
X9513041Y1110777D01*
X9513746Y1109931D01*
X9514874Y1109085D01*
X9516284Y1108239D01*
X9517975Y1107394D01*
X9519949Y1106830D01*
X9522204Y1106689D01*
X9522486D01*
X9523191Y1106830D01*
X9524319Y1106971D01*
X9525729Y1107253D01*
X9527279Y1107816D01*
X9528971Y1108662D01*
X9530522Y1109931D01*
X9531931Y1111482D01*
X9532072Y1111764D01*
X9532495Y1112327D01*
X9533059Y1113455D01*
X9533764Y1115147D01*
X9534328Y1117120D01*
X9534892Y1119658D01*
X9535315Y1122618D01*
X9535456Y1126002D01*
Y1126143D01*
Y1126424D01*
Y1126988D01*
Y1127552D01*
X9535315Y1129244D01*
X9535033Y1131358D01*
X9534610Y1133755D01*
X9533905Y1136010D01*
X9533059Y1138266D01*
X9531931Y1140240D01*
X9531790Y1140380D01*
X9531368Y1140944D01*
X9530522Y1141649D01*
X9529394Y1142636D01*
X9528125Y1143482D01*
X9526434Y1144187D01*
X9524460Y1144751D01*
X9522204Y1144892D01*
D02*
G37*
G36*
X9335419Y1146160D02*
X9334432D01*
X9333305Y1146019D01*
X9331895Y1145737D01*
X9330344Y1145173D01*
X9328794Y1144610D01*
X9327243Y1143623D01*
X9325833Y1142354D01*
X9325692Y1142213D01*
X9325269Y1141649D01*
X9324846Y1140944D01*
X9324142Y1139817D01*
X9323578Y1138407D01*
X9323014Y1136715D01*
X9322591Y1134883D01*
X9322309Y1132768D01*
X9347402D01*
Y1132909D01*
Y1133755D01*
X9347261Y1134883D01*
X9346979Y1136433D01*
X9346697Y1138125D01*
X9346133Y1139817D01*
X9345287Y1141367D01*
X9344300Y1142777D01*
X9344159Y1142918D01*
X9343736Y1143341D01*
X9343032Y1143905D01*
X9342045Y1144469D01*
X9340776Y1145033D01*
X9339225Y1145596D01*
X9337534Y1146019D01*
X9335419Y1146160D01*
D02*
G37*
G36*
X9093656D02*
X9092669D01*
X9091541Y1146019D01*
X9090131Y1145737D01*
X9088581Y1145173D01*
X9087030Y1144610D01*
X9085479Y1143623D01*
X9084070Y1142354D01*
X9083929Y1142213D01*
X9083506Y1141649D01*
X9083083Y1140944D01*
X9082378Y1139817D01*
X9081814Y1138407D01*
X9081250Y1136715D01*
X9080827Y1134883D01*
X9080545Y1132768D01*
X9105638D01*
Y1132909D01*
Y1133755D01*
X9105497Y1134883D01*
X9105215Y1136433D01*
X9104933Y1138125D01*
X9104369Y1139817D01*
X9103524Y1141367D01*
X9102537Y1142777D01*
X9102396Y1142918D01*
X9101973Y1143341D01*
X9101268Y1143905D01*
X9100281Y1144469D01*
X9099013Y1145033D01*
X9097462Y1145596D01*
X9095770Y1146019D01*
X9093656Y1146160D01*
D02*
G37*
%LPD*%
D115*
X5263560Y2895600D02*
G03*
X5263560Y2895600I-10000J0D01*
G01*
X13420500Y2455364D02*
G03*
X13420500Y2455364I-10000J0D01*
G01*
X13660500Y2532364D02*
G03*
X13660500Y2532364I-10000J0D01*
G01*
X10630500Y2912500D02*
G03*
X10630500Y2912500I-10000J0D01*
G01*
X11252000Y2454500D02*
G03*
X11252000Y2454500I-10000J0D01*
G01*
X2677980Y1530440D02*
G03*
X2677980Y1530440I-10000J0D01*
G01*
X2414000Y2455000D02*
G03*
X2414000Y2455000I-10000J0D01*
G01*
X3183000Y3128000D02*
G03*
X3183000Y3128000I-10000J0D01*
G01*
X7712500Y1288000D02*
G03*
X7712500Y1288000I-10000J0D01*
G01*
X5571717Y2540975D02*
G03*
X5567500Y2512240I95783J-28735D01*
G01*
Y2152240D02*
G03*
X5667500Y2052240I100000J0D01*
G01*
X5829104Y2713354D02*
G03*
X5665872Y2713370I-81622J-56692D01*
G01*
X5927500Y2512240D02*
G03*
X5923283Y2540975I-100000J0D01*
G01*
X5827500Y2052240D02*
G03*
X5927500Y2152240I0J100000D01*
G01*
X4735960Y1879180D02*
G03*
X4795960Y1939180I0J60000D01*
G01*
X5086480Y2246136D02*
Y2616136D01*
X4426480Y2246136D02*
Y2616136D01*
X5086480D01*
X4426480Y2246136D02*
X5086480D01*
X9224251Y1496292D02*
Y1526292D01*
Y1496292D02*
X9334251D01*
Y1526292D01*
X9224251D02*
X9334251D01*
X9224251D02*
Y2066292D01*
X9304251D01*
X9522300Y1495780D02*
Y1525780D01*
X9412300Y1495780D02*
X9522300D01*
X9412300D02*
Y1525780D01*
X9522300D01*
Y2065780D01*
X9442300D02*
X9522300D01*
X8892340Y1498610D02*
Y1528610D01*
Y1498610D02*
X9002340D01*
Y1528610D01*
X8892340D02*
X9002340D01*
X8892340D02*
Y2068610D01*
X8972340D01*
X9190390Y1498098D02*
Y1528098D01*
X9080390Y1498098D02*
X9190390D01*
X9080390D02*
Y1528098D01*
X9190390D01*
Y2068098D01*
X9110390D02*
X9190390D01*
X8564151Y1498614D02*
Y1528614D01*
Y1498614D02*
X8674151D01*
Y1528614D01*
X8564151D02*
X8674151D01*
X8564151D02*
Y2068614D01*
X8644151D01*
X8862200Y1498102D02*
Y1528102D01*
X8752200Y1498102D02*
X8862200D01*
X8752200D02*
Y1528102D01*
X8862200D01*
Y2068102D01*
X8782200D02*
X8862200D01*
X8125001Y1755916D02*
X8510001D01*
Y2150916D01*
X8125001D02*
X8510001D01*
X8125001Y1755916D02*
Y2150916D01*
X7109781Y2210000D02*
X7494781D01*
X7109781Y1815000D02*
Y2210000D01*
Y1815000D02*
X7494781D01*
Y2210000D01*
X7080550Y2373905D02*
Y2403905D01*
X6970550D02*
X7080550D01*
X6970550Y2373905D02*
Y2403905D01*
Y2373905D02*
X7080550D01*
Y1833905D02*
Y2373905D01*
X7000550Y1833905D02*
X7080550D01*
X6782501Y2374417D02*
Y2404417D01*
X6892501D01*
Y2374417D02*
Y2404417D01*
X6782501Y2374417D02*
X6892501D01*
X6782501Y1834417D02*
Y2374417D01*
Y1834417D02*
X6862500D01*
X6758050Y2373905D02*
Y2403905D01*
X6648050D02*
X6758050D01*
X6648050Y2373905D02*
Y2403905D01*
Y2373905D02*
X6758050D01*
Y1833905D02*
Y2373905D01*
X6678050Y1833905D02*
X6758050D01*
X6460001Y2374417D02*
Y2404417D01*
X6570001D01*
Y2374417D02*
Y2404417D01*
X6460001Y2374417D02*
X6570001D01*
X6460001Y1834417D02*
Y2374417D01*
Y1834417D02*
X6540000D01*
X6435550Y2373905D02*
Y2403905D01*
X6325550D02*
X6435550D01*
X6325550Y2373905D02*
Y2403905D01*
Y2373905D02*
X6435550D01*
Y1833905D02*
Y2373905D01*
X6355550Y1833905D02*
X6435550D01*
X6137501Y2374417D02*
Y2404417D01*
X6247501D01*
Y2374417D02*
Y2404417D01*
X6137501Y2374417D02*
X6247501D01*
X6137501Y1834417D02*
Y2374417D01*
Y1834417D02*
X6217500D01*
X2452711Y2918460D02*
X2672711D01*
X2642711Y2688460D02*
X2672711D01*
Y3148460D01*
X2642711D02*
X2672711D01*
X2452711D02*
X2482711D01*
X2452711Y2688460D02*
Y3148460D01*
Y2688460D02*
X2482711D01*
X2220662Y2919856D02*
X2440662D01*
X2410662Y2689856D02*
X2440662D01*
Y3149856D01*
X2410662D02*
X2440662D01*
X2220662D02*
X2250661D01*
X2220662Y2689856D02*
Y3149856D01*
Y2689856D02*
X2250661D01*
X2464000Y1037500D02*
Y1257500D01*
X2234000Y1037500D02*
Y1067500D01*
Y1037500D02*
X2694000D01*
Y1067500D01*
Y1227500D02*
Y1257500D01*
X2234000D02*
X2694000D01*
X2234000Y1227500D02*
Y1257500D01*
X5567500Y2456240D02*
Y2512240D01*
Y2152240D02*
X5567500Y2222240D01*
X5927500D02*
X5927500Y2152240D01*
Y2456240D02*
Y2512240D01*
X5645097Y2676325D02*
X5665896Y2713354D01*
X5634697Y2657811D02*
X5645097Y2676325D01*
X5849903D02*
X5860303Y2657811D01*
X5829104Y2713354D02*
X5849903Y2676325D01*
X5667500Y2052240D02*
X5827500D01*
X11915000Y1637500D02*
Y1670000D01*
X11947500D01*
X12327500D02*
X12360000D01*
Y1637500D02*
Y1670000D01*
Y1225000D02*
Y1257500D01*
X12327500Y1225000D02*
X12360000D01*
X11915000D02*
Y1257500D01*
Y1225000D02*
X11947500D01*
X14118460Y1932498D02*
Y2692498D01*
X14578461Y1932498D02*
Y2692498D01*
X14118460Y1932498D02*
X14185960D01*
X14118460Y2692498D02*
X14185960D01*
X14510960Y1932498D02*
X14578461D01*
X14510960Y2692498D02*
X14578461D01*
X14510960Y1932498D02*
Y1987498D01*
X14578461D01*
X14118460D02*
X14185960D01*
Y1932498D02*
Y1987498D01*
X14363741Y1752500D02*
Y1782500D01*
X14823740D01*
Y1752500D02*
Y1782500D01*
Y1562500D02*
Y1592500D01*
X14363741Y1562500D02*
X14823740D01*
X14363741D02*
Y1592500D01*
X14593739Y1562500D02*
Y1782500D01*
X14628999Y1932490D02*
Y2692490D01*
X15089000Y1932490D02*
Y2692490D01*
X14628999Y1932490D02*
X14696500D01*
X14628999Y2692490D02*
X14696500D01*
X15021500Y1932490D02*
X15089000D01*
X15021500Y2692490D02*
X15089000D01*
X15021500Y1932490D02*
Y1987490D01*
X15089000D01*
X14628999D02*
X14696500D01*
Y1932490D02*
Y1987490D01*
X8677640Y2083402D02*
X9437640D01*
X8677640Y2543402D02*
X9437640D01*
Y2083402D02*
Y2150902D01*
X8677640Y2083402D02*
Y2150902D01*
X9437640Y2475902D02*
Y2543402D01*
X8677640Y2475902D02*
Y2543402D01*
X9382640Y2475902D02*
X9437640D01*
X9382640D02*
Y2543402D01*
Y2083402D02*
Y2150902D01*
X9437640D01*
X9990000Y2209283D02*
Y2239283D01*
X10450000D01*
Y2209283D02*
Y2239283D01*
Y2019282D02*
Y2049282D01*
X9990000Y2019282D02*
X10450000D01*
X9990000D02*
Y2049282D01*
X10220000Y2019282D02*
Y2239283D01*
X4522780Y1243500D02*
X4582780D01*
X4625280Y1383500D02*
X4697780D01*
Y1293500D02*
Y1383500D01*
X4407780D02*
X4480280D01*
X4407780Y1293500D02*
Y1383500D01*
X4735960Y1879180D02*
Y1939180D01*
X4795960D01*
X5205960D02*
X5265960D01*
Y1879180D02*
Y1939180D01*
Y1409180D02*
Y1469180D01*
X5205960Y1409180D02*
X5265960D01*
X4735960D02*
Y1469180D01*
Y1409180D02*
X4795960D01*
D116*
X4014000Y2744565D02*
X4154000D01*
X4134800Y2871565D02*
X4154000D01*
Y2617565D02*
Y2871565D01*
X4134800Y2617565D02*
X4154000D01*
X4014000D02*
X4033200D01*
X4014000D02*
Y2871565D01*
X4033200D01*
X3867000Y2462080D02*
X4007000D01*
X3987800Y2589080D02*
X4007000D01*
Y2335080D02*
Y2589080D01*
X3987800Y2335080D02*
X4007000D01*
X3867000D02*
X3886200D01*
X3867000D02*
Y2589080D01*
X3886200D01*
X5214620Y2219960D02*
X5227320D01*
Y2448560D01*
X5214620D02*
X5227320D01*
X5125720D02*
X5138420D01*
X5125720Y2219960D02*
Y2448560D01*
Y2219960D02*
X5138420D01*
X5125720Y2334260D02*
X5227320D01*
X5427980Y1534880D02*
X5440680D01*
Y1763480D01*
X5427980D02*
X5440680D01*
X5339080D02*
X5351780D01*
X5339080Y1534880D02*
Y1763480D01*
Y1534880D02*
X5351780D01*
X5339080Y1649180D02*
X5440680D01*
X5420360Y2998736D02*
Y3138737D01*
X5547360Y2998736D02*
Y3017937D01*
X5293360Y2998736D02*
X5547360D01*
X5293360D02*
Y3017937D01*
Y3119537D02*
Y3138737D01*
X5547360D01*
Y3119537D02*
Y3138737D01*
X5325360Y2582500D02*
X5345360D01*
Y2782500D01*
X5325360D02*
X5345360D01*
X5245360D02*
X5265360D01*
X5245360Y2582500D02*
Y2782500D01*
Y2582500D02*
X5265360D01*
X5206520Y2582240D02*
X5226520D01*
Y2782240D01*
X5206520D02*
X5226520D01*
X5126520D02*
X5146520D01*
X5126520Y2582240D02*
Y2782240D01*
Y2582240D02*
X5146520D01*
X2311848Y1859673D02*
X2331848D01*
X2311848Y1659673D02*
Y1859673D01*
Y1659673D02*
X2331848D01*
X2391848D02*
X2411848D01*
Y1859673D01*
X2391848D02*
X2411848D01*
X6293320Y1108564D02*
Y1248564D01*
X6166320Y1229364D02*
Y1248564D01*
X6420320D01*
Y1229364D02*
Y1248564D01*
Y1108564D02*
Y1127764D01*
X6166320Y1108564D02*
X6420320D01*
X6166320D02*
Y1127764D01*
X6433020Y1153160D02*
X6445720D01*
X6433020Y1088560D02*
Y1153160D01*
Y1088560D02*
X6445720D01*
X6433020Y1268560D02*
X6445720D01*
X6433020Y1203960D02*
Y1268560D01*
Y1203960D02*
X6445720D01*
X6839420Y1088560D02*
Y1108560D01*
X6445720Y1088560D02*
X6839420D01*
X6445720D02*
Y1153160D01*
X6839420Y1248560D02*
Y1268560D01*
X6445720D02*
X6839420D01*
X6445720Y1203960D02*
Y1268560D01*
X6636220Y1088560D02*
Y1268560D01*
X6610820Y1178560D02*
X6636220D01*
X6661620Y1153160D02*
Y1203960D01*
X6636220Y1178560D02*
X6661620Y1153160D01*
X6636220Y1178560D02*
X6661620Y1203960D01*
X2506680Y2508300D02*
Y2538300D01*
Y2508300D02*
X2786680D01*
Y2538300D01*
Y2618300D02*
Y2648300D01*
X2506680D02*
X2786680D01*
X2506680Y2618300D02*
Y2648300D01*
X2646680Y2508300D02*
Y2648300D01*
X8212200Y2627480D02*
Y2767480D01*
X8085200Y2748280D02*
Y2767480D01*
X8339200D01*
Y2748280D02*
Y2767480D01*
Y2627480D02*
Y2646680D01*
X8085200Y2627480D02*
X8339200D01*
X8085200D02*
Y2646680D01*
X8363523Y2901080D02*
X8376223D01*
Y2965680D01*
X8363523D02*
X8376223D01*
X8363523Y2785680D02*
X8376223D01*
Y2850280D01*
X8363523D02*
X8376223D01*
X7969823Y2945680D02*
Y2965680D01*
X8363523D01*
Y2901080D02*
Y2965680D01*
X7969823Y2785680D02*
Y2805680D01*
Y2785680D02*
X8363523D01*
Y2850280D01*
X8173023Y2785680D02*
Y2965680D01*
Y2875680D02*
X8198423D01*
X8147623Y2850280D02*
Y2901080D01*
X8173023Y2875680D01*
X8147623Y2850280D02*
X8173023Y2875680D01*
X1630400Y2609204D02*
X1643100D01*
Y2673804D01*
X1630400D02*
X1643100D01*
X1630400Y2493804D02*
X1643100D01*
Y2558404D01*
X1630400D02*
X1643100D01*
X1236700Y2653804D02*
Y2673804D01*
X1630400D01*
Y2609204D02*
Y2673804D01*
X1236700Y2493804D02*
Y2513804D01*
Y2493804D02*
X1630400D01*
Y2558404D01*
X1439900Y2493804D02*
Y2673804D01*
Y2583804D02*
X1465300D01*
X1414500Y2558404D02*
Y2609204D01*
X1439900Y2583804D01*
X1414500Y2558404D02*
X1439900Y2583804D01*
X1800860Y2533829D02*
Y2673829D01*
X1927860Y2533829D02*
Y2553029D01*
X1673860Y2533829D02*
X1927860D01*
X1673860D02*
Y2553029D01*
Y2654629D02*
Y2673829D01*
X1927860D01*
Y2654629D02*
Y2673829D01*
X10972800Y1294648D02*
Y1396248D01*
X11087100Y1294648D02*
Y1307348D01*
X10858500Y1294648D02*
X11087100D01*
X10858500D02*
Y1307348D01*
Y1383548D02*
Y1396248D01*
X11087100D01*
Y1383548D02*
Y1396248D01*
X10568000Y1833122D02*
Y1853122D01*
Y1833122D02*
X10768000D01*
Y1853122D01*
Y1913122D02*
Y1933122D01*
X10568000D02*
X10768000D01*
X10568000Y1913122D02*
Y1933122D01*
X7081520Y1318260D02*
Y1419860D01*
X6967220Y1407160D02*
Y1419860D01*
X7195820D01*
Y1407160D02*
Y1419860D01*
Y1318260D02*
Y1330960D01*
X6967220Y1318260D02*
X7195820D01*
X6967220D02*
Y1330960D01*
X7332980Y1272540D02*
Y1374140D01*
X7218680Y1361440D02*
Y1374140D01*
X7447280D01*
Y1361440D02*
Y1374140D01*
Y1272540D02*
Y1285240D01*
X7218680Y1272540D02*
X7447280D01*
X7218680D02*
Y1285240D01*
X3152148Y1965960D02*
Y2067560D01*
X3266448Y1965960D02*
Y1978660D01*
X3037848Y1965960D02*
X3266448D01*
X3037848D02*
Y1978660D01*
Y2054860D02*
Y2067560D01*
X3266448D01*
Y2054860D02*
Y2067560D01*
X3152140Y2070100D02*
Y2171700D01*
X3266440Y2070100D02*
Y2082800D01*
X3037840Y2070100D02*
X3266440D01*
X3037840D02*
Y2082800D01*
Y2159000D02*
Y2171700D01*
X3266440D01*
Y2159000D02*
Y2171700D01*
X7880600Y2328200D02*
X7893300D01*
Y2556800D01*
X7880600D02*
X7893300D01*
X7791700D02*
X7804400D01*
X7791700Y2328200D02*
Y2556800D01*
Y2328200D02*
X7804400D01*
X7791700Y2442500D02*
X7893300D01*
X3276600Y2186800D02*
X3289300D01*
X3276600Y1958200D02*
Y2186800D01*
Y1958200D02*
X3289300D01*
X3365500D02*
X3378200D01*
Y2186800D01*
X3365500D02*
X3378200D01*
X3276600Y2072500D02*
X3378200D01*
X2390140Y1391261D02*
X2402840D01*
Y1619861D01*
X2390140D02*
X2402840D01*
X2301240D02*
X2313940D01*
X2301240Y1391261D02*
Y1619861D01*
Y1391261D02*
X2313940D01*
X2301240Y1505561D02*
X2402840D01*
X1686560Y1072068D02*
X1699260D01*
Y1300668D01*
X1686560D02*
X1699260D01*
X1597660D02*
X1610360D01*
X1597660Y1072068D02*
Y1300668D01*
Y1072068D02*
X1610360D01*
X1597660Y1186368D02*
X1699260D01*
X2389720Y2131700D02*
Y2233300D01*
X2504020Y2131700D02*
Y2144400D01*
X2275420Y2131700D02*
X2504020D01*
X2275420D02*
Y2144400D01*
Y2220600D02*
Y2233300D01*
X2504020D01*
Y2220600D02*
Y2233300D01*
X2389720Y2016660D02*
Y2118260D01*
X2504020Y2016660D02*
Y2029360D01*
X2275420Y2016660D02*
X2504020D01*
X2275420D02*
Y2029360D01*
Y2105560D02*
Y2118260D01*
X2504020D01*
Y2105560D02*
Y2118260D01*
X2756700Y1409700D02*
X2858300D01*
X2756700Y1295400D02*
X2769400D01*
X2756700D02*
Y1524000D01*
X2769400D01*
X2845600D02*
X2858300D01*
Y1295400D02*
Y1524000D01*
X2845600Y1295400D02*
X2858300D01*
X2636520Y1409700D02*
X2738120D01*
X2636520Y1295400D02*
X2649220D01*
X2636520D02*
Y1524000D01*
X2649220D01*
X2725420D02*
X2738120D01*
Y1295400D02*
Y1524000D01*
X2725420Y1295400D02*
X2738120D01*
X2074000Y1304500D02*
X2093200D01*
X2074000Y1050500D02*
Y1304500D01*
Y1050500D02*
X2093200D01*
X2194800D02*
X2214000D01*
Y1304500D01*
X2194800D02*
X2214000D01*
X2074000Y1177500D02*
X2214000D01*
X2525560Y1301260D02*
X2545560D01*
X2525560D02*
Y1501260D01*
X2545560D01*
X2605560D02*
X2625560D01*
Y1301260D02*
Y1501260D01*
X2605560Y1301260D02*
X2625560D01*
X2498880Y1613840D02*
X2518880D01*
Y1413840D02*
Y1613840D01*
X2498880Y1413840D02*
X2518880D01*
X2418880D02*
X2438880D01*
X2418880D02*
Y1613840D01*
X2438880D01*
X3105000Y2889200D02*
Y2990800D01*
X3219300Y2889200D02*
Y2901900D01*
X2990700Y2889200D02*
X3219300D01*
X2990700D02*
Y2901900D01*
Y2978100D02*
Y2990800D01*
X3219300D01*
Y2978100D02*
Y2990800D01*
X3105000Y3017200D02*
Y3118800D01*
X3219300Y3017200D02*
Y3029900D01*
X2990700Y3017200D02*
X3219300D01*
X2990700D02*
Y3029900D01*
Y3106100D02*
Y3118800D01*
X3219300D01*
Y3106100D02*
Y3118800D01*
X3105000Y2764200D02*
Y2865800D01*
X3219300Y2764200D02*
Y2776900D01*
X2990700Y2764200D02*
X3219300D01*
X2990700D02*
Y2776900D01*
Y2853100D02*
Y2865800D01*
X3219300D01*
Y2853100D02*
Y2865800D01*
X3345180Y2456180D02*
X3446780D01*
X3345180Y2341880D02*
X3357880D01*
X3345180D02*
Y2570480D01*
X3357880D01*
X3434080D02*
X3446780D01*
Y2341880D02*
Y2570480D01*
X3434080Y2341880D02*
X3446780D01*
X4173220Y2624365D02*
X4274820D01*
X4262120Y2738665D02*
X4274820D01*
Y2510065D02*
Y2738665D01*
X4262120Y2510065D02*
X4274820D01*
X4173220D02*
X4185920D01*
X4173220D02*
Y2738665D01*
X4185920D01*
X4127500Y2889200D02*
Y2990800D01*
X4013200Y2978100D02*
Y2990800D01*
X4241800D01*
Y2978100D02*
Y2990800D01*
Y2889200D02*
Y2901900D01*
X4013200Y2889200D02*
X4241800D01*
X4013200D02*
Y2901900D01*
X4210000Y3017500D02*
Y3037500D01*
X4010000Y3017500D02*
X4210000D01*
X4010000D02*
Y3037500D01*
Y3097500D02*
Y3117500D01*
X4210000D01*
Y3097500D02*
Y3117500D01*
X2767844Y2720500D02*
Y2760500D01*
X3107844D01*
Y2720500D02*
Y2760500D01*
Y2580500D02*
Y2620500D01*
X2767844Y2580500D02*
X3107844D01*
X2767844D02*
Y2620500D01*
X2937844Y2580500D02*
Y2760500D01*
X2767844Y2525500D02*
Y2565500D01*
X3107843D01*
Y2525500D02*
Y2565500D01*
Y2385500D02*
Y2425500D01*
X2767844Y2385500D02*
X3107843D01*
X2767844D02*
Y2425500D01*
X2937844Y2385500D02*
Y2565500D01*
X2837500Y2350500D02*
Y2370500D01*
X3037500D01*
Y2350500D02*
Y2370500D01*
Y2270500D02*
Y2290500D01*
X2837500Y2270500D02*
X3037500D01*
X2837500D02*
Y2290500D01*
X3114740Y2299620D02*
X3216340D01*
X3114740Y2185320D02*
X3127440D01*
X3114740D02*
Y2413920D01*
X3127440D01*
X3203640D02*
X3216340D01*
Y2185320D02*
Y2413920D01*
X3203640Y2185320D02*
X3216340D01*
X3218220Y1598100D02*
Y1699700D01*
X3103920Y1687000D02*
Y1699700D01*
X3332520D01*
Y1687000D02*
Y1699700D01*
Y1598100D02*
Y1610800D01*
X3103920Y1598100D02*
X3332520D01*
X3103920D02*
Y1610800D01*
X3167380Y1815000D02*
Y1834200D01*
Y1815000D02*
X3421380D01*
Y1834200D01*
Y1935800D02*
Y1955000D01*
X3167380D02*
X3421380D01*
X3167380Y1935800D02*
Y1955000D01*
X3294380Y1815000D02*
Y1955000D01*
X3451860Y2166620D02*
X3477260Y2141220D01*
X3502660Y2166620D01*
X3451860D02*
X3502660D01*
X3477260Y2115820D02*
Y2141220D01*
X3387260D02*
X3567260D01*
X3387260Y1950720D02*
X3451860D01*
X3387260D02*
Y2344420D01*
X3407260D01*
X3502660Y1950720D02*
X3567260D01*
Y2344420D01*
X3547260D02*
X3567260D01*
X3451860Y1938020D02*
Y1950720D01*
X3387260Y1938020D02*
X3451860D01*
X3387260D02*
Y1950720D01*
X3567260Y1938020D02*
Y1950720D01*
X3502660Y1938020D02*
X3567260D01*
X3502660D02*
Y1950720D01*
X3216580Y1262500D02*
Y1282500D01*
X3016580Y1262500D02*
X3216580D01*
X3016580D02*
Y1282500D01*
Y1342500D02*
Y1362500D01*
X3216580D01*
Y1342500D02*
Y1362500D01*
X2200000Y1870000D02*
X2220000D01*
X2200000D02*
Y2070000D01*
X2220000D01*
X2280000D02*
X2300000D01*
Y1870000D02*
Y2070000D01*
X2280000Y1870000D02*
X2300000D01*
X2280000Y1887825D02*
X2300000D01*
Y1687824D02*
Y1887825D01*
X2280000Y1687824D02*
X2300000D01*
X2200000D02*
X2220000D01*
X2200000D02*
Y1887825D01*
X2220000D01*
X10724876Y1584728D02*
X10750276Y1610128D01*
X10724876Y1635528D02*
X10750276Y1610128D01*
X10724876Y1584728D02*
Y1635528D01*
X10750276Y1610128D02*
X10775676D01*
X10750276Y1520128D02*
Y1700128D01*
X10940776Y1520128D02*
Y1584728D01*
X10547076Y1520128D02*
X10940776D01*
X10547076D02*
Y1540128D01*
X10940776Y1635528D02*
Y1700128D01*
X10547076D02*
X10940776D01*
X10547076Y1680128D02*
Y1700128D01*
X10940776Y1584728D02*
X10953476D01*
Y1520128D02*
Y1584728D01*
X10940776Y1520128D02*
X10953476D01*
X10940776Y1700128D02*
X10953476D01*
Y1635528D02*
Y1700128D01*
X10940776Y1635528D02*
X10953476D01*
X11095800Y1410500D02*
X11115000D01*
Y1664500D01*
X11095800D02*
X11115000D01*
X10975000D02*
X10994200D01*
X10975000Y1410500D02*
Y1664500D01*
Y1410500D02*
X10994200D01*
X10975000Y1537500D02*
X11115000D01*
X8018667Y2402362D02*
X8044067Y2376962D01*
X7993267D02*
X8018667Y2402362D01*
X7993267Y2376962D02*
X8044067D01*
X8018667Y2402362D02*
Y2427762D01*
X7928667Y2402362D02*
X8108667D01*
X8044067Y2592862D02*
X8108667D01*
Y2199162D02*
Y2592862D01*
X8088667Y2199162D02*
X8108667D01*
X7928667Y2592862D02*
X7993267D01*
X7928667Y2199162D02*
Y2592862D01*
Y2199162D02*
X7948667D01*
X8044067Y2592862D02*
Y2605562D01*
X8108667D01*
Y2592862D02*
Y2605562D01*
X7928667Y2592862D02*
Y2605562D01*
X7993267D01*
Y2592862D02*
Y2605562D01*
X7540800Y2320500D02*
X7560000D01*
Y2574500D01*
X7540800D02*
X7560000D01*
X7420000D02*
X7439200D01*
X7420000Y2320500D02*
Y2574500D01*
Y2320500D02*
X7439200D01*
X7420000Y2447500D02*
X7560000D01*
X4559200Y2987500D02*
X4660800D01*
X4559200Y2873200D02*
X4571900D01*
X4559200D02*
Y3101800D01*
X4571900D01*
X4648100D02*
X4660800D01*
Y2873200D02*
Y3101800D01*
X4648100Y2873200D02*
X4660800D01*
X4446700Y2987500D02*
X4548300D01*
X4446700Y2873200D02*
X4459400D01*
X4446700D02*
Y3101800D01*
X4459400D01*
X4535600D02*
X4548300D01*
Y2873200D02*
Y3101800D01*
X4535600Y2873200D02*
X4548300D01*
X1839760Y2125040D02*
X1859760D01*
X1839760D02*
Y2325040D01*
X1859760D01*
X1919760D02*
X1939760D01*
Y2125040D02*
Y2325040D01*
X1919760Y2125040D02*
X1939760D01*
X1919760Y2518080D02*
X1939760D01*
Y2318080D02*
Y2518080D01*
X1919760Y2318080D02*
X1939760D01*
X1839760D02*
X1859760D01*
X1839760D02*
Y2518080D01*
X1859760D01*
X1907060Y1805440D02*
X1927060D01*
Y1605440D02*
Y1805440D01*
X1907060Y1605440D02*
X1927060D01*
X1827060D02*
X1847060D01*
X1827060D02*
Y1805440D01*
X1847060D01*
X1827468Y1416380D02*
X1847468D01*
X1827468D02*
Y1616380D01*
X1847468D01*
X1907468D02*
X1927468D01*
Y1416380D02*
Y1616380D01*
X1907468Y1416380D02*
X1927468D01*
X4284980Y2413000D02*
X4297680D01*
X4284980Y2184400D02*
Y2413000D01*
Y2184400D02*
X4297680D01*
X4373880D02*
X4386580D01*
Y2413000D01*
X4373880D02*
X4386580D01*
X4284980Y2298700D02*
X4386580D01*
X3103880Y1374140D02*
Y1386840D01*
Y1374140D02*
X3332480D01*
Y1386840D01*
Y1463040D02*
Y1475740D01*
X3103880D02*
X3332480D01*
X3103880Y1463040D02*
Y1475740D01*
X3218180Y1374140D02*
Y1475740D01*
X5354320Y2173657D02*
Y2186357D01*
X5125720D02*
X5354320D01*
X5125720Y2173657D02*
Y2186357D01*
Y2084757D02*
Y2097457D01*
Y2084757D02*
X5354320D01*
Y2097457D01*
X5240020Y2084757D02*
Y2186357D01*
X8302500Y2212500D02*
Y2392500D01*
X8472500Y2352500D02*
Y2392500D01*
X8132500D02*
X8472500D01*
X8132500Y2352500D02*
Y2392500D01*
Y2212500D02*
Y2252500D01*
Y2212500D02*
X8472500D01*
Y2252500D01*
X8016240Y1518480D02*
Y1531180D01*
Y1518480D02*
X8244840D01*
Y1531180D01*
Y1607380D02*
Y1620080D01*
X8016240D02*
X8244840D01*
X8016240Y1607380D02*
Y1620080D01*
X8130540Y1518480D02*
Y1620080D01*
X8047050Y1637010D02*
Y1657010D01*
Y1637010D02*
X8247050D01*
Y1657010D01*
Y1717010D02*
Y1737010D01*
X8047050D02*
X8247050D01*
X8047050Y1717010D02*
Y1737010D01*
X8303750Y2410000D02*
Y2590000D01*
X8473750Y2550000D02*
Y2590000D01*
X8133750D02*
X8473750D01*
X8133750Y2550000D02*
Y2590000D01*
Y2410000D02*
Y2450000D01*
Y2410000D02*
X8473750D01*
Y2450000D01*
X7457660Y1314120D02*
X7470360D01*
X7457660Y1085520D02*
Y1314120D01*
Y1085520D02*
X7470360D01*
X7546560D02*
X7559260D01*
Y1314120D01*
X7546560D02*
X7559260D01*
X7457660Y1199820D02*
X7559260D01*
X7571960Y1314088D02*
X7584660D01*
X7571960Y1085488D02*
Y1314088D01*
Y1085488D02*
X7584660D01*
X7660860D02*
X7673560D01*
Y1314088D01*
X7660860D02*
X7673560D01*
X7571960Y1199788D02*
X7673560D01*
X8007320Y1163866D02*
Y1176566D01*
Y1163866D02*
X8235920D01*
Y1176566D01*
Y1252766D02*
Y1265466D01*
X8007320D02*
X8235920D01*
X8007320Y1252766D02*
Y1265466D01*
X8121620Y1163866D02*
Y1265466D01*
X7117702Y1442500D02*
Y1622500D01*
X7287702Y1582500D02*
Y1622500D01*
X6947702D02*
X7287702D01*
X6947702Y1582500D02*
Y1622500D01*
Y1442500D02*
Y1482500D01*
Y1442500D02*
X7287702D01*
Y1482500D01*
X7117702Y1630000D02*
Y1810000D01*
X7287702Y1770000D02*
Y1810000D01*
X6947702D02*
X7287702D01*
X6947702Y1770000D02*
Y1810000D01*
Y1630000D02*
Y1670000D01*
Y1630000D02*
X7287702D01*
Y1670000D01*
X7936800Y1252766D02*
Y1265466D01*
X7708200D02*
X7936800D01*
X7708200Y1252766D02*
Y1265466D01*
Y1163866D02*
Y1176566D01*
Y1163866D02*
X7936800D01*
Y1176566D01*
X7822500Y1163866D02*
Y1265466D01*
X7732501Y1961156D02*
X7752501D01*
X7732501Y1761156D02*
Y1961156D01*
Y1761156D02*
X7752501D01*
X7812501D02*
X7832501D01*
Y1961156D01*
X7812501D02*
X7832501D01*
X8233750Y1482440D02*
Y1502440D01*
X8033749D02*
X8233750D01*
X8033749Y1482440D02*
Y1502440D01*
Y1402440D02*
Y1422440D01*
Y1402440D02*
X8233750D01*
Y1422440D01*
X7330440Y1372380D02*
Y1385080D01*
Y1372380D02*
X7559040D01*
Y1385080D01*
Y1461280D02*
Y1473980D01*
X7330440D02*
X7559040D01*
X7330440Y1461280D02*
Y1473980D01*
X7444740Y1372380D02*
Y1473980D01*
X8235350Y1372292D02*
Y1384992D01*
X8006750D02*
X8235350D01*
X8006750Y1372292D02*
Y1384992D01*
Y1283392D02*
Y1296092D01*
Y1283392D02*
X8235350D01*
Y1296092D01*
X8121050Y1283392D02*
Y1384992D01*
X7559800Y1574500D02*
Y1587200D01*
X7331200D02*
X7559800D01*
X7331200Y1574500D02*
Y1587200D01*
Y1485600D02*
Y1498300D01*
Y1485600D02*
X7559800D01*
Y1498300D01*
X7445500Y1485600D02*
Y1587200D01*
X7559780Y1685916D02*
Y1705916D01*
X7359780D02*
X7559780D01*
X7359780Y1685916D02*
Y1705916D01*
Y1605916D02*
Y1625916D01*
Y1605916D02*
X7559780D01*
Y1625916D01*
X1994400Y1016800D02*
Y1029500D01*
Y1016800D02*
X2059000D01*
Y1029500D01*
X1879000Y1016800D02*
Y1029500D01*
Y1016800D02*
X1943600D01*
Y1029500D01*
X2039000Y1423200D02*
X2059000D01*
Y1029500D02*
Y1423200D01*
X1994400Y1029500D02*
X2059000D01*
X1879000Y1423200D02*
X1899000D01*
X1879000Y1029500D02*
Y1423200D01*
Y1029500D02*
X1943600D01*
X1879000Y1220000D02*
X2059000D01*
X1969000Y1194600D02*
Y1220000D01*
X1943600Y1245400D02*
X1994400D01*
X1969000Y1220000D02*
X1994400Y1245400D01*
X1943600D02*
X1969000Y1220000D01*
X1360300Y1018080D02*
Y1030780D01*
Y1018080D02*
X1424900D01*
Y1030780D01*
X1244900Y1018080D02*
Y1030780D01*
Y1018080D02*
X1309500D01*
Y1030780D01*
X1404900Y1424480D02*
X1424900D01*
Y1030780D02*
Y1424480D01*
X1360300Y1030780D02*
X1424900D01*
X1244900Y1424480D02*
X1264900D01*
X1244900Y1030780D02*
Y1424480D01*
Y1030780D02*
X1309500D01*
X1244900Y1221280D02*
X1424900D01*
X1334900Y1195880D02*
Y1221280D01*
X1309500Y1246680D02*
X1360300D01*
X1334900Y1221280D02*
X1360300Y1246680D01*
X1309500D02*
X1334900Y1221280D01*
X1439900Y1186360D02*
X1579901D01*
X1560700Y1313360D02*
X1579901D01*
Y1059360D02*
Y1313360D01*
X1560700Y1059360D02*
X1579901D01*
X1439900D02*
X1459100D01*
X1439900D02*
Y1313360D01*
X1459100D01*
X7639600Y2598000D02*
Y2610700D01*
X7575000D02*
X7639600D01*
X7575000Y2598000D02*
Y2610700D01*
X7755000Y2598000D02*
Y2610700D01*
X7690400D02*
X7755000D01*
X7690400Y2598000D02*
Y2610700D01*
X7575000Y2204300D02*
X7595000D01*
X7575000D02*
Y2598000D01*
X7639600D01*
X7735000Y2204300D02*
X7755000D01*
Y2598000D01*
X7690400D02*
X7755000D01*
X7575000Y2407500D02*
X7755000D01*
X7665000D02*
Y2432900D01*
X7639600Y2382100D02*
X7690400D01*
X7639600D02*
X7665000Y2407500D01*
X7690400Y2382100D01*
X4716980Y1385626D02*
X4729680D01*
X4716980Y1157026D02*
Y1385626D01*
Y1157026D02*
X4729680D01*
X4805880D02*
X4818580D01*
Y1385626D01*
X4805880D02*
X4818580D01*
X4716980Y1271326D02*
X4818580D01*
X12382500Y1427660D02*
Y1447660D01*
Y1427660D02*
X12582500D01*
Y1447660D01*
Y1507660D02*
Y1527660D01*
X12382500D02*
X12582500D01*
X12382500Y1507660D02*
Y1527660D01*
X10950409Y1265600D02*
Y1278300D01*
X10721809D02*
X10950409D01*
X10721809Y1265600D02*
Y1278300D01*
Y1176700D02*
Y1189400D01*
Y1176700D02*
X10950409D01*
Y1189400D01*
X10836109Y1176700D02*
Y1278300D01*
X10495000Y2750000D02*
X10525000D01*
X10495000Y2470000D02*
Y2750000D01*
Y2470000D02*
X10525000D01*
X10605000D02*
X10635000D01*
Y2750000D01*
X10605000D02*
X10635000D01*
X10495000Y2610000D02*
X10635000D01*
X10836801Y1145600D02*
Y1158300D01*
X10608201D02*
X10836801D01*
X10608201Y1145600D02*
Y1158300D01*
Y1056700D02*
Y1069400D01*
Y1056700D02*
X10836801D01*
Y1069400D01*
X10722501Y1056700D02*
Y1158300D01*
X10836800Y1385600D02*
Y1398300D01*
X10608200D02*
X10836800D01*
X10608200Y1385600D02*
Y1398300D01*
Y1296700D02*
Y1309400D01*
Y1296700D02*
X10836800D01*
Y1309400D01*
X10722500Y1296700D02*
Y1398300D01*
X10836800Y1505600D02*
Y1518300D01*
X10608200D02*
X10836800D01*
X10608200Y1505600D02*
Y1518300D01*
Y1416700D02*
Y1429400D01*
Y1416700D02*
X10836800D01*
Y1429400D01*
X10722500Y1416700D02*
Y1518300D01*
X11494680Y1051900D02*
Y1064600D01*
Y1051900D02*
X11723280D01*
Y1064600D01*
Y1140800D02*
Y1153500D01*
X11494680D02*
X11723280D01*
X11494680Y1140800D02*
Y1153500D01*
X11608980Y1051900D02*
Y1153500D01*
X11408100Y1035700D02*
X11420800D01*
Y1264300D01*
X11408100D02*
X11420800D01*
X11319200D02*
X11331900D01*
X11319200Y1035700D02*
Y1264300D01*
Y1035700D02*
X11331900D01*
X11319200Y1150000D02*
X11420800D01*
X11450000Y1661160D02*
X11630000D01*
X11450000Y1831160D02*
X11490000D01*
X11450000Y1491160D02*
Y1831160D01*
Y1491160D02*
X11490000D01*
X11590000D02*
X11630000D01*
Y1831160D01*
X11590000D02*
X11630000D01*
X12315700Y1054200D02*
Y1066900D01*
Y1054200D02*
X12544300D01*
Y1066900D01*
Y1143100D02*
Y1155800D01*
X12315700D02*
X12544300D01*
X12315700Y1143100D02*
Y1155800D01*
X12430000Y1054200D02*
Y1155800D01*
X12659300Y1250560D02*
Y1263260D01*
X12430700D02*
X12659300D01*
X12430700Y1250560D02*
Y1263260D01*
Y1161660D02*
Y1174360D01*
Y1161660D02*
X12659300D01*
Y1174360D01*
X12545000Y1161660D02*
Y1263260D01*
X11050920Y1042538D02*
Y1055238D01*
Y1042538D02*
X11279520D01*
Y1055238D01*
Y1131438D02*
Y1144138D01*
X11050920D02*
X11279520D01*
X11050920Y1131438D02*
Y1144138D01*
X11165220Y1042538D02*
Y1144138D01*
X12065700Y1054200D02*
Y1066900D01*
Y1054200D02*
X12294300D01*
Y1066900D01*
Y1143100D02*
Y1155800D01*
X12065700D02*
X12294300D01*
X12065700Y1143100D02*
Y1155800D01*
X12180000Y1054200D02*
Y1155800D01*
X4227680Y1325880D02*
X4367680D01*
X4348480Y1452880D02*
X4367680D01*
Y1198880D02*
Y1452880D01*
X4348480Y1198880D02*
X4367680D01*
X4227680D02*
X4246880D01*
X4227680D02*
Y1452880D01*
X4246880D01*
X13940152Y1694795D02*
X13980151D01*
Y1354796D02*
Y1694795D01*
X13940152Y1354796D02*
X13980151D01*
X13800153D02*
X13840152D01*
X13800153D02*
Y1694795D01*
X13840152D01*
X13800153Y1524796D02*
X13980151D01*
X4365000Y1543400D02*
Y1645000D01*
X4250700Y1632300D02*
Y1645000D01*
X4479300D01*
Y1632300D02*
Y1645000D01*
Y1543400D02*
Y1556100D01*
X4250700Y1543400D02*
X4479300D01*
X4250700D02*
Y1556100D01*
X11467500Y1167804D02*
Y1197805D01*
Y1167804D02*
X11747500D01*
Y1197805D01*
Y1277804D02*
Y1307805D01*
X11467500D02*
X11747500D01*
X11467500Y1277804D02*
Y1307805D01*
X11607500Y1167804D02*
Y1307805D01*
X12825800Y1384560D02*
Y1397260D01*
X12597200D02*
X12825800D01*
X12597200Y1384560D02*
Y1397260D01*
Y1295660D02*
Y1308360D01*
Y1295660D02*
X12825800D01*
Y1308360D01*
X12711500Y1295660D02*
Y1397260D01*
X13040981Y1376460D02*
Y1396460D01*
X12840981D02*
X13040981D01*
X12840981Y1376460D02*
Y1396460D01*
Y1296460D02*
Y1316460D01*
Y1296460D02*
X13040981D01*
Y1316460D01*
X12936501Y1616320D02*
Y1636320D01*
X12736500D02*
X12936501D01*
X12736500Y1616320D02*
Y1636320D01*
Y1536320D02*
Y1556320D01*
Y1536320D02*
X12936501D01*
Y1556320D01*
X10567420Y1942022D02*
Y1962022D01*
Y1942022D02*
X10767420D01*
Y1962022D01*
Y2022022D02*
Y2042022D01*
X10567420D02*
X10767420D01*
X10567420Y2022022D02*
Y2042022D01*
X13163681Y1485600D02*
X13193681D01*
Y1765600D01*
X13163681D02*
X13193681D01*
X13053680D02*
X13083681D01*
X13053680Y1485600D02*
Y1765600D01*
Y1485600D02*
X13083681D01*
X13053680Y1625600D02*
X13193681D01*
X11467500Y1324460D02*
Y1354460D01*
Y1324460D02*
X11747500D01*
Y1354460D01*
Y1434460D02*
Y1464460D01*
X11467500D02*
X11747500D01*
X11467500Y1434460D02*
Y1464460D01*
X11607500Y1324460D02*
Y1464460D01*
X11767500Y1056497D02*
Y1086497D01*
Y1056497D02*
X12047500D01*
Y1086497D01*
Y1166497D02*
Y1196497D01*
X11767500D02*
X12047500D01*
X11767500Y1166497D02*
Y1196497D01*
X11907500Y1056497D02*
Y1196497D01*
X12025140Y1863934D02*
X12165140D01*
X12025140Y1736934D02*
X12044340D01*
X12025140D02*
Y1990934D01*
X12044340D01*
X12145940D02*
X12165140D01*
Y1736934D02*
Y1990934D01*
X12145940Y1736934D02*
X12165140D01*
X12181546Y2008676D02*
X12211546D01*
X12181546Y1728676D02*
Y2008676D01*
Y1728676D02*
X12211546D01*
X12291546D02*
X12321546D01*
Y2008676D01*
X12291546D02*
X12321546D01*
X12181546Y1868676D02*
X12321546D01*
X12825299Y1506920D02*
Y1519620D01*
X12596699D02*
X12825299D01*
X12596699Y1506920D02*
Y1519620D01*
Y1418020D02*
Y1430720D01*
Y1418020D02*
X12825299D01*
Y1430720D01*
X12710999Y1418020D02*
Y1519620D01*
X13041000Y1498820D02*
Y1518820D01*
X12840999D02*
X13041000D01*
X12840999Y1498820D02*
Y1518820D01*
Y1418820D02*
Y1438820D01*
Y1418820D02*
X13041000D01*
Y1438820D01*
X12936501Y1258960D02*
Y1278960D01*
X12736500D02*
X12936501D01*
X12736500Y1258960D02*
Y1278960D01*
Y1178960D02*
Y1198960D01*
Y1178960D02*
X12936501D01*
Y1198960D01*
X14443739Y1257500D02*
X14583740D01*
X14443739Y1130500D02*
X14462939D01*
X14443739D02*
Y1384500D01*
X14462939D01*
X14564540D02*
X14583740D01*
Y1130500D02*
Y1384500D01*
X14564540Y1130500D02*
X14583740D01*
X14603740Y1257500D02*
X14743739D01*
X14603740Y1130500D02*
X14622940D01*
X14603740D02*
Y1384500D01*
X14622940D01*
X14724541D02*
X14743739D01*
Y1130500D02*
Y1384500D01*
X14724541Y1130500D02*
X14743739D01*
X10360000Y1696859D02*
Y1726859D01*
X10080000D02*
X10360000D01*
X10080000Y1696859D02*
Y1726859D01*
Y1586859D02*
Y1616859D01*
Y1586859D02*
X10360000D01*
Y1616859D01*
X10220000Y1586859D02*
Y1726859D01*
X10484480Y1448834D02*
X10514480D01*
Y1728834D01*
X10484480D02*
X10514480D01*
X10374480D02*
X10404480D01*
X10374480Y1448834D02*
Y1728834D01*
Y1448834D02*
X10404480D01*
X10374480Y1588834D02*
X10514480D01*
X10034160Y1451101D02*
X10064160D01*
Y1731101D01*
X10034160D02*
X10064160D01*
X9924160D02*
X9954160D01*
X9924160Y1451101D02*
Y1731101D01*
Y1451101D02*
X9954160D01*
X9924160Y1591101D02*
X10064160D01*
X10072500Y1871782D02*
X10212500D01*
X10072500Y1744782D02*
X10091700D01*
X10072500D02*
Y1998782D01*
X10091700D01*
X10193300D02*
X10212500D01*
Y1744782D02*
Y1998782D01*
X10193300Y1744782D02*
X10212500D01*
X10227500Y1871782D02*
X10367500D01*
X10227500Y1744782D02*
X10246700D01*
X10227500D02*
Y1998782D01*
X10246700D01*
X10348300D02*
X10367500D01*
Y1744782D02*
Y1998782D01*
X10348300Y1744782D02*
X10367500D01*
X13357500Y3025000D02*
Y3055000D01*
Y3025000D02*
X13637500D01*
Y3055000D01*
Y3135000D02*
Y3165000D01*
X13357500D02*
X13637500D01*
X13357500Y3135000D02*
Y3165000D01*
X13497501Y3025000D02*
Y3165000D01*
X11024452Y1157500D02*
Y1187500D01*
Y1157500D02*
X11304452D01*
Y1187500D01*
Y1267500D02*
Y1297500D01*
X11024452D02*
X11304452D01*
X11024452Y1267500D02*
Y1297500D01*
X11164452Y1157500D02*
Y1297500D01*
X11860380Y1968800D02*
X11890380D01*
X11860380Y1688800D02*
Y1968800D01*
Y1688800D02*
X11890380D01*
X11970380D02*
X12000380D01*
Y1968800D01*
X11970380D02*
X12000380D01*
X11860380Y1828800D02*
X12000380D01*
X12398860Y1844340D02*
X12428860D01*
X12398860Y1564340D02*
Y1844340D01*
Y1564340D02*
X12428860D01*
X12508860D02*
X12538860D01*
Y1844340D01*
X12508860D02*
X12538860D01*
X12398860Y1704340D02*
X12538860D01*
X14453740Y1402500D02*
Y1432500D01*
Y1402500D02*
X14733740D01*
Y1432500D01*
Y1512500D02*
Y1542500D01*
X14453740D02*
X14733740D01*
X14453740Y1512500D02*
Y1542500D01*
X14593739Y1402500D02*
Y1542500D01*
X14946152Y1148635D02*
Y1328636D01*
X14776152Y1148635D02*
Y1188636D01*
Y1148635D02*
X15116151D01*
Y1188636D01*
Y1288635D02*
Y1328636D01*
X14776152D02*
X15116151D01*
X14776152Y1288635D02*
Y1328636D01*
X14946152Y1351135D02*
Y1531136D01*
X14776152Y1351135D02*
Y1391136D01*
Y1351135D02*
X15116151D01*
Y1391136D01*
Y1491135D02*
Y1531136D01*
X14776152D02*
X15116151D01*
X14776152Y1491135D02*
Y1531136D01*
X13210152Y1523580D02*
X13390152D01*
X13210152Y1693580D02*
X13250153D01*
X13210152Y1353580D02*
Y1693580D01*
Y1353580D02*
X13250153D01*
X13350153D02*
X13390152D01*
Y1693580D01*
X13350153D02*
X13390152D01*
X13605151Y1524796D02*
X13785152D01*
X13605151Y1694795D02*
X13645152D01*
X13605151Y1354796D02*
Y1694795D01*
Y1354796D02*
X13645152D01*
X13745152D02*
X13785152D01*
Y1694795D01*
X13745152D02*
X13785152D01*
X13907500Y2257500D02*
X14087500D01*
X14047501Y2087500D02*
X14087500D01*
Y2427500D01*
X14047501D02*
X14087500D01*
X13907500D02*
X13947501D01*
X13907500Y2087500D02*
Y2427500D01*
Y2087500D02*
X13947501D01*
X13522501Y2257500D02*
X13702499D01*
X13662500Y2087500D02*
X13702499D01*
Y2427500D01*
X13662500D02*
X13702499D01*
X13522501D02*
X13562500D01*
X13522501Y2087500D02*
Y2427500D01*
Y2087500D02*
X13562500D01*
X13407652Y1523580D02*
X13587653D01*
X13407652Y1693580D02*
X13447652D01*
X13407652Y1353580D02*
Y1693580D01*
Y1353580D02*
X13447652D01*
X13547652D02*
X13587653D01*
Y1693580D01*
X13547652D02*
X13587653D01*
X13714999Y2258364D02*
X13895000D01*
X13855000Y2088364D02*
X13895000D01*
Y2428363D01*
X13855000D02*
X13895000D01*
X13714999D02*
X13755000D01*
X13714999Y2088364D02*
Y2428363D01*
Y2088364D02*
X13755000D01*
X9393572Y2718363D02*
X9573572D01*
X9533572Y2548363D02*
X9573572D01*
Y2888363D01*
X9533572D02*
X9573572D01*
X9393572D02*
X9433572D01*
X9393572Y2548363D02*
Y2888363D01*
Y2548363D02*
X9433572D01*
X9594643Y2718363D02*
X9774643D01*
X9734643Y2548363D02*
X9774643D01*
Y2888363D01*
X9734643D02*
X9774643D01*
X9594643D02*
X9634643D01*
X9594643Y2548363D02*
Y2888363D01*
Y2548363D02*
X9634643D01*
X9795714Y2718363D02*
X9975714D01*
X9935714Y2548363D02*
X9975714D01*
Y2888363D01*
X9935714D02*
X9975714D01*
X9795714D02*
X9835714D01*
X9795714Y2548363D02*
Y2888363D01*
Y2548363D02*
X9835714D01*
X9996785Y2718363D02*
X10176786D01*
X10136785Y2548363D02*
X10176786D01*
Y2888363D01*
X10136785D02*
X10176786D01*
X9996785D02*
X10036786D01*
X9996785Y2548363D02*
Y2888363D01*
Y2548363D02*
X10036786D01*
X9195531Y2721247D02*
X9375531D01*
X9335530Y2551247D02*
X9375531D01*
Y2891246D01*
X9335530D02*
X9375531D01*
X9195531D02*
X9235531D01*
X9195531Y2551247D02*
Y2891246D01*
Y2551247D02*
X9235531D01*
X10195014Y2717220D02*
X10375014D01*
X10335014Y2547220D02*
X10375014D01*
Y2887220D01*
X10335014D02*
X10375014D01*
X10195014D02*
X10235014D01*
X10195014Y2547220D02*
Y2887220D01*
Y2547220D02*
X10235014D01*
X5245344Y2243103D02*
X5265344D01*
X5245344D02*
Y2443103D01*
X5265344D01*
X5325344D02*
X5345344D01*
Y2243103D02*
Y2443103D01*
X5325344Y2243103D02*
X5345344D01*
X4582385Y1819040D02*
X4602384D01*
X4582385D02*
Y2019040D01*
X4602384D01*
X4662384D02*
X4682384D01*
Y1819040D02*
Y2019040D01*
X4662384Y1819040D02*
X4682384D01*
X4475656D02*
X4495656D01*
X4475656D02*
Y2019040D01*
X4495656D01*
X4555656D02*
X4575656D01*
Y1819040D02*
Y2019040D01*
X4555656Y1819040D02*
X4575656D01*
X4984479Y3085732D02*
X5004479D01*
Y2885732D02*
Y3085732D01*
X4984479Y2885732D02*
X5004479D01*
X4904479D02*
X4924479D01*
X4904479D02*
Y3085732D01*
X4924479D01*
X4870179D02*
X4890179D01*
Y2885732D02*
Y3085732D01*
X4870179Y2885732D02*
X4890179D01*
X4790179D02*
X4810179D01*
X4790179D02*
Y3085732D01*
X4810179D01*
X4755879D02*
X4775879D01*
Y2885732D02*
Y3085732D01*
X4755879Y2885732D02*
X4775879D01*
X4675879D02*
X4695879D01*
X4675879D02*
Y3085732D01*
X4695879D01*
X4488384Y1695638D02*
Y1715638D01*
X4688384D01*
Y1695638D02*
Y1715638D01*
Y1615639D02*
Y1635639D01*
X4488384Y1615639D02*
X4688384D01*
X4488384D02*
Y1635639D01*
Y1581338D02*
Y1601338D01*
X4688384D01*
Y1581338D02*
Y1601338D01*
Y1501339D02*
Y1521339D01*
X4488384Y1501339D02*
X4688384D01*
X4488384D02*
Y1521339D01*
X4980640Y1262700D02*
Y1364300D01*
X5094940Y1262700D02*
Y1275400D01*
X4866340Y1262700D02*
X5094940D01*
X4866340D02*
Y1275400D01*
Y1351600D02*
Y1364300D01*
X5094940D01*
Y1351600D02*
Y1364300D01*
X4250700Y1653400D02*
Y1666100D01*
Y1653400D02*
X4479300D01*
Y1666100D01*
Y1742300D02*
Y1755000D01*
X4250700D02*
X4479300D01*
X4250700Y1742300D02*
Y1755000D01*
X4365000Y1653400D02*
Y1755000D01*
D117*
X2102640Y2076460D02*
Y2176460D01*
X2042640Y2076460D02*
Y2176460D01*
X2102640D01*
X2042640Y2076460D02*
X2102640D01*
X5373460Y2958100D02*
X5543460D01*
X5373460Y2833100D02*
X5543460D01*
X5373460Y2952600D02*
Y2958100D01*
Y2833100D02*
Y2838600D01*
X5543460Y2952600D02*
Y2958100D01*
Y2833100D02*
Y2838600D01*
X11573660Y2773440D02*
Y3141440D01*
X12706160D01*
Y2773440D02*
Y3141440D01*
X11573660Y2121440D02*
Y2489440D01*
Y2121440D02*
X12703660D01*
Y2489440D01*
X13456500Y1817864D02*
X13480499D01*
Y2372864D01*
X13456500D02*
X13480499D01*
X12960500D02*
X12984500D01*
X12960500Y1817864D02*
Y2372864D01*
Y1817864D02*
X12984500D01*
X13013000Y2462364D02*
Y2486364D01*
Y2462364D02*
X13567999D01*
Y2486364D01*
Y2958364D02*
Y2982364D01*
X13013000D02*
X13567999D01*
X13013000Y2958364D02*
Y2982364D01*
X11258000Y2958500D02*
Y2982500D01*
X10703000D02*
X11258000D01*
X10703000Y2958500D02*
Y2982500D01*
Y2462500D02*
Y2486500D01*
Y2462500D02*
X11258000D01*
Y2486500D01*
X11288000Y1817000D02*
X11312000D01*
Y2372000D01*
X11288000D02*
X11312000D01*
X10792000D02*
X10816000D01*
X10792000Y1817000D02*
Y2372000D01*
Y1817000D02*
X10816000D01*
X2929980Y1605440D02*
X2987980D01*
X2587980D02*
X2645980D01*
X2987980Y2187440D02*
Y2205440D01*
Y1605440D02*
Y1623440D01*
X2950280Y2205440D02*
X2987980D01*
X2587980D02*
X2625680D01*
X2587980Y2187440D02*
Y2205440D01*
Y1605440D02*
Y1623440D01*
X2495000Y2277000D02*
X2695000D01*
X2495000Y2503000D02*
X2695000D01*
X3417500Y2625000D02*
X3817500D01*
X3417500Y3130000D02*
X3817500D01*
X7322501Y2415916D02*
Y2618917D01*
X6632501Y2415916D02*
X7322501D01*
X6632501D02*
Y2618917D01*
X7322501Y2902916D02*
Y3105917D01*
X6632501D02*
X7322501D01*
X6632501Y2902916D02*
Y3105917D01*
X7932500Y1658000D02*
Y1685000D01*
X7632500Y1658000D02*
Y1685000D01*
X7932500Y1385000D02*
Y1412000D01*
X7632500Y1385000D02*
Y1412000D01*
X7905500Y1685000D02*
X7932500D01*
X7632500D02*
X7659500D01*
X7905500Y1385000D02*
X7932500D01*
X7632500D02*
X7659500D01*
X8516820Y1473000D02*
X8922820D01*
X8516820Y1067000D02*
X8922820D01*
X8516820Y1422000D02*
Y1473000D01*
Y1067000D02*
Y1118000D01*
X8922820Y1422000D02*
Y1473000D01*
Y1067000D02*
Y1118000D01*
D118*
X8490001Y2195916D02*
G03*
X8490001Y2195916I-2500J0D01*
G01*
X7134781Y1770000D02*
G03*
X7134781Y1770000I-2500J0D01*
G01*
D119*
X6293684Y1603138D02*
X6280988Y1615834D01*
X6255596D01*
X6242900Y1603138D01*
Y1590442D01*
X6255596Y1577746D01*
X6280988D01*
X6293684Y1565050D01*
Y1552355D01*
X6280988Y1539659D01*
X6255596D01*
X6242900Y1552355D01*
X6369859Y1603138D02*
X6357164Y1615834D01*
X6331772D01*
X6319076Y1603138D01*
Y1552355D01*
X6331772Y1539659D01*
X6357164D01*
X6369859Y1552355D01*
X6395251Y1615834D02*
Y1539659D01*
X6446035D01*
X5430520Y1770900D02*
X5354345D01*
Y1808988D01*
X5367041Y1821684D01*
X5392432D01*
X5405128Y1808988D01*
Y1770900D01*
X5354345Y1847076D02*
X5430520D01*
X5392432D01*
Y1897859D01*
X5354345D01*
X5430520D01*
X6028621Y1919601D02*
X6015925Y1906905D01*
Y1881513D01*
X6028621Y1868817D01*
X6041317D01*
X6054013Y1881513D01*
Y1906905D01*
X6066709Y1919601D01*
X6079405D01*
X6092101Y1906905D01*
Y1881513D01*
X6079405Y1868817D01*
X6028621Y1995776D02*
X6015925Y1983081D01*
Y1957689D01*
X6028621Y1944993D01*
X6079405D01*
X6092101Y1957689D01*
Y1983081D01*
X6079405Y1995776D01*
X6015925Y2021168D02*
X6092101D01*
Y2071952D01*
X5601502Y1852590D02*
Y1928765D01*
X5626893Y1903373D01*
X5652285Y1928765D01*
Y1852590D01*
X5677677Y1928765D02*
X5703069D01*
X5690373D01*
Y1852590D01*
X5677677D01*
X5703069D01*
X5791940D02*
X5741156D01*
X5791940Y1903373D01*
Y1916069D01*
X5779244Y1928765D01*
X5753852D01*
X5741156Y1916069D01*
X5868115D02*
X5855420Y1928765D01*
X5830028D01*
X5817332Y1916069D01*
Y1865286D01*
X5830028Y1852590D01*
X5855420D01*
X5868115Y1865286D01*
X5349265Y1985363D02*
Y1934580D01*
X5387352D01*
Y1959972D01*
Y1934580D01*
X5425440D01*
Y2010755D02*
X5374657D01*
X5349265Y2036147D01*
X5374657Y2061539D01*
X5425440D01*
X5387352D01*
Y2010755D01*
X5902981Y1910063D02*
X5890285Y1897368D01*
Y1871976D01*
X5902981Y1859280D01*
X5915677D01*
X5928372Y1871976D01*
Y1897368D01*
X5941068Y1910063D01*
X5953764D01*
X5966460Y1897368D01*
Y1871976D01*
X5953764Y1859280D01*
X5890285Y1935455D02*
X5966460D01*
Y1973543D01*
X5953764Y1986239D01*
X5902981D01*
X5890285Y1973543D01*
Y1935455D01*
X5966460Y2011631D02*
X5915677D01*
X5890285Y2037023D01*
X5915677Y2062414D01*
X5966460D01*
X5928372D01*
Y2011631D01*
X6393180Y1657282D02*
Y1733458D01*
X6418572Y1708066D01*
X6443963Y1733458D01*
Y1657282D01*
X5651500Y1668286D02*
Y1744462D01*
X5676892Y1719070D01*
X5702283Y1744462D01*
Y1668286D01*
X5552423Y1604930D02*
X5539728Y1617626D01*
X5514336D01*
X5501640Y1604930D01*
Y1592234D01*
X5514336Y1579538D01*
X5539728D01*
X5552423Y1566842D01*
Y1554146D01*
X5539728Y1541451D01*
X5514336D01*
X5501640Y1554146D01*
X5577815Y1617626D02*
Y1541451D01*
X5615903D01*
X5628599Y1554146D01*
Y1604930D01*
X5615903Y1617626D01*
X5577815D01*
X5653991Y1541451D02*
Y1592234D01*
X5679383Y1617626D01*
X5704774Y1592234D01*
Y1541451D01*
Y1579538D01*
X5653991D01*
X6082863Y1477622D02*
X6070168Y1490318D01*
X6044776D01*
X6032080Y1477622D01*
Y1464926D01*
X6044776Y1452230D01*
X6070168D01*
X6082863Y1439534D01*
Y1426838D01*
X6070168Y1414142D01*
X6044776D01*
X6032080Y1426838D01*
X6824543Y1466618D02*
X6811848Y1479314D01*
X6786456D01*
X6773760Y1466618D01*
Y1453922D01*
X6786456Y1441226D01*
X6811848D01*
X6824543Y1428530D01*
Y1415834D01*
X6811848Y1403138D01*
X6786456D01*
X6773760Y1415834D01*
X14823422Y2986811D02*
X14810728Y2999507D01*
X14785336D01*
X14772639Y2986811D01*
Y2936028D01*
X14785336Y2923332D01*
X14810728D01*
X14823422Y2936028D01*
Y2961420D01*
X14798032D01*
X14848814Y2923332D02*
Y2999507D01*
X14899599Y2923332D01*
Y2999507D01*
X14924991D02*
Y2923332D01*
X14963078D01*
X14975774Y2936028D01*
Y2986811D01*
X14963078Y2999507D01*
X14924991D01*
X1676421Y2905743D02*
X1663725Y2893048D01*
Y2867656D01*
X1676421Y2854960D01*
X1727204D01*
X1739900Y2867656D01*
Y2893048D01*
X1727204Y2905743D01*
X1701812D01*
Y2880352D01*
X1739900Y2931135D02*
X1663725D01*
X1739900Y2981919D01*
X1663725D01*
Y3007311D02*
X1739900D01*
Y3045399D01*
X1727204Y3058094D01*
X1676421D01*
X1663725Y3045399D01*
Y3007311D01*
X6136640Y1367515D02*
Y1316732D01*
X6162032Y1291340D01*
X6187423Y1316732D01*
Y1367515D01*
X6263599Y1354819D02*
X6250903Y1367515D01*
X6225511D01*
X6212815Y1354819D01*
Y1342124D01*
X6225511Y1329428D01*
X6250903D01*
X6263599Y1316732D01*
Y1304036D01*
X6250903Y1291340D01*
X6225511D01*
X6212815Y1304036D01*
X6288991Y1367515D02*
Y1354819D01*
X6314383Y1329428D01*
X6339774Y1354819D01*
Y1367515D01*
X6314383Y1329428D02*
Y1291340D01*
X6415950Y1354819D02*
X6403254Y1367515D01*
X6377862D01*
X6365166Y1354819D01*
Y1342124D01*
X6377862Y1329428D01*
X6403254D01*
X6415950Y1316732D01*
Y1304036D01*
X6403254Y1291340D01*
X6377862D01*
X6365166Y1304036D01*
X8492334Y2768965D02*
X8416159D01*
Y2807053D01*
X8428855Y2819749D01*
X8454246D01*
X8466942Y2807053D01*
Y2768965D01*
X8492334Y2845141D02*
X8416159D01*
Y2883228D01*
X8428855Y2895924D01*
X8454246D01*
X8466942Y2883228D01*
Y2845141D01*
X8416159Y2921316D02*
X8492334D01*
X8454246D01*
Y2972099D01*
X8416159D01*
X8492334D01*
X8416159Y2997491D02*
X8466942D01*
X8492334Y3022883D01*
X8466942Y3048275D01*
X8416159D01*
X1264920Y2771115D02*
Y2720332D01*
X1290312Y2694940D01*
X1315703Y2720332D01*
Y2771115D01*
X1341095D02*
Y2694940D01*
X1379183D01*
X1391879Y2707636D01*
Y2720332D01*
X1379183Y2733028D01*
X1341095D01*
X1379183D01*
X1391879Y2745723D01*
Y2758419D01*
X1379183Y2771115D01*
X1341095D01*
X1417271D02*
Y2707636D01*
X1429967Y2694940D01*
X1455359D01*
X1468054Y2707636D01*
Y2771115D01*
X1544230Y2758419D02*
X1531534Y2771115D01*
X1506142D01*
X1493446Y2758419D01*
Y2745723D01*
X1506142Y2733028D01*
X1531534D01*
X1544230Y2720332D01*
Y2707636D01*
X1531534Y2694940D01*
X1506142D01*
X1493446Y2707636D01*
X11247108Y1559315D02*
X11221716D01*
X11209020Y1546619D01*
Y1495836D01*
X11221716Y1483140D01*
X11247108D01*
X11259803Y1495836D01*
Y1546619D01*
X11247108Y1559315D01*
X11285195D02*
Y1483140D01*
Y1508532D01*
X11335979Y1559315D01*
X11297891Y1521228D01*
X11335979Y1483140D01*
X2004043Y3091159D02*
X1991348Y3103855D01*
X1965956D01*
X1953260Y3091159D01*
Y3040376D01*
X1965956Y3027680D01*
X1991348D01*
X2004043Y3040376D01*
Y3065768D01*
X1978652D01*
X2029435Y3027680D02*
Y3103855D01*
X2080219Y3027680D01*
Y3103855D01*
X2105611D02*
Y3027680D01*
X2143699D01*
X2156394Y3040376D01*
Y3091159D01*
X2143699Y3103855D01*
X2105611D01*
X7382643Y2670080D02*
X7395339Y2682776D01*
X7420731D01*
X7433426Y2670080D01*
Y2657384D01*
X7420731Y2644688D01*
X7408035D01*
X7420731D01*
X7433426Y2631992D01*
Y2619296D01*
X7420731Y2606600D01*
X7395339D01*
X7382643Y2619296D01*
X7458818Y2682776D02*
Y2631992D01*
X7484210Y2606600D01*
X7509602Y2631992D01*
Y2682776D01*
X7534994Y2670080D02*
X7547690Y2682776D01*
X7573081D01*
X7585777Y2670080D01*
Y2657384D01*
X7573081Y2644688D01*
X7560385D01*
X7573081D01*
X7585777Y2631992D01*
Y2619296D01*
X7573081Y2606600D01*
X7547690D01*
X7534994Y2619296D01*
X8011143Y2712175D02*
X7960360D01*
Y2674088D01*
X7985752Y2686784D01*
X7998448D01*
X8011143Y2674088D01*
Y2648696D01*
X7998448Y2636000D01*
X7973056D01*
X7960360Y2648696D01*
X8036535Y2712175D02*
Y2661392D01*
X8061927Y2636000D01*
X8087319Y2661392D01*
Y2712175D01*
X3837965Y1066800D02*
X3914140D01*
Y1104888D01*
X3901444Y1117583D01*
X3850661D01*
X3837965Y1104888D01*
Y1066800D01*
Y1193759D02*
Y1142975D01*
X3914140D01*
Y1193759D01*
X3876052Y1142975D02*
Y1168367D01*
X3914140Y1219151D02*
X3863357D01*
X3837965Y1244543D01*
X3863357Y1269934D01*
X3914140D01*
X3876052D01*
Y1219151D01*
X3837965Y1295326D02*
X3914140D01*
Y1333414D01*
X3901444Y1346110D01*
X3850661D01*
X3837965Y1333414D01*
Y1295326D01*
Y1447677D02*
X3914140D01*
Y1485765D01*
X3901444Y1498460D01*
X3888748D01*
X3876052Y1485765D01*
Y1447677D01*
Y1485765D01*
X3863357Y1498460D01*
X3850661D01*
X3837965Y1485765D01*
Y1447677D01*
X3914140Y1523852D02*
X3863357D01*
X3837965Y1549244D01*
X3863357Y1574636D01*
X3914140D01*
X3876052D01*
Y1523852D01*
X3837965Y1600028D02*
Y1650811D01*
Y1625419D01*
X3914140D01*
X3837965Y1676203D02*
Y1726986D01*
Y1701595D01*
X3914140D01*
X14018260Y1687933D02*
Y1637150D01*
X14043652Y1611758D01*
X14069043Y1637150D01*
Y1687933D01*
X14145219Y1675237D02*
X14132523Y1687933D01*
X14107130D01*
X14094435Y1675237D01*
Y1662541D01*
X14107130Y1649846D01*
X14132523D01*
X14145219Y1637150D01*
Y1624454D01*
X14132523Y1611758D01*
X14107130D01*
X14094435Y1624454D01*
X14170612Y1687933D02*
Y1675237D01*
X14196004Y1649846D01*
X14221394Y1675237D01*
Y1687933D01*
X14196004Y1649846D02*
Y1611758D01*
X14297569Y1675237D02*
X14284874Y1687933D01*
X14259482D01*
X14246786Y1675237D01*
Y1662541D01*
X14259482Y1649846D01*
X14284874D01*
X14297569Y1637150D01*
Y1624454D01*
X14284874Y1611758D01*
X14259482D01*
X14246786Y1624454D01*
X11191223Y1654597D02*
X11178528Y1667293D01*
X11153136D01*
X11140440Y1654597D01*
Y1603813D01*
X11153136Y1591117D01*
X11178528D01*
X11191223Y1603813D01*
X11216615Y1667293D02*
Y1591117D01*
Y1629205D01*
X11267399D01*
Y1667293D01*
Y1591117D01*
X11292791D02*
Y1667293D01*
X11330879D01*
X11343574Y1654597D01*
Y1629205D01*
X11330879Y1616509D01*
X11292791D01*
X11318183D02*
X11343574Y1591117D01*
X11419750Y1654597D02*
X11407054Y1667293D01*
X11381662D01*
X11368966Y1654597D01*
Y1603813D01*
X11381662Y1591117D01*
X11407054D01*
X11419750Y1603813D01*
Y1629205D01*
X11394358D01*
X3605651Y2181023D02*
X3631043D01*
X3618347D01*
Y2104848D01*
X3605651D01*
X3631043D01*
X3707219Y2181023D02*
X3681827D01*
X3669131Y2168327D01*
Y2117544D01*
X3681827Y2104848D01*
X3707219D01*
X3719914Y2117544D01*
Y2168327D01*
X3707219Y2181023D01*
X3745306Y2104848D02*
X3770698D01*
X3758002D01*
Y2181023D01*
X3745306Y2168327D01*
X3808786Y2104848D02*
X3834177D01*
X3821482D01*
Y2181023D01*
X3808786Y2168327D01*
X1145565Y1136365D02*
Y1161756D01*
Y1149060D01*
X1221740D01*
Y1136365D01*
Y1161756D01*
X1145565Y1237932D02*
Y1212540D01*
X1158261Y1199844D01*
X1209044D01*
X1221740Y1212540D01*
Y1237932D01*
X1209044Y1250627D01*
X1158261D01*
X1145565Y1237932D01*
Y1276019D02*
Y1326803D01*
X1158261D01*
X1209044Y1276019D01*
X1221740D01*
X1776545Y1132840D02*
Y1158232D01*
Y1145536D01*
X1852720D01*
Y1132840D01*
Y1158232D01*
X1776545Y1234407D02*
Y1209015D01*
X1789241Y1196319D01*
X1840024D01*
X1852720Y1209015D01*
Y1234407D01*
X1840024Y1247103D01*
X1789241D01*
X1776545Y1234407D01*
Y1323278D02*
X1789241Y1297887D01*
X1814632Y1272495D01*
X1840024D01*
X1852720Y1285191D01*
Y1310583D01*
X1840024Y1323278D01*
X1827328D01*
X1814632Y1310583D01*
Y1272495D01*
X8879363Y2932813D02*
Y3008988D01*
X8930146Y2932813D01*
Y3008988D01*
X9006322D02*
X8955538D01*
Y2932813D01*
X9006322D01*
X8955538Y2970901D02*
X8980930D01*
X9082497Y2996292D02*
X9069802Y3008988D01*
X9044410D01*
X9031714Y2996292D01*
Y2945509D01*
X9044410Y2932813D01*
X9069802D01*
X9082497Y2945509D01*
Y2970901D01*
X9057106D01*
X6332203Y3101315D02*
X6281420D01*
Y3063228D01*
X6306812Y3075923D01*
X6319508D01*
X6332203Y3063228D01*
Y3037836D01*
X6319508Y3025140D01*
X6294116D01*
X6281420Y3037836D01*
X6357595Y3101315D02*
Y3050532D01*
X6382987Y3025140D01*
X6408379Y3050532D01*
Y3101315D01*
X10012179Y2326640D02*
Y2402815D01*
X10050266D01*
X10062962Y2390119D01*
Y2364728D01*
X10050266Y2352032D01*
X10012179D01*
X10088354Y2326640D02*
Y2402815D01*
X10126442D01*
X10139137Y2390119D01*
Y2364728D01*
X10126442Y2352032D01*
X10088354D01*
X10164529Y2402815D02*
Y2326640D01*
Y2364728D01*
X10215313D01*
Y2402815D01*
Y2326640D01*
X10240705Y2402815D02*
Y2352032D01*
X10266097Y2326640D01*
X10291488Y2352032D01*
Y2402815D01*
X15072279Y1898396D02*
X15021497D01*
Y1860308D01*
X15046889Y1873004D01*
X15059584D01*
X15072279Y1860308D01*
Y1834916D01*
X15059584Y1822220D01*
X15034192D01*
X15021497Y1834916D01*
X15148454Y1885700D02*
X15135759Y1898396D01*
X15110368D01*
X15097672Y1885700D01*
Y1873004D01*
X15110368Y1860308D01*
X15135759D01*
X15148454Y1847612D01*
Y1834916D01*
X15135759Y1822220D01*
X15110368D01*
X15097672Y1834916D01*
X7480283Y3060700D02*
X7429500D01*
X7480283Y3111483D01*
Y3124179D01*
X7467588Y3136875D01*
X7442196D01*
X7429500Y3124179D01*
X7556459Y3060700D02*
X7505675D01*
X7556459Y3111483D01*
Y3124179D01*
X7543763Y3136875D01*
X7518371D01*
X7505675Y3124179D01*
X8849360Y3116555D02*
Y3040380D01*
X8887448D01*
X8900143Y3053076D01*
Y3065772D01*
X8887448Y3078468D01*
X8849360D01*
X8887448D01*
X8900143Y3091163D01*
Y3103859D01*
X8887448Y3116555D01*
X8849360D01*
X8925535Y3040380D02*
Y3091163D01*
X8950927Y3116555D01*
X8976319Y3091163D01*
Y3040380D01*
Y3078468D01*
X8925535D01*
X9001711Y3116555D02*
X9052494D01*
X9027103D01*
Y3040380D01*
X9077886Y3116555D02*
X9128670D01*
X9103278D01*
Y3040380D01*
X4997714Y2806793D02*
Y2882969D01*
X5035802D01*
X5048498Y2870273D01*
Y2844881D01*
X5035802Y2832185D01*
X4997714D01*
X5073890Y2882969D02*
X5099281D01*
X5086585D01*
Y2806793D01*
X5073890D01*
X5099281D01*
X5188152Y2882969D02*
X5137369D01*
Y2806793D01*
X5188152D01*
X5137369Y2844881D02*
X5162761D01*
X5213544Y2882969D02*
X5264328D01*
Y2870273D01*
X5213544Y2819489D01*
Y2806793D01*
X5264328D01*
X5327807Y2882969D02*
X5302416D01*
X5289720Y2870273D01*
Y2819489D01*
X5302416Y2806793D01*
X5327807D01*
X5340503Y2819489D01*
Y2870273D01*
X5327807Y2882969D01*
X5670891Y2920575D02*
X5658196Y2933271D01*
X5632804D01*
X5620108Y2920575D01*
Y2869792D01*
X5632804Y2857096D01*
X5658196D01*
X5670891Y2869792D01*
Y2895183D01*
X5645500D01*
X5696283Y2857096D02*
Y2933271D01*
X5747067Y2857096D01*
Y2933271D01*
X5772459D02*
Y2857096D01*
X5810546D01*
X5823242Y2869792D01*
Y2920575D01*
X5810546Y2933271D01*
X5772459D01*
X5123163Y2969492D02*
X5110468Y2982188D01*
X5085076D01*
X5072380Y2969492D01*
Y2956796D01*
X5085076Y2944100D01*
X5110468D01*
X5123163Y2931404D01*
Y2918708D01*
X5110468Y2906012D01*
X5085076D01*
X5072380Y2918708D01*
X5148555Y2982188D02*
X5173947D01*
X5161251D01*
Y2906012D01*
X5148555D01*
X5173947D01*
X5262818Y2969492D02*
X5250123Y2982188D01*
X5224731D01*
X5212035Y2969492D01*
Y2918708D01*
X5224731Y2906012D01*
X5250123D01*
X5262818Y2918708D01*
Y2944100D01*
X5237427D01*
X4180000Y2790005D02*
Y2866180D01*
X4218088D01*
X4230784Y2853484D01*
Y2828092D01*
X4218088Y2815396D01*
X4180000D01*
X4205392D02*
X4230784Y2790005D01*
X4256175Y2853484D02*
X4268871Y2866180D01*
X4294263D01*
X4306959Y2853484D01*
Y2840788D01*
X4294263Y2828092D01*
X4306959Y2815396D01*
Y2802701D01*
X4294263Y2790005D01*
X4268871D01*
X4256175Y2802701D01*
Y2815396D01*
X4268871Y2828092D01*
X4256175Y2840788D01*
Y2853484D01*
X4268871Y2828092D02*
X4294263D01*
X4383134Y2790005D02*
X4332351D01*
X4383134Y2840788D01*
Y2853484D01*
X4370439Y2866180D01*
X4345047D01*
X4332351Y2853484D01*
X4942840Y2272120D02*
X4866665D01*
Y2310208D01*
X4879361Y2322903D01*
X4904752D01*
X4917448Y2310208D01*
Y2272120D01*
Y2297512D02*
X4942840Y2322903D01*
X4879361Y2348295D02*
X4866665Y2360991D01*
Y2386383D01*
X4879361Y2399079D01*
X4892057D01*
X4904752Y2386383D01*
X4917448Y2399079D01*
X4930144D01*
X4942840Y2386383D01*
Y2360991D01*
X4930144Y2348295D01*
X4917448D01*
X4904752Y2360991D01*
X4892057Y2348295D01*
X4879361D01*
X4904752Y2360991D02*
Y2386383D01*
X4942840Y2424471D02*
Y2449863D01*
Y2437167D01*
X4866665D01*
X4879361Y2424471D01*
X5430520Y1312484D02*
X5354345D01*
Y1350572D01*
X5367041Y1363267D01*
X5392432D01*
X5405128Y1350572D01*
Y1312484D01*
Y1337876D02*
X5430520Y1363267D01*
X5367041Y1388659D02*
X5354345Y1401355D01*
Y1426747D01*
X5367041Y1439443D01*
X5379737D01*
X5392432Y1426747D01*
X5405128Y1439443D01*
X5417824D01*
X5430520Y1426747D01*
Y1401355D01*
X5417824Y1388659D01*
X5405128D01*
X5392432Y1401355D01*
X5379737Y1388659D01*
X5367041D01*
X5392432Y1401355D02*
Y1426747D01*
X5367041Y1464835D02*
X5354345Y1477530D01*
Y1502922D01*
X5367041Y1515618D01*
X5417824D01*
X5430520Y1502922D01*
Y1477530D01*
X5417824Y1464835D01*
X5367041D01*
X6179820Y1021720D02*
Y1097895D01*
X6217908D01*
X6230603Y1085200D01*
Y1059808D01*
X6217908Y1047112D01*
X6179820D01*
X6205212D02*
X6230603Y1021720D01*
X6294083D02*
Y1097895D01*
X6255995Y1059808D01*
X6306779D01*
X6332171Y1085200D02*
X6344867Y1097895D01*
X6370259D01*
X6382954Y1085200D01*
Y1072504D01*
X6370259Y1059808D01*
X6382954Y1047112D01*
Y1034416D01*
X6370259Y1021720D01*
X6344867D01*
X6332171Y1034416D01*
Y1047112D01*
X6344867Y1059808D01*
X6332171Y1072504D01*
Y1085200D01*
X6344867Y1059808D02*
X6370259D01*
X6441440Y1076935D02*
Y1000760D01*
X6479528D01*
X6492223Y1013456D01*
Y1064239D01*
X6479528Y1076935D01*
X6441440D01*
X6517615Y1000760D02*
X6543007D01*
X6530311D01*
Y1076935D01*
X6517615Y1064239D01*
X6581095D02*
X6593791Y1076935D01*
X6619183D01*
X6631878Y1064239D01*
Y1013456D01*
X6619183Y1000760D01*
X6593791D01*
X6581095Y1013456D01*
Y1064239D01*
X2451955Y1716438D02*
X2439259Y1703743D01*
Y1678351D01*
X2451955Y1665655D01*
X2502738D01*
X2515434Y1678351D01*
Y1703743D01*
X2502738Y1716438D01*
X2451955Y1741830D02*
X2439259Y1754526D01*
Y1779918D01*
X2451955Y1792614D01*
X2464651D01*
X2477347Y1779918D01*
Y1767222D01*
Y1779918D01*
X2490043Y1792614D01*
X2502738D01*
X2515434Y1779918D01*
Y1754526D01*
X2502738Y1741830D01*
X2451955Y1818006D02*
X2439259Y1830701D01*
Y1856093D01*
X2451955Y1868789D01*
X2502738D01*
X2515434Y1856093D01*
Y1830701D01*
X2502738Y1818006D01*
X2451955D01*
X1971040Y2042135D02*
Y1978656D01*
X1983736Y1965960D01*
X2009128D01*
X2021823Y1978656D01*
Y2042135D01*
X2047215Y1978656D02*
X2059911Y1965960D01*
X2085303D01*
X2097999Y1978656D01*
Y2029439D01*
X2085303Y2042135D01*
X2059911D01*
X2047215Y2029439D01*
Y2016743D01*
X2059911Y2004048D01*
X2097999D01*
X8361680Y2651760D02*
Y2727935D01*
X8399768D01*
X8412463Y2715239D01*
Y2689848D01*
X8399768Y2677152D01*
X8361680D01*
X8387072D02*
X8412463Y2651760D01*
X8437855Y2727935D02*
X8488639D01*
Y2715239D01*
X8437855Y2664456D01*
Y2651760D01*
X8552119D02*
Y2727935D01*
X8514031Y2689848D01*
X8564814D01*
X7971243Y3069967D02*
Y2993791D01*
X8009331D01*
X8022027Y3006487D01*
Y3057271D01*
X8009331Y3069967D01*
X7971243D01*
X8047419Y2993791D02*
X8072811D01*
X8060115D01*
Y3069967D01*
X8047419Y3057271D01*
X8110898D02*
X8123594Y3069967D01*
X8148986D01*
X8161682Y3057271D01*
Y3044575D01*
X8148986Y3031879D01*
X8136290D01*
X8148986D01*
X8161682Y3019183D01*
Y3006487D01*
X8148986Y2993791D01*
X8123594D01*
X8110898Y3006487D01*
X2693220Y2720323D02*
X2680524Y2707628D01*
Y2682236D01*
X2693220Y2669540D01*
X2744004D01*
X2756700Y2682236D01*
Y2707628D01*
X2744004Y2720323D01*
X2756700Y2796499D02*
Y2745715D01*
X2705916Y2796499D01*
X2693220D01*
X2680524Y2783803D01*
Y2758411D01*
X2693220Y2745715D01*
X2756700Y2859979D02*
X2680524D01*
X2718612Y2821891D01*
Y2872674D01*
X12824443Y2245356D02*
Y2296139D01*
X12811748Y2308835D01*
X12786356D01*
X12773660Y2296139D01*
Y2245356D01*
X12786356Y2232660D01*
X12811748D01*
X12799052Y2258052D02*
X12824443Y2232660D01*
X12811748D02*
X12824443Y2245356D01*
X12887923Y2232660D02*
Y2308835D01*
X12849835Y2270748D01*
X12900620D01*
X13007323Y3055616D02*
Y3106399D01*
X12994627Y3119095D01*
X12969237D01*
X12956540Y3106399D01*
Y3055616D01*
X12969237Y3042920D01*
X12994627D01*
X12981932Y3068312D02*
X13007323Y3042920D01*
X12994627D02*
X13007323Y3055616D01*
X13032715Y3106399D02*
X13045412Y3119095D01*
X13070802D01*
X13083499Y3106399D01*
Y3093703D01*
X13070802Y3081008D01*
X13058107D01*
X13070802D01*
X13083499Y3068312D01*
Y3055616D01*
X13070802Y3042920D01*
X13045412D01*
X13032715Y3055616D01*
X10764503Y3060696D02*
Y3111479D01*
X10751808Y3124175D01*
X10726416D01*
X10713720Y3111479D01*
Y3060696D01*
X10726416Y3048000D01*
X10751808D01*
X10739112Y3073392D02*
X10764503Y3048000D01*
X10751808D02*
X10764503Y3060696D01*
X10840679Y3048000D02*
X10789895D01*
X10840679Y3098783D01*
Y3111479D01*
X10827983Y3124175D01*
X10802591D01*
X10789895Y3111479D01*
X10683223Y2330995D02*
Y2381778D01*
X10670528Y2394474D01*
X10645136D01*
X10632440Y2381778D01*
Y2330995D01*
X10645136Y2318299D01*
X10670528D01*
X10657832Y2343691D02*
X10683223Y2318299D01*
X10670528D02*
X10683223Y2330995D01*
X10708615Y2318299D02*
X10734007D01*
X10721311D01*
Y2394474D01*
X10708615Y2381778D01*
X3835400Y2346713D02*
X3759225D01*
Y2384800D01*
X3771921Y2397496D01*
X3797312D01*
X3810008Y2384800D01*
Y2346713D01*
Y2372104D02*
X3835400Y2397496D01*
X3759225Y2422888D02*
Y2473671D01*
X3771921D01*
X3822704Y2422888D01*
X3835400D01*
Y2549847D02*
Y2499063D01*
X3784617Y2549847D01*
X3771921D01*
X3759225Y2537151D01*
Y2511759D01*
X3771921Y2499063D01*
X2217420Y2557311D02*
Y2493832D01*
X2230116Y2481136D01*
X2255508D01*
X2268203Y2493832D01*
Y2557311D01*
X2293595Y2544615D02*
X2306291Y2557311D01*
X2331683D01*
X2344379Y2544615D01*
Y2531919D01*
X2331683Y2519224D01*
X2318987D01*
X2331683D01*
X2344379Y2506528D01*
Y2493832D01*
X2331683Y2481136D01*
X2306291D01*
X2293595Y2493832D01*
X4297680Y2606175D02*
Y2542696D01*
X4310376Y2530000D01*
X4335768D01*
X4348463Y2542696D01*
Y2606175D01*
X4373855Y2530000D02*
X4399247D01*
X4386551D01*
Y2606175D01*
X4373855Y2593479D01*
X7117280Y2315259D02*
Y2251779D01*
X7129976Y2239083D01*
X7155368D01*
X7168064Y2251779D01*
Y2315259D01*
X7193456Y2302563D02*
X7206152Y2315259D01*
X7231544D01*
X7244239Y2302563D01*
Y2289867D01*
X7231544Y2277171D01*
X7244239Y2264475D01*
Y2251779D01*
X7231544Y2239083D01*
X7206152D01*
X7193456Y2251779D01*
Y2264475D01*
X7206152Y2277171D01*
X7193456Y2289867D01*
Y2302563D01*
X7206152Y2277171D02*
X7231544D01*
X7965080Y2039595D02*
Y1976116D01*
X7977776Y1963420D01*
X8003168D01*
X8015864Y1976116D01*
Y2039595D01*
X8092039D02*
X8066648Y2026899D01*
X8041256Y2001508D01*
Y1976116D01*
X8053952Y1963420D01*
X8079344D01*
X8092039Y1976116D01*
Y1988812D01*
X8079344Y2001508D01*
X8041256D01*
X7932780Y2173354D02*
Y2097179D01*
X7970867D01*
X7983563Y2109875D01*
Y2160658D01*
X7970867Y2173354D01*
X7932780D01*
X8008955Y2109875D02*
X8021651Y2097179D01*
X8047043D01*
X8059739Y2109875D01*
Y2160658D01*
X8047043Y2173354D01*
X8021651D01*
X8008955Y2160658D01*
Y2147962D01*
X8021651Y2135267D01*
X8059739D01*
X7899400Y1808455D02*
Y1744976D01*
X7912096Y1732280D01*
X7937488D01*
X7950183Y1744976D01*
Y1808455D01*
X7975575D02*
X8026359D01*
Y1795759D01*
X7975575Y1744976D01*
Y1732280D01*
X3467125Y2473960D02*
X3530604D01*
X3543300Y2486656D01*
Y2512048D01*
X3530604Y2524743D01*
X3467125D01*
Y2600919D02*
Y2550135D01*
X3505212D01*
X3492517Y2575527D01*
Y2588223D01*
X3505212Y2600919D01*
X3530604D01*
X3543300Y2588223D01*
Y2562831D01*
X3530604Y2550135D01*
X2381328Y2507829D02*
X2444807D01*
X2457503Y2520525D01*
Y2545917D01*
X2444807Y2558612D01*
X2381328D01*
X2457503Y2622092D02*
X2381328D01*
X2419416Y2584004D01*
Y2634788D01*
X7221220Y1062640D02*
X7145045D01*
Y1100728D01*
X7157741Y1113423D01*
X7183132D01*
X7195828Y1100728D01*
Y1062640D01*
Y1088032D02*
X7221220Y1113423D01*
X7145045Y1189599D02*
X7157741Y1164207D01*
X7183132Y1138815D01*
X7208524D01*
X7221220Y1151511D01*
Y1176903D01*
X7208524Y1189599D01*
X7195828D01*
X7183132Y1176903D01*
Y1138815D01*
X7157741Y1214991D02*
X7145045Y1227687D01*
Y1253079D01*
X7157741Y1265774D01*
X7170437D01*
X7183132Y1253079D01*
Y1240383D01*
Y1253079D01*
X7195828Y1265774D01*
X7208524D01*
X7221220Y1253079D01*
Y1227687D01*
X7208524Y1214991D01*
X7119620Y1061720D02*
X7043445D01*
Y1099808D01*
X7056141Y1112503D01*
X7081532D01*
X7094228Y1099808D01*
Y1061720D01*
Y1087112D02*
X7119620Y1112503D01*
X7043445Y1188679D02*
X7056141Y1163287D01*
X7081532Y1137895D01*
X7106924D01*
X7119620Y1150591D01*
Y1175983D01*
X7106924Y1188679D01*
X7094228D01*
X7081532Y1175983D01*
Y1137895D01*
X7119620Y1264854D02*
Y1214071D01*
X7068837Y1264854D01*
X7056141D01*
X7043445Y1252159D01*
Y1226767D01*
X7056141Y1214071D01*
X7244781Y1059180D02*
Y1135355D01*
X7282869D01*
X7295565Y1122659D01*
Y1097268D01*
X7282869Y1084572D01*
X7244781D01*
X7270173D02*
X7295565Y1059180D01*
X7371740Y1135355D02*
X7346348Y1122659D01*
X7320956Y1097268D01*
Y1071876D01*
X7333652Y1059180D01*
X7359044D01*
X7371740Y1071876D01*
Y1084572D01*
X7359044Y1097268D01*
X7320956D01*
X7397132Y1059180D02*
X7422524D01*
X7409828D01*
Y1135355D01*
X7397132Y1122659D01*
X8269487Y1534980D02*
Y1611155D01*
X8307575D01*
X8320270Y1598459D01*
Y1573068D01*
X8307575Y1560372D01*
X8269487D01*
X8294879D02*
X8320270Y1534980D01*
X8396446Y1611155D02*
X8371054Y1598459D01*
X8345662Y1573068D01*
Y1547676D01*
X8358358Y1534980D01*
X8383750D01*
X8396446Y1547676D01*
Y1560372D01*
X8383750Y1573068D01*
X8345662D01*
X8421838Y1598459D02*
X8434534Y1611155D01*
X8459925D01*
X8472621Y1598459D01*
Y1547676D01*
X8459925Y1534980D01*
X8434534D01*
X8421838Y1547676D01*
Y1598459D01*
X8257540Y1176700D02*
Y1252875D01*
X8295628D01*
X8308323Y1240179D01*
Y1214788D01*
X8295628Y1202092D01*
X8257540D01*
X8282932D02*
X8308323Y1176700D01*
X8384499Y1252875D02*
X8333715D01*
Y1214788D01*
X8359107Y1227483D01*
X8371803D01*
X8384499Y1214788D01*
Y1189396D01*
X8371803Y1176700D01*
X8346411D01*
X8333715Y1189396D01*
X8409891D02*
X8422587Y1176700D01*
X8447979D01*
X8460674Y1189396D01*
Y1240179D01*
X8447979Y1252875D01*
X8422587D01*
X8409891Y1240179D01*
Y1227483D01*
X8422587Y1214788D01*
X8460674D01*
X6814621Y1166780D02*
Y1242955D01*
X6852709D01*
X6865405Y1230259D01*
Y1204868D01*
X6852709Y1192172D01*
X6814621D01*
X6840013D02*
X6865405Y1166780D01*
X6941580Y1242955D02*
X6890797D01*
Y1204868D01*
X6916189Y1217563D01*
X6928885D01*
X6941580Y1204868D01*
Y1179476D01*
X6928885Y1166780D01*
X6903493D01*
X6890797Y1179476D01*
X6966972Y1230259D02*
X6979668Y1242955D01*
X7005060D01*
X7017756Y1230259D01*
Y1217563D01*
X7005060Y1204868D01*
X7017756Y1192172D01*
Y1179476D01*
X7005060Y1166780D01*
X6979668D01*
X6966972Y1179476D01*
Y1192172D01*
X6979668Y1204868D01*
X6966972Y1217563D01*
Y1230259D01*
X6979668Y1204868D02*
X7005060D01*
X6812320Y1062640D02*
Y1138815D01*
X6850408D01*
X6863104Y1126119D01*
Y1100728D01*
X6850408Y1088032D01*
X6812320D01*
X6837712D02*
X6863104Y1062640D01*
X6939279Y1138815D02*
X6888496D01*
Y1100728D01*
X6913888Y1113423D01*
X6926584D01*
X6939279Y1100728D01*
Y1075336D01*
X6926584Y1062640D01*
X6901192D01*
X6888496Y1075336D01*
X6964671Y1138815D02*
X7015455D01*
Y1126119D01*
X6964671Y1075336D01*
Y1062640D01*
X8275320Y1304758D02*
Y1380933D01*
X8313408D01*
X8326103Y1368237D01*
Y1342846D01*
X8313408Y1330150D01*
X8275320D01*
X8300712D02*
X8326103Y1304758D01*
X8402279Y1380933D02*
X8351495D01*
Y1342846D01*
X8376887Y1355541D01*
X8389583D01*
X8402279Y1342846D01*
Y1317454D01*
X8389583Y1304758D01*
X8364191D01*
X8351495Y1317454D01*
X8478454Y1380933D02*
X8453063Y1368237D01*
X8427671Y1342846D01*
Y1317454D01*
X8440367Y1304758D01*
X8465759D01*
X8478454Y1317454D01*
Y1330150D01*
X8465759Y1342846D01*
X8427671D01*
X4262862Y2902240D02*
Y2978415D01*
X4300949D01*
X4313645Y2965719D01*
Y2940328D01*
X4300949Y2927632D01*
X4262862D01*
X4288254D02*
X4313645Y2902240D01*
X4389821Y2978415D02*
X4339037D01*
Y2940328D01*
X4364429Y2953024D01*
X4377125D01*
X4389821Y2940328D01*
Y2914936D01*
X4377125Y2902240D01*
X4351733D01*
X4339037Y2914936D01*
X4465996Y2978415D02*
X4415212D01*
Y2940328D01*
X4440604Y2953024D01*
X4453300D01*
X4465996Y2940328D01*
Y2914936D01*
X4453300Y2902240D01*
X4427908D01*
X4415212Y2914936D01*
X3512659Y2798490D02*
Y2874665D01*
X3550747D01*
X3563443Y2861969D01*
Y2836578D01*
X3550747Y2823882D01*
X3512659D01*
X3538051D02*
X3563443Y2798490D01*
X3639618Y2874665D02*
X3588835D01*
Y2836578D01*
X3614226Y2849273D01*
X3626922D01*
X3639618Y2836578D01*
Y2811186D01*
X3626922Y2798490D01*
X3601531D01*
X3588835Y2811186D01*
X3703098Y2798490D02*
Y2874665D01*
X3665010Y2836578D01*
X3715793D01*
X3514079Y2905170D02*
Y2981345D01*
X3552167D01*
X3564863Y2968649D01*
Y2943258D01*
X3552167Y2930562D01*
X3514079D01*
X3539471D02*
X3564863Y2905170D01*
X3641038Y2981345D02*
X3590255D01*
Y2943258D01*
X3615647Y2955953D01*
X3628343D01*
X3641038Y2943258D01*
Y2917866D01*
X3628343Y2905170D01*
X3602951D01*
X3590255Y2917866D01*
X3666430Y2968649D02*
X3679126Y2981345D01*
X3704518D01*
X3717214Y2968649D01*
Y2955953D01*
X3704518Y2943258D01*
X3691822D01*
X3704518D01*
X3717214Y2930562D01*
Y2917866D01*
X3704518Y2905170D01*
X3679126D01*
X3666430Y2917866D01*
X3514079Y3011850D02*
Y3088025D01*
X3552167D01*
X3564863Y3075329D01*
Y3049938D01*
X3552167Y3037242D01*
X3514079D01*
X3539471D02*
X3564863Y3011850D01*
X3641038Y3088025D02*
X3590255D01*
Y3049938D01*
X3615647Y3062633D01*
X3628343D01*
X3641038Y3049938D01*
Y3024546D01*
X3628343Y3011850D01*
X3602951D01*
X3590255Y3024546D01*
X3717214Y3011850D02*
X3666430D01*
X3717214Y3062633D01*
Y3075329D01*
X3704518Y3088025D01*
X3679126D01*
X3666430Y3075329D01*
X2308981Y1921574D02*
Y1997749D01*
X2347068D01*
X2359764Y1985053D01*
Y1959662D01*
X2347068Y1946966D01*
X2308981D01*
X2334373D02*
X2359764Y1921574D01*
X2435940Y1997749D02*
X2385156D01*
Y1959662D01*
X2410548Y1972357D01*
X2423244D01*
X2435940Y1959662D01*
Y1934270D01*
X2423244Y1921574D01*
X2397852D01*
X2385156Y1934270D01*
X2461331Y1921574D02*
X2486723D01*
X2474027D01*
Y1997749D01*
X2461331Y1985053D01*
X2352040Y2255520D02*
X2275865D01*
Y2293608D01*
X2288561Y2306303D01*
X2313952D01*
X2326648Y2293608D01*
Y2255520D01*
Y2280912D02*
X2352040Y2306303D01*
Y2369783D02*
X2275865D01*
X2313952Y2331695D01*
Y2382479D01*
X2339344Y2407871D02*
X2352040Y2420567D01*
Y2445959D01*
X2339344Y2458654D01*
X2288561D01*
X2275865Y2445959D01*
Y2420567D01*
X2288561Y2407871D01*
X2301257D01*
X2313952Y2420567D01*
Y2458654D01*
X3152803Y1043548D02*
X3076628D01*
Y1081636D01*
X3089324Y1094331D01*
X3114716D01*
X3127412Y1081636D01*
Y1043548D01*
Y1068940D02*
X3152803Y1094331D01*
Y1157811D02*
X3076628D01*
X3114716Y1119723D01*
Y1170507D01*
X3076628Y1195899D02*
Y1246682D01*
X3089324D01*
X3140108Y1195899D01*
X3152803D01*
X3040380Y1039277D02*
X2964205D01*
Y1077365D01*
X2976901Y1090060D01*
X3002292D01*
X3014988Y1077365D01*
Y1039277D01*
Y1064669D02*
X3040380Y1090060D01*
Y1153540D02*
X2964205D01*
X3002292Y1115452D01*
Y1166236D01*
X2964205Y1242411D02*
X2976901Y1217019D01*
X3002292Y1191628D01*
X3027684D01*
X3040380Y1204323D01*
Y1229715D01*
X3027684Y1242411D01*
X3014988D01*
X3002292Y1229715D01*
Y1191628D01*
X3312160Y2198370D02*
X3235985D01*
Y2236458D01*
X3248681Y2249153D01*
X3274072D01*
X3286768Y2236458D01*
Y2198370D01*
Y2223762D02*
X3312160Y2249153D01*
Y2312633D02*
X3235985D01*
X3274072Y2274545D01*
Y2325329D01*
X3235985Y2401504D02*
Y2350721D01*
X3274072D01*
X3261377Y2376113D01*
Y2388809D01*
X3274072Y2401504D01*
X3299464D01*
X3312160Y2388809D01*
Y2363417D01*
X3299464Y2350721D01*
X3660140Y2353270D02*
X3583965D01*
Y2391358D01*
X3596661Y2404053D01*
X3622052D01*
X3634748Y2391358D01*
Y2353270D01*
Y2378662D02*
X3660140Y2404053D01*
Y2467533D02*
X3583965D01*
X3622052Y2429445D01*
Y2480229D01*
X3660140Y2543708D02*
X3583965D01*
X3622052Y2505621D01*
Y2556404D01*
X4145280Y2373602D02*
X4069105D01*
Y2411690D01*
X4081801Y2424386D01*
X4107192D01*
X4119888Y2411690D01*
Y2373602D01*
Y2398994D02*
X4145280Y2424386D01*
Y2487865D02*
X4069105D01*
X4107192Y2449778D01*
Y2500561D01*
X4081801Y2525953D02*
X4069105Y2538649D01*
Y2564041D01*
X4081801Y2576737D01*
X4094497D01*
X4107192Y2564041D01*
Y2551345D01*
Y2564041D01*
X4119888Y2576737D01*
X4132584D01*
X4145280Y2564041D01*
Y2538649D01*
X4132584Y2525953D01*
X3434317Y1488440D02*
X3358142D01*
Y1526528D01*
X3370838Y1539223D01*
X3396230D01*
X3408926Y1526528D01*
Y1488440D01*
Y1513832D02*
X3434317Y1539223D01*
Y1602703D02*
X3358142D01*
X3396230Y1564615D01*
Y1615399D01*
X3434317Y1691574D02*
Y1640791D01*
X3383534Y1691574D01*
X3370838D01*
X3358142Y1678879D01*
Y1653487D01*
X3370838Y1640791D01*
X4577080Y2382520D02*
X4500905D01*
Y2420608D01*
X4513601Y2433303D01*
X4538992D01*
X4551688Y2420608D01*
Y2382520D01*
Y2407912D02*
X4577080Y2433303D01*
Y2496783D02*
X4500905D01*
X4538992Y2458695D01*
Y2509479D01*
X4577080Y2534871D02*
Y2560263D01*
Y2547567D01*
X4500905D01*
X4513601Y2534871D01*
X4691380Y2385500D02*
X4615205D01*
Y2423588D01*
X4627901Y2436283D01*
X4653292D01*
X4665988Y2423588D01*
Y2385500D01*
Y2410892D02*
X4691380Y2436283D01*
Y2499763D02*
X4615205D01*
X4653292Y2461675D01*
Y2512459D01*
X4627901Y2537851D02*
X4615205Y2550547D01*
Y2575938D01*
X4627901Y2588634D01*
X4678684D01*
X4691380Y2575938D01*
Y2550547D01*
X4678684Y2537851D01*
X4627901D01*
X7877419Y2590887D02*
X7801244D01*
Y2628975D01*
X7813940Y2641671D01*
X7839331D01*
X7852027Y2628975D01*
Y2590887D01*
Y2616279D02*
X7877419Y2641671D01*
X7813940Y2667063D02*
X7801244Y2679759D01*
Y2705151D01*
X7813940Y2717846D01*
X7826636D01*
X7839331Y2705151D01*
Y2692455D01*
Y2705151D01*
X7852027Y2717846D01*
X7864723D01*
X7877419Y2705151D01*
Y2679759D01*
X7864723Y2667063D01*
Y2743238D02*
X7877419Y2755934D01*
Y2781326D01*
X7864723Y2794022D01*
X7813940D01*
X7801244Y2781326D01*
Y2755934D01*
X7813940Y2743238D01*
X7826636D01*
X7839331Y2755934D01*
Y2794022D01*
X7415000Y2312500D02*
X7338825D01*
Y2350588D01*
X7351520Y2363283D01*
X7376912D01*
X7389608Y2350588D01*
Y2312500D01*
Y2337892D02*
X7415000Y2363283D01*
X7351520Y2388675D02*
X7338825Y2401371D01*
Y2426763D01*
X7351520Y2439459D01*
X7364216D01*
X7376912Y2426763D01*
Y2414067D01*
Y2426763D01*
X7389608Y2439459D01*
X7402304D01*
X7415000Y2426763D01*
Y2401371D01*
X7402304Y2388675D01*
X7351520Y2464851D02*
X7338825Y2477546D01*
Y2502938D01*
X7351520Y2515634D01*
X7364216D01*
X7376912Y2502938D01*
X7389608Y2515634D01*
X7402304D01*
X7415000Y2502938D01*
Y2477546D01*
X7402304Y2464851D01*
X7389608D01*
X7376912Y2477546D01*
X7364216Y2464851D01*
X7351520D01*
X7376912Y2477546D02*
Y2502938D01*
X3439160Y1846760D02*
Y1922935D01*
X3477248D01*
X3489943Y1910239D01*
Y1884848D01*
X3477248Y1872152D01*
X3439160D01*
X3464552D02*
X3489943Y1846760D01*
X3515335Y1910239D02*
X3528031Y1922935D01*
X3553423D01*
X3566119Y1910239D01*
Y1897543D01*
X3553423Y1884848D01*
X3540727D01*
X3553423D01*
X3566119Y1872152D01*
Y1859456D01*
X3553423Y1846760D01*
X3528031D01*
X3515335Y1859456D01*
X3642294Y1922935D02*
X3616903Y1910239D01*
X3591511Y1884848D01*
Y1859456D01*
X3604207Y1846760D01*
X3629599D01*
X3642294Y1859456D01*
Y1872152D01*
X3629599Y1884848D01*
X3591511D01*
X3762200Y1860750D02*
Y1911534D01*
X3749505Y1924230D01*
X3724113D01*
X3711417Y1911534D01*
Y1860750D01*
X3724113Y1848054D01*
X3749505D01*
X3736809Y1873446D02*
X3762200Y1848054D01*
X3749505D02*
X3762200Y1860750D01*
X3787592Y1924230D02*
X3838376D01*
Y1911534D01*
X3787592Y1860750D01*
Y1848054D01*
X1635684Y1334056D02*
Y1384840D01*
X1622988Y1397536D01*
X1597596D01*
X1584901Y1384840D01*
Y1334056D01*
X1597596Y1321360D01*
X1622988D01*
X1610292Y1346752D02*
X1635684Y1321360D01*
X1622988D02*
X1635684Y1334056D01*
X1711859Y1397536D02*
X1686468Y1384840D01*
X1661076Y1359448D01*
Y1334056D01*
X1673772Y1321360D01*
X1699164D01*
X1711859Y1334056D01*
Y1346752D01*
X1699164Y1359448D01*
X1661076D01*
X2097786Y1488436D02*
Y1539219D01*
X2085090Y1551915D01*
X2059698D01*
X2047003Y1539219D01*
Y1488436D01*
X2059698Y1475740D01*
X2085090D01*
X2072394Y1501132D02*
X2097786Y1475740D01*
X2085090D02*
X2097786Y1488436D01*
X2173961Y1551915D02*
X2123178D01*
Y1513828D01*
X2148570Y1526523D01*
X2161266D01*
X2173961Y1513828D01*
Y1488436D01*
X2161266Y1475740D01*
X2135874D01*
X2123178Y1488436D01*
X6479540Y3144912D02*
Y3068737D01*
X6530323D01*
X6555715Y3132216D02*
X6568411Y3144912D01*
X6593803D01*
X6606499Y3132216D01*
Y3119520D01*
X6593803Y3106824D01*
X6581107D01*
X6593803D01*
X6606499Y3094128D01*
Y3081432D01*
X6593803Y3068737D01*
X6568411D01*
X6555715Y3081432D01*
X10553700Y1803034D02*
Y1726859D01*
X10591788D01*
X10604483Y1739555D01*
Y1790338D01*
X10591788Y1803034D01*
X10553700D01*
X10629875D02*
X10680659D01*
Y1790338D01*
X10629875Y1739555D01*
Y1726859D01*
X3604260Y2306295D02*
Y2230120D01*
X3642348D01*
X3655043Y2242816D01*
Y2293599D01*
X3642348Y2306295D01*
X3604260D01*
X3731219D02*
X3705827Y2293599D01*
X3680435Y2268208D01*
Y2242816D01*
X3693131Y2230120D01*
X3718523D01*
X3731219Y2242816D01*
Y2255512D01*
X3718523Y2268208D01*
X3680435D01*
X6200123Y2494259D02*
X6187428Y2506955D01*
X6162036D01*
X6149340Y2494259D01*
Y2443476D01*
X6162036Y2430780D01*
X6187428D01*
X6200123Y2443476D01*
X6225515Y2494259D02*
X6238211Y2506955D01*
X6263603D01*
X6276299Y2494259D01*
Y2481563D01*
X6263603Y2468868D01*
X6276299Y2456172D01*
Y2443476D01*
X6263603Y2430780D01*
X6238211D01*
X6225515Y2443476D01*
Y2456172D01*
X6238211Y2468868D01*
X6225515Y2481563D01*
Y2494259D01*
X6238211Y2468868D02*
X6263603D01*
X6301691Y2494259D02*
X6314387Y2506955D01*
X6339779D01*
X6352474Y2494259D01*
Y2443476D01*
X6339779Y2430780D01*
X6314387D01*
X6301691Y2443476D01*
Y2494259D01*
X6512543D02*
X6499848Y2506955D01*
X6474456D01*
X6461760Y2494259D01*
Y2443476D01*
X6474456Y2430780D01*
X6499848D01*
X6512543Y2443476D01*
X6537935Y2506955D02*
X6588719D01*
Y2494259D01*
X6537935Y2443476D01*
Y2430780D01*
X6614111Y2443476D02*
X6626807Y2430780D01*
X6652199D01*
X6664894Y2443476D01*
Y2494259D01*
X6652199Y2506955D01*
X6626807D01*
X6614111Y2494259D01*
Y2481563D01*
X6626807Y2468868D01*
X6664894D01*
X6840203Y2499339D02*
X6827508Y2512035D01*
X6802116D01*
X6789420Y2499339D01*
Y2448556D01*
X6802116Y2435860D01*
X6827508D01*
X6840203Y2448556D01*
X6865595Y2512035D02*
X6916379D01*
Y2499339D01*
X6865595Y2448556D01*
Y2435860D01*
X6941771Y2499339D02*
X6954467Y2512035D01*
X6979859D01*
X6992554Y2499339D01*
Y2486643D01*
X6979859Y2473948D01*
X6992554Y2461252D01*
Y2448556D01*
X6979859Y2435860D01*
X6954467D01*
X6941771Y2448556D01*
Y2461252D01*
X6954467Y2473948D01*
X6941771Y2486643D01*
Y2499339D01*
X6954467Y2473948D02*
X6979859D01*
X7360903Y1785599D02*
X7348208Y1798295D01*
X7322816D01*
X7310120Y1785599D01*
Y1734816D01*
X7322816Y1722120D01*
X7348208D01*
X7360903Y1734816D01*
X7386295Y1798295D02*
X7437079D01*
Y1785599D01*
X7386295Y1734816D01*
Y1722120D01*
X7462471Y1798295D02*
X7513254D01*
Y1785599D01*
X7462471Y1734816D01*
Y1722120D01*
X6863101Y1461951D02*
X6850405Y1449256D01*
Y1423864D01*
X6863101Y1411168D01*
X6913884D01*
X6926580Y1423864D01*
Y1449256D01*
X6913884Y1461951D01*
X6850405Y1487343D02*
Y1538127D01*
X6863101D01*
X6913884Y1487343D01*
X6926580D01*
X6850405Y1614302D02*
X6863101Y1588910D01*
X6888492Y1563519D01*
X6913884D01*
X6926580Y1576215D01*
Y1601606D01*
X6913884Y1614302D01*
X6901188D01*
X6888492Y1601606D01*
Y1563519D01*
X8321198Y1722909D02*
X8308502Y1735605D01*
X8283110D01*
X8270414Y1722909D01*
Y1672126D01*
X8283110Y1659430D01*
X8308502D01*
X8321198Y1672126D01*
X8346590Y1735605D02*
X8397373D01*
Y1722909D01*
X8346590Y1672126D01*
Y1659430D01*
X8473549Y1735605D02*
X8422765D01*
Y1697518D01*
X8448157Y1710213D01*
X8460853D01*
X8473549Y1697518D01*
Y1672126D01*
X8460853Y1659430D01*
X8435461D01*
X8422765Y1672126D01*
X8620483Y2148165D02*
X8607787Y2160861D01*
X8582395D01*
X8569699Y2148165D01*
Y2097382D01*
X8582395Y2084686D01*
X8607787D01*
X8620483Y2097382D01*
X8645875Y2160861D02*
X8696658D01*
Y2148165D01*
X8645875Y2097382D01*
Y2084686D01*
X8760138D02*
Y2160861D01*
X8722050Y2122774D01*
X8772833D01*
X8948672Y2148162D02*
X8935977Y2160858D01*
X8910585D01*
X8897889Y2148162D01*
Y2097378D01*
X8910585Y2084682D01*
X8935977D01*
X8948672Y2097378D01*
X8974064Y2160858D02*
X9024848D01*
Y2148162D01*
X8974064Y2097378D01*
Y2084682D01*
X9050240Y2148162D02*
X9062936Y2160858D01*
X9088328D01*
X9101023Y2148162D01*
Y2135466D01*
X9088328Y2122770D01*
X9075632D01*
X9088328D01*
X9101023Y2110074D01*
Y2097378D01*
X9088328Y2084682D01*
X9062936D01*
X9050240Y2097378D01*
X9563656Y1767808D02*
X9550960Y1755112D01*
Y1729720D01*
X9563656Y1717024D01*
X9614439D01*
X9627135Y1729720D01*
Y1755112D01*
X9614439Y1767808D01*
X9550960Y1793200D02*
Y1843983D01*
X9563656D01*
X9614439Y1793200D01*
X9627135D01*
Y1920158D02*
Y1869375D01*
X9576352Y1920158D01*
X9563656D01*
X9550960Y1907463D01*
Y1882071D01*
X9563656Y1869375D01*
X8511561Y2492048D02*
X8498865Y2479352D01*
Y2453961D01*
X8511561Y2441265D01*
X8562344D01*
X8575040Y2453961D01*
Y2479352D01*
X8562344Y2492048D01*
X8498865Y2517440D02*
Y2568223D01*
X8511561D01*
X8562344Y2517440D01*
X8575040D01*
Y2593615D02*
Y2619007D01*
Y2606311D01*
X8498865D01*
X8511561Y2593615D01*
Y2243960D02*
X8498865Y2231265D01*
Y2205873D01*
X8511561Y2193177D01*
X8562344D01*
X8575040Y2205873D01*
Y2231265D01*
X8562344Y2243960D01*
X8498865Y2269352D02*
Y2320136D01*
X8511561D01*
X8562344Y2269352D01*
X8575040D01*
X8511561Y2345527D02*
X8498865Y2358223D01*
Y2383615D01*
X8511561Y2396311D01*
X8562344D01*
X8575040Y2383615D01*
Y2358223D01*
X8562344Y2345527D01*
X8511561D01*
X6809723Y1336939D02*
X6797028Y1349635D01*
X6771636D01*
X6758940Y1336939D01*
Y1286156D01*
X6771636Y1273460D01*
X6797028D01*
X6809723Y1286156D01*
X6885899Y1349635D02*
X6860507Y1336939D01*
X6835115Y1311548D01*
Y1286156D01*
X6847811Y1273460D01*
X6873203D01*
X6885899Y1286156D01*
Y1298852D01*
X6873203Y1311548D01*
X6835115D01*
X6911291Y1286156D02*
X6923987Y1273460D01*
X6949379D01*
X6962074Y1286156D01*
Y1336939D01*
X6949379Y1349635D01*
X6923987D01*
X6911291Y1336939D01*
Y1324243D01*
X6923987Y1311548D01*
X6962074D01*
X8318483Y1484983D02*
X8305788Y1497679D01*
X8280396D01*
X8267700Y1484983D01*
Y1434199D01*
X8280396Y1421503D01*
X8305788D01*
X8318483Y1434199D01*
X8394659Y1497679D02*
X8369267Y1484983D01*
X8343875Y1459591D01*
Y1434199D01*
X8356571Y1421503D01*
X8381963D01*
X8394659Y1434199D01*
Y1446895D01*
X8381963Y1459591D01*
X8343875D01*
X8420051Y1484983D02*
X8432747Y1497679D01*
X8458139D01*
X8470834Y1484983D01*
Y1472287D01*
X8458139Y1459591D01*
X8470834Y1446895D01*
Y1434199D01*
X8458139Y1421503D01*
X8432747D01*
X8420051Y1434199D01*
Y1446895D01*
X8432747Y1459591D01*
X8420051Y1472287D01*
Y1484983D01*
X8432747Y1459591D02*
X8458139D01*
X7647270Y1808463D02*
X7634575Y1795768D01*
Y1770376D01*
X7647270Y1757680D01*
X7698054D01*
X7710750Y1770376D01*
Y1795768D01*
X7698054Y1808463D01*
X7634575Y1884639D02*
X7647270Y1859247D01*
X7672662Y1833855D01*
X7698054D01*
X7710750Y1846551D01*
Y1871943D01*
X7698054Y1884639D01*
X7685358D01*
X7672662Y1871943D01*
Y1833855D01*
X7634575Y1910031D02*
Y1960814D01*
X7647270D01*
X7698054Y1910031D01*
X7710750D01*
X4282423Y3093900D02*
X4269728Y3106596D01*
X4244336D01*
X4231640Y3093900D01*
Y3043116D01*
X4244336Y3030420D01*
X4269728D01*
X4282423Y3043116D01*
X4358599Y3106596D02*
X4333207Y3093900D01*
X4307815Y3068508D01*
Y3043116D01*
X4320511Y3030420D01*
X4345903D01*
X4358599Y3043116D01*
Y3055812D01*
X4345903Y3068508D01*
X4307815D01*
X4434774Y3106596D02*
X4409383Y3093900D01*
X4383991Y3068508D01*
Y3043116D01*
X4396687Y3030420D01*
X4422079D01*
X4434774Y3043116D01*
Y3055812D01*
X4422079Y3068508D01*
X4383991D01*
X1861841Y1946320D02*
X1849145Y1933625D01*
Y1908233D01*
X1861841Y1895537D01*
X1912624D01*
X1925320Y1908233D01*
Y1933625D01*
X1912624Y1946320D01*
X1849145Y2022496D02*
X1861841Y1997104D01*
X1887232Y1971712D01*
X1912624D01*
X1925320Y1984408D01*
Y2009800D01*
X1912624Y2022496D01*
X1899928D01*
X1887232Y2009800D01*
Y1971712D01*
X1861841Y2047887D02*
X1849145Y2060583D01*
Y2085975D01*
X1861841Y2098671D01*
X1874537D01*
X1887232Y2085975D01*
Y2073279D01*
Y2085975D01*
X1899928Y2098671D01*
X1912624D01*
X1925320Y2085975D01*
Y2060583D01*
X1912624Y2047887D01*
X1955821Y1483284D02*
X1943125Y1470588D01*
Y1445196D01*
X1955821Y1432500D01*
X2006604D01*
X2019300Y1445196D01*
Y1470588D01*
X2006604Y1483284D01*
X1943125Y1559459D02*
X1955821Y1534067D01*
X1981212Y1508675D01*
X2006604D01*
X2019300Y1521371D01*
Y1546763D01*
X2006604Y1559459D01*
X1993908D01*
X1981212Y1546763D01*
Y1508675D01*
X2019300Y1584851D02*
Y1610243D01*
Y1597547D01*
X1943125D01*
X1955821Y1584851D01*
X2824463Y2849343D02*
X2811768Y2862039D01*
X2786376D01*
X2773680Y2849343D01*
Y2798560D01*
X2786376Y2785864D01*
X2811768D01*
X2824463Y2798560D01*
X2900639Y2862039D02*
X2849855D01*
Y2823952D01*
X2875247Y2836647D01*
X2887943D01*
X2900639Y2823952D01*
Y2798560D01*
X2887943Y2785864D01*
X2862551D01*
X2849855Y2798560D01*
X2926031D02*
X2938727Y2785864D01*
X2964119D01*
X2976814Y2798560D01*
Y2849343D01*
X2964119Y2862039D01*
X2938727D01*
X2926031Y2849343D01*
Y2836647D01*
X2938727Y2823952D01*
X2976814D01*
X3180287Y2506959D02*
X3167591Y2519655D01*
X3142199D01*
X3129503Y2506959D01*
Y2456176D01*
X3142199Y2443480D01*
X3167591D01*
X3180287Y2456176D01*
X3256462Y2519655D02*
X3205679D01*
Y2481568D01*
X3231070Y2494263D01*
X3243766D01*
X3256462Y2481568D01*
Y2456176D01*
X3243766Y2443480D01*
X3218375D01*
X3205679Y2456176D01*
X3281854Y2506959D02*
X3294550Y2519655D01*
X3319942D01*
X3332637Y2506959D01*
Y2494263D01*
X3319942Y2481568D01*
X3332637Y2468872D01*
Y2456176D01*
X3319942Y2443480D01*
X3294550D01*
X3281854Y2456176D01*
Y2468872D01*
X3294550Y2481568D01*
X3281854Y2494263D01*
Y2506959D01*
X3294550Y2481568D02*
X3319942D01*
X2219610Y1516363D02*
X2206914Y1503668D01*
Y1478276D01*
X2219610Y1465580D01*
X2270394D01*
X2283090Y1478276D01*
Y1503668D01*
X2270394Y1516363D01*
X2206914Y1592539D02*
Y1541755D01*
X2245002D01*
X2232306Y1567147D01*
Y1579843D01*
X2245002Y1592539D01*
X2270394D01*
X2283090Y1579843D01*
Y1554451D01*
X2270394Y1541755D01*
X2206914Y1617931D02*
Y1668714D01*
X2219610D01*
X2270394Y1617931D01*
X2283090D01*
X2027516Y1884392D02*
X2014820Y1897088D01*
X1989429D01*
X1976733Y1884392D01*
Y1833608D01*
X1989429Y1820912D01*
X2014820D01*
X2027516Y1833608D01*
X2103692Y1897088D02*
X2052908D01*
Y1859000D01*
X2078300Y1871696D01*
X2090996D01*
X2103692Y1859000D01*
Y1833608D01*
X2090996Y1820912D01*
X2065604D01*
X2052908Y1833608D01*
X2179867Y1897088D02*
X2154475Y1884392D01*
X2129083Y1859000D01*
Y1833608D01*
X2141779Y1820912D01*
X2167171D01*
X2179867Y1833608D01*
Y1846304D01*
X2167171Y1859000D01*
X2129083D01*
X2931895Y1330943D02*
X2919199Y1318248D01*
Y1292856D01*
X2931895Y1280160D01*
X2982679D01*
X2995375Y1292856D01*
Y1318248D01*
X2982679Y1330943D01*
X2919199Y1407119D02*
Y1356335D01*
X2957287D01*
X2944591Y1381727D01*
Y1394423D01*
X2957287Y1407119D01*
X2982679D01*
X2995375Y1394423D01*
Y1369031D01*
X2982679Y1356335D01*
X2995375Y1470599D02*
X2919199D01*
X2957287Y1432511D01*
Y1483294D01*
X4720625Y1064619D02*
Y1140795D01*
X4758713D01*
X4771409Y1128099D01*
Y1102707D01*
X4758713Y1090011D01*
X4720625D01*
X4746017D02*
X4771409Y1064619D01*
X4796801Y1077315D02*
X4809497Y1064619D01*
X4834888D01*
X4847584Y1077315D01*
Y1128099D01*
X4834888Y1140795D01*
X4809497D01*
X4796801Y1128099D01*
Y1115403D01*
X4809497Y1102707D01*
X4847584D01*
X12438363Y1386819D02*
X12425668Y1399515D01*
X12400276D01*
X12387580Y1386819D01*
Y1336036D01*
X12400276Y1323340D01*
X12425668D01*
X12438363Y1336036D01*
X12463755Y1323340D02*
X12489147D01*
X12476451D01*
Y1399515D01*
X12463755Y1386819D01*
X12527235D02*
X12539931Y1399515D01*
X12565323D01*
X12578018Y1386819D01*
Y1374123D01*
X12565323Y1361428D01*
X12552627D01*
X12565323D01*
X12578018Y1348732D01*
Y1336036D01*
X12565323Y1323340D01*
X12539931D01*
X12527235Y1336036D01*
X10499175Y1189400D02*
Y1265575D01*
X10537262D01*
X10549958Y1252879D01*
Y1227488D01*
X10537262Y1214792D01*
X10499175D01*
X10524566D02*
X10549958Y1189400D01*
X10626133D02*
X10575350D01*
X10626133Y1240183D01*
Y1252879D01*
X10613438Y1265575D01*
X10588046D01*
X10575350Y1252879D01*
X10651525Y1202096D02*
X10664221Y1189400D01*
X10689613D01*
X10702309Y1202096D01*
Y1252879D01*
X10689613Y1265575D01*
X10664221D01*
X10651525Y1252879D01*
Y1240183D01*
X10664221Y1227488D01*
X10702309D01*
X10836801Y1069400D02*
Y1145575D01*
X10874888D01*
X10887584Y1132879D01*
Y1107487D01*
X10874888Y1094792D01*
X10836801D01*
X10862192D02*
X10887584Y1069400D01*
X10963759D02*
X10912976D01*
X10963759Y1120183D01*
Y1132879D01*
X10951064Y1145575D01*
X10925672D01*
X10912976Y1132879D01*
X11039935Y1069400D02*
X10989151D01*
X11039935Y1120183D01*
Y1132879D01*
X11027239Y1145575D01*
X11001847D01*
X10989151Y1132879D01*
X10386060Y1310640D02*
Y1386815D01*
X10424148D01*
X10436843Y1374119D01*
Y1348728D01*
X10424148Y1336032D01*
X10386060D01*
X10411452D02*
X10436843Y1310640D01*
X10513019D02*
X10462235D01*
X10513019Y1361423D01*
Y1374119D01*
X10500323Y1386815D01*
X10474931D01*
X10462235Y1374119D01*
X10538411D02*
X10551107Y1386815D01*
X10576499D01*
X10589194Y1374119D01*
Y1323336D01*
X10576499Y1310640D01*
X10551107D01*
X10538411Y1323336D01*
Y1374119D01*
X10539021Y2826784D02*
X10526325Y2814088D01*
Y2788696D01*
X10539021Y2776000D01*
X10589804D01*
X10602500Y2788696D01*
Y2814088D01*
X10589804Y2826784D01*
X10539021Y2852175D02*
X10526325Y2864871D01*
Y2890263D01*
X10539021Y2902959D01*
X10551717D01*
X10564412Y2890263D01*
Y2877567D01*
Y2890263D01*
X10577108Y2902959D01*
X10589804D01*
X10602500Y2890263D01*
Y2864871D01*
X10589804Y2852175D01*
X10539021Y2928351D02*
X10526325Y2941047D01*
Y2966439D01*
X10539021Y2979134D01*
X10551717D01*
X10564412Y2966439D01*
X10577108Y2979134D01*
X10589804D01*
X10602500Y2966439D01*
Y2941047D01*
X10589804Y2928351D01*
X10577108D01*
X10564412Y2941047D01*
X10551717Y2928351D01*
X10539021D01*
X10564412Y2941047D02*
Y2966439D01*
X11363981Y1744036D02*
X11351285Y1731340D01*
Y1705948D01*
X11363981Y1693252D01*
X11414764D01*
X11427460Y1705948D01*
Y1731340D01*
X11414764Y1744036D01*
X11427460Y1769428D02*
Y1794819D01*
Y1782123D01*
X11351285D01*
X11363981Y1769428D01*
X11414764Y1832907D02*
X11427460Y1845603D01*
Y1870995D01*
X11414764Y1883690D01*
X11363981D01*
X11351285Y1870995D01*
Y1845603D01*
X11363981Y1832907D01*
X11376677D01*
X11389372Y1845603D01*
Y1883690D01*
X4262862Y2192527D02*
X4186686D01*
Y2230615D01*
X4199382Y2243311D01*
X4224774D01*
X4237470Y2230615D01*
Y2192527D01*
Y2217919D02*
X4262862Y2243311D01*
X4186686Y2319486D02*
X4199382Y2294095D01*
X4224774Y2268703D01*
X4250166D01*
X4262862Y2281399D01*
Y2306791D01*
X4250166Y2319486D01*
X4237470D01*
X4224774Y2306791D01*
Y2268703D01*
X3116770Y1497666D02*
Y1573841D01*
X3154858D01*
X3167554Y1561145D01*
Y1535753D01*
X3154858Y1523057D01*
X3116770D01*
X3142162D02*
X3167554Y1497666D01*
X3243729D02*
X3192946D01*
X3243729Y1548449D01*
Y1561145D01*
X3231033Y1573841D01*
X3205642D01*
X3192946Y1561145D01*
X5397500Y2098040D02*
Y2174215D01*
X5435588D01*
X5448283Y2161519D01*
Y2136128D01*
X5435588Y2123432D01*
X5397500D01*
X5422892D02*
X5448283Y2098040D01*
X5473675D02*
X5499067D01*
X5486371D01*
Y2174215D01*
X5473675Y2161519D01*
X14013200Y1407143D02*
X14000505Y1394448D01*
Y1369056D01*
X14013200Y1356360D01*
X14063985D01*
X14076680Y1369056D01*
Y1394448D01*
X14063985Y1407143D01*
X14076680Y1470623D02*
X14000505D01*
X14038593Y1432535D01*
Y1483319D01*
X14000505Y1559494D02*
X14013200Y1534103D01*
X14038593Y1508711D01*
X14063985D01*
X14076680Y1521407D01*
Y1546799D01*
X14063985Y1559494D01*
X14051288D01*
X14038593Y1546799D01*
Y1508711D01*
X2218713Y2591609D02*
Y2667784D01*
X2256801D01*
X2269496Y2655088D01*
Y2629697D01*
X2256801Y2617001D01*
X2218713D01*
X2244105D02*
X2269496Y2591609D01*
X2332976D02*
Y2667784D01*
X2294888Y2629697D01*
X2345672D01*
X2240280Y1280160D02*
Y1356335D01*
X2278368D01*
X2291063Y1343639D01*
Y1318248D01*
X2278368Y1305552D01*
X2240280D01*
X2265672D02*
X2291063Y1280160D01*
X2316455Y1343639D02*
X2329151Y1356335D01*
X2354543D01*
X2367239Y1343639D01*
Y1330943D01*
X2354543Y1318248D01*
X2341847D01*
X2354543D01*
X2367239Y1305552D01*
Y1292856D01*
X2354543Y1280160D01*
X2329151D01*
X2316455Y1292856D01*
X4203700Y1207242D02*
X4127525D01*
Y1245329D01*
X4140221Y1258025D01*
X4165612D01*
X4178308Y1245329D01*
Y1207242D01*
Y1232634D02*
X4203700Y1258025D01*
X4127525Y1283417D02*
Y1334201D01*
X4140221D01*
X4191004Y1283417D01*
X4203700D01*
X4025236Y1561924D02*
Y1638099D01*
X4063324D01*
X4076020Y1625403D01*
Y1600012D01*
X4063324Y1587316D01*
X4025236D01*
X4050628D02*
X4076020Y1561924D01*
X4101411D02*
X4126803D01*
X4114107D01*
Y1638099D01*
X4101411Y1625403D01*
X4215674Y1561924D02*
X4164891D01*
X4215674Y1612707D01*
Y1625403D01*
X4202979Y1638099D01*
X4177587D01*
X4164891Y1625403D01*
X11685000Y1558675D02*
Y1495196D01*
X11697696Y1482500D01*
X11723088D01*
X11735783Y1495196D01*
Y1558675D01*
X11811959Y1482500D02*
X11761175D01*
X11811959Y1533283D01*
Y1545979D01*
X11799263Y1558675D01*
X11773871D01*
X11761175Y1545979D01*
X9998965Y1762500D02*
X9922790D01*
Y1800588D01*
X9935486Y1813283D01*
X9960877D01*
X9973573Y1800588D01*
Y1762500D01*
Y1787892D02*
X9998965Y1813283D01*
X9935486Y1838675D02*
X9922790Y1851371D01*
Y1876763D01*
X9935486Y1889459D01*
X9948182D01*
X9960877Y1876763D01*
Y1864067D01*
Y1876763D01*
X9973573Y1889459D01*
X9986269D01*
X9998965Y1876763D01*
Y1851371D01*
X9986269Y1838675D01*
X9935486Y1914851D02*
X9922790Y1927547D01*
Y1952938D01*
X9935486Y1965634D01*
X9948182D01*
X9960877Y1952938D01*
Y1940243D01*
Y1952938D01*
X9973573Y1965634D01*
X9986269D01*
X9998965Y1952938D01*
Y1927547D01*
X9986269Y1914851D01*
X9895840Y1762500D02*
X9819665D01*
Y1800588D01*
X9832361Y1813283D01*
X9857752D01*
X9870448Y1800588D01*
Y1762500D01*
Y1787892D02*
X9895840Y1813283D01*
X9832361Y1838675D02*
X9819665Y1851371D01*
Y1876763D01*
X9832361Y1889459D01*
X9845057D01*
X9857752Y1876763D01*
Y1864067D01*
Y1876763D01*
X9870448Y1889459D01*
X9883144D01*
X9895840Y1876763D01*
Y1851371D01*
X9883144Y1838675D01*
X9895840Y1965634D02*
Y1914851D01*
X9845057Y1965634D01*
X9832361D01*
X9819665Y1952938D01*
Y1927547D01*
X9832361Y1914851D01*
X10445000Y2268195D02*
X10368825D01*
Y2306283D01*
X10381521Y2318978D01*
X10406912D01*
X10419608Y2306283D01*
Y2268195D01*
Y2293587D02*
X10445000Y2318978D01*
X10381521Y2344370D02*
X10368825Y2357066D01*
Y2382458D01*
X10381521Y2395154D01*
X10394216D01*
X10406912Y2382458D01*
Y2369762D01*
Y2382458D01*
X10419608Y2395154D01*
X10432304D01*
X10445000Y2382458D01*
Y2357066D01*
X10432304Y2344370D01*
X10445000Y2420546D02*
Y2445937D01*
Y2433242D01*
X10368825D01*
X10381521Y2420546D01*
X14420560Y1056213D02*
X14344385D01*
Y1094301D01*
X14357082Y1106997D01*
X14382472D01*
X14395168Y1094301D01*
Y1056213D01*
Y1081605D02*
X14420560Y1106997D01*
Y1183172D02*
Y1132388D01*
X14369775Y1183172D01*
X14357082D01*
X14344385Y1170476D01*
Y1145084D01*
X14357082Y1132388D01*
X14344385Y1208564D02*
Y1259347D01*
X14357082D01*
X14407864Y1208564D01*
X14420560D01*
X14293060Y1053713D02*
X14216885D01*
Y1091801D01*
X14229581Y1104497D01*
X14254971D01*
X14267668Y1091801D01*
Y1053713D01*
Y1079105D02*
X14293060Y1104497D01*
Y1180672D02*
Y1129889D01*
X14242278Y1180672D01*
X14229581D01*
X14216885Y1167976D01*
Y1142584D01*
X14229581Y1129889D01*
X14216885Y1256847D02*
X14229581Y1231456D01*
X14254971Y1206064D01*
X14280363D01*
X14293060Y1218760D01*
Y1244152D01*
X14280363Y1256847D01*
X14267668D01*
X14254971Y1244152D01*
Y1206064D01*
X11930380Y2034540D02*
Y2110715D01*
X11968468D01*
X11981163Y2098019D01*
Y2072628D01*
X11968468Y2059932D01*
X11930380D01*
X11955772D02*
X11981163Y2034540D01*
X12057339D02*
X12006555D01*
X12057339Y2085323D01*
Y2098019D01*
X12044643Y2110715D01*
X12019251D01*
X12006555Y2098019D01*
X12082731D02*
X12095427Y2110715D01*
X12120819D01*
X12133514Y2098019D01*
Y2085323D01*
X12120819Y2072628D01*
X12133514Y2059932D01*
Y2047236D01*
X12120819Y2034540D01*
X12095427D01*
X12082731Y2047236D01*
Y2059932D01*
X12095427Y2072628D01*
X12082731Y2085323D01*
Y2098019D01*
X12095427Y2072628D02*
X12120819D01*
X12732500Y3131175D02*
Y3055000D01*
X12783283D01*
X12808675D02*
X12834067D01*
X12821371D01*
Y3131175D01*
X12808675Y3118479D01*
X14029980Y2595831D02*
X14017285Y2583136D01*
Y2557744D01*
X14029980Y2545048D01*
X14080763D01*
X14093460Y2557744D01*
Y2583136D01*
X14080763Y2595831D01*
X14017285Y2672007D02*
Y2621223D01*
X14055373D01*
X14042677Y2646615D01*
Y2659311D01*
X14055373Y2672007D01*
X14080763D01*
X14093460Y2659311D01*
Y2633919D01*
X14080763Y2621223D01*
X14029980Y2697399D02*
X14017285Y2710095D01*
Y2735487D01*
X14029980Y2748182D01*
X14042677D01*
X14055373Y2735487D01*
Y2722791D01*
Y2735487D01*
X14068068Y2748182D01*
X14080763D01*
X14093460Y2735487D01*
Y2710095D01*
X14080763Y2697399D01*
X13326672Y1115043D02*
X13313976Y1102348D01*
Y1076956D01*
X13326672Y1064260D01*
X13377457D01*
X13390152Y1076956D01*
Y1102348D01*
X13377457Y1115043D01*
X13313976Y1191219D02*
Y1140435D01*
X13352065D01*
X13339368Y1165827D01*
Y1178523D01*
X13352065Y1191219D01*
X13377457D01*
X13390152Y1178523D01*
Y1153131D01*
X13377457Y1140435D01*
X13326672Y1216611D02*
X13313976Y1229307D01*
Y1254699D01*
X13326672Y1267394D01*
X13377457D01*
X13390152Y1254699D01*
Y1229307D01*
X13377457Y1216611D01*
X13326672D01*
X13220721Y1112503D02*
X13208025Y1099808D01*
Y1074416D01*
X13220721Y1061720D01*
X13271504D01*
X13284200Y1074416D01*
Y1099808D01*
X13271504Y1112503D01*
X13284200Y1175983D02*
X13208025D01*
X13246112Y1137895D01*
Y1188679D01*
X13208025Y1264854D02*
Y1214071D01*
X13246112D01*
X13233417Y1239463D01*
Y1252159D01*
X13246112Y1264854D01*
X13271504D01*
X13284200Y1252159D01*
Y1226767D01*
X13271504Y1214071D01*
X13431541Y1117583D02*
X13418845Y1104888D01*
Y1079496D01*
X13431541Y1066800D01*
X13482324D01*
X13495020Y1079496D01*
Y1104888D01*
X13482324Y1117583D01*
X13495020Y1181063D02*
X13418845D01*
X13456932Y1142975D01*
Y1193759D01*
X13431541Y1219151D02*
X13418845Y1231847D01*
Y1257239D01*
X13431541Y1269934D01*
X13444237D01*
X13456932Y1257239D01*
Y1244543D01*
Y1257239D01*
X13469627Y1269934D01*
X13482324D01*
X13495020Y1257239D01*
Y1231847D01*
X13482324Y1219151D01*
X13098801Y1301288D02*
X13086105Y1288592D01*
Y1263200D01*
X13098801Y1250504D01*
X13149583D01*
X13162280Y1263200D01*
Y1288592D01*
X13149583Y1301288D01*
X13162280Y1364768D02*
X13086105D01*
X13124191Y1326680D01*
Y1377463D01*
X13162280Y1453639D02*
Y1402855D01*
X13111497Y1453639D01*
X13098801D01*
X13086105Y1440943D01*
Y1415551D01*
X13098801Y1402855D01*
X13183284Y3113479D02*
X13170589Y3126175D01*
X13145197D01*
X13132500Y3113479D01*
Y3062696D01*
X13145197Y3050000D01*
X13170589D01*
X13183284Y3062696D01*
X13246764Y3050000D02*
Y3126175D01*
X13208675Y3088088D01*
X13259459D01*
X13284851Y3050000D02*
X13310243D01*
X13297546D01*
Y3126175D01*
X13284851Y3113479D01*
X10422185Y1804332D02*
X10409489Y1791636D01*
Y1766244D01*
X10422185Y1753548D01*
X10472969D01*
X10485665Y1766244D01*
Y1791636D01*
X10472969Y1804332D01*
X10485665Y1867811D02*
X10409489D01*
X10447577Y1829724D01*
Y1880507D01*
X10422185Y1905899D02*
X10409489Y1918595D01*
Y1943987D01*
X10422185Y1956682D01*
X10472969D01*
X10485665Y1943987D01*
Y1918595D01*
X10472969Y1905899D01*
X10422185D01*
X9836985Y1504263D02*
X9824289Y1491568D01*
Y1466176D01*
X9836985Y1453480D01*
X9887769D01*
X9900465Y1466176D01*
Y1491568D01*
X9887769Y1504263D01*
X9836985Y1529655D02*
X9824289Y1542351D01*
Y1567743D01*
X9836985Y1580439D01*
X9849681D01*
X9862377Y1567743D01*
Y1555047D01*
Y1567743D01*
X9875073Y1580439D01*
X9887769D01*
X9900465Y1567743D01*
Y1542351D01*
X9887769Y1529655D01*
Y1605831D02*
X9900465Y1618527D01*
Y1643918D01*
X9887769Y1656614D01*
X9836985D01*
X9824289Y1643918D01*
Y1618527D01*
X9836985Y1605831D01*
X9849681D01*
X9862377Y1618527D01*
Y1656614D01*
X10170143Y1546361D02*
X10157448Y1559057D01*
X10132056D01*
X10119360Y1546361D01*
Y1495578D01*
X10132056Y1482882D01*
X10157448D01*
X10170143Y1495578D01*
X10195535Y1546361D02*
X10208231Y1559057D01*
X10233623D01*
X10246319Y1546361D01*
Y1533665D01*
X10233623Y1520970D01*
X10220927D01*
X10233623D01*
X10246319Y1508274D01*
Y1495578D01*
X10233623Y1482882D01*
X10208231D01*
X10195535Y1495578D01*
X10271711Y1559057D02*
X10322494D01*
Y1546361D01*
X10271711Y1495578D01*
Y1482882D01*
X12567941Y1617963D02*
X12555245Y1605268D01*
Y1579876D01*
X12567941Y1567180D01*
X12618724D01*
X12631420Y1579876D01*
Y1605268D01*
X12618724Y1617963D01*
X12567941Y1643355D02*
X12555245Y1656051D01*
Y1681443D01*
X12567941Y1694139D01*
X12580637D01*
X12593332Y1681443D01*
Y1668747D01*
Y1681443D01*
X12606028Y1694139D01*
X12618724D01*
X12631420Y1681443D01*
Y1656051D01*
X12618724Y1643355D01*
X12555245Y1770314D02*
X12567941Y1744923D01*
X12593332Y1719531D01*
X12618724D01*
X12631420Y1732227D01*
Y1757619D01*
X12618724Y1770314D01*
X12606028D01*
X12593332Y1757619D01*
Y1719531D01*
X11683663Y1911363D02*
X11670968Y1924059D01*
X11645576D01*
X11632880Y1911363D01*
Y1860580D01*
X11645576Y1847884D01*
X11670968D01*
X11683663Y1860580D01*
X11709055Y1911363D02*
X11721751Y1924059D01*
X11747143D01*
X11759839Y1911363D01*
Y1898667D01*
X11747143Y1885972D01*
X11734447D01*
X11747143D01*
X11759839Y1873276D01*
Y1860580D01*
X11747143Y1847884D01*
X11721751D01*
X11709055Y1860580D01*
X11836014Y1924059D02*
X11785231D01*
Y1885972D01*
X11810623Y1898667D01*
X11823318D01*
X11836014Y1885972D01*
Y1860580D01*
X11823318Y1847884D01*
X11797927D01*
X11785231Y1860580D01*
X10607023Y2135461D02*
X10594328Y2148157D01*
X10568936D01*
X10556240Y2135461D01*
Y2084678D01*
X10568936Y2071982D01*
X10594328D01*
X10607023Y2084678D01*
X10632415Y2135461D02*
X10645111Y2148157D01*
X10670503D01*
X10683199Y2135461D01*
Y2122765D01*
X10670503Y2110069D01*
X10657807D01*
X10670503D01*
X10683199Y2097374D01*
Y2084678D01*
X10670503Y2071982D01*
X10645111D01*
X10632415Y2084678D01*
X10746679Y2071982D02*
Y2148157D01*
X10708591Y2110069D01*
X10759374D01*
X10607023Y2240501D02*
X10594328Y2253197D01*
X10568936D01*
X10556240Y2240501D01*
Y2189718D01*
X10568936Y2177022D01*
X10594328D01*
X10607023Y2189718D01*
X10632415Y2240501D02*
X10645111Y2253197D01*
X10670503D01*
X10683199Y2240501D01*
Y2227805D01*
X10670503Y2215110D01*
X10657807D01*
X10670503D01*
X10683199Y2202414D01*
Y2189718D01*
X10670503Y2177022D01*
X10645111D01*
X10632415Y2189718D01*
X10708591Y2240501D02*
X10721287Y2253197D01*
X10746679D01*
X10759374Y2240501D01*
Y2227805D01*
X10746679Y2215110D01*
X10733983D01*
X10746679D01*
X10759374Y2202414D01*
Y2189718D01*
X10746679Y2177022D01*
X10721287D01*
X10708591Y2189718D01*
X8729963Y2631881D02*
X8717268Y2644577D01*
X8691876D01*
X8679180Y2631881D01*
Y2581098D01*
X8691876Y2568402D01*
X8717268D01*
X8729963Y2581098D01*
X8755355Y2631881D02*
X8768051Y2644577D01*
X8793443D01*
X8806139Y2631881D01*
Y2619185D01*
X8793443Y2606490D01*
X8780747D01*
X8793443D01*
X8806139Y2593794D01*
Y2581098D01*
X8793443Y2568402D01*
X8768051D01*
X8755355Y2581098D01*
X8882314Y2568402D02*
X8831531D01*
X8882314Y2619185D01*
Y2631881D01*
X8869619Y2644577D01*
X8844227D01*
X8831531Y2631881D01*
X9459020Y2958283D02*
X9446325Y2945588D01*
Y2920196D01*
X9459020Y2907500D01*
X9509804D01*
X9522500Y2920196D01*
Y2945588D01*
X9509804Y2958283D01*
X9459020Y2983675D02*
X9446325Y2996371D01*
Y3021763D01*
X9459020Y3034459D01*
X9471716D01*
X9484412Y3021763D01*
Y3009067D01*
Y3021763D01*
X9497108Y3034459D01*
X9509804D01*
X9522500Y3021763D01*
Y2996371D01*
X9509804Y2983675D01*
X9522500Y3059851D02*
Y3085242D01*
Y3072547D01*
X9446325D01*
X9459020Y3059851D01*
X9659021Y2960784D02*
X9646325Y2948088D01*
Y2922696D01*
X9659021Y2910000D01*
X9709804D01*
X9722500Y2922696D01*
Y2948088D01*
X9709804Y2960784D01*
X9722500Y3036959D02*
Y2986175D01*
X9671716Y3036959D01*
X9659021D01*
X9646325Y3024263D01*
Y2998871D01*
X9659021Y2986175D01*
X9709804Y3062351D02*
X9722500Y3075047D01*
Y3100439D01*
X9709804Y3113134D01*
X9659021D01*
X9646325Y3100439D01*
Y3075047D01*
X9659021Y3062351D01*
X9671716D01*
X9684412Y3075047D01*
Y3113134D01*
X9864021Y2958283D02*
X9851325Y2945588D01*
Y2920196D01*
X9864021Y2907500D01*
X9914804D01*
X9927500Y2920196D01*
Y2945588D01*
X9914804Y2958283D01*
X9927500Y3034459D02*
Y2983675D01*
X9876717Y3034459D01*
X9864021D01*
X9851325Y3021763D01*
Y2996371D01*
X9864021Y2983675D01*
Y3059851D02*
X9851325Y3072547D01*
Y3097938D01*
X9864021Y3110634D01*
X9876717D01*
X9889412Y3097938D01*
X9902108Y3110634D01*
X9914804D01*
X9927500Y3097938D01*
Y3072547D01*
X9914804Y3059851D01*
X9902108D01*
X9889412Y3072547D01*
X9876717Y3059851D01*
X9864021D01*
X9889412Y3072547D02*
Y3097938D01*
X10059021Y2963283D02*
X10046325Y2950588D01*
Y2925196D01*
X10059021Y2912500D01*
X10109804D01*
X10122500Y2925196D01*
Y2950588D01*
X10109804Y2963283D01*
X10122500Y3039459D02*
Y2988675D01*
X10071716Y3039459D01*
X10059021D01*
X10046325Y3026763D01*
Y3001371D01*
X10059021Y2988675D01*
X10046325Y3064851D02*
Y3115634D01*
X10059021D01*
X10109804Y3064851D01*
X10122500D01*
X9255781Y2960784D02*
X9243085Y2948088D01*
Y2922696D01*
X9255781Y2910000D01*
X9306564D01*
X9319260Y2922696D01*
Y2948088D01*
X9306564Y2960784D01*
X9319260Y3036959D02*
Y2986175D01*
X9268477Y3036959D01*
X9255781D01*
X9243085Y3024263D01*
Y2998871D01*
X9255781Y2986175D01*
X9243085Y3113134D02*
X9255781Y3087743D01*
X9281172Y3062351D01*
X9306564D01*
X9319260Y3075047D01*
Y3100439D01*
X9306564Y3113134D01*
X9293868D01*
X9281172Y3100439D01*
Y3062351D01*
X10409488Y2599147D02*
X10396792Y2586451D01*
Y2561059D01*
X10409488Y2548363D01*
X10460271D01*
X10472967Y2561059D01*
Y2586451D01*
X10460271Y2599147D01*
X10472967Y2675322D02*
Y2624539D01*
X10422184Y2675322D01*
X10409488D01*
X10396792Y2662627D01*
Y2637235D01*
X10409488Y2624539D01*
X10396792Y2751498D02*
Y2700714D01*
X10434880D01*
X10422184Y2726106D01*
Y2738802D01*
X10434880Y2751498D01*
X10460271D01*
X10472967Y2738802D01*
Y2713410D01*
X10460271Y2700714D01*
X14643758Y2781283D02*
X14631062Y2768588D01*
Y2743196D01*
X14643758Y2730500D01*
X14694540D01*
X14707237Y2743196D01*
Y2768588D01*
X14694540Y2781283D01*
X14707237Y2806675D02*
Y2832067D01*
Y2819371D01*
X14631062D01*
X14643758Y2806675D01*
X14631062Y2920938D02*
X14643758Y2895547D01*
X14669148Y2870155D01*
X14694540D01*
X14707237Y2882851D01*
Y2908243D01*
X14694540Y2920938D01*
X14681845D01*
X14669148Y2908243D01*
Y2870155D01*
X11789220Y1268283D02*
X11776524Y1255588D01*
Y1230196D01*
X11789220Y1217500D01*
X11840004D01*
X11852700Y1230196D01*
Y1255588D01*
X11840004Y1268283D01*
X11852700Y1344459D02*
Y1293675D01*
X11801916Y1344459D01*
X11789220D01*
X11776524Y1331763D01*
Y1306371D01*
X11789220Y1293675D01*
Y1369851D02*
X11776524Y1382547D01*
Y1407939D01*
X11789220Y1420634D01*
X11840004D01*
X11852700Y1407939D01*
Y1382547D01*
X11840004Y1369851D01*
X11789220D01*
X11300784Y1413480D02*
X11288088Y1426175D01*
X11262696D01*
X11250000Y1413480D01*
Y1362696D01*
X11262696Y1350000D01*
X11288088D01*
X11300784Y1362696D01*
X11376959Y1350000D02*
X11326175D01*
X11376959Y1400784D01*
Y1413480D01*
X11364263Y1426175D01*
X11338871D01*
X11326175Y1413480D01*
X11402351D02*
X11415047Y1426175D01*
X11440439D01*
X11453134Y1413480D01*
Y1400784D01*
X11440439Y1388088D01*
X11427743D01*
X11440439D01*
X11453134Y1375392D01*
Y1362696D01*
X11440439Y1350000D01*
X11415047D01*
X11402351Y1362696D01*
X12235157Y2095980D02*
X12222461Y2108675D01*
X12197069D01*
X12184373Y2095980D01*
Y2045196D01*
X12197069Y2032500D01*
X12222461D01*
X12235157Y2045196D01*
X12311332Y2032500D02*
X12260549D01*
X12311332Y2083284D01*
Y2095980D01*
X12298636Y2108675D01*
X12273244D01*
X12260549Y2095980D01*
X12387507Y2032500D02*
X12336724D01*
X12387507Y2083284D01*
Y2095980D01*
X12374812Y2108675D01*
X12349420D01*
X12336724Y2095980D01*
X8653780Y1429686D02*
Y1353511D01*
X8704563D01*
X8780739D02*
X8729955D01*
X8780739Y1404295D01*
Y1416991D01*
X8768043Y1429686D01*
X8742651D01*
X8729955Y1416991D01*
X4876679Y1162940D02*
Y1239115D01*
X4914767D01*
X4927463Y1226419D01*
Y1201028D01*
X4914767Y1188332D01*
X4876679D01*
X4902071D02*
X4927463Y1162940D01*
X4952855D02*
X4978247D01*
X4965551D01*
Y1239115D01*
X4952855Y1226419D01*
X5016334D02*
X5029030Y1239115D01*
X5054422D01*
X5067118Y1226419D01*
Y1175636D01*
X5054422Y1162940D01*
X5029030D01*
X5016334Y1175636D01*
Y1226419D01*
X4460392Y1144115D02*
X4485784D01*
X4473088D01*
Y1067940D01*
X4460392D01*
X4485784D01*
X4574655Y1131419D02*
X4561959Y1144115D01*
X4536567D01*
X4523871Y1131419D01*
Y1080636D01*
X4536567Y1067940D01*
X4561959D01*
X4574655Y1080636D01*
X4600047Y1067940D02*
X4625439D01*
X4612743D01*
Y1144115D01*
X4600047Y1131419D01*
X5135280Y1354115D02*
X5160672D01*
X5147976D01*
Y1277940D01*
X5135280D01*
X5160672D01*
X5249543Y1341419D02*
X5236848Y1354115D01*
X5211456D01*
X5198760Y1341419D01*
Y1290636D01*
X5211456Y1277940D01*
X5236848D01*
X5249543Y1290636D01*
X5325719Y1277940D02*
X5274935D01*
X5325719Y1328723D01*
Y1341419D01*
X5313023Y1354115D01*
X5287631D01*
X5274935Y1341419D01*
X7429781Y2295216D02*
Y2219041D01*
X7467869D01*
X7480565Y2231737D01*
Y2282520D01*
X7467869Y2295216D01*
X7429781D01*
X7505957Y2282520D02*
X7518652Y2295216D01*
X7544044D01*
X7556740Y2282520D01*
Y2269825D01*
X7544044Y2257129D01*
X7556740Y2244433D01*
Y2231737D01*
X7544044Y2219041D01*
X7518652D01*
X7505957Y2231737D01*
Y2244433D01*
X7518652Y2257129D01*
X7505957Y2269825D01*
Y2282520D01*
X7518652Y2257129D02*
X7544044D01*
X4998741Y2321983D02*
X4986045Y2309288D01*
Y2283896D01*
X4998741Y2271200D01*
X5049524D01*
X5062220Y2283896D01*
Y2309288D01*
X5049524Y2321983D01*
X5062220Y2347375D02*
Y2372767D01*
Y2360071D01*
X4986045D01*
X4998741Y2347375D01*
X4254521Y1930383D02*
X4241825Y1917688D01*
Y1892296D01*
X4254521Y1879600D01*
X4305304D01*
X4318000Y1892296D01*
Y1917688D01*
X4305304Y1930383D01*
X4254521Y1955775D02*
X4241825Y1968471D01*
Y1993863D01*
X4254521Y2006559D01*
X4267217D01*
X4279912Y1993863D01*
X4292608Y2006559D01*
X4305304D01*
X4318000Y1993863D01*
Y1968471D01*
X4305304Y1955775D01*
X4292608D01*
X4279912Y1968471D01*
X4267217Y1955775D01*
X4254521D01*
X4279912Y1968471D02*
Y1993863D01*
X4363741Y1930383D02*
X4351045Y1917688D01*
Y1892296D01*
X4363741Y1879600D01*
X4414524D01*
X4427220Y1892296D01*
Y1917688D01*
X4414524Y1930383D01*
X4351045Y1955775D02*
Y2006559D01*
X4363741D01*
X4414524Y1955775D01*
X4427220D01*
X4735560Y2511403D02*
X4722864Y2498707D01*
Y2473316D01*
X4735560Y2460620D01*
X4786343D01*
X4799039Y2473316D01*
Y2498707D01*
X4786343Y2511403D01*
X4722864Y2587579D02*
X4735560Y2562187D01*
X4760951Y2536795D01*
X4786343D01*
X4799039Y2549491D01*
Y2574883D01*
X4786343Y2587579D01*
X4773647D01*
X4760951Y2574883D01*
Y2536795D01*
X4849961Y2511403D02*
X4837265Y2498707D01*
Y2473316D01*
X4849961Y2460620D01*
X4900744D01*
X4913440Y2473316D01*
Y2498707D01*
X4900744Y2511403D01*
X4837265Y2587579D02*
Y2536795D01*
X4875352D01*
X4862657Y2562187D01*
Y2574883D01*
X4875352Y2587579D01*
X4900744D01*
X4913440Y2574883D01*
Y2549491D01*
X4900744Y2536795D01*
X4964160Y2511403D02*
X4951464Y2498707D01*
Y2473316D01*
X4964160Y2460620D01*
X5014943D01*
X5027639Y2473316D01*
Y2498707D01*
X5014943Y2511403D01*
X5027639Y2574883D02*
X4951464D01*
X4989551Y2536795D01*
Y2587579D01*
X5187124Y1231419D02*
X5174428Y1244115D01*
X5149036D01*
X5136340Y1231419D01*
Y1180636D01*
X5149036Y1167940D01*
X5174428D01*
X5187124Y1180636D01*
X5212516Y1231419D02*
X5225212Y1244115D01*
X5250603D01*
X5263299Y1231419D01*
Y1218723D01*
X5250603Y1206028D01*
X5237907D01*
X5250603D01*
X5263299Y1193332D01*
Y1180636D01*
X5250603Y1167940D01*
X5225212D01*
X5212516Y1180636D01*
X5187124Y1131419D02*
X5174428Y1144115D01*
X5149036D01*
X5136340Y1131419D01*
Y1080636D01*
X5149036Y1067940D01*
X5174428D01*
X5187124Y1080636D01*
X5263299Y1067940D02*
X5212516D01*
X5263299Y1118723D01*
Y1131419D01*
X5250603Y1144115D01*
X5225212D01*
X5212516Y1131419D01*
X4259580Y1780540D02*
Y1856715D01*
X4297668D01*
X4310363Y1844019D01*
Y1818628D01*
X4297668Y1805932D01*
X4259580D01*
X4284972D02*
X4310363Y1780540D01*
X4335755D02*
X4361147D01*
X4348451D01*
Y1856715D01*
X4335755Y1844019D01*
X4399235Y1780540D02*
X4424627D01*
X4411931D01*
Y1856715D01*
X4399235Y1844019D01*
D146*
X2007640Y2126460D02*
G03*
X2007640Y2126460I-5000J0D01*
G01*
X3021260Y1914680D02*
G03*
X3021260Y1914680I-5000J0D01*
G01*
X10882500Y1370000D02*
G03*
X10882500Y1370000I-5000J0D01*
G01*
X2180000Y1455000D02*
G03*
X2180000Y1455000I-5000J0D01*
G01*
X1863000Y1288260D02*
G03*
X1863000Y1288260I-5000J0D01*
G01*
D147*
X4556480Y2346136D02*
G03*
X4556480Y2346136I-30000J0D01*
G01*
D148*
X4398980Y2136136D02*
G03*
X4398980Y2136136I-12500J0D01*
G01*
X11942040Y1710960D02*
G03*
X11942040Y1710960I-12500J0D01*
G01*
X14183459Y1867498D02*
G03*
X14183459Y1867498I-12500J0D01*
G01*
X14694000Y1867490D02*
G03*
X14694000Y1867490I-12500J0D01*
G01*
X9515140Y2135902D02*
G03*
X9515140Y2135902I-12500J0D01*
G01*
X4764540Y1981520D02*
G03*
X4764540Y1981520I-12500J0D01*
G01*
D149*
X14544704Y1959996D02*
D03*
X14152216Y1960000D02*
D03*
X15055246Y1959989D02*
D03*
X14662755Y1959991D02*
D03*
D150*
X9410141Y2509646D02*
D03*
X9410139Y2117158D02*
D03*
%TF.MD5,db1be61af9e5737128e506395c1c48d2*%
M02*
