%TF.GenerationSoftware,Altium Limited,Altium Designer,19.0.15 (446)*%
G04 Layer_Color=255*
%FSLAX26Y26*%
%MOIN*%
%TF.FileFunction,Pads,Bot*%
%TF.Part,Single*%
G01*
G75*
%TA.AperFunction,ComponentPad*%
G04:AMPARAMS|DCode=65|XSize=39.37mil|YSize=90.551mil|CornerRadius=19.685mil|HoleSize=0mil|Usage=FLASHONLY|Rotation=270.000|XOffset=0mil|YOffset=0mil|HoleType=Round|Shape=RoundedRectangle|*
%AMROUNDEDRECTD65*
21,1,0.039370,0.051181,0,0,270.0*
21,1,0.000000,0.090551,0,0,270.0*
1,1,0.039370,-0.025591,0.000000*
1,1,0.039370,-0.025591,0.000000*
1,1,0.039370,0.025591,0.000000*
1,1,0.039370,0.025591,0.000000*
%
%ADD65ROUNDEDRECTD65*%
%ADD66C,0.059843*%
%ADD67C,0.050000*%
%ADD68R,0.059843X0.059843*%
%TA.AperFunction,ViaPad*%
%ADD69C,0.060000*%
%ADD70C,0.098425*%
%TA.AperFunction,ComponentPad*%
%ADD71C,0.093504*%
%ADD72C,0.033465*%
%ADD73O,0.090551X0.078740*%
%ADD74C,0.060000*%
%ADD75C,0.118110*%
%ADD76C,0.018000*%
D65*
X626016Y965000D02*
D03*
X502000D02*
D03*
X626016Y598858D02*
D03*
X502000D02*
D03*
D66*
X4645221Y1138000D02*
D03*
X4527110D02*
D03*
X4409000D02*
D03*
D67*
X4763331Y1215165D02*
D03*
X4172780D02*
D03*
D68*
X4290890Y1138000D02*
D03*
D69*
X3808858Y569500D02*
D03*
X3267000Y438000D02*
D03*
X3155260Y634000D02*
D03*
X1375000Y458035D02*
D03*
X2997780Y635858D02*
D03*
D70*
X476000Y476000D02*
D03*
X4846000Y1183000D02*
D03*
D71*
X1840000Y858000D02*
D03*
X1965000D02*
D03*
Y1058000D02*
D03*
X1840000D02*
D03*
D72*
Y958000D02*
D03*
X2040000Y998000D02*
D03*
Y918000D02*
D03*
D73*
X1222819Y1170551D02*
D03*
Y489449D02*
D03*
D74*
X458000Y1077441D02*
D03*
Y1193000D02*
D03*
X584000Y1191964D02*
D03*
X2534000Y957000D02*
D03*
X584000Y1077441D02*
D03*
X1900000Y1172000D02*
D03*
X1817000D02*
D03*
X1729000D02*
D03*
D75*
X3947922Y477000D02*
D03*
D76*
X4068583Y860433D02*
D03*
Y773819D02*
D03*
X3981968Y860433D02*
D03*
Y773819D02*
D03*
X4025276Y860433D02*
D03*
X4068583Y817126D02*
D03*
X3981968D02*
D03*
X4025276Y774803D02*
D03*
%TF.MD5,8c7c0567eab2fd5bc5c32dac2ec48355*%
M02*
