%TF.GenerationSoftware,Altium Limited,Altium Designer,19.0.15 (446)*%
G04 Layer_Color=0*
%FSLAX45Y45*%
%MOMM*%
%TF.FileFunction,Profile,NP*%
%TF.Part,Single*%
G01*
G75*
%TA.AperFunction,Profile*%
%ADD211C,0.02540*%
D211*
X1156000Y1000838D02*
X2680006D01*
D02*
G03*
X2730006Y1050838I0J50000D01*
G01*
X2729996D01*
Y1200838D01*
X2729996D01*
D02*
G02*
X2779996Y1250838I50000J0D01*
G01*
Y1250838D01*
X2859996D01*
Y1250838D01*
D02*
G02*
X2909996Y1200838I0J-50000D01*
G01*
X2910006Y1199894D01*
Y1050838D01*
X2909996D01*
D02*
G03*
X2959996Y1000838I50000J0D01*
G01*
X5781246D01*
D02*
G03*
X5831246Y1050838I0J50000D01*
G01*
X5831236D01*
Y1200838D01*
X5831236D01*
D02*
G02*
X5881236Y1250838I50000J0D01*
G01*
Y1250838D01*
X5961246D01*
X5961236Y1250838D01*
D02*
G02*
X6011236Y1200838I0J-50000D01*
G01*
X6011246D01*
Y1050838D01*
X6011236D01*
D02*
G03*
X6061236Y1000838I50000J0D01*
G01*
X7769245D01*
X7769323Y1000760D01*
D02*
G03*
X7819323Y1050760I0J50000D01*
G01*
D02*
G02*
X7869323Y1100760I50000J0D01*
G01*
X8370900D01*
D02*
G02*
X8420900Y1050760I0J-50000D01*
G01*
D02*
G03*
X8470900Y1000760I50000J0D01*
G01*
X10181166D01*
Y1000838D01*
D02*
G03*
X10231166Y1050838I0J50000D01*
G01*
X10231156D01*
Y1200838D01*
X10231156D01*
D02*
G02*
X10281156Y1250838I50000J0D01*
G01*
X10281156Y1250838D01*
X10361156D01*
X10361156Y1250838D01*
D02*
G02*
X10411156Y1200838I0J-50000D01*
G01*
X10411156D01*
Y1050838D01*
X10411156D01*
D02*
G03*
X10461156Y1000838I50000J0D01*
G01*
X13634996D01*
D02*
G03*
X13684996Y1050838I0J50000D01*
G01*
X13684985D01*
Y1200838D01*
X13684985D01*
D02*
G02*
X13734985Y1250838I50000J0D01*
G01*
X13734985Y1250838D01*
X13814986D01*
X13814986Y1250838D01*
D02*
G02*
X13864986Y1200838I0J-50000D01*
G01*
X13864986D01*
Y1050838D01*
X13864986D01*
D02*
G03*
X13914986Y1000838I50000J0D01*
G01*
X15156000D01*
D02*
G03*
X15206000Y1050838I0J50000D01*
G01*
X15204900Y3150738D01*
D02*
G03*
X15155000Y3200638I-49900J0D01*
G01*
X13914996D01*
Y3200538D01*
D02*
G03*
X13865096Y3150638I0J-49900D01*
G01*
X13864996Y3150738D01*
Y3000738D01*
X13864896D01*
D02*
G02*
X13814996Y2950838I-49900J0D01*
G01*
Y2950738D01*
X13734996D01*
X13734895Y2950838D01*
D02*
G02*
X13684996Y3000738I0J49900D01*
G01*
Y3150738D01*
X13684895D01*
D02*
G03*
X13634996Y3200638I-49900J0D01*
G01*
X10461156D01*
D02*
G03*
X10411256Y3150738I0J-49900D01*
G01*
X10411156Y3150838D01*
Y3000838D01*
X10411056D01*
D02*
G02*
X10361156Y2950938I-49900J0D01*
G01*
Y2950838D01*
X10281156D01*
X10281056Y2950938D01*
D02*
G02*
X10231156Y3000838I0J49900D01*
G01*
Y3150838D01*
X10231056D01*
D02*
G03*
X10181156Y3200738I-49900J0D01*
G01*
X8470900Y3200738D01*
Y3200738D01*
D02*
G03*
X8420900Y3150738I0J-50000D01*
G01*
D02*
G02*
X8370900Y3100738I-50000J0D01*
G01*
X7869323D01*
D02*
G02*
X7819323Y3150738I0J50000D01*
G01*
D02*
G03*
X7769323Y3200738I-50000J0D01*
G01*
Y3200738D01*
X6061236D01*
D02*
G03*
X6011236Y3150738I0J-50000D01*
G01*
X6011246D01*
Y3000738D01*
X6011246D01*
D02*
G02*
X5961246Y2950738I-50000J0D01*
G01*
Y2950738D01*
X5881246D01*
Y2950738D01*
D02*
G02*
X5831246Y3000738I0J50000D01*
G01*
X5831236Y3001682D01*
Y3150738D01*
X5831246D01*
D02*
G03*
X5781246Y3200738I-50000J0D01*
G01*
X2959986D01*
Y3200000D01*
D02*
G03*
X2909986Y3150000I0J-50000D01*
G01*
X2909996D01*
Y3000000D01*
X2909996D01*
D02*
G02*
X2859996Y2950000I-50000J0D01*
G01*
Y2950000D01*
X2779996D01*
Y2950000D01*
D02*
G02*
X2729996Y3000000I0J50000D01*
G01*
X2729986Y3000944D01*
Y3150000D01*
X2729996D01*
D02*
G03*
X2679996Y3200000I-50000J0D01*
G01*
Y3200628D01*
X1156000D01*
D02*
G03*
X1106100Y3150728I0J-49900D01*
G01*
Y1050938D01*
X1106000Y1050838D01*
D02*
G03*
X1156000Y1000838I50000J0D01*
G01*
%TF.MD5,3a73cc4f0f1d275ccee1681d7fe45d27*%
M02*
