%TF.GenerationSoftware,Altium Limited,Altium Designer,19.0.15 (446)*%
G04 Layer_Physical_Order=1*
G04 Layer_Color=794757*
%FSLAX45Y45*%
%MOMM*%
%TF.FileFunction,Copper,L1,Top,Signal*%
%TF.Part,Single*%
G01*
G75*
%TA.AperFunction,SMDPad,CuDef*%
%ADD10R,0.95000X0.85000*%
%TA.AperFunction,ConnectorPad*%
%ADD11R,1.00000X0.30000*%
%TA.AperFunction,SMDPad,CuDef*%
%ADD12R,0.60000X0.75000*%
%ADD13R,0.85000X0.95000*%
%TA.AperFunction,ConnectorPad*%
%ADD14R,1.00000X0.60000*%
%TA.AperFunction,SMDPad,CuDef*%
G04:AMPARAMS|DCode=15|XSize=0.2mm|YSize=0.2mm|CornerRadius=0.05mm|HoleSize=0mm|Usage=FLASHONLY|Rotation=0.000|XOffset=0mm|YOffset=0mm|HoleType=Round|Shape=RoundedRectangle|*
%AMROUNDEDRECTD15*
21,1,0.20000,0.10000,0,0,0.0*
21,1,0.10000,0.20000,0,0,0.0*
1,1,0.10000,0.05000,-0.05000*
1,1,0.10000,-0.05000,-0.05000*
1,1,0.10000,-0.05000,0.05000*
1,1,0.10000,0.05000,0.05000*
%
%ADD15ROUNDEDRECTD15*%
%ADD16R,0.70000X0.50000*%
%ADD17R,0.64000X0.60000*%
%ADD18R,1.20000X1.20000*%
%ADD19R,0.90000X1.00000*%
%ADD20R,0.75000X0.60000*%
%ADD21R,2.50000X3.00000*%
%ADD22R,0.50000X0.65000*%
%ADD23R,0.50000X0.55000*%
%ADD24R,4.60000X4.12000*%
%ADD25R,0.65000X0.50000*%
%ADD26R,0.55000X0.50000*%
%ADD27R,4.12000X4.60000*%
%ADD28R,0.60000X0.64000*%
%ADD29O,0.70000X0.20000*%
%ADD30C,0.80010*%
G04:AMPARAMS|DCode=31|XSize=0.7mm|YSize=0.7mm|CornerRadius=0.0875mm|HoleSize=0mm|Usage=FLASHONLY|Rotation=90.000|XOffset=0mm|YOffset=0mm|HoleType=Round|Shape=RoundedRectangle|*
%AMROUNDEDRECTD31*
21,1,0.70000,0.52500,0,0,90.0*
21,1,0.52500,0.70000,0,0,90.0*
1,1,0.17500,0.26250,0.26250*
1,1,0.17500,0.26250,-0.26250*
1,1,0.17500,-0.26250,-0.26250*
1,1,0.17500,-0.26250,0.26250*
%
%ADD31ROUNDEDRECTD31*%
G04:AMPARAMS|DCode=32|XSize=0.7mm|YSize=1.253mm|CornerRadius=0.0875mm|HoleSize=0mm|Usage=FLASHONLY|Rotation=90.000|XOffset=0mm|YOffset=0mm|HoleType=Round|Shape=RoundedRectangle|*
%AMROUNDEDRECTD32*
21,1,0.70000,1.07800,0,0,90.0*
21,1,0.52500,1.25300,0,0,90.0*
1,1,0.17500,0.53900,0.26250*
1,1,0.17500,0.53900,-0.26250*
1,1,0.17500,-0.53900,-0.26250*
1,1,0.17500,-0.53900,0.26250*
%
%ADD32ROUNDEDRECTD32*%
G04:AMPARAMS|DCode=33|XSize=1.53mm|YSize=2.65mm|CornerRadius=0.03825mm|HoleSize=0mm|Usage=FLASHONLY|Rotation=90.000|XOffset=0mm|YOffset=0mm|HoleType=Round|Shape=RoundedRectangle|*
%AMROUNDEDRECTD33*
21,1,1.53000,2.57350,0,0,90.0*
21,1,1.45350,2.65000,0,0,90.0*
1,1,0.07650,1.28675,0.72675*
1,1,0.07650,1.28675,-0.72675*
1,1,0.07650,-1.28675,-0.72675*
1,1,0.07650,-1.28675,0.72675*
%
%ADD33ROUNDEDRECTD33*%
G04:AMPARAMS|DCode=34|XSize=2.72mm|YSize=2.65mm|CornerRadius=0.06625mm|HoleSize=0mm|Usage=FLASHONLY|Rotation=90.000|XOffset=0mm|YOffset=0mm|HoleType=Round|Shape=RoundedRectangle|*
%AMROUNDEDRECTD34*
21,1,2.72000,2.51750,0,0,90.0*
21,1,2.58750,2.65000,0,0,90.0*
1,1,0.13250,1.25875,1.29375*
1,1,0.13250,1.25875,-1.29375*
1,1,0.13250,-1.25875,-1.29375*
1,1,0.13250,-1.25875,1.29375*
%
%ADD34ROUNDEDRECTD34*%
G04:AMPARAMS|DCode=35|XSize=0.2mm|YSize=0.6mm|CornerRadius=0.04mm|HoleSize=0mm|Usage=FLASHONLY|Rotation=90.000|XOffset=0mm|YOffset=0mm|HoleType=Round|Shape=RoundedRectangle|*
%AMROUNDEDRECTD35*
21,1,0.20000,0.52000,0,0,90.0*
21,1,0.12000,0.60000,0,0,90.0*
1,1,0.08000,0.26000,0.06000*
1,1,0.08000,0.26000,-0.06000*
1,1,0.08000,-0.26000,-0.06000*
1,1,0.08000,-0.26000,0.06000*
%
%ADD35ROUNDEDRECTD35*%
G04:AMPARAMS|DCode=36|XSize=0.6mm|YSize=0.2mm|CornerRadius=0.04mm|HoleSize=0mm|Usage=FLASHONLY|Rotation=90.000|XOffset=0mm|YOffset=0mm|HoleType=Round|Shape=RoundedRectangle|*
%AMROUNDEDRECTD36*
21,1,0.60000,0.12000,0,0,90.0*
21,1,0.52000,0.20000,0,0,90.0*
1,1,0.08000,0.06000,0.26000*
1,1,0.08000,0.06000,-0.26000*
1,1,0.08000,-0.06000,-0.26000*
1,1,0.08000,-0.06000,0.26000*
%
%ADD36ROUNDEDRECTD36*%
%ADD37R,1.27000X3.43000*%
%ADD38R,1.30000X1.40000*%
%ADD39R,0.17000X0.52000*%
%ADD40R,0.27000X0.17000*%
%ADD41R,1.20000X1.20000*%
%ADD42R,0.52000X0.17000*%
%ADD43R,0.17000X0.27000*%
%ADD44R,4.70000X3.43000*%
%ADD45R,1.00000X1.60000*%
%ADD46R,0.66000X0.32000*%
G04:AMPARAMS|DCode=47|XSize=1.97mm|YSize=0.6mm|CornerRadius=0.075mm|HoleSize=0mm|Usage=FLASHONLY|Rotation=0.000|XOffset=0mm|YOffset=0mm|HoleType=Round|Shape=RoundedRectangle|*
%AMROUNDEDRECTD47*
21,1,1.97000,0.45000,0,0,0.0*
21,1,1.82000,0.60000,0,0,0.0*
1,1,0.15000,0.91000,-0.22500*
1,1,0.15000,-0.91000,-0.22500*
1,1,0.15000,-0.91000,0.22500*
1,1,0.15000,0.91000,0.22500*
%
%ADD47ROUNDEDRECTD47*%
%ADD48R,3.43000X1.27000*%
%ADD49O,0.45000X1.40000*%
%ADD50R,2.23000X1.80000*%
%ADD51R,0.35000X0.30000*%
%ADD52R,0.44000X0.65000*%
%ADD53R,1.09000X0.65000*%
%ADD54R,2.80000X1.90000*%
%ADD55R,3.43000X4.70000*%
%ADD56R,2.70000X2.20000*%
G04:AMPARAMS|DCode=57|XSize=0.83mm|YSize=0.22mm|CornerRadius=0.0275mm|HoleSize=0mm|Usage=FLASHONLY|Rotation=180.000|XOffset=0mm|YOffset=0mm|HoleType=Round|Shape=RoundedRectangle|*
%AMROUNDEDRECTD57*
21,1,0.83000,0.16500,0,0,180.0*
21,1,0.77500,0.22000,0,0,180.0*
1,1,0.05500,-0.38750,0.08250*
1,1,0.05500,0.38750,0.08250*
1,1,0.05500,0.38750,-0.08250*
1,1,0.05500,-0.38750,-0.08250*
%
%ADD57ROUNDEDRECTD57*%
G04:AMPARAMS|DCode=58|XSize=0.83mm|YSize=0.22mm|CornerRadius=0.0275mm|HoleSize=0mm|Usage=FLASHONLY|Rotation=90.000|XOffset=0mm|YOffset=0mm|HoleType=Round|Shape=RoundedRectangle|*
%AMROUNDEDRECTD58*
21,1,0.83000,0.16500,0,0,90.0*
21,1,0.77500,0.22000,0,0,90.0*
1,1,0.05500,0.08250,0.38750*
1,1,0.05500,0.08250,-0.38750*
1,1,0.05500,-0.08250,-0.38750*
1,1,0.05500,-0.08250,0.38750*
%
%ADD58ROUNDEDRECTD58*%
%ADD59R,1.75000X1.75000*%
%ADD60R,1.50000X2.40000*%
%ADD61R,1.00000X0.90000*%
%ADD62R,1.40000X1.30000*%
%ADD63R,1.65000X1.20000*%
%ADD64R,1.20000X1.65000*%
%TA.AperFunction,BGAPad,CuDef*%
%ADD65C,0.80000*%
%TA.AperFunction,SMDPad,CuDef*%
%ADD66O,0.20000X0.70000*%
%ADD67R,3.00000X3.00000*%
%ADD68R,2.45000X2.55000*%
%ADD69R,2.55000X2.45000*%
%ADD70R,0.80000X0.90000*%
%ADD71O,0.95000X0.30000*%
%ADD72O,0.30000X0.95000*%
%ADD73R,3.35000X3.35000*%
%TA.AperFunction,Conductor*%
%ADD74C,0.16962*%
%ADD75C,0.20320*%
%ADD76C,0.25400*%
%ADD77C,0.23066*%
%ADD78C,0.38100*%
%ADD79C,0.30480*%
%ADD80C,0.10564*%
%ADD81C,0.50800*%
%ADD82C,0.12700*%
%ADD83C,0.15240*%
%ADD84C,0.40640*%
%TA.AperFunction,ViaPad*%
%ADD85C,1.52400*%
%TA.AperFunction,ComponentPad*%
G04:AMPARAMS|DCode=86|XSize=1mm|YSize=2.3mm|CornerRadius=0.5mm|HoleSize=0mm|Usage=FLASHONLY|Rotation=270.000|XOffset=0mm|YOffset=0mm|HoleType=Round|Shape=RoundedRectangle|*
%AMROUNDEDRECTD86*
21,1,1.00000,1.30000,0,0,270.0*
21,1,0.00000,2.30000,0,0,270.0*
1,1,1.00000,-0.65000,0.00000*
1,1,1.00000,-0.65000,0.00000*
1,1,1.00000,0.65000,0.00000*
1,1,1.00000,0.65000,0.00000*
%
%ADD86ROUNDEDRECTD86*%
%ADD87C,0.40000*%
%TA.AperFunction,ViaPad*%
%ADD88C,2.50000*%
%TA.AperFunction,ComponentPad*%
%ADD89C,2.37500*%
%ADD90C,0.85000*%
%ADD91C,1.52400*%
%ADD92C,0.45720*%
%TA.AperFunction,ViaPad*%
%ADD93C,0.45720*%
%ADD94C,0.60000*%
%ADD95C,1.98000*%
G36*
X8470900Y3162299D02*
X8635694D01*
X8638220Y3149599D01*
X8609736Y3137801D01*
X8580971Y3115729D01*
X8558899Y3086964D01*
X8545024Y3053467D01*
X8540292Y3017520D01*
X8545024Y2981573D01*
X8558899Y2948076D01*
X8580971Y2919311D01*
X8609736Y2897239D01*
X8643233Y2883364D01*
X8679180Y2878632D01*
X8715127Y2883364D01*
X8748624Y2897239D01*
X8777389Y2919311D01*
X8799461Y2948076D01*
X8813336Y2981573D01*
X8818068Y3017520D01*
X8813336Y3053467D01*
X8799461Y3086964D01*
X8777389Y3115729D01*
X8748624Y3137801D01*
X8720140Y3149599D01*
X8722666Y3162299D01*
X10181156Y3162299D01*
X10181758Y3162419D01*
X10185838Y3160730D01*
X10192617Y3150838D01*
X10192717Y3138175D01*
Y3000838D01*
X10192700D01*
X10195711Y2977970D01*
X10204538Y2956660D01*
X10218579Y2938361D01*
X10236878Y2924320D01*
X10258188Y2915493D01*
X10280124Y2912605D01*
X10281156Y2912400D01*
X10361156D01*
X10362383Y2912644D01*
X10384024Y2915493D01*
X10405334Y2924320D01*
X10423633Y2938361D01*
X10437675Y2956660D01*
X10446501Y2977970D01*
X10449350Y2999611D01*
X10449595Y3000838D01*
Y3150235D01*
X10449695Y3150738D01*
X10449695D01*
X10456475Y3160630D01*
X10460554Y3162320D01*
X10461156Y3162200D01*
X13496465D01*
X13507300Y3157700D01*
X13507300Y3149499D01*
Y3032300D01*
X13532628D01*
Y2950564D01*
X13520799D01*
Y2875164D01*
X13611200D01*
Y2950564D01*
X13597372D01*
Y3032300D01*
X13622701D01*
X13622701Y3157700D01*
X13633536Y3162200D01*
X13634996D01*
X13635599Y3162320D01*
X13639677Y3160630D01*
X13646457Y3150738D01*
X13646558Y3138075D01*
Y3000738D01*
X13646539D01*
X13649551Y2977870D01*
X13658377Y2956560D01*
X13672420Y2938261D01*
X13690718Y2924220D01*
X13712029Y2915393D01*
X13733965Y2912505D01*
X13734996Y2912300D01*
X13814996D01*
X13816223Y2912544D01*
X13837865Y2915393D01*
X13859174Y2924220D01*
X13877473Y2938261D01*
X13891515Y2956560D01*
X13900340Y2977870D01*
X13903191Y2999511D01*
X13903435Y3000738D01*
Y3150135D01*
X13903534Y3150638D01*
X13903535D01*
X13908195Y3157439D01*
X13914996Y3162100D01*
X13927660Y3162200D01*
X15155000D01*
X15155602Y3162320D01*
X15159682Y3160630D01*
X15166461Y3150738D01*
X15166467Y3138039D01*
X15166917Y2280000D01*
D01*
X15167561Y1050818D01*
X15167680Y1050217D01*
X15164442Y1042396D01*
X15156616Y1039154D01*
X15156000Y1039277D01*
X13914986D01*
X13914371Y1039154D01*
X13910124Y1040913D01*
X13903426Y1050838D01*
X13903424Y1062778D01*
Y1200837D01*
X13903426Y1200838D01*
X13903442D01*
X13900429Y1223732D01*
X13891592Y1245066D01*
X13877534Y1263386D01*
X13859213Y1277444D01*
X13837880Y1286281D01*
X13814986Y1289295D01*
Y1289277D01*
X13814986Y1289277D01*
X13734985D01*
Y1289295D01*
X13712093Y1286281D01*
X13690758Y1277444D01*
X13672438Y1263386D01*
X13658380Y1245066D01*
X13649544Y1223732D01*
X13646529Y1200838D01*
X13646547D01*
Y1050838D01*
X13646674Y1050206D01*
X13643439Y1042396D01*
X13635612Y1039154D01*
X13634996Y1039277D01*
X13062500D01*
Y1611854D01*
X13183073D01*
Y1540754D01*
X13187100Y1531034D01*
X13196820Y1527008D01*
X13217451D01*
Y1525880D01*
X13382852D01*
Y1527008D01*
X13414952D01*
Y1525880D01*
X13580351D01*
Y1527008D01*
X14452493D01*
Y1151928D01*
X14453540Y1149401D01*
Y1137300D01*
X14573940D01*
Y1138181D01*
X14613541D01*
Y1137300D01*
X14733940D01*
Y1137300D01*
X14736166Y1138787D01*
X14736246Y1138754D01*
X14937500D01*
X14947220Y1142780D01*
X14951247Y1152500D01*
Y1517191D01*
X15135860D01*
X15145580Y1521217D01*
X15149606Y1530938D01*
Y2252500D01*
X15145580Y2262220D01*
X15135860Y2266246D01*
X14673579Y2266246D01*
X14664166Y2262347D01*
X14654755Y2266246D01*
X13495180D01*
X13494112Y2266806D01*
X13485905Y2277053D01*
Y2952500D01*
X13481880Y2962220D01*
X13472160Y2966247D01*
X12147357D01*
X12146057Y2965708D01*
X12144676Y2965983D01*
X12141341Y2963755D01*
X12137922Y2962339D01*
X12132500Y2964585D01*
X11245200D01*
Y2965200D01*
X10807800D01*
Y2964585D01*
X10790902D01*
X10781181Y2960558D01*
X10777155Y2950838D01*
Y2501637D01*
X10750200D01*
Y2569700D01*
X10659800D01*
Y2564372D01*
X10627700D01*
Y2600200D01*
X10509026D01*
X10496326Y2610426D01*
Y2707500D01*
X10492300Y2717220D01*
X10482580Y2721247D01*
X9182134Y2721246D01*
X9172413Y2717220D01*
X9168387Y2707500D01*
Y2694800D01*
D01*
X9168387Y2044700D01*
X9172413Y2034979D01*
X9182134Y2030953D01*
X9973095Y2030953D01*
X9974103Y2025885D01*
X9981963Y2014122D01*
X9993725Y2006263D01*
X10007600Y2003503D01*
X10021475Y2006263D01*
X10033237Y2014122D01*
X10041097Y2025885D01*
X10042105Y2030953D01*
X10107075D01*
Y2016181D01*
X10091700D01*
X10081980Y2012155D01*
X10077953Y2002435D01*
Y1844040D01*
X8449700D01*
Y1851116D01*
X8185302D01*
Y1844040D01*
X8109449D01*
X8102660Y1856740D01*
X8105617Y1861165D01*
X8108377Y1875040D01*
X8105617Y1888914D01*
X8098018Y1900288D01*
Y2056702D01*
X8116334Y2075018D01*
X8185302D01*
Y2055716D01*
X8254702D01*
Y2055716D01*
X8308190D01*
X8309980Y2051395D01*
X8319700Y2047369D01*
X8447500D01*
X8457220Y2051395D01*
X8461246Y2061116D01*
X8461246Y2417300D01*
X8461449D01*
Y2582700D01*
X8455616D01*
X8447499Y2586062D01*
X8321266D01*
X8317500Y2586062D01*
X8309343Y2582700D01*
X8306049D01*
X8303753Y2572315D01*
X8303753Y2570951D01*
X8303754Y2188332D01*
X8291053Y2183072D01*
X8280812Y2193312D01*
X8272411Y2198926D01*
X8262500Y2200898D01*
X8038719D01*
X8033543Y2210361D01*
X8033100Y2213239D01*
X8036980Y2217119D01*
X8042020Y2224663D01*
X8091367D01*
Y2370062D01*
X7945968D01*
X7942500Y2381326D01*
Y2423399D01*
X7945968Y2434663D01*
X8091367D01*
Y2580062D01*
X7945968D01*
X7942500Y2591326D01*
Y2615000D01*
Y3062300D01*
X8370900D01*
Y3062282D01*
X8393794Y3065296D01*
X8415128Y3074133D01*
X8433448Y3088190D01*
X8447506Y3106510D01*
X8456343Y3127844D01*
X8459357Y3150738D01*
X8466047Y3160667D01*
X8470284Y3162422D01*
X8470900Y3162299D01*
D02*
G37*
G36*
X5789688Y3159180D02*
X5792923Y3151370D01*
X5792797Y3150738D01*
Y3001683D01*
X5792789Y3000738D01*
X5792789D01*
X5795803Y2977844D01*
X5804640Y2956510D01*
X5818698Y2938190D01*
X5837018Y2924132D01*
X5858352Y2915295D01*
X5881246Y2912281D01*
Y2912299D01*
X5961246D01*
Y2912281D01*
X5984140Y2915295D01*
X6005474Y2924132D01*
X6023553Y2938005D01*
X6028314Y2937367D01*
X6036253Y2934672D01*
Y2797059D01*
X6023553Y2785921D01*
X6001500Y2788824D01*
X5967185Y2784307D01*
X5935208Y2771061D01*
X5907749Y2749991D01*
X5886679Y2722532D01*
X5876240Y2697330D01*
X5867793Y2697015D01*
X5862712Y2697859D01*
X5857772Y2705252D01*
X5786272Y2776752D01*
X5777871Y2782366D01*
X5767960Y2784338D01*
X5689448D01*
X5678075Y2791937D01*
X5664200Y2794697D01*
X5650325Y2791937D01*
X5638563Y2784077D01*
X5630703Y2772315D01*
X5627943Y2758440D01*
X5630703Y2744565D01*
X5638563Y2732803D01*
X5650325Y2724943D01*
X5664200Y2722183D01*
X5678075Y2724943D01*
X5689448Y2732542D01*
X5756626D01*
X5763568Y2723861D01*
X5757899Y2713002D01*
X5747500Y2715070D01*
X5724987Y2710592D01*
X5705901Y2697839D01*
X5693148Y2678753D01*
X5688670Y2656240D01*
X5693148Y2633727D01*
X5705901Y2614641D01*
X5724987Y2601888D01*
X5747500Y2597410D01*
X5770013Y2601888D01*
X5778958Y2607865D01*
X5788115Y2598709D01*
X5787074Y2597151D01*
X5785102Y2587240D01*
Y2575318D01*
X5773005Y2567235D01*
X5761358Y2549803D01*
X5757268Y2529240D01*
X5761358Y2508677D01*
X5773005Y2491245D01*
X5790437Y2479598D01*
X5811000Y2475508D01*
X5811547Y2475616D01*
X5818859Y2465340D01*
X5814223Y2455331D01*
X5811000Y2455972D01*
X5790437Y2451882D01*
X5773005Y2440235D01*
X5761358Y2422803D01*
X5757268Y2402240D01*
X5761358Y2381677D01*
X5773005Y2364245D01*
X5790437Y2352598D01*
X5811000Y2348508D01*
X5831563Y2352598D01*
X5848995Y2364245D01*
X5860642Y2381677D01*
X5864732Y2402240D01*
X5862265Y2414646D01*
X5867781Y2415743D01*
X5879544Y2423603D01*
X5887403Y2435365D01*
X5890163Y2449240D01*
X5887403Y2463115D01*
X5879544Y2474878D01*
X5867781Y2482737D01*
X5859663Y2484352D01*
X5853280Y2496800D01*
X5853236Y2497593D01*
X5860642Y2508677D01*
X5864732Y2529240D01*
X5860642Y2549803D01*
X5848995Y2567235D01*
X5846948Y2568602D01*
X5845337Y2584953D01*
X5857772Y2597388D01*
X5863386Y2605790D01*
X5864354Y2610657D01*
X5877562Y2611958D01*
X5886679Y2589948D01*
X5907749Y2562489D01*
X5935208Y2541419D01*
X5967185Y2528174D01*
X6001500Y2523656D01*
X6023553Y2526559D01*
X6036253Y2515421D01*
Y2479559D01*
X6023553Y2468421D01*
X6001500Y2471324D01*
X5967185Y2466807D01*
X5935208Y2453561D01*
X5907749Y2432491D01*
X5886679Y2405032D01*
X5873434Y2373055D01*
X5868916Y2338740D01*
X5873434Y2304425D01*
X5886679Y2272448D01*
X5907749Y2244989D01*
X5935208Y2223919D01*
X5967185Y2210674D01*
X6001500Y2206156D01*
X6023553Y2209059D01*
X6036253Y2197921D01*
Y2120915D01*
X6039756Y2112460D01*
X6037565Y2107169D01*
Y1867500D01*
X6041591Y1857780D01*
X6051311Y1853753D01*
X7105874D01*
Y1802700D01*
X6960002D01*
Y1637300D01*
X7105874D01*
Y1615200D01*
X6960002D01*
Y1449800D01*
X7112265D01*
X7119620Y1446754D01*
X7296879D01*
X7306600Y1450780D01*
X7310626Y1460500D01*
Y1749789D01*
X7323326Y1755049D01*
X7366948Y1711428D01*
X7367550Y1711025D01*
X7373080Y1700616D01*
X7373080Y1693316D01*
Y1611216D01*
X7373080Y1611216D01*
X7373080D01*
X7370046Y1599311D01*
X7369688Y1598953D01*
X7364074Y1590551D01*
X7362103Y1580640D01*
Y1579100D01*
X7337800D01*
Y1493700D01*
X7438201D01*
Y1579100D01*
X7438201Y1579100D01*
X7435223Y1591800D01*
X7439706Y1598510D01*
X7441678Y1608420D01*
X7444474Y1611216D01*
X7458480Y1611216D01*
X7471180Y1611216D01*
X7500576D01*
X7520959Y1590833D01*
X7516098Y1579100D01*
X7452800D01*
Y1493700D01*
X7553201D01*
Y1509103D01*
X7579194D01*
X7583997Y1503250D01*
Y1486750D01*
X7585196Y1480722D01*
X7588281Y1475000D01*
X7585196Y1469278D01*
X7583997Y1463250D01*
Y1457994D01*
X7583699Y1457393D01*
X7571297Y1448557D01*
X7568680Y1449077D01*
X7552440D01*
Y1465880D01*
X7452040D01*
Y1380480D01*
X7552440D01*
Y1384835D01*
X7565140Y1390095D01*
X7582547Y1372688D01*
X7590949Y1367074D01*
X7600860Y1365103D01*
X7678497D01*
Y1352250D01*
X7679696Y1346222D01*
X7683111Y1341111D01*
X7684145Y1340420D01*
X7687069Y1327927D01*
X7686730Y1325045D01*
X7675410Y1313725D01*
X7665460Y1307488D01*
Y1307488D01*
X7665459Y1307488D01*
X7580060D01*
Y1283217D01*
X7551160D01*
Y1307520D01*
X7465760D01*
Y1207120D01*
X7551160D01*
Y1231422D01*
X7580060D01*
Y1207088D01*
X7665460D01*
Y1233377D01*
X7665540Y1233393D01*
X7673942Y1239007D01*
X7738886Y1303951D01*
X7755236Y1302341D01*
X7756923Y1299816D01*
X7768685Y1291957D01*
X7782560Y1289197D01*
X7784602Y1289603D01*
X7797302Y1279181D01*
Y1263966D01*
X7791886Y1257366D01*
X7714800D01*
Y1208591D01*
X7690508Y1184299D01*
X7684894Y1175898D01*
X7684161Y1172214D01*
X7680133Y1168185D01*
X7665460D01*
Y1192488D01*
X7580060D01*
Y1092087D01*
X7665460D01*
Y1116390D01*
X7690860D01*
X7700770Y1118361D01*
X7709172Y1123975D01*
X7727133Y1141936D01*
X7732747Y1150338D01*
X7733480Y1154021D01*
X7751425Y1171966D01*
X7815200D01*
Y1205530D01*
X7827900Y1212318D01*
X7829800Y1211049D01*
Y1171966D01*
X7930200D01*
Y1188769D01*
X8013920D01*
Y1171966D01*
X8114320D01*
Y1257366D01*
X8013920D01*
Y1240564D01*
X7939191D01*
X7938926Y1240937D01*
X7936848Y1247850D01*
X7947135Y1257224D01*
X7951460Y1256364D01*
X7965335Y1259123D01*
X7977097Y1266983D01*
X7984957Y1278745D01*
X7987717Y1292620D01*
X7984957Y1306495D01*
X7977097Y1318258D01*
X7965335Y1326117D01*
X7951460Y1328877D01*
X7937585Y1326117D01*
X7925822Y1318258D01*
X7917963Y1306495D01*
X7915203Y1292620D01*
X7917963Y1278745D01*
X7923762Y1270066D01*
X7919911Y1259587D01*
X7918136Y1257366D01*
X7866425D01*
X7849098Y1274693D01*
Y1332269D01*
X7854250Y1336497D01*
X7870750D01*
X7876779Y1337697D01*
X7881889Y1341111D01*
X7885304Y1346222D01*
X7886503Y1352250D01*
Y1365103D01*
X7988515D01*
X8013350Y1340267D01*
Y1291492D01*
X8113750D01*
Y1376892D01*
X8049975D01*
X8017554Y1409313D01*
X8009152Y1414927D01*
X8008168Y1415122D01*
X8009419Y1427822D01*
X8047049D01*
Y1407740D01*
X8122349D01*
X8132449Y1407740D01*
X8143272Y1407740D01*
X8152252Y1398759D01*
Y1376892D01*
X8128350D01*
Y1291492D01*
X8226053D01*
X8228750Y1291492D01*
X8238754Y1284982D01*
Y1139198D01*
X7869323D01*
Y1139216D01*
X7846429Y1136202D01*
X7825095Y1127366D01*
X7806775Y1113308D01*
X7792717Y1094988D01*
X7783881Y1073654D01*
X7780867Y1050760D01*
X7774176Y1040831D01*
X7770041Y1039119D01*
X7769245Y1039277D01*
X6061236D01*
X6060620Y1039154D01*
X6052794Y1042396D01*
X6049559Y1050206D01*
X6049685Y1050838D01*
Y1200838D01*
X6049693D01*
X6046679Y1223732D01*
X6037842Y1245066D01*
X6023784Y1263386D01*
X6005464Y1277444D01*
X5984131Y1286281D01*
X5961236Y1289295D01*
Y1289277D01*
X5881236D01*
Y1289295D01*
X5858342Y1286281D01*
X5837008Y1277444D01*
X5818688Y1263386D01*
X5804631Y1245066D01*
X5795794Y1223732D01*
X5792780Y1200838D01*
X5792797D01*
Y1050838D01*
X5792923Y1050206D01*
X5789688Y1042396D01*
X5781862Y1039154D01*
X5781246Y1039277D01*
X2959996D01*
X2959380Y1039154D01*
X2951554Y1042396D01*
X2948319Y1050206D01*
X2948445Y1050838D01*
Y1199893D01*
X2948453Y1200838D01*
X2948453D01*
X2945439Y1223732D01*
X2936602Y1245066D01*
X2922545Y1263386D01*
X2904225Y1277444D01*
X2882891Y1286281D01*
X2859996Y1289295D01*
Y1289277D01*
X2779996D01*
Y1289295D01*
X2757102Y1286281D01*
X2735768Y1277444D01*
X2717448Y1263386D01*
X2703391Y1245066D01*
X2694554Y1223732D01*
X2693119Y1212834D01*
X2691540Y1200838D01*
X2691557D01*
Y1050838D01*
X2691683Y1050206D01*
X2688448Y1042396D01*
X2680622Y1039154D01*
X2680006Y1039277D01*
X2053148D01*
X2041701Y1042300D01*
X2041700Y1051977D01*
Y1076154D01*
X2083800D01*
Y1057300D01*
X2204200D01*
Y1167700D01*
X2083800D01*
Y1153847D01*
X2041700D01*
Y1187700D01*
X1896300D01*
X1896300Y1042300D01*
X1884853Y1039277D01*
X1418518D01*
X1407600Y1043580D01*
X1407600Y1051977D01*
Y1082513D01*
X1449700D01*
Y1066160D01*
X1570100D01*
Y1176560D01*
X1449700D01*
Y1160206D01*
X1407600D01*
Y1188980D01*
X1262200D01*
Y1051977D01*
X1262200Y1043580D01*
X1251283Y1039277D01*
X1156000D01*
X1155384Y1039154D01*
X1147558Y1042396D01*
X1144370Y1050092D01*
X1144538Y1050938D01*
Y1402327D01*
X1157238Y1406638D01*
X1168268Y1392265D01*
X1190765Y1375002D01*
X1216965Y1364150D01*
X1245080Y1360448D01*
X1375080D01*
X1403195Y1364150D01*
X1429394Y1375002D01*
X1451892Y1392265D01*
X1461230Y1404434D01*
X1473930D01*
X1483268Y1392265D01*
X1505766Y1375002D01*
X1531965Y1364150D01*
X1560080Y1360448D01*
X1690080D01*
X1718195Y1364150D01*
X1744395Y1375002D01*
X1756903Y1384599D01*
X1769603Y1378336D01*
Y1356960D01*
X1734300D01*
Y1344158D01*
X1581800D01*
X1571890Y1342186D01*
X1563488Y1336572D01*
X1533476Y1306560D01*
X1449700D01*
Y1196160D01*
X1570100D01*
Y1269935D01*
X1592527Y1292362D01*
X1605760D01*
Y1193668D01*
X1691160D01*
Y1220560D01*
X1842708D01*
X1851627Y1222334D01*
X1859189Y1227387D01*
X1880841Y1249039D01*
X1885894Y1256600D01*
X1887668Y1265520D01*
Y1375486D01*
X1899374Y1387192D01*
X2027876D01*
X2036249Y1378457D01*
X2037616Y1375258D01*
X2036383Y1369060D01*
X2039143Y1355185D01*
X2047003Y1343423D01*
X2058765Y1335563D01*
X2072640Y1332803D01*
X2086515Y1335563D01*
X2093600Y1340297D01*
X2106300Y1334309D01*
Y1331300D01*
X2119102D01*
Y1297700D01*
X2083800D01*
Y1187300D01*
X2204200D01*
Y1230416D01*
X2216900Y1234269D01*
X2219732Y1230032D01*
X2251300Y1198463D01*
Y1052300D01*
X2396700D01*
Y1242700D01*
X2316937D01*
X2286047Y1273591D01*
Y1373800D01*
X2283090Y1388666D01*
X2274669Y1401269D01*
X2262066Y1409690D01*
X2247200Y1412647D01*
X2232334Y1409690D01*
X2219732Y1401269D01*
X2211311Y1388666D01*
X2208354Y1373800D01*
Y1308680D01*
X2204200Y1297700D01*
X2195653Y1297700D01*
X2170897D01*
Y1331300D01*
X2183700D01*
Y1378509D01*
X2186426Y1382590D01*
X2188397Y1392500D01*
Y1438033D01*
X2289458Y1539093D01*
X2309340D01*
Y1512861D01*
X2394740D01*
Y1553836D01*
X2395572Y1555080D01*
X2395789Y1556172D01*
X2521809Y1682192D01*
X2597500D01*
X2598608Y1682413D01*
X2623980D01*
X2629701Y1683551D01*
X2630989Y1683537D01*
X2634345Y1682369D01*
X2642959Y1676762D01*
X2643901Y1672025D01*
X2648173Y1665632D01*
X2654565Y1661361D01*
X2659302Y1660419D01*
X2664909Y1651805D01*
X2666077Y1648449D01*
X2666091Y1647161D01*
X2664953Y1641440D01*
Y1629578D01*
X2577101Y1541726D01*
X2563685Y1539057D01*
X2551923Y1531198D01*
X2544063Y1519435D01*
X2541304Y1505561D01*
X2542278Y1500660D01*
X2532441Y1487960D01*
X2530860D01*
Y1402561D01*
X2530860D01*
Y1399960D01*
X2530860D01*
Y1314560D01*
X2620260D01*
Y1328832D01*
X2644620D01*
Y1302000D01*
X2730020D01*
Y1328832D01*
X2764800D01*
Y1302000D01*
X2850200D01*
Y1363194D01*
X2861933Y1368054D01*
X2994128Y1235860D01*
X3054500Y1175488D01*
X3062901Y1169874D01*
X3072812Y1167902D01*
X3162300D01*
Y1117600D01*
X3530700D01*
Y1245744D01*
X3542433Y1250605D01*
X3580159Y1212879D01*
X3587720Y1207826D01*
X3596640Y1206052D01*
X3734544D01*
X3736101Y1203721D01*
X3747864Y1195862D01*
X3761739Y1193102D01*
X3775613Y1195862D01*
X3787376Y1203721D01*
X3795235Y1215484D01*
X3797995Y1229359D01*
X3795235Y1243234D01*
X3787376Y1254996D01*
X3775613Y1262856D01*
X3761739Y1265616D01*
X3747864Y1262856D01*
X3736101Y1254996D01*
X3734545Y1252668D01*
X3714198D01*
X3707410Y1265368D01*
X3711417Y1271365D01*
X3714177Y1285240D01*
X3711417Y1299115D01*
X3703557Y1310877D01*
X3691795Y1318737D01*
X3677920Y1321497D01*
X3676823Y1321279D01*
X3647131Y1350971D01*
X3639115Y1356327D01*
X3629660Y1358208D01*
X3478242D01*
X3477779Y1358900D01*
X3484567Y1371600D01*
X3822700D01*
Y1524000D01*
X3454300D01*
Y1387342D01*
X3442911Y1382625D01*
X3433388Y1390463D01*
Y1627281D01*
X3434317Y1627903D01*
X3442177Y1639665D01*
X3444937Y1653540D01*
X3444719Y1654637D01*
X3461711Y1671629D01*
X3466564Y1678892D01*
X3469395Y1679227D01*
X3479570Y1677403D01*
X3482088Y1658273D01*
X3491046Y1636646D01*
X3505296Y1618076D01*
X3523866Y1603826D01*
X3545493Y1594868D01*
X3568700Y1591813D01*
X3591907Y1594868D01*
X3613534Y1603826D01*
X3632104Y1618076D01*
X3646354Y1636646D01*
X3655312Y1658273D01*
X3658367Y1681480D01*
X3655312Y1704687D01*
X3646354Y1726314D01*
X3632104Y1744884D01*
X3613534Y1759134D01*
X3591907Y1768092D01*
X3568700Y1771147D01*
X3545679Y1768116D01*
X3545292Y1768408D01*
X3538574Y1778973D01*
X3586903Y1827301D01*
X3600683Y1823121D01*
X3601243Y1820305D01*
X3609103Y1808542D01*
X3620865Y1800683D01*
X3634740Y1797923D01*
X3648615Y1800683D01*
X3660377Y1808542D01*
X3668237Y1820305D01*
X3670997Y1834180D01*
X3668237Y1848054D01*
X3660377Y1859817D01*
X3659448Y1860438D01*
Y2438326D01*
X3712383Y2491261D01*
X3713480Y2491043D01*
X3727355Y2493803D01*
X3739117Y2501663D01*
X3746977Y2513425D01*
X3749737Y2527300D01*
X3746977Y2541175D01*
X3739117Y2552937D01*
X3727355Y2560797D01*
X3724722Y2561321D01*
X3714126Y2567251D01*
X3715503Y2575118D01*
X3716717Y2581220D01*
X3713957Y2595095D01*
X3706097Y2606858D01*
X3694335Y2614717D01*
X3680460Y2617477D01*
X3666585Y2614717D01*
X3654823Y2606858D01*
X3646963Y2595095D01*
X3644203Y2581220D01*
X3644421Y2580124D01*
X3566469Y2502171D01*
X3561113Y2494156D01*
X3559232Y2484700D01*
Y2117195D01*
X3549960Y2108920D01*
X3404560D01*
Y1963520D01*
X3451375D01*
Y1946219D01*
X3427280Y1922125D01*
X3414580Y1927385D01*
Y1945200D01*
X3324174D01*
X3319135Y1956814D01*
X3325626Y1964800D01*
X3370100D01*
Y2065200D01*
X3318110D01*
X3309678Y2077900D01*
X3310478Y2079800D01*
X3370100D01*
Y2180200D01*
X3353298D01*
Y2229390D01*
X3360897Y2240763D01*
X3363657Y2254638D01*
X3360897Y2268513D01*
X3353037Y2280276D01*
X3341275Y2288135D01*
X3338825Y2288622D01*
X3334645Y2302403D01*
X3380722Y2348480D01*
X3438680D01*
Y2373972D01*
X3457786D01*
X3466491Y2365267D01*
X3466273Y2364170D01*
X3469033Y2350295D01*
X3476892Y2338533D01*
X3488655Y2330673D01*
X3502530Y2327913D01*
X3516405Y2330673D01*
X3528167Y2338533D01*
X3536027Y2350295D01*
X3538787Y2364170D01*
X3536027Y2378045D01*
X3528167Y2389808D01*
X3516405Y2397667D01*
X3502530Y2400427D01*
X3501433Y2400209D01*
X3485491Y2416151D01*
X3477475Y2421507D01*
X3468020Y2423388D01*
X3438680D01*
Y2448880D01*
X3353280D01*
Y2390922D01*
X3266968Y2304610D01*
X3255235Y2309470D01*
Y2455753D01*
X3341547Y2542065D01*
X3353280Y2537205D01*
Y2463480D01*
X3438680D01*
Y2563880D01*
X3393918D01*
X3387129Y2576580D01*
X3387939Y2577792D01*
X3489960D01*
X3499415Y2579673D01*
X3507431Y2585029D01*
X3577394Y2654992D01*
X3659281D01*
X3659903Y2654063D01*
X3671665Y2646203D01*
X3685540Y2643443D01*
X3699415Y2646203D01*
X3711177Y2654063D01*
X3719037Y2665825D01*
X3721797Y2679700D01*
X3719037Y2693575D01*
X3711177Y2705337D01*
X3699415Y2713197D01*
X3685540Y2715957D01*
X3671665Y2713197D01*
X3659903Y2705337D01*
X3659281Y2704408D01*
X3567160D01*
X3557705Y2702527D01*
X3549689Y2697171D01*
X3479726Y2627208D01*
X3367040D01*
X3357585Y2625327D01*
X3349569Y2619971D01*
X3268430Y2538831D01*
X3258861Y2547223D01*
X3267894Y2558995D01*
X3276852Y2580621D01*
X3279907Y2603829D01*
X3276852Y2627036D01*
X3274890Y2631773D01*
X3276020Y2635108D01*
X3283611Y2643904D01*
X3461000D01*
X3468882Y2645472D01*
X3475563Y2649937D01*
X3480028Y2656619D01*
X3481596Y2664500D01*
Y2709500D01*
X3480028Y2717381D01*
X3475563Y2724063D01*
X3468882Y2728528D01*
X3461000Y2730096D01*
X3279000D01*
X3271119Y2728528D01*
X3264437Y2724063D01*
X3259972Y2717381D01*
X3258404Y2709500D01*
Y2679589D01*
X3245704Y2673326D01*
X3235074Y2681483D01*
X3213447Y2690441D01*
X3190240Y2693496D01*
X3167033Y2690441D01*
X3145406Y2681483D01*
X3126836Y2667233D01*
X3112586Y2648662D01*
X3110006Y2642435D01*
X3097306Y2644961D01*
Y2750000D01*
X3093280Y2759720D01*
X3096097Y2772300D01*
X3097700D01*
Y2857700D01*
X2997300D01*
Y2776447D01*
X2997300Y2772300D01*
X2988143Y2763747D01*
X2948746D01*
X2941873Y2760900D01*
X2935000Y2763747D01*
X2792500D01*
X2785627Y2760900D01*
X2778753Y2763747D01*
X2657911D01*
Y2851160D01*
X2467511D01*
Y2705760D01*
X2482142D01*
X2487002Y2694027D01*
X2241037Y2448062D01*
X1934460D01*
Y2504780D01*
X1845060D01*
Y2500926D01*
X1843744D01*
X1828878Y2497969D01*
X1816275Y2489548D01*
X1789213Y2462486D01*
X1776540Y2463317D01*
X1766892Y2475890D01*
X1744395Y2493153D01*
X1718195Y2504005D01*
X1690080Y2507707D01*
X1628893D01*
X1617601Y2511105D01*
X1617600Y2520407D01*
Y2551432D01*
X1645835D01*
X1658224Y2553896D01*
X1667960Y2560402D01*
X1671072Y2559729D01*
X1680660Y2554887D01*
Y2543629D01*
X1791060D01*
Y2664029D01*
X1680660D01*
Y2636201D01*
X1665860D01*
X1653472Y2633737D01*
X1642970Y2626719D01*
X1632427Y2616176D01*
X1617600D01*
Y2656504D01*
X1472201D01*
Y2511104D01*
X1515917D01*
X1518443Y2498404D01*
X1505766Y2493153D01*
X1483268Y2475890D01*
X1473930Y2463721D01*
X1461230D01*
X1451892Y2475890D01*
X1429394Y2493153D01*
X1412158Y2500292D01*
X1407600Y2511104D01*
X1407600Y2515010D01*
Y2656504D01*
X1262200D01*
X1262200Y2511105D01*
X1250908Y2507707D01*
X1245080D01*
X1216965Y2504005D01*
X1190765Y2493153D01*
X1168268Y2475890D01*
X1157238Y2461517D01*
X1144538Y2465828D01*
Y3150728D01*
X1144419Y3151330D01*
X1147634Y3159094D01*
X1155398Y3162309D01*
X1156000Y3162190D01*
X1755140D01*
Y2804300D01*
X1907540D01*
Y3162190D01*
X2667555D01*
X2679996Y3161561D01*
X2689921Y3154862D01*
X2691673Y3150632D01*
X2691548Y3150000D01*
Y3000945D01*
X2691539Y3000000D01*
X2691539D01*
X2692696Y2991213D01*
X2694553Y2977106D01*
X2703390Y2955772D01*
X2717448Y2937452D01*
X2735768Y2923394D01*
X2757102Y2914558D01*
X2779996Y2911544D01*
Y2911561D01*
X2859996D01*
Y2911544D01*
X2882890Y2914558D01*
X2904224Y2923394D01*
X2922544Y2937452D01*
X2936602Y2955772D01*
X2945439Y2977106D01*
X2948453Y3000000D01*
X2948435D01*
Y3150000D01*
X2948309Y3150632D01*
X2950061Y3154862D01*
X2959986Y3161561D01*
X2959986Y3161561D01*
X2963696Y3162299D01*
X5127753D01*
X5130279Y3149599D01*
X5121526Y3145974D01*
X5102956Y3131724D01*
X5088706Y3113154D01*
X5079748Y3091527D01*
X5076693Y3068320D01*
X5079748Y3045113D01*
X5088706Y3023486D01*
X5102956Y3004916D01*
X5121526Y2990666D01*
X5143153Y2981708D01*
X5166360Y2978653D01*
X5189567Y2981708D01*
X5211194Y2990666D01*
X5229764Y3004916D01*
X5244014Y3023486D01*
X5246361Y3029153D01*
X5300160D01*
Y3008537D01*
X5316514D01*
Y2933300D01*
X5310760D01*
Y2857900D01*
X5316514D01*
Y2801041D01*
X5284673Y2769200D01*
X5250660D01*
Y2765216D01*
X5221220D01*
Y2768940D01*
X5131820D01*
Y2765084D01*
X5084869D01*
Y2773636D01*
X5082137Y2787370D01*
X5074358Y2799013D01*
X5062714Y2806793D01*
X5048980Y2809525D01*
X5035246Y2806793D01*
X5023602Y2799013D01*
X5022830Y2797857D01*
X5010130D01*
X5009358Y2799013D01*
X4997714Y2806793D01*
X4983980Y2809525D01*
X4970246Y2806793D01*
X4958602Y2799013D01*
X4957830Y2797858D01*
X4945130D01*
X4944358Y2799013D01*
X4932714Y2806793D01*
X4918980Y2809525D01*
X4905246Y2806793D01*
X4893602Y2799013D01*
X4892830Y2797857D01*
X4880130D01*
X4879358Y2799013D01*
X4867714Y2806793D01*
X4853980Y2809525D01*
X4840246Y2806793D01*
X4828602Y2799013D01*
X4827830Y2797858D01*
X4815130D01*
X4814358Y2799013D01*
X4802714Y2806793D01*
X4788980Y2809525D01*
X4775246Y2806793D01*
X4763602Y2799013D01*
X4755823Y2787370D01*
X4753091Y2773636D01*
Y2727982D01*
X4752723Y2726136D01*
X4753091Y2724289D01*
Y2678636D01*
X4755823Y2664901D01*
X4763602Y2653258D01*
X4775246Y2645478D01*
X4788980Y2642746D01*
X4802714Y2645478D01*
X4814358Y2653258D01*
X4815130Y2654414D01*
X4827830D01*
X4828602Y2653258D01*
X4840246Y2645478D01*
X4853980Y2642746D01*
X4867714Y2645478D01*
X4879358Y2653258D01*
X4880130Y2654414D01*
X4892830D01*
X4893602Y2653258D01*
X4905246Y2645478D01*
X4918980Y2642746D01*
X4932714Y2645478D01*
X4944358Y2653258D01*
X4945130Y2654414D01*
X4957830D01*
X4958602Y2653258D01*
X4970246Y2645478D01*
X4983980Y2642746D01*
X4997714Y2645478D01*
X5009358Y2653258D01*
X5010130Y2654414D01*
X5022830D01*
X5023602Y2653258D01*
X5035246Y2645478D01*
X5048980Y2642746D01*
X5062714Y2645478D01*
X5074358Y2653258D01*
X5082137Y2664901D01*
X5084869Y2678636D01*
Y2687391D01*
X5121792D01*
X5131820Y2680940D01*
X5131820Y2670840D01*
Y2595540D01*
X5221220D01*
Y2670840D01*
X5221220Y2680940D01*
X5231193Y2687523D01*
X5240579D01*
X5250660Y2681200D01*
X5250660Y2671100D01*
Y2595800D01*
X5340060D01*
Y2671100D01*
X5340060Y2681200D01*
X5340060Y2693900D01*
Y2714713D01*
X5382829Y2757481D01*
X5391250Y2770084D01*
X5394207Y2784950D01*
Y2857900D01*
X5406160D01*
Y2933300D01*
X5394207D01*
Y3008537D01*
X5410560D01*
Y3128937D01*
X5300160D01*
Y3106846D01*
X5246626D01*
X5244014Y3113154D01*
X5229764Y3131724D01*
X5211194Y3145974D01*
X5202441Y3149599D01*
X5204967Y3162299D01*
X5630656D01*
X5633182Y3149599D01*
X5624430Y3145974D01*
X5605860Y3131724D01*
X5591610Y3113154D01*
X5582652Y3091527D01*
X5579597Y3068320D01*
X5582652Y3045113D01*
X5591610Y3023486D01*
X5605860Y3004916D01*
X5624430Y2990666D01*
X5646056Y2981708D01*
X5669264Y2978653D01*
X5692471Y2981708D01*
X5714097Y2990666D01*
X5732668Y3004916D01*
X5746918Y3023486D01*
X5755875Y3045113D01*
X5758931Y3068320D01*
X5755875Y3091527D01*
X5746918Y3113154D01*
X5732668Y3131724D01*
X5714097Y3145974D01*
X5705345Y3149599D01*
X5707871Y3162299D01*
X5781246D01*
X5781862Y3162422D01*
X5789688Y3159180D01*
D02*
G37*
G36*
X7774176Y3160667D02*
X7780867Y3150738D01*
X7783881Y3127844D01*
X7792717Y3106510D01*
X7806775Y3088190D01*
X7825095Y3074133D01*
X7846429Y3065296D01*
X7869323Y3062282D01*
Y3062300D01*
X7928754D01*
Y2707500D01*
Y2591326D01*
X7929560Y2589379D01*
X7929362Y2587282D01*
X7932830Y2576018D01*
X7934965Y2573438D01*
X7936247Y2570342D01*
X7938194Y2569536D01*
X7939538Y2567912D01*
X7942873Y2567598D01*
X7945967Y2566316D01*
Y2539872D01*
X7885200D01*
Y2550200D01*
X7799800D01*
Y2449800D01*
X7885200D01*
Y2475128D01*
X7945967D01*
Y2448409D01*
X7942873Y2447127D01*
X7939538Y2446813D01*
X7938194Y2445189D01*
X7936247Y2444383D01*
X7934965Y2441288D01*
X7932830Y2438707D01*
X7929362Y2427443D01*
X7929560Y2425346D01*
X7928754Y2423399D01*
Y2381326D01*
X7929560Y2379379D01*
X7929362Y2377282D01*
X7932830Y2366018D01*
X7934965Y2363437D01*
X7936247Y2360342D01*
X7938194Y2359536D01*
X7939538Y2357912D01*
X7942873Y2357598D01*
X7945967Y2356316D01*
Y2224663D01*
X7954680D01*
X7959541Y2212929D01*
X7731348Y1984737D01*
X7730069Y1984482D01*
X7721667Y1978869D01*
X7684188Y1941389D01*
X7678574Y1932987D01*
X7676602Y1923076D01*
Y1791157D01*
X7678574Y1781247D01*
X7684188Y1772845D01*
X7710886Y1746147D01*
X7705569Y1733503D01*
X7694250D01*
X7688222Y1732304D01*
X7683111Y1728889D01*
X7679696Y1723779D01*
X7678497Y1717750D01*
Y1712068D01*
X7665797Y1707868D01*
X7590018Y1783647D01*
Y2118380D01*
X7588046Y2128291D01*
X7582432Y2136692D01*
X7540812Y2178312D01*
X7532411Y2183926D01*
X7522500Y2185898D01*
X7434480D01*
Y2205200D01*
X7381247D01*
Y2350594D01*
X7392741Y2360904D01*
X7429800D01*
Y2327300D01*
X7550200D01*
Y2437700D01*
X7429800D01*
Y2404096D01*
X7401686D01*
X7389096Y2416686D01*
Y2483722D01*
X7393138Y2486423D01*
X7400997Y2498185D01*
X7403757Y2512060D01*
X7400997Y2525935D01*
X7393138Y2537697D01*
X7381375Y2545557D01*
X7380659Y2546897D01*
X7381247Y2548317D01*
Y3075193D01*
X7377220Y3084914D01*
X7367500Y3088940D01*
X7073746D01*
X7066873Y3086093D01*
X7060000Y3088940D01*
X6945927D01*
X6936206Y3084914D01*
X6932180Y3075193D01*
Y2703213D01*
X6930021Y2692357D01*
X6924638Y2684301D01*
X6916583Y2678918D01*
X6907080Y2677028D01*
X6897578Y2678918D01*
X6889522Y2684301D01*
X6884140Y2692357D01*
X6881980Y2703213D01*
Y3112686D01*
X6884140Y3123542D01*
X6889522Y3131598D01*
X6899357Y3138169D01*
X6902209Y3142438D01*
X6903800Y3143652D01*
X6903994Y3145104D01*
X6905200Y3146904D01*
X6905391Y3147858D01*
X6905046Y3149599D01*
X6906391Y3155633D01*
X6911519Y3162299D01*
X7769323D01*
X7769939Y3162422D01*
X7774176Y3160667D01*
D02*
G37*
G36*
X10807800Y2479800D02*
X10876420D01*
Y2415200D01*
X10823800D01*
Y2324800D01*
X10876420D01*
Y2257500D01*
X11352500Y2257500D01*
Y1692652D01*
X10507180D01*
Y1714034D01*
X10381780D01*
Y1692652D01*
X10358746D01*
Y2002435D01*
X10354720Y2012155D01*
X10345000Y2016181D01*
Y2048500D01*
X10320313Y2048500D01*
X10311333Y2057480D01*
X10311332Y2487890D01*
X10502300D01*
Y2484800D01*
X10627700D01*
Y2487890D01*
X10807800D01*
Y2479800D01*
D02*
G37*
G36*
X7367500Y2548317D02*
X7353625Y2545557D01*
X7341863Y2537697D01*
X7334003Y2525935D01*
X7331243Y2512060D01*
X7334003Y2498185D01*
X7341863Y2486423D01*
X7345904Y2483722D01*
Y2407740D01*
X7347548Y2399476D01*
X7352229Y2392469D01*
X7367500Y2377199D01*
Y2205200D01*
X7365080D01*
Y2120200D01*
X7149581D01*
Y2120000D01*
X7100815D01*
X7094026Y2132700D01*
X7097237Y2137505D01*
X7099997Y2151380D01*
X7097237Y2165255D01*
X7089377Y2177017D01*
X7077615Y2184877D01*
X7073746Y2185646D01*
Y2413906D01*
X7086447Y2424328D01*
X7088325Y2423955D01*
X7102200Y2426714D01*
X7113963Y2434574D01*
X7121822Y2446336D01*
X7124582Y2460211D01*
X7121822Y2474086D01*
X7113963Y2485849D01*
X7102200Y2493708D01*
X7088325Y2496468D01*
X7086447Y2496094D01*
X7073746Y2506517D01*
Y3075193D01*
X7367500D01*
Y2548317D01*
D02*
G37*
G36*
X2636254Y2644231D02*
Y2482700D01*
X2640280Y2472980D01*
X2643953Y2471458D01*
Y2308543D01*
X2640280Y2307021D01*
X2636254Y2297300D01*
Y2265679D01*
X2433320Y2265680D01*
X2433320Y2530470D01*
X2547081Y2644231D01*
X2636254Y2644231D01*
D02*
G37*
G36*
X2935000Y2160000D02*
X2807221D01*
X2796100Y2169190D01*
Y2221690D01*
X2794435Y2230059D01*
X2792500Y2232955D01*
Y2750000D01*
X2935000D01*
Y2160000D01*
D02*
G37*
G36*
X2778753Y2232955D02*
X2780288Y2229250D01*
X2780826Y2226546D01*
X2779860Y2221690D01*
Y2169190D01*
X2768739Y2160000D01*
X2650000D01*
Y2297300D01*
X2657700D01*
Y2482700D01*
X2650000D01*
Y2705760D01*
X2657911D01*
Y2750000D01*
X2778753D01*
Y2232955D01*
D02*
G37*
G36*
X3083560Y2201827D02*
X3043946D01*
X3034491Y2199947D01*
X3026475Y2194591D01*
X3015436Y2183552D01*
X3010080Y2175536D01*
X3008199Y2166081D01*
Y2138674D01*
X2999673Y2130148D01*
X2977980D01*
X2969582Y2128477D01*
X2946400D01*
Y2154335D01*
X2948746Y2160000D01*
Y2750000D01*
X3083560D01*
Y2201827D01*
D02*
G37*
G36*
X6061236Y3162299D02*
X6888793D01*
X6891911Y3150553D01*
X6891720Y3149599D01*
X6879612Y3141509D01*
X6871191Y3128906D01*
X6868234Y3114040D01*
Y2701859D01*
X6871191Y2686993D01*
X6879612Y2674390D01*
X6892214Y2665970D01*
X6907080Y2663012D01*
X6921946Y2665970D01*
X6934549Y2674390D01*
X6942970Y2686993D01*
X6945927Y2701859D01*
Y3075193D01*
X7060000D01*
Y2492583D01*
X7011089D01*
X6998701Y2490119D01*
X6988199Y2483102D01*
X6920249Y2415152D01*
X6885819D01*
X6884136Y2416277D01*
X6870261Y2419037D01*
X6856386Y2416277D01*
X6844624Y2408418D01*
X6836764Y2396655D01*
X6834004Y2382780D01*
X6836764Y2368905D01*
X6844624Y2357143D01*
X6856386Y2349283D01*
X6870261Y2346523D01*
X6884136Y2349283D01*
X6885819Y2350408D01*
X6933658D01*
X6946046Y2352872D01*
X6956548Y2359890D01*
X7024498Y2427839D01*
X7060000D01*
Y2120916D01*
X6050000Y2120915D01*
Y2216549D01*
X6067792Y2223919D01*
X6095251Y2244989D01*
X6116321Y2272448D01*
X6129567Y2304425D01*
X6134084Y2338740D01*
X6129567Y2373055D01*
X6116321Y2405032D01*
X6095251Y2432491D01*
X6067792Y2453561D01*
X6050000Y2460931D01*
Y2534049D01*
X6067792Y2541419D01*
X6095251Y2562489D01*
X6116321Y2589948D01*
X6129567Y2621925D01*
X6134084Y2656240D01*
X6129567Y2690555D01*
X6116321Y2722532D01*
X6095251Y2749991D01*
X6067792Y2771061D01*
X6050000Y2778431D01*
Y3152434D01*
X6052794Y3159180D01*
X6060620Y3162422D01*
X6061236Y3162299D01*
D02*
G37*
G36*
X7482816Y1867500D02*
X7434480D01*
Y1910200D01*
X7365080D01*
Y1910200D01*
X7307128D01*
X7306600Y1911476D01*
X7296879Y1915502D01*
X7119620D01*
X7109900Y1911476D01*
X7105874Y1901755D01*
Y1867500D01*
X6051311D01*
Y2107169D01*
X7060000Y2107169D01*
X7060798Y2107500D01*
X7096027D01*
X7096825Y2106845D01*
X7098894Y2107049D01*
X7100815Y2106254D01*
X7149581D01*
X7150063Y2106453D01*
X7365080D01*
X7367607Y2107500D01*
X7482816D01*
Y1867500D01*
D02*
G37*
G36*
X1769555Y2136777D02*
X1657380D01*
Y2081377D01*
Y2079042D01*
X1490155D01*
X1490155Y2204435D01*
X1769555D01*
X1769555Y2136777D01*
D02*
G37*
G36*
X8447500Y2061116D02*
X8319700D01*
Y2146116D01*
X8317500D01*
X8317500Y2572315D01*
X8447499D01*
X8447500Y2061116D01*
D02*
G37*
G36*
X10482580Y2501901D02*
X10131099Y2501899D01*
X10131100Y2148339D01*
X10080000D01*
X10071736Y2146695D01*
X10064729Y2142013D01*
X10060048Y2135007D01*
X10058404Y2126743D01*
X10060048Y2118478D01*
X10064729Y2111472D01*
X10071736Y2106790D01*
X10080000Y2105146D01*
X10131100D01*
Y2044699D01*
X9182134Y2044700D01*
X9182134Y2707500D01*
X10482580Y2707500D01*
X10482580Y2501901D01*
D02*
G37*
G36*
X12132500Y1984134D02*
X12034940D01*
Y1903258D01*
X12023207Y1898398D01*
X12006992Y1914612D01*
X11998590Y1920226D01*
X11993080Y1921322D01*
Y1954000D01*
X11867680D01*
Y1838600D01*
X11993080D01*
X11994242Y1826381D01*
Y1728934D01*
X11996214Y1719023D01*
X12001828Y1710621D01*
X12012654Y1699795D01*
X12020361Y1692088D01*
X12016117Y1683857D01*
X12014884Y1677656D01*
X12011863Y1675638D01*
X12004003Y1663875D01*
X12001243Y1650000D01*
X12004003Y1636126D01*
X12011863Y1624363D01*
X12007476Y1612245D01*
X12005976Y1610200D01*
X11974801D01*
X11974800Y1610200D01*
X11962110Y1610225D01*
X11960000Y1610645D01*
X11935884D01*
X11934984Y1610824D01*
X11889964D01*
X11871407Y1629381D01*
X11863846Y1634434D01*
X11854926Y1636208D01*
X11752074D01*
X11630641Y1757641D01*
X11623080Y1762693D01*
X11622700Y1762769D01*
Y1818860D01*
X11457300D01*
Y1692652D01*
X11366247D01*
Y2257500D01*
X11365527Y2259237D01*
Y2271987D01*
X10890166D01*
Y2324800D01*
X10899200D01*
Y2415200D01*
X10890166D01*
Y2479800D01*
X10886140Y2489520D01*
X10876420Y2493546D01*
X10819204D01*
X10817521Y2497610D01*
X10807800Y2501637D01*
X10790902D01*
Y2950838D01*
X12132500D01*
Y1984134D01*
D02*
G37*
G36*
X2559940Y1927400D02*
X2565464Y1923709D01*
X2571980Y1922413D01*
X2596872D01*
X2597980Y1922192D01*
X2632500D01*
Y1860347D01*
X2624230Y1853560D01*
X2571730D01*
X2563361Y1851895D01*
X2560525Y1850000D01*
X2505122D01*
X2498123Y1854677D01*
X2484248Y1857437D01*
X2470373Y1854677D01*
X2463374Y1850000D01*
X2422878D01*
X2415879Y1854677D01*
X2402004Y1857437D01*
X2388129Y1854677D01*
X2381130Y1850000D01*
X2340634D01*
X2333635Y1854677D01*
X2333115Y1854780D01*
X2328935Y1868560D01*
X2387875Y1927500D01*
X2559873D01*
X2559940Y1927400D01*
D02*
G37*
G36*
X2492759Y1841728D02*
X2497485Y1838570D01*
X2501417Y1837788D01*
X2505122Y1836254D01*
X2511997D01*
X2512461Y1835943D01*
X2526336Y1833183D01*
X2540211Y1835943D01*
X2540675Y1836254D01*
X2560525D01*
X2564229Y1837788D01*
X2566803Y1838300D01*
X2571730Y1837320D01*
X2624230D01*
X2632500Y1830533D01*
Y1779721D01*
X2623980Y1768467D01*
X2599214D01*
X2597500Y1768808D01*
X2492260D01*
X2483341Y1767034D01*
X2480297Y1765000D01*
X2297780D01*
X2294700Y1777700D01*
X2294700Y1786524D01*
X2294701D01*
Y1789125D01*
X2294700D01*
Y1834325D01*
X2302875Y1842500D01*
X2327115D01*
X2332997Y1838570D01*
X2336930Y1837788D01*
X2340634Y1836254D01*
X2347509D01*
X2347973Y1835943D01*
X2361848Y1833183D01*
X2375723Y1835943D01*
X2376188Y1836254D01*
X2381130D01*
X2384834Y1837788D01*
X2388766Y1838570D01*
X2393493Y1841728D01*
X2397374Y1842500D01*
X2406633D01*
X2410515Y1841728D01*
X2415241Y1838570D01*
X2419173Y1837788D01*
X2422878Y1836254D01*
X2429753D01*
X2430217Y1835943D01*
X2444092Y1833183D01*
X2457967Y1835943D01*
X2458431Y1836254D01*
X2463374D01*
X2467078Y1837788D01*
X2471010Y1838570D01*
X2475736Y1841728D01*
X2479618Y1842500D01*
X2488877D01*
X2492759Y1841728D01*
D02*
G37*
G36*
X3549960Y1963520D02*
X3559232Y1955245D01*
Y1869514D01*
X3426769Y1737051D01*
X3421413Y1729035D01*
X3419532Y1719580D01*
Y1699334D01*
X3409777Y1689579D01*
X3408680Y1689797D01*
X3394805Y1687037D01*
X3383043Y1679177D01*
X3375183Y1667415D01*
X3372423Y1653540D01*
X3375183Y1639665D01*
X3383043Y1627903D01*
X3383972Y1627281D01*
Y1380060D01*
X3385853Y1370605D01*
X3391209Y1362589D01*
X3425511Y1328288D01*
X3420250Y1315588D01*
X3299434D01*
X3244515Y1370507D01*
X3249376Y1382240D01*
X3325880D01*
Y1467640D01*
X3225480D01*
Y1414449D01*
X3212780Y1406605D01*
X3210880Y1407556D01*
Y1467640D01*
X3185427D01*
Y1606200D01*
X3210920D01*
Y1691600D01*
X3183808D01*
Y1739041D01*
X3184738Y1739663D01*
X3192597Y1751425D01*
X3195357Y1765300D01*
X3192597Y1779175D01*
X3184738Y1790937D01*
X3172975Y1798797D01*
X3159100Y1801557D01*
X3158003Y1801339D01*
X3128499Y1830843D01*
X3124852Y1833280D01*
X3128704Y1845980D01*
X3139960D01*
Y1856193D01*
X3174180D01*
Y1824800D01*
X3284580D01*
Y1924561D01*
X3291849Y1928470D01*
X3304180Y1921288D01*
Y1824800D01*
X3414580D01*
Y1859103D01*
X3426780D01*
X3436691Y1861074D01*
X3445093Y1866688D01*
X3495585Y1917180D01*
X3501198Y1925582D01*
X3503170Y1935492D01*
Y1963520D01*
X3549960D01*
D02*
G37*
G36*
X13472160Y2277052D02*
X13463200Y2268064D01*
X12977800D01*
Y2266246D01*
X12885001D01*
Y1681978D01*
X12727940D01*
X12718029Y1680006D01*
X12709628Y1674392D01*
X12596485Y1561250D01*
X12476552D01*
X12466642Y1559278D01*
X12458240Y1553664D01*
X12426935Y1522360D01*
X12422265D01*
X12418813Y1525813D01*
X12410411Y1531426D01*
X12400500Y1533398D01*
X12340000D01*
X12330090Y1531426D01*
X12328920Y1530645D01*
X12315000D01*
X12312900Y1530227D01*
X12300200Y1539024D01*
Y1555977D01*
X12302245Y1557476D01*
X12314363Y1561863D01*
X12326125Y1554003D01*
X12340000Y1551244D01*
X12353875Y1554003D01*
X12365638Y1561863D01*
X12367656Y1564884D01*
X12373857Y1566117D01*
X12381366Y1571135D01*
X12386383Y1578643D01*
X12388145Y1587500D01*
X12386383Y1596357D01*
X12381366Y1603866D01*
X12373857Y1608883D01*
X12367656Y1610117D01*
X12365638Y1613138D01*
X12353875Y1620997D01*
X12340000Y1623757D01*
X12326125Y1620997D01*
X12314363Y1613138D01*
X12303934Y1615505D01*
X12300217Y1618973D01*
X12300225Y1622890D01*
X12300645Y1625000D01*
Y1657884D01*
X12310116Y1667355D01*
X12343472D01*
X12353383Y1669326D01*
X12361785Y1674940D01*
X12388112Y1701268D01*
X12393726Y1709669D01*
X12394241Y1712255D01*
X12406160Y1714140D01*
X12406160Y1714140D01*
X12406161Y1714140D01*
X12531560D01*
Y1829540D01*
X12406160D01*
Y1797738D01*
X12388761D01*
X12378851Y1795766D01*
X12370449Y1790152D01*
X12351488Y1771191D01*
X12347993Y1765961D01*
X12335293Y1769738D01*
Y1863934D01*
X12331267Y1873654D01*
X12321547Y1877681D01*
X12314246Y1886974D01*
Y1993876D01*
X12188846D01*
X12188846Y1878477D01*
X12176476Y1877681D01*
X12155340D01*
Y1984134D01*
X12146246D01*
Y2950838D01*
X12147357Y2952500D01*
X13472160D01*
Y2277052D01*
D02*
G37*
G36*
X12321546Y1719150D02*
X12299389D01*
X12289478Y1717178D01*
X12281076Y1711565D01*
X12265831Y1696319D01*
X12256798Y1692580D01*
X12248151Y1695185D01*
X12246357Y1696383D01*
X12237500Y1698145D01*
X12228643Y1696383D01*
X12221135Y1691366D01*
X12213866D01*
X12206357Y1696383D01*
X12197500Y1698145D01*
X12188643Y1696383D01*
X12181135Y1691366D01*
X12176117Y1683857D01*
X12174356Y1675000D01*
Y1661080D01*
X12173574Y1659911D01*
X12171603Y1650000D01*
Y1610200D01*
X12149024D01*
X12147524Y1612245D01*
X12143138Y1624363D01*
X12150997Y1636126D01*
X12153757Y1650000D01*
X12150997Y1663875D01*
X12143138Y1675638D01*
X12140117Y1677656D01*
X12138883Y1683857D01*
X12133866Y1691366D01*
X12126357Y1696383D01*
X12117500Y1698145D01*
X12114212Y1697491D01*
X12107537Y1697063D01*
X12096731Y1703698D01*
X12095813Y1705072D01*
X12072172Y1728713D01*
X12063770Y1734327D01*
X12053860Y1736298D01*
X12049401D01*
X12047640Y1738058D01*
Y1863934D01*
X12321546D01*
Y1719150D01*
D02*
G37*
G36*
X10077953Y1676296D02*
X10056860D01*
Y1716301D01*
X9931460D01*
Y1600901D01*
X10056860D01*
Y1633104D01*
X10077953D01*
Y1601779D01*
X10081980Y1592059D01*
X10091700Y1588032D01*
X10148377D01*
X10157880Y1575332D01*
X10156763Y1569720D01*
X10159523Y1555845D01*
X10167383Y1544083D01*
X10179145Y1536223D01*
X10193020Y1533463D01*
X10206895Y1536223D01*
X10209525Y1537981D01*
X10219690Y1543520D01*
X10229855Y1537981D01*
X10232485Y1536223D01*
X10246360Y1533463D01*
X10260235Y1536223D01*
X10271997Y1544083D01*
X10279857Y1555845D01*
X10282617Y1569720D01*
X10281500Y1575332D01*
X10291003Y1588032D01*
X10345000D01*
X10354720Y1592059D01*
X10358746Y1601779D01*
Y1632723D01*
X10381780D01*
Y1598634D01*
X10507180D01*
Y1678906D01*
X10707072D01*
X10708754Y1676389D01*
Y1519876D01*
X10710428Y1515834D01*
X10711526Y1511597D01*
X10718827Y1501921D01*
X10719694Y1501411D01*
X10720079Y1500480D01*
X10722500Y1499478D01*
Y1315522D01*
X10720079Y1314520D01*
X10719694Y1313589D01*
X10718827Y1313079D01*
X10711526Y1303403D01*
X10710428Y1299167D01*
X10708754Y1295124D01*
Y1280452D01*
X10710125Y1277141D01*
X10710590Y1273587D01*
X10716500Y1263335D01*
X10717976Y1262201D01*
X10718689Y1260480D01*
X10722000Y1259108D01*
X10722500Y1258724D01*
Y1075522D01*
X10720080Y1074519D01*
X10719695Y1073589D01*
X10718827Y1073079D01*
X10711527Y1063403D01*
X10710428Y1059167D01*
X10708754Y1055124D01*
Y1039277D01*
X10460245D01*
X10456295Y1040913D01*
X10449595Y1050838D01*
X10449595Y1062778D01*
Y1200837D01*
X10449595Y1200838D01*
X10449613D01*
X10446599Y1223732D01*
X10437762Y1245066D01*
X10423705Y1263386D01*
X10405385Y1277444D01*
X10384051Y1286281D01*
X10361156Y1289295D01*
Y1289277D01*
X10361156Y1289277D01*
X10281156D01*
Y1289295D01*
X10258262Y1286281D01*
X10236928Y1277444D01*
X10218608Y1263386D01*
X10204551Y1245066D01*
X10195714Y1223732D01*
X10192700Y1200838D01*
X10192717D01*
Y1050838D01*
X10192843Y1050206D01*
X10189608Y1042396D01*
X10182077Y1039277D01*
X8566247D01*
Y1137300D01*
X8622520D01*
Y1402700D01*
X8566247D01*
Y1830294D01*
X10077953D01*
Y1676296D01*
D02*
G37*
G36*
X1657380Y1780081D02*
Y1731378D01*
X1770380D01*
X1770380Y1667707D01*
X1486137Y1667707D01*
X1486137Y1780081D01*
X1657380Y1780081D01*
D02*
G37*
G36*
X11669705Y1652653D02*
X11665525Y1638872D01*
X11665045Y1638777D01*
X11653283Y1630917D01*
X11645423Y1619155D01*
X11642663Y1605280D01*
X11645423Y1591405D01*
X11653283Y1579643D01*
X11655612Y1578086D01*
Y1457160D01*
X11617300D01*
Y1369722D01*
X11588386Y1340808D01*
X11382500D01*
X11373581Y1339034D01*
X11366019Y1333981D01*
X11353519Y1321481D01*
X11348467Y1313920D01*
X11346692Y1305000D01*
Y1257700D01*
X11327300D01*
Y1157300D01*
X11412700D01*
Y1257700D01*
X11393308D01*
Y1294192D01*
X11482300D01*
Y1250504D01*
X11540000D01*
X11597700D01*
Y1285428D01*
X11605473Y1289709D01*
X11617300Y1282265D01*
Y1175105D01*
X11643173D01*
Y1145400D01*
X11616280D01*
Y1060000D01*
X11716680D01*
Y1145400D01*
X11689788D01*
Y1175105D01*
X11732700D01*
Y1201692D01*
X11845942D01*
X11854861Y1203466D01*
X11862423Y1208519D01*
X11938259Y1284356D01*
X11960000D01*
X11965464Y1285442D01*
X11968874Y1283334D01*
X11973334Y1278874D01*
X11975442Y1275464D01*
X11974356Y1270000D01*
Y1256399D01*
X11972934Y1254271D01*
X11970962Y1244360D01*
Y1189197D01*
X11917300D01*
Y1063797D01*
X12032700D01*
Y1161923D01*
X12035923Y1163121D01*
X12045400Y1164035D01*
X12051863Y1154362D01*
X12063626Y1146503D01*
X12077500Y1143743D01*
X12091375Y1146503D01*
X12103138Y1154362D01*
X12109030Y1163182D01*
X12121934Y1160966D01*
X12124003Y1150563D01*
X12131863Y1138801D01*
X12143625Y1130941D01*
X12157500Y1128181D01*
X12171375Y1130941D01*
X12174600Y1133096D01*
X12187300Y1126307D01*
Y1062300D01*
X12287700D01*
Y1081692D01*
X12322300D01*
Y1062300D01*
X12422700D01*
Y1107026D01*
X12435400Y1113815D01*
X12437300Y1112545D01*
Y1062300D01*
X12537700D01*
Y1147700D01*
X12510808D01*
Y1169760D01*
X12537700D01*
Y1255160D01*
X12532215D01*
X12527355Y1266893D01*
X12556247Y1295785D01*
X12567980Y1290925D01*
Y1286390D01*
X12635521D01*
X12637519Y1283400D01*
X12653313Y1267606D01*
X12647798Y1255161D01*
X12642031Y1255160D01*
X12552300D01*
Y1169760D01*
X12652700D01*
Y1243625D01*
X12652701Y1250258D01*
X12665146Y1255773D01*
X12701580Y1219339D01*
X12709141Y1214287D01*
X12718061Y1212512D01*
X12749800D01*
Y1184260D01*
X12825101D01*
X12835201Y1184260D01*
X12847900Y1184260D01*
X12867801D01*
Y1228960D01*
Y1273660D01*
X12847900D01*
X12837801Y1273660D01*
X12825101Y1273660D01*
X12749800D01*
Y1259128D01*
X12727716D01*
X12712187Y1274657D01*
X12717047Y1286390D01*
X13035480D01*
Y1039277D01*
X11424148D01*
X11412700Y1042300D01*
X11412700Y1051977D01*
Y1142700D01*
X11327300D01*
Y1118817D01*
X11272921D01*
Y1136038D01*
X11255260D01*
Y1164800D01*
X11289652D01*
Y1290200D01*
X11174252D01*
Y1164800D01*
X11208644D01*
Y1136038D01*
X11172520D01*
Y1051977D01*
X11172520Y1050638D01*
X11169289Y1039277D01*
X10722500D01*
Y1055124D01*
X10729801Y1064799D01*
X10735200Y1064800D01*
X10830201D01*
Y1124737D01*
X10840395Y1134932D01*
X10894806D01*
X10896363Y1132603D01*
X10908125Y1124743D01*
X10922000Y1121983D01*
X10935875Y1124743D01*
X10947637Y1132603D01*
X10955497Y1144365D01*
X10958257Y1158240D01*
X10955497Y1172115D01*
X10947637Y1183877D01*
X10935875Y1191737D01*
X10922000Y1194497D01*
X10908125Y1191737D01*
X10896363Y1183877D01*
X10894806Y1181548D01*
X10840162D01*
X10830299Y1184374D01*
X10828809Y1193895D01*
Y1270200D01*
X10735200D01*
X10728410Y1270200D01*
X10722500Y1280452D01*
Y1295124D01*
X10729800Y1304800D01*
X10735200Y1304800D01*
X10830200D01*
Y1390200D01*
X10816964D01*
X10811151Y1402900D01*
X10814347Y1406602D01*
X10864102D01*
Y1366948D01*
X10865100Y1361932D01*
Y1302748D01*
X10965500D01*
Y1388148D01*
X10915897D01*
Y1432500D01*
X10915619Y1433902D01*
X10925237Y1446603D01*
X10984800D01*
Y1417300D01*
X11105200D01*
Y1527700D01*
X10984800D01*
Y1498398D01*
X10907500D01*
X10897589Y1496427D01*
X10893509Y1493700D01*
X10868800D01*
Y1458398D01*
X10830200D01*
Y1510200D01*
X10735200D01*
X10729800Y1510200D01*
X10722500Y1519876D01*
Y1676390D01*
X10782576D01*
Y1537428D01*
X10927976D01*
Y1563653D01*
X10984800D01*
Y1547300D01*
X11105200D01*
Y1657700D01*
X10984800D01*
Y1641346D01*
X10927976D01*
Y1676390D01*
X11457300D01*
Y1663460D01*
X11622700D01*
Y1676390D01*
X11645968D01*
X11669705Y1652653D01*
D02*
G37*
G36*
X12268643Y1603617D02*
X12277500Y1601856D01*
X12282964Y1602942D01*
X12286374Y1600834D01*
X12290834Y1596374D01*
X12292942Y1592964D01*
X12291856Y1587500D01*
X12293617Y1578644D01*
X12293661Y1577760D01*
X12290479Y1565697D01*
X12286613Y1558065D01*
X12286875Y1556995D01*
X12286453Y1555976D01*
X12286454Y1553768D01*
Y1539024D01*
X12286948Y1537830D01*
X12286675Y1536568D01*
X12288904Y1533107D01*
X12290480Y1529304D01*
X12294097Y1517076D01*
X12293617Y1516357D01*
X12291856Y1507500D01*
X12293617Y1498643D01*
X12298635Y1491135D01*
Y1483866D01*
X12293617Y1476357D01*
X12291856Y1467500D01*
X12293617Y1458643D01*
X12298635Y1451135D01*
Y1443866D01*
X12293617Y1436357D01*
X12291856Y1427500D01*
X12293617Y1418643D01*
X12294936Y1416669D01*
X12297585Y1407500D01*
X12294936Y1398331D01*
X12293617Y1396357D01*
X12291856Y1387500D01*
X12293617Y1378643D01*
X12298635Y1371135D01*
Y1363866D01*
X12293617Y1356357D01*
X12291856Y1347500D01*
X12293617Y1338643D01*
X12298635Y1331135D01*
Y1323866D01*
X12293617Y1316357D01*
X12291856Y1307500D01*
X12292650Y1303508D01*
X12290359Y1298151D01*
X12286374Y1294166D01*
X12282964Y1292058D01*
X12277500Y1293145D01*
X12268643Y1291383D01*
X12261135Y1286366D01*
X12253866D01*
X12246357Y1291383D01*
X12237500Y1293145D01*
X12228643Y1291383D01*
X12221135Y1286366D01*
X12213866D01*
X12206357Y1291383D01*
X12197500Y1293145D01*
X12188643Y1291383D01*
X12181135Y1286366D01*
X12173866D01*
X12166357Y1291383D01*
X12157500Y1293145D01*
X12148643Y1291383D01*
X12146669Y1290064D01*
X12137500Y1287416D01*
X12128331Y1290064D01*
X12126357Y1291383D01*
X12117500Y1293145D01*
X12108643Y1291383D01*
X12106669Y1290064D01*
X12097500Y1287416D01*
X12088331Y1290064D01*
X12086357Y1291383D01*
X12077500Y1293145D01*
X12068643Y1291383D01*
X12061135Y1286366D01*
X12053866D01*
X12046357Y1291383D01*
X12037500Y1293145D01*
X12028643Y1291383D01*
X12021135Y1286366D01*
X12013866D01*
X12006357Y1291383D01*
X11997500Y1293145D01*
X11992036Y1292058D01*
X11988626Y1294166D01*
X11984166Y1298626D01*
X11982058Y1302037D01*
X11983145Y1307500D01*
X11981383Y1316357D01*
X11976366Y1323866D01*
Y1331135D01*
X11981383Y1338643D01*
X11983145Y1347500D01*
X11981383Y1356357D01*
X11976366Y1363866D01*
Y1371135D01*
X11981383Y1378643D01*
X11983145Y1387500D01*
X11981383Y1396357D01*
X11980064Y1398331D01*
X11977416Y1407500D01*
X11980064Y1416669D01*
X11981383Y1418643D01*
X11983145Y1427500D01*
X11981383Y1436357D01*
X11976366Y1443866D01*
Y1451135D01*
X11981383Y1458643D01*
X11983145Y1467500D01*
X11981383Y1476357D01*
X11976366Y1483866D01*
Y1491135D01*
X11981383Y1498643D01*
X11983145Y1507500D01*
X11981383Y1516357D01*
X11980064Y1518331D01*
X11977416Y1527500D01*
X11980064Y1536669D01*
X11981383Y1538643D01*
X11983145Y1547500D01*
X11981383Y1556357D01*
X11976366Y1563866D01*
Y1571135D01*
X11981383Y1578643D01*
X11983145Y1587500D01*
X11994313Y1596454D01*
X12005976D01*
X12006994Y1596875D01*
X12008065Y1596613D01*
X12011734Y1598838D01*
X12015697Y1600480D01*
X12026456Y1603725D01*
X12028643Y1603617D01*
X12037500Y1601856D01*
X12046357Y1603617D01*
X12053866Y1608635D01*
X12061135D01*
X12068643Y1603617D01*
X12077500Y1601856D01*
X12086357Y1603617D01*
X12093866Y1608635D01*
X12101135D01*
X12108643Y1603617D01*
X12117500Y1601856D01*
X12126357Y1603617D01*
X12127240Y1603661D01*
X12139303Y1600479D01*
X12146936Y1596613D01*
X12148006Y1596875D01*
X12149024Y1596453D01*
X12151233Y1596454D01*
X12164012D01*
X12167864Y1583754D01*
X12166943Y1583138D01*
X12159083Y1571375D01*
X12158850Y1570200D01*
X12226311D01*
X12226077Y1571375D01*
X12218218Y1583138D01*
X12210743Y1588132D01*
X12209566Y1602174D01*
X12216085Y1608635D01*
X12221135D01*
X12228643Y1603617D01*
X12237500Y1601856D01*
X12246357Y1603617D01*
X12253866Y1608635D01*
X12261135D01*
X12268643Y1603617D01*
D02*
G37*
G36*
X13491328Y2253842D02*
X13492598Y2253143D01*
X13493204Y2253318D01*
X13495180Y2252500D01*
X14654755D01*
Y1828562D01*
X14521181D01*
X14511459Y1824536D01*
X14507434Y1814816D01*
Y1540754D01*
X13196820D01*
Y1625600D01*
X12933655D01*
X12923199Y1631020D01*
X12923199Y1631020D01*
X12914999Y1641913D01*
X12914999Y2252500D01*
X12977800D01*
X12981458Y2254015D01*
X13489407D01*
X13491328Y2253842D01*
D02*
G37*
G36*
X7296879Y1460500D02*
X7119620D01*
Y1901755D01*
X7296879D01*
Y1460500D01*
D02*
G37*
G36*
X15135860Y1530938D02*
X14937500D01*
Y1152500D01*
X14736246D01*
Y1527008D01*
X14732220Y1536728D01*
X14722501Y1540754D01*
X14721242D01*
Y1541356D01*
X14673579Y1541957D01*
Y2252500D01*
X15135860Y2252500D01*
Y1530938D01*
D02*
G37*
G36*
X8439979Y1834320D02*
X8449700Y1830294D01*
X8552500D01*
Y1039199D01*
X8470900D01*
X8470284Y1039076D01*
X8466047Y1040831D01*
X8459357Y1050760D01*
X8456343Y1073654D01*
X8447506Y1094988D01*
X8433448Y1113308D01*
X8415128Y1127366D01*
X8393794Y1136202D01*
X8370900Y1139216D01*
Y1139198D01*
X8252500D01*
Y1760716D01*
X8254702D01*
Y1837369D01*
X8438716D01*
X8439979Y1834320D01*
D02*
G37*
%LPC*%
G36*
X8140723Y2948380D02*
X7995323D01*
Y2802980D01*
X8140723D01*
Y2948380D01*
D02*
G37*
G36*
X8350723D02*
X8205323D01*
Y2802980D01*
X8238765D01*
Y2757680D01*
X8222000D01*
Y2637280D01*
X8332400D01*
Y2757680D01*
X8316458D01*
Y2802980D01*
X8350723D01*
Y2948380D01*
D02*
G37*
G36*
X9632607Y1989816D02*
X9618732Y1987056D01*
X9606969Y1979197D01*
X9599110Y1967434D01*
X9596350Y1953559D01*
X9599110Y1939685D01*
X9606969Y1927922D01*
X9618732Y1920063D01*
X9632607Y1917303D01*
X9646481Y1920063D01*
X9658244Y1927922D01*
X9666103Y1939685D01*
X9668863Y1953559D01*
X9666103Y1967434D01*
X9658244Y1979197D01*
X9646481Y1987056D01*
X9632607Y1989816D01*
D02*
G37*
G36*
X9824720Y1988757D02*
X9810845Y1985997D01*
X9799083Y1978138D01*
X9791223Y1966375D01*
X9788463Y1952500D01*
X9791223Y1938625D01*
X9799083Y1926863D01*
X9810845Y1919003D01*
X9824720Y1916243D01*
X9838595Y1919003D01*
X9850357Y1926863D01*
X9858217Y1938625D01*
X9860977Y1952500D01*
X9858217Y1966375D01*
X9850357Y1978138D01*
X9838595Y1985997D01*
X9824720Y1988757D01*
D02*
G37*
G36*
X4108699Y3112201D02*
Y3112200D01*
X4098968Y3112200D01*
X4023300D01*
Y3100122D01*
X3973865D01*
X3970563Y3105063D01*
X3963881Y3109528D01*
X3956000Y3111096D01*
X3774000D01*
X3766118Y3109528D01*
X3759437Y3105063D01*
X3754972Y3098381D01*
X3753404Y3090500D01*
Y3045500D01*
X3754972Y3037619D01*
X3759437Y3030937D01*
X3766118Y3026472D01*
X3774000Y3024904D01*
X3956000D01*
X3963881Y3026472D01*
X3970563Y3030937D01*
X3973531Y3035378D01*
X4023300D01*
Y3022800D01*
X4035573D01*
X4037179Y3014724D01*
X4044197Y3004222D01*
X4053986Y2994433D01*
X4049126Y2982700D01*
X4019800D01*
Y2966397D01*
X3976019D01*
X3975028Y2971381D01*
X3970563Y2978063D01*
X3963881Y2982528D01*
X3956000Y2984096D01*
X3774000D01*
X3766118Y2982528D01*
X3759437Y2978063D01*
X3754972Y2971381D01*
X3753404Y2963500D01*
Y2918500D01*
X3754972Y2910619D01*
X3759437Y2903937D01*
X3766118Y2899472D01*
X3774000Y2897904D01*
X3956000D01*
X3963881Y2899472D01*
X3970563Y2903937D01*
X3975028Y2910619D01*
X3975820Y2914602D01*
X4019800D01*
Y2897300D01*
X4120200D01*
Y2969908D01*
X4134800D01*
Y2897300D01*
X4235200D01*
Y2947425D01*
X4246933Y2952285D01*
X4295788Y2903431D01*
Y2629214D01*
X4278453Y2611879D01*
X4266720Y2616739D01*
Y2617065D01*
X4181320D01*
Y2599237D01*
X4103565D01*
X4091177Y2596773D01*
X4080675Y2589756D01*
X4028410Y2537490D01*
X4021392Y2526988D01*
X4018928Y2514600D01*
Y2433638D01*
X4017803Y2431955D01*
X4015043Y2418080D01*
X4017803Y2404205D01*
X4018928Y2402522D01*
Y2355807D01*
X4009900Y2346779D01*
X3997200Y2352039D01*
Y2452280D01*
X3889103D01*
X3883706Y2452280D01*
X3875619Y2453078D01*
X3874566Y2453586D01*
X3874192Y2454618D01*
X3873729Y2460456D01*
X3876759Y2465106D01*
X3884683Y2471880D01*
X3997200D01*
Y2582280D01*
X3911742D01*
X3889707Y2604314D01*
Y2643904D01*
X3956000D01*
X3963881Y2645472D01*
X3970563Y2649937D01*
X3975028Y2656619D01*
X3976596Y2664500D01*
Y2709500D01*
X3975028Y2717381D01*
X3970563Y2724063D01*
X3963881Y2728528D01*
X3956000Y2730096D01*
X3774000D01*
X3766118Y2728528D01*
X3759437Y2724063D01*
X3754972Y2717381D01*
X3753404Y2709500D01*
Y2664500D01*
X3754972Y2656619D01*
X3759437Y2649937D01*
X3766118Y2645472D01*
X3774000Y2643904D01*
X3840292D01*
Y2594080D01*
X3842173Y2584625D01*
X3847529Y2576609D01*
X3876800Y2547338D01*
Y2492525D01*
X3864100Y2488672D01*
X3858497Y2497057D01*
X3846735Y2504917D01*
X3832860Y2507677D01*
X3818985Y2504917D01*
X3807223Y2497057D01*
X3799363Y2485295D01*
X3796695Y2471879D01*
X3761208Y2436392D01*
X3755594Y2427991D01*
X3753622Y2418080D01*
Y2030027D01*
X3730801Y2007205D01*
X3717385Y2004537D01*
X3705623Y1996677D01*
X3697763Y1984915D01*
X3695003Y1971040D01*
X3697763Y1957165D01*
X3705623Y1945403D01*
X3717385Y1937543D01*
X3731260Y1934783D01*
X3745135Y1937543D01*
X3756897Y1945403D01*
X3764757Y1957165D01*
X3767425Y1970581D01*
X3797832Y2000988D01*
X3803446Y2009389D01*
X3805418Y2019300D01*
Y2407353D01*
X3833319Y2435255D01*
X3846735Y2437923D01*
X3858497Y2445783D01*
X3862015Y2451048D01*
X3862409Y2451142D01*
X3876680Y2442328D01*
X3876725Y2442135D01*
X3876800Y2441741D01*
X3876800Y2439776D01*
Y2341880D01*
X3907516D01*
X3911363Y2336123D01*
X3923125Y2328263D01*
X3937000Y2325503D01*
X3950875Y2328263D01*
X3962637Y2336123D01*
X3966484Y2341880D01*
X3987041D01*
X3992301Y2329180D01*
X3830113Y2166992D01*
X3823096Y2156490D01*
X3820632Y2144101D01*
Y1973886D01*
X3751550Y1904803D01*
X3744532Y1894301D01*
X3742068Y1881913D01*
Y1707198D01*
X3740943Y1705515D01*
X3738183Y1691640D01*
X3740943Y1677765D01*
X3748803Y1666003D01*
X3760565Y1658143D01*
X3774440Y1655383D01*
X3788315Y1658143D01*
X3800077Y1666003D01*
X3807937Y1677765D01*
X3810697Y1691640D01*
X3807937Y1705515D01*
X3806812Y1707198D01*
Y1801176D01*
X3810255Y1803688D01*
X3819512Y1806801D01*
X3828669Y1800683D01*
X3842544Y1797923D01*
X3847716Y1786753D01*
Y1207576D01*
X3849597Y1198121D01*
X3854953Y1190106D01*
X3883181Y1161877D01*
X3882963Y1160780D01*
X3885723Y1146905D01*
X3893583Y1135143D01*
X3905345Y1127283D01*
X3919220Y1124523D01*
X3933095Y1127283D01*
X3944857Y1135143D01*
X3952717Y1146905D01*
X3953748Y1152090D01*
X3967529Y1156270D01*
X4005101Y1118697D01*
X4004883Y1117600D01*
X4007643Y1103725D01*
X4015503Y1091963D01*
X4027265Y1084103D01*
X4041140Y1081343D01*
X4055015Y1084103D01*
X4066777Y1091963D01*
X4074637Y1103725D01*
X4088331Y1107472D01*
X4090341Y1106765D01*
X4091463Y1101125D01*
X4099323Y1089363D01*
X4111085Y1081503D01*
X4124960Y1078743D01*
X4138835Y1081503D01*
X4150597Y1089363D01*
X4158457Y1101125D01*
X4161217Y1115000D01*
X4158457Y1128875D01*
X4150597Y1140638D01*
X4138835Y1148497D01*
X4124960Y1151257D01*
X4123863Y1151039D01*
X4004888Y1270014D01*
Y1909221D01*
X4005817Y1909843D01*
X4013677Y1921605D01*
X4016437Y1935480D01*
X4013677Y1949355D01*
X4005817Y1961117D01*
X3994055Y1968977D01*
X3980180Y1971737D01*
X3966305Y1968977D01*
X3954543Y1961117D01*
X3951548Y1956635D01*
X3938848Y1960488D01*
Y1998121D01*
X3939777Y1998743D01*
X3947637Y2010505D01*
X3950397Y2024380D01*
X3947637Y2038255D01*
X3939777Y2050017D01*
X3928015Y2057877D01*
X3914140Y2060637D01*
X3900265Y2057877D01*
X3898076Y2056414D01*
X3885376Y2063202D01*
Y2130692D01*
X4074190Y2319507D01*
X4081208Y2330009D01*
X4083672Y2342398D01*
Y2402522D01*
X4084797Y2404205D01*
X4087557Y2418080D01*
X4084797Y2431955D01*
X4083672Y2433638D01*
Y2501191D01*
X4116974Y2534493D01*
X4181320D01*
Y2516665D01*
X4266720D01*
Y2534493D01*
X4279220D01*
X4291609Y2536957D01*
X4302111Y2543975D01*
X4351050Y2592915D01*
X4358068Y2603417D01*
X4360532Y2615805D01*
Y2916840D01*
X4358068Y2929228D01*
X4351050Y2939730D01*
X4265610Y3025170D01*
X4255108Y3032188D01*
X4242720Y3034652D01*
X4196700D01*
Y3112200D01*
X4121031D01*
X4111300Y3112200D01*
Y3112201D01*
X4108699D01*
D02*
G37*
G36*
X3461000Y3111096D02*
X3279000D01*
X3271119Y3109528D01*
X3264437Y3105063D01*
X3259972Y3098381D01*
X3259080Y3093898D01*
X3212700D01*
Y3110700D01*
X3112300D01*
Y3025300D01*
X3212700D01*
Y3042102D01*
X3259080D01*
X3259972Y3037619D01*
X3264437Y3030937D01*
X3271119Y3026472D01*
X3279000Y3024904D01*
X3461000D01*
X3468882Y3026472D01*
X3475563Y3030937D01*
X3480028Y3037619D01*
X3481596Y3045500D01*
Y3090500D01*
X3480028Y3098381D01*
X3475563Y3105063D01*
X3468882Y3109528D01*
X3461000Y3111096D01*
D02*
G37*
G36*
X3097700Y3110700D02*
X2997300D01*
Y3025300D01*
X3097700D01*
Y3110700D01*
D02*
G37*
G36*
X5540560Y3128937D02*
X5430160D01*
Y3008537D01*
X5540560D01*
Y3128937D01*
D02*
G37*
G36*
X4999179Y3072431D02*
X4909779D01*
Y2987032D01*
X4999179D01*
Y3072431D01*
D02*
G37*
G36*
X4884879D02*
X4795479D01*
Y2987032D01*
X4884879D01*
Y3072431D01*
D02*
G37*
G36*
X4770579D02*
X4681179D01*
Y2987032D01*
X4770579D01*
Y3072431D01*
D02*
G37*
G36*
X3461000Y2984096D02*
X3279000D01*
X3271119Y2982528D01*
X3264437Y2978063D01*
X3259972Y2971381D01*
X3258981Y2966397D01*
X3212700D01*
Y2982700D01*
X3112300D01*
Y2897300D01*
X3212700D01*
Y2914602D01*
X3259180D01*
X3259972Y2910619D01*
X3264437Y2903937D01*
X3271119Y2899472D01*
X3279000Y2897904D01*
X3461000D01*
X3468882Y2899472D01*
X3475563Y2903937D01*
X3480028Y2910619D01*
X3481596Y2918500D01*
Y2963500D01*
X3480028Y2971381D01*
X3475563Y2978063D01*
X3468882Y2982528D01*
X3461000Y2984096D01*
D02*
G37*
G36*
X4652700Y2980200D02*
X4567300D01*
Y2904235D01*
X4555567Y2899375D01*
X4540200Y2914742D01*
Y2980200D01*
X4454800D01*
Y2879800D01*
X4505258D01*
X4569272Y2815786D01*
Y2799461D01*
X4565749Y2797858D01*
X4555130D01*
X4554358Y2799013D01*
X4542714Y2806793D01*
X4528980Y2809525D01*
X4515246Y2806793D01*
X4503602Y2799013D01*
X4502830Y2797857D01*
X4490130D01*
X4489358Y2799013D01*
X4477714Y2806793D01*
X4463980Y2809525D01*
X4450246Y2806793D01*
X4438602Y2799013D01*
X4430822Y2787370D01*
X4428090Y2773636D01*
Y2726082D01*
X4427723Y2724236D01*
X4428090Y2722389D01*
Y2678636D01*
X4430822Y2664901D01*
X4438602Y2653258D01*
X4450246Y2645478D01*
X4463980Y2642746D01*
X4477714Y2645478D01*
X4489358Y2653258D01*
X4490130Y2654414D01*
X4502830D01*
X4503602Y2653258D01*
X4515246Y2645478D01*
X4528980Y2642746D01*
X4542714Y2645478D01*
X4554357Y2653258D01*
X4556379Y2653354D01*
X4564592Y2642214D01*
X4564434Y2641541D01*
X4542617Y2619724D01*
X4541520Y2619942D01*
X4527645Y2617182D01*
X4515883Y2609323D01*
X4508023Y2597560D01*
X4505263Y2583685D01*
X4508023Y2569810D01*
X4515883Y2558048D01*
X4527645Y2550188D01*
X4541520Y2547428D01*
X4553566Y2549825D01*
X4558199Y2545637D01*
X4561962Y2539532D01*
X4561363Y2538635D01*
X4558603Y2524760D01*
X4561363Y2510885D01*
X4569223Y2499123D01*
X4580985Y2491263D01*
X4594860Y2488503D01*
X4608735Y2491263D01*
X4620497Y2499123D01*
X4628357Y2510885D01*
X4631117Y2524760D01*
X4630899Y2525857D01*
X4676451Y2571409D01*
X4681807Y2579425D01*
X4683688Y2588880D01*
Y2652810D01*
X4684358Y2653258D01*
X4692137Y2664901D01*
X4694869Y2678636D01*
Y2773636D01*
X4692137Y2787370D01*
X4684358Y2799013D01*
X4683688Y2799461D01*
Y2873520D01*
X4681807Y2882975D01*
X4676451Y2890991D01*
X4652700Y2914742D01*
Y2980200D01*
D02*
G37*
G36*
X3097700Y2982700D02*
X2997300D01*
Y2897300D01*
X3097700D01*
Y2982700D01*
D02*
G37*
G36*
X5606160Y2933300D02*
X5510760D01*
Y2857900D01*
X5606160D01*
Y2869702D01*
X5656732D01*
X5668105Y2862103D01*
X5681980Y2859343D01*
X5695855Y2862103D01*
X5707617Y2869963D01*
X5715477Y2881725D01*
X5718237Y2895600D01*
X5715477Y2909475D01*
X5707617Y2921237D01*
X5695855Y2929097D01*
X5681980Y2931857D01*
X5668105Y2929097D01*
X5656732Y2921498D01*
X5606160D01*
Y2933300D01*
D02*
G37*
G36*
X4144200Y2864765D02*
X4023800D01*
Y2838708D01*
X3976156D01*
X3975028Y2844381D01*
X3970563Y2851063D01*
X3963881Y2855528D01*
X3956000Y2857096D01*
X3774000D01*
X3766118Y2855528D01*
X3759437Y2851063D01*
X3754972Y2844381D01*
X3753404Y2836500D01*
Y2791500D01*
X3754972Y2783619D01*
X3759437Y2776937D01*
X3766118Y2772472D01*
X3774000Y2770904D01*
X3956000D01*
X3963881Y2772472D01*
X3970563Y2776937D01*
X3975028Y2783619D01*
X3976156Y2789292D01*
X4023800D01*
Y2754365D01*
X4144200D01*
Y2864765D01*
D02*
G37*
G36*
X1695500Y3148380D02*
X1200100D01*
Y2779980D01*
X1695500D01*
Y3148380D01*
D02*
G37*
G36*
X3212700Y2857700D02*
X3112300D01*
Y2772300D01*
X3212700D01*
Y2788602D01*
X3258981D01*
X3259972Y2783619D01*
X3264437Y2776937D01*
X3271119Y2772472D01*
X3279000Y2770904D01*
X3461000D01*
X3468882Y2772472D01*
X3475563Y2776937D01*
X3480028Y2783619D01*
X3481596Y2791500D01*
Y2836500D01*
X3480028Y2844381D01*
X3475563Y2851063D01*
X3468882Y2855528D01*
X3461000Y2857096D01*
X3279000D01*
X3271119Y2855528D01*
X3264437Y2851063D01*
X3259972Y2844381D01*
X3259180Y2840397D01*
X3212700D01*
Y2857700D01*
D02*
G37*
G36*
X2425862Y2852556D02*
X2235462D01*
Y2707156D01*
X2425862D01*
Y2852556D01*
D02*
G37*
G36*
X4144200Y2734765D02*
X4023800D01*
Y2624365D01*
X4144200D01*
Y2654858D01*
X4181320D01*
Y2631665D01*
X4266720D01*
Y2732065D01*
X4181320D01*
Y2704273D01*
X4144200D01*
Y2734765D01*
D02*
G37*
G36*
X1921060Y2664029D02*
X1810660D01*
Y2543629D01*
X1921060D01*
Y2664029D01*
D02*
G37*
G36*
X5696700Y2580446D02*
Y2541940D01*
X5735206D01*
X5733642Y2549803D01*
X5721995Y2567235D01*
X5704563Y2578882D01*
X5696700Y2580446D01*
D02*
G37*
G36*
X5671300Y2580446D02*
X5663437Y2578882D01*
X5646005Y2567235D01*
X5634358Y2549803D01*
X5632794Y2541940D01*
X5671300D01*
Y2580446D01*
D02*
G37*
G36*
X2161540Y2880700D02*
X2009140D01*
Y2512300D01*
X2161540D01*
Y2880700D01*
D02*
G37*
G36*
X5493500Y2788824D02*
X5459185Y2784307D01*
X5427208Y2771061D01*
X5399749Y2749991D01*
X5378679Y2722532D01*
X5365434Y2690555D01*
X5360916Y2656240D01*
X5365434Y2621925D01*
X5378679Y2589948D01*
X5399749Y2562489D01*
X5427208Y2541419D01*
X5447828Y2532878D01*
X5445302Y2520178D01*
X5402521D01*
X5392610Y2518206D01*
X5384208Y2512592D01*
X5301419Y2429803D01*
X5250644D01*
Y2412997D01*
X5219220D01*
Y2441960D01*
X5133820D01*
Y2412997D01*
X4772160D01*
X4762249Y2411026D01*
X4753847Y2405412D01*
X4640668Y2292232D01*
X4635054Y2283831D01*
X4633082Y2273920D01*
Y2225380D01*
X4625241Y2220852D01*
X4619043Y2224266D01*
X4617906Y2229981D01*
X4612292Y2238382D01*
X4591162Y2259512D01*
X4582760Y2265126D01*
X4572850Y2267098D01*
X4378480D01*
Y2291400D01*
X4293080D01*
Y2191000D01*
X4378480D01*
Y2215302D01*
X4427530D01*
X4434319Y2202602D01*
X4430822Y2197370D01*
X4428090Y2183636D01*
Y2088636D01*
X4430822Y2074901D01*
X4438082Y2064036D01*
Y2051547D01*
X4404188Y2017653D01*
X4398574Y2009251D01*
X4396603Y1999340D01*
Y1884528D01*
X4389003Y1873155D01*
X4386243Y1859280D01*
X4389003Y1845405D01*
X4396863Y1833643D01*
X4408625Y1825783D01*
X4418192Y1823880D01*
Y1810932D01*
X4408265Y1808957D01*
X4396503Y1801097D01*
X4388643Y1789335D01*
X4385883Y1775460D01*
X4388643Y1761585D01*
X4389970Y1759600D01*
X4383181Y1746900D01*
X4372300D01*
Y1661500D01*
X4472700D01*
Y1746900D01*
X4461099D01*
X4454310Y1759600D01*
X4455637Y1761585D01*
X4458397Y1775460D01*
X4455637Y1789335D01*
X4447777Y1801097D01*
X4436015Y1808957D01*
X4426449Y1810860D01*
Y1823808D01*
X4436375Y1825783D01*
X4448138Y1833643D01*
X4455997Y1845405D01*
X4458757Y1859280D01*
X4455997Y1873155D01*
X4448398Y1884528D01*
Y1988613D01*
X4482292Y2022508D01*
X4487906Y2030909D01*
X4489877Y2040820D01*
Y2060939D01*
X4497993Y2064414D01*
X4502830D01*
X4503602Y2063258D01*
X4515246Y2055478D01*
X4528980Y2052746D01*
X4542714Y2055478D01*
X4554358Y2063258D01*
X4555130Y2064414D01*
X4567830D01*
X4568602Y2063258D01*
X4580246Y2055478D01*
X4593980Y2052746D01*
X4607714Y2055478D01*
X4619358Y2063258D01*
X4620130Y2064414D01*
X4632830D01*
X4633602Y2063258D01*
X4645246Y2055478D01*
X4658980Y2052746D01*
X4672714Y2055478D01*
X4684358Y2063258D01*
X4692137Y2074901D01*
X4694869Y2088636D01*
Y2183636D01*
X4692137Y2197370D01*
X4684878Y2208235D01*
Y2263193D01*
X4782887Y2361202D01*
X5133820D01*
Y2341560D01*
X5219220D01*
Y2361202D01*
X5241663D01*
X5250644Y2352222D01*
Y2344403D01*
X5250644Y2331703D01*
Y2269076D01*
X5250643Y2257222D01*
X5241085Y2248820D01*
X5219632Y2270272D01*
X5219220Y2270548D01*
Y2326960D01*
X5133820D01*
Y2238158D01*
X5133820Y2231343D01*
X5121458Y2225744D01*
X5044633Y2302569D01*
X5036231Y2308183D01*
X5026320Y2310154D01*
X4802988D01*
X4791615Y2317753D01*
X4777740Y2320513D01*
X4763865Y2317753D01*
X4752103Y2309894D01*
X4744243Y2298131D01*
X4741483Y2284257D01*
X4744243Y2270382D01*
X4752103Y2258619D01*
X4763865Y2250760D01*
X4777740Y2248000D01*
X4791615Y2250760D01*
X4802988Y2258359D01*
X5015593D01*
X5042723Y2231229D01*
X5038543Y2217449D01*
X5035246Y2216793D01*
X5023602Y2209013D01*
X5022830Y2207857D01*
X5010130D01*
X5009358Y2209013D01*
X4997714Y2216793D01*
X4983980Y2219525D01*
X4970246Y2216793D01*
X4958602Y2209013D01*
X4957830Y2207858D01*
X4945130D01*
X4944358Y2209013D01*
X4932714Y2216793D01*
X4918980Y2219525D01*
X4905246Y2216793D01*
X4893602Y2209013D01*
X4892830Y2207857D01*
X4880130D01*
X4879358Y2209013D01*
X4867714Y2216793D01*
X4853980Y2219525D01*
X4840246Y2216793D01*
X4828602Y2209013D01*
X4827830Y2207858D01*
X4815130D01*
X4814358Y2209013D01*
X4802714Y2216793D01*
X4788980Y2219525D01*
X4775246Y2216793D01*
X4763602Y2209013D01*
X4755823Y2197370D01*
X4753091Y2183636D01*
Y2088636D01*
X4755823Y2074901D01*
X4763602Y2063258D01*
X4775246Y2055478D01*
X4788980Y2052746D01*
X4802714Y2055478D01*
X4814358Y2063258D01*
X4815130Y2064414D01*
X4827830D01*
X4828602Y2063258D01*
X4840246Y2055478D01*
X4853980Y2052746D01*
X4867714Y2055478D01*
X4870014Y2057015D01*
X4885205Y2051891D01*
X4886544Y2047996D01*
X4883644Y2043655D01*
X4880884Y2029780D01*
X4883644Y2015905D01*
X4891503Y2004142D01*
X4903266Y1996283D01*
X4908412Y1995259D01*
X4917031Y1982147D01*
X4911768Y1972773D01*
X4900960Y1974923D01*
X4890152Y1972773D01*
X4880990Y1966651D01*
X4870931D01*
X4861768Y1972773D01*
X4850960Y1974923D01*
X4840152Y1972773D01*
X4830990Y1966651D01*
X4824867Y1957488D01*
X4822718Y1946680D01*
Y1881680D01*
X4824867Y1870872D01*
X4827401Y1867080D01*
X4820839Y1854380D01*
X4820760D01*
Y1850077D01*
X4804561D01*
X4804268Y1850273D01*
X4793460Y1852423D01*
X4728460D01*
X4717652Y1850273D01*
X4708489Y1844150D01*
X4702367Y1834988D01*
X4700217Y1824180D01*
X4702367Y1813372D01*
X4706080Y1807815D01*
X4707602Y1799180D01*
X4706080Y1790545D01*
X4702367Y1784988D01*
X4700217Y1774180D01*
X4702367Y1763372D01*
X4706080Y1757815D01*
X4707602Y1749180D01*
X4706080Y1740545D01*
X4702367Y1734988D01*
X4700217Y1724180D01*
X4700233Y1724101D01*
X4699000Y1717737D01*
X4685125Y1714977D01*
X4673363Y1707117D01*
X4665503Y1695355D01*
X4662743Y1681480D01*
X4665503Y1667605D01*
X4673363Y1655843D01*
Y1643617D01*
X4665503Y1631855D01*
X4662743Y1617980D01*
X4665503Y1604105D01*
X4673363Y1592343D01*
X4685125Y1584483D01*
X4699000Y1581723D01*
X4712875Y1584483D01*
X4724637Y1592343D01*
X4727206Y1596187D01*
X4728460Y1595937D01*
X4793460D01*
X4804268Y1598087D01*
X4808060Y1600621D01*
X4820760Y1594059D01*
Y1493980D01*
X4820839D01*
X4827401Y1481280D01*
X4824867Y1477488D01*
X4822718Y1466680D01*
Y1449060D01*
X4821052Y1446568D01*
X4818588Y1434180D01*
Y1388368D01*
X4810480Y1379026D01*
X4805888Y1379026D01*
X4725080D01*
Y1278626D01*
X4791507D01*
X4798295Y1265926D01*
X4797026Y1264026D01*
X4725080D01*
Y1245872D01*
X4700480D01*
Y1271200D01*
X4595080D01*
Y1155800D01*
X4700480D01*
Y1181128D01*
X4725080D01*
Y1163626D01*
X4810480D01*
Y1182548D01*
X4815728Y1183592D01*
X4826231Y1190609D01*
X4873851Y1238229D01*
X4880868Y1248732D01*
X4883332Y1261120D01*
Y1270800D01*
X4973340D01*
Y1356200D01*
X4925978D01*
Y1369783D01*
X4938678Y1376572D01*
X4940152Y1375587D01*
X4950960Y1373437D01*
X4961768Y1375587D01*
X4970931Y1381709D01*
X4980990D01*
X4990152Y1375587D01*
X5000960Y1373437D01*
X5011768Y1375587D01*
X5020931Y1381709D01*
X5030990D01*
X5040152Y1375587D01*
X5050960Y1373437D01*
X5061768Y1375587D01*
X5070931Y1381709D01*
X5080990D01*
X5090152Y1375587D01*
X5100960Y1373437D01*
X5111768Y1375587D01*
X5120931Y1381709D01*
X5130990D01*
X5140152Y1375587D01*
X5150960Y1373437D01*
X5161768Y1375587D01*
X5170931Y1381709D01*
X5177053Y1390872D01*
X5179203Y1401680D01*
Y1466680D01*
X5177053Y1477488D01*
X5176858Y1477780D01*
Y1493980D01*
X5181160D01*
Y1498282D01*
X5197360D01*
X5197652Y1498087D01*
X5208460Y1495937D01*
X5273460D01*
X5284268Y1498087D01*
X5284561Y1498282D01*
X5329880D01*
X5339791Y1500254D01*
X5348193Y1505867D01*
X5383805Y1541480D01*
X5432580D01*
Y1641880D01*
X5347180D01*
Y1578105D01*
X5319153Y1550077D01*
X5305945D01*
X5299156Y1562777D01*
X5299553Y1563372D01*
X5301703Y1574180D01*
X5299553Y1584988D01*
X5295840Y1590545D01*
X5294318Y1599180D01*
X5295840Y1607815D01*
X5299553Y1613372D01*
X5301703Y1624180D01*
X5299553Y1634988D01*
X5295841Y1640545D01*
X5294318Y1649180D01*
X5295841Y1657815D01*
X5299553Y1663372D01*
X5301703Y1674180D01*
X5299553Y1684988D01*
X5295840Y1690545D01*
X5294318Y1699180D01*
X5295840Y1707815D01*
X5299553Y1713372D01*
X5301703Y1724180D01*
X5299553Y1734988D01*
X5299156Y1735582D01*
X5305945Y1748282D01*
X5319153D01*
X5347180Y1720255D01*
Y1656480D01*
X5432580D01*
Y1756880D01*
X5383805D01*
X5354120Y1786565D01*
X5358300Y1800346D01*
X5360051Y1800694D01*
X5368453Y1806308D01*
X5410732Y1848588D01*
X5416346Y1856989D01*
X5418318Y1866900D01*
Y2182221D01*
X5416346Y2192132D01*
X5410732Y2200533D01*
X5375533Y2235732D01*
X5367132Y2241346D01*
X5357221Y2243318D01*
X5256869D01*
X5256695Y2243703D01*
X5261744Y2253387D01*
X5264889Y2256403D01*
X5340044D01*
Y2331703D01*
X5340044Y2341803D01*
X5340044Y2354503D01*
Y2395178D01*
X5413248Y2468382D01*
X5429802D01*
X5432328Y2455682D01*
X5427208Y2453561D01*
X5399749Y2432491D01*
X5378679Y2405032D01*
X5365434Y2373055D01*
X5360916Y2338740D01*
X5365434Y2304425D01*
X5378679Y2272448D01*
X5399749Y2244989D01*
X5427208Y2223919D01*
X5459185Y2210674D01*
X5493500Y2206156D01*
X5527815Y2210674D01*
X5559792Y2223919D01*
X5587251Y2244989D01*
X5608321Y2272448D01*
X5621567Y2304425D01*
X5626084Y2338740D01*
X5621567Y2373055D01*
X5608321Y2405032D01*
X5587251Y2432491D01*
X5559792Y2453561D01*
X5554672Y2455682D01*
X5557198Y2468382D01*
X5581233D01*
X5633106Y2416509D01*
X5630268Y2402240D01*
X5634358Y2381677D01*
X5646005Y2364245D01*
X5663437Y2352598D01*
X5684000Y2348508D01*
X5704563Y2352598D01*
X5721995Y2364245D01*
X5733642Y2381677D01*
X5737732Y2402240D01*
X5733642Y2422803D01*
X5721995Y2440235D01*
X5704563Y2451882D01*
X5684000Y2455972D01*
X5669731Y2453134D01*
X5648682Y2474183D01*
X5656778Y2484048D01*
X5663437Y2479598D01*
X5671300Y2478034D01*
Y2516540D01*
X5632794D01*
X5634358Y2508677D01*
X5638808Y2502018D01*
X5628943Y2493922D01*
X5610272Y2512592D01*
X5601871Y2518206D01*
X5591960Y2520178D01*
X5541698D01*
X5539172Y2532878D01*
X5559792Y2541419D01*
X5587251Y2562489D01*
X5608321Y2589948D01*
X5621567Y2621925D01*
X5626084Y2656240D01*
X5621567Y2690555D01*
X5608321Y2722532D01*
X5587251Y2749991D01*
X5559792Y2771061D01*
X5527815Y2784307D01*
X5493500Y2788824D01*
D02*
G37*
G36*
X5735206Y2516540D02*
X5696700D01*
Y2478034D01*
X5704563Y2479598D01*
X5721995Y2491245D01*
X5733642Y2508677D01*
X5735206Y2516540D01*
D02*
G37*
G36*
X4378480Y2406400D02*
X4293080D01*
Y2306000D01*
X4378480D01*
Y2406400D01*
D02*
G37*
G36*
X5811000Y2328972D02*
X5790437Y2324882D01*
X5773005Y2313235D01*
X5761358Y2295803D01*
X5757546Y2276637D01*
X5750163Y2273019D01*
X5745415Y2271534D01*
X5737392Y2276950D01*
X5733642Y2295803D01*
X5721995Y2313235D01*
X5704563Y2324882D01*
X5684000Y2328972D01*
X5663437Y2324882D01*
X5646005Y2313235D01*
X5634358Y2295803D01*
X5630268Y2275240D01*
X5634358Y2254677D01*
X5646005Y2237245D01*
X5663437Y2225598D01*
X5682496Y2221807D01*
X5722298Y2182005D01*
X5734900Y2173584D01*
X5749766Y2170627D01*
X5764632Y2173584D01*
X5777235Y2182005D01*
X5785656Y2194608D01*
X5788613Y2209474D01*
X5787871Y2213201D01*
X5798681Y2223958D01*
X5811000Y2221508D01*
X5831563Y2225598D01*
X5848995Y2237245D01*
X5860642Y2254677D01*
X5864732Y2275240D01*
X5860642Y2295803D01*
X5848995Y2313235D01*
X5831563Y2324882D01*
X5811000Y2328972D01*
D02*
G37*
G36*
X4244340Y2446717D02*
X4230465Y2443957D01*
X4218703Y2436097D01*
X4210843Y2424335D01*
X4208175Y2410919D01*
X4198088Y2400832D01*
X4192474Y2392431D01*
X4190502Y2382520D01*
Y2173784D01*
X4121888Y2105170D01*
X4116274Y2096768D01*
X4114302Y2086857D01*
Y1724508D01*
X4106703Y1713135D01*
X4103943Y1699260D01*
X4106703Y1685385D01*
X4114563Y1673623D01*
X4126325Y1665763D01*
X4140200Y1663003D01*
X4149862Y1664925D01*
X4162562Y1657323D01*
Y1491547D01*
X4137201Y1466185D01*
X4123785Y1463517D01*
X4112023Y1455657D01*
X4104163Y1443895D01*
X4101403Y1430020D01*
X4104163Y1416145D01*
X4112023Y1404383D01*
X4123785Y1396523D01*
X4137660Y1393763D01*
X4151535Y1396523D01*
X4163297Y1404383D01*
X4171157Y1416145D01*
X4173825Y1429561D01*
X4206772Y1462508D01*
X4212386Y1470909D01*
X4214358Y1480820D01*
Y1635954D01*
X4227058Y1641214D01*
X4257300Y1610971D01*
Y1551500D01*
X4357700D01*
Y1636900D01*
X4283229D01*
X4270362Y1649767D01*
X4275222Y1661500D01*
X4357700D01*
Y1746900D01*
X4272489D01*
Y1765424D01*
X4311654Y1804589D01*
X4315628Y1810537D01*
X4317024Y1817554D01*
Y2084440D01*
X4315628Y2091456D01*
X4311654Y2097404D01*
X4311077Y2097981D01*
X4314779Y2103521D01*
X4320094Y2109272D01*
X4331053Y2106759D01*
X4334605Y2104385D01*
X4348480Y2101625D01*
X4362355Y2104385D01*
X4374117Y2112245D01*
X4381977Y2124007D01*
X4384737Y2137882D01*
X4381977Y2151757D01*
X4374117Y2163520D01*
X4362355Y2171379D01*
X4348480Y2174139D01*
X4334605Y2171379D01*
X4322843Y2163520D01*
X4319021Y2157801D01*
X4313705Y2152050D01*
X4302747Y2154563D01*
X4299195Y2156937D01*
X4285320Y2159697D01*
X4271445Y2156937D01*
X4259682Y2149077D01*
X4251823Y2137315D01*
X4249063Y2123440D01*
X4247596Y2121973D01*
X4236720Y2124137D01*
X4230909Y2122981D01*
X4224653Y2134685D01*
X4234712Y2144745D01*
X4240326Y2153147D01*
X4242298Y2163057D01*
Y2371793D01*
X4244799Y2374295D01*
X4258215Y2376963D01*
X4269977Y2384823D01*
X4277837Y2396585D01*
X4280597Y2410460D01*
X4277837Y2424335D01*
X4269977Y2436097D01*
X4258215Y2443957D01*
X4244340Y2446717D01*
D02*
G37*
G36*
X5849100Y2207070D02*
X5826587Y2202592D01*
X5807501Y2189839D01*
X5794748Y2170753D01*
X5790270Y2148240D01*
X5794748Y2125727D01*
X5807501Y2106641D01*
X5826587Y2093888D01*
X5849100Y2089410D01*
X5871613Y2093888D01*
X5890699Y2106641D01*
X5903452Y2125727D01*
X5907930Y2148240D01*
X5903452Y2170753D01*
X5890699Y2189839D01*
X5871613Y2202592D01*
X5849100Y2207070D01*
D02*
G37*
G36*
X5645900D02*
X5623387Y2202592D01*
X5604301Y2189839D01*
X5591548Y2170753D01*
X5587070Y2148240D01*
X5591548Y2125727D01*
X5604301Y2106641D01*
X5623387Y2093888D01*
X5645900Y2089410D01*
X5668413Y2093888D01*
X5687499Y2106641D01*
X5700252Y2125727D01*
X5704730Y2148240D01*
X5700252Y2170753D01*
X5687499Y2189839D01*
X5668413Y2202592D01*
X5645900Y2207070D01*
D02*
G37*
G36*
X4677084Y1917740D02*
X4587684D01*
Y1913539D01*
X4570356D01*
Y1917740D01*
X4480956D01*
Y1832340D01*
X4570356D01*
Y1835846D01*
X4587684D01*
Y1832340D01*
X4677084D01*
Y1917740D01*
D02*
G37*
G36*
X5524500Y2083567D02*
X5501293Y2080512D01*
X5479666Y2071554D01*
X5461096Y2057304D01*
X5446846Y2038734D01*
X5437888Y2017107D01*
X5434833Y1993900D01*
X5437888Y1970693D01*
X5446846Y1949066D01*
X5461096Y1930496D01*
X5479666Y1916246D01*
X5501293Y1907288D01*
X5524500Y1904233D01*
X5547707Y1907288D01*
X5569334Y1916246D01*
X5587904Y1930496D01*
X5602154Y1949066D01*
X5611112Y1970693D01*
X5614167Y1993900D01*
X5611112Y2017107D01*
X5602154Y2038734D01*
X5587904Y2057304D01*
X5569334Y2071554D01*
X5547707Y2080512D01*
X5524500Y2083567D01*
D02*
G37*
G36*
Y1888601D02*
X5501293Y1885546D01*
X5479666Y1876588D01*
X5461096Y1862338D01*
X5446846Y1843767D01*
X5437888Y1822141D01*
X5434833Y1798934D01*
X5437888Y1775726D01*
X5446846Y1754100D01*
X5461096Y1735530D01*
X5479666Y1721280D01*
X5501293Y1712322D01*
X5524500Y1709267D01*
X5547707Y1712322D01*
X5569334Y1721280D01*
X5587904Y1735530D01*
X5602154Y1754100D01*
X5611112Y1775726D01*
X5614167Y1798934D01*
X5611112Y1822141D01*
X5602154Y1843767D01*
X5587904Y1862338D01*
X5569334Y1876588D01*
X5547707Y1885546D01*
X5524500Y1888601D01*
D02*
G37*
G36*
X2481580Y1591570D02*
Y1570540D01*
X2502610D01*
X2502377Y1571715D01*
X2494517Y1583477D01*
X2482755Y1591337D01*
X2481580Y1591570D01*
D02*
G37*
G36*
X2456180D02*
X2455005Y1591337D01*
X2443243Y1583477D01*
X2435383Y1571715D01*
X2435150Y1570540D01*
X2456180D01*
Y1591570D01*
D02*
G37*
G36*
X4587084Y1710338D02*
X4501684D01*
Y1620939D01*
X4505538D01*
Y1596038D01*
X4501684D01*
Y1506639D01*
X4587084D01*
Y1596038D01*
X4583231D01*
Y1620939D01*
X4587084D01*
Y1710338D01*
D02*
G37*
G36*
X4472700Y1636900D02*
X4372300D01*
Y1551500D01*
X4381699D01*
X4388643Y1539033D01*
X4385883Y1525158D01*
X4388643Y1511283D01*
X4396503Y1499521D01*
X4408265Y1491661D01*
X4422140Y1488902D01*
X4436015Y1491661D01*
X4447777Y1499521D01*
X4455637Y1511283D01*
X4458397Y1525158D01*
X4455637Y1539033D01*
X4462581Y1551500D01*
X4472700D01*
Y1636900D01*
D02*
G37*
G36*
X2502610Y1545140D02*
X2435150D01*
X2435383Y1543965D01*
X2443243Y1532202D01*
X2443557Y1531992D01*
X2446374Y1514836D01*
X2444605Y1512540D01*
X2424180D01*
Y1427140D01*
X2513580D01*
Y1512540D01*
X2493155D01*
X2491386Y1514836D01*
X2494203Y1531992D01*
X2494517Y1532202D01*
X2502377Y1543965D01*
X2502610Y1545140D01*
D02*
G37*
G36*
X2394740Y1498261D02*
X2309340D01*
Y1397861D01*
X2394740D01*
Y1498261D01*
D02*
G37*
G36*
X7437440Y1465880D02*
X7337040D01*
Y1380480D01*
X7437440D01*
Y1465880D01*
D02*
G37*
G36*
X4357880Y1446080D02*
X4237480D01*
Y1335680D01*
X4357880D01*
Y1446080D01*
D02*
G37*
G36*
X7189220Y1411760D02*
X7088820D01*
Y1326360D01*
X7189220D01*
Y1411760D01*
D02*
G37*
G36*
X7074220D02*
X6973820D01*
Y1326360D01*
X7074220D01*
Y1411760D01*
D02*
G37*
G36*
X7325680Y1366040D02*
X7225280D01*
Y1280640D01*
X7325680D01*
Y1366040D01*
D02*
G37*
G36*
X7440680D02*
X7340280D01*
Y1281628D01*
X7340280Y1280640D01*
X7342655Y1267940D01*
X7339082Y1265553D01*
X7331223Y1253790D01*
X7328463Y1239916D01*
X7331223Y1226041D01*
X7339082Y1214278D01*
X7350845Y1206419D01*
X7364720Y1203659D01*
X7378595Y1206419D01*
X7390357Y1214278D01*
X7398217Y1226041D01*
X7400977Y1239916D01*
X7398217Y1253790D01*
X7390357Y1265553D01*
X7386785Y1267940D01*
X7390637Y1280640D01*
X7440680D01*
Y1366040D01*
D02*
G37*
G36*
X4357880Y1316080D02*
X4237480D01*
Y1205680D01*
X4312593D01*
X4324916Y1193357D01*
X4324917Y1193356D01*
X4334159Y1187181D01*
X4345060Y1185012D01*
X4345062Y1185012D01*
X4405080D01*
Y1155800D01*
X4510480D01*
Y1271200D01*
X4405080D01*
Y1241987D01*
X4357880D01*
Y1316080D01*
D02*
G37*
G36*
X6283520Y1238764D02*
X6173120D01*
Y1118364D01*
X6283520D01*
Y1238764D01*
D02*
G37*
G36*
X5683952Y2049677D02*
X5663388Y2045587D01*
X5645954Y2033938D01*
X5634305Y2016504D01*
X5630215Y1995940D01*
X5634305Y1975375D01*
X5645954Y1957941D01*
X5659245Y1949061D01*
Y1753395D01*
X5661126Y1743940D01*
X5666481Y1735924D01*
X5712997Y1689409D01*
X5721012Y1684053D01*
X5730468Y1682172D01*
X5826660D01*
Y1630680D01*
X5986152D01*
Y1589494D01*
X5931210Y1534551D01*
X5925854Y1526536D01*
X5923973Y1517081D01*
Y1394939D01*
X5923043Y1394318D01*
X5915760Y1383418D01*
X5914835Y1383296D01*
X5903060Y1390823D01*
Y1529080D01*
X5534660D01*
Y1477147D01*
X5505039D01*
X5504417Y1478077D01*
X5492655Y1485937D01*
X5478780Y1488697D01*
X5464905Y1485937D01*
X5453143Y1478077D01*
X5445283Y1466315D01*
X5442523Y1452440D01*
X5445283Y1438565D01*
X5453143Y1426802D01*
X5464905Y1418943D01*
X5478780Y1416183D01*
X5492655Y1418943D01*
X5504417Y1426802D01*
X5505039Y1427732D01*
X5534660D01*
Y1376680D01*
X5895289D01*
X5901066Y1376680D01*
X5909208Y1370945D01*
X5914233Y1359586D01*
X5915184Y1354806D01*
X5923043Y1343043D01*
X5934806Y1335184D01*
X5948681Y1332424D01*
X5962555Y1335184D01*
X5974318Y1343043D01*
X5982177Y1354806D01*
X5984937Y1368681D01*
X5982177Y1382555D01*
X5974318Y1394318D01*
X5973388Y1394939D01*
Y1506846D01*
X6028331Y1561789D01*
X6033687Y1569805D01*
X6035568Y1579260D01*
Y1630680D01*
X6184849D01*
X6191101Y1630680D01*
X6201725Y1625255D01*
X6201725Y1625254D01*
X6203435Y1618895D01*
X6204772Y1613206D01*
Y1418932D01*
X6206546Y1410012D01*
X6211599Y1402451D01*
X6359186Y1254863D01*
X6364273Y1251464D01*
X6362139Y1238764D01*
X6303120D01*
Y1118364D01*
X6413520D01*
Y1139717D01*
X6458520D01*
Y1105860D01*
X6603920D01*
Y1251260D01*
X6472545D01*
X6471279Y1251992D01*
X6463108Y1263960D01*
X6464577Y1271344D01*
X6461817Y1285219D01*
X6453958Y1296981D01*
X6442195Y1304841D01*
X6428320Y1307601D01*
X6414445Y1304841D01*
X6402683Y1296981D01*
X6401126Y1294652D01*
X6385322D01*
X6317567Y1362407D01*
X6322427Y1374140D01*
X6648200D01*
X6658032Y1367215D01*
Y1339439D01*
X6657103Y1338817D01*
X6649243Y1327055D01*
X6646483Y1313180D01*
X6649243Y1299305D01*
X6657103Y1287543D01*
X6668865Y1279683D01*
X6682740Y1276923D01*
X6696148Y1279590D01*
X6696671Y1279650D01*
X6708848Y1272583D01*
Y1251260D01*
X6668520D01*
Y1105860D01*
X6813920D01*
Y1214451D01*
X6826620Y1215702D01*
X6827191Y1212834D01*
X6835611Y1200232D01*
X6920992Y1114851D01*
X6933594Y1106430D01*
X6948461Y1103473D01*
X7465760D01*
Y1092119D01*
X7551160D01*
Y1192520D01*
X7465760D01*
Y1181166D01*
X6964551D01*
X6901927Y1243791D01*
Y1551940D01*
X6898969Y1566806D01*
X6890549Y1579409D01*
X6877946Y1587829D01*
X6863080Y1590787D01*
X6848214Y1587829D01*
X6835611Y1579409D01*
X6827191Y1566806D01*
X6824233Y1551940D01*
Y1526186D01*
X6812233Y1519074D01*
X6811533Y1519123D01*
X6798243Y1521767D01*
X6789806Y1520088D01*
X6789380Y1520280D01*
X6779832Y1530087D01*
X6780708Y1534492D01*
Y1628140D01*
X6940200D01*
Y1780540D01*
X6571800D01*
Y1729048D01*
X6297653D01*
X6210910Y1815791D01*
X6202894Y1821147D01*
X6193439Y1823028D01*
X5859334D01*
X5835708Y1846654D01*
Y1947581D01*
X5848998Y1956461D01*
X5860647Y1973895D01*
X5864738Y1994459D01*
X5860647Y2015024D01*
X5848998Y2032457D01*
X5831564Y2044106D01*
X5811000Y2048197D01*
X5790436Y2044106D01*
X5773002Y2032457D01*
X5761353Y2015024D01*
X5757263Y1994459D01*
X5761353Y1973895D01*
X5773002Y1956461D01*
X5786292Y1947581D01*
Y1836420D01*
X5788173Y1826965D01*
X5793529Y1818949D01*
X5819844Y1792634D01*
X5826659Y1783080D01*
X5826660D01*
X5826660Y1783079D01*
Y1731588D01*
X5740702D01*
X5708660Y1763629D01*
Y1949061D01*
X5721950Y1957941D01*
X5733599Y1975375D01*
X5737690Y1995940D01*
X5733599Y2016504D01*
X5721950Y2033938D01*
X5704517Y2045587D01*
X5683952Y2049677D01*
D02*
G37*
G36*
X1691160Y1179068D02*
X1605760D01*
Y1078668D01*
X1691160D01*
Y1179068D01*
D02*
G37*
G36*
X7737700Y2585200D02*
X7592300D01*
Y2544872D01*
X7550200D01*
Y2567700D01*
X7429800D01*
Y2457300D01*
X7550200D01*
Y2480128D01*
X7592300D01*
Y2439800D01*
X7737700D01*
Y2585200D01*
D02*
G37*
G36*
X7885200Y2435200D02*
X7799800D01*
Y2334800D01*
X7885200D01*
Y2435200D01*
D02*
G37*
G36*
X10666120Y2036722D02*
X10580720D01*
Y1947322D01*
X10666120D01*
Y2036722D01*
D02*
G37*
G36*
X10666700Y1927822D02*
X10581300D01*
Y1838422D01*
X10666700D01*
Y1927822D01*
D02*
G37*
G36*
X6413000Y3033457D02*
X6399125Y3030697D01*
X6387363Y3022837D01*
X6379503Y3011075D01*
X6376743Y2997200D01*
X6379503Y2983325D01*
X6387363Y2971563D01*
X6399125Y2963703D01*
X6413000Y2960943D01*
X6426875Y2963703D01*
X6438638Y2971563D01*
X6446497Y2983325D01*
X6449257Y2997200D01*
X6446497Y3011075D01*
X6438638Y3022837D01*
X6426875Y3030697D01*
X6413000Y3033457D01*
D02*
G37*
G36*
X9632607Y2149816D02*
X9618732Y2147056D01*
X9606969Y2139197D01*
X9599110Y2127434D01*
X9596350Y2113559D01*
X9599110Y2099685D01*
X9606969Y2087922D01*
X9618732Y2080063D01*
X9632607Y2077303D01*
X9646481Y2080063D01*
X9658244Y2087922D01*
X9666103Y2099685D01*
X9668863Y2113559D01*
X9666103Y2127434D01*
X9658244Y2139197D01*
X9646481Y2147056D01*
X9632607Y2149816D01*
D02*
G37*
G36*
X9824720Y2148757D02*
X9810845Y2145997D01*
X9799083Y2138137D01*
X9791223Y2126375D01*
X9788463Y2112500D01*
X9791223Y2098625D01*
X9799083Y2086862D01*
X9810845Y2079003D01*
X9824720Y2076243D01*
X9838595Y2079003D01*
X9850357Y2086862D01*
X9858217Y2098625D01*
X9860977Y2112500D01*
X9858217Y2126375D01*
X9850357Y2138137D01*
X9838595Y2145997D01*
X9824720Y2148757D01*
D02*
G37*
G36*
X13067700Y2416064D02*
X12992300D01*
Y2325664D01*
X13067700D01*
Y2416064D01*
D02*
G37*
G36*
X10507180Y1579034D02*
X10381780D01*
Y1463634D01*
X10507180D01*
Y1495436D01*
X10535143D01*
X10545175Y1485403D01*
X10539503Y1476915D01*
X10536743Y1463040D01*
X10539503Y1449165D01*
X10547363Y1437403D01*
X10559125Y1429543D01*
X10573000Y1426783D01*
X10586875Y1429543D01*
X10598638Y1437403D01*
X10606497Y1449165D01*
X10609257Y1463040D01*
X10606497Y1476915D01*
X10598898Y1488288D01*
Y1494203D01*
X10596926Y1504114D01*
X10591313Y1512516D01*
X10564182Y1539646D01*
X10555780Y1545260D01*
X10545870Y1547231D01*
X10507180D01*
Y1579034D01*
D02*
G37*
G36*
X10056860Y1581301D02*
X9931460D01*
Y1465901D01*
X9948818D01*
X9957548Y1453201D01*
X9956103Y1445941D01*
X9958863Y1432066D01*
X9966723Y1420303D01*
X9978485Y1412444D01*
X9992360Y1409684D01*
X10006235Y1412444D01*
X10017997Y1420303D01*
X10025857Y1432066D01*
X10028617Y1445941D01*
X10027172Y1453201D01*
X10035902Y1465901D01*
X10056860D01*
Y1581301D01*
D02*
G37*
G36*
X11552700Y1428190D02*
Y1407160D01*
X11573730D01*
X11573497Y1408335D01*
X11565638Y1420097D01*
X11553875Y1427957D01*
X11552700Y1428190D01*
D02*
G37*
G36*
X11527300D02*
X11526125Y1427957D01*
X11514363Y1420097D01*
X11506503Y1408335D01*
X11506270Y1407160D01*
X11527300D01*
Y1428190D01*
D02*
G37*
G36*
X11573730Y1381760D02*
X11552700D01*
Y1360730D01*
X11553875Y1360963D01*
X11565638Y1368823D01*
X11573497Y1380585D01*
X11573730Y1381760D01*
D02*
G37*
G36*
X11527300D02*
X11506270D01*
X11506503Y1380585D01*
X11514363Y1368823D01*
X11526125Y1360963D01*
X11527300Y1360730D01*
Y1381760D01*
D02*
G37*
G36*
X12893201Y1273660D02*
Y1241660D01*
X12923199D01*
Y1273660D01*
X12893201D01*
D02*
G37*
G36*
X11109652Y1261230D02*
Y1240200D01*
X11130682D01*
X11130449Y1241375D01*
X11122589Y1253137D01*
X11110827Y1260997D01*
X11109652Y1261230D01*
D02*
G37*
G36*
X11084252D02*
X11083077Y1260997D01*
X11071314Y1253137D01*
X11063455Y1241375D01*
X11063221Y1240200D01*
X11084252D01*
Y1261230D01*
D02*
G37*
G36*
X11130682Y1214800D02*
X11109652D01*
Y1193770D01*
X11110827Y1194003D01*
X11122589Y1201862D01*
X11130449Y1213625D01*
X11130682Y1214800D01*
D02*
G37*
G36*
X11084252D02*
X11063221D01*
X11063455Y1213625D01*
X11071314Y1201862D01*
X11083077Y1194003D01*
X11084252Y1193770D01*
Y1214800D01*
D02*
G37*
G36*
X12923199Y1216260D02*
X12893201D01*
Y1184260D01*
X12923199D01*
Y1216260D01*
D02*
G37*
G36*
X11597700Y1225104D02*
X11552700D01*
Y1175105D01*
X11597700D01*
Y1225104D01*
D02*
G37*
G36*
X11527300D02*
X11482300D01*
Y1175105D01*
X11527300D01*
Y1225104D01*
D02*
G37*
G36*
X12226311Y1544800D02*
X12158850D01*
X12159083Y1543626D01*
X12161571Y1539903D01*
X12166105Y1530040D01*
X12161571Y1520178D01*
X12159083Y1516455D01*
X12158850Y1515280D01*
X12226311D01*
X12226077Y1516455D01*
X12223589Y1520178D01*
X12219056Y1530040D01*
X12223589Y1539903D01*
X12226077Y1543626D01*
X12226311Y1544800D01*
D02*
G37*
G36*
Y1489880D02*
X12205280D01*
Y1468850D01*
X12206455Y1469083D01*
X12218218Y1476943D01*
X12226077Y1488705D01*
X12226311Y1489880D01*
D02*
G37*
G36*
X12179880D02*
X12158850D01*
X12159083Y1488705D01*
X12166943Y1476943D01*
X12178705Y1469083D01*
X12179880Y1468850D01*
Y1489880D01*
D02*
G37*
%LPD*%
D10*
X4084000Y2809565D02*
D03*
Y2679565D02*
D03*
X3937000Y2527080D02*
D03*
Y2397080D02*
D03*
X2144000Y1112500D02*
D03*
Y1242500D02*
D03*
X11045000Y1602500D02*
D03*
Y1472500D02*
D03*
X7490000Y2512500D02*
D03*
Y2382500D02*
D03*
X1509900Y1251360D02*
D03*
Y1121360D02*
D03*
X4297680Y1390880D02*
D03*
Y1260880D02*
D03*
X12095140Y1798934D02*
D03*
Y1928934D02*
D03*
X14513741Y1192500D02*
D03*
Y1322500D02*
D03*
X14673740Y1192500D02*
D03*
Y1322500D02*
D03*
X10142500Y1806782D02*
D03*
Y1936782D02*
D03*
X10297500Y1806782D02*
D03*
Y1936782D02*
D03*
D11*
X1720080Y1959077D02*
D03*
Y2009078D02*
D03*
Y1859077D02*
D03*
Y1909077D02*
D03*
Y2109077D02*
D03*
Y2059077D02*
D03*
Y1809077D02*
D03*
Y1759078D02*
D03*
D12*
X5176520Y2276760D02*
D03*
Y2391760D02*
D03*
X5389880Y1591680D02*
D03*
Y1706680D02*
D03*
X7842500Y2385000D02*
D03*
Y2500000D02*
D03*
X3327400Y2130000D02*
D03*
Y2015000D02*
D03*
X2352040Y1448061D02*
D03*
Y1563061D02*
D03*
X1648460Y1128868D02*
D03*
Y1243868D02*
D03*
X2807500Y1467200D02*
D03*
Y1352200D02*
D03*
X2687320Y1467200D02*
D03*
Y1352200D02*
D03*
X3395980Y2513680D02*
D03*
Y2398680D02*
D03*
X4224020Y2566865D02*
D03*
Y2681865D02*
D03*
X3165540Y2357120D02*
D03*
Y2242120D02*
D03*
X4610000Y3045000D02*
D03*
Y2930000D02*
D03*
X4497500Y3045000D02*
D03*
Y2930000D02*
D03*
X4335780Y2356200D02*
D03*
Y2241200D02*
D03*
X7508460Y1257320D02*
D03*
Y1142320D02*
D03*
X7622760Y1257288D02*
D03*
Y1142288D02*
D03*
X4767780Y1328826D02*
D03*
Y1213826D02*
D03*
X11370000Y1092500D02*
D03*
Y1207500D02*
D03*
D13*
X5485360Y3068737D02*
D03*
X5355360D02*
D03*
X6228320Y1178564D02*
D03*
X6358320D02*
D03*
X8147200Y2697480D02*
D03*
X8277200D02*
D03*
X1865860Y2603829D02*
D03*
X1735860D02*
D03*
X3359380Y1885000D02*
D03*
X3229380D02*
D03*
D14*
X1720080Y2250077D02*
D03*
Y2170077D02*
D03*
Y1698077D02*
D03*
Y1618078D02*
D03*
D15*
X2057640Y2126460D02*
D03*
X2087640Y2092460D02*
D03*
Y2160460D02*
D03*
D16*
X5358460Y2895600D02*
D03*
X5558460D02*
D03*
D17*
X5295360Y2726500D02*
D03*
Y2638500D02*
D03*
X5176520Y2726240D02*
D03*
Y2638240D02*
D03*
X2361848Y1715672D02*
D03*
Y1803673D02*
D03*
X2575560Y1357260D02*
D03*
Y1445260D02*
D03*
X2468880Y1557840D02*
D03*
Y1469840D02*
D03*
X2250000Y1926000D02*
D03*
Y2014000D02*
D03*
X2250000Y1831824D02*
D03*
Y1743824D02*
D03*
X1889760Y2181040D02*
D03*
Y2269040D02*
D03*
Y2462080D02*
D03*
Y2374080D02*
D03*
X1877060Y1749440D02*
D03*
Y1661440D02*
D03*
X1877468Y1472380D02*
D03*
Y1560380D02*
D03*
X7782501Y1817156D02*
D03*
Y1905156D02*
D03*
X5295344Y2299103D02*
D03*
Y2387103D02*
D03*
X4632384Y1875040D02*
D03*
Y1963040D02*
D03*
X4525656Y1875040D02*
D03*
Y1963040D02*
D03*
X4954479Y3029732D02*
D03*
Y2941731D02*
D03*
X4840179Y3029732D02*
D03*
Y2941731D02*
D03*
X4725879Y3029732D02*
D03*
Y2941731D02*
D03*
D18*
X6741220Y1178560D02*
D03*
X6531220D02*
D03*
X8068023Y2875680D02*
D03*
X8278023D02*
D03*
X1334900Y2583804D02*
D03*
X1544900D02*
D03*
X10855276Y1610128D02*
D03*
X10645276D02*
D03*
D19*
X2579180Y2578300D02*
D03*
X2714180D02*
D03*
X11540000Y1237804D02*
D03*
X11675000D02*
D03*
X11540000Y1394460D02*
D03*
X11675000D02*
D03*
X11840000Y1126497D02*
D03*
X11975000D02*
D03*
X10287500Y1656859D02*
D03*
X10152500D02*
D03*
X13430000Y3095000D02*
D03*
X13564999D02*
D03*
X11096952Y1227500D02*
D03*
X11231952D02*
D03*
X14526241Y1472500D02*
D03*
X14661240D02*
D03*
D20*
X10915300Y1345448D02*
D03*
X11030300D02*
D03*
X2447220Y2067460D02*
D03*
Y2182500D02*
D03*
X7139020Y1369060D02*
D03*
X7024020D02*
D03*
X7390480Y1323340D02*
D03*
X7275480D02*
D03*
X3094648Y2016760D02*
D03*
X3209648D02*
D03*
X3094640Y2120900D02*
D03*
X3209640D02*
D03*
X2332220Y2182500D02*
D03*
Y2067460D02*
D03*
X3047500Y2940000D02*
D03*
X3162500D02*
D03*
X3047500Y3068000D02*
D03*
X3162500D02*
D03*
X3047500Y2815000D02*
D03*
X3162500D02*
D03*
X4185000Y2940000D02*
D03*
X4070000D02*
D03*
X3275720Y1648900D02*
D03*
X3160720D02*
D03*
X3160680Y1424940D02*
D03*
X3275680D02*
D03*
X5297520Y2135557D02*
D03*
X5182520D02*
D03*
X8073040Y1569280D02*
D03*
X8188040D02*
D03*
X8064120Y1214666D02*
D03*
X8179120D02*
D03*
X7880000D02*
D03*
X7765000D02*
D03*
X7387240Y1423180D02*
D03*
X7502240D02*
D03*
X8178550Y1334192D02*
D03*
X8063550D02*
D03*
X7503000Y1536400D02*
D03*
X7388000D02*
D03*
X10893609Y1227500D02*
D03*
X10778609D02*
D03*
X10780001Y1107500D02*
D03*
X10665001D02*
D03*
X10780000Y1347500D02*
D03*
X10665000D02*
D03*
X10780000Y1467500D02*
D03*
X10665000D02*
D03*
X11551480Y1102700D02*
D03*
X11666480D02*
D03*
X12372500Y1105000D02*
D03*
X12487500D02*
D03*
X12602500Y1212460D02*
D03*
X12487500D02*
D03*
X11107720Y1093338D02*
D03*
X11222721D02*
D03*
X12122500Y1105000D02*
D03*
X12237500D02*
D03*
X4422500Y1594200D02*
D03*
X4307500D02*
D03*
X12769000Y1346460D02*
D03*
X12654000D02*
D03*
X12768499Y1468820D02*
D03*
X12653499D02*
D03*
X4923140Y1313500D02*
D03*
X5038140D02*
D03*
X4307500Y1704200D02*
D03*
X4422500D02*
D03*
D21*
X11698655Y2631440D02*
D03*
X12578659D02*
D03*
D22*
X13411000Y2370864D02*
D03*
X13284000D02*
D03*
X13157001D02*
D03*
X13030000D02*
D03*
X11242500Y2370000D02*
D03*
X11115500D02*
D03*
X10988500D02*
D03*
X10861500D02*
D03*
D23*
X13030000Y1815864D02*
D03*
X13157001D02*
D03*
X13284000D02*
D03*
X13411000D02*
D03*
X10861500Y1815000D02*
D03*
X10988500D02*
D03*
X11115500D02*
D03*
X11242500D02*
D03*
D24*
X13220500Y2049364D02*
D03*
X11052000Y2048500D02*
D03*
D25*
X13566000Y2531864D02*
D03*
Y2658864D02*
D03*
Y2785864D02*
D03*
Y2912864D02*
D03*
X10705000Y2913000D02*
D03*
Y2786000D02*
D03*
Y2659000D02*
D03*
Y2532000D02*
D03*
D26*
X13011000Y2912864D02*
D03*
Y2785864D02*
D03*
Y2658864D02*
D03*
Y2531864D02*
D03*
X11260000Y2532000D02*
D03*
Y2659000D02*
D03*
Y2786000D02*
D03*
Y2913000D02*
D03*
D27*
X13244501Y2722364D02*
D03*
X11026500Y2722500D02*
D03*
D28*
X10712000Y1883122D02*
D03*
X10624000D02*
D03*
X4154000Y3067500D02*
D03*
X4066000D02*
D03*
X2893500Y2320500D02*
D03*
X2981500D02*
D03*
X3160580Y1312500D02*
D03*
X3072580D02*
D03*
X8191050Y1687010D02*
D03*
X8103050D02*
D03*
X8089749Y1452440D02*
D03*
X8177749D02*
D03*
X7415780Y1655916D02*
D03*
X7503780D02*
D03*
X12526500Y1477660D02*
D03*
X12438500D02*
D03*
X12896980Y1346460D02*
D03*
X12984979D02*
D03*
X12792500Y1586320D02*
D03*
X12880499D02*
D03*
X10711420Y1992022D02*
D03*
X10623420D02*
D03*
X12896999Y1468820D02*
D03*
X12984999D02*
D03*
X12792500Y1228960D02*
D03*
X12880499D02*
D03*
X4544384Y1665639D02*
D03*
X4632384D02*
D03*
X4544384Y1551339D02*
D03*
X4632384D02*
D03*
D29*
X12340000Y1387500D02*
D03*
Y1427500D02*
D03*
X11935000Y1587500D02*
D03*
Y1547500D02*
D03*
Y1507500D02*
D03*
Y1467500D02*
D03*
Y1427500D02*
D03*
Y1387500D02*
D03*
Y1347500D02*
D03*
Y1307500D02*
D03*
X12340000D02*
D03*
Y1347500D02*
D03*
Y1467500D02*
D03*
Y1507500D02*
D03*
Y1547500D02*
D03*
Y1587500D02*
D03*
D30*
X5811000Y1994459D02*
D03*
X5683952Y1995940D02*
D03*
D31*
X2597980Y1805440D02*
D03*
Y1885440D02*
D03*
D32*
X2855630Y2195440D02*
D03*
X2720330D02*
D03*
D33*
X2787980Y2061440D02*
D03*
D34*
Y1808940D02*
D03*
D35*
X2597980Y1665440D02*
D03*
Y1705440D02*
D03*
Y1745440D02*
D03*
Y1945440D02*
D03*
Y1985440D02*
D03*
Y2025440D02*
D03*
Y2065440D02*
D03*
Y2105440D02*
D03*
Y2145440D02*
D03*
X2977980D02*
D03*
Y2105440D02*
D03*
Y2065440D02*
D03*
Y2025440D02*
D03*
Y1985440D02*
D03*
Y1945440D02*
D03*
Y1905440D02*
D03*
Y1865440D02*
D03*
Y1825440D02*
D03*
Y1785440D02*
D03*
Y1745440D02*
D03*
Y1705440D02*
D03*
Y1665440D02*
D03*
D36*
X2887980Y1615440D02*
D03*
X2847980D02*
D03*
X2807980D02*
D03*
X2767980D02*
D03*
X2727980D02*
D03*
X2687980D02*
D03*
D37*
X2085340Y2696500D02*
D03*
X1831340Y2988500D02*
D03*
D38*
X2857844Y2670500D02*
D03*
X3017844D02*
D03*
X2857844Y2475500D02*
D03*
X3017844D02*
D03*
X8222500Y2302500D02*
D03*
X8382500D02*
D03*
X8223750Y2500000D02*
D03*
X8383750D02*
D03*
X7037702Y1532500D02*
D03*
X7197702D02*
D03*
X7037702Y1720000D02*
D03*
X7197702D02*
D03*
X15026152Y1238636D02*
D03*
X14866151D02*
D03*
X15026152Y1441136D02*
D03*
X14866151D02*
D03*
D39*
X3118760Y1884680D02*
D03*
X1755500Y1318260D02*
D03*
D40*
X3078760Y1867180D02*
D03*
Y1902180D02*
D03*
X1795500Y1335760D02*
D03*
Y1300760D02*
D03*
D41*
X3477260Y2036220D02*
D03*
Y2246220D02*
D03*
X8018667Y2507363D02*
D03*
Y2297362D02*
D03*
X1969000Y1325000D02*
D03*
Y1115000D02*
D03*
X1334900Y1326280D02*
D03*
Y1116280D02*
D03*
X7665000Y2302500D02*
D03*
Y2512500D02*
D03*
D42*
X10907500Y1472500D02*
D03*
X2145000Y1352500D02*
D03*
D43*
X10925000Y1432500D02*
D03*
X10890000D02*
D03*
X2127500Y1392500D02*
D03*
X2162500D02*
D03*
D44*
X14338300Y2954020D02*
D03*
X1447800Y2964180D02*
D03*
X7655560Y2854960D02*
D03*
X9739501Y2376998D02*
D03*
X13807500Y1907500D02*
D03*
D45*
X2595000Y2390000D02*
D03*
D46*
X2697500Y2455000D02*
D03*
Y2390000D02*
D03*
Y2325000D02*
D03*
X2492500D02*
D03*
Y2390000D02*
D03*
Y2455000D02*
D03*
D47*
X3865000Y3068000D02*
D03*
Y2941000D02*
D03*
Y2814000D02*
D03*
Y2687000D02*
D03*
X3370000D02*
D03*
Y2814000D02*
D03*
Y2941000D02*
D03*
Y3068000D02*
D03*
D48*
X3638500Y1447800D02*
D03*
X3346500Y1193800D02*
D03*
X6756000Y1704340D02*
D03*
X6464001Y1450340D02*
D03*
X6010860Y1706880D02*
D03*
X5718860Y1452880D02*
D03*
D49*
X5048980Y2726136D02*
D03*
X4983980D02*
D03*
X4918980D02*
D03*
X4853980D02*
D03*
X4788980D02*
D03*
X4723980D02*
D03*
X4658980D02*
D03*
X4593980D02*
D03*
X4528980D02*
D03*
X4463980D02*
D03*
X5048980Y2136136D02*
D03*
X4983980D02*
D03*
X4918980D02*
D03*
X4853980D02*
D03*
X4788980D02*
D03*
X4723980D02*
D03*
X4658980D02*
D03*
X4593980D02*
D03*
X4528980D02*
D03*
X4463980D02*
D03*
D50*
X9372300Y1649780D02*
D03*
Y1941780D02*
D03*
X9040390Y1652098D02*
D03*
Y1944098D02*
D03*
X8712200Y1652102D02*
D03*
Y1944102D02*
D03*
X6932500Y2250417D02*
D03*
Y1958417D02*
D03*
X6610000Y2250417D02*
D03*
Y1958417D02*
D03*
X6287501Y2250417D02*
D03*
Y1958417D02*
D03*
D51*
X8475001Y2013416D02*
D03*
Y1893416D02*
D03*
X8160001D02*
D03*
X8160001Y2013416D02*
D03*
X7144781Y1952500D02*
D03*
Y2072500D02*
D03*
X7459781D02*
D03*
X7459780Y1952500D02*
D03*
D52*
X8285000Y2100916D02*
D03*
X8220002Y2100916D02*
D03*
X8415000Y1805916D02*
D03*
X8350000D02*
D03*
X8285000D02*
D03*
X8220002D02*
D03*
X7334782Y1865000D02*
D03*
X7399780Y1865000D02*
D03*
X7204782Y2160000D02*
D03*
X7269782D02*
D03*
X7334782D02*
D03*
X7399780D02*
D03*
D53*
X8382500Y2100916D02*
D03*
X7237282Y1865000D02*
D03*
D54*
X8317501Y1953416D02*
D03*
X7302281Y2012500D02*
D03*
D55*
X6342500Y2714240D02*
D03*
D56*
X7232501Y2760916D02*
D03*
X6722501D02*
D03*
D57*
X7926500Y1455000D02*
D03*
Y1495000D02*
D03*
Y1535000D02*
D03*
Y1575000D02*
D03*
Y1615000D02*
D03*
X7638500D02*
D03*
Y1575000D02*
D03*
Y1535000D02*
D03*
Y1495000D02*
D03*
Y1455000D02*
D03*
D58*
X7702500Y1391000D02*
D03*
X7742500D02*
D03*
X7782500D02*
D03*
X7822500D02*
D03*
X7862500D02*
D03*
Y1679000D02*
D03*
X7822500D02*
D03*
X7782500D02*
D03*
X7742500D02*
D03*
X7702500D02*
D03*
D59*
X7782500Y1535000D02*
D03*
D60*
X8904820Y1270000D02*
D03*
X8534820D02*
D03*
D61*
X10565000Y2677500D02*
D03*
Y2542500D02*
D03*
X13123682Y1558100D02*
D03*
Y1693100D02*
D03*
X12251546Y1936176D02*
D03*
Y1801176D02*
D03*
X10444480Y1521334D02*
D03*
Y1656334D02*
D03*
X9994160Y1523601D02*
D03*
Y1658601D02*
D03*
X11930380Y1896300D02*
D03*
Y1761300D02*
D03*
X12468860Y1771840D02*
D03*
Y1636840D02*
D03*
D62*
X11540000Y1581160D02*
D03*
Y1741160D02*
D03*
X13890152Y1604795D02*
D03*
Y1444795D02*
D03*
X13300153Y1443580D02*
D03*
Y1603580D02*
D03*
X13695152Y1444795D02*
D03*
Y1604795D02*
D03*
X13997501Y2337500D02*
D03*
Y2177500D02*
D03*
X13612500Y2337500D02*
D03*
Y2177500D02*
D03*
X13497652Y1443580D02*
D03*
Y1603580D02*
D03*
X13805000Y2338364D02*
D03*
Y2178364D02*
D03*
X9483572Y2798363D02*
D03*
Y2638364D02*
D03*
X9684643Y2798363D02*
D03*
Y2638364D02*
D03*
X9885714Y2798363D02*
D03*
Y2638364D02*
D03*
X10086786Y2798363D02*
D03*
Y2638364D02*
D03*
X9285531Y2801247D02*
D03*
Y2641247D02*
D03*
X10285014Y2797220D02*
D03*
Y2637221D02*
D03*
D63*
X2562711Y3058460D02*
D03*
Y2778460D02*
D03*
X2330662Y3059856D02*
D03*
Y2779856D02*
D03*
D64*
X2604000Y1147500D02*
D03*
X2324000D02*
D03*
X14453740Y1672500D02*
D03*
X14733740D02*
D03*
X10080000Y2129283D02*
D03*
X10360000D02*
D03*
D65*
X5811000Y2402240D02*
D03*
X5684000Y2275240D02*
D03*
Y2402240D02*
D03*
X5811000Y2529240D02*
D03*
X5684000D02*
D03*
X5811000Y2275240D02*
D03*
D66*
X11997500Y1245000D02*
D03*
X12037500D02*
D03*
X12077500D02*
D03*
X12117500D02*
D03*
X12157500D02*
D03*
X12197500D02*
D03*
X12237500D02*
D03*
X12277500D02*
D03*
Y1650000D02*
D03*
X12237500D02*
D03*
X12197500D02*
D03*
X12157500D02*
D03*
X12117500D02*
D03*
X12077500D02*
D03*
X12037500D02*
D03*
X11997500D02*
D03*
D67*
X12137500Y1447500D02*
D03*
D68*
X14348460Y2009998D02*
D03*
Y2614998D02*
D03*
X14859000Y2009990D02*
D03*
Y2614990D02*
D03*
D69*
X9360140Y2313402D02*
D03*
X8755140D02*
D03*
D70*
X4552780Y1413500D02*
D03*
X4647780Y1213500D02*
D03*
X4457780D02*
D03*
D71*
X4760960Y1824180D02*
D03*
Y1774180D02*
D03*
Y1724180D02*
D03*
Y1674180D02*
D03*
Y1624180D02*
D03*
Y1574180D02*
D03*
Y1524180D02*
D03*
X5240960D02*
D03*
Y1574180D02*
D03*
Y1624180D02*
D03*
Y1674180D02*
D03*
Y1724180D02*
D03*
Y1774180D02*
D03*
Y1824180D02*
D03*
D72*
X4850960Y1434180D02*
D03*
X4900960D02*
D03*
X4950960D02*
D03*
X5000960D02*
D03*
X5050960D02*
D03*
X5100960D02*
D03*
X5150960D02*
D03*
Y1914180D02*
D03*
X5100960D02*
D03*
X5050960D02*
D03*
X5000960D02*
D03*
X4950960D02*
D03*
X4900960D02*
D03*
X4850960D02*
D03*
D73*
X5000960Y1674180D02*
D03*
D74*
X10204859Y1589341D02*
Y1608779D01*
X10195560Y1618078D02*
X10204859Y1608779D01*
X10236250Y1609560D02*
X10244767Y1618078D01*
X10236250Y1586489D02*
Y1609560D01*
X10244767Y1618078D02*
X10261201D01*
Y1656859D02*
X10287500D01*
X11909850Y1548172D02*
X11935000D01*
X10297500Y1654319D02*
X10449619D01*
X10152500Y1651859D02*
Y1656859D01*
X9992500Y1654700D02*
X10152119D01*
X11766186Y1567924D02*
X11851941D01*
X11760362Y1562100D02*
X11766186Y1567924D01*
X11752580Y1562100D02*
X11760362D01*
X11851941Y1567924D02*
X11877534Y1542331D01*
X11904009D02*
X11909850Y1548172D01*
X11877534Y1542331D02*
X11904009D01*
X11819141Y1538262D02*
X11833193D01*
X11858786Y1512669D01*
X11799799Y1518920D02*
X11819141Y1538262D01*
X11792018Y1518920D02*
X11799799D01*
X11858786Y1512669D02*
X11904009D01*
X11909178Y1507500D02*
X11935000D01*
X11904009Y1512669D02*
X11909178Y1507500D01*
X10202651Y1569720D02*
X10205542Y1566829D01*
X10236250Y1586489D02*
X10246360Y1576379D01*
Y1569720D02*
Y1576379D01*
X10193020Y1577502D02*
X10204859Y1589341D01*
X10193020Y1569720D02*
Y1577502D01*
X7367500Y2407740D02*
X7392740Y2382500D01*
X7367500Y2407740D02*
Y2512060D01*
X7392740Y2382500D02*
X7490000D01*
X10263481Y1770223D02*
X10297500Y1804242D01*
X10250981Y1695838D02*
X10287500Y1659319D01*
X10244767Y1770223D02*
X10263481D01*
X10234831Y1705774D02*
X10244767Y1695838D01*
X10250981D01*
X10234831Y1744112D02*
Y1760287D01*
X10244767Y1770223D01*
X10234831Y1705774D02*
Y1744112D01*
X10234831Y1744112D02*
X10234831Y1744112D01*
X10205169Y1731826D02*
X10205169Y1731825D01*
Y1705774D02*
Y1731825D01*
X10205169Y1731826D02*
Y1760287D01*
X10195233Y1770223D02*
X10205169Y1760287D01*
X10195233Y1695838D02*
X10205169Y1705774D01*
X10176519Y1770223D02*
X10195233D01*
X10189019Y1695838D02*
X10195233D01*
X10152500Y1659319D02*
X10189019Y1695838D01*
X10142500Y1804242D02*
X10176519Y1770223D01*
X10269983Y2126743D02*
X10360000D01*
X10234831Y2091591D02*
X10269983Y2126743D01*
X10234831Y1976069D02*
Y2091591D01*
X10198100Y1968500D02*
X10205169Y1975569D01*
X10176758Y1968500D02*
X10198100D01*
X10205169Y1975569D02*
Y2091574D01*
X10242400Y1968500D02*
X10263242D01*
X10234831Y1976069D02*
X10242400Y1968500D01*
X10170000Y2126743D02*
X10205169Y2091574D01*
X10263242Y1968500D02*
X10297500Y1934242D01*
X10142500D02*
X10176758Y1968500D01*
X10080000Y2126743D02*
X10170000D01*
D75*
X2727500Y1510500D02*
Y1615440D01*
X2394287Y1647527D02*
X2492260Y1745500D01*
X2269543Y1647527D02*
X2394287D01*
X1648460Y1243868D02*
X1842708D01*
X1864360Y1265520D02*
Y1385140D01*
X1842708Y1243868D02*
X1864360Y1265520D01*
Y1385140D02*
X1889720Y1410500D01*
X2032516D01*
X6375668Y1271344D02*
X6428320D01*
X6228080Y1418932D02*
X6375668Y1271344D01*
X6228080Y1418932D02*
Y1650000D01*
X3289780Y1292280D02*
X3533720D01*
X3212120Y1369940D02*
X3289780Y1292280D01*
X3078300Y1369940D02*
X3212120D01*
X2887980Y1560260D02*
X3078300Y1369940D01*
X2887980Y1560260D02*
Y1615440D01*
X12880499Y1233820D02*
X12938820D01*
X11540000Y1101375D02*
X11551480Y1089895D01*
X2597980Y1945500D02*
X2654500D01*
X2787500Y1812500D01*
X11675000Y1389460D02*
X11780123Y1284337D01*
X11780283D01*
X11675000Y1389460D02*
X11792598D01*
X12340000Y1307500D02*
X12487500D01*
X12579360Y1399360D01*
X12578820Y1351320D02*
X12654000D01*
X12495000Y1267500D02*
X12578820Y1351320D01*
X12277500Y1267500D02*
X12495000D01*
X12579360Y1399360D02*
Y1444000D01*
X12604180Y1468820D01*
X12653499D01*
X12037501Y1245000D02*
X12038140D01*
X12259200Y1175800D02*
X12416700D01*
X12237500Y1197500D02*
X12259200Y1175800D01*
X12237500Y1197500D02*
Y1245000D01*
X10830741Y1158240D02*
X10922000D01*
X12077500Y1180000D02*
Y1245000D01*
X12197500Y1187500D02*
Y1245000D01*
Y1187500D02*
X12237500Y1147500D01*
X11792598Y1389460D02*
X11834558Y1347500D01*
X11935000D01*
X11675000Y1225000D02*
X11845942D01*
X11826240Y1427480D02*
X11929841D01*
X11929930Y1427570D01*
X11880310Y1587516D02*
X11934984D01*
X11854926Y1612900D02*
X11880310Y1587516D01*
X11742420Y1612900D02*
X11854926D01*
X11845942Y1225000D02*
X11928442Y1307500D01*
X11845488Y1427480D02*
X11845578Y1427570D01*
X11675000Y1389460D02*
Y1394460D01*
X11540000Y1741160D02*
X11614160D01*
X11742420Y1612900D01*
X12237500Y1105000D02*
Y1147500D01*
X2492260Y1745500D02*
X2597500D01*
X2371645Y1564991D02*
X2512154Y1705500D01*
X2597500D01*
X2032516Y1410500D02*
X2269543Y1647527D01*
X2687500Y1470500D02*
X2727500Y1510500D01*
X2767500Y1508001D02*
X2805000Y1470500D01*
X2767500Y1508001D02*
Y1615500D01*
X3596640Y1229360D02*
X3761740D01*
X3533720Y1292280D02*
X3596640Y1229360D01*
X11675000Y1394460D02*
X11678920Y1398380D01*
Y1605280D01*
X11598040Y1317500D02*
X11675000Y1394460D01*
X11382500Y1317500D02*
X11598040D01*
X11928442Y1307500D02*
X11935000D01*
X12237500Y1105000D02*
X12372500D01*
X12277500Y1245000D02*
Y1267500D01*
X12984979Y1279980D02*
Y1346460D01*
X8018530Y2507500D02*
X8018667Y2507363D01*
X10780001Y1107500D02*
X10830741Y1158240D01*
X7857500Y1767500D02*
Y1810000D01*
X7822500Y1732500D02*
X7857500Y1767500D01*
X7822500Y1679000D02*
Y1732500D01*
X7399780Y1787824D02*
Y1865000D01*
X11045000Y1472500D02*
X11045000Y1472500D01*
X12653499Y1530938D02*
X12708882Y1586320D01*
X12653499Y1468820D02*
Y1530938D01*
X12708882Y1586320D02*
X12792500D01*
X11231952Y1102570D02*
Y1227500D01*
X11222721Y1093338D02*
X11231952Y1102570D01*
X11666480Y1216480D02*
X11675000Y1225000D01*
X11666480Y1089895D02*
Y1216480D01*
X12938820Y1233820D02*
X12984979Y1279980D01*
X12769000Y1351320D02*
X12899001D01*
X12792500Y1233820D02*
Y1235820D01*
X12718061D02*
X12792500D01*
X12654000Y1299881D02*
X12718061Y1235820D01*
X12654000Y1299881D02*
Y1351320D01*
X12487500Y1105000D02*
Y1215000D01*
X12416700Y1175800D02*
X12487500Y1105000D01*
X12037500Y1245000D02*
X12037500Y1245000D01*
Y1245000D02*
X12037501D01*
X12037500Y1245000D02*
X12037500Y1245000D01*
X12984999Y1468820D02*
Y1542300D01*
X12940981Y1586320D02*
X12984999Y1542300D01*
X12880499Y1586320D02*
X12940981D01*
X12768499Y1468820D02*
X12896999D01*
X12037500Y1245000D02*
X12037501Y1245000D01*
X11370000Y1305000D02*
X11382500Y1317500D01*
X11370000Y1207500D02*
Y1305000D01*
D76*
X2687440Y1615440D02*
X2722880D01*
X2577560Y1505561D02*
X2687440Y1615440D01*
X4140200Y1699260D02*
Y2086857D01*
X4216400Y2163057D01*
Y2382520D01*
X4244340Y2410460D01*
X4777740Y2284257D02*
X5026320D01*
X5175020Y2135557D01*
X5182520D01*
X2007640Y2126460D02*
X2057640D01*
X1720919Y2058239D02*
X1835156D01*
X1720080Y2059077D02*
X1720919Y2058239D01*
X1796300Y1250600D02*
Y1300760D01*
X1581800Y1318260D02*
X1755500D01*
X1514901Y1251360D02*
X1581800Y1318260D01*
X1795500Y1472100D02*
X1795780Y1472380D01*
X1795500Y1340500D02*
Y1472100D01*
X1507400Y1253860D02*
X1509900Y1256360D01*
X1509901Y1251360D02*
X1514901D01*
X1509900Y1251360D02*
X1509901Y1251360D01*
X1779867Y1759078D02*
X1852614Y1831824D01*
X1720080Y1759078D02*
X1779867D01*
X3012440Y1254172D02*
X3072812Y1193800D01*
X2813466Y1453146D02*
X3012440Y1254172D01*
X3016252D01*
X3072580Y1310500D01*
Y1312500D01*
X5558460Y2895600D02*
X5681980D01*
X5392420Y1866900D02*
Y2182221D01*
X5350140Y1824620D02*
X5392420Y1866900D01*
X5241401Y1824620D02*
X5350140D01*
X5357221Y2217420D02*
X5392420Y2182221D01*
X5240960Y1824180D02*
X5241401Y1824620D01*
X5235860Y2217420D02*
X5357221D01*
X5201320Y2251960D02*
X5235860Y2217420D01*
X5193820Y2251960D02*
X5201320D01*
X5176520Y2269260D02*
X5193820Y2251960D01*
X5176520Y2269260D02*
Y2276760D01*
X4463980Y2040820D02*
Y2136136D01*
X4422500Y1999340D02*
X4463980Y2040820D01*
X4422500Y1859280D02*
Y1999340D01*
X5389880Y1706680D02*
Y1714180D01*
X5329880Y1774180D02*
X5389880Y1714180D01*
X5240960Y1774180D02*
X5329880D01*
X5389880Y1584180D02*
Y1591680D01*
X5329880Y1524180D02*
X5389880Y1584180D01*
X5240960Y1524180D02*
X5329880D01*
X3779520Y2019300D02*
Y2418080D01*
X3731260Y1971040D02*
X3779520Y2019300D01*
Y2418080D02*
X3832860Y2471420D01*
X4528980Y2724236D02*
Y2726136D01*
X10573000Y1463040D02*
Y1494203D01*
X10545870Y1521334D02*
X10573000Y1494203D01*
X10444480Y1521334D02*
X10545870D01*
X1889760Y2269040D02*
Y2374080D01*
X7702500Y1923076D02*
X7739980Y1960556D01*
X7702500Y1791157D02*
Y1923076D01*
X7743792Y1960556D02*
X8018667Y2235431D01*
X7739980Y1960556D02*
X7743792D01*
X8018667Y2235431D02*
Y2297362D01*
X7702500Y1791157D02*
X7742500Y1751157D01*
X8105607Y2100916D02*
X8220002D01*
X8072120Y2067429D02*
X8105607Y2100916D01*
X8072120Y1875040D02*
Y2067429D01*
X8040916Y1805916D02*
X8220002D01*
X7914000Y1679000D02*
X8040916Y1805916D01*
X8023137Y1569280D02*
X8073040D01*
X7989077Y1535220D02*
X8023137Y1569280D01*
X8083319Y1685010D02*
X8103050D01*
X7975010Y1576700D02*
X8083319Y1685010D01*
X8103050D02*
Y1687010D01*
X8007500Y1890000D02*
Y2147500D01*
X7927780Y1453720D02*
X8088469D01*
X7926720Y1535220D02*
X7989077D01*
X12197500Y1507500D02*
Y1650000D01*
X12192580Y1502580D02*
X12197500Y1507500D01*
X12137500Y1447500D02*
X12192580Y1502580D01*
X1625080Y2414317D02*
X1669893D01*
X4880960Y1774180D02*
X4890960Y1784180D01*
X2844000Y1865500D02*
X3078760D01*
X2804000Y1825500D02*
X2977500D01*
X5100960Y1554180D02*
X5110960Y1564180D01*
X2787500Y1812500D02*
X2920500Y1945500D01*
X2787500Y1805500D02*
Y1812500D01*
X2787980Y1805440D02*
X2927980Y1665440D01*
X2787500Y1805500D02*
X2841185Y1751815D01*
X2578090Y1354730D02*
X2804970D01*
X7872500Y1214666D02*
X8064120D01*
X7782530Y1325484D02*
X7782560Y1325454D01*
X7782530Y1325484D02*
Y1390970D01*
X7782500Y1391000D02*
X7782530Y1390970D01*
X7823200Y1263966D02*
X7872500Y1214666D01*
X7823200Y1263966D02*
Y1390300D01*
X7822500Y1391000D02*
X7823200Y1390300D01*
X7690860Y1142288D02*
X7708820Y1160248D01*
Y1165987D01*
X7757500Y1214666D01*
X7765000D01*
X7622760Y1142288D02*
X7690860D01*
X8088469Y1453720D02*
X8089749Y1452440D01*
X7926500Y1455000D02*
X7927780Y1453720D01*
X8006080Y1661652D02*
Y1704340D01*
X7959429Y1615000D02*
X8006080Y1661652D01*
X7926500Y1615000D02*
X7959429D01*
X7928200Y1576700D02*
X7975010D01*
X7926500Y1575000D02*
X7928200Y1576700D01*
X7742500Y1344190D02*
Y1391000D01*
X7655629Y1257320D02*
X7742500Y1344190D01*
X8178150Y1334592D02*
X8178550Y1334192D01*
X8178150Y1334592D02*
Y1452040D01*
X8177749Y1452440D02*
X8178150Y1452040D01*
X7862500Y1391000D02*
X7999242D01*
X8056050Y1334192D01*
X8063550D01*
X7508460Y1257320D02*
X7655629D01*
X1654536Y2398961D02*
X1669893Y2414317D01*
X2019300Y1922780D02*
X2246780D01*
X2250000Y1926000D01*
X1852614Y1831824D02*
X2255574D01*
X2927980Y1665440D02*
X2977980D01*
X2787980Y1805440D02*
Y1808940D01*
X2912180Y1997640D02*
X2924380Y1985440D01*
X2794505Y2024495D02*
X2821360Y1997640D01*
X2724180D02*
X2787980Y2061440D01*
X2653960Y1985440D02*
X2666160Y1997640D01*
X2724180D01*
X2924380Y1985440D02*
X2977980D01*
X2597980D02*
X2653960D01*
X2920500Y1945500D02*
X2977500D01*
X2787980Y2031020D02*
X2794505Y2024495D01*
X2821360Y1997640D02*
X2912180D01*
X4593980Y2136136D02*
Y2220070D01*
X4590230Y2139886D02*
X4593980Y2136136D01*
X4572850Y2241200D02*
X4593980Y2220070D01*
X4335780Y2241200D02*
X4572850D01*
X12053860Y1710400D02*
X12077500Y1686760D01*
X12038673Y1710400D02*
X12053860D01*
X12077500Y1658125D02*
Y1686760D01*
X12020140Y1728934D02*
X12038673Y1710400D01*
X2379550Y1955800D02*
X2492862D01*
X2559802Y2022740D01*
X2580680D01*
X2363226Y1996000D02*
X2479181D01*
X2545920Y2062740D01*
X2595280D01*
X2597980Y2065440D01*
X12020140Y1728934D02*
Y1864840D01*
X5100080Y1915060D02*
Y2024620D01*
Y1915060D02*
X5100960Y1914180D01*
X5110960Y1564180D02*
X5150960Y1524180D01*
Y1434180D02*
Y1524180D01*
X5100960Y1434180D02*
Y1554180D01*
X5000960Y1674180D02*
X5110960Y1564180D01*
X5150960Y1524180D02*
X5240960D01*
X4890960Y1784180D02*
X4950960Y1724180D01*
X5000960Y1674180D01*
X4760960Y1724180D02*
X4950960D01*
X4760960Y1774180D02*
X4880960D01*
X4850960Y1824180D02*
X4890960Y1784180D01*
X4760960Y1824180D02*
X4850960D01*
X2250000Y1926000D02*
X2293226D01*
X2363226Y1996000D01*
X3067053Y1312500D02*
X3072580D01*
X2807500Y1572053D02*
X3067053Y1312500D01*
X10781250Y1433750D02*
X10782500Y1432500D01*
X10781250Y1433750D02*
Y1466250D01*
X10780000Y1467500D02*
X10781250Y1466250D01*
X12476552Y1535352D02*
X12607212D01*
X12727940Y1656080D01*
X12438500Y1497300D02*
X12476552Y1535352D01*
X12438500Y1467500D02*
Y1497300D01*
X10782500Y1432500D02*
X10890000D01*
X7548880Y1729740D02*
X7638500Y1640120D01*
X7385260Y1729740D02*
X7548880D01*
X7334782Y1780218D02*
X7385260Y1729740D01*
X7600860Y1391000D02*
X7702500D01*
X7568680Y1423180D02*
X7600860Y1391000D01*
X7502240Y1423180D02*
X7568680D01*
X2807500Y1453146D02*
X2813466D01*
X3072812Y1193800D02*
X3346500D01*
X2255574Y1831824D02*
X2379550Y1955800D01*
X2278731Y1564991D02*
X2371645D01*
X2096080Y1392500D02*
X2123572D01*
X2804970Y1354730D02*
X2807500Y1352200D01*
X2575560Y1357260D02*
X2578090Y1354730D01*
X2807500Y1572053D02*
Y1615500D01*
Y1453146D02*
Y1472280D01*
X4188460Y1480820D02*
Y1922700D01*
X4224020Y1958260D01*
X4137660Y1430020D02*
X4188460Y1480820D01*
X5839460Y2615700D02*
Y2686940D01*
X5767960Y2758440D02*
X5839460Y2686940D01*
X5664200Y2758440D02*
X5767960D01*
X5811000Y2529240D02*
Y2587240D01*
X5839460Y2615700D01*
X5402521Y2494280D02*
X5591960D01*
X5295340Y2387100D02*
X5402521Y2494280D01*
X2162500Y1448760D02*
X2278731Y1564991D01*
X9992360Y1445941D02*
Y1521801D01*
X9994160Y1523601D01*
X12388761Y1771840D02*
X12468860D01*
X12369800Y1752879D02*
X12388761Y1771840D01*
X12369800Y1719580D02*
Y1752879D01*
X12343472Y1693252D02*
X12369800Y1719580D01*
X12299389Y1693252D02*
X12343472D01*
X11988680Y1896300D02*
X12020140Y1864840D01*
X12279178Y1673042D02*
X12299389Y1693252D01*
X11930380Y1896300D02*
X11988680D01*
X13030000Y1714300D02*
Y1815864D01*
X12971780Y1656080D02*
X13030000Y1714300D01*
X12727940Y1656080D02*
X12971780D01*
X2577560Y1445260D02*
Y1505561D01*
X3314700Y1991360D02*
Y2015882D01*
X3281757Y1958417D02*
X3314700Y1991360D01*
X3093636Y1958417D02*
X3281757D01*
X3456940Y2034227D02*
X3477272Y2013895D01*
Y1935492D02*
Y2013895D01*
X3426780Y1885000D02*
X3477272Y1935492D01*
X3026600Y2065440D02*
X3082060Y2120900D01*
X2977980Y2065440D02*
X3026600D01*
X3080888Y2025440D02*
X3089568Y2016760D01*
X2977980Y2025440D02*
X3080888D01*
X3082060Y2120900D02*
X3089560D01*
X3078760Y1943542D02*
X3093636Y1958417D01*
X7742500Y1679000D02*
Y1751157D01*
X7782501Y1679001D02*
Y1817156D01*
X7782501Y1817156D01*
X7782500Y1679000D02*
X7782501Y1679001D01*
X7415780Y1608420D02*
Y1655916D01*
X7388000Y1580640D02*
X7415780Y1608420D01*
X7388000Y1536400D02*
Y1580640D01*
X7638500Y1615000D02*
Y1640120D01*
X7509768Y1638649D02*
Y1655900D01*
X7503000Y1535000D02*
X7638500D01*
X7658040Y1679000D02*
X7702500D01*
X7564120Y1772920D02*
X7658040Y1679000D01*
X7564120Y1772920D02*
Y2118380D01*
X7334782Y1780218D02*
Y1865000D01*
X2162500Y1392500D02*
Y1448760D01*
X3327400Y2130000D02*
Y2254638D01*
X3359380Y1885000D02*
X3426780D01*
X3078760Y1905500D02*
Y1943542D01*
X2977500Y1905500D02*
X3078760D01*
X10890000Y1366948D02*
Y1432500D01*
Y1366948D02*
X10911500Y1345448D01*
X10917526D01*
X7522500Y2160000D02*
X7564120Y2118380D01*
X12400500Y1507500D02*
X12438500Y1469500D01*
X12340000Y1507500D02*
X12400500D01*
X2575560Y1445260D02*
X2577560D01*
X3238500Y1193800D02*
X3346500D01*
X5811000Y2402240D02*
Y2404287D01*
X5853906Y2447193D02*
Y2449240D01*
X5811000Y2404287D02*
X5853906Y2447193D01*
X2138680Y2016760D02*
X2140060Y2015380D01*
X2248620D02*
X2250000Y2014000D01*
X2072640Y1369060D02*
X2096080Y1392500D01*
X4658980Y2273920D02*
X4772160Y2387100D01*
X5295340D01*
X4658980Y2136136D02*
Y2273920D01*
X5591960Y2494280D02*
X5683952Y2402288D01*
X5684000D01*
X4983980Y2025499D02*
Y2136136D01*
X4950960Y1992480D02*
X4983980Y2025499D01*
X4950960Y1914180D02*
Y1992480D01*
X4900080Y1302440D02*
Y1433300D01*
X4900960Y1434180D01*
X1507400Y1253860D02*
X1509900Y1251360D01*
X2144000Y1242500D02*
X2145000Y1243499D01*
Y1346200D01*
X8035000Y2175000D02*
X8262500D01*
X8007500Y2147500D02*
X8035000Y2175000D01*
X8285000Y2100916D02*
Y2152500D01*
X8262500Y2175000D02*
X8285000Y2152500D01*
X7862500Y1679000D02*
X7914000D01*
X8072820Y1569060D02*
X8073040Y1569280D01*
X7926500Y1535000D02*
X7926720Y1535220D01*
X8186344Y1578369D02*
X8186573Y1578140D01*
X8186344Y1578369D02*
Y1680411D01*
X8186116Y1680640D02*
X8186344Y1680411D01*
X7399780Y2160000D02*
X7522500D01*
X7509768Y1638649D02*
X7573416Y1575000D01*
X10907500Y1472500D02*
X11045000D01*
X2141500Y1115000D02*
X2144000Y1112500D01*
X1509900Y1121360D02*
X1509900Y1121360D01*
X3359380Y1885000D02*
X3359380Y1885000D01*
X4069500Y2940500D02*
X4070000Y2940000D01*
X3865500Y2940500D02*
X4069500D01*
X3865000Y2941000D02*
X3865500Y2940500D01*
X3369500Y2814500D02*
X3370000Y2814000D01*
X3163000Y2814500D02*
X3369500D01*
X3162500Y2815000D02*
X3163000Y2814500D01*
X3369500Y2940500D02*
X3370000Y2941000D01*
X3163000Y2940500D02*
X3369500D01*
X3162500Y2940000D02*
X3163000Y2940500D01*
X3162500Y3068000D02*
X3370000D01*
X7573416Y1575000D02*
X7638500D01*
X11222721Y1093338D02*
X11223140Y1092919D01*
X11369581D01*
X11970000Y1105000D02*
X11996860Y1131860D01*
Y1244360D01*
X12487500Y1105000D02*
X12487500D01*
X11996860Y1244360D02*
X11997500Y1245000D01*
X5050960Y1914180D02*
Y1989140D01*
X4917140Y2029780D02*
X4918060Y2030700D01*
Y2135216D01*
X4918980Y2136136D01*
X4463980Y2724236D02*
Y2726136D01*
D77*
X3567160Y2679700D02*
X3685540D01*
X4079565Y2814000D02*
X4084000Y2809565D01*
X3865000Y2814000D02*
X4079565D01*
X4221720Y2679565D02*
X4224020Y2681865D01*
X4084000Y2679565D02*
X4221720D01*
X3865000Y2594080D02*
X3932000Y2527080D01*
X3937000D01*
X3865000Y2594080D02*
Y2687000D01*
X3468020Y2398680D02*
X3502530Y2364170D01*
X3111028Y1813372D02*
X3159100Y1765300D01*
X3037839Y1813372D02*
X3111028D01*
X3159100Y1662000D02*
Y1765300D01*
X3153360Y1656260D02*
X3159100Y1662000D01*
X3009907Y1785440D02*
X3037839Y1813372D01*
X3153360Y1656260D02*
X3160720Y1648900D01*
X3160680Y1424940D02*
X3160720Y1424980D01*
Y1648900D01*
X3914140Y1244600D02*
Y2024380D01*
X3980180Y1259780D02*
Y1935480D01*
X3583940Y1859280D02*
Y2484700D01*
X3444240Y1719580D02*
X3583940Y1859280D01*
X3444240Y1689100D02*
Y1719580D01*
X3408680Y1653540D02*
X3444240Y1689100D01*
X3583940Y2484700D02*
X3680460Y2581220D01*
X2977980Y1785440D02*
X3009907D01*
X6525260Y1594300D02*
Y1649780D01*
X6464001Y1533040D02*
X6525260Y1594300D01*
X6464001Y1450340D02*
Y1533040D01*
X2977980Y1705440D02*
X3094177D01*
X3045501Y1745440D02*
X3065361Y1765300D01*
X3094177Y1705440D02*
X3095718Y1703899D01*
X2977980Y1745440D02*
X3045501D01*
X3095718Y1703899D02*
X3095719D01*
X3163000Y2194978D02*
Y2249620D01*
X12157500Y1164438D02*
Y1245000D01*
X3914140Y1244600D02*
X4041140Y1117600D01*
X3980180Y1259780D02*
X4124960Y1115000D01*
X3872424Y1207576D02*
X3919220Y1160780D01*
X3209648Y2016760D02*
X3212068D01*
X3210850Y2120900D02*
X3212060D01*
X3032907Y2166081D02*
X3043946Y2177120D01*
X3032907Y2129247D02*
Y2166081D01*
X3009907Y2105440D02*
X3032213Y2127746D01*
Y2128553D01*
X3032907Y2129247D01*
X3145142Y2177120D02*
X3163000Y2194978D01*
X6682740Y1461231D02*
X6756000Y1534492D01*
X6682740Y1313180D02*
Y1461231D01*
X5718420Y1452440D02*
X5718860Y1452880D01*
X5478780Y1452440D02*
X5718420D01*
X3455240Y1333500D02*
X3629660D01*
X3408680Y1380060D02*
X3455240Y1333500D01*
X3408680Y1380060D02*
Y1653540D01*
X3629660Y1333500D02*
X3677920Y1285240D01*
X3110006Y2514608D02*
X3190240Y2594842D01*
X3110006Y2302614D02*
Y2514608D01*
Y2302614D02*
X3163000Y2249620D01*
X3190240Y2594842D02*
Y2603829D01*
X4546967Y2583685D02*
Y2589132D01*
X4497500Y2922500D02*
X4593980Y2826020D01*
Y2726136D02*
Y2826020D01*
X4610000Y2922500D02*
Y2930000D01*
Y2922500D02*
X4658980Y2873520D01*
Y2726136D02*
Y2873520D01*
Y2588880D02*
Y2726136D01*
X4594860Y2524760D02*
X4658980Y2588880D01*
X4497500Y2922500D02*
Y2930000D01*
X4593590Y2635755D02*
Y2725746D01*
X4593980Y2726136D01*
X4546967Y2589132D02*
X4593590Y2635755D01*
X4541520Y2583685D02*
X4546967D01*
X6756000Y1534492D02*
Y1704340D01*
X6193439Y1798320D02*
X6287419Y1704340D01*
X6756000D01*
X5849100Y1798320D02*
X6193439D01*
X5811000Y1836420D02*
X5849100Y1798320D01*
X5811000Y1836420D02*
Y1994459D01*
X5948681Y1517081D02*
X6010860Y1579260D01*
X5948681Y1368681D02*
Y1517081D01*
X6010860Y1579260D02*
Y1706880D01*
X5730468D02*
X6010860D01*
X5683952Y1753395D02*
X5730468Y1706880D01*
X5683952Y1753395D02*
Y1995940D01*
X3872424Y1207576D02*
Y1804300D01*
X3842544Y1834180D02*
X3872424Y1804300D01*
X3634740Y1834180D02*
Y2448560D01*
X3713480Y2527300D01*
X3271520Y2274220D02*
X3395980Y2398680D01*
X3271520Y2076212D02*
Y2274220D01*
X3395980Y2398680D02*
X3468020D01*
X3212068Y2016760D02*
X3271520Y2076212D01*
X3489960Y2602500D02*
X3567160Y2679700D01*
X3367040Y2602500D02*
X3489960D01*
X3230527Y2465987D02*
X3367040Y2602500D01*
X3230527Y2139367D02*
Y2465987D01*
X3212060Y2120900D02*
X3230527Y2139367D01*
X3043946Y2177120D02*
X3145142D01*
X2977980Y2105440D02*
X3009907D01*
D78*
X4051300Y2342398D02*
Y2418080D01*
X3853004Y2144101D02*
X4051300Y2342398D01*
X4103565Y2566865D02*
X4224020D01*
X4051300Y2514600D02*
X4103565Y2566865D01*
X4051300Y2418080D02*
Y2514600D01*
X4328160Y2615805D02*
Y2916840D01*
X4279220Y2566865D02*
X4328160Y2615805D01*
X4224020Y2566865D02*
X4279220D01*
X3853004Y1960477D02*
Y2144101D01*
X4242720Y3002280D02*
X4328160Y2916840D01*
X6933658Y2382780D02*
X7011089Y2460211D01*
X6870261Y2382780D02*
X6933658D01*
X7011089Y2460211D02*
X7088325D01*
X6741220Y1178560D02*
Y1428487D01*
X1665860Y2603829D02*
X1735860D01*
X1645835Y2583804D02*
X1665860Y2603829D01*
X1544900Y2583804D02*
X1645835D01*
X6741220Y1428487D02*
X6798243Y1485510D01*
X4091920Y3002280D02*
X4242720D01*
X4067087Y3027113D02*
X4091920Y3002280D01*
X3774440Y1881913D02*
X3853004Y1960477D01*
X3774440Y1691640D02*
Y1881913D01*
X4067087Y3027113D02*
Y3048200D01*
X4074708Y3055820D01*
X4075534D01*
X4066000Y3067500D02*
X4075534Y3055820D01*
X7842500Y2507500D02*
X8018530D01*
X7490000Y2512500D02*
X7665000D01*
X4850960Y1261120D02*
Y1434180D01*
X4803340Y1213500D02*
X4850960Y1261120D01*
X4767780Y1213500D02*
X4803340D01*
X4065750Y3067750D02*
X4066000Y3067500D01*
X3865250Y3067750D02*
X4065750D01*
X3865000Y3068000D02*
X3865250Y3067750D01*
X13564999Y2913864D02*
Y3095000D01*
X4647780Y1213500D02*
X4767780D01*
X10575500Y2532000D02*
X10705000D01*
D79*
X5048980Y2140096D02*
Y2163664D01*
Y2140096D02*
X5050960Y2138116D01*
X5048980Y2136136D02*
X5050960Y2138116D01*
X4345060Y1213500D02*
X4457780D01*
X4297680Y1260880D02*
X4345060Y1213500D01*
X3229060Y1884680D02*
X3229380Y1885000D01*
X3126740Y1884680D02*
X3229060D01*
D80*
X2332220Y2067460D02*
Y2107160D01*
X1843523Y1995709D02*
X1974418Y2126605D01*
X2332220Y2142800D02*
Y2182500D01*
X4289310Y2093820D02*
X4298690Y2084440D01*
X4300682Y1697382D02*
X4307500Y1704200D01*
X4254154Y1697382D02*
X4300682D01*
X4289310Y2093820D02*
Y2119450D01*
X4298690Y1817554D02*
Y2084440D01*
X4285320Y2123440D02*
X4289310Y2119450D01*
X4254154Y1697382D02*
Y1773018D01*
X4298690Y1817554D01*
X2087640Y2160460D02*
X2089648Y2158452D01*
X2326032Y2136612D02*
X2332220Y2142800D01*
X2097316Y2136612D02*
X2326032D01*
X1990723Y2167302D02*
X2035760D01*
X2042602Y2160460D01*
X1974418Y2150997D02*
X1990723Y2167302D01*
X2089648Y2144280D02*
Y2158452D01*
X2042602Y2160460D02*
X2087640D01*
X2089648Y2144280D02*
X2097316Y2136612D01*
X1974418Y2126605D02*
Y2150997D01*
X1768448Y1995709D02*
X1843523D01*
X1755080Y2009078D02*
X1768448Y1995709D01*
X1720080Y2009078D02*
X1755080D01*
X4240710Y2083890D02*
X4266340D01*
X4275426Y2074804D01*
X4236720Y2087880D02*
X4240710Y2083890D01*
X4275426Y1827190D02*
Y2074804D01*
X4230890Y1782654D02*
X4275426Y1827190D01*
X4230890Y1663310D02*
X4300000Y1594200D01*
X4307500D01*
X4230890Y1663310D02*
Y1782654D01*
X2094356Y2113348D02*
X2326032D01*
X2332220Y2107160D01*
X2089648Y2108640D02*
X2094356Y2113348D01*
X2089648Y2094468D02*
Y2108640D01*
X2087640Y2092460D02*
X2089648Y2094468D01*
X2070621Y2096050D02*
X2084050D01*
X2087640Y2092460D01*
X2070349Y2095778D02*
X2070621Y2096050D01*
X2042918Y2095778D02*
X2070349D01*
X1974151Y2093438D02*
X1982903D01*
X2032758Y2085618D02*
X2042918Y2095778D01*
X1853159Y1972446D02*
X1974151Y2093438D01*
X1990723Y2085618D02*
X2032758D01*
X1982903Y2093438D02*
X1990723Y2085618D01*
X1768448Y1972446D02*
X1853159D01*
X1755080Y1959077D02*
X1768448Y1972446D01*
X1720080Y1959077D02*
X1755080D01*
X1637494Y1912449D02*
Y1955706D01*
Y1912449D02*
X1654234Y1895709D01*
X1671711D01*
X1685080Y1909077D01*
X1720080D01*
X1614230Y1902813D02*
X1644598Y1872445D01*
X1671712D01*
X1685080Y1859077D01*
X1720080D01*
X1614230Y1902813D02*
Y1965342D01*
X1685080Y1959077D02*
X1720080D01*
X1671711Y1972446D02*
X1685080Y1959077D01*
X1654234Y1972446D02*
X1671711D01*
X1637494Y1955706D02*
X1654234Y1972446D01*
X1685080Y2009078D02*
X1720080D01*
X1671712Y1995709D02*
X1685080Y2009078D01*
X1644598Y1995709D02*
X1671712D01*
X1614230Y1965342D02*
X1644598Y1995709D01*
X6531216Y1196344D02*
X6531220Y1196340D01*
X4757860Y1621080D02*
X4760960Y1624180D01*
X4704640Y1621080D02*
X4757860D01*
X4701540Y1617980D02*
X4704640Y1621080D01*
X4757310Y1677830D02*
X4760960Y1674180D01*
X4705190Y1677830D02*
X4757310D01*
X4701540Y1681480D02*
X4705190Y1677830D01*
X2471648Y2113808D02*
X2569612D01*
X2465000Y2107160D02*
X2471648Y2113808D01*
X2470728Y2137072D02*
X2569612D01*
X2465000Y2142800D02*
X2470728Y2137072D01*
X2569612D02*
X2577980Y2145440D01*
X2597980D01*
X2577980Y2105440D02*
X2597980D01*
X2569612Y2113808D02*
X2577980Y2105440D01*
X2465000Y2067460D02*
Y2107160D01*
Y2142800D02*
Y2182500D01*
D81*
X1795780Y1472380D02*
X1877468D01*
X1690859D02*
X1795780D01*
X1715000Y1574237D02*
Y1618078D01*
X1625080Y1484317D02*
X1715000Y1574237D01*
X1689100Y2399951D02*
X1781615D01*
X1843744Y2462080D01*
X1889760D01*
X8277200Y2679700D02*
X8277612Y2680112D01*
Y2857488D01*
X8278023Y2857900D01*
X6907080Y3114040D02*
X7600344D01*
X6907080Y2701859D02*
Y3114040D01*
X7665000Y2045260D02*
Y2302500D01*
X1654536Y2398961D02*
X1720080Y2333417D01*
Y2275477D02*
Y2333417D01*
X5355360Y2895600D02*
Y3067484D01*
X2247200Y1257500D02*
Y1373800D01*
Y1257500D02*
X2314800Y1189900D01*
Y1156699D02*
Y1189900D01*
X5355360Y3067484D02*
Y3068000D01*
Y2784950D02*
Y2885732D01*
X5214300Y3068000D02*
X5355360D01*
X5049082Y2726238D02*
X5178958D01*
X5196840Y3050540D02*
X5214300Y3068000D01*
X5296910Y2726500D02*
X5355360Y2784950D01*
X5295360Y2726500D02*
X5296910D01*
X5295230Y2726370D02*
X5295360Y2726500D01*
X5176650Y2726370D02*
X5295230D01*
X5176520Y2726240D02*
X5176650Y2726370D01*
X5178958Y2726238D02*
X5179060Y2726340D01*
X5048980Y2726136D02*
X5049082Y2726238D01*
X6358320Y1178564D02*
X6531216D01*
X6863080Y1227700D02*
Y1551940D01*
Y1227700D02*
X6948461Y1142320D01*
X7508460D01*
X2562711Y2714799D02*
Y2782921D01*
X2247200Y2399288D02*
X2562711Y2714799D01*
X2247200Y2225040D02*
Y2399288D01*
X5684000Y2275240D02*
X5749766Y2209474D01*
X4544384Y1551339D02*
Y1665639D01*
X4530221Y1874693D02*
X4632037D01*
X2314800Y1156699D02*
X2324000Y1147500D01*
X10877500Y1602500D02*
X11045000D01*
X1969000Y1115000D02*
X2141500D01*
X1334900Y1121360D02*
X1509900D01*
D82*
X12419195Y1405577D02*
X12456037D01*
X12429742Y1372602D02*
X12438678Y1363667D01*
X12462074Y1399540D02*
X12496800D01*
X12456037Y1405577D02*
X12462074Y1399540D01*
X12404572Y1420200D02*
X12419195Y1405577D01*
X12416249Y1372602D02*
X12429742D01*
X12394051Y1394800D02*
X12416249Y1372602D01*
X12374276Y1394800D02*
X12394051D01*
X12374276Y1420200D02*
X12404572D01*
X12366976Y1427500D02*
X12374276Y1420200D01*
X12340000Y1427500D02*
X12366976D01*
Y1387500D02*
X12374276Y1394800D01*
X12340000Y1387500D02*
X12366976D01*
X14637001Y1672500D02*
X14733740D01*
X14606441Y1641940D02*
X14637001Y1672500D01*
X14606441Y1527300D02*
Y1641940D01*
X14581039Y1527300D02*
Y1641940D01*
X14526241Y1472500D02*
X14581039Y1527300D01*
X14606441Y1417700D02*
X14661240Y1472500D01*
X14606441Y1389800D02*
Y1417700D01*
Y1389800D02*
X14673740Y1322500D01*
X14526241Y1472500D02*
X14581039Y1417700D01*
Y1389800D02*
Y1417700D01*
X14554890Y1363650D02*
X14581039Y1389800D01*
X14606441Y1527300D02*
X14661240Y1472500D01*
X14550481Y1672500D02*
X14581039Y1641940D01*
X14554890Y1358650D02*
Y1363650D01*
X14518739Y1322500D02*
X14554890Y1358650D01*
X14513741Y1322500D02*
X14518739D01*
X14453740Y1672500D02*
X14550481D01*
D83*
X12526500Y1467500D02*
Y1477660D01*
D84*
X2140060Y2015380D02*
X2248620D01*
D85*
X5524500Y1798934D02*
D03*
Y1993900D02*
D03*
X3190240Y2603829D02*
D03*
X3568700Y1681480D02*
D03*
D86*
X1625080Y2399077D02*
D03*
X1310080D02*
D03*
X1625080Y1469077D02*
D03*
X1310080D02*
D03*
D87*
X2895480Y2061440D02*
D03*
X2680480D02*
D03*
X2787980D02*
D03*
Y1919940D02*
D03*
Y1697940D02*
D03*
X2895480Y1808940D02*
D03*
X2680480D02*
D03*
X2787980D02*
D03*
D88*
X8679180Y3017520D02*
D03*
X15001241Y1668780D02*
D03*
D89*
X5493500Y2656240D02*
D03*
Y2338740D02*
D03*
X6001500D02*
D03*
Y2656240D02*
D03*
D90*
X5747500D02*
D03*
X5849100Y2148240D02*
D03*
X5645900D02*
D03*
D91*
X5166360Y3068320D02*
D03*
X5669264D02*
D03*
D92*
X12027500Y1557500D02*
D03*
X12247500D02*
D03*
X12027500Y1337500D02*
D03*
X12247500D02*
D03*
X12027500Y1447500D02*
D03*
X12137500Y1557500D02*
D03*
Y1337500D02*
D03*
X12245000Y1447500D02*
D03*
D93*
X11752580Y1562100D02*
D03*
X11792018Y1518920D02*
D03*
X10193020Y1569720D02*
D03*
X10246360D02*
D03*
X4084000Y2679565D02*
D03*
X3685540Y2679700D02*
D03*
X4051300Y2418080D02*
D03*
X3502530Y2364170D02*
D03*
X3937000Y2361760D02*
D03*
X5048980Y2163664D02*
D03*
X4528980Y2136136D02*
D03*
X4777740Y2284257D02*
D03*
X2350000Y2185040D02*
D03*
X4285320Y2123440D02*
D03*
X4236720Y2087880D02*
D03*
X2350000Y2067460D02*
D03*
X2007640Y2126460D02*
D03*
X1835156Y2058239D02*
D03*
X1720080Y1698077D02*
D03*
Y2170077D02*
D03*
X5681980Y2895600D02*
D03*
X4422500Y1859280D02*
D03*
X5240960Y1774180D02*
D03*
X7088325Y2460211D02*
D03*
X6870261Y2382780D02*
D03*
X6428320Y1271344D02*
D03*
X6741220Y1178560D02*
D03*
X7364720Y1239916D02*
D03*
X6228080Y1650000D02*
D03*
X7951460Y1292620D02*
D03*
X3159100Y1765300D02*
D03*
X3914140Y2024380D02*
D03*
X3980180Y1935480D02*
D03*
X4528980Y2724236D02*
D03*
X4335780Y2356200D02*
D03*
X10573000Y1463040D02*
D03*
X5297520Y2135557D02*
D03*
X8068023Y2875680D02*
D03*
X6907080Y2701859D02*
D03*
X1890045Y2269325D02*
D03*
X6413000Y2997200D02*
D03*
X7665000Y2045260D02*
D03*
X8072120Y1875040D02*
D03*
X8007500Y1890000D02*
D03*
X6525260Y1649780D02*
D03*
X7367500Y2512060D02*
D03*
X7063740Y2151380D02*
D03*
X13566000Y2912864D02*
D03*
X9283700Y2766060D02*
D03*
X9481820D02*
D03*
X9682480D02*
D03*
X9885680D02*
D03*
X10086340D02*
D03*
X10284460D02*
D03*
X9989293Y2940000D02*
D03*
X10090258D02*
D03*
X9787363D02*
D03*
X9888328D02*
D03*
X9585433D02*
D03*
X9686398D02*
D03*
X9383503D02*
D03*
X9484468D02*
D03*
X9282538D02*
D03*
X8727620Y2417142D02*
D03*
X8785860Y2416817D02*
D03*
X8613320Y2417142D02*
D03*
X8671560Y2416817D02*
D03*
X14835620Y2526680D02*
D03*
Y2586680D02*
D03*
X14900620Y2646680D02*
D03*
Y2586680D02*
D03*
X14835620Y2646680D02*
D03*
X14900620Y2526680D02*
D03*
X14835620Y2706680D02*
D03*
X14900620D02*
D03*
X14382980Y2705100D02*
D03*
X14317979D02*
D03*
X14382980Y2525100D02*
D03*
X14317979Y2645100D02*
D03*
X14317020Y2012688D02*
D03*
X14377020D02*
D03*
X14317020Y2077688D02*
D03*
X14257021D02*
D03*
X14382980Y2585100D02*
D03*
Y2645100D02*
D03*
X14317979Y2585100D02*
D03*
Y2525100D02*
D03*
X14257021Y2012688D02*
D03*
X14377020Y2077688D02*
D03*
X14437019Y2012688D02*
D03*
Y2077688D02*
D03*
X13785001Y2467500D02*
D03*
Y2532500D02*
D03*
X13725000D02*
D03*
X13845000Y2467500D02*
D03*
X13725000D02*
D03*
X13905000D02*
D03*
X13845000Y2532500D02*
D03*
X13905000D02*
D03*
X5485360Y3068737D02*
D03*
X1865860Y2603829D02*
D03*
X1889760Y2374080D02*
D03*
Y2181040D02*
D03*
X1334900Y2583804D02*
D03*
X7782560Y1325454D02*
D03*
X7622760Y1142288D02*
D03*
X8006080Y1704340D02*
D03*
X2019300Y1922780D02*
D03*
X11780283Y1284337D02*
D03*
X4918980Y2726136D02*
D03*
X4853980D02*
D03*
X2842260Y1807500D02*
D03*
X2811780Y2017380D02*
D03*
X2842260Y1698280D02*
D03*
X2761565Y2016760D02*
D03*
X2842260Y1752890D02*
D03*
X2733040Y1699260D02*
D03*
X2895480Y1863550D02*
D03*
X2680480Y2110740D02*
D03*
X2733040Y1808480D02*
D03*
X2895480Y1699720D02*
D03*
X3095719Y1703899D02*
D03*
X2893060Y2110740D02*
D03*
X2680480Y1863550D02*
D03*
X2597980Y1805440D02*
D03*
X2733625Y2061760D02*
D03*
X2787980Y1863550D02*
D03*
X2839915Y2110740D02*
D03*
X2680480Y1699720D02*
D03*
X2733040Y1863090D02*
D03*
X3065361Y1765300D02*
D03*
X2597980Y1885440D02*
D03*
X2703340Y2016760D02*
D03*
X2786770Y2110740D02*
D03*
X2733040Y1753870D02*
D03*
X2787980Y1754330D02*
D03*
X2870642Y2018133D02*
D03*
X2895480Y1754330D02*
D03*
X2733040Y1917700D02*
D03*
X2895480Y1918160D02*
D03*
X2733625Y2110740D02*
D03*
X2680480Y1754330D02*
D03*
X2842260Y1916720D02*
D03*
X2839915Y2061760D02*
D03*
X2680480Y1918160D02*
D03*
X2842260Y1862110D02*
D03*
X2352200Y1348740D02*
D03*
X2468880Y1557840D02*
D03*
X12117500Y1650000D02*
D03*
X5100080Y2024620D02*
D03*
X1831340Y2860520D02*
D03*
Y3119600D02*
D03*
Y2988500D02*
D03*
X2085340Y2827600D02*
D03*
Y2696500D02*
D03*
Y2568520D02*
D03*
X4244340Y2410460D02*
D03*
X11935000Y1467500D02*
D03*
X11826240Y1427480D02*
D03*
X12037500Y1650000D02*
D03*
X12438678Y1363667D02*
D03*
X12340000Y1347500D02*
D03*
X12496800Y1399540D02*
D03*
X12526500Y1477660D02*
D03*
X12038140Y1245000D02*
D03*
X12117500D02*
D03*
X10922000Y1158240D02*
D03*
X12157500Y1164438D02*
D03*
X12077500Y1180000D02*
D03*
X12602500Y1215000D02*
D03*
X11935000Y1386900D02*
D03*
X11540000Y1611160D02*
D03*
X10782500Y1432500D02*
D03*
X12192000Y1338580D02*
D03*
X4041140Y1117600D02*
D03*
X4124960Y1115000D02*
D03*
X3919220Y1160780D02*
D03*
X3209648Y2016760D02*
D03*
X3210850Y2120900D02*
D03*
X2352040Y1448061D02*
D03*
X2468880Y1469840D02*
D03*
X1968500Y1354720D02*
D03*
X3639820Y1424940D02*
D03*
X3686656Y1902460D02*
D03*
X3528060D02*
D03*
X3160580Y1312500D02*
D03*
X3072580D02*
D03*
X4140200Y1699260D02*
D03*
X4224020Y1958260D02*
D03*
X4348480Y2137882D02*
D03*
X4206240Y2034540D02*
D03*
X5664200Y2758440D02*
D03*
X13030000Y2370864D02*
D03*
X5295360Y2638500D02*
D03*
X5176520Y2638240D02*
D03*
X6682740Y1313180D02*
D03*
X6798243Y1485510D02*
D03*
X5478780Y1452440D02*
D03*
X3761739Y1229359D02*
D03*
X4297680Y1390880D02*
D03*
X8689160Y1656985D02*
D03*
X8630920Y1657310D02*
D03*
X7390480Y1323340D02*
D03*
X6228320Y1196344D02*
D03*
X13447209Y2317126D02*
D03*
X3395980Y2513680D02*
D03*
X3408680Y1653540D02*
D03*
X2361848Y1715672D02*
D03*
Y1788160D02*
D03*
X2579180Y2578300D02*
D03*
X2403158Y1907540D02*
D03*
X2484248Y1821180D02*
D03*
X2402004D02*
D03*
X2485390Y1907540D02*
D03*
X2361848Y1869440D02*
D03*
X13497652Y1443580D02*
D03*
X13300153D02*
D03*
X13497652Y1603580D02*
D03*
X13300153D02*
D03*
X9360140Y2405399D02*
D03*
X9263380Y2313402D02*
D03*
X9456420D02*
D03*
X9360140D02*
D03*
X9263542Y2222500D02*
D03*
X9263679Y2404612D02*
D03*
X9360052Y2222500D02*
D03*
X9456420Y2404612D02*
D03*
Y2222500D02*
D03*
X9632607Y2113559D02*
D03*
Y1953559D02*
D03*
X9372300Y1941780D02*
D03*
X8712200Y1944102D02*
D03*
X9040390Y1944098D02*
D03*
X9992360Y1445941D02*
D03*
X13890152Y1604795D02*
D03*
Y1444795D02*
D03*
X13695152Y1604795D02*
D03*
Y1444795D02*
D03*
X11678920Y1605280D02*
D03*
X8785860Y2365032D02*
D03*
X8841920Y2262110D02*
D03*
Y2313895D02*
D03*
X8785860Y2313246D02*
D03*
X8727620Y2313571D02*
D03*
Y2261785D02*
D03*
X8671560Y2209675D02*
D03*
Y2313246D02*
D03*
X9769348Y2425388D02*
D03*
Y2477173D02*
D03*
Y2373602D02*
D03*
X9825408Y2374252D02*
D03*
Y2322466D02*
D03*
X9655048Y2373602D02*
D03*
Y2270031D02*
D03*
X9711108Y2322141D02*
D03*
Y2373927D02*
D03*
X8727620Y2365356D02*
D03*
X8671560Y2365032D02*
D03*
X8841920Y2365681D02*
D03*
X8671560Y2261461D02*
D03*
X8841920Y2210324D02*
D03*
X8727620Y2210000D02*
D03*
X8841920Y2417466D02*
D03*
X8785860Y2261461D02*
D03*
Y2209675D02*
D03*
X9825408Y2270680D02*
D03*
Y2477823D02*
D03*
X9769348Y2321817D02*
D03*
Y2270031D02*
D03*
X9711108Y2270356D02*
D03*
X9655048Y2321817D02*
D03*
X9711108Y2477498D02*
D03*
X9655048Y2477173D02*
D03*
X9825408Y2426037D02*
D03*
X9711108Y2425712D02*
D03*
X9655048Y2425388D02*
D03*
X8745220Y1657310D02*
D03*
X8917760D02*
D03*
X12192580Y1502580D02*
D03*
X12238140Y1650000D02*
D03*
X12192580Y1557500D02*
D03*
X12137500Y1502580D02*
D03*
X12251546Y1936176D02*
D03*
X11096952Y1227500D02*
D03*
X11540000Y1394460D02*
D03*
X11231952Y1227500D02*
D03*
X10663193Y1226820D02*
D03*
X12095140Y1928934D02*
D03*
X12082780Y1337500D02*
D03*
X12026900Y1392340D02*
D03*
X12082539Y1391380D02*
D03*
X12137500Y1392420D02*
D03*
X12082420Y1447500D02*
D03*
X11540000Y1741160D02*
D03*
X13123665Y1705620D02*
D03*
X13123682Y1549613D02*
D03*
X13446227Y2415032D02*
D03*
X11354500Y2369500D02*
D03*
X10705500Y3025000D02*
D03*
X10711420Y1992022D02*
D03*
X10623420D02*
D03*
X10712000Y1883122D02*
D03*
X10624000D02*
D03*
X13083360Y2847340D02*
D03*
Y2593340D02*
D03*
X13083540Y2720340D02*
D03*
X13083360Y2911220D02*
D03*
Y2784220D02*
D03*
Y2657220D02*
D03*
Y2530220D02*
D03*
X13011000Y2912864D02*
D03*
Y2785864D02*
D03*
Y2658864D02*
D03*
Y2531864D02*
D03*
X11191420Y2597236D02*
D03*
Y2851236D02*
D03*
X11191240Y2724236D02*
D03*
X11191420Y2533356D02*
D03*
Y2660356D02*
D03*
Y2787356D02*
D03*
Y2914356D02*
D03*
X10925000Y1885260D02*
D03*
X11179000D02*
D03*
X11052000Y1885440D02*
D03*
X10861120Y1885260D02*
D03*
X10988120D02*
D03*
X11115120D02*
D03*
X11242120D02*
D03*
X13093700Y1884500D02*
D03*
X13347701D02*
D03*
X13220700Y1884680D02*
D03*
X13029820Y1884500D02*
D03*
X13156821D02*
D03*
X13283820D02*
D03*
X13410820D02*
D03*
X13411000Y1815864D02*
D03*
X13284000D02*
D03*
X13157001D02*
D03*
X13030000D02*
D03*
X11242500Y1815000D02*
D03*
X11115500D02*
D03*
X10988500D02*
D03*
X10861500D02*
D03*
X10924999Y2161360D02*
D03*
X11178999D02*
D03*
X11051999Y2161540D02*
D03*
X10861119Y2161360D02*
D03*
X10988119D02*
D03*
X11115119D02*
D03*
X11242119D02*
D03*
X13092999Y2217240D02*
D03*
X13347000D02*
D03*
X13220000Y2217420D02*
D03*
X13029120Y2217240D02*
D03*
X13156120D02*
D03*
X13283121D02*
D03*
X13410120D02*
D03*
X13093500Y2049183D02*
D03*
X13347501D02*
D03*
X13220500Y2049364D02*
D03*
X13029620Y2049183D02*
D03*
X13156619D02*
D03*
X13283620D02*
D03*
X13410620D02*
D03*
X11179000Y2048680D02*
D03*
X10925000D02*
D03*
X11052000Y2048500D02*
D03*
X11242880Y2048680D02*
D03*
X11115880D02*
D03*
X10988880D02*
D03*
X10861880D02*
D03*
X13411380Y2596364D02*
D03*
Y2850364D02*
D03*
X13411200Y2723364D02*
D03*
X13411380Y2532484D02*
D03*
Y2659484D02*
D03*
Y2786484D02*
D03*
Y2913484D02*
D03*
X13244679Y2595364D02*
D03*
Y2849364D02*
D03*
X13244501Y2722364D02*
D03*
X13244679Y2531484D02*
D03*
Y2658484D02*
D03*
Y2785484D02*
D03*
Y2912484D02*
D03*
X11026681Y2595500D02*
D03*
Y2849500D02*
D03*
X11026500Y2722500D02*
D03*
X11026681Y2531620D02*
D03*
Y2658620D02*
D03*
Y2785620D02*
D03*
Y2912620D02*
D03*
X10856140Y2595880D02*
D03*
Y2849880D02*
D03*
X10855960Y2722880D02*
D03*
X10856140Y2532000D02*
D03*
Y2659000D02*
D03*
Y2786000D02*
D03*
Y2913000D02*
D03*
X11260000D02*
D03*
Y2786000D02*
D03*
Y2659000D02*
D03*
Y2532000D02*
D03*
X10705000D02*
D03*
X10861500Y2370000D02*
D03*
X14513741Y1192500D02*
D03*
X14673740Y1192500D02*
D03*
X13347360Y1227500D02*
D03*
X13409000Y1227805D02*
D03*
X13469000D02*
D03*
X13528999D02*
D03*
X13589000D02*
D03*
X13972881Y1228789D02*
D03*
X14032880D02*
D03*
X14092880D02*
D03*
X14152879D02*
D03*
X13347360Y1162500D02*
D03*
X13287360Y1227500D02*
D03*
X13409000Y1162804D02*
D03*
X13469000D02*
D03*
X13528999D02*
D03*
X13589000D02*
D03*
X13972881Y1163789D02*
D03*
X14032880D02*
D03*
X14092880D02*
D03*
X14152879D02*
D03*
X14386560Y1645027D02*
D03*
Y1587500D02*
D03*
Y1702553D02*
D03*
Y1760080D02*
D03*
X1632651Y1694180D02*
D03*
Y1750461D02*
D03*
X4422140Y1525158D02*
D03*
Y1775460D02*
D03*
X4422500Y1704200D02*
D03*
Y1594200D02*
D03*
X4699000Y1617980D02*
D03*
Y1681480D02*
D03*
X2019300Y1986462D02*
D03*
X1877468Y1560380D02*
D03*
X7837356Y1483360D02*
D03*
X6287501Y2250417D02*
D03*
X14803120Y1647527D02*
D03*
Y1590000D02*
D03*
Y1705054D02*
D03*
Y1762580D02*
D03*
X10429240Y2099687D02*
D03*
Y2042160D02*
D03*
Y2157213D02*
D03*
Y2214740D02*
D03*
X10007600Y2212340D02*
D03*
X14866151Y1238636D02*
D03*
Y1441136D02*
D03*
X13997501Y2177500D02*
D03*
X13805000Y2178364D02*
D03*
X13612500Y2177500D02*
D03*
X14994501Y1210000D02*
D03*
Y1270000D02*
D03*
X15059500Y1210000D02*
D03*
Y1270000D02*
D03*
X14993620Y1412280D02*
D03*
Y1472280D02*
D03*
X15058620Y1412280D02*
D03*
Y1472280D02*
D03*
X13564999Y2786864D02*
D03*
Y2659864D02*
D03*
Y2532864D02*
D03*
X13997501Y2337500D02*
D03*
X13805000Y2338364D02*
D03*
X13612500Y2337500D02*
D03*
X13411000Y2370864D02*
D03*
X13284000D02*
D03*
X13157001D02*
D03*
X12082420Y1503680D02*
D03*
X12082500Y1557076D02*
D03*
X12027238Y1503680D02*
D03*
X9285531Y2641247D02*
D03*
X10285014Y2637221D02*
D03*
X12247880Y1391920D02*
D03*
X12193723D02*
D03*
X12247880Y1503680D02*
D03*
X12192580Y1447500D02*
D03*
X10090258Y3013660D02*
D03*
X9989293D02*
D03*
X9888328D02*
D03*
X9787363D02*
D03*
X9686398D02*
D03*
X9585433D02*
D03*
X9484468D02*
D03*
X9383503D02*
D03*
X9282538D02*
D03*
X10090258Y3087436D02*
D03*
X9989293D02*
D03*
X9888328D02*
D03*
X9787363D02*
D03*
X9686398D02*
D03*
X9585433D02*
D03*
X9484468D02*
D03*
X9383503D02*
D03*
X9282538D02*
D03*
X10086786Y2638364D02*
D03*
X9885714D02*
D03*
X9684643D02*
D03*
X9824720Y2112500D02*
D03*
X9483572Y2638364D02*
D03*
X10007600Y2154813D02*
D03*
Y2039760D02*
D03*
Y2097287D02*
D03*
X3842544Y1834180D02*
D03*
X3634740D02*
D03*
X3774440Y1691640D02*
D03*
X2577560Y1505561D02*
D03*
X3477260Y2283125D02*
D03*
X3702578Y2283460D02*
D03*
X2981500Y2320500D02*
D03*
X7037702Y1552820D02*
D03*
Y1720000D02*
D03*
X6932500Y1958417D02*
D03*
X6610000D02*
D03*
X6287501D02*
D03*
X8425180Y1890000D02*
D03*
Y1953415D02*
D03*
Y2019300D02*
D03*
X8209280Y1887220D02*
D03*
X8208010Y2019300D02*
D03*
X8209280Y1953416D02*
D03*
X8317500Y1887220D02*
D03*
X8317501Y2019300D02*
D03*
X8317500Y1953415D02*
D03*
X7197702Y2078500D02*
D03*
X7408280Y2078040D02*
D03*
Y1945440D02*
D03*
X7197702Y1945960D02*
D03*
X7302280D02*
D03*
Y2078040D02*
D03*
X7408280Y2013416D02*
D03*
X7197702D02*
D03*
X7302281Y2012500D02*
D03*
X9824720Y1952500D02*
D03*
X10741660Y2720910D02*
D03*
X10660380D02*
D03*
X10741660Y2849880D02*
D03*
X10746740Y2970814D02*
D03*
X11305000Y2343495D02*
D03*
Y2399670D02*
D03*
X11177500Y2341880D02*
D03*
Y2399670D02*
D03*
X12552020Y2717460D02*
D03*
Y2597460D02*
D03*
Y2537460D02*
D03*
Y2657460D02*
D03*
X12487020D02*
D03*
Y2597460D02*
D03*
Y2717460D02*
D03*
Y2537460D02*
D03*
X11794720Y2717460D02*
D03*
Y2597460D02*
D03*
Y2537460D02*
D03*
Y2657460D02*
D03*
X11729720D02*
D03*
Y2597460D02*
D03*
Y2717460D02*
D03*
Y2537460D02*
D03*
X7842500Y2385000D02*
D03*
X8900160Y2365356D02*
D03*
Y2210000D02*
D03*
Y2417142D02*
D03*
Y2313571D02*
D03*
Y2261785D02*
D03*
X8613320Y2210000D02*
D03*
Y2313571D02*
D03*
Y2365356D02*
D03*
Y2261785D02*
D03*
X7023100Y1371600D02*
D03*
X7275480Y1323340D02*
D03*
X7139940Y1371600D02*
D03*
X8803460Y1501629D02*
D03*
X8689160D02*
D03*
Y1553414D02*
D03*
X8630920Y1501953D02*
D03*
X8917760D02*
D03*
X8745220D02*
D03*
X7926500Y1455000D02*
D03*
X8859520Y1502278D02*
D03*
X7638500Y1455000D02*
D03*
X8177749Y1452440D02*
D03*
X7503000Y1536400D02*
D03*
X1647190Y1130138D02*
D03*
X3327400Y2254638D02*
D03*
X2562711Y3058460D02*
D03*
X2330662Y2779856D02*
D03*
Y3059856D02*
D03*
X2444092Y1869440D02*
D03*
X2526336D02*
D03*
X2444092Y1788160D02*
D03*
X2540211Y1792570D02*
D03*
X1512698Y1694180D02*
D03*
Y1751623D02*
D03*
X1573246D02*
D03*
Y1694180D02*
D03*
X8803460Y1605200D02*
D03*
X8859520Y1605849D02*
D03*
Y1657634D02*
D03*
Y1554063D02*
D03*
X8917760Y1605524D02*
D03*
Y1553739D02*
D03*
X8745220Y1605524D02*
D03*
X8803460Y1656985D02*
D03*
X8745220Y1553739D02*
D03*
X8803460Y1553414D02*
D03*
X8630920Y1605524D02*
D03*
Y1553739D02*
D03*
X8689160Y1605200D02*
D03*
X4632384Y1963040D02*
D03*
X4525656D02*
D03*
X3163000Y2357120D02*
D03*
X2575560Y1357260D02*
D03*
X2604000Y1147500D02*
D03*
X1334900Y1331360D02*
D03*
X7236460Y1488440D02*
D03*
X7160260D02*
D03*
X7236460Y1574800D02*
D03*
X7160260D02*
D03*
X7236460Y1676400D02*
D03*
X7160260D02*
D03*
X7236460Y1762760D02*
D03*
X7160260D02*
D03*
X8346440Y2346035D02*
D03*
X8422640D02*
D03*
X8346440Y2259675D02*
D03*
X8422640D02*
D03*
X3677920Y1285240D02*
D03*
X7782501Y1905156D02*
D03*
X12340000Y1587500D02*
D03*
X12984979Y1346460D02*
D03*
X9596808Y2322141D02*
D03*
Y2477498D02*
D03*
Y2425712D02*
D03*
Y2373927D02*
D03*
Y2270356D02*
D03*
X9883648Y2322141D02*
D03*
Y2373927D02*
D03*
Y2477498D02*
D03*
Y2270356D02*
D03*
Y2425712D02*
D03*
X6863080Y1551940D02*
D03*
X8018667Y2297362D02*
D03*
X3731260Y1971040D02*
D03*
X4594860Y2524760D02*
D03*
X4137660Y1430020D02*
D03*
X3275680Y1424940D02*
D03*
X5948681Y1368681D02*
D03*
X6464001Y1450340D02*
D03*
X5749766Y2209474D02*
D03*
X5853906Y2449240D02*
D03*
X3680460Y2581220D02*
D03*
X3713480Y2527300D02*
D03*
X3832860Y2471420D02*
D03*
X1640540Y2964180D02*
D03*
X1447800Y3095280D02*
D03*
Y2836200D02*
D03*
X1254460D02*
D03*
Y3095280D02*
D03*
Y2964180D02*
D03*
X1877060Y1661440D02*
D03*
X3042920Y2623251D02*
D03*
Y2571466D02*
D03*
X2984680Y2571790D02*
D03*
Y2520005D02*
D03*
X3042920Y2519680D02*
D03*
X2984680Y2623576D02*
D03*
X2138680Y2016760D02*
D03*
X2250000Y1743824D02*
D03*
X1877060Y1749440D02*
D03*
X1640540Y2836200D02*
D03*
Y3095280D02*
D03*
X1447800Y2964180D02*
D03*
X7387240Y1423180D02*
D03*
X7782500Y1535000D02*
D03*
X7729220Y1483360D02*
D03*
X7837356Y1590040D02*
D03*
X7728398D02*
D03*
X4954479Y3029732D02*
D03*
X4840179D02*
D03*
X4725879D02*
D03*
X4185000Y2940000D02*
D03*
X4154000Y3067500D02*
D03*
X3370000Y2687000D02*
D03*
X3047500Y2815000D02*
D03*
Y2940000D02*
D03*
Y3068000D02*
D03*
X2072640Y1369060D02*
D03*
X6596380Y2296099D02*
D03*
X6652440Y2193177D02*
D03*
Y2296748D02*
D03*
Y2348533D02*
D03*
X6710680Y2348209D02*
D03*
Y2192852D02*
D03*
Y2399994D02*
D03*
X6652440Y2400319D02*
D03*
Y2244962D02*
D03*
X6710680Y2296423D02*
D03*
Y2244638D02*
D03*
X6538140Y2192852D02*
D03*
Y2296423D02*
D03*
Y2348209D02*
D03*
X6596380Y2347884D02*
D03*
Y2192527D02*
D03*
Y2399670D02*
D03*
X6538140Y2399994D02*
D03*
Y2244638D02*
D03*
X6596380Y2244313D02*
D03*
X6423840Y2192852D02*
D03*
Y2296423D02*
D03*
Y2348209D02*
D03*
X6482080Y2347884D02*
D03*
Y2192527D02*
D03*
Y2399670D02*
D03*
X6423840Y2399994D02*
D03*
Y2244638D02*
D03*
X6482080Y2296099D02*
D03*
Y2244313D02*
D03*
X2517320Y2441265D02*
D03*
X2575560Y2337369D02*
D03*
X2517320Y2337694D02*
D03*
Y2389479D02*
D03*
X2575560Y2389154D02*
D03*
Y2440940D02*
D03*
X2247200Y2225040D02*
D03*
X1632651Y2174240D02*
D03*
X1573246D02*
D03*
Y2107220D02*
D03*
X1513840D02*
D03*
Y2174240D02*
D03*
X1632651Y2107220D02*
D03*
X14008099Y2001520D02*
D03*
X13943100D02*
D03*
X13677901D02*
D03*
X13612900D02*
D03*
Y1821520D02*
D03*
X13677901D02*
D03*
X13943100D02*
D03*
X14008099D02*
D03*
X4541520Y2583685D02*
D03*
X2885260Y2466818D02*
D03*
Y2518603D02*
D03*
X2827020Y2467142D02*
D03*
X2745740D02*
D03*
Y2518928D02*
D03*
X2687500Y2467467D02*
D03*
X2827020Y2622499D02*
D03*
X2885260Y2622174D02*
D03*
Y2570389D02*
D03*
X2827020Y2570713D02*
D03*
X2687500Y2622823D02*
D03*
X2745740Y2622499D02*
D03*
X4983980Y2726136D02*
D03*
X2827020Y2260000D02*
D03*
Y2311786D02*
D03*
Y2363571D02*
D03*
Y2415357D02*
D03*
Y2518928D02*
D03*
X2885260Y2415032D02*
D03*
Y2363246D02*
D03*
Y2311461D02*
D03*
Y2259675D02*
D03*
X2745740Y2260000D02*
D03*
Y2311786D02*
D03*
Y2363571D02*
D03*
Y2415357D02*
D03*
Y2570713D02*
D03*
X2319760Y1821180D02*
D03*
X2687500Y2571038D02*
D03*
Y2519252D02*
D03*
Y2415681D02*
D03*
Y2363896D02*
D03*
Y2312110D02*
D03*
Y2260325D02*
D03*
X4530221Y1874693D02*
D03*
X2247200Y1373800D02*
D03*
X7857500Y1810000D02*
D03*
X8072820Y1569060D02*
D03*
X7399780Y1787824D02*
D03*
X13604919Y2595000D02*
D03*
Y2472300D02*
D03*
X13532500Y2595000D02*
D03*
Y2472300D02*
D03*
X13604919Y2722500D02*
D03*
X13532500D02*
D03*
X13604919Y2847500D02*
D03*
X13532500Y2850000D02*
D03*
X13347459Y2342600D02*
D03*
Y2416724D02*
D03*
X13220000Y2342600D02*
D03*
Y2415000D02*
D03*
X13093700Y2342600D02*
D03*
X13094960Y2415000D02*
D03*
X11115500Y2370000D02*
D03*
X10988500D02*
D03*
X11052000Y2400319D02*
D03*
X11242500Y2370000D02*
D03*
X11052000Y2342600D02*
D03*
X10705000Y2786000D02*
D03*
Y2913000D02*
D03*
X4767780Y1341526D02*
D03*
X4544384Y1551339D02*
D03*
X12612140Y2537460D02*
D03*
Y2717460D02*
D03*
Y2597460D02*
D03*
Y2657460D02*
D03*
X12677140D02*
D03*
Y2537460D02*
D03*
Y2597460D02*
D03*
Y2717460D02*
D03*
X11600180Y2537460D02*
D03*
Y2717460D02*
D03*
Y2597460D02*
D03*
Y2657460D02*
D03*
X11665180D02*
D03*
Y2537460D02*
D03*
Y2597460D02*
D03*
Y2717460D02*
D03*
X13167360Y1162500D02*
D03*
X13287360D02*
D03*
X13227361D02*
D03*
Y1227500D02*
D03*
X13167360D02*
D03*
X13943100Y1881520D02*
D03*
Y1941520D02*
D03*
X14008099D02*
D03*
Y1881520D02*
D03*
X13612900D02*
D03*
Y1941520D02*
D03*
X13677901D02*
D03*
Y1881520D02*
D03*
X10705000Y2659000D02*
D03*
X10662920Y2970814D02*
D03*
X10660380Y2849880D02*
D03*
X8222500Y2302500D02*
D03*
X11540000Y1237804D02*
D03*
X10778609Y1227500D02*
D03*
X12984999Y1468820D02*
D03*
X10780000Y1347500D02*
D03*
X4632384Y1875040D02*
D03*
X5000960Y1914180D02*
D03*
X5050960Y1989140D02*
D03*
X4853980Y2136136D02*
D03*
X4790140Y2135557D02*
D03*
X4917140Y2029780D02*
D03*
X5295344Y2299103D02*
D03*
X12137500Y1447500D02*
D03*
X4788980Y2726136D02*
D03*
X4463980Y2724236D02*
D03*
X4890960Y1784180D02*
D03*
X5000960D02*
D03*
X5110960D02*
D03*
X4890960Y1674180D02*
D03*
X5000960D02*
D03*
X5110960D02*
D03*
X4890960Y1564180D02*
D03*
X5000960D02*
D03*
X5110960D02*
D03*
D94*
X1195080Y1799077D02*
D03*
Y2069077D02*
D03*
X1560080Y2274077D02*
D03*
Y1594077D02*
D03*
D95*
X2055000Y1695000D02*
D03*
Y2330000D02*
D03*
%TF.MD5,b131dc7e924e32ba9c5a5b5949a31042*%
M02*
