%TF.GenerationSoftware,Altium Limited,Altium Designer,19.0.15 (446)*%
G04 Layer_Physical_Order=6*
G04 Layer_Color=6049555*
%FSLAX45Y45*%
%MOMM*%
%TF.FileFunction,Copper,L6,Bot,Signal*%
%TF.Part,Single*%
G01*
G75*
%TA.AperFunction,SMDPad,CuDef*%
%ADD10R,0.95000X0.85000*%
%ADD12R,0.60000X0.75000*%
%ADD13R,0.85000X0.95000*%
%ADD17R,0.64000X0.60000*%
%ADD18R,1.20000X1.20000*%
%ADD19R,0.90000X1.00000*%
%ADD20R,0.75000X0.60000*%
%ADD28R,0.60000X0.64000*%
%ADD61R,1.00000X0.90000*%
%TA.AperFunction,Conductor*%
%ADD74C,0.16962*%
%ADD75C,0.20320*%
%ADD76C,0.25400*%
%ADD77C,0.23066*%
%ADD78C,0.38100*%
%ADD80C,0.10564*%
%ADD81C,0.50800*%
%ADD82C,0.12700*%
%TA.AperFunction,ViaPad*%
%ADD85C,1.52400*%
%TA.AperFunction,ComponentPad*%
G04:AMPARAMS|DCode=86|XSize=1mm|YSize=2.3mm|CornerRadius=0.5mm|HoleSize=0mm|Usage=FLASHONLY|Rotation=270.000|XOffset=0mm|YOffset=0mm|HoleType=Round|Shape=RoundedRectangle|*
%AMROUNDEDRECTD86*
21,1,1.00000,1.30000,0,0,270.0*
21,1,0.00000,2.30000,0,0,270.0*
1,1,1.00000,-0.65000,0.00000*
1,1,1.00000,-0.65000,0.00000*
1,1,1.00000,0.65000,0.00000*
1,1,1.00000,0.65000,0.00000*
%
%ADD86ROUNDEDRECTD86*%
%ADD87C,0.40000*%
%TA.AperFunction,ViaPad*%
%ADD88C,2.50000*%
%TA.AperFunction,ComponentPad*%
%ADD89C,2.37500*%
%ADD90C,0.85000*%
%ADD91C,1.52400*%
%ADD92C,0.45720*%
%TA.AperFunction,ViaPad*%
%ADD93C,0.45720*%
%ADD94C,0.60000*%
%ADD95C,1.98000*%
%TA.AperFunction,SMDPad,CuDef*%
%ADD108R,1.00000X1.40000*%
%ADD109R,2.50000X1.15000*%
%ADD110R,1.15000X1.35000*%
G04:AMPARAMS|DCode=111|XSize=1.23mm|YSize=0.6mm|CornerRadius=0.075mm|HoleSize=0mm|Usage=FLASHONLY|Rotation=180.000|XOffset=0mm|YOffset=0mm|HoleType=Round|Shape=RoundedRectangle|*
%AMROUNDEDRECTD111*
21,1,1.23000,0.45000,0,0,180.0*
21,1,1.08000,0.60000,0,0,180.0*
1,1,0.15000,-0.54000,0.22500*
1,1,0.15000,0.54000,0.22500*
1,1,0.15000,0.54000,-0.22500*
1,1,0.15000,-0.54000,-0.22500*
%
%ADD111ROUNDEDRECTD111*%
%TA.AperFunction,ConnectorPad*%
%ADD112R,0.64000X0.60000*%
%TA.AperFunction,SMDPad,CuDef*%
G04:AMPARAMS|DCode=113|XSize=1.57mm|YSize=0.41mm|CornerRadius=0.05125mm|HoleSize=0mm|Usage=FLASHONLY|Rotation=0.000|XOffset=0mm|YOffset=0mm|HoleType=Round|Shape=RoundedRectangle|*
%AMROUNDEDRECTD113*
21,1,1.57000,0.30750,0,0,0.0*
21,1,1.46750,0.41000,0,0,0.0*
1,1,0.10250,0.73375,-0.15375*
1,1,0.10250,-0.73375,-0.15375*
1,1,0.10250,-0.73375,0.15375*
1,1,0.10250,0.73375,0.15375*
%
%ADD113ROUNDEDRECTD113*%
G36*
X6061236Y3162299D02*
X6676614D01*
Y3010749D01*
X6678510Y3006170D01*
X6680184Y3001507D01*
X6688565Y2992279D01*
X6688885Y2992128D01*
X6689020Y2991801D01*
X6693599Y2989904D01*
X6698081Y2987790D01*
X6698741Y2976011D01*
Y2916630D01*
X6698081Y2904851D01*
X6693599Y2902737D01*
X6689020Y2900840D01*
X6688885Y2900513D01*
X6688565Y2900362D01*
X6680184Y2891134D01*
X6678510Y2886470D01*
X6676614Y2881892D01*
Y2880749D01*
X6678510Y2876171D01*
X6680184Y2871507D01*
X6688565Y2862279D01*
X6688968Y2861928D01*
X6689021Y2861800D01*
X6692018Y2850255D01*
X6691463Y2846870D01*
X6687545Y2842218D01*
X6639076D01*
Y2874021D01*
X6553676D01*
Y2773621D01*
X6639076D01*
Y2790423D01*
X6687545D01*
X6691463Y2785771D01*
X6692018Y2782386D01*
X6689021Y2770841D01*
X6688968Y2770713D01*
X6688565Y2770362D01*
X6680184Y2761134D01*
X6678510Y2756470D01*
X6676614Y2751892D01*
Y2586645D01*
X6664880Y2581785D01*
X6584612Y2662052D01*
X6576211Y2667666D01*
X6566300Y2669638D01*
X6528812D01*
Y2686445D01*
X6428412D01*
Y2601045D01*
X6528812D01*
Y2617842D01*
X6555573D01*
X6633644Y2539772D01*
Y2519596D01*
X6605541D01*
X6597660Y2518028D01*
X6590978Y2513563D01*
X6586513Y2506881D01*
X6584945Y2499000D01*
Y2454000D01*
X6586513Y2446119D01*
X6583306Y2435753D01*
X6580874Y2432076D01*
X6576637Y2429245D01*
X6563777Y2425632D01*
X6552015Y2433491D01*
X6538140Y2436251D01*
X6524265Y2433491D01*
X6519604Y2430377D01*
X6510372Y2426439D01*
X6500316Y2430253D01*
X6495955Y2433166D01*
X6482080Y2435926D01*
X6468205Y2433166D01*
X6462337Y2429245D01*
X6449477Y2425632D01*
X6437715Y2433491D01*
X6430706Y2434885D01*
X6429092Y2448155D01*
X6434025Y2451451D01*
X6465037Y2482463D01*
X6528812D01*
Y2567863D01*
X6428412D01*
Y2528781D01*
X6426512Y2527511D01*
X6413812Y2534300D01*
Y2567863D01*
X6389510D01*
Y2601045D01*
X6413812D01*
Y2686445D01*
X6390064D01*
X6380700Y2694500D01*
Y2751302D01*
X6470649D01*
X6480560Y2753274D01*
X6488962Y2758888D01*
X6523252Y2793178D01*
X6528866Y2801580D01*
X6530838Y2811491D01*
Y2907733D01*
X6540976Y2917871D01*
X6553676Y2914263D01*
Y2888621D01*
X6639076D01*
Y2989021D01*
X6553676D01*
Y2972218D01*
X6532800D01*
X6522890Y2970247D01*
X6514488Y2964633D01*
X6488400Y2938545D01*
X6481294Y2939947D01*
X6475700Y2943278D01*
Y3079900D01*
X6438898D01*
Y3088772D01*
X6436926Y3098682D01*
X6431313Y3107084D01*
X6410084Y3128313D01*
X6401682Y3133926D01*
X6391772Y3135898D01*
X6161769D01*
X6151858Y3133926D01*
X6143457Y3128313D01*
X6105628Y3090484D01*
X6100014Y3082082D01*
X6098042Y3072171D01*
Y2910840D01*
X6100014Y2900929D01*
X6105628Y2892528D01*
X6151382Y2846773D01*
Y2699121D01*
X6153354Y2689210D01*
X6158968Y2680808D01*
X6263142Y2576633D01*
Y2496315D01*
X6265114Y2486404D01*
X6270728Y2478002D01*
X6297279Y2451451D01*
X6305681Y2445837D01*
X6315591Y2443866D01*
X6402633D01*
X6406485Y2431166D01*
X6398202Y2425632D01*
X6390343Y2413869D01*
X6387583Y2399994D01*
X6390343Y2386119D01*
X6398202Y2374357D01*
Y2373846D01*
X6390343Y2362083D01*
X6387583Y2348209D01*
X6390343Y2334334D01*
X6391383Y2332778D01*
X6398040Y2322316D01*
X6391383Y2311854D01*
X6390343Y2310298D01*
X6387583Y2296423D01*
X6390343Y2282548D01*
X6391383Y2280993D01*
X6398040Y2270530D01*
X6391383Y2260068D01*
X6390343Y2258512D01*
X6387583Y2244638D01*
X6390343Y2230763D01*
X6391383Y2229207D01*
X6398040Y2218745D01*
X6391383Y2208283D01*
X6390343Y2206727D01*
X6387583Y2192852D01*
X6390343Y2178977D01*
X6398202Y2167215D01*
X6409965Y2159355D01*
X6423840Y2156595D01*
X6437715Y2159355D01*
X6443583Y2163276D01*
X6456443Y2166890D01*
X6468205Y2159031D01*
X6482080Y2156271D01*
X6495955Y2159031D01*
X6500616Y2162145D01*
X6509848Y2166082D01*
X6519904Y2162269D01*
X6524265Y2159355D01*
X6538140Y2156595D01*
X6552015Y2159355D01*
X6557883Y2163276D01*
X6570743Y2166890D01*
X6582505Y2159031D01*
X6596380Y2156271D01*
X6610255Y2159031D01*
X6622017Y2166890D01*
X6634354Y2162494D01*
X6638565Y2159680D01*
X6652440Y2156920D01*
X6666315Y2159680D01*
X6672183Y2163601D01*
X6685043Y2167215D01*
X6696805Y2159355D01*
X6710680Y2156595D01*
X6724555Y2159355D01*
X6736317Y2167215D01*
X6744177Y2178977D01*
X6745962Y2179932D01*
X6746845Y2179566D01*
X6772932D01*
X6777792Y2167833D01*
X6632557Y2022598D01*
X5608837D01*
X5602154Y2038734D01*
X5587904Y2057304D01*
X5569334Y2071554D01*
X5547707Y2080512D01*
X5524500Y2083567D01*
X5501293Y2080512D01*
X5481167Y2072175D01*
X5400314Y2153028D01*
X5392298Y2158384D01*
X5382843Y2160265D01*
X5323779D01*
X5323158Y2161195D01*
X5311395Y2169054D01*
X5297520Y2171814D01*
X5283645Y2169054D01*
X5271883Y2161195D01*
X5264023Y2149432D01*
X5261263Y2135557D01*
X5264023Y2121682D01*
X5271883Y2109920D01*
X5283645Y2102060D01*
X5297520Y2099300D01*
X5311395Y2102060D01*
X5323158Y2109920D01*
X5323779Y2110849D01*
X5372609D01*
X5446225Y2037233D01*
X5437888Y2017107D01*
X5434833Y1993900D01*
X5437888Y1970693D01*
X5446846Y1949066D01*
X5461096Y1930496D01*
X5479666Y1916246D01*
X5501293Y1907288D01*
X5524500Y1904233D01*
X5547707Y1907288D01*
X5569334Y1916246D01*
X5587904Y1930496D01*
X5602154Y1949066D01*
X5611112Y1970693D01*
X5611440Y1973183D01*
X6642792D01*
X6652247Y1975064D01*
X6655287Y1977095D01*
X6667987Y1970860D01*
Y1878575D01*
X6507789Y1718378D01*
X6502433Y1710362D01*
X6500552Y1700907D01*
Y1676039D01*
X6499623Y1675418D01*
X6491763Y1663655D01*
X6489003Y1649780D01*
X6491763Y1635905D01*
X6499623Y1624143D01*
X6499844Y1610296D01*
X6493371Y1603077D01*
X6239551D01*
X6238300Y1615777D01*
X6241955Y1616503D01*
X6253717Y1624363D01*
X6261577Y1636126D01*
X6264337Y1650000D01*
X6261577Y1663875D01*
X6253717Y1675638D01*
X6251388Y1677194D01*
Y1735918D01*
X6249614Y1744838D01*
X6244561Y1752399D01*
X6181545Y1815415D01*
X6173984Y1820468D01*
X6165064Y1822242D01*
X5611070D01*
X5602154Y1843767D01*
X5587904Y1862338D01*
X5569334Y1876588D01*
X5547707Y1885546D01*
X5524500Y1888601D01*
X5501293Y1885546D01*
X5479666Y1876588D01*
X5476716Y1874324D01*
X4978358Y2372681D01*
X4970797Y2377734D01*
X4961877Y2379508D01*
X4845715D01*
X4841834Y2391949D01*
X4841833Y2392208D01*
X5002292Y2552667D01*
X5007906Y2561069D01*
X5009877Y2570980D01*
Y2700888D01*
X5017477Y2712261D01*
X5020237Y2726136D01*
X5017477Y2740011D01*
X5009617Y2751773D01*
X4997855Y2759633D01*
X4983980Y2762392D01*
X4970105Y2759633D01*
X4958342Y2751773D01*
X4957830Y2751006D01*
X4945130D01*
X4944617Y2751773D01*
X4932855Y2759633D01*
X4918980Y2762392D01*
X4905105Y2759633D01*
X4894413Y2752489D01*
X4890338Y2751006D01*
X4882621D01*
X4878547Y2752489D01*
X4867855Y2759633D01*
X4853980Y2762392D01*
X4840105Y2759633D01*
X4828342Y2751773D01*
X4820483Y2740011D01*
X4817723Y2726136D01*
X4820483Y2712261D01*
X4828082Y2700888D01*
Y2675903D01*
X4812057Y2659878D01*
X4390233D01*
X4288393Y2761717D01*
X4279991Y2767331D01*
X4270080Y2769303D01*
X2554305D01*
X2544394Y2767331D01*
X2535993Y2761717D01*
X2531002Y2756727D01*
X2518222Y2760540D01*
X2515696Y2761587D01*
X2513762Y2763520D01*
X2511028D01*
X2508502Y2764566D01*
X2369508D01*
Y2779856D01*
X2366551Y2794722D01*
X2358130Y2807325D01*
X2345527Y2815746D01*
X2330662Y2818703D01*
X2315796Y2815746D01*
X2303193Y2807325D01*
X2294772Y2794722D01*
X2291815Y2779856D01*
Y2773018D01*
X2287698Y2767961D01*
X2279115Y2764445D01*
X2278822Y2764566D01*
X1475740D01*
X1466020Y2760540D01*
X1461994Y2750820D01*
Y2486122D01*
X1462873Y2483998D01*
X1462723Y2481703D01*
X1464809Y2479324D01*
X1466020Y2476401D01*
X1468144Y2475521D01*
X1469660Y2473793D01*
X1482360Y2467530D01*
X1484654Y2467380D01*
X1486646Y2466230D01*
X1489702Y2467049D01*
X1492859Y2466842D01*
X1494588Y2468358D01*
X1496808Y2468953D01*
X1512698Y2481146D01*
X1535554Y2490612D01*
X1560981Y2493960D01*
X1689179D01*
X1714606Y2490612D01*
X1737462Y2481146D01*
X1757088Y2466086D01*
X1772148Y2446460D01*
X1781615Y2423604D01*
X1784844Y2399077D01*
X1781615Y2374551D01*
X1772148Y2351696D01*
X1757088Y2332069D01*
X1737462Y2317009D01*
X1714606Y2307543D01*
X1689179Y2304195D01*
X1610370D01*
X1609708Y2303921D01*
X1609022Y2304129D01*
X1604933Y2301943D01*
X1600649Y2300169D01*
X1600375Y2299507D01*
X1599744Y2299169D01*
X1591687Y2289352D01*
X1591479Y2288666D01*
X1590883Y2288268D01*
X1589979Y2283721D01*
X1588632Y2279283D01*
X1588970Y2278652D01*
X1588830Y2277949D01*
X1589601Y2274077D01*
X1587353Y2262781D01*
X1580954Y2253203D01*
X1571377Y2246804D01*
X1560080Y2244557D01*
X1548783Y2246804D01*
X1539206Y2253203D01*
X1532806Y2262781D01*
X1530559Y2274077D01*
X1533340Y2288056D01*
X1532681Y2291368D01*
X1533012Y2294728D01*
X1530088Y2304366D01*
X1529634Y2304920D01*
Y2305637D01*
X1526355Y2308915D01*
X1523414Y2312499D01*
X1522701Y2312569D01*
X1522194Y2313076D01*
X1512698Y2317010D01*
X1496808Y2329202D01*
X1494588Y2329797D01*
X1492859Y2331313D01*
X1489702Y2331106D01*
X1486646Y2331925D01*
X1484654Y2330775D01*
X1482360Y2330625D01*
X1469660Y2324362D01*
X1468144Y2322634D01*
X1466020Y2321754D01*
X1464809Y2318831D01*
X1462723Y2316452D01*
X1462873Y2314157D01*
X1461994Y2312033D01*
Y1556122D01*
X1462873Y1553997D01*
X1462723Y1551703D01*
X1464809Y1549324D01*
X1466020Y1546401D01*
X1468144Y1545521D01*
X1469660Y1543793D01*
X1482360Y1537530D01*
X1484654Y1537379D01*
X1486646Y1536230D01*
X1489702Y1537049D01*
X1492859Y1536842D01*
X1494588Y1538358D01*
X1496808Y1538953D01*
X1512698Y1551145D01*
X1522194Y1555079D01*
X1522701Y1555585D01*
X1523414Y1555655D01*
X1526355Y1559239D01*
X1529634Y1562518D01*
Y1563235D01*
X1530088Y1563788D01*
X1533012Y1573426D01*
X1532681Y1576787D01*
X1533340Y1580099D01*
X1530559Y1594077D01*
X1532806Y1605374D01*
X1539206Y1614952D01*
X1548783Y1621351D01*
X1560080Y1623598D01*
X1571377Y1621351D01*
X1580954Y1614952D01*
X1587353Y1605374D01*
X1589601Y1594077D01*
X1588830Y1590206D01*
X1588970Y1589503D01*
X1588632Y1588871D01*
X1589979Y1584433D01*
X1590883Y1579887D01*
X1591478Y1579489D01*
X1591686Y1578803D01*
X1599744Y1568986D01*
X1600375Y1568648D01*
X1600649Y1567986D01*
X1604933Y1566212D01*
X1609022Y1564026D01*
X1609708Y1564234D01*
X1610370Y1563960D01*
X1689179D01*
X1714606Y1560612D01*
X1737463Y1551145D01*
X1755894Y1537002D01*
X1757109Y1536677D01*
X1757917Y1535713D01*
X1762049Y1535353D01*
X1766056Y1534279D01*
X1776962Y1528427D01*
Y1370708D01*
X1778933Y1360798D01*
X1784547Y1352396D01*
X1866856Y1270088D01*
X1875257Y1264474D01*
X1885168Y1262502D01*
X2652380D01*
X2662291Y1264474D01*
X2670692Y1270088D01*
X2715207Y1314602D01*
X2915385D01*
X3028300Y1201688D01*
X3036701Y1196074D01*
X3046612Y1194103D01*
X3516160D01*
X3526071Y1196074D01*
X3534472Y1201688D01*
X3631369Y1298584D01*
X3643073Y1292328D01*
X3641663Y1285240D01*
X3644423Y1271365D01*
X3652283Y1259603D01*
X3664045Y1251743D01*
X3677920Y1248983D01*
X3691795Y1251743D01*
X3703557Y1259603D01*
X3704179Y1260532D01*
X3724526D01*
X3731315Y1247832D01*
X3728242Y1243234D01*
X3725482Y1229359D01*
X3728242Y1215484D01*
X3736101Y1203721D01*
X3747864Y1195862D01*
X3761739Y1193102D01*
X3775613Y1195862D01*
X3787376Y1203721D01*
X3788933Y1206051D01*
X3894741D01*
X3896584Y1203697D01*
X3893846Y1186594D01*
X3893583Y1186417D01*
X3885723Y1174655D01*
X3882963Y1160780D01*
X3885723Y1146905D01*
X3893583Y1135143D01*
X3905345Y1127283D01*
X3919220Y1124523D01*
X3933095Y1127283D01*
X3944857Y1135143D01*
X3945479Y1136072D01*
X3996604D01*
X4006032Y1123372D01*
X4004883Y1117600D01*
X4007643Y1103725D01*
X4015503Y1091963D01*
X4027265Y1084103D01*
X4041140Y1081343D01*
X4042237Y1081561D01*
X4071821Y1051977D01*
X4070743Y1045690D01*
X4067204Y1039277D01*
X2959996D01*
X2959380Y1039154D01*
X2951554Y1042396D01*
X2948319Y1050206D01*
X2948445Y1050838D01*
Y1199893D01*
X2948453Y1200838D01*
X2948453D01*
X2945439Y1223732D01*
X2936602Y1245066D01*
X2922545Y1263386D01*
X2904225Y1277444D01*
X2882891Y1286281D01*
X2859996Y1289295D01*
Y1289277D01*
X2779996D01*
Y1289295D01*
X2757102Y1286281D01*
X2735768Y1277444D01*
X2717448Y1263386D01*
X2703391Y1245066D01*
X2694554Y1223732D01*
X2691540Y1200838D01*
X2691557D01*
Y1050838D01*
X2691683Y1050206D01*
X2688448Y1042396D01*
X2680622Y1039154D01*
X2680006Y1039277D01*
X1156000D01*
X1155384Y1039154D01*
X1147558Y1042396D01*
X1144370Y1050092D01*
X1144538Y1050938D01*
Y1775001D01*
X1157238Y1778853D01*
X1164295Y1768293D01*
X1178419Y1758855D01*
X1195080Y1755541D01*
X1211741Y1758855D01*
X1225865Y1768293D01*
X1235302Y1782417D01*
X1238616Y1799077D01*
X1235302Y1815738D01*
X1225865Y1829862D01*
X1211741Y1839300D01*
X1195080Y1842614D01*
X1178419Y1839300D01*
X1164295Y1829862D01*
X1157238Y1819301D01*
X1144538Y1823154D01*
Y2045001D01*
X1157238Y2048853D01*
X1164295Y2038293D01*
X1178419Y2028855D01*
X1195080Y2025541D01*
X1211741Y2028855D01*
X1225865Y2038293D01*
X1235302Y2052417D01*
X1238616Y2069077D01*
X1235302Y2085738D01*
X1225865Y2099862D01*
X1211741Y2109300D01*
X1195080Y2112614D01*
X1178419Y2109300D01*
X1164295Y2099862D01*
X1157238Y2089301D01*
X1144538Y2093154D01*
Y3150728D01*
X1144419Y3151330D01*
X1147634Y3159094D01*
X1155398Y3162309D01*
X1156000Y3162190D01*
X2667555D01*
X2679996Y3161561D01*
X2689921Y3154862D01*
X2691673Y3150632D01*
X2691548Y3150000D01*
Y3000945D01*
X2691539Y3000000D01*
X2691539D01*
X2694553Y2977106D01*
X2703390Y2955772D01*
X2717448Y2937452D01*
X2735768Y2923394D01*
X2757102Y2914558D01*
X2779996Y2911544D01*
Y2911561D01*
X2859996D01*
Y2911544D01*
X2882890Y2914558D01*
X2904224Y2923394D01*
X2922544Y2937452D01*
X2936602Y2955772D01*
X2945439Y2977106D01*
X2948453Y3000000D01*
X2948435D01*
Y3150000D01*
X2948309Y3150632D01*
X2950061Y3154862D01*
X2959986Y3161561D01*
X2959986Y3161561D01*
X2963696Y3162299D01*
X5127753D01*
X5130279Y3149599D01*
X5121526Y3145974D01*
X5102956Y3131724D01*
X5088706Y3113154D01*
X5079748Y3091527D01*
X5076693Y3068320D01*
X5079748Y3045113D01*
X5088706Y3023486D01*
X5102956Y3004916D01*
X5121526Y2990666D01*
X5143153Y2981708D01*
X5166360Y2978653D01*
X5189567Y2981708D01*
X5211194Y2990666D01*
X5229764Y3004916D01*
X5244014Y3023486D01*
X5252972Y3045113D01*
X5256027Y3068320D01*
X5252972Y3091527D01*
X5244014Y3113154D01*
X5229764Y3131724D01*
X5211194Y3145974D01*
X5202441Y3149599D01*
X5204967Y3162299D01*
X5630656D01*
X5633182Y3149599D01*
X5624430Y3145974D01*
X5605860Y3131724D01*
X5591610Y3113154D01*
X5582652Y3091527D01*
X5581269Y3081020D01*
X5757259D01*
X5755875Y3091527D01*
X5746918Y3113154D01*
X5732668Y3131724D01*
X5714097Y3145974D01*
X5705345Y3149599D01*
X5707871Y3162299D01*
X5781246D01*
X5781862Y3162422D01*
X5789688Y3159180D01*
X5792923Y3151370D01*
X5792797Y3150738D01*
Y3001683D01*
X5792789Y3000738D01*
X5792789D01*
X5795803Y2977844D01*
X5804640Y2956510D01*
X5818698Y2938190D01*
X5837018Y2924132D01*
X5858352Y2915295D01*
X5881246Y2912281D01*
Y2912299D01*
X5961246D01*
Y2912281D01*
X5984140Y2915295D01*
X6005474Y2924132D01*
X6023794Y2938190D01*
X6037852Y2956510D01*
X6046688Y2977844D01*
X6049702Y3000738D01*
X6049685D01*
Y3150738D01*
X6049559Y3151370D01*
X6052794Y3159180D01*
X6060620Y3162422D01*
X6061236Y3162299D01*
D02*
G37*
G36*
X10185838Y3160730D02*
X10192617Y3150838D01*
X10192717Y3138175D01*
Y3000838D01*
X10192700D01*
X10195711Y2977970D01*
X10204538Y2956660D01*
X10218579Y2938361D01*
X10236878Y2924320D01*
X10258188Y2915493D01*
X10280124Y2912605D01*
X10281156Y2912400D01*
X10361156D01*
X10362383Y2912644D01*
X10384024Y2915493D01*
X10405334Y2924320D01*
X10423633Y2938361D01*
X10437675Y2956660D01*
X10446501Y2977970D01*
X10449350Y2999611D01*
X10449595Y3000838D01*
Y3150235D01*
X10449695Y3150738D01*
X10449695D01*
X10456475Y3160630D01*
X10460554Y3162320D01*
X10461156Y3162200D01*
X13634996D01*
X13635599Y3162320D01*
X13639677Y3160630D01*
X13646457Y3150738D01*
X13646558Y3138075D01*
Y3000738D01*
X13646539D01*
X13649551Y2977870D01*
X13658377Y2956560D01*
X13672420Y2938261D01*
X13690718Y2924220D01*
X13712029Y2915393D01*
X13733965Y2912505D01*
X13734996Y2912300D01*
X13814996D01*
X13816223Y2912544D01*
X13837865Y2915393D01*
X13859174Y2924220D01*
X13877473Y2938261D01*
X13891515Y2956560D01*
X13900340Y2977870D01*
X13903191Y2999511D01*
X13903435Y3000738D01*
Y3150135D01*
X13903534Y3150638D01*
X13903535D01*
X13908195Y3157439D01*
X13914996Y3162100D01*
X13927660Y3162200D01*
X15155000D01*
X15155602Y3162320D01*
X15159682Y3160630D01*
X15166461Y3150738D01*
X15166467Y3138039D01*
X15167561Y1050818D01*
X15167680Y1050217D01*
X15164442Y1042396D01*
X15156616Y1039154D01*
X15156000Y1039277D01*
X13914986D01*
X13914371Y1039154D01*
X13910124Y1040913D01*
X13903426Y1050838D01*
X13903424Y1062778D01*
Y1200837D01*
X13903426Y1200838D01*
X13903442D01*
X13900429Y1223732D01*
X13891592Y1245066D01*
X13877534Y1263386D01*
X13859213Y1277444D01*
X13837880Y1286281D01*
X13814986Y1289295D01*
Y1289277D01*
X13814986Y1289277D01*
X13734985D01*
Y1289295D01*
X13712093Y1286281D01*
X13690758Y1277444D01*
X13672438Y1263386D01*
X13658380Y1245066D01*
X13649544Y1223732D01*
X13646529Y1200838D01*
X13646547D01*
Y1050838D01*
X13646674Y1050206D01*
X13643439Y1042396D01*
X13635612Y1039154D01*
X13634996Y1039277D01*
X13062500D01*
Y1352578D01*
X13074232Y1357439D01*
X13106177Y1325496D01*
X13112477Y1321286D01*
X13119910Y1319807D01*
X14208334D01*
X14442056Y1086086D01*
X14448357Y1081875D01*
X14455791Y1080397D01*
X14542241D01*
X14549673Y1081875D01*
X14555975Y1086086D01*
X14620174Y1150285D01*
X14624385Y1156586D01*
X14625864Y1164019D01*
Y1173077D01*
X14643950D01*
X14648103Y1166863D01*
X14659866Y1159003D01*
X14673740Y1156243D01*
X14687614Y1159003D01*
X14699377Y1166863D01*
X14707237Y1178625D01*
X14709998Y1192500D01*
X14707237Y1206375D01*
X14699377Y1218138D01*
X14687614Y1225997D01*
X14673740Y1228757D01*
X14659866Y1225997D01*
X14648103Y1218138D01*
X14643951Y1211923D01*
X14613879D01*
X14606447Y1210445D01*
X14600146Y1206235D01*
X14593739Y1199829D01*
X14587335Y1206235D01*
X14581033Y1210445D01*
X14573601Y1211923D01*
X14543530D01*
X14539378Y1218138D01*
X14527615Y1225997D01*
X14513741Y1228757D01*
X14499866Y1225997D01*
X14488103Y1218138D01*
X14480244Y1206375D01*
X14477484Y1192500D01*
X14480244Y1178626D01*
X14488103Y1166863D01*
X14499866Y1159004D01*
X14508212Y1157343D01*
X14506963Y1144643D01*
X14474358D01*
X14240636Y1378365D01*
X14234334Y1382575D01*
X14226901Y1384053D01*
X13138477D01*
X13086935Y1435594D01*
X13080634Y1439805D01*
X13073201Y1441283D01*
X13062500D01*
Y1611854D01*
X13183073D01*
Y1540755D01*
X13187100Y1531035D01*
X13196820Y1527008D01*
X14514999D01*
X14524719Y1531035D01*
X14528746Y1540755D01*
Y2253398D01*
X14524719Y2263118D01*
X14514999Y2267144D01*
X13485905D01*
Y2446385D01*
X13484860Y2448911D01*
Y2451646D01*
X13482927Y2453579D01*
X13481882Y2456105D01*
X13478067Y2468885D01*
X13495050Y2485869D01*
X13502068Y2496371D01*
X13504532Y2508760D01*
Y2866951D01*
X13518073Y2880492D01*
X13550443D01*
X13552126Y2879367D01*
X13566000Y2876607D01*
X13579875Y2879367D01*
X13591638Y2887226D01*
X13599496Y2898989D01*
X13602257Y2912864D01*
X13599496Y2926739D01*
X13591638Y2938501D01*
X13579875Y2946361D01*
X13566000Y2949121D01*
X13552126Y2946361D01*
X13550443Y2945236D01*
X13504665D01*
X13498607Y2944031D01*
X13486247Y2952272D01*
X13485536Y2953394D01*
X13481880Y2962220D01*
X13472160Y2966247D01*
X12147357D01*
X12146057Y2965708D01*
X12144676Y2965983D01*
X12141341Y2963755D01*
X12137922Y2962339D01*
X12132500Y2964585D01*
X10790901D01*
X10781181Y2960558D01*
X10777155Y2950838D01*
Y2606247D01*
X10333766D01*
Y2720000D01*
X10329740Y2729720D01*
X10320020Y2733746D01*
X9183335D01*
X9173615Y2729720D01*
X9169588Y2720000D01*
Y2032000D01*
X9173615Y2022280D01*
X9183335Y2018254D01*
X9975228D01*
Y1838960D01*
X9977692Y1826572D01*
X9984710Y1816070D01*
X10082510Y1718269D01*
X10093012Y1711252D01*
X10105400Y1708788D01*
X10642500D01*
Y1560263D01*
X10293685D01*
X10289049Y1563157D01*
X10282617Y1569720D01*
X10279857Y1583595D01*
X10271997Y1595357D01*
X10260235Y1603217D01*
X10246360Y1605977D01*
X10232485Y1603217D01*
X10229855Y1601459D01*
X10219690Y1595920D01*
X10209525Y1601459D01*
X10206895Y1603217D01*
X10193020Y1605977D01*
X10179145Y1603217D01*
X10167383Y1595357D01*
X10159523Y1583595D01*
X10156763Y1569720D01*
X10159523Y1555845D01*
X10167383Y1544083D01*
X10179145Y1536223D01*
X10184533Y1535152D01*
Y1508592D01*
X10186177Y1500328D01*
X10190858Y1493322D01*
X10201078Y1483102D01*
X10196218Y1471368D01*
X10132068D01*
X10123149Y1469594D01*
X10115587Y1464542D01*
X10008546Y1357500D01*
X7907020D01*
X7898101Y1355726D01*
X7890539Y1350673D01*
X7848712Y1308846D01*
X7833564D01*
X7828704Y1320580D01*
X7926960Y1418835D01*
X7940375Y1421503D01*
X7952138Y1429363D01*
X7959997Y1441125D01*
X7962757Y1455000D01*
X7959997Y1468875D01*
X7952138Y1480638D01*
X7940375Y1488497D01*
X7926500Y1491257D01*
X7912625Y1488497D01*
X7900863Y1480638D01*
X7893003Y1468875D01*
X7890335Y1455460D01*
X7794258Y1359383D01*
X7782560Y1361711D01*
X7770761Y1359364D01*
X7674665Y1455460D01*
X7671997Y1468875D01*
X7664138Y1480638D01*
X7652375Y1488497D01*
X7638500Y1491257D01*
X7624625Y1488497D01*
X7612863Y1480638D01*
X7605003Y1468875D01*
X7602243Y1455000D01*
X7605003Y1441125D01*
X7612863Y1429363D01*
X7624625Y1421503D01*
X7638041Y1418835D01*
X7736296Y1320580D01*
X7731436Y1308846D01*
X7642039D01*
X7463744Y1487141D01*
X7456183Y1492194D01*
X7447263Y1493968D01*
X7320862D01*
X7311942Y1492194D01*
X7304381Y1487141D01*
X7270387Y1453148D01*
X7269848Y1453283D01*
X7268941Y1454397D01*
X7265253Y1467526D01*
X7269957Y1474565D01*
X7272717Y1488440D01*
X7269957Y1502315D01*
X7262097Y1514077D01*
X7250335Y1521937D01*
X7236460Y1524697D01*
X7222585Y1521937D01*
X7210823Y1514077D01*
X7205416Y1505985D01*
X7203856Y1505494D01*
X7192864D01*
X7191304Y1505985D01*
X7185897Y1514077D01*
X7174135Y1521937D01*
X7160260Y1524697D01*
X7146385Y1521937D01*
X7140316Y1517882D01*
X6901420D01*
X6894632Y1530582D01*
X6898969Y1537074D01*
X6901927Y1551940D01*
Y1653489D01*
X7091209Y1842771D01*
X7099629Y1855374D01*
X7102587Y1870240D01*
Y2112533D01*
X7926842D01*
X7941708Y2115491D01*
X7954311Y2123911D01*
X8017805Y2187406D01*
X8030585Y2183592D01*
X8033112Y2182546D01*
X8035045Y2180612D01*
X8037779D01*
X8040305Y2179566D01*
X8459357D01*
X8469077Y2183592D01*
X8473103Y2193312D01*
Y2227760D01*
X8472371Y2229526D01*
X8472606Y2231424D01*
X8470430Y2234212D01*
X8469077Y2237480D01*
X8467310Y2238212D01*
X8466134Y2239719D01*
X8460178Y2243342D01*
X8458034Y2255339D01*
X8458897Y2259675D01*
X8458034Y2264012D01*
X8460178Y2276008D01*
X8466134Y2279632D01*
X8467310Y2281139D01*
X8469077Y2281871D01*
X8470430Y2285138D01*
X8472606Y2287927D01*
X8472371Y2289825D01*
X8473103Y2291591D01*
Y2314120D01*
X8472371Y2315886D01*
X8472606Y2317784D01*
X8470430Y2320572D01*
X8469077Y2323840D01*
X8467310Y2324572D01*
X8466134Y2326079D01*
X8460178Y2329702D01*
X8458034Y2341699D01*
X8458897Y2346035D01*
X8458034Y2350372D01*
X8460178Y2362368D01*
X8466134Y2365992D01*
X8467310Y2367499D01*
X8469077Y2368231D01*
X8470430Y2371498D01*
X8472606Y2374287D01*
X8472371Y2376185D01*
X8473103Y2377951D01*
Y2474548D01*
X8494580D01*
Y2526432D01*
X8859139D01*
X8868859Y2530458D01*
X8872885Y2540178D01*
Y2707640D01*
X8868903Y2717255D01*
X8871434Y2723364D01*
Y3162299D01*
X8884134Y3162299D01*
X10181156Y3162299D01*
X10181758Y3162419D01*
X10185838Y3160730D01*
D02*
G37*
G36*
X8857687Y2723364D02*
X8506081D01*
Y2768965D01*
X8502055Y2778686D01*
X8496689Y2780908D01*
X8496750Y3162299D01*
X8857687D01*
Y2723364D01*
D02*
G37*
G36*
X4357000Y2619860D02*
X4351740Y2607160D01*
X3705645D01*
X3694335Y2614717D01*
X3680460Y2617477D01*
X3666585Y2614717D01*
X3654823Y2606858D01*
X3646963Y2595095D01*
X3644203Y2581220D01*
X3646963Y2567346D01*
X3654823Y2555583D01*
X3666585Y2547724D01*
X3669218Y2547200D01*
X3679814Y2541269D01*
X3678437Y2533403D01*
X3677223Y2527300D01*
X3679983Y2513425D01*
X3687843Y2501663D01*
X3699605Y2493803D01*
X3713480Y2491043D01*
X3727355Y2493803D01*
X3738608Y2501322D01*
X3794798D01*
X3801587Y2488622D01*
X3799363Y2485295D01*
X3796603Y2471420D01*
X3799363Y2457545D01*
X3799943Y2456678D01*
X3793154Y2443978D01*
X3658140D01*
X3570125Y2531992D01*
X3561723Y2537606D01*
X3551813Y2539578D01*
X3421228D01*
X3409855Y2547177D01*
X3395980Y2549937D01*
X3382105Y2547177D01*
X3370343Y2539318D01*
X3362483Y2527555D01*
X3359815Y2514139D01*
X3228693Y2383018D01*
X3188248D01*
X3176875Y2390617D01*
X3163000Y2393377D01*
X3149125Y2390617D01*
X3137363Y2382757D01*
X3129503Y2370995D01*
X3126743Y2357120D01*
X3129503Y2343245D01*
X3137363Y2331483D01*
X3149125Y2323623D01*
X3163000Y2320863D01*
X3176875Y2323623D01*
X3188248Y2331222D01*
X3239420D01*
X3249331Y2333194D01*
X3257732Y2338808D01*
X3396439Y2477515D01*
X3409855Y2480183D01*
X3421228Y2487782D01*
X3541085D01*
X3627290Y2401578D01*
X3625832Y2394344D01*
X3622539Y2388878D01*
X3528789D01*
X3528167Y2389808D01*
X3516405Y2397667D01*
X3502530Y2400427D01*
X3488655Y2397667D01*
X3476892Y2389808D01*
X3469033Y2378045D01*
X3466273Y2364170D01*
X3469033Y2350295D01*
X3476892Y2338533D01*
X3482170Y2335007D01*
X3478317Y2322307D01*
X3477260D01*
X3462394Y2319349D01*
X3449791Y2310929D01*
X3441371Y2298326D01*
X3438413Y2283460D01*
Y2283125D01*
X3441371Y2268260D01*
X3449791Y2255657D01*
X3462394Y2247236D01*
X3477260Y2244279D01*
X3478942Y2244613D01*
X3702578D01*
X3717444Y2247571D01*
X3730047Y2255991D01*
X3738468Y2268594D01*
X3741425Y2283460D01*
X3738468Y2298326D01*
X3730047Y2310929D01*
X3717444Y2319349D01*
X3702578Y2322307D01*
X3536432D01*
X3530592Y2335007D01*
X3534412Y2339462D01*
X3909131D01*
X3911363Y2336123D01*
X3923125Y2328263D01*
X3937000Y2325503D01*
X3950875Y2328263D01*
X3962637Y2336123D01*
X3970497Y2347885D01*
X3973257Y2361760D01*
X3970497Y2375635D01*
X3967926Y2379482D01*
X3974715Y2392182D01*
X4026052D01*
X4037425Y2384583D01*
X4051300Y2381823D01*
X4065175Y2384583D01*
X4076937Y2392443D01*
X4084797Y2404205D01*
X4087557Y2418080D01*
X4084797Y2431955D01*
X4082520Y2435362D01*
X4089309Y2448062D01*
X4213750D01*
X4217357Y2439347D01*
X4218211Y2435362D01*
X4210843Y2424335D01*
X4208083Y2410460D01*
X4210843Y2396585D01*
X4218703Y2384823D01*
X4230465Y2376963D01*
X4244340Y2374203D01*
X4258215Y2376963D01*
X4269588Y2384562D01*
X4296689D01*
X4303478Y2371862D01*
X4302283Y2370075D01*
X4299523Y2356200D01*
X4302283Y2342325D01*
X4310143Y2330563D01*
X4321905Y2322703D01*
X4335780Y2319943D01*
X4349655Y2322703D01*
X4361417Y2330563D01*
X4362974Y2332892D01*
X4774875D01*
X4776125Y2320192D01*
X4763865Y2317753D01*
X4752492Y2310154D01*
X4589801D01*
X4579890Y2308183D01*
X4571488Y2302569D01*
X4510668Y2241748D01*
X4505054Y2233346D01*
X4503082Y2223436D01*
Y2161384D01*
X4495483Y2150010D01*
X4492723Y2136136D01*
X4495483Y2122261D01*
X4503343Y2110498D01*
X4515105Y2102639D01*
X4528980Y2099879D01*
X4542855Y2102639D01*
X4554618Y2110498D01*
X4562477Y2122261D01*
X4565237Y2136136D01*
X4562477Y2150010D01*
X4554878Y2161384D01*
Y2212709D01*
X4600528Y2258359D01*
X4752492D01*
X4763865Y2250760D01*
X4777740Y2248000D01*
X4791615Y2250760D01*
X4803377Y2258619D01*
X4811237Y2270382D01*
X4813997Y2284257D01*
X4811237Y2298131D01*
X4803377Y2309894D01*
X4791615Y2317753D01*
X4779355Y2320192D01*
X4780605Y2332892D01*
X4952223D01*
X5445235Y1839879D01*
X5437888Y1822141D01*
X5434833Y1798934D01*
X5437888Y1775726D01*
X5446846Y1754100D01*
X5461096Y1735530D01*
X5479666Y1721280D01*
X5501293Y1712322D01*
X5524500Y1709267D01*
X5547707Y1712322D01*
X5569334Y1721280D01*
X5587904Y1735530D01*
X5602154Y1754100D01*
X5611070Y1775626D01*
X6155410D01*
X6204772Y1726264D01*
Y1677194D01*
X6202443Y1675638D01*
X6194583Y1663875D01*
X6191823Y1650000D01*
X6194583Y1636126D01*
X6202443Y1624363D01*
X6214205Y1616503D01*
X6217860Y1615777D01*
X6216609Y1603077D01*
X5604709D01*
X5595254Y1601196D01*
X5587238Y1595840D01*
X5479877Y1488478D01*
X5478780Y1488697D01*
X5464905Y1485937D01*
X5453143Y1478077D01*
X5445283Y1466315D01*
X5442523Y1452440D01*
X5442741Y1451343D01*
X5301346Y1309948D01*
X4168533D01*
X4163273Y1322648D01*
X4205608Y1364983D01*
X4272432D01*
X4283805Y1357383D01*
X4297680Y1354623D01*
X4311555Y1357383D01*
X4323317Y1365243D01*
X4331177Y1377005D01*
X4333937Y1390880D01*
X4331177Y1404755D01*
X4323317Y1416518D01*
X4311555Y1424377D01*
X4297680Y1427137D01*
X4283805Y1424377D01*
X4272432Y1416778D01*
X4194880D01*
X4184970Y1414806D01*
X4183666Y1413935D01*
X4172236Y1421572D01*
X4173917Y1430020D01*
X4171157Y1443895D01*
X4163297Y1455657D01*
X4151535Y1463517D01*
X4137660Y1466277D01*
X4123785Y1463517D01*
X4112023Y1455657D01*
X4104163Y1443895D01*
X4101495Y1430479D01*
X4071053Y1400038D01*
X3679211D01*
X3675866Y1406296D01*
X3673649Y1412738D01*
X3676077Y1424940D01*
X3673317Y1438815D01*
X3665457Y1450577D01*
X3653695Y1458437D01*
X3639820Y1461197D01*
X3625945Y1458437D01*
X3614572Y1450838D01*
X3373687D01*
X3327932Y1496592D01*
X3319531Y1502206D01*
X3309620Y1504178D01*
X3244020D01*
X3234109Y1502206D01*
X3225708Y1496592D01*
X3076994Y1347879D01*
X3072580Y1348757D01*
X3058705Y1345997D01*
X3046942Y1338138D01*
X3039083Y1326375D01*
X3036323Y1312500D01*
X3039083Y1298625D01*
X3046942Y1286863D01*
X3058705Y1279003D01*
X3072580Y1276243D01*
X3086455Y1279003D01*
X3098217Y1286863D01*
X3106077Y1298625D01*
X3107340Y1304975D01*
X3227434Y1425070D01*
X3227669Y1425067D01*
X3240393Y1420067D01*
X3242183Y1411065D01*
X3250043Y1399303D01*
X3261805Y1391443D01*
X3275221Y1388775D01*
X3308168Y1355828D01*
X3316569Y1350214D01*
X3326480Y1348242D01*
X3591184D01*
X3596044Y1336509D01*
X3505433Y1245898D01*
X3057339D01*
X2944424Y1358812D01*
X2936023Y1364426D01*
X2926112Y1366398D01*
X2704480D01*
X2694569Y1364426D01*
X2686168Y1358812D01*
X2641653Y1314298D01*
X2529900D01*
Y1393962D01*
X2841537D01*
X2851447Y1395934D01*
X2859849Y1401548D01*
X2937965Y1479663D01*
X3176631D01*
X3186542Y1481634D01*
X3194943Y1487248D01*
X3258838Y1551142D01*
X3334361D01*
X3392297Y1493207D01*
X3400699Y1487593D01*
X3410609Y1485622D01*
X3865919D01*
X3875830Y1487593D01*
X3884232Y1493207D01*
X4064387Y1673362D01*
X4114952D01*
X4126325Y1665763D01*
X4140200Y1663003D01*
X4154075Y1665763D01*
X4165837Y1673623D01*
X4173697Y1685385D01*
X4176457Y1699260D01*
X4173697Y1713135D01*
X4165837Y1724897D01*
X4154075Y1732757D01*
X4140200Y1735517D01*
X4126325Y1732757D01*
X4114952Y1725158D01*
X4053660D01*
X4043750Y1723186D01*
X4035348Y1717572D01*
X3855192Y1537417D01*
X3682591D01*
X3677731Y1549150D01*
X3786329Y1657748D01*
X3788315Y1658143D01*
X3800077Y1666003D01*
X3807937Y1677765D01*
X3810697Y1691640D01*
X3807937Y1705515D01*
X3800077Y1717277D01*
X3788315Y1725137D01*
X3774440Y1727897D01*
X3760565Y1725137D01*
X3748803Y1717277D01*
X3740943Y1705515D01*
X3740548Y1703529D01*
X3625360Y1588341D01*
X3609337D01*
X3606810Y1601041D01*
X3613534Y1603826D01*
X3632104Y1618076D01*
X3646354Y1636646D01*
X3655312Y1658273D01*
X3658367Y1681480D01*
X3655312Y1704687D01*
X3646354Y1726314D01*
X3632104Y1744884D01*
X3613534Y1759134D01*
X3591907Y1768092D01*
X3568700Y1771147D01*
X3545493Y1768092D01*
X3523866Y1759134D01*
X3505296Y1744884D01*
X3491046Y1726314D01*
X3482543Y1705786D01*
X3457976D01*
X3380990Y1782771D01*
X3372974Y1788127D01*
X3363519Y1790008D01*
X3185606D01*
X3184841Y1790782D01*
X3184738Y1790937D01*
X3184592Y1791035D01*
X3178566Y1797138D01*
X3182222Y1809472D01*
X3608481D01*
X3609103Y1808542D01*
X3620865Y1800683D01*
X3634740Y1797923D01*
X3648615Y1800683D01*
X3660377Y1808542D01*
X3660999Y1809472D01*
X3816285D01*
X3816907Y1808542D01*
X3828669Y1800683D01*
X3842544Y1797923D01*
X3856419Y1800683D01*
X3868181Y1808542D01*
X3876041Y1820305D01*
X3878801Y1834180D01*
X3876041Y1848054D01*
X3868181Y1859817D01*
X3856419Y1867676D01*
X3842544Y1870436D01*
X3828669Y1867676D01*
X3816907Y1859817D01*
X3816285Y1858887D01*
X3712883D01*
X3709030Y1871587D01*
X3714125Y1874991D01*
X3722546Y1887594D01*
X3725503Y1902460D01*
X3722546Y1917326D01*
X3717736Y1924525D01*
X3725373Y1935954D01*
X3731260Y1934783D01*
X3745135Y1937543D01*
X3756897Y1945403D01*
X3764757Y1957165D01*
X3767517Y1971040D01*
X3767250Y1972384D01*
X3776519Y1985489D01*
X3783771Y1986387D01*
X3811509Y1958649D01*
X3819525Y1953293D01*
X3828980Y1951412D01*
X3929306D01*
X3944141Y1936577D01*
X3943923Y1935480D01*
X3946683Y1921605D01*
X3954543Y1909843D01*
X3966305Y1901983D01*
X3980180Y1899223D01*
X3994055Y1901983D01*
X4005817Y1909843D01*
X4013677Y1921605D01*
X4016437Y1935480D01*
X4013677Y1949355D01*
X4005817Y1961117D01*
X3994055Y1968977D01*
X3980180Y1971737D01*
X3979083Y1971519D01*
X3957011Y1993591D01*
X3948995Y1998947D01*
X3945520Y2007337D01*
X3947637Y2010505D01*
X3950397Y2024380D01*
X3947637Y2038255D01*
X3939777Y2050017D01*
X3928015Y2057877D01*
X3914140Y2060637D01*
X3906687Y2059154D01*
X3880911Y2084931D01*
X3872895Y2090287D01*
X3863440Y2092168D01*
X3274524D01*
X3246889Y2119803D01*
X3247107Y2120900D01*
X3244347Y2134775D01*
X3239172Y2142520D01*
X3244463Y2154870D01*
X3244798Y2155220D01*
X4169082D01*
X4210963Y2113339D01*
X4203223Y2101755D01*
X4200463Y2087880D01*
X4203223Y2074005D01*
X4211083Y2062243D01*
X4222845Y2054383D01*
X4236720Y2051623D01*
X4250595Y2054383D01*
X4262357Y2062243D01*
X4270217Y2074005D01*
X4270836Y2077115D01*
X4285069Y2087233D01*
X4285320Y2087183D01*
X4299195Y2089943D01*
X4310957Y2097803D01*
X4318817Y2109565D01*
X4321577Y2123440D01*
X4318817Y2137315D01*
X4310957Y2149077D01*
X4299195Y2156937D01*
X4285320Y2159697D01*
X4271445Y2156937D01*
X4259861Y2149197D01*
X4199276Y2209782D01*
X4193328Y2213756D01*
X4186312Y2215152D01*
X2903843D01*
X2901640Y2227852D01*
X2910898Y2234038D01*
X2918757Y2245801D01*
X2921517Y2259675D01*
X2918757Y2273550D01*
X2917717Y2275106D01*
X2911060Y2285568D01*
X2917717Y2296030D01*
X2918757Y2297586D01*
X2921517Y2311461D01*
X2918757Y2325336D01*
X2917717Y2326891D01*
X2911060Y2337354D01*
X2917717Y2347816D01*
X2918757Y2349372D01*
X2921517Y2363246D01*
X2918757Y2377121D01*
X2917717Y2378677D01*
X2911060Y2389139D01*
X2917717Y2399601D01*
X2918757Y2401157D01*
X2921517Y2415032D01*
X2918757Y2428907D01*
X2917717Y2430463D01*
X2911060Y2440925D01*
X2917717Y2451387D01*
X2918757Y2452943D01*
X2921517Y2466818D01*
X2918757Y2480692D01*
X2917717Y2482248D01*
X2911060Y2492710D01*
X2917717Y2503173D01*
X2918757Y2504728D01*
X2921517Y2518603D01*
X2918757Y2532478D01*
X2917717Y2534034D01*
X2911060Y2544496D01*
X2917717Y2554958D01*
X2918757Y2556514D01*
X2921517Y2570389D01*
X2918757Y2584263D01*
X2917717Y2585819D01*
X2911060Y2596281D01*
X2917717Y2606744D01*
X2918757Y2608299D01*
X2921517Y2622174D01*
X2918757Y2636049D01*
X2910898Y2647812D01*
X2899135Y2655671D01*
X2885260Y2658431D01*
X2871385Y2655671D01*
X2865517Y2651750D01*
X2852657Y2648136D01*
X2840895Y2655995D01*
X2827020Y2658755D01*
X2813145Y2655995D01*
X2807746Y2652388D01*
X2795046Y2659177D01*
Y2717507D01*
X3655257D01*
X3658930Y2707885D01*
X3659548Y2704807D01*
X3652043Y2693575D01*
X3649283Y2679700D01*
X3652043Y2665825D01*
X3659903Y2654063D01*
X3671665Y2646203D01*
X3685540Y2643443D01*
X3699415Y2646203D01*
X3711177Y2654063D01*
X3711754Y2654925D01*
X4057696D01*
X4058362Y2653928D01*
X4070125Y2646069D01*
X4084000Y2643309D01*
X4097874Y2646069D01*
X4109637Y2653928D01*
X4117496Y2665691D01*
X4120256Y2679565D01*
X4117496Y2693440D01*
X4109902Y2704807D01*
X4110364Y2707215D01*
X4114082Y2717507D01*
X4259353D01*
X4357000Y2619860D01*
D02*
G37*
G36*
X2513362Y2739087D02*
X2493275Y2719000D01*
X2384500D01*
Y2573600D01*
X2529900D01*
Y2682375D01*
X2565032Y2717507D01*
X2781300D01*
Y2215152D01*
X2641318D01*
X2634302Y2213756D01*
X2628354Y2209782D01*
X2574788Y2156216D01*
X2388783D01*
X2381994Y2168916D01*
X2383497Y2171165D01*
X2386257Y2185040D01*
X2383497Y2198915D01*
X2375637Y2210678D01*
X2363875Y2218537D01*
X2350000Y2221297D01*
X2336125Y2218537D01*
X2324362Y2210678D01*
X2316503Y2198915D01*
X2313743Y2185040D01*
X2316503Y2171165D01*
X2324362Y2159403D01*
X2331666Y2154523D01*
Y2144070D01*
X2333061Y2137054D01*
X2337036Y2131106D01*
X2341891Y2126250D01*
X2337036Y2121394D01*
X2333061Y2115446D01*
X2331666Y2108430D01*
Y2097977D01*
X2324362Y2093098D01*
X2316613Y2081500D01*
X2285477D01*
Y2222173D01*
X2286047Y2225040D01*
X2283090Y2239906D01*
X2274669Y2252509D01*
X2262066Y2260929D01*
X2247200Y2263887D01*
X2232334Y2260929D01*
X2219732Y2252509D01*
X2219161Y2251938D01*
X2210741Y2239336D01*
X2207783Y2224470D01*
Y2081500D01*
X2174500D01*
Y2049705D01*
X2170812Y2047058D01*
X2161800Y2044079D01*
X2152555Y2050257D01*
X2138680Y2053017D01*
X2124805Y2050257D01*
X2113043Y2042397D01*
X2105183Y2030635D01*
X2102423Y2016760D01*
X2105183Y2002885D01*
X2113043Y1991123D01*
X2124805Y1983263D01*
X2138680Y1980503D01*
X2152555Y1983263D01*
X2161800Y1989441D01*
X2170812Y1986462D01*
X2174500Y1983815D01*
Y1936100D01*
X2319900D01*
Y2029530D01*
X2332600Y2036319D01*
X2336125Y2033963D01*
X2350000Y2031203D01*
X2363875Y2033963D01*
X2371800Y2039259D01*
X2383841Y2034243D01*
X2384500Y2033633D01*
Y1936100D01*
X2529900D01*
Y1982903D01*
X2580413D01*
X2607153Y1956162D01*
X2612268Y1948508D01*
X2620669Y1942894D01*
X2630580Y1940922D01*
X2635474D01*
Y1836193D01*
X2627191Y1832620D01*
X2622774Y1831641D01*
X2611855Y1838937D01*
X2597980Y1841697D01*
X2584105Y1838937D01*
X2572343Y1831077D01*
X2571449Y1829740D01*
X2554085Y1826066D01*
X2540211Y1828826D01*
X2526336Y1826066D01*
X2524321Y1826901D01*
X2517493Y1835432D01*
X2509885Y1846817D01*
X2498123Y1854677D01*
X2484248Y1857437D01*
X2470373Y1854677D01*
X2458610Y1846817D01*
X2450751Y1835055D01*
X2449600Y1829270D01*
X2436651D01*
X2435501Y1835055D01*
X2427641Y1846817D01*
X2415879Y1854677D01*
X2402004Y1857437D01*
X2388129Y1854677D01*
X2376366Y1846817D01*
X2368507Y1835055D01*
X2367356Y1829270D01*
X2354408D01*
X2353257Y1835055D01*
X2345397Y1846817D01*
X2333635Y1854677D01*
X2319760Y1857437D01*
X2305885Y1854677D01*
X2294122Y1846817D01*
X2286263Y1835055D01*
X2283503Y1821180D01*
X2286263Y1807305D01*
X2294122Y1795543D01*
X2305885Y1787683D01*
X2319760Y1784923D01*
X2325989Y1786162D01*
X2328351Y1774285D01*
X2336211Y1762523D01*
X2340655Y1759553D01*
Y1744279D01*
X2336211Y1741310D01*
X2328351Y1729547D01*
X2325591Y1715672D01*
X2328351Y1701798D01*
X2336211Y1690035D01*
X2347973Y1682176D01*
X2361848Y1679416D01*
X2375723Y1682176D01*
X2387486Y1690035D01*
X2395345Y1701798D01*
X2398105Y1715672D01*
X2395345Y1729547D01*
X2387486Y1741310D01*
X2383042Y1744279D01*
Y1759553D01*
X2387486Y1762523D01*
X2395345Y1774285D01*
X2396496Y1780070D01*
X2409445D01*
X2410595Y1774285D01*
X2418455Y1762523D01*
X2430217Y1754663D01*
X2444092Y1751903D01*
X2457967Y1754663D01*
X2469730Y1762523D01*
X2477589Y1774285D01*
X2479878Y1785792D01*
X2484248Y1784923D01*
X2492211Y1786507D01*
X2506606Y1779240D01*
X2506714Y1778695D01*
X2514573Y1766932D01*
X2526336Y1759073D01*
X2540211Y1756313D01*
X2554086Y1759073D01*
X2565848Y1766932D01*
X2566742Y1768270D01*
X2584106Y1771943D01*
X2597980Y1769183D01*
X2611855Y1771943D01*
X2622774Y1779238D01*
X2627191Y1778260D01*
X2635474Y1774687D01*
Y1666240D01*
X2639500Y1656520D01*
X2649220Y1652494D01*
X2781300D01*
Y1537933D01*
X2593118D01*
X2591435Y1539057D01*
X2577560Y1541817D01*
X2563685Y1539057D01*
X2551923Y1531198D01*
X2547113Y1524000D01*
X2503361D01*
X2497523Y1536700D01*
X2502377Y1543965D01*
X2505137Y1557840D01*
X2502377Y1571715D01*
X2494517Y1583477D01*
X2482755Y1591337D01*
X2468880Y1594097D01*
X2455005Y1591337D01*
X2443243Y1583477D01*
X2435383Y1571715D01*
X2432623Y1557840D01*
X2435383Y1543965D01*
X2440237Y1536700D01*
X2434399Y1524000D01*
X1828757D01*
Y1615298D01*
X1826786Y1625208D01*
X1821172Y1633610D01*
X1738392Y1716390D01*
X1729990Y1722004D01*
X1720080Y1723975D01*
X1710169Y1722004D01*
X1701767Y1716390D01*
X1696154Y1707988D01*
X1694182Y1698077D01*
X1696154Y1688167D01*
X1701767Y1679765D01*
X1776962Y1604570D01*
Y1551915D01*
X1764262Y1547908D01*
X1744395Y1563153D01*
X1718195Y1574005D01*
X1690080Y1577707D01*
X1610370D01*
X1602313Y1587524D01*
X1603616Y1594077D01*
X1600302Y1610738D01*
X1590865Y1624862D01*
X1576741Y1634300D01*
X1560080Y1637614D01*
X1543419Y1634300D01*
X1529295Y1624862D01*
X1519858Y1610738D01*
X1516544Y1594077D01*
X1519858Y1577417D01*
X1516934Y1567779D01*
X1505766Y1563153D01*
X1488440Y1549859D01*
X1475740Y1556122D01*
Y2312033D01*
X1488440Y2318296D01*
X1505766Y2305002D01*
X1516934Y2300376D01*
X1519858Y2290738D01*
X1516544Y2274077D01*
X1519858Y2257417D01*
X1529295Y2243293D01*
X1543419Y2233855D01*
X1560080Y2230541D01*
X1576741Y2233855D01*
X1590865Y2243293D01*
X1600302Y2257417D01*
X1603616Y2274077D01*
X1602313Y2280631D01*
X1610370Y2290448D01*
X1690080D01*
X1718195Y2294150D01*
X1744395Y2305002D01*
X1766892Y2322265D01*
X1784156Y2344763D01*
X1795008Y2370962D01*
X1798709Y2399077D01*
X1795008Y2427193D01*
X1784156Y2453392D01*
X1766892Y2475890D01*
X1744395Y2493153D01*
X1718195Y2504005D01*
X1690080Y2507707D01*
X1560080D01*
X1531965Y2504005D01*
X1505766Y2493153D01*
X1488440Y2479859D01*
X1475740Y2486122D01*
Y2750820D01*
X2278822D01*
X2284083Y2738120D01*
X2264963Y2719000D01*
X2174500D01*
Y2573600D01*
X2319900D01*
Y2664063D01*
X2358130Y2702293D01*
X2366551Y2714896D01*
X2369508Y2729762D01*
Y2750820D01*
X2508502D01*
X2513362Y2739087D01*
D02*
G37*
G36*
X10815000Y2497372D02*
X10785409D01*
X10738892Y2543889D01*
X10738497Y2545875D01*
X10730638Y2557638D01*
X10718875Y2565497D01*
X10705000Y2568257D01*
X10691125Y2565497D01*
X10679363Y2557638D01*
X10671503Y2545875D01*
X10668743Y2532000D01*
X10671503Y2518125D01*
X10679363Y2506363D01*
X10691125Y2498503D01*
X10693111Y2498108D01*
X10749110Y2442109D01*
X10759612Y2435092D01*
X10772000Y2432628D01*
X10815000D01*
Y2257500D01*
X10832995D01*
X10838610Y2249096D01*
X10893357Y2194349D01*
X10903859Y2187332D01*
X10916247Y2184868D01*
X11334351D01*
X11509609Y2009610D01*
X11520112Y2002592D01*
X11532500Y2000128D01*
X11794091D01*
X12005128Y1789091D01*
Y1721016D01*
X11583420D01*
X11574776Y1733716D01*
X11576257Y1741160D01*
X11573497Y1755035D01*
X11565638Y1766797D01*
X11553875Y1774657D01*
X11540000Y1777417D01*
X11526125Y1774657D01*
X11524442Y1773532D01*
X10118809D01*
X10039972Y1852369D01*
Y2018254D01*
X10320020D01*
X10329740Y2022280D01*
X10333766Y2032000D01*
Y2592500D01*
X10482500D01*
X10815000D01*
Y2497372D01*
D02*
G37*
G36*
X7774176Y3160667D02*
X7780867Y3150738D01*
X7783881Y3127844D01*
X7792717Y3106510D01*
X7806775Y3088190D01*
X7825095Y3074133D01*
X7846429Y3065296D01*
X7869323Y3062282D01*
Y3062300D01*
X8370900D01*
Y3062282D01*
X8393794Y3065296D01*
X8415128Y3074133D01*
X8433448Y3088190D01*
X8439701Y3096338D01*
X8456921Y3098375D01*
X8459357Y3096436D01*
Y2782712D01*
X8397240D01*
X8387520Y2778686D01*
X8384323Y2770968D01*
X8384180D01*
Y2770622D01*
X8383494Y2768965D01*
Y2650568D01*
Y2540178D01*
X8384180Y2538521D01*
Y2474548D01*
X8459357D01*
Y2377951D01*
X8453450Y2374604D01*
X8446657Y2372756D01*
X8436515Y2379532D01*
X8422640Y2382292D01*
X8408765Y2379532D01*
X8397003Y2371673D01*
X8391596Y2363581D01*
X8390036Y2363090D01*
X8379044D01*
X8377484Y2363581D01*
X8372077Y2371673D01*
X8360315Y2379532D01*
X8346440Y2382292D01*
X8332565Y2379532D01*
X8320803Y2371673D01*
X8312943Y2359910D01*
X8310183Y2346035D01*
X8312943Y2332161D01*
X8320803Y2320398D01*
X8332565Y2312539D01*
X8346440Y2309779D01*
X8360315Y2312539D01*
X8372077Y2320398D01*
X8377484Y2328490D01*
X8379044Y2328981D01*
X8390036D01*
X8391596Y2328490D01*
X8397003Y2320398D01*
X8408765Y2312539D01*
X8422640Y2309779D01*
X8436515Y2312539D01*
X8446657Y2319315D01*
X8453450Y2317467D01*
X8459357Y2314120D01*
Y2291591D01*
X8453450Y2288244D01*
X8446657Y2286396D01*
X8436515Y2293172D01*
X8422640Y2295932D01*
X8408765Y2293172D01*
X8397003Y2285313D01*
X8391596Y2277221D01*
X8390036Y2276730D01*
X8379044D01*
X8377484Y2277221D01*
X8372077Y2285313D01*
X8360315Y2293172D01*
X8346440Y2295932D01*
X8332565Y2293172D01*
X8320803Y2285313D01*
X8312943Y2273550D01*
X8310183Y2259675D01*
X8312943Y2245801D01*
X8320803Y2234038D01*
X8332565Y2226179D01*
X8346440Y2223419D01*
X8360315Y2226179D01*
X8372077Y2234038D01*
X8377484Y2242130D01*
X8379044Y2242621D01*
X8390036D01*
X8391596Y2242130D01*
X8397003Y2234038D01*
X8408765Y2226179D01*
X8422640Y2223419D01*
X8436515Y2226179D01*
X8446657Y2232955D01*
X8453450Y2231107D01*
X8459357Y2227760D01*
Y2193312D01*
X8040305D01*
X8035445Y2205046D01*
X8046136Y2215736D01*
X8054557Y2228339D01*
X8057514Y2243205D01*
Y2297362D01*
X8054557Y2312228D01*
X8046136Y2324831D01*
X8033533Y2333252D01*
X8018667Y2336209D01*
X8003801Y2333252D01*
X7991199Y2324831D01*
X7982778Y2312228D01*
X7979821Y2297362D01*
Y2259295D01*
X7913838Y2193312D01*
X7466110D01*
X7464859Y2206012D01*
X7470264Y2207088D01*
X7478280Y2212443D01*
X7564225Y2298389D01*
X7577379Y2300705D01*
X7583275Y2296766D01*
X7590230Y2295382D01*
X7736980D01*
X7743935Y2296766D01*
X7749831Y2300705D01*
X7753771Y2306601D01*
X7755154Y2313556D01*
Y2344306D01*
X7753771Y2351261D01*
X7749831Y2357157D01*
X7749832Y2365705D01*
X7753771Y2371601D01*
X7755154Y2378556D01*
Y2409306D01*
X7753771Y2416261D01*
X7749831Y2422157D01*
X7749832Y2430705D01*
X7753771Y2436601D01*
X7755154Y2443556D01*
Y2474306D01*
X7753771Y2481261D01*
X7749831Y2487157D01*
X7749832Y2495705D01*
X7753771Y2501601D01*
X7755154Y2508556D01*
Y2510204D01*
X7766884Y2519504D01*
X7773200Y2518289D01*
Y2496668D01*
X7898600D01*
Y2521002D01*
X7952000D01*
Y2472048D01*
X8067400D01*
Y2521002D01*
X8087000D01*
Y2472048D01*
X8202400D01*
Y2521002D01*
X8254180D01*
Y2474548D01*
X8364580D01*
Y2534349D01*
X8364745Y2534748D01*
Y2710768D01*
X8364580Y2711167D01*
Y2770968D01*
X8254180D01*
Y2724514D01*
X8202400D01*
Y2773468D01*
X8087000D01*
Y2724514D01*
X8067400D01*
Y2773468D01*
X7952000D01*
Y2724514D01*
X7898600D01*
Y2747068D01*
X7773200D01*
Y2724514D01*
X7760901D01*
X7754865Y2735760D01*
X7753771Y2741261D01*
X7749831Y2747157D01*
X7743935Y2751097D01*
X7736980Y2752480D01*
X7676305D01*
Y2718931D01*
X7663605D01*
Y2706231D01*
X7572056D01*
Y2703556D01*
X7573440Y2696601D01*
X7577379Y2690705D01*
X7577379Y2682157D01*
X7573440Y2676261D01*
X7572056Y2669306D01*
Y2638556D01*
X7573440Y2631601D01*
X7577379Y2625705D01*
X7577379Y2617158D01*
X7573440Y2611261D01*
X7572056Y2604306D01*
Y2573556D01*
X7573440Y2566601D01*
X7573780Y2566092D01*
X7568577Y2555070D01*
X7556561Y2553864D01*
X7508698Y2601727D01*
Y2838260D01*
X7553000D01*
Y2998660D01*
X7412600D01*
Y2838260D01*
X7456903D01*
Y2591000D01*
X7458874Y2581089D01*
X7464488Y2572688D01*
X7528693Y2508483D01*
X7537095Y2502869D01*
X7547005Y2500897D01*
X7566830D01*
X7577379Y2489634D01*
Y2487157D01*
X7573440Y2481261D01*
X7572056Y2474306D01*
Y2443556D01*
X7573440Y2436601D01*
X7577379Y2430705D01*
X7576374Y2425545D01*
X7572578Y2418639D01*
X7570412D01*
X7560956Y2416758D01*
X7552941Y2411402D01*
X7431926Y2290388D01*
X7183049D01*
X7180199Y2294462D01*
X7177424Y2303088D01*
X7179771Y2306601D01*
X7181155Y2313556D01*
Y2344306D01*
X7179771Y2351261D01*
X7175831Y2357157D01*
X7175832Y2365705D01*
X7179771Y2371601D01*
X7181155Y2378556D01*
Y2409306D01*
X7179771Y2416261D01*
X7175831Y2422157D01*
X7175832Y2430705D01*
X7179771Y2436601D01*
X7181155Y2443556D01*
Y2446231D01*
X7089605D01*
Y2471631D01*
X7181155D01*
Y2474306D01*
X7179771Y2481261D01*
X7175831Y2487157D01*
X7175832Y2495705D01*
X7179771Y2501601D01*
X7181155Y2508556D01*
Y2539306D01*
X7179771Y2546261D01*
X7175831Y2552157D01*
X7175832Y2560705D01*
X7179771Y2566601D01*
X7181155Y2573556D01*
Y2604306D01*
X7179771Y2611261D01*
X7175831Y2617158D01*
X7175832Y2625705D01*
X7179771Y2631601D01*
X7181155Y2638556D01*
Y2669306D01*
X7179771Y2676261D01*
X7175831Y2682157D01*
X7175832Y2690705D01*
X7179771Y2696601D01*
X7181155Y2703556D01*
Y2734306D01*
X7179771Y2741261D01*
X7175831Y2747157D01*
X7169935Y2751097D01*
X7162980Y2752480D01*
X7122252D01*
X7121505Y2752629D01*
X7115503Y2763081D01*
Y2820613D01*
X7134305D01*
Y2895912D01*
X7134306Y2906012D01*
X7134305Y2918713D01*
Y2938613D01*
X7089605D01*
X7044905D01*
Y2918713D01*
X7044905Y2908613D01*
X7044905Y2895912D01*
Y2820613D01*
X7063708D01*
Y2752480D01*
X7016230D01*
X7009275Y2751097D01*
X7003379Y2747157D01*
X6999440Y2741261D01*
X6998056Y2734306D01*
Y2708529D01*
X6985560Y2703065D01*
X6970454Y2718171D01*
X6962052Y2723785D01*
X6952141Y2725756D01*
X6949780D01*
Y2746559D01*
X6864381D01*
Y2746559D01*
X6861780D01*
Y2746559D01*
X6831780D01*
Y2701859D01*
X6806380D01*
Y2746559D01*
X6784839D01*
Y2761120D01*
X6819141D01*
Y2790423D01*
X6825981D01*
X6835891Y2792394D01*
X6838812Y2794346D01*
X6851401Y2794612D01*
X6851402Y2794612D01*
X6851402Y2794613D01*
X6940801D01*
Y2869912D01*
X6940801Y2880013D01*
X6940801Y2892713D01*
Y2912613D01*
X6896101D01*
X6851401D01*
Y2892713D01*
X6851401Y2882613D01*
X6851401Y2867639D01*
X6846972Y2863210D01*
X6837062Y2861239D01*
X6831841Y2857751D01*
X6819141Y2862498D01*
Y2871521D01*
X6698741D01*
X6690360Y2880749D01*
Y2881892D01*
X6698741Y2891120D01*
X6703060Y2891120D01*
X6746241D01*
Y2946320D01*
Y3001521D01*
X6703060D01*
X6698741Y3001521D01*
X6690360Y3010749D01*
Y3162299D01*
X7769323D01*
X7769939Y3162422D01*
X7774176Y3160667D01*
D02*
G37*
G36*
X13472160Y2446385D02*
Y2266246D01*
X12987756D01*
X12982896Y2277980D01*
X13041888Y2336972D01*
X13043875Y2337367D01*
X13055638Y2345226D01*
X13063496Y2356989D01*
X13066257Y2370864D01*
X13063496Y2384738D01*
X13055638Y2396501D01*
X13043875Y2404360D01*
X13030000Y2407120D01*
X13016125Y2404360D01*
X13004362Y2396501D01*
X12996503Y2384738D01*
X12996107Y2382753D01*
X12317110Y1703754D01*
X12310092Y1693252D01*
X12307628Y1680864D01*
Y1603058D01*
X12306503Y1601375D01*
X12303743Y1587500D01*
X12306503Y1573626D01*
X12314363Y1561863D01*
X12326125Y1554003D01*
X12340000Y1551244D01*
X12353875Y1554003D01*
X12365638Y1561863D01*
X12373497Y1573626D01*
X12376257Y1587500D01*
X12373497Y1601375D01*
X12372372Y1603058D01*
Y1667455D01*
X12873267Y2168349D01*
X12885001Y2163489D01*
Y1510000D01*
X12542106D01*
X12540375Y1511157D01*
X12526500Y1513917D01*
X12512625Y1511157D01*
X12510894Y1510000D01*
X12282879D01*
X12281377Y1517555D01*
X12273517Y1529317D01*
X12273138Y1529571D01*
Y1531863D01*
X12280997Y1543626D01*
X12283757Y1557500D01*
X12280997Y1571375D01*
X12273138Y1583138D01*
X12261375Y1590997D01*
X12247500Y1593757D01*
X12233626Y1590997D01*
X12229903Y1588510D01*
X12220040Y1583976D01*
X12210178Y1588510D01*
X12206455Y1590997D01*
X12201699Y1591943D01*
X12202658Y1596760D01*
Y1616829D01*
X12205440Y1618958D01*
X12215358Y1622455D01*
X12224265Y1616503D01*
X12238140Y1613744D01*
X12252015Y1616503D01*
X12263778Y1624363D01*
X12271637Y1636126D01*
X12274397Y1650000D01*
X12271637Y1663875D01*
X12270512Y1665558D01*
Y1729451D01*
X12980109Y2439048D01*
X13434821D01*
X13447209Y2441512D01*
X13457710Y2448530D01*
X13460426Y2451246D01*
X13472160Y2446385D01*
D02*
G37*
G36*
X14514999Y1540755D02*
X13196820D01*
Y1625600D01*
X12898746D01*
Y2163489D01*
X12897701Y2166015D01*
Y2168749D01*
X12895767Y2170683D01*
X12894720Y2173209D01*
X12890906Y2185989D01*
X12958315Y2253397D01*
X12985591D01*
X12987756Y2252500D01*
X13472160D01*
X13474327Y2253398D01*
X14514999D01*
Y1540755D01*
D02*
G37*
G36*
X6733044Y2660998D02*
X6735015Y2651087D01*
X6740629Y2642686D01*
X6767647Y2615668D01*
X6776049Y2610054D01*
X6785959Y2608082D01*
X6788545D01*
X6797221Y2595382D01*
X6796946Y2594000D01*
Y2549000D01*
X6798513Y2541119D01*
X6802978Y2534437D01*
X6809660Y2529972D01*
X6817541Y2528404D01*
X6845644D01*
Y2523919D01*
X6847615Y2514008D01*
X6853229Y2505606D01*
X6921540Y2437296D01*
X6916279Y2424596D01*
X6884241D01*
Y2381500D01*
Y2338404D01*
X6925541D01*
X6933353Y2327009D01*
X6933662Y2323703D01*
X6803272Y2193312D01*
X6746845D01*
X6744177Y2206727D01*
X6743137Y2208283D01*
X6736480Y2218745D01*
X6743137Y2229207D01*
X6744177Y2230763D01*
X6746937Y2244638D01*
X6744177Y2258512D01*
X6743137Y2260068D01*
X6736480Y2270530D01*
X6743137Y2280993D01*
X6744177Y2282548D01*
X6746937Y2296423D01*
X6744177Y2310298D01*
X6743137Y2311854D01*
X6736480Y2322316D01*
X6743137Y2332778D01*
X6744177Y2334334D01*
X6746937Y2348209D01*
X6744177Y2362083D01*
X6743137Y2363639D01*
X6736480Y2374101D01*
X6743137Y2384564D01*
X6744177Y2386119D01*
X6746937Y2399994D01*
X6744177Y2413869D01*
X6736317Y2425632D01*
X6733310Y2427641D01*
X6732313Y2429900D01*
X6731237Y2444125D01*
X6732569Y2446119D01*
X6734137Y2454000D01*
Y2499000D01*
X6732569Y2506881D01*
X6728104Y2513563D01*
X6721423Y2518028D01*
X6713541Y2519596D01*
X6690360D01*
Y2751892D01*
X6698741Y2761120D01*
X6733044D01*
Y2660998D01*
D02*
G37*
G36*
X10320020Y2032000D02*
X9183335D01*
Y2720000D01*
X10320020D01*
Y2032000D01*
D02*
G37*
G36*
X2923540Y1992718D02*
X2651760D01*
Y2137410D01*
X2923540D01*
Y1992718D01*
D02*
G37*
G36*
X12132500Y1959887D02*
X12124710Y1956354D01*
X12119800Y1955225D01*
X12109015Y1962431D01*
X12095140Y1965191D01*
X12081265Y1962431D01*
X12069503Y1954571D01*
X12061643Y1942809D01*
X12061316Y1941165D01*
X12047536Y1936985D01*
X11845636Y2138885D01*
X11835134Y2145903D01*
X11822745Y2148367D01*
X11574868D01*
X11430345Y2292891D01*
X11419843Y2299908D01*
X11407454Y2302372D01*
X10966586D01*
X10951832Y2317126D01*
Y2423485D01*
X10949368Y2435873D01*
X10942350Y2446375D01*
X10900835Y2487890D01*
X10890333Y2494908D01*
X10877945Y2497372D01*
X10828746D01*
Y2592500D01*
X10824720Y2602220D01*
X10815000Y2606247D01*
X10790901D01*
Y2950838D01*
X12132500D01*
Y1959887D01*
D02*
G37*
G36*
X3497509Y1935218D02*
X3499451Y1928222D01*
X3492171Y1917326D01*
X3489213Y1902460D01*
X3492171Y1887594D01*
X3500591Y1874991D01*
X3505686Y1871587D01*
X3501833Y1858887D01*
X3134241D01*
X3124786Y1857006D01*
X3116770Y1851651D01*
X3066458Y1801339D01*
X3065361Y1801557D01*
X3051487Y1798797D01*
X3039724Y1790937D01*
X3031865Y1779175D01*
X3029105Y1765300D01*
X3031865Y1751425D01*
X3039724Y1739663D01*
X3051487Y1731803D01*
X3055755Y1730954D01*
X3062222Y1717773D01*
X3059462Y1703899D01*
X3062222Y1690024D01*
X3070081Y1678261D01*
X3081844Y1670402D01*
X3095719Y1667642D01*
X3109593Y1670402D01*
X3121356Y1678261D01*
X3121977Y1679191D01*
X3157219D01*
X3173307Y1663103D01*
X3173432Y1649064D01*
X3172433Y1646909D01*
X3118335Y1592812D01*
X2907560D01*
X2895172Y1590348D01*
X2884669Y1583330D01*
X2839272Y1537933D01*
X2795046D01*
Y1652494D01*
X2791020Y1662214D01*
X2781300Y1666240D01*
X2649220D01*
Y1668975D01*
Y1774687D01*
X2648211Y1777123D01*
X2648249Y1779761D01*
X2646277Y1781792D01*
X2645194Y1784407D01*
X2642757Y1785416D01*
X2640920Y1787308D01*
X2632652Y1791036D01*
X2633784Y1803166D01*
X2634237Y1805440D01*
X2633784Y1807714D01*
X2632652Y1819844D01*
X2640920Y1823571D01*
X2642757Y1825463D01*
X2645194Y1826473D01*
X2646277Y1829088D01*
X2648249Y1831119D01*
X2648211Y1833757D01*
X2649220Y1836193D01*
Y1940922D01*
X3494185D01*
X3497509Y1935218D01*
D02*
G37*
G36*
X13472160Y2926141D02*
X13449271Y2903250D01*
X13442252Y2892748D01*
X13439787Y2880360D01*
Y2522169D01*
X13421411Y2503792D01*
X12966701D01*
X12954312Y2501328D01*
X12943810Y2494310D01*
X12215358Y1765859D01*
X12214894Y1765864D01*
X12202658Y1769765D01*
Y1850663D01*
X12252006Y1900011D01*
X12265421Y1902679D01*
X12277184Y1910539D01*
X12285043Y1922301D01*
X12287803Y1936176D01*
X12285043Y1950051D01*
X12277184Y1961814D01*
X12265421Y1969673D01*
X12251546Y1972433D01*
X12237671Y1969673D01*
X12225909Y1961814D01*
X12218049Y1950051D01*
X12215381Y1936636D01*
X12158448Y1879702D01*
X12152834Y1871301D01*
X12150862Y1861390D01*
Y1857965D01*
X12138162Y1852029D01*
X12132500Y1856763D01*
Y1944793D01*
X12138177Y1947368D01*
X12139896Y1949204D01*
X12142220Y1950167D01*
X12143350Y1952894D01*
X12145367Y1955049D01*
X12145284Y1957563D01*
X12146246Y1959887D01*
Y2950838D01*
X12147357Y2952500D01*
X13472160D01*
Y2926141D01*
D02*
G37*
G36*
X7437405Y2202927D02*
X7429185Y2190227D01*
X7063740D01*
X7048874Y2187269D01*
X7036271Y2178849D01*
X7027851Y2166246D01*
X7024893Y2151380D01*
Y1886330D01*
X6835611Y1697048D01*
X6827191Y1684446D01*
X6824233Y1669580D01*
Y1551940D01*
X6827191Y1537074D01*
X6830957Y1531437D01*
X6825599Y1520432D01*
X6813003Y1518416D01*
X6812118Y1519007D01*
X6798243Y1521767D01*
X6784369Y1519007D01*
X6772606Y1511147D01*
X6764747Y1499385D01*
X6761987Y1485510D01*
X6764747Y1471635D01*
X6772606Y1459872D01*
X6774798Y1458408D01*
X6770945Y1445708D01*
X6731274D01*
X6643420Y1533562D01*
X6635859Y1538614D01*
X6626939Y1540388D01*
X5678462D01*
X5669542Y1538614D01*
X5661981Y1533562D01*
X5381086Y1252667D01*
X5329308D01*
X5325456Y1265367D01*
X5329051Y1267769D01*
X5477683Y1416401D01*
X5478780Y1416183D01*
X5492655Y1418943D01*
X5504417Y1426802D01*
X5512277Y1438565D01*
X5515037Y1452440D01*
X5514819Y1453537D01*
X5614943Y1553661D01*
X6513289D01*
X6522744Y1555542D01*
X6530760Y1560898D01*
X6745931Y1776069D01*
X6751287Y1784085D01*
X6753168Y1793540D01*
Y1955726D01*
X7002648Y2205207D01*
X7436382D01*
X7437405Y2202927D01*
D02*
G37*
G36*
X2468880Y1521583D02*
X2482754Y1524343D01*
X2488615Y1522687D01*
X2489392Y1521475D01*
X2490871Y1518258D01*
X2492312Y1516923D01*
X2492971Y1515895D01*
X2493641Y1514280D01*
X2496399Y1513137D01*
X2498589Y1511108D01*
X2501069Y1511203D01*
X2503361Y1510254D01*
X2537452D01*
X2541304Y1505560D01*
X2544063Y1491686D01*
X2551923Y1479923D01*
X2563685Y1472064D01*
X2577560Y1469304D01*
X2591435Y1472064D01*
X2593118Y1473189D01*
X2840280D01*
X2845541Y1460489D01*
X2830810Y1445758D01*
X2529900D01*
Y1446500D01*
X2384500D01*
Y1385200D01*
X2371800Y1378412D01*
X2366075Y1382237D01*
X2352200Y1384997D01*
X2338326Y1382237D01*
X2332600Y1378412D01*
X2319900Y1385200D01*
Y1446500D01*
X2174500D01*
Y1314298D01*
X1994869D01*
X1991017Y1326998D01*
X1994137Y1329083D01*
X2001997Y1340845D01*
X2004757Y1354720D01*
X2001997Y1368595D01*
X1994137Y1380358D01*
X1982375Y1388217D01*
X1968500Y1390977D01*
X1954625Y1388217D01*
X1942863Y1380358D01*
X1935003Y1368595D01*
X1932243Y1354720D01*
X1935003Y1340845D01*
X1942863Y1329083D01*
X1945983Y1326998D01*
X1942131Y1314298D01*
X1895895D01*
X1828757Y1381435D01*
Y1510254D01*
X2434399D01*
X2436691Y1511203D01*
X2439171Y1511108D01*
X2441361Y1513137D01*
X2444119Y1514280D01*
X2444789Y1515895D01*
X2445448Y1516923D01*
X2446889Y1518258D01*
X2448368Y1521475D01*
X2449145Y1522687D01*
X2455006Y1524343D01*
X2468880Y1521583D01*
D02*
G37*
G36*
X7356382Y1334192D02*
X7354223Y1323340D01*
X7356983Y1309465D01*
X7364843Y1297703D01*
X7376605Y1289843D01*
X7390480Y1287083D01*
X7391577Y1287301D01*
X7500009Y1178869D01*
X7508025Y1173513D01*
X7517480Y1171632D01*
X8317501D01*
Y1139198D01*
X7869323D01*
Y1139216D01*
X7846429Y1136202D01*
X7825095Y1127366D01*
X7806775Y1113308D01*
X7792717Y1094988D01*
X7783881Y1073654D01*
X7780867Y1050760D01*
X7774176Y1040831D01*
X7770041Y1039119D01*
X7769245Y1039277D01*
X6061236D01*
X6060620Y1039154D01*
X6052794Y1042396D01*
X6049559Y1050206D01*
X6049685Y1050838D01*
Y1200838D01*
X6049693D01*
X6046679Y1223732D01*
X6037842Y1245066D01*
X6023784Y1263386D01*
X6007643Y1275772D01*
X6009010Y1284470D01*
X6011029Y1288472D01*
X6382886D01*
X6392944Y1275772D01*
X6392063Y1271344D01*
X6394823Y1257469D01*
X6402683Y1245706D01*
X6414445Y1237847D01*
X6428320Y1235087D01*
X6442195Y1237847D01*
X6453958Y1245706D01*
X6455514Y1248036D01*
X7176402D01*
X7202283Y1222154D01*
X7209845Y1217102D01*
X7218764Y1215328D01*
X7338381D01*
X7339082Y1214278D01*
X7350845Y1206419D01*
X7364720Y1203659D01*
X7378595Y1206419D01*
X7390357Y1214278D01*
X7398217Y1226041D01*
X7400977Y1239916D01*
X7398217Y1253790D01*
X7390357Y1265553D01*
X7378595Y1273412D01*
X7364720Y1276172D01*
X7350845Y1273412D01*
X7339082Y1265553D01*
X7336670Y1261943D01*
X7228419D01*
X7214590Y1275772D01*
X7219850Y1288472D01*
X7259190D01*
X7263843Y1289398D01*
X7275480Y1287083D01*
X7289355Y1289843D01*
X7301117Y1297703D01*
X7308977Y1309465D01*
X7311737Y1323340D01*
X7309578Y1334192D01*
X7316622Y1346892D01*
X7349338D01*
X7356382Y1334192D01*
D02*
G37*
%LPC*%
G36*
X2330662Y3096113D02*
X2316787Y3093353D01*
X2305024Y3085494D01*
X2297165Y3073731D01*
X2294405Y3059856D01*
X2297165Y3045981D01*
X2305024Y3034219D01*
X2316787Y3026359D01*
X2330662Y3023599D01*
X2344536Y3026359D01*
X2356299Y3034219D01*
X2364158Y3045981D01*
X2366918Y3059856D01*
X2364158Y3073731D01*
X2356299Y3085494D01*
X2344536Y3093353D01*
X2330662Y3096113D01*
D02*
G37*
G36*
X2562711Y3094717D02*
X2548836Y3091957D01*
X2537074Y3084097D01*
X2529214Y3072335D01*
X2526454Y3058460D01*
X2529214Y3044585D01*
X2537074Y3032822D01*
X2548836Y3024963D01*
X2562711Y3022203D01*
X2576586Y3024963D01*
X2588349Y3032822D01*
X2596208Y3044585D01*
X2598968Y3058460D01*
X2596208Y3072335D01*
X2588349Y3084097D01*
X2576586Y3091957D01*
X2562711Y3094717D01*
D02*
G37*
G36*
X5757259Y3055620D02*
X5681964D01*
Y2980325D01*
X5692471Y2981708D01*
X5714097Y2990666D01*
X5732668Y3004916D01*
X5746918Y3023486D01*
X5755875Y3045113D01*
X5757259Y3055620D01*
D02*
G37*
G36*
X5656564D02*
X5581269D01*
X5582652Y3045113D01*
X5591610Y3023486D01*
X5605860Y3004916D01*
X5624430Y2990666D01*
X5646056Y2981708D01*
X5656564Y2980325D01*
Y3055620D01*
D02*
G37*
G36*
X5635924Y2893558D02*
X4549140D01*
X4539229Y2891586D01*
X4530828Y2885972D01*
X4445668Y2800812D01*
X4440054Y2792410D01*
X4438082Y2782500D01*
Y2749484D01*
X4430483Y2738110D01*
X4427723Y2724236D01*
X4430483Y2710361D01*
X4438342Y2698598D01*
X4450105Y2690739D01*
X4463980Y2687979D01*
X4477855Y2690739D01*
X4488547Y2697883D01*
X4492621Y2699365D01*
X4500338D01*
X4504413Y2697883D01*
X4515105Y2690739D01*
X4528980Y2687979D01*
X4542855Y2690739D01*
X4554618Y2698598D01*
X4562477Y2710361D01*
X4565237Y2724236D01*
X4562477Y2738110D01*
X4554878Y2749484D01*
Y2768193D01*
X4580187Y2793502D01*
X5448198D01*
X5450725Y2780802D01*
X5427208Y2771061D01*
X5399749Y2749991D01*
X5378679Y2722532D01*
X5365434Y2690555D01*
X5360916Y2656240D01*
X5365434Y2621925D01*
X5378679Y2589948D01*
X5399749Y2562489D01*
X5427208Y2541419D01*
X5459185Y2528174D01*
X5493500Y2523656D01*
X5527815Y2528174D01*
X5559792Y2541419D01*
X5587251Y2562489D01*
X5608321Y2589948D01*
X5621567Y2621925D01*
X5626084Y2656240D01*
X5621567Y2690555D01*
X5608321Y2722532D01*
X5587251Y2749991D01*
X5559792Y2771061D01*
X5536275Y2780802D01*
X5538802Y2793502D01*
X5592513D01*
X5628035Y2757981D01*
X5630703Y2744565D01*
X5638563Y2732803D01*
X5650325Y2724943D01*
X5664200Y2722183D01*
X5678075Y2724943D01*
X5689837Y2732803D01*
X5697697Y2744565D01*
X5698814Y2750184D01*
X5712595Y2754364D01*
X5729180Y2737779D01*
X5737582Y2732165D01*
X5747492Y2730194D01*
X5753950D01*
X5756771Y2726175D01*
X5749301Y2714712D01*
X5747500Y2715070D01*
X5724987Y2710592D01*
X5705901Y2697839D01*
X5693148Y2678753D01*
X5688670Y2656240D01*
X5693148Y2633727D01*
X5705901Y2614641D01*
X5724987Y2601888D01*
X5747500Y2597410D01*
X5770013Y2601888D01*
X5789099Y2614641D01*
X5801852Y2633727D01*
X5806330Y2656240D01*
X5804035Y2667780D01*
X5815739Y2674036D01*
X5828009Y2661767D01*
Y2474488D01*
X5820409Y2463115D01*
X5817650Y2449240D01*
X5820409Y2435365D01*
X5828269Y2423603D01*
X5840031Y2415743D01*
X5853906Y2412983D01*
X5867781Y2415743D01*
X5879544Y2423603D01*
X5887403Y2435365D01*
X5890163Y2449240D01*
X5887403Y2463115D01*
X5879804Y2474488D01*
Y2578045D01*
X5892504Y2582357D01*
X5907749Y2562489D01*
X5935208Y2541419D01*
X5967185Y2528174D01*
X6001500Y2523656D01*
X6035815Y2528174D01*
X6067792Y2541419D01*
X6095251Y2562489D01*
X6116321Y2589948D01*
X6129567Y2621925D01*
X6134084Y2656240D01*
X6129567Y2690555D01*
X6116321Y2722532D01*
X6095251Y2749991D01*
X6067792Y2771061D01*
X6035815Y2784307D01*
X6001500Y2788824D01*
X5967185Y2784307D01*
X5935208Y2771061D01*
X5907749Y2749991D01*
X5886679Y2722532D01*
X5878412Y2702574D01*
X5863431Y2699594D01*
X5788621Y2774404D01*
X5780219Y2780018D01*
X5770308Y2781989D01*
X5758219D01*
X5654236Y2885972D01*
X5645834Y2891586D01*
X5635924Y2893558D01*
D02*
G37*
G36*
X1334900Y2620061D02*
X1321026Y2617301D01*
X1309263Y2609442D01*
X1301404Y2597679D01*
X1298644Y2583804D01*
X1301404Y2569930D01*
X1309263Y2558167D01*
X1321026Y2550308D01*
X1334900Y2547548D01*
X1348775Y2550308D01*
X1360538Y2558167D01*
X1368397Y2569930D01*
X1371157Y2583804D01*
X1368397Y2597679D01*
X1360538Y2609442D01*
X1348775Y2617301D01*
X1334900Y2620061D01*
D02*
G37*
G36*
X6287501Y2286674D02*
X6273626Y2283914D01*
X6261863Y2276055D01*
X6254004Y2264292D01*
X6251244Y2250417D01*
X6254004Y2236543D01*
X6261863Y2224780D01*
X6273626Y2216921D01*
X6287501Y2214161D01*
X6301375Y2216921D01*
X6313138Y2224780D01*
X6320997Y2236543D01*
X6323757Y2250417D01*
X6320997Y2264292D01*
X6313138Y2276055D01*
X6301375Y2283914D01*
X6287501Y2286674D01*
D02*
G37*
G36*
X6001500Y2471324D02*
X5967185Y2466807D01*
X5935208Y2453561D01*
X5907749Y2432491D01*
X5886679Y2405032D01*
X5873434Y2373055D01*
X5868916Y2338740D01*
X5873434Y2304425D01*
X5886679Y2272448D01*
X5907749Y2244989D01*
X5935208Y2223919D01*
X5967185Y2210674D01*
X6001500Y2206156D01*
X6035815Y2210674D01*
X6067792Y2223919D01*
X6095251Y2244989D01*
X6116321Y2272448D01*
X6129567Y2304425D01*
X6134084Y2338740D01*
X6129567Y2373055D01*
X6116321Y2405032D01*
X6095251Y2432491D01*
X6067792Y2453561D01*
X6035815Y2466807D01*
X6001500Y2471324D01*
D02*
G37*
G36*
X5493500D02*
X5459185Y2466807D01*
X5427208Y2453561D01*
X5399749Y2432491D01*
X5378679Y2405032D01*
X5365434Y2373055D01*
X5360916Y2338740D01*
X5365434Y2304425D01*
X5378679Y2272448D01*
X5399749Y2244989D01*
X5427208Y2223919D01*
X5459185Y2210674D01*
X5493500Y2206156D01*
X5527815Y2210674D01*
X5559792Y2223919D01*
X5587251Y2244989D01*
X5608321Y2272448D01*
X5621567Y2304425D01*
X5626084Y2338740D01*
X5621567Y2373055D01*
X5608321Y2405032D01*
X5587251Y2432491D01*
X5559792Y2453561D01*
X5527815Y2466807D01*
X5493500Y2471324D01*
D02*
G37*
G36*
X5849100Y2207070D02*
X5826587Y2202592D01*
X5807501Y2189839D01*
X5794748Y2170753D01*
X5790270Y2148240D01*
X5794748Y2125727D01*
X5807501Y2106641D01*
X5826587Y2093888D01*
X5849100Y2089410D01*
X5871613Y2093888D01*
X5890699Y2106641D01*
X5903452Y2125727D01*
X5907930Y2148240D01*
X5903452Y2170753D01*
X5890699Y2189839D01*
X5871613Y2202592D01*
X5849100Y2207070D01*
D02*
G37*
G36*
X5645900D02*
X5623387Y2202592D01*
X5604301Y2189839D01*
X5591548Y2170753D01*
X5587070Y2148240D01*
X5591548Y2125727D01*
X5604301Y2106641D01*
X5623387Y2093888D01*
X5645900Y2089410D01*
X5668413Y2093888D01*
X5687499Y2106641D01*
X5700252Y2125727D01*
X5704730Y2148240D01*
X5700252Y2170753D01*
X5687499Y2189839D01*
X5668413Y2202592D01*
X5645900Y2207070D01*
D02*
G37*
G36*
X1334900Y1367617D02*
X1321026Y1364857D01*
X1309263Y1356998D01*
X1301404Y1345235D01*
X1298644Y1331360D01*
X1301404Y1317485D01*
X1309263Y1305723D01*
X1321026Y1297863D01*
X1334900Y1295103D01*
X1348775Y1297863D01*
X1360538Y1305723D01*
X1368397Y1317485D01*
X1371157Y1331360D01*
X1368397Y1345235D01*
X1360538Y1356998D01*
X1348775Y1364857D01*
X1334900Y1367617D01*
D02*
G37*
G36*
X2604000Y1183757D02*
X2590125Y1180997D01*
X2578362Y1173138D01*
X2570503Y1161375D01*
X2567743Y1147500D01*
X2570503Y1133625D01*
X2578362Y1121863D01*
X2590125Y1114003D01*
X2604000Y1111243D01*
X2617874Y1114003D01*
X2629637Y1121863D01*
X2637496Y1133625D01*
X2640256Y1147500D01*
X2637496Y1161375D01*
X2629637Y1173138D01*
X2617874Y1180997D01*
X2604000Y1183757D01*
D02*
G37*
G36*
X9632607Y1989816D02*
X9618732Y1987056D01*
X9606969Y1979197D01*
X9599110Y1967434D01*
X9596350Y1953559D01*
X9599110Y1939685D01*
X9606969Y1927922D01*
X9618732Y1920063D01*
X9632607Y1917303D01*
X9646481Y1920063D01*
X9658244Y1927922D01*
X9666103Y1939685D01*
X9668863Y1953559D01*
X9666103Y1967434D01*
X9658244Y1979197D01*
X9646481Y1987056D01*
X9632607Y1989816D01*
D02*
G37*
G36*
X9824720Y1988757D02*
X9810845Y1985997D01*
X9799083Y1978138D01*
X9791223Y1966375D01*
X9788463Y1952500D01*
X9791223Y1938625D01*
X9799083Y1926863D01*
X9810845Y1919003D01*
X9824720Y1916243D01*
X9838595Y1919003D01*
X9850357Y1926863D01*
X9858217Y1938625D01*
X9860977Y1952500D01*
X9858217Y1966375D01*
X9850357Y1978138D01*
X9838595Y1985997D01*
X9824720Y1988757D01*
D02*
G37*
G36*
X7236460Y1799017D02*
X7222585Y1796257D01*
X7210823Y1788397D01*
X7205416Y1780305D01*
X7203856Y1779814D01*
X7192864D01*
X7191304Y1780305D01*
X7185897Y1788397D01*
X7174135Y1796257D01*
X7160260Y1799017D01*
X7146385Y1796257D01*
X7134623Y1788397D01*
X7126763Y1776635D01*
X7124003Y1762760D01*
X7126763Y1748885D01*
X7134623Y1737123D01*
X7146385Y1729263D01*
X7160260Y1726503D01*
X7174135Y1729263D01*
X7185897Y1737123D01*
X7191304Y1745215D01*
X7192864Y1745706D01*
X7203856D01*
X7205416Y1745215D01*
X7210823Y1737123D01*
X7222585Y1729263D01*
X7236460Y1726503D01*
X7250335Y1729263D01*
X7262097Y1737123D01*
X7269957Y1748885D01*
X7272717Y1762760D01*
X7269957Y1776635D01*
X7262097Y1788397D01*
X7250335Y1796257D01*
X7236460Y1799017D01*
D02*
G37*
G36*
X7857500Y1846257D02*
X7843625Y1843497D01*
X7831862Y1835637D01*
X7824003Y1823875D01*
X7821243Y1810000D01*
X7824003Y1796125D01*
X7831862Y1784362D01*
X7843625Y1776503D01*
X7857500Y1773743D01*
X7871375Y1776503D01*
X7883137Y1784362D01*
X7890997Y1796125D01*
X7893757Y1810000D01*
X7890997Y1823875D01*
X7883137Y1835637D01*
X7871375Y1843497D01*
X7857500Y1846257D01*
D02*
G37*
G36*
X7236460Y1712657D02*
X7222585Y1709897D01*
X7210823Y1702037D01*
X7205416Y1693945D01*
X7203856Y1693454D01*
X7192864D01*
X7191304Y1693945D01*
X7185897Y1702037D01*
X7174135Y1709897D01*
X7160260Y1712657D01*
X7146385Y1709897D01*
X7134623Y1702037D01*
X7126763Y1690275D01*
X7124003Y1676400D01*
X7126763Y1662525D01*
X7134623Y1650763D01*
X7146385Y1642903D01*
X7160260Y1640143D01*
X7174135Y1642903D01*
X7185897Y1650763D01*
X7191304Y1658855D01*
X7192864Y1659346D01*
X7203856D01*
X7205416Y1658855D01*
X7210823Y1650763D01*
X7222585Y1642903D01*
X7236460Y1640143D01*
X7250335Y1642903D01*
X7262097Y1650763D01*
X7269957Y1662525D01*
X7272717Y1676400D01*
X7269957Y1690275D01*
X7262097Y1702037D01*
X7250335Y1709897D01*
X7236460Y1712657D01*
D02*
G37*
G36*
Y1611057D02*
X7222585Y1608297D01*
X7210823Y1600437D01*
X7205416Y1592345D01*
X7203856Y1591854D01*
X7192864D01*
X7191304Y1592345D01*
X7185897Y1600437D01*
X7174135Y1608297D01*
X7160260Y1611057D01*
X7146385Y1608297D01*
X7134623Y1600437D01*
X7126763Y1588675D01*
X7124003Y1574800D01*
X7126763Y1560925D01*
X7134623Y1549163D01*
X7146385Y1541303D01*
X7160260Y1538543D01*
X7174135Y1541303D01*
X7185897Y1549163D01*
X7191304Y1557255D01*
X7192864Y1557746D01*
X7203856D01*
X7205416Y1557255D01*
X7210823Y1549163D01*
X7222585Y1541303D01*
X7236460Y1538543D01*
X7250335Y1541303D01*
X7262097Y1549163D01*
X7269957Y1560925D01*
X7272717Y1574800D01*
X7269957Y1588675D01*
X7262097Y1600437D01*
X7250335Y1608297D01*
X7236460Y1611057D01*
D02*
G37*
G36*
X14672501Y2266246D02*
X14662779Y2262220D01*
X14658752Y2252500D01*
X14658754Y1567500D01*
X14660739Y1562707D01*
X14662659Y1557903D01*
X14662744Y1557866D01*
X14662781Y1557780D01*
X14667561Y1555799D01*
X14672327Y1553755D01*
X14758754Y1552665D01*
Y1152500D01*
X14762781Y1142780D01*
X14772501Y1138754D01*
X14937500D01*
X14947220Y1142780D01*
X14951247Y1152500D01*
Y1517191D01*
X15128239Y1517191D01*
X15137959Y1521217D01*
X15141986Y1530938D01*
X15141986Y2252499D01*
X15137959Y2262220D01*
X15128239Y2266246D01*
X14672501Y2266246D01*
D02*
G37*
G36*
X7399780Y1824081D02*
X7385905Y1821321D01*
X7374143Y1813462D01*
X7366283Y1801699D01*
X7363523Y1787824D01*
X7366283Y1773950D01*
X7373883Y1762576D01*
Y1642460D01*
X7375854Y1632550D01*
X7381468Y1624148D01*
X7467154Y1538462D01*
X7466744Y1536400D01*
X7469504Y1522525D01*
X7477363Y1510763D01*
X7489126Y1502903D01*
X7503000Y1500143D01*
X7516875Y1502903D01*
X7528638Y1510763D01*
X7536497Y1522525D01*
X7539257Y1536400D01*
X7536497Y1550275D01*
X7528638Y1562038D01*
X7516875Y1569897D01*
X7507005Y1571860D01*
X7425678Y1653187D01*
Y1762576D01*
X7433277Y1773950D01*
X7436037Y1787824D01*
X7433277Y1801699D01*
X7425418Y1813462D01*
X7413655Y1821321D01*
X7399780Y1824081D01*
D02*
G37*
G36*
X7665000Y2084106D02*
X7650134Y2081149D01*
X7637531Y2072728D01*
X7629110Y2060126D01*
X7626153Y2045260D01*
X7629110Y2030394D01*
X7637531Y2017791D01*
X7713334Y1941989D01*
X7725936Y1933568D01*
X7740802Y1930611D01*
X7981413D01*
X7985265Y1917911D01*
X7981863Y1915638D01*
X7974003Y1903875D01*
X7971243Y1890000D01*
X7974003Y1876125D01*
X7980182Y1866877D01*
Y1729588D01*
X7972583Y1718215D01*
X7969823Y1704340D01*
X7972583Y1690465D01*
X7980443Y1678703D01*
X7992205Y1670843D01*
X8006080Y1668083D01*
X8019955Y1670843D01*
X8031717Y1678703D01*
X8034222Y1682452D01*
X8046922Y1678599D01*
Y1594308D01*
X8039323Y1582935D01*
X8036563Y1569060D01*
X8039323Y1555185D01*
X8047183Y1543423D01*
X8058945Y1535563D01*
X8072820Y1532803D01*
X8086695Y1535563D01*
X8098458Y1543423D01*
X8106317Y1555185D01*
X8109077Y1569060D01*
X8106317Y1582935D01*
X8098718Y1594308D01*
Y1722603D01*
D01*
X8110381Y1724943D01*
X8111418Y1724715D01*
X8119581Y1712497D01*
X8216985Y1615093D01*
X8229588Y1606672D01*
X8244454Y1603715D01*
X8595023D01*
X8597423Y1591650D01*
X8605283Y1579887D01*
Y1579376D01*
X8597423Y1567614D01*
X8594663Y1553739D01*
X8597423Y1539864D01*
X8605283Y1528102D01*
Y1527591D01*
X8597423Y1515828D01*
X8594663Y1501953D01*
X8597423Y1488079D01*
X8605283Y1476316D01*
X8617045Y1468457D01*
X8630920Y1465697D01*
X8644795Y1468457D01*
X8650663Y1472378D01*
X8663523Y1475991D01*
X8675285Y1468132D01*
X8689160Y1465372D01*
X8703035Y1468132D01*
X8714797Y1475991D01*
X8726984Y1471370D01*
X8731345Y1468457D01*
X8745220Y1465697D01*
X8759095Y1468457D01*
X8764963Y1472378D01*
X8777823Y1475991D01*
X8789585Y1468132D01*
X8803460Y1465372D01*
X8817335Y1468132D01*
X8829097Y1475991D01*
X8841434Y1471595D01*
X8845645Y1468781D01*
X8859520Y1466021D01*
X8873395Y1468781D01*
X8879263Y1472702D01*
X8892123Y1476316D01*
X8903885Y1468457D01*
X8917760Y1465697D01*
X8931635Y1468457D01*
X8943398Y1476316D01*
X8951257Y1488079D01*
X8954017Y1501953D01*
X8951257Y1515828D01*
X8943398Y1527591D01*
Y1528102D01*
X8951257Y1539864D01*
X8954017Y1553739D01*
X8951257Y1567614D01*
X8943398Y1579376D01*
Y1579887D01*
X8951257Y1591650D01*
X8954017Y1605524D01*
X8951257Y1619399D01*
X8943398Y1631162D01*
Y1631673D01*
X8951257Y1643435D01*
X8954017Y1657310D01*
X8951257Y1671185D01*
X8943398Y1682947D01*
X8931635Y1690807D01*
X8917760Y1693567D01*
X8903885Y1690807D01*
X8898017Y1686886D01*
X8888348Y1684169D01*
X8879563Y1687010D01*
X8873395Y1691131D01*
X8859520Y1693891D01*
X8845645Y1691131D01*
X8833883Y1683272D01*
X8821546Y1687668D01*
X8817335Y1690482D01*
X8803460Y1693242D01*
X8789585Y1690482D01*
X8782426Y1685698D01*
X8770857Y1682947D01*
X8759095Y1690807D01*
X8745220Y1693567D01*
X8731345Y1690807D01*
X8719583Y1682947D01*
X8708270Y1686984D01*
X8703035Y1690482D01*
X8689160Y1693242D01*
X8675285Y1690482D01*
X8668126Y1685698D01*
X8656557Y1682947D01*
X8644795Y1690807D01*
X8630920Y1693567D01*
X8617045Y1690807D01*
X8605283Y1682947D01*
X8604254Y1681408D01*
X8260545D01*
X8185897Y1756056D01*
Y1875544D01*
X8182939Y1890409D01*
X8174519Y1903012D01*
X8080605Y1996926D01*
X8068002Y2005347D01*
X8053136Y2008304D01*
X7756893D01*
X7692468Y2072728D01*
X7679866Y2081149D01*
X7665000Y2084106D01*
D02*
G37*
%LPD*%
G36*
X15128239Y2252499D02*
X15128239Y1530938D01*
X14937500Y1530938D01*
Y1152500D01*
X14772501D01*
Y1566240D01*
X14672501Y1567500D01*
X14672501Y2252500D01*
X15128239Y2252499D01*
D02*
G37*
%LPC*%
G36*
X3190240Y2693496D02*
X3167033Y2690441D01*
X3145406Y2681483D01*
X3126836Y2667233D01*
X3112586Y2648662D01*
X3103628Y2627036D01*
X3100573Y2603829D01*
X3103628Y2580621D01*
X3112586Y2558995D01*
X3126836Y2540425D01*
X3145406Y2526175D01*
X3167033Y2517217D01*
X3190240Y2514162D01*
X3213447Y2517217D01*
X3235074Y2526175D01*
X3253644Y2540425D01*
X3267894Y2558995D01*
X3276852Y2580621D01*
X3279907Y2603829D01*
X3276852Y2627036D01*
X3267894Y2648662D01*
X3253644Y2667233D01*
X3235074Y2681483D01*
X3213447Y2690441D01*
X3190240Y2693496D01*
D02*
G37*
G36*
X5010464Y2228078D02*
X4759960D01*
X4750049Y2226106D01*
X4741648Y2220492D01*
X4603087Y2081932D01*
X4479194D01*
X4469283Y2079960D01*
X4460882Y2074346D01*
X4370693Y1984157D01*
X4249268D01*
X4237895Y1991756D01*
X4224020Y1994516D01*
X4210145Y1991756D01*
X4198383Y1983897D01*
X4190523Y1972134D01*
X4187763Y1958260D01*
X4190523Y1944385D01*
X4198383Y1932622D01*
X4210145Y1924763D01*
X4224020Y1922003D01*
X4237895Y1924763D01*
X4249268Y1932362D01*
X4381420D01*
X4391330Y1934333D01*
X4399732Y1939947D01*
X4489921Y2030136D01*
X4613814D01*
X4623725Y2032108D01*
X4632126Y2037722D01*
X4743659Y2149255D01*
X4755364Y2142998D01*
X4753884Y2135557D01*
X4756644Y2121682D01*
X4764243Y2110309D01*
Y2105980D01*
X4766214Y2096069D01*
X4771828Y2087667D01*
X4799768Y2059727D01*
X4808170Y2054113D01*
X4818080Y2052142D01*
X4875203D01*
X4882806Y2039442D01*
X4880884Y2029780D01*
X4883644Y2015905D01*
X4891503Y2004142D01*
X4903266Y1996283D01*
X4916681Y1993615D01*
X4973382Y1936913D01*
X4967464Y1928055D01*
X4964704Y1914180D01*
X4967464Y1900305D01*
X4975323Y1888542D01*
X4987086Y1880683D01*
X5000960Y1877923D01*
X5014835Y1880683D01*
X5026598Y1888542D01*
X5034457Y1900305D01*
X5037217Y1914180D01*
X5034457Y1928055D01*
X5026858Y1939428D01*
Y1945960D01*
X5026573Y1947393D01*
X5037086Y1955643D01*
X5050960Y1952883D01*
X5064835Y1955643D01*
X5076598Y1963502D01*
X5084457Y1975265D01*
X5085174Y1978872D01*
X5099304Y1988517D01*
X5100080Y1988363D01*
X5113955Y1991123D01*
X5125718Y1998982D01*
X5133577Y2010745D01*
X5136337Y2024620D01*
X5133577Y2038494D01*
X5125718Y2050257D01*
X5113955Y2058116D01*
X5100540Y2060785D01*
X5046342Y2114983D01*
X5047575Y2120788D01*
X5051398Y2127888D01*
X5062855Y2130167D01*
X5074617Y2138026D01*
X5082477Y2149789D01*
X5085237Y2163664D01*
X5082477Y2177538D01*
X5074617Y2189301D01*
X5062855Y2197160D01*
X5049439Y2199829D01*
X5028776Y2220492D01*
X5020374Y2226106D01*
X5010464Y2228078D01*
D02*
G37*
G36*
X4632384Y1999296D02*
X4618510Y1996537D01*
X4606747Y1988677D01*
X4598888Y1976915D01*
X4596128Y1963040D01*
X4598888Y1949165D01*
X4606747Y1937402D01*
X4618510Y1929543D01*
X4632384Y1926783D01*
X4646259Y1929543D01*
X4658022Y1937402D01*
X4665881Y1949165D01*
X4668641Y1963040D01*
X4665881Y1976915D01*
X4658022Y1988677D01*
X4646259Y1996537D01*
X4632384Y1999296D01*
D02*
G37*
G36*
X4525656D02*
X4511781Y1996537D01*
X4500019Y1988677D01*
X4492159Y1976915D01*
X4489399Y1963040D01*
X4492159Y1949165D01*
X4500019Y1937402D01*
X4511781Y1929543D01*
X4525656Y1926783D01*
X4539531Y1929543D01*
X4551294Y1937402D01*
X4559153Y1949165D01*
X4561913Y1963040D01*
X4559153Y1976915D01*
X4551294Y1988677D01*
X4539531Y1996537D01*
X4525656Y1999296D01*
D02*
G37*
G36*
X4422500Y1895537D02*
X4408625Y1892777D01*
X4396863Y1884917D01*
X4389003Y1873155D01*
X4386243Y1859280D01*
X4389003Y1845405D01*
X4396863Y1833643D01*
X4408625Y1825783D01*
X4422041Y1823115D01*
X4539288Y1705868D01*
X4547690Y1700254D01*
X4557600Y1698282D01*
X4647071D01*
X4655179Y1686341D01*
X4651996Y1679696D01*
X4462704D01*
X4456409Y1692396D01*
X4458757Y1704200D01*
X4455997Y1718075D01*
X4448138Y1729838D01*
X4436375Y1737697D01*
X4422500Y1740457D01*
X4408625Y1737697D01*
X4396863Y1729838D01*
X4389003Y1718075D01*
X4386243Y1704200D01*
X4389003Y1690325D01*
X4396863Y1678563D01*
X4404166Y1673683D01*
Y1667020D01*
X4405562Y1660004D01*
X4409536Y1654056D01*
X4414392Y1649200D01*
X4409536Y1644344D01*
X4405562Y1638396D01*
X4404166Y1631380D01*
Y1624717D01*
X4396863Y1619838D01*
X4389003Y1608075D01*
X4386243Y1594200D01*
X4389003Y1580325D01*
X4396863Y1568563D01*
X4408625Y1560703D01*
X4422500Y1557943D01*
X4436375Y1560703D01*
X4448138Y1568563D01*
X4455997Y1580325D01*
X4458757Y1594200D01*
X4456304Y1606534D01*
X4457686Y1611234D01*
X4461962Y1619234D01*
X4661714D01*
X4662743Y1617980D01*
X4665503Y1604105D01*
X4673363Y1592343D01*
X4685125Y1584483D01*
X4699000Y1581723D01*
X4712875Y1584483D01*
X4724637Y1592343D01*
X4732497Y1604105D01*
X4735257Y1617980D01*
X4732497Y1631855D01*
X4724637Y1643617D01*
Y1655843D01*
X4732497Y1667605D01*
X4735257Y1681480D01*
X4734441Y1685582D01*
X4744652Y1698282D01*
X5144290D01*
X5154201Y1700254D01*
X5162602Y1705868D01*
X5205017Y1748282D01*
X5215712D01*
X5227086Y1740683D01*
X5240960Y1737923D01*
X5254835Y1740683D01*
X5266598Y1748542D01*
X5274457Y1760305D01*
X5277217Y1774180D01*
X5274457Y1788055D01*
X5266598Y1799817D01*
X5254835Y1807677D01*
X5240960Y1810437D01*
X5227086Y1807677D01*
X5215712Y1800077D01*
X5194290D01*
X5184379Y1798106D01*
X5175977Y1792492D01*
X5133563Y1750078D01*
X4568327D01*
X4458665Y1859739D01*
X4455997Y1873155D01*
X4448138Y1884917D01*
X4436375Y1892777D01*
X4422500Y1895537D01*
D02*
G37*
G36*
X2085340Y2732757D02*
X2071465Y2729997D01*
X2059703Y2722138D01*
X2051843Y2710375D01*
X2049083Y2696500D01*
X2051843Y2682625D01*
X2059703Y2670863D01*
X2071465Y2663003D01*
X2085340Y2660243D01*
X2099215Y2663003D01*
X2110977Y2670863D01*
X2118837Y2682625D01*
X2121597Y2696500D01*
X2118837Y2710375D01*
X2110977Y2722138D01*
X2099215Y2729997D01*
X2085340Y2732757D01*
D02*
G37*
G36*
X1865860Y2640086D02*
X1851985Y2637326D01*
X1840223Y2629466D01*
X1832363Y2617704D01*
X1829603Y2603829D01*
X1832363Y2589954D01*
X1840223Y2578191D01*
X1851985Y2570332D01*
X1865860Y2567572D01*
X1879735Y2570332D01*
X1891498Y2578191D01*
X1899357Y2589954D01*
X1902117Y2603829D01*
X1899357Y2617704D01*
X1891498Y2629466D01*
X1879735Y2637326D01*
X1865860Y2640086D01*
D02*
G37*
G36*
X2579180Y2614557D02*
X2565305Y2611797D01*
X2553543Y2603938D01*
X2545683Y2592175D01*
X2542923Y2578300D01*
X2545683Y2564425D01*
X2553543Y2552663D01*
X2565305Y2544803D01*
X2579180Y2542043D01*
X2593055Y2544803D01*
X2604817Y2552663D01*
X2612677Y2564425D01*
X2615437Y2578300D01*
X2612677Y2592175D01*
X2604817Y2603938D01*
X2593055Y2611797D01*
X2579180Y2614557D01*
D02*
G37*
G36*
X2085340Y2604777D02*
X2071465Y2602017D01*
X2059703Y2594158D01*
X2051843Y2582395D01*
X2049083Y2568520D01*
X2051843Y2554645D01*
X2059703Y2542883D01*
X2071465Y2535023D01*
X2085340Y2532263D01*
X2099215Y2535023D01*
X2110977Y2542883D01*
X2118837Y2554645D01*
X2121597Y2568520D01*
X2118837Y2582395D01*
X2110977Y2594158D01*
X2099215Y2602017D01*
X2085340Y2604777D01*
D02*
G37*
G36*
X2517320Y2477521D02*
X2503445Y2474761D01*
X2491682Y2466902D01*
X2483823Y2455139D01*
X2481063Y2441265D01*
X2483823Y2427390D01*
X2484863Y2425834D01*
X2491520Y2415372D01*
X2484863Y2404910D01*
X2483823Y2403354D01*
X2481063Y2389479D01*
X2483823Y2375604D01*
X2484863Y2374049D01*
X2491520Y2363586D01*
X2484863Y2353124D01*
X2483823Y2351568D01*
X2481063Y2337694D01*
X2483823Y2323819D01*
X2491682Y2312056D01*
X2503445Y2304197D01*
X2517320Y2301437D01*
X2531195Y2304197D01*
X2537063Y2308118D01*
X2549923Y2311731D01*
X2561685Y2303872D01*
X2575560Y2301112D01*
X2589435Y2303872D01*
X2601197Y2311731D01*
X2609057Y2323494D01*
X2611817Y2337369D01*
X2609057Y2351244D01*
X2608017Y2352799D01*
X2601360Y2363262D01*
X2608017Y2373724D01*
X2609057Y2375280D01*
X2611817Y2389154D01*
X2609057Y2403029D01*
X2608017Y2404585D01*
X2601360Y2415047D01*
X2608017Y2425509D01*
X2609057Y2427065D01*
X2611817Y2440940D01*
X2609057Y2454815D01*
X2601197Y2466577D01*
X2589435Y2474437D01*
X2575560Y2477197D01*
X2561685Y2474437D01*
X2555817Y2470516D01*
X2542957Y2466902D01*
X2531195Y2474761D01*
X2517320Y2477521D01*
D02*
G37*
G36*
X1902745Y2303056D02*
Y2282025D01*
X1923775D01*
X1923542Y2283200D01*
X1915682Y2294963D01*
X1903920Y2302822D01*
X1902745Y2303056D01*
D02*
G37*
G36*
X1877345D02*
X1876170Y2302822D01*
X1864407Y2294963D01*
X1856548Y2283200D01*
X1856315Y2282025D01*
X1877345D01*
Y2303056D01*
D02*
G37*
G36*
X1923775Y2256625D02*
X1902745D01*
Y2235595D01*
X1903920Y2235828D01*
X1915682Y2243688D01*
X1923542Y2255450D01*
X1923775Y2256625D01*
D02*
G37*
G36*
X1877345D02*
X1856315D01*
X1856548Y2255450D01*
X1864407Y2243688D01*
X1876170Y2235828D01*
X1877345Y2235595D01*
Y2256625D01*
D02*
G37*
G36*
X2055000Y2442664D02*
X2025840Y2438825D01*
X1998668Y2427570D01*
X1975334Y2409665D01*
X1957430Y2386332D01*
X1946175Y2359160D01*
X1942336Y2330000D01*
X1946175Y2300840D01*
X1957430Y2273668D01*
X1975334Y2250334D01*
X1998668Y2232430D01*
X2025840Y2221175D01*
X2055000Y2217336D01*
X2084160Y2221175D01*
X2111332Y2232430D01*
X2134666Y2250334D01*
X2152570Y2273668D01*
X2163825Y2300840D01*
X2167664Y2330000D01*
X2163825Y2359160D01*
X2152570Y2386332D01*
X2134666Y2409665D01*
X2111332Y2427570D01*
X2084160Y2438825D01*
X2055000Y2442664D01*
D02*
G37*
G36*
X1889760Y2217297D02*
X1875885Y2214537D01*
X1864123Y2206678D01*
X1856263Y2194915D01*
X1853503Y2181040D01*
X1856263Y2167165D01*
X1864123Y2155403D01*
X1875885Y2147543D01*
X1889760Y2144783D01*
X1903635Y2147543D01*
X1915397Y2155403D01*
X1923257Y2167165D01*
X1926017Y2181040D01*
X1923257Y2194915D01*
X1915397Y2206678D01*
X1903635Y2214537D01*
X1889760Y2217297D01*
D02*
G37*
G36*
X2007640Y2162717D02*
X1993765Y2159957D01*
X1982002Y2152098D01*
X1974143Y2140335D01*
X1971383Y2126460D01*
X1974143Y2112585D01*
X1982002Y2100823D01*
X1993765Y2092963D01*
X2007640Y2090203D01*
X2021515Y2092963D01*
X2033277Y2100823D01*
X2041137Y2112585D01*
X2043897Y2126460D01*
X2041137Y2140335D01*
X2033277Y2152098D01*
X2021515Y2159957D01*
X2007640Y2162717D01*
D02*
G37*
G36*
X1835156Y2094495D02*
X1821281Y2091735D01*
X1809519Y2083876D01*
X1801659Y2072113D01*
X1798899Y2058239D01*
X1801659Y2044364D01*
X1809519Y2032601D01*
X1821281Y2024742D01*
X1834697Y2022073D01*
X1952302Y1904468D01*
X1960704Y1898854D01*
X1970615Y1896882D01*
X1994052D01*
X2005425Y1889283D01*
X2019300Y1886523D01*
X2033175Y1889283D01*
X2044937Y1897143D01*
X2052797Y1908905D01*
X2055557Y1922780D01*
X2052797Y1936655D01*
X2044937Y1948417D01*
Y1960825D01*
X2052797Y1972587D01*
X2055557Y1986462D01*
X2052797Y2000337D01*
X2044937Y2012099D01*
X2033175Y2019959D01*
X2019300Y2022719D01*
X2005425Y2019959D01*
X1993663Y2012099D01*
X1985803Y2000337D01*
X1983043Y1986462D01*
X1985803Y1972587D01*
X1989192Y1967515D01*
X1983479Y1953823D01*
X1977140Y1952879D01*
X1871321Y2058698D01*
X1868653Y2072113D01*
X1860794Y2083876D01*
X1849031Y2091735D01*
X1835156Y2094495D01*
D02*
G37*
G36*
X1877060Y1785696D02*
X1863185Y1782936D01*
X1851423Y1775077D01*
X1843563Y1763314D01*
X1840803Y1749440D01*
X1843563Y1735565D01*
X1851423Y1723802D01*
X1863185Y1715943D01*
X1877060Y1713183D01*
X1890935Y1715943D01*
X1902697Y1723802D01*
X1910557Y1735565D01*
X1913317Y1749440D01*
X1910557Y1763314D01*
X1902697Y1775077D01*
X1890935Y1782936D01*
X1877060Y1785696D01*
D02*
G37*
G36*
X2250000Y1780081D02*
X2236125Y1777321D01*
X2224363Y1769462D01*
X2216503Y1757699D01*
X2213743Y1743824D01*
X2216503Y1729950D01*
X2224363Y1718187D01*
X2236125Y1710328D01*
X2250000Y1707568D01*
X2263875Y1710328D01*
X2275638Y1718187D01*
X2283497Y1729950D01*
X2286257Y1743824D01*
X2283497Y1757699D01*
X2275638Y1769462D01*
X2263875Y1777321D01*
X2250000Y1780081D01*
D02*
G37*
G36*
X2055000Y1807664D02*
X2025840Y1803825D01*
X1998668Y1792570D01*
X1975334Y1774665D01*
X1957430Y1751332D01*
X1946175Y1724160D01*
X1942336Y1695000D01*
X1946175Y1665840D01*
X1957430Y1638668D01*
X1975334Y1615334D01*
X1998668Y1597430D01*
X2025840Y1586175D01*
X2055000Y1582336D01*
X2084160Y1586175D01*
X2111332Y1597430D01*
X2134666Y1615334D01*
X2152570Y1638668D01*
X2163825Y1665840D01*
X2167664Y1695000D01*
X2163825Y1724160D01*
X2152570Y1751332D01*
X2134666Y1774665D01*
X2111332Y1792570D01*
X2084160Y1803825D01*
X2055000Y1807664D01*
D02*
G37*
G36*
X10623420Y2028278D02*
X10609545Y2025518D01*
X10597783Y2017659D01*
X10589923Y2005896D01*
X10587163Y1992022D01*
X10589923Y1978147D01*
X10597783Y1966384D01*
X10609545Y1958525D01*
X10623420Y1955765D01*
X10637295Y1958525D01*
X10649058Y1966384D01*
X10656917Y1978147D01*
X10659677Y1992022D01*
X10656917Y2005896D01*
X10649058Y2017659D01*
X10637295Y2025518D01*
X10623420Y2028278D01*
D02*
G37*
G36*
X10624000Y1919378D02*
X10610125Y1916618D01*
X10598363Y1908759D01*
X10590503Y1896996D01*
X10587743Y1883122D01*
X10590503Y1869247D01*
X10598363Y1857484D01*
X10610125Y1849625D01*
X10624000Y1846865D01*
X10637875Y1849625D01*
X10649638Y1857484D01*
X10657497Y1869247D01*
X10660257Y1883122D01*
X10657497Y1896996D01*
X10649638Y1908759D01*
X10637875Y1916618D01*
X10624000Y1919378D01*
D02*
G37*
G36*
X7134305Y2994013D02*
X7102305D01*
Y2964013D01*
X7134305D01*
Y2994013D01*
D02*
G37*
G36*
X7076905D02*
X7044905D01*
Y2964013D01*
X7076905D01*
Y2994013D01*
D02*
G37*
G36*
X6771641Y3001521D02*
Y2959020D01*
X6819141D01*
Y3001521D01*
X6771641D01*
D02*
G37*
G36*
X6940801Y2968013D02*
X6908801D01*
Y2938013D01*
X6940801D01*
Y2968013D01*
D02*
G37*
G36*
X6883401D02*
X6851401D01*
Y2938013D01*
X6883401D01*
Y2968013D01*
D02*
G37*
G36*
X7378000Y2998660D02*
X7320500D01*
Y2931160D01*
X7378000D01*
Y2998660D01*
D02*
G37*
G36*
X7295100D02*
X7237600D01*
Y2931160D01*
X7295100D01*
Y2998660D01*
D02*
G37*
G36*
X6819141Y2933620D02*
X6771641D01*
Y2891120D01*
X6819141D01*
Y2933620D01*
D02*
G37*
G36*
X8068023Y2911937D02*
X8054148Y2909177D01*
X8042386Y2901318D01*
X8034526Y2889555D01*
X8031767Y2875680D01*
X8034526Y2861805D01*
X8042386Y2850043D01*
X8054148Y2842183D01*
X8068023Y2839423D01*
X8081898Y2842183D01*
X8093661Y2850043D01*
X8101520Y2861805D01*
X8104280Y2875680D01*
X8101520Y2889555D01*
X8093661Y2901318D01*
X8081898Y2909177D01*
X8068023Y2911937D01*
D02*
G37*
G36*
X7378000Y2905760D02*
X7320500D01*
Y2838260D01*
X7378000D01*
Y2905760D01*
D02*
G37*
G36*
X7295100D02*
X7237600D01*
Y2838260D01*
X7295100D01*
Y2905760D01*
D02*
G37*
G36*
X7650905Y2752480D02*
X7590230D01*
X7583275Y2751097D01*
X7577379Y2747157D01*
X7573440Y2741261D01*
X7572056Y2734306D01*
Y2731631D01*
X7650905D01*
Y2752480D01*
D02*
G37*
G36*
X7367500Y2548317D02*
X7353625Y2545557D01*
X7341863Y2537697D01*
X7334003Y2525935D01*
X7331243Y2512060D01*
X7334003Y2498185D01*
X7341863Y2486423D01*
X7353625Y2478563D01*
X7367500Y2475803D01*
X7381375Y2478563D01*
X7393138Y2486423D01*
X7400997Y2498185D01*
X7403757Y2512060D01*
X7400997Y2525935D01*
X7393138Y2537697D01*
X7381375Y2545557D01*
X7367500Y2548317D01*
D02*
G37*
G36*
X7842500Y2421257D02*
X7828625Y2418497D01*
X7816862Y2410638D01*
X7809003Y2398875D01*
X7806243Y2385000D01*
X7809003Y2371125D01*
X7816862Y2359363D01*
X7828625Y2351503D01*
X7842500Y2348743D01*
X7856375Y2351503D01*
X7868137Y2359363D01*
X7875997Y2371125D01*
X7878757Y2385000D01*
X7875997Y2398875D01*
X7868137Y2410638D01*
X7856375Y2418497D01*
X7842500Y2421257D01*
D02*
G37*
G36*
X8222500Y2338757D02*
X8208625Y2335997D01*
X8196862Y2328138D01*
X8189003Y2316375D01*
X8186243Y2302500D01*
X8189003Y2288625D01*
X8196862Y2276863D01*
X8208625Y2269003D01*
X8222500Y2266243D01*
X8236375Y2269003D01*
X8248137Y2276863D01*
X8255997Y2288625D01*
X8258757Y2302500D01*
X8255997Y2316375D01*
X8248137Y2328138D01*
X8236375Y2335997D01*
X8222500Y2338757D01*
D02*
G37*
G36*
X6858841Y2424596D02*
X6817541D01*
X6809660Y2423028D01*
X6802978Y2418563D01*
X6798513Y2411881D01*
X6796946Y2404000D01*
Y2394200D01*
X6858841D01*
Y2424596D01*
D02*
G37*
G36*
Y2368800D02*
X6796946D01*
Y2359000D01*
X6798513Y2351118D01*
X6802978Y2344437D01*
X6809660Y2339972D01*
X6817541Y2338404D01*
X6858841D01*
Y2368800D01*
D02*
G37*
G36*
X9632607Y2149816D02*
X9618732Y2147056D01*
X9606969Y2139197D01*
X9599110Y2127434D01*
X9596350Y2113559D01*
X9599110Y2099685D01*
X9606969Y2087922D01*
X9618732Y2080063D01*
X9632607Y2077303D01*
X9646481Y2080063D01*
X9658244Y2087922D01*
X9666103Y2099685D01*
X9668863Y2113559D01*
X9666103Y2127434D01*
X9658244Y2139197D01*
X9646481Y2147056D01*
X9632607Y2149816D01*
D02*
G37*
G36*
X9824720Y2148757D02*
X9810845Y2145997D01*
X9799083Y2138137D01*
X9791223Y2126375D01*
X9788463Y2112500D01*
X9791223Y2098625D01*
X9799083Y2086862D01*
X9810845Y2079003D01*
X9824720Y2076243D01*
X9838595Y2079003D01*
X9850357Y2086862D01*
X9858217Y2098625D01*
X9860977Y2112500D01*
X9858217Y2126375D01*
X9850357Y2138137D01*
X9838595Y2145997D01*
X9824720Y2148757D01*
D02*
G37*
G36*
X6741220Y1214817D02*
X6727345Y1212057D01*
X6715583Y1204197D01*
X6707723Y1192435D01*
X6704963Y1178560D01*
X6707723Y1164685D01*
X6715583Y1152923D01*
X6727345Y1145063D01*
X6741220Y1142303D01*
X6755095Y1145063D01*
X6766858Y1152923D01*
X6774717Y1164685D01*
X6777477Y1178560D01*
X6774717Y1192435D01*
X6766858Y1204197D01*
X6755095Y1212057D01*
X6741220Y1214817D01*
D02*
G37*
%LPD*%
D10*
X6758941Y2946320D02*
D03*
Y2816321D02*
D03*
D12*
X6596376Y2823821D02*
D03*
Y2938821D02*
D03*
D13*
X8309380Y2534748D02*
D03*
Y2710768D02*
D03*
X8439380Y2534748D02*
D03*
Y2710768D02*
D03*
D17*
X7089605Y2863313D02*
D03*
Y2951313D02*
D03*
D18*
X2457200Y2008800D02*
D03*
X2247200D02*
D03*
Y1373800D02*
D03*
X2457200D02*
D03*
X2247200Y2646300D02*
D03*
X2457200D02*
D03*
D19*
X8009700Y2710768D02*
D03*
X8144700Y2534748D02*
D03*
X8009700D02*
D03*
X8144700Y2710768D02*
D03*
D20*
X6363612Y2525163D02*
D03*
X6478612D02*
D03*
Y2643745D02*
D03*
X6363612D02*
D03*
D28*
X6907080Y2701859D02*
D03*
X6819080D02*
D03*
D61*
X7835900Y2554368D02*
D03*
Y2689368D02*
D03*
D74*
X10268392Y1515172D02*
X10291887Y1538666D01*
X10246298Y1515172D02*
X10268392D01*
X10235791Y1525679D02*
X10246298Y1515172D01*
X10235791Y1559151D02*
X10246360Y1569720D01*
X10193020D02*
X10206129Y1556611D01*
X11089766Y1538666D02*
X11099929Y1528503D01*
X11718983D02*
X11752580Y1562100D01*
X11099929Y1528503D02*
X11718983D01*
X10291887Y1538666D02*
X11089766D01*
X10235791Y1525679D02*
Y1559151D01*
X11786515Y1513417D02*
X11792018Y1518920D01*
X10206129Y1508592D02*
Y1556611D01*
X11745846Y1513417D02*
X11786515D01*
X10307659Y1509004D02*
X11077480D01*
X11731270Y1498841D02*
X11745846Y1513417D01*
X11077480Y1509004D02*
X11087643Y1498841D01*
X10284164Y1485510D02*
X10307659Y1509004D01*
X10206129Y1508592D02*
X10229211Y1485510D01*
X11087643Y1498841D02*
X11731270D01*
X10229211Y1485510D02*
X10284164D01*
X8439380Y2597991D02*
X8450009Y2608620D01*
X8439380Y2647526D02*
Y2746328D01*
X8448623Y2638282D02*
X8631625D01*
X8439380Y2647526D02*
X8448623Y2638282D01*
X8009700Y2607927D02*
X8299444D01*
X7888245D02*
X8009700D01*
Y2499188D02*
Y2607927D01*
X8011160Y2637589D02*
X8299444D01*
X7886465D02*
X8011160D01*
X8009700Y2639049D02*
X8011160Y2637589D01*
X8009700Y2639049D02*
Y2746328D01*
X7877419Y2597101D02*
X7888245Y2607927D01*
X7877419Y2646636D02*
X7886465Y2637589D01*
X8309380Y2647526D02*
Y2746328D01*
X7877419Y2646636D02*
Y2652849D01*
X8299444Y2637589D02*
X8309380Y2647526D01*
X7840900Y2689368D02*
X7877419Y2652849D01*
X7835900Y2689368D02*
X7840900D01*
X7830900D02*
X7835900D01*
X7794381Y2652849D02*
X7830900Y2689368D01*
X7663605Y2653931D02*
X7721605D01*
X7794381Y2646636D02*
Y2652849D01*
X7784008Y2636262D02*
X7794381Y2646636D01*
X7739274Y2636262D02*
X7784008D01*
X7721605Y2653931D02*
X7739274Y2636262D01*
X8299444Y2607927D02*
X8309380Y2597991D01*
X7877419Y2590887D02*
Y2597101D01*
X8309380Y2499188D02*
Y2597991D01*
X7784445Y2606600D02*
X7794381Y2596664D01*
X7739274Y2606600D02*
X7784445D01*
X7794381Y2590887D02*
Y2596664D01*
X7721605Y2588931D02*
X7739274Y2606600D01*
X7663605Y2588931D02*
X7721605D01*
X7840900Y2554368D02*
X7877419Y2590887D01*
X7835900Y2554368D02*
X7840900D01*
X7794381Y2590887D02*
X7830900Y2554368D01*
X7835900D01*
X8450009Y2608620D02*
X8631625D01*
X8641561Y2598684D01*
Y2500574D02*
Y2598684D01*
X8631625Y2638282D02*
X8641561Y2648218D01*
X8439380Y2534748D02*
Y2597991D01*
X8641561Y2500574D02*
X8676184Y2465951D01*
X8641561Y2746328D02*
X8676184Y2780951D01*
X8641561Y2648218D02*
Y2746328D01*
X8439380D02*
X8439380Y2746328D01*
D75*
X10488395Y1448061D02*
X10588956Y1347500D01*
X10132068Y1448061D02*
X10488395D01*
X10018200Y1334192D02*
X10132068Y1448061D01*
X10462260Y1409700D02*
X10576560Y1295400D01*
X10152380Y1409700D02*
X10462260D01*
X10034020Y1291340D02*
X10152380Y1409700D01*
X6165064Y1798934D02*
X6228080Y1735918D01*
X5519143Y1798934D02*
X6165064D01*
X4961877Y2356200D02*
X5519143Y1798934D01*
X6428320Y1271344D02*
X7186056D01*
X7218764Y1238636D01*
X7366000D01*
X6228080Y1650000D02*
Y1735918D01*
X7907020Y1334192D02*
X10018200D01*
X7952740Y1291340D02*
X10034020D01*
X7858366Y1285538D02*
X7907020Y1334192D01*
X7632385Y1285538D02*
X7858366D01*
X10576560Y1194745D02*
Y1295400D01*
Y1194745D02*
X10613065Y1158240D01*
X10922000D01*
X10588956Y1347500D02*
X10780000D01*
X4335780Y2356200D02*
X4961877D01*
X10780000Y1347500D02*
X11681640D01*
X3761739Y1229359D02*
X3761740Y1229360D01*
X12761003Y1467500D02*
X12987500D01*
X12908174Y1267606D02*
X12984979Y1344412D01*
X12317394Y1267606D02*
X12908174D01*
X12247500Y1337500D02*
X12317394Y1267606D01*
X7447263Y1470660D02*
X7632385Y1285538D01*
X11779564Y1337500D02*
X12027500D01*
X11679868Y1237804D02*
X11779564Y1337500D01*
X11540000Y1237804D02*
X11679868D01*
X11679648Y1294648D02*
X11766760Y1381760D01*
X11299100Y1294648D02*
X11679648D01*
X11766760Y1381760D02*
X11875000D01*
X11880141Y1386900D01*
X11935000D01*
X11801603Y1467500D02*
X11807302Y1473200D01*
X11503660Y1467500D02*
X11801603D01*
X11893570D02*
X11935000D01*
X11887870Y1473200D02*
X11893570Y1467500D01*
X11807302Y1473200D02*
X11887870D01*
X11468660Y1432500D02*
X11503660Y1467500D01*
X10782500Y1432500D02*
X11468660D01*
X12750843Y1477660D02*
X12761003Y1467500D01*
X12526500Y1477660D02*
X12750843D01*
X12245000Y1447500D02*
X12275160Y1477660D01*
X12526500D01*
X11968140Y1175000D02*
X12038140Y1245000D01*
X10922000Y1158240D02*
X11032818D01*
X12037960Y1140460D02*
X12077500Y1180000D01*
X11761620Y1427480D02*
X11808460D01*
X11681640Y1347500D02*
X11761620Y1427480D01*
X11080000Y1175000D02*
X11968140D01*
X11050598Y1140460D02*
X12037960D01*
X6626939Y1517081D02*
X6721620Y1422400D01*
X5678462Y1517081D02*
X6626939D01*
X5390741Y1229359D02*
X5678462Y1517081D01*
X7272602Y1422400D02*
X7320862Y1470660D01*
X6721620Y1422400D02*
X7272602D01*
X7320862Y1470660D02*
X7447263D01*
X3761739Y1229359D02*
X5390741D01*
X11231952Y1227500D02*
X11299100Y1294648D01*
X11032818Y1158240D02*
X11050598Y1140460D01*
X11027500Y1227500D02*
X11080000Y1175000D01*
X10780000Y1227500D02*
X11027500D01*
D76*
X4379505Y2633980D02*
X4822784D01*
X4270080Y2743405D02*
X4379505Y2633980D01*
X2554305Y2743405D02*
X4270080D01*
X3551813Y2513680D02*
X3647413Y2418080D01*
X4051300D01*
X5010464Y2202180D02*
X5048980Y2163664D01*
X4759960Y2202180D02*
X5010464D01*
X4613814Y2056034D02*
X4759960Y2202180D01*
X4479194Y2056034D02*
X4613814D01*
X4381420Y1958260D02*
X4479194Y2056034D01*
X4589801Y2284257D02*
X4777740D01*
X4528980Y2223436D02*
X4589801Y2284257D01*
X4528980Y2136136D02*
Y2223436D01*
X1835156Y2058239D02*
X1970615Y1922780D01*
X2019300D01*
X1802860Y1370708D02*
Y1615298D01*
X1720080Y1698077D02*
X1802860Y1615298D01*
X3075410Y1309670D02*
X3244020Y1478280D01*
X5194290Y1774180D02*
X5240960D01*
X5144290Y1724180D02*
X5194290Y1774180D01*
X4557600Y1724180D02*
X5144290D01*
X4422500Y1859280D02*
X4557600Y1724180D01*
X4224020Y1958260D02*
X4381420D01*
X3345088Y1577040D02*
X3410609Y1511519D01*
X3248110Y1577040D02*
X3345088D01*
X3176631Y1505561D02*
X3248110Y1577040D01*
X2927237Y1505561D02*
X3176631D01*
X2841537Y1419860D02*
X2927237Y1505561D01*
X4528980Y2724236D02*
Y2778920D01*
X6907080Y2699859D02*
X6952141D01*
X6998069Y2653931D02*
X7089605D01*
Y2588931D02*
Y2653931D01*
X7081805Y2661731D02*
X7089605Y2653931D01*
X6952141Y2699859D02*
X6998069Y2653931D01*
X6223000Y2716279D02*
X6288012Y2651266D01*
X6356091D01*
X6363612Y2643745D01*
X6177280Y2699121D02*
X6289040Y2587361D01*
Y2496315D02*
Y2587361D01*
Y2496315D02*
X6315591Y2469763D01*
X6415712D02*
X6471112Y2525163D01*
X6315591Y2469763D02*
X6415712D01*
X6413000Y2997200D02*
Y3088772D01*
X6391772Y3110000D02*
X6413000Y3088772D01*
X6161769Y3110000D02*
X6391772D01*
X6123940Y3072171D02*
X6161769Y3110000D01*
X6123940Y2910840D02*
Y3072171D01*
X6177280Y2699121D02*
Y2857500D01*
X6123940Y2910840D02*
X6177280Y2857500D01*
X6223000Y2716279D02*
Y2997200D01*
X6318000Y2797200D02*
X6338000Y2777200D01*
X6504940Y2811491D02*
Y2918460D01*
X6470649Y2777200D02*
X6504940Y2811491D01*
X6338000Y2777200D02*
X6470649D01*
X6504940Y2918460D02*
X6532800Y2946320D01*
X6596376D01*
X6318000Y2777200D02*
Y2797200D01*
X6471112Y2525163D02*
X6478612D01*
X6566300Y2643740D02*
X6659541Y2550499D01*
X6485153Y2643740D02*
X6566300D01*
X6363612Y2525163D02*
Y2643745D01*
X6471119Y2643740D02*
X6485153D01*
X6494913Y2633980D01*
X6478612Y2650281D02*
X6485153Y2643740D01*
X6659541Y2476500D02*
Y2550499D01*
X8303120Y3017520D02*
X8679180D01*
X8072820Y1569060D02*
Y1874520D01*
X8006080Y1888580D02*
X8007500Y1890000D01*
X8144700Y2443920D02*
Y2534748D01*
Y2710768D02*
Y2820253D01*
X6758941Y2660998D02*
Y2816321D01*
Y2660998D02*
X6785959Y2633980D01*
X6932089D01*
X6991317Y2523919D02*
X7089593D01*
X6958441Y2556795D02*
X6991317Y2523919D01*
X6958441Y2556795D02*
Y2607627D01*
X6907080Y2699859D02*
Y2701859D01*
X6596376Y2816321D02*
X6753941D01*
X6758941D01*
X6932089Y2633980D02*
X6958441Y2607627D01*
X7089593Y2523919D02*
X7089605Y2523931D01*
Y2718931D02*
Y2863313D01*
Y2718931D02*
X7113705D01*
X7121505Y2726731D01*
X7482800Y2591000D02*
X7547005Y2526795D01*
X7482800Y2591000D02*
Y2918460D01*
X7547005Y2526795D02*
X7660741D01*
X7663605Y2523931D01*
X6846973Y2837313D02*
X6896101D01*
X6825981Y2816321D02*
X6846973Y2837313D01*
X6758941Y2816321D02*
X6825981D01*
X6871541Y2547500D02*
X6895541Y2571500D01*
X7001529Y2393931D02*
X7089605D01*
X6871541Y2523919D02*
X7001529Y2393931D01*
X6871541Y2523919D02*
Y2547500D01*
Y2571500D02*
X6895541D01*
X7782560Y1325454D02*
X7796954D01*
X7768046D02*
X7782560D01*
X7796954D02*
X7926500Y1455000D01*
X7638500D02*
X7768046Y1325454D01*
X8006080Y1704340D02*
Y1888580D01*
X4918980Y2625360D02*
Y2726136D01*
X4853980Y2665176D02*
Y2726136D01*
X4988564Y2136136D02*
X5100080Y2024620D01*
X4853980Y2136136D02*
X4988564D01*
X3244020Y1478280D02*
X3309620D01*
X4823460Y2410460D02*
X4983980Y2570980D01*
X4244340Y2410460D02*
X4823460D01*
X12176760Y1596760D02*
Y1861390D01*
X11931461Y1653540D02*
X12027500Y1557500D01*
X11641584Y1653540D02*
X11931461D01*
X11599204Y1611160D02*
X11641584Y1653540D01*
X11540000Y1611160D02*
X11599204D01*
X2630580Y1966820D02*
X3729580D01*
X2591140Y2008800D02*
X2630580Y1969360D01*
X3729580D02*
X3731260Y1971040D01*
X3410609Y1511519D02*
X3865919D01*
X1885168Y1288400D02*
X2652380D01*
X1802860Y1370708D02*
X1885168Y1288400D01*
X3865919Y1511519D02*
X4053660Y1699260D01*
X3362960Y1424940D02*
X3639820D01*
X3309620Y1478280D02*
X3362960Y1424940D01*
X2926112Y1340500D02*
X3046612Y1220000D01*
X2704480Y1340500D02*
X2926112D01*
X2652380Y1288400D02*
X2704480Y1340500D01*
X3046612Y1220000D02*
X3516160D01*
X3275680Y1424940D02*
X3326480Y1374140D01*
X4081780D01*
X2503260Y1419860D02*
X2841537D01*
X2457200Y1373800D02*
X2503260Y1419860D01*
X3516160Y1220000D02*
X3629660Y1333500D01*
X4053660Y1699260D02*
X4140200D01*
X3835400Y2473960D02*
X4767580D01*
X4918980Y2625360D01*
X3832860Y2471420D02*
X3835400Y2473960D01*
X5603240Y2819400D02*
X5664200Y2758440D01*
X4569460Y2819400D02*
X5603240D01*
X4528980Y2778920D02*
X4569460Y2819400D01*
X4549140Y2867660D02*
X5635924D01*
X5747492Y2756092D01*
X5770308D01*
X5853906Y2672494D01*
X4194880Y1390880D02*
X4297680D01*
X4137500Y1333500D02*
X4194880Y1390880D01*
X3629660Y1333500D02*
X4137500D01*
X3395980Y2513680D02*
X3551813D01*
X3239420Y2357120D02*
X3395980Y2513680D01*
X3163000Y2357120D02*
X3239420D01*
X12176760Y1861390D02*
X12251546Y1936176D01*
X12137500Y1557500D02*
X12176760Y1596760D01*
X7399780Y1642460D02*
X7503000Y1539240D01*
X7399780Y1642460D02*
Y1787824D01*
X2457200Y2646300D02*
X2554305Y2743405D01*
X4081780Y1374140D02*
X4137660Y1430020D01*
X4822784Y2633980D02*
X4853980Y2665176D01*
X2457200Y2008800D02*
X2591140D01*
X4983980Y2570980D02*
Y2726136D01*
X5853906Y2449240D02*
Y2672494D01*
X4463980Y2782500D02*
X4549140Y2867660D01*
X4463980Y2724236D02*
Y2782500D01*
X4962060Y2078040D02*
X5050960Y1989140D01*
X4818080Y2078040D02*
X4962060D01*
X4790140Y2105980D02*
X4818080Y2078040D01*
X4790140Y2105980D02*
Y2135557D01*
X4917140Y2029780D02*
X5000960Y1945960D01*
Y1914180D02*
Y1945960D01*
D77*
X10442346Y1369060D02*
X10541000Y1270406D01*
X10167490Y1369060D02*
X10442346D01*
X10038098Y1239668D02*
X10167490Y1369060D01*
X10422539Y1326280D02*
X10502900Y1245919D01*
X10188613Y1326280D02*
X10422539D01*
X10058673Y1196340D02*
X10188613Y1326280D01*
X4083932Y2679633D02*
X4084000Y2679565D01*
X3685607Y2679633D02*
X4083932D01*
X3685540Y2679700D02*
X3685607Y2679633D01*
X3934590Y2364170D02*
X3937000Y2361760D01*
X3502530Y2364170D02*
X3934590D01*
X5382843Y2135557D02*
X5524500Y1993900D01*
X5297520Y2135557D02*
X5382843D01*
X5528490Y1997890D02*
X6642792D01*
X5524500Y1993900D02*
X5528490Y1997890D01*
X7442160Y2265680D02*
X7570412Y2393931D01*
X6967820Y2265680D02*
X7442160D01*
X7570412Y2393931D02*
X7663605D01*
X7460809Y2229914D02*
X7559826Y2328931D01*
X6992414Y2229914D02*
X7460809D01*
X7559826Y2328931D02*
X7663605D01*
X5723302Y1313180D02*
X6682740D01*
X5478029Y1067907D02*
X5723302Y1313180D01*
X4090833Y1067907D02*
X5478029D01*
X3159100Y1765300D02*
X3363519D01*
X3447741Y1681078D01*
X3195311Y1676041D02*
X3380048D01*
X3167454Y1703899D02*
X3195311Y1676041D01*
X3095719Y1703899D02*
X3167454D01*
X3380048Y1676041D02*
X3402550Y1653540D01*
X3408680D01*
X3447741Y1681078D02*
X3541381D01*
X3906520Y2024380D02*
X3914140D01*
X3939540Y1976120D02*
X3980180Y1935480D01*
X10541000Y1159745D02*
Y1270406D01*
X10502900Y1145540D02*
Y1245919D01*
X6728460Y1965960D02*
X6992414Y2229914D01*
X6728460Y1793540D02*
Y1965960D01*
X6692694Y1990554D02*
X6967820Y2265680D01*
X6692694Y1868341D02*
Y1990554D01*
X6973832Y2328931D02*
X7089605D01*
X6642792Y1997890D02*
X6973832Y2328931D01*
X3065361Y1765300D02*
X3134241Y1834180D01*
X3634740D01*
X6513289Y1578369D02*
X6728460Y1793540D01*
X5604709Y1578369D02*
X6513289D01*
X6525260Y1700907D02*
X6692694Y1868341D01*
X5478780Y1452440D02*
X5604709Y1578369D01*
X6525260Y1649780D02*
Y1700907D01*
X7549892Y1239668D02*
X10038098D01*
X7417960Y1371600D02*
X7549892Y1239668D01*
X7517480Y1196340D02*
X10058673Y1196340D01*
X7390480Y1323340D02*
X7517480Y1196340D01*
X5426760Y1160780D02*
X5716320Y1450340D01*
X3919220Y1160780D02*
X5426760D01*
X12117500Y1137080D02*
Y1245000D01*
X12157500Y1123981D02*
Y1164438D01*
X6682740Y1313180D02*
X7259190D01*
X7265015Y1319005D02*
X7269654D01*
X7259190Y1313180D02*
X7265015Y1319005D01*
X10582529Y1065911D02*
X12099430D01*
X5709420Y1368681D02*
X5948681D01*
X5455740Y1115000D02*
X5709420Y1368681D01*
X4124960Y1115000D02*
X5455740D01*
X4041140Y1117600D02*
X4090833Y1067907D01*
X3211021Y2018133D02*
X3786967D01*
X3209648Y2016760D02*
X3211021Y2018133D01*
X3264290Y2067460D02*
X3863440D01*
X3210850Y2120900D02*
X3264290Y2067460D01*
X3786967Y2018133D02*
X3828980Y1976120D01*
X3863440Y2067460D02*
X3906520Y2024380D01*
X3828980Y1976120D02*
X3939540D01*
X3541381Y1681078D02*
X3568700Y1681480D01*
X7139940Y1371600D02*
X7417960D01*
X5311580Y1285240D02*
X5478780Y1452440D01*
X3677920Y1285240D02*
X5311580D01*
X12099430Y1065911D02*
X12157500Y1123981D01*
X10502900Y1145540D02*
X10582529Y1065911D01*
X10598175Y1102569D02*
X12082990Y1102570D01*
X10541000Y1159745D02*
X10598175Y1102569D01*
X12082990Y1102570D02*
X12117500Y1137080D01*
X7021640Y1370140D02*
X7023100Y1371600D01*
X5950140Y1370140D02*
X7021640D01*
X5948681Y1368681D02*
X5950140Y1370140D01*
X5716320Y1450340D02*
X6464001D01*
X3634740Y1834180D02*
X3842544D01*
X4593590Y2526030D02*
X4594860Y2524760D01*
X3714750Y2526030D02*
X4593590D01*
X3713480Y2527300D02*
X3714750Y2526030D01*
X4540288Y2582453D02*
X4541520Y2583685D01*
X3681692Y2582453D02*
X4540288D01*
X3680460Y2581220D02*
X3681692Y2582453D01*
D78*
X3196333Y1625029D02*
X3359962D01*
X3131744Y1560440D02*
X3196333Y1625029D01*
X3359962D02*
X3429021Y1555969D01*
X2907560Y1560440D02*
X3131744D01*
X2852681Y1505561D02*
X2907560Y1560440D01*
X13504665Y2912864D02*
X13566000D01*
X13472160Y2880360D02*
X13504665Y2912864D01*
X13472160Y2508760D02*
Y2880360D01*
X12037500Y1650000D02*
Y1802500D01*
X11807500Y2032500D02*
X12037500Y1802500D01*
X3429021Y1555969D02*
X3638769D01*
X3774440Y1691640D01*
X12237720Y1650420D02*
X12238140Y1650840D01*
X12966701Y2471420D02*
X13434821D01*
X12238140Y1742860D02*
X12966701Y2471420D01*
X12238140Y1650840D02*
Y1742860D01*
X12237720Y1650420D02*
X12238140Y1650000D01*
X12340000Y1680864D02*
X13030000Y2370864D01*
X7158198Y1488440D02*
X7160260D01*
X7155268Y1485510D02*
X7158198Y1488440D01*
X6798243Y1485510D02*
X7155268D01*
X2577560Y1505561D02*
X2852681D01*
X10007600Y1838960D02*
Y2039760D01*
Y1838960D02*
X10105400Y1741160D01*
X11540000D01*
X12117500Y1642500D02*
Y1821240D01*
X11822745Y2115995D02*
X12117500Y1821240D01*
X11561459Y2115995D02*
X11822745D01*
X11347760Y2217240D02*
X11532500Y2032500D01*
X10916247Y2217240D02*
X11347760D01*
X10861500Y2271987D02*
X10916247Y2217240D01*
X13434821Y2471420D02*
X13472160Y2508760D01*
X10919460Y2303717D02*
Y2423485D01*
X10877945Y2465000D02*
X10919460Y2423485D01*
X10772000Y2465000D02*
X10877945D01*
X10953177Y2270000D02*
X11407454D01*
X10919460Y2303717D02*
X10953177Y2270000D01*
X12340000Y1587500D02*
Y1680864D01*
X10705000Y2532000D02*
X10772000Y2465000D01*
X11407454Y2270000D02*
X11561459Y2115995D01*
X10861500Y2271987D02*
Y2370000D01*
X11532500Y2032500D02*
X11807500D01*
D80*
X2641318Y2196818D02*
X4186312D01*
X4255700Y2127430D01*
X2582382Y2137882D02*
X2641318Y2196818D01*
X4281330Y2127430D02*
X4285320Y2123440D01*
X4255700Y2127430D02*
X4281330D01*
X2350000Y2144070D02*
Y2185040D01*
X2356188Y2137882D02*
X2582382D01*
X2350000Y2144070D02*
X2356188Y2137882D01*
X4232730Y2091870D02*
X4236720Y2087880D01*
X4238048Y2089208D01*
X4176676Y2173554D02*
X4232730Y2117500D01*
X2650954Y2173554D02*
X4176676D01*
X4232730Y2091870D02*
Y2117500D01*
X2592018Y2114618D02*
X2650954Y2173554D01*
X2356188Y2114618D02*
X2592018D01*
X2350000Y2108430D02*
X2356188Y2114618D01*
X2350000Y2067460D02*
Y2108430D01*
X4678304Y1637568D02*
X4697892Y1617980D01*
X4428688Y1637568D02*
X4678304D01*
X4428159Y1661362D02*
X4677774D01*
X4422500Y1667020D02*
X4428159Y1661362D01*
X4677774D02*
X4697892Y1681480D01*
X4701540D01*
X4422500Y1667020D02*
Y1704200D01*
X4697892Y1617980D02*
X4701540D01*
X4422500Y1631380D02*
X4428688Y1637568D01*
X4422500Y1594200D02*
Y1631380D01*
D81*
X7926842Y2151380D02*
X8018667Y2243205D01*
X7063740Y2151380D02*
X7926842D01*
X8018667Y2243205D02*
Y2297362D01*
X7665000Y2045260D02*
X7740802Y1969458D01*
X8053136D01*
X8147050Y1875544D01*
Y1739966D02*
Y1875544D01*
X6863080Y1669580D02*
X7063740Y1870240D01*
Y2151380D01*
X6863080Y1551940D02*
Y1669580D01*
X8147050Y1739966D02*
X8244454Y1642562D01*
X3528060Y1902460D02*
X3686656D01*
X8244454Y1642562D02*
X8631100D01*
X2246630Y2009370D02*
Y2224470D01*
X2247200Y2225040D01*
X2246630Y2009370D02*
X2247200Y2008800D01*
X3477260Y2283460D02*
X3702578D01*
X3477260Y2283125D02*
Y2283460D01*
X2330662Y2729762D02*
Y2779856D01*
X2247200Y2646300D02*
X2330662Y2729762D01*
D82*
X12438678Y1363667D02*
X12445985Y1356360D01*
X12527825D01*
X12536095Y1364630D01*
X12484765Y1390030D02*
X12857410D01*
X12536095Y1364630D02*
X12867931D01*
X14455791Y1099820D02*
X14542241D01*
X14466312Y1125220D02*
X14531720D01*
X14513741Y1192500D02*
X14573601D01*
X14581039Y1185061D01*
Y1174540D02*
Y1185061D01*
X14531720Y1125220D02*
X14581039Y1174540D01*
X14673740Y1192500D02*
X14673740Y1192500D01*
X14613879Y1192500D02*
X14673740D01*
X14606441Y1185061D02*
X14613879Y1192500D01*
X14606441Y1164019D02*
Y1185061D01*
X14542241Y1099820D02*
X14606441Y1164019D01*
X13130431Y1364630D02*
X14226901D01*
X12889240Y1421860D02*
X13073201D01*
X12857410Y1390030D02*
X12889240Y1421860D01*
X13073201D02*
X13130431Y1364630D01*
X14226901D02*
X14466312Y1125220D01*
X13062682Y1396460D02*
X13119910Y1339230D01*
X12899760Y1396460D02*
X13062682D01*
X13119910Y1339230D02*
X14216380D01*
X12867931Y1364630D02*
X12899760Y1396460D01*
X14216380Y1339230D02*
X14455791Y1099820D01*
D85*
X5524500Y1798934D02*
D03*
Y1993900D02*
D03*
X3190240Y2603829D02*
D03*
X3568700Y1681480D02*
D03*
D86*
X1625080Y2399077D02*
D03*
X1310080D02*
D03*
X1625080Y1469077D02*
D03*
X1310080D02*
D03*
D87*
X2895480Y2061440D02*
D03*
X2680480D02*
D03*
X2787980D02*
D03*
Y1919940D02*
D03*
Y1697940D02*
D03*
X2895480Y1808940D02*
D03*
X2680480D02*
D03*
X2787980D02*
D03*
D88*
X8679180Y3017520D02*
D03*
X15001241Y1668780D02*
D03*
D89*
X5493500Y2656240D02*
D03*
Y2338740D02*
D03*
X6001500D02*
D03*
Y2656240D02*
D03*
D90*
X5747500D02*
D03*
X5849100Y2148240D02*
D03*
X5645900D02*
D03*
D91*
X5166360Y3068320D02*
D03*
X5669264D02*
D03*
D92*
X12027500Y1557500D02*
D03*
X12247500D02*
D03*
X12027500Y1337500D02*
D03*
X12247500D02*
D03*
X12027500Y1447500D02*
D03*
X12137500Y1557500D02*
D03*
Y1337500D02*
D03*
X12245000Y1447500D02*
D03*
D93*
X11752580Y1562100D02*
D03*
X11792018Y1518920D02*
D03*
X10193020Y1569720D02*
D03*
X10246360D02*
D03*
X4084000Y2679565D02*
D03*
X3685540Y2679700D02*
D03*
X4051300Y2418080D02*
D03*
X3502530Y2364170D02*
D03*
X3937000Y2361760D02*
D03*
X5048980Y2163664D02*
D03*
X4528980Y2136136D02*
D03*
X4777740Y2284257D02*
D03*
X2350000Y2185040D02*
D03*
X4285320Y2123440D02*
D03*
X4236720Y2087880D02*
D03*
X2350000Y2067460D02*
D03*
X2007640Y2126460D02*
D03*
X1835156Y2058239D02*
D03*
X1720080Y1698077D02*
D03*
Y2170077D02*
D03*
X5681980Y2895600D02*
D03*
X4422500Y1859280D02*
D03*
X5240960Y1774180D02*
D03*
X7088325Y2460211D02*
D03*
X6870261Y2382780D02*
D03*
X6428320Y1271344D02*
D03*
X6741220Y1178560D02*
D03*
X7364720Y1239916D02*
D03*
X6228080Y1650000D02*
D03*
X7951460Y1292620D02*
D03*
X3159100Y1765300D02*
D03*
X3914140Y2024380D02*
D03*
X3980180Y1935480D02*
D03*
X4528980Y2724236D02*
D03*
X4335780Y2356200D02*
D03*
X10573000Y1463040D02*
D03*
X5297520Y2135557D02*
D03*
X8068023Y2875680D02*
D03*
X6907080Y2701859D02*
D03*
X1890045Y2269325D02*
D03*
X6413000Y2997200D02*
D03*
X7665000Y2045260D02*
D03*
X8072120Y1875040D02*
D03*
X8007500Y1890000D02*
D03*
X6525260Y1649780D02*
D03*
X7367500Y2512060D02*
D03*
X7063740Y2151380D02*
D03*
X13566000Y2912864D02*
D03*
X9283700Y2766060D02*
D03*
X9481820D02*
D03*
X9682480D02*
D03*
X9885680D02*
D03*
X10086340D02*
D03*
X10284460D02*
D03*
X9989293Y2940000D02*
D03*
X10090258D02*
D03*
X9787363D02*
D03*
X9888328D02*
D03*
X9585433D02*
D03*
X9686398D02*
D03*
X9383503D02*
D03*
X9484468D02*
D03*
X9282538D02*
D03*
X8727620Y2417142D02*
D03*
X8785860Y2416817D02*
D03*
X8613320Y2417142D02*
D03*
X8671560Y2416817D02*
D03*
X14835620Y2526680D02*
D03*
Y2586680D02*
D03*
X14900620Y2646680D02*
D03*
Y2586680D02*
D03*
X14835620Y2646680D02*
D03*
X14900620Y2526680D02*
D03*
X14835620Y2706680D02*
D03*
X14900620D02*
D03*
X14382980Y2705100D02*
D03*
X14317979D02*
D03*
X14382980Y2525100D02*
D03*
X14317979Y2645100D02*
D03*
X14317020Y2012688D02*
D03*
X14377020D02*
D03*
X14317020Y2077688D02*
D03*
X14257021D02*
D03*
X14382980Y2585100D02*
D03*
Y2645100D02*
D03*
X14317979Y2585100D02*
D03*
Y2525100D02*
D03*
X14257021Y2012688D02*
D03*
X14377020Y2077688D02*
D03*
X14437019Y2012688D02*
D03*
Y2077688D02*
D03*
X13785001Y2467500D02*
D03*
Y2532500D02*
D03*
X13725000D02*
D03*
X13845000Y2467500D02*
D03*
X13725000D02*
D03*
X13905000D02*
D03*
X13845000Y2532500D02*
D03*
X13905000D02*
D03*
X5485360Y3068737D02*
D03*
X1865860Y2603829D02*
D03*
X1889760Y2374080D02*
D03*
Y2181040D02*
D03*
X1334900Y2583804D02*
D03*
X7782560Y1325454D02*
D03*
X7622760Y1142288D02*
D03*
X8006080Y1704340D02*
D03*
X2019300Y1922780D02*
D03*
X11780283Y1284337D02*
D03*
X4918980Y2726136D02*
D03*
X4853980D02*
D03*
X2842260Y1807500D02*
D03*
X2811780Y2017380D02*
D03*
X2842260Y1698280D02*
D03*
X2761565Y2016760D02*
D03*
X2842260Y1752890D02*
D03*
X2733040Y1699260D02*
D03*
X2895480Y1863550D02*
D03*
X2680480Y2110740D02*
D03*
X2733040Y1808480D02*
D03*
X2895480Y1699720D02*
D03*
X3095719Y1703899D02*
D03*
X2893060Y2110740D02*
D03*
X2680480Y1863550D02*
D03*
X2597980Y1805440D02*
D03*
X2733625Y2061760D02*
D03*
X2787980Y1863550D02*
D03*
X2839915Y2110740D02*
D03*
X2680480Y1699720D02*
D03*
X2733040Y1863090D02*
D03*
X3065361Y1765300D02*
D03*
X2597980Y1885440D02*
D03*
X2703340Y2016760D02*
D03*
X2786770Y2110740D02*
D03*
X2733040Y1753870D02*
D03*
X2787980Y1754330D02*
D03*
X2870642Y2018133D02*
D03*
X2895480Y1754330D02*
D03*
X2733040Y1917700D02*
D03*
X2895480Y1918160D02*
D03*
X2733625Y2110740D02*
D03*
X2680480Y1754330D02*
D03*
X2842260Y1916720D02*
D03*
X2839915Y2061760D02*
D03*
X2680480Y1918160D02*
D03*
X2842260Y1862110D02*
D03*
X2352200Y1348740D02*
D03*
X2468880Y1557840D02*
D03*
X12117500Y1650000D02*
D03*
X5100080Y2024620D02*
D03*
X1831340Y2860520D02*
D03*
Y3119600D02*
D03*
Y2988500D02*
D03*
X2085340Y2827600D02*
D03*
Y2696500D02*
D03*
Y2568520D02*
D03*
X4244340Y2410460D02*
D03*
X11935000Y1467500D02*
D03*
X11826240Y1427480D02*
D03*
X12037500Y1650000D02*
D03*
X12438678Y1363667D02*
D03*
X12340000Y1347500D02*
D03*
X12496800Y1399540D02*
D03*
X12526500Y1477660D02*
D03*
X12038140Y1245000D02*
D03*
X12117500D02*
D03*
X10922000Y1158240D02*
D03*
X12157500Y1164438D02*
D03*
X12077500Y1180000D02*
D03*
X12602500Y1215000D02*
D03*
X11935000Y1386900D02*
D03*
X11540000Y1611160D02*
D03*
X10782500Y1432500D02*
D03*
X12192000Y1338580D02*
D03*
X4041140Y1117600D02*
D03*
X4124960Y1115000D02*
D03*
X3919220Y1160780D02*
D03*
X3209648Y2016760D02*
D03*
X3210850Y2120900D02*
D03*
X2352040Y1448061D02*
D03*
X2468880Y1469840D02*
D03*
X1968500Y1354720D02*
D03*
X3639820Y1424940D02*
D03*
X3686656Y1902460D02*
D03*
X3528060D02*
D03*
X3160580Y1312500D02*
D03*
X3072580D02*
D03*
X4140200Y1699260D02*
D03*
X4224020Y1958260D02*
D03*
X4348480Y2137882D02*
D03*
X4206240Y2034540D02*
D03*
X5664200Y2758440D02*
D03*
X13030000Y2370864D02*
D03*
X5295360Y2638500D02*
D03*
X5176520Y2638240D02*
D03*
X6682740Y1313180D02*
D03*
X6798243Y1485510D02*
D03*
X5478780Y1452440D02*
D03*
X3761739Y1229359D02*
D03*
X4297680Y1390880D02*
D03*
X8689160Y1656985D02*
D03*
X8630920Y1657310D02*
D03*
X7390480Y1323340D02*
D03*
X6228320Y1196344D02*
D03*
X13447209Y2317126D02*
D03*
X3395980Y2513680D02*
D03*
X3408680Y1653540D02*
D03*
X2361848Y1715672D02*
D03*
Y1788160D02*
D03*
X2579180Y2578300D02*
D03*
X2403158Y1907540D02*
D03*
X2484248Y1821180D02*
D03*
X2402004D02*
D03*
X2485390Y1907540D02*
D03*
X2361848Y1869440D02*
D03*
X13497652Y1443580D02*
D03*
X13300153D02*
D03*
X13497652Y1603580D02*
D03*
X13300153D02*
D03*
X9360140Y2405399D02*
D03*
X9263380Y2313402D02*
D03*
X9456420D02*
D03*
X9360140D02*
D03*
X9263542Y2222500D02*
D03*
X9263679Y2404612D02*
D03*
X9360052Y2222500D02*
D03*
X9456420Y2404612D02*
D03*
Y2222500D02*
D03*
X9632607Y2113559D02*
D03*
Y1953559D02*
D03*
X9372300Y1941780D02*
D03*
X8712200Y1944102D02*
D03*
X9040390Y1944098D02*
D03*
X9992360Y1445941D02*
D03*
X13890152Y1604795D02*
D03*
Y1444795D02*
D03*
X13695152Y1604795D02*
D03*
Y1444795D02*
D03*
X11678920Y1605280D02*
D03*
X8785860Y2365032D02*
D03*
X8841920Y2262110D02*
D03*
Y2313895D02*
D03*
X8785860Y2313246D02*
D03*
X8727620Y2313571D02*
D03*
Y2261785D02*
D03*
X8671560Y2209675D02*
D03*
Y2313246D02*
D03*
X9769348Y2425388D02*
D03*
Y2477173D02*
D03*
Y2373602D02*
D03*
X9825408Y2374252D02*
D03*
Y2322466D02*
D03*
X9655048Y2373602D02*
D03*
Y2270031D02*
D03*
X9711108Y2322141D02*
D03*
Y2373927D02*
D03*
X8727620Y2365356D02*
D03*
X8671560Y2365032D02*
D03*
X8841920Y2365681D02*
D03*
X8671560Y2261461D02*
D03*
X8841920Y2210324D02*
D03*
X8727620Y2210000D02*
D03*
X8841920Y2417466D02*
D03*
X8785860Y2261461D02*
D03*
Y2209675D02*
D03*
X9825408Y2270680D02*
D03*
Y2477823D02*
D03*
X9769348Y2321817D02*
D03*
Y2270031D02*
D03*
X9711108Y2270356D02*
D03*
X9655048Y2321817D02*
D03*
X9711108Y2477498D02*
D03*
X9655048Y2477173D02*
D03*
X9825408Y2426037D02*
D03*
X9711108Y2425712D02*
D03*
X9655048Y2425388D02*
D03*
X8745220Y1657310D02*
D03*
X8917760D02*
D03*
X12192580Y1502580D02*
D03*
X12238140Y1650000D02*
D03*
X12192580Y1557500D02*
D03*
X12137500Y1502580D02*
D03*
X12251546Y1936176D02*
D03*
X11096952Y1227500D02*
D03*
X11540000Y1394460D02*
D03*
X11231952Y1227500D02*
D03*
X10663193Y1226820D02*
D03*
X12095140Y1928934D02*
D03*
X12082780Y1337500D02*
D03*
X12026900Y1392340D02*
D03*
X12082539Y1391380D02*
D03*
X12137500Y1392420D02*
D03*
X12082420Y1447500D02*
D03*
X11540000Y1741160D02*
D03*
X13123665Y1705620D02*
D03*
X13123682Y1549613D02*
D03*
X13446227Y2415032D02*
D03*
X11354500Y2369500D02*
D03*
X10705500Y3025000D02*
D03*
X10711420Y1992022D02*
D03*
X10623420D02*
D03*
X10712000Y1883122D02*
D03*
X10624000D02*
D03*
X13083360Y2847340D02*
D03*
Y2593340D02*
D03*
X13083540Y2720340D02*
D03*
X13083360Y2911220D02*
D03*
Y2784220D02*
D03*
Y2657220D02*
D03*
Y2530220D02*
D03*
X13011000Y2912864D02*
D03*
Y2785864D02*
D03*
Y2658864D02*
D03*
Y2531864D02*
D03*
X11191420Y2597236D02*
D03*
Y2851236D02*
D03*
X11191240Y2724236D02*
D03*
X11191420Y2533356D02*
D03*
Y2660356D02*
D03*
Y2787356D02*
D03*
Y2914356D02*
D03*
X10925000Y1885260D02*
D03*
X11179000D02*
D03*
X11052000Y1885440D02*
D03*
X10861120Y1885260D02*
D03*
X10988120D02*
D03*
X11115120D02*
D03*
X11242120D02*
D03*
X13093700Y1884500D02*
D03*
X13347701D02*
D03*
X13220700Y1884680D02*
D03*
X13029820Y1884500D02*
D03*
X13156821D02*
D03*
X13283820D02*
D03*
X13410820D02*
D03*
X13411000Y1815864D02*
D03*
X13284000D02*
D03*
X13157001D02*
D03*
X13030000D02*
D03*
X11242500Y1815000D02*
D03*
X11115500D02*
D03*
X10988500D02*
D03*
X10861500D02*
D03*
X10924999Y2161360D02*
D03*
X11178999D02*
D03*
X11051999Y2161540D02*
D03*
X10861119Y2161360D02*
D03*
X10988119D02*
D03*
X11115119D02*
D03*
X11242119D02*
D03*
X13092999Y2217240D02*
D03*
X13347000D02*
D03*
X13220000Y2217420D02*
D03*
X13029120Y2217240D02*
D03*
X13156120D02*
D03*
X13283121D02*
D03*
X13410120D02*
D03*
X13093500Y2049183D02*
D03*
X13347501D02*
D03*
X13220500Y2049364D02*
D03*
X13029620Y2049183D02*
D03*
X13156619D02*
D03*
X13283620D02*
D03*
X13410620D02*
D03*
X11179000Y2048680D02*
D03*
X10925000D02*
D03*
X11052000Y2048500D02*
D03*
X11242880Y2048680D02*
D03*
X11115880D02*
D03*
X10988880D02*
D03*
X10861880D02*
D03*
X13411380Y2596364D02*
D03*
Y2850364D02*
D03*
X13411200Y2723364D02*
D03*
X13411380Y2532484D02*
D03*
Y2659484D02*
D03*
Y2786484D02*
D03*
Y2913484D02*
D03*
X13244679Y2595364D02*
D03*
Y2849364D02*
D03*
X13244501Y2722364D02*
D03*
X13244679Y2531484D02*
D03*
Y2658484D02*
D03*
Y2785484D02*
D03*
Y2912484D02*
D03*
X11026681Y2595500D02*
D03*
Y2849500D02*
D03*
X11026500Y2722500D02*
D03*
X11026681Y2531620D02*
D03*
Y2658620D02*
D03*
Y2785620D02*
D03*
Y2912620D02*
D03*
X10856140Y2595880D02*
D03*
Y2849880D02*
D03*
X10855960Y2722880D02*
D03*
X10856140Y2532000D02*
D03*
Y2659000D02*
D03*
Y2786000D02*
D03*
Y2913000D02*
D03*
X11260000D02*
D03*
Y2786000D02*
D03*
Y2659000D02*
D03*
Y2532000D02*
D03*
X10705000D02*
D03*
X10861500Y2370000D02*
D03*
X14513741Y1192500D02*
D03*
X14673740Y1192500D02*
D03*
X13347360Y1227500D02*
D03*
X13409000Y1227805D02*
D03*
X13469000D02*
D03*
X13528999D02*
D03*
X13589000D02*
D03*
X13972881Y1228789D02*
D03*
X14032880D02*
D03*
X14092880D02*
D03*
X14152879D02*
D03*
X13347360Y1162500D02*
D03*
X13287360Y1227500D02*
D03*
X13409000Y1162804D02*
D03*
X13469000D02*
D03*
X13528999D02*
D03*
X13589000D02*
D03*
X13972881Y1163789D02*
D03*
X14032880D02*
D03*
X14092880D02*
D03*
X14152879D02*
D03*
X14386560Y1645027D02*
D03*
Y1587500D02*
D03*
Y1702553D02*
D03*
Y1760080D02*
D03*
X1632651Y1694180D02*
D03*
Y1750461D02*
D03*
X4422140Y1525158D02*
D03*
Y1775460D02*
D03*
X4422500Y1704200D02*
D03*
Y1594200D02*
D03*
X4699000Y1617980D02*
D03*
Y1681480D02*
D03*
X2019300Y1986462D02*
D03*
X1877468Y1560380D02*
D03*
X7837356Y1483360D02*
D03*
X6287501Y2250417D02*
D03*
X14803120Y1647527D02*
D03*
Y1590000D02*
D03*
Y1705054D02*
D03*
Y1762580D02*
D03*
X10429240Y2099687D02*
D03*
Y2042160D02*
D03*
Y2157213D02*
D03*
Y2214740D02*
D03*
X10007600Y2212340D02*
D03*
X14866151Y1238636D02*
D03*
Y1441136D02*
D03*
X13997501Y2177500D02*
D03*
X13805000Y2178364D02*
D03*
X13612500Y2177500D02*
D03*
X14994501Y1210000D02*
D03*
Y1270000D02*
D03*
X15059500Y1210000D02*
D03*
Y1270000D02*
D03*
X14993620Y1412280D02*
D03*
Y1472280D02*
D03*
X15058620Y1412280D02*
D03*
Y1472280D02*
D03*
X13564999Y2786864D02*
D03*
Y2659864D02*
D03*
Y2532864D02*
D03*
X13997501Y2337500D02*
D03*
X13805000Y2338364D02*
D03*
X13612500Y2337500D02*
D03*
X13411000Y2370864D02*
D03*
X13284000D02*
D03*
X13157001D02*
D03*
X12082420Y1503680D02*
D03*
X12082500Y1557076D02*
D03*
X12027238Y1503680D02*
D03*
X9285531Y2641247D02*
D03*
X10285014Y2637221D02*
D03*
X12247880Y1391920D02*
D03*
X12193723D02*
D03*
X12247880Y1503680D02*
D03*
X12192580Y1447500D02*
D03*
X10090258Y3013660D02*
D03*
X9989293D02*
D03*
X9888328D02*
D03*
X9787363D02*
D03*
X9686398D02*
D03*
X9585433D02*
D03*
X9484468D02*
D03*
X9383503D02*
D03*
X9282538D02*
D03*
X10090258Y3087436D02*
D03*
X9989293D02*
D03*
X9888328D02*
D03*
X9787363D02*
D03*
X9686398D02*
D03*
X9585433D02*
D03*
X9484468D02*
D03*
X9383503D02*
D03*
X9282538D02*
D03*
X10086786Y2638364D02*
D03*
X9885714D02*
D03*
X9684643D02*
D03*
X9824720Y2112500D02*
D03*
X9483572Y2638364D02*
D03*
X10007600Y2154813D02*
D03*
Y2039760D02*
D03*
Y2097287D02*
D03*
X3842544Y1834180D02*
D03*
X3634740D02*
D03*
X3774440Y1691640D02*
D03*
X2577560Y1505561D02*
D03*
X3477260Y2283125D02*
D03*
X3702578Y2283460D02*
D03*
X2981500Y2320500D02*
D03*
X7037702Y1552820D02*
D03*
Y1720000D02*
D03*
X6932500Y1958417D02*
D03*
X6610000D02*
D03*
X6287501D02*
D03*
X8425180Y1890000D02*
D03*
Y1953415D02*
D03*
Y2019300D02*
D03*
X8209280Y1887220D02*
D03*
X8208010Y2019300D02*
D03*
X8209280Y1953416D02*
D03*
X8317500Y1887220D02*
D03*
X8317501Y2019300D02*
D03*
X8317500Y1953415D02*
D03*
X7197702Y2078500D02*
D03*
X7408280Y2078040D02*
D03*
Y1945440D02*
D03*
X7197702Y1945960D02*
D03*
X7302280D02*
D03*
Y2078040D02*
D03*
X7408280Y2013416D02*
D03*
X7197702D02*
D03*
X7302281Y2012500D02*
D03*
X9824720Y1952500D02*
D03*
X10741660Y2720910D02*
D03*
X10660380D02*
D03*
X10741660Y2849880D02*
D03*
X10746740Y2970814D02*
D03*
X11305000Y2343495D02*
D03*
Y2399670D02*
D03*
X11177500Y2341880D02*
D03*
Y2399670D02*
D03*
X12552020Y2717460D02*
D03*
Y2597460D02*
D03*
Y2537460D02*
D03*
Y2657460D02*
D03*
X12487020D02*
D03*
Y2597460D02*
D03*
Y2717460D02*
D03*
Y2537460D02*
D03*
X11794720Y2717460D02*
D03*
Y2597460D02*
D03*
Y2537460D02*
D03*
Y2657460D02*
D03*
X11729720D02*
D03*
Y2597460D02*
D03*
Y2717460D02*
D03*
Y2537460D02*
D03*
X7842500Y2385000D02*
D03*
X8900160Y2365356D02*
D03*
Y2210000D02*
D03*
Y2417142D02*
D03*
Y2313571D02*
D03*
Y2261785D02*
D03*
X8613320Y2210000D02*
D03*
Y2313571D02*
D03*
Y2365356D02*
D03*
Y2261785D02*
D03*
X7023100Y1371600D02*
D03*
X7275480Y1323340D02*
D03*
X7139940Y1371600D02*
D03*
X8803460Y1501629D02*
D03*
X8689160D02*
D03*
Y1553414D02*
D03*
X8630920Y1501953D02*
D03*
X8917760D02*
D03*
X8745220D02*
D03*
X7926500Y1455000D02*
D03*
X8859520Y1502278D02*
D03*
X7638500Y1455000D02*
D03*
X8177749Y1452440D02*
D03*
X7503000Y1536400D02*
D03*
X1647190Y1130138D02*
D03*
X3327400Y2254638D02*
D03*
X2562711Y3058460D02*
D03*
X2330662Y2779856D02*
D03*
Y3059856D02*
D03*
X2444092Y1869440D02*
D03*
X2526336D02*
D03*
X2444092Y1788160D02*
D03*
X2540211Y1792570D02*
D03*
X1512698Y1694180D02*
D03*
Y1751623D02*
D03*
X1573246D02*
D03*
Y1694180D02*
D03*
X8803460Y1605200D02*
D03*
X8859520Y1605849D02*
D03*
Y1657634D02*
D03*
Y1554063D02*
D03*
X8917760Y1605524D02*
D03*
Y1553739D02*
D03*
X8745220Y1605524D02*
D03*
X8803460Y1656985D02*
D03*
X8745220Y1553739D02*
D03*
X8803460Y1553414D02*
D03*
X8630920Y1605524D02*
D03*
Y1553739D02*
D03*
X8689160Y1605200D02*
D03*
X4632384Y1963040D02*
D03*
X4525656D02*
D03*
X3163000Y2357120D02*
D03*
X2575560Y1357260D02*
D03*
X2604000Y1147500D02*
D03*
X1334900Y1331360D02*
D03*
X7236460Y1488440D02*
D03*
X7160260D02*
D03*
X7236460Y1574800D02*
D03*
X7160260D02*
D03*
X7236460Y1676400D02*
D03*
X7160260D02*
D03*
X7236460Y1762760D02*
D03*
X7160260D02*
D03*
X8346440Y2346035D02*
D03*
X8422640D02*
D03*
X8346440Y2259675D02*
D03*
X8422640D02*
D03*
X3677920Y1285240D02*
D03*
X7782501Y1905156D02*
D03*
X12340000Y1587500D02*
D03*
X12984979Y1346460D02*
D03*
X9596808Y2322141D02*
D03*
Y2477498D02*
D03*
Y2425712D02*
D03*
Y2373927D02*
D03*
Y2270356D02*
D03*
X9883648Y2322141D02*
D03*
Y2373927D02*
D03*
Y2477498D02*
D03*
Y2270356D02*
D03*
Y2425712D02*
D03*
X6863080Y1551940D02*
D03*
X8018667Y2297362D02*
D03*
X3731260Y1971040D02*
D03*
X4594860Y2524760D02*
D03*
X4137660Y1430020D02*
D03*
X3275680Y1424940D02*
D03*
X5948681Y1368681D02*
D03*
X6464001Y1450340D02*
D03*
X5749766Y2209474D02*
D03*
X5853906Y2449240D02*
D03*
X3680460Y2581220D02*
D03*
X3713480Y2527300D02*
D03*
X3832860Y2471420D02*
D03*
X1640540Y2964180D02*
D03*
X1447800Y3095280D02*
D03*
Y2836200D02*
D03*
X1254460D02*
D03*
Y3095280D02*
D03*
Y2964180D02*
D03*
X1877060Y1661440D02*
D03*
X3042920Y2623251D02*
D03*
Y2571466D02*
D03*
X2984680Y2571790D02*
D03*
Y2520005D02*
D03*
X3042920Y2519680D02*
D03*
X2984680Y2623576D02*
D03*
X2138680Y2016760D02*
D03*
X2250000Y1743824D02*
D03*
X1877060Y1749440D02*
D03*
X1640540Y2836200D02*
D03*
Y3095280D02*
D03*
X1447800Y2964180D02*
D03*
X7387240Y1423180D02*
D03*
X7782500Y1535000D02*
D03*
X7729220Y1483360D02*
D03*
X7837356Y1590040D02*
D03*
X7728398D02*
D03*
X4954479Y3029732D02*
D03*
X4840179D02*
D03*
X4725879D02*
D03*
X4185000Y2940000D02*
D03*
X4154000Y3067500D02*
D03*
X3370000Y2687000D02*
D03*
X3047500Y2815000D02*
D03*
Y2940000D02*
D03*
Y3068000D02*
D03*
X2072640Y1369060D02*
D03*
X6596380Y2296099D02*
D03*
X6652440Y2193177D02*
D03*
Y2296748D02*
D03*
Y2348533D02*
D03*
X6710680Y2348209D02*
D03*
Y2192852D02*
D03*
Y2399994D02*
D03*
X6652440Y2400319D02*
D03*
Y2244962D02*
D03*
X6710680Y2296423D02*
D03*
Y2244638D02*
D03*
X6538140Y2192852D02*
D03*
Y2296423D02*
D03*
Y2348209D02*
D03*
X6596380Y2347884D02*
D03*
Y2192527D02*
D03*
Y2399670D02*
D03*
X6538140Y2399994D02*
D03*
Y2244638D02*
D03*
X6596380Y2244313D02*
D03*
X6423840Y2192852D02*
D03*
Y2296423D02*
D03*
Y2348209D02*
D03*
X6482080Y2347884D02*
D03*
Y2192527D02*
D03*
Y2399670D02*
D03*
X6423840Y2399994D02*
D03*
Y2244638D02*
D03*
X6482080Y2296099D02*
D03*
Y2244313D02*
D03*
X2517320Y2441265D02*
D03*
X2575560Y2337369D02*
D03*
X2517320Y2337694D02*
D03*
Y2389479D02*
D03*
X2575560Y2389154D02*
D03*
Y2440940D02*
D03*
X2247200Y2225040D02*
D03*
X1632651Y2174240D02*
D03*
X1573246D02*
D03*
Y2107220D02*
D03*
X1513840D02*
D03*
Y2174240D02*
D03*
X1632651Y2107220D02*
D03*
X14008099Y2001520D02*
D03*
X13943100D02*
D03*
X13677901D02*
D03*
X13612900D02*
D03*
Y1821520D02*
D03*
X13677901D02*
D03*
X13943100D02*
D03*
X14008099D02*
D03*
X4541520Y2583685D02*
D03*
X2885260Y2466818D02*
D03*
Y2518603D02*
D03*
X2827020Y2467142D02*
D03*
X2745740D02*
D03*
Y2518928D02*
D03*
X2687500Y2467467D02*
D03*
X2827020Y2622499D02*
D03*
X2885260Y2622174D02*
D03*
Y2570389D02*
D03*
X2827020Y2570713D02*
D03*
X2687500Y2622823D02*
D03*
X2745740Y2622499D02*
D03*
X4983980Y2726136D02*
D03*
X2827020Y2260000D02*
D03*
Y2311786D02*
D03*
Y2363571D02*
D03*
Y2415357D02*
D03*
Y2518928D02*
D03*
X2885260Y2415032D02*
D03*
Y2363246D02*
D03*
Y2311461D02*
D03*
Y2259675D02*
D03*
X2745740Y2260000D02*
D03*
Y2311786D02*
D03*
Y2363571D02*
D03*
Y2415357D02*
D03*
Y2570713D02*
D03*
X2319760Y1821180D02*
D03*
X2687500Y2571038D02*
D03*
Y2519252D02*
D03*
Y2415681D02*
D03*
Y2363896D02*
D03*
Y2312110D02*
D03*
Y2260325D02*
D03*
X4530221Y1874693D02*
D03*
X2247200Y1373800D02*
D03*
X7857500Y1810000D02*
D03*
X8072820Y1569060D02*
D03*
X7399780Y1787824D02*
D03*
X13604919Y2595000D02*
D03*
Y2472300D02*
D03*
X13532500Y2595000D02*
D03*
Y2472300D02*
D03*
X13604919Y2722500D02*
D03*
X13532500D02*
D03*
X13604919Y2847500D02*
D03*
X13532500Y2850000D02*
D03*
X13347459Y2342600D02*
D03*
Y2416724D02*
D03*
X13220000Y2342600D02*
D03*
Y2415000D02*
D03*
X13093700Y2342600D02*
D03*
X13094960Y2415000D02*
D03*
X11115500Y2370000D02*
D03*
X10988500D02*
D03*
X11052000Y2400319D02*
D03*
X11242500Y2370000D02*
D03*
X11052000Y2342600D02*
D03*
X10705000Y2786000D02*
D03*
Y2913000D02*
D03*
X4767780Y1341526D02*
D03*
X4544384Y1551339D02*
D03*
X12612140Y2537460D02*
D03*
Y2717460D02*
D03*
Y2597460D02*
D03*
Y2657460D02*
D03*
X12677140D02*
D03*
Y2537460D02*
D03*
Y2597460D02*
D03*
Y2717460D02*
D03*
X11600180Y2537460D02*
D03*
Y2717460D02*
D03*
Y2597460D02*
D03*
Y2657460D02*
D03*
X11665180D02*
D03*
Y2537460D02*
D03*
Y2597460D02*
D03*
Y2717460D02*
D03*
X13167360Y1162500D02*
D03*
X13287360D02*
D03*
X13227361D02*
D03*
Y1227500D02*
D03*
X13167360D02*
D03*
X13943100Y1881520D02*
D03*
Y1941520D02*
D03*
X14008099D02*
D03*
Y1881520D02*
D03*
X13612900D02*
D03*
Y1941520D02*
D03*
X13677901D02*
D03*
Y1881520D02*
D03*
X10705000Y2659000D02*
D03*
X10662920Y2970814D02*
D03*
X10660380Y2849880D02*
D03*
X8222500Y2302500D02*
D03*
X11540000Y1237804D02*
D03*
X10778609Y1227500D02*
D03*
X12984999Y1468820D02*
D03*
X10780000Y1347500D02*
D03*
X4632384Y1875040D02*
D03*
X5000960Y1914180D02*
D03*
X5050960Y1989140D02*
D03*
X4853980Y2136136D02*
D03*
X4790140Y2135557D02*
D03*
X4917140Y2029780D02*
D03*
X5295344Y2299103D02*
D03*
X12137500Y1447500D02*
D03*
X4788980Y2726136D02*
D03*
X4463980Y2724236D02*
D03*
X4890960Y1784180D02*
D03*
X5000960D02*
D03*
X5110960D02*
D03*
X4890960Y1674180D02*
D03*
X5000960D02*
D03*
X5110960D02*
D03*
X4890960Y1564180D02*
D03*
X5000960D02*
D03*
X5110960D02*
D03*
D94*
X1195080Y1799077D02*
D03*
Y2069077D02*
D03*
X1560080Y2274077D02*
D03*
Y1594077D02*
D03*
D95*
X2055000Y1695000D02*
D03*
Y2330000D02*
D03*
D108*
X6223000Y2997200D02*
D03*
X6413000D02*
D03*
X6318000Y2777200D02*
D03*
D109*
X8676184Y2780951D02*
D03*
Y2465951D02*
D03*
D110*
X7307800Y2918460D02*
D03*
X7482800D02*
D03*
D111*
X6871541Y2571500D02*
D03*
Y2381500D02*
D03*
X6659541Y2476500D02*
D03*
D112*
X6896101Y2837313D02*
D03*
Y2925313D02*
D03*
D113*
X7663605Y2328931D02*
D03*
Y2393931D02*
D03*
Y2458931D02*
D03*
Y2523931D02*
D03*
Y2588931D02*
D03*
Y2653931D02*
D03*
Y2718931D02*
D03*
X7089605D02*
D03*
Y2653931D02*
D03*
Y2588931D02*
D03*
Y2523931D02*
D03*
Y2458931D02*
D03*
Y2393931D02*
D03*
Y2328931D02*
D03*
%TF.MD5,08515c1487d19133f3a444b74dae3eb0*%
M02*
