%TF.GenerationSoftware,Altium Limited,Altium Designer,19.0.15 (446)*%
G04 Layer_Color=32768*
%FSLAX26Y26*%
%MOIN*%
%TF.FileFunction,Other,Mechanical_15*%
%TF.Part,Single*%
G01*
G75*
%TA.AperFunction,NonConductor*%
%ADD90C,0.007874*%
%ADD92C,0.003937*%
%ADD142C,0.001968*%
D90*
X433496Y970905D02*
X655543D01*
Y592953D02*
Y970905D01*
X364205Y592953D02*
X655543D01*
X433496D02*
Y970905D01*
X364205Y592953D02*
Y970905D01*
X433496D01*
D92*
X1782520Y1076110D02*
G03*
X1743150Y1036740I0J-39370D01*
G01*
Y879260D02*
G03*
X1782520Y839890I39370J0D01*
G01*
X2136850Y1036740D02*
G03*
X2097480Y1076110I-39370J0D01*
G01*
Y839890D02*
G03*
X2136850Y879260I0J39370D01*
G01*
X1388000Y652299D02*
Y689701D01*
X1369299Y671000D02*
X1406701D01*
X5193956Y761504D02*
X5233326D01*
X5213641Y741819D02*
Y781189D01*
X2726000Y1091315D02*
Y1130685D01*
X2706315Y1111000D02*
X2745685D01*
X2374000Y1005299D02*
Y1042701D01*
X2355299Y1024000D02*
X2392701D01*
X1052000Y1034315D02*
Y1073685D01*
X1032315Y1054000D02*
X1071685D01*
X956000Y1035315D02*
Y1074685D01*
X936315Y1055000D02*
X975685D01*
X860000Y1035315D02*
Y1074685D01*
X840315Y1055000D02*
X879685D01*
X2546000Y1106189D02*
Y1129811D01*
X2534189Y1118000D02*
X2557811D01*
X2222315Y979886D02*
X2261685D01*
X2242000Y960201D02*
Y999571D01*
X2164000Y1143937D02*
Y1183307D01*
X2144315Y1163622D02*
X2183685D01*
X677173Y1162638D02*
X698827D01*
X688000Y1151811D02*
Y1173465D01*
X666346Y1114409D02*
Y1210866D01*
X709654Y1114409D02*
Y1210866D01*
X666346Y1114409D02*
X709654D01*
X666346Y1210866D02*
X709654D01*
X2136850Y879260D02*
Y1036740D01*
X1782520Y839890D02*
X2097480D01*
X1782520Y1076110D02*
X2097480D01*
X1743150Y879260D02*
Y1036740D01*
X2997780Y612236D02*
Y651606D01*
X2978094Y631921D02*
X3017465D01*
X3155260Y611961D02*
Y651331D01*
X3135575Y631646D02*
X3174945D01*
X1526063Y954014D02*
X1565433D01*
X1545748Y934329D02*
Y973699D01*
X4025276Y797441D02*
Y836811D01*
X4005591Y817126D02*
X4044961D01*
X976158Y762685D02*
Y802055D01*
X956472Y782370D02*
X995842D01*
X2623000Y529315D02*
Y568685D01*
X2603315Y549000D02*
X2642685D01*
X3723384Y944299D02*
Y981701D01*
X3704683Y963000D02*
X3742085D01*
X3661417Y944709D02*
Y982110D01*
X3642716Y963409D02*
X3680118D01*
X3584772Y786669D02*
Y829976D01*
X3681228Y786669D02*
Y829976D01*
X3584772D02*
X3681228D01*
X3584772Y786669D02*
X3681228D01*
X3622173Y808323D02*
X3643827D01*
X3633000Y797496D02*
Y819149D01*
X3599764Y745677D02*
X3620236D01*
X3610000Y735441D02*
Y755913D01*
X3932315Y1092000D02*
X3971685D01*
X3952000Y1072315D02*
Y1111685D01*
X3744006Y592866D02*
X3764478D01*
X3754242Y582630D02*
Y603102D01*
X5010764Y482677D02*
X5031236D01*
X5021000Y472441D02*
Y492913D01*
X5024000Y635315D02*
Y674685D01*
X5004315Y655000D02*
X5043685D01*
X5077299Y500000D02*
X5114701D01*
X5096000Y481299D02*
Y518701D01*
X4496000Y716221D02*
Y755591D01*
X4476315Y735905D02*
X4515685D01*
X4082299Y656575D02*
X4119701D01*
X4101000Y637874D02*
Y675276D01*
X3556299Y1085000D02*
X3593701D01*
X3575000Y1066299D02*
Y1103701D01*
X3556299Y892598D02*
X3593701D01*
X3575000Y873898D02*
Y911299D01*
X3556299Y954252D02*
X3593701D01*
X3575000Y935551D02*
Y972953D01*
X3556299Y1150000D02*
X3593701D01*
X3575000Y1131299D02*
Y1168701D01*
X3489000Y1104299D02*
Y1141701D01*
X3470299Y1123000D02*
X3507701D01*
X5027000Y1029315D02*
Y1068685D01*
X5007315Y1049000D02*
X5046685D01*
X5268315Y549000D02*
X5307685D01*
X5288000Y529315D02*
Y568685D01*
X3684772Y631346D02*
Y674654D01*
X3781228Y631346D02*
Y674654D01*
X3684772D02*
X3781228D01*
X3684772Y631346D02*
X3781228D01*
X3722173Y653000D02*
X3743827D01*
X3733000Y642173D02*
Y663827D01*
X3702165Y592866D02*
X3722638D01*
X3712402Y582630D02*
Y603102D01*
X3644791Y745677D02*
X3665264D01*
X3655028Y735441D02*
Y755913D01*
X3931000Y982299D02*
Y1019701D01*
X3912299Y1001000D02*
X3949701D01*
X4017046Y635299D02*
Y672701D01*
X3998345Y654000D02*
X4035746D01*
X3840575Y634299D02*
Y671701D01*
X3821874Y653000D02*
X3859276D01*
X4422828Y968928D02*
X4462198D01*
X4442513Y949243D02*
Y988613D01*
X3616030Y657000D02*
X3653431D01*
X3634731Y638299D02*
Y675701D01*
X5078299Y437000D02*
X5115701D01*
X5097000Y418299D02*
Y455701D01*
X3665731Y548650D02*
Y586051D01*
X3647030Y567351D02*
X3684432D01*
X3953000Y1170013D02*
Y1207414D01*
X3934299Y1188713D02*
X3971701D01*
X4014000Y1170013D02*
Y1207414D01*
X3995299Y1188713D02*
X4032701D01*
X3833000Y1170013D02*
Y1207414D01*
X3814299Y1188713D02*
X3851701D01*
X3893000Y1170013D02*
Y1207414D01*
X3874299Y1188713D02*
X3911701D01*
X3855000Y1035299D02*
Y1072701D01*
X3836299Y1054000D02*
X3873701D01*
X5079299Y1197000D02*
X5116701D01*
X5098000Y1178299D02*
Y1215701D01*
X3604282Y548890D02*
Y586291D01*
X3585581Y567591D02*
X3622983D01*
X3780000Y1071732D02*
Y1109133D01*
X3761299Y1090432D02*
X3798701D01*
X3662561Y1071732D02*
Y1109133D01*
X3643860Y1090432D02*
X3681261D01*
X3721000Y1072299D02*
Y1109701D01*
X3702299Y1091000D02*
X3739701D01*
X3556102Y1019685D02*
X3593504D01*
X3574803Y1000984D02*
Y1038386D01*
X3783299Y925000D02*
X3820701D01*
X3802000Y906299D02*
Y943701D01*
X5778299Y486000D02*
X5815701D01*
X5797000Y467299D02*
Y504701D01*
X5779299Y1162000D02*
X5816701D01*
X5798000Y1143299D02*
Y1180701D01*
X3812299Y863000D02*
X3849701D01*
X3831000Y844299D02*
Y881701D01*
X3990000Y982299D02*
Y1019701D01*
X3971299Y1001000D02*
X4008701D01*
X4296000Y716315D02*
Y755685D01*
X4276315Y736000D02*
X4315685D01*
X4696000Y716315D02*
Y755685D01*
X4676315Y736000D02*
X4715685D01*
X5267315Y1105000D02*
X5306685D01*
X5287000Y1085315D02*
Y1124685D01*
X3909299Y633236D02*
X3946701D01*
X3928000Y614535D02*
Y651937D01*
X4067315Y1096000D02*
X4106685D01*
X4087000Y1076315D02*
Y1115685D01*
X4067315Y1019000D02*
X4106685D01*
X4087000Y999315D02*
Y1038685D01*
X4832000Y820864D02*
Y860234D01*
X4812315Y840549D02*
X4851685D01*
X5373547Y741819D02*
Y781189D01*
X5353862Y761504D02*
X5393232D01*
X5293547Y741819D02*
Y781189D01*
X5273862Y761504D02*
X5313232D01*
X4833000Y556315D02*
Y595685D01*
X4813315Y576000D02*
X4852685D01*
X4986094Y820319D02*
Y859689D01*
X4966409Y840004D02*
X5005779D01*
X4909094Y820319D02*
Y859689D01*
X4889409Y840004D02*
X4928779D01*
X5213641Y872860D02*
Y912230D01*
X5193956Y892545D02*
X5233326D01*
X5293641Y872860D02*
Y912230D01*
X5273956Y892545D02*
X5313326D01*
X5373641Y872860D02*
Y912230D01*
X5353956Y892545D02*
X5393326D01*
X5063000Y819864D02*
Y859234D01*
X5043315Y839549D02*
X5082685D01*
X4752906Y469846D02*
Y509216D01*
X4733221Y489531D02*
X4772591D01*
X4672906Y469846D02*
Y509216D01*
X4653221Y489531D02*
X4692591D01*
X4592906Y469846D02*
Y509216D01*
X4573221Y489531D02*
X4612591D01*
X4512906Y469846D02*
Y509216D01*
X4493221Y489531D02*
X4532591D01*
X4432906Y469846D02*
Y509216D01*
X4413221Y489531D02*
X4452591D01*
X4352906Y469846D02*
Y509216D01*
X4333221Y489531D02*
X4372591D01*
X4272906Y469846D02*
Y509216D01*
X4253221Y489531D02*
X4292591D01*
X4192906Y469846D02*
Y509216D01*
X4173221Y489531D02*
X4212591D01*
X765582Y722836D02*
Y742521D01*
X755740Y732678D02*
X775425D01*
X765582Y778261D02*
Y797946D01*
X755740Y788103D02*
X775425D01*
X1718000Y892764D02*
Y913236D01*
X1707764Y903000D02*
X1728236D01*
X1476000Y499315D02*
Y538685D01*
X1456315Y519000D02*
X1495685D01*
X1072582Y800442D02*
Y820914D01*
X1062346Y810678D02*
X1082819D01*
X779362Y828851D02*
Y850505D01*
X768535Y839678D02*
X790189D01*
X731134Y861332D02*
X827590D01*
X731134Y818025D02*
X827590D01*
X731134D02*
Y861332D01*
X827590Y818025D02*
Y861332D01*
X778582Y670851D02*
Y692505D01*
X767756Y681678D02*
X789409D01*
X730354Y703332D02*
X826811D01*
X730354Y660025D02*
X826811D01*
X730354D02*
Y703332D01*
X826811Y660025D02*
Y703332D01*
X958582Y904442D02*
Y924914D01*
X948346Y914678D02*
X968819D01*
X763811Y888000D02*
X784283D01*
X774047Y877764D02*
Y898236D01*
X1073000Y878252D02*
Y898725D01*
X1062764Y888488D02*
X1083236D01*
X1697299Y1047000D02*
X1734701D01*
X1716000Y1028299D02*
Y1065701D01*
X1503748Y751817D02*
Y772290D01*
X1493512Y762053D02*
X1513984D01*
X1458748Y751817D02*
Y772290D01*
X1448512Y762053D02*
X1468984D01*
X1274000Y810315D02*
Y849685D01*
X1254315Y830000D02*
X1293685D01*
X1274000Y625315D02*
Y664685D01*
X1254315Y645000D02*
X1293685D01*
X1274000Y1011315D02*
Y1050685D01*
X1254315Y1031000D02*
X1293685D01*
X1575472Y1160154D02*
Y1180627D01*
X1565236Y1170390D02*
X1585708D01*
X1530472Y1160154D02*
Y1180627D01*
X1520236Y1170390D02*
X1540708D01*
X1485472Y1160154D02*
Y1180627D01*
X1475236Y1170390D02*
X1495708D01*
X1469332Y652637D02*
X1489805D01*
X1479569Y642401D02*
Y662874D01*
X1469332Y607637D02*
X1489805D01*
X1479569Y597401D02*
Y617874D01*
X1622315Y656000D02*
X1661685D01*
X1642000Y636315D02*
Y675685D01*
X1634000Y503173D02*
Y524827D01*
X1623173Y514000D02*
X1644827D01*
X1585772Y535654D02*
X1682228D01*
X1585772Y492346D02*
X1682228D01*
X1585772D02*
Y535654D01*
X1682228Y492346D02*
Y535654D01*
X2416000Y762685D02*
Y802055D01*
X2396315Y782370D02*
X2435685D01*
X2895000Y1080315D02*
Y1119685D01*
X2875315Y1100000D02*
X2914685D01*
X767768Y1116134D02*
X811075D01*
X767768Y1212591D02*
X811075D01*
X767768Y1116134D02*
Y1212591D01*
X811075Y1116134D02*
Y1212591D01*
X789421Y1153535D02*
Y1175189D01*
X778594Y1164362D02*
X800248D01*
X716346Y1211654D02*
X759654D01*
X716346Y1115197D02*
X759654D01*
Y1211654D01*
X716346Y1115197D02*
Y1211654D01*
X738000Y1152598D02*
Y1174252D01*
X727173Y1163425D02*
X748827D01*
X995449Y915000D02*
X1015921D01*
X1005685Y904764D02*
Y925236D01*
X939976Y619362D02*
Y662669D01*
X1036433Y619362D02*
Y662669D01*
X939976D02*
X1036433D01*
X939976Y619362D02*
X1036433D01*
X977378Y641016D02*
X999031D01*
X988205Y630189D02*
Y651842D01*
X939937Y669362D02*
Y712669D01*
X1036394Y669362D02*
Y712669D01*
X939937D02*
X1036394D01*
X939937Y669362D02*
X1036394D01*
X977339Y691016D02*
X998992D01*
X988165Y680189D02*
Y701842D01*
X836354Y619362D02*
Y662669D01*
X932811Y619362D02*
Y662669D01*
X836354D02*
X932811D01*
X836354Y619362D02*
X932811D01*
X873756Y641016D02*
X895409D01*
X884583Y630189D02*
Y651842D01*
X836354Y669362D02*
Y712669D01*
X932811Y669362D02*
Y712669D01*
X836354D02*
X932811D01*
X836354Y669362D02*
X932811D01*
X873756Y691016D02*
X895409D01*
X884583Y680189D02*
Y701842D01*
X847582Y773442D02*
Y793914D01*
X837346Y783678D02*
X857819D01*
X847582Y727104D02*
Y747577D01*
X837346Y737340D02*
X857819D01*
X901346Y914678D02*
X921819D01*
X911582Y904442D02*
Y924914D01*
X1062346Y733000D02*
X1082819D01*
X1072582Y722764D02*
Y743236D01*
X1062346Y655000D02*
X1082819D01*
X1072582Y644764D02*
Y665236D01*
X2784315Y572000D02*
X2823685D01*
X2804000Y552315D02*
Y591685D01*
X2495346Y581228D02*
X2538653D01*
X2495346Y484772D02*
X2538653D01*
Y581228D01*
X2495346Y484772D02*
Y581228D01*
X2517000Y522173D02*
Y543827D01*
X2506173Y533000D02*
X2527827D01*
X2526000Y646764D02*
Y667236D01*
X2515764Y657000D02*
X2536236D01*
X2509000Y763629D02*
Y803000D01*
X2489315Y783314D02*
X2528685D01*
X2437347Y587630D02*
X2480654D01*
X2437347Y684087D02*
X2480654D01*
X2437347Y587630D02*
Y684087D01*
X2480654Y587630D02*
Y684087D01*
X2459000Y625032D02*
Y646685D01*
X2448173Y635858D02*
X2469827D01*
D142*
X4780890Y1013000D02*
Y1238000D01*
X4155890Y1013000D02*
Y1238000D01*
X4780890D01*
X4155890Y1013000D02*
X4780890D01*
X1358473Y724150D02*
X1417528D01*
X1358473Y617850D02*
X1417528D01*
Y724150D01*
X1358473Y617850D02*
Y724150D01*
X5251043Y694575D02*
Y828433D01*
X5176240Y694575D02*
Y828433D01*
X5251043D01*
X5176240Y694575D02*
X5251043D01*
X2680724Y1018480D02*
X2771276D01*
X2680724Y1203520D02*
X2771276D01*
X2680724Y1018480D02*
Y1203520D01*
X2771276Y1018480D02*
Y1203520D01*
X2344472Y970850D02*
X2403528D01*
X2344472Y1077150D02*
X2403528D01*
X2344472Y970850D02*
Y1077150D01*
X2403528Y970850D02*
Y1077150D01*
X1008693Y965417D02*
X1095307D01*
X1008693Y1142583D02*
X1095307D01*
X1008693Y965417D02*
Y1142583D01*
X1095307Y965417D02*
Y1142583D01*
X912693Y966417D02*
X999307D01*
X912693Y1143583D02*
X999307D01*
X912693Y966417D02*
Y1143583D01*
X999307Y966417D02*
Y1143583D01*
X816693Y966417D02*
X903307D01*
X816693Y1143583D02*
X903307D01*
X816693Y966417D02*
Y1143583D01*
X903307Y966417D02*
Y1143583D01*
X2435764Y1011701D02*
X2656236D01*
X2435764D02*
Y1224299D01*
X2656236Y1011701D02*
Y1224299D01*
X2435764D02*
X2656236D01*
X2342394Y870732D02*
Y1087268D01*
X2141606Y870732D02*
Y1087268D01*
X2342394D01*
X2141606Y870732D02*
X2342394D01*
X2024000Y1232519D02*
X2304000D01*
X2024000Y1094724D02*
X2304000D01*
X2024000D02*
Y1232519D01*
X2304000Y1094724D02*
Y1232519D01*
X2915102Y777591D02*
X3080457D01*
X2915102Y486252D02*
X3080457D01*
Y777591D01*
X2915102Y486252D02*
Y777591D01*
X3072583Y777315D02*
X3237937D01*
X3072583Y485976D02*
X3237937D01*
Y777315D01*
X3072583Y485976D02*
Y777315D01*
X1685512Y800471D02*
Y1107557D01*
X1405984Y800471D02*
Y1107557D01*
X1685512D01*
X1405984Y800471D02*
X1685512D01*
X3921929Y920472D02*
X4128622D01*
X3921929Y713779D02*
X4128622D01*
Y920472D01*
X3921929Y713779D02*
Y920472D01*
X905291Y720362D02*
X1047024D01*
X905291Y844378D02*
X1047024D01*
Y720362D02*
Y844378D01*
X905291Y720362D02*
Y844378D01*
X2540323Y478134D02*
X2705677D01*
X2540323Y619866D02*
X2705677D01*
Y478134D02*
Y619866D01*
X2540323Y478134D02*
Y619866D01*
X3693857Y909850D02*
X3752912D01*
X3693857Y1016150D02*
X3752912D01*
X3693857Y909850D02*
Y1016150D01*
X3752912Y909850D02*
Y1016150D01*
X3631890Y910260D02*
X3690945D01*
X3631890Y1016559D02*
X3690945D01*
X3631890Y910260D02*
Y1016559D01*
X3690945Y910260D02*
Y1016559D01*
X3629685Y708276D02*
Y783079D01*
X3590315Y708276D02*
Y783079D01*
X3629685D01*
X3590315Y708276D02*
X3629685D01*
X4018929Y1054598D02*
Y1129401D01*
X3885071Y1054598D02*
Y1129401D01*
Y1054598D02*
X4018929D01*
X3885071Y1129401D02*
X4018929D01*
X3773927Y555465D02*
Y630268D01*
X3734557Y555465D02*
Y630268D01*
X3773927D01*
X3734557Y555465D02*
X3773927D01*
X5040685Y445276D02*
Y520079D01*
X5001315Y445276D02*
Y520079D01*
X5040685D01*
X5001315Y445276D02*
X5040685D01*
X4877346Y784921D02*
X5170654D01*
X4877346Y525079D02*
X5170654D01*
X4877346D02*
Y784921D01*
X5170654Y525079D02*
Y784921D01*
X5149150Y470473D02*
Y529528D01*
X5042850Y470473D02*
Y529528D01*
Y470473D02*
X5149150D01*
X5042850Y529528D02*
X5149150D01*
X4395606Y915039D02*
X4596394D01*
X4395606Y556772D02*
X4596394D01*
Y915039D01*
X4395606Y556772D02*
Y915039D01*
X4154150Y627047D02*
Y686102D01*
X4047850Y627047D02*
Y686102D01*
Y627047D02*
X4154150D01*
X4047850Y686102D02*
X4154150D01*
X3521850Y1055472D02*
Y1114527D01*
X3628150Y1055472D02*
Y1114527D01*
X3521850D02*
X3628150D01*
X3521850Y1055472D02*
X3628150D01*
X3521850Y863071D02*
Y922126D01*
X3628150Y863071D02*
Y922126D01*
X3521850D02*
X3628150D01*
X3521850Y863071D02*
X3628150D01*
X3521850Y924724D02*
Y983779D01*
X3628150Y924724D02*
Y983779D01*
X3521850D02*
X3628150D01*
X3521850Y924724D02*
X3628150D01*
X3521850Y1120473D02*
Y1179528D01*
X3628150Y1120473D02*
Y1179528D01*
X3521850D02*
X3628150D01*
X3521850Y1120473D02*
X3628150D01*
X3459472Y1069850D02*
X3518528D01*
X3459472Y1176150D02*
X3518528D01*
X3459472Y1069850D02*
Y1176150D01*
X3518528Y1069850D02*
Y1176150D01*
X4880346Y1178921D02*
X5173654D01*
X4880346Y919079D02*
X5173654D01*
X4880346D02*
Y1178921D01*
X5173654Y919079D02*
Y1178921D01*
X5417921Y402346D02*
Y695654D01*
X5158079Y402346D02*
Y695654D01*
X5417921D01*
X5158079Y402346D02*
X5417921D01*
X3732087Y555465D02*
Y630268D01*
X3692717Y555465D02*
Y630268D01*
X3732087D01*
X3692717Y555465D02*
X3732087D01*
X3674713Y708276D02*
Y783079D01*
X3635343Y708276D02*
Y783079D01*
X3674713D01*
X3635343Y708276D02*
X3674713D01*
X3901472Y947850D02*
X3960528D01*
X3901472Y1054150D02*
X3960528D01*
X3901472Y947850D02*
Y1054150D01*
X3960528Y947850D02*
Y1054150D01*
X3987518Y707150D02*
X4046573D01*
X3987518Y600850D02*
X4046573D01*
Y707150D01*
X3987518Y600850D02*
Y707150D01*
X3811047Y706150D02*
X3870102D01*
X3811047Y599850D02*
X3870102D01*
Y706150D01*
X3811047Y599850D02*
Y706150D01*
X4531095Y925620D02*
Y1012235D01*
X4353930Y925620D02*
Y1012235D01*
Y925620D02*
X4531095D01*
X4353930Y1012235D02*
X4531095D01*
X3581581Y627472D02*
Y686528D01*
X3687880Y627472D02*
Y686528D01*
X3581581D02*
X3687880D01*
X3581581Y627472D02*
X3687880D01*
X5043850Y407472D02*
Y466527D01*
X5150150Y407472D02*
Y466527D01*
X5043850D02*
X5150150D01*
X5043850Y407472D02*
X5150150D01*
X3636203Y514201D02*
X3695258D01*
X3636203Y620500D02*
X3695258D01*
X3636203Y514201D02*
Y620500D01*
X3695258Y514201D02*
Y620500D01*
X3923472Y1135564D02*
X3982528D01*
X3923472Y1241863D02*
X3982528D01*
X3923472Y1135564D02*
Y1241863D01*
X3982528Y1135564D02*
Y1241863D01*
X3984472D02*
X4043528D01*
X3984472Y1135564D02*
X4043528D01*
Y1241863D01*
X3984472Y1135564D02*
Y1241863D01*
X3803472Y1135564D02*
X3862528D01*
X3803472Y1241863D02*
X3862528D01*
X3803472Y1135564D02*
Y1241863D01*
X3862528Y1135564D02*
Y1241863D01*
X3863472Y1241863D02*
X3922528D01*
X3863472Y1135564D02*
X3922528D01*
Y1241863D01*
X3863472Y1135564D02*
Y1241863D01*
X3825472Y1107150D02*
X3884528D01*
X3825472Y1000850D02*
X3884528D01*
Y1107150D01*
X3825472Y1000850D02*
Y1107150D01*
X5044850Y1167472D02*
Y1226527D01*
X5151150Y1167472D02*
Y1226527D01*
X5044850D02*
X5151150D01*
X5044850Y1167472D02*
X5151150D01*
X3574754Y620740D02*
X3633809D01*
X3574754Y514441D02*
X3633809D01*
Y620740D01*
X3574754Y514441D02*
Y620740D01*
X3750472Y1143582D02*
X3809528D01*
X3750472Y1037283D02*
X3809528D01*
Y1143582D01*
X3750472Y1037283D02*
Y1143582D01*
X3633033Y1037283D02*
X3692088D01*
X3633033Y1143582D02*
X3692088D01*
X3633033Y1037283D02*
Y1143582D01*
X3692088Y1037283D02*
Y1143582D01*
X3691472Y1037850D02*
X3750528D01*
X3691472Y1144150D02*
X3750528D01*
X3691472Y1037850D02*
Y1144150D01*
X3750528Y1037850D02*
Y1144150D01*
X3627953Y990157D02*
Y1049213D01*
X3521653Y990157D02*
Y1049213D01*
Y990157D02*
X3627953D01*
X3521653Y1049213D02*
X3627953D01*
X3855150Y895472D02*
Y954528D01*
X3748850Y895472D02*
Y954528D01*
Y895472D02*
X3855150D01*
X3748850Y954528D02*
X3855150D01*
X5850150Y456473D02*
Y515528D01*
X5743850Y456473D02*
Y515528D01*
Y456473D02*
X5850150D01*
X5743850Y515528D02*
X5850150D01*
X5851150Y1132473D02*
Y1191528D01*
X5744850Y1132473D02*
Y1191528D01*
Y1132473D02*
X5851150D01*
X5744850Y1191528D02*
X5851150D01*
X3884150Y833472D02*
Y892528D01*
X3777850Y833472D02*
Y892528D01*
Y833472D02*
X3884150D01*
X3777850Y892528D02*
X3884150D01*
X3960472Y947850D02*
X4019528D01*
X3960472Y1054150D02*
X4019528D01*
X3960472Y947850D02*
Y1054150D01*
X4019528Y947850D02*
Y1054150D01*
X4195606Y915134D02*
X4396394D01*
X4195606Y556866D02*
X4396394D01*
Y915134D01*
X4195606Y556866D02*
Y915134D01*
X4595606Y556866D02*
X4796394D01*
X4595606Y915134D02*
X4796394D01*
X4595606Y556866D02*
Y915134D01*
X4796394Y556866D02*
Y915134D01*
X5157079Y958346D02*
Y1251653D01*
X5416921Y958346D02*
Y1251653D01*
X5157079Y958346D02*
X5416921D01*
X5157079Y1251653D02*
X5416921D01*
X3981150Y603709D02*
Y662764D01*
X3874850Y603709D02*
Y662764D01*
Y603709D02*
X3981150D01*
X3874850Y662764D02*
X3981150D01*
X4020071Y1058599D02*
Y1133402D01*
X4153929Y1058599D02*
Y1133402D01*
X4020071D02*
X4153929D01*
X4020071Y1058599D02*
X4153929D01*
X4020071Y981598D02*
Y1056402D01*
X4153929Y981598D02*
Y1056402D01*
X4020071D02*
X4153929D01*
X4020071Y981598D02*
X4153929D01*
X4794598Y773620D02*
X4869401D01*
X4794598Y907478D02*
X4869401D01*
X4794598Y773620D02*
Y907478D01*
X4869401Y773620D02*
Y907478D01*
X5336145Y694575D02*
X5410948D01*
X5336145Y828433D02*
X5410948D01*
X5336145Y694575D02*
Y828433D01*
X5410948Y694575D02*
Y828433D01*
X5256145Y694575D02*
X5330948D01*
X5256145Y828433D02*
X5330948D01*
X5256145Y694575D02*
Y828433D01*
X5330948Y694575D02*
Y828433D01*
X4789693Y487417D02*
X4876307D01*
X4789693Y664583D02*
X4876307D01*
X4789693Y487417D02*
Y664583D01*
X4876307Y487417D02*
Y664583D01*
X4948693Y773075D02*
X5023496D01*
X4948693Y906933D02*
X5023496D01*
X4948693Y773075D02*
Y906933D01*
X5023496Y773075D02*
Y906933D01*
X4871693Y773075D02*
X4946496D01*
X4871693Y906933D02*
X4946496D01*
X4871693Y773075D02*
Y906933D01*
X4946496Y773075D02*
Y906933D01*
X5176240Y959474D02*
X5251043D01*
X5176240Y825616D02*
X5251043D01*
Y959474D01*
X5176240Y825616D02*
Y959474D01*
X5256240D02*
X5331043D01*
X5256240Y825616D02*
X5331043D01*
Y959474D01*
X5256240Y825616D02*
Y959474D01*
X5336240D02*
X5411043D01*
X5336240Y825616D02*
X5411043D01*
Y959474D01*
X5336240Y825616D02*
Y959474D01*
X5025598Y772620D02*
X5100401D01*
X5025598Y906478D02*
X5100401D01*
X5025598Y772620D02*
Y906478D01*
X5100401Y772620D02*
Y906478D01*
X4715504Y422602D02*
X4790307D01*
X4715504Y556460D02*
X4790307D01*
X4715504Y422602D02*
Y556460D01*
X4790307Y422602D02*
Y556460D01*
X4635504Y422602D02*
X4710307D01*
X4635504Y556460D02*
X4710307D01*
X4635504Y422602D02*
Y556460D01*
X4710307Y422602D02*
Y556460D01*
X4555504Y422602D02*
X4630307D01*
X4555504Y556460D02*
X4630307D01*
X4555504Y422602D02*
Y556460D01*
X4630307Y422602D02*
Y556460D01*
X4475504Y422602D02*
X4550307D01*
X4475504Y556460D02*
X4550307D01*
X4475504Y422602D02*
Y556460D01*
X4550307Y422602D02*
Y556460D01*
X4395504Y422602D02*
X4470307D01*
X4395504Y556460D02*
X4470307D01*
X4395504Y422602D02*
Y556460D01*
X4470307Y422602D02*
Y556460D01*
X4315504Y422602D02*
X4390307D01*
X4315504Y556460D02*
X4390307D01*
X4315504Y422602D02*
Y556460D01*
X4390307Y422602D02*
Y556460D01*
X4235504Y422602D02*
X4310307D01*
X4235504Y556460D02*
X4310307D01*
X4235504Y422602D02*
Y556460D01*
X4310307Y422602D02*
Y556460D01*
X4155504Y422602D02*
X4230307D01*
X4155504Y556460D02*
X4230307D01*
X4155504Y422602D02*
Y556460D01*
X4230307Y422602D02*
Y556460D01*
X734086Y709056D02*
X797079D01*
X734086Y756300D02*
X797079D01*
Y709056D02*
Y756300D01*
X734086Y709056D02*
Y756300D01*
Y764481D02*
X797079D01*
X734086Y811725D02*
X797079D01*
Y764481D02*
Y811725D01*
X734086Y764481D02*
Y811725D01*
X1698315Y865598D02*
X1737685D01*
X1698315Y940402D02*
X1737685D01*
X1698315Y865598D02*
Y940402D01*
X1737685Y865598D02*
Y940402D01*
X1409071Y452071D02*
X1542929D01*
X1409071Y585929D02*
X1542929D01*
Y452071D02*
Y585929D01*
X1409071Y452071D02*
Y585929D01*
X1052898Y773277D02*
X1092268D01*
X1052898Y848080D02*
X1092268D01*
X1052898Y773277D02*
Y848080D01*
X1092268Y773277D02*
Y848080D01*
X938897Y952080D02*
X978268D01*
X938897Y877277D02*
X978268D01*
Y952080D01*
X938897Y877277D02*
Y952080D01*
X811449Y868315D02*
Y907685D01*
X736645Y868315D02*
Y907685D01*
Y868315D02*
X811449D01*
X736645Y907685D02*
X811449D01*
X1053315Y925890D02*
X1092685D01*
X1053315Y851087D02*
X1092685D01*
Y925890D01*
X1053315Y851087D02*
Y925890D01*
X1745527Y993850D02*
Y1100150D01*
X1686472Y993850D02*
Y1100150D01*
X1745527D01*
X1686472Y993850D02*
X1745527D01*
X1484063Y724652D02*
X1523433D01*
X1484063Y799455D02*
X1523433D01*
X1484063Y724652D02*
Y799455D01*
X1523433Y724652D02*
Y799455D01*
X1439063Y724652D02*
X1478433D01*
X1439063Y799455D02*
X1478433D01*
X1439063Y724652D02*
Y799455D01*
X1478433Y724652D02*
Y799455D01*
X1199000Y792598D02*
X1349000D01*
X1199000Y867402D02*
X1349000D01*
Y792598D02*
Y867402D01*
X1199000Y792598D02*
Y867402D01*
Y607598D02*
X1349000D01*
X1199000Y682402D02*
X1349000D01*
Y607598D02*
Y682402D01*
X1199000Y607598D02*
Y682402D01*
Y993598D02*
X1349000D01*
X1199000Y1068402D02*
X1349000D01*
Y993598D02*
Y1068402D01*
X1199000Y993598D02*
Y1068402D01*
X1555787Y1207792D02*
X1595157D01*
X1555787Y1132989D02*
X1595157D01*
Y1207792D01*
X1555787Y1132989D02*
Y1207792D01*
X1510787D02*
X1550157D01*
X1510787Y1132989D02*
X1550157D01*
Y1207792D01*
X1510787Y1132989D02*
Y1207792D01*
X1465787D02*
X1505157D01*
X1465787Y1132989D02*
X1505157D01*
Y1207792D01*
X1465787Y1132989D02*
Y1207792D01*
X1442167Y632952D02*
Y672322D01*
X1516970Y632952D02*
Y672322D01*
X1442167D02*
X1516970D01*
X1442167Y632952D02*
X1516970D01*
X1442167Y587952D02*
Y627322D01*
X1516970Y587952D02*
Y627322D01*
X1442167D02*
X1516970D01*
X1442167Y587952D02*
X1516970D01*
X1520937Y534937D02*
Y777063D01*
X1763063Y534937D02*
Y777063D01*
X1520937D02*
X1763063D01*
X1520937Y534937D02*
X1763063D01*
X2370724Y874890D02*
X2461276D01*
X2370724Y689850D02*
X2461276D01*
Y874890D01*
X2370724Y689850D02*
Y874890D01*
X2812323Y1245669D02*
X2977677D01*
X2812323Y954331D02*
X2977677D01*
Y1245669D01*
X2812323Y954331D02*
Y1245669D01*
X986000Y877598D02*
Y952402D01*
X1025370Y877598D02*
Y952402D01*
X986000Y877598D02*
X1025370D01*
X986000Y952402D02*
X1025370D01*
X810181Y763993D02*
X884984D01*
X810181Y803363D02*
X884984D01*
Y763993D02*
Y803363D01*
X810181Y763993D02*
Y803363D01*
Y717655D02*
X884984D01*
X810181Y757025D02*
X884984D01*
Y717655D02*
Y757025D01*
X810181Y717655D02*
Y757025D01*
X891897Y877277D02*
Y952080D01*
X931268Y877277D02*
Y952080D01*
X891897Y877277D02*
X931268D01*
X891897Y952080D02*
X931268D01*
X1092268Y695598D02*
Y770402D01*
X1052898Y695598D02*
Y770402D01*
X1092268D01*
X1052898Y695598D02*
X1092268D01*
Y617598D02*
Y692402D01*
X1052898Y617598D02*
Y692402D01*
X1092268D01*
X1052898Y617598D02*
X1092268D01*
X2896520Y526724D02*
Y617276D01*
X2711480Y526724D02*
Y617276D01*
Y526724D02*
X2896520D01*
X2711480Y617276D02*
X2896520D01*
X2488598Y676685D02*
X2563401D01*
X2488598Y637315D02*
X2563401D01*
X2488598D02*
Y676685D01*
X2563401Y637315D02*
Y676685D01*
X2469630Y873866D02*
X2548370D01*
X2469630Y692763D02*
X2548370D01*
X2544433D02*
Y873866D01*
X2469630Y692763D02*
Y873866D01*
%TF.MD5,fac44bec1de11f9e4a018ffc45dd1f83*%
M02*
