%TF.GenerationSoftware,Altium Limited,Altium Designer,19.0.15 (446)*%
G04 Layer_Color=16711935*
%FSLAX45Y45*%
%MOMM*%
%TF.FileFunction,Other,Mechanical_13*%
%TF.Part,Single*%
G01*
G75*
%TA.AperFunction,NonConductor*%
%ADD115C,0.20000*%
%ADD117C,0.12700*%
%ADD146C,0.10000*%
%ADD208R,2.90000X0.65000*%
%ADD209R,4.60000X1.02220*%
%ADD210R,1.02220X4.60000*%
D115*
X7025541Y2596500D02*
G03*
X7025541Y2596500I-10000J0D01*
G01*
X6962605Y2297931D02*
G03*
X6962605Y2297931I-10000J0D01*
G01*
X5263560Y2895600D02*
G03*
X5263560Y2895600I-10000J0D01*
G01*
X13420500Y2455364D02*
G03*
X13420500Y2455364I-10000J0D01*
G01*
X13660500Y2532364D02*
G03*
X13660500Y2532364I-10000J0D01*
G01*
X10630500Y2912500D02*
G03*
X10630500Y2912500I-10000J0D01*
G01*
X11252000Y2454500D02*
G03*
X11252000Y2454500I-10000J0D01*
G01*
X2677980Y1530440D02*
G03*
X2677980Y1530440I-10000J0D01*
G01*
X2414000Y2455000D02*
G03*
X2414000Y2455000I-10000J0D01*
G01*
X3183000Y3128000D02*
G03*
X3183000Y3128000I-10000J0D01*
G01*
X7712500Y1288000D02*
G03*
X7712500Y1288000I-10000J0D01*
G01*
D117*
X6463000Y2902200D02*
Y2952200D01*
X6343000D02*
X6463000D01*
X6173000D02*
X6293000D01*
X6173000Y2902200D02*
Y2952200D01*
X6243000Y2822200D02*
X6393000D01*
X6830541Y2330500D02*
Y2622500D01*
X6700541Y2330500D02*
X6830541D01*
X6700541D02*
Y2622500D01*
X6830541D01*
X7596605Y2273931D02*
Y2773931D01*
X7156605Y2273931D02*
Y2773931D01*
X7596605D01*
X7156605Y2273931D02*
X7596605D01*
X2042640Y2076460D02*
Y2176460D01*
Y2076460D02*
X2102640D01*
Y2176460D01*
X2042640D02*
X2102640D01*
X5373460Y2833100D02*
Y2958100D01*
X5543460D01*
Y2833100D02*
Y2958100D01*
X5373460Y2833100D02*
X5543460D01*
X11573660Y2121440D02*
Y3141440D01*
X12703660D01*
Y2121440D02*
Y3141440D01*
X11573660Y2121440D02*
X12703660D01*
X13480499Y1817864D02*
Y2372864D01*
X12960500Y1817864D02*
X13480499D01*
X12960500D02*
Y2372864D01*
X13480499D01*
X13013000Y2462364D02*
X13567999D01*
X13013000D02*
Y2982364D01*
X13567999D01*
Y2462364D02*
Y2982364D01*
X10703000Y2982500D02*
X11258000D01*
Y2462500D02*
Y2982500D01*
X10703000Y2462500D02*
X11258000D01*
X10703000D02*
Y2982500D01*
X11312000Y1817000D02*
Y2372000D01*
X10792000Y1817000D02*
X11312000D01*
X10792000D02*
Y2372000D01*
X11312000D01*
X2587980Y1605440D02*
X2987980D01*
Y2205440D01*
X2587980D02*
X2987980D01*
X2587980Y1605440D02*
Y2205440D01*
X3059260Y1852680D02*
Y1916680D01*
Y1852680D02*
X3133260D01*
Y1916680D01*
X3059260D02*
X3133260D01*
X10875500Y1413000D02*
X10939500D01*
Y1487000D01*
X10875500D02*
X10939500D01*
X10875500Y1413000D02*
Y1487000D01*
X14528799Y2812020D02*
Y3096020D01*
X14147800D02*
X14528799D01*
X14147800Y2812020D02*
Y3096020D01*
Y2812020D02*
X14528799D01*
X2695000Y2290000D02*
Y2490000D01*
X2495000Y2290000D02*
Y2490000D01*
Y2290000D02*
X2695000D01*
X2495000Y2490000D02*
X2695000D01*
X3817500Y2627500D02*
Y3127500D01*
X3417500Y2627500D02*
Y3127500D01*
Y2627500D02*
X3817500D01*
X3417500Y3127500D02*
X3817500D01*
X2113000Y1412000D02*
X2177000D01*
X2113000Y1338000D02*
Y1412000D01*
Y1338000D02*
X2177000D01*
Y1412000D01*
X1815000Y1286260D02*
Y1350260D01*
X1741000D02*
X1815000D01*
X1741000Y1286260D02*
Y1350260D01*
Y1286260D02*
X1815000D01*
X1257300Y3106180D02*
X1638300D01*
Y2822180D02*
Y3106180D01*
X1257300Y2822180D02*
X1638300D01*
X1257300D02*
Y3106180D01*
X6484500Y2523740D02*
Y2904740D01*
X6200500Y2523740D02*
X6484500D01*
X6200500D02*
Y2904740D01*
X6484500D01*
X7322501Y2415916D02*
Y3105917D01*
X6632501Y2415916D02*
X7322501D01*
X6632501D02*
Y3105917D01*
X7322501D01*
X7932500Y1385000D02*
Y1685000D01*
X7632500Y1385000D02*
Y1685000D01*
X7932500D01*
X7632500Y1385000D02*
X7932500D01*
X7465060Y2712960D02*
X7846060D01*
X7465060D02*
Y2996960D01*
X7846060D01*
Y2712960D02*
Y2996960D01*
X9549001Y2234998D02*
X9930001D01*
X9549001D02*
Y2518998D01*
X9930001D01*
Y2234998D02*
Y2518998D01*
X13617000Y2049500D02*
X13998000D01*
Y1765500D02*
Y2049500D01*
X13617000Y1765500D02*
X13998000D01*
X13617000D02*
Y2049500D01*
X8516820Y1067000D02*
Y1473000D01*
X8922820Y1067000D02*
Y1473000D01*
X8516820D02*
X8922820D01*
X8516820Y1067000D02*
X8922820D01*
D146*
X2007640Y2126460D02*
G03*
X2007640Y2126460I-5000J0D01*
G01*
X3021260Y1914680D02*
G03*
X3021260Y1914680I-5000J0D01*
G01*
X10882500Y1370000D02*
G03*
X10882500Y1370000I-5000J0D01*
G01*
X2180000Y1455000D02*
G03*
X2180000Y1455000I-5000J0D01*
G01*
X1863000Y1288260D02*
G03*
X1863000Y1288260I-5000J0D01*
G01*
X4566480Y2296136D02*
G03*
X4566480Y2296136I-50000J0D01*
G01*
X12070000Y1565000D02*
G03*
X12070000Y1565000I-50000J0D01*
G01*
X4890960Y1834180D02*
G03*
X4890960Y1834180I-50000J0D01*
G01*
X4036500Y2832065D02*
X4131500D01*
X4036500Y2657065D02*
X4131500D01*
Y2832065D01*
X4036500Y2657065D02*
Y2832065D01*
X3889500Y2549580D02*
X3984500D01*
X3889500Y2374580D02*
X3984500D01*
Y2549580D01*
X3889500Y2374580D02*
Y2549580D01*
X5149020Y2281760D02*
X5204020D01*
X5149020Y2386760D02*
X5204020D01*
X5149020Y2281760D02*
Y2386760D01*
X5204020Y2281760D02*
Y2386760D01*
X5362380Y1596680D02*
X5417380D01*
X5362380Y1701680D02*
X5417380D01*
X5362380Y1596680D02*
Y1701680D01*
X5417380Y1596680D02*
Y1701680D01*
X6568876Y2828821D02*
X6623876D01*
X6568876Y2933821D02*
X6623876D01*
Y2828821D02*
Y2933821D01*
X6568876Y2828821D02*
Y2933821D01*
X6368612Y2497664D02*
Y2552663D01*
X6473612Y2497664D02*
Y2552663D01*
X6368612Y2497664D02*
X6473612D01*
X6368612Y2552663D02*
X6473612D01*
Y2616245D02*
Y2671245D01*
X6368612Y2616245D02*
Y2671245D01*
X6473612D01*
X6368612Y2616245D02*
X6473612D01*
X8546184Y2460951D02*
Y2785951D01*
X8806184Y2460951D02*
Y2785951D01*
X8546184D02*
X8806184D01*
X8546184Y2460951D02*
X8806184D01*
X7285300Y2850960D02*
Y2985960D01*
X7505300Y2850960D02*
Y2985960D01*
X7285300Y2850960D02*
X7505300D01*
X7285300Y2985960D02*
X7505300D01*
X6922101Y2829813D02*
Y2932813D01*
X6870101Y2829813D02*
Y2932813D01*
Y2829813D02*
X6922101D01*
X6870101Y2932813D02*
X6922101D01*
X6811580Y2727859D02*
X6914580D01*
X6811580Y2675859D02*
X6914580D01*
Y2727859D01*
X6811580Y2675859D02*
Y2727859D01*
X7115605Y2855813D02*
Y2958813D01*
X7063605Y2855813D02*
Y2958813D01*
Y2855813D02*
X7115605D01*
X7063605Y2958813D02*
X7115605D01*
X6711441Y2968821D02*
X6806441D01*
X6711441Y2793820D02*
X6806441D01*
X6711441D02*
Y2968821D01*
X6806441Y2793820D02*
Y2968821D01*
X7788400Y2709368D02*
X7883400D01*
X7788400Y2534368D02*
X7883400D01*
X7788400D02*
Y2709368D01*
X7883400Y2534368D02*
Y2709368D01*
X8164700Y2487248D02*
Y2582248D01*
X7989700Y2487248D02*
Y2582248D01*
X8164700D01*
X7989700Y2487248D02*
X8164700D01*
X8286880D02*
Y2582248D01*
X8461880Y2487248D02*
Y2582248D01*
X8286880Y2487248D02*
X8461880D01*
X8286880Y2582248D02*
X8461880D01*
X8164700Y2663268D02*
Y2758268D01*
X7989700Y2663268D02*
Y2758268D01*
X8164700D01*
X7989700Y2663268D02*
X8164700D01*
X8286880D02*
Y2758268D01*
X8461880Y2663268D02*
Y2758268D01*
X8286880Y2663268D02*
X8461880D01*
X8286880Y2758268D02*
X8461880D01*
X5507860Y3021237D02*
Y3116237D01*
X5332860Y3021237D02*
Y3116237D01*
Y3021237D02*
X5507860D01*
X5332860Y3116237D02*
X5507860D01*
X5321360Y2631000D02*
Y2734000D01*
X5269360Y2631000D02*
Y2734000D01*
X5321360D01*
X5269360Y2631000D02*
X5321360D01*
X5202520Y2630740D02*
Y2733740D01*
X5150520Y2630740D02*
Y2733740D01*
X5202520D01*
X5150520Y2630740D02*
X5202520D01*
X2335848Y1708173D02*
Y1811173D01*
X2387848Y1708173D02*
Y1811173D01*
X2335848Y1708173D02*
X2387848D01*
X2335848Y1811173D02*
X2387848D01*
X6205820Y1131064D02*
Y1226064D01*
X6380820Y1131064D02*
Y1226064D01*
X6205820D02*
X6380820D01*
X6205820Y1131064D02*
X6380820D01*
X6746220Y1111060D02*
Y1246060D01*
X6526220Y1111060D02*
Y1246060D01*
Y1111060D02*
X6746220D01*
X6526220Y1246060D02*
X6746220D01*
X2559180Y2530800D02*
Y2625800D01*
X2734180Y2530800D02*
Y2625800D01*
X2559180D02*
X2734180D01*
X2559180Y2530800D02*
X2734180D01*
X8124700Y2649980D02*
Y2744980D01*
X8299700Y2649980D02*
Y2744980D01*
X8124700D02*
X8299700D01*
X8124700Y2649980D02*
X8299700D01*
X8063023Y2808180D02*
Y2943180D01*
X8283023Y2808180D02*
Y2943180D01*
X8063023D02*
X8283023D01*
X8063023Y2808180D02*
X8283023D01*
X1329900Y2516304D02*
Y2651304D01*
X1549900Y2516304D02*
Y2651304D01*
X1329900D02*
X1549900D01*
X1329900Y2516304D02*
X1549900D01*
X1888360Y2556329D02*
Y2651329D01*
X1713360Y2556329D02*
Y2651329D01*
Y2556329D02*
X1888360D01*
X1713360Y2651329D02*
X1888360D01*
X10920300Y1372948D02*
X11025300D01*
X10920300Y1317948D02*
X11025300D01*
X10920300D02*
Y1372948D01*
X11025300Y1317948D02*
Y1372948D01*
X10616500Y1857122D02*
X10719500D01*
X10616500Y1909122D02*
X10719500D01*
Y1857122D02*
Y1909122D01*
X10616500Y1857122D02*
Y1909122D01*
X7029020Y1341560D02*
X7134020D01*
X7029020Y1396560D02*
X7134020D01*
Y1341560D02*
Y1396560D01*
X7029020Y1341560D02*
Y1396560D01*
X7280480Y1295840D02*
X7385480D01*
X7280480Y1350840D02*
X7385480D01*
Y1295840D02*
Y1350840D01*
X7280480Y1295840D02*
Y1350840D01*
X3099648Y2044260D02*
X3204648D01*
X3099648Y1989260D02*
X3204648D01*
X3099648D02*
Y2044260D01*
X3204648Y1989260D02*
Y2044260D01*
X3099640Y2148400D02*
X3204640D01*
X3099640Y2093400D02*
X3204640D01*
X3099640D02*
Y2148400D01*
X3204640Y2093400D02*
Y2148400D01*
X7815000Y2390000D02*
X7870000D01*
X7815000Y2495000D02*
X7870000D01*
X7815000Y2390000D02*
Y2495000D01*
X7870000Y2390000D02*
Y2495000D01*
X3299900Y2125000D02*
X3354900D01*
X3299900Y2020000D02*
X3354900D01*
Y2125000D01*
X3299900Y2020000D02*
Y2125000D01*
X2324540Y1453061D02*
X2379540D01*
X2324540Y1558061D02*
X2379540D01*
X2324540Y1453061D02*
Y1558061D01*
X2379540Y1453061D02*
Y1558061D01*
X1620960Y1133868D02*
X1675960D01*
X1620960Y1238868D02*
X1675960D01*
X1620960Y1133868D02*
Y1238868D01*
X1675960Y1133868D02*
Y1238868D01*
X1983640Y2969500D02*
X2212340D01*
X1983640Y2715500D02*
X2212340D01*
Y2944100D02*
Y2969500D01*
Y2740900D02*
Y2944100D01*
Y2715500D02*
Y2740900D01*
X1799740Y2969500D02*
Y3106700D01*
X1863240Y2969500D02*
Y3106700D01*
X1799740D02*
X1863240D01*
X2116940Y2810700D02*
Y2874300D01*
X2053440Y2810700D02*
Y2874300D01*
X2116940Y2578300D02*
Y2715500D01*
X2053440Y2578300D02*
Y2715500D01*
Y2810700D02*
X2116940D01*
X2053440Y2874300D02*
X2116940D01*
X1968940Y2740900D02*
X1983640Y2715500D01*
X1968940Y2944100D02*
X1983640Y2969500D01*
X1958340Y2740900D02*
X1968940D01*
X1958340Y2944100D02*
X1968940D01*
X1704340Y2715500D02*
X1933040D01*
X1704340Y2969500D02*
X1933040D01*
X1799740Y2810700D02*
Y2874300D01*
X1863240Y2810700D02*
Y2874300D01*
X1799740D02*
X1863240D01*
X1799740Y2810700D02*
X1863240D01*
X1933040Y2969500D02*
X1947740Y2944100D01*
X1933040Y2715500D02*
X1947740Y2740900D01*
Y2944100D02*
X1958340D01*
X1947740Y2740900D02*
X1958340D01*
X2053440Y2578300D02*
X2116940D01*
X1704340Y2715500D02*
Y2740900D01*
Y2944100D01*
Y2969500D01*
X2337220Y2210000D02*
X2442220D01*
X2337220Y2155000D02*
X2442220D01*
X2337220D02*
Y2210000D01*
X2442220Y2155000D02*
Y2210000D01*
X2337220Y2094960D02*
X2442220D01*
X2337220Y2039960D02*
X2442220D01*
X2337220D02*
Y2094960D01*
X2442220Y2039960D02*
Y2094960D01*
X2835000Y1357200D02*
Y1462200D01*
X2780000Y1357200D02*
Y1462200D01*
X2835000D01*
X2780000Y1357200D02*
X2835000D01*
X2714820D02*
Y1462200D01*
X2659820Y1357200D02*
Y1462200D01*
X2714820D01*
X2659820Y1357200D02*
X2714820D01*
X2096500Y1090000D02*
Y1265000D01*
X2191500Y1090000D02*
Y1265000D01*
X2096500Y1090000D02*
X2191500D01*
X2096500Y1265000D02*
X2191500D01*
X2549560Y1349760D02*
X2601560D01*
X2549560Y1452760D02*
X2601560D01*
X2549560Y1349760D02*
Y1452760D01*
X2601560Y1349760D02*
Y1452760D01*
X2442880Y1565340D02*
X2494880D01*
X2442880Y1462340D02*
X2494880D01*
Y1565340D01*
X2442880Y1462340D02*
Y1565340D01*
X3052500Y2967500D02*
X3157500D01*
X3052500Y2912500D02*
X3157500D01*
X3052500D02*
Y2967500D01*
X3157500Y2912500D02*
Y2967500D01*
X3052500Y3095500D02*
X3157500D01*
X3052500Y3040500D02*
X3157500D01*
X3052500D02*
Y3095500D01*
X3157500Y3040500D02*
Y3095500D01*
X3052500Y2842500D02*
X3157500D01*
X3052500Y2787500D02*
X3157500D01*
X3052500D02*
Y2842500D01*
X3157500Y2787500D02*
Y2842500D01*
X3423480Y2403680D02*
Y2508680D01*
X3368480Y2403680D02*
Y2508680D01*
X3423480D01*
X3368480Y2403680D02*
X3423480D01*
X4196520Y2571865D02*
Y2676865D01*
X4251520Y2571865D02*
Y2676865D01*
X4196520Y2571865D02*
X4251520D01*
X4196520Y2676865D02*
X4251520D01*
X4075000Y2912500D02*
X4180000D01*
X4075000Y2967500D02*
X4180000D01*
Y2912500D02*
Y2967500D01*
X4075000Y2912500D02*
Y2967500D01*
X4161500Y3041500D02*
Y3093500D01*
X4058500Y3041500D02*
Y3093500D01*
Y3041500D02*
X4161500D01*
X4058500Y3093500D02*
X4161500D01*
X2827844Y2740500D02*
X3047844D01*
X2827844Y2600500D02*
X3047844D01*
X2827844D02*
Y2740500D01*
X3047844Y2600500D02*
Y2740500D01*
X2827844Y2545500D02*
X3047844D01*
X2827844Y2405500D02*
X3047844D01*
X2827844D02*
Y2545500D01*
X3047844Y2405500D02*
Y2545500D01*
X2886000Y2294500D02*
Y2346500D01*
X2989000Y2294500D02*
Y2346500D01*
X2886000D02*
X2989000D01*
X2886000Y2294500D02*
X2989000D01*
X3193040Y2247120D02*
Y2352120D01*
X3138040Y2247120D02*
Y2352120D01*
X3193040D01*
X3138040Y2247120D02*
X3193040D01*
X3165720Y1621400D02*
X3270720D01*
X3165720Y1676400D02*
X3270720D01*
Y1621400D02*
Y1676400D01*
X3165720Y1621400D02*
Y1676400D01*
X3206880Y1837500D02*
X3381880D01*
X3206880Y1932500D02*
X3381880D01*
Y1837500D02*
Y1932500D01*
X3206880Y1837500D02*
Y1932500D01*
X3409760Y2031220D02*
Y2251220D01*
X3544760Y2031220D02*
Y2251220D01*
X3409760Y2031220D02*
X3544760D01*
X3409760Y2251220D02*
X3544760D01*
X3168080Y1286500D02*
Y1338500D01*
X3065080Y1286500D02*
Y1338500D01*
Y1286500D02*
X3168080D01*
X3065080Y1338500D02*
X3168080D01*
X2224000Y1918500D02*
X2276000D01*
X2224000Y2021500D02*
X2276000D01*
X2224000Y1918500D02*
Y2021500D01*
X2276000Y1918500D02*
Y2021500D01*
X2224000Y1839324D02*
X2276000D01*
X2224000Y1736324D02*
X2276000D01*
Y1839324D01*
X2224000Y1736324D02*
Y1839324D01*
X10640276Y1542628D02*
X10860276D01*
X10640276Y1677628D02*
X10860276D01*
Y1542628D02*
Y1677628D01*
X10640276Y1542628D02*
Y1677628D01*
X11092500Y1450000D02*
Y1625000D01*
X10997500Y1450000D02*
Y1625000D01*
X11092500D01*
X10997500Y1450000D02*
X11092500D01*
X8086167Y2292362D02*
Y2512363D01*
X7951167Y2292362D02*
Y2512363D01*
X8086167D01*
X7951167Y2292362D02*
X8086167D01*
X7537500Y2360000D02*
Y2535000D01*
X7442500Y2360000D02*
Y2535000D01*
X7537500D01*
X7442500Y2360000D02*
X7537500D01*
X4637500Y2935000D02*
Y3040000D01*
X4582500Y2935000D02*
Y3040000D01*
X4637500D01*
X4582500Y2935000D02*
X4637500D01*
X4525000D02*
Y3040000D01*
X4470000Y2935000D02*
Y3040000D01*
X4525000D01*
X4470000Y2935000D02*
X4525000D01*
X1863760Y2173540D02*
X1915760D01*
X1863760Y2276540D02*
X1915760D01*
X1863760Y2173540D02*
Y2276540D01*
X1915760Y2173540D02*
Y2276540D01*
X1863760Y2469580D02*
X1915760D01*
X1863760Y2366580D02*
X1915760D01*
Y2469580D01*
X1863760Y2366580D02*
Y2469580D01*
X1851060Y1756940D02*
X1903060D01*
X1851060Y1653940D02*
X1903060D01*
Y1756940D01*
X1851060Y1653940D02*
Y1756940D01*
X1851468Y1464880D02*
X1903468D01*
X1851468Y1567880D02*
X1903468D01*
X1851468Y1464880D02*
Y1567880D01*
X1903468Y1464880D02*
Y1567880D01*
X3594100Y1574800D02*
X3619500D01*
X3390900D02*
X3594100D01*
X3365500D02*
X3390900D01*
X3228300Y1162200D02*
Y1225700D01*
X3390900Y1320800D02*
Y1331400D01*
X3594100Y1320800D02*
Y1331400D01*
X3365500Y1346100D02*
X3390900Y1331400D01*
X3594100D02*
X3619500Y1346100D01*
X3460700Y1415900D02*
Y1479400D01*
X3524300Y1415900D02*
Y1479400D01*
X3460700Y1415900D02*
X3524300D01*
X3460700Y1479400D02*
X3524300D01*
X3619500Y1346100D02*
Y1574800D01*
X3365500Y1346100D02*
Y1574800D01*
X3594100Y1310200D02*
Y1320800D01*
X3390900Y1310200D02*
Y1320800D01*
X3594100Y1310200D02*
X3619500Y1295500D01*
X3365500D02*
X3390900Y1310200D01*
X3524300Y1162200D02*
Y1225700D01*
X3460700Y1162200D02*
Y1225700D01*
X3228300D02*
X3365500D01*
X3228300Y1162200D02*
X3365500D01*
X3460700Y1225700D02*
X3524300D01*
X3460700Y1162200D02*
X3524300D01*
X3756700Y1415900D02*
Y1479400D01*
X3619500Y1415900D02*
X3756700D01*
X3619500Y1479400D02*
X3756700D01*
X3365500Y1066800D02*
X3390900D01*
X3594100D01*
X3619500D01*
X3365500D02*
Y1295500D01*
X3619500Y1066800D02*
Y1295500D01*
X4308280Y2351200D02*
X4363280D01*
X4308280Y2246200D02*
X4363280D01*
Y2351200D01*
X4308280Y2246200D02*
Y2351200D01*
X3165680Y1397440D02*
Y1452440D01*
X3270680Y1397440D02*
Y1452440D01*
X3165680D02*
X3270680D01*
X3165680Y1397440D02*
X3270680D01*
X5292520Y2108057D02*
Y2163057D01*
X5187520Y2108057D02*
Y2163057D01*
Y2108057D02*
X5292520D01*
X5187520Y2163057D02*
X5292520D01*
X6483000Y1602640D02*
Y1831340D01*
X6737000Y1602640D02*
Y1831340D01*
X6483000D02*
X6508400D01*
X6711600D01*
X6737000D01*
X6345801Y1418740D02*
X6483000D01*
X6345801Y1482240D02*
X6483000D01*
X6345801Y1418740D02*
Y1482240D01*
X6578200Y1735940D02*
X6641801D01*
X6578200Y1672440D02*
X6641801D01*
X6737000Y1735940D02*
X6874200D01*
X6737000Y1672440D02*
X6874200D01*
X6641801D02*
Y1735940D01*
X6578200Y1672440D02*
Y1735940D01*
X6711600Y1587940D02*
X6737000Y1602640D01*
X6483000D02*
X6508400Y1587940D01*
X6711600Y1577340D02*
Y1587940D01*
X6508400Y1577340D02*
Y1587940D01*
X6737000Y1323340D02*
Y1552040D01*
X6483000Y1323340D02*
Y1552040D01*
X6578200Y1418740D02*
X6641801D01*
X6578200Y1482240D02*
X6641801D01*
X6578200Y1418740D02*
Y1482240D01*
X6641801Y1418740D02*
Y1482240D01*
X6483000Y1552040D02*
X6508400Y1566740D01*
X6711600D02*
X6737000Y1552040D01*
X6508400Y1566740D02*
Y1577340D01*
X6711600Y1566740D02*
Y1577340D01*
X6874200Y1672440D02*
Y1735940D01*
X6711600Y1323340D02*
X6737000D01*
X6508400D02*
X6711600D01*
X6483000D02*
X6508400D01*
X5737860Y1605180D02*
Y1833880D01*
X5991860Y1605180D02*
Y1833880D01*
X5737860D02*
X5763260D01*
X5966460D01*
X5991860D01*
X5600660Y1421280D02*
X5737860D01*
X5600660Y1484780D02*
X5737860D01*
X5600660Y1421280D02*
Y1484780D01*
X5833060Y1738480D02*
X5896660D01*
X5833060Y1674980D02*
X5896660D01*
X5991860Y1738480D02*
X6129060D01*
X5991860Y1674980D02*
X6129060D01*
X5896660D02*
Y1738480D01*
X5833060Y1674980D02*
Y1738480D01*
X5966460Y1590480D02*
X5991860Y1605180D01*
X5737860D02*
X5763260Y1590480D01*
X5966460Y1579880D02*
Y1590480D01*
X5763260Y1579880D02*
Y1590480D01*
X5991860Y1325880D02*
Y1554580D01*
X5737860Y1325880D02*
Y1554580D01*
X5833060Y1421280D02*
X5896660D01*
X5833060Y1484780D02*
X5896660D01*
X5833060Y1421280D02*
Y1484780D01*
X5896660Y1421280D02*
Y1484780D01*
X5737860Y1554580D02*
X5763260Y1569280D01*
X5966460D02*
X5991860Y1554580D01*
X5763260Y1569280D02*
Y1579880D01*
X5966460Y1569280D02*
Y1579880D01*
X6129060Y1674980D02*
Y1738480D01*
X5966460Y1325880D02*
X5991860D01*
X5763260D02*
X5966460D01*
X5737860D02*
X5763260D01*
X5086480Y2206136D02*
Y2656136D01*
X4426480Y2206136D02*
Y2656136D01*
X5086480D01*
X4426480Y2206136D02*
X5086480D01*
X8192500Y2232500D02*
Y2372500D01*
X8412500Y2232500D02*
Y2372500D01*
X8192500D02*
X8412500D01*
X8192500Y2232500D02*
X8412500D01*
X8078040Y1541780D02*
Y1596780D01*
X8183040Y1541780D02*
Y1596780D01*
X8078040D02*
X8183040D01*
X8078040Y1541780D02*
X8183040D01*
X9227300Y1608280D02*
X9517300D01*
Y1983280D01*
X9227300D02*
X9517300D01*
X9227300Y1608280D02*
Y1983280D01*
X8895390Y1610598D02*
X9185390D01*
Y1985598D01*
X8895390D02*
X9185390D01*
X8895390Y1610598D02*
Y1985598D01*
X8567200Y1610602D02*
X8857200D01*
Y1985602D01*
X8567200D02*
X8857200D01*
X8567200Y1610602D02*
Y1985602D01*
X8095550Y1661010D02*
X8198550D01*
X8095550Y1713010D02*
X8198550D01*
Y1661010D02*
Y1713010D01*
X8095550Y1661010D02*
Y1713010D01*
X8193750Y2430000D02*
Y2570000D01*
X8413749Y2430000D02*
Y2570000D01*
X8193750D02*
X8413749D01*
X8193750Y2430000D02*
X8413749D01*
X7480960Y1252320D02*
X7535960D01*
X7480960Y1147320D02*
X7535960D01*
Y1252320D01*
X7480960Y1147320D02*
Y1252320D01*
X7595260Y1252288D02*
X7650260D01*
X7595260Y1147288D02*
X7650260D01*
Y1252288D01*
X7595260Y1147288D02*
Y1252288D01*
X8069120Y1187166D02*
Y1242166D01*
X8174120Y1187166D02*
Y1242166D01*
X8069120D02*
X8174120D01*
X8069120Y1187166D02*
X8174120D01*
X7007702Y1462500D02*
Y1602500D01*
X7227702Y1462500D02*
Y1602500D01*
X7007702D02*
X7227702D01*
X7007702Y1462500D02*
X7227702D01*
X7007702Y1650000D02*
Y1790000D01*
X7227702Y1650000D02*
Y1790000D01*
X7007702D02*
X7227702D01*
X7007702Y1650000D02*
X7227702D01*
X6787501Y2291917D02*
X7077500D01*
X6787501Y1916917D02*
Y2291917D01*
Y1916917D02*
X7077500D01*
Y2291917D01*
X6465001D02*
X6755000D01*
X6465001Y1916917D02*
Y2291917D01*
Y1916917D02*
X6755000D01*
Y2291917D01*
X6142501D02*
X6432500D01*
X6142501Y1916917D02*
Y2291917D01*
Y1916917D02*
X6432500D01*
Y2291917D01*
X7875000Y1187167D02*
Y1242166D01*
X7770000Y1187167D02*
Y1242166D01*
Y1187167D02*
X7875000D01*
X7770000Y1242166D02*
X7875000D01*
X7756501Y1809656D02*
Y1912656D01*
X7808501Y1809656D02*
Y1912656D01*
X7756501Y1809656D02*
X7808501D01*
X7756501Y1912656D02*
X7808501D01*
X8082250Y1478440D02*
X8185250D01*
X8082250Y1426440D02*
X8185250D01*
X8082250D02*
Y1478440D01*
X8185250Y1426440D02*
Y1478440D01*
X7392240Y1395680D02*
Y1450680D01*
X7497240Y1395680D02*
Y1450680D01*
X7392240D02*
X7497240D01*
X7392240Y1395680D02*
X7497240D01*
X8173550Y1306692D02*
Y1361692D01*
X8068550Y1306692D02*
Y1361692D01*
Y1306692D02*
X8173550D01*
X8068550Y1361692D02*
X8173550D01*
X7498000Y1508900D02*
Y1563900D01*
X7393000Y1508900D02*
Y1563900D01*
Y1508900D02*
X7498000D01*
X7393000Y1563900D02*
X7498000D01*
X7408280Y1681916D02*
X7511280D01*
X7408280Y1629916D02*
X7511280D01*
X7408280D02*
Y1681916D01*
X7511280Y1629916D02*
Y1681916D01*
X1901500Y1330000D02*
X2036500D01*
X1901500Y1110000D02*
X2036500D01*
Y1330000D01*
X1901500Y1110000D02*
Y1330000D01*
X2242200Y2076300D02*
X2462200D01*
X2242200Y1941300D02*
X2462200D01*
Y2076300D01*
X2242200Y1941300D02*
Y2076300D01*
X1267400Y1331280D02*
X1402400D01*
X1267400Y1111280D02*
X1402400D01*
Y1331280D01*
X1267400Y1111280D02*
Y1331280D01*
X1462400Y1273860D02*
X1557400D01*
X1462400Y1098860D02*
X1557400D01*
Y1273860D01*
X1462400Y1098860D02*
Y1273860D01*
X7597500Y2297500D02*
X7732500D01*
X7597500Y2517500D02*
X7732500D01*
X7597500Y2297500D02*
Y2517500D01*
X7732500Y2297500D02*
Y2517500D01*
X4740280Y1323826D02*
X4795280D01*
X4740280Y1218826D02*
X4795280D01*
Y1323826D01*
X4740280Y1218826D02*
Y1323826D01*
X12431000Y1451660D02*
X12534000D01*
X12431000Y1503660D02*
X12534000D01*
Y1451660D02*
Y1503660D01*
X12431000Y1451660D02*
Y1503660D01*
X10888609Y1200000D02*
Y1255000D01*
X10783609Y1200000D02*
Y1255000D01*
Y1200000D02*
X10888609D01*
X10783609Y1255000D02*
X10888609D01*
X10517500Y2697500D02*
X10612500D01*
X10517500Y2522500D02*
X10612500D01*
Y2697500D01*
X10517500Y2522500D02*
Y2697500D01*
X10775001Y1080000D02*
Y1135000D01*
X10670001Y1080000D02*
Y1135000D01*
Y1080000D02*
X10775001D01*
X10670001Y1135000D02*
X10775001D01*
X10775000Y1320000D02*
Y1375000D01*
X10670000Y1320000D02*
Y1375000D01*
Y1320000D02*
X10775000D01*
X10670000Y1375000D02*
X10775000D01*
Y1440000D02*
Y1495000D01*
X10670000Y1440000D02*
Y1495000D01*
Y1440000D02*
X10775000D01*
X10670000Y1495000D02*
X10775000D01*
X11556480Y1075200D02*
Y1130200D01*
X11661480Y1075200D02*
Y1130200D01*
X11556480D02*
X11661480D01*
X11556480Y1075200D02*
X11661480D01*
X11342500Y1097500D02*
X11397500D01*
X11342500Y1202500D02*
X11397500D01*
X11342500Y1097500D02*
Y1202500D01*
X11397500Y1097500D02*
Y1202500D01*
X11470000Y1551160D02*
X11610000D01*
X11470000Y1771160D02*
X11610000D01*
X11470000Y1551160D02*
Y1771160D01*
X11610000Y1551160D02*
Y1771160D01*
X12377500Y1077500D02*
Y1132500D01*
X12482500Y1077500D02*
Y1132500D01*
X12377500D02*
X12482500D01*
X12377500Y1077500D02*
X12482500D01*
X12597500Y1184960D02*
Y1239960D01*
X12492500Y1184960D02*
Y1239960D01*
Y1184960D02*
X12597500D01*
X12492500Y1239960D02*
X12597500D01*
X11112720Y1065838D02*
Y1120838D01*
X11217721Y1065838D02*
Y1120838D01*
X11112720D02*
X11217721D01*
X11112720Y1065838D02*
X11217721D01*
X12127500Y1077500D02*
Y1132500D01*
X12232500Y1077500D02*
Y1132500D01*
X12127500D02*
X12232500D01*
X12127500Y1077500D02*
X12232500D01*
X2645211Y2755960D02*
Y3080960D01*
X2480211Y2755960D02*
Y3080960D01*
X2645211D01*
X2480211Y2755960D02*
X2645211D01*
X2413162Y2757356D02*
Y3082356D01*
X2248162Y2757356D02*
Y3082356D01*
X2413162D01*
X2248162Y2757356D02*
X2413162D01*
X2301500Y1065000D02*
X2626500D01*
X2301500Y1230000D02*
X2626500D01*
Y1065000D02*
Y1230000D01*
X2301500Y1065000D02*
Y1230000D01*
X2242200Y1306300D02*
Y1441300D01*
X2462200Y1306300D02*
Y1441300D01*
X2242200Y1306300D02*
X2462200D01*
X2242200Y1441300D02*
X2462200D01*
X2242200Y2578800D02*
Y2713800D01*
X2462200Y2578800D02*
Y2713800D01*
X2242200Y2578800D02*
X2462200D01*
X2242200Y2713800D02*
X2462200D01*
X4250180Y1413380D02*
X4345180D01*
X4250180Y1238380D02*
X4345180D01*
Y1413380D01*
X4250180Y1238380D02*
Y1413380D01*
X13960152Y1414795D02*
Y1634795D01*
X13820152Y1414795D02*
Y1634795D01*
X13960152D01*
X13820152Y1414795D02*
X13960152D01*
X4312500Y1566700D02*
X4417500D01*
X4312500Y1621700D02*
X4417500D01*
Y1566700D02*
Y1621700D01*
X4312500Y1566700D02*
Y1621700D01*
X11930000Y1240000D02*
Y1655000D01*
X12345000Y1240000D02*
Y1655000D01*
X11930000D02*
X12345000D01*
X11930000Y1240000D02*
X12345000D01*
X11520000Y1190304D02*
Y1285304D01*
X11695000Y1190304D02*
Y1285304D01*
X11520000D02*
X11695000D01*
X11520000Y1190304D02*
X11695000D01*
X12764000Y1318960D02*
Y1373960D01*
X12659000Y1318960D02*
Y1373960D01*
Y1318960D02*
X12764000D01*
X12659000Y1373960D02*
X12764000D01*
X12889481Y1372460D02*
X12992480D01*
X12889481Y1320460D02*
X12992480D01*
X12889481D02*
Y1372460D01*
X12992480Y1320460D02*
Y1372460D01*
X12785000Y1612320D02*
X12888000D01*
X12785000Y1560320D02*
X12888000D01*
X12785000D02*
Y1612320D01*
X12888000Y1560320D02*
Y1612320D01*
X10615920Y1966022D02*
X10718920D01*
X10615920Y2018022D02*
X10718920D01*
Y1966022D02*
Y2018022D01*
X10615920Y1966022D02*
Y2018022D01*
X14118460Y1932498D02*
X14578461D01*
X14118460Y2692498D02*
X14578461D01*
X14118460Y1932498D02*
Y2692498D01*
X14578461Y1932498D02*
Y2692498D01*
X13076181Y1538100D02*
X13171181D01*
X13076181Y1713100D02*
X13171181D01*
X13076181Y1538100D02*
Y1713100D01*
X13171181Y1538100D02*
Y1713100D01*
X11520000Y1346960D02*
Y1441960D01*
X11695000Y1346960D02*
Y1441960D01*
X11520000D02*
X11695000D01*
X11520000Y1346960D02*
X11695000D01*
X11820000Y1078997D02*
Y1173997D01*
X11995000Y1078997D02*
Y1173997D01*
X11820000D02*
X11995000D01*
X11820000Y1078997D02*
X11995000D01*
X12047640Y1776434D02*
X12142640D01*
X12047640Y1951434D02*
X12142640D01*
X12047640Y1776434D02*
Y1951434D01*
X12142640Y1776434D02*
Y1951434D01*
X12204046Y1956176D02*
X12299046D01*
X12204046Y1781176D02*
X12299046D01*
Y1956176D01*
X12204046Y1781176D02*
Y1956176D01*
X12763499Y1441320D02*
Y1496320D01*
X12658499Y1441320D02*
Y1496320D01*
Y1441320D02*
X12763499D01*
X12658499Y1496320D02*
X12763499D01*
X12889499Y1494820D02*
X12992500D01*
X12889499Y1442820D02*
X12992500D01*
X12889499D02*
Y1494820D01*
X12992500Y1442820D02*
Y1494820D01*
X12785000Y1254960D02*
X12888000D01*
X12785000Y1202960D02*
X12888000D01*
X12785000D02*
Y1254960D01*
X12888000Y1202960D02*
Y1254960D01*
X14466240Y1170000D02*
X14561240D01*
X14466240Y1345000D02*
X14561240D01*
X14466240Y1170000D02*
Y1345000D01*
X14561240Y1170000D02*
Y1345000D01*
X14626241Y1170000D02*
X14721240D01*
X14626241Y1345000D02*
X14721240D01*
X14626241Y1170000D02*
Y1345000D01*
X14721240Y1170000D02*
Y1345000D01*
X14431239Y1590000D02*
Y1755000D01*
X14756239Y1590000D02*
Y1755000D01*
X14431239D02*
X14756239D01*
X14431239Y1590000D02*
X14756239D01*
X10307500Y1609359D02*
Y1704359D01*
X10132500Y1609359D02*
Y1704359D01*
Y1609359D02*
X10307500D01*
X10132500Y1704359D02*
X10307500D01*
X10396980Y1501334D02*
X10491980D01*
X10396980Y1676334D02*
X10491980D01*
X10396980Y1501334D02*
Y1676334D01*
X10491980Y1501334D02*
Y1676334D01*
X9946661Y1503601D02*
X10041660D01*
X9946661Y1678601D02*
X10041660D01*
X9946661Y1503601D02*
Y1678601D01*
X10041660Y1503601D02*
Y1678601D01*
X10095000Y1784282D02*
X10190000D01*
X10095000Y1959282D02*
X10190000D01*
X10095000Y1784282D02*
Y1959282D01*
X10190000Y1784282D02*
Y1959282D01*
X10250000Y1784282D02*
X10345000D01*
X10250000Y1959282D02*
X10345000D01*
X10250000Y1784282D02*
Y1959282D01*
X10345000Y1784282D02*
Y1959282D01*
X13410001Y3047500D02*
Y3142500D01*
X13585001Y3047500D02*
Y3142500D01*
X13410001D02*
X13585001D01*
X13410001Y3047500D02*
X13585001D01*
X11076952Y1180000D02*
Y1275000D01*
X11251952Y1180000D02*
Y1275000D01*
X11076952D02*
X11251952D01*
X11076952Y1180000D02*
X11251952D01*
X11882880Y1916300D02*
X11977880D01*
X11882880Y1741300D02*
X11977880D01*
Y1916300D01*
X11882880Y1741300D02*
Y1916300D01*
X12421360Y1791840D02*
X12516360D01*
X12421360Y1616840D02*
X12516360D01*
Y1791840D01*
X12421360Y1616840D02*
Y1791840D01*
X14628999Y1932490D02*
X15089000D01*
X14628999Y2692490D02*
X15089000D01*
X14628999Y1932490D02*
Y2692490D01*
X15089000Y1932490D02*
Y2692490D01*
X9437640Y2083402D02*
Y2543402D01*
X8677640Y2083402D02*
Y2543402D01*
Y2083402D02*
X9437640D01*
X8677640Y2543402D02*
X9437640D01*
X14506239Y1425000D02*
Y1520000D01*
X14681239Y1425000D02*
Y1520000D01*
X14506239D02*
X14681239D01*
X14506239Y1425000D02*
X14681239D01*
X15056152Y1168635D02*
Y1308635D01*
X14836153Y1168635D02*
Y1308635D01*
Y1168635D02*
X15056152D01*
X14836153Y1308635D02*
X15056152D01*
Y1371135D02*
Y1511135D01*
X14836153Y1371135D02*
Y1511135D01*
Y1371135D02*
X15056152D01*
X14836153Y1511135D02*
X15056152D01*
X13230151Y1413580D02*
X13370152D01*
X13230151Y1633580D02*
X13370152D01*
X13230151Y1413580D02*
Y1633580D01*
X13370152Y1413580D02*
Y1633580D01*
X13625153Y1414795D02*
X13765152D01*
X13625153Y1634795D02*
X13765152D01*
X13625153Y1414795D02*
Y1634795D01*
X13765152Y1414795D02*
Y1634795D01*
X10057500Y2046783D02*
Y2211782D01*
X10382500Y2046783D02*
Y2211782D01*
X10057500D02*
X10382500D01*
X10057500Y2046783D02*
X10382500D01*
X13927499Y2367500D02*
X14067500D01*
X13927499Y2147500D02*
X14067500D01*
Y2367500D01*
X13927499Y2147500D02*
Y2367500D01*
X13542500D02*
X13682500D01*
X13542500Y2147500D02*
X13682500D01*
Y2367500D01*
X13542500Y2147500D02*
Y2367500D01*
X13427652Y1413580D02*
X13567651D01*
X13427652Y1633580D02*
X13567651D01*
X13427652Y1413580D02*
Y1633580D01*
X13567651Y1413580D02*
Y1633580D01*
X13735001Y2368364D02*
X13875000D01*
X13735001Y2148364D02*
X13875000D01*
Y2368364D01*
X13735001Y2148364D02*
Y2368364D01*
X9413572Y2828363D02*
X9553572D01*
X9413572Y2608364D02*
X9553572D01*
Y2828363D01*
X9413572Y2608364D02*
Y2828363D01*
X9614643D02*
X9754643D01*
X9614643Y2608364D02*
X9754643D01*
Y2828363D01*
X9614643Y2608364D02*
Y2828363D01*
X9815714D02*
X9955714D01*
X9815714Y2608364D02*
X9955714D01*
Y2828363D01*
X9815714Y2608364D02*
Y2828363D01*
X10016786D02*
X10156786D01*
X10016786Y2608364D02*
X10156786D01*
Y2828363D01*
X10016786Y2608364D02*
Y2828363D01*
X9215531Y2831247D02*
X9355531D01*
X9215531Y2611247D02*
X9355531D01*
Y2831247D01*
X9215531Y2611247D02*
Y2831247D01*
X10215014Y2827220D02*
X10355014D01*
X10215014Y2607221D02*
X10355014D01*
Y2827220D01*
X10215014Y2607221D02*
Y2827220D01*
X5269344Y2291603D02*
X5321344D01*
X5269344Y2394603D02*
X5321344D01*
X5269344Y2291603D02*
Y2394603D01*
X5321344Y2291603D02*
Y2394603D01*
X4692780Y1243500D02*
Y1383500D01*
X4412780Y1243500D02*
Y1383500D01*
X4692780D01*
X4412780Y1243500D02*
X4692780D01*
X4606384Y1867540D02*
X4658384D01*
X4606384Y1970540D02*
X4658384D01*
X4606384Y1867540D02*
Y1970540D01*
X4658384Y1867540D02*
Y1970540D01*
X4499656Y1867540D02*
X4551656D01*
X4499656Y1970540D02*
X4551656D01*
X4499656Y1867540D02*
Y1970540D01*
X4551656Y1867540D02*
Y1970540D01*
X4928479Y3037232D02*
X4980479D01*
X4928479Y2934232D02*
X4980479D01*
Y3037232D01*
X4928479Y2934232D02*
Y3037232D01*
X4814179D02*
X4866179D01*
X4814179Y2934232D02*
X4866179D01*
Y3037232D01*
X4814179Y2934232D02*
Y3037232D01*
X4699879D02*
X4751879D01*
X4699879Y2934232D02*
X4751879D01*
Y3037232D01*
X4699879Y2934232D02*
Y3037232D01*
X4536884Y1639639D02*
Y1691638D01*
X4639884Y1639639D02*
Y1691638D01*
X4536884D02*
X4639884D01*
X4536884Y1639639D02*
X4639884D01*
X4536884Y1525339D02*
Y1577338D01*
X4639884Y1525339D02*
Y1577338D01*
X4536884D02*
X4639884D01*
X4536884Y1525339D02*
X4639884D01*
X4750960Y1424180D02*
Y1924180D01*
X5250960Y1424180D02*
Y1924180D01*
X4750960D02*
X5250960D01*
X4750960Y1424180D02*
X5250960D01*
X4928140Y1341000D02*
X5033140D01*
X4928140Y1286000D02*
X5033140D01*
X4928140D02*
Y1341000D01*
X5033140Y1286000D02*
Y1341000D01*
X4312500Y1676700D02*
Y1731700D01*
X4417500Y1676700D02*
Y1731700D01*
X4312500D02*
X4417500D01*
X4312500Y1676700D02*
X4417500D01*
D208*
X9372298Y1640769D02*
D03*
X9040388Y1643123D02*
D03*
X8712198Y1643134D02*
D03*
X6932512Y2259417D02*
D03*
X6610026Y2259414D02*
D03*
X6287512Y2259417D02*
D03*
D209*
X14348460Y1983608D02*
D03*
X14859000Y1983600D02*
D03*
D210*
X9386530Y2313402D02*
D03*
%TF.MD5,fec3da64814165b0968e98454dad9851*%
M02*
