%TF.GenerationSoftware,Altium Limited,Altium Designer,19.0.15 (446)*%
G04 Layer_Color=2752767*
%FSLAX45Y45*%
%MOMM*%
%TF.FileFunction,Drawing*%
%TF.Part,Single*%
G01*
G75*
%TA.AperFunction,NonConductor*%
%ADD117C,0.12700*%
%ADD230C,0.16933*%
%ADD231C,0.10160*%
D117*
X5473700Y1748134D02*
Y1849734D01*
X5575300D01*
Y1748134D01*
X5473700D01*
Y1943100D02*
Y2044700D01*
X5575300D01*
Y1943100D01*
X5473700D01*
X3139440Y2553029D02*
Y2654629D01*
X3241040D01*
Y2553029D01*
X3139440D01*
X3517900Y1630680D02*
Y1732280D01*
X3619500D01*
Y1630680D01*
X3517900D01*
X2895480Y2010640D02*
X2844680Y2112240D01*
X2946280D01*
X2895480Y2010640D01*
X2680480D02*
X2629680Y2112240D01*
X2731280D01*
X2680480Y2010640D01*
X2787980D02*
X2737180Y2112240D01*
X2838780D01*
X2787980Y2010640D01*
Y1869140D02*
X2737180Y1970740D01*
X2838780D01*
X2787980Y1869140D01*
Y1647140D02*
X2737180Y1748740D01*
X2838780D01*
X2787980Y1647140D01*
X2895480Y1758140D02*
X2844680Y1859740D01*
X2946280D01*
X2895480Y1758140D01*
X2680480D02*
X2629680Y1859740D01*
X2731280D01*
X2680480Y1758140D01*
X2787980D02*
X2737180Y1859740D01*
X2838780D01*
X2787980Y1758140D01*
X8679180Y2966720D02*
X8704580Y2992120D01*
X8729980D01*
X8704580Y3017520D01*
X8729980Y3042920D01*
X8704580D01*
X8679180Y3068320D01*
X8653780Y3042920D01*
X8628380D01*
X8653780Y3017520D01*
X8628380Y2992120D01*
X8653780D01*
X8679180Y2966720D01*
X15001241Y1617980D02*
X15026640Y1643380D01*
X15052040D01*
X15026640Y1668780D01*
X15052040Y1694180D01*
X15026640D01*
X15001241Y1719580D01*
X14975841Y1694180D01*
X14950439D01*
X14975841Y1668780D01*
X14950439Y1643380D01*
X14975841D01*
X15001241Y1617980D01*
X5442700Y2605440D02*
X5468100Y2656240D01*
X5442700Y2707040D01*
X5493500Y2681640D01*
X5544300Y2707040D01*
X5518900Y2656240D01*
X5544300Y2605440D01*
X5493500Y2630840D01*
X5442700Y2605440D01*
Y2287940D02*
X5468100Y2338740D01*
X5442700Y2389540D01*
X5493500Y2364140D01*
X5544300Y2389540D01*
X5518900Y2338740D01*
X5544300Y2287940D01*
X5493500Y2313340D01*
X5442700Y2287940D01*
X5950700D02*
X5976100Y2338740D01*
X5950700Y2389540D01*
X6001500Y2364140D01*
X6052300Y2389540D01*
X6026900Y2338740D01*
X6052300Y2287940D01*
X6001500Y2313340D01*
X5950700Y2287940D01*
Y2605440D02*
X5976100Y2656240D01*
X5950700Y2707040D01*
X6001500Y2681640D01*
X6052300Y2707040D01*
X6026900Y2656240D01*
X6052300Y2605440D01*
X6001500Y2630840D01*
X5950700Y2605440D01*
X5722100Y2630840D02*
Y2605440D01*
X5772900D01*
Y2630840D01*
X5798300D01*
Y2681640D01*
X5772900D01*
Y2707040D01*
X5722100D01*
Y2681640D01*
X5696700D01*
Y2630840D01*
X5722100D01*
X5823700Y2122840D02*
Y2097440D01*
X5874500D01*
Y2122840D01*
X5899900D01*
Y2173640D01*
X5874500D01*
Y2199040D01*
X5823700D01*
Y2173640D01*
X5798300D01*
Y2122840D01*
X5823700D01*
X5620500D02*
Y2097440D01*
X5671300D01*
Y2122840D01*
X5696700D01*
Y2173640D01*
X5671300D01*
Y2199040D01*
X5620500D01*
Y2173640D01*
X5595100D01*
Y2122840D01*
X5620500D01*
X5115560Y3017520D02*
Y3119120D01*
X5217160D01*
Y3017520D01*
X5115560D01*
X5618464D02*
Y3119120D01*
X5720064D01*
Y3017520D01*
X5618464D01*
X11976700Y1506700D02*
X12002100D01*
X12027500Y1532100D01*
X12052900Y1506700D01*
X12078300D01*
Y1532100D01*
X12052900Y1557500D01*
X12078300Y1582900D01*
Y1608300D01*
X12052900D01*
X12027500Y1582900D01*
X12002100Y1608300D01*
X11976700D01*
Y1582900D01*
X12002100Y1557500D01*
X11976700Y1532100D01*
Y1506700D01*
X12196700D02*
X12222100D01*
X12247500Y1532100D01*
X12272900Y1506700D01*
X12298300D01*
Y1532100D01*
X12272900Y1557500D01*
X12298300Y1582900D01*
Y1608300D01*
X12272900D01*
X12247500Y1582900D01*
X12222100Y1608300D01*
X12196700D01*
Y1582900D01*
X12222100Y1557500D01*
X12196700Y1532100D01*
Y1506700D01*
X11976700Y1286700D02*
X12002100D01*
X12027500Y1312100D01*
X12052900Y1286700D01*
X12078300D01*
Y1312100D01*
X12052900Y1337500D01*
X12078300Y1362900D01*
Y1388300D01*
X12052900D01*
X12027500Y1362900D01*
X12002100Y1388300D01*
X11976700D01*
Y1362900D01*
X12002100Y1337500D01*
X11976700Y1312100D01*
Y1286700D01*
X12196700D02*
X12222100D01*
X12247500Y1312100D01*
X12272900Y1286700D01*
X12298300D01*
Y1312100D01*
X12272900Y1337500D01*
X12298300Y1362900D01*
Y1388300D01*
X12272900D01*
X12247500Y1362900D01*
X12222100Y1388300D01*
X12196700D01*
Y1362900D01*
X12222100Y1337500D01*
X12196700Y1312100D01*
Y1286700D01*
X11976700Y1396700D02*
X12002100D01*
X12027500Y1422100D01*
X12052900Y1396700D01*
X12078300D01*
Y1422100D01*
X12052900Y1447500D01*
X12078300Y1472900D01*
Y1498300D01*
X12052900D01*
X12027500Y1472900D01*
X12002100Y1498300D01*
X11976700D01*
Y1472900D01*
X12002100Y1447500D01*
X11976700Y1422100D01*
Y1396700D01*
X12086700Y1506700D02*
X12112100D01*
X12137500Y1532100D01*
X12162900Y1506700D01*
X12188300D01*
Y1532100D01*
X12162900Y1557500D01*
X12188300Y1582900D01*
Y1608300D01*
X12162900D01*
X12137500Y1582900D01*
X12112100Y1608300D01*
X12086700D01*
Y1582900D01*
X12112100Y1557500D01*
X12086700Y1532100D01*
Y1506700D01*
Y1286700D02*
X12112100D01*
X12137500Y1312100D01*
X12162900Y1286700D01*
X12188300D01*
Y1312100D01*
X12162900Y1337500D01*
X12188300Y1362900D01*
Y1388300D01*
X12162900D01*
X12137500Y1362900D01*
X12112100Y1388300D01*
X12086700D01*
Y1362900D01*
X12112100Y1337500D01*
X12086700Y1312100D01*
Y1286700D01*
X12194200Y1396700D02*
X12219600D01*
X12245000Y1422100D01*
X12270400Y1396700D01*
X12295800D01*
Y1422100D01*
X12270400Y1447500D01*
X12295800Y1472900D01*
Y1498300D01*
X12270400D01*
X12245000Y1472900D01*
X12219600Y1498300D01*
X12194200D01*
Y1472900D01*
X12219600Y1447500D01*
X12194200Y1422100D01*
Y1396700D01*
X11701780Y1511300D02*
X11727180D01*
X11752580Y1536700D01*
X11777980Y1511300D01*
X11803380D01*
Y1536700D01*
X11777980Y1562100D01*
X11803380Y1587500D01*
Y1612900D01*
X11777980D01*
X11752580Y1587500D01*
X11727180Y1612900D01*
X11701780D01*
Y1587500D01*
X11727180Y1562100D01*
X11701780Y1536700D01*
Y1511300D01*
X11741218Y1468120D02*
X11766618D01*
X11792018Y1493520D01*
X11817418Y1468120D01*
X11842818D01*
Y1493520D01*
X11817418Y1518920D01*
X11842818Y1544320D01*
Y1569720D01*
X11817418D01*
X11792018Y1544320D01*
X11766618Y1569720D01*
X11741218D01*
Y1544320D01*
X11766618Y1518920D01*
X11741218Y1493520D01*
Y1468120D01*
X10142220Y1518920D02*
X10167620D01*
X10193020Y1544320D01*
X10218420Y1518920D01*
X10243820D01*
Y1544320D01*
X10218420Y1569720D01*
X10243820Y1595120D01*
Y1620520D01*
X10218420D01*
X10193020Y1595120D01*
X10167620Y1620520D01*
X10142220D01*
Y1595120D01*
X10167620Y1569720D01*
X10142220Y1544320D01*
Y1518920D01*
X10195560D02*
X10220960D01*
X10246360Y1544320D01*
X10271760Y1518920D01*
X10297160D01*
Y1544320D01*
X10271760Y1569720D01*
X10297160Y1595120D01*
Y1620520D01*
X10271760D01*
X10246360Y1595120D01*
X10220960Y1620520D01*
X10195560D01*
Y1595120D01*
X10220960Y1569720D01*
X10195560Y1544320D01*
Y1518920D01*
X4033200Y2628765D02*
X4058600D01*
X4084000Y2654165D01*
X4109400Y2628765D01*
X4134800D01*
Y2654165D01*
X4109400Y2679565D01*
X4134800Y2704965D01*
Y2730365D01*
X4109400D01*
X4084000Y2704965D01*
X4058600Y2730365D01*
X4033200D01*
Y2704965D01*
X4058600Y2679565D01*
X4033200Y2654165D01*
Y2628765D01*
X3634740Y2628900D02*
X3660140D01*
X3685540Y2654300D01*
X3710940Y2628900D01*
X3736340D01*
Y2654300D01*
X3710940Y2679700D01*
X3736340Y2705100D01*
Y2730500D01*
X3710940D01*
X3685540Y2705100D01*
X3660140Y2730500D01*
X3634740D01*
Y2705100D01*
X3660140Y2679700D01*
X3634740Y2654300D01*
Y2628900D01*
X4000500Y2418080D02*
X4051300Y2468880D01*
X4102100Y2418080D01*
X4051300Y2367280D01*
X4000500Y2418080D01*
X3451730Y2313370D02*
X3477130D01*
X3502530Y2338770D01*
X3527930Y2313370D01*
X3553330D01*
Y2338770D01*
X3527930Y2364170D01*
X3553330Y2389570D01*
Y2414970D01*
X3527930D01*
X3502530Y2389570D01*
X3477130Y2414970D01*
X3451730D01*
Y2389570D01*
X3477130Y2364170D01*
X3451730Y2338770D01*
Y2313370D01*
X3886200Y2310960D02*
X3911600D01*
X3937000Y2336360D01*
X3962400Y2310960D01*
X3987800D01*
Y2336360D01*
X3962400Y2361760D01*
X3987800Y2387160D01*
Y2412560D01*
X3962400D01*
X3937000Y2387160D01*
X3911600Y2412560D01*
X3886200D01*
Y2387160D01*
X3911600Y2361760D01*
X3886200Y2336360D01*
Y2310960D01*
X4998180Y2112864D02*
X5023580D01*
X5048980Y2138264D01*
X5074380Y2112864D01*
X5099780D01*
Y2138264D01*
X5074380Y2163664D01*
X5099780Y2189064D01*
Y2214464D01*
X5074380D01*
X5048980Y2189064D01*
X5023580Y2214464D01*
X4998180D01*
Y2189064D01*
X5023580Y2163664D01*
X4998180Y2138264D01*
Y2112864D01*
X4478180Y2085336D02*
X4503580D01*
X4528980Y2110736D01*
X4554380Y2085336D01*
X4579780D01*
Y2110736D01*
X4554380Y2136136D01*
X4579780Y2161536D01*
Y2186936D01*
X4554380D01*
X4528980Y2161536D01*
X4503580Y2186936D01*
X4478180D01*
Y2161536D01*
X4503580Y2136136D01*
X4478180Y2110736D01*
Y2085336D01*
X4726940Y2233457D02*
X4752340D01*
X4777740Y2258857D01*
X4803140Y2233457D01*
X4828540D01*
Y2258857D01*
X4803140Y2284257D01*
X4828540Y2309657D01*
Y2335057D01*
X4803140D01*
X4777740Y2309657D01*
X4752340Y2335057D01*
X4726940D01*
Y2309657D01*
X4752340Y2284257D01*
X4726940Y2258857D01*
Y2233457D01*
X2299200Y2134240D02*
X2324600D01*
X2350000Y2159640D01*
X2375400Y2134240D01*
X2400800D01*
Y2159640D01*
X2375400Y2185040D01*
X2400800Y2210440D01*
Y2235840D01*
X2375400D01*
X2350000Y2210440D01*
X2324600Y2235840D01*
X2299200D01*
Y2210440D01*
X2324600Y2185040D01*
X2299200Y2159640D01*
Y2134240D01*
X4234520Y2072640D02*
X4259920D01*
X4285320Y2098040D01*
X4310720Y2072640D01*
X4336120D01*
Y2098040D01*
X4310720Y2123440D01*
X4336120Y2148840D01*
Y2174240D01*
X4310720D01*
X4285320Y2148840D01*
X4259920Y2174240D01*
X4234520D01*
Y2148840D01*
X4259920Y2123440D01*
X4234520Y2098040D01*
Y2072640D01*
X4185920Y2037080D02*
X4211320D01*
X4236720Y2062480D01*
X4262120Y2037080D01*
X4287520D01*
Y2062480D01*
X4262120Y2087880D01*
X4287520Y2113280D01*
Y2138680D01*
X4262120D01*
X4236720Y2113280D01*
X4211320Y2138680D01*
X4185920D01*
Y2113280D01*
X4211320Y2087880D01*
X4185920Y2062480D01*
Y2037080D01*
X2299200Y2016660D02*
X2324600D01*
X2350000Y2042060D01*
X2375400Y2016660D01*
X2400800D01*
Y2042060D01*
X2375400Y2067460D01*
X2400800Y2092860D01*
Y2118260D01*
X2375400D01*
X2350000Y2092860D01*
X2324600Y2118260D01*
X2299200D01*
Y2092860D01*
X2324600Y2067460D01*
X2299200Y2042060D01*
Y2016660D01*
X1956840Y2075660D02*
X1982240D01*
X2007640Y2101060D01*
X2033040Y2075660D01*
X2058440D01*
Y2101060D01*
X2033040Y2126460D01*
X2058440Y2151860D01*
Y2177260D01*
X2033040D01*
X2007640Y2151860D01*
X1982240Y2177260D01*
X1956840D01*
Y2151860D01*
X1982240Y2126460D01*
X1956840Y2101060D01*
Y2075660D01*
X1784356Y2007439D02*
Y2109039D01*
X1885956D01*
Y2007439D01*
X1784356D01*
X1804676Y2027759D02*
Y2088719D01*
X1865636D01*
Y2027759D01*
X1804676D01*
X1669280Y1647277D02*
X1694680D01*
X1720080Y1672677D01*
X1745480Y1647277D01*
X1770880D01*
Y1672677D01*
X1745480Y1698077D01*
X1770880Y1723477D01*
Y1748877D01*
X1745480D01*
X1720080Y1723477D01*
X1694680Y1748877D01*
X1669280D01*
Y1723477D01*
X1694680Y1698077D01*
X1669280Y1672677D01*
Y1647277D01*
Y2170077D02*
X1720080Y2220877D01*
X1770880Y2170077D01*
X1720080Y2119277D01*
X1669280Y2170077D01*
X5631180Y2844800D02*
X5656580D01*
X5681980Y2870200D01*
X5707380Y2844800D01*
X5732780D01*
Y2870200D01*
X5707380Y2895600D01*
X5732780Y2921000D01*
Y2946400D01*
X5707380D01*
X5681980Y2921000D01*
X5656580Y2946400D01*
X5631180D01*
Y2921000D01*
X5656580Y2895600D01*
X5631180Y2870200D01*
Y2844800D01*
X4371700Y1808480D02*
X4397100D01*
X4422500Y1833880D01*
X4447900Y1808480D01*
X4473300D01*
Y1833880D01*
X4447900Y1859280D01*
X4473300Y1884680D01*
Y1910080D01*
X4447900D01*
X4422500Y1884680D01*
X4397100Y1910080D01*
X4371700D01*
Y1884680D01*
X4397100Y1859280D01*
X4371700Y1833880D01*
Y1808480D01*
X5190160Y1723380D02*
X5215560D01*
X5240960Y1748780D01*
X5266360Y1723380D01*
X5291760D01*
Y1748780D01*
X5266360Y1774180D01*
X5291760Y1799580D01*
Y1824980D01*
X5266360D01*
X5240960Y1799580D01*
X5215560Y1824980D01*
X5190160D01*
Y1799580D01*
X5215560Y1774180D01*
X5190160Y1748780D01*
Y1723380D01*
X7037525Y2409411D02*
X7062925D01*
X7088325Y2434811D01*
X7113725Y2409411D01*
X7139125D01*
Y2434811D01*
X7113725Y2460211D01*
X7139125Y2485611D01*
Y2511011D01*
X7113725D01*
X7088325Y2485611D01*
X7062925Y2511011D01*
X7037525D01*
Y2485611D01*
X7062925Y2460211D01*
X7037525Y2434811D01*
Y2409411D01*
X6819461Y2331980D02*
X6844861D01*
X6870261Y2357380D01*
X6895661Y2331980D01*
X6921061D01*
Y2357380D01*
X6895661Y2382780D01*
X6921061Y2408180D01*
Y2433580D01*
X6895661D01*
X6870261Y2408180D01*
X6844861Y2433580D01*
X6819461D01*
Y2408180D01*
X6844861Y2382780D01*
X6819461Y2357380D01*
Y2331980D01*
X6377520Y1220544D02*
X6402920D01*
X6428320Y1245944D01*
X6453720Y1220544D01*
X6479120D01*
Y1245944D01*
X6453720Y1271344D01*
X6479120Y1296744D01*
Y1322144D01*
X6453720D01*
X6428320Y1296744D01*
X6402920Y1322144D01*
X6377520D01*
Y1296744D01*
X6402920Y1271344D01*
X6377520Y1245944D01*
Y1220544D01*
X6690420Y1178560D02*
X6741220Y1229360D01*
X6792020Y1178560D01*
X6741220Y1127760D01*
X6690420Y1178560D01*
X7313920Y1189116D02*
X7339320D01*
X7364720Y1214516D01*
X7390120Y1189116D01*
X7415520D01*
Y1214516D01*
X7390120Y1239916D01*
X7415520Y1265316D01*
Y1290716D01*
X7390120D01*
X7364720Y1265316D01*
X7339320Y1290716D01*
X7313920D01*
Y1265316D01*
X7339320Y1239916D01*
X7313920Y1214516D01*
Y1189116D01*
X6177280Y1599200D02*
X6202680D01*
X6228080Y1624600D01*
X6253480Y1599200D01*
X6278880D01*
Y1624600D01*
X6253480Y1650000D01*
X6278880Y1675400D01*
Y1700800D01*
X6253480D01*
X6228080Y1675400D01*
X6202680Y1700800D01*
X6177280D01*
Y1675400D01*
X6202680Y1650000D01*
X6177280Y1624600D01*
Y1599200D01*
X7900660Y1241820D02*
X7926060D01*
X7951460Y1267220D01*
X7976860Y1241820D01*
X8002260D01*
Y1267220D01*
X7976860Y1292620D01*
X8002260Y1318020D01*
Y1343420D01*
X7976860D01*
X7951460Y1318020D01*
X7926060Y1343420D01*
X7900660D01*
Y1318020D01*
X7926060Y1292620D01*
X7900660Y1267220D01*
Y1241820D01*
X3108300Y1714500D02*
X3133700D01*
X3159100Y1739900D01*
X3184500Y1714500D01*
X3209900D01*
Y1739900D01*
X3184500Y1765300D01*
X3209900Y1790700D01*
Y1816100D01*
X3184500D01*
X3159100Y1790700D01*
X3133700Y1816100D01*
X3108300D01*
Y1790700D01*
X3133700Y1765300D01*
X3108300Y1739900D01*
Y1714500D01*
X3863340Y1973580D02*
X3888740D01*
X3914140Y1998980D01*
X3939540Y1973580D01*
X3964940D01*
Y1998980D01*
X3939540Y2024380D01*
X3964940Y2049780D01*
Y2075180D01*
X3939540D01*
X3914140Y2049780D01*
X3888740Y2075180D01*
X3863340D01*
Y2049780D01*
X3888740Y2024380D01*
X3863340Y1998980D01*
Y1973580D01*
X3929380Y1884680D02*
X3954780D01*
X3980180Y1910080D01*
X4005580Y1884680D01*
X4030980D01*
Y1910080D01*
X4005580Y1935480D01*
X4030980Y1960880D01*
Y1986280D01*
X4005580D01*
X3980180Y1960880D01*
X3954780Y1986280D01*
X3929380D01*
Y1960880D01*
X3954780Y1935480D01*
X3929380Y1910080D01*
Y1884680D01*
X4478180Y2673436D02*
X4503580D01*
X4528980Y2698836D01*
X4554380Y2673436D01*
X4579780D01*
Y2698836D01*
X4554380Y2724236D01*
X4579780Y2749636D01*
Y2775036D01*
X4554380D01*
X4528980Y2749636D01*
X4503580Y2775036D01*
X4478180D01*
Y2749636D01*
X4503580Y2724236D01*
X4478180Y2698836D01*
Y2673436D01*
X4284980Y2305400D02*
X4310380D01*
X4335780Y2330800D01*
X4361180Y2305400D01*
X4386580D01*
Y2330800D01*
X4361180Y2356200D01*
X4386580Y2381600D01*
Y2407000D01*
X4361180D01*
X4335780Y2381600D01*
X4310380Y2407000D01*
X4284980D01*
Y2381600D01*
X4310380Y2356200D01*
X4284980Y2330800D01*
Y2305400D01*
X10522200Y1463040D02*
X10573000Y1513840D01*
X10623800Y1463040D01*
X10573000Y1412240D01*
X10522200Y1463040D01*
X5246720Y2084757D02*
X5272120D01*
X5297520Y2110157D01*
X5322920Y2084757D01*
X5348320D01*
Y2110157D01*
X5322920Y2135557D01*
X5348320Y2160957D01*
Y2186357D01*
X5322920D01*
X5297520Y2160957D01*
X5272120Y2186357D01*
X5246720D01*
Y2160957D01*
X5272120Y2135557D01*
X5246720Y2110157D01*
Y2084757D01*
X8017223Y2875680D02*
X8068023Y2926480D01*
X8118823Y2875680D01*
X8068023Y2824880D01*
X8017223Y2875680D01*
X6856280Y2701859D02*
X6907080Y2752659D01*
X6957880Y2701859D01*
X6907080Y2651059D01*
X6856280Y2701859D01*
X1839245Y2218525D02*
X1864645D01*
X1890045Y2243925D01*
X1915445Y2218525D01*
X1940845D01*
Y2243925D01*
X1915445Y2269325D01*
X1940845Y2294725D01*
Y2320125D01*
X1915445D01*
X1890045Y2294725D01*
X1864645Y2320125D01*
X1839245D01*
Y2294725D01*
X1864645Y2269325D01*
X1839245Y2243925D01*
Y2218525D01*
X6362200Y2946400D02*
X6387600D01*
X6413000Y2971800D01*
X6438400Y2946400D01*
X6463800D01*
Y2971800D01*
X6438400Y2997200D01*
X6463800Y3022600D01*
Y3048000D01*
X6438400D01*
X6413000Y3022600D01*
X6387600Y3048000D01*
X6362200D01*
Y3022600D01*
X6387600Y2997200D01*
X6362200Y2971800D01*
Y2946400D01*
X7614200Y2045260D02*
X7665000Y2096060D01*
X7715800Y2045260D01*
X7665000Y1994460D01*
X7614200Y2045260D01*
X8021320Y1824240D02*
X8046720D01*
X8072120Y1849640D01*
X8097520Y1824240D01*
X8122920D01*
Y1849640D01*
X8097520Y1875040D01*
X8122920Y1900440D01*
Y1925840D01*
X8097520D01*
X8072120Y1900440D01*
X8046720Y1925840D01*
X8021320D01*
Y1900440D01*
X8046720Y1875040D01*
X8021320Y1849640D01*
Y1824240D01*
X7956700Y1839200D02*
X7982100D01*
X8007500Y1864600D01*
X8032900Y1839200D01*
X8058300D01*
Y1864600D01*
X8032900Y1890000D01*
X8058300Y1915400D01*
Y1940800D01*
X8032900D01*
X8007500Y1915400D01*
X7982100Y1940800D01*
X7956700D01*
Y1915400D01*
X7982100Y1890000D01*
X7956700Y1864600D01*
Y1839200D01*
X6474460Y1598980D02*
X6499860D01*
X6525260Y1624380D01*
X6550660Y1598980D01*
X6576060D01*
Y1624380D01*
X6550660Y1649780D01*
X6576060Y1675180D01*
Y1700580D01*
X6550660D01*
X6525260Y1675180D01*
X6499860Y1700580D01*
X6474460D01*
Y1675180D01*
X6499860Y1649780D01*
X6474460Y1624380D01*
Y1598980D01*
X7316700Y2512060D02*
X7367500Y2562860D01*
X7418300Y2512060D01*
X7367500Y2461260D01*
X7316700Y2512060D01*
X7012940Y2151380D02*
X7063740Y2202180D01*
X7114540Y2151380D01*
X7063740Y2100580D01*
X7012940Y2151380D01*
X13515199Y2862064D02*
Y2963664D01*
X13616800D01*
Y2862064D01*
X13515199D01*
X13535519Y2882384D02*
Y2943344D01*
X13596480D01*
Y2882384D01*
X13535519D01*
X9232900Y2766060D02*
X9283700Y2816860D01*
X9334500Y2766060D01*
X9283700Y2715260D01*
X9232900Y2766060D01*
X9431020D02*
X9481820Y2816860D01*
X9532620Y2766060D01*
X9481820Y2715260D01*
X9431020Y2766060D01*
X9631680D02*
X9682480Y2816860D01*
X9733280Y2766060D01*
X9682480Y2715260D01*
X9631680Y2766060D01*
X9834880D02*
X9885680Y2816860D01*
X9936480Y2766060D01*
X9885680Y2715260D01*
X9834880Y2766060D01*
X10035540D02*
X10086340Y2816860D01*
X10137140Y2766060D01*
X10086340Y2715260D01*
X10035540Y2766060D01*
X10233660D02*
X10284460Y2816860D01*
X10335260Y2766060D01*
X10284460Y2715260D01*
X10233660Y2766060D01*
X9938493Y2940000D02*
X9989293Y2990800D01*
X10040093Y2940000D01*
X9989293Y2889200D01*
X9938493Y2940000D01*
X10039458D02*
X10090258Y2990800D01*
X10141058Y2940000D01*
X10090258Y2889200D01*
X10039458Y2940000D01*
X9736563D02*
X9787363Y2990800D01*
X9838163Y2940000D01*
X9787363Y2889200D01*
X9736563Y2940000D01*
X9837528D02*
X9888328Y2990800D01*
X9939128Y2940000D01*
X9888328Y2889200D01*
X9837528Y2940000D01*
X9534633D02*
X9585433Y2990800D01*
X9636233Y2940000D01*
X9585433Y2889200D01*
X9534633Y2940000D01*
X9635598D02*
X9686398Y2990800D01*
X9737198Y2940000D01*
X9686398Y2889200D01*
X9635598Y2940000D01*
X9332703D02*
X9383503Y2990800D01*
X9434303Y2940000D01*
X9383503Y2889200D01*
X9332703Y2940000D01*
X9433668D02*
X9484468Y2990800D01*
X9535268Y2940000D01*
X9484468Y2889200D01*
X9433668Y2940000D01*
X9231738D02*
X9282538Y2990800D01*
X9333338Y2940000D01*
X9282538Y2889200D01*
X9231738Y2940000D01*
X8676820Y2366342D02*
X8702220D01*
X8727620Y2391742D01*
X8753020Y2366342D01*
X8778420D01*
Y2391742D01*
X8753020Y2417142D01*
X8778420Y2442542D01*
Y2467942D01*
X8753020D01*
X8727620Y2442542D01*
X8702220Y2467942D01*
X8676820D01*
Y2442542D01*
X8702220Y2417142D01*
X8676820Y2391742D01*
Y2366342D01*
X8735060Y2366017D02*
X8760460D01*
X8785860Y2391417D01*
X8811260Y2366017D01*
X8836660D01*
Y2391417D01*
X8811260Y2416817D01*
X8836660Y2442217D01*
Y2467617D01*
X8811260D01*
X8785860Y2442217D01*
X8760460Y2467617D01*
X8735060D01*
Y2442217D01*
X8760460Y2416817D01*
X8735060Y2391417D01*
Y2366017D01*
X8562520Y2366342D02*
X8587920D01*
X8613320Y2391742D01*
X8638720Y2366342D01*
X8664120D01*
Y2391742D01*
X8638720Y2417142D01*
X8664120Y2442542D01*
Y2467942D01*
X8638720D01*
X8613320Y2442542D01*
X8587920Y2467942D01*
X8562520D01*
Y2442542D01*
X8587920Y2417142D01*
X8562520Y2391742D01*
Y2366342D01*
X8620760Y2366017D02*
X8646160D01*
X8671560Y2391417D01*
X8696960Y2366017D01*
X8722360D01*
Y2391417D01*
X8696960Y2416817D01*
X8722360Y2442217D01*
Y2467617D01*
X8696960D01*
X8671560Y2442217D01*
X8646160Y2467617D01*
X8620760D01*
Y2442217D01*
X8646160Y2416817D01*
X8620760Y2391417D01*
Y2366017D01*
X14784821Y2526680D02*
X14835620Y2577480D01*
X14886420Y2526680D01*
X14835620Y2475880D01*
X14784821Y2526680D01*
Y2586680D02*
X14835620Y2637480D01*
X14886420Y2586680D01*
X14835620Y2535880D01*
X14784821Y2586680D01*
X14849820Y2646680D02*
X14900620Y2697480D01*
X14951421Y2646680D01*
X14900620Y2595880D01*
X14849820Y2646680D01*
Y2586680D02*
X14900620Y2637480D01*
X14951421Y2586680D01*
X14900620Y2535880D01*
X14849820Y2586680D01*
X14784821Y2646680D02*
X14835620Y2697480D01*
X14886420Y2646680D01*
X14835620Y2595880D01*
X14784821Y2646680D01*
X14849820Y2526680D02*
X14900620Y2577480D01*
X14951421Y2526680D01*
X14900620Y2475880D01*
X14849820Y2526680D01*
X14784821Y2706680D02*
X14835620Y2757480D01*
X14886420Y2706680D01*
X14835620Y2655880D01*
X14784821Y2706680D01*
X14849820D02*
X14900620Y2757480D01*
X14951421Y2706680D01*
X14900620Y2655880D01*
X14849820Y2706680D01*
X14332179Y2705100D02*
X14382980Y2755900D01*
X14433780Y2705100D01*
X14382980Y2654300D01*
X14332179Y2705100D01*
X14267180D02*
X14317979Y2755900D01*
X14368781Y2705100D01*
X14317979Y2654300D01*
X14267180Y2705100D01*
X14332179Y2525100D02*
X14382980Y2575900D01*
X14433780Y2525100D01*
X14382980Y2474300D01*
X14332179Y2525100D01*
X14267180Y2645100D02*
X14317979Y2695900D01*
X14368781Y2645100D01*
X14317979Y2594300D01*
X14267180Y2645100D01*
X14266220Y2012688D02*
X14317020Y2063488D01*
X14367821Y2012688D01*
X14317020Y1961888D01*
X14266220Y2012688D01*
X14326221D02*
X14377020Y2063488D01*
X14427820Y2012688D01*
X14377020Y1961888D01*
X14326221Y2012688D01*
X14266220Y2077688D02*
X14317020Y2128488D01*
X14367821Y2077688D01*
X14317020Y2026888D01*
X14266220Y2077688D01*
X14206219D02*
X14257021Y2128488D01*
X14307820Y2077688D01*
X14257021Y2026888D01*
X14206219Y2077688D01*
X14332179Y2585100D02*
X14382980Y2635900D01*
X14433780Y2585100D01*
X14382980Y2534300D01*
X14332179Y2585100D01*
Y2645100D02*
X14382980Y2695900D01*
X14433780Y2645100D01*
X14382980Y2594300D01*
X14332179Y2645100D01*
X14267180Y2585100D02*
X14317979Y2635900D01*
X14368781Y2585100D01*
X14317979Y2534300D01*
X14267180Y2585100D01*
Y2525100D02*
X14317979Y2575900D01*
X14368781Y2525100D01*
X14317979Y2474300D01*
X14267180Y2525100D01*
X14206219Y2012688D02*
X14257021Y2063488D01*
X14307820Y2012688D01*
X14257021Y1961888D01*
X14206219Y2012688D01*
X14326221Y2077688D02*
X14377020Y2128488D01*
X14427820Y2077688D01*
X14377020Y2026888D01*
X14326221Y2077688D01*
X14386220Y2012688D02*
X14437019Y2063488D01*
X14487820Y2012688D01*
X14437019Y1961888D01*
X14386220Y2012688D01*
Y2077688D02*
X14437019Y2128488D01*
X14487820Y2077688D01*
X14437019Y2026888D01*
X14386220Y2077688D01*
X13734200Y2467500D02*
X13785001Y2518300D01*
X13835800Y2467500D01*
X13785001Y2416700D01*
X13734200Y2467500D01*
Y2532500D02*
X13785001Y2583300D01*
X13835800Y2532500D01*
X13785001Y2481700D01*
X13734200Y2532500D01*
X13674200D02*
X13725000Y2583300D01*
X13775800Y2532500D01*
X13725000Y2481700D01*
X13674200Y2532500D01*
X13794200Y2467500D02*
X13845000Y2518300D01*
X13895799Y2467500D01*
X13845000Y2416700D01*
X13794200Y2467500D01*
X13674200D02*
X13725000Y2518300D01*
X13775800Y2467500D01*
X13725000Y2416700D01*
X13674200Y2467500D01*
X13854201D02*
X13905000Y2518300D01*
X13955800Y2467500D01*
X13905000Y2416700D01*
X13854201Y2467500D01*
X13794200Y2532500D02*
X13845000Y2583300D01*
X13895799Y2532500D01*
X13845000Y2481700D01*
X13794200Y2532500D01*
X13854201D02*
X13905000Y2583300D01*
X13955800Y2532500D01*
X13905000Y2481700D01*
X13854201Y2532500D01*
X5434560Y3017937D02*
X5459960D01*
X5485360Y3043337D01*
X5510760Y3017937D01*
X5536160D01*
Y3043337D01*
X5510760Y3068737D01*
X5536160Y3094137D01*
Y3119537D01*
X5510760D01*
X5485360Y3094137D01*
X5459960Y3119537D01*
X5434560D01*
Y3094137D01*
X5459960Y3068737D01*
X5434560Y3043337D01*
Y3017937D01*
X1815060Y2603829D02*
X1865860Y2654629D01*
X1916660Y2603829D01*
X1865860Y2553029D01*
X1815060Y2603829D01*
X1838960Y2323280D02*
X1864360D01*
X1889760Y2348680D01*
X1915160Y2323280D01*
X1940560D01*
Y2348680D01*
X1915160Y2374080D01*
X1940560Y2399480D01*
Y2424880D01*
X1915160D01*
X1889760Y2399480D01*
X1864360Y2424880D01*
X1838960D01*
Y2399480D01*
X1864360Y2374080D01*
X1838960Y2348680D01*
Y2323280D01*
Y2130240D02*
X1864360D01*
X1889760Y2155640D01*
X1915160Y2130240D01*
X1940560D01*
Y2155640D01*
X1915160Y2181040D01*
X1940560Y2206440D01*
Y2231840D01*
X1915160D01*
X1889760Y2206440D01*
X1864360Y2231840D01*
X1838960D01*
Y2206440D01*
X1864360Y2181040D01*
X1838960Y2155640D01*
Y2130240D01*
X1284100Y2583804D02*
X1334900Y2634604D01*
X1385700Y2583804D01*
X1334900Y2533004D01*
X1284100Y2583804D01*
X7731760Y1274654D02*
X7757160D01*
X7782560Y1300054D01*
X7807960Y1274654D01*
X7833360D01*
Y1300054D01*
X7807960Y1325454D01*
X7833360Y1350854D01*
Y1376254D01*
X7807960D01*
X7782560Y1350854D01*
X7757160Y1376254D01*
X7731760D01*
Y1350854D01*
X7757160Y1325454D01*
X7731760Y1300054D01*
Y1274654D01*
X7571960Y1091488D02*
X7597360D01*
X7622760Y1116888D01*
X7648160Y1091488D01*
X7673560D01*
Y1116888D01*
X7648160Y1142288D01*
X7673560Y1167688D01*
Y1193088D01*
X7648160D01*
X7622760Y1167688D01*
X7597360Y1193088D01*
X7571960D01*
Y1167688D01*
X7597360Y1142288D01*
X7571960Y1116888D01*
Y1091488D01*
X7955280Y1653540D02*
X7980680D01*
X8006080Y1678940D01*
X8031480Y1653540D01*
X8056880D01*
Y1678940D01*
X8031480Y1704340D01*
X8056880Y1729740D01*
Y1755140D01*
X8031480D01*
X8006080Y1729740D01*
X7980680Y1755140D01*
X7955280D01*
Y1729740D01*
X7980680Y1704340D01*
X7955280Y1678940D01*
Y1653540D01*
X1968500Y1871980D02*
Y1973580D01*
X2070100D01*
Y1871980D01*
X1968500D01*
X1988820Y1892300D02*
Y1953260D01*
X2049780D01*
Y1892300D01*
X1988820D01*
X11729483Y1233537D02*
X11754883D01*
X11780283Y1258937D01*
X11805683Y1233537D01*
X11831083D01*
Y1258937D01*
X11805683Y1284337D01*
X11831083Y1309737D01*
Y1335137D01*
X11805683D01*
X11780283Y1309737D01*
X11754883Y1335137D01*
X11729483D01*
Y1309737D01*
X11754883Y1284337D01*
X11729483Y1258937D01*
Y1233537D01*
X4868180Y2675336D02*
X4893580D01*
X4918980Y2700736D01*
X4944380Y2675336D01*
X4969780D01*
Y2700736D01*
X4944380Y2726136D01*
X4969780Y2751536D01*
Y2776936D01*
X4944380D01*
X4918980Y2751536D01*
X4893580Y2776936D01*
X4868180D01*
Y2751536D01*
X4893580Y2726136D01*
X4868180Y2700736D01*
Y2675336D01*
X4803180D02*
X4828580D01*
X4853980Y2700736D01*
X4879380Y2675336D01*
X4904780D01*
Y2700736D01*
X4879380Y2726136D01*
X4904780Y2751536D01*
Y2776936D01*
X4879380D01*
X4853980Y2751536D01*
X4828580Y2776936D01*
X4803180D01*
Y2751536D01*
X4828580Y2726136D01*
X4803180Y2700736D01*
Y2675336D01*
X2791460Y1756700D02*
X2816860D01*
X2842260Y1782100D01*
X2867660Y1756700D01*
X2893060D01*
Y1782100D01*
X2867660Y1807500D01*
X2893060Y1832900D01*
Y1858300D01*
X2867660D01*
X2842260Y1832900D01*
X2816860Y1858300D01*
X2791460D01*
Y1832900D01*
X2816860Y1807500D01*
X2791460Y1782100D01*
Y1756700D01*
X2760980Y1966580D02*
X2786380D01*
X2811780Y1991980D01*
X2837180Y1966580D01*
X2862580D01*
Y1991980D01*
X2837180Y2017380D01*
X2862580Y2042780D01*
Y2068180D01*
X2837180D01*
X2811780Y2042780D01*
X2786380Y2068180D01*
X2760980D01*
Y2042780D01*
X2786380Y2017380D01*
X2760980Y1991980D01*
Y1966580D01*
X2791460Y1647480D02*
X2816860D01*
X2842260Y1672880D01*
X2867660Y1647480D01*
X2893060D01*
Y1672880D01*
X2867660Y1698280D01*
X2893060Y1723680D01*
Y1749080D01*
X2867660D01*
X2842260Y1723680D01*
X2816860Y1749080D01*
X2791460D01*
Y1723680D01*
X2816860Y1698280D01*
X2791460Y1672880D01*
Y1647480D01*
X2710765Y1965960D02*
X2736165D01*
X2761565Y1991360D01*
X2786965Y1965960D01*
X2812365D01*
Y1991360D01*
X2786965Y2016760D01*
X2812365Y2042160D01*
Y2067560D01*
X2786965D01*
X2761565Y2042160D01*
X2736165Y2067560D01*
X2710765D01*
Y2042160D01*
X2736165Y2016760D01*
X2710765Y1991360D01*
Y1965960D01*
X2791460Y1702090D02*
X2816860D01*
X2842260Y1727490D01*
X2867660Y1702090D01*
X2893060D01*
Y1727490D01*
X2867660Y1752890D01*
X2893060Y1778290D01*
Y1803690D01*
X2867660D01*
X2842260Y1778290D01*
X2816860Y1803690D01*
X2791460D01*
Y1778290D01*
X2816860Y1752890D01*
X2791460Y1727490D01*
Y1702090D01*
X2682240Y1648460D02*
X2707640D01*
X2733040Y1673860D01*
X2758440Y1648460D01*
X2783840D01*
Y1673860D01*
X2758440Y1699260D01*
X2783840Y1724660D01*
Y1750060D01*
X2758440D01*
X2733040Y1724660D01*
X2707640Y1750060D01*
X2682240D01*
Y1724660D01*
X2707640Y1699260D01*
X2682240Y1673860D01*
Y1648460D01*
X2844680Y1812750D02*
X2870080D01*
X2895480Y1838150D01*
X2920880Y1812750D01*
X2946280D01*
Y1838150D01*
X2920880Y1863550D01*
X2946280Y1888950D01*
Y1914350D01*
X2920880D01*
X2895480Y1888950D01*
X2870080Y1914350D01*
X2844680D01*
Y1888950D01*
X2870080Y1863550D01*
X2844680Y1838150D01*
Y1812750D01*
X2629680Y2059940D02*
X2655080D01*
X2680480Y2085340D01*
X2705880Y2059940D01*
X2731280D01*
Y2085340D01*
X2705880Y2110740D01*
X2731280Y2136140D01*
Y2161540D01*
X2705880D01*
X2680480Y2136140D01*
X2655080Y2161540D01*
X2629680D01*
Y2136140D01*
X2655080Y2110740D01*
X2629680Y2085340D01*
Y2059940D01*
X2682240Y1757680D02*
X2707640D01*
X2733040Y1783080D01*
X2758440Y1757680D01*
X2783840D01*
Y1783080D01*
X2758440Y1808480D01*
X2783840Y1833880D01*
Y1859280D01*
X2758440D01*
X2733040Y1833880D01*
X2707640Y1859280D01*
X2682240D01*
Y1833880D01*
X2707640Y1808480D01*
X2682240Y1783080D01*
Y1757680D01*
X2844680Y1648920D02*
X2870080D01*
X2895480Y1674320D01*
X2920880Y1648920D01*
X2946280D01*
Y1674320D01*
X2920880Y1699720D01*
X2946280Y1725120D01*
Y1750520D01*
X2920880D01*
X2895480Y1725120D01*
X2870080Y1750520D01*
X2844680D01*
Y1725120D01*
X2870080Y1699720D01*
X2844680Y1674320D01*
Y1648920D01*
X3044919Y1653099D02*
X3070319D01*
X3095719Y1678499D01*
X3121119Y1653099D01*
X3146519D01*
Y1678499D01*
X3121119Y1703899D01*
X3146519Y1729299D01*
Y1754699D01*
X3121119D01*
X3095719Y1729299D01*
X3070319Y1754699D01*
X3044919D01*
Y1729299D01*
X3070319Y1703899D01*
X3044919Y1678499D01*
Y1653099D01*
X2842260Y2059940D02*
X2867660D01*
X2893060Y2085340D01*
X2918460Y2059940D01*
X2943860D01*
Y2085340D01*
X2918460Y2110740D01*
X2943860Y2136140D01*
Y2161540D01*
X2918460D01*
X2893060Y2136140D01*
X2867660Y2161540D01*
X2842260D01*
Y2136140D01*
X2867660Y2110740D01*
X2842260Y2085340D01*
Y2059940D01*
X2629680Y1812750D02*
X2655080D01*
X2680480Y1838150D01*
X2705880Y1812750D01*
X2731280D01*
Y1838150D01*
X2705880Y1863550D01*
X2731280Y1888950D01*
Y1914350D01*
X2705880D01*
X2680480Y1888950D01*
X2655080Y1914350D01*
X2629680D01*
Y1888950D01*
X2655080Y1863550D01*
X2629680Y1838150D01*
Y1812750D01*
X2547180Y1754640D02*
Y1856240D01*
X2648780D01*
Y1754640D01*
X2547180D01*
X2567500Y1774960D02*
Y1835920D01*
X2628460D01*
Y1774960D01*
X2567500D01*
X2682825Y2010960D02*
X2708225D01*
X2733625Y2036360D01*
X2759025Y2010960D01*
X2784425D01*
Y2036360D01*
X2759025Y2061760D01*
X2784425Y2087160D01*
Y2112560D01*
X2759025D01*
X2733625Y2087160D01*
X2708225Y2112560D01*
X2682825D01*
Y2087160D01*
X2708225Y2061760D01*
X2682825Y2036360D01*
Y2010960D01*
X2737180Y1812750D02*
X2762580D01*
X2787980Y1838150D01*
X2813380Y1812750D01*
X2838780D01*
Y1838150D01*
X2813380Y1863550D01*
X2838780Y1888950D01*
Y1914350D01*
X2813380D01*
X2787980Y1888950D01*
X2762580Y1914350D01*
X2737180D01*
Y1888950D01*
X2762580Y1863550D01*
X2737180Y1838150D01*
Y1812750D01*
X2789115Y2059940D02*
X2814515D01*
X2839915Y2085340D01*
X2865315Y2059940D01*
X2890715D01*
Y2085340D01*
X2865315Y2110740D01*
X2890715Y2136140D01*
Y2161540D01*
X2865315D01*
X2839915Y2136140D01*
X2814515Y2161540D01*
X2789115D01*
Y2136140D01*
X2814515Y2110740D01*
X2789115Y2085340D01*
Y2059940D01*
X2629680Y1648920D02*
X2655080D01*
X2680480Y1674320D01*
X2705880Y1648920D01*
X2731280D01*
Y1674320D01*
X2705880Y1699720D01*
X2731280Y1725120D01*
Y1750520D01*
X2705880D01*
X2680480Y1725120D01*
X2655080Y1750520D01*
X2629680D01*
Y1725120D01*
X2655080Y1699720D01*
X2629680Y1674320D01*
Y1648920D01*
X2682240Y1812290D02*
X2707640D01*
X2733040Y1837690D01*
X2758440Y1812290D01*
X2783840D01*
Y1837690D01*
X2758440Y1863090D01*
X2783840Y1888490D01*
Y1913890D01*
X2758440D01*
X2733040Y1888490D01*
X2707640Y1913890D01*
X2682240D01*
Y1888490D01*
X2707640Y1863090D01*
X2682240Y1837690D01*
Y1812290D01*
X3014561Y1714500D02*
X3039961D01*
X3065361Y1739900D01*
X3090761Y1714500D01*
X3116161D01*
Y1739900D01*
X3090761Y1765300D01*
X3116161Y1790700D01*
Y1816100D01*
X3090761D01*
X3065361Y1790700D01*
X3039961Y1816100D01*
X3014561D01*
Y1790700D01*
X3039961Y1765300D01*
X3014561Y1739900D01*
Y1714500D01*
X2547180Y1834640D02*
Y1936240D01*
X2648780D01*
Y1834640D01*
X2547180D01*
X2567500Y1854960D02*
Y1915920D01*
X2628460D01*
Y1854960D01*
X2567500D01*
X2652540Y1965960D02*
X2677940D01*
X2703340Y1991360D01*
X2728740Y1965960D01*
X2754140D01*
Y1991360D01*
X2728740Y2016760D01*
X2754140Y2042160D01*
Y2067560D01*
X2728740D01*
X2703340Y2042160D01*
X2677940Y2067560D01*
X2652540D01*
Y2042160D01*
X2677940Y2016760D01*
X2652540Y1991360D01*
Y1965960D01*
X2735970Y2059940D02*
X2761370D01*
X2786770Y2085340D01*
X2812170Y2059940D01*
X2837570D01*
Y2085340D01*
X2812170Y2110740D01*
X2837570Y2136140D01*
Y2161540D01*
X2812170D01*
X2786770Y2136140D01*
X2761370Y2161540D01*
X2735970D01*
Y2136140D01*
X2761370Y2110740D01*
X2735970Y2085340D01*
Y2059940D01*
X2682240Y1703070D02*
X2707640D01*
X2733040Y1728470D01*
X2758440Y1703070D01*
X2783840D01*
Y1728470D01*
X2758440Y1753870D01*
X2783840Y1779270D01*
Y1804670D01*
X2758440D01*
X2733040Y1779270D01*
X2707640Y1804670D01*
X2682240D01*
Y1779270D01*
X2707640Y1753870D01*
X2682240Y1728470D01*
Y1703070D01*
X2737180Y1703530D02*
X2762580D01*
X2787980Y1728930D01*
X2813380Y1703530D01*
X2838780D01*
Y1728930D01*
X2813380Y1754330D01*
X2838780Y1779730D01*
Y1805130D01*
X2813380D01*
X2787980Y1779730D01*
X2762580Y1805130D01*
X2737180D01*
Y1779730D01*
X2762580Y1754330D01*
X2737180Y1728930D01*
Y1703530D01*
X2819842Y1967333D02*
X2845242D01*
X2870642Y1992733D01*
X2896042Y1967333D01*
X2921442D01*
Y1992733D01*
X2896042Y2018133D01*
X2921442Y2043533D01*
Y2068933D01*
X2896042D01*
X2870642Y2043533D01*
X2845242Y2068933D01*
X2819842D01*
Y2043533D01*
X2845242Y2018133D01*
X2819842Y1992733D01*
Y1967333D01*
X2844680Y1703530D02*
X2870080D01*
X2895480Y1728930D01*
X2920880Y1703530D01*
X2946280D01*
Y1728930D01*
X2920880Y1754330D01*
X2946280Y1779730D01*
Y1805130D01*
X2920880D01*
X2895480Y1779730D01*
X2870080Y1805130D01*
X2844680D01*
Y1779730D01*
X2870080Y1754330D01*
X2844680Y1728930D01*
Y1703530D01*
X2682240Y1866900D02*
X2707640D01*
X2733040Y1892300D01*
X2758440Y1866900D01*
X2783840D01*
Y1892300D01*
X2758440Y1917700D01*
X2783840Y1943100D01*
Y1968500D01*
X2758440D01*
X2733040Y1943100D01*
X2707640Y1968500D01*
X2682240D01*
Y1943100D01*
X2707640Y1917700D01*
X2682240Y1892300D01*
Y1866900D01*
X2844680Y1867360D02*
X2870080D01*
X2895480Y1892760D01*
X2920880Y1867360D01*
X2946280D01*
Y1892760D01*
X2920880Y1918160D01*
X2946280Y1943560D01*
Y1968960D01*
X2920880D01*
X2895480Y1943560D01*
X2870080Y1968960D01*
X2844680D01*
Y1943560D01*
X2870080Y1918160D01*
X2844680Y1892760D01*
Y1867360D01*
X2682825Y2059940D02*
X2708225D01*
X2733625Y2085340D01*
X2759025Y2059940D01*
X2784425D01*
Y2085340D01*
X2759025Y2110740D01*
X2784425Y2136140D01*
Y2161540D01*
X2759025D01*
X2733625Y2136140D01*
X2708225Y2161540D01*
X2682825D01*
Y2136140D01*
X2708225Y2110740D01*
X2682825Y2085340D01*
Y2059940D01*
X2629680Y1703530D02*
X2655080D01*
X2680480Y1728930D01*
X2705880Y1703530D01*
X2731280D01*
Y1728930D01*
X2705880Y1754330D01*
X2731280Y1779730D01*
Y1805130D01*
X2705880D01*
X2680480Y1779730D01*
X2655080Y1805130D01*
X2629680D01*
Y1779730D01*
X2655080Y1754330D01*
X2629680Y1728930D01*
Y1703530D01*
X2791460Y1865920D02*
X2816860D01*
X2842260Y1891320D01*
X2867660Y1865920D01*
X2893060D01*
Y1891320D01*
X2867660Y1916720D01*
X2893060Y1942120D01*
Y1967520D01*
X2867660D01*
X2842260Y1942120D01*
X2816860Y1967520D01*
X2791460D01*
Y1942120D01*
X2816860Y1916720D01*
X2791460Y1891320D01*
Y1865920D01*
X2789115Y2010960D02*
X2814515D01*
X2839915Y2036360D01*
X2865315Y2010960D01*
X2890715D01*
Y2036360D01*
X2865315Y2061760D01*
X2890715Y2087160D01*
Y2112560D01*
X2865315D01*
X2839915Y2087160D01*
X2814515Y2112560D01*
X2789115D01*
Y2087160D01*
X2814515Y2061760D01*
X2789115Y2036360D01*
Y2010960D01*
X2629680Y1867360D02*
X2655080D01*
X2680480Y1892760D01*
X2705880Y1867360D01*
X2731280D01*
Y1892760D01*
X2705880Y1918160D01*
X2731280Y1943560D01*
Y1968960D01*
X2705880D01*
X2680480Y1943560D01*
X2655080Y1968960D01*
X2629680D01*
Y1943560D01*
X2655080Y1918160D01*
X2629680Y1892760D01*
Y1867360D01*
X2791460Y1811310D02*
X2816860D01*
X2842260Y1836710D01*
X2867660Y1811310D01*
X2893060D01*
Y1836710D01*
X2867660Y1862110D01*
X2893060Y1887510D01*
Y1912910D01*
X2867660D01*
X2842260Y1887510D01*
X2816860Y1912910D01*
X2791460D01*
Y1887510D01*
X2816860Y1862110D01*
X2791460Y1836710D01*
Y1811310D01*
X2301400Y1348740D02*
X2352200Y1399540D01*
X2403000Y1348740D01*
X2352200Y1297940D01*
X2301400Y1348740D01*
X2418080Y1557840D02*
X2468880Y1608640D01*
X2519680Y1557840D01*
X2468880Y1507040D01*
X2418080Y1557840D01*
X12066700Y1599200D02*
Y1700800D01*
X12168300D01*
Y1599200D01*
X12066700D01*
X12087020Y1619520D02*
Y1680480D01*
X12147980D01*
Y1619520D01*
X12087020D01*
X5049280Y1973820D02*
X5074680D01*
X5100080Y1999220D01*
X5125480Y1973820D01*
X5150880D01*
Y1999220D01*
X5125480Y2024620D01*
X5150880Y2050020D01*
Y2075420D01*
X5125480D01*
X5100080Y2050020D01*
X5074680Y2075420D01*
X5049280D01*
Y2050020D01*
X5074680Y2024620D01*
X5049280Y1999220D01*
Y1973820D01*
X1780540Y2809720D02*
X1805940D01*
X1831340Y2835120D01*
X1856740Y2809720D01*
X1882140D01*
Y2835120D01*
X1856740Y2860520D01*
X1882140Y2885920D01*
Y2911320D01*
X1856740D01*
X1831340Y2885920D01*
X1805940Y2911320D01*
X1780540D01*
Y2885920D01*
X1805940Y2860520D01*
X1780540Y2835120D01*
Y2809720D01*
Y3068800D02*
X1805940D01*
X1831340Y3094200D01*
X1856740Y3068800D01*
X1882140D01*
Y3094200D01*
X1856740Y3119600D01*
X1882140Y3145000D01*
Y3170400D01*
X1856740D01*
X1831340Y3145000D01*
X1805940Y3170400D01*
X1780540D01*
Y3145000D01*
X1805940Y3119600D01*
X1780540Y3094200D01*
Y3068800D01*
Y2937700D02*
X1805940D01*
X1831340Y2963100D01*
X1856740Y2937700D01*
X1882140D01*
Y2963100D01*
X1856740Y2988500D01*
X1882140Y3013900D01*
Y3039300D01*
X1856740D01*
X1831340Y3013900D01*
X1805940Y3039300D01*
X1780540D01*
Y3013900D01*
X1805940Y2988500D01*
X1780540Y2963100D01*
Y2937700D01*
X2034540Y2776800D02*
X2059940D01*
X2085340Y2802200D01*
X2110740Y2776800D01*
X2136140D01*
Y2802200D01*
X2110740Y2827600D01*
X2136140Y2853000D01*
Y2878400D01*
X2110740D01*
X2085340Y2853000D01*
X2059940Y2878400D01*
X2034540D01*
Y2853000D01*
X2059940Y2827600D01*
X2034540Y2802200D01*
Y2776800D01*
Y2645700D02*
X2059940D01*
X2085340Y2671100D01*
X2110740Y2645700D01*
X2136140D01*
Y2671100D01*
X2110740Y2696500D01*
X2136140Y2721900D01*
Y2747300D01*
X2110740D01*
X2085340Y2721900D01*
X2059940Y2747300D01*
X2034540D01*
Y2721900D01*
X2059940Y2696500D01*
X2034540Y2671100D01*
Y2645700D01*
Y2517720D02*
X2059940D01*
X2085340Y2543120D01*
X2110740Y2517720D01*
X2136140D01*
Y2543120D01*
X2110740Y2568520D01*
X2136140Y2593920D01*
Y2619320D01*
X2110740D01*
X2085340Y2593920D01*
X2059940Y2619320D01*
X2034540D01*
Y2593920D01*
X2059940Y2568520D01*
X2034540Y2543120D01*
Y2517720D01*
X4193540Y2359660D02*
X4218940D01*
X4244340Y2385060D01*
X4269740Y2359660D01*
X4295140D01*
Y2385060D01*
X4269740Y2410460D01*
X4295140Y2435860D01*
Y2461260D01*
X4269740D01*
X4244340Y2435860D01*
X4218940Y2461260D01*
X4193540D01*
Y2435860D01*
X4218940Y2410460D01*
X4193540Y2385060D01*
Y2359660D01*
X11884200Y1416700D02*
X11909600D01*
X11935000Y1442100D01*
X11960400Y1416700D01*
X11985800D01*
Y1442100D01*
X11960400Y1467500D01*
X11985800Y1492900D01*
Y1518300D01*
X11960400D01*
X11935000Y1492900D01*
X11909600Y1518300D01*
X11884200D01*
Y1492900D01*
X11909600Y1467500D01*
X11884200Y1442100D01*
Y1416700D01*
X11775440Y1376680D02*
X11800840D01*
X11826240Y1402080D01*
X11851640Y1376680D01*
X11877040D01*
Y1402080D01*
X11851640Y1427480D01*
X11877040Y1452880D01*
Y1478280D01*
X11851640D01*
X11826240Y1452880D01*
X11800840Y1478280D01*
X11775440D01*
Y1452880D01*
X11800840Y1427480D01*
X11775440Y1402080D01*
Y1376680D01*
X11986700Y1599200D02*
Y1700800D01*
X12088300D01*
Y1599200D01*
X11986700D01*
X12007020Y1619520D02*
Y1680480D01*
X12067980D01*
Y1619520D01*
X12007020D01*
X12387878Y1312867D02*
X12413278D01*
X12438678Y1338267D01*
X12464078Y1312867D01*
X12489478D01*
Y1338267D01*
X12464078Y1363667D01*
X12489478Y1389067D01*
Y1414467D01*
X12464078D01*
X12438678Y1389067D01*
X12413278Y1414467D01*
X12387878D01*
Y1389067D01*
X12413278Y1363667D01*
X12387878Y1338267D01*
Y1312867D01*
X12289200Y1296700D02*
X12314600D01*
X12340000Y1322100D01*
X12365400Y1296700D01*
X12390800D01*
Y1322100D01*
X12365400Y1347500D01*
X12390800Y1372900D01*
Y1398300D01*
X12365400D01*
X12340000Y1372900D01*
X12314600Y1398300D01*
X12289200D01*
Y1372900D01*
X12314600Y1347500D01*
X12289200Y1322100D01*
Y1296700D01*
X12446000Y1348740D02*
X12471400D01*
X12496800Y1374140D01*
X12522200Y1348740D01*
X12547600D01*
Y1374140D01*
X12522200Y1399540D01*
X12547600Y1424940D01*
Y1450340D01*
X12522200D01*
X12496800Y1424940D01*
X12471400Y1450340D01*
X12446000D01*
Y1424940D01*
X12471400Y1399540D01*
X12446000Y1374140D01*
Y1348740D01*
X12475700Y1426860D02*
X12501100D01*
X12526500Y1452260D01*
X12551900Y1426860D01*
X12577300D01*
Y1452260D01*
X12551900Y1477660D01*
X12577300Y1503060D01*
Y1528460D01*
X12551900D01*
X12526500Y1503060D01*
X12501100Y1528460D01*
X12475700D01*
Y1503060D01*
X12501100Y1477660D01*
X12475700Y1452260D01*
Y1426860D01*
X11987340Y1194200D02*
X12012740D01*
X12038140Y1219600D01*
X12063540Y1194200D01*
X12088940D01*
Y1219600D01*
X12063540Y1245000D01*
X12088940Y1270400D01*
Y1295800D01*
X12063540D01*
X12038140Y1270400D01*
X12012740Y1295800D01*
X11987340D01*
Y1270400D01*
X12012740Y1245000D01*
X11987340Y1219600D01*
Y1194200D01*
X12066700D02*
X12092100D01*
X12117500Y1219600D01*
X12142900Y1194200D01*
X12168300D01*
Y1219600D01*
X12142900Y1245000D01*
X12168300Y1270400D01*
Y1295800D01*
X12142900D01*
X12117500Y1270400D01*
X12092100Y1295800D01*
X12066700D01*
Y1270400D01*
X12092100Y1245000D01*
X12066700Y1219600D01*
Y1194200D01*
X10871200Y1107440D02*
X10896600D01*
X10922000Y1132840D01*
X10947400Y1107440D01*
X10972800D01*
Y1132840D01*
X10947400Y1158240D01*
X10972800Y1183640D01*
Y1209040D01*
X10947400D01*
X10922000Y1183640D01*
X10896600Y1209040D01*
X10871200D01*
Y1183640D01*
X10896600Y1158240D01*
X10871200Y1132840D01*
Y1107440D01*
X12106700Y1113638D02*
X12132100D01*
X12157500Y1139038D01*
X12182900Y1113638D01*
X12208300D01*
Y1139038D01*
X12182900Y1164438D01*
X12208300Y1189838D01*
Y1215238D01*
X12182900D01*
X12157500Y1189838D01*
X12132100Y1215238D01*
X12106700D01*
Y1189838D01*
X12132100Y1164438D01*
X12106700Y1139038D01*
Y1113638D01*
X12026700Y1129200D02*
X12052100D01*
X12077500Y1154600D01*
X12102900Y1129200D01*
X12128300D01*
Y1154600D01*
X12102900Y1180000D01*
X12128300Y1205400D01*
Y1230800D01*
X12102900D01*
X12077500Y1205400D01*
X12052100Y1230800D01*
X12026700D01*
Y1205400D01*
X12052100Y1180000D01*
X12026700Y1154600D01*
Y1129200D01*
X12551700Y1164200D02*
X12577100D01*
X12602500Y1189600D01*
X12627900Y1164200D01*
X12653300D01*
Y1189600D01*
X12627900Y1215000D01*
X12653300Y1240400D01*
Y1265800D01*
X12627900D01*
X12602500Y1240400D01*
X12577100Y1265800D01*
X12551700D01*
Y1240400D01*
X12577100Y1215000D01*
X12551700Y1189600D01*
Y1164200D01*
X11884200Y1336100D02*
X11909600D01*
X11935000Y1361500D01*
X11960400Y1336100D01*
X11985800D01*
Y1361500D01*
X11960400Y1386900D01*
X11985800Y1412300D01*
Y1437700D01*
X11960400D01*
X11935000Y1412300D01*
X11909600Y1437700D01*
X11884200D01*
Y1412300D01*
X11909600Y1386900D01*
X11884200Y1361500D01*
Y1336100D01*
X11489200Y1560360D02*
Y1661960D01*
X11590800D01*
Y1560360D01*
X11489200D01*
X11509520Y1580680D02*
Y1641640D01*
X11570480D01*
Y1580680D01*
X11509520D01*
X10731700Y1381700D02*
X10757100D01*
X10782500Y1407100D01*
X10807900Y1381700D01*
X10833300D01*
Y1407100D01*
X10807900Y1432500D01*
X10833300Y1457900D01*
Y1483300D01*
X10807900D01*
X10782500Y1457900D01*
X10757100Y1483300D01*
X10731700D01*
Y1457900D01*
X10757100Y1432500D01*
X10731700Y1407100D01*
Y1381700D01*
X12141200Y1287780D02*
Y1389380D01*
X12242800D01*
Y1287780D01*
X12141200D01*
X12161520Y1308100D02*
Y1369060D01*
X12222480D01*
Y1308100D01*
X12161520D01*
X3990340Y1066800D02*
X4015740D01*
X4041140Y1092200D01*
X4066540Y1066800D01*
X4091940D01*
Y1092200D01*
X4066540Y1117600D01*
X4091940Y1143000D01*
Y1168400D01*
X4066540D01*
X4041140Y1143000D01*
X4015740Y1168400D01*
X3990340D01*
Y1143000D01*
X4015740Y1117600D01*
X3990340Y1092200D01*
Y1066800D01*
X4074160Y1064200D02*
X4099560D01*
X4124960Y1089600D01*
X4150360Y1064200D01*
X4175760D01*
Y1089600D01*
X4150360Y1115000D01*
X4175760Y1140400D01*
Y1165800D01*
X4150360D01*
X4124960Y1140400D01*
X4099560Y1165800D01*
X4074160D01*
Y1140400D01*
X4099560Y1115000D01*
X4074160Y1089600D01*
Y1064200D01*
X3868420Y1109980D02*
X3893820D01*
X3919220Y1135380D01*
X3944620Y1109980D01*
X3970020D01*
Y1135380D01*
X3944620Y1160780D01*
X3970020Y1186180D01*
Y1211580D01*
X3944620D01*
X3919220Y1186180D01*
X3893820Y1211580D01*
X3868420D01*
Y1186180D01*
X3893820Y1160780D01*
X3868420Y1135380D01*
Y1109980D01*
X3158848Y1965960D02*
X3184248D01*
X3209648Y1991360D01*
X3235048Y1965960D01*
X3260448D01*
Y1991360D01*
X3235048Y2016760D01*
X3260448Y2042160D01*
Y2067560D01*
X3235048D01*
X3209648Y2042160D01*
X3184248Y2067560D01*
X3158848D01*
Y2042160D01*
X3184248Y2016760D01*
X3158848Y1991360D01*
Y1965960D01*
X3160050Y2070100D02*
X3185450D01*
X3210850Y2095500D01*
X3236250Y2070100D01*
X3261650D01*
Y2095500D01*
X3236250Y2120900D01*
X3261650Y2146300D01*
Y2171700D01*
X3236250D01*
X3210850Y2146300D01*
X3185450Y2171700D01*
X3160050D01*
Y2146300D01*
X3185450Y2120900D01*
X3160050Y2095500D01*
Y2070100D01*
X2301240Y1397261D02*
X2326640D01*
X2352040Y1422661D01*
X2377440Y1397261D01*
X2402840D01*
Y1422661D01*
X2377440Y1448061D01*
X2402840Y1473461D01*
Y1498861D01*
X2377440D01*
X2352040Y1473461D01*
X2326640Y1498861D01*
X2301240D01*
Y1473461D01*
X2326640Y1448061D01*
X2301240Y1422661D01*
Y1397261D01*
X2418080Y1419040D02*
X2443480D01*
X2468880Y1444440D01*
X2494280Y1419040D01*
X2519680D01*
Y1444440D01*
X2494280Y1469840D01*
X2519680Y1495240D01*
Y1520640D01*
X2494280D01*
X2468880Y1495240D01*
X2443480Y1520640D01*
X2418080D01*
Y1495240D01*
X2443480Y1469840D01*
X2418080Y1444440D01*
Y1419040D01*
X1917700Y1354720D02*
X1968500Y1405520D01*
X2019300Y1354720D01*
X1968500Y1303920D01*
X1917700Y1354720D01*
X3589020Y1374140D02*
X3614420D01*
X3639820Y1399540D01*
X3665220Y1374140D01*
X3690620D01*
Y1399540D01*
X3665220Y1424940D01*
X3690620Y1450340D01*
Y1475740D01*
X3665220D01*
X3639820Y1450340D01*
X3614420Y1475740D01*
X3589020D01*
Y1450340D01*
X3614420Y1424940D01*
X3589020Y1399540D01*
Y1374140D01*
X3635856Y1902460D02*
X3686656Y1953260D01*
X3737456Y1902460D01*
X3686656Y1851660D01*
X3635856Y1902460D01*
X3477260D02*
X3528060Y1953260D01*
X3578860Y1902460D01*
X3528060Y1851660D01*
X3477260Y1902460D01*
X3109780Y1261700D02*
X3135180D01*
X3160580Y1287100D01*
X3185980Y1261700D01*
X3211380D01*
Y1287100D01*
X3185980Y1312500D01*
X3211380Y1337900D01*
Y1363300D01*
X3185980D01*
X3160580Y1337900D01*
X3135180Y1363300D01*
X3109780D01*
Y1337900D01*
X3135180Y1312500D01*
X3109780Y1287100D01*
Y1261700D01*
X3021780D02*
X3047180D01*
X3072580Y1287100D01*
X3097980Y1261700D01*
X3123380D01*
Y1287100D01*
X3097980Y1312500D01*
X3123380Y1337900D01*
Y1363300D01*
X3097980D01*
X3072580Y1337900D01*
X3047180Y1363300D01*
X3021780D01*
Y1337900D01*
X3047180Y1312500D01*
X3021780Y1287100D01*
Y1261700D01*
X4089400Y1648460D02*
X4114800D01*
X4140200Y1673860D01*
X4165600Y1648460D01*
X4191000D01*
Y1673860D01*
X4165600Y1699260D01*
X4191000Y1724660D01*
Y1750060D01*
X4165600D01*
X4140200Y1724660D01*
X4114800Y1750060D01*
X4089400D01*
Y1724660D01*
X4114800Y1699260D01*
X4089400Y1673860D01*
Y1648460D01*
X4173220Y1907460D02*
X4198620D01*
X4224020Y1932860D01*
X4249420Y1907460D01*
X4274820D01*
Y1932860D01*
X4249420Y1958260D01*
X4274820Y1983660D01*
Y2009060D01*
X4249420D01*
X4224020Y1983660D01*
X4198620Y2009060D01*
X4173220D01*
Y1983660D01*
X4198620Y1958260D01*
X4173220Y1932860D01*
Y1907460D01*
X4297680Y2087082D02*
X4323080D01*
X4348480Y2112482D01*
X4373880Y2087082D01*
X4399280D01*
Y2112482D01*
X4373880Y2137882D01*
X4399280Y2163282D01*
Y2188682D01*
X4373880D01*
X4348480Y2163282D01*
X4323080Y2188682D01*
X4297680D01*
Y2163282D01*
X4323080Y2137882D01*
X4297680Y2112482D01*
Y2087082D01*
X4155440Y1983740D02*
X4180840D01*
X4206240Y2009140D01*
X4231640Y1983740D01*
X4257040D01*
Y2009140D01*
X4231640Y2034540D01*
X4257040Y2059940D01*
Y2085340D01*
X4231640D01*
X4206240Y2059940D01*
X4180840Y2085340D01*
X4155440D01*
Y2059940D01*
X4180840Y2034540D01*
X4155440Y2009140D01*
Y1983740D01*
X5613400Y2707640D02*
X5638800D01*
X5664200Y2733040D01*
X5689600Y2707640D01*
X5715000D01*
Y2733040D01*
X5689600Y2758440D01*
X5715000Y2783840D01*
Y2809240D01*
X5689600D01*
X5664200Y2783840D01*
X5638800Y2809240D01*
X5613400D01*
Y2783840D01*
X5638800Y2758440D01*
X5613400Y2733040D01*
Y2707640D01*
X12979201Y2320064D02*
Y2421664D01*
X13080800D01*
Y2320064D01*
X12979201D01*
X12999519Y2340384D02*
Y2401344D01*
X13060480D01*
Y2340384D01*
X12999519D01*
X5244560Y2587700D02*
X5269960D01*
X5295360Y2613100D01*
X5320760Y2587700D01*
X5346160D01*
Y2613100D01*
X5320760Y2638500D01*
X5346160Y2663900D01*
Y2689300D01*
X5320760D01*
X5295360Y2663900D01*
X5269960Y2689300D01*
X5244560D01*
Y2663900D01*
X5269960Y2638500D01*
X5244560Y2613100D01*
Y2587700D01*
X5125720Y2587440D02*
X5151120D01*
X5176520Y2612840D01*
X5201920Y2587440D01*
X5227320D01*
Y2612840D01*
X5201920Y2638240D01*
X5227320Y2663640D01*
Y2689040D01*
X5201920D01*
X5176520Y2663640D01*
X5151120Y2689040D01*
X5125720D01*
Y2663640D01*
X5151120Y2638240D01*
X5125720Y2612840D01*
Y2587440D01*
X6631940Y1262380D02*
X6657340D01*
X6682740Y1287780D01*
X6708140Y1262380D01*
X6733540D01*
Y1287780D01*
X6708140Y1313180D01*
X6733540Y1338580D01*
Y1363980D01*
X6708140D01*
X6682740Y1338580D01*
X6657340Y1363980D01*
X6631940D01*
Y1338580D01*
X6657340Y1313180D01*
X6631940Y1287780D01*
Y1262380D01*
X6747443Y1485510D02*
X6798243Y1536310D01*
X6849043Y1485510D01*
X6798243Y1434710D01*
X6747443Y1485510D01*
X5427980Y1401640D02*
X5453380D01*
X5478780Y1427040D01*
X5504180Y1401640D01*
X5529580D01*
Y1427040D01*
X5504180Y1452440D01*
X5529580Y1477840D01*
Y1503240D01*
X5504180D01*
X5478780Y1477840D01*
X5453380Y1503240D01*
X5427980D01*
Y1477840D01*
X5453380Y1452440D01*
X5427980Y1427040D01*
Y1401640D01*
X3710939Y1178559D02*
X3736339D01*
X3761739Y1203959D01*
X3787139Y1178559D01*
X3812539D01*
Y1203959D01*
X3787139Y1229359D01*
X3812539Y1254759D01*
Y1280159D01*
X3787139D01*
X3761739Y1254759D01*
X3736339Y1280159D01*
X3710939D01*
Y1254759D01*
X3736339Y1229359D01*
X3710939Y1203959D01*
Y1178559D01*
X4246880Y1340080D02*
X4272280D01*
X4297680Y1365480D01*
X4323080Y1340080D01*
X4348480D01*
Y1365480D01*
X4323080Y1390880D01*
X4348480Y1416280D01*
Y1441680D01*
X4323080D01*
X4297680Y1416280D01*
X4272280Y1441680D01*
X4246880D01*
Y1416280D01*
X4272280Y1390880D01*
X4246880Y1365480D01*
Y1340080D01*
X8638360Y1606185D02*
X8663760D01*
X8689160Y1631585D01*
X8714560Y1606185D01*
X8739960D01*
Y1631585D01*
X8714560Y1656985D01*
X8739960Y1682385D01*
Y1707785D01*
X8714560D01*
X8689160Y1682385D01*
X8663760Y1707785D01*
X8638360D01*
Y1682385D01*
X8663760Y1656985D01*
X8638360Y1631585D01*
Y1606185D01*
X8580120Y1606510D02*
X8605520D01*
X8630920Y1631910D01*
X8656320Y1606510D01*
X8681720D01*
Y1631910D01*
X8656320Y1657310D01*
X8681720Y1682710D01*
Y1708110D01*
X8656320D01*
X8630920Y1682710D01*
X8605520Y1708110D01*
X8580120D01*
Y1682710D01*
X8605520Y1657310D01*
X8580120Y1631910D01*
Y1606510D01*
X7339680Y1272540D02*
X7365080D01*
X7390480Y1297940D01*
X7415880Y1272540D01*
X7441280D01*
Y1297940D01*
X7415880Y1323340D01*
X7441280Y1348740D01*
Y1374140D01*
X7415880D01*
X7390480Y1348740D01*
X7365080Y1374140D01*
X7339680D01*
Y1348740D01*
X7365080Y1323340D01*
X7339680Y1297940D01*
Y1272540D01*
X6177520Y1196344D02*
X6228320Y1247144D01*
X6279120Y1196344D01*
X6228320Y1145544D01*
X6177520Y1196344D01*
X13396410Y2317126D02*
X13447209Y2367926D01*
X13498009Y2317126D01*
X13447209Y2266326D01*
X13396410Y2317126D01*
X3345180Y2513680D02*
X3395980Y2564480D01*
X3446780Y2513680D01*
X3395980Y2462880D01*
X3345180Y2513680D01*
X3357880Y1602740D02*
X3383280D01*
X3408680Y1628140D01*
X3434080Y1602740D01*
X3459480D01*
Y1628140D01*
X3434080Y1653540D01*
X3459480Y1678940D01*
Y1704340D01*
X3434080D01*
X3408680Y1678940D01*
X3383280Y1704340D01*
X3357880D01*
Y1678940D01*
X3383280Y1653540D01*
X3357880Y1628140D01*
Y1602740D01*
X2311048Y1664872D02*
Y1766472D01*
X2412648D01*
Y1664872D01*
X2311048D01*
X2331368Y1685192D02*
Y1746152D01*
X2392328D01*
Y1685192D01*
X2331368D01*
X2311048Y1737360D02*
Y1838960D01*
X2412648D01*
Y1737360D01*
X2311048D01*
X2331368Y1757680D02*
Y1818640D01*
X2392328D01*
Y1757680D01*
X2331368D01*
X2528380Y2527500D02*
Y2629100D01*
X2629980D01*
Y2527500D01*
X2528380D01*
X2548700Y2547820D02*
Y2608780D01*
X2609660D01*
Y2547820D01*
X2548700D01*
X2352358Y1856740D02*
Y1958340D01*
X2453957D01*
Y1856740D01*
X2352358D01*
X2372678Y1877060D02*
Y1938020D01*
X2433638D01*
Y1877060D01*
X2372678D01*
X2433448Y1770380D02*
Y1871980D01*
X2535048D01*
Y1770380D01*
X2433448D01*
X2453768Y1790700D02*
Y1851660D01*
X2514728D01*
Y1790700D01*
X2453768D01*
X2351204Y1770380D02*
Y1871980D01*
X2452804D01*
Y1770380D01*
X2351204D01*
X2371524Y1790700D02*
Y1851660D01*
X2432484D01*
Y1790700D01*
X2371524D01*
X2434590Y1856740D02*
Y1958340D01*
X2536190D01*
Y1856740D01*
X2434590D01*
X2454910Y1877060D02*
Y1938020D01*
X2515870D01*
Y1877060D01*
X2454910D01*
X2311048Y1818640D02*
Y1920240D01*
X2412648D01*
Y1818640D01*
X2311048D01*
X2331368Y1838960D02*
Y1899920D01*
X2392328D01*
Y1838960D01*
X2331368D01*
X13446852Y1443580D02*
X13497652Y1494380D01*
X13548453Y1443580D01*
X13497652Y1392780D01*
X13446852Y1443580D01*
X13249352D02*
X13300153Y1494380D01*
X13350952Y1443580D01*
X13300153Y1392780D01*
X13249352Y1443580D01*
X13446852Y1603580D02*
X13497652Y1654380D01*
X13548453Y1603580D01*
X13497652Y1552780D01*
X13446852Y1603580D01*
X13249352D02*
X13300153Y1654380D01*
X13350952Y1603580D01*
X13300153Y1552780D01*
X13249352Y1603580D01*
X9309340Y2405399D02*
X9360140Y2456199D01*
X9410940Y2405399D01*
X9360140Y2354599D01*
X9309340Y2405399D01*
X9212580Y2313402D02*
X9263380Y2364202D01*
X9314180Y2313402D01*
X9263380Y2262602D01*
X9212580Y2313402D01*
X9405620D02*
X9456420Y2364202D01*
X9507220Y2313402D01*
X9456420Y2262602D01*
X9405620Y2313402D01*
X9309340D02*
X9360140Y2364202D01*
X9410940Y2313402D01*
X9360140Y2262602D01*
X9309340Y2313402D01*
X9212742Y2222500D02*
X9263542Y2273300D01*
X9314342Y2222500D01*
X9263542Y2171700D01*
X9212742Y2222500D01*
X9212879Y2404612D02*
X9263679Y2455412D01*
X9314479Y2404612D01*
X9263679Y2353812D01*
X9212879Y2404612D01*
X9309252Y2222500D02*
X9360052Y2273300D01*
X9410852Y2222500D01*
X9360052Y2171700D01*
X9309252Y2222500D01*
X9405620Y2404612D02*
X9456420Y2455412D01*
X9507220Y2404612D01*
X9456420Y2353812D01*
X9405620Y2404612D01*
Y2222500D02*
X9456420Y2273300D01*
X9507220Y2222500D01*
X9456420Y2171700D01*
X9405620Y2222500D01*
X9581807Y2113559D02*
X9632607Y2164359D01*
X9683407Y2113559D01*
X9632607Y2062759D01*
X9581807Y2113559D01*
Y1953559D02*
X9632607Y2004359D01*
X9683407Y1953559D01*
X9632607Y1902759D01*
X9581807Y1953559D01*
X9321500Y1941780D02*
X9372300Y1992580D01*
X9423100Y1941780D01*
X9372300Y1890980D01*
X9321500Y1941780D01*
X8661400Y1944102D02*
X8712200Y1994902D01*
X8763000Y1944102D01*
X8712200Y1893302D01*
X8661400Y1944102D01*
X8989590Y1944098D02*
X9040390Y1994898D01*
X9091190Y1944098D01*
X9040390Y1893298D01*
X8989590Y1944098D01*
X9941560Y1445941D02*
X9992360Y1496741D01*
X10043160Y1445941D01*
X9992360Y1395141D01*
X9941560Y1445941D01*
X13839352Y1604795D02*
X13890152Y1655595D01*
X13940952Y1604795D01*
X13890152Y1553995D01*
X13839352Y1604795D01*
Y1444795D02*
X13890152Y1495595D01*
X13940952Y1444795D01*
X13890152Y1393995D01*
X13839352Y1444795D01*
X13644353Y1604795D02*
X13695152Y1655595D01*
X13745952Y1604795D01*
X13695152Y1553995D01*
X13644353Y1604795D01*
Y1444795D02*
X13695152Y1495595D01*
X13745952Y1444795D01*
X13695152Y1393995D01*
X13644353Y1444795D01*
X11628120Y1554480D02*
Y1656080D01*
X11729720D01*
Y1554480D01*
X11628120D01*
X11648440Y1574800D02*
Y1635760D01*
X11709400D01*
Y1574800D01*
X11648440D01*
X8735060Y2314232D02*
X8760460D01*
X8785860Y2339632D01*
X8811260Y2314232D01*
X8836660D01*
Y2339632D01*
X8811260Y2365032D01*
X8836660Y2390432D01*
Y2415832D01*
X8811260D01*
X8785860Y2390432D01*
X8760460Y2415832D01*
X8735060D01*
Y2390432D01*
X8760460Y2365032D01*
X8735060Y2339632D01*
Y2314232D01*
X8791120Y2211310D02*
X8816520D01*
X8841920Y2236710D01*
X8867320Y2211310D01*
X8892720D01*
Y2236710D01*
X8867320Y2262110D01*
X8892720Y2287510D01*
Y2312910D01*
X8867320D01*
X8841920Y2287510D01*
X8816520Y2312910D01*
X8791120D01*
Y2287510D01*
X8816520Y2262110D01*
X8791120Y2236710D01*
Y2211310D01*
Y2263095D02*
X8816520D01*
X8841920Y2288495D01*
X8867320Y2263095D01*
X8892720D01*
Y2288495D01*
X8867320Y2313895D01*
X8892720Y2339295D01*
Y2364695D01*
X8867320D01*
X8841920Y2339295D01*
X8816520Y2364695D01*
X8791120D01*
Y2339295D01*
X8816520Y2313895D01*
X8791120Y2288495D01*
Y2263095D01*
X8735060Y2262446D02*
X8760460D01*
X8785860Y2287846D01*
X8811260Y2262446D01*
X8836660D01*
Y2287846D01*
X8811260Y2313246D01*
X8836660Y2338646D01*
Y2364046D01*
X8811260D01*
X8785860Y2338646D01*
X8760460Y2364046D01*
X8735060D01*
Y2338646D01*
X8760460Y2313246D01*
X8735060Y2287846D01*
Y2262446D01*
X8676820Y2262771D02*
X8702220D01*
X8727620Y2288171D01*
X8753020Y2262771D01*
X8778420D01*
Y2288171D01*
X8753020Y2313571D01*
X8778420Y2338971D01*
Y2364371D01*
X8753020D01*
X8727620Y2338971D01*
X8702220Y2364371D01*
X8676820D01*
Y2338971D01*
X8702220Y2313571D01*
X8676820Y2288171D01*
Y2262771D01*
Y2210985D02*
X8702220D01*
X8727620Y2236385D01*
X8753020Y2210985D01*
X8778420D01*
Y2236385D01*
X8753020Y2261785D01*
X8778420Y2287185D01*
Y2312585D01*
X8753020D01*
X8727620Y2287185D01*
X8702220Y2312585D01*
X8676820D01*
Y2287185D01*
X8702220Y2261785D01*
X8676820Y2236385D01*
Y2210985D01*
X8620760Y2158875D02*
X8646160D01*
X8671560Y2184275D01*
X8696960Y2158875D01*
X8722360D01*
Y2184275D01*
X8696960Y2209675D01*
X8722360Y2235075D01*
Y2260475D01*
X8696960D01*
X8671560Y2235075D01*
X8646160Y2260475D01*
X8620760D01*
Y2235075D01*
X8646160Y2209675D01*
X8620760Y2184275D01*
Y2158875D01*
Y2262446D02*
X8646160D01*
X8671560Y2287846D01*
X8696960Y2262446D01*
X8722360D01*
Y2287846D01*
X8696960Y2313246D01*
X8722360Y2338646D01*
Y2364046D01*
X8696960D01*
X8671560Y2338646D01*
X8646160Y2364046D01*
X8620760D01*
Y2338646D01*
X8646160Y2313246D01*
X8620760Y2287846D01*
Y2262446D01*
X9718548Y2374588D02*
X9743948D01*
X9769348Y2399988D01*
X9794748Y2374588D01*
X9820148D01*
Y2399988D01*
X9794748Y2425388D01*
X9820148Y2450788D01*
Y2476188D01*
X9794748D01*
X9769348Y2450788D01*
X9743948Y2476188D01*
X9718548D01*
Y2450788D01*
X9743948Y2425388D01*
X9718548Y2399988D01*
Y2374588D01*
Y2426373D02*
X9743948D01*
X9769348Y2451773D01*
X9794748Y2426373D01*
X9820148D01*
Y2451773D01*
X9794748Y2477173D01*
X9820148Y2502573D01*
Y2527973D01*
X9794748D01*
X9769348Y2502573D01*
X9743948Y2527973D01*
X9718548D01*
Y2502573D01*
X9743948Y2477173D01*
X9718548Y2451773D01*
Y2426373D01*
Y2322802D02*
X9743948D01*
X9769348Y2348202D01*
X9794748Y2322802D01*
X9820148D01*
Y2348202D01*
X9794748Y2373602D01*
X9820148Y2399002D01*
Y2424402D01*
X9794748D01*
X9769348Y2399002D01*
X9743948Y2424402D01*
X9718548D01*
Y2399002D01*
X9743948Y2373602D01*
X9718548Y2348202D01*
Y2322802D01*
X9774608Y2323452D02*
X9800008D01*
X9825408Y2348852D01*
X9850808Y2323452D01*
X9876208D01*
Y2348852D01*
X9850808Y2374252D01*
X9876208Y2399652D01*
Y2425052D01*
X9850808D01*
X9825408Y2399652D01*
X9800008Y2425052D01*
X9774608D01*
Y2399652D01*
X9800008Y2374252D01*
X9774608Y2348852D01*
Y2323452D01*
Y2271666D02*
X9800008D01*
X9825408Y2297066D01*
X9850808Y2271666D01*
X9876208D01*
Y2297066D01*
X9850808Y2322466D01*
X9876208Y2347866D01*
Y2373266D01*
X9850808D01*
X9825408Y2347866D01*
X9800008Y2373266D01*
X9774608D01*
Y2347866D01*
X9800008Y2322466D01*
X9774608Y2297066D01*
Y2271666D01*
X9604248Y2322802D02*
X9629648D01*
X9655048Y2348202D01*
X9680448Y2322802D01*
X9705848D01*
Y2348202D01*
X9680448Y2373602D01*
X9705848Y2399002D01*
Y2424402D01*
X9680448D01*
X9655048Y2399002D01*
X9629648Y2424402D01*
X9604248D01*
Y2399002D01*
X9629648Y2373602D01*
X9604248Y2348202D01*
Y2322802D01*
Y2219231D02*
X9629648D01*
X9655048Y2244631D01*
X9680448Y2219231D01*
X9705848D01*
Y2244631D01*
X9680448Y2270031D01*
X9705848Y2295431D01*
Y2320831D01*
X9680448D01*
X9655048Y2295431D01*
X9629648Y2320831D01*
X9604248D01*
Y2295431D01*
X9629648Y2270031D01*
X9604248Y2244631D01*
Y2219231D01*
X9660308Y2271341D02*
X9685708D01*
X9711108Y2296741D01*
X9736508Y2271341D01*
X9761908D01*
Y2296741D01*
X9736508Y2322141D01*
X9761908Y2347541D01*
Y2372941D01*
X9736508D01*
X9711108Y2347541D01*
X9685708Y2372941D01*
X9660308D01*
Y2347541D01*
X9685708Y2322141D01*
X9660308Y2296741D01*
Y2271341D01*
Y2323127D02*
X9685708D01*
X9711108Y2348527D01*
X9736508Y2323127D01*
X9761908D01*
Y2348527D01*
X9736508Y2373927D01*
X9761908Y2399327D01*
Y2424727D01*
X9736508D01*
X9711108Y2399327D01*
X9685708Y2424727D01*
X9660308D01*
Y2399327D01*
X9685708Y2373927D01*
X9660308Y2348527D01*
Y2323127D01*
X8676820Y2314556D02*
X8702220D01*
X8727620Y2339956D01*
X8753020Y2314556D01*
X8778420D01*
Y2339956D01*
X8753020Y2365356D01*
X8778420Y2390756D01*
Y2416156D01*
X8753020D01*
X8727620Y2390756D01*
X8702220Y2416156D01*
X8676820D01*
Y2390756D01*
X8702220Y2365356D01*
X8676820Y2339956D01*
Y2314556D01*
X8620760Y2314232D02*
X8646160D01*
X8671560Y2339632D01*
X8696960Y2314232D01*
X8722360D01*
Y2339632D01*
X8696960Y2365032D01*
X8722360Y2390432D01*
Y2415832D01*
X8696960D01*
X8671560Y2390432D01*
X8646160Y2415832D01*
X8620760D01*
Y2390432D01*
X8646160Y2365032D01*
X8620760Y2339632D01*
Y2314232D01*
X8791120Y2314881D02*
X8816520D01*
X8841920Y2340281D01*
X8867320Y2314881D01*
X8892720D01*
Y2340281D01*
X8867320Y2365681D01*
X8892720Y2391081D01*
Y2416481D01*
X8867320D01*
X8841920Y2391081D01*
X8816520Y2416481D01*
X8791120D01*
Y2391081D01*
X8816520Y2365681D01*
X8791120Y2340281D01*
Y2314881D01*
X8620760Y2210661D02*
X8646160D01*
X8671560Y2236061D01*
X8696960Y2210661D01*
X8722360D01*
Y2236061D01*
X8696960Y2261461D01*
X8722360Y2286861D01*
Y2312261D01*
X8696960D01*
X8671560Y2286861D01*
X8646160Y2312261D01*
X8620760D01*
Y2286861D01*
X8646160Y2261461D01*
X8620760Y2236061D01*
Y2210661D01*
X8791120Y2159524D02*
X8816520D01*
X8841920Y2184924D01*
X8867320Y2159524D01*
X8892720D01*
Y2184924D01*
X8867320Y2210324D01*
X8892720Y2235724D01*
Y2261124D01*
X8867320D01*
X8841920Y2235724D01*
X8816520Y2261124D01*
X8791120D01*
Y2235724D01*
X8816520Y2210324D01*
X8791120Y2184924D01*
Y2159524D01*
X8676820Y2159200D02*
X8702220D01*
X8727620Y2184600D01*
X8753020Y2159200D01*
X8778420D01*
Y2184600D01*
X8753020Y2210000D01*
X8778420Y2235400D01*
Y2260800D01*
X8753020D01*
X8727620Y2235400D01*
X8702220Y2260800D01*
X8676820D01*
Y2235400D01*
X8702220Y2210000D01*
X8676820Y2184600D01*
Y2159200D01*
X8791120Y2366666D02*
X8816520D01*
X8841920Y2392066D01*
X8867320Y2366666D01*
X8892720D01*
Y2392066D01*
X8867320Y2417466D01*
X8892720Y2442866D01*
Y2468266D01*
X8867320D01*
X8841920Y2442866D01*
X8816520Y2468266D01*
X8791120D01*
Y2442866D01*
X8816520Y2417466D01*
X8791120Y2392066D01*
Y2366666D01*
X8735060Y2210661D02*
X8760460D01*
X8785860Y2236061D01*
X8811260Y2210661D01*
X8836660D01*
Y2236061D01*
X8811260Y2261461D01*
X8836660Y2286861D01*
Y2312261D01*
X8811260D01*
X8785860Y2286861D01*
X8760460Y2312261D01*
X8735060D01*
Y2286861D01*
X8760460Y2261461D01*
X8735060Y2236061D01*
Y2210661D01*
Y2158875D02*
X8760460D01*
X8785860Y2184275D01*
X8811260Y2158875D01*
X8836660D01*
Y2184275D01*
X8811260Y2209675D01*
X8836660Y2235075D01*
Y2260475D01*
X8811260D01*
X8785860Y2235075D01*
X8760460Y2260475D01*
X8735060D01*
Y2235075D01*
X8760460Y2209675D01*
X8735060Y2184275D01*
Y2158875D01*
X9774608Y2219880D02*
X9800008D01*
X9825408Y2245280D01*
X9850808Y2219880D01*
X9876208D01*
Y2245280D01*
X9850808Y2270680D01*
X9876208Y2296080D01*
Y2321480D01*
X9850808D01*
X9825408Y2296080D01*
X9800008Y2321480D01*
X9774608D01*
Y2296080D01*
X9800008Y2270680D01*
X9774608Y2245280D01*
Y2219880D01*
Y2427023D02*
X9800008D01*
X9825408Y2452423D01*
X9850808Y2427023D01*
X9876208D01*
Y2452423D01*
X9850808Y2477823D01*
X9876208Y2503223D01*
Y2528623D01*
X9850808D01*
X9825408Y2503223D01*
X9800008Y2528623D01*
X9774608D01*
Y2503223D01*
X9800008Y2477823D01*
X9774608Y2452423D01*
Y2427023D01*
X9718548Y2271017D02*
X9743948D01*
X9769348Y2296417D01*
X9794748Y2271017D01*
X9820148D01*
Y2296417D01*
X9794748Y2321817D01*
X9820148Y2347217D01*
Y2372617D01*
X9794748D01*
X9769348Y2347217D01*
X9743948Y2372617D01*
X9718548D01*
Y2347217D01*
X9743948Y2321817D01*
X9718548Y2296417D01*
Y2271017D01*
Y2219231D02*
X9743948D01*
X9769348Y2244631D01*
X9794748Y2219231D01*
X9820148D01*
Y2244631D01*
X9794748Y2270031D01*
X9820148Y2295431D01*
Y2320831D01*
X9794748D01*
X9769348Y2295431D01*
X9743948Y2320831D01*
X9718548D01*
Y2295431D01*
X9743948Y2270031D01*
X9718548Y2244631D01*
Y2219231D01*
X9660308Y2219556D02*
X9685708D01*
X9711108Y2244956D01*
X9736508Y2219556D01*
X9761908D01*
Y2244956D01*
X9736508Y2270356D01*
X9761908Y2295756D01*
Y2321156D01*
X9736508D01*
X9711108Y2295756D01*
X9685708Y2321156D01*
X9660308D01*
Y2295756D01*
X9685708Y2270356D01*
X9660308Y2244956D01*
Y2219556D01*
X9604248Y2271017D02*
X9629648D01*
X9655048Y2296417D01*
X9680448Y2271017D01*
X9705848D01*
Y2296417D01*
X9680448Y2321817D01*
X9705848Y2347217D01*
Y2372617D01*
X9680448D01*
X9655048Y2347217D01*
X9629648Y2372617D01*
X9604248D01*
Y2347217D01*
X9629648Y2321817D01*
X9604248Y2296417D01*
Y2271017D01*
X9660308Y2426698D02*
X9685708D01*
X9711108Y2452098D01*
X9736508Y2426698D01*
X9761908D01*
Y2452098D01*
X9736508Y2477498D01*
X9761908Y2502898D01*
Y2528298D01*
X9736508D01*
X9711108Y2502898D01*
X9685708Y2528298D01*
X9660308D01*
Y2502898D01*
X9685708Y2477498D01*
X9660308Y2452098D01*
Y2426698D01*
X9604248Y2426373D02*
X9629648D01*
X9655048Y2451773D01*
X9680448Y2426373D01*
X9705848D01*
Y2451773D01*
X9680448Y2477173D01*
X9705848Y2502573D01*
Y2527973D01*
X9680448D01*
X9655048Y2502573D01*
X9629648Y2527973D01*
X9604248D01*
Y2502573D01*
X9629648Y2477173D01*
X9604248Y2451773D01*
Y2426373D01*
X9774608Y2375237D02*
X9800008D01*
X9825408Y2400637D01*
X9850808Y2375237D01*
X9876208D01*
Y2400637D01*
X9850808Y2426037D01*
X9876208Y2451437D01*
Y2476837D01*
X9850808D01*
X9825408Y2451437D01*
X9800008Y2476837D01*
X9774608D01*
Y2451437D01*
X9800008Y2426037D01*
X9774608Y2400637D01*
Y2375237D01*
X9660308Y2374912D02*
X9685708D01*
X9711108Y2400312D01*
X9736508Y2374912D01*
X9761908D01*
Y2400312D01*
X9736508Y2425712D01*
X9761908Y2451112D01*
Y2476512D01*
X9736508D01*
X9711108Y2451112D01*
X9685708Y2476512D01*
X9660308D01*
Y2451112D01*
X9685708Y2425712D01*
X9660308Y2400312D01*
Y2374912D01*
X9604248Y2374588D02*
X9629648D01*
X9655048Y2399988D01*
X9680448Y2374588D01*
X9705848D01*
Y2399988D01*
X9680448Y2425388D01*
X9705848Y2450788D01*
Y2476188D01*
X9680448D01*
X9655048Y2450788D01*
X9629648Y2476188D01*
X9604248D01*
Y2450788D01*
X9629648Y2425388D01*
X9604248Y2399988D01*
Y2374588D01*
X8694420Y1606510D02*
X8719820D01*
X8745220Y1631910D01*
X8770620Y1606510D01*
X8796020D01*
Y1631910D01*
X8770620Y1657310D01*
X8796020Y1682710D01*
Y1708110D01*
X8770620D01*
X8745220Y1682710D01*
X8719820Y1708110D01*
X8694420D01*
Y1682710D01*
X8719820Y1657310D01*
X8694420Y1631910D01*
Y1606510D01*
X8866960D02*
X8892360D01*
X8917760Y1631910D01*
X8943160Y1606510D01*
X8968560D01*
Y1631910D01*
X8943160Y1657310D01*
X8968560Y1682710D01*
Y1708110D01*
X8943160D01*
X8917760Y1682710D01*
X8892360Y1708110D01*
X8866960D01*
Y1682710D01*
X8892360Y1657310D01*
X8866960Y1631910D01*
Y1606510D01*
X12141780Y1451780D02*
Y1553380D01*
X12243380D01*
Y1451780D01*
X12141780D01*
X12162100Y1472100D02*
Y1533060D01*
X12223060D01*
Y1472100D01*
X12162100D01*
X12187340Y1599200D02*
Y1700800D01*
X12288940D01*
Y1599200D01*
X12187340D01*
X12207660Y1619520D02*
Y1680480D01*
X12268620D01*
Y1619520D01*
X12207660D01*
X12141780Y1506700D02*
Y1608300D01*
X12243380D01*
Y1506700D01*
X12141780D01*
X12162100Y1527020D02*
Y1587980D01*
X12223060D01*
Y1527020D01*
X12162100D01*
X12086700Y1451780D02*
Y1553380D01*
X12188300D01*
Y1451780D01*
X12086700D01*
X12107020Y1472100D02*
Y1533060D01*
X12167980D01*
Y1472100D01*
X12107020D01*
X12200746Y1885376D02*
Y1986976D01*
X12302346D01*
Y1885376D01*
X12200746D01*
X12221066Y1905696D02*
Y1966656D01*
X12282026D01*
Y1905696D01*
X12221066D01*
X11046152Y1176700D02*
X11071552D01*
X11096952Y1202100D01*
X11122352Y1176700D01*
X11147752D01*
Y1202100D01*
X11122352Y1227500D01*
X11147752Y1252900D01*
Y1278300D01*
X11122352D01*
X11096952Y1252900D01*
X11071552Y1278300D01*
X11046152D01*
Y1252900D01*
X11071552Y1227500D01*
X11046152Y1202100D01*
Y1176700D01*
X11489200Y1343660D02*
X11514600D01*
X11540000Y1369060D01*
X11565400Y1343660D01*
X11590800D01*
Y1369060D01*
X11565400Y1394460D01*
X11590800Y1419860D01*
Y1445260D01*
X11565400D01*
X11540000Y1419860D01*
X11514600Y1445260D01*
X11489200D01*
Y1419860D01*
X11514600Y1394460D01*
X11489200Y1369060D01*
Y1343660D01*
X11181152Y1176700D02*
X11206552D01*
X11231952Y1202100D01*
X11257352Y1176700D01*
X11282752D01*
Y1202100D01*
X11257352Y1227500D01*
X11282752Y1252900D01*
Y1278300D01*
X11257352D01*
X11231952Y1252900D01*
X11206552Y1278300D01*
X11181152D01*
Y1252900D01*
X11206552Y1227500D01*
X11181152Y1202100D01*
Y1176700D01*
X10612393Y1176020D02*
X10637793D01*
X10663193Y1201420D01*
X10688593Y1176020D01*
X10713993D01*
Y1201420D01*
X10688593Y1226820D01*
X10713993Y1252220D01*
Y1277620D01*
X10688593D01*
X10663193Y1252220D01*
X10637793Y1277620D01*
X10612393D01*
Y1252220D01*
X10637793Y1226820D01*
X10612393Y1201420D01*
Y1176020D01*
X12044340Y1878134D02*
Y1979734D01*
X12145940D01*
Y1878134D01*
X12044340D01*
X12064660Y1898454D02*
Y1959414D01*
X12125620D01*
Y1898454D01*
X12064660D01*
X12031980Y1286700D02*
Y1388300D01*
X12133580D01*
Y1286700D01*
X12031980D01*
X12052300Y1307020D02*
Y1367980D01*
X12113260D01*
Y1307020D01*
X12052300D01*
X11976100Y1341540D02*
Y1443140D01*
X12077700D01*
Y1341540D01*
X11976100D01*
X11996420Y1361860D02*
Y1422820D01*
X12057380D01*
Y1361860D01*
X11996420D01*
X12031739Y1340580D02*
Y1442180D01*
X12133339D01*
Y1340580D01*
X12031739D01*
X12052059Y1360900D02*
Y1421860D01*
X12113019D01*
Y1360900D01*
X12052059D01*
X12086700Y1341620D02*
Y1443220D01*
X12188300D01*
Y1341620D01*
X12086700D01*
X12107020Y1361940D02*
Y1422900D01*
X12167980D01*
Y1361940D01*
X12107020D01*
X12031620Y1396700D02*
Y1498300D01*
X12133220D01*
Y1396700D01*
X12031620D01*
X12051940Y1417020D02*
Y1477980D01*
X12112900D01*
Y1417020D01*
X12051940D01*
X11489200Y1690360D02*
Y1791960D01*
X11590800D01*
Y1690360D01*
X11489200D01*
X11509520Y1710680D02*
Y1771640D01*
X11570480D01*
Y1710680D01*
X11509520D01*
X13072865Y1705620D02*
X13123665Y1756420D01*
X13174464Y1705620D01*
X13123665Y1654820D01*
X13072865Y1705620D01*
X13072881Y1549613D02*
X13123682Y1600413D01*
X13174481Y1549613D01*
X13123682Y1498813D01*
X13072881Y1549613D01*
X13395427Y2415032D02*
X13446227Y2465832D01*
X13497028Y2415032D01*
X13446227Y2364232D01*
X13395427Y2415032D01*
X11303700Y2369500D02*
X11354500Y2420300D01*
X11405300Y2369500D01*
X11354500Y2318700D01*
X11303700Y2369500D01*
X10654700Y3025000D02*
X10705500Y3075800D01*
X10756300Y3025000D01*
X10705500Y2974200D01*
X10654700Y3025000D01*
X10660620Y1992022D02*
X10711420Y2042822D01*
X10762220Y1992022D01*
X10711420Y1941222D01*
X10660620Y1992022D01*
X10572620D02*
X10623420Y2042822D01*
X10674220Y1992022D01*
X10623420Y1941222D01*
X10572620Y1992022D01*
X10661200Y1883122D02*
X10712000Y1933922D01*
X10762800Y1883122D01*
X10712000Y1832322D01*
X10661200Y1883122D01*
X10573200D02*
X10624000Y1933922D01*
X10674800Y1883122D01*
X10624000Y1832322D01*
X10573200Y1883122D01*
X13032561Y2847340D02*
X13083360Y2898140D01*
X13134160Y2847340D01*
X13083360Y2796540D01*
X13032561Y2847340D01*
Y2593340D02*
X13083360Y2644140D01*
X13134160Y2593340D01*
X13083360Y2542540D01*
X13032561Y2593340D01*
X13032739Y2720340D02*
X13083540Y2771140D01*
X13134340Y2720340D01*
X13083540Y2669540D01*
X13032739Y2720340D01*
X13032561Y2911220D02*
X13083360Y2962020D01*
X13134160Y2911220D01*
X13083360Y2860420D01*
X13032561Y2911220D01*
Y2784220D02*
X13083360Y2835020D01*
X13134160Y2784220D01*
X13083360Y2733420D01*
X13032561Y2784220D01*
Y2657220D02*
X13083360Y2708020D01*
X13134160Y2657220D01*
X13083360Y2606420D01*
X13032561Y2657220D01*
Y2530220D02*
X13083360Y2581020D01*
X13134160Y2530220D01*
X13083360Y2479420D01*
X13032561Y2530220D01*
X12960201Y2912864D02*
X13011000Y2963664D01*
X13061800Y2912864D01*
X13011000Y2862064D01*
X12960201Y2912864D01*
Y2785864D02*
X13011000Y2836664D01*
X13061800Y2785864D01*
X13011000Y2735064D01*
X12960201Y2785864D01*
Y2658864D02*
X13011000Y2709664D01*
X13061800Y2658864D01*
X13011000Y2608064D01*
X12960201Y2658864D01*
Y2531864D02*
X13011000Y2582664D01*
X13061800Y2531864D01*
X13011000Y2481064D01*
X12960201Y2531864D01*
X11140620Y2597236D02*
X11191420Y2648036D01*
X11242220Y2597236D01*
X11191420Y2546436D01*
X11140620Y2597236D01*
Y2851236D02*
X11191420Y2902036D01*
X11242220Y2851236D01*
X11191420Y2800436D01*
X11140620Y2851236D01*
X11140440Y2724236D02*
X11191240Y2775036D01*
X11242040Y2724236D01*
X11191240Y2673436D01*
X11140440Y2724236D01*
X11140620Y2533356D02*
X11191420Y2584156D01*
X11242220Y2533356D01*
X11191420Y2482556D01*
X11140620Y2533356D01*
Y2660356D02*
X11191420Y2711156D01*
X11242220Y2660356D01*
X11191420Y2609556D01*
X11140620Y2660356D01*
Y2787356D02*
X11191420Y2838156D01*
X11242220Y2787356D01*
X11191420Y2736556D01*
X11140620Y2787356D01*
Y2914356D02*
X11191420Y2965156D01*
X11242220Y2914356D01*
X11191420Y2863556D01*
X11140620Y2914356D01*
X10874200Y1885260D02*
X10925000Y1936060D01*
X10975800Y1885260D01*
X10925000Y1834460D01*
X10874200Y1885260D01*
X11128200D02*
X11179000Y1936060D01*
X11229800Y1885260D01*
X11179000Y1834460D01*
X11128200Y1885260D01*
X11001200Y1885440D02*
X11052000Y1936240D01*
X11102800Y1885440D01*
X11052000Y1834640D01*
X11001200Y1885440D01*
X10810320Y1885260D02*
X10861120Y1936060D01*
X10911920Y1885260D01*
X10861120Y1834460D01*
X10810320Y1885260D01*
X10937320D02*
X10988120Y1936060D01*
X11038920Y1885260D01*
X10988120Y1834460D01*
X10937320Y1885260D01*
X11064320D02*
X11115120Y1936060D01*
X11165920Y1885260D01*
X11115120Y1834460D01*
X11064320Y1885260D01*
X11191320D02*
X11242120Y1936060D01*
X11292920Y1885260D01*
X11242120Y1834460D01*
X11191320Y1885260D01*
X13042900Y1884500D02*
X13093700Y1935300D01*
X13144501Y1884500D01*
X13093700Y1833700D01*
X13042900Y1884500D01*
X13296899D02*
X13347701Y1935300D01*
X13398500Y1884500D01*
X13347701Y1833700D01*
X13296899Y1884500D01*
X13169901Y1884680D02*
X13220700Y1935480D01*
X13271500Y1884680D01*
X13220700Y1833880D01*
X13169901Y1884680D01*
X12979021Y1884500D02*
X13029820Y1935300D01*
X13080620Y1884500D01*
X13029820Y1833700D01*
X12979021Y1884500D01*
X13106020D02*
X13156821Y1935300D01*
X13207620Y1884500D01*
X13156821Y1833700D01*
X13106020Y1884500D01*
X13233020D02*
X13283820Y1935300D01*
X13334621Y1884500D01*
X13283820Y1833700D01*
X13233020Y1884500D01*
X13360020D02*
X13410820Y1935300D01*
X13461620Y1884500D01*
X13410820Y1833700D01*
X13360020Y1884500D01*
X13360201Y1815864D02*
X13411000Y1866664D01*
X13461800Y1815864D01*
X13411000Y1765064D01*
X13360201Y1815864D01*
X13233200D02*
X13284000Y1866664D01*
X13334801Y1815864D01*
X13284000Y1765064D01*
X13233200Y1815864D01*
X13106200D02*
X13157001Y1866664D01*
X13207800Y1815864D01*
X13157001Y1765064D01*
X13106200Y1815864D01*
X12979201D02*
X13030000Y1866664D01*
X13080800Y1815864D01*
X13030000Y1765064D01*
X12979201Y1815864D01*
X11191700Y1815000D02*
X11242500Y1865800D01*
X11293300Y1815000D01*
X11242500Y1764200D01*
X11191700Y1815000D01*
X11064700D02*
X11115500Y1865800D01*
X11166300Y1815000D01*
X11115500Y1764200D01*
X11064700Y1815000D01*
X10937700D02*
X10988500Y1865800D01*
X11039300Y1815000D01*
X10988500Y1764200D01*
X10937700Y1815000D01*
X10810700D02*
X10861500Y1865800D01*
X10912300Y1815000D01*
X10861500Y1764200D01*
X10810700Y1815000D01*
X10874199Y2161360D02*
X10924999Y2212160D01*
X10975799Y2161360D01*
X10924999Y2110560D01*
X10874199Y2161360D01*
X11128199D02*
X11178999Y2212160D01*
X11229799Y2161360D01*
X11178999Y2110560D01*
X11128199Y2161360D01*
X11001199Y2161540D02*
X11051999Y2212340D01*
X11102799Y2161540D01*
X11051999Y2110740D01*
X11001199Y2161540D01*
X10810319Y2161360D02*
X10861119Y2212160D01*
X10911919Y2161360D01*
X10861119Y2110560D01*
X10810319Y2161360D01*
X10937319D02*
X10988119Y2212160D01*
X11038919Y2161360D01*
X10988119Y2110560D01*
X10937319Y2161360D01*
X11064319D02*
X11115119Y2212160D01*
X11165919Y2161360D01*
X11115119Y2110560D01*
X11064319Y2161360D01*
X11191319D02*
X11242119Y2212160D01*
X11292919Y2161360D01*
X11242119Y2110560D01*
X11191319Y2161360D01*
X13042200Y2217240D02*
X13092999Y2268040D01*
X13143800Y2217240D01*
X13092999Y2166440D01*
X13042200Y2217240D01*
X13296201D02*
X13347000Y2268040D01*
X13397800Y2217240D01*
X13347000Y2166440D01*
X13296201Y2217240D01*
X13169200Y2217420D02*
X13220000Y2268220D01*
X13270799Y2217420D01*
X13220000Y2166620D01*
X13169200Y2217420D01*
X12978320Y2217240D02*
X13029120Y2268040D01*
X13079919Y2217240D01*
X13029120Y2166440D01*
X12978320Y2217240D01*
X13105321D02*
X13156120Y2268040D01*
X13206920Y2217240D01*
X13156120Y2166440D01*
X13105321Y2217240D01*
X13232320D02*
X13283121Y2268040D01*
X13333920Y2217240D01*
X13283121Y2166440D01*
X13232320Y2217240D01*
X13359320D02*
X13410120Y2268040D01*
X13460921Y2217240D01*
X13410120Y2166440D01*
X13359320Y2217240D01*
X13042700Y2049183D02*
X13093500Y2099983D01*
X13144299Y2049183D01*
X13093500Y1998383D01*
X13042700Y2049183D01*
X13296700D02*
X13347501Y2099983D01*
X13398300Y2049183D01*
X13347501Y1998383D01*
X13296700Y2049183D01*
X13169701Y2049364D02*
X13220500Y2100164D01*
X13271300Y2049364D01*
X13220500Y1998564D01*
X13169701Y2049364D01*
X12978819Y2049183D02*
X13029620Y2099983D01*
X13080420Y2049183D01*
X13029620Y1998383D01*
X12978819Y2049183D01*
X13105820D02*
X13156619Y2099983D01*
X13207420Y2049183D01*
X13156619Y1998383D01*
X13105820Y2049183D01*
X13232820D02*
X13283620Y2099983D01*
X13334419Y2049183D01*
X13283620Y1998383D01*
X13232820Y2049183D01*
X13359821D02*
X13410620Y2099983D01*
X13461420Y2049183D01*
X13410620Y1998383D01*
X13359821Y2049183D01*
X11128200Y2048680D02*
X11179000Y2099480D01*
X11229800Y2048680D01*
X11179000Y1997880D01*
X11128200Y2048680D01*
X10874200D02*
X10925000Y2099480D01*
X10975800Y2048680D01*
X10925000Y1997880D01*
X10874200Y2048680D01*
X11001200Y2048500D02*
X11052000Y2099300D01*
X11102800Y2048500D01*
X11052000Y1997700D01*
X11001200Y2048500D01*
X11192080Y2048680D02*
X11242880Y2099480D01*
X11293680Y2048680D01*
X11242880Y1997880D01*
X11192080Y2048680D01*
X11065080D02*
X11115880Y2099480D01*
X11166680Y2048680D01*
X11115880Y1997880D01*
X11065080Y2048680D01*
X10938080D02*
X10988880Y2099480D01*
X11039680Y2048680D01*
X10988880Y1997880D01*
X10938080Y2048680D01*
X10811080D02*
X10861880Y2099480D01*
X10912680Y2048680D01*
X10861880Y1997880D01*
X10811080Y2048680D01*
X13360580Y2596364D02*
X13411380Y2647164D01*
X13462180Y2596364D01*
X13411380Y2545564D01*
X13360580Y2596364D01*
Y2850364D02*
X13411380Y2901164D01*
X13462180Y2850364D01*
X13411380Y2799564D01*
X13360580Y2850364D01*
X13360400Y2723364D02*
X13411200Y2774164D01*
X13462000Y2723364D01*
X13411200Y2672564D01*
X13360400Y2723364D01*
X13360580Y2532484D02*
X13411380Y2583284D01*
X13462180Y2532484D01*
X13411380Y2481684D01*
X13360580Y2532484D01*
Y2659484D02*
X13411380Y2710284D01*
X13462180Y2659484D01*
X13411380Y2608684D01*
X13360580Y2659484D01*
Y2786484D02*
X13411380Y2837284D01*
X13462180Y2786484D01*
X13411380Y2735684D01*
X13360580Y2786484D01*
Y2913484D02*
X13411380Y2964284D01*
X13462180Y2913484D01*
X13411380Y2862684D01*
X13360580Y2913484D01*
X13193880Y2595364D02*
X13244679Y2646164D01*
X13295480Y2595364D01*
X13244679Y2544564D01*
X13193880Y2595364D01*
Y2849364D02*
X13244679Y2900164D01*
X13295480Y2849364D01*
X13244679Y2798564D01*
X13193880Y2849364D01*
X13193700Y2722364D02*
X13244501Y2773164D01*
X13295300Y2722364D01*
X13244501Y2671564D01*
X13193700Y2722364D01*
X13193880Y2531484D02*
X13244679Y2582284D01*
X13295480Y2531484D01*
X13244679Y2480684D01*
X13193880Y2531484D01*
Y2658484D02*
X13244679Y2709284D01*
X13295480Y2658484D01*
X13244679Y2607684D01*
X13193880Y2658484D01*
Y2785484D02*
X13244679Y2836284D01*
X13295480Y2785484D01*
X13244679Y2734684D01*
X13193880Y2785484D01*
Y2912484D02*
X13244679Y2963284D01*
X13295480Y2912484D01*
X13244679Y2861684D01*
X13193880Y2912484D01*
X10975881Y2595500D02*
X11026681Y2646300D01*
X11077481Y2595500D01*
X11026681Y2544700D01*
X10975881Y2595500D01*
Y2849500D02*
X11026681Y2900300D01*
X11077481Y2849500D01*
X11026681Y2798700D01*
X10975881Y2849500D01*
X10975700Y2722500D02*
X11026500Y2773300D01*
X11077300Y2722500D01*
X11026500Y2671700D01*
X10975700Y2722500D01*
X10975881Y2531620D02*
X11026681Y2582420D01*
X11077481Y2531620D01*
X11026681Y2480820D01*
X10975881Y2531620D01*
Y2658620D02*
X11026681Y2709420D01*
X11077481Y2658620D01*
X11026681Y2607820D01*
X10975881Y2658620D01*
Y2785620D02*
X11026681Y2836420D01*
X11077481Y2785620D01*
X11026681Y2734820D01*
X10975881Y2785620D01*
Y2912620D02*
X11026681Y2963420D01*
X11077481Y2912620D01*
X11026681Y2861820D01*
X10975881Y2912620D01*
X10805340Y2595880D02*
X10856140Y2646680D01*
X10906940Y2595880D01*
X10856140Y2545080D01*
X10805340Y2595880D01*
Y2849880D02*
X10856140Y2900680D01*
X10906940Y2849880D01*
X10856140Y2799080D01*
X10805340Y2849880D01*
X10805160Y2722880D02*
X10855960Y2773680D01*
X10906760Y2722880D01*
X10855960Y2672080D01*
X10805160Y2722880D01*
X10805340Y2532000D02*
X10856140Y2582800D01*
X10906940Y2532000D01*
X10856140Y2481200D01*
X10805340Y2532000D01*
Y2659000D02*
X10856140Y2709800D01*
X10906940Y2659000D01*
X10856140Y2608200D01*
X10805340Y2659000D01*
Y2786000D02*
X10856140Y2836800D01*
X10906940Y2786000D01*
X10856140Y2735200D01*
X10805340Y2786000D01*
Y2913000D02*
X10856140Y2963800D01*
X10906940Y2913000D01*
X10856140Y2862200D01*
X10805340Y2913000D01*
X11209200D02*
X11260000Y2963800D01*
X11310800Y2913000D01*
X11260000Y2862200D01*
X11209200Y2913000D01*
Y2786000D02*
X11260000Y2836800D01*
X11310800Y2786000D01*
X11260000Y2735200D01*
X11209200Y2786000D01*
Y2659000D02*
X11260000Y2709800D01*
X11310800Y2659000D01*
X11260000Y2608200D01*
X11209200Y2659000D01*
Y2532000D02*
X11260000Y2582800D01*
X11310800Y2532000D01*
X11260000Y2481200D01*
X11209200Y2532000D01*
X10654200Y2481200D02*
Y2582800D01*
X10755800D01*
Y2481200D01*
X10654200D01*
X10674520Y2501520D02*
Y2562480D01*
X10735480D01*
Y2501520D01*
X10674520D01*
X10810700Y2319200D02*
Y2420800D01*
X10912300D01*
Y2319200D01*
X10810700D01*
X10831020Y2339520D02*
Y2400480D01*
X10891980D01*
Y2339520D01*
X10831020D01*
X14462939Y1141700D02*
X14488341D01*
X14513741Y1167100D01*
X14539140Y1141700D01*
X14564540D01*
Y1167100D01*
X14539140Y1192500D01*
X14564540Y1217900D01*
Y1243300D01*
X14539140D01*
X14513741Y1217900D01*
X14488341Y1243300D01*
X14462939D01*
Y1217900D01*
X14488341Y1192500D01*
X14462939Y1167100D01*
Y1141700D01*
X14622940Y1141700D02*
X14648340D01*
X14673740Y1167100D01*
X14699139Y1141700D01*
X14724541D01*
Y1167100D01*
X14699139Y1192500D01*
X14724541Y1217900D01*
Y1243300D01*
X14699139D01*
X14673740Y1217900D01*
X14648340Y1243300D01*
X14622940D01*
Y1217900D01*
X14648340Y1192500D01*
X14622940Y1167100D01*
Y1141700D01*
X13296561Y1227500D02*
X13347360Y1278300D01*
X13398160Y1227500D01*
X13347360Y1176700D01*
X13296561Y1227500D01*
X13358200Y1227805D02*
X13409000Y1278605D01*
X13459801Y1227805D01*
X13409000Y1177005D01*
X13358200Y1227805D01*
X13418201D02*
X13469000Y1278605D01*
X13519800Y1227805D01*
X13469000Y1177005D01*
X13418201Y1227805D01*
X13478200D02*
X13528999Y1278605D01*
X13579800Y1227805D01*
X13528999Y1177005D01*
X13478200Y1227805D01*
X13538200D02*
X13589000Y1278605D01*
X13639799Y1227805D01*
X13589000Y1177005D01*
X13538200Y1227805D01*
X13922079Y1228789D02*
X13972881Y1279589D01*
X14023680Y1228789D01*
X13972881Y1177989D01*
X13922079Y1228789D01*
X13982080D02*
X14032880Y1279589D01*
X14083681Y1228789D01*
X14032880Y1177989D01*
X13982080Y1228789D01*
X14042081D02*
X14092880Y1279589D01*
X14143680Y1228789D01*
X14092880Y1177989D01*
X14042081Y1228789D01*
X14102080D02*
X14152879Y1279589D01*
X14203680Y1228789D01*
X14152879Y1177989D01*
X14102080Y1228789D01*
X13296561Y1162500D02*
X13347360Y1213300D01*
X13398160Y1162500D01*
X13347360Y1111700D01*
X13296561Y1162500D01*
X13236560Y1227500D02*
X13287360Y1278300D01*
X13338161Y1227500D01*
X13287360Y1176700D01*
X13236560Y1227500D01*
X13358200Y1162804D02*
X13409000Y1213604D01*
X13459801Y1162804D01*
X13409000Y1112004D01*
X13358200Y1162804D01*
X13418201D02*
X13469000Y1213604D01*
X13519800Y1162804D01*
X13469000Y1112004D01*
X13418201Y1162804D01*
X13478200D02*
X13528999Y1213604D01*
X13579800Y1162804D01*
X13528999Y1112004D01*
X13478200Y1162804D01*
X13538200D02*
X13589000Y1213604D01*
X13639799Y1162804D01*
X13589000Y1112004D01*
X13538200Y1162804D01*
X13922079Y1163789D02*
X13972881Y1214589D01*
X14023680Y1163789D01*
X13972881Y1112989D01*
X13922079Y1163789D01*
X13982080D02*
X14032880Y1214589D01*
X14083681Y1163789D01*
X14032880Y1112989D01*
X13982080Y1163789D01*
X14042081D02*
X14092880Y1214589D01*
X14143680Y1163789D01*
X14092880Y1112989D01*
X14042081Y1163789D01*
X14102080D02*
X14152879Y1214589D01*
X14203680Y1163789D01*
X14152879Y1112989D01*
X14102080Y1163789D01*
X14335760Y1645027D02*
X14386560Y1695827D01*
X14437360Y1645027D01*
X14386560Y1594227D01*
X14335760Y1645027D01*
Y1587500D02*
X14386560Y1638300D01*
X14437360Y1587500D01*
X14386560Y1536700D01*
X14335760Y1587500D01*
Y1702553D02*
X14386560Y1753353D01*
X14437360Y1702553D01*
X14386560Y1651753D01*
X14335760Y1702553D01*
Y1760080D02*
X14386560Y1810880D01*
X14437360Y1760080D01*
X14386560Y1709280D01*
X14335760Y1760080D01*
X1581851Y1694180D02*
X1632651Y1744980D01*
X1683451Y1694180D01*
X1632651Y1643380D01*
X1581851Y1694180D01*
Y1750461D02*
X1632651Y1801261D01*
X1683451Y1750461D01*
X1632651Y1699661D01*
X1581851Y1750461D01*
X4371340Y1474358D02*
X4396740D01*
X4422140Y1499758D01*
X4447540Y1474358D01*
X4472940D01*
Y1499758D01*
X4447540Y1525158D01*
X4472940Y1550558D01*
Y1575958D01*
X4447540D01*
X4422140Y1550558D01*
X4396740Y1575958D01*
X4371340D01*
Y1550558D01*
X4396740Y1525158D01*
X4371340Y1499758D01*
Y1474358D01*
Y1724660D02*
X4396740D01*
X4422140Y1750060D01*
X4447540Y1724660D01*
X4472940D01*
Y1750060D01*
X4447540Y1775460D01*
X4472940Y1800860D01*
Y1826260D01*
X4447540D01*
X4422140Y1800860D01*
X4396740Y1826260D01*
X4371340D01*
Y1800860D01*
X4396740Y1775460D01*
X4371340Y1750060D01*
Y1724660D01*
X4371700Y1653400D02*
X4397100D01*
X4422500Y1678800D01*
X4447900Y1653400D01*
X4473300D01*
Y1678800D01*
X4447900Y1704200D01*
X4473300Y1729600D01*
Y1755000D01*
X4447900D01*
X4422500Y1729600D01*
X4397100Y1755000D01*
X4371700D01*
Y1729600D01*
X4397100Y1704200D01*
X4371700Y1678800D01*
Y1653400D01*
Y1543400D02*
X4397100D01*
X4422500Y1568800D01*
X4447900Y1543400D01*
X4473300D01*
Y1568800D01*
X4447900Y1594200D01*
X4473300Y1619600D01*
Y1645000D01*
X4447900D01*
X4422500Y1619600D01*
X4397100Y1645000D01*
X4371700D01*
Y1619600D01*
X4397100Y1594200D01*
X4371700Y1568800D01*
Y1543400D01*
X4648200Y1567180D02*
X4673600D01*
X4699000Y1592580D01*
X4724400Y1567180D01*
X4749800D01*
Y1592580D01*
X4724400Y1617980D01*
X4749800Y1643380D01*
Y1668780D01*
X4724400D01*
X4699000Y1643380D01*
X4673600Y1668780D01*
X4648200D01*
Y1643380D01*
X4673600Y1617980D01*
X4648200Y1592580D01*
Y1567180D01*
Y1630680D02*
X4673600D01*
X4699000Y1656080D01*
X4724400Y1630680D01*
X4749800D01*
Y1656080D01*
X4724400Y1681480D01*
X4749800Y1706880D01*
Y1732280D01*
X4724400D01*
X4699000Y1706880D01*
X4673600Y1732280D01*
X4648200D01*
Y1706880D01*
X4673600Y1681480D01*
X4648200Y1656080D01*
Y1630680D01*
X1968500Y1935662D02*
X1993900D01*
X2019300Y1961062D01*
X2044700Y1935662D01*
X2070100D01*
Y1961062D01*
X2044700Y1986462D01*
X2070100Y2011862D01*
Y2037262D01*
X2044700D01*
X2019300Y2011862D01*
X1993900Y2037262D01*
X1968500D01*
Y2011862D01*
X1993900Y1986462D01*
X1968500Y1961062D01*
Y1935662D01*
X1826668Y1509580D02*
X1852068D01*
X1877468Y1534980D01*
X1902868Y1509580D01*
X1928268D01*
Y1534980D01*
X1902868Y1560380D01*
X1928268Y1585780D01*
Y1611180D01*
X1902868D01*
X1877468Y1585780D01*
X1852068Y1611180D01*
X1826668D01*
Y1585780D01*
X1852068Y1560380D01*
X1826668Y1534980D01*
Y1509580D01*
X7786556Y1432560D02*
X7811956D01*
X7837356Y1457960D01*
X7862756Y1432560D01*
X7888156D01*
Y1457960D01*
X7862756Y1483360D01*
X7888156Y1508760D01*
Y1534160D01*
X7862756D01*
X7837356Y1508760D01*
X7811956Y1534160D01*
X7786556D01*
Y1508760D01*
X7811956Y1483360D01*
X7786556Y1457960D01*
Y1432560D01*
X6236701Y2250417D02*
X6287501Y2301217D01*
X6338301Y2250417D01*
X6287501Y2199617D01*
X6236701Y2250417D01*
X14752319Y1647527D02*
X14803120Y1698327D01*
X14853920Y1647527D01*
X14803120Y1596727D01*
X14752319Y1647527D01*
Y1590000D02*
X14803120Y1640800D01*
X14853920Y1590000D01*
X14803120Y1539200D01*
X14752319Y1590000D01*
Y1705054D02*
X14803120Y1755854D01*
X14853920Y1705054D01*
X14803120Y1654254D01*
X14752319Y1705054D01*
Y1762580D02*
X14803120Y1813380D01*
X14853920Y1762580D01*
X14803120Y1711780D01*
X14752319Y1762580D01*
X10378440Y2099687D02*
X10429240Y2150487D01*
X10480040Y2099687D01*
X10429240Y2048887D01*
X10378440Y2099687D01*
Y2042160D02*
X10429240Y2092960D01*
X10480040Y2042160D01*
X10429240Y1991360D01*
X10378440Y2042160D01*
Y2157213D02*
X10429240Y2208013D01*
X10480040Y2157213D01*
X10429240Y2106413D01*
X10378440Y2157213D01*
Y2214740D02*
X10429240Y2265540D01*
X10480040Y2214740D01*
X10429240Y2163940D01*
X10378440Y2214740D01*
X9956800Y2212340D02*
X10007600Y2263140D01*
X10058400Y2212340D01*
X10007600Y2161540D01*
X9956800Y2212340D01*
X14815352Y1238636D02*
X14866151Y1289436D01*
X14916953Y1238636D01*
X14866151Y1187836D01*
X14815352Y1238636D01*
Y1441136D02*
X14866151Y1491936D01*
X14916953Y1441136D01*
X14866151Y1390336D01*
X14815352Y1441136D01*
X13946700Y2177500D02*
X13997501Y2228300D01*
X14048300Y2177500D01*
X13997501Y2126700D01*
X13946700Y2177500D01*
X13754201Y2178364D02*
X13805000Y2229164D01*
X13855800Y2178364D01*
X13805000Y2127564D01*
X13754201Y2178364D01*
X13561700Y2177500D02*
X13612500Y2228300D01*
X13663300Y2177500D01*
X13612500Y2126700D01*
X13561700Y2177500D01*
X14943700Y1210000D02*
X14994501Y1260800D01*
X15045300Y1210000D01*
X14994501Y1159200D01*
X14943700Y1210000D01*
Y1270000D02*
X14994501Y1320800D01*
X15045300Y1270000D01*
X14994501Y1219200D01*
X14943700Y1270000D01*
X15008701Y1210000D02*
X15059500Y1260800D01*
X15110300Y1210000D01*
X15059500Y1159200D01*
X15008701Y1210000D01*
Y1270000D02*
X15059500Y1320800D01*
X15110300Y1270000D01*
X15059500Y1219200D01*
X15008701Y1270000D01*
X14942821Y1412280D02*
X14993620Y1463080D01*
X15044420Y1412280D01*
X14993620Y1361480D01*
X14942821Y1412280D01*
Y1472280D02*
X14993620Y1523080D01*
X15044420Y1472280D01*
X14993620Y1421480D01*
X14942821Y1472280D01*
X15007820Y1412280D02*
X15058620Y1463080D01*
X15109419Y1412280D01*
X15058620Y1361480D01*
X15007820Y1412280D01*
Y1472280D02*
X15058620Y1523080D01*
X15109419Y1472280D01*
X15058620Y1421480D01*
X15007820Y1472280D01*
X13514200Y2786864D02*
X13564999Y2837664D01*
X13615800Y2786864D01*
X13564999Y2736064D01*
X13514200Y2786864D01*
Y2659864D02*
X13564999Y2710664D01*
X13615800Y2659864D01*
X13564999Y2609064D01*
X13514200Y2659864D01*
Y2532864D02*
X13564999Y2583664D01*
X13615800Y2532864D01*
X13564999Y2482064D01*
X13514200Y2532864D01*
X13946700Y2337500D02*
X13997501Y2388300D01*
X14048300Y2337500D01*
X13997501Y2286700D01*
X13946700Y2337500D01*
X13754201Y2338364D02*
X13805000Y2389164D01*
X13855800Y2338364D01*
X13805000Y2287564D01*
X13754201Y2338364D01*
X13561700Y2337500D02*
X13612500Y2388300D01*
X13663300Y2337500D01*
X13612500Y2286700D01*
X13561700Y2337500D01*
X13360201Y2370864D02*
X13411000Y2421664D01*
X13461800Y2370864D01*
X13411000Y2320064D01*
X13360201Y2370864D01*
X13233200D02*
X13284000Y2421664D01*
X13334801Y2370864D01*
X13284000Y2320064D01*
X13233200Y2370864D01*
X13106200D02*
X13157001Y2421664D01*
X13207800Y2370864D01*
X13157001Y2320064D01*
X13106200Y2370864D01*
X12031620Y1452880D02*
Y1554480D01*
X12133220D01*
Y1452880D01*
X12031620D01*
X12051940Y1473200D02*
Y1534160D01*
X12112900D01*
Y1473200D01*
X12051940D01*
X12031700Y1506276D02*
Y1607876D01*
X12133300D01*
Y1506276D01*
X12031700D01*
X12052020Y1526596D02*
Y1587556D01*
X12112980D01*
Y1526596D01*
X12052020D01*
X11976438Y1452880D02*
Y1554480D01*
X12078038D01*
Y1452880D01*
X11976438D01*
X11996758Y1473200D02*
Y1534160D01*
X12057718D01*
Y1473200D01*
X11996758D01*
X9234731Y2641247D02*
X9285531Y2692047D01*
X9336331Y2641247D01*
X9285531Y2590447D01*
X9234731Y2641247D01*
X10234214Y2637221D02*
X10285014Y2688021D01*
X10335814Y2637221D01*
X10285014Y2586421D01*
X10234214Y2637221D01*
X12197080Y1341120D02*
Y1442720D01*
X12298680D01*
Y1341120D01*
X12197080D01*
X12217400Y1361440D02*
Y1422400D01*
X12278360D01*
Y1361440D01*
X12217400D01*
X12142923Y1341120D02*
Y1442720D01*
X12244523D01*
Y1341120D01*
X12142923D01*
X12163243Y1361440D02*
Y1422400D01*
X12224203D01*
Y1361440D01*
X12163243D01*
X12197080Y1452880D02*
Y1554480D01*
X12298680D01*
Y1452880D01*
X12197080D01*
X12217400Y1473200D02*
Y1534160D01*
X12278360D01*
Y1473200D01*
X12217400D01*
X12141780Y1396700D02*
Y1498300D01*
X12243380D01*
Y1396700D01*
X12141780D01*
X12162100Y1417020D02*
Y1477980D01*
X12223060D01*
Y1417020D01*
X12162100D01*
X10039458Y3013660D02*
X10090258Y3064460D01*
X10141058Y3013660D01*
X10090258Y2962860D01*
X10039458Y3013660D01*
X9938493D02*
X9989293Y3064460D01*
X10040093Y3013660D01*
X9989293Y2962860D01*
X9938493Y3013660D01*
X9837528D02*
X9888328Y3064460D01*
X9939128Y3013660D01*
X9888328Y2962860D01*
X9837528Y3013660D01*
X9736563D02*
X9787363Y3064460D01*
X9838163Y3013660D01*
X9787363Y2962860D01*
X9736563Y3013660D01*
X9635598D02*
X9686398Y3064460D01*
X9737198Y3013660D01*
X9686398Y2962860D01*
X9635598Y3013660D01*
X9534633D02*
X9585433Y3064460D01*
X9636233Y3013660D01*
X9585433Y2962860D01*
X9534633Y3013660D01*
X9433668D02*
X9484468Y3064460D01*
X9535268Y3013660D01*
X9484468Y2962860D01*
X9433668Y3013660D01*
X9332703D02*
X9383503Y3064460D01*
X9434303Y3013660D01*
X9383503Y2962860D01*
X9332703Y3013660D01*
X9231738D02*
X9282538Y3064460D01*
X9333338Y3013660D01*
X9282538Y2962860D01*
X9231738Y3013660D01*
X10039458Y3087436D02*
X10090258Y3138236D01*
X10141058Y3087436D01*
X10090258Y3036636D01*
X10039458Y3087436D01*
X9938493D02*
X9989293Y3138236D01*
X10040093Y3087436D01*
X9989293Y3036636D01*
X9938493Y3087436D01*
X9837528D02*
X9888328Y3138236D01*
X9939128Y3087436D01*
X9888328Y3036636D01*
X9837528Y3087436D01*
X9736563D02*
X9787363Y3138236D01*
X9838163Y3087436D01*
X9787363Y3036636D01*
X9736563Y3087436D01*
X9635598D02*
X9686398Y3138236D01*
X9737198Y3087436D01*
X9686398Y3036636D01*
X9635598Y3087436D01*
X9534633D02*
X9585433Y3138236D01*
X9636233Y3087436D01*
X9585433Y3036636D01*
X9534633Y3087436D01*
X9433668D02*
X9484468Y3138236D01*
X9535268Y3087436D01*
X9484468Y3036636D01*
X9433668Y3087436D01*
X9332703D02*
X9383503Y3138236D01*
X9434303Y3087436D01*
X9383503Y3036636D01*
X9332703Y3087436D01*
X9231738D02*
X9282538Y3138236D01*
X9333338Y3087436D01*
X9282538Y3036636D01*
X9231738Y3087436D01*
X10035986Y2638364D02*
X10086786Y2689164D01*
X10137586Y2638364D01*
X10086786Y2587564D01*
X10035986Y2638364D01*
X9834914D02*
X9885714Y2689164D01*
X9936514Y2638364D01*
X9885714Y2587564D01*
X9834914Y2638364D01*
X9633843D02*
X9684643Y2689164D01*
X9735443Y2638364D01*
X9684643Y2587564D01*
X9633843Y2638364D01*
X9773920Y2112500D02*
X9824720Y2163300D01*
X9875520Y2112500D01*
X9824720Y2061700D01*
X9773920Y2112500D01*
X9432772Y2638364D02*
X9483572Y2689164D01*
X9534372Y2638364D01*
X9483572Y2587564D01*
X9432772Y2638364D01*
X9956800Y2154813D02*
X10007600Y2205613D01*
X10058400Y2154813D01*
X10007600Y2104013D01*
X9956800Y2154813D01*
Y2039760D02*
X10007600Y2090560D01*
X10058400Y2039760D01*
X10007600Y1988960D01*
X9956800Y2039760D01*
Y2097287D02*
X10007600Y2148087D01*
X10058400Y2097287D01*
X10007600Y2046487D01*
X9956800Y2097287D01*
X3791744Y1783380D02*
X3817144D01*
X3842544Y1808780D01*
X3867944Y1783380D01*
X3893344D01*
Y1808780D01*
X3867944Y1834180D01*
X3893344Y1859580D01*
Y1884980D01*
X3867944D01*
X3842544Y1859580D01*
X3817144Y1884980D01*
X3791744D01*
Y1859580D01*
X3817144Y1834180D01*
X3791744Y1808780D01*
Y1783380D01*
X3583940D02*
X3609340D01*
X3634740Y1808780D01*
X3660140Y1783380D01*
X3685540D01*
Y1808780D01*
X3660140Y1834180D01*
X3685540Y1859580D01*
Y1884980D01*
X3660140D01*
X3634740Y1859580D01*
X3609340Y1884980D01*
X3583940D01*
Y1859580D01*
X3609340Y1834180D01*
X3583940Y1808780D01*
Y1783380D01*
X3723640Y1691640D02*
X3774440Y1742440D01*
X3825240Y1691640D01*
X3774440Y1640840D01*
X3723640Y1691640D01*
X2526760Y1454761D02*
Y1556361D01*
X2628360D01*
Y1454761D01*
X2526760D01*
X2547080Y1475081D02*
Y1536041D01*
X2608040D01*
Y1475081D01*
X2547080D01*
X3426460Y2283125D02*
X3477260Y2333925D01*
X3528060Y2283125D01*
X3477260Y2232325D01*
X3426460Y2283125D01*
X3651778Y2283460D02*
X3702578Y2334260D01*
X3753378Y2283460D01*
X3702578Y2232660D01*
X3651778Y2283460D01*
X2930700Y2320500D02*
X2981500Y2371300D01*
X3032300Y2320500D01*
X2981500Y2269700D01*
X2930700Y2320500D01*
X6986902Y1552820D02*
X7037702Y1603620D01*
X7088502Y1552820D01*
X7037702Y1502020D01*
X6986902Y1552820D01*
Y1720000D02*
X7037702Y1770800D01*
X7088502Y1720000D01*
X7037702Y1669200D01*
X6986902Y1720000D01*
X6881700Y1958417D02*
X6932500Y2009217D01*
X6983300Y1958417D01*
X6932500Y1907617D01*
X6881700Y1958417D01*
X6559200D02*
X6610000Y2009217D01*
X6660800Y1958417D01*
X6610000Y1907617D01*
X6559200Y1958417D01*
X6236701D02*
X6287501Y2009217D01*
X6338301Y1958417D01*
X6287501Y1907617D01*
X6236701Y1958417D01*
X8374380Y1890000D02*
X8425180Y1940800D01*
X8475980Y1890000D01*
X8425180Y1839200D01*
X8374380Y1890000D01*
Y1953415D02*
X8425180Y2004215D01*
X8475980Y1953415D01*
X8425180Y1902615D01*
X8374380Y1953415D01*
Y2019300D02*
X8425180Y2070100D01*
X8475980Y2019300D01*
X8425180Y1968500D01*
X8374380Y2019300D01*
X8158480Y1887220D02*
X8209280Y1938020D01*
X8260080Y1887220D01*
X8209280Y1836420D01*
X8158480Y1887220D01*
X8157210Y2019300D02*
X8208010Y2070100D01*
X8258810Y2019300D01*
X8208010Y1968500D01*
X8157210Y2019300D01*
X8158480Y1953416D02*
X8209280Y2004216D01*
X8260080Y1953416D01*
X8209280Y1902616D01*
X8158480Y1953416D01*
X8266700Y1887220D02*
X8317500Y1938020D01*
X8368300Y1887220D01*
X8317500Y1836420D01*
X8266700Y1887220D01*
X8266701Y2019300D02*
X8317501Y2070100D01*
X8368301Y2019300D01*
X8317501Y1968500D01*
X8266701Y2019300D01*
X8266700Y1953415D02*
X8317500Y2004215D01*
X8368300Y1953415D01*
X8317500Y1902615D01*
X8266700Y1953415D01*
X7146902Y2078500D02*
X7197702Y2129300D01*
X7248502Y2078500D01*
X7197702Y2027700D01*
X7146902Y2078500D01*
X7357480Y2078040D02*
X7408280Y2128840D01*
X7459080Y2078040D01*
X7408280Y2027240D01*
X7357480Y2078040D01*
Y1945440D02*
X7408280Y1996240D01*
X7459080Y1945440D01*
X7408280Y1894640D01*
X7357480Y1945440D01*
X7146902Y1945960D02*
X7197702Y1996760D01*
X7248502Y1945960D01*
X7197702Y1895160D01*
X7146902Y1945960D01*
X7251480D02*
X7302280Y1996760D01*
X7353080Y1945960D01*
X7302280Y1895160D01*
X7251480Y1945960D01*
Y2078040D02*
X7302280Y2128840D01*
X7353080Y2078040D01*
X7302280Y2027240D01*
X7251480Y2078040D01*
X7357480Y2013416D02*
X7408280Y2064216D01*
X7459080Y2013416D01*
X7408280Y1962616D01*
X7357480Y2013416D01*
X7146902D02*
X7197702Y2064216D01*
X7248502Y2013416D01*
X7197702Y1962616D01*
X7146902Y2013416D01*
X7251481Y2012500D02*
X7302281Y2063300D01*
X7353081Y2012500D01*
X7302281Y1961700D01*
X7251481Y2012500D01*
X9773920Y1952500D02*
X9824720Y2003300D01*
X9875520Y1952500D01*
X9824720Y1901700D01*
X9773920Y1952500D01*
X10690860Y2720910D02*
X10741660Y2771710D01*
X10792460Y2720910D01*
X10741660Y2670110D01*
X10690860Y2720910D01*
X10609580D02*
X10660380Y2771710D01*
X10711180Y2720910D01*
X10660380Y2670110D01*
X10609580Y2720910D01*
X10690860Y2849880D02*
X10741660Y2900680D01*
X10792460Y2849880D01*
X10741660Y2799080D01*
X10690860Y2849880D01*
X10695940Y2970814D02*
X10746740Y3021614D01*
X10797540Y2970814D01*
X10746740Y2920014D01*
X10695940Y2970814D01*
X11254200Y2343495D02*
X11305000Y2394295D01*
X11355800Y2343495D01*
X11305000Y2292695D01*
X11254200Y2343495D01*
Y2399670D02*
X11305000Y2450470D01*
X11355800Y2399670D01*
X11305000Y2348870D01*
X11254200Y2399670D01*
X11126700Y2341880D02*
X11177500Y2392680D01*
X11228300Y2341880D01*
X11177500Y2291080D01*
X11126700Y2341880D01*
Y2399670D02*
X11177500Y2450470D01*
X11228300Y2399670D01*
X11177500Y2348870D01*
X11126700Y2399670D01*
X12501220Y2717460D02*
X12552020Y2768260D01*
X12602820Y2717460D01*
X12552020Y2666660D01*
X12501220Y2717460D01*
Y2597460D02*
X12552020Y2648260D01*
X12602820Y2597460D01*
X12552020Y2546660D01*
X12501220Y2597460D01*
Y2537460D02*
X12552020Y2588260D01*
X12602820Y2537460D01*
X12552020Y2486660D01*
X12501220Y2537460D01*
Y2657460D02*
X12552020Y2708260D01*
X12602820Y2657460D01*
X12552020Y2606660D01*
X12501220Y2657460D01*
X12436220D02*
X12487020Y2708260D01*
X12537820Y2657460D01*
X12487020Y2606660D01*
X12436220Y2657460D01*
Y2597460D02*
X12487020Y2648260D01*
X12537820Y2597460D01*
X12487020Y2546660D01*
X12436220Y2597460D01*
Y2717460D02*
X12487020Y2768260D01*
X12537820Y2717460D01*
X12487020Y2666660D01*
X12436220Y2717460D01*
Y2537460D02*
X12487020Y2588260D01*
X12537820Y2537460D01*
X12487020Y2486660D01*
X12436220Y2537460D01*
X11743920Y2717460D02*
X11794720Y2768260D01*
X11845520Y2717460D01*
X11794720Y2666660D01*
X11743920Y2717460D01*
Y2597460D02*
X11794720Y2648260D01*
X11845520Y2597460D01*
X11794720Y2546660D01*
X11743920Y2597460D01*
Y2537460D02*
X11794720Y2588260D01*
X11845520Y2537460D01*
X11794720Y2486660D01*
X11743920Y2537460D01*
Y2657460D02*
X11794720Y2708260D01*
X11845520Y2657460D01*
X11794720Y2606660D01*
X11743920Y2657460D01*
X11678920D02*
X11729720Y2708260D01*
X11780520Y2657460D01*
X11729720Y2606660D01*
X11678920Y2657460D01*
Y2597460D02*
X11729720Y2648260D01*
X11780520Y2597460D01*
X11729720Y2546660D01*
X11678920Y2597460D01*
Y2717460D02*
X11729720Y2768260D01*
X11780520Y2717460D01*
X11729720Y2666660D01*
X11678920Y2717460D01*
Y2537460D02*
X11729720Y2588260D01*
X11780520Y2537460D01*
X11729720Y2486660D01*
X11678920Y2537460D01*
X7791700Y2385000D02*
X7842500Y2435800D01*
X7893300Y2385000D01*
X7842500Y2334200D01*
X7791700Y2385000D01*
X8849360Y2314556D02*
X8874760D01*
X8900160Y2339956D01*
X8925560Y2314556D01*
X8950960D01*
Y2339956D01*
X8925560Y2365356D01*
X8950960Y2390756D01*
Y2416156D01*
X8925560D01*
X8900160Y2390756D01*
X8874760Y2416156D01*
X8849360D01*
Y2390756D01*
X8874760Y2365356D01*
X8849360Y2339956D01*
Y2314556D01*
Y2159200D02*
X8874760D01*
X8900160Y2184600D01*
X8925560Y2159200D01*
X8950960D01*
Y2184600D01*
X8925560Y2210000D01*
X8950960Y2235400D01*
Y2260800D01*
X8925560D01*
X8900160Y2235400D01*
X8874760Y2260800D01*
X8849360D01*
Y2235400D01*
X8874760Y2210000D01*
X8849360Y2184600D01*
Y2159200D01*
Y2366342D02*
X8874760D01*
X8900160Y2391742D01*
X8925560Y2366342D01*
X8950960D01*
Y2391742D01*
X8925560Y2417142D01*
X8950960Y2442542D01*
Y2467942D01*
X8925560D01*
X8900160Y2442542D01*
X8874760Y2467942D01*
X8849360D01*
Y2442542D01*
X8874760Y2417142D01*
X8849360Y2391742D01*
Y2366342D01*
Y2262771D02*
X8874760D01*
X8900160Y2288171D01*
X8925560Y2262771D01*
X8950960D01*
Y2288171D01*
X8925560Y2313571D01*
X8950960Y2338971D01*
Y2364371D01*
X8925560D01*
X8900160Y2338971D01*
X8874760Y2364371D01*
X8849360D01*
Y2338971D01*
X8874760Y2313571D01*
X8849360Y2288171D01*
Y2262771D01*
Y2210985D02*
X8874760D01*
X8900160Y2236385D01*
X8925560Y2210985D01*
X8950960D01*
Y2236385D01*
X8925560Y2261785D01*
X8950960Y2287185D01*
Y2312585D01*
X8925560D01*
X8900160Y2287185D01*
X8874760Y2312585D01*
X8849360D01*
Y2287185D01*
X8874760Y2261785D01*
X8849360Y2236385D01*
Y2210985D01*
X8562520Y2159200D02*
X8587920D01*
X8613320Y2184600D01*
X8638720Y2159200D01*
X8664120D01*
Y2184600D01*
X8638720Y2210000D01*
X8664120Y2235400D01*
Y2260800D01*
X8638720D01*
X8613320Y2235400D01*
X8587920Y2260800D01*
X8562520D01*
Y2235400D01*
X8587920Y2210000D01*
X8562520Y2184600D01*
Y2159200D01*
Y2262771D02*
X8587920D01*
X8613320Y2288171D01*
X8638720Y2262771D01*
X8664120D01*
Y2288171D01*
X8638720Y2313571D01*
X8664120Y2338971D01*
Y2364371D01*
X8638720D01*
X8613320Y2338971D01*
X8587920Y2364371D01*
X8562520D01*
Y2338971D01*
X8587920Y2313571D01*
X8562520Y2288171D01*
Y2262771D01*
Y2314556D02*
X8587920D01*
X8613320Y2339956D01*
X8638720Y2314556D01*
X8664120D01*
Y2339956D01*
X8638720Y2365356D01*
X8664120Y2390756D01*
Y2416156D01*
X8638720D01*
X8613320Y2390756D01*
X8587920Y2416156D01*
X8562520D01*
Y2390756D01*
X8587920Y2365356D01*
X8562520Y2339956D01*
Y2314556D01*
Y2210985D02*
X8587920D01*
X8613320Y2236385D01*
X8638720Y2210985D01*
X8664120D01*
Y2236385D01*
X8638720Y2261785D01*
X8664120Y2287185D01*
Y2312585D01*
X8638720D01*
X8613320Y2287185D01*
X8587920Y2312585D01*
X8562520D01*
Y2287185D01*
X8587920Y2261785D01*
X8562520Y2236385D01*
Y2210985D01*
X6972300Y1320800D02*
X6997700D01*
X7023100Y1346200D01*
X7048500Y1320800D01*
X7073900D01*
Y1346200D01*
X7048500Y1371600D01*
X7073900Y1397000D01*
Y1422400D01*
X7048500D01*
X7023100Y1397000D01*
X6997700Y1422400D01*
X6972300D01*
Y1397000D01*
X6997700Y1371600D01*
X6972300Y1346200D01*
Y1320800D01*
X7224680Y1272540D02*
X7250080D01*
X7275480Y1297940D01*
X7300880Y1272540D01*
X7326280D01*
Y1297940D01*
X7300880Y1323340D01*
X7326280Y1348740D01*
Y1374140D01*
X7300880D01*
X7275480Y1348740D01*
X7250080Y1374140D01*
X7224680D01*
Y1348740D01*
X7250080Y1323340D01*
X7224680Y1297940D01*
Y1272540D01*
X7089140Y1320800D02*
X7114540D01*
X7139940Y1346200D01*
X7165340Y1320800D01*
X7190740D01*
Y1346200D01*
X7165340Y1371600D01*
X7190740Y1397000D01*
Y1422400D01*
X7165340D01*
X7139940Y1397000D01*
X7114540Y1422400D01*
X7089140D01*
Y1397000D01*
X7114540Y1371600D01*
X7089140Y1346200D01*
Y1320800D01*
X8752660Y1450829D02*
X8778060D01*
X8803460Y1476229D01*
X8828860Y1450829D01*
X8854260D01*
Y1476229D01*
X8828860Y1501629D01*
X8854260Y1527029D01*
Y1552429D01*
X8828860D01*
X8803460Y1527029D01*
X8778060Y1552429D01*
X8752660D01*
Y1527029D01*
X8778060Y1501629D01*
X8752660Y1476229D01*
Y1450829D01*
X8638360D02*
X8663760D01*
X8689160Y1476229D01*
X8714560Y1450829D01*
X8739960D01*
Y1476229D01*
X8714560Y1501629D01*
X8739960Y1527029D01*
Y1552429D01*
X8714560D01*
X8689160Y1527029D01*
X8663760Y1552429D01*
X8638360D01*
Y1527029D01*
X8663760Y1501629D01*
X8638360Y1476229D01*
Y1450829D01*
Y1502614D02*
X8663760D01*
X8689160Y1528014D01*
X8714560Y1502614D01*
X8739960D01*
Y1528014D01*
X8714560Y1553414D01*
X8739960Y1578814D01*
Y1604214D01*
X8714560D01*
X8689160Y1578814D01*
X8663760Y1604214D01*
X8638360D01*
Y1578814D01*
X8663760Y1553414D01*
X8638360Y1528014D01*
Y1502614D01*
X8580120Y1451153D02*
X8605520D01*
X8630920Y1476553D01*
X8656320Y1451153D01*
X8681720D01*
Y1476553D01*
X8656320Y1501953D01*
X8681720Y1527353D01*
Y1552753D01*
X8656320D01*
X8630920Y1527353D01*
X8605520Y1552753D01*
X8580120D01*
Y1527353D01*
X8605520Y1501953D01*
X8580120Y1476553D01*
Y1451153D01*
X8866960D02*
X8892360D01*
X8917760Y1476553D01*
X8943160Y1451153D01*
X8968560D01*
Y1476553D01*
X8943160Y1501953D01*
X8968560Y1527353D01*
Y1552753D01*
X8943160D01*
X8917760Y1527353D01*
X8892360Y1552753D01*
X8866960D01*
Y1527353D01*
X8892360Y1501953D01*
X8866960Y1476553D01*
Y1451153D01*
X8694420D02*
X8719820D01*
X8745220Y1476553D01*
X8770620Y1451153D01*
X8796020D01*
Y1476553D01*
X8770620Y1501953D01*
X8796020Y1527353D01*
Y1552753D01*
X8770620D01*
X8745220Y1527353D01*
X8719820Y1552753D01*
X8694420D01*
Y1527353D01*
X8719820Y1501953D01*
X8694420Y1476553D01*
Y1451153D01*
X7875700Y1404200D02*
X7901100D01*
X7926500Y1429600D01*
X7951900Y1404200D01*
X7977300D01*
Y1429600D01*
X7951900Y1455000D01*
X7977300Y1480400D01*
Y1505800D01*
X7951900D01*
X7926500Y1480400D01*
X7901100Y1505800D01*
X7875700D01*
Y1480400D01*
X7901100Y1455000D01*
X7875700Y1429600D01*
Y1404200D01*
X8808720Y1451478D02*
X8834120D01*
X8859520Y1476878D01*
X8884920Y1451478D01*
X8910320D01*
Y1476878D01*
X8884920Y1502278D01*
X8910320Y1527678D01*
Y1553078D01*
X8884920D01*
X8859520Y1527678D01*
X8834120Y1553078D01*
X8808720D01*
Y1527678D01*
X8834120Y1502278D01*
X8808720Y1476878D01*
Y1451478D01*
X7587700Y1404200D02*
X7613100D01*
X7638500Y1429600D01*
X7663900Y1404200D01*
X7689300D01*
Y1429600D01*
X7663900Y1455000D01*
X7689300Y1480400D01*
Y1505800D01*
X7663900D01*
X7638500Y1480400D01*
X7613100Y1505800D01*
X7587700D01*
Y1480400D01*
X7613100Y1455000D01*
X7587700Y1429600D01*
Y1404200D01*
X8126949Y1401640D02*
X8152349D01*
X8177749Y1427040D01*
X8203149Y1401640D01*
X8228549D01*
Y1427040D01*
X8203149Y1452440D01*
X8228549Y1477840D01*
Y1503240D01*
X8203149D01*
X8177749Y1477840D01*
X8152349Y1503240D01*
X8126949D01*
Y1477840D01*
X8152349Y1452440D01*
X8126949Y1427040D01*
Y1401640D01*
X7452200Y1485600D02*
X7477600D01*
X7503000Y1511000D01*
X7528400Y1485600D01*
X7553800D01*
Y1511000D01*
X7528400Y1536400D01*
X7553800Y1561800D01*
Y1587200D01*
X7528400D01*
X7503000Y1561800D01*
X7477600Y1587200D01*
X7452200D01*
Y1561800D01*
X7477600Y1536400D01*
X7452200Y1511000D01*
Y1485600D01*
X1596390Y1079338D02*
X1621790D01*
X1647190Y1104738D01*
X1672590Y1079338D01*
X1697990D01*
Y1104738D01*
X1672590Y1130138D01*
X1697990Y1155538D01*
Y1180938D01*
X1672590D01*
X1647190Y1155538D01*
X1621790Y1180938D01*
X1596390D01*
Y1155538D01*
X1621790Y1130138D01*
X1596390Y1104738D01*
Y1079338D01*
X3276600Y2203838D02*
X3302000D01*
X3327400Y2229238D01*
X3352800Y2203838D01*
X3378200D01*
Y2229238D01*
X3352800Y2254638D01*
X3378200Y2280038D01*
Y2305438D01*
X3352800D01*
X3327400Y2280038D01*
X3302000Y2305438D01*
X3276600D01*
Y2280038D01*
X3302000Y2254638D01*
X3276600Y2229238D01*
Y2203838D01*
X2511911Y3058460D02*
X2562711Y3109260D01*
X2613511Y3058460D01*
X2562711Y3007660D01*
X2511911Y3058460D01*
X2279862Y2729056D02*
X2305262D01*
X2330662Y2754456D01*
X2356062Y2729056D01*
X2381462D01*
Y2754456D01*
X2356062Y2779856D01*
X2381462Y2805256D01*
Y2830656D01*
X2356062D01*
X2330662Y2805256D01*
X2305262Y2830656D01*
X2279862D01*
Y2805256D01*
X2305262Y2779856D01*
X2279862Y2754456D01*
Y2729056D01*
Y3059856D02*
X2330662Y3110656D01*
X2381462Y3059856D01*
X2330662Y3009056D01*
X2279862Y3059856D01*
X2393292Y1818640D02*
Y1920240D01*
X2494892D01*
Y1818640D01*
X2393292D01*
X2413612Y1838960D02*
Y1899920D01*
X2474572D01*
Y1838960D01*
X2413612D01*
X2475536Y1818640D02*
Y1920240D01*
X2577136D01*
Y1818640D01*
X2475536D01*
X2495856Y1838960D02*
Y1899920D01*
X2556816D01*
Y1838960D01*
X2495856D01*
X2393292Y1737360D02*
Y1838960D01*
X2494892D01*
Y1737360D01*
X2393292D01*
X2413612Y1757680D02*
Y1818640D01*
X2474572D01*
Y1757680D01*
X2413612D01*
X2489411Y1741770D02*
Y1843370D01*
X2591011D01*
Y1741770D01*
X2489411D01*
X2509731Y1762090D02*
Y1823050D01*
X2570691D01*
Y1762090D01*
X2509731D01*
X1461898Y1694180D02*
X1512698Y1744980D01*
X1563498Y1694180D01*
X1512698Y1643380D01*
X1461898Y1694180D01*
Y1751623D02*
X1512698Y1802423D01*
X1563498Y1751623D01*
X1512698Y1700823D01*
X1461898Y1751623D01*
X1522446D02*
X1573246Y1802423D01*
X1624046Y1751623D01*
X1573246Y1700823D01*
X1522446Y1751623D01*
Y1694180D02*
X1573246Y1744980D01*
X1624046Y1694180D01*
X1573246Y1643380D01*
X1522446Y1694180D01*
X8752660Y1554400D02*
X8778060D01*
X8803460Y1579800D01*
X8828860Y1554400D01*
X8854260D01*
Y1579800D01*
X8828860Y1605200D01*
X8854260Y1630600D01*
Y1656000D01*
X8828860D01*
X8803460Y1630600D01*
X8778060Y1656000D01*
X8752660D01*
Y1630600D01*
X8778060Y1605200D01*
X8752660Y1579800D01*
Y1554400D01*
X8808720Y1555049D02*
X8834120D01*
X8859520Y1580449D01*
X8884920Y1555049D01*
X8910320D01*
Y1580449D01*
X8884920Y1605849D01*
X8910320Y1631249D01*
Y1656649D01*
X8884920D01*
X8859520Y1631249D01*
X8834120Y1656649D01*
X8808720D01*
Y1631249D01*
X8834120Y1605849D01*
X8808720Y1580449D01*
Y1555049D01*
Y1606834D02*
X8834120D01*
X8859520Y1632234D01*
X8884920Y1606834D01*
X8910320D01*
Y1632234D01*
X8884920Y1657634D01*
X8910320Y1683034D01*
Y1708434D01*
X8884920D01*
X8859520Y1683034D01*
X8834120Y1708434D01*
X8808720D01*
Y1683034D01*
X8834120Y1657634D01*
X8808720Y1632234D01*
Y1606834D01*
Y1503263D02*
X8834120D01*
X8859520Y1528663D01*
X8884920Y1503263D01*
X8910320D01*
Y1528663D01*
X8884920Y1554063D01*
X8910320Y1579463D01*
Y1604863D01*
X8884920D01*
X8859520Y1579463D01*
X8834120Y1604863D01*
X8808720D01*
Y1579463D01*
X8834120Y1554063D01*
X8808720Y1528663D01*
Y1503263D01*
X8866960Y1554724D02*
X8892360D01*
X8917760Y1580124D01*
X8943160Y1554724D01*
X8968560D01*
Y1580124D01*
X8943160Y1605524D01*
X8968560Y1630924D01*
Y1656324D01*
X8943160D01*
X8917760Y1630924D01*
X8892360Y1656324D01*
X8866960D01*
Y1630924D01*
X8892360Y1605524D01*
X8866960Y1580124D01*
Y1554724D01*
Y1502939D02*
X8892360D01*
X8917760Y1528339D01*
X8943160Y1502939D01*
X8968560D01*
Y1528339D01*
X8943160Y1553739D01*
X8968560Y1579139D01*
Y1604539D01*
X8943160D01*
X8917760Y1579139D01*
X8892360Y1604539D01*
X8866960D01*
Y1579139D01*
X8892360Y1553739D01*
X8866960Y1528339D01*
Y1502939D01*
X8694420Y1554724D02*
X8719820D01*
X8745220Y1580124D01*
X8770620Y1554724D01*
X8796020D01*
Y1580124D01*
X8770620Y1605524D01*
X8796020Y1630924D01*
Y1656324D01*
X8770620D01*
X8745220Y1630924D01*
X8719820Y1656324D01*
X8694420D01*
Y1630924D01*
X8719820Y1605524D01*
X8694420Y1580124D01*
Y1554724D01*
X8752660Y1606185D02*
X8778060D01*
X8803460Y1631585D01*
X8828860Y1606185D01*
X8854260D01*
Y1631585D01*
X8828860Y1656985D01*
X8854260Y1682385D01*
Y1707785D01*
X8828860D01*
X8803460Y1682385D01*
X8778060Y1707785D01*
X8752660D01*
Y1682385D01*
X8778060Y1656985D01*
X8752660Y1631585D01*
Y1606185D01*
X8694420Y1502939D02*
X8719820D01*
X8745220Y1528339D01*
X8770620Y1502939D01*
X8796020D01*
Y1528339D01*
X8770620Y1553739D01*
X8796020Y1579139D01*
Y1604539D01*
X8770620D01*
X8745220Y1579139D01*
X8719820Y1604539D01*
X8694420D01*
Y1579139D01*
X8719820Y1553739D01*
X8694420Y1528339D01*
Y1502939D01*
X8752660Y1502614D02*
X8778060D01*
X8803460Y1528014D01*
X8828860Y1502614D01*
X8854260D01*
Y1528014D01*
X8828860Y1553414D01*
X8854260Y1578814D01*
Y1604214D01*
X8828860D01*
X8803460Y1578814D01*
X8778060Y1604214D01*
X8752660D01*
Y1578814D01*
X8778060Y1553414D01*
X8752660Y1528014D01*
Y1502614D01*
X8580120Y1554724D02*
X8605520D01*
X8630920Y1580124D01*
X8656320Y1554724D01*
X8681720D01*
Y1580124D01*
X8656320Y1605524D01*
X8681720Y1630924D01*
Y1656324D01*
X8656320D01*
X8630920Y1630924D01*
X8605520Y1656324D01*
X8580120D01*
Y1630924D01*
X8605520Y1605524D01*
X8580120Y1580124D01*
Y1554724D01*
Y1502939D02*
X8605520D01*
X8630920Y1528339D01*
X8656320Y1502939D01*
X8681720D01*
Y1528339D01*
X8656320Y1553739D01*
X8681720Y1579139D01*
Y1604539D01*
X8656320D01*
X8630920Y1579139D01*
X8605520Y1604539D01*
X8580120D01*
Y1579139D01*
X8605520Y1553739D01*
X8580120Y1528339D01*
Y1502939D01*
X8638360Y1554400D02*
X8663760D01*
X8689160Y1579800D01*
X8714560Y1554400D01*
X8739960D01*
Y1579800D01*
X8714560Y1605200D01*
X8739960Y1630600D01*
Y1656000D01*
X8714560D01*
X8689160Y1630600D01*
X8663760Y1656000D01*
X8638360D01*
Y1630600D01*
X8663760Y1605200D01*
X8638360Y1579800D01*
Y1554400D01*
X4581584Y1963040D02*
X4632384Y2013840D01*
X4683184Y1963040D01*
X4632384Y1912240D01*
X4581584Y1963040D01*
X4474856D02*
X4525656Y2013840D01*
X4576456Y1963040D01*
X4525656Y1912240D01*
X4474856Y1963040D01*
X3112200Y2357120D02*
X3163000Y2407920D01*
X3213800Y2357120D01*
X3163000Y2306320D01*
X3112200Y2357120D01*
X2524760Y1306460D02*
X2550160D01*
X2575560Y1331860D01*
X2600960Y1306460D01*
X2626360D01*
Y1331860D01*
X2600960Y1357260D01*
X2626360Y1382660D01*
Y1408060D01*
X2600960D01*
X2575560Y1382660D01*
X2550160Y1408060D01*
X2524760D01*
Y1382660D01*
X2550160Y1357260D01*
X2524760Y1331860D01*
Y1306460D01*
X2553200Y1147500D02*
X2604000Y1198300D01*
X2654800Y1147500D01*
X2604000Y1096700D01*
X2553200Y1147500D01*
X1284100Y1331360D02*
X1334900Y1382160D01*
X1385700Y1331360D01*
X1334900Y1280560D01*
X1284100Y1331360D01*
X7185660Y1488440D02*
X7236460Y1539240D01*
X7287260Y1488440D01*
X7236460Y1437640D01*
X7185660Y1488440D01*
X7109460D02*
X7160260Y1539240D01*
X7211060Y1488440D01*
X7160260Y1437640D01*
X7109460Y1488440D01*
X7185660Y1574800D02*
X7236460Y1625600D01*
X7287260Y1574800D01*
X7236460Y1524000D01*
X7185660Y1574800D01*
X7109460D02*
X7160260Y1625600D01*
X7211060Y1574800D01*
X7160260Y1524000D01*
X7109460Y1574800D01*
X7185660Y1676400D02*
X7236460Y1727200D01*
X7287260Y1676400D01*
X7236460Y1625600D01*
X7185660Y1676400D01*
X7109460D02*
X7160260Y1727200D01*
X7211060Y1676400D01*
X7160260Y1625600D01*
X7109460Y1676400D01*
X7185660Y1762760D02*
X7236460Y1813560D01*
X7287260Y1762760D01*
X7236460Y1711960D01*
X7185660Y1762760D01*
X7109460D02*
X7160260Y1813560D01*
X7211060Y1762760D01*
X7160260Y1711960D01*
X7109460Y1762760D01*
X8295640Y2346035D02*
X8346440Y2396835D01*
X8397240Y2346035D01*
X8346440Y2295235D01*
X8295640Y2346035D01*
X8371840D02*
X8422640Y2396835D01*
X8473440Y2346035D01*
X8422640Y2295235D01*
X8371840Y2346035D01*
X8295640Y2259675D02*
X8346440Y2310475D01*
X8397240Y2259675D01*
X8346440Y2208875D01*
X8295640Y2259675D01*
X8371840D02*
X8422640Y2310475D01*
X8473440Y2259675D01*
X8422640Y2208875D01*
X8371840Y2259675D01*
X3627120Y1234440D02*
X3652520D01*
X3677920Y1259840D01*
X3703320Y1234440D01*
X3728720D01*
Y1259840D01*
X3703320Y1285240D01*
X3728720Y1310640D01*
Y1336040D01*
X3703320D01*
X3677920Y1310640D01*
X3652520Y1336040D01*
X3627120D01*
Y1310640D01*
X3652520Y1285240D01*
X3627120Y1259840D01*
Y1234440D01*
X7731701Y1854356D02*
X7757101D01*
X7782501Y1879756D01*
X7807901Y1854356D01*
X7833301D01*
Y1879756D01*
X7807901Y1905156D01*
X7833301Y1930556D01*
Y1955956D01*
X7807901D01*
X7782501Y1930556D01*
X7757101Y1955956D01*
X7731701D01*
Y1930556D01*
X7757101Y1905156D01*
X7731701Y1879756D01*
Y1854356D01*
X12289200Y1536700D02*
Y1638300D01*
X12390800D01*
Y1536700D01*
X12289200D01*
X12309520Y1557020D02*
Y1617980D01*
X12370480D01*
Y1557020D01*
X12309520D01*
X12934180Y1295660D02*
X12959579D01*
X12984979Y1321060D01*
X13010381Y1295660D01*
X13035780D01*
Y1321060D01*
X13010381Y1346460D01*
X13035780Y1371860D01*
Y1397260D01*
X13010381D01*
X12984979Y1371860D01*
X12959579Y1397260D01*
X12934180D01*
Y1371860D01*
X12959579Y1346460D01*
X12934180Y1321060D01*
Y1295660D01*
X9546008Y2271341D02*
X9571408D01*
X9596808Y2296741D01*
X9622208Y2271341D01*
X9647608D01*
Y2296741D01*
X9622208Y2322141D01*
X9647608Y2347541D01*
Y2372941D01*
X9622208D01*
X9596808Y2347541D01*
X9571408Y2372941D01*
X9546008D01*
Y2347541D01*
X9571408Y2322141D01*
X9546008Y2296741D01*
Y2271341D01*
Y2426698D02*
X9571408D01*
X9596808Y2452098D01*
X9622208Y2426698D01*
X9647608D01*
Y2452098D01*
X9622208Y2477498D01*
X9647608Y2502898D01*
Y2528298D01*
X9622208D01*
X9596808Y2502898D01*
X9571408Y2528298D01*
X9546008D01*
Y2502898D01*
X9571408Y2477498D01*
X9546008Y2452098D01*
Y2426698D01*
Y2374912D02*
X9571408D01*
X9596808Y2400312D01*
X9622208Y2374912D01*
X9647608D01*
Y2400312D01*
X9622208Y2425712D01*
X9647608Y2451112D01*
Y2476512D01*
X9622208D01*
X9596808Y2451112D01*
X9571408Y2476512D01*
X9546008D01*
Y2451112D01*
X9571408Y2425712D01*
X9546008Y2400312D01*
Y2374912D01*
Y2323127D02*
X9571408D01*
X9596808Y2348527D01*
X9622208Y2323127D01*
X9647608D01*
Y2348527D01*
X9622208Y2373927D01*
X9647608Y2399327D01*
Y2424727D01*
X9622208D01*
X9596808Y2399327D01*
X9571408Y2424727D01*
X9546008D01*
Y2399327D01*
X9571408Y2373927D01*
X9546008Y2348527D01*
Y2323127D01*
Y2219556D02*
X9571408D01*
X9596808Y2244956D01*
X9622208Y2219556D01*
X9647608D01*
Y2244956D01*
X9622208Y2270356D01*
X9647608Y2295756D01*
Y2321156D01*
X9622208D01*
X9596808Y2295756D01*
X9571408Y2321156D01*
X9546008D01*
Y2295756D01*
X9571408Y2270356D01*
X9546008Y2244956D01*
Y2219556D01*
X9832848Y2271341D02*
X9858248D01*
X9883648Y2296741D01*
X9909048Y2271341D01*
X9934448D01*
Y2296741D01*
X9909048Y2322141D01*
X9934448Y2347541D01*
Y2372941D01*
X9909048D01*
X9883648Y2347541D01*
X9858248Y2372941D01*
X9832848D01*
Y2347541D01*
X9858248Y2322141D01*
X9832848Y2296741D01*
Y2271341D01*
Y2323127D02*
X9858248D01*
X9883648Y2348527D01*
X9909048Y2323127D01*
X9934448D01*
Y2348527D01*
X9909048Y2373927D01*
X9934448Y2399327D01*
Y2424727D01*
X9909048D01*
X9883648Y2399327D01*
X9858248Y2424727D01*
X9832848D01*
Y2399327D01*
X9858248Y2373927D01*
X9832848Y2348527D01*
Y2323127D01*
Y2426698D02*
X9858248D01*
X9883648Y2452098D01*
X9909048Y2426698D01*
X9934448D01*
Y2452098D01*
X9909048Y2477498D01*
X9934448Y2502898D01*
Y2528298D01*
X9909048D01*
X9883648Y2502898D01*
X9858248Y2528298D01*
X9832848D01*
Y2502898D01*
X9858248Y2477498D01*
X9832848Y2452098D01*
Y2426698D01*
Y2219556D02*
X9858248D01*
X9883648Y2244956D01*
X9909048Y2219556D01*
X9934448D01*
Y2244956D01*
X9909048Y2270356D01*
X9934448Y2295756D01*
Y2321156D01*
X9909048D01*
X9883648Y2295756D01*
X9858248Y2321156D01*
X9832848D01*
Y2295756D01*
X9858248Y2270356D01*
X9832848Y2244956D01*
Y2219556D01*
Y2374912D02*
X9858248D01*
X9883648Y2400312D01*
X9909048Y2374912D01*
X9934448D01*
Y2400312D01*
X9909048Y2425712D01*
X9934448Y2451112D01*
Y2476512D01*
X9909048D01*
X9883648Y2451112D01*
X9858248Y2476512D01*
X9832848D01*
Y2451112D01*
X9858248Y2425712D01*
X9832848Y2400312D01*
Y2374912D01*
X6812280Y1551940D02*
X6863080Y1602740D01*
X6913880Y1551940D01*
X6863080Y1501140D01*
X6812280Y1551940D01*
X7967867Y2297362D02*
X8018667Y2348162D01*
X8069467Y2297362D01*
X8018667Y2246562D01*
X7967867Y2297362D01*
X3680460Y1920240D02*
X3705860D01*
X3731260Y1945640D01*
X3756660Y1920240D01*
X3782060D01*
Y1945640D01*
X3756660Y1971040D01*
X3782060Y1996440D01*
Y2021840D01*
X3756660D01*
X3731260Y1996440D01*
X3705860Y2021840D01*
X3680460D01*
Y1996440D01*
X3705860Y1971040D01*
X3680460Y1945640D01*
Y1920240D01*
X4544060Y2473960D02*
X4569460D01*
X4594860Y2499360D01*
X4620260Y2473960D01*
X4645660D01*
Y2499360D01*
X4620260Y2524760D01*
X4645660Y2550160D01*
Y2575560D01*
X4620260D01*
X4594860Y2550160D01*
X4569460Y2575560D01*
X4544060D01*
Y2550160D01*
X4569460Y2524760D01*
X4544060Y2499360D01*
Y2473960D01*
X4086860Y1379220D02*
X4112260D01*
X4137660Y1404620D01*
X4163060Y1379220D01*
X4188460D01*
Y1404620D01*
X4163060Y1430020D01*
X4188460Y1455420D01*
Y1480820D01*
X4163060D01*
X4137660Y1455420D01*
X4112260Y1480820D01*
X4086860D01*
Y1455420D01*
X4112260Y1430020D01*
X4086860Y1404620D01*
Y1379220D01*
X3224880Y1374140D02*
X3250280D01*
X3275680Y1399540D01*
X3301080Y1374140D01*
X3326480D01*
Y1399540D01*
X3301080Y1424940D01*
X3326480Y1450340D01*
Y1475740D01*
X3301080D01*
X3275680Y1450340D01*
X3250280Y1475740D01*
X3224880D01*
Y1450340D01*
X3250280Y1424940D01*
X3224880Y1399540D01*
Y1374140D01*
X5897881Y1317881D02*
X5923281D01*
X5948681Y1343281D01*
X5974081Y1317881D01*
X5999481D01*
Y1343281D01*
X5974081Y1368681D01*
X5999481Y1394081D01*
Y1419481D01*
X5974081D01*
X5948681Y1394081D01*
X5923281Y1419481D01*
X5897881D01*
Y1394081D01*
X5923281Y1368681D01*
X5897881Y1343281D01*
Y1317881D01*
X6413201Y1399540D02*
X6438601D01*
X6464001Y1424940D01*
X6489401Y1399540D01*
X6514801D01*
Y1424940D01*
X6489401Y1450340D01*
X6514801Y1475740D01*
Y1501140D01*
X6489401D01*
X6464001Y1475740D01*
X6438601Y1501140D01*
X6413201D01*
Y1475740D01*
X6438601Y1450340D01*
X6413201Y1424940D01*
Y1399540D01*
X5698966Y2158674D02*
X5724366D01*
X5749766Y2184074D01*
X5775166Y2158674D01*
X5800566D01*
Y2184074D01*
X5775166Y2209474D01*
X5800566Y2234874D01*
Y2260274D01*
X5775166D01*
X5749766Y2234874D01*
X5724366Y2260274D01*
X5698966D01*
Y2234874D01*
X5724366Y2209474D01*
X5698966Y2184074D01*
Y2158674D01*
X5803106Y2398440D02*
X5828506D01*
X5853906Y2423840D01*
X5879306Y2398440D01*
X5904706D01*
Y2423840D01*
X5879306Y2449240D01*
X5904706Y2474640D01*
Y2500040D01*
X5879306D01*
X5853906Y2474640D01*
X5828506Y2500040D01*
X5803106D01*
Y2474640D01*
X5828506Y2449240D01*
X5803106Y2423840D01*
Y2398440D01*
X3629660Y2530420D02*
X3655060D01*
X3680460Y2555820D01*
X3705860Y2530420D01*
X3731260D01*
Y2555820D01*
X3705860Y2581220D01*
X3731260Y2606620D01*
Y2632020D01*
X3705860D01*
X3680460Y2606620D01*
X3655060Y2632020D01*
X3629660D01*
Y2606620D01*
X3655060Y2581220D01*
X3629660Y2555820D01*
Y2530420D01*
X3662680Y2476500D02*
X3688080D01*
X3713480Y2501900D01*
X3738880Y2476500D01*
X3764280D01*
Y2501900D01*
X3738880Y2527300D01*
X3764280Y2552700D01*
Y2578100D01*
X3738880D01*
X3713480Y2552700D01*
X3688080Y2578100D01*
X3662680D01*
Y2552700D01*
X3688080Y2527300D01*
X3662680Y2501900D01*
Y2476500D01*
X3782060Y2420620D02*
X3807460D01*
X3832860Y2446020D01*
X3858260Y2420620D01*
X3883660D01*
Y2446020D01*
X3858260Y2471420D01*
X3883660Y2496820D01*
Y2522220D01*
X3858260D01*
X3832860Y2496820D01*
X3807460Y2522220D01*
X3782060D01*
Y2496820D01*
X3807460Y2471420D01*
X3782060Y2446020D01*
Y2420620D01*
X1589740Y2913380D02*
X1615140D01*
X1640540Y2938780D01*
X1665940Y2913380D01*
X1691340D01*
Y2938780D01*
X1665940Y2964180D01*
X1691340Y2989580D01*
Y3014980D01*
X1665940D01*
X1640540Y2989580D01*
X1615140Y3014980D01*
X1589740D01*
Y2989580D01*
X1615140Y2964180D01*
X1589740Y2938780D01*
Y2913380D01*
X1397000Y3044480D02*
X1422400D01*
X1447800Y3069880D01*
X1473200Y3044480D01*
X1498600D01*
Y3069880D01*
X1473200Y3095280D01*
X1498600Y3120680D01*
Y3146080D01*
X1473200D01*
X1447800Y3120680D01*
X1422400Y3146080D01*
X1397000D01*
Y3120680D01*
X1422400Y3095280D01*
X1397000Y3069880D01*
Y3044480D01*
Y2785400D02*
X1422400D01*
X1447800Y2810800D01*
X1473200Y2785400D01*
X1498600D01*
Y2810800D01*
X1473200Y2836200D01*
X1498600Y2861600D01*
Y2887000D01*
X1473200D01*
X1447800Y2861600D01*
X1422400Y2887000D01*
X1397000D01*
Y2861600D01*
X1422400Y2836200D01*
X1397000Y2810800D01*
Y2785400D01*
X1203660D02*
X1229060D01*
X1254460Y2810800D01*
X1279860Y2785400D01*
X1305260D01*
Y2810800D01*
X1279860Y2836200D01*
X1305260Y2861600D01*
Y2887000D01*
X1279860D01*
X1254460Y2861600D01*
X1229060Y2887000D01*
X1203660D01*
Y2861600D01*
X1229060Y2836200D01*
X1203660Y2810800D01*
Y2785400D01*
Y3044480D02*
X1229060D01*
X1254460Y3069880D01*
X1279860Y3044480D01*
X1305260D01*
Y3069880D01*
X1279860Y3095280D01*
X1305260Y3120680D01*
Y3146080D01*
X1279860D01*
X1254460Y3120680D01*
X1229060Y3146080D01*
X1203660D01*
Y3120680D01*
X1229060Y3095280D01*
X1203660Y3069880D01*
Y3044480D01*
Y2913380D02*
X1229060D01*
X1254460Y2938780D01*
X1279860Y2913380D01*
X1305260D01*
Y2938780D01*
X1279860Y2964180D01*
X1305260Y2989580D01*
Y3014980D01*
X1279860D01*
X1254460Y2989580D01*
X1229060Y3014980D01*
X1203660D01*
Y2989580D01*
X1229060Y2964180D01*
X1203660Y2938780D01*
Y2913380D01*
X1826260Y1610640D02*
X1851660D01*
X1877060Y1636040D01*
X1902460Y1610640D01*
X1927860D01*
Y1636040D01*
X1902460Y1661440D01*
X1927860Y1686840D01*
Y1712240D01*
X1902460D01*
X1877060Y1686840D01*
X1851660Y1712240D01*
X1826260D01*
Y1686840D01*
X1851660Y1661440D01*
X1826260Y1636040D01*
Y1610640D01*
X2992120Y2572451D02*
X3017520D01*
X3042920Y2597851D01*
X3068320Y2572451D01*
X3093720D01*
Y2597851D01*
X3068320Y2623251D01*
X3093720Y2648651D01*
Y2674051D01*
X3068320D01*
X3042920Y2648651D01*
X3017520Y2674051D01*
X2992120D01*
Y2648651D01*
X3017520Y2623251D01*
X2992120Y2597851D01*
Y2572451D01*
Y2520666D02*
X3017520D01*
X3042920Y2546066D01*
X3068320Y2520666D01*
X3093720D01*
Y2546066D01*
X3068320Y2571466D01*
X3093720Y2596866D01*
Y2622266D01*
X3068320D01*
X3042920Y2596866D01*
X3017520Y2622266D01*
X2992120D01*
Y2596866D01*
X3017520Y2571466D01*
X2992120Y2546066D01*
Y2520666D01*
X2933880Y2520990D02*
X2959280D01*
X2984680Y2546390D01*
X3010080Y2520990D01*
X3035480D01*
Y2546390D01*
X3010080Y2571790D01*
X3035480Y2597190D01*
Y2622590D01*
X3010080D01*
X2984680Y2597190D01*
X2959280Y2622590D01*
X2933880D01*
Y2597190D01*
X2959280Y2571790D01*
X2933880Y2546390D01*
Y2520990D01*
Y2469205D02*
X2959280D01*
X2984680Y2494605D01*
X3010080Y2469205D01*
X3035480D01*
Y2494605D01*
X3010080Y2520005D01*
X3035480Y2545405D01*
Y2570805D01*
X3010080D01*
X2984680Y2545405D01*
X2959280Y2570805D01*
X2933880D01*
Y2545405D01*
X2959280Y2520005D01*
X2933880Y2494605D01*
Y2469205D01*
X2992120Y2468880D02*
X3017520D01*
X3042920Y2494280D01*
X3068320Y2468880D01*
X3093720D01*
Y2494280D01*
X3068320Y2519680D01*
X3093720Y2545080D01*
Y2570480D01*
X3068320D01*
X3042920Y2545080D01*
X3017520Y2570480D01*
X2992120D01*
Y2545080D01*
X3017520Y2519680D01*
X2992120Y2494280D01*
Y2468880D01*
X2933880Y2572776D02*
X2959280D01*
X2984680Y2598176D01*
X3010080Y2572776D01*
X3035480D01*
Y2598176D01*
X3010080Y2623576D01*
X3035480Y2648976D01*
Y2674376D01*
X3010080D01*
X2984680Y2648976D01*
X2959280Y2674376D01*
X2933880D01*
Y2648976D01*
X2959280Y2623576D01*
X2933880Y2598176D01*
Y2572776D01*
X2087880Y1965960D02*
Y2067560D01*
X2189480D01*
Y1965960D01*
X2087880D01*
X2108200Y1986280D02*
Y2047240D01*
X2169160D01*
Y1986280D01*
X2108200D01*
X2199200Y1693024D02*
Y1794624D01*
X2300800D01*
Y1693024D01*
X2199200D01*
X2219520Y1713344D02*
Y1774304D01*
X2280480D01*
Y1713344D01*
X2219520D01*
X1826260Y1698640D02*
X1851660D01*
X1877060Y1724040D01*
X1902460Y1698640D01*
X1927860D01*
Y1724040D01*
X1902460Y1749440D01*
X1927860Y1774840D01*
Y1800240D01*
X1902460D01*
X1877060Y1774840D01*
X1851660Y1800240D01*
X1826260D01*
Y1774840D01*
X1851660Y1749440D01*
X1826260Y1724040D01*
Y1698640D01*
X1589740Y2785400D02*
X1615140D01*
X1640540Y2810800D01*
X1665940Y2785400D01*
X1691340D01*
Y2810800D01*
X1665940Y2836200D01*
X1691340Y2861600D01*
Y2887000D01*
X1665940D01*
X1640540Y2861600D01*
X1615140Y2887000D01*
X1589740D01*
Y2861600D01*
X1615140Y2836200D01*
X1589740Y2810800D01*
Y2785400D01*
Y3044480D02*
X1615140D01*
X1640540Y3069880D01*
X1665940Y3044480D01*
X1691340D01*
Y3069880D01*
X1665940Y3095280D01*
X1691340Y3120680D01*
Y3146080D01*
X1665940D01*
X1640540Y3120680D01*
X1615140Y3146080D01*
X1589740D01*
Y3120680D01*
X1615140Y3095280D01*
X1589740Y3069880D01*
Y3044480D01*
X1397000Y2913380D02*
X1422400D01*
X1447800Y2938780D01*
X1473200Y2913380D01*
X1498600D01*
Y2938780D01*
X1473200Y2964180D01*
X1498600Y2989580D01*
Y3014980D01*
X1473200D01*
X1447800Y2989580D01*
X1422400Y3014980D01*
X1397000D01*
Y2989580D01*
X1422400Y2964180D01*
X1397000Y2938780D01*
Y2913380D01*
X7336440Y1372380D02*
X7361840D01*
X7387240Y1397780D01*
X7412640Y1372380D01*
X7438040D01*
Y1397780D01*
X7412640Y1423180D01*
X7438040Y1448580D01*
Y1473980D01*
X7412640D01*
X7387240Y1448580D01*
X7361840Y1473980D01*
X7336440D01*
Y1448580D01*
X7361840Y1423180D01*
X7336440Y1397780D01*
Y1372380D01*
X7731700Y1484200D02*
X7757100D01*
X7782500Y1509600D01*
X7807900Y1484200D01*
X7833300D01*
Y1509600D01*
X7807900Y1535000D01*
X7833300Y1560400D01*
Y1585800D01*
X7807900D01*
X7782500Y1560400D01*
X7757100Y1585800D01*
X7731700D01*
Y1560400D01*
X7757100Y1535000D01*
X7731700Y1509600D01*
Y1484200D01*
X7678420Y1432560D02*
X7703820D01*
X7729220Y1457960D01*
X7754620Y1432560D01*
X7780020D01*
Y1457960D01*
X7754620Y1483360D01*
X7780020Y1508760D01*
Y1534160D01*
X7754620D01*
X7729220Y1508760D01*
X7703820Y1534160D01*
X7678420D01*
Y1508760D01*
X7703820Y1483360D01*
X7678420Y1457960D01*
Y1432560D01*
X7786556Y1539240D02*
X7811956D01*
X7837356Y1564640D01*
X7862756Y1539240D01*
X7888156D01*
Y1564640D01*
X7862756Y1590040D01*
X7888156Y1615440D01*
Y1640840D01*
X7862756D01*
X7837356Y1615440D01*
X7811956Y1640840D01*
X7786556D01*
Y1615440D01*
X7811956Y1590040D01*
X7786556Y1564640D01*
Y1539240D01*
X7677598D02*
X7702998D01*
X7728398Y1564640D01*
X7753798Y1539240D01*
X7779198D01*
Y1564640D01*
X7753798Y1590040D01*
X7779198Y1615440D01*
Y1640840D01*
X7753798D01*
X7728398Y1615440D01*
X7702998Y1640840D01*
X7677598D01*
Y1615440D01*
X7702998Y1590040D01*
X7677598Y1564640D01*
Y1539240D01*
X4903679Y2978932D02*
X4929079D01*
X4954479Y3004332D01*
X4979879Y2978932D01*
X5005279D01*
Y3004332D01*
X4979879Y3029732D01*
X5005279Y3055132D01*
Y3080532D01*
X4979879D01*
X4954479Y3055132D01*
X4929079Y3080532D01*
X4903679D01*
Y3055132D01*
X4929079Y3029732D01*
X4903679Y3004332D01*
Y2978932D01*
X4789379D02*
X4814779D01*
X4840179Y3004332D01*
X4865579Y2978932D01*
X4890979D01*
Y3004332D01*
X4865579Y3029732D01*
X4890979Y3055132D01*
Y3080532D01*
X4865579D01*
X4840179Y3055132D01*
X4814779Y3080532D01*
X4789379D01*
Y3055132D01*
X4814779Y3029732D01*
X4789379Y3004332D01*
Y2978932D01*
X4675079D02*
X4700479D01*
X4725879Y3004332D01*
X4751279Y2978932D01*
X4776679D01*
Y3004332D01*
X4751279Y3029732D01*
X4776679Y3055132D01*
Y3080532D01*
X4751279D01*
X4725879Y3055132D01*
X4700479Y3080532D01*
X4675079D01*
Y3055132D01*
X4700479Y3029732D01*
X4675079Y3004332D01*
Y2978932D01*
X4134200Y2889200D02*
X4159600D01*
X4185000Y2914600D01*
X4210400Y2889200D01*
X4235800D01*
Y2914600D01*
X4210400Y2940000D01*
X4235800Y2965400D01*
Y2990800D01*
X4210400D01*
X4185000Y2965400D01*
X4159600Y2990800D01*
X4134200D01*
Y2965400D01*
X4159600Y2940000D01*
X4134200Y2914600D01*
Y2889200D01*
X4103200Y3016700D02*
X4128600D01*
X4154000Y3042100D01*
X4179400Y3016700D01*
X4204800D01*
Y3042100D01*
X4179400Y3067500D01*
X4204800Y3092900D01*
Y3118300D01*
X4179400D01*
X4154000Y3092900D01*
X4128600Y3118300D01*
X4103200D01*
Y3092900D01*
X4128600Y3067500D01*
X4103200Y3042100D01*
Y3016700D01*
X3319200Y2636200D02*
X3344600D01*
X3370000Y2661600D01*
X3395400Y2636200D01*
X3420800D01*
Y2661600D01*
X3395400Y2687000D01*
X3420800Y2712400D01*
Y2737800D01*
X3395400D01*
X3370000Y2712400D01*
X3344600Y2737800D01*
X3319200D01*
Y2712400D01*
X3344600Y2687000D01*
X3319200Y2661600D01*
Y2636200D01*
X2996700Y2764200D02*
X3022100D01*
X3047500Y2789600D01*
X3072900Y2764200D01*
X3098300D01*
Y2789600D01*
X3072900Y2815000D01*
X3098300Y2840400D01*
Y2865800D01*
X3072900D01*
X3047500Y2840400D01*
X3022100Y2865800D01*
X2996700D01*
Y2840400D01*
X3022100Y2815000D01*
X2996700Y2789600D01*
Y2764200D01*
Y2889200D02*
X3022100D01*
X3047500Y2914600D01*
X3072900Y2889200D01*
X3098300D01*
Y2914600D01*
X3072900Y2940000D01*
X3098300Y2965400D01*
Y2990800D01*
X3072900D01*
X3047500Y2965400D01*
X3022100Y2990800D01*
X2996700D01*
Y2965400D01*
X3022100Y2940000D01*
X2996700Y2914600D01*
Y2889200D01*
Y3017200D02*
X3022100D01*
X3047500Y3042600D01*
X3072900Y3017200D01*
X3098300D01*
Y3042600D01*
X3072900Y3068000D01*
X3098300Y3093400D01*
Y3118800D01*
X3072900D01*
X3047500Y3093400D01*
X3022100Y3118800D01*
X2996700D01*
Y3093400D01*
X3022100Y3068000D01*
X2996700Y3042600D01*
Y3017200D01*
X2021840Y1318260D02*
X2047240D01*
X2072640Y1343660D01*
X2098040Y1318260D01*
X2123440D01*
Y1343660D01*
X2098040Y1369060D01*
X2123440Y1394460D01*
Y1419860D01*
X2098040D01*
X2072640Y1394460D01*
X2047240Y1419860D01*
X2021840D01*
Y1394460D01*
X2047240Y1369060D01*
X2021840Y1343660D01*
Y1318260D01*
X6545580Y2245299D02*
X6570980D01*
X6596380Y2270699D01*
X6621780Y2245299D01*
X6647180D01*
Y2270699D01*
X6621780Y2296099D01*
X6647180Y2321499D01*
Y2346899D01*
X6621780D01*
X6596380Y2321499D01*
X6570980Y2346899D01*
X6545580D01*
Y2321499D01*
X6570980Y2296099D01*
X6545580Y2270699D01*
Y2245299D01*
X6601640Y2142377D02*
X6627040D01*
X6652440Y2167777D01*
X6677840Y2142377D01*
X6703240D01*
Y2167777D01*
X6677840Y2193177D01*
X6703240Y2218577D01*
Y2243977D01*
X6677840D01*
X6652440Y2218577D01*
X6627040Y2243977D01*
X6601640D01*
Y2218577D01*
X6627040Y2193177D01*
X6601640Y2167777D01*
Y2142377D01*
Y2245948D02*
X6627040D01*
X6652440Y2271348D01*
X6677840Y2245948D01*
X6703240D01*
Y2271348D01*
X6677840Y2296748D01*
X6703240Y2322148D01*
Y2347548D01*
X6677840D01*
X6652440Y2322148D01*
X6627040Y2347548D01*
X6601640D01*
Y2322148D01*
X6627040Y2296748D01*
X6601640Y2271348D01*
Y2245948D01*
Y2297733D02*
X6627040D01*
X6652440Y2323133D01*
X6677840Y2297733D01*
X6703240D01*
Y2323133D01*
X6677840Y2348533D01*
X6703240Y2373933D01*
Y2399333D01*
X6677840D01*
X6652440Y2373933D01*
X6627040Y2399333D01*
X6601640D01*
Y2373933D01*
X6627040Y2348533D01*
X6601640Y2323133D01*
Y2297733D01*
X6659880Y2297409D02*
X6685280D01*
X6710680Y2322809D01*
X6736080Y2297409D01*
X6761480D01*
Y2322809D01*
X6736080Y2348209D01*
X6761480Y2373609D01*
Y2399009D01*
X6736080D01*
X6710680Y2373609D01*
X6685280Y2399009D01*
X6659880D01*
Y2373609D01*
X6685280Y2348209D01*
X6659880Y2322809D01*
Y2297409D01*
Y2142052D02*
X6685280D01*
X6710680Y2167452D01*
X6736080Y2142052D01*
X6761480D01*
Y2167452D01*
X6736080Y2192852D01*
X6761480Y2218252D01*
Y2243652D01*
X6736080D01*
X6710680Y2218252D01*
X6685280Y2243652D01*
X6659880D01*
Y2218252D01*
X6685280Y2192852D01*
X6659880Y2167452D01*
Y2142052D01*
Y2349194D02*
X6685280D01*
X6710680Y2374594D01*
X6736080Y2349194D01*
X6761480D01*
Y2374594D01*
X6736080Y2399994D01*
X6761480Y2425394D01*
Y2450794D01*
X6736080D01*
X6710680Y2425394D01*
X6685280Y2450794D01*
X6659880D01*
Y2425394D01*
X6685280Y2399994D01*
X6659880Y2374594D01*
Y2349194D01*
X6601640Y2349519D02*
X6627040D01*
X6652440Y2374919D01*
X6677840Y2349519D01*
X6703240D01*
Y2374919D01*
X6677840Y2400319D01*
X6703240Y2425719D01*
Y2451119D01*
X6677840D01*
X6652440Y2425719D01*
X6627040Y2451119D01*
X6601640D01*
Y2425719D01*
X6627040Y2400319D01*
X6601640Y2374919D01*
Y2349519D01*
Y2194162D02*
X6627040D01*
X6652440Y2219562D01*
X6677840Y2194162D01*
X6703240D01*
Y2219562D01*
X6677840Y2244962D01*
X6703240Y2270362D01*
Y2295762D01*
X6677840D01*
X6652440Y2270362D01*
X6627040Y2295762D01*
X6601640D01*
Y2270362D01*
X6627040Y2244962D01*
X6601640Y2219562D01*
Y2194162D01*
X6659880Y2245623D02*
X6685280D01*
X6710680Y2271023D01*
X6736080Y2245623D01*
X6761480D01*
Y2271023D01*
X6736080Y2296423D01*
X6761480Y2321823D01*
Y2347223D01*
X6736080D01*
X6710680Y2321823D01*
X6685280Y2347223D01*
X6659880D01*
Y2321823D01*
X6685280Y2296423D01*
X6659880Y2271023D01*
Y2245623D01*
Y2193838D02*
X6685280D01*
X6710680Y2219238D01*
X6736080Y2193838D01*
X6761480D01*
Y2219238D01*
X6736080Y2244638D01*
X6761480Y2270038D01*
Y2295438D01*
X6736080D01*
X6710680Y2270038D01*
X6685280Y2295438D01*
X6659880D01*
Y2270038D01*
X6685280Y2244638D01*
X6659880Y2219238D01*
Y2193838D01*
X6487340Y2142052D02*
X6512740D01*
X6538140Y2167452D01*
X6563540Y2142052D01*
X6588940D01*
Y2167452D01*
X6563540Y2192852D01*
X6588940Y2218252D01*
Y2243652D01*
X6563540D01*
X6538140Y2218252D01*
X6512740Y2243652D01*
X6487340D01*
Y2218252D01*
X6512740Y2192852D01*
X6487340Y2167452D01*
Y2142052D01*
Y2245623D02*
X6512740D01*
X6538140Y2271023D01*
X6563540Y2245623D01*
X6588940D01*
Y2271023D01*
X6563540Y2296423D01*
X6588940Y2321823D01*
Y2347223D01*
X6563540D01*
X6538140Y2321823D01*
X6512740Y2347223D01*
X6487340D01*
Y2321823D01*
X6512740Y2296423D01*
X6487340Y2271023D01*
Y2245623D01*
Y2297409D02*
X6512740D01*
X6538140Y2322809D01*
X6563540Y2297409D01*
X6588940D01*
Y2322809D01*
X6563540Y2348209D01*
X6588940Y2373609D01*
Y2399009D01*
X6563540D01*
X6538140Y2373609D01*
X6512740Y2399009D01*
X6487340D01*
Y2373609D01*
X6512740Y2348209D01*
X6487340Y2322809D01*
Y2297409D01*
X6545580Y2297084D02*
X6570980D01*
X6596380Y2322484D01*
X6621780Y2297084D01*
X6647180D01*
Y2322484D01*
X6621780Y2347884D01*
X6647180Y2373284D01*
Y2398684D01*
X6621780D01*
X6596380Y2373284D01*
X6570980Y2398684D01*
X6545580D01*
Y2373284D01*
X6570980Y2347884D01*
X6545580Y2322484D01*
Y2297084D01*
Y2141727D02*
X6570980D01*
X6596380Y2167127D01*
X6621780Y2141727D01*
X6647180D01*
Y2167127D01*
X6621780Y2192527D01*
X6647180Y2217927D01*
Y2243327D01*
X6621780D01*
X6596380Y2217927D01*
X6570980Y2243327D01*
X6545580D01*
Y2217927D01*
X6570980Y2192527D01*
X6545580Y2167127D01*
Y2141727D01*
Y2348870D02*
X6570980D01*
X6596380Y2374270D01*
X6621780Y2348870D01*
X6647180D01*
Y2374270D01*
X6621780Y2399670D01*
X6647180Y2425070D01*
Y2450470D01*
X6621780D01*
X6596380Y2425070D01*
X6570980Y2450470D01*
X6545580D01*
Y2425070D01*
X6570980Y2399670D01*
X6545580Y2374270D01*
Y2348870D01*
X6487340Y2349194D02*
X6512740D01*
X6538140Y2374594D01*
X6563540Y2349194D01*
X6588940D01*
Y2374594D01*
X6563540Y2399994D01*
X6588940Y2425394D01*
Y2450794D01*
X6563540D01*
X6538140Y2425394D01*
X6512740Y2450794D01*
X6487340D01*
Y2425394D01*
X6512740Y2399994D01*
X6487340Y2374594D01*
Y2349194D01*
Y2193838D02*
X6512740D01*
X6538140Y2219238D01*
X6563540Y2193838D01*
X6588940D01*
Y2219238D01*
X6563540Y2244638D01*
X6588940Y2270038D01*
Y2295438D01*
X6563540D01*
X6538140Y2270038D01*
X6512740Y2295438D01*
X6487340D01*
Y2270038D01*
X6512740Y2244638D01*
X6487340Y2219238D01*
Y2193838D01*
X6545580Y2193513D02*
X6570980D01*
X6596380Y2218913D01*
X6621780Y2193513D01*
X6647180D01*
Y2218913D01*
X6621780Y2244313D01*
X6647180Y2269713D01*
Y2295113D01*
X6621780D01*
X6596380Y2269713D01*
X6570980Y2295113D01*
X6545580D01*
Y2269713D01*
X6570980Y2244313D01*
X6545580Y2218913D01*
Y2193513D01*
X6373040Y2142052D02*
X6398440D01*
X6423840Y2167452D01*
X6449240Y2142052D01*
X6474640D01*
Y2167452D01*
X6449240Y2192852D01*
X6474640Y2218252D01*
Y2243652D01*
X6449240D01*
X6423840Y2218252D01*
X6398440Y2243652D01*
X6373040D01*
Y2218252D01*
X6398440Y2192852D01*
X6373040Y2167452D01*
Y2142052D01*
Y2245623D02*
X6398440D01*
X6423840Y2271023D01*
X6449240Y2245623D01*
X6474640D01*
Y2271023D01*
X6449240Y2296423D01*
X6474640Y2321823D01*
Y2347223D01*
X6449240D01*
X6423840Y2321823D01*
X6398440Y2347223D01*
X6373040D01*
Y2321823D01*
X6398440Y2296423D01*
X6373040Y2271023D01*
Y2245623D01*
Y2297409D02*
X6398440D01*
X6423840Y2322809D01*
X6449240Y2297409D01*
X6474640D01*
Y2322809D01*
X6449240Y2348209D01*
X6474640Y2373609D01*
Y2399009D01*
X6449240D01*
X6423840Y2373609D01*
X6398440Y2399009D01*
X6373040D01*
Y2373609D01*
X6398440Y2348209D01*
X6373040Y2322809D01*
Y2297409D01*
X6431280Y2297084D02*
X6456680D01*
X6482080Y2322484D01*
X6507480Y2297084D01*
X6532880D01*
Y2322484D01*
X6507480Y2347884D01*
X6532880Y2373284D01*
Y2398684D01*
X6507480D01*
X6482080Y2373284D01*
X6456680Y2398684D01*
X6431280D01*
Y2373284D01*
X6456680Y2347884D01*
X6431280Y2322484D01*
Y2297084D01*
Y2141727D02*
X6456680D01*
X6482080Y2167127D01*
X6507480Y2141727D01*
X6532880D01*
Y2167127D01*
X6507480Y2192527D01*
X6532880Y2217927D01*
Y2243327D01*
X6507480D01*
X6482080Y2217927D01*
X6456680Y2243327D01*
X6431280D01*
Y2217927D01*
X6456680Y2192527D01*
X6431280Y2167127D01*
Y2141727D01*
Y2348870D02*
X6456680D01*
X6482080Y2374270D01*
X6507480Y2348870D01*
X6532880D01*
Y2374270D01*
X6507480Y2399670D01*
X6532880Y2425070D01*
Y2450470D01*
X6507480D01*
X6482080Y2425070D01*
X6456680Y2450470D01*
X6431280D01*
Y2425070D01*
X6456680Y2399670D01*
X6431280Y2374270D01*
Y2348870D01*
X6373040Y2349194D02*
X6398440D01*
X6423840Y2374594D01*
X6449240Y2349194D01*
X6474640D01*
Y2374594D01*
X6449240Y2399994D01*
X6474640Y2425394D01*
Y2450794D01*
X6449240D01*
X6423840Y2425394D01*
X6398440Y2450794D01*
X6373040D01*
Y2425394D01*
X6398440Y2399994D01*
X6373040Y2374594D01*
Y2349194D01*
Y2193838D02*
X6398440D01*
X6423840Y2219238D01*
X6449240Y2193838D01*
X6474640D01*
Y2219238D01*
X6449240Y2244638D01*
X6474640Y2270038D01*
Y2295438D01*
X6449240D01*
X6423840Y2270038D01*
X6398440Y2295438D01*
X6373040D01*
Y2270038D01*
X6398440Y2244638D01*
X6373040Y2219238D01*
Y2193838D01*
X6431280Y2245299D02*
X6456680D01*
X6482080Y2270699D01*
X6507480Y2245299D01*
X6532880D01*
Y2270699D01*
X6507480Y2296099D01*
X6532880Y2321499D01*
Y2346899D01*
X6507480D01*
X6482080Y2321499D01*
X6456680Y2346899D01*
X6431280D01*
Y2321499D01*
X6456680Y2296099D01*
X6431280Y2270699D01*
Y2245299D01*
Y2193513D02*
X6456680D01*
X6482080Y2218913D01*
X6507480Y2193513D01*
X6532880D01*
Y2218913D01*
X6507480Y2244313D01*
X6532880Y2269713D01*
Y2295113D01*
X6507480D01*
X6482080Y2269713D01*
X6456680Y2295113D01*
X6431280D01*
Y2269713D01*
X6456680Y2244313D01*
X6431280Y2218913D01*
Y2193513D01*
X2466520Y2390465D02*
X2491920D01*
X2517320Y2415865D01*
X2542720Y2390465D01*
X2568120D01*
Y2415865D01*
X2542720Y2441265D01*
X2568120Y2466665D01*
Y2492065D01*
X2542720D01*
X2517320Y2466665D01*
X2491920Y2492065D01*
X2466520D01*
Y2466665D01*
X2491920Y2441265D01*
X2466520Y2415865D01*
Y2390465D01*
X2524760Y2286569D02*
X2550160D01*
X2575560Y2311969D01*
X2600960Y2286569D01*
X2626360D01*
Y2311969D01*
X2600960Y2337369D01*
X2626360Y2362769D01*
Y2388169D01*
X2600960D01*
X2575560Y2362769D01*
X2550160Y2388169D01*
X2524760D01*
Y2362769D01*
X2550160Y2337369D01*
X2524760Y2311969D01*
Y2286569D01*
X2466520Y2286894D02*
X2491920D01*
X2517320Y2312294D01*
X2542720Y2286894D01*
X2568120D01*
Y2312294D01*
X2542720Y2337694D01*
X2568120Y2363094D01*
Y2388494D01*
X2542720D01*
X2517320Y2363094D01*
X2491920Y2388494D01*
X2466520D01*
Y2363094D01*
X2491920Y2337694D01*
X2466520Y2312294D01*
Y2286894D01*
Y2338679D02*
X2491920D01*
X2517320Y2364079D01*
X2542720Y2338679D01*
X2568120D01*
Y2364079D01*
X2542720Y2389479D01*
X2568120Y2414879D01*
Y2440279D01*
X2542720D01*
X2517320Y2414879D01*
X2491920Y2440279D01*
X2466520D01*
Y2414879D01*
X2491920Y2389479D01*
X2466520Y2364079D01*
Y2338679D01*
X2524760Y2338354D02*
X2550160D01*
X2575560Y2363754D01*
X2600960Y2338354D01*
X2626360D01*
Y2363754D01*
X2600960Y2389154D01*
X2626360Y2414554D01*
Y2439954D01*
X2600960D01*
X2575560Y2414554D01*
X2550160Y2439954D01*
X2524760D01*
Y2414554D01*
X2550160Y2389154D01*
X2524760Y2363754D01*
Y2338354D01*
Y2390140D02*
X2550160D01*
X2575560Y2415540D01*
X2600960Y2390140D01*
X2626360D01*
Y2415540D01*
X2600960Y2440940D01*
X2626360Y2466340D01*
Y2491740D01*
X2600960D01*
X2575560Y2466340D01*
X2550160Y2491740D01*
X2524760D01*
Y2466340D01*
X2550160Y2440940D01*
X2524760Y2415540D01*
Y2390140D01*
X2196400Y2174240D02*
X2221800D01*
X2247200Y2199640D01*
X2272600Y2174240D01*
X2298000D01*
Y2199640D01*
X2272600Y2225040D01*
X2298000Y2250440D01*
Y2275840D01*
X2272600D01*
X2247200Y2250440D01*
X2221800Y2275840D01*
X2196400D01*
Y2250440D01*
X2221800Y2225040D01*
X2196400Y2199640D01*
Y2174240D01*
X1581851D02*
X1632651Y2225040D01*
X1683451Y2174240D01*
X1632651Y2123440D01*
X1581851Y2174240D01*
X1522446D02*
X1573246Y2225040D01*
X1624046Y2174240D01*
X1573246Y2123440D01*
X1522446Y2174240D01*
Y2107220D02*
X1573246Y2158020D01*
X1624046Y2107220D01*
X1573246Y2056420D01*
X1522446Y2107220D01*
X1463040D02*
X1513840Y2158020D01*
X1564640Y2107220D01*
X1513840Y2056420D01*
X1463040Y2107220D01*
Y2174240D02*
X1513840Y2225040D01*
X1564640Y2174240D01*
X1513840Y2123440D01*
X1463040Y2174240D01*
X1581851Y2107220D02*
X1632651Y2158020D01*
X1683451Y2107220D01*
X1632651Y2056420D01*
X1581851Y2107220D01*
X13957300Y2001520D02*
X14008099Y2052320D01*
X14058900Y2001520D01*
X14008099Y1950720D01*
X13957300Y2001520D01*
X13892300D02*
X13943100Y2052320D01*
X13993900Y2001520D01*
X13943100Y1950720D01*
X13892300Y2001520D01*
X13627100D02*
X13677901Y2052320D01*
X13728700Y2001520D01*
X13677901Y1950720D01*
X13627100Y2001520D01*
X13562100D02*
X13612900Y2052320D01*
X13663699Y2001520D01*
X13612900Y1950720D01*
X13562100Y2001520D01*
Y1821520D02*
X13612900Y1872320D01*
X13663699Y1821520D01*
X13612900Y1770720D01*
X13562100Y1821520D01*
X13627100D02*
X13677901Y1872320D01*
X13728700Y1821520D01*
X13677901Y1770720D01*
X13627100Y1821520D01*
X13892300D02*
X13943100Y1872320D01*
X13993900Y1821520D01*
X13943100Y1770720D01*
X13892300Y1821520D01*
X13957300D02*
X14008099Y1872320D01*
X14058900Y1821520D01*
X14008099Y1770720D01*
X13957300Y1821520D01*
X4490720Y2532885D02*
X4516120D01*
X4541520Y2558285D01*
X4566920Y2532885D01*
X4592320D01*
Y2558285D01*
X4566920Y2583685D01*
X4592320Y2609085D01*
Y2634485D01*
X4566920D01*
X4541520Y2609085D01*
X4516120Y2634485D01*
X4490720D01*
Y2609085D01*
X4516120Y2583685D01*
X4490720Y2558285D01*
Y2532885D01*
X2834460Y2416018D02*
X2859860D01*
X2885260Y2441418D01*
X2910660Y2416018D01*
X2936060D01*
Y2441418D01*
X2910660Y2466818D01*
X2936060Y2492218D01*
Y2517618D01*
X2910660D01*
X2885260Y2492218D01*
X2859860Y2517618D01*
X2834460D01*
Y2492218D01*
X2859860Y2466818D01*
X2834460Y2441418D01*
Y2416018D01*
Y2467803D02*
X2859860D01*
X2885260Y2493203D01*
X2910660Y2467803D01*
X2936060D01*
Y2493203D01*
X2910660Y2518603D01*
X2936060Y2544003D01*
Y2569403D01*
X2910660D01*
X2885260Y2544003D01*
X2859860Y2569403D01*
X2834460D01*
Y2544003D01*
X2859860Y2518603D01*
X2834460Y2493203D01*
Y2467803D01*
X2776220Y2416342D02*
X2801620D01*
X2827020Y2441742D01*
X2852420Y2416342D01*
X2877820D01*
Y2441742D01*
X2852420Y2467142D01*
X2877820Y2492542D01*
Y2517942D01*
X2852420D01*
X2827020Y2492542D01*
X2801620Y2517942D01*
X2776220D01*
Y2492542D01*
X2801620Y2467142D01*
X2776220Y2441742D01*
Y2416342D01*
X2694940D02*
X2720340D01*
X2745740Y2441742D01*
X2771140Y2416342D01*
X2796540D01*
Y2441742D01*
X2771140Y2467142D01*
X2796540Y2492542D01*
Y2517942D01*
X2771140D01*
X2745740Y2492542D01*
X2720340Y2517942D01*
X2694940D01*
Y2492542D01*
X2720340Y2467142D01*
X2694940Y2441742D01*
Y2416342D01*
Y2468128D02*
X2720340D01*
X2745740Y2493528D01*
X2771140Y2468128D01*
X2796540D01*
Y2493528D01*
X2771140Y2518928D01*
X2796540Y2544328D01*
Y2569728D01*
X2771140D01*
X2745740Y2544328D01*
X2720340Y2569728D01*
X2694940D01*
Y2544328D01*
X2720340Y2518928D01*
X2694940Y2493528D01*
Y2468128D01*
X2636700Y2416667D02*
X2662100D01*
X2687500Y2442067D01*
X2712900Y2416667D01*
X2738300D01*
Y2442067D01*
X2712900Y2467467D01*
X2738300Y2492867D01*
Y2518267D01*
X2712900D01*
X2687500Y2492867D01*
X2662100Y2518267D01*
X2636700D01*
Y2492867D01*
X2662100Y2467467D01*
X2636700Y2442067D01*
Y2416667D01*
X2776220Y2571699D02*
X2801620D01*
X2827020Y2597099D01*
X2852420Y2571699D01*
X2877820D01*
Y2597099D01*
X2852420Y2622499D01*
X2877820Y2647899D01*
Y2673299D01*
X2852420D01*
X2827020Y2647899D01*
X2801620Y2673299D01*
X2776220D01*
Y2647899D01*
X2801620Y2622499D01*
X2776220Y2597099D01*
Y2571699D01*
X2834460Y2571374D02*
X2859860D01*
X2885260Y2596774D01*
X2910660Y2571374D01*
X2936060D01*
Y2596774D01*
X2910660Y2622174D01*
X2936060Y2647574D01*
Y2672974D01*
X2910660D01*
X2885260Y2647574D01*
X2859860Y2672974D01*
X2834460D01*
Y2647574D01*
X2859860Y2622174D01*
X2834460Y2596774D01*
Y2571374D01*
Y2519589D02*
X2859860D01*
X2885260Y2544989D01*
X2910660Y2519589D01*
X2936060D01*
Y2544989D01*
X2910660Y2570389D01*
X2936060Y2595789D01*
Y2621189D01*
X2910660D01*
X2885260Y2595789D01*
X2859860Y2621189D01*
X2834460D01*
Y2595789D01*
X2859860Y2570389D01*
X2834460Y2544989D01*
Y2519589D01*
X2776220Y2519913D02*
X2801620D01*
X2827020Y2545313D01*
X2852420Y2519913D01*
X2877820D01*
Y2545313D01*
X2852420Y2570713D01*
X2877820Y2596113D01*
Y2621513D01*
X2852420D01*
X2827020Y2596113D01*
X2801620Y2621513D01*
X2776220D01*
Y2596113D01*
X2801620Y2570713D01*
X2776220Y2545313D01*
Y2519913D01*
X2636700Y2572023D02*
X2662100D01*
X2687500Y2597423D01*
X2712900Y2572023D01*
X2738300D01*
Y2597423D01*
X2712900Y2622823D01*
X2738300Y2648223D01*
Y2673623D01*
X2712900D01*
X2687500Y2648223D01*
X2662100Y2673623D01*
X2636700D01*
Y2648223D01*
X2662100Y2622823D01*
X2636700Y2597423D01*
Y2572023D01*
X2694940Y2571699D02*
X2720340D01*
X2745740Y2597099D01*
X2771140Y2571699D01*
X2796540D01*
Y2597099D01*
X2771140Y2622499D01*
X2796540Y2647899D01*
Y2673299D01*
X2771140D01*
X2745740Y2647899D01*
X2720340Y2673299D01*
X2694940D01*
Y2647899D01*
X2720340Y2622499D01*
X2694940Y2597099D01*
Y2571699D01*
X4933180Y2675336D02*
X4958580D01*
X4983980Y2700736D01*
X5009380Y2675336D01*
X5034780D01*
Y2700736D01*
X5009380Y2726136D01*
X5034780Y2751536D01*
Y2776936D01*
X5009380D01*
X4983980Y2751536D01*
X4958580Y2776936D01*
X4933180D01*
Y2751536D01*
X4958580Y2726136D01*
X4933180Y2700736D01*
Y2675336D01*
X2776220Y2209200D02*
X2801620D01*
X2827020Y2234600D01*
X2852420Y2209200D01*
X2877820D01*
Y2234600D01*
X2852420Y2260000D01*
X2877820Y2285400D01*
Y2310800D01*
X2852420D01*
X2827020Y2285400D01*
X2801620Y2310800D01*
X2776220D01*
Y2285400D01*
X2801620Y2260000D01*
X2776220Y2234600D01*
Y2209200D01*
Y2260986D02*
X2801620D01*
X2827020Y2286386D01*
X2852420Y2260986D01*
X2877820D01*
Y2286386D01*
X2852420Y2311786D01*
X2877820Y2337186D01*
Y2362586D01*
X2852420D01*
X2827020Y2337186D01*
X2801620Y2362586D01*
X2776220D01*
Y2337186D01*
X2801620Y2311786D01*
X2776220Y2286386D01*
Y2260986D01*
Y2312771D02*
X2801620D01*
X2827020Y2338171D01*
X2852420Y2312771D01*
X2877820D01*
Y2338171D01*
X2852420Y2363571D01*
X2877820Y2388971D01*
Y2414371D01*
X2852420D01*
X2827020Y2388971D01*
X2801620Y2414371D01*
X2776220D01*
Y2388971D01*
X2801620Y2363571D01*
X2776220Y2338171D01*
Y2312771D01*
Y2364557D02*
X2801620D01*
X2827020Y2389957D01*
X2852420Y2364557D01*
X2877820D01*
Y2389957D01*
X2852420Y2415357D01*
X2877820Y2440757D01*
Y2466157D01*
X2852420D01*
X2827020Y2440757D01*
X2801620Y2466157D01*
X2776220D01*
Y2440757D01*
X2801620Y2415357D01*
X2776220Y2389957D01*
Y2364557D01*
Y2468128D02*
X2801620D01*
X2827020Y2493528D01*
X2852420Y2468128D01*
X2877820D01*
Y2493528D01*
X2852420Y2518928D01*
X2877820Y2544328D01*
Y2569728D01*
X2852420D01*
X2827020Y2544328D01*
X2801620Y2569728D01*
X2776220D01*
Y2544328D01*
X2801620Y2518928D01*
X2776220Y2493528D01*
Y2468128D01*
X2834460Y2364232D02*
X2859860D01*
X2885260Y2389632D01*
X2910660Y2364232D01*
X2936060D01*
Y2389632D01*
X2910660Y2415032D01*
X2936060Y2440432D01*
Y2465832D01*
X2910660D01*
X2885260Y2440432D01*
X2859860Y2465832D01*
X2834460D01*
Y2440432D01*
X2859860Y2415032D01*
X2834460Y2389632D01*
Y2364232D01*
Y2312446D02*
X2859860D01*
X2885260Y2337846D01*
X2910660Y2312446D01*
X2936060D01*
Y2337846D01*
X2910660Y2363246D01*
X2936060Y2388646D01*
Y2414046D01*
X2910660D01*
X2885260Y2388646D01*
X2859860Y2414046D01*
X2834460D01*
Y2388646D01*
X2859860Y2363246D01*
X2834460Y2337846D01*
Y2312446D01*
Y2260661D02*
X2859860D01*
X2885260Y2286061D01*
X2910660Y2260661D01*
X2936060D01*
Y2286061D01*
X2910660Y2311461D01*
X2936060Y2336861D01*
Y2362261D01*
X2910660D01*
X2885260Y2336861D01*
X2859860Y2362261D01*
X2834460D01*
Y2336861D01*
X2859860Y2311461D01*
X2834460Y2286061D01*
Y2260661D01*
Y2208875D02*
X2859860D01*
X2885260Y2234275D01*
X2910660Y2208875D01*
X2936060D01*
Y2234275D01*
X2910660Y2259675D01*
X2936060Y2285075D01*
Y2310475D01*
X2910660D01*
X2885260Y2285075D01*
X2859860Y2310475D01*
X2834460D01*
Y2285075D01*
X2859860Y2259675D01*
X2834460Y2234275D01*
Y2208875D01*
X2694940Y2209200D02*
X2720340D01*
X2745740Y2234600D01*
X2771140Y2209200D01*
X2796540D01*
Y2234600D01*
X2771140Y2260000D01*
X2796540Y2285400D01*
Y2310800D01*
X2771140D01*
X2745740Y2285400D01*
X2720340Y2310800D01*
X2694940D01*
Y2285400D01*
X2720340Y2260000D01*
X2694940Y2234600D01*
Y2209200D01*
Y2260986D02*
X2720340D01*
X2745740Y2286386D01*
X2771140Y2260986D01*
X2796540D01*
Y2286386D01*
X2771140Y2311786D01*
X2796540Y2337186D01*
Y2362586D01*
X2771140D01*
X2745740Y2337186D01*
X2720340Y2362586D01*
X2694940D01*
Y2337186D01*
X2720340Y2311786D01*
X2694940Y2286386D01*
Y2260986D01*
Y2312771D02*
X2720340D01*
X2745740Y2338171D01*
X2771140Y2312771D01*
X2796540D01*
Y2338171D01*
X2771140Y2363571D01*
X2796540Y2388971D01*
Y2414371D01*
X2771140D01*
X2745740Y2388971D01*
X2720340Y2414371D01*
X2694940D01*
Y2388971D01*
X2720340Y2363571D01*
X2694940Y2338171D01*
Y2312771D01*
Y2364557D02*
X2720340D01*
X2745740Y2389957D01*
X2771140Y2364557D01*
X2796540D01*
Y2389957D01*
X2771140Y2415357D01*
X2796540Y2440757D01*
Y2466157D01*
X2771140D01*
X2745740Y2440757D01*
X2720340Y2466157D01*
X2694940D01*
Y2440757D01*
X2720340Y2415357D01*
X2694940Y2389957D01*
Y2364557D01*
Y2519913D02*
X2720340D01*
X2745740Y2545313D01*
X2771140Y2519913D01*
X2796540D01*
Y2545313D01*
X2771140Y2570713D01*
X2796540Y2596113D01*
Y2621513D01*
X2771140D01*
X2745740Y2596113D01*
X2720340Y2621513D01*
X2694940D01*
Y2596113D01*
X2720340Y2570713D01*
X2694940Y2545313D01*
Y2519913D01*
X2268960Y1770380D02*
Y1871980D01*
X2370560D01*
Y1770380D01*
X2268960D01*
X2289280Y1790700D02*
Y1851660D01*
X2350240D01*
Y1790700D01*
X2289280D01*
X2636700Y2520238D02*
X2662100D01*
X2687500Y2545638D01*
X2712900Y2520238D01*
X2738300D01*
Y2545638D01*
X2712900Y2571038D01*
X2738300Y2596438D01*
Y2621838D01*
X2712900D01*
X2687500Y2596438D01*
X2662100Y2621838D01*
X2636700D01*
Y2596438D01*
X2662100Y2571038D01*
X2636700Y2545638D01*
Y2520238D01*
Y2468452D02*
X2662100D01*
X2687500Y2493852D01*
X2712900Y2468452D01*
X2738300D01*
Y2493852D01*
X2712900Y2519252D01*
X2738300Y2544652D01*
Y2570052D01*
X2712900D01*
X2687500Y2544652D01*
X2662100Y2570052D01*
X2636700D01*
Y2544652D01*
X2662100Y2519252D01*
X2636700Y2493852D01*
Y2468452D01*
Y2364881D02*
X2662100D01*
X2687500Y2390281D01*
X2712900Y2364881D01*
X2738300D01*
Y2390281D01*
X2712900Y2415681D01*
X2738300Y2441081D01*
Y2466481D01*
X2712900D01*
X2687500Y2441081D01*
X2662100Y2466481D01*
X2636700D01*
Y2441081D01*
X2662100Y2415681D01*
X2636700Y2390281D01*
Y2364881D01*
Y2313096D02*
X2662100D01*
X2687500Y2338496D01*
X2712900Y2313096D01*
X2738300D01*
Y2338496D01*
X2712900Y2363896D01*
X2738300Y2389296D01*
Y2414696D01*
X2712900D01*
X2687500Y2389296D01*
X2662100Y2414696D01*
X2636700D01*
Y2389296D01*
X2662100Y2363896D01*
X2636700Y2338496D01*
Y2313096D01*
Y2261310D02*
X2662100D01*
X2687500Y2286710D01*
X2712900Y2261310D01*
X2738300D01*
Y2286710D01*
X2712900Y2312110D01*
X2738300Y2337510D01*
Y2362910D01*
X2712900D01*
X2687500Y2337510D01*
X2662100Y2362910D01*
X2636700D01*
Y2337510D01*
X2662100Y2312110D01*
X2636700Y2286710D01*
Y2261310D01*
Y2209525D02*
X2662100D01*
X2687500Y2234925D01*
X2712900Y2209525D01*
X2738300D01*
Y2234925D01*
X2712900Y2260325D01*
X2738300Y2285725D01*
Y2311125D01*
X2712900D01*
X2687500Y2285725D01*
X2662100Y2311125D01*
X2636700D01*
Y2285725D01*
X2662100Y2260325D01*
X2636700Y2234925D01*
Y2209525D01*
X4479421Y1823893D02*
X4504821D01*
X4530221Y1849293D01*
X4555621Y1823893D01*
X4581021D01*
Y1849293D01*
X4555621Y1874693D01*
X4581021Y1900093D01*
Y1925493D01*
X4555621D01*
X4530221Y1900093D01*
X4504821Y1925493D01*
X4479421D01*
Y1900093D01*
X4504821Y1874693D01*
X4479421Y1849293D01*
Y1823893D01*
X2196400Y1323000D02*
X2221800D01*
X2247200Y1348400D01*
X2272600Y1323000D01*
X2298000D01*
Y1348400D01*
X2272600Y1373800D01*
X2298000Y1399200D01*
Y1424600D01*
X2272600D01*
X2247200Y1399200D01*
X2221800Y1424600D01*
X2196400D01*
Y1399200D01*
X2221800Y1373800D01*
X2196400Y1348400D01*
Y1323000D01*
X7806700Y1759200D02*
X7832100D01*
X7857500Y1784600D01*
X7882900Y1759200D01*
X7908300D01*
Y1784600D01*
X7882900Y1810000D01*
X7908300Y1835400D01*
Y1860800D01*
X7882900D01*
X7857500Y1835400D01*
X7832100Y1860800D01*
X7806700D01*
Y1835400D01*
X7832100Y1810000D01*
X7806700Y1784600D01*
Y1759200D01*
X8022020Y1518260D02*
X8047420D01*
X8072820Y1543660D01*
X8098220Y1518260D01*
X8123620D01*
Y1543660D01*
X8098220Y1569060D01*
X8123620Y1594460D01*
Y1619860D01*
X8098220D01*
X8072820Y1594460D01*
X8047420Y1619860D01*
X8022020D01*
Y1594460D01*
X8047420Y1569060D01*
X8022020Y1543660D01*
Y1518260D01*
X7348980Y1737024D02*
X7374380D01*
X7399780Y1762424D01*
X7425180Y1737024D01*
X7450580D01*
Y1762424D01*
X7425180Y1787824D01*
X7450580Y1813224D01*
Y1838624D01*
X7425180D01*
X7399780Y1813224D01*
X7374380Y1838624D01*
X7348980D01*
Y1813224D01*
X7374380Y1787824D01*
X7348980Y1762424D01*
Y1737024D01*
X13554120Y2595000D02*
X13604919Y2645800D01*
X13655721Y2595000D01*
X13604919Y2544200D01*
X13554120Y2595000D01*
Y2472300D02*
X13604919Y2523100D01*
X13655721Y2472300D01*
X13604919Y2421500D01*
X13554120Y2472300D01*
X13481700Y2595000D02*
X13532500Y2645800D01*
X13583299Y2595000D01*
X13532500Y2544200D01*
X13481700Y2595000D01*
Y2472300D02*
X13532500Y2523100D01*
X13583299Y2472300D01*
X13532500Y2421500D01*
X13481700Y2472300D01*
X13554120Y2722500D02*
X13604919Y2773300D01*
X13655721Y2722500D01*
X13604919Y2671700D01*
X13554120Y2722500D01*
X13481700D02*
X13532500Y2773300D01*
X13583299Y2722500D01*
X13532500Y2671700D01*
X13481700Y2722500D01*
X13554120Y2847500D02*
X13604919Y2898300D01*
X13655721Y2847500D01*
X13604919Y2796700D01*
X13554120Y2847500D01*
X13481700Y2850000D02*
X13532500Y2900800D01*
X13583299Y2850000D01*
X13532500Y2799200D01*
X13481700Y2850000D01*
X13296660Y2342600D02*
X13347459Y2393400D01*
X13398260Y2342600D01*
X13347459Y2291800D01*
X13296660Y2342600D01*
Y2416724D02*
X13347459Y2467524D01*
X13398260Y2416724D01*
X13347459Y2365924D01*
X13296660Y2416724D01*
X13169200Y2342600D02*
X13220000Y2393400D01*
X13270799Y2342600D01*
X13220000Y2291800D01*
X13169200Y2342600D01*
Y2415000D02*
X13220000Y2465800D01*
X13270799Y2415000D01*
X13220000Y2364200D01*
X13169200Y2415000D01*
X13042900Y2342600D02*
X13093700Y2393400D01*
X13144501Y2342600D01*
X13093700Y2291800D01*
X13042900Y2342600D01*
X13044160Y2415000D02*
X13094960Y2465800D01*
X13145760Y2415000D01*
X13094960Y2364200D01*
X13044160Y2415000D01*
X11064700Y2370000D02*
X11115500Y2420800D01*
X11166300Y2370000D01*
X11115500Y2319200D01*
X11064700Y2370000D01*
X10937700D02*
X10988500Y2420800D01*
X11039300Y2370000D01*
X10988500Y2319200D01*
X10937700Y2370000D01*
X11001200Y2400319D02*
X11052000Y2451119D01*
X11102800Y2400319D01*
X11052000Y2349519D01*
X11001200Y2400319D01*
X11191700Y2370000D02*
X11242500Y2420800D01*
X11293300Y2370000D01*
X11242500Y2319200D01*
X11191700Y2370000D01*
X11001200Y2342600D02*
X11052000Y2393400D01*
X11102800Y2342600D01*
X11052000Y2291800D01*
X11001200Y2342600D01*
X10654200Y2786000D02*
X10705000Y2836800D01*
X10755800Y2786000D01*
X10705000Y2735200D01*
X10654200Y2786000D01*
Y2913000D02*
X10705000Y2963800D01*
X10755800Y2913000D01*
X10705000Y2862200D01*
X10654200Y2913000D01*
X4716980Y1290726D02*
X4742380D01*
X4767780Y1316126D01*
X4793180Y1290726D01*
X4818580D01*
Y1316126D01*
X4793180Y1341526D01*
X4818580Y1366926D01*
Y1392326D01*
X4793180D01*
X4767780Y1366926D01*
X4742380Y1392326D01*
X4716980D01*
Y1366926D01*
X4742380Y1341526D01*
X4716980Y1316126D01*
Y1290726D01*
X4493584Y1500539D02*
X4518984D01*
X4544384Y1525939D01*
X4569784Y1500539D01*
X4595184D01*
Y1525939D01*
X4569784Y1551339D01*
X4595184Y1576739D01*
Y1602139D01*
X4569784D01*
X4544384Y1576739D01*
X4518984Y1602139D01*
X4493584D01*
Y1576739D01*
X4518984Y1551339D01*
X4493584Y1525939D01*
Y1500539D01*
X12561340Y2537460D02*
X12612140Y2588260D01*
X12662940Y2537460D01*
X12612140Y2486660D01*
X12561340Y2537460D01*
Y2717460D02*
X12612140Y2768260D01*
X12662940Y2717460D01*
X12612140Y2666660D01*
X12561340Y2717460D01*
Y2597460D02*
X12612140Y2648260D01*
X12662940Y2597460D01*
X12612140Y2546660D01*
X12561340Y2597460D01*
Y2657460D02*
X12612140Y2708260D01*
X12662940Y2657460D01*
X12612140Y2606660D01*
X12561340Y2657460D01*
X12626340D02*
X12677140Y2708260D01*
X12727940Y2657460D01*
X12677140Y2606660D01*
X12626340Y2657460D01*
Y2537460D02*
X12677140Y2588260D01*
X12727940Y2537460D01*
X12677140Y2486660D01*
X12626340Y2537460D01*
Y2597460D02*
X12677140Y2648260D01*
X12727940Y2597460D01*
X12677140Y2546660D01*
X12626340Y2597460D01*
Y2717460D02*
X12677140Y2768260D01*
X12727940Y2717460D01*
X12677140Y2666660D01*
X12626340Y2717460D01*
X11549380Y2537460D02*
X11600180Y2588260D01*
X11650980Y2537460D01*
X11600180Y2486660D01*
X11549380Y2537460D01*
Y2717460D02*
X11600180Y2768260D01*
X11650980Y2717460D01*
X11600180Y2666660D01*
X11549380Y2717460D01*
Y2597460D02*
X11600180Y2648260D01*
X11650980Y2597460D01*
X11600180Y2546660D01*
X11549380Y2597460D01*
Y2657460D02*
X11600180Y2708260D01*
X11650980Y2657460D01*
X11600180Y2606660D01*
X11549380Y2657460D01*
X11614380D02*
X11665180Y2708260D01*
X11715980Y2657460D01*
X11665180Y2606660D01*
X11614380Y2657460D01*
Y2537460D02*
X11665180Y2588260D01*
X11715980Y2537460D01*
X11665180Y2486660D01*
X11614380Y2537460D01*
Y2597460D02*
X11665180Y2648260D01*
X11715980Y2597460D01*
X11665180Y2546660D01*
X11614380Y2597460D01*
Y2717460D02*
X11665180Y2768260D01*
X11715980Y2717460D01*
X11665180Y2666660D01*
X11614380Y2717460D01*
X13116560Y1162500D02*
X13167360Y1213300D01*
X13218159Y1162500D01*
X13167360Y1111700D01*
X13116560Y1162500D01*
X13236560D02*
X13287360Y1213300D01*
X13338161Y1162500D01*
X13287360Y1111700D01*
X13236560Y1162500D01*
X13176559D02*
X13227361Y1213300D01*
X13278160Y1162500D01*
X13227361Y1111700D01*
X13176559Y1162500D01*
Y1227500D02*
X13227361Y1278300D01*
X13278160Y1227500D01*
X13227361Y1176700D01*
X13176559Y1227500D01*
X13116560D02*
X13167360Y1278300D01*
X13218159Y1227500D01*
X13167360Y1176700D01*
X13116560Y1227500D01*
X13892300Y1881520D02*
X13943100Y1932320D01*
X13993900Y1881520D01*
X13943100Y1830720D01*
X13892300Y1881520D01*
Y1941520D02*
X13943100Y1992320D01*
X13993900Y1941520D01*
X13943100Y1890720D01*
X13892300Y1941520D01*
X13957300D02*
X14008099Y1992320D01*
X14058900Y1941520D01*
X14008099Y1890720D01*
X13957300Y1941520D01*
Y1881520D02*
X14008099Y1932320D01*
X14058900Y1881520D01*
X14008099Y1830720D01*
X13957300Y1881520D01*
X13562100D02*
X13612900Y1932320D01*
X13663699Y1881520D01*
X13612900Y1830720D01*
X13562100Y1881520D01*
Y1941520D02*
X13612900Y1992320D01*
X13663699Y1941520D01*
X13612900Y1890720D01*
X13562100Y1941520D01*
X13627100D02*
X13677901Y1992320D01*
X13728700Y1941520D01*
X13677901Y1890720D01*
X13627100Y1941520D01*
Y1881520D02*
X13677901Y1932320D01*
X13728700Y1881520D01*
X13677901Y1830720D01*
X13627100Y1881520D01*
X10654200Y2659000D02*
X10705000Y2709800D01*
X10755800Y2659000D01*
X10705000Y2608200D01*
X10654200Y2659000D01*
X10612120Y2970814D02*
X10662920Y3021614D01*
X10713720Y2970814D01*
X10662920Y2920014D01*
X10612120Y2970814D01*
X10609580Y2849880D02*
X10660380Y2900680D01*
X10711180Y2849880D01*
X10660380Y2799080D01*
X10609580Y2849880D01*
X8171700Y2302500D02*
X8222500Y2353300D01*
X8273300Y2302500D01*
X8222500Y2251700D01*
X8171700Y2302500D01*
X11489200Y1187004D02*
X11514600D01*
X11540000Y1212404D01*
X11565400Y1187004D01*
X11590800D01*
Y1212404D01*
X11565400Y1237804D01*
X11590800Y1263204D01*
Y1288604D01*
X11565400D01*
X11540000Y1263204D01*
X11514600Y1288604D01*
X11489200D01*
Y1263204D01*
X11514600Y1237804D01*
X11489200Y1212404D01*
Y1187004D01*
X10727809Y1176700D02*
X10753209D01*
X10778609Y1202100D01*
X10804009Y1176700D01*
X10829409D01*
Y1202100D01*
X10804009Y1227500D01*
X10829409Y1252900D01*
Y1278300D01*
X10804009D01*
X10778609Y1252900D01*
X10753209Y1278300D01*
X10727809D01*
Y1252900D01*
X10753209Y1227500D01*
X10727809Y1202100D01*
Y1176700D01*
X12934200Y1418020D02*
X12959599D01*
X12984999Y1443420D01*
X13010399Y1418020D01*
X13035799D01*
Y1443420D01*
X13010399Y1468820D01*
X13035799Y1494220D01*
Y1519620D01*
X13010399D01*
X12984999Y1494220D01*
X12959599Y1519620D01*
X12934200D01*
Y1494220D01*
X12959599Y1468820D01*
X12934200Y1443420D01*
Y1418020D01*
X10729200Y1296700D02*
X10754600D01*
X10780000Y1322100D01*
X10805400Y1296700D01*
X10830800D01*
Y1322100D01*
X10805400Y1347500D01*
X10830800Y1372900D01*
Y1398300D01*
X10805400D01*
X10780000Y1372900D01*
X10754600Y1398300D01*
X10729200D01*
Y1372900D01*
X10754600Y1347500D01*
X10729200Y1322100D01*
Y1296700D01*
X4581584Y1824240D02*
X4606984D01*
X4632384Y1849640D01*
X4657784Y1824240D01*
X4683184D01*
Y1849640D01*
X4657784Y1875040D01*
X4683184Y1900440D01*
Y1925840D01*
X4657784D01*
X4632384Y1900440D01*
X4606984Y1925840D01*
X4581584D01*
Y1900440D01*
X4606984Y1875040D01*
X4581584Y1849640D01*
Y1824240D01*
X4950160Y1863380D02*
X4975560D01*
X5000960Y1888780D01*
X5026360Y1863380D01*
X5051760D01*
Y1888780D01*
X5026360Y1914180D01*
X5051760Y1939580D01*
Y1964980D01*
X5026360D01*
X5000960Y1939580D01*
X4975560Y1964980D01*
X4950160D01*
Y1939580D01*
X4975560Y1914180D01*
X4950160Y1888780D01*
Y1863380D01*
X5000160Y1938340D02*
X5025560D01*
X5050960Y1963740D01*
X5076360Y1938340D01*
X5101760D01*
Y1963740D01*
X5076360Y1989140D01*
X5101760Y2014540D01*
Y2039940D01*
X5076360D01*
X5050960Y2014540D01*
X5025560Y2039940D01*
X5000160D01*
Y2014540D01*
X5025560Y1989140D01*
X5000160Y1963740D01*
Y1938340D01*
X2055000Y1644200D02*
X2004200Y1745800D01*
X2105800D01*
X2055000Y1644200D01*
Y1664520D02*
X2024520Y1725480D01*
X2085480D01*
X2055000Y1664520D01*
Y2279200D02*
X2004200Y2380800D01*
X2105800D01*
X2055000Y2279200D01*
Y2299520D02*
X2024520Y2360480D01*
X2085480D01*
X2055000Y2299520D01*
X4803180Y2085336D02*
X4828580D01*
X4853980Y2110736D01*
X4879380Y2085336D01*
X4904780D01*
Y2110736D01*
X4879380Y2136136D01*
X4904780Y2161536D01*
Y2186936D01*
X4879380D01*
X4853980Y2161536D01*
X4828580Y2186936D01*
X4803180D01*
Y2161536D01*
X4828580Y2136136D01*
X4803180Y2110736D01*
Y2085336D01*
X4739340Y2084757D02*
X4764740D01*
X4790140Y2110157D01*
X4815540Y2084757D01*
X4840940D01*
Y2110157D01*
X4815540Y2135557D01*
X4840940Y2160957D01*
Y2186357D01*
X4815540D01*
X4790140Y2160957D01*
X4764740Y2186357D01*
X4739340D01*
Y2160957D01*
X4764740Y2135557D01*
X4739340Y2110157D01*
Y2084757D01*
X4866340Y1978980D02*
X4891740D01*
X4917140Y2004380D01*
X4942540Y1978980D01*
X4967940D01*
Y2004380D01*
X4942540Y2029780D01*
X4967940Y2055180D01*
Y2080580D01*
X4942540D01*
X4917140Y2055180D01*
X4891740Y2080580D01*
X4866340D01*
Y2055180D01*
X4891740Y2029780D01*
X4866340Y2004380D01*
Y1978980D01*
X5244544Y2248303D02*
X5269944D01*
X5295344Y2273703D01*
X5320744Y2248303D01*
X5346144D01*
Y2273703D01*
X5320744Y2299103D01*
X5346144Y2324503D01*
Y2349903D01*
X5320744D01*
X5295344Y2324503D01*
X5269944Y2349903D01*
X5244544D01*
Y2324503D01*
X5269944Y2299103D01*
X5244544Y2273703D01*
Y2248303D01*
X12086700Y1396700D02*
X12112100D01*
X12137500Y1422100D01*
X12162900Y1396700D01*
X12188300D01*
Y1422100D01*
X12162900Y1447500D01*
X12188300Y1472900D01*
Y1498300D01*
X12162900D01*
X12137500Y1472900D01*
X12112100Y1498300D01*
X12086700D01*
Y1472900D01*
X12112100Y1447500D01*
X12086700Y1422100D01*
Y1396700D01*
X4738180Y2675336D02*
X4763580D01*
X4788980Y2700736D01*
X4814380Y2675336D01*
X4839780D01*
Y2700736D01*
X4814380Y2726136D01*
X4839780Y2751536D01*
Y2776936D01*
X4814380D01*
X4788980Y2751536D01*
X4763580Y2776936D01*
X4738180D01*
Y2751536D01*
X4763580Y2726136D01*
X4738180Y2700736D01*
Y2675336D01*
X4413180Y2673436D02*
X4438580D01*
X4463980Y2698836D01*
X4489380Y2673436D01*
X4514780D01*
Y2698836D01*
X4489380Y2724236D01*
X4514780Y2749636D01*
Y2775036D01*
X4489380D01*
X4463980Y2749636D01*
X4438580Y2775036D01*
X4413180D01*
Y2749636D01*
X4438580Y2724236D01*
X4413180Y2698836D01*
Y2673436D01*
X4840160Y1733380D02*
X4865560D01*
X4890960Y1758780D01*
X4916360Y1733380D01*
X4941760D01*
Y1758780D01*
X4916360Y1784180D01*
X4941760Y1809580D01*
Y1834980D01*
X4916360D01*
X4890960Y1809580D01*
X4865560Y1834980D01*
X4840160D01*
Y1809580D01*
X4865560Y1784180D01*
X4840160Y1758780D01*
Y1733380D01*
X4950160D02*
X4975560D01*
X5000960Y1758780D01*
X5026360Y1733380D01*
X5051760D01*
Y1758780D01*
X5026360Y1784180D01*
X5051760Y1809580D01*
Y1834980D01*
X5026360D01*
X5000960Y1809580D01*
X4975560Y1834980D01*
X4950160D01*
Y1809580D01*
X4975560Y1784180D01*
X4950160Y1758780D01*
Y1733380D01*
X5060160D02*
X5085560D01*
X5110960Y1758780D01*
X5136360Y1733380D01*
X5161760D01*
Y1758780D01*
X5136360Y1784180D01*
X5161760Y1809580D01*
Y1834980D01*
X5136360D01*
X5110960Y1809580D01*
X5085560Y1834980D01*
X5060160D01*
Y1809580D01*
X5085560Y1784180D01*
X5060160Y1758780D01*
Y1733380D01*
X4840160Y1623380D02*
X4865560D01*
X4890960Y1648780D01*
X4916360Y1623380D01*
X4941760D01*
Y1648780D01*
X4916360Y1674180D01*
X4941760Y1699580D01*
Y1724980D01*
X4916360D01*
X4890960Y1699580D01*
X4865560Y1724980D01*
X4840160D01*
Y1699580D01*
X4865560Y1674180D01*
X4840160Y1648780D01*
Y1623380D01*
X4950160D02*
X4975560D01*
X5000960Y1648780D01*
X5026360Y1623380D01*
X5051760D01*
Y1648780D01*
X5026360Y1674180D01*
X5051760Y1699580D01*
Y1724980D01*
X5026360D01*
X5000960Y1699580D01*
X4975560Y1724980D01*
X4950160D01*
Y1699580D01*
X4975560Y1674180D01*
X4950160Y1648780D01*
Y1623380D01*
X5060160D02*
X5085560D01*
X5110960Y1648780D01*
X5136360Y1623380D01*
X5161760D01*
Y1648780D01*
X5136360Y1674180D01*
X5161760Y1699580D01*
Y1724980D01*
X5136360D01*
X5110960Y1699580D01*
X5085560Y1724980D01*
X5060160D01*
Y1699580D01*
X5085560Y1674180D01*
X5060160Y1648780D01*
Y1623380D01*
X4840160Y1513380D02*
X4865560D01*
X4890960Y1538780D01*
X4916360Y1513380D01*
X4941760D01*
Y1538780D01*
X4916360Y1564180D01*
X4941760Y1589580D01*
Y1614980D01*
X4916360D01*
X4890960Y1589580D01*
X4865560Y1614980D01*
X4840160D01*
Y1589580D01*
X4865560Y1564180D01*
X4840160Y1538780D01*
Y1513380D01*
X4950160D02*
X4975560D01*
X5000960Y1538780D01*
X5026360Y1513380D01*
X5051760D01*
Y1538780D01*
X5026360Y1564180D01*
X5051760Y1589580D01*
Y1614980D01*
X5026360D01*
X5000960Y1589580D01*
X4975560Y1614980D01*
X4950160D01*
Y1589580D01*
X4975560Y1564180D01*
X4950160Y1538780D01*
Y1513380D01*
X5060160D02*
X5085560D01*
X5110960Y1538780D01*
X5136360Y1513380D01*
X5161760D01*
Y1538780D01*
X5136360Y1564180D01*
X5161760Y1589580D01*
Y1614980D01*
X5136360D01*
X5110960Y1589580D01*
X5085560Y1614980D01*
X5060160D01*
Y1589580D01*
X5085560Y1564180D01*
X5060160Y1538780D01*
Y1513380D01*
D230*
X1675880Y2399077D02*
G03*
X1675880Y2399077I-50800J0D01*
G01*
X1360880D02*
G03*
X1360880Y2399077I-50800J0D01*
G01*
X1675880Y1469077D02*
G03*
X1675880Y1469077I-50800J0D01*
G01*
X1360880D02*
G03*
X1360880Y1469077I-50800J0D01*
G01*
X1245880Y1799077D02*
G03*
X1245880Y1799077I-50800J0D01*
G01*
Y2069077D02*
G03*
X1245880Y2069077I-50800J0D01*
G01*
X1610880Y2274077D02*
G03*
X1610880Y2274077I-50800J0D01*
G01*
Y1594077D02*
G03*
X1610880Y1594077I-50800J0D01*
G01*
D231*
X1225560Y1799077D02*
G03*
X1225560Y1799077I-30480J0D01*
G01*
Y2069077D02*
G03*
X1225560Y2069077I-30480J0D01*
G01*
X1590560Y2274077D02*
G03*
X1590560Y2274077I-30480J0D01*
G01*
Y1594077D02*
G03*
X1590560Y1594077I-30480J0D01*
G01*
%TF.MD5,523cb32db3277564a670229f5ea6b908*%
M02*
