%TF.GenerationSoftware,Altium Limited,Altium Designer,19.0.15 (446)*%
G04 Layer_Physical_Order=3*
G04 Layer_Color=16440176*
%FSLAX26Y26*%
%MOIN*%
%TF.FileFunction,Copper,L3,Inr,Signal*%
%TF.Part,Single*%
G01*
G75*
%TA.AperFunction,ComponentPad*%
G04:AMPARAMS|DCode=65|XSize=39.37mil|YSize=90.551mil|CornerRadius=19.685mil|HoleSize=0mil|Usage=FLASHONLY|Rotation=270.000|XOffset=0mil|YOffset=0mil|HoleType=Round|Shape=RoundedRectangle|*
%AMROUNDEDRECTD65*
21,1,0.039370,0.051181,0,0,270.0*
21,1,0.000000,0.090551,0,0,270.0*
1,1,0.039370,-0.025591,0.000000*
1,1,0.039370,-0.025591,0.000000*
1,1,0.039370,0.025591,0.000000*
1,1,0.039370,0.025591,0.000000*
%
%ADD65ROUNDEDRECTD65*%
%ADD66C,0.059843*%
%ADD67C,0.050000*%
%ADD68R,0.059843X0.059843*%
%TA.AperFunction,ViaPad*%
%ADD69C,0.060000*%
%ADD70C,0.098425*%
%TA.AperFunction,ComponentPad*%
%ADD71C,0.093504*%
%ADD72C,0.033465*%
%ADD73O,0.090551X0.078740*%
%ADD74C,0.060000*%
%ADD75C,0.118110*%
%ADD76C,0.018000*%
%TA.AperFunction,ViaPad*%
%ADD77C,0.018000*%
%ADD78C,0.023622*%
%ADD79C,0.032000*%
G36*
X5399898Y1244421D02*
X5402567Y1240527D01*
X5402607Y1235542D01*
Y1181472D01*
X5402600D01*
X5403785Y1172468D01*
X5407260Y1164079D01*
X5412788Y1156874D01*
X5419993Y1151346D01*
X5428383Y1147871D01*
X5436435Y1146811D01*
X5437425Y1146614D01*
X5468921D01*
X5469989Y1146826D01*
X5477924Y1147871D01*
X5486314Y1151346D01*
X5493519Y1156874D01*
X5499047Y1164079D01*
X5502522Y1172468D01*
X5503628Y1180871D01*
X5503740Y1181432D01*
Y1240290D01*
X5503779Y1240487D01*
X5503779D01*
X5506448Y1244382D01*
X5508054Y1245047D01*
X5508291Y1245000D01*
X5984669D01*
X5984906Y1245047D01*
X5987963Y1243781D01*
X5989229Y1240725D01*
X5989182Y1240487D01*
Y413716D01*
X5989186Y413696D01*
X5989182Y413677D01*
X5989182D01*
X5986512Y409782D01*
X5984906Y409117D01*
X5984669Y409164D01*
X5508291D01*
X5508049Y409116D01*
X5504968Y410392D01*
X5503691Y413473D01*
X5503740Y413716D01*
Y472771D01*
X5503747D01*
X5502560Y481784D01*
X5499081Y490184D01*
X5493547Y497396D01*
X5486334Y502931D01*
X5477935Y506410D01*
X5468921Y507596D01*
Y507589D01*
X5468921Y507589D01*
X5437425D01*
Y507596D01*
X5428412Y506410D01*
X5420012Y502931D01*
X5412800Y497396D01*
X5407266Y490184D01*
X5403786Y481784D01*
X5402600Y472771D01*
X5402607D01*
Y413716D01*
X5402656Y413467D01*
X5401967Y411802D01*
X5398059Y409164D01*
X5393135Y409164D01*
X4194218D01*
X4190850Y414164D01*
X4191216Y416000D01*
X4190362Y420292D01*
X4187931Y423931D01*
X4184292Y426362D01*
X4180000Y427216D01*
X4175708Y426362D01*
X4172069Y423931D01*
X4169638Y420292D01*
X4168784Y416000D01*
X4169150Y414164D01*
X4165782Y409164D01*
X4150063D01*
X4149821Y409116D01*
X4148149Y409808D01*
X4145511Y413716D01*
X4145511Y418417D01*
Y472770D01*
X4145511Y472771D01*
X4145518D01*
X4144332Y481784D01*
X4140853Y490184D01*
X4135318Y497396D01*
X4128106Y502931D01*
X4119707Y506410D01*
X4110693Y507596D01*
Y507589D01*
X4110693Y507589D01*
X4079197D01*
Y507596D01*
X4070183Y506410D01*
X4061784Y502931D01*
X4054572Y497396D01*
X4049037Y490184D01*
X4045558Y481784D01*
X4044372Y472771D01*
X4044378D01*
Y413716D01*
X4044428Y413467D01*
X4043738Y411802D01*
X4039831Y409164D01*
X4034907Y409164D01*
X3290199D01*
X3288502Y414164D01*
X3289823Y415177D01*
X3294952Y421862D01*
X3298176Y429646D01*
X3299276Y438000D01*
X3298176Y446354D01*
X3294952Y454138D01*
X3289823Y460823D01*
X3283138Y465952D01*
X3275354Y469176D01*
X3267000Y470276D01*
X3258646Y469176D01*
X3250862Y465952D01*
X3244177Y460823D01*
X3239048Y454138D01*
X3235824Y446354D01*
X3234724Y438000D01*
X3235824Y429646D01*
X3239048Y421862D01*
X3244177Y415177D01*
X3245498Y414164D01*
X3243801Y409164D01*
X2417811D01*
X2417569Y409116D01*
X2414487Y410392D01*
X2413214Y413467D01*
X2413263Y413716D01*
Y472771D01*
X2413266D01*
X2412080Y481784D01*
X2408601Y490184D01*
X2403066Y497396D01*
X2395854Y502931D01*
X2387454Y506410D01*
X2378441Y507596D01*
Y507589D01*
X2346945D01*
Y507596D01*
X2337931Y506410D01*
X2329532Y502931D01*
X2322320Y497396D01*
X2316785Y490184D01*
X2313306Y481784D01*
X2312119Y472771D01*
X2312126D01*
Y413716D01*
X2312176Y413467D01*
X2310902Y410392D01*
X2307821Y409116D01*
X2307579Y409164D01*
X1055642D01*
X1055399Y409116D01*
X1052318Y410392D01*
X1051044Y413467D01*
X1051094Y413716D01*
Y472399D01*
X1051097Y472771D01*
X1051097D01*
X1049910Y481784D01*
X1046431Y490184D01*
X1040897Y497396D01*
X1033684Y502931D01*
X1025285Y506410D01*
X1016272Y507596D01*
Y507589D01*
X984776D01*
Y507596D01*
X975762Y506410D01*
X967363Y502931D01*
X960150Y497396D01*
X954616Y490184D01*
X951137Y481784D01*
X949950Y472771D01*
X949957D01*
Y413716D01*
X950007Y413467D01*
X948733Y410392D01*
X945652Y409116D01*
X945409Y409164D01*
X413925D01*
X413683Y409116D01*
X410601Y410392D01*
X409325Y413473D01*
X409373Y413716D01*
Y530063D01*
X409325Y530305D01*
X410016Y531973D01*
X413925Y534607D01*
X422939Y535794D01*
X431338Y539273D01*
X438550Y544808D01*
X444085Y552020D01*
X447564Y560419D01*
X448751Y569433D01*
X448744D01*
Y587516D01*
X449566Y587835D01*
X453744Y588348D01*
X458613Y581061D01*
X466778Y575605D01*
X476409Y573690D01*
X497000D01*
Y598858D01*
Y624027D01*
X476409D01*
X466778Y622111D01*
X458613Y616655D01*
X453744Y609368D01*
X449566Y609881D01*
X448744Y610200D01*
Y711946D01*
X453744Y715291D01*
X456724Y714698D01*
X462113Y715770D01*
X466682Y718822D01*
X469734Y723391D01*
X470806Y728779D01*
X469734Y734168D01*
X466682Y738737D01*
X462113Y741789D01*
X456724Y742861D01*
X453744Y742268D01*
X448744Y745613D01*
X448743Y818245D01*
X453744Y821590D01*
X456724Y820997D01*
X462113Y822069D01*
X466682Y825121D01*
X469734Y829690D01*
X470806Y835079D01*
X469734Y840467D01*
X466682Y845036D01*
X462113Y848088D01*
X456724Y849160D01*
X453744Y848567D01*
X448743Y851912D01*
Y953658D01*
X449567Y953977D01*
X453743Y954490D01*
X458613Y947203D01*
X466778Y941747D01*
X476409Y939831D01*
X497000D01*
Y965000D01*
Y990169D01*
X476409D01*
X466778Y988253D01*
X458613Y982797D01*
X453743Y975510D01*
X449567Y976023D01*
X448743Y976342D01*
Y994630D01*
X448751D01*
X447564Y1003643D01*
X444085Y1012043D01*
X438550Y1019255D01*
X431338Y1024790D01*
X422939Y1028269D01*
X413925Y1029455D01*
X410016Y1032089D01*
X409328Y1033750D01*
X409378Y1033997D01*
X409412Y1235487D01*
X409413Y1240487D01*
X412082Y1244382D01*
X413688Y1245047D01*
X413925Y1245000D01*
X951311D01*
X951548Y1245047D01*
X953154Y1244382D01*
X955823Y1240487D01*
X955867Y1235504D01*
Y1181432D01*
X955975Y1180890D01*
X957088Y1172429D01*
X960564Y1164039D01*
X966092Y1156835D01*
X973296Y1151307D01*
X981686Y1147832D01*
X990194Y1146712D01*
X990685Y1146614D01*
X1010366D01*
X1010909Y1146722D01*
X1019369Y1147836D01*
X1027759Y1151311D01*
X1034963Y1156839D01*
X1040492Y1164043D01*
X1043967Y1172433D01*
X1045086Y1180940D01*
X1045185Y1181432D01*
Y1240246D01*
X1045224Y1240444D01*
X1045224D01*
X1047059Y1243121D01*
X1049736Y1244956D01*
X1054720Y1245000D01*
X2313488D01*
X2313788Y1245059D01*
X2315320Y1244425D01*
X2317989Y1240531D01*
X2318036Y1235549D01*
Y1181432D01*
X2318149Y1180863D01*
X2319254Y1172472D01*
X2322729Y1164083D01*
X2328257Y1156878D01*
X2335461Y1151350D01*
X2343851Y1147875D01*
X2351727Y1146838D01*
X2352854Y1146614D01*
X2372535D01*
X2373729Y1146851D01*
X2381535Y1147879D01*
X2389924Y1151354D01*
X2397129Y1156882D01*
X2402657Y1164087D01*
X2406132Y1172476D01*
X2407227Y1180797D01*
X2407354Y1181432D01*
Y1240309D01*
X2407389Y1240487D01*
X2407389D01*
X2410059Y1244382D01*
X2411664Y1245047D01*
X2411902Y1245000D01*
X4039827D01*
X4040064Y1245047D01*
X4041670Y1244382D01*
X4044339Y1240487D01*
X4044378Y1235502D01*
Y1181432D01*
X4044372D01*
X4045557Y1172429D01*
X4049032Y1164039D01*
X4054560Y1156835D01*
X4061765Y1151307D01*
X4070154Y1147832D01*
X4078791Y1146695D01*
X4079197Y1146614D01*
X4110693D01*
X4111176Y1146710D01*
X4119696Y1147832D01*
X4128086Y1151307D01*
X4135290Y1156835D01*
X4140818Y1164039D01*
X4144293Y1172429D01*
X4145415Y1180949D01*
X4145511Y1181432D01*
Y1198136D01*
X4150511Y1199834D01*
X4153523Y1195909D01*
X4159163Y1191581D01*
X4165731Y1188860D01*
X4172780Y1187932D01*
X4179828Y1188860D01*
X4186396Y1191581D01*
X4192036Y1195909D01*
X4196364Y1201549D01*
X4199085Y1208117D01*
X4200013Y1215165D01*
X4199085Y1222214D01*
X4196364Y1228782D01*
X4192036Y1234422D01*
X4186396Y1238750D01*
X4183379Y1240000D01*
X4184373Y1245000D01*
X4751737D01*
X4752732Y1240000D01*
X4749714Y1238750D01*
X4744074Y1234422D01*
X4739746Y1228782D01*
X4737026Y1222214D01*
X4736098Y1215165D01*
X4737026Y1208117D01*
X4739746Y1201549D01*
X4744074Y1195909D01*
X4749714Y1191581D01*
X4756282Y1188860D01*
X4763331Y1187932D01*
X4770379Y1188860D01*
X4776947Y1191581D01*
X4782587Y1195909D01*
X4786915Y1201549D01*
X4789636Y1208117D01*
X4790564Y1215165D01*
X4789636Y1222214D01*
X4786915Y1228782D01*
X4782587Y1234422D01*
X4776947Y1238750D01*
X4773930Y1240000D01*
X4774924Y1245000D01*
X5398055D01*
X5398356Y1245060D01*
X5399898Y1244421D01*
D02*
G37*
%LPC*%
G36*
X4019000Y1228568D02*
Y1220288D01*
X4027280D01*
X4027188Y1220751D01*
X4024093Y1225382D01*
X4019463Y1228476D01*
X4019000Y1228568D01*
D02*
G37*
G36*
X4009000D02*
X4008537Y1228476D01*
X4003907Y1225382D01*
X4000812Y1220751D01*
X4000720Y1220288D01*
X4009000D01*
Y1228568D01*
D02*
G37*
G36*
X5212000Y1236294D02*
X5207708Y1235440D01*
X5204069Y1233009D01*
X5201638Y1229371D01*
X5200784Y1225079D01*
X5201638Y1220787D01*
X5204069Y1217148D01*
X5207708Y1214717D01*
X5212000Y1213863D01*
X5216292Y1214717D01*
X5219931Y1217148D01*
X5222362Y1220787D01*
X5223216Y1225079D01*
X5222362Y1229371D01*
X5219931Y1233009D01*
X5216292Y1235440D01*
X5212000Y1236294D01*
D02*
G37*
G36*
X3953000Y1226504D02*
X3948708Y1225650D01*
X3945069Y1223219D01*
X3942638Y1219580D01*
X3941785Y1215288D01*
X3942638Y1210996D01*
X3945069Y1207358D01*
X3948708Y1204926D01*
X3953000Y1204073D01*
X3957292Y1204926D01*
X3960931Y1207358D01*
X3963362Y1210996D01*
X3964215Y1215288D01*
X3963362Y1219580D01*
X3960931Y1223219D01*
X3957292Y1225650D01*
X3953000Y1226504D01*
D02*
G37*
G36*
X4027280Y1210288D02*
X4019000D01*
Y1202008D01*
X4019463Y1202100D01*
X4024093Y1205195D01*
X4027188Y1209826D01*
X4027280Y1210288D01*
D02*
G37*
G36*
X4009000D02*
X4000720D01*
X4000812Y1209826D01*
X4003907Y1205195D01*
X4008537Y1202100D01*
X4009000Y1202008D01*
Y1210288D01*
D02*
G37*
G36*
X5076425Y1210280D02*
Y1202000D01*
X5084705D01*
X5084613Y1202463D01*
X5081519Y1207093D01*
X5076888Y1210188D01*
X5076425Y1210280D01*
D02*
G37*
G36*
X5066425D02*
X5065963Y1210188D01*
X5061332Y1207093D01*
X5058238Y1202463D01*
X5058145Y1202000D01*
X5066425D01*
Y1210280D01*
D02*
G37*
G36*
X1580472Y1200993D02*
Y1192713D01*
X1588752D01*
X1588660Y1193176D01*
X1585566Y1197807D01*
X1580935Y1200901D01*
X1580472Y1200993D01*
D02*
G37*
G36*
X1570472D02*
X1570010Y1200901D01*
X1565379Y1197807D01*
X1562284Y1193176D01*
X1562192Y1192713D01*
X1570472D01*
Y1200993D01*
D02*
G37*
G36*
X1535472D02*
Y1192713D01*
X1543752D01*
X1543660Y1193176D01*
X1540566Y1197807D01*
X1535935Y1200901D01*
X1535472Y1200993D01*
D02*
G37*
G36*
X1525472D02*
X1525010Y1200901D01*
X1520379Y1197807D01*
X1517284Y1193176D01*
X1517192Y1192713D01*
X1525472D01*
Y1200993D01*
D02*
G37*
G36*
X1490472D02*
Y1192713D01*
X1498752D01*
X1498660Y1193176D01*
X1495566Y1197807D01*
X1490935Y1200901D01*
X1490472Y1200993D01*
D02*
G37*
G36*
X1480472D02*
X1480010Y1200901D01*
X1475379Y1197807D01*
X1472284Y1193176D01*
X1472192Y1192713D01*
X1480472D01*
Y1200993D01*
D02*
G37*
G36*
X2890000Y1194280D02*
X2889537Y1194188D01*
X2884907Y1191093D01*
X2883419Y1188868D01*
X2877581D01*
X2876093Y1191093D01*
X2871463Y1194188D01*
X2871000Y1194280D01*
Y1181000D01*
Y1167720D01*
X2871463Y1167812D01*
X2876093Y1170907D01*
X2877581Y1173132D01*
X2883419D01*
X2884907Y1170907D01*
X2889537Y1167812D01*
X2890000Y1167720D01*
Y1181000D01*
Y1194280D01*
D02*
G37*
G36*
X2920000D02*
X2919537Y1194188D01*
X2914907Y1191093D01*
X2912778Y1187908D01*
X2912164Y1187714D01*
X2907836D01*
X2907222Y1187908D01*
X2905093Y1191093D01*
X2900463Y1194188D01*
X2900000Y1194280D01*
Y1181000D01*
Y1167720D01*
X2900463Y1167812D01*
X2905093Y1170907D01*
X2907222Y1174092D01*
X2907836Y1174286D01*
X2912164D01*
X2912778Y1174092D01*
X2914907Y1170907D01*
X2919537Y1167812D01*
X2920000Y1167720D01*
Y1181000D01*
Y1194280D01*
D02*
G37*
G36*
X2930000D02*
Y1186000D01*
X2938280D01*
X2938188Y1186463D01*
X2935093Y1191093D01*
X2930463Y1194188D01*
X2930000Y1194280D01*
D02*
G37*
G36*
X2861000D02*
X2860537Y1194188D01*
X2855907Y1191093D01*
X2852812Y1186463D01*
X2852720Y1186000D01*
X2861000D01*
Y1194280D01*
D02*
G37*
G36*
X5084705Y1192000D02*
X5076425D01*
Y1183720D01*
X5076888Y1183812D01*
X5081519Y1186907D01*
X5084613Y1191537D01*
X5084705Y1192000D01*
D02*
G37*
G36*
X5066425D02*
X5058145D01*
X5058238Y1191537D01*
X5061332Y1186907D01*
X5065963Y1183812D01*
X5066425Y1183720D01*
Y1192000D01*
D02*
G37*
G36*
X2746000Y1181366D02*
X2745537Y1181274D01*
X2740907Y1178180D01*
X2736093D01*
X2731463Y1181274D01*
X2731000Y1181366D01*
Y1168087D01*
Y1154807D01*
X2731463Y1154899D01*
X2736093Y1157993D01*
X2740907D01*
X2745537Y1154899D01*
X2746000Y1154807D01*
Y1168087D01*
Y1181366D01*
D02*
G37*
G36*
X2721000D02*
X2720537Y1181274D01*
X2715907Y1178180D01*
X2711093D01*
X2706463Y1181274D01*
X2706000Y1181366D01*
Y1168087D01*
Y1154807D01*
X2706463Y1154899D01*
X2711093Y1157993D01*
X2715907D01*
X2720537Y1154899D01*
X2721000Y1154807D01*
Y1168087D01*
Y1181366D01*
D02*
G37*
G36*
X1734000Y1206644D02*
Y1177000D01*
X1763644D01*
X1763099Y1181137D01*
X1759572Y1189651D01*
X1753962Y1196962D01*
X1746651Y1202572D01*
X1738137Y1206099D01*
X1734000Y1206644D01*
D02*
G37*
G36*
X1724000D02*
X1719863Y1206099D01*
X1711349Y1202572D01*
X1704038Y1196962D01*
X1698428Y1189651D01*
X1694901Y1181137D01*
X1694356Y1177000D01*
X1724000D01*
Y1206644D01*
D02*
G37*
G36*
X1588752Y1182713D02*
X1580472D01*
Y1174434D01*
X1580935Y1174526D01*
X1585566Y1177620D01*
X1588660Y1182251D01*
X1588752Y1182713D01*
D02*
G37*
G36*
X1570472D02*
X1562192D01*
X1562284Y1182251D01*
X1565379Y1177620D01*
X1570010Y1174526D01*
X1570472Y1174434D01*
Y1182713D01*
D02*
G37*
G36*
X1543752D02*
X1535472D01*
Y1174434D01*
X1535935Y1174526D01*
X1540566Y1177620D01*
X1543660Y1182251D01*
X1543752Y1182713D01*
D02*
G37*
G36*
X1525472D02*
X1517192D01*
X1517284Y1182251D01*
X1520379Y1177620D01*
X1525010Y1174526D01*
X1525472Y1174434D01*
Y1182713D01*
D02*
G37*
G36*
X1498752D02*
X1490472D01*
Y1174434D01*
X1490935Y1174526D01*
X1495566Y1177620D01*
X1498660Y1182251D01*
X1498752Y1182713D01*
D02*
G37*
G36*
X1480472D02*
X1472192D01*
X1472284Y1182251D01*
X1475379Y1177620D01*
X1480010Y1174526D01*
X1480472Y1174434D01*
Y1182713D01*
D02*
G37*
G36*
X2756000Y1181366D02*
Y1173087D01*
X2764280D01*
X2764188Y1173549D01*
X2761093Y1178180D01*
X2756463Y1181274D01*
X2756000Y1181366D01*
D02*
G37*
G36*
X2696000D02*
X2695537Y1181274D01*
X2690907Y1178180D01*
X2687812Y1173549D01*
X2687720Y1173087D01*
X2696000D01*
Y1181366D01*
D02*
G37*
G36*
X2938280Y1176000D02*
X2930000D01*
Y1167720D01*
X2930463Y1167812D01*
X2935093Y1170907D01*
X2938188Y1175537D01*
X2938280Y1176000D01*
D02*
G37*
G36*
X2861000D02*
X2852720D01*
X2852812Y1175537D01*
X2855907Y1170907D01*
X2860537Y1167812D01*
X2861000Y1167720D01*
Y1176000D01*
D02*
G37*
G36*
X3838000Y1175418D02*
Y1167139D01*
X3846280D01*
X3846188Y1167601D01*
X3843093Y1172232D01*
X3838463Y1175326D01*
X3838000Y1175418D01*
D02*
G37*
G36*
X3828000D02*
X3827537Y1175326D01*
X3822907Y1172232D01*
X3819812Y1167601D01*
X3819720Y1167139D01*
X3828000D01*
Y1175418D01*
D02*
G37*
G36*
X458000Y1225276D02*
X449646Y1224176D01*
X441862Y1220952D01*
X435177Y1215823D01*
X430048Y1209138D01*
X426824Y1201354D01*
X425724Y1193000D01*
X426824Y1184646D01*
X430048Y1176862D01*
X435177Y1170177D01*
X441862Y1165048D01*
X449646Y1161824D01*
X458000Y1160724D01*
X466354Y1161824D01*
X474138Y1165048D01*
X480823Y1170177D01*
X485952Y1176862D01*
X489176Y1184646D01*
X490276Y1193000D01*
X489176Y1201354D01*
X485952Y1209138D01*
X480823Y1215823D01*
X474138Y1220952D01*
X466354Y1224176D01*
X458000Y1225276D01*
D02*
G37*
G36*
X584000Y1224240D02*
X575646Y1223140D01*
X567862Y1219915D01*
X561177Y1214786D01*
X556048Y1208102D01*
X552824Y1200317D01*
X551724Y1191964D01*
X552824Y1183610D01*
X556048Y1175825D01*
X561177Y1169141D01*
X567862Y1164012D01*
X575646Y1160787D01*
X584000Y1159687D01*
X592354Y1160787D01*
X600138Y1164012D01*
X606823Y1169141D01*
X611952Y1175825D01*
X615176Y1183610D01*
X616276Y1191964D01*
X615176Y1200317D01*
X611952Y1208102D01*
X606823Y1214786D01*
X600138Y1219915D01*
X592354Y1223140D01*
X584000Y1224240D01*
D02*
G37*
G36*
X2764280Y1163087D02*
X2756000D01*
Y1154807D01*
X2756463Y1154899D01*
X2761093Y1157993D01*
X2764188Y1162624D01*
X2764280Y1163087D01*
D02*
G37*
G36*
X2696000D02*
X2687720D01*
X2687812Y1162624D01*
X2690907Y1157993D01*
X2695537Y1154899D01*
X2696000Y1154807D01*
Y1163087D01*
D02*
G37*
G36*
X2085260Y1174837D02*
X2080968Y1173983D01*
X2077329Y1171552D01*
X2074898Y1167914D01*
X2074044Y1163622D01*
X2074898Y1159330D01*
X2077329Y1155691D01*
X2080968Y1153260D01*
X2085260Y1152406D01*
X2089552Y1153260D01*
X2093190Y1155691D01*
X2095622Y1159330D01*
X2096475Y1163622D01*
X2095622Y1167914D01*
X2093190Y1171552D01*
X2089552Y1173983D01*
X2085260Y1174837D01*
D02*
G37*
G36*
X3893000Y1174338D02*
X3888708Y1173485D01*
X3885069Y1171053D01*
X3882638Y1167415D01*
X3881785Y1163123D01*
X3882638Y1158831D01*
X3885069Y1155192D01*
X3888708Y1152761D01*
X3893000Y1151907D01*
X3897292Y1152761D01*
X3900931Y1155192D01*
X3903362Y1158831D01*
X3904215Y1163123D01*
X3903362Y1167415D01*
X3900931Y1171053D01*
X3897292Y1173485D01*
X3893000Y1174338D01*
D02*
G37*
G36*
X5825000Y1172216D02*
X5820708Y1171362D01*
X5817069Y1168931D01*
X5814638Y1165292D01*
X5813784Y1161000D01*
X5814638Y1156708D01*
X5817069Y1153069D01*
X5820708Y1150638D01*
X5825000Y1149784D01*
X5829292Y1150638D01*
X5832931Y1153069D01*
X5835362Y1156708D01*
X5836216Y1161000D01*
X5835362Y1165292D01*
X5832931Y1168931D01*
X5829292Y1171362D01*
X5825000Y1172216D01*
D02*
G37*
G36*
X3846280Y1157139D02*
X3838000D01*
Y1148859D01*
X3838463Y1148951D01*
X3843093Y1152045D01*
X3846188Y1156676D01*
X3846280Y1157139D01*
D02*
G37*
G36*
X3828000D02*
X3819720D01*
X3819812Y1156676D01*
X3822907Y1152045D01*
X3827537Y1148951D01*
X3828000Y1148859D01*
Y1157139D01*
D02*
G37*
G36*
X1900000Y1204276D02*
X1891646Y1203176D01*
X1883862Y1199952D01*
X1877177Y1194823D01*
X1872048Y1188138D01*
X1868824Y1180354D01*
X1867724Y1172000D01*
X1868824Y1163646D01*
X1872048Y1155862D01*
X1877177Y1149177D01*
X1883862Y1144048D01*
X1891646Y1140824D01*
X1900000Y1139724D01*
X1908354Y1140824D01*
X1916138Y1144048D01*
X1922823Y1149177D01*
X1927952Y1155862D01*
X1931176Y1163646D01*
X1932276Y1172000D01*
X1931176Y1180354D01*
X1927952Y1188138D01*
X1922823Y1194823D01*
X1916138Y1199952D01*
X1908354Y1203176D01*
X1900000Y1204276D01*
D02*
G37*
G36*
X1817000D02*
X1808646Y1203176D01*
X1800862Y1199952D01*
X1794177Y1194823D01*
X1789048Y1188138D01*
X1785824Y1180354D01*
X1784724Y1172000D01*
X1785824Y1163646D01*
X1789048Y1155862D01*
X1794177Y1149177D01*
X1800862Y1144048D01*
X1808646Y1140824D01*
X1817000Y1139724D01*
X1825354Y1140824D01*
X1833138Y1144048D01*
X1839823Y1149177D01*
X1844952Y1155862D01*
X1848176Y1163646D01*
X1849276Y1172000D01*
X1848176Y1180354D01*
X1844952Y1188138D01*
X1839823Y1194823D01*
X1833138Y1199952D01*
X1825354Y1203176D01*
X1817000Y1204276D01*
D02*
G37*
G36*
X3549409Y1161216D02*
X3545117Y1160362D01*
X3541479Y1157931D01*
X3539048Y1154292D01*
X3538194Y1150000D01*
X3539048Y1145708D01*
X3541479Y1142069D01*
X3545117Y1139638D01*
X3549409Y1138784D01*
X3553701Y1139638D01*
X3557340Y1142069D01*
X3559771Y1145708D01*
X3560625Y1150000D01*
X3559771Y1154292D01*
X3557340Y1157931D01*
X3553701Y1160362D01*
X3549409Y1161216D01*
D02*
G37*
G36*
X1763644Y1167000D02*
X1734000D01*
Y1137356D01*
X1738137Y1137901D01*
X1746651Y1141428D01*
X1753962Y1147038D01*
X1759572Y1154349D01*
X1763099Y1162863D01*
X1763644Y1167000D01*
D02*
G37*
G36*
X1724000D02*
X1694356D01*
X1694901Y1162863D01*
X1698428Y1154349D01*
X1704038Y1147038D01*
X1711349Y1141428D01*
X1719863Y1137901D01*
X1724000Y1137356D01*
Y1167000D01*
D02*
G37*
G36*
X4846000Y1234655D02*
X4832631Y1232894D01*
X4820173Y1227734D01*
X4809475Y1219525D01*
X4801266Y1208827D01*
X4796106Y1196369D01*
X4794346Y1183000D01*
X4796106Y1169631D01*
X4801266Y1157173D01*
X4809475Y1146475D01*
X4820173Y1138266D01*
X4832631Y1133106D01*
X4846000Y1131345D01*
X4859369Y1133106D01*
X4871827Y1138266D01*
X4882525Y1146475D01*
X4890734Y1157173D01*
X4895894Y1169631D01*
X4897654Y1183000D01*
X4895894Y1196369D01*
X4890734Y1208827D01*
X4882525Y1219525D01*
X4871827Y1227734D01*
X4859369Y1232894D01*
X4846000Y1234655D01*
D02*
G37*
G36*
X789305Y1153056D02*
X785013Y1152202D01*
X781374Y1149771D01*
X778943Y1146132D01*
X778089Y1141841D01*
X778943Y1137549D01*
X781374Y1133910D01*
X785013Y1131479D01*
X789305Y1130625D01*
X793597Y1131479D01*
X797236Y1133910D01*
X799667Y1137549D01*
X800520Y1141841D01*
X799667Y1146132D01*
X797236Y1149771D01*
X793597Y1152202D01*
X789305Y1153056D01*
D02*
G37*
G36*
X738000Y1152003D02*
X733708Y1151149D01*
X730069Y1148718D01*
X727638Y1145079D01*
X726784Y1140787D01*
X727638Y1136495D01*
X730069Y1132857D01*
X733708Y1130426D01*
X738000Y1129572D01*
X742292Y1130426D01*
X745931Y1132857D01*
X748362Y1136495D01*
X749216Y1140787D01*
X748362Y1145079D01*
X745931Y1148718D01*
X742292Y1151149D01*
X738000Y1152003D01*
D02*
G37*
G36*
X687884Y1151332D02*
X683592Y1150478D01*
X679953Y1148047D01*
X677522Y1144408D01*
X676668Y1140116D01*
X677522Y1135824D01*
X679953Y1132186D01*
X683592Y1129754D01*
X687884Y1128901D01*
X692176Y1129754D01*
X695814Y1132186D01*
X698246Y1135824D01*
X699099Y1140116D01*
X698246Y1144408D01*
X695814Y1148047D01*
X692176Y1150478D01*
X687884Y1151332D01*
D02*
G37*
G36*
X1228724Y1218235D02*
X1216913D01*
X1204572Y1216610D01*
X1193072Y1211846D01*
X1183196Y1204268D01*
X1175618Y1194393D01*
X1170855Y1182893D01*
X1169230Y1170551D01*
X1170855Y1158210D01*
X1175618Y1146709D01*
X1183196Y1136834D01*
X1193072Y1129256D01*
X1204572Y1124493D01*
X1216913Y1122868D01*
X1228724D01*
X1241066Y1124493D01*
X1252566Y1129256D01*
X1262442Y1136834D01*
X1270020Y1146709D01*
X1274783Y1158210D01*
X1276408Y1170551D01*
X1274783Y1182893D01*
X1270020Y1194393D01*
X1262442Y1204268D01*
X1252566Y1211846D01*
X1241066Y1216610D01*
X1228724Y1218235D01*
D02*
G37*
G36*
X4914795Y1135216D02*
X4910503Y1134362D01*
X4906865Y1131931D01*
X4904433Y1128292D01*
X4903580Y1124000D01*
X4904433Y1119708D01*
X4906865Y1116069D01*
X4910503Y1113638D01*
X4914795Y1112784D01*
X4919087Y1113638D01*
X4922726Y1116069D01*
X4925157Y1119708D01*
X4926011Y1124000D01*
X4925157Y1128292D01*
X4922726Y1131931D01*
X4919087Y1134362D01*
X4914795Y1135216D01*
D02*
G37*
G36*
X3990000Y1119280D02*
Y1111000D01*
X3998280D01*
X3998188Y1111463D01*
X3995093Y1116093D01*
X3990463Y1119188D01*
X3990000Y1119280D01*
D02*
G37*
G36*
X3980000D02*
X3979537Y1119188D01*
X3974907Y1116093D01*
X3971812Y1111463D01*
X3971720Y1111000D01*
X3980000D01*
Y1119280D01*
D02*
G37*
G36*
X1507362Y1132216D02*
X1503070Y1131362D01*
X1499431Y1128931D01*
X1497000Y1125292D01*
X1496147Y1121000D01*
X1497000Y1116708D01*
X1499431Y1113069D01*
X1503070Y1110638D01*
X1507362Y1109784D01*
X1511654Y1110638D01*
X1515293Y1113069D01*
X1517724Y1116708D01*
X1518578Y1121000D01*
X1517724Y1125292D01*
X1515293Y1128931D01*
X1511654Y1131362D01*
X1507362Y1132216D01*
D02*
G37*
G36*
X5351961Y1131964D02*
X5347669Y1131110D01*
X5344030Y1128679D01*
X5341599Y1125040D01*
X5340745Y1120748D01*
X5341599Y1116456D01*
X5344030Y1112817D01*
X5347669Y1110386D01*
X5351961Y1109533D01*
X5356253Y1110386D01*
X5359891Y1112817D01*
X5362323Y1116456D01*
X5363176Y1120748D01*
X5362323Y1125040D01*
X5359891Y1128679D01*
X5356253Y1131110D01*
X5351961Y1131964D01*
D02*
G37*
G36*
X5308654D02*
X5304362Y1131110D01*
X5300723Y1128679D01*
X5298292Y1125040D01*
X5297438Y1120748D01*
X5298292Y1116456D01*
X5300723Y1112817D01*
X5304362Y1110386D01*
X5308654Y1109533D01*
X5312946Y1110386D01*
X5316584Y1112817D01*
X5319015Y1116456D01*
X5319869Y1120748D01*
X5319015Y1125040D01*
X5316584Y1128679D01*
X5312946Y1131110D01*
X5308654Y1131964D01*
D02*
G37*
G36*
X5265346D02*
X5261055Y1131110D01*
X5257416Y1128679D01*
X5254985Y1125040D01*
X5254131Y1120748D01*
X5254985Y1116456D01*
X5257416Y1112817D01*
X5261055Y1110386D01*
X5265346Y1109533D01*
X5269639Y1110386D01*
X5273277Y1112817D01*
X5275708Y1116456D01*
X5276562Y1120748D01*
X5275708Y1125040D01*
X5273277Y1128679D01*
X5269639Y1131110D01*
X5265346Y1131964D01*
D02*
G37*
G36*
X5222039D02*
X5217747Y1131110D01*
X5214109Y1128679D01*
X5211678Y1125040D01*
X5210824Y1120748D01*
X5211678Y1116456D01*
X5214109Y1112817D01*
X5217747Y1110386D01*
X5222039Y1109533D01*
X5226331Y1110386D01*
X5229970Y1112817D01*
X5232401Y1116456D01*
X5233255Y1120748D01*
X5232401Y1125040D01*
X5229970Y1128679D01*
X5226331Y1131110D01*
X5222039Y1131964D01*
D02*
G37*
G36*
X4527110Y1170197D02*
X4518777Y1169100D01*
X4511012Y1165883D01*
X4504344Y1160766D01*
X4499227Y1154098D01*
X4496011Y1146333D01*
X4494914Y1138000D01*
X4496011Y1129667D01*
X4499227Y1121902D01*
X4504344Y1115234D01*
X4511012Y1110117D01*
X4518777Y1106900D01*
X4527110Y1105803D01*
X4535443Y1106900D01*
X4543209Y1110117D01*
X4549877Y1115234D01*
X4554993Y1121902D01*
X4558210Y1129667D01*
X4559307Y1138000D01*
X4558210Y1146333D01*
X4554993Y1154098D01*
X4549877Y1160766D01*
X4543209Y1165883D01*
X4535443Y1169100D01*
X4527110Y1170197D01*
D02*
G37*
G36*
X4409000D02*
X4400667Y1169100D01*
X4392902Y1165883D01*
X4386234Y1160766D01*
X4381117Y1154098D01*
X4377900Y1146333D01*
X4376803Y1138000D01*
X4377900Y1129667D01*
X4381117Y1121902D01*
X4386234Y1115234D01*
X4392902Y1110117D01*
X4400667Y1106900D01*
X4409000Y1105803D01*
X4417333Y1106900D01*
X4425098Y1110117D01*
X4431766Y1115234D01*
X4436883Y1121902D01*
X4440100Y1129667D01*
X4441197Y1138000D01*
X4440100Y1146333D01*
X4436883Y1154098D01*
X4431766Y1160766D01*
X4425098Y1165883D01*
X4417333Y1169100D01*
X4409000Y1170197D01*
D02*
G37*
G36*
X5042748Y1125176D02*
X5038456Y1124322D01*
X5034817Y1121891D01*
X5032386Y1118253D01*
X5031533Y1113961D01*
X5032386Y1109669D01*
X5034817Y1106030D01*
X5038456Y1103599D01*
X5042748Y1102745D01*
X5047040Y1103599D01*
X5050679Y1106030D01*
X5053110Y1109669D01*
X5053963Y1113961D01*
X5053110Y1118253D01*
X5050679Y1121891D01*
X5047040Y1124322D01*
X5042748Y1125176D01*
D02*
G37*
G36*
X4999441D02*
X4995149Y1124322D01*
X4991510Y1121891D01*
X4989079Y1118253D01*
X4988225Y1113961D01*
X4989079Y1109669D01*
X4991510Y1106030D01*
X4995149Y1103599D01*
X4999441Y1102745D01*
X5003733Y1103599D01*
X5007372Y1106030D01*
X5009803Y1109669D01*
X5010657Y1113961D01*
X5009803Y1118253D01*
X5007372Y1121891D01*
X5003733Y1124322D01*
X4999441Y1125176D01*
D02*
G37*
G36*
X4956134D02*
X4951842Y1124322D01*
X4948203Y1121891D01*
X4945772Y1118253D01*
X4944918Y1113961D01*
X4945772Y1109669D01*
X4948203Y1106030D01*
X4951842Y1103599D01*
X4956134Y1102745D01*
X4960426Y1103599D01*
X4964065Y1106030D01*
X4966496Y1109669D01*
X4967349Y1113961D01*
X4966496Y1118253D01*
X4964065Y1121891D01*
X4960426Y1124322D01*
X4956134Y1125176D01*
D02*
G37*
G36*
X3494000Y1109705D02*
Y1101425D01*
X3502280D01*
X3502188Y1101888D01*
X3499093Y1106519D01*
X3494463Y1109613D01*
X3494000Y1109705D01*
D02*
G37*
G36*
X3484000D02*
X3483537Y1109613D01*
X3478907Y1106519D01*
X3475812Y1101888D01*
X3475720Y1101425D01*
X3484000D01*
Y1109705D01*
D02*
G37*
G36*
X4060504Y1109280D02*
Y1101000D01*
X4068784D01*
X4068692Y1101463D01*
X4065597Y1106093D01*
X4060966Y1109188D01*
X4060504Y1109280D01*
D02*
G37*
G36*
X4050504D02*
X4050041Y1109188D01*
X4045410Y1106093D01*
X4042316Y1101463D01*
X4042224Y1101000D01*
X4050504D01*
Y1109280D01*
D02*
G37*
G36*
X3553425Y1098280D02*
Y1090000D01*
X3561705D01*
X3561613Y1090463D01*
X3558519Y1095093D01*
X3553888Y1098188D01*
X3553425Y1098280D01*
D02*
G37*
G36*
X3543425D02*
X3542963Y1098188D01*
X3538332Y1095093D01*
X3535238Y1090463D01*
X3535146Y1090000D01*
X3543425D01*
Y1098280D01*
D02*
G37*
G36*
X1482000Y1109216D02*
X1477708Y1108362D01*
X1474069Y1105931D01*
X1471638Y1102292D01*
X1470784Y1098000D01*
X1471638Y1093708D01*
X1474069Y1090069D01*
X1477708Y1087638D01*
X1482000Y1086784D01*
X1486292Y1087638D01*
X1489931Y1090069D01*
X1492362Y1093708D01*
X1493216Y1098000D01*
X1492362Y1102292D01*
X1489931Y1105931D01*
X1486292Y1108362D01*
X1482000Y1109216D01*
D02*
G37*
G36*
X4123496Y1107216D02*
X4119204Y1106362D01*
X4115565Y1103931D01*
X4113134Y1100292D01*
X4112280Y1096000D01*
X4113134Y1091708D01*
X4115565Y1088069D01*
X4119204Y1085638D01*
X4123496Y1084784D01*
X4127788Y1085638D01*
X4131427Y1088069D01*
X4133858Y1091708D01*
X4134712Y1096000D01*
X4133858Y1100292D01*
X4131427Y1103931D01*
X4127788Y1106362D01*
X4123496Y1107216D01*
D02*
G37*
G36*
X3502280Y1091425D02*
X3494000D01*
Y1083146D01*
X3494463Y1083237D01*
X3499093Y1086332D01*
X3502188Y1090963D01*
X3502280Y1091425D01*
D02*
G37*
G36*
X3484000D02*
X3475720D01*
X3475812Y1090963D01*
X3478907Y1086332D01*
X3483537Y1083237D01*
X3484000Y1083146D01*
Y1091425D01*
D02*
G37*
G36*
X4068784Y1091000D02*
X4060504D01*
Y1082720D01*
X4060966Y1082812D01*
X4065597Y1085907D01*
X4068692Y1090537D01*
X4068784Y1091000D01*
D02*
G37*
G36*
X4050504D02*
X4042224D01*
X4042316Y1090537D01*
X4045410Y1085907D01*
X4050041Y1082812D01*
X4050504Y1082720D01*
Y1091000D01*
D02*
G37*
G36*
X463000Y1112085D02*
Y1082441D01*
X492644D01*
X492099Y1086578D01*
X488572Y1095092D01*
X482962Y1102403D01*
X475651Y1108013D01*
X467137Y1111540D01*
X463000Y1112085D01*
D02*
G37*
G36*
X453000D02*
X448863Y1111540D01*
X440349Y1108013D01*
X433038Y1102403D01*
X427428Y1095092D01*
X423901Y1086578D01*
X423356Y1082441D01*
X453000D01*
Y1112085D01*
D02*
G37*
G36*
X3998280Y1101000D02*
X3971720D01*
X3971812Y1100537D01*
X3974907Y1095907D01*
X3978515Y1093495D01*
X3978919Y1089541D01*
X3978609Y1087899D01*
X3975907Y1086093D01*
X3972812Y1081463D01*
X3972720Y1081000D01*
X3999280D01*
X3999188Y1081463D01*
X3996093Y1086093D01*
X3992485Y1088505D01*
X3992081Y1092459D01*
X3992391Y1094101D01*
X3995093Y1095907D01*
X3998188Y1100537D01*
X3998280Y1101000D01*
D02*
G37*
G36*
X3920750Y1102969D02*
X3916458Y1102116D01*
X3912819Y1099685D01*
X3910388Y1096046D01*
X3909535Y1091754D01*
X3910388Y1087462D01*
X3912819Y1083823D01*
X3916458Y1081392D01*
X3920750Y1080539D01*
X3925042Y1081392D01*
X3928681Y1083823D01*
X3931112Y1087462D01*
X3931965Y1091754D01*
X3931112Y1096046D01*
X3928681Y1099685D01*
X3925042Y1102116D01*
X3920750Y1102969D01*
D02*
G37*
G36*
X1563543Y1083436D02*
Y1075156D01*
X1571823D01*
X1571731Y1075618D01*
X1568637Y1080249D01*
X1564006Y1083344D01*
X1563543Y1083436D01*
D02*
G37*
G36*
X1553543D02*
X1553081Y1083344D01*
X1548450Y1080249D01*
X1545355Y1075618D01*
X1545264Y1075156D01*
X1553543D01*
Y1083436D01*
D02*
G37*
G36*
X3601575Y1096216D02*
X3597283Y1095362D01*
X3593644Y1092931D01*
X3591213Y1089292D01*
X3590359Y1085000D01*
X3591213Y1080708D01*
X3593644Y1077069D01*
X3597283Y1074638D01*
X3601575Y1073784D01*
X3605867Y1074638D01*
X3609505Y1077069D01*
X3611937Y1080708D01*
X3612790Y1085000D01*
X3611937Y1089292D01*
X3609505Y1092931D01*
X3605867Y1095362D01*
X3601575Y1096216D01*
D02*
G37*
G36*
X1456181Y1080623D02*
X1451889Y1079770D01*
X1448250Y1077338D01*
X1445997Y1073966D01*
X1443997Y1073700D01*
X1442774D01*
X1440774Y1073966D01*
X1438521Y1077338D01*
X1434882Y1079770D01*
X1430590Y1080623D01*
X1426298Y1079770D01*
X1422660Y1077338D01*
X1420229Y1073700D01*
X1419375Y1069408D01*
X1420229Y1065116D01*
X1422660Y1061477D01*
X1426298Y1059046D01*
X1430590Y1058192D01*
X1434882Y1059046D01*
X1438521Y1061477D01*
X1440774Y1064849D01*
X1442774Y1065116D01*
X1443997D01*
X1445997Y1064849D01*
X1448250Y1061477D01*
X1451889Y1059046D01*
X1456181Y1058192D01*
X1460473Y1059046D01*
X1464112Y1061477D01*
X1466543Y1065116D01*
X1467397Y1069408D01*
X1466543Y1073700D01*
X1464112Y1077338D01*
X1460473Y1079770D01*
X1456181Y1080623D01*
D02*
G37*
G36*
X3561705Y1080000D02*
X3553425D01*
Y1071720D01*
X3553888Y1071812D01*
X3558519Y1074907D01*
X3561613Y1079537D01*
X3561705Y1080000D01*
D02*
G37*
G36*
X3543425D02*
X3535146D01*
X3535238Y1079537D01*
X3538332Y1074907D01*
X3542963Y1071812D01*
X3543425Y1071720D01*
Y1080000D01*
D02*
G37*
G36*
X5743500Y1092596D02*
X5739208Y1091742D01*
X5735569Y1089311D01*
X5733138Y1085672D01*
X5732284Y1081380D01*
X5733138Y1077088D01*
X5735569Y1073450D01*
X5739208Y1071019D01*
X5743500Y1070165D01*
X5747792Y1071019D01*
X5751431Y1073450D01*
X5753862Y1077088D01*
X5754716Y1081380D01*
X5753862Y1085672D01*
X5751431Y1089311D01*
X5747792Y1091742D01*
X5743500Y1092596D01*
D02*
G37*
G36*
X5690000D02*
X5685708Y1091742D01*
X5682069Y1089311D01*
X5679638Y1085672D01*
X5678784Y1081380D01*
X5679638Y1077088D01*
X5682069Y1073450D01*
X5685708Y1071019D01*
X5690000Y1070165D01*
X5694292Y1071019D01*
X5697931Y1073450D01*
X5700362Y1077088D01*
X5701216Y1081380D01*
X5700362Y1085672D01*
X5697931Y1089311D01*
X5694292Y1091742D01*
X5690000Y1092596D01*
D02*
G37*
G36*
X5636500D02*
X5632208Y1091742D01*
X5628569Y1089311D01*
X5626138Y1085672D01*
X5625284Y1081380D01*
X5626138Y1077088D01*
X5628569Y1073450D01*
X5632208Y1071019D01*
X5636500Y1070165D01*
X5640792Y1071019D01*
X5644431Y1073450D01*
X5646862Y1077088D01*
X5647716Y1081380D01*
X5646862Y1085672D01*
X5644431Y1089311D01*
X5640792Y1091742D01*
X5636500Y1092596D01*
D02*
G37*
G36*
X3667561Y1078121D02*
Y1069842D01*
X3675840D01*
X3675748Y1070304D01*
X3672654Y1074935D01*
X3668023Y1078029D01*
X3667561Y1078121D01*
D02*
G37*
G36*
X3657561D02*
X3657098Y1078029D01*
X3652467Y1074935D01*
X3649373Y1070304D01*
X3649281Y1069842D01*
X3657561D01*
Y1078121D01*
D02*
G37*
G36*
X3726000Y1077705D02*
Y1069425D01*
X3734280D01*
X3734188Y1069888D01*
X3731093Y1074519D01*
X3726463Y1077613D01*
X3726000Y1077705D01*
D02*
G37*
G36*
X3716000D02*
X3715537Y1077613D01*
X3710907Y1074519D01*
X3707812Y1069888D01*
X3707720Y1069425D01*
X3716000D01*
Y1077705D01*
D02*
G37*
G36*
X3855000Y1090806D02*
X3850708Y1089952D01*
X3847069Y1087521D01*
X3844638Y1083883D01*
X3843785Y1079591D01*
X3844638Y1075299D01*
X3847069Y1071660D01*
X3850708Y1069229D01*
X3855000Y1068375D01*
X3859292Y1069229D01*
X3862931Y1071660D01*
X3865362Y1075299D01*
X3866215Y1079591D01*
X3865362Y1083883D01*
X3862931Y1087521D01*
X3859292Y1089952D01*
X3855000Y1090806D01*
D02*
G37*
G36*
X5351961Y1088657D02*
X5347669Y1087803D01*
X5344030Y1085372D01*
X5341599Y1081733D01*
X5340745Y1077441D01*
X5341599Y1073149D01*
X5344030Y1069510D01*
X5347669Y1067079D01*
X5351961Y1066226D01*
X5356253Y1067079D01*
X5359891Y1069510D01*
X5362323Y1073149D01*
X5363176Y1077441D01*
X5362323Y1081733D01*
X5359891Y1085372D01*
X5356253Y1087803D01*
X5351961Y1088657D01*
D02*
G37*
G36*
X5308654D02*
X5304362Y1087803D01*
X5300723Y1085372D01*
X5298292Y1081733D01*
X5297438Y1077441D01*
X5298292Y1073149D01*
X5300723Y1069510D01*
X5304362Y1067079D01*
X5308654Y1066226D01*
X5312946Y1067079D01*
X5316584Y1069510D01*
X5319015Y1073149D01*
X5319869Y1077441D01*
X5319015Y1081733D01*
X5316584Y1085372D01*
X5312946Y1087803D01*
X5308654Y1088657D01*
D02*
G37*
G36*
X5265346D02*
X5261055Y1087803D01*
X5257416Y1085372D01*
X5254985Y1081733D01*
X5254131Y1077441D01*
X5254985Y1073149D01*
X5257416Y1069510D01*
X5261055Y1067079D01*
X5265346Y1066226D01*
X5269639Y1067079D01*
X5273277Y1069510D01*
X5275708Y1073149D01*
X5276562Y1077441D01*
X5275708Y1081733D01*
X5273277Y1085372D01*
X5269639Y1087803D01*
X5265346Y1088657D01*
D02*
G37*
G36*
X5222039D02*
X5217747Y1087803D01*
X5214109Y1085372D01*
X5211678Y1081733D01*
X5210824Y1077441D01*
X5211678Y1073149D01*
X5214109Y1069510D01*
X5217747Y1067079D01*
X5222039Y1066226D01*
X5226331Y1067079D01*
X5229970Y1069510D01*
X5232401Y1073149D01*
X5233255Y1077441D01*
X5232401Y1081733D01*
X5229970Y1085372D01*
X5226331Y1087803D01*
X5222039Y1088657D01*
D02*
G37*
G36*
X5147079Y1085216D02*
X5142787Y1084362D01*
X5139148Y1081931D01*
X5136717Y1078292D01*
X5135863Y1074000D01*
X5136717Y1069708D01*
X5139148Y1066069D01*
X5142787Y1063638D01*
X5147079Y1062784D01*
X5151371Y1063638D01*
X5155009Y1066069D01*
X5157440Y1069708D01*
X5158294Y1074000D01*
X5157440Y1078292D01*
X5155009Y1081931D01*
X5151371Y1084362D01*
X5147079Y1085216D01*
D02*
G37*
G36*
X4914795D02*
X4910503Y1084362D01*
X4906865Y1081931D01*
X4904433Y1078292D01*
X4903580Y1074000D01*
X4904433Y1069708D01*
X4906865Y1066069D01*
X4910503Y1063638D01*
X4914795Y1062784D01*
X4919087Y1063638D01*
X4922726Y1066069D01*
X4925157Y1069708D01*
X4926011Y1074000D01*
X4925157Y1078292D01*
X4922726Y1081931D01*
X4919087Y1084362D01*
X4914795Y1085216D01*
D02*
G37*
G36*
X3999280Y1071000D02*
X3991000D01*
Y1062720D01*
X3991463Y1062812D01*
X3996093Y1065907D01*
X3999188Y1070537D01*
X3999280Y1071000D01*
D02*
G37*
G36*
X3981000D02*
X3972720D01*
X3972812Y1070537D01*
X3975907Y1065907D01*
X3980537Y1062812D01*
X3981000Y1062720D01*
Y1071000D01*
D02*
G37*
G36*
X1717476Y1083589D02*
X1713184Y1082735D01*
X1709545Y1080304D01*
X1707114Y1076665D01*
X1706260Y1072373D01*
X1707114Y1068081D01*
X1709545Y1064443D01*
X1713184Y1062011D01*
X1717476Y1061158D01*
X1721768Y1062011D01*
X1725406Y1064443D01*
X1727837Y1068081D01*
X1728691Y1072373D01*
X1727837Y1076665D01*
X1725406Y1080304D01*
X1721768Y1082735D01*
X1717476Y1083589D01*
D02*
G37*
G36*
X5042748Y1081869D02*
X5038456Y1081015D01*
X5034817Y1078584D01*
X5032386Y1074946D01*
X5031533Y1070653D01*
X5032386Y1066361D01*
X5034817Y1062723D01*
X5038456Y1060292D01*
X5042748Y1059438D01*
X5047040Y1060292D01*
X5050679Y1062723D01*
X5053110Y1066361D01*
X5053963Y1070653D01*
X5053110Y1074946D01*
X5050679Y1078584D01*
X5047040Y1081015D01*
X5042748Y1081869D01*
D02*
G37*
G36*
X4999441D02*
X4995149Y1081015D01*
X4991510Y1078584D01*
X4989079Y1074946D01*
X4988225Y1070653D01*
X4989079Y1066361D01*
X4991510Y1062723D01*
X4995149Y1060292D01*
X4999441Y1059438D01*
X5003733Y1060292D01*
X5007372Y1062723D01*
X5009803Y1066361D01*
X5010657Y1070653D01*
X5009803Y1074946D01*
X5007372Y1078584D01*
X5003733Y1081015D01*
X4999441Y1081869D01*
D02*
G37*
G36*
X4956134D02*
X4951842Y1081015D01*
X4948203Y1078584D01*
X4945772Y1074946D01*
X4944918Y1070653D01*
X4945772Y1066361D01*
X4948203Y1062723D01*
X4951842Y1060292D01*
X4956134Y1059438D01*
X4960426Y1060292D01*
X4964065Y1062723D01*
X4966496Y1066361D01*
X4967349Y1070653D01*
X4966496Y1074946D01*
X4964065Y1078584D01*
X4960426Y1081015D01*
X4956134Y1081869D01*
D02*
G37*
G36*
X1571823Y1065156D02*
X1563543D01*
Y1056876D01*
X1564006Y1056968D01*
X1568637Y1060062D01*
X1571731Y1064693D01*
X1571823Y1065156D01*
D02*
G37*
G36*
X1553543D02*
X1545264D01*
X1545355Y1064693D01*
X1548450Y1060062D01*
X1553081Y1056968D01*
X1553543Y1056876D01*
Y1065156D01*
D02*
G37*
G36*
X3780000Y1076057D02*
X3775708Y1075204D01*
X3772069Y1072772D01*
X3769638Y1069134D01*
X3768785Y1064842D01*
X3769638Y1060550D01*
X3772069Y1056911D01*
X3775708Y1054480D01*
X3780000Y1053626D01*
X3784292Y1054480D01*
X3787931Y1056911D01*
X3790362Y1060550D01*
X3791215Y1064842D01*
X3790362Y1069134D01*
X3787931Y1072772D01*
X3784292Y1075204D01*
X3780000Y1076057D01*
D02*
G37*
G36*
X3675840Y1059842D02*
X3667561D01*
Y1051562D01*
X3668023Y1051654D01*
X3672654Y1054748D01*
X3675748Y1059379D01*
X3675840Y1059842D01*
D02*
G37*
G36*
X3657561D02*
X3649281D01*
X3649373Y1059379D01*
X3652467Y1054748D01*
X3657098Y1051654D01*
X3657561Y1051562D01*
Y1059842D01*
D02*
G37*
G36*
X3734280Y1059425D02*
X3726000D01*
Y1051146D01*
X3726463Y1051237D01*
X3731093Y1054332D01*
X3734188Y1058963D01*
X3734280Y1059425D01*
D02*
G37*
G36*
X3716000D02*
X3707720D01*
X3707812Y1058963D01*
X3710907Y1054332D01*
X3715537Y1051237D01*
X3716000Y1051146D01*
Y1059425D01*
D02*
G37*
G36*
X584000Y1109717D02*
X575646Y1108617D01*
X567862Y1105393D01*
X561177Y1100264D01*
X556048Y1093579D01*
X552824Y1085795D01*
X551724Y1077441D01*
X552824Y1069087D01*
X556048Y1061303D01*
X561177Y1054618D01*
X567862Y1049489D01*
X575646Y1046265D01*
X584000Y1045165D01*
X592354Y1046265D01*
X600138Y1049489D01*
X606823Y1054618D01*
X611952Y1061303D01*
X615176Y1069087D01*
X616276Y1077441D01*
X615176Y1085795D01*
X611952Y1093579D01*
X606823Y1100264D01*
X600138Y1105393D01*
X592354Y1108617D01*
X584000Y1109717D01*
D02*
G37*
G36*
X492644Y1072441D02*
X463000D01*
Y1042797D01*
X467137Y1043342D01*
X475651Y1046869D01*
X482962Y1052479D01*
X488572Y1059790D01*
X492099Y1068304D01*
X492644Y1072441D01*
D02*
G37*
G36*
X453000D02*
X423356D01*
X423901Y1068304D01*
X427428Y1059790D01*
X433038Y1052479D01*
X440349Y1046869D01*
X448863Y1043342D01*
X453000Y1042797D01*
Y1072441D01*
D02*
G37*
G36*
X1722000Y1033689D02*
Y1025409D01*
X1730280D01*
X1730188Y1025872D01*
X1727093Y1030503D01*
X1722463Y1033597D01*
X1722000Y1033689D01*
D02*
G37*
G36*
X1712000D02*
X1711537Y1033597D01*
X1706907Y1030503D01*
X1703812Y1025872D01*
X1703720Y1025409D01*
X1712000D01*
Y1033689D01*
D02*
G37*
G36*
X3553819Y1033358D02*
Y1025079D01*
X3562099D01*
X3562007Y1025541D01*
X3558912Y1030172D01*
X3554281Y1033266D01*
X3553819Y1033358D01*
D02*
G37*
G36*
X3543819D02*
X3543356Y1033266D01*
X3538725Y1030172D01*
X3535631Y1025541D01*
X3535539Y1025079D01*
X3543819D01*
Y1033358D01*
D02*
G37*
G36*
X4060504Y1032280D02*
Y1024000D01*
X4068784D01*
X4068692Y1024463D01*
X4065597Y1029093D01*
X4060966Y1032188D01*
X4060504Y1032280D01*
D02*
G37*
G36*
X4050504D02*
X4050041Y1032188D01*
X4045410Y1029093D01*
X4042316Y1024463D01*
X4042224Y1024000D01*
X4050504D01*
Y1032280D01*
D02*
G37*
G36*
X5351961Y1045349D02*
X5347669Y1044496D01*
X5344030Y1042064D01*
X5341599Y1038426D01*
X5340745Y1034134D01*
X5341599Y1029842D01*
X5344030Y1026203D01*
X5347669Y1023772D01*
X5351961Y1022918D01*
X5356253Y1023772D01*
X5359891Y1026203D01*
X5362323Y1029842D01*
X5363176Y1034134D01*
X5362323Y1038426D01*
X5359891Y1042064D01*
X5356253Y1044496D01*
X5351961Y1045349D01*
D02*
G37*
G36*
X5308654D02*
X5304362Y1044496D01*
X5300723Y1042064D01*
X5298292Y1038426D01*
X5297438Y1034134D01*
X5298292Y1029842D01*
X5300723Y1026203D01*
X5304362Y1023772D01*
X5308654Y1022918D01*
X5312946Y1023772D01*
X5316584Y1026203D01*
X5319015Y1029842D01*
X5319869Y1034134D01*
X5319015Y1038426D01*
X5316584Y1042064D01*
X5312946Y1044496D01*
X5308654Y1045349D01*
D02*
G37*
G36*
X5265346D02*
X5261055Y1044496D01*
X5257416Y1042064D01*
X5254985Y1038426D01*
X5254131Y1034134D01*
X5254985Y1029842D01*
X5257416Y1026203D01*
X5261055Y1023772D01*
X5265346Y1022918D01*
X5269639Y1023772D01*
X5273277Y1026203D01*
X5275708Y1029842D01*
X5276562Y1034134D01*
X5275708Y1038426D01*
X5273277Y1042064D01*
X5269639Y1044496D01*
X5265346Y1045349D01*
D02*
G37*
G36*
X5222039D02*
X5217747Y1044496D01*
X5214109Y1042064D01*
X5211678Y1038426D01*
X5210824Y1034134D01*
X5211678Y1029842D01*
X5214109Y1026203D01*
X5217747Y1023772D01*
X5222039Y1022918D01*
X5226331Y1023772D01*
X5229970Y1026203D01*
X5232401Y1029842D01*
X5233255Y1034134D01*
X5232401Y1038426D01*
X5229970Y1042064D01*
X5226331Y1044496D01*
X5222039Y1045349D01*
D02*
G37*
G36*
X5743500Y1042908D02*
X5739208Y1042055D01*
X5735569Y1039623D01*
X5733138Y1035985D01*
X5732284Y1031693D01*
X5733138Y1027401D01*
X5735569Y1023762D01*
X5739208Y1021331D01*
X5743500Y1020477D01*
X5747792Y1021331D01*
X5751431Y1023762D01*
X5753862Y1027401D01*
X5754716Y1031693D01*
X5753862Y1035985D01*
X5751431Y1039623D01*
X5747792Y1042055D01*
X5743500Y1042908D01*
D02*
G37*
G36*
X5690000D02*
X5685708Y1042055D01*
X5682069Y1039623D01*
X5679638Y1035985D01*
X5678784Y1031693D01*
X5679638Y1027401D01*
X5682069Y1023762D01*
X5685708Y1021331D01*
X5690000Y1020477D01*
X5694292Y1021331D01*
X5697931Y1023762D01*
X5700362Y1027401D01*
X5701216Y1031693D01*
X5700362Y1035985D01*
X5697931Y1039623D01*
X5694292Y1042055D01*
X5690000Y1042908D01*
D02*
G37*
G36*
X5636500D02*
X5632208Y1042055D01*
X5628569Y1039623D01*
X5626138Y1035985D01*
X5625284Y1031693D01*
X5626138Y1027401D01*
X5628569Y1023762D01*
X5632208Y1021331D01*
X5636500Y1020477D01*
X5640792Y1021331D01*
X5644431Y1023762D01*
X5646862Y1027401D01*
X5647716Y1031693D01*
X5646862Y1035985D01*
X5644431Y1039623D01*
X5640792Y1042055D01*
X5636500Y1042908D01*
D02*
G37*
G36*
X1232661Y1042216D02*
X1228369Y1041362D01*
X1224731Y1038931D01*
X1222300Y1035292D01*
X1221446Y1031000D01*
X1222300Y1026708D01*
X1224731Y1023069D01*
X1228369Y1020638D01*
X1232661Y1019784D01*
X1236953Y1020638D01*
X1240592Y1023069D01*
X1243023Y1026708D01*
X1243877Y1031000D01*
X1243023Y1035292D01*
X1240592Y1038931D01*
X1236953Y1041362D01*
X1232661Y1042216D01*
D02*
G37*
G36*
X3856110Y1039216D02*
X3851818Y1038362D01*
X3848180Y1035931D01*
X3845749Y1032292D01*
X3844895Y1028000D01*
X3845749Y1023708D01*
X3848180Y1020069D01*
X3851818Y1017638D01*
X3856110Y1016784D01*
X3860403Y1017638D01*
X3864041Y1020069D01*
X3866472Y1023708D01*
X3867326Y1028000D01*
X3866472Y1032292D01*
X3864041Y1035931D01*
X3860403Y1038362D01*
X3856110Y1039216D01*
D02*
G37*
G36*
X5042748Y1038562D02*
X5038456Y1037708D01*
X5034817Y1035277D01*
X5032386Y1031638D01*
X5031533Y1027346D01*
X5032386Y1023054D01*
X5034817Y1019416D01*
X5038456Y1016985D01*
X5042748Y1016131D01*
X5047040Y1016985D01*
X5050679Y1019416D01*
X5053110Y1023054D01*
X5053963Y1027346D01*
X5053110Y1031638D01*
X5050679Y1035277D01*
X5047040Y1037708D01*
X5042748Y1038562D01*
D02*
G37*
G36*
X4999441D02*
X4995149Y1037708D01*
X4991510Y1035277D01*
X4989079Y1031638D01*
X4988225Y1027346D01*
X4989079Y1023054D01*
X4991510Y1019416D01*
X4995149Y1016985D01*
X4999441Y1016131D01*
X5003733Y1016985D01*
X5007372Y1019416D01*
X5009803Y1023054D01*
X5010657Y1027346D01*
X5009803Y1031638D01*
X5007372Y1035277D01*
X5003733Y1037708D01*
X4999441Y1038562D01*
D02*
G37*
G36*
X4956134D02*
X4951842Y1037708D01*
X4948203Y1035277D01*
X4945772Y1031638D01*
X4944918Y1027346D01*
X4945772Y1023054D01*
X4948203Y1019416D01*
X4951842Y1016985D01*
X4956134Y1016131D01*
X4960426Y1016985D01*
X4964065Y1019416D01*
X4966496Y1023054D01*
X4967349Y1027346D01*
X4966496Y1031638D01*
X4964065Y1035277D01*
X4960426Y1037708D01*
X4956134Y1038562D01*
D02*
G37*
G36*
X3990000Y1037806D02*
X3985708Y1036952D01*
X3982069Y1034521D01*
X3979638Y1030882D01*
X3978785Y1026591D01*
X3979638Y1022298D01*
X3982069Y1018660D01*
X3985708Y1016229D01*
X3990000Y1015375D01*
X3994292Y1016229D01*
X3997931Y1018660D01*
X4000362Y1022298D01*
X4001215Y1026591D01*
X4000362Y1030882D01*
X3997931Y1034521D01*
X3994292Y1036952D01*
X3990000Y1037806D01*
D02*
G37*
G36*
X3931000D02*
X3926708Y1036952D01*
X3923069Y1034521D01*
X3920638Y1030882D01*
X3919785Y1026591D01*
X3920638Y1022298D01*
X3923069Y1018660D01*
X3926708Y1016229D01*
X3931000Y1015375D01*
X3935292Y1016229D01*
X3938931Y1018660D01*
X3941362Y1022298D01*
X3942215Y1026591D01*
X3941362Y1030882D01*
X3938931Y1034521D01*
X3935292Y1036952D01*
X3931000Y1037806D01*
D02*
G37*
G36*
X1905748Y1037208D02*
X1901456Y1036355D01*
X1897817Y1033924D01*
X1895386Y1030285D01*
X1894533Y1025993D01*
X1895386Y1021701D01*
X1897817Y1018062D01*
X1901456Y1015631D01*
X1905748Y1014777D01*
X1910040Y1015631D01*
X1913679Y1018062D01*
X1916110Y1021701D01*
X1916964Y1025993D01*
X1916110Y1030285D01*
X1913679Y1033924D01*
X1910040Y1036355D01*
X1905748Y1037208D01*
D02*
G37*
G36*
X4914795Y1035216D02*
X4910503Y1034362D01*
X4906865Y1031931D01*
X4904433Y1028292D01*
X4903580Y1024000D01*
X4904433Y1019708D01*
X4906865Y1016069D01*
X4910503Y1013638D01*
X4914795Y1012784D01*
X4919087Y1013638D01*
X4922726Y1016069D01*
X4925157Y1019708D01*
X4926011Y1024000D01*
X4925157Y1028292D01*
X4922726Y1031931D01*
X4919087Y1034362D01*
X4914795Y1035216D01*
D02*
G37*
G36*
X5147079Y1034216D02*
X5142787Y1033362D01*
X5139148Y1030931D01*
X5136717Y1027292D01*
X5135863Y1023000D01*
X5136717Y1018708D01*
X5139148Y1015069D01*
X5142787Y1012638D01*
X5147079Y1011784D01*
X5151371Y1012638D01*
X5155009Y1015069D01*
X5157440Y1018708D01*
X5158294Y1023000D01*
X5157440Y1027292D01*
X5155009Y1030931D01*
X5151371Y1033362D01*
X5147079Y1034216D01*
D02*
G37*
G36*
X1965000Y1107173D02*
X1952273Y1105497D01*
X1940414Y1100585D01*
X1930230Y1092770D01*
X1922415Y1082586D01*
X1917503Y1070727D01*
X1915827Y1058000D01*
X1917503Y1045273D01*
X1922415Y1033414D01*
X1930230Y1023230D01*
X1940414Y1015415D01*
X1952273Y1010503D01*
X1965000Y1008827D01*
X1977727Y1010503D01*
X1989586Y1015415D01*
X1999770Y1023230D01*
X2007585Y1033414D01*
X2012497Y1045273D01*
X2014173Y1058000D01*
X2012497Y1070727D01*
X2007585Y1082586D01*
X1999770Y1092770D01*
X1989586Y1100585D01*
X1977727Y1105497D01*
X1965000Y1107173D01*
D02*
G37*
G36*
X1840000D02*
X1827273Y1105497D01*
X1815414Y1100585D01*
X1805230Y1092770D01*
X1797415Y1082586D01*
X1792503Y1070727D01*
X1790827Y1058000D01*
X1792503Y1045273D01*
X1797415Y1033414D01*
X1805230Y1023230D01*
X1815414Y1015415D01*
X1827273Y1010503D01*
X1840000Y1008827D01*
X1852727Y1010503D01*
X1864586Y1015415D01*
X1874770Y1023230D01*
X1882585Y1033414D01*
X1887497Y1045273D01*
X1889173Y1058000D01*
X1887497Y1070727D01*
X1882585Y1082586D01*
X1874770Y1092770D01*
X1864586Y1100585D01*
X1852727Y1105497D01*
X1840000Y1107173D01*
D02*
G37*
G36*
X4124000Y1030216D02*
X4119708Y1029362D01*
X4116069Y1026931D01*
X4113638Y1023292D01*
X4112784Y1019000D01*
X4113638Y1014708D01*
X4116069Y1011069D01*
X4119708Y1008638D01*
X4124000Y1007784D01*
X4128292Y1008638D01*
X4131931Y1011069D01*
X4134362Y1014708D01*
X4135216Y1019000D01*
X4134362Y1023292D01*
X4131931Y1026931D01*
X4128292Y1029362D01*
X4124000Y1030216D01*
D02*
G37*
G36*
X1730280Y1015409D02*
X1722000D01*
Y1007130D01*
X1722463Y1007222D01*
X1727093Y1010316D01*
X1730188Y1014947D01*
X1730280Y1015409D01*
D02*
G37*
G36*
X1712000D02*
X1703720D01*
X1703812Y1014947D01*
X1706907Y1010316D01*
X1711537Y1007222D01*
X1712000Y1007130D01*
Y1015409D01*
D02*
G37*
G36*
X3562099Y1015079D02*
X3553819D01*
Y1006799D01*
X3554281Y1006891D01*
X3558912Y1009985D01*
X3562007Y1014616D01*
X3562099Y1015079D01*
D02*
G37*
G36*
X3543819D02*
X3535539D01*
X3535631Y1014616D01*
X3538725Y1009985D01*
X3543356Y1006891D01*
X3543819Y1006799D01*
Y1015079D01*
D02*
G37*
G36*
X4068784Y1014000D02*
X4060504D01*
Y1005720D01*
X4060966Y1005812D01*
X4065597Y1008907D01*
X4068692Y1013538D01*
X4068784Y1014000D01*
D02*
G37*
G36*
X4050504D02*
X4042224D01*
X4042316Y1013538D01*
X4045410Y1008907D01*
X4050041Y1005812D01*
X4050504Y1005720D01*
Y1014000D01*
D02*
G37*
G36*
X2379000Y1010705D02*
Y1002425D01*
X2387280D01*
X2387188Y1002888D01*
X2384093Y1007519D01*
X2379463Y1010613D01*
X2379000Y1010705D01*
D02*
G37*
G36*
X2369000D02*
X2368537Y1010613D01*
X2363907Y1007519D01*
X2360812Y1002888D01*
X2360720Y1002425D01*
X2369000D01*
Y1010705D01*
D02*
G37*
G36*
X4517000Y1001216D02*
X4512708Y1000362D01*
X4509069Y997931D01*
X4506638Y994292D01*
X4506549Y993843D01*
X4501451D01*
X4501362Y994292D01*
X4498931Y997931D01*
X4495292Y1000362D01*
X4491000Y1001216D01*
X4486708Y1000362D01*
X4483069Y997931D01*
X4480638Y994292D01*
X4479784Y990000D01*
X4480638Y985708D01*
X4483069Y982069D01*
X4483188Y976931D01*
X4480756Y973292D01*
X4479903Y969000D01*
X4480756Y964708D01*
X4483188Y961069D01*
X4483222Y961046D01*
Y955033D01*
X4483069Y954931D01*
X4480638Y951292D01*
X4479784Y947000D01*
X4480638Y942708D01*
X4483069Y939069D01*
X4486708Y936638D01*
X4491000Y935784D01*
X4495292Y936638D01*
X4498931Y939069D01*
X4501362Y942708D01*
X4501392Y942860D01*
X4506490D01*
X4506520Y942708D01*
X4508951Y939069D01*
X4512590Y936638D01*
X4516882Y935784D01*
X4521174Y936638D01*
X4524812Y939069D01*
X4527244Y942708D01*
X4528097Y947000D01*
X4527244Y951292D01*
X4524812Y954931D01*
X4524719Y954993D01*
Y961007D01*
X4524812Y961069D01*
X4527244Y964708D01*
X4528097Y969000D01*
X4527244Y973292D01*
X4524812Y976931D01*
X4524931Y982069D01*
X4527362Y985708D01*
X4528216Y990000D01*
X4527362Y994292D01*
X4524931Y997931D01*
X4521292Y1000362D01*
X4517000Y1001216D01*
D02*
G37*
G36*
X1921496Y1011108D02*
X1917204Y1010254D01*
X1913565Y1007823D01*
X1911134Y1004184D01*
X1910281Y999892D01*
X1911134Y995600D01*
X1913565Y991962D01*
X1917204Y989530D01*
X1921496Y988677D01*
X1925788Y989530D01*
X1929427Y991962D01*
X1931858Y995600D01*
X1932711Y999892D01*
X1931858Y1004184D01*
X1929427Y1007823D01*
X1925788Y1010254D01*
X1921496Y1011108D01*
D02*
G37*
G36*
X2387280Y992425D02*
X2379000D01*
Y984145D01*
X2379463Y984237D01*
X2384093Y987332D01*
X2387188Y991963D01*
X2387280Y992425D01*
D02*
G37*
G36*
X2369000D02*
X2360720D01*
X2360812Y991963D01*
X2363907Y987332D01*
X2368537Y984237D01*
X2369000Y984145D01*
Y992425D01*
D02*
G37*
G36*
X3723384Y1004790D02*
X3719092Y1003937D01*
X3715454Y1001505D01*
X3713022Y997867D01*
X3712169Y993575D01*
X3713022Y989283D01*
X3715454Y985644D01*
X3719092Y983213D01*
X3723384Y982359D01*
X3727676Y983213D01*
X3731315Y985644D01*
X3733746Y989283D01*
X3734600Y993575D01*
X3733746Y997867D01*
X3731315Y1001505D01*
X3727676Y1003937D01*
X3723384Y1004790D01*
D02*
G37*
G36*
X5362000Y1004011D02*
X5357708Y1003157D01*
X5354069Y1000726D01*
X5351638Y997087D01*
X5350784Y992795D01*
X5351638Y988503D01*
X5354069Y984865D01*
X5357708Y982433D01*
X5362000Y981580D01*
X5366292Y982433D01*
X5369931Y984865D01*
X5372362Y988503D01*
X5373216Y992795D01*
X5372362Y997087D01*
X5369931Y1000726D01*
X5366292Y1003157D01*
X5362000Y1004011D01*
D02*
G37*
G36*
X5312000D02*
X5307708Y1003157D01*
X5304069Y1000726D01*
X5301638Y997087D01*
X5300784Y992795D01*
X5301638Y988503D01*
X5304069Y984865D01*
X5307708Y982433D01*
X5312000Y981580D01*
X5316292Y982433D01*
X5319931Y984865D01*
X5322362Y988503D01*
X5323216Y992795D01*
X5322362Y997087D01*
X5319931Y1000726D01*
X5316292Y1003157D01*
X5312000Y1004011D01*
D02*
G37*
G36*
X5262000D02*
X5257708Y1003157D01*
X5254069Y1000726D01*
X5251638Y997087D01*
X5250784Y992795D01*
X5251638Y988503D01*
X5254069Y984865D01*
X5257708Y982433D01*
X5262000Y981580D01*
X5266292Y982433D01*
X5269931Y984865D01*
X5272362Y988503D01*
X5273216Y992795D01*
X5272362Y997087D01*
X5269931Y1000726D01*
X5266292Y1003157D01*
X5262000Y1004011D01*
D02*
G37*
G36*
X5212000D02*
X5207708Y1003157D01*
X5204069Y1000726D01*
X5201638Y997087D01*
X5200784Y992795D01*
X5201638Y988503D01*
X5204069Y984865D01*
X5207708Y982433D01*
X5212000Y981580D01*
X5216292Y982433D01*
X5219931Y984865D01*
X5222362Y988503D01*
X5223216Y992795D01*
X5222362Y997087D01*
X5219931Y1000726D01*
X5216292Y1003157D01*
X5212000Y1004011D01*
D02*
G37*
G36*
X2040000Y1018103D02*
X2032307Y1016573D01*
X2025785Y1012215D01*
X2021427Y1005693D01*
X2019897Y998000D01*
X2021427Y990307D01*
X2025785Y983785D01*
X2032307Y979427D01*
X2040000Y977897D01*
X2047693Y979427D01*
X2054215Y983785D01*
X2058573Y990307D01*
X2060103Y998000D01*
X2058573Y1005693D01*
X2054215Y1012215D01*
X2047693Y1016573D01*
X2040000Y1018103D01*
D02*
G37*
G36*
X5042748Y995255D02*
X5038456Y994401D01*
X5034817Y991970D01*
X5032386Y988331D01*
X5031533Y984039D01*
X5032386Y979747D01*
X5034817Y976109D01*
X5038456Y973678D01*
X5042748Y972824D01*
X5047040Y973678D01*
X5050679Y976109D01*
X5053110Y979747D01*
X5053963Y984039D01*
X5053110Y988331D01*
X5050679Y991970D01*
X5047040Y994401D01*
X5042748Y995255D01*
D02*
G37*
G36*
X4999441D02*
X4995149Y994401D01*
X4991510Y991970D01*
X4989079Y988331D01*
X4988225Y984039D01*
X4989079Y979747D01*
X4991510Y976109D01*
X4995149Y973678D01*
X4999441Y972824D01*
X5003733Y973678D01*
X5007372Y976109D01*
X5009803Y979747D01*
X5010657Y984039D01*
X5009803Y988331D01*
X5007372Y991970D01*
X5003733Y994401D01*
X4999441Y995255D01*
D02*
G37*
G36*
X4956134D02*
X4951842Y994401D01*
X4948203Y991970D01*
X4945772Y988331D01*
X4944918Y984039D01*
X4945772Y979747D01*
X4948203Y976109D01*
X4951842Y973678D01*
X4956134Y972824D01*
X4960426Y973678D01*
X4964065Y976109D01*
X4966496Y979747D01*
X4967349Y984039D01*
X4966496Y988331D01*
X4964065Y991970D01*
X4960426Y994401D01*
X4956134Y995255D01*
D02*
G37*
G36*
X5743500Y993221D02*
X5739208Y992367D01*
X5735569Y989936D01*
X5733138Y986297D01*
X5732284Y982005D01*
X5733138Y977713D01*
X5735569Y974075D01*
X5739208Y971644D01*
X5743500Y970790D01*
X5747792Y971644D01*
X5751431Y974075D01*
X5753862Y977713D01*
X5754716Y982005D01*
X5753862Y986297D01*
X5751431Y989936D01*
X5747792Y992367D01*
X5743500Y993221D01*
D02*
G37*
G36*
X5690000D02*
X5685708Y992367D01*
X5682069Y989936D01*
X5679638Y986297D01*
X5678784Y982005D01*
X5679638Y977713D01*
X5682069Y974075D01*
X5685708Y971644D01*
X5690000Y970790D01*
X5694292Y971644D01*
X5697931Y974075D01*
X5700362Y977713D01*
X5701216Y982005D01*
X5700362Y986297D01*
X5697931Y989936D01*
X5694292Y992367D01*
X5690000Y993221D01*
D02*
G37*
G36*
X5636500D02*
X5632208Y992367D01*
X5628569Y989936D01*
X5626138Y986297D01*
X5625284Y982005D01*
X5626138Y977713D01*
X5628569Y974075D01*
X5632208Y971644D01*
X5636500Y970790D01*
X5640792Y971644D01*
X5644431Y974075D01*
X5646862Y977713D01*
X5647716Y982005D01*
X5646862Y986297D01*
X5644431Y989936D01*
X5640792Y992367D01*
X5636500Y993221D01*
D02*
G37*
G36*
X651606Y990169D02*
X631016D01*
Y970000D01*
X675780D01*
X674859Y974632D01*
X669403Y982797D01*
X661238Y988253D01*
X651606Y990169D01*
D02*
G37*
G36*
X527591D02*
X507000D01*
Y970000D01*
X551765D01*
X550843Y974632D01*
X545388Y982797D01*
X537222Y988253D01*
X527591Y990169D01*
D02*
G37*
G36*
X621016D02*
X600425D01*
X590794Y988253D01*
X582628Y982797D01*
X577172Y974632D01*
X576251Y970000D01*
X621016D01*
Y990169D01*
D02*
G37*
G36*
X766000Y992216D02*
X761708Y991362D01*
X758069Y988931D01*
X755638Y985292D01*
X754784Y981000D01*
X755638Y976708D01*
X758069Y973069D01*
X761708Y970638D01*
X766000Y969784D01*
X770292Y970638D01*
X773931Y973069D01*
X776362Y976708D01*
X777216Y981000D01*
X776362Y985292D01*
X773931Y988931D01*
X770292Y991362D01*
X766000Y992216D01*
D02*
G37*
G36*
X2020892Y972172D02*
Y963892D01*
X2029172D01*
X2029080Y964355D01*
X2025986Y968986D01*
X2021355Y972080D01*
X2020892Y972172D01*
D02*
G37*
G36*
X2010892D02*
X2010430Y972080D01*
X2005799Y968986D01*
X2002705Y964355D01*
X2002612Y963892D01*
X2010892D01*
Y972172D01*
D02*
G37*
G36*
X4914795Y985216D02*
X4910503Y984362D01*
X4906865Y981931D01*
X4904433Y978292D01*
X4903580Y974000D01*
X4904433Y969708D01*
X4906865Y966069D01*
X4910503Y963638D01*
X4914795Y962784D01*
X4919087Y963638D01*
X4922726Y966069D01*
X4925157Y969708D01*
X4926011Y974000D01*
X4925157Y978292D01*
X4922726Y981931D01*
X4919087Y984362D01*
X4914795Y985216D01*
D02*
G37*
G36*
X5147039Y985176D02*
X5142747Y984322D01*
X5139109Y981891D01*
X5136677Y978253D01*
X5135824Y973961D01*
X5136677Y969669D01*
X5139109Y966030D01*
X5142747Y963599D01*
X5147039Y962745D01*
X5151331Y963599D01*
X5154970Y966030D01*
X5157401Y969669D01*
X5158255Y973961D01*
X5157401Y978253D01*
X5154970Y981891D01*
X5151331Y984322D01*
X5147039Y985176D01*
D02*
G37*
G36*
X3553425Y967532D02*
Y959252D01*
X3561705D01*
X3561613Y959714D01*
X3558519Y964345D01*
X3553888Y967440D01*
X3553425Y967532D01*
D02*
G37*
G36*
X3543425D02*
X3542963Y967440D01*
X3538332Y964345D01*
X3535238Y959714D01*
X3535146Y959252D01*
X3543425D01*
Y967532D01*
D02*
G37*
G36*
X4090000Y980216D02*
X4085708Y979362D01*
X4082069Y976931D01*
X4079638Y973292D01*
X4078785Y969000D01*
X4079638Y964708D01*
X4082069Y961069D01*
X4085708Y958638D01*
X4090000Y957784D01*
X4094292Y958638D01*
X4097931Y961069D01*
X4100362Y964708D01*
X4101216Y969000D01*
X4100362Y973292D01*
X4097931Y976931D01*
X4094292Y979362D01*
X4090000Y980216D01*
D02*
G37*
G36*
X3826000Y973216D02*
X3821708Y972362D01*
X3818069Y969931D01*
X3815638Y966292D01*
X3814785Y962000D01*
X3815638Y957708D01*
X3818069Y954069D01*
X3821708Y951638D01*
X3826000Y950784D01*
X3830292Y951638D01*
X3833931Y954069D01*
X3836362Y957708D01*
X3837215Y962000D01*
X3836362Y966292D01*
X3833931Y969931D01*
X3830292Y972362D01*
X3826000Y973216D01*
D02*
G37*
G36*
X4049000Y968216D02*
X4044708Y967362D01*
X4041069Y964931D01*
X4038638Y961292D01*
X4037785Y957000D01*
X4038638Y952708D01*
X4041069Y949069D01*
X4044708Y946638D01*
X4049000Y945784D01*
X4053292Y946638D01*
X4056931Y949069D01*
X4059362Y952708D01*
X4060215Y957000D01*
X4059362Y961292D01*
X4056931Y964931D01*
X4053292Y967362D01*
X4049000Y968216D01*
D02*
G37*
G36*
X2029172Y953892D02*
X2020892D01*
Y945612D01*
X2021355Y945705D01*
X2025986Y948799D01*
X2029080Y953430D01*
X2029172Y953892D01*
D02*
G37*
G36*
X2010892D02*
X2002612D01*
X2002705Y953430D01*
X2005799Y948799D01*
X2010430Y945705D01*
X2010892Y945612D01*
Y953892D01*
D02*
G37*
G36*
X3728384Y952280D02*
Y944000D01*
X3736664D01*
X3736572Y944462D01*
X3733478Y949093D01*
X3728847Y952188D01*
X3728384Y952280D01*
D02*
G37*
G36*
X3718384D02*
X3717922Y952188D01*
X3713291Y949093D01*
X3710196Y944462D01*
X3710104Y944000D01*
X3718384D01*
Y952280D01*
D02*
G37*
G36*
X3667000D02*
Y944000D01*
X3675280D01*
X3675188Y944462D01*
X3672093Y949093D01*
X3667463Y952188D01*
X3667000Y952280D01*
D02*
G37*
G36*
X3657000D02*
X3656537Y952188D01*
X3651907Y949093D01*
X3648812Y944462D01*
X3648720Y944000D01*
X3657000D01*
Y952280D01*
D02*
G37*
G36*
X3600590Y965271D02*
X3596298Y964417D01*
X3592660Y961986D01*
X3590229Y958347D01*
X3589375Y954055D01*
X3590229Y949763D01*
X3592660Y946125D01*
X3596298Y943693D01*
X3600590Y942840D01*
X3604883Y943693D01*
X3608521Y946125D01*
X3610952Y949763D01*
X3611806Y954055D01*
X3610952Y958347D01*
X3608521Y961986D01*
X3604883Y964417D01*
X3600590Y965271D01*
D02*
G37*
G36*
X5087000Y964664D02*
X5082708Y963811D01*
X5079069Y961379D01*
X5076638Y957741D01*
X5075784Y953449D01*
X5076638Y949157D01*
X5079069Y945518D01*
X5082708Y943087D01*
X5087000Y942233D01*
X5091292Y943087D01*
X5094931Y945518D01*
X5097362Y949157D01*
X5098216Y953449D01*
X5097362Y957741D01*
X5094931Y961379D01*
X5091292Y963811D01*
X5087000Y964664D01*
D02*
G37*
G36*
X3561705Y949252D02*
X3553425D01*
Y940972D01*
X3553888Y941064D01*
X3558519Y944158D01*
X3561613Y948789D01*
X3561705Y949252D01*
D02*
G37*
G36*
X3543425D02*
X3535146D01*
X3535238Y948789D01*
X3538332Y944158D01*
X3542963Y941064D01*
X3543425Y940972D01*
Y949252D01*
D02*
G37*
G36*
X1921496Y962682D02*
X1917204Y961828D01*
X1913565Y959397D01*
X1911134Y955758D01*
X1910281Y951466D01*
X1911134Y947174D01*
X1913565Y943535D01*
X1917204Y941104D01*
X1921496Y940251D01*
X1925788Y941104D01*
X1929427Y943535D01*
X1931858Y947174D01*
X1932711Y951466D01*
X1931858Y955758D01*
X1929427Y959397D01*
X1925788Y961828D01*
X1921496Y962682D01*
D02*
G37*
G36*
X675780Y960000D02*
X631016D01*
Y939831D01*
X651606D01*
X661238Y941747D01*
X669403Y947203D01*
X674859Y955368D01*
X675780Y960000D01*
D02*
G37*
G36*
X621016D02*
X576251D01*
X577172Y955368D01*
X582628Y947203D01*
X590794Y941747D01*
X600425Y939831D01*
X621016D01*
Y960000D01*
D02*
G37*
G36*
X551765D02*
X507000D01*
Y939831D01*
X527591D01*
X537222Y941747D01*
X545388Y947203D01*
X550843Y955368D01*
X551765Y960000D01*
D02*
G37*
G36*
X1840000Y978103D02*
X1832307Y976573D01*
X1825785Y972215D01*
X1821427Y965693D01*
X1819897Y958000D01*
X1821427Y950307D01*
X1825785Y943785D01*
X1832307Y939427D01*
X1840000Y937897D01*
X1847693Y939427D01*
X1854215Y943785D01*
X1858573Y950307D01*
X1860103Y958000D01*
X1858573Y965693D01*
X1854215Y972215D01*
X1847693Y976573D01*
X1840000Y978103D01*
D02*
G37*
G36*
X1010685Y945602D02*
Y937323D01*
X1018965D01*
X1018873Y937785D01*
X1015779Y942416D01*
X1011148Y945510D01*
X1010685Y945602D01*
D02*
G37*
G36*
X1000685D02*
X1000223Y945510D01*
X995592Y942416D01*
X992497Y937785D01*
X992405Y937323D01*
X1000685D01*
Y945602D01*
D02*
G37*
G36*
X963582Y945281D02*
Y937001D01*
X971862D01*
X971770Y937463D01*
X968676Y942094D01*
X964045Y945189D01*
X963582Y945281D01*
D02*
G37*
G36*
X953582D02*
X953120Y945189D01*
X948489Y942094D01*
X945395Y937463D01*
X945303Y937001D01*
X953582D01*
Y945281D01*
D02*
G37*
G36*
X916582D02*
Y937001D01*
X924862D01*
X924770Y937463D01*
X921676Y942094D01*
X917045Y945189D01*
X916582Y945281D01*
D02*
G37*
G36*
X906582D02*
X906120Y945189D01*
X901489Y942094D01*
X898395Y937463D01*
X898303Y937001D01*
X906582D01*
Y945281D01*
D02*
G37*
G36*
X4409000Y1001216D02*
X4404708Y1000362D01*
X4401069Y997931D01*
X4398638Y994292D01*
X4397784Y990000D01*
X4398638Y985708D01*
X4401069Y982069D01*
X4400951Y976931D01*
X4398520Y973292D01*
X4397666Y969000D01*
X4398520Y964708D01*
X4400951Y961069D01*
X4401045Y961007D01*
Y954993D01*
X4400951Y954931D01*
X4398520Y951292D01*
X4397666Y947000D01*
X4398520Y942708D01*
X4400951Y939069D01*
X4404590Y936638D01*
X4408882Y935784D01*
X4413174Y936638D01*
X4416812Y939069D01*
X4419244Y942708D01*
X4420097Y947000D01*
X4419244Y951292D01*
X4416812Y954931D01*
X4416719Y954993D01*
Y961007D01*
X4416812Y961069D01*
X4419244Y964708D01*
X4420097Y969000D01*
X4419244Y973292D01*
X4416812Y976931D01*
X4416931Y982069D01*
X4419362Y985708D01*
X4420216Y990000D01*
X4419362Y994292D01*
X4416931Y997931D01*
X4413292Y1000362D01*
X4409000Y1001216D01*
D02*
G37*
G36*
X4381000D02*
X4376708Y1000362D01*
X4373069Y997931D01*
X4370638Y994292D01*
X4369784Y990000D01*
X4370638Y985708D01*
X4373069Y982069D01*
X4372951Y976931D01*
X4370520Y973292D01*
X4369666Y969000D01*
X4370520Y964708D01*
X4372951Y961069D01*
X4373045Y961007D01*
Y954993D01*
X4372951Y954931D01*
X4370520Y951292D01*
X4369666Y947000D01*
X4370520Y942708D01*
X4372951Y939069D01*
X4376590Y936638D01*
X4380882Y935784D01*
X4385174Y936638D01*
X4388812Y939069D01*
X4391244Y942708D01*
X4392097Y947000D01*
X4391244Y951292D01*
X4388812Y954931D01*
X4388719Y954993D01*
Y961007D01*
X4388812Y961069D01*
X4391244Y964708D01*
X4392097Y969000D01*
X4391244Y973292D01*
X4388812Y976931D01*
X4388931Y982069D01*
X4391362Y985708D01*
X4392216Y990000D01*
X4391362Y994292D01*
X4388931Y997931D01*
X4385292Y1000362D01*
X4381000Y1001216D01*
D02*
G37*
G36*
X2188000Y938280D02*
Y930000D01*
X2196280D01*
X2196188Y930462D01*
X2193093Y935093D01*
X2188463Y938188D01*
X2188000Y938280D01*
D02*
G37*
G36*
X2178000D02*
X2177537Y938188D01*
X2172907Y935093D01*
X2169812Y930462D01*
X2169720Y930000D01*
X2178000D01*
Y938280D01*
D02*
G37*
G36*
X5378641Y937321D02*
Y929041D01*
X5386921D01*
X5386829Y929504D01*
X5383735Y934135D01*
X5379104Y937229D01*
X5378641Y937321D01*
D02*
G37*
G36*
X5368641D02*
X5368179Y937229D01*
X5363548Y934135D01*
X5360453Y929504D01*
X5360361Y929041D01*
X5368641D01*
Y937321D01*
D02*
G37*
G36*
X5298641D02*
Y929041D01*
X5306921D01*
X5306829Y929504D01*
X5303735Y934135D01*
X5299104Y937229D01*
X5298641Y937321D01*
D02*
G37*
G36*
X5288641D02*
X5288179Y937229D01*
X5283548Y934135D01*
X5280453Y929504D01*
X5280361Y929041D01*
X5288641D01*
Y937321D01*
D02*
G37*
G36*
X5218641D02*
Y929041D01*
X5226921D01*
X5226829Y929504D01*
X5223735Y934135D01*
X5219104Y937229D01*
X5218641Y937321D01*
D02*
G37*
G36*
X5208641D02*
X5208179Y937229D01*
X5203548Y934135D01*
X5200453Y929504D01*
X5200361Y929041D01*
X5208641D01*
Y937321D01*
D02*
G37*
G36*
X779000Y950216D02*
X774708Y949362D01*
X771069Y946931D01*
X768638Y943292D01*
X767784Y939000D01*
X768638Y934708D01*
X771069Y931069D01*
X774708Y928638D01*
X779000Y927784D01*
X783292Y928638D01*
X786931Y931069D01*
X789362Y934708D01*
X790216Y939000D01*
X789362Y943292D01*
X786931Y946931D01*
X783292Y949362D01*
X779000Y950216D01*
D02*
G37*
G36*
X835000Y949216D02*
X830708Y948362D01*
X827069Y945931D01*
X824638Y942292D01*
X823784Y938000D01*
X824638Y933708D01*
X827069Y930069D01*
X830708Y927638D01*
X835000Y926784D01*
X839292Y927638D01*
X842931Y930069D01*
X845362Y933708D01*
X846216Y938000D01*
X845362Y942292D01*
X842931Y945931D01*
X839292Y948362D01*
X835000Y949216D01*
D02*
G37*
G36*
X3736664Y934000D02*
X3728384D01*
Y925720D01*
X3728847Y925812D01*
X3733478Y928907D01*
X3736572Y933538D01*
X3736664Y934000D01*
D02*
G37*
G36*
X3718384D02*
X3710104D01*
X3710196Y933538D01*
X3713291Y928907D01*
X3717922Y925812D01*
X3718384Y925720D01*
Y934000D01*
D02*
G37*
G36*
X3675280D02*
X3667000D01*
Y925720D01*
X3667463Y925812D01*
X3672093Y928907D01*
X3675188Y933538D01*
X3675280Y934000D01*
D02*
G37*
G36*
X3657000D02*
X3648720D01*
X3648812Y933538D01*
X3651907Y928907D01*
X3656537Y925812D01*
X3657000Y925720D01*
Y934000D01*
D02*
G37*
G36*
X2534000Y989276D02*
X2525646Y988176D01*
X2517862Y984952D01*
X2511177Y979823D01*
X2506048Y973138D01*
X2502824Y965354D01*
X2501724Y957000D01*
X2502824Y948646D01*
X2506048Y940862D01*
X2511177Y934177D01*
X2517862Y929048D01*
X2525646Y925824D01*
X2534000Y924724D01*
X2542354Y925824D01*
X2550138Y929048D01*
X2556823Y934177D01*
X2561952Y940862D01*
X2565176Y948646D01*
X2566276Y957000D01*
X2565176Y965354D01*
X2561952Y973138D01*
X2556823Y979823D01*
X2550138Y984952D01*
X2542354Y988176D01*
X2534000Y989276D01*
D02*
G37*
G36*
X1018965Y927323D02*
X1010685D01*
Y919043D01*
X1011148Y919135D01*
X1015779Y922229D01*
X1018873Y926860D01*
X1018965Y927323D01*
D02*
G37*
G36*
X1000685D02*
X992405D01*
X992497Y926860D01*
X995592Y922229D01*
X1000223Y919135D01*
X1000685Y919043D01*
Y927323D01*
D02*
G37*
G36*
X4102787Y941216D02*
X4098495Y940362D01*
X4094856Y937931D01*
X4092425Y934292D01*
X4091571Y930000D01*
X4092425Y925708D01*
X4094856Y922069D01*
X4098495Y919638D01*
X4102787Y918784D01*
X4107079Y919638D01*
X4110717Y922069D01*
X4113149Y925708D01*
X4114002Y930000D01*
X4113149Y934292D01*
X4110717Y937931D01*
X4107079Y940362D01*
X4102787Y941216D01*
D02*
G37*
G36*
X971862Y927001D02*
X963582D01*
Y918721D01*
X964045Y918813D01*
X968676Y921907D01*
X971770Y926538D01*
X971862Y927001D01*
D02*
G37*
G36*
X953582D02*
X945303D01*
X945395Y926538D01*
X948489Y921907D01*
X953120Y918813D01*
X953582Y918721D01*
Y927001D01*
D02*
G37*
G36*
X924862D02*
X916582D01*
Y918721D01*
X917045Y918813D01*
X921676Y921907D01*
X924770Y926538D01*
X924862Y927001D01*
D02*
G37*
G36*
X906582D02*
X898303D01*
X898395Y926538D01*
X901489Y921907D01*
X906120Y918813D01*
X906582Y918721D01*
Y927001D01*
D02*
G37*
G36*
X1078000Y919091D02*
Y910811D01*
X1086280D01*
X1086188Y911274D01*
X1083093Y915905D01*
X1078463Y918999D01*
X1078000Y919091D01*
D02*
G37*
G36*
X1068000D02*
X1067537Y918999D01*
X1062907Y915905D01*
X1059812Y911274D01*
X1059720Y910811D01*
X1068000D01*
Y919091D01*
D02*
G37*
G36*
X5386921Y919041D02*
X5378641D01*
Y910761D01*
X5379104Y910854D01*
X5383735Y913948D01*
X5386829Y918579D01*
X5386921Y919041D01*
D02*
G37*
G36*
X5368641D02*
X5360361D01*
X5360453Y918579D01*
X5363548Y913948D01*
X5368179Y910854D01*
X5368641Y910761D01*
Y919041D01*
D02*
G37*
G36*
X5306921D02*
X5298641D01*
Y910761D01*
X5299104Y910854D01*
X5303735Y913948D01*
X5306829Y918579D01*
X5306921Y919041D01*
D02*
G37*
G36*
X5288641D02*
X5280361D01*
X5280453Y918579D01*
X5283548Y913948D01*
X5288179Y910854D01*
X5288641Y910761D01*
Y919041D01*
D02*
G37*
G36*
X5226921D02*
X5218641D01*
Y910761D01*
X5219104Y910854D01*
X5223735Y913948D01*
X5226829Y918579D01*
X5226921Y919041D01*
D02*
G37*
G36*
X5208641D02*
X5200361D01*
X5200453Y918579D01*
X5203548Y913948D01*
X5208179Y910854D01*
X5208641Y910761D01*
Y919041D01*
D02*
G37*
G36*
X1718000Y931538D02*
X1713708Y930685D01*
X1710069Y928254D01*
X1707638Y924615D01*
X1706784Y920323D01*
X1707638Y916031D01*
X1710069Y912392D01*
X1713708Y909961D01*
X1718000Y909107D01*
X1722292Y909961D01*
X1725931Y912392D01*
X1728362Y916031D01*
X1729216Y920323D01*
X1728362Y924615D01*
X1725931Y928254D01*
X1722292Y930685D01*
X1718000Y931538D01*
D02*
G37*
G36*
X4567000Y924216D02*
X4562708Y923362D01*
X4559069Y920931D01*
X4556638Y917292D01*
X4555784Y913000D01*
X4556638Y908708D01*
X4559069Y905069D01*
X4562708Y902638D01*
X4567000Y901784D01*
X4571292Y902638D01*
X4574931Y905069D01*
X4577362Y908708D01*
X4578216Y913000D01*
X4577362Y917292D01*
X4574931Y920931D01*
X4571292Y923362D01*
X4567000Y924216D01*
D02*
G37*
G36*
X600425Y929869D02*
X595036Y928797D01*
X590468Y925745D01*
X587415Y921176D01*
X586344Y915787D01*
X587415Y910399D01*
X590468Y905830D01*
X595036Y902778D01*
X600425Y901706D01*
X605814Y902778D01*
X610382Y905830D01*
X613435Y910399D01*
X614507Y915787D01*
X613435Y921176D01*
X610382Y925745D01*
X605814Y928797D01*
X600425Y929869D01*
D02*
G37*
G36*
X4601000Y923216D02*
X4596708Y922362D01*
X4593069Y919931D01*
X4590638Y916292D01*
X4589784Y912000D01*
X4590638Y907708D01*
X4593069Y904069D01*
X4596708Y901638D01*
X4601000Y900784D01*
X4605292Y901638D01*
X4608931Y904069D01*
X4611362Y907708D01*
X4612216Y912000D01*
X4611362Y916292D01*
X4608931Y919931D01*
X4605292Y922362D01*
X4601000Y923216D01*
D02*
G37*
G36*
X2040000Y938103D02*
X2032307Y936573D01*
X2025785Y932215D01*
X2021427Y925693D01*
X2019897Y918000D01*
X2021427Y910307D01*
X2025785Y903785D01*
X2032307Y899427D01*
X2040000Y897897D01*
X2047693Y899427D01*
X2054215Y903785D01*
X2058573Y910307D01*
X2060103Y918000D01*
X2058573Y925693D01*
X2054215Y932215D01*
X2047693Y936573D01*
X2040000Y938103D01*
D02*
G37*
G36*
X3554409Y905878D02*
Y897598D01*
X3562689D01*
X3562597Y898061D01*
X3559503Y902692D01*
X3554872Y905786D01*
X3554409Y905878D01*
D02*
G37*
G36*
X3544409D02*
X3543947Y905786D01*
X3539316Y902692D01*
X3536222Y898061D01*
X3536130Y897598D01*
X3544409D01*
Y905878D01*
D02*
G37*
G36*
X2196280Y920000D02*
X2169720D01*
X2169812Y919538D01*
X2172907Y914907D01*
X2177537Y911812D01*
X2179843Y911354D01*
Y906256D01*
X2177482Y905786D01*
X2172851Y902692D01*
X2169757Y898061D01*
X2169665Y897598D01*
X2196225D01*
X2196133Y898061D01*
X2193038Y902692D01*
X2188407Y905786D01*
X2186102Y906245D01*
Y911343D01*
X2188463Y911812D01*
X2193093Y914907D01*
X2196188Y919538D01*
X2196280Y920000D01*
D02*
G37*
G36*
X797000Y901280D02*
Y893000D01*
X805280D01*
X805188Y893462D01*
X802093Y898093D01*
X797462Y901188D01*
X797000Y901280D01*
D02*
G37*
G36*
X787000D02*
X786538Y901188D01*
X781907Y898093D01*
X778812Y893462D01*
X778720Y893000D01*
X787000D01*
Y901280D01*
D02*
G37*
G36*
X1086280Y900811D02*
X1078000D01*
Y892531D01*
X1078463Y892623D01*
X1083093Y895718D01*
X1086188Y900349D01*
X1086280Y900811D01*
D02*
G37*
G36*
X1068000D02*
X1059720D01*
X1059812Y900349D01*
X1062907Y895718D01*
X1067537Y892623D01*
X1068000Y892531D01*
Y900811D01*
D02*
G37*
G36*
X1723000Y898957D02*
Y890677D01*
X1731280D01*
X1731188Y891140D01*
X1728093Y895771D01*
X1723463Y898865D01*
X1723000Y898957D01*
D02*
G37*
G36*
X1713000D02*
X1712537Y898865D01*
X1707907Y895771D01*
X1704812Y891140D01*
X1704720Y890677D01*
X1713000D01*
Y898957D01*
D02*
G37*
G36*
X1005685Y908893D02*
X1001393Y908039D01*
X997755Y905608D01*
X995323Y901969D01*
X994470Y897677D01*
X995323Y893385D01*
X997755Y889746D01*
X1001393Y887315D01*
X1005685Y886462D01*
X1009977Y887315D01*
X1013616Y889746D01*
X1016047Y893385D01*
X1016901Y897677D01*
X1016047Y901969D01*
X1013616Y905608D01*
X1009977Y908039D01*
X1005685Y908893D01*
D02*
G37*
G36*
X1507362Y907853D02*
X1503070Y907000D01*
X1499431Y904568D01*
X1497000Y900930D01*
X1496147Y896638D01*
X1497000Y892346D01*
X1499431Y888707D01*
X1503070Y886276D01*
X1507362Y885422D01*
X1511654Y886276D01*
X1515293Y888707D01*
X1517724Y892346D01*
X1518578Y896638D01*
X1517724Y900930D01*
X1515293Y904568D01*
X1511654Y907000D01*
X1507362Y907853D01*
D02*
G37*
G36*
X3600590Y903814D02*
X3596298Y902960D01*
X3592660Y900529D01*
X3590229Y896890D01*
X3589375Y892598D01*
X3590229Y888306D01*
X3592660Y884668D01*
X3596298Y882237D01*
X3600590Y881383D01*
X3604883Y882237D01*
X3608521Y884668D01*
X3610952Y888306D01*
X3611806Y892598D01*
X3610952Y896890D01*
X3608521Y900529D01*
X3604883Y902960D01*
X3600590Y903814D01*
D02*
G37*
G36*
X4197000Y902216D02*
X4192708Y901362D01*
X4189069Y898931D01*
X4186638Y895292D01*
X4185784Y891000D01*
X4186638Y886708D01*
X4189069Y883069D01*
X4192708Y880638D01*
X4197000Y879784D01*
X4201292Y880638D01*
X4204931Y883069D01*
X4207362Y886708D01*
X4208216Y891000D01*
X4207362Y895292D01*
X4204931Y898931D01*
X4201292Y901362D01*
X4197000Y902216D01*
D02*
G37*
G36*
X2196225Y887598D02*
X2187945D01*
Y879319D01*
X2188407Y879411D01*
X2193038Y882505D01*
X2196133Y887136D01*
X2196225Y887598D01*
D02*
G37*
G36*
X2177945D02*
X2169665D01*
X2169757Y887136D01*
X2172851Y882505D01*
X2177482Y879411D01*
X2177945Y879319D01*
Y887598D01*
D02*
G37*
G36*
X3562689D02*
X3554409D01*
Y879319D01*
X3554872Y879411D01*
X3559503Y882505D01*
X3562597Y887136D01*
X3562689Y887598D01*
D02*
G37*
G36*
X3544409D02*
X3536130D01*
X3536222Y887136D01*
X3539316Y882505D01*
X3543947Y879411D01*
X3544409Y879319D01*
Y887598D01*
D02*
G37*
G36*
X688902Y886058D02*
X684610Y885204D01*
X680971Y882773D01*
X678800Y879523D01*
X676159Y879250D01*
X673519Y879523D01*
X671348Y882773D01*
X667709Y885204D01*
X663417Y886058D01*
X659125Y885204D01*
X655487Y882773D01*
X653367Y879601D01*
X650709Y879353D01*
X648050Y879601D01*
X645931Y882773D01*
X642292Y885204D01*
X638000Y886058D01*
X633708Y885204D01*
X630069Y882773D01*
X627638Y879135D01*
X626784Y874842D01*
X627638Y870551D01*
X630069Y866912D01*
X633708Y864481D01*
X638000Y863627D01*
X642292Y864481D01*
X645931Y866912D01*
X648050Y870084D01*
X650709Y870332D01*
X653367Y870084D01*
X655487Y866912D01*
X657432Y865612D01*
X657490Y865459D01*
Y860210D01*
X657432Y860057D01*
X655487Y858757D01*
X653056Y855119D01*
X652202Y850827D01*
X653056Y846535D01*
X655487Y842896D01*
X659125Y840465D01*
X663417Y839611D01*
X667709Y840465D01*
X671348Y842896D01*
X673779Y846535D01*
X674633Y850827D01*
X673779Y855119D01*
X671348Y858757D01*
X669403Y860057D01*
X669344Y860210D01*
Y865459D01*
X669403Y865612D01*
X671348Y866912D01*
X673519Y870162D01*
X676160Y870435D01*
X678800Y870162D01*
X680971Y866912D01*
X684610Y864481D01*
X688902Y863627D01*
X693194Y864481D01*
X696832Y866912D01*
X699264Y870551D01*
X700117Y874842D01*
X699264Y879135D01*
X696832Y882773D01*
X693194Y885204D01*
X688902Y886058D01*
D02*
G37*
G36*
X756724Y899216D02*
X752432Y898362D01*
X748794Y895931D01*
X746362Y892292D01*
X745509Y888000D01*
X746362Y883708D01*
X748794Y880069D01*
X752432Y877638D01*
X756724Y876784D01*
X761016Y877638D01*
X764655Y880069D01*
X767086Y883708D01*
X767940Y888000D01*
X767086Y892292D01*
X764655Y895931D01*
X761016Y898362D01*
X756724Y899216D01*
D02*
G37*
G36*
X805280Y883000D02*
X797000D01*
Y874720D01*
X797462Y874812D01*
X802093Y877907D01*
X805188Y882538D01*
X805280Y883000D01*
D02*
G37*
G36*
X787000D02*
X778720D01*
X778812Y882538D01*
X781907Y877907D01*
X786538Y874812D01*
X787000Y874720D01*
Y883000D01*
D02*
G37*
G36*
X1731280Y880677D02*
X1723000D01*
Y872398D01*
X1723463Y872490D01*
X1728093Y875584D01*
X1731188Y880215D01*
X1731280Y880677D01*
D02*
G37*
G36*
X1713000D02*
X1704720D01*
X1704812Y880215D01*
X1707907Y875584D01*
X1712537Y872490D01*
X1713000Y872398D01*
Y880677D01*
D02*
G37*
G36*
X3916000Y884216D02*
X3911708Y883362D01*
X3908069Y880931D01*
X3905638Y877292D01*
X3904785Y873000D01*
X3905044Y871694D01*
X3905001Y871595D01*
X3900712Y867846D01*
X3898854Y868216D01*
X3894562Y867362D01*
X3890923Y864931D01*
X3888492Y861292D01*
X3887638Y857000D01*
X3888492Y852708D01*
X3890923Y849069D01*
X3894562Y846638D01*
X3898854Y845784D01*
X3903146Y846638D01*
X3906784Y849069D01*
X3909216Y852708D01*
X3910069Y857000D01*
X3909810Y858306D01*
X3909853Y858405D01*
X3914142Y862154D01*
X3916000Y861784D01*
X3920292Y862638D01*
X3923931Y865069D01*
X3926362Y868708D01*
X3927215Y873000D01*
X3926362Y877292D01*
X3923931Y880931D01*
X3920292Y883362D01*
X3916000Y884216D01*
D02*
G37*
G36*
X4229000Y886216D02*
X4224708Y885362D01*
X4221069Y882931D01*
X4218638Y879292D01*
X4217784Y875000D01*
X4218638Y870708D01*
X4221069Y867069D01*
X4224708Y864638D01*
X4229000Y863784D01*
X4233292Y864638D01*
X4236931Y867069D01*
X4239362Y870708D01*
X4240216Y875000D01*
X4239362Y879292D01*
X4236931Y882931D01*
X4233292Y885362D01*
X4229000Y886216D01*
D02*
G37*
G36*
X4139000Y884216D02*
X4134708Y883362D01*
X4131069Y880931D01*
X4128638Y877292D01*
X4127784Y873000D01*
X4128638Y868708D01*
X4131069Y865069D01*
X4134708Y862638D01*
X4139000Y861784D01*
X4143292Y862638D01*
X4146931Y865069D01*
X4149362Y868708D01*
X4150216Y873000D01*
X4149362Y877292D01*
X4146931Y880931D01*
X4143292Y883362D01*
X4139000Y884216D01*
D02*
G37*
G36*
X986000Y877956D02*
X981708Y877102D01*
X978069Y874671D01*
X975638Y871032D01*
X974784Y866740D01*
X975638Y862448D01*
X978069Y858809D01*
X981708Y856378D01*
X986000Y855524D01*
X990292Y856378D01*
X993931Y858809D01*
X996362Y862448D01*
X997216Y866740D01*
X996362Y871032D01*
X993931Y874671D01*
X990292Y877102D01*
X986000Y877956D01*
D02*
G37*
G36*
X4400000Y875216D02*
X4395708Y874362D01*
X4392069Y871931D01*
X4389638Y868292D01*
X4388784Y864000D01*
X4389638Y859708D01*
X4392069Y856069D01*
X4395708Y853638D01*
X4400000Y852784D01*
X4404292Y853638D01*
X4407931Y856069D01*
X4410362Y859708D01*
X4411216Y864000D01*
X4410362Y868292D01*
X4407931Y871931D01*
X4404292Y874362D01*
X4400000Y875216D01*
D02*
G37*
G36*
X5373641Y872265D02*
X5369349Y871411D01*
X5365711Y868980D01*
X5363279Y865341D01*
X5362426Y861049D01*
X5363279Y856757D01*
X5365711Y853119D01*
X5369349Y850687D01*
X5373641Y849834D01*
X5377933Y850687D01*
X5381572Y853119D01*
X5384003Y856757D01*
X5384857Y861049D01*
X5384003Y865341D01*
X5381572Y868980D01*
X5377933Y871411D01*
X5373641Y872265D01*
D02*
G37*
G36*
X5293641D02*
X5289349Y871411D01*
X5285711Y868980D01*
X5283279Y865341D01*
X5282426Y861049D01*
X5283279Y856757D01*
X5285711Y853119D01*
X5289349Y850687D01*
X5293641Y849834D01*
X5297933Y850687D01*
X5301572Y853119D01*
X5304003Y856757D01*
X5304857Y861049D01*
X5304003Y865341D01*
X5301572Y868980D01*
X5297933Y871411D01*
X5293641Y872265D01*
D02*
G37*
G36*
X5213641D02*
X5209349Y871411D01*
X5205711Y868980D01*
X5203279Y865341D01*
X5202426Y861049D01*
X5203279Y856757D01*
X5205711Y853119D01*
X5209349Y850687D01*
X5213641Y849834D01*
X5217933Y850687D01*
X5221572Y853119D01*
X5224003Y856757D01*
X5224857Y861049D01*
X5224003Y865341D01*
X5221572Y868980D01*
X5217933Y871411D01*
X5213641Y872265D01*
D02*
G37*
G36*
X4613906Y871861D02*
X4609614Y871007D01*
X4605975Y868576D01*
X4603544Y864938D01*
X4602690Y860646D01*
X4603544Y856354D01*
X4605975Y852715D01*
X4609614Y850284D01*
X4613906Y849430D01*
X4618198Y850284D01*
X4621836Y852715D01*
X4624267Y856354D01*
X4625121Y860646D01*
X4624267Y864938D01*
X4621836Y868576D01*
X4618198Y871007D01*
X4613906Y871861D01*
D02*
G37*
G36*
X4169000Y867963D02*
X4164708Y867110D01*
X4161069Y864679D01*
X4158638Y861040D01*
X4157784Y856748D01*
X4158638Y852456D01*
X4161069Y848817D01*
X4164708Y846386D01*
X4169000Y845533D01*
X4173292Y846386D01*
X4176931Y848817D01*
X4179362Y852456D01*
X4180216Y856748D01*
X4179362Y861040D01*
X4176931Y864679D01*
X4173292Y867110D01*
X4169000Y867963D01*
D02*
G37*
G36*
X1435590Y850924D02*
Y842645D01*
X1443870D01*
X1443778Y843107D01*
X1440684Y847738D01*
X1436053Y850832D01*
X1435590Y850924D01*
D02*
G37*
G36*
X1425590D02*
X1425128Y850832D01*
X1420497Y847738D01*
X1417403Y843107D01*
X1417311Y842645D01*
X1425590D01*
Y850924D01*
D02*
G37*
G36*
X1584134Y849088D02*
X1579842Y848234D01*
X1576203Y845803D01*
X1573950Y842431D01*
X1571948Y842164D01*
X1570728D01*
X1568727Y842431D01*
X1566474Y845803D01*
X1562835Y848234D01*
X1558543Y849088D01*
X1554251Y848234D01*
X1550613Y845803D01*
X1548181Y842164D01*
X1547328Y837872D01*
X1548181Y833580D01*
X1550613Y829942D01*
X1554251Y827511D01*
X1558543Y826657D01*
X1562835Y827511D01*
X1566474Y829942D01*
X1568727Y833314D01*
X1570728Y833580D01*
X1571948D01*
X1573950Y833314D01*
X1576203Y829942D01*
X1579842Y827511D01*
X1584134Y826657D01*
X1588426Y827511D01*
X1592064Y829942D01*
X1594495Y833580D01*
X1595349Y837872D01*
X1594495Y842164D01*
X1592064Y845803D01*
X1588426Y848234D01*
X1584134Y849088D01*
D02*
G37*
G36*
X4139000Y851216D02*
X4134708Y850362D01*
X4131069Y847931D01*
X4128638Y844292D01*
X4127784Y840000D01*
X4128638Y835708D01*
X4131069Y832069D01*
X4134708Y829638D01*
X4139000Y828784D01*
X4143292Y829638D01*
X4146931Y832069D01*
X4149362Y835708D01*
X4150216Y840000D01*
X4149362Y844292D01*
X4146931Y847931D01*
X4143292Y850362D01*
X4139000Y851216D01*
D02*
G37*
G36*
X903000Y837894D02*
X898708Y837040D01*
X895069Y834609D01*
X892638Y830970D01*
X892372Y829633D01*
X892288Y829428D01*
X887017Y828341D01*
X886362Y829292D01*
X886119Y829655D01*
X883931Y832931D01*
X880292Y835362D01*
X876000Y836216D01*
X871708Y835362D01*
X868069Y832931D01*
X865638Y829292D01*
X865449Y828343D01*
X860463Y828293D01*
X860346Y828316D01*
X857931Y831931D01*
X854292Y834362D01*
X850000Y835216D01*
X845708Y834362D01*
X842069Y831931D01*
X839638Y828292D01*
X838784Y824000D01*
X839638Y819708D01*
X842069Y816069D01*
X845708Y813638D01*
X850000Y812784D01*
X854292Y813638D01*
X857931Y816069D01*
X860362Y819708D01*
X860551Y820657D01*
X865537Y820707D01*
X865654Y820684D01*
X868069Y817069D01*
X871708Y814638D01*
X876000Y813784D01*
X880292Y814638D01*
X883931Y817069D01*
X886362Y820708D01*
X886628Y822045D01*
X886712Y822250D01*
X891983Y823337D01*
X892638Y822386D01*
X892881Y822023D01*
X895069Y818747D01*
X898708Y816316D01*
X903000Y815463D01*
X907292Y816316D01*
X910931Y818747D01*
X913362Y822386D01*
X914216Y826678D01*
X913362Y830970D01*
X910931Y834609D01*
X907292Y837040D01*
X903000Y837894D01*
D02*
G37*
G36*
X1507362Y849088D02*
X1503070Y848234D01*
X1499431Y845803D01*
X1497000Y842164D01*
X1496147Y837872D01*
X1497000Y833580D01*
X1499431Y829942D01*
X1503070Y827511D01*
X1507362Y826657D01*
X1511654Y827511D01*
X1515293Y829942D01*
X1517724Y833580D01*
X1518578Y837872D01*
X1517724Y842164D01*
X1515293Y845803D01*
X1511654Y848234D01*
X1507362Y849088D01*
D02*
G37*
G36*
X1443870Y832645D02*
X1435590D01*
Y824365D01*
X1436053Y824457D01*
X1440684Y827551D01*
X1443778Y832182D01*
X1443870Y832645D01*
D02*
G37*
G36*
X1425590D02*
X1417311D01*
X1417403Y832182D01*
X1420497Y827551D01*
X1425128Y824457D01*
X1425590Y824365D01*
Y832645D01*
D02*
G37*
G36*
X4030276Y830406D02*
Y822126D01*
X4038555D01*
X4038463Y822588D01*
X4035369Y827220D01*
X4030738Y830314D01*
X4030276Y830406D01*
D02*
G37*
G36*
X4020276D02*
X4019813Y830314D01*
X4015182Y827220D01*
X4012088Y822588D01*
X4011996Y822126D01*
X4020276D01*
Y830406D01*
D02*
G37*
G36*
X3838000Y835872D02*
X3833708Y835019D01*
X3830069Y832587D01*
X3827638Y828949D01*
X3826785Y824657D01*
X3827638Y820365D01*
X3830069Y816726D01*
X3833708Y814295D01*
X3838000Y813441D01*
X3842292Y814295D01*
X3845931Y816726D01*
X3848362Y820365D01*
X3849215Y824657D01*
X3848362Y828949D01*
X3845931Y832587D01*
X3842292Y835019D01*
X3838000Y835872D01*
D02*
G37*
G36*
X4168000Y835216D02*
X4163708Y834362D01*
X4160069Y831931D01*
X4157638Y828292D01*
X4156784Y824000D01*
X4157638Y819708D01*
X4160069Y816069D01*
X4163708Y813638D01*
X4168000Y812784D01*
X4172292Y813638D01*
X4175931Y816069D01*
X4178362Y819708D01*
X4179216Y824000D01*
X4178362Y828292D01*
X4175931Y831931D01*
X4172292Y834362D01*
X4168000Y835216D01*
D02*
G37*
G36*
X966315Y832956D02*
X962023Y832102D01*
X958384Y829671D01*
X955953Y826032D01*
X955100Y821740D01*
X955953Y817448D01*
X956714Y816309D01*
X955897Y813773D01*
X951325Y812148D01*
X950922Y812417D01*
X946630Y813271D01*
X942338Y812417D01*
X938699Y809986D01*
X936268Y806347D01*
X935414Y802055D01*
X936268Y797763D01*
X938699Y794125D01*
X942338Y791693D01*
X946630Y790840D01*
X950922Y791693D01*
X954560Y794125D01*
X958385D01*
X962023Y791693D01*
X966315Y790840D01*
X970607Y791693D01*
X974245Y794125D01*
X978069D01*
X981708Y791693D01*
X986000Y790840D01*
X988875Y791412D01*
X991449Y788868D01*
X992115Y788006D01*
X992412Y787405D01*
X992405Y787370D01*
X1018965D01*
X1018873Y787833D01*
X1015779Y792463D01*
X1016047Y797763D01*
X1016901Y802055D01*
X1016047Y806347D01*
X1013616Y809986D01*
X1009977Y812417D01*
X1005685Y813271D01*
X1001393Y812417D01*
X997755Y809986D01*
X993931D01*
X990292Y812417D01*
X986000Y813271D01*
X981708Y812417D01*
X981305Y812148D01*
X976733Y813773D01*
X975916Y816309D01*
X976677Y817448D01*
X977530Y821740D01*
X976677Y826032D01*
X974246Y829671D01*
X970607Y832102D01*
X966315Y832956D01*
D02*
G37*
G36*
X1025370D02*
X1021078Y832102D01*
X1017439Y829671D01*
X1015008Y826032D01*
X1014155Y821740D01*
X1015008Y817448D01*
X1017439Y813810D01*
X1021078Y811378D01*
X1025370Y810525D01*
X1029662Y811378D01*
X1033301Y813810D01*
X1035732Y817448D01*
X1036586Y821740D01*
X1035732Y826032D01*
X1033301Y829671D01*
X1029662Y832102D01*
X1025370Y832956D01*
D02*
G37*
G36*
X1965000Y907173D02*
X1952273Y905497D01*
X1940414Y900585D01*
X1930230Y892770D01*
X1922415Y882586D01*
X1917503Y870727D01*
X1915827Y858000D01*
X1917503Y845273D01*
X1922415Y833414D01*
X1930230Y823230D01*
X1940414Y815415D01*
X1952273Y810503D01*
X1965000Y808827D01*
X1977727Y810503D01*
X1989586Y815415D01*
X1999770Y823230D01*
X2007585Y833414D01*
X2012497Y845273D01*
X2014173Y858000D01*
X2012497Y870727D01*
X2007585Y882586D01*
X1999770Y892770D01*
X1989586Y900585D01*
X1977727Y905497D01*
X1965000Y907173D01*
D02*
G37*
G36*
X1840000D02*
X1827273Y905497D01*
X1815414Y900585D01*
X1805230Y892770D01*
X1797415Y882586D01*
X1792503Y870727D01*
X1790827Y858000D01*
X1792503Y845273D01*
X1797415Y833414D01*
X1805230Y823230D01*
X1815414Y815415D01*
X1827273Y810503D01*
X1840000Y808827D01*
X1852727Y810503D01*
X1864586Y815415D01*
X1874770Y823230D01*
X1882585Y833414D01*
X1887497Y845273D01*
X1889173Y858000D01*
X1887497Y870727D01*
X1882585Y882586D01*
X1874770Y892770D01*
X1864586Y900585D01*
X1852727Y905497D01*
X1840000Y907173D01*
D02*
G37*
G36*
X4038555Y812126D02*
X4030276D01*
Y803846D01*
X4030738Y803938D01*
X4035369Y807033D01*
X4038463Y811663D01*
X4038555Y812126D01*
D02*
G37*
G36*
X4020276D02*
X4011996D01*
X4012088Y811663D01*
X4015182Y807033D01*
X4019813Y803938D01*
X4020276Y803846D01*
Y812126D01*
D02*
G37*
G36*
X1686000Y826216D02*
X1681708Y825362D01*
X1678069Y822931D01*
X1675638Y819292D01*
X1674784Y815000D01*
X1675638Y810708D01*
X1678069Y807069D01*
X1681708Y804638D01*
X1686000Y803784D01*
X1690292Y804638D01*
X1693931Y807069D01*
X1696362Y810708D01*
X1697216Y815000D01*
X1696362Y819292D01*
X1693931Y822931D01*
X1690292Y825362D01*
X1686000Y826216D01*
D02*
G37*
G36*
X1077582Y806635D02*
Y798355D01*
X1085862D01*
X1085770Y798818D01*
X1082676Y803449D01*
X1078045Y806543D01*
X1077582Y806635D01*
D02*
G37*
G36*
X1067582D02*
X1067120Y806543D01*
X1062489Y803449D01*
X1059395Y798818D01*
X1059303Y798355D01*
X1067582D01*
Y806635D01*
D02*
G37*
G36*
X3882000Y818216D02*
X3877708Y817362D01*
X3874069Y814931D01*
X3871638Y811292D01*
X3870785Y807000D01*
X3871638Y802708D01*
X3874069Y799069D01*
X3877708Y796638D01*
X3882000Y795784D01*
X3886292Y796638D01*
X3889931Y799069D01*
X3892362Y802708D01*
X3893215Y807000D01*
X3892362Y811292D01*
X3889931Y814931D01*
X3886292Y817362D01*
X3882000Y818216D01*
D02*
G37*
G36*
X4399032Y816247D02*
X4394739Y815393D01*
X4391101Y812962D01*
X4388670Y809323D01*
X4387816Y805032D01*
X4388670Y800740D01*
X4391101Y797101D01*
X4394739Y794670D01*
X4399032Y793816D01*
X4403324Y794670D01*
X4406962Y797101D01*
X4409393Y800740D01*
X4410247Y805032D01*
X4409393Y809323D01*
X4406962Y812962D01*
X4403324Y815393D01*
X4399032Y816247D01*
D02*
G37*
G36*
X3805410D02*
X3801117Y815393D01*
X3797479Y812962D01*
X3795048Y809323D01*
X3794194Y805032D01*
X3795048Y800740D01*
X3797479Y797101D01*
X3801117Y794670D01*
X3805410Y793816D01*
X3809702Y794670D01*
X3813340Y797101D01*
X3815771Y800740D01*
X3816625Y805032D01*
X3815771Y809323D01*
X3813340Y812962D01*
X3809702Y815393D01*
X3805410Y816247D01*
D02*
G37*
G36*
X784362Y801383D02*
Y793103D01*
X792642D01*
X792550Y793566D01*
X789456Y798197D01*
X784824Y801291D01*
X784362Y801383D01*
D02*
G37*
G36*
X774362D02*
X773899Y801291D01*
X769269Y798197D01*
X766174Y793566D01*
X766082Y793103D01*
X774362D01*
Y801383D01*
D02*
G37*
G36*
X835000Y796280D02*
Y788000D01*
X843280D01*
X843188Y788462D01*
X840093Y793093D01*
X835462Y796188D01*
X835000Y796280D01*
D02*
G37*
G36*
X825000D02*
X824538Y796188D01*
X819907Y793093D01*
X816812Y788462D01*
X816720Y788000D01*
X825000D01*
Y796280D01*
D02*
G37*
G36*
X1609000Y807216D02*
X1604708Y806362D01*
X1601069Y803931D01*
X1598638Y800292D01*
X1597784Y796000D01*
X1598638Y791708D01*
X1601069Y788069D01*
X1604708Y785638D01*
X1609000Y784784D01*
X1613292Y785638D01*
X1616931Y788069D01*
X1619362Y791708D01*
X1620216Y796000D01*
X1619362Y800292D01*
X1616931Y803931D01*
X1613292Y806362D01*
X1609000Y807216D01*
D02*
G37*
G36*
X1085862Y788355D02*
X1077582D01*
Y780076D01*
X1078045Y780168D01*
X1082676Y783262D01*
X1085770Y787893D01*
X1085862Y788355D01*
D02*
G37*
G36*
X1067582D02*
X1059303D01*
X1059395Y787893D01*
X1062489Y783262D01*
X1067120Y780168D01*
X1067582Y780076D01*
Y788355D01*
D02*
G37*
G36*
X5373547Y800216D02*
X5369255Y799362D01*
X5365616Y796931D01*
X5363185Y793292D01*
X5362331Y789000D01*
X5363185Y784708D01*
X5365616Y781069D01*
X5369255Y778638D01*
X5373547Y777784D01*
X5377839Y778638D01*
X5381477Y781069D01*
X5383909Y784708D01*
X5384762Y789000D01*
X5383909Y793292D01*
X5381477Y796931D01*
X5377839Y799362D01*
X5373547Y800216D01*
D02*
G37*
G36*
X5293547D02*
X5289255Y799362D01*
X5285616Y796931D01*
X5283185Y793292D01*
X5282331Y789000D01*
X5283185Y784708D01*
X5285616Y781069D01*
X5289255Y778638D01*
X5293547Y777784D01*
X5297839Y778638D01*
X5301477Y781069D01*
X5303909Y784708D01*
X5304762Y789000D01*
X5303909Y793292D01*
X5301477Y796931D01*
X5297839Y799362D01*
X5293547Y800216D01*
D02*
G37*
G36*
X5213641D02*
X5209349Y799362D01*
X5205711Y796931D01*
X5203279Y793292D01*
X5202426Y789000D01*
X5203279Y784708D01*
X5205711Y781069D01*
X5209349Y778638D01*
X5213641Y777784D01*
X5217933Y778638D01*
X5221572Y781069D01*
X5224003Y784708D01*
X5224857Y789000D01*
X5224003Y793292D01*
X5221572Y796931D01*
X5217933Y799362D01*
X5213641Y800216D01*
D02*
G37*
G36*
X4584000Y798216D02*
X4579708Y797362D01*
X4576069Y794931D01*
X4573638Y791292D01*
X4572784Y787000D01*
X4573638Y782708D01*
X4576069Y779069D01*
X4579708Y776638D01*
X4584000Y775784D01*
X4588292Y776638D01*
X4591931Y779069D01*
X4594362Y782708D01*
X4595216Y787000D01*
X4594362Y791292D01*
X4591931Y794931D01*
X4588292Y797362D01*
X4584000Y798216D01*
D02*
G37*
G36*
X792642Y783103D02*
X784362D01*
Y774824D01*
X784824Y774916D01*
X789456Y778010D01*
X792550Y782641D01*
X792642Y783103D01*
D02*
G37*
G36*
X774362D02*
X766082D01*
X766174Y782641D01*
X769269Y778010D01*
X773899Y774916D01*
X774362Y774824D01*
Y783103D01*
D02*
G37*
G36*
X4139000Y819216D02*
X4134708Y818362D01*
X4131069Y815931D01*
X4128638Y812292D01*
X4127784Y808000D01*
X4128638Y803708D01*
X4131069Y800069D01*
X4131912Y799507D01*
Y793493D01*
X4131069Y792931D01*
X4128638Y789292D01*
X4127784Y785000D01*
X4128638Y780708D01*
X4131069Y777069D01*
X4134708Y774638D01*
X4139000Y773784D01*
X4143292Y774638D01*
X4146931Y777069D01*
X4149362Y780708D01*
X4150216Y785000D01*
X4149362Y789292D01*
X4146931Y792931D01*
X4146088Y793493D01*
Y799507D01*
X4146931Y800069D01*
X4149362Y803708D01*
X4150216Y808000D01*
X4149362Y812292D01*
X4146931Y815931D01*
X4143292Y818362D01*
X4139000Y819216D01*
D02*
G37*
G36*
X843280Y778000D02*
X835000D01*
Y769720D01*
X835462Y769812D01*
X840093Y772907D01*
X843188Y777538D01*
X843280Y778000D01*
D02*
G37*
G36*
X825000D02*
X816720D01*
X816812Y777538D01*
X819907Y772907D01*
X824538Y769812D01*
X825000Y769720D01*
Y778000D01*
D02*
G37*
G36*
X1030370Y775965D02*
Y767685D01*
X1038650D01*
X1038558Y768148D01*
X1035464Y772779D01*
X1030833Y775873D01*
X1030370Y775965D01*
D02*
G37*
G36*
X981000D02*
X980538Y775873D01*
X975907Y772779D01*
X972812Y768148D01*
X972720Y767685D01*
X981000D01*
Y775965D01*
D02*
G37*
G36*
X3655028Y774216D02*
X3650735Y773362D01*
X3647097Y770931D01*
X3644666Y767292D01*
X3643812Y763000D01*
X3644666Y758708D01*
X3647097Y755069D01*
X3650735Y752638D01*
X3655028Y751785D01*
X3659320Y752638D01*
X3662958Y755069D01*
X3665389Y758708D01*
X3666243Y763000D01*
X3665389Y767292D01*
X3662958Y770931D01*
X3659320Y773362D01*
X3655028Y774216D01*
D02*
G37*
G36*
X4613906Y773901D02*
X4609614Y773047D01*
X4605975Y770616D01*
X4603544Y766977D01*
X4602690Y762685D01*
X4603544Y758393D01*
X4605975Y754755D01*
X4609614Y752323D01*
X4613906Y751470D01*
X4618198Y752323D01*
X4621836Y754755D01*
X4624267Y758393D01*
X4625121Y762685D01*
X4624267Y766977D01*
X4621836Y770616D01*
X4618198Y773047D01*
X4613906Y773901D01*
D02*
G37*
G36*
X946630D02*
X942338Y773047D01*
X938699Y770616D01*
X936268Y766977D01*
X935414Y762685D01*
X936268Y758393D01*
X938699Y754755D01*
X942338Y752323D01*
X946630Y751470D01*
X950922Y752323D01*
X954561Y754755D01*
X956992Y758393D01*
X957845Y762685D01*
X956992Y766977D01*
X954561Y770616D01*
X950922Y773047D01*
X946630Y773901D01*
D02*
G37*
G36*
X4157992Y773223D02*
X4153700Y772370D01*
X4150061Y769938D01*
X4147630Y766300D01*
X4146777Y762008D01*
X4147630Y757716D01*
X4150061Y754077D01*
X4153700Y751646D01*
X4157992Y750792D01*
X4162284Y751646D01*
X4165923Y754077D01*
X4168354Y757716D01*
X4169208Y762008D01*
X4168354Y766300D01*
X4165923Y769938D01*
X4162284Y772370D01*
X4157992Y773223D01*
D02*
G37*
G36*
X5017000Y772216D02*
X5012708Y771362D01*
X5009069Y768931D01*
X5006638Y765292D01*
X5005784Y761000D01*
X5006638Y756708D01*
X5009069Y753069D01*
X5012708Y750638D01*
X5017000Y749784D01*
X5021292Y750638D01*
X5024931Y753069D01*
X5027362Y756708D01*
X5028216Y761000D01*
X5027362Y765292D01*
X5024931Y768931D01*
X5021292Y771362D01*
X5017000Y772216D01*
D02*
G37*
G36*
X1508748Y758010D02*
Y749731D01*
X1517028D01*
X1516936Y750193D01*
X1513841Y754824D01*
X1509210Y757918D01*
X1508748Y758010D01*
D02*
G37*
G36*
X1498748D02*
X1498285Y757918D01*
X1493654Y754824D01*
X1490560Y750193D01*
X1490468Y749731D01*
X1498748D01*
Y758010D01*
D02*
G37*
G36*
X1463748D02*
Y749731D01*
X1472028D01*
X1471936Y750193D01*
X1468841Y754824D01*
X1464210Y757918D01*
X1463748Y758010D01*
D02*
G37*
G36*
X1453748D02*
X1453285Y757918D01*
X1448654Y754824D01*
X1445560Y750193D01*
X1445468Y749731D01*
X1453748D01*
Y758010D01*
D02*
G37*
G36*
X1038650Y757685D02*
X1030370D01*
Y749405D01*
X1030833Y749497D01*
X1035464Y752592D01*
X1038558Y757223D01*
X1038650Y757685D01*
D02*
G37*
G36*
X1020370Y777370D02*
X991000D01*
Y762685D01*
Y749405D01*
X991462Y749497D01*
X996093Y752592D01*
X1001393Y752008D01*
X1005685Y751155D01*
X1009977Y752008D01*
X1015277Y752592D01*
X1019908Y749497D01*
X1020370Y749405D01*
Y762685D01*
Y777370D01*
D02*
G37*
G36*
X981000Y757685D02*
X972720D01*
X972812Y757223D01*
X975907Y752592D01*
X980538Y749497D01*
X981000Y749405D01*
Y757685D01*
D02*
G37*
G36*
X3912000Y766216D02*
X3907708Y765362D01*
X3904069Y762931D01*
X3901638Y759292D01*
X3900785Y755000D01*
X3901638Y750708D01*
X3904069Y747069D01*
X3907708Y744638D01*
X3912000Y743784D01*
X3916292Y744638D01*
X3919931Y747069D01*
X3922362Y750708D01*
X3923215Y755000D01*
X3922362Y759292D01*
X3919931Y762931D01*
X3916292Y765362D01*
X3912000Y766216D01*
D02*
G37*
G36*
X835000Y750971D02*
Y742691D01*
X843280D01*
X843188Y743154D01*
X840093Y747785D01*
X835462Y750879D01*
X835000Y750971D01*
D02*
G37*
G36*
X825000D02*
X824538Y750879D01*
X819907Y747785D01*
X816812Y743154D01*
X816720Y742691D01*
X825000D01*
Y750971D01*
D02*
G37*
G36*
X1681370Y761704D02*
X1677078Y760850D01*
X1673439Y758419D01*
X1671008Y754780D01*
X1670155Y750488D01*
X1671008Y746196D01*
X1673439Y742558D01*
X1677078Y740126D01*
X1681370Y739273D01*
X1685662Y740126D01*
X1689301Y742558D01*
X1691732Y746196D01*
X1692586Y750488D01*
X1691732Y754780D01*
X1689301Y758419D01*
X1685662Y760850D01*
X1681370Y761704D01*
D02*
G37*
G36*
X1642000D02*
X1637708Y760850D01*
X1634069Y758419D01*
X1631638Y754780D01*
X1630784Y750488D01*
X1631638Y746196D01*
X1634069Y742558D01*
X1637708Y740126D01*
X1642000Y739273D01*
X1646292Y740126D01*
X1649931Y742558D01*
X1652362Y746196D01*
X1653216Y750488D01*
X1652362Y754780D01*
X1649931Y758419D01*
X1646292Y760850D01*
X1642000Y761704D01*
D02*
G37*
G36*
X1072582Y761538D02*
X1068291Y760685D01*
X1064652Y758254D01*
X1062221Y754615D01*
X1061367Y750323D01*
X1062221Y746031D01*
X1064652Y742392D01*
X1068291Y739961D01*
X1072582Y739107D01*
X1076874Y739961D01*
X1080513Y742392D01*
X1082944Y746031D01*
X1083798Y750323D01*
X1082944Y754615D01*
X1080513Y758254D01*
X1076874Y760685D01*
X1072582Y761538D01*
D02*
G37*
G36*
X784362Y745958D02*
Y737678D01*
X792642D01*
X792550Y738141D01*
X789456Y742772D01*
X784824Y745866D01*
X784362Y745958D01*
D02*
G37*
G36*
X774362D02*
X773899Y745866D01*
X769269Y742772D01*
X766174Y738141D01*
X766082Y737678D01*
X774362D01*
Y745958D01*
D02*
G37*
G36*
X3660028Y741634D02*
Y733354D01*
X3668307D01*
X3668215Y733817D01*
X3665121Y738448D01*
X3660490Y741542D01*
X3660028Y741634D01*
D02*
G37*
G36*
X3650028D02*
X3649565Y741542D01*
X3644934Y738448D01*
X3641840Y733817D01*
X3641748Y733354D01*
X3650028D01*
Y741634D01*
D02*
G37*
G36*
X3615000D02*
Y733354D01*
X3623280D01*
X3623188Y733817D01*
X3620093Y738448D01*
X3615463Y741542D01*
X3615000Y741634D01*
D02*
G37*
G36*
X3605000D02*
X3604537Y741542D01*
X3599907Y738448D01*
X3596812Y733817D01*
X3596720Y733354D01*
X3605000D01*
Y741634D01*
D02*
G37*
G36*
X1517028Y739731D02*
X1508748D01*
Y731451D01*
X1509210Y731543D01*
X1513841Y734637D01*
X1516936Y739268D01*
X1517028Y739731D01*
D02*
G37*
G36*
X1498748D02*
X1490468D01*
X1490560Y739268D01*
X1493654Y734637D01*
X1498285Y731543D01*
X1498748Y731451D01*
Y739731D01*
D02*
G37*
G36*
X1472028D02*
X1463748D01*
Y731451D01*
X1464210Y731543D01*
X1468841Y734637D01*
X1471936Y739268D01*
X1472028Y739731D01*
D02*
G37*
G36*
X1453748D02*
X1445468D01*
X1445560Y739268D01*
X1448654Y734637D01*
X1453285Y731543D01*
X1453748Y731451D01*
Y739731D01*
D02*
G37*
G36*
X5378547Y739288D02*
Y731008D01*
X5386827D01*
X5386734Y731470D01*
X5383640Y736101D01*
X5379009Y739196D01*
X5378547Y739288D01*
D02*
G37*
G36*
X5368547D02*
X5368084Y739196D01*
X5363453Y736101D01*
X5360359Y731470D01*
X5360267Y731008D01*
X5368547D01*
Y739288D01*
D02*
G37*
G36*
X5298547D02*
Y731008D01*
X5306827D01*
X5306734Y731470D01*
X5303640Y736101D01*
X5299009Y739196D01*
X5298547Y739288D01*
D02*
G37*
G36*
X5288547D02*
X5288084Y739196D01*
X5283453Y736101D01*
X5280359Y731470D01*
X5280267Y731008D01*
X5288547D01*
Y739288D01*
D02*
G37*
G36*
X920411Y732996D02*
X916119Y732143D01*
X912481Y729711D01*
X910970Y727450D01*
X910287Y727240D01*
X906179Y727223D01*
X905414Y727450D01*
X903931Y729671D01*
X900292Y732102D01*
X896000Y732956D01*
X891708Y732102D01*
X888069Y729671D01*
X885638Y726032D01*
X884784Y721740D01*
X885638Y717448D01*
X888069Y713810D01*
X891708Y711378D01*
X896000Y710525D01*
X900292Y711378D01*
X903931Y713810D01*
X905441Y716071D01*
X906124Y716281D01*
X910232Y716298D01*
X910997Y716071D01*
X912481Y713850D01*
X916119Y711419D01*
X920411Y710565D01*
X924703Y711419D01*
X928342Y713850D01*
X930773Y717489D01*
X930967Y718467D01*
X936066D01*
X936268Y717448D01*
X938699Y713810D01*
X942338Y711378D01*
X946630Y710525D01*
X950922Y711378D01*
X954561Y713810D01*
X956992Y717448D01*
X957845Y721740D01*
X956992Y726032D01*
X954561Y729671D01*
X950922Y732102D01*
X946630Y732956D01*
X942338Y732102D01*
X938699Y729671D01*
X936268Y726032D01*
X936074Y725054D01*
X930976D01*
X930773Y726073D01*
X928342Y729711D01*
X924703Y732143D01*
X920411Y732996D01*
D02*
G37*
G36*
X2421000Y735193D02*
Y726913D01*
X2429280D01*
X2429188Y727376D01*
X2426093Y732007D01*
X2421463Y735101D01*
X2421000Y735193D01*
D02*
G37*
G36*
X2411000D02*
X2410537Y735101D01*
X2405907Y732007D01*
X2402812Y727376D01*
X2402720Y726913D01*
X2411000D01*
Y735193D01*
D02*
G37*
G36*
X843280Y732691D02*
X835000D01*
Y724412D01*
X835462Y724504D01*
X840093Y727598D01*
X843188Y732229D01*
X843280Y732691D01*
D02*
G37*
G36*
X825000D02*
X816720D01*
X816812Y732229D01*
X819907Y727598D01*
X824538Y724504D01*
X825000Y724412D01*
Y732691D01*
D02*
G37*
G36*
X1077582Y728957D02*
Y720677D01*
X1085862D01*
X1085770Y721140D01*
X1082676Y725771D01*
X1078045Y728865D01*
X1077582Y728957D01*
D02*
G37*
G36*
X1067582D02*
X1067120Y728865D01*
X1062489Y725771D01*
X1059395Y721140D01*
X1059303Y720677D01*
X1067582D01*
Y728957D01*
D02*
G37*
G36*
X1552512Y728335D02*
Y720055D01*
X1560792D01*
X1560699Y720518D01*
X1557605Y725149D01*
X1552974Y728243D01*
X1552512Y728335D01*
D02*
G37*
G36*
X1542512D02*
X1542049Y728243D01*
X1537418Y725149D01*
X1534324Y720518D01*
X1534232Y720055D01*
X1542512D01*
Y728335D01*
D02*
G37*
G36*
X792642Y727678D02*
X784362D01*
Y719398D01*
X784824Y719490D01*
X789456Y722585D01*
X792550Y727216D01*
X792642Y727678D01*
D02*
G37*
G36*
X774362D02*
X766082D01*
X766174Y727216D01*
X769269Y722585D01*
X773899Y719490D01*
X774362Y719398D01*
Y727678D01*
D02*
G37*
G36*
X5145000Y741216D02*
X5140708Y740362D01*
X5137069Y737931D01*
X5134638Y734292D01*
X5133784Y730000D01*
X5134638Y725708D01*
X5137069Y722069D01*
X5140708Y719638D01*
X5145000Y718784D01*
X5149292Y719638D01*
X5152931Y722069D01*
X5155362Y725708D01*
X5156216Y730000D01*
X5155362Y734292D01*
X5152931Y737931D01*
X5149292Y740362D01*
X5145000Y741216D01*
D02*
G37*
G36*
X3765000Y738216D02*
X3760708Y737362D01*
X3757069Y734931D01*
X3754638Y731292D01*
X3753785Y727000D01*
X3754638Y722708D01*
X3757069Y719069D01*
X3760708Y716638D01*
X3765000Y715784D01*
X3769292Y716638D01*
X3772931Y719069D01*
X3775362Y722708D01*
X3776215Y727000D01*
X3775362Y731292D01*
X3772931Y734931D01*
X3769292Y737362D01*
X3765000Y738216D01*
D02*
G37*
G36*
X3668307Y723354D02*
X3660028D01*
Y715075D01*
X3660490Y715167D01*
X3665121Y718261D01*
X3668215Y722892D01*
X3668307Y723354D01*
D02*
G37*
G36*
X3650028D02*
X3641748D01*
X3641840Y722892D01*
X3644934Y718261D01*
X3649565Y715167D01*
X3650028Y715075D01*
Y723354D01*
D02*
G37*
G36*
X3623280D02*
X3615000D01*
Y715075D01*
X3615463Y715167D01*
X3620093Y718261D01*
X3623188Y722892D01*
X3623280Y723354D01*
D02*
G37*
G36*
X3605000D02*
X3596720D01*
X3596812Y722892D01*
X3599907Y718261D01*
X3604537Y715167D01*
X3605000Y715075D01*
Y723354D01*
D02*
G37*
G36*
X5386827Y721008D02*
X5378547D01*
Y712728D01*
X5379009Y712820D01*
X5383640Y715914D01*
X5386734Y720545D01*
X5386827Y721008D01*
D02*
G37*
G36*
X5368547D02*
X5360267D01*
X5360359Y720545D01*
X5363453Y715914D01*
X5368084Y712820D01*
X5368547Y712728D01*
Y721008D01*
D02*
G37*
G36*
X5306827D02*
X5298547D01*
Y712728D01*
X5299009Y712820D01*
X5303640Y715914D01*
X5306734Y720545D01*
X5306827Y721008D01*
D02*
G37*
G36*
X5288547D02*
X5280267D01*
X5280359Y720545D01*
X5283453Y715914D01*
X5288084Y712820D01*
X5288547Y712728D01*
Y721008D01*
D02*
G37*
G36*
X5039748Y731176D02*
X5035456Y730322D01*
X5031817Y727891D01*
X5029386Y724253D01*
X5028533Y719961D01*
X5029386Y715669D01*
X5031817Y712030D01*
X5035456Y709599D01*
X5039748Y708745D01*
X5044040Y709599D01*
X5047679Y712030D01*
X5050110Y715669D01*
X5050963Y719961D01*
X5050110Y724253D01*
X5047679Y727891D01*
X5044040Y730322D01*
X5039748Y731176D01*
D02*
G37*
G36*
X4996441D02*
X4992149Y730322D01*
X4988510Y727891D01*
X4986079Y724253D01*
X4985225Y719961D01*
X4986079Y715669D01*
X4988510Y712030D01*
X4992149Y709599D01*
X4996441Y708745D01*
X5000733Y709599D01*
X5004372Y712030D01*
X5006803Y715669D01*
X5007657Y719961D01*
X5006803Y724253D01*
X5004372Y727891D01*
X5000733Y730322D01*
X4996441Y731176D01*
D02*
G37*
G36*
X4953134D02*
X4948842Y730322D01*
X4945203Y727891D01*
X4942772Y724253D01*
X4941918Y719961D01*
X4942772Y715669D01*
X4945203Y712030D01*
X4948842Y709599D01*
X4953134Y708745D01*
X4957426Y709599D01*
X4961065Y712030D01*
X4963496Y715669D01*
X4964349Y719961D01*
X4963496Y724253D01*
X4961065Y727891D01*
X4957426Y730322D01*
X4953134Y731176D01*
D02*
G37*
G36*
X2429280Y716913D02*
X2421000D01*
Y708634D01*
X2421463Y708726D01*
X2426093Y711820D01*
X2429188Y716451D01*
X2429280Y716913D01*
D02*
G37*
G36*
X2411000D02*
X2402720D01*
X2402812Y716451D01*
X2405907Y711820D01*
X2410537Y708726D01*
X2411000Y708634D01*
Y716913D01*
D02*
G37*
G36*
X1690307Y712587D02*
Y704307D01*
X1698587D01*
X1698495Y704770D01*
X1695401Y709401D01*
X1690770Y712495D01*
X1690307Y712587D01*
D02*
G37*
G36*
X1680307D02*
X1679845Y712495D01*
X1675214Y709401D01*
X1672119Y704770D01*
X1672027Y704307D01*
X1680307D01*
Y712587D01*
D02*
G37*
G36*
X1647000D02*
Y704307D01*
X1655280D01*
X1655188Y704770D01*
X1652093Y709401D01*
X1647463Y712495D01*
X1647000Y712587D01*
D02*
G37*
G36*
X1637000D02*
X1636537Y712495D01*
X1631907Y709401D01*
X1628812Y704770D01*
X1628720Y704307D01*
X1637000D01*
Y712587D01*
D02*
G37*
G36*
X1603693D02*
Y704307D01*
X1611973D01*
X1611881Y704770D01*
X1608786Y709401D01*
X1604155Y712495D01*
X1603693Y712587D01*
D02*
G37*
G36*
X1593693D02*
X1593230Y712495D01*
X1588599Y709401D01*
X1585505Y704770D01*
X1585413Y704307D01*
X1593693D01*
Y712587D01*
D02*
G37*
G36*
X1085862Y710677D02*
X1077582D01*
Y702398D01*
X1078045Y702490D01*
X1082676Y705584D01*
X1085770Y710215D01*
X1085862Y710677D01*
D02*
G37*
G36*
X1067582D02*
X1059303D01*
X1059395Y710215D01*
X1062489Y705584D01*
X1067120Y702490D01*
X1067582Y702398D01*
Y710677D01*
D02*
G37*
G36*
X4242666Y723216D02*
X4238374Y722362D01*
X4234736Y719931D01*
X4232305Y716292D01*
X4231451Y712000D01*
X4232305Y707708D01*
X4234736Y704069D01*
X4238374Y701638D01*
X4242666Y700784D01*
X4246958Y701638D01*
X4250597Y704069D01*
X4253028Y707708D01*
X4253882Y712000D01*
X4253028Y716292D01*
X4250597Y719931D01*
X4246958Y722362D01*
X4242666Y723216D01*
D02*
G37*
G36*
X1560792Y710055D02*
X1534232D01*
X1534324Y709593D01*
X1537251Y705213D01*
X1534324Y700833D01*
X1534232Y700370D01*
X1560792D01*
X1560699Y700833D01*
X1557773Y705213D01*
X1560699Y709593D01*
X1560792Y710055D01*
D02*
G37*
G36*
X3930000Y722216D02*
X3925708Y721362D01*
X3922069Y718931D01*
X3919638Y715292D01*
X3918785Y711000D01*
X3919638Y706708D01*
X3922069Y703069D01*
X3925708Y700638D01*
X3930000Y699784D01*
X3934292Y700638D01*
X3937931Y703069D01*
X3940362Y706708D01*
X3941215Y711000D01*
X3940362Y715292D01*
X3937931Y718931D01*
X3934292Y721362D01*
X3930000Y722216D01*
D02*
G37*
G36*
X4189000Y717216D02*
X4184708Y716362D01*
X4181069Y713931D01*
X4178638Y710292D01*
X4177784Y706000D01*
X4178638Y701708D01*
X4181069Y698069D01*
X4184708Y695638D01*
X4189000Y694784D01*
X4193292Y695638D01*
X4196931Y698069D01*
X4199362Y701708D01*
X4200216Y706000D01*
X4199362Y710292D01*
X4196931Y713931D01*
X4193292Y716362D01*
X4189000Y717216D01*
D02*
G37*
G36*
X4110000D02*
X4105708Y716362D01*
X4102069Y713931D01*
X4099638Y710292D01*
X4098784Y706000D01*
X4099638Y701708D01*
X4102069Y698069D01*
X4105708Y695638D01*
X4110000Y694784D01*
X4114292Y695638D01*
X4117931Y698069D01*
X4120362Y701708D01*
X4121216Y706000D01*
X4120362Y710292D01*
X4117931Y713931D01*
X4114292Y716362D01*
X4110000Y717216D01*
D02*
G37*
G36*
X714000Y724247D02*
X709708Y723393D01*
X706069Y720962D01*
X703638Y717323D01*
X702784Y713032D01*
X703638Y708740D01*
X706069Y705101D01*
X707318Y704267D01*
Y698435D01*
X706069Y697601D01*
X704054Y694585D01*
X702755Y694227D01*
X701572Y694140D01*
X698626Y694393D01*
X696931Y696931D01*
X693292Y699362D01*
X689000Y700216D01*
X684708Y699362D01*
X681069Y696931D01*
X678825Y693571D01*
X676726Y693298D01*
X675707Y693302D01*
X673597Y693580D01*
X671348Y696946D01*
X667709Y699378D01*
X663417Y700231D01*
X659125Y699378D01*
X655487Y696946D01*
X653367Y693774D01*
X650709Y693526D01*
X648050Y693774D01*
X645931Y696946D01*
X642292Y699378D01*
X638000Y700231D01*
X633708Y699378D01*
X630069Y696946D01*
X627638Y693308D01*
X626785Y689016D01*
X627638Y684724D01*
X630069Y681085D01*
X633708Y678654D01*
X638000Y677800D01*
X642292Y678654D01*
X645931Y681085D01*
X648050Y684257D01*
X650709Y684505D01*
X653367Y684257D01*
X655487Y681085D01*
X659125Y678654D01*
X663417Y677800D01*
X667709Y678654D01*
X671348Y681085D01*
X673593Y684445D01*
X675691Y684717D01*
X676710Y684714D01*
X678820Y684436D01*
X681069Y681069D01*
X684708Y678638D01*
X689000Y677784D01*
X693292Y678638D01*
X696931Y681069D01*
X698946Y684086D01*
X700245Y684444D01*
X701428Y684530D01*
X704374Y684277D01*
X706069Y681740D01*
X709708Y679309D01*
X714000Y678455D01*
X718292Y679309D01*
X721931Y681740D01*
X724362Y685379D01*
X725216Y689670D01*
X724362Y693962D01*
X721931Y697601D01*
X720682Y698435D01*
Y704267D01*
X721931Y705101D01*
X724362Y708740D01*
X725216Y713032D01*
X724362Y717323D01*
X721931Y720962D01*
X718292Y723393D01*
X714000Y724247D01*
D02*
G37*
G36*
X1467246Y697437D02*
Y689158D01*
X1475525D01*
X1475433Y689620D01*
X1472339Y694251D01*
X1467708Y697345D01*
X1467246Y697437D01*
D02*
G37*
G36*
X1457246D02*
X1456783Y697345D01*
X1452152Y694251D01*
X1449058Y689620D01*
X1448966Y689158D01*
X1457246D01*
Y697437D01*
D02*
G37*
G36*
X4072235Y710216D02*
X4067943Y709362D01*
X4064305Y706931D01*
X4061874Y703292D01*
X4061020Y699000D01*
X4061874Y694708D01*
X4064305Y691069D01*
X4067943Y688638D01*
X4072235Y687784D01*
X4076528Y688638D01*
X4080166Y691069D01*
X4082597Y694708D01*
X4083451Y699000D01*
X4082597Y703292D01*
X4080166Y706931D01*
X4076528Y709362D01*
X4072235Y710216D01*
D02*
G37*
G36*
X1698587Y694307D02*
X1690307D01*
Y686027D01*
X1690770Y686119D01*
X1695401Y689214D01*
X1698495Y693845D01*
X1698587Y694307D01*
D02*
G37*
G36*
X1680307D02*
X1672027D01*
X1672119Y693845D01*
X1675214Y689214D01*
X1679845Y686119D01*
X1680307Y686027D01*
Y694307D01*
D02*
G37*
G36*
X1655280D02*
X1647000D01*
Y686027D01*
X1647463Y686119D01*
X1652093Y689214D01*
X1655188Y693845D01*
X1655280Y694307D01*
D02*
G37*
G36*
X1637000D02*
X1628720D01*
X1628812Y693845D01*
X1631907Y689214D01*
X1636537Y686119D01*
X1637000Y686027D01*
Y694307D01*
D02*
G37*
G36*
X1611973D02*
X1603693D01*
Y686027D01*
X1604155Y686119D01*
X1608786Y689214D01*
X1611881Y693845D01*
X1611973Y694307D01*
D02*
G37*
G36*
X1593693D02*
X1585413D01*
X1585505Y693845D01*
X1588599Y689214D01*
X1593230Y686119D01*
X1593693Y686027D01*
Y694307D01*
D02*
G37*
G36*
X1388000Y707806D02*
X1383708Y706952D01*
X1380069Y704521D01*
X1377638Y700883D01*
X1376784Y696591D01*
X1377638Y692299D01*
X1380069Y688660D01*
X1383708Y686229D01*
X1388000Y685375D01*
X1392292Y686229D01*
X1395931Y688660D01*
X1398362Y692299D01*
X1399216Y696591D01*
X1398362Y700883D01*
X1395931Y704521D01*
X1392292Y706952D01*
X1388000Y707806D01*
D02*
G37*
G36*
X1010803Y703231D02*
X1006511Y702378D01*
X1002873Y699946D01*
X1000441Y696308D01*
X999588Y692016D01*
X1000441Y687724D01*
X1002873Y684085D01*
X1006511Y681654D01*
X1010803Y680800D01*
X1015095Y681654D01*
X1018734Y684085D01*
X1021165Y687724D01*
X1022019Y692016D01*
X1021165Y696308D01*
X1018734Y699946D01*
X1015095Y702378D01*
X1010803Y703231D01*
D02*
G37*
G36*
X1560792Y690370D02*
X1534232D01*
X1534324Y689908D01*
X1537251Y685528D01*
X1534324Y681148D01*
X1534232Y680685D01*
X1560792D01*
X1560699Y681148D01*
X1557773Y685528D01*
X1560699Y689908D01*
X1560792Y690370D01*
D02*
G37*
G36*
X1475525Y679158D02*
X1467246D01*
Y670878D01*
X1467708Y670970D01*
X1472339Y674064D01*
X1475433Y678695D01*
X1475525Y679158D01*
D02*
G37*
G36*
X1457246D02*
X1448966D01*
X1449058Y678695D01*
X1452152Y674064D01*
X1456783Y670970D01*
X1457246Y670878D01*
Y679158D01*
D02*
G37*
G36*
X801220Y692894D02*
X796928Y692040D01*
X793290Y689609D01*
X790859Y685970D01*
X790005Y681678D01*
X790859Y677386D01*
X793290Y673747D01*
X796928Y671316D01*
X801220Y670463D01*
X805512Y671316D01*
X809151Y673747D01*
X811582Y677386D01*
X812436Y681678D01*
X811582Y685970D01*
X809151Y689609D01*
X805512Y692040D01*
X801220Y692894D01*
D02*
G37*
G36*
X5144079Y691216D02*
X5139787Y690362D01*
X5136148Y687931D01*
X5133717Y684292D01*
X5132863Y680000D01*
X5133717Y675708D01*
X5136148Y672069D01*
X5139787Y669638D01*
X5144079Y668784D01*
X5148371Y669638D01*
X5152009Y672069D01*
X5154440Y675708D01*
X5155294Y680000D01*
X5154440Y684292D01*
X5152009Y687931D01*
X5148371Y690362D01*
X5144079Y691216D01*
D02*
G37*
G36*
X5039748Y687869D02*
X5035456Y687015D01*
X5031817Y684584D01*
X5029386Y680946D01*
X5028533Y676654D01*
X5029386Y672361D01*
X5031817Y668723D01*
X5035456Y666292D01*
X5039748Y665438D01*
X5044040Y666292D01*
X5047679Y668723D01*
X5050110Y672361D01*
X5050963Y676654D01*
X5050110Y680946D01*
X5047679Y684584D01*
X5044040Y687015D01*
X5039748Y687869D01*
D02*
G37*
G36*
X4996441D02*
X4992149Y687015D01*
X4988510Y684584D01*
X4986079Y680946D01*
X4985225Y676654D01*
X4986079Y672361D01*
X4988510Y668723D01*
X4992149Y666292D01*
X4996441Y665438D01*
X5000733Y666292D01*
X5004372Y668723D01*
X5006803Y672361D01*
X5007657Y676654D01*
X5006803Y680946D01*
X5004372Y684584D01*
X5000733Y687015D01*
X4996441Y687869D01*
D02*
G37*
G36*
X4953134D02*
X4948842Y687015D01*
X4945203Y684584D01*
X4942772Y680946D01*
X4941918Y676654D01*
X4942772Y672361D01*
X4945203Y668723D01*
X4948842Y666292D01*
X4953134Y665438D01*
X4957426Y666292D01*
X4961065Y668723D01*
X4963496Y672361D01*
X4964349Y676654D01*
X4963496Y680946D01*
X4961065Y684584D01*
X4957426Y687015D01*
X4953134Y687869D01*
D02*
G37*
G36*
X4132575Y669855D02*
Y661575D01*
X4140855D01*
X4140762Y662037D01*
X4137668Y666668D01*
X4133037Y669763D01*
X4132575Y669855D01*
D02*
G37*
G36*
X4122575D02*
X4122112Y669763D01*
X4117481Y666668D01*
X4114387Y662037D01*
X4114295Y661575D01*
X4122575D01*
Y669855D01*
D02*
G37*
G36*
X1690307Y669280D02*
Y661000D01*
X1698587D01*
X1698495Y661462D01*
X1695401Y666093D01*
X1690770Y669188D01*
X1690307Y669280D01*
D02*
G37*
G36*
X1680307D02*
X1679845Y669188D01*
X1675214Y666093D01*
X1672119Y661462D01*
X1672027Y661000D01*
X1680307D01*
Y669280D01*
D02*
G37*
G36*
X1647000D02*
Y661000D01*
X1655280D01*
X1655188Y661462D01*
X1652093Y666093D01*
X1647463Y669188D01*
X1647000Y669280D01*
D02*
G37*
G36*
X1637000D02*
X1636537Y669188D01*
X1631907Y666093D01*
X1628812Y661462D01*
X1628720Y661000D01*
X1637000D01*
Y669280D01*
D02*
G37*
G36*
X1603693D02*
Y661000D01*
X1611973D01*
X1611881Y661462D01*
X1608786Y666093D01*
X1604155Y669188D01*
X1603693Y669280D01*
D02*
G37*
G36*
X1593693D02*
X1593230Y669188D01*
X1588599Y666093D01*
X1585505Y661462D01*
X1585413Y661000D01*
X1593693D01*
Y669280D01*
D02*
G37*
G36*
X5743500Y679210D02*
X5739208Y678356D01*
X5735569Y675925D01*
X5733138Y672287D01*
X5732284Y667995D01*
X5733138Y663703D01*
X5735569Y660064D01*
X5739208Y657633D01*
X5743500Y656779D01*
X5747792Y657633D01*
X5751431Y660064D01*
X5753862Y663703D01*
X5754716Y667995D01*
X5753862Y672287D01*
X5751431Y675925D01*
X5747792Y678356D01*
X5743500Y679210D01*
D02*
G37*
G36*
X5690000D02*
X5685708Y678356D01*
X5682069Y675925D01*
X5679638Y672287D01*
X5678784Y667995D01*
X5679638Y663703D01*
X5682069Y660064D01*
X5685708Y657633D01*
X5690000Y656779D01*
X5694292Y657633D01*
X5697931Y660064D01*
X5700362Y663703D01*
X5701216Y667995D01*
X5700362Y672287D01*
X5697931Y675925D01*
X5694292Y678356D01*
X5690000Y679210D01*
D02*
G37*
G36*
X5636500D02*
X5632208Y678356D01*
X5628569Y675925D01*
X5626138Y672287D01*
X5625284Y667995D01*
X5626138Y663703D01*
X5628569Y660064D01*
X5632208Y657633D01*
X5636500Y656779D01*
X5640792Y657633D01*
X5644431Y660064D01*
X5646862Y663703D01*
X5647716Y667995D01*
X5646862Y672287D01*
X5644431Y675925D01*
X5640792Y678356D01*
X5636500Y679210D01*
D02*
G37*
G36*
X5363000Y672420D02*
X5358708Y671567D01*
X5355069Y669135D01*
X5352638Y665497D01*
X5351784Y661205D01*
X5352638Y656913D01*
X5355069Y653274D01*
X5358708Y650843D01*
X5363000Y649989D01*
X5367292Y650843D01*
X5370931Y653274D01*
X5373362Y656913D01*
X5374216Y661205D01*
X5373362Y665497D01*
X5370931Y669135D01*
X5367292Y671567D01*
X5363000Y672420D01*
D02*
G37*
G36*
X5313000D02*
X5308708Y671567D01*
X5305069Y669135D01*
X5302638Y665497D01*
X5301784Y661205D01*
X5302638Y656913D01*
X5305069Y653274D01*
X5308708Y650843D01*
X5313000Y649989D01*
X5317292Y650843D01*
X5320931Y653274D01*
X5323362Y656913D01*
X5324216Y661205D01*
X5323362Y665497D01*
X5320931Y669135D01*
X5317292Y671567D01*
X5313000Y672420D01*
D02*
G37*
G36*
X5263000D02*
X5258708Y671567D01*
X5255069Y669135D01*
X5252638Y665497D01*
X5251784Y661205D01*
X5252638Y656913D01*
X5255069Y653274D01*
X5258708Y650843D01*
X5263000Y649989D01*
X5267292Y650843D01*
X5270931Y653274D01*
X5273362Y656913D01*
X5274216Y661205D01*
X5273362Y665497D01*
X5270931Y669135D01*
X5267292Y671567D01*
X5263000Y672420D01*
D02*
G37*
G36*
X5213000D02*
X5208708Y671567D01*
X5205069Y669135D01*
X5202638Y665497D01*
X5201784Y661205D01*
X5202638Y656913D01*
X5205069Y653274D01*
X5208708Y650843D01*
X5213000Y649989D01*
X5217292Y650843D01*
X5220931Y653274D01*
X5223362Y656913D01*
X5224216Y661205D01*
X5223362Y665497D01*
X5220931Y669135D01*
X5217292Y671567D01*
X5213000Y672420D01*
D02*
G37*
G36*
X4140855Y651575D02*
X4132575D01*
Y643295D01*
X4133037Y643387D01*
X4137668Y646481D01*
X4140762Y651112D01*
X4140855Y651575D01*
D02*
G37*
G36*
X4122575D02*
X4114295D01*
X4114387Y651112D01*
X4117481Y646481D01*
X4122112Y643387D01*
X4122575Y643295D01*
Y651575D01*
D02*
G37*
G36*
X1698587Y651000D02*
X1690307D01*
Y642720D01*
X1690770Y642812D01*
X1695401Y645907D01*
X1698495Y650538D01*
X1698587Y651000D01*
D02*
G37*
G36*
X1680307D02*
X1672027D01*
X1672119Y650538D01*
X1675214Y645907D01*
X1679845Y642812D01*
X1680307Y642720D01*
Y651000D01*
D02*
G37*
G36*
X1655280D02*
X1647000D01*
Y642720D01*
X1647463Y642812D01*
X1652093Y645907D01*
X1655188Y650538D01*
X1655280Y651000D01*
D02*
G37*
G36*
X1637000D02*
X1628720D01*
X1628812Y650538D01*
X1631907Y645907D01*
X1636537Y642812D01*
X1637000Y642720D01*
Y651000D01*
D02*
G37*
G36*
X1611973D02*
X1603693D01*
Y642720D01*
X1604155Y642812D01*
X1608786Y645907D01*
X1611881Y650538D01*
X1611973Y651000D01*
D02*
G37*
G36*
X1593693D02*
X1585413D01*
X1585505Y650538D01*
X1588599Y645907D01*
X1593230Y642812D01*
X1593693Y642720D01*
Y651000D01*
D02*
G37*
G36*
X1077582Y650957D02*
Y642677D01*
X1085862D01*
X1085770Y643140D01*
X1082676Y647771D01*
X1078045Y650865D01*
X1077582Y650957D01*
D02*
G37*
G36*
X1067582D02*
X1067120Y650865D01*
X1062489Y647771D01*
X1059395Y643140D01*
X1059303Y642677D01*
X1067582D01*
Y650957D01*
D02*
G37*
G36*
X600425Y662152D02*
X595036Y661081D01*
X590468Y658028D01*
X587415Y653460D01*
X586344Y648071D01*
X587415Y642682D01*
X590468Y638114D01*
X595036Y635061D01*
X600425Y633989D01*
X605814Y635061D01*
X610382Y638114D01*
X613435Y642682D01*
X614507Y648071D01*
X613435Y653460D01*
X610382Y658028D01*
X605814Y661081D01*
X600425Y662152D01*
D02*
G37*
G36*
X4363000Y656216D02*
X4358708Y655362D01*
X4355069Y652931D01*
X4352638Y649292D01*
X4351784Y645000D01*
X4352638Y640708D01*
X4355069Y637069D01*
X4358708Y634638D01*
X4363000Y633784D01*
X4367292Y634638D01*
X4370931Y637069D01*
X4373362Y640708D01*
X4374216Y645000D01*
X4373362Y649292D01*
X4370931Y652931D01*
X4367292Y655362D01*
X4363000Y656216D01*
D02*
G37*
G36*
X966315Y651894D02*
X962023Y651040D01*
X958384Y648609D01*
X955953Y644970D01*
X955100Y640678D01*
X955953Y636386D01*
X958384Y632747D01*
X962023Y630316D01*
X966315Y629463D01*
X970607Y630316D01*
X974246Y632747D01*
X976677Y636386D01*
X977530Y640678D01*
X976677Y644970D01*
X974246Y648609D01*
X970607Y651040D01*
X966315Y651894D01*
D02*
G37*
G36*
X1560792Y670685D02*
X1534201D01*
X1534708Y666047D01*
X1531069Y663616D01*
X1528638Y659977D01*
X1527784Y655685D01*
X1528638Y651393D01*
X1531069Y647755D01*
X1534708Y645323D01*
X1534954Y645274D01*
X1537638Y640292D01*
X1536784Y636000D01*
X1537638Y631708D01*
X1540069Y628069D01*
X1543708Y625638D01*
X1548000Y624784D01*
X1552292Y625638D01*
X1555931Y628069D01*
X1558362Y631708D01*
X1559216Y636000D01*
X1558362Y640292D01*
X1555931Y643931D01*
X1552292Y646362D01*
X1552046Y646411D01*
X1549362Y651393D01*
X1550216Y655685D01*
X1549362Y659977D01*
X1553470Y662829D01*
X1557605Y665592D01*
X1560699Y670223D01*
X1560792Y670685D01*
D02*
G37*
G36*
X1085862Y632677D02*
X1077582D01*
Y624398D01*
X1078045Y624490D01*
X1082676Y627584D01*
X1085770Y632215D01*
X1085862Y632677D01*
D02*
G37*
G36*
X1067582D02*
X1059303D01*
X1059395Y632215D01*
X1062489Y627584D01*
X1067120Y624490D01*
X1067582Y624398D01*
Y632677D01*
D02*
G37*
G36*
X5039748Y644562D02*
X5035456Y643708D01*
X5031817Y641277D01*
X5029386Y637638D01*
X5028533Y633346D01*
X5029386Y629054D01*
X5031817Y625416D01*
X5035456Y622985D01*
X5039748Y622131D01*
X5044040Y622985D01*
X5047679Y625416D01*
X5050110Y629054D01*
X5050963Y633346D01*
X5050110Y637638D01*
X5047679Y641277D01*
X5044040Y643708D01*
X5039748Y644562D01*
D02*
G37*
G36*
X4996441D02*
X4992149Y643708D01*
X4988510Y641277D01*
X4986079Y637638D01*
X4985225Y633346D01*
X4986079Y629054D01*
X4988510Y625416D01*
X4992149Y622985D01*
X4996441Y622131D01*
X5000733Y622985D01*
X5004372Y625416D01*
X5006803Y629054D01*
X5007657Y633346D01*
X5006803Y637638D01*
X5004372Y641277D01*
X5000733Y643708D01*
X4996441Y644562D01*
D02*
G37*
G36*
X4953134D02*
X4948842Y643708D01*
X4945203Y641277D01*
X4942772Y637638D01*
X4941918Y633346D01*
X4942772Y629054D01*
X4945203Y625416D01*
X4948842Y622985D01*
X4953134Y622131D01*
X4957426Y622985D01*
X4961065Y625416D01*
X4963496Y629054D01*
X4964349Y633346D01*
X4963496Y637638D01*
X4961065Y641277D01*
X4957426Y643708D01*
X4953134Y644562D01*
D02*
G37*
G36*
X3955000D02*
X3950708Y643708D01*
X3947069Y641277D01*
X3944638Y637638D01*
X3943785Y633346D01*
X3944638Y629054D01*
X3947069Y625416D01*
X3950708Y622985D01*
X3955000Y622131D01*
X3959292Y622985D01*
X3962931Y625416D01*
X3965362Y629054D01*
X3966215Y633346D01*
X3965362Y637638D01*
X3962931Y641277D01*
X3959292Y643708D01*
X3955000Y644562D01*
D02*
G37*
G36*
X3901425Y644452D02*
X3897133Y643598D01*
X3893495Y641167D01*
X3891063Y637528D01*
X3890210Y633236D01*
X3891063Y628944D01*
X3893495Y625306D01*
X3897133Y622874D01*
X3901425Y622021D01*
X3905717Y622874D01*
X3909356Y625306D01*
X3911787Y628944D01*
X3912641Y633236D01*
X3911787Y637528D01*
X3909356Y641167D01*
X3905717Y643598D01*
X3901425Y644452D01*
D02*
G37*
G36*
X5144079Y641216D02*
X5139787Y640362D01*
X5136148Y637931D01*
X5133717Y634292D01*
X5132863Y630000D01*
X5133717Y625708D01*
X5136148Y622069D01*
X5139787Y619638D01*
X5144079Y618784D01*
X5148371Y619638D01*
X5152009Y622069D01*
X5154440Y625708D01*
X5155294Y630000D01*
X5154440Y634292D01*
X5152009Y637931D01*
X5148371Y640362D01*
X5144079Y641216D01*
D02*
G37*
G36*
X1690307Y625973D02*
Y617693D01*
X1698587D01*
X1698495Y618155D01*
X1695401Y622786D01*
X1690770Y625881D01*
X1690307Y625973D01*
D02*
G37*
G36*
X1680307D02*
X1679845Y625881D01*
X1675214Y622786D01*
X1672119Y618155D01*
X1672027Y617693D01*
X1680307D01*
Y625973D01*
D02*
G37*
G36*
X1647000D02*
Y617693D01*
X1655280D01*
X1655188Y618155D01*
X1652093Y622786D01*
X1647463Y625881D01*
X1647000Y625973D01*
D02*
G37*
G36*
X1637000D02*
X1636537Y625881D01*
X1631907Y622786D01*
X1628812Y618155D01*
X1628720Y617693D01*
X1637000D01*
Y625973D01*
D02*
G37*
G36*
X1603693D02*
Y617693D01*
X1611973D01*
X1611881Y618155D01*
X1608786Y622786D01*
X1604155Y625881D01*
X1603693Y625973D01*
D02*
G37*
G36*
X1593693D02*
X1593230Y625881D01*
X1588599Y622786D01*
X1585505Y618155D01*
X1585413Y617693D01*
X1593693D01*
Y625973D01*
D02*
G37*
G36*
X1467246Y620917D02*
Y612637D01*
X1475525D01*
X1475433Y613100D01*
X1472339Y617731D01*
X1467708Y620825D01*
X1467246Y620917D01*
D02*
G37*
G36*
X1457246D02*
X1456783Y620825D01*
X1452152Y617731D01*
X1449058Y613100D01*
X1448966Y612637D01*
X1457246D01*
Y620917D01*
D02*
G37*
G36*
X5352961Y631082D02*
X5348669Y630228D01*
X5345030Y627797D01*
X5342599Y624158D01*
X5341745Y619866D01*
X5342599Y615574D01*
X5345030Y611936D01*
X5348669Y609504D01*
X5352961Y608651D01*
X5357253Y609504D01*
X5360891Y611936D01*
X5363322Y615574D01*
X5364176Y619866D01*
X5363322Y624158D01*
X5360891Y627797D01*
X5357253Y630228D01*
X5352961Y631082D01*
D02*
G37*
G36*
X5309654D02*
X5305361Y630228D01*
X5301723Y627797D01*
X5299292Y624158D01*
X5298438Y619866D01*
X5299292Y615574D01*
X5301723Y611936D01*
X5305361Y609504D01*
X5309654Y608651D01*
X5313945Y609504D01*
X5317584Y611936D01*
X5320015Y615574D01*
X5320869Y619866D01*
X5320015Y624158D01*
X5317584Y627797D01*
X5313945Y630228D01*
X5309654Y631082D01*
D02*
G37*
G36*
X5266346D02*
X5262054Y630228D01*
X5258416Y627797D01*
X5255985Y624158D01*
X5255131Y619866D01*
X5255985Y615574D01*
X5258416Y611936D01*
X5262054Y609504D01*
X5266346Y608651D01*
X5270638Y609504D01*
X5274277Y611936D01*
X5276708Y615574D01*
X5277562Y619866D01*
X5276708Y624158D01*
X5274277Y627797D01*
X5270638Y630228D01*
X5266346Y631082D01*
D02*
G37*
G36*
X5223039D02*
X5218747Y630228D01*
X5215109Y627797D01*
X5212677Y624158D01*
X5211824Y619866D01*
X5212677Y615574D01*
X5215109Y611936D01*
X5218747Y609504D01*
X5223039Y608651D01*
X5227331Y609504D01*
X5230970Y611936D01*
X5233401Y615574D01*
X5234255Y619866D01*
X5233401Y624158D01*
X5230970Y627797D01*
X5227331Y630228D01*
X5223039Y631082D01*
D02*
G37*
G36*
X4813000Y653476D02*
X4808708Y652622D01*
X4805069Y650191D01*
X4802638Y646552D01*
X4801784Y642260D01*
X4802638Y637968D01*
X4805069Y634330D01*
X4805833Y633819D01*
Y627806D01*
X4805069Y627296D01*
X4802638Y623657D01*
X4801784Y619365D01*
X4802638Y615073D01*
X4805069Y611434D01*
X4808708Y609003D01*
X4813000Y608150D01*
X4817292Y609003D01*
X4820931Y611434D01*
X4823362Y615073D01*
X4824216Y619365D01*
X4823362Y623657D01*
X4820931Y627296D01*
X4820167Y627806D01*
Y633819D01*
X4820931Y634330D01*
X4823362Y637968D01*
X4824216Y642260D01*
X4823362Y646552D01*
X4820931Y650191D01*
X4817292Y652622D01*
X4813000Y653476D01*
D02*
G37*
G36*
X4853000D02*
X4848708Y652622D01*
X4845069Y650191D01*
X4842638Y646552D01*
X4841784Y642260D01*
X4842638Y637968D01*
X4845069Y634330D01*
X4846201Y633573D01*
Y627687D01*
X4845069Y626931D01*
X4842638Y623292D01*
X4841784Y619000D01*
X4842638Y614708D01*
X4845069Y611069D01*
X4848708Y608638D01*
X4853000Y607784D01*
X4857292Y608638D01*
X4860931Y611069D01*
X4863362Y614708D01*
X4864216Y619000D01*
X4863362Y623292D01*
X4860931Y626931D01*
X4859799Y627687D01*
Y633573D01*
X4860931Y634330D01*
X4863362Y637968D01*
X4864216Y642260D01*
X4863362Y646552D01*
X4860931Y650191D01*
X4857292Y652622D01*
X4853000Y653476D01*
D02*
G37*
G36*
X5743500Y629523D02*
X5739208Y628669D01*
X5735569Y626238D01*
X5733138Y622599D01*
X5732284Y618307D01*
X5733138Y614015D01*
X5735569Y610376D01*
X5739208Y607945D01*
X5743500Y607092D01*
X5747792Y607945D01*
X5751431Y610376D01*
X5753862Y614015D01*
X5754716Y618307D01*
X5753862Y622599D01*
X5751431Y626238D01*
X5747792Y628669D01*
X5743500Y629523D01*
D02*
G37*
G36*
X5690000D02*
X5685708Y628669D01*
X5682069Y626238D01*
X5679638Y622599D01*
X5678784Y618307D01*
X5679638Y614015D01*
X5682069Y610376D01*
X5685708Y607945D01*
X5690000Y607092D01*
X5694292Y607945D01*
X5697931Y610376D01*
X5700362Y614015D01*
X5701216Y618307D01*
X5700362Y622599D01*
X5697931Y626238D01*
X5694292Y628669D01*
X5690000Y629523D01*
D02*
G37*
G36*
X5636500D02*
X5632208Y628669D01*
X5628569Y626238D01*
X5626138Y622599D01*
X5625284Y618307D01*
X5626138Y614015D01*
X5628569Y610376D01*
X5632208Y607945D01*
X5636500Y607092D01*
X5640792Y607945D01*
X5644431Y610376D01*
X5646862Y614015D01*
X5647716Y618307D01*
X5646862Y622599D01*
X5644431Y626238D01*
X5640792Y628669D01*
X5636500Y629523D01*
D02*
G37*
G36*
X651606Y624027D02*
X631016D01*
Y603858D01*
X675780D01*
X674859Y608490D01*
X669403Y616655D01*
X661238Y622111D01*
X651606Y624027D01*
D02*
G37*
G36*
X527591D02*
X507000D01*
Y603858D01*
X551765D01*
X550843Y608490D01*
X545388Y616655D01*
X537222Y622111D01*
X527591Y624027D01*
D02*
G37*
G36*
X621016D02*
X600425D01*
X590794Y622111D01*
X582628Y616655D01*
X577172Y608490D01*
X576251Y603858D01*
X621016D01*
Y624027D01*
D02*
G37*
G36*
X2997780Y668134D02*
X2989426Y667035D01*
X2981641Y663810D01*
X2974957Y658681D01*
X2969828Y651996D01*
X2966603Y644212D01*
X2965503Y635858D01*
X2966603Y627505D01*
X2969828Y619720D01*
X2974957Y613036D01*
X2981641Y607906D01*
X2989426Y604682D01*
X2997780Y603582D01*
X3006133Y604682D01*
X3013918Y607906D01*
X3020602Y613036D01*
X3025731Y619720D01*
X3028956Y627505D01*
X3030056Y635858D01*
X3028956Y644212D01*
X3025731Y651996D01*
X3020602Y658681D01*
X3013918Y663810D01*
X3006133Y667035D01*
X2997780Y668134D01*
D02*
G37*
G36*
X1741488Y610225D02*
Y601945D01*
X1749768D01*
X1749676Y602407D01*
X1746582Y607038D01*
X1741951Y610133D01*
X1741488Y610225D01*
D02*
G37*
G36*
X1731488D02*
X1731026Y610133D01*
X1726395Y607038D01*
X1723301Y602407D01*
X1723208Y601945D01*
X1731488D01*
Y610225D01*
D02*
G37*
G36*
X3155260Y666276D02*
X3146906Y665176D01*
X3139122Y661952D01*
X3132437Y656823D01*
X3127308Y650138D01*
X3124084Y642354D01*
X3122984Y634000D01*
X3124084Y625646D01*
X3127308Y617862D01*
X3132437Y611177D01*
X3139122Y606048D01*
X3146906Y602824D01*
X3155260Y601724D01*
X3163613Y602824D01*
X3171398Y606048D01*
X3178082Y611177D01*
X3183212Y617862D01*
X3186436Y625646D01*
X3187536Y634000D01*
X3186436Y642354D01*
X3183212Y650138D01*
X3178082Y656823D01*
X3171398Y661952D01*
X3163613Y665176D01*
X3155260Y666276D01*
D02*
G37*
G36*
X1698587Y607693D02*
X1690307D01*
Y599413D01*
X1690770Y599505D01*
X1695401Y602599D01*
X1698495Y607230D01*
X1698587Y607693D01*
D02*
G37*
G36*
X1680307D02*
X1672027D01*
X1672119Y607230D01*
X1675214Y602599D01*
X1679845Y599505D01*
X1680307Y599413D01*
Y607693D01*
D02*
G37*
G36*
X1655280D02*
X1647000D01*
Y599413D01*
X1647463Y599505D01*
X1652093Y602599D01*
X1655188Y607230D01*
X1655280Y607693D01*
D02*
G37*
G36*
X1637000D02*
X1628720D01*
X1628812Y607230D01*
X1631907Y602599D01*
X1636537Y599505D01*
X1637000Y599413D01*
Y607693D01*
D02*
G37*
G36*
X1611973D02*
X1603693D01*
Y599413D01*
X1604155Y599505D01*
X1608786Y602599D01*
X1611881Y607230D01*
X1611973Y607693D01*
D02*
G37*
G36*
X1593693D02*
X1585413D01*
X1585505Y607230D01*
X1588599Y602599D01*
X1593230Y599505D01*
X1593693Y599413D01*
Y607693D01*
D02*
G37*
G36*
X1475525Y602637D02*
X1467246D01*
Y594358D01*
X1467708Y594450D01*
X1472339Y597544D01*
X1475433Y602175D01*
X1475525Y602637D01*
D02*
G37*
G36*
X1457246D02*
X1448966D01*
X1449058Y602175D01*
X1452152Y597544D01*
X1456783Y594450D01*
X1457246Y594358D01*
Y602637D01*
D02*
G37*
G36*
X4411000Y624353D02*
X4403977Y622956D01*
X4398023Y618977D01*
X4394044Y613023D01*
X4392647Y606000D01*
X4394044Y598977D01*
X4398023Y593023D01*
X4403977Y589044D01*
X4411000Y587647D01*
X4418023Y589044D01*
X4423977Y593023D01*
X4427956Y598977D01*
X4429353Y606000D01*
X4427956Y613023D01*
X4423977Y618977D01*
X4418023Y622956D01*
X4411000Y624353D01*
D02*
G37*
G36*
X1749768Y591945D02*
X1741488D01*
Y583665D01*
X1741951Y583757D01*
X1746582Y586851D01*
X1749676Y591482D01*
X1749768Y591945D01*
D02*
G37*
G36*
X1731488D02*
X1723208D01*
X1723301Y591482D01*
X1726395Y586851D01*
X1731026Y583757D01*
X1731488Y583665D01*
Y591945D01*
D02*
G37*
G36*
X3759242Y588823D02*
Y580543D01*
X3767522D01*
X3767430Y581006D01*
X3764336Y585637D01*
X3759704Y588731D01*
X3759242Y588823D01*
D02*
G37*
G36*
X3749242D02*
X3748780Y588731D01*
X3744148Y585637D01*
X3741054Y581006D01*
X3740962Y580543D01*
X3749242D01*
Y588823D01*
D02*
G37*
G36*
X3717402D02*
Y580543D01*
X3725681D01*
X3725589Y581006D01*
X3722495Y585637D01*
X3717864Y588731D01*
X3717402Y588823D01*
D02*
G37*
G36*
X3707402D02*
X3706939Y588731D01*
X3702308Y585637D01*
X3699214Y581006D01*
X3699122Y580543D01*
X3707402D01*
Y588823D01*
D02*
G37*
G36*
X5039748Y601255D02*
X5035456Y600401D01*
X5031817Y597970D01*
X5029386Y594331D01*
X5028533Y590039D01*
X5029386Y585747D01*
X5031817Y582109D01*
X5035456Y579678D01*
X5039748Y578824D01*
X5044040Y579678D01*
X5047679Y582109D01*
X5050110Y585747D01*
X5050963Y590039D01*
X5050110Y594331D01*
X5047679Y597970D01*
X5044040Y600401D01*
X5039748Y601255D01*
D02*
G37*
G36*
X4996441D02*
X4992149Y600401D01*
X4988510Y597970D01*
X4986079Y594331D01*
X4985225Y590039D01*
X4986079Y585747D01*
X4988510Y582109D01*
X4992149Y579678D01*
X4996441Y578824D01*
X5000733Y579678D01*
X5004372Y582109D01*
X5006803Y585747D01*
X5007657Y590039D01*
X5006803Y594331D01*
X5004372Y597970D01*
X5000733Y600401D01*
X4996441Y601255D01*
D02*
G37*
G36*
X4953134D02*
X4948842Y600401D01*
X4945203Y597970D01*
X4942772Y594331D01*
X4941918Y590039D01*
X4942772Y585747D01*
X4945203Y582109D01*
X4948842Y579678D01*
X4953134Y578824D01*
X4957426Y579678D01*
X4961065Y582109D01*
X4963496Y585747D01*
X4964349Y590039D01*
X4963496Y594331D01*
X4961065Y597970D01*
X4957426Y600401D01*
X4953134Y601255D01*
D02*
G37*
G36*
X2866087Y585280D02*
Y577000D01*
X2874366D01*
X2874274Y577462D01*
X2871180Y582093D01*
X2866549Y585188D01*
X2866087Y585280D01*
D02*
G37*
G36*
X2856087D02*
X2855624Y585188D01*
X2850993Y582093D01*
X2847899Y577462D01*
X2847807Y577000D01*
X2856087D01*
Y585280D01*
D02*
G37*
G36*
X675780Y593858D02*
X631016D01*
Y573690D01*
X651606D01*
X661238Y575605D01*
X669403Y581061D01*
X674859Y589227D01*
X675780Y593858D01*
D02*
G37*
G36*
X621016D02*
X576251D01*
X577172Y589227D01*
X582628Y581061D01*
X590794Y575605D01*
X600425Y573690D01*
X621016D01*
Y593858D01*
D02*
G37*
G36*
X551765D02*
X507000D01*
Y573690D01*
X527591D01*
X537222Y575605D01*
X545388Y581061D01*
X550843Y589227D01*
X551765Y593858D01*
D02*
G37*
G36*
X1696496Y575280D02*
X1696034Y575188D01*
X1691496Y572156D01*
X1686959Y575188D01*
X1686496Y575280D01*
Y562000D01*
Y548720D01*
X1686959Y548812D01*
X1691496Y551844D01*
X1696034Y548812D01*
X1696496Y548720D01*
Y562000D01*
Y575280D01*
D02*
G37*
G36*
X5144079Y591216D02*
X5139787Y590362D01*
X5136148Y587931D01*
X5133717Y584292D01*
X5132863Y580000D01*
X5133717Y575708D01*
X5136148Y572069D01*
X5139787Y569638D01*
X5144079Y568784D01*
X5148371Y569638D01*
X5152009Y572069D01*
X5154440Y575708D01*
X5155294Y580000D01*
X5154440Y584292D01*
X5152009Y587931D01*
X5148371Y590362D01*
X5144079Y591216D01*
D02*
G37*
G36*
X1706496Y575280D02*
Y567000D01*
X1714776D01*
X1714684Y567462D01*
X1711590Y572093D01*
X1706959Y575188D01*
X1706496Y575280D01*
D02*
G37*
G36*
X1676496D02*
X1676034Y575188D01*
X1671403Y572093D01*
X1668308Y567462D01*
X1668216Y567000D01*
X1676496D01*
Y575280D01*
D02*
G37*
G36*
X5352961Y587774D02*
X5348669Y586921D01*
X5345030Y584490D01*
X5342599Y580851D01*
X5341745Y576559D01*
X5342599Y572267D01*
X5345030Y568628D01*
X5348669Y566197D01*
X5352961Y565343D01*
X5357253Y566197D01*
X5360891Y568628D01*
X5363322Y572267D01*
X5364176Y576559D01*
X5363322Y580851D01*
X5360891Y584490D01*
X5357253Y586921D01*
X5352961Y587774D01*
D02*
G37*
G36*
X5309654D02*
X5305361Y586921D01*
X5301723Y584490D01*
X5299292Y580851D01*
X5298438Y576559D01*
X5299292Y572267D01*
X5301723Y568628D01*
X5305361Y566197D01*
X5309654Y565343D01*
X5313945Y566197D01*
X5317584Y568628D01*
X5320015Y572267D01*
X5320869Y576559D01*
X5320015Y580851D01*
X5317584Y584490D01*
X5313945Y586921D01*
X5309654Y587774D01*
D02*
G37*
G36*
X5266346D02*
X5262054Y586921D01*
X5258416Y584490D01*
X5255985Y580851D01*
X5255131Y576559D01*
X5255985Y572267D01*
X5258416Y568628D01*
X5262054Y566197D01*
X5266346Y565343D01*
X5270638Y566197D01*
X5274277Y568628D01*
X5276708Y572267D01*
X5277562Y576559D01*
X5276708Y580851D01*
X5274277Y584490D01*
X5270638Y586921D01*
X5266346Y587774D01*
D02*
G37*
G36*
X5223039D02*
X5218747Y586921D01*
X5215109Y584490D01*
X5212677Y580851D01*
X5211824Y576559D01*
X5212677Y572267D01*
X5215109Y568628D01*
X5218747Y566197D01*
X5223039Y565343D01*
X5227331Y566197D01*
X5230970Y568628D01*
X5233401Y572267D01*
X5234255Y576559D01*
X5233401Y580851D01*
X5230970Y584490D01*
X5227331Y586921D01*
X5223039Y587774D01*
D02*
G37*
G36*
X3767522Y570543D02*
X3759242D01*
Y562264D01*
X3759704Y562356D01*
X3764336Y565450D01*
X3767430Y570081D01*
X3767522Y570543D01*
D02*
G37*
G36*
X3749242D02*
X3740962D01*
X3741054Y570081D01*
X3744148Y565450D01*
X3748780Y562356D01*
X3749242Y562264D01*
Y570543D01*
D02*
G37*
G36*
X3725681D02*
X3717402D01*
Y562264D01*
X3717864Y562356D01*
X3722495Y565450D01*
X3725589Y570081D01*
X3725681Y570543D01*
D02*
G37*
G36*
X3707402D02*
X3699122D01*
X3699214Y570081D01*
X3702308Y565450D01*
X3706939Y562356D01*
X3707402Y562264D01*
Y570543D01*
D02*
G37*
G36*
X2522000Y568918D02*
Y560638D01*
X2530280D01*
X2530188Y561100D01*
X2527093Y565731D01*
X2522463Y568826D01*
X2522000Y568918D01*
D02*
G37*
G36*
X2512000D02*
X2511537Y568826D01*
X2506907Y565731D01*
X2503812Y561100D01*
X2503720Y560638D01*
X2512000D01*
Y568918D01*
D02*
G37*
G36*
X2874366Y567000D02*
X2866087D01*
Y558720D01*
X2866549Y558812D01*
X2871180Y561907D01*
X2874274Y566538D01*
X2874366Y567000D01*
D02*
G37*
G36*
X2856087D02*
X2847807D01*
X2847899Y566538D01*
X2850993Y561907D01*
X2855624Y558812D01*
X2856087Y558720D01*
Y567000D01*
D02*
G37*
G36*
X5690000Y579835D02*
X5685708Y578981D01*
X5682069Y576550D01*
X5679638Y572912D01*
X5678784Y568620D01*
X5679638Y564328D01*
X5682069Y560689D01*
X5685708Y558258D01*
X5690000Y557404D01*
X5694292Y558258D01*
X5697931Y560689D01*
X5700362Y564328D01*
X5701216Y568620D01*
X5700362Y572912D01*
X5697931Y576550D01*
X5694292Y578981D01*
X5690000Y579835D01*
D02*
G37*
G36*
X5743500Y579601D02*
X5739208Y578747D01*
X5735569Y576316D01*
X5733138Y572678D01*
X5732284Y568386D01*
X5733138Y564094D01*
X5735569Y560455D01*
X5739208Y558024D01*
X5743500Y557170D01*
X5747792Y558024D01*
X5751431Y560455D01*
X5753862Y564094D01*
X5754716Y568386D01*
X5753862Y572678D01*
X5751431Y576316D01*
X5747792Y578747D01*
X5743500Y579601D01*
D02*
G37*
G36*
X5636500D02*
X5632208Y578747D01*
X5628569Y576316D01*
X5626138Y572678D01*
X5625284Y568386D01*
X5626138Y564094D01*
X5628569Y560455D01*
X5632208Y558024D01*
X5636500Y557170D01*
X5640792Y558024D01*
X5644431Y560455D01*
X5646862Y564094D01*
X5647716Y568386D01*
X5646862Y572678D01*
X5644431Y576316D01*
X5640792Y578747D01*
X5636500Y579601D01*
D02*
G37*
G36*
X2572000Y563280D02*
Y555000D01*
X2580280D01*
X2580188Y555462D01*
X2577093Y560093D01*
X2572463Y563188D01*
X2572000Y563280D01*
D02*
G37*
G36*
X2562000D02*
X2561537Y563188D01*
X2556907Y560093D01*
X2553812Y555462D01*
X2553720Y555000D01*
X2562000D01*
Y563280D01*
D02*
G37*
G36*
X1714776Y557000D02*
X1706496D01*
Y548720D01*
X1706959Y548812D01*
X1711590Y551907D01*
X1714684Y556538D01*
X1714776Y557000D01*
D02*
G37*
G36*
X1676496D02*
X1668216D01*
X1668308Y556538D01*
X1671403Y551907D01*
X1676034Y548812D01*
X1676496Y548720D01*
Y557000D01*
D02*
G37*
G36*
X3609282Y555280D02*
Y547000D01*
X3617562D01*
X3617470Y547462D01*
X3614375Y552093D01*
X3609744Y555188D01*
X3609282Y555280D01*
D02*
G37*
G36*
X3599282D02*
X3598819Y555188D01*
X3594188Y552093D01*
X3591094Y547462D01*
X3591002Y547000D01*
X3599282D01*
Y555280D01*
D02*
G37*
G36*
X2530280Y550638D02*
X2522000D01*
Y542358D01*
X2522463Y542450D01*
X2527093Y545544D01*
X2530188Y550175D01*
X2530280Y550638D01*
D02*
G37*
G36*
X2512000D02*
X2503720D01*
X2503812Y550175D01*
X2506907Y545544D01*
X2511537Y542450D01*
X2512000Y542358D01*
Y550638D01*
D02*
G37*
G36*
X3808858Y601776D02*
X3800505Y600676D01*
X3792720Y597452D01*
X3786036Y592322D01*
X3780906Y585638D01*
X3777682Y577854D01*
X3776582Y569500D01*
X3777682Y561146D01*
X3780906Y553362D01*
X3786036Y546677D01*
X3792720Y541548D01*
X3800505Y538324D01*
X3808858Y537224D01*
X3817212Y538324D01*
X3824996Y541548D01*
X3831681Y546677D01*
X3836810Y553362D01*
X3840035Y561146D01*
X3841134Y569500D01*
X3840035Y577854D01*
X3836810Y585638D01*
X3831681Y592322D01*
X3824996Y597452D01*
X3817212Y600676D01*
X3808858Y601776D01*
D02*
G37*
G36*
X2580280Y545000D02*
X2572000D01*
Y536720D01*
X2572463Y536812D01*
X2577093Y539907D01*
X2580188Y544538D01*
X2580280Y545000D01*
D02*
G37*
G36*
X2562000D02*
X2553720D01*
X2553812Y544538D01*
X2556907Y539907D01*
X2561537Y536812D01*
X2562000Y536720D01*
Y545000D01*
D02*
G37*
G36*
X3617562Y537000D02*
X3609282D01*
Y528720D01*
X3609744Y528812D01*
X3614375Y531907D01*
X3617470Y536538D01*
X3617562Y537000D01*
D02*
G37*
G36*
X3599282D02*
X3591002D01*
X3591094Y536538D01*
X3594188Y531907D01*
X3598819Y528812D01*
X3599282Y528720D01*
Y537000D01*
D02*
G37*
G36*
X5352961Y544467D02*
X5348669Y543614D01*
X5345030Y541183D01*
X5342599Y537544D01*
X5341745Y533252D01*
X5342599Y528960D01*
X5345030Y525321D01*
X5348669Y522890D01*
X5352961Y522037D01*
X5357253Y522890D01*
X5360891Y525321D01*
X5363322Y528960D01*
X5364176Y533252D01*
X5363322Y537544D01*
X5360891Y541183D01*
X5357253Y543614D01*
X5352961Y544467D01*
D02*
G37*
G36*
X5309654D02*
X5305361Y543614D01*
X5301723Y541183D01*
X5299292Y537544D01*
X5298438Y533252D01*
X5299292Y528960D01*
X5301723Y525321D01*
X5305361Y522890D01*
X5309654Y522037D01*
X5313945Y522890D01*
X5317584Y525321D01*
X5320015Y528960D01*
X5320869Y533252D01*
X5320015Y537544D01*
X5317584Y541183D01*
X5313945Y543614D01*
X5309654Y544467D01*
D02*
G37*
G36*
X5266346D02*
X5262054Y543614D01*
X5258416Y541183D01*
X5255985Y537544D01*
X5255131Y533252D01*
X5255985Y528960D01*
X5258416Y525321D01*
X5262054Y522890D01*
X5266346Y522037D01*
X5270638Y522890D01*
X5274277Y525321D01*
X5276708Y528960D01*
X5277562Y533252D01*
X5276708Y537544D01*
X5274277Y541183D01*
X5270638Y543614D01*
X5266346Y544467D01*
D02*
G37*
G36*
X5223039D02*
X5218747Y543614D01*
X5215109Y541183D01*
X5212677Y537544D01*
X5211824Y533252D01*
X5212677Y528960D01*
X5215109Y525321D01*
X5218747Y522890D01*
X5223039Y522037D01*
X5227331Y522890D01*
X5230970Y525321D01*
X5233401Y528960D01*
X5234255Y533252D01*
X5233401Y537544D01*
X5230970Y541183D01*
X5227331Y543614D01*
X5223039Y544467D01*
D02*
G37*
G36*
X4195000Y533216D02*
X4190708Y532362D01*
X4187069Y529931D01*
X4184638Y526292D01*
X4183784Y522000D01*
X4184638Y517708D01*
X4187069Y514069D01*
X4190708Y511638D01*
X4195000Y510784D01*
X4199292Y511638D01*
X4202931Y514069D01*
X4205362Y517708D01*
X4206216Y522000D01*
X4205362Y526292D01*
X4202931Y529931D01*
X4199292Y532362D01*
X4195000Y533216D01*
D02*
G37*
G36*
X4752906Y532243D02*
X4748614Y531389D01*
X4744975Y528958D01*
X4742544Y525319D01*
X4741690Y521027D01*
X4742544Y516735D01*
X4744975Y513096D01*
X4748614Y510665D01*
X4752906Y509812D01*
X4757198Y510665D01*
X4760836Y513096D01*
X4763267Y516735D01*
X4764121Y521027D01*
X4763267Y525319D01*
X4760836Y528958D01*
X4757198Y531389D01*
X4752906Y532243D01*
D02*
G37*
G36*
X4672906D02*
X4668614Y531389D01*
X4664975Y528958D01*
X4662544Y525319D01*
X4661690Y521027D01*
X4662544Y516735D01*
X4664975Y513096D01*
X4668614Y510665D01*
X4672906Y509812D01*
X4677198Y510665D01*
X4680836Y513096D01*
X4683267Y516735D01*
X4684121Y521027D01*
X4683267Y525319D01*
X4680836Y528958D01*
X4677198Y531389D01*
X4672906Y532243D01*
D02*
G37*
G36*
X4592906D02*
X4588614Y531389D01*
X4584975Y528958D01*
X4582544Y525319D01*
X4581690Y521027D01*
X4582544Y516735D01*
X4584975Y513096D01*
X4588614Y510665D01*
X4592906Y509812D01*
X4597198Y510665D01*
X4600836Y513096D01*
X4603267Y516735D01*
X4604121Y521027D01*
X4603267Y525319D01*
X4600836Y528958D01*
X4597198Y531389D01*
X4592906Y532243D01*
D02*
G37*
G36*
X4512906D02*
X4508614Y531389D01*
X4504975Y528958D01*
X4502544Y525319D01*
X4501690Y521027D01*
X4502544Y516735D01*
X4504975Y513096D01*
X4508614Y510665D01*
X4512906Y509812D01*
X4517198Y510665D01*
X4520836Y513096D01*
X4523267Y516735D01*
X4524121Y521027D01*
X4523267Y525319D01*
X4520836Y528958D01*
X4517198Y531389D01*
X4512906Y532243D01*
D02*
G37*
G36*
X4432906D02*
X4428614Y531389D01*
X4424975Y528958D01*
X4422544Y525319D01*
X4421690Y521027D01*
X4422544Y516735D01*
X4424975Y513096D01*
X4428614Y510665D01*
X4432906Y509812D01*
X4437198Y510665D01*
X4440836Y513096D01*
X4443267Y516735D01*
X4444121Y521027D01*
X4443267Y525319D01*
X4440836Y528958D01*
X4437198Y531389D01*
X4432906Y532243D01*
D02*
G37*
G36*
X4352906D02*
X4348614Y531389D01*
X4344975Y528958D01*
X4342544Y525319D01*
X4341690Y521027D01*
X4342544Y516735D01*
X4344975Y513096D01*
X4348614Y510665D01*
X4352906Y509812D01*
X4357198Y510665D01*
X4360836Y513096D01*
X4363267Y516735D01*
X4364121Y521027D01*
X4363267Y525319D01*
X4360836Y528958D01*
X4357198Y531389D01*
X4352906Y532243D01*
D02*
G37*
G36*
X4272906D02*
X4268614Y531389D01*
X4264975Y528958D01*
X4262544Y525319D01*
X4261690Y521027D01*
X4262544Y516735D01*
X4264975Y513096D01*
X4268614Y510665D01*
X4272906Y509812D01*
X4277198Y510665D01*
X4280836Y513096D01*
X4283267Y516735D01*
X4284121Y521027D01*
X4283267Y525319D01*
X4280836Y528958D01*
X4277198Y531389D01*
X4272906Y532243D01*
D02*
G37*
G36*
X5127575Y513280D02*
Y505000D01*
X5135855D01*
X5135762Y505462D01*
X5132668Y510094D01*
X5128037Y513188D01*
X5127575Y513280D01*
D02*
G37*
G36*
X5117575D02*
X5117112Y513188D01*
X5112481Y510094D01*
X5109387Y505462D01*
X5109295Y505000D01*
X5117575D01*
Y513280D01*
D02*
G37*
G36*
X5069425Y511216D02*
X5065133Y510362D01*
X5061495Y507931D01*
X5059063Y504292D01*
X5058210Y500000D01*
X5059063Y495708D01*
X5061495Y492069D01*
X5065133Y489638D01*
X5069425Y488784D01*
X5073717Y489638D01*
X5077356Y492069D01*
X5079787Y495708D01*
X5080641Y500000D01*
X5079787Y504292D01*
X5077356Y507931D01*
X5073717Y510362D01*
X5069425Y511216D01*
D02*
G37*
G36*
X5021000D02*
X5016708Y510362D01*
X5013069Y507931D01*
X5010638Y504292D01*
X5009784Y500000D01*
X5010638Y495708D01*
X5013069Y492069D01*
X5016708Y489638D01*
X5021000Y488784D01*
X5025292Y489638D01*
X5028931Y492069D01*
X5031362Y495708D01*
X5032216Y500000D01*
X5031362Y504292D01*
X5028931Y507931D01*
X5025292Y510362D01*
X5021000Y511216D01*
D02*
G37*
G36*
X5135855Y495000D02*
X5127575D01*
Y486720D01*
X5128037Y486812D01*
X5132668Y489906D01*
X5135762Y494538D01*
X5135855Y495000D01*
D02*
G37*
G36*
X5117575D02*
X5109295D01*
X5109387Y494538D01*
X5112481Y489906D01*
X5117112Y486812D01*
X5117575Y486720D01*
Y495000D01*
D02*
G37*
G36*
X481000Y530022D02*
Y481000D01*
X530022D01*
X528817Y490152D01*
X523355Y503340D01*
X514665Y514665D01*
X503340Y523355D01*
X490152Y528817D01*
X481000Y530022D01*
D02*
G37*
G36*
X471000D02*
X461848Y528817D01*
X448660Y523355D01*
X437335Y514665D01*
X428645Y503340D01*
X423183Y490152D01*
X421978Y481000D01*
X471000D01*
Y530022D01*
D02*
G37*
G36*
X5823575Y497216D02*
X5819283Y496362D01*
X5815644Y493931D01*
X5813213Y490292D01*
X5812359Y486000D01*
X5813213Y481708D01*
X5815644Y478069D01*
X5819283Y475638D01*
X5823575Y474784D01*
X5827867Y475638D01*
X5831505Y478069D01*
X5833937Y481708D01*
X5834790Y486000D01*
X5833937Y490292D01*
X5831505Y493931D01*
X5827867Y496362D01*
X5823575Y497216D01*
D02*
G37*
G36*
X5026000Y478634D02*
Y470354D01*
X5034280D01*
X5034188Y470817D01*
X5031093Y475448D01*
X5026462Y478542D01*
X5026000Y478634D01*
D02*
G37*
G36*
X5016000D02*
X5015538Y478542D01*
X5010907Y475448D01*
X5007812Y470817D01*
X5007720Y470354D01*
X5016000D01*
Y478634D01*
D02*
G37*
G36*
X4757906Y471315D02*
Y463035D01*
X4766185D01*
X4766093Y463498D01*
X4762999Y468128D01*
X4758368Y471223D01*
X4757906Y471315D01*
D02*
G37*
G36*
X4747906D02*
X4747443Y471223D01*
X4742812Y468128D01*
X4739718Y463498D01*
X4739626Y463035D01*
X4747906D01*
Y471315D01*
D02*
G37*
G36*
X4677906D02*
Y463035D01*
X4686185D01*
X4686093Y463498D01*
X4682999Y468128D01*
X4678368Y471223D01*
X4677906Y471315D01*
D02*
G37*
G36*
X4667906D02*
X4667443Y471223D01*
X4662812Y468128D01*
X4659718Y463498D01*
X4659626Y463035D01*
X4667906D01*
Y471315D01*
D02*
G37*
G36*
X4597906D02*
Y463035D01*
X4606185D01*
X4606093Y463498D01*
X4602999Y468128D01*
X4598368Y471223D01*
X4597906Y471315D01*
D02*
G37*
G36*
X4587906D02*
X4587443Y471223D01*
X4582812Y468128D01*
X4579718Y463498D01*
X4579626Y463035D01*
X4587906D01*
Y471315D01*
D02*
G37*
G36*
X4517906D02*
Y463035D01*
X4526185D01*
X4526093Y463498D01*
X4522999Y468128D01*
X4518368Y471223D01*
X4517906Y471315D01*
D02*
G37*
G36*
X4507906D02*
X4507443Y471223D01*
X4502812Y468128D01*
X4499718Y463498D01*
X4499626Y463035D01*
X4507906D01*
Y471315D01*
D02*
G37*
G36*
X4437906D02*
Y463035D01*
X4446185D01*
X4446093Y463498D01*
X4442999Y468128D01*
X4438368Y471223D01*
X4437906Y471315D01*
D02*
G37*
G36*
X4427906D02*
X4427443Y471223D01*
X4422812Y468128D01*
X4419718Y463498D01*
X4419626Y463035D01*
X4427906D01*
Y471315D01*
D02*
G37*
G36*
X4357906D02*
Y463035D01*
X4366185D01*
X4366093Y463498D01*
X4362999Y468128D01*
X4358368Y471223D01*
X4357906Y471315D01*
D02*
G37*
G36*
X4347906D02*
X4347443Y471223D01*
X4342812Y468128D01*
X4339718Y463498D01*
X4339626Y463035D01*
X4347906D01*
Y471315D01*
D02*
G37*
G36*
X4277906D02*
Y463035D01*
X4286185D01*
X4286093Y463498D01*
X4282999Y468128D01*
X4278368Y471223D01*
X4277906Y471315D01*
D02*
G37*
G36*
X4267906D02*
X4267443Y471223D01*
X4262812Y468128D01*
X4259718Y463498D01*
X4259626Y463035D01*
X4267906D01*
Y471315D01*
D02*
G37*
G36*
X4200000Y471280D02*
Y463000D01*
X4208280D01*
X4208188Y463462D01*
X4205093Y468094D01*
X4200462Y471188D01*
X4200000Y471280D01*
D02*
G37*
G36*
X4190000D02*
X4189538Y471188D01*
X4184907Y468094D01*
X4181812Y463462D01*
X4181720Y463000D01*
X4190000D01*
Y471280D01*
D02*
G37*
G36*
X5034280Y460354D02*
X5026000D01*
Y452075D01*
X5026462Y452167D01*
X5031093Y455261D01*
X5034188Y459892D01*
X5034280Y460354D01*
D02*
G37*
G36*
X5016000D02*
X5007720D01*
X5007812Y459892D01*
X5010907Y455261D01*
X5015538Y452167D01*
X5016000Y452075D01*
Y460354D01*
D02*
G37*
G36*
X4766185Y453035D02*
X4757906D01*
Y444755D01*
X4758368Y444847D01*
X4762999Y447942D01*
X4766093Y452572D01*
X4766185Y453035D01*
D02*
G37*
G36*
X4747906D02*
X4739626D01*
X4739718Y452572D01*
X4742812Y447942D01*
X4747443Y444847D01*
X4747906Y444755D01*
Y453035D01*
D02*
G37*
G36*
X4686185D02*
X4677906D01*
Y444755D01*
X4678368Y444847D01*
X4682999Y447942D01*
X4686093Y452572D01*
X4686185Y453035D01*
D02*
G37*
G36*
X4667906D02*
X4659626D01*
X4659718Y452572D01*
X4662812Y447942D01*
X4667443Y444847D01*
X4667906Y444755D01*
Y453035D01*
D02*
G37*
G36*
X4606185D02*
X4597906D01*
Y444755D01*
X4598368Y444847D01*
X4602999Y447942D01*
X4606093Y452572D01*
X4606185Y453035D01*
D02*
G37*
G36*
X4587906D02*
X4579626D01*
X4579718Y452572D01*
X4582812Y447942D01*
X4587443Y444847D01*
X4587906Y444755D01*
Y453035D01*
D02*
G37*
G36*
X4526185D02*
X4517906D01*
Y444755D01*
X4518368Y444847D01*
X4522999Y447942D01*
X4526093Y452572D01*
X4526185Y453035D01*
D02*
G37*
G36*
X4507906D02*
X4499626D01*
X4499718Y452572D01*
X4502812Y447942D01*
X4507443Y444847D01*
X4507906Y444755D01*
Y453035D01*
D02*
G37*
G36*
X4446185D02*
X4437906D01*
Y444755D01*
X4438368Y444847D01*
X4442999Y447942D01*
X4446093Y452572D01*
X4446185Y453035D01*
D02*
G37*
G36*
X4427906D02*
X4419626D01*
X4419718Y452572D01*
X4422812Y447942D01*
X4427443Y444847D01*
X4427906Y444755D01*
Y453035D01*
D02*
G37*
G36*
X4366185D02*
X4357906D01*
Y444755D01*
X4358368Y444847D01*
X4362999Y447942D01*
X4366093Y452572D01*
X4366185Y453035D01*
D02*
G37*
G36*
X4347906D02*
X4339626D01*
X4339718Y452572D01*
X4342812Y447942D01*
X4347443Y444847D01*
X4347906Y444755D01*
Y453035D01*
D02*
G37*
G36*
X4286185D02*
X4277906D01*
Y444755D01*
X4278368Y444847D01*
X4282999Y447942D01*
X4286093Y452572D01*
X4286185Y453035D01*
D02*
G37*
G36*
X4267906D02*
X4259626D01*
X4259718Y452572D01*
X4262812Y447942D01*
X4267443Y444847D01*
X4267906Y444755D01*
Y453035D01*
D02*
G37*
G36*
X4208280Y453000D02*
X4200000D01*
Y444720D01*
X4200462Y444812D01*
X4205093Y447906D01*
X4208188Y452538D01*
X4208280Y453000D01*
D02*
G37*
G36*
X4190000D02*
X4181720D01*
X4181812Y452538D01*
X4184907Y447906D01*
X4189538Y444812D01*
X4190000Y444720D01*
Y453000D01*
D02*
G37*
G36*
X5075425Y450280D02*
Y442000D01*
X5083705D01*
X5083613Y442462D01*
X5080519Y447094D01*
X5075888Y450188D01*
X5075425Y450280D01*
D02*
G37*
G36*
X5065425D02*
X5064963Y450188D01*
X5060332Y447094D01*
X5057238Y442462D01*
X5057145Y442000D01*
X5065425D01*
Y450280D01*
D02*
G37*
G36*
X1228724Y537132D02*
X1216913D01*
X1204572Y535508D01*
X1193072Y530744D01*
X1183196Y523166D01*
X1175618Y513291D01*
X1170855Y501790D01*
X1169230Y489449D01*
X1170855Y477107D01*
X1175618Y465607D01*
X1183196Y455731D01*
X1193072Y448154D01*
X1204572Y443390D01*
X1216913Y441765D01*
X1228724D01*
X1241066Y443390D01*
X1252566Y448154D01*
X1262442Y455731D01*
X1270020Y465607D01*
X1274783Y477107D01*
X1276408Y489449D01*
X1274783Y501790D01*
X1270020Y513291D01*
X1262442Y523166D01*
X1252566Y530744D01*
X1241066Y535508D01*
X1228724Y537132D01*
D02*
G37*
G36*
X5318000Y442201D02*
Y433921D01*
X5326280D01*
X5326188Y434384D01*
X5323093Y439015D01*
X5318462Y442109D01*
X5318000Y442201D01*
D02*
G37*
G36*
X5308000D02*
X5307538Y442109D01*
X5302907Y439015D01*
X5299812Y434384D01*
X5299720Y433921D01*
X5308000D01*
Y442201D01*
D02*
G37*
G36*
X5268000D02*
Y433921D01*
X5276280D01*
X5276188Y434384D01*
X5273093Y439015D01*
X5268462Y442109D01*
X5268000Y442201D01*
D02*
G37*
G36*
X5258000D02*
X5257538Y442109D01*
X5252907Y439015D01*
X5249812Y434384D01*
X5249720Y433921D01*
X5258000D01*
Y442201D01*
D02*
G37*
G36*
X5218000D02*
Y433921D01*
X5226280D01*
X5226188Y434384D01*
X5223093Y439015D01*
X5218462Y442109D01*
X5218000Y442201D01*
D02*
G37*
G36*
X5208000D02*
X5207538Y442109D01*
X5202907Y439015D01*
X5199812Y434384D01*
X5199720Y433921D01*
X5208000D01*
Y442201D01*
D02*
G37*
G36*
X5123575Y448216D02*
X5119283Y447362D01*
X5115644Y444931D01*
X5113213Y441292D01*
X5112359Y437000D01*
X5113213Y432708D01*
X5115644Y429069D01*
X5119283Y426638D01*
X5123575Y425784D01*
X5127867Y426638D01*
X5131505Y429069D01*
X5133937Y432708D01*
X5134790Y437000D01*
X5133937Y441292D01*
X5131505Y444931D01*
X5127867Y447362D01*
X5123575Y448216D01*
D02*
G37*
G36*
X1375000Y490311D02*
X1366646Y489211D01*
X1358862Y485987D01*
X1352177Y480858D01*
X1347048Y474173D01*
X1343824Y466389D01*
X1342724Y458035D01*
X1343824Y449681D01*
X1347048Y441897D01*
X1352177Y435212D01*
X1358862Y430083D01*
X1366646Y426859D01*
X1375000Y425759D01*
X1383354Y426859D01*
X1391138Y430083D01*
X1397823Y435212D01*
X1402952Y441897D01*
X1406176Y449681D01*
X1407276Y458035D01*
X1406176Y466389D01*
X1402952Y474173D01*
X1397823Y480858D01*
X1391138Y485987D01*
X1383354Y489211D01*
X1375000Y490311D01*
D02*
G37*
G36*
X5083705Y432000D02*
X5075425D01*
Y423720D01*
X5075888Y423812D01*
X5080519Y426906D01*
X5083613Y431538D01*
X5083705Y432000D01*
D02*
G37*
G36*
X5065425D02*
X5057145D01*
X5057238Y431538D01*
X5060332Y426906D01*
X5064963Y423812D01*
X5065425Y423720D01*
Y432000D01*
D02*
G37*
G36*
X530022Y471000D02*
X481000D01*
Y421978D01*
X490152Y423183D01*
X503340Y428645D01*
X514665Y437335D01*
X523355Y448660D01*
X528817Y461848D01*
X530022Y471000D01*
D02*
G37*
G36*
X471000D02*
X421978D01*
X423183Y461848D01*
X428645Y448660D01*
X437335Y437335D01*
X448660Y428645D01*
X461848Y423183D01*
X471000Y421978D01*
Y471000D01*
D02*
G37*
G36*
X3947922Y538351D02*
X3935953Y537172D01*
X3924444Y533681D01*
X3913837Y528011D01*
X3904540Y520381D01*
X3896910Y511084D01*
X3891241Y500478D01*
X3887750Y488969D01*
X3886571Y477000D01*
X3887750Y465031D01*
X3891241Y453522D01*
X3896910Y442916D01*
X3904540Y433619D01*
X3913837Y425989D01*
X3924444Y420320D01*
X3935953Y416828D01*
X3947922Y415649D01*
X3959890Y416828D01*
X3971399Y420320D01*
X3982006Y425989D01*
X3991303Y433619D01*
X3998933Y442916D01*
X4004602Y453522D01*
X4008093Y465031D01*
X4009272Y477000D01*
X4008093Y488969D01*
X4004602Y500478D01*
X3998933Y511084D01*
X3991303Y520381D01*
X3982006Y528011D01*
X3971399Y533681D01*
X3959890Y537172D01*
X3947922Y538351D01*
D02*
G37*
G36*
X5326280Y423921D02*
X5318000D01*
Y415642D01*
X5318462Y415734D01*
X5323093Y418828D01*
X5326188Y423459D01*
X5326280Y423921D01*
D02*
G37*
G36*
X5308000D02*
X5299720D01*
X5299812Y423459D01*
X5302907Y418828D01*
X5307538Y415734D01*
X5308000Y415642D01*
Y423921D01*
D02*
G37*
G36*
X5276280D02*
X5268000D01*
Y415642D01*
X5268462Y415734D01*
X5273093Y418828D01*
X5276188Y423459D01*
X5276280Y423921D01*
D02*
G37*
G36*
X5258000D02*
X5249720D01*
X5249812Y423459D01*
X5252907Y418828D01*
X5257538Y415734D01*
X5258000Y415642D01*
Y423921D01*
D02*
G37*
G36*
X5226280D02*
X5218000D01*
Y415642D01*
X5218462Y415734D01*
X5223093Y418828D01*
X5226188Y423459D01*
X5226280Y423921D01*
D02*
G37*
G36*
X5208000D02*
X5199720D01*
X5199812Y423459D01*
X5202907Y418828D01*
X5207538Y415734D01*
X5208000Y415642D01*
Y423921D01*
D02*
G37*
%LPD*%
D65*
X626016Y965000D02*
D03*
X502000D02*
D03*
X626016Y598858D02*
D03*
X502000D02*
D03*
D66*
X4645221Y1138000D02*
D03*
X4527110D02*
D03*
X4409000D02*
D03*
D67*
X4763331Y1215165D02*
D03*
X4172780D02*
D03*
D68*
X4290890Y1138000D02*
D03*
D69*
X3808858Y569500D02*
D03*
X3267000Y438000D02*
D03*
X3155260Y634000D02*
D03*
X1375000Y458035D02*
D03*
X2997780Y635858D02*
D03*
D70*
X476000Y476000D02*
D03*
X4846000Y1183000D02*
D03*
D71*
X1840000Y858000D02*
D03*
X1965000D02*
D03*
Y1058000D02*
D03*
X1840000D02*
D03*
D72*
Y958000D02*
D03*
X2040000Y998000D02*
D03*
Y918000D02*
D03*
D73*
X1222819Y1170551D02*
D03*
Y489449D02*
D03*
D74*
X458000Y1077441D02*
D03*
Y1193000D02*
D03*
X584000Y1191964D02*
D03*
X2534000Y957000D02*
D03*
X584000Y1077441D02*
D03*
X1900000Y1172000D02*
D03*
X1817000D02*
D03*
X1729000D02*
D03*
D75*
X3947922Y477000D02*
D03*
D76*
X4068583Y860433D02*
D03*
Y773819D02*
D03*
X3981968Y860433D02*
D03*
Y773819D02*
D03*
X4025276Y860433D02*
D03*
X4068583Y817126D02*
D03*
X3981968D02*
D03*
X4025276Y774803D02*
D03*
D77*
X5069425Y500000D02*
D03*
X5147079Y1023000D02*
D03*
X4124000Y1019000D02*
D03*
X4123496Y1096000D02*
D03*
X4491000Y990000D02*
D03*
X4516882Y947000D02*
D03*
X4517000Y990000D02*
D03*
X4516882Y969000D02*
D03*
X4408882Y947000D02*
D03*
X4409000Y990000D02*
D03*
X4408882Y969000D02*
D03*
X638000Y874842D02*
D03*
X663417Y689016D02*
D03*
X638000D02*
D03*
X689000Y689000D02*
D03*
X688902Y874842D02*
D03*
X5373547Y789000D02*
D03*
Y726008D02*
D03*
X5293547Y789000D02*
D03*
Y726008D02*
D03*
X5213641D02*
D03*
Y789000D02*
D03*
X714000Y713032D02*
D03*
Y689670D02*
D03*
X663417Y874842D02*
D03*
X3901425Y633236D02*
D03*
X3754242Y575543D02*
D03*
X3712402D02*
D03*
X896000Y721740D02*
D03*
X4363000Y645000D02*
D03*
X4195000Y458000D02*
D03*
X4139000Y785000D02*
D03*
X4169000Y856748D02*
D03*
X4139000Y808000D02*
D03*
X4168000Y824000D02*
D03*
X4139000Y873000D02*
D03*
X3721000Y1064425D02*
D03*
X3780000Y1064842D02*
D03*
X663417Y850827D02*
D03*
X756724Y888000D02*
D03*
X1548000Y636000D02*
D03*
X1539000Y655685D02*
D03*
X1642000Y750488D02*
D03*
X1681496Y562000D02*
D03*
X1547512Y715055D02*
D03*
Y695370D02*
D03*
Y675685D02*
D03*
X1686000Y815000D02*
D03*
X1681370Y750488D02*
D03*
X1736488Y596945D02*
D03*
X1701496Y562000D02*
D03*
X3838000Y824657D02*
D03*
X3882000Y807000D02*
D03*
X3912000Y755000D02*
D03*
X4853000Y619000D02*
D03*
Y642260D02*
D03*
X4197000Y891000D02*
D03*
X4189000Y706000D02*
D03*
X4229000Y875000D02*
D03*
X4139000Y840000D02*
D03*
X4180000Y416000D02*
D03*
X4072235Y699000D02*
D03*
X4110000Y706000D02*
D03*
X4601000Y912000D02*
D03*
X4584000Y787000D02*
D03*
X4400000Y864000D02*
D03*
X3723384Y939000D02*
D03*
X3662000D02*
D03*
X3723384Y993575D02*
D03*
X4683000Y936506D02*
D03*
X4733000Y936497D02*
D03*
X4708000D02*
D03*
X4658000Y936506D02*
D03*
X4380882Y969000D02*
D03*
X4381000Y990000D02*
D03*
X4380882Y947000D02*
D03*
X4491118Y969000D02*
D03*
X4491000Y947000D02*
D03*
X4102787Y930000D02*
D03*
X4090000Y969000D02*
D03*
X4914795Y974000D02*
D03*
X4613906Y860646D02*
D03*
X5373641Y861049D02*
D03*
X5293641D02*
D03*
X5213641D02*
D03*
X5017000Y761000D02*
D03*
X4055504Y1096000D02*
D03*
X3805410Y805032D02*
D03*
X3931000Y1026591D02*
D03*
X3990000D02*
D03*
X4049000Y957000D02*
D03*
X3986000Y1076000D02*
D03*
X3855000Y1079591D02*
D03*
X3953000Y1215288D02*
D03*
X4014000D02*
D03*
X3893000Y1163123D02*
D03*
X3833000Y1162139D02*
D03*
X3856110Y1028000D02*
D03*
X3826000Y962000D02*
D03*
X3489000Y1096425D02*
D03*
X3601575Y1085000D02*
D03*
X3662561Y1064842D02*
D03*
X4914795Y1074000D02*
D03*
X4055504Y1019000D02*
D03*
X5293641Y924041D02*
D03*
X5213641D02*
D03*
X5373641D02*
D03*
X3920750Y1091754D02*
D03*
X4813000Y619365D02*
D03*
Y642260D02*
D03*
X5070425Y437000D02*
D03*
X4752906Y521027D02*
D03*
X5123575Y437000D02*
D03*
X4672906Y458035D02*
D03*
X4752906D02*
D03*
X3985000Y1106000D02*
D03*
X5362000Y1225079D02*
D03*
X5312000D02*
D03*
X5212000D02*
D03*
X5362000Y992795D02*
D03*
X5212000D02*
D03*
X5262000Y1225079D02*
D03*
X5312000Y992795D02*
D03*
X5262000D02*
D03*
X5636500Y568386D02*
D03*
X5743500D02*
D03*
Y1081380D02*
D03*
X5636500D02*
D03*
Y1031693D02*
D03*
X4242666Y712000D02*
D03*
X4592906Y458035D02*
D03*
X4512906D02*
D03*
X4432906D02*
D03*
X4352906D02*
D03*
X4272906D02*
D03*
X3955000Y633346D02*
D03*
X3930000Y711000D02*
D03*
X3604282Y542000D02*
D03*
X4483906Y577000D02*
D03*
X4507906D02*
D03*
X4531906D02*
D03*
X4459906D02*
D03*
X4332000D02*
D03*
X4308000D02*
D03*
X4284000D02*
D03*
X4260000D02*
D03*
X5144079Y630000D02*
D03*
X5021000Y500000D02*
D03*
X5263000Y428921D02*
D03*
X3765000Y727000D02*
D03*
X3655028Y763000D02*
D03*
X3610000Y728354D02*
D03*
X3655028D02*
D03*
X3916000Y873000D02*
D03*
X3898854Y857000D02*
D03*
X5636500Y667995D02*
D03*
X5690000D02*
D03*
X5743500D02*
D03*
Y618307D02*
D03*
X5690000D02*
D03*
X5636500D02*
D03*
X5690000Y568620D02*
D03*
Y1081380D02*
D03*
X5743500Y1031693D02*
D03*
X5690000D02*
D03*
X5743500Y982005D02*
D03*
X5690000D02*
D03*
X5636500D02*
D03*
X5071425Y1197000D02*
D03*
X5147079Y1074000D02*
D03*
X5147039Y973961D02*
D03*
X4914795Y1124000D02*
D03*
Y1024000D02*
D03*
X5363000Y661205D02*
D03*
X5313000D02*
D03*
X5263000D02*
D03*
X5213000D02*
D03*
X5144079Y680000D02*
D03*
Y580000D02*
D03*
X5021000Y465354D02*
D03*
X5145000Y730000D02*
D03*
X4399032Y805032D02*
D03*
X5122575Y500000D02*
D03*
X5313000Y428921D02*
D03*
X5213000D02*
D03*
X4195000Y522000D02*
D03*
X4567000Y913000D02*
D03*
X5087000Y953449D02*
D03*
X4613906Y762685D02*
D03*
X5823575Y486000D02*
D03*
X5825000Y1161000D02*
D03*
X4157992Y762008D02*
D03*
X4127575Y656575D02*
D03*
X779000Y939000D02*
D03*
X766000Y981000D02*
D03*
X835000Y938000D02*
D03*
X4672906Y521027D02*
D03*
X4592906D02*
D03*
X4512906D02*
D03*
X4432906D02*
D03*
X4352906D02*
D03*
X4272906D02*
D03*
X2567000Y550000D02*
D03*
X2751000Y1168087D02*
D03*
X2701000D02*
D03*
X2726000D02*
D03*
X2374000Y997425D02*
D03*
X2182945Y892598D02*
D03*
X2183000Y925000D02*
D03*
X2416000Y721913D02*
D03*
X1232661Y1031000D02*
D03*
X2085260Y1163622D02*
D03*
X1388000Y696591D02*
D03*
X789305Y1141841D02*
D03*
X687884Y1140116D02*
D03*
X738000Y1140787D02*
D03*
X830000Y737691D02*
D03*
Y783000D02*
D03*
X1717476Y1072373D02*
D03*
X1609000Y796000D02*
D03*
X1584134Y837872D02*
D03*
X1558543D02*
D03*
X2517000Y555638D02*
D03*
X1462246Y684158D02*
D03*
Y607637D02*
D03*
X850000Y824000D02*
D03*
X2925000Y1181000D02*
D03*
X2866000D02*
D03*
X2895000D02*
D03*
X966315Y640678D02*
D03*
X792000Y888000D02*
D03*
X779362Y732678D02*
D03*
X1507362Y896638D02*
D03*
X1482000Y1098000D02*
D03*
X1507362Y1121000D02*
D03*
X779362Y788103D02*
D03*
X876000Y825000D02*
D03*
X1005685Y897677D02*
D03*
X2861087Y572000D02*
D03*
X1717000Y1020409D02*
D03*
X1718000Y920323D02*
D03*
Y885677D02*
D03*
X2015892Y958892D02*
D03*
X1575472Y1187713D02*
D03*
X1530472D02*
D03*
X1485472D02*
D03*
X903000Y826678D02*
D03*
X958582Y932001D02*
D03*
X1005685Y932323D02*
D03*
X1072582Y750323D02*
D03*
X1010803Y692016D02*
D03*
X1072582Y715677D02*
D03*
X801220Y681678D02*
D03*
X1430590Y837645D02*
D03*
X911582Y932001D02*
D03*
X1073000Y905811D02*
D03*
X1072582Y637677D02*
D03*
Y793355D02*
D03*
X1507362Y837872D02*
D03*
X3548425Y954252D02*
D03*
X3548819Y1020079D02*
D03*
X3548425Y1085000D02*
D03*
X4025276Y817126D02*
D03*
X3549409Y892598D02*
D03*
X4953134Y719961D02*
D03*
X4996441D02*
D03*
X5039748D02*
D03*
X4953134Y676654D02*
D03*
X4996441D02*
D03*
X5039748D02*
D03*
X4953134Y633346D02*
D03*
X4996441D02*
D03*
X5039748D02*
D03*
X4953134Y590039D02*
D03*
X4996441D02*
D03*
X5039748D02*
D03*
X4956134Y1113961D02*
D03*
X4999441D02*
D03*
X5042748D02*
D03*
X4956134Y1070653D02*
D03*
X4999441D02*
D03*
X5042748D02*
D03*
X4956134Y1027346D02*
D03*
X4999441D02*
D03*
X5042748D02*
D03*
X4956134Y984039D02*
D03*
X4999441D02*
D03*
X5042748D02*
D03*
X5352961Y619866D02*
D03*
Y576559D02*
D03*
Y533252D02*
D03*
X5309654Y619866D02*
D03*
Y576559D02*
D03*
Y533252D02*
D03*
X5266346Y619866D02*
D03*
Y576559D02*
D03*
Y533252D02*
D03*
X5223039Y619866D02*
D03*
Y576559D02*
D03*
Y533252D02*
D03*
X3549409Y1150000D02*
D03*
X3600590Y954055D02*
D03*
Y892598D02*
D03*
X5222039Y1034134D02*
D03*
Y1077441D02*
D03*
Y1120748D02*
D03*
X5265346Y1034134D02*
D03*
Y1077441D02*
D03*
Y1120748D02*
D03*
X5308654Y1034134D02*
D03*
Y1077441D02*
D03*
Y1120748D02*
D03*
X5351961Y1034134D02*
D03*
Y1077441D02*
D03*
Y1120748D02*
D03*
X986000Y762685D02*
D03*
X1005685Y762370D02*
D03*
X1025370Y762685D02*
D03*
X1005685Y802055D02*
D03*
Y782370D02*
D03*
X1025370Y821740D02*
D03*
X986000Y802055D02*
D03*
X920411Y721781D02*
D03*
X966315Y802055D02*
D03*
X946630D02*
D03*
X966315Y821740D02*
D03*
X986000Y866740D02*
D03*
X946630Y762685D02*
D03*
Y721740D02*
D03*
X1558543Y1070156D02*
D03*
X1503748Y744731D02*
D03*
X1458748D02*
D03*
X1921496Y951466D02*
D03*
Y999892D02*
D03*
X1456181Y1069408D02*
D03*
X1430590D02*
D03*
X1905748Y1025993D02*
D03*
X1598693Y699307D02*
D03*
X1642000D02*
D03*
X1685307D02*
D03*
X1598693Y656000D02*
D03*
X1642000D02*
D03*
X1685307D02*
D03*
X1598693Y612693D02*
D03*
X1642000D02*
D03*
X1685307D02*
D03*
D78*
X456724Y728779D02*
D03*
Y835079D02*
D03*
X600425Y915787D02*
D03*
Y648071D02*
D03*
D79*
X4411000Y606000D02*
D03*
%TF.MD5,23ba5758fba10337d13cceda15b3a152*%
M02*
