%TF.GenerationSoftware,Altium Limited,Altium Designer,19.0.15 (446)*%
G04 Layer_Color=0*
%FSLAX26Y26*%
%MOIN*%
%TF.FileFunction,Profile,NP*%
%TF.Part,Single*%
G01*
G75*
%TA.AperFunction,Profile*%
%ADD147C,0.001000*%
D147*
X394240Y413716D02*
G03*
X413925Y394031I19685J0D01*
G01*
Y394031D01*
X945409D01*
D02*
G03*
X965094Y413716I0J19685D01*
G01*
X965091D01*
Y472771D01*
X965091D01*
D02*
G02*
X984776Y492456I19685J0D01*
G01*
Y492456D01*
X1016272D01*
Y492456D01*
D02*
G02*
X1035957Y472771I0J-19685D01*
G01*
X1035961Y472399D01*
Y413716D01*
X1035957D01*
D02*
G03*
X1055642Y394031I19685J0D01*
G01*
X2307579D01*
D02*
G03*
X2327264Y413716I0J19685D01*
G01*
X2327260D01*
Y472771D01*
X2327260D01*
D02*
G02*
X2346945Y492456I19685J0D01*
G01*
Y492456D01*
X2378445D01*
X2378441Y492456D01*
D02*
G02*
X2398126Y472771I0J-19685D01*
G01*
X2398130D01*
Y413716D01*
X2398126D01*
D02*
G03*
X2417811Y394031I19685J0D01*
G01*
X4039831D01*
D02*
G03*
X4059516Y413716I0J19685D01*
G01*
X4059512D01*
Y472771D01*
X4059512D01*
D02*
G02*
X4079197Y492456I19685J0D01*
G01*
X4079197Y492456D01*
X4110693D01*
X4110693Y492456D01*
D02*
G02*
X4130378Y472771I0J-19685D01*
G01*
X4130378D01*
Y413716D01*
X4130378D01*
D02*
G03*
X4150063Y394031I19685J0D01*
G01*
X5398059D01*
D02*
G03*
X5417744Y413716I0J19685D01*
G01*
X5417740D01*
Y472771D01*
X5417740D01*
D02*
G02*
X5437425Y492456I19685J0D01*
G01*
Y492456D01*
X5468921D01*
X5468921Y492456D01*
D02*
G02*
X5488606Y472771I0J-19685D01*
G01*
Y413716D01*
D02*
G03*
X5508291Y394031I19685J0D01*
G01*
X5984669D01*
D02*
G03*
X6004315Y413676I0J19646D01*
G01*
X6004315Y413716D01*
Y1240487D01*
D02*
G03*
X5984669Y1260133I-19646J0D01*
G01*
X5508291D01*
D02*
G03*
X5488646Y1240487I0J-19646D01*
G01*
X5488606D01*
Y1181432D01*
X5488567Y1181472D01*
D02*
G02*
X5468921Y1161826I-19646J0D01*
G01*
Y1161747D01*
X5437425D01*
X5437386Y1161826D01*
D02*
G02*
X5417740Y1181472I0J19646D01*
G01*
Y1240487D01*
X5417701Y1240527D01*
D02*
G03*
X5398055Y1260172I-19646J0D01*
G01*
Y1260133D01*
X4150063D01*
Y1260094D01*
D02*
G03*
X4130417Y1240448I0J-19646D01*
G01*
X4130378Y1240487D01*
Y1181432D01*
X4130339D01*
D02*
G02*
X4110693Y1161787I-19646J0D01*
G01*
Y1161747D01*
X4079197D01*
X4079157Y1161787D01*
D02*
G02*
X4059512Y1181432I0J19646D01*
G01*
Y1240487D01*
X4059472D01*
D02*
G03*
X4039827Y1260133I-19646J0D01*
G01*
X2411902D01*
D02*
G03*
X2392256Y1240487I0J-19646D01*
G01*
X2392220D01*
Y1181432D01*
X2392177Y1181480D01*
D02*
G02*
X2372532Y1161834I-19646J0D01*
G01*
X2372535Y1161747D01*
X2352854D01*
X2352854Y1161830D01*
D02*
G02*
X2333209Y1181476I0J19646D01*
G01*
X2333169Y1181432D01*
Y1240487D01*
X2333122Y1240531D01*
D02*
G03*
X2313476Y1260176I-19646J0D01*
G01*
X2313488Y1260133D01*
X1049736D01*
Y1260090D01*
D02*
G03*
X1030091Y1240444I0J-19646D01*
G01*
X1030051Y1240487D01*
Y1181432D01*
X1030012Y1181436D01*
D02*
G02*
X1010366Y1161791I-19646J0D01*
G01*
Y1161747D01*
X990685D01*
X990689Y1161787D01*
D02*
G02*
X971043Y1181432I0J19646D01*
G01*
X971000D01*
Y1240487D01*
X970957D01*
D02*
G03*
X951311Y1260133I-19646J0D01*
G01*
X413925D01*
D02*
G03*
X394279Y1240487I0J-19646D01*
G01*
X394244Y1034000D01*
X394240D01*
D02*
G03*
X413925Y1014315I19685J0D01*
G01*
D02*
G02*
X433610Y994630I0J-19685D01*
G01*
X433610Y569433D01*
D02*
G02*
X413925Y549748I-19685J0D01*
G01*
D02*
G03*
X394240Y530063I0J-19685D01*
G01*
Y413716D01*
%TF.MD5,121d33a5e9af98fa0ceef687860eea13*%
M02*
