%TF.GenerationSoftware,Altium Limited,Altium Designer,19.0.15 (446)*%
G04 Layer_Color=8388736*
%FSLAX45Y45*%
%MOMM*%
%TF.FileFunction,Soldermask,Top*%
%TF.Part,Single*%
G01*
G75*
%TA.AperFunction,SMDPad,CuDef*%
G04:AMPARAMS|DCode=15|XSize=0.2mm|YSize=0.2mm|CornerRadius=0.05mm|HoleSize=0mm|Usage=FLASHONLY|Rotation=0.000|XOffset=0mm|YOffset=0mm|HoleType=Round|Shape=RoundedRectangle|*
%AMROUNDEDRECTD15*
21,1,0.20000,0.10000,0,0,0.0*
21,1,0.10000,0.20000,0,0,0.0*
1,1,0.10000,0.05000,-0.05000*
1,1,0.10000,-0.05000,-0.05000*
1,1,0.10000,-0.05000,0.05000*
1,1,0.10000,0.05000,0.05000*
%
%ADD15ROUNDEDRECTD15*%
G04:AMPARAMS|DCode=31|XSize=0.7mm|YSize=0.7mm|CornerRadius=0.0875mm|HoleSize=0mm|Usage=FLASHONLY|Rotation=90.000|XOffset=0mm|YOffset=0mm|HoleType=Round|Shape=RoundedRectangle|*
%AMROUNDEDRECTD31*
21,1,0.70000,0.52500,0,0,90.0*
21,1,0.52500,0.70000,0,0,90.0*
1,1,0.17500,0.26250,0.26250*
1,1,0.17500,0.26250,-0.26250*
1,1,0.17500,-0.26250,-0.26250*
1,1,0.17500,-0.26250,0.26250*
%
%ADD31ROUNDEDRECTD31*%
G04:AMPARAMS|DCode=32|XSize=0.7mm|YSize=1.253mm|CornerRadius=0.0875mm|HoleSize=0mm|Usage=FLASHONLY|Rotation=90.000|XOffset=0mm|YOffset=0mm|HoleType=Round|Shape=RoundedRectangle|*
%AMROUNDEDRECTD32*
21,1,0.70000,1.07800,0,0,90.0*
21,1,0.52500,1.25300,0,0,90.0*
1,1,0.17500,0.53900,0.26250*
1,1,0.17500,0.53900,-0.26250*
1,1,0.17500,-0.53900,-0.26250*
1,1,0.17500,-0.53900,0.26250*
%
%ADD32ROUNDEDRECTD32*%
G04:AMPARAMS|DCode=35|XSize=0.2mm|YSize=0.6mm|CornerRadius=0.04mm|HoleSize=0mm|Usage=FLASHONLY|Rotation=90.000|XOffset=0mm|YOffset=0mm|HoleType=Round|Shape=RoundedRectangle|*
%AMROUNDEDRECTD35*
21,1,0.20000,0.52000,0,0,90.0*
21,1,0.12000,0.60000,0,0,90.0*
1,1,0.08000,0.26000,0.06000*
1,1,0.08000,0.26000,-0.06000*
1,1,0.08000,-0.26000,-0.06000*
1,1,0.08000,-0.26000,0.06000*
%
%ADD35ROUNDEDRECTD35*%
G04:AMPARAMS|DCode=36|XSize=0.6mm|YSize=0.2mm|CornerRadius=0.04mm|HoleSize=0mm|Usage=FLASHONLY|Rotation=90.000|XOffset=0mm|YOffset=0mm|HoleType=Round|Shape=RoundedRectangle|*
%AMROUNDEDRECTD36*
21,1,0.60000,0.12000,0,0,90.0*
21,1,0.52000,0.20000,0,0,90.0*
1,1,0.08000,0.06000,0.26000*
1,1,0.08000,0.06000,-0.26000*
1,1,0.08000,-0.06000,-0.26000*
1,1,0.08000,-0.06000,0.26000*
%
%ADD36ROUNDEDRECTD36*%
%TA.AperFunction,ComponentPad*%
%ADD87C,0.40000*%
%ADD89C,2.37500*%
%ADD90C,0.85000*%
%TA.AperFunction,ViaPad*%
%ADD95C,1.98000*%
%TA.AperFunction,SMDPad,CuDef*%
%ADD127R,0.70000X0.85000*%
%ADD128R,0.85000X0.70000*%
%ADD131R,1.10000X1.00000*%
%ADD132R,1.00000X1.10000*%
%ADD133R,0.95000X1.05000*%
%ADD137R,0.70000X0.74000*%
%ADD138R,0.74000X0.70000*%
%ADD139R,1.05000X0.95000*%
%ADD141R,1.30000X1.30000*%
%TA.AperFunction,ViaPad*%
%ADD142C,1.62400*%
%TA.AperFunction,ComponentPad*%
G04:AMPARAMS|DCode=143|XSize=1.1mm|YSize=2.4mm|CornerRadius=0.55mm|HoleSize=0mm|Usage=FLASHONLY|Rotation=270.000|XOffset=0mm|YOffset=0mm|HoleType=Round|Shape=RoundedRectangle|*
%AMROUNDEDRECTD143*
21,1,1.10000,1.30000,0,0,270.0*
21,1,0.00000,2.40000,0,0,270.0*
1,1,1.10000,-0.65000,0.00000*
1,1,1.10000,-0.65000,0.00000*
1,1,1.10000,0.65000,0.00000*
1,1,1.10000,0.65000,0.00000*
%
%ADD143ROUNDEDRECTD143*%
%TA.AperFunction,ViaPad*%
%ADD144C,2.60000*%
%TA.AperFunction,ComponentPad*%
%ADD145C,1.62400*%
%TA.AperFunction,ConnectorPad*%
%ADD155R,1.10000X0.40000*%
%ADD156R,1.10000X0.70000*%
%TA.AperFunction,SMDPad,CuDef*%
%ADD157R,0.80000X0.60000*%
%ADD158R,2.60000X3.10000*%
%ADD159R,0.60000X0.75000*%
%ADD160R,0.60000X0.65000*%
%ADD161R,4.70000X4.22000*%
%ADD162R,0.75000X0.60000*%
%ADD163R,0.65000X0.60000*%
%ADD164R,4.22000X4.70000*%
%ADD165O,0.80000X0.30000*%
%ADD166C,0.90010*%
G04:AMPARAMS|DCode=167|XSize=1.63mm|YSize=2.75mm|CornerRadius=0.08825mm|HoleSize=0mm|Usage=FLASHONLY|Rotation=90.000|XOffset=0mm|YOffset=0mm|HoleType=Round|Shape=RoundedRectangle|*
%AMROUNDEDRECTD167*
21,1,1.63000,2.57350,0,0,90.0*
21,1,1.45350,2.75000,0,0,90.0*
1,1,0.17650,1.28675,0.72675*
1,1,0.17650,1.28675,-0.72675*
1,1,0.17650,-1.28675,-0.72675*
1,1,0.17650,-1.28675,0.72675*
%
%ADD167ROUNDEDRECTD167*%
G04:AMPARAMS|DCode=168|XSize=2.82mm|YSize=2.75mm|CornerRadius=0.11625mm|HoleSize=0mm|Usage=FLASHONLY|Rotation=90.000|XOffset=0mm|YOffset=0mm|HoleType=Round|Shape=RoundedRectangle|*
%AMROUNDEDRECTD168*
21,1,2.82000,2.51750,0,0,90.0*
21,1,2.58750,2.75000,0,0,90.0*
1,1,0.23250,1.25875,1.29375*
1,1,0.23250,1.25875,-1.29375*
1,1,0.23250,-1.25875,-1.29375*
1,1,0.23250,-1.25875,1.29375*
%
%ADD168ROUNDEDRECTD168*%
%ADD169R,1.37200X3.53200*%
%ADD170R,1.40000X1.50000*%
%ADD171R,0.27000X0.62000*%
%ADD172R,0.37000X0.27000*%
%ADD173R,1.30000X1.30000*%
%ADD174R,0.62000X0.27000*%
%ADD175R,0.27000X0.37000*%
%ADD176R,4.80000X3.53000*%
%ADD177R,1.10000X1.70000*%
%ADD178R,0.76000X0.42000*%
G04:AMPARAMS|DCode=179|XSize=2.07mm|YSize=0.7mm|CornerRadius=0.125mm|HoleSize=0mm|Usage=FLASHONLY|Rotation=0.000|XOffset=0mm|YOffset=0mm|HoleType=Round|Shape=RoundedRectangle|*
%AMROUNDEDRECTD179*
21,1,2.07000,0.45000,0,0,0.0*
21,1,1.82000,0.70000,0,0,0.0*
1,1,0.25000,0.91000,-0.22500*
1,1,0.25000,-0.91000,-0.22500*
1,1,0.25000,-0.91000,0.22500*
1,1,0.25000,0.91000,0.22500*
%
%ADD179ROUNDEDRECTD179*%
%ADD180R,3.53200X1.37200*%
%ADD181O,0.55000X1.50000*%
%ADD182R,2.33000X1.90000*%
%ADD183R,0.45000X0.40000*%
%ADD184R,0.54000X0.75000*%
%ADD185R,1.19000X0.75000*%
%ADD186R,2.90000X2.00000*%
%ADD187R,3.53000X4.80000*%
%ADD188R,2.80000X2.30000*%
G04:AMPARAMS|DCode=189|XSize=0.93mm|YSize=0.32mm|CornerRadius=0.0775mm|HoleSize=0mm|Usage=FLASHONLY|Rotation=180.000|XOffset=0mm|YOffset=0mm|HoleType=Round|Shape=RoundedRectangle|*
%AMROUNDEDRECTD189*
21,1,0.93000,0.16500,0,0,180.0*
21,1,0.77500,0.32000,0,0,180.0*
1,1,0.15500,-0.38750,0.08250*
1,1,0.15500,0.38750,0.08250*
1,1,0.15500,0.38750,-0.08250*
1,1,0.15500,-0.38750,-0.08250*
%
%ADD189ROUNDEDRECTD189*%
G04:AMPARAMS|DCode=190|XSize=0.93mm|YSize=0.32mm|CornerRadius=0.0775mm|HoleSize=0mm|Usage=FLASHONLY|Rotation=90.000|XOffset=0mm|YOffset=0mm|HoleType=Round|Shape=RoundedRectangle|*
%AMROUNDEDRECTD190*
21,1,0.93000,0.16500,0,0,90.0*
21,1,0.77500,0.32000,0,0,90.0*
1,1,0.15500,0.08250,0.38750*
1,1,0.15500,0.08250,-0.38750*
1,1,0.15500,-0.08250,-0.38750*
1,1,0.15500,-0.08250,0.38750*
%
%ADD190ROUNDEDRECTD190*%
%ADD191R,1.85000X1.85000*%
%ADD192R,1.60000X2.50000*%
%ADD193R,1.50000X1.40000*%
%ADD194R,1.75000X1.30000*%
%ADD195R,1.30000X1.75000*%
%TA.AperFunction,BGAPad,CuDef*%
%ADD196C,0.90000*%
%TA.AperFunction,SMDPad,CuDef*%
%ADD197O,0.30000X0.80000*%
%ADD198R,3.10000X3.10000*%
%ADD199R,2.55000X2.65000*%
%ADD200R,2.65000X2.55000*%
%ADD201R,0.90000X1.00000*%
%ADD202O,1.05000X0.40000*%
%ADD203O,0.40000X1.05000*%
%ADD204R,3.45000X3.45000*%
%TA.AperFunction,ComponentPad*%
%ADD205C,0.55720*%
D15*
X2057640Y2126460D02*
D03*
X2087640Y2092460D02*
D03*
Y2160460D02*
D03*
D31*
X2597980Y1805440D02*
D03*
Y1885440D02*
D03*
D32*
X2855630Y2195440D02*
D03*
X2720330D02*
D03*
D35*
X2597980Y1665440D02*
D03*
Y1705440D02*
D03*
Y1745440D02*
D03*
Y1945440D02*
D03*
Y1985440D02*
D03*
Y2025440D02*
D03*
Y2065440D02*
D03*
Y2105440D02*
D03*
Y2145440D02*
D03*
X2977980D02*
D03*
Y2105440D02*
D03*
Y2065440D02*
D03*
Y2025440D02*
D03*
Y1985440D02*
D03*
Y1945440D02*
D03*
Y1905440D02*
D03*
Y1865440D02*
D03*
Y1825440D02*
D03*
Y1785440D02*
D03*
Y1745440D02*
D03*
Y1705440D02*
D03*
Y1665440D02*
D03*
D36*
X2887980Y1615440D02*
D03*
X2847980D02*
D03*
X2807980D02*
D03*
X2767980D02*
D03*
X2727980D02*
D03*
X2687980D02*
D03*
D87*
X2895480Y2061440D02*
D03*
X2680480D02*
D03*
X2787980D02*
D03*
Y1919940D02*
D03*
Y1697940D02*
D03*
X2895480Y1808940D02*
D03*
X2680480D02*
D03*
X2787980D02*
D03*
D89*
X5493500Y2656240D02*
D03*
Y2338740D02*
D03*
X6001500D02*
D03*
Y2656240D02*
D03*
D90*
X5747500D02*
D03*
X5849100Y2148240D02*
D03*
X5645900D02*
D03*
D95*
X2055000Y1695000D02*
D03*
Y2330000D02*
D03*
D127*
X5176520Y2276760D02*
D03*
Y2391760D02*
D03*
X5389880Y1591680D02*
D03*
Y1706680D02*
D03*
X7842500Y2385000D02*
D03*
Y2500000D02*
D03*
X3327400Y2130000D02*
D03*
Y2015000D02*
D03*
X2352040Y1448061D02*
D03*
Y1563061D02*
D03*
X1648460Y1128868D02*
D03*
Y1243868D02*
D03*
X2807500Y1467200D02*
D03*
Y1352200D02*
D03*
X2687320Y1467200D02*
D03*
Y1352200D02*
D03*
X3395980Y2513680D02*
D03*
Y2398680D02*
D03*
X4224020Y2566865D02*
D03*
Y2681865D02*
D03*
X3165540Y2357120D02*
D03*
Y2242120D02*
D03*
X4610000Y3045000D02*
D03*
Y2930000D02*
D03*
X4497500Y3045000D02*
D03*
Y2930000D02*
D03*
X4335780Y2356200D02*
D03*
Y2241200D02*
D03*
X7508460Y1257320D02*
D03*
Y1142320D02*
D03*
X7622760Y1257288D02*
D03*
Y1142288D02*
D03*
X4767780Y1328826D02*
D03*
Y1213826D02*
D03*
X11370000Y1092500D02*
D03*
Y1207500D02*
D03*
D128*
X10915300Y1345448D02*
D03*
X11030300D02*
D03*
X2447220Y2067460D02*
D03*
Y2182500D02*
D03*
X7139020Y1369060D02*
D03*
X7024020D02*
D03*
X7390480Y1323340D02*
D03*
X7275480D02*
D03*
X3094648Y2016760D02*
D03*
X3209648D02*
D03*
X3094640Y2120900D02*
D03*
X3209640D02*
D03*
X2332220Y2182500D02*
D03*
Y2067460D02*
D03*
X3047500Y2940000D02*
D03*
X3162500D02*
D03*
X3047500Y3068000D02*
D03*
X3162500D02*
D03*
X3047500Y2815000D02*
D03*
X3162500D02*
D03*
X4185000Y2940000D02*
D03*
X4070000D02*
D03*
X3275720Y1648900D02*
D03*
X3160720D02*
D03*
X3160680Y1424940D02*
D03*
X3275680D02*
D03*
X5297520Y2135557D02*
D03*
X5182520D02*
D03*
X8073040Y1569280D02*
D03*
X8188040D02*
D03*
X8064120Y1214666D02*
D03*
X8179120D02*
D03*
X7880000D02*
D03*
X7765000D02*
D03*
X7387240Y1423180D02*
D03*
X7502240D02*
D03*
X8178550Y1334192D02*
D03*
X8063550D02*
D03*
X7503000Y1536400D02*
D03*
X7388000D02*
D03*
X10893609Y1227500D02*
D03*
X10778609D02*
D03*
X10780001Y1107500D02*
D03*
X10665001D02*
D03*
X10780000Y1347500D02*
D03*
X10665000D02*
D03*
X10780000Y1467500D02*
D03*
X10665000D02*
D03*
X11551480Y1102700D02*
D03*
X11666480D02*
D03*
X12372500Y1105000D02*
D03*
X12487500D02*
D03*
X12602500Y1212460D02*
D03*
X12487500D02*
D03*
X11107720Y1093338D02*
D03*
X11222721D02*
D03*
X12122500Y1105000D02*
D03*
X12237500D02*
D03*
X4422500Y1594200D02*
D03*
X4307500D02*
D03*
X12769000Y1346460D02*
D03*
X12654000D02*
D03*
X12768499Y1468820D02*
D03*
X12653499D02*
D03*
X4923140Y1313500D02*
D03*
X5038140D02*
D03*
X4307500Y1704200D02*
D03*
X4422500D02*
D03*
D131*
X10565000Y2677500D02*
D03*
Y2542500D02*
D03*
X13123682Y1558100D02*
D03*
Y1693100D02*
D03*
X12251546Y1936176D02*
D03*
Y1801176D02*
D03*
X10444480Y1521334D02*
D03*
Y1656334D02*
D03*
X9994160Y1523601D02*
D03*
Y1658601D02*
D03*
X11930380Y1896300D02*
D03*
Y1761300D02*
D03*
X12468860Y1771840D02*
D03*
Y1636840D02*
D03*
D132*
X2579180Y2578300D02*
D03*
X2714180D02*
D03*
X11540000Y1237804D02*
D03*
X11675000D02*
D03*
X11540000Y1394460D02*
D03*
X11675000D02*
D03*
X11840000Y1126497D02*
D03*
X11975000D02*
D03*
X10287500Y1656859D02*
D03*
X10152500D02*
D03*
X13430000Y3095000D02*
D03*
X13564999D02*
D03*
X11096952Y1227500D02*
D03*
X11231952D02*
D03*
X14526241Y1472500D02*
D03*
X14661240D02*
D03*
D133*
X5485360Y3068737D02*
D03*
X5355360D02*
D03*
X6228320Y1178564D02*
D03*
X6358320D02*
D03*
X8147200Y2697480D02*
D03*
X8277200D02*
D03*
X1865860Y2603829D02*
D03*
X1735860D02*
D03*
X3359380Y1885000D02*
D03*
X3229380D02*
D03*
D137*
X10712000Y1883122D02*
D03*
X10624000D02*
D03*
X4154000Y3067500D02*
D03*
X4066000D02*
D03*
X2893500Y2320500D02*
D03*
X2981500D02*
D03*
X3160580Y1312500D02*
D03*
X3072580D02*
D03*
X8191050Y1687010D02*
D03*
X8103050D02*
D03*
X8089749Y1452440D02*
D03*
X8177749D02*
D03*
X7415780Y1655916D02*
D03*
X7503780D02*
D03*
X12526500Y1477660D02*
D03*
X12438500D02*
D03*
X12896980Y1346460D02*
D03*
X12984979D02*
D03*
X12792500Y1586320D02*
D03*
X12880499D02*
D03*
X10711420Y1992022D02*
D03*
X10623420D02*
D03*
X12896999Y1468820D02*
D03*
X12984999D02*
D03*
X12792500Y1228960D02*
D03*
X12880499D02*
D03*
X4544384Y1665639D02*
D03*
X4632384D02*
D03*
X4544384Y1551339D02*
D03*
X4632384D02*
D03*
D138*
X5295360Y2726500D02*
D03*
Y2638500D02*
D03*
X5176520Y2726240D02*
D03*
Y2638240D02*
D03*
X2361848Y1715672D02*
D03*
Y1803673D02*
D03*
X2575560Y1357260D02*
D03*
Y1445260D02*
D03*
X2468880Y1557840D02*
D03*
Y1469840D02*
D03*
X2250000Y1926000D02*
D03*
Y2014000D02*
D03*
X2250000Y1831824D02*
D03*
Y1743824D02*
D03*
X1889760Y2181040D02*
D03*
Y2269040D02*
D03*
Y2462080D02*
D03*
Y2374080D02*
D03*
X1877060Y1749440D02*
D03*
Y1661440D02*
D03*
X1877468Y1472380D02*
D03*
Y1560380D02*
D03*
X7782501Y1817156D02*
D03*
Y1905156D02*
D03*
X5295344Y2299103D02*
D03*
Y2387103D02*
D03*
X4632384Y1875040D02*
D03*
Y1963040D02*
D03*
X4525656Y1875040D02*
D03*
Y1963040D02*
D03*
X4954479Y3029732D02*
D03*
Y2941731D02*
D03*
X4840179Y3029732D02*
D03*
Y2941731D02*
D03*
X4725879Y3029732D02*
D03*
Y2941731D02*
D03*
D139*
X4084000Y2809565D02*
D03*
Y2679565D02*
D03*
X3937000Y2527080D02*
D03*
Y2397080D02*
D03*
X2144000Y1112500D02*
D03*
Y1242500D02*
D03*
X11045000Y1602500D02*
D03*
Y1472500D02*
D03*
X7490000Y2512500D02*
D03*
Y2382500D02*
D03*
X1509900Y1251360D02*
D03*
Y1121360D02*
D03*
X4297680Y1390880D02*
D03*
Y1260880D02*
D03*
X12095140Y1798934D02*
D03*
Y1928934D02*
D03*
X14513741Y1192500D02*
D03*
Y1322500D02*
D03*
X14673740Y1192500D02*
D03*
Y1322500D02*
D03*
X10142500Y1806782D02*
D03*
Y1936782D02*
D03*
X10297500Y1806782D02*
D03*
Y1936782D02*
D03*
D141*
X6741220Y1178560D02*
D03*
X6531220D02*
D03*
X8068023Y2875680D02*
D03*
X8278023D02*
D03*
X1334900Y2583804D02*
D03*
X1544900D02*
D03*
X10855276Y1610128D02*
D03*
X10645276D02*
D03*
D142*
X5524500Y1798934D02*
D03*
Y1993900D02*
D03*
X3190240Y2603829D02*
D03*
X3568700Y1681480D02*
D03*
D143*
X1625080Y2399077D02*
D03*
X1310080D02*
D03*
X1625080Y1469077D02*
D03*
X1310080D02*
D03*
D144*
X8679180Y3017520D02*
D03*
X15001241Y1668780D02*
D03*
D145*
X5166360Y3068320D02*
D03*
X5669264D02*
D03*
D155*
X1720080Y1959077D02*
D03*
Y2009078D02*
D03*
Y1859077D02*
D03*
Y1909077D02*
D03*
Y2109077D02*
D03*
Y2059077D02*
D03*
Y1809077D02*
D03*
Y1759078D02*
D03*
D156*
Y2250077D02*
D03*
Y2170077D02*
D03*
Y1698077D02*
D03*
Y1618078D02*
D03*
D157*
X5358460Y2895600D02*
D03*
X5558460D02*
D03*
D158*
X11698655Y2631440D02*
D03*
X12578659D02*
D03*
D159*
X13411000Y2370864D02*
D03*
X13284000D02*
D03*
X13157001D02*
D03*
X13030000D02*
D03*
X11242500Y2370000D02*
D03*
X11115500D02*
D03*
X10988500D02*
D03*
X10861500D02*
D03*
D160*
X13030000Y1815864D02*
D03*
X13157001D02*
D03*
X13284000D02*
D03*
X13411000D02*
D03*
X10861500Y1815000D02*
D03*
X10988500D02*
D03*
X11115500D02*
D03*
X11242500D02*
D03*
D161*
X13220500Y2049364D02*
D03*
X11052000Y2048500D02*
D03*
D162*
X13566000Y2531864D02*
D03*
Y2658864D02*
D03*
Y2785864D02*
D03*
Y2912864D02*
D03*
X10705000Y2913000D02*
D03*
Y2786000D02*
D03*
Y2659000D02*
D03*
Y2532000D02*
D03*
D163*
X13011000Y2912864D02*
D03*
Y2785864D02*
D03*
Y2658864D02*
D03*
Y2531864D02*
D03*
X11260000Y2532000D02*
D03*
Y2659000D02*
D03*
Y2786000D02*
D03*
Y2913000D02*
D03*
D164*
X13244501Y2722364D02*
D03*
X11026500Y2722500D02*
D03*
D165*
X12340000Y1387500D02*
D03*
Y1427500D02*
D03*
X11935000Y1587500D02*
D03*
Y1547500D02*
D03*
Y1507500D02*
D03*
Y1467500D02*
D03*
Y1427500D02*
D03*
Y1387500D02*
D03*
Y1347500D02*
D03*
Y1307500D02*
D03*
X12340000D02*
D03*
Y1347500D02*
D03*
Y1467500D02*
D03*
Y1507500D02*
D03*
Y1547500D02*
D03*
Y1587500D02*
D03*
D166*
X5811000Y1994459D02*
D03*
X5683952Y1995940D02*
D03*
D167*
X2787980Y2061440D02*
D03*
D168*
Y1808940D02*
D03*
D169*
X2085340Y2696500D02*
D03*
X1831340Y2988500D02*
D03*
D170*
X2857844Y2670500D02*
D03*
X3017844D02*
D03*
X2857844Y2475500D02*
D03*
X3017844D02*
D03*
X8222500Y2302500D02*
D03*
X8382500D02*
D03*
X8223750Y2500000D02*
D03*
X8383750D02*
D03*
X7037702Y1532500D02*
D03*
X7197702D02*
D03*
X7037702Y1720000D02*
D03*
X7197702D02*
D03*
X15026152Y1238636D02*
D03*
X14866151D02*
D03*
X15026152Y1441136D02*
D03*
X14866151D02*
D03*
D171*
X3118760Y1884680D02*
D03*
X1755500Y1318260D02*
D03*
D172*
X3078760Y1867180D02*
D03*
Y1902180D02*
D03*
X1795500Y1335760D02*
D03*
Y1300760D02*
D03*
D173*
X3477260Y2036220D02*
D03*
Y2246220D02*
D03*
X8018667Y2507363D02*
D03*
Y2297362D02*
D03*
X1969000Y1325000D02*
D03*
Y1115000D02*
D03*
X1334900Y1326280D02*
D03*
Y1116280D02*
D03*
X7665000Y2302500D02*
D03*
Y2512500D02*
D03*
D174*
X10907500Y1472500D02*
D03*
X2145000Y1352500D02*
D03*
D175*
X10925000Y1432500D02*
D03*
X10890000D02*
D03*
X2127500Y1392500D02*
D03*
X2162500D02*
D03*
D176*
X14338300Y2954020D02*
D03*
X1447800Y2964180D02*
D03*
X7655560Y2854960D02*
D03*
X9739501Y2376998D02*
D03*
X13807500Y1907500D02*
D03*
D177*
X2595000Y2390000D02*
D03*
D178*
X2697500Y2455000D02*
D03*
Y2390000D02*
D03*
Y2325000D02*
D03*
X2492500D02*
D03*
Y2390000D02*
D03*
Y2455000D02*
D03*
D179*
X3865000Y3068000D02*
D03*
Y2941000D02*
D03*
Y2814000D02*
D03*
Y2687000D02*
D03*
X3370000D02*
D03*
Y2814000D02*
D03*
Y2941000D02*
D03*
Y3068000D02*
D03*
D180*
X3638500Y1447800D02*
D03*
X3346500Y1193800D02*
D03*
X6756000Y1704340D02*
D03*
X6464001Y1450340D02*
D03*
X6010860Y1706880D02*
D03*
X5718860Y1452880D02*
D03*
D181*
X5048980Y2726136D02*
D03*
X4983980D02*
D03*
X4918980D02*
D03*
X4853980D02*
D03*
X4788980D02*
D03*
X4723980D02*
D03*
X4658980D02*
D03*
X4593980D02*
D03*
X4528980D02*
D03*
X4463980D02*
D03*
X5048980Y2136136D02*
D03*
X4983980D02*
D03*
X4918980D02*
D03*
X4853980D02*
D03*
X4788980D02*
D03*
X4723980D02*
D03*
X4658980D02*
D03*
X4593980D02*
D03*
X4528980D02*
D03*
X4463980D02*
D03*
D182*
X9372300Y1649780D02*
D03*
Y1941780D02*
D03*
X9040390Y1652098D02*
D03*
Y1944098D02*
D03*
X8712200Y1652102D02*
D03*
Y1944102D02*
D03*
X6932500Y2250417D02*
D03*
Y1958417D02*
D03*
X6610000Y2250417D02*
D03*
Y1958417D02*
D03*
X6287501Y2250417D02*
D03*
Y1958417D02*
D03*
D183*
X8475001Y2013416D02*
D03*
Y1893416D02*
D03*
X8160001D02*
D03*
X8160001Y2013416D02*
D03*
X7144781Y1952500D02*
D03*
Y2072500D02*
D03*
X7459781D02*
D03*
X7459780Y1952500D02*
D03*
D184*
X8285000Y2100916D02*
D03*
X8220002Y2100916D02*
D03*
X8415000Y1805916D02*
D03*
X8350000D02*
D03*
X8285000D02*
D03*
X8220002D02*
D03*
X7334782Y1865000D02*
D03*
X7399780Y1865000D02*
D03*
X7204782Y2160000D02*
D03*
X7269782D02*
D03*
X7334782D02*
D03*
X7399780D02*
D03*
D185*
X8382500Y2100916D02*
D03*
X7237282Y1865000D02*
D03*
D186*
X8317501Y1953416D02*
D03*
X7302281Y2012500D02*
D03*
D187*
X6342500Y2714240D02*
D03*
D188*
X7232501Y2760916D02*
D03*
X6722501D02*
D03*
D189*
X7926500Y1455000D02*
D03*
Y1495000D02*
D03*
Y1535000D02*
D03*
Y1575000D02*
D03*
Y1615000D02*
D03*
X7638500D02*
D03*
Y1575000D02*
D03*
Y1535000D02*
D03*
Y1495000D02*
D03*
Y1455000D02*
D03*
D190*
X7702500Y1391000D02*
D03*
X7742500D02*
D03*
X7782500D02*
D03*
X7822500D02*
D03*
X7862500D02*
D03*
Y1679000D02*
D03*
X7822500D02*
D03*
X7782500D02*
D03*
X7742500D02*
D03*
X7702500D02*
D03*
D191*
X7782500Y1535000D02*
D03*
D192*
X8904820Y1270000D02*
D03*
X8534820D02*
D03*
D193*
X11540000Y1581160D02*
D03*
Y1741160D02*
D03*
X13890152Y1604795D02*
D03*
Y1444795D02*
D03*
X13300153Y1443580D02*
D03*
Y1603580D02*
D03*
X13695152Y1444795D02*
D03*
Y1604795D02*
D03*
X13997501Y2337500D02*
D03*
Y2177500D02*
D03*
X13612500Y2337500D02*
D03*
Y2177500D02*
D03*
X13497652Y1443580D02*
D03*
Y1603580D02*
D03*
X13805000Y2338364D02*
D03*
Y2178364D02*
D03*
X9483572Y2798363D02*
D03*
Y2638364D02*
D03*
X9684643Y2798363D02*
D03*
Y2638364D02*
D03*
X9885714Y2798363D02*
D03*
Y2638364D02*
D03*
X10086786Y2798363D02*
D03*
Y2638364D02*
D03*
X9285531Y2801247D02*
D03*
Y2641247D02*
D03*
X10285014Y2797220D02*
D03*
Y2637221D02*
D03*
D194*
X2562711Y3058460D02*
D03*
Y2778460D02*
D03*
X2330662Y3059856D02*
D03*
Y2779856D02*
D03*
D195*
X2604000Y1147500D02*
D03*
X2324000D02*
D03*
X14453740Y1672500D02*
D03*
X14733740D02*
D03*
X10080000Y2129283D02*
D03*
X10360000D02*
D03*
D196*
X5811000Y2402240D02*
D03*
X5684000Y2275240D02*
D03*
Y2402240D02*
D03*
X5811000Y2529240D02*
D03*
X5684000D02*
D03*
X5811000Y2275240D02*
D03*
D197*
X11997500Y1245000D02*
D03*
X12037500D02*
D03*
X12077500D02*
D03*
X12117500D02*
D03*
X12157500D02*
D03*
X12197500D02*
D03*
X12237500D02*
D03*
X12277500D02*
D03*
Y1650000D02*
D03*
X12237500D02*
D03*
X12197500D02*
D03*
X12157500D02*
D03*
X12117500D02*
D03*
X12077500D02*
D03*
X12037500D02*
D03*
X11997500D02*
D03*
D198*
X12137500Y1447500D02*
D03*
D199*
X14348460Y2009998D02*
D03*
Y2614998D02*
D03*
X14859000Y2009990D02*
D03*
Y2614990D02*
D03*
D200*
X9360140Y2313402D02*
D03*
X8755140D02*
D03*
D201*
X4552780Y1413500D02*
D03*
X4647780Y1213500D02*
D03*
X4457780D02*
D03*
D202*
X4760960Y1824180D02*
D03*
Y1774180D02*
D03*
Y1724180D02*
D03*
Y1674180D02*
D03*
Y1624180D02*
D03*
Y1574180D02*
D03*
Y1524180D02*
D03*
X5240960D02*
D03*
Y1574180D02*
D03*
Y1624180D02*
D03*
Y1674180D02*
D03*
Y1724180D02*
D03*
Y1774180D02*
D03*
Y1824180D02*
D03*
D203*
X4850960Y1434180D02*
D03*
X4900960D02*
D03*
X4950960D02*
D03*
X5000960D02*
D03*
X5050960D02*
D03*
X5100960D02*
D03*
X5150960D02*
D03*
Y1914180D02*
D03*
X5100960D02*
D03*
X5050960D02*
D03*
X5000960D02*
D03*
X4950960D02*
D03*
X4900960D02*
D03*
X4850960D02*
D03*
D204*
X5000960Y1674180D02*
D03*
D205*
X12027500Y1557500D02*
D03*
X12247500D02*
D03*
X12027500Y1337500D02*
D03*
X12247500D02*
D03*
X12027500Y1447500D02*
D03*
X12137500Y1557500D02*
D03*
Y1337500D02*
D03*
X12245000Y1447500D02*
D03*
%TF.MD5,0e0b4d0c51a9e9c91fb7b6f62996da1a*%
M02*
