%TF.GenerationSoftware,Altium Limited,Altium Designer,19.0.15 (446)*%
G04 Layer_Color=16777215*
%FSLAX26Y26*%
%MOIN*%
%TF.FileFunction,Legend,Top*%
%TF.Part,Single*%
G01*
G75*
%TA.AperFunction,NonConductor*%
%ADD89C,0.009842*%
%ADD90C,0.007874*%
%ADD91C,0.023622*%
%ADD92C,0.003937*%
%ADD93C,0.005000*%
%ADD94C,0.005906*%
%ADD95C,0.019685*%
%ADD96C,0.010000*%
%ADD97R,0.026575X0.021654*%
G36*
X5397236Y1219173D02*
X5393299D01*
X5381488Y1230984D01*
Y1234921D01*
X5397236Y1234921D01*
Y1219173D01*
D02*
G37*
G36*
X5156921Y938764D02*
X5141173D01*
Y942701D01*
X5152984Y954512D01*
X5156921D01*
X5156921Y938764D01*
D02*
G37*
G36*
X1555386Y742614D02*
X1537669Y736709D01*
Y760331D01*
X1561291D01*
X1555386Y742614D01*
D02*
G37*
G36*
X2130671Y620848D02*
Y619902D01*
Y618957D01*
Y618011D01*
Y617065D01*
X2131617D01*
Y616119D01*
Y615173D01*
Y614227D01*
Y613282D01*
Y612336D01*
Y611390D01*
Y610444D01*
Y609498D01*
Y608552D01*
X2087162D01*
Y607606D01*
X2088108D01*
Y606661D01*
Y605715D01*
Y604769D01*
X2089054D01*
Y603823D01*
Y602877D01*
X2090000D01*
Y601931D01*
Y600986D01*
X2090946D01*
Y600040D01*
X2092838D01*
Y599094D01*
X2093783D01*
Y598148D01*
X2096621D01*
Y597202D01*
X2109863D01*
Y598148D01*
X2111754D01*
Y599094D01*
X2113646D01*
Y600040D01*
X2114592D01*
Y600986D01*
X2116484D01*
Y601931D01*
X2117429D01*
Y602877D01*
Y603823D01*
X2119321D01*
Y602877D01*
X2121213D01*
Y601931D01*
X2123104D01*
Y600986D01*
X2125942D01*
Y600040D01*
X2127834D01*
Y599094D01*
X2129725D01*
Y598148D01*
Y597202D01*
X2128780D01*
Y596256D01*
X2127834D01*
Y595311D01*
X2126888D01*
Y594365D01*
X2125942D01*
Y593419D01*
X2124996D01*
Y592473D01*
X2124050D01*
Y591527D01*
X2122159D01*
Y590581D01*
X2120267D01*
Y589635D01*
X2119321D01*
Y588689D01*
X2116484D01*
Y587744D01*
X2113646D01*
Y586798D01*
X2108917D01*
Y585852D01*
X2095675D01*
Y586798D01*
X2091892D01*
Y587744D01*
X2088108D01*
Y588689D01*
X2086216D01*
Y589635D01*
X2084325D01*
Y590581D01*
X2082433D01*
Y591527D01*
X2081487D01*
Y592473D01*
X2080541D01*
Y593419D01*
X2078650D01*
Y594365D01*
X2077704D01*
Y595311D01*
Y596256D01*
X2076758D01*
Y597202D01*
X2075812D01*
Y598148D01*
X2074866D01*
Y599094D01*
Y600040D01*
X2073921D01*
Y600986D01*
Y601931D01*
Y602877D01*
X2072975D01*
Y603823D01*
Y604769D01*
Y605715D01*
X2072029D01*
Y606661D01*
Y607606D01*
Y608552D01*
Y609498D01*
Y610444D01*
Y611390D01*
Y612336D01*
Y613282D01*
Y614227D01*
Y615173D01*
Y616119D01*
Y617065D01*
Y618011D01*
X2072975D01*
Y618957D01*
Y619902D01*
Y620848D01*
X2073921D01*
Y621794D01*
X2088108D01*
Y620848D01*
Y619902D01*
Y618957D01*
X2087162D01*
Y618011D01*
Y617065D01*
X2115538D01*
Y618011D01*
Y618957D01*
Y619902D01*
Y620848D01*
X2114592D01*
Y621794D01*
X2130671D01*
Y620848D01*
D02*
G37*
G36*
X1902723D02*
X1903668D01*
Y619902D01*
Y618957D01*
Y618011D01*
Y617065D01*
X1904614D01*
Y616119D01*
Y615173D01*
Y614227D01*
Y613282D01*
Y612336D01*
Y611390D01*
Y610444D01*
Y609498D01*
Y608552D01*
X1860160D01*
Y607606D01*
X1861105D01*
Y606661D01*
Y605715D01*
Y604769D01*
Y603823D01*
X1862051D01*
Y602877D01*
X1862997D01*
Y601931D01*
Y600986D01*
X1863943D01*
Y600040D01*
X1865835D01*
Y599094D01*
X1866781D01*
Y598148D01*
X1869618D01*
Y597202D01*
X1882860D01*
Y598148D01*
X1884752D01*
Y599094D01*
X1886643D01*
Y600040D01*
X1887589D01*
Y600986D01*
X1889481D01*
Y601931D01*
X1890427D01*
Y602877D01*
Y603823D01*
X1892318D01*
Y602877D01*
X1894210D01*
Y601931D01*
X1896102D01*
Y600986D01*
X1897993D01*
Y600040D01*
X1900831D01*
Y599094D01*
X1902723D01*
Y598148D01*
Y597202D01*
X1901777D01*
Y596256D01*
X1900831D01*
Y595311D01*
X1899885D01*
Y594365D01*
X1898939D01*
Y593419D01*
X1897993D01*
Y592473D01*
X1897048D01*
Y591527D01*
X1895156D01*
Y590581D01*
X1893264D01*
Y589635D01*
X1892318D01*
Y588689D01*
X1889481D01*
Y587744D01*
X1886643D01*
Y586798D01*
X1881914D01*
Y585852D01*
X1868672D01*
Y586798D01*
X1863943D01*
Y587744D01*
X1861105D01*
Y588689D01*
X1859214D01*
Y589635D01*
X1857322D01*
Y590581D01*
X1855430D01*
Y591527D01*
X1854485D01*
Y592473D01*
X1853539D01*
Y593419D01*
X1851647D01*
Y594365D01*
X1850701D01*
Y595311D01*
Y596256D01*
X1849755D01*
Y597202D01*
X1848810D01*
Y598148D01*
X1847864D01*
Y599094D01*
Y600040D01*
X1846918D01*
Y600986D01*
Y601931D01*
Y602877D01*
X1845972D01*
Y603823D01*
Y604769D01*
Y605715D01*
Y606661D01*
Y607606D01*
Y608552D01*
Y609498D01*
Y610444D01*
Y611390D01*
Y612336D01*
Y613282D01*
Y614227D01*
Y615173D01*
Y616119D01*
Y617065D01*
Y618011D01*
Y618957D01*
Y619902D01*
Y620848D01*
Y621794D01*
X1861105D01*
Y620848D01*
Y619902D01*
Y618957D01*
X1860160D01*
Y618011D01*
Y617065D01*
X1888535D01*
Y618011D01*
Y618957D01*
Y619902D01*
Y620848D01*
X1887589D01*
Y621794D01*
X1902723D01*
Y620848D01*
D02*
G37*
G36*
X2310382D02*
X2311327D01*
Y619902D01*
Y618957D01*
Y618011D01*
Y617065D01*
Y616119D01*
X2312273D01*
Y615173D01*
Y614227D01*
Y613282D01*
Y612336D01*
Y611390D01*
Y610444D01*
Y609498D01*
Y608552D01*
X2311327D01*
Y607606D01*
Y606661D01*
Y605715D01*
Y604769D01*
Y603823D01*
X2310382D01*
Y602877D01*
Y601931D01*
X2309436D01*
Y600986D01*
Y600040D01*
X2308490D01*
Y599094D01*
Y598148D01*
X2307544D01*
Y597202D01*
X2306598D01*
Y596256D01*
Y595311D01*
X2305653D01*
Y594365D01*
X2304707D01*
Y593419D01*
X2303761D01*
Y592473D01*
X2301869D01*
Y591527D01*
X2300923D01*
Y590581D01*
X2299032D01*
Y589635D01*
X2297140D01*
Y588689D01*
X2295248D01*
Y587744D01*
X2292411D01*
Y586798D01*
X2287681D01*
Y585852D01*
X2274440D01*
Y586798D01*
X2270656D01*
Y587744D01*
X2266873D01*
Y588689D01*
X2264981D01*
Y589635D01*
X2263090D01*
Y590581D01*
X2261198D01*
Y591527D01*
X2260252D01*
Y592473D01*
X2258360D01*
Y593419D01*
X2257414D01*
Y594365D01*
X2256468D01*
Y595311D01*
X2255523D01*
Y596256D01*
Y597202D01*
X2254577D01*
Y598148D01*
X2253631D01*
Y599094D01*
Y600040D01*
X2252685D01*
Y600986D01*
Y601931D01*
X2251739D01*
Y602877D01*
Y603823D01*
X2250794D01*
Y604769D01*
Y605715D01*
Y606661D01*
Y607606D01*
Y608552D01*
X2249848D01*
Y609498D01*
Y610444D01*
Y611390D01*
Y612336D01*
Y613282D01*
Y614227D01*
Y615173D01*
Y616119D01*
X2250794D01*
Y617065D01*
Y618011D01*
Y618957D01*
Y619902D01*
X2251739D01*
Y620848D01*
Y621794D01*
X2268765D01*
Y620848D01*
X2267819D01*
Y619902D01*
Y618957D01*
Y618011D01*
Y617065D01*
X2266873D01*
Y616119D01*
Y615173D01*
Y614227D01*
Y613282D01*
Y612336D01*
Y611390D01*
Y610444D01*
Y609498D01*
Y608552D01*
Y607606D01*
X2267819D01*
Y606661D01*
Y605715D01*
Y604769D01*
Y603823D01*
X2268765D01*
Y602877D01*
X2269710D01*
Y601931D01*
Y600986D01*
X2270656D01*
Y600040D01*
X2271602D01*
Y599094D01*
X2273494D01*
Y598148D01*
X2274440D01*
Y597202D01*
X2279169D01*
Y596256D01*
X2282952D01*
Y597202D01*
X2287681D01*
Y598148D01*
X2289573D01*
Y599094D01*
X2290519D01*
Y600040D01*
X2291465D01*
Y600986D01*
X2292411D01*
Y601931D01*
X2293356D01*
Y602877D01*
Y603823D01*
X2294302D01*
Y604769D01*
Y605715D01*
Y606661D01*
Y607606D01*
X2295248D01*
Y608552D01*
Y609498D01*
Y610444D01*
Y611390D01*
Y612336D01*
Y613282D01*
Y614227D01*
Y615173D01*
Y616119D01*
Y617065D01*
X2294302D01*
Y618011D01*
Y618957D01*
Y619902D01*
Y620848D01*
X2293356D01*
Y621794D01*
X2310382D01*
Y620848D01*
D02*
G37*
G36*
X2209176D02*
X2210122D01*
Y619902D01*
X2212960D01*
Y618957D01*
X2220526D01*
Y618011D01*
X2229039D01*
Y617065D01*
X2234714D01*
Y616119D01*
X2237552D01*
Y615173D01*
X2239443D01*
Y614227D01*
X2241335D01*
Y613282D01*
X2242281D01*
Y612336D01*
X2243227D01*
Y611390D01*
X2244173D01*
Y610444D01*
X2245118D01*
Y609498D01*
Y608552D01*
X2246064D01*
Y607606D01*
Y606661D01*
Y605715D01*
X2247010D01*
Y604769D01*
Y603823D01*
Y602877D01*
Y601931D01*
Y600986D01*
Y600040D01*
X2246064D01*
Y599094D01*
Y598148D01*
Y597202D01*
X2245118D01*
Y596256D01*
Y595311D01*
X2244173D01*
Y594365D01*
Y593419D01*
X2243227D01*
Y592473D01*
X2242281D01*
Y591527D01*
X2241335D01*
Y590581D01*
X2239443D01*
Y589635D01*
X2237552D01*
Y588689D01*
X2235660D01*
Y587744D01*
X2232822D01*
Y586798D01*
X2228093D01*
Y585852D01*
X2213905D01*
Y586798D01*
X2208230D01*
Y587744D01*
X2204447D01*
Y588689D01*
X2202555D01*
Y589635D01*
X2199718D01*
Y590581D01*
X2197826D01*
Y591527D01*
X2196880D01*
Y592473D01*
X2194989D01*
Y593419D01*
X2194043D01*
Y594365D01*
X2193097D01*
Y595311D01*
X2192151D01*
Y596256D01*
X2191205D01*
Y597202D01*
X2192151D01*
Y598148D01*
X2193097D01*
Y599094D01*
X2194043D01*
Y600040D01*
X2194989D01*
Y600986D01*
X2195934D01*
Y601931D01*
X2197826D01*
Y602877D01*
X2198772D01*
Y603823D01*
X2199718D01*
Y602877D01*
X2200664D01*
Y601931D01*
X2202555D01*
Y600986D01*
X2203501D01*
Y600040D01*
X2205393D01*
Y599094D01*
X2207285D01*
Y598148D01*
X2210122D01*
Y597202D01*
X2213905D01*
Y596256D01*
X2228093D01*
Y597202D01*
X2229985D01*
Y598148D01*
X2231877D01*
Y599094D01*
Y600040D01*
Y600986D01*
Y601931D01*
Y602877D01*
Y603823D01*
X2230931D01*
Y604769D01*
X2229039D01*
Y605715D01*
X2224310D01*
Y606661D01*
X2216743D01*
Y607606D01*
X2209176D01*
Y608552D01*
X2205393D01*
Y609498D01*
X2202555D01*
Y610444D01*
X2200664D01*
Y611390D01*
X2198772D01*
Y612336D01*
X2197826D01*
Y613282D01*
X2196880D01*
Y614227D01*
X2195934D01*
Y615173D01*
X2194989D01*
Y616119D01*
Y617065D01*
X2194043D01*
Y618011D01*
Y618957D01*
Y619902D01*
Y620848D01*
Y621794D01*
X2209176D01*
Y620848D01*
D02*
G37*
G36*
X2151480D02*
X2152426D01*
Y619902D01*
X2155263D01*
Y618957D01*
X2162830D01*
Y618011D01*
X2171343D01*
Y617065D01*
X2177018D01*
Y616119D01*
X2179855D01*
Y615173D01*
X2181747D01*
Y614227D01*
X2183639D01*
Y613282D01*
X2184584D01*
Y612336D01*
X2185530D01*
Y611390D01*
X2186476D01*
Y610444D01*
X2187422D01*
Y609498D01*
Y608552D01*
X2188368D01*
Y607606D01*
Y606661D01*
Y605715D01*
Y604769D01*
X2189314D01*
Y603823D01*
Y602877D01*
Y601931D01*
Y600986D01*
X2188368D01*
Y600040D01*
Y599094D01*
Y598148D01*
Y597202D01*
X2187422D01*
Y596256D01*
Y595311D01*
X2186476D01*
Y594365D01*
Y593419D01*
X2185530D01*
Y592473D01*
X2184584D01*
Y591527D01*
X2182693D01*
Y590581D01*
X2181747D01*
Y589635D01*
X2179855D01*
Y588689D01*
X2177963D01*
Y587744D01*
X2175126D01*
Y586798D01*
X2170397D01*
Y585852D01*
X2156209D01*
Y586798D01*
X2150534D01*
Y587744D01*
X2146751D01*
Y588689D01*
X2143913D01*
Y589635D01*
X2142021D01*
Y590581D01*
X2140130D01*
Y591527D01*
X2139184D01*
Y592473D01*
X2137292D01*
Y593419D01*
X2136346D01*
Y594365D01*
X2135400D01*
Y595311D01*
X2134455D01*
Y596256D01*
X2133509D01*
Y597202D01*
X2134455D01*
Y598148D01*
X2135400D01*
Y599094D01*
X2136346D01*
Y600040D01*
X2137292D01*
Y600986D01*
X2138238D01*
Y601931D01*
X2140130D01*
Y602877D01*
X2141075D01*
Y603823D01*
X2142021D01*
Y602877D01*
X2142967D01*
Y601931D01*
X2143913D01*
Y600986D01*
X2145805D01*
Y600040D01*
X2147696D01*
Y599094D01*
X2149588D01*
Y598148D01*
X2152426D01*
Y597202D01*
X2156209D01*
Y596256D01*
X2169451D01*
Y597202D01*
X2172288D01*
Y598148D01*
X2173234D01*
Y599094D01*
X2174180D01*
Y600040D01*
Y600986D01*
Y601931D01*
Y602877D01*
Y603823D01*
X2173234D01*
Y604769D01*
X2171343D01*
Y605715D01*
X2166613D01*
Y606661D01*
X2159047D01*
Y607606D01*
X2151480D01*
Y608552D01*
X2147696D01*
Y609498D01*
X2144859D01*
Y610444D01*
X2142967D01*
Y611390D01*
X2141075D01*
Y612336D01*
X2140130D01*
Y613282D01*
X2139184D01*
Y614227D01*
X2138238D01*
Y615173D01*
X2137292D01*
Y616119D01*
Y617065D01*
X2136346D01*
Y618011D01*
Y618957D01*
Y619902D01*
Y620848D01*
X2135400D01*
Y621794D01*
X2151480D01*
Y620848D01*
D02*
G37*
G36*
X2026628D02*
Y619902D01*
Y618957D01*
Y618011D01*
X2027574D01*
Y617065D01*
Y616119D01*
Y615173D01*
Y614227D01*
Y613282D01*
Y612336D01*
Y611390D01*
Y610444D01*
Y609498D01*
Y608552D01*
Y607606D01*
Y606661D01*
X2026628D01*
Y605715D01*
Y604769D01*
Y603823D01*
Y602877D01*
X2025682D01*
Y601931D01*
Y600986D01*
Y600040D01*
X2024737D01*
Y599094D01*
Y598148D01*
X2023791D01*
Y597202D01*
X2022845D01*
Y596256D01*
Y595311D01*
X2021899D01*
Y594365D01*
X2020953D01*
Y593419D01*
X2020007D01*
Y592473D01*
X2019062D01*
Y591527D01*
X2018116D01*
Y590581D01*
X2017170D01*
Y589635D01*
X2015278D01*
Y588689D01*
X2013387D01*
Y587744D01*
X2010549D01*
Y586798D01*
X2007711D01*
Y585852D01*
X1997307D01*
Y586798D01*
X1993524D01*
Y587744D01*
X1991632D01*
Y588689D01*
X1989740D01*
Y589635D01*
X1987849D01*
Y590581D01*
X1986903D01*
Y591527D01*
X1985957D01*
Y592473D01*
X1985011D01*
Y593419D01*
X1984065D01*
Y594365D01*
X1983120D01*
Y593419D01*
Y592473D01*
Y591527D01*
Y590581D01*
Y589635D01*
Y588689D01*
Y587744D01*
Y586798D01*
Y585852D01*
Y584906D01*
Y583960D01*
Y583014D01*
Y582069D01*
Y581123D01*
Y580177D01*
Y579231D01*
Y578285D01*
Y577339D01*
Y576394D01*
Y575448D01*
Y574502D01*
Y573556D01*
Y572610D01*
Y571664D01*
Y570718D01*
Y569773D01*
Y568827D01*
Y567881D01*
X1966094D01*
Y568827D01*
Y569773D01*
Y570718D01*
Y571664D01*
Y572610D01*
Y573556D01*
Y574502D01*
Y575448D01*
Y576394D01*
Y577339D01*
Y578285D01*
Y579231D01*
Y580177D01*
Y581123D01*
Y582069D01*
Y583014D01*
Y583960D01*
Y584906D01*
Y585852D01*
Y586798D01*
Y587744D01*
Y588689D01*
Y589635D01*
Y590581D01*
Y591527D01*
Y592473D01*
Y593419D01*
Y594365D01*
Y595311D01*
Y596256D01*
Y597202D01*
Y598148D01*
Y599094D01*
Y600040D01*
Y600986D01*
Y601931D01*
Y602877D01*
Y603823D01*
Y604769D01*
Y605715D01*
Y606661D01*
Y607606D01*
Y608552D01*
Y609498D01*
Y610444D01*
Y611390D01*
Y612336D01*
Y613282D01*
Y614227D01*
Y615173D01*
Y616119D01*
Y617065D01*
Y618011D01*
Y618957D01*
Y619902D01*
Y620848D01*
Y621794D01*
X1984065D01*
Y620848D01*
Y619902D01*
X1983120D01*
Y618957D01*
Y618011D01*
Y617065D01*
X1982174D01*
Y616119D01*
Y615173D01*
Y614227D01*
Y613282D01*
Y612336D01*
Y611390D01*
Y610444D01*
Y609498D01*
Y608552D01*
Y607606D01*
X1983120D01*
Y606661D01*
Y605715D01*
Y604769D01*
X1984065D01*
Y603823D01*
Y602877D01*
X1985011D01*
Y601931D01*
Y600986D01*
X1985957D01*
Y600040D01*
X1986903D01*
Y599094D01*
X1988794D01*
Y598148D01*
X1990686D01*
Y597202D01*
X1995416D01*
Y596256D01*
X1997307D01*
Y597202D01*
X2002036D01*
Y598148D01*
X2003928D01*
Y599094D01*
X2005820D01*
Y600040D01*
X2006765D01*
Y600986D01*
X2007711D01*
Y601931D01*
Y602877D01*
X2008657D01*
Y603823D01*
Y604769D01*
X2009603D01*
Y605715D01*
Y606661D01*
Y607606D01*
X2010549D01*
Y608552D01*
Y609498D01*
Y610444D01*
Y611390D01*
Y612336D01*
Y613282D01*
Y614227D01*
Y615173D01*
Y616119D01*
Y617065D01*
X2009603D01*
Y618011D01*
Y618957D01*
Y619902D01*
X2008657D01*
Y620848D01*
Y621794D01*
X2026628D01*
Y620848D01*
D02*
G37*
G36*
X1924477D02*
X1925423D01*
Y619902D01*
X1929206D01*
Y618957D01*
X1936773D01*
Y618011D01*
X1945286D01*
Y617065D01*
X1950015D01*
Y616119D01*
X1952852D01*
Y615173D01*
X1954744D01*
Y614227D01*
X1956636D01*
Y613282D01*
X1958527D01*
Y612336D01*
X1959473D01*
Y611390D01*
Y610444D01*
X1960419D01*
Y609498D01*
X1961365D01*
Y608552D01*
Y607606D01*
Y606661D01*
X1962311D01*
Y605715D01*
Y604769D01*
Y603823D01*
Y602877D01*
Y601931D01*
Y600986D01*
Y600040D01*
Y599094D01*
Y598148D01*
X1961365D01*
Y597202D01*
Y596256D01*
X1960419D01*
Y595311D01*
Y594365D01*
X1959473D01*
Y593419D01*
X1958527D01*
Y592473D01*
X1957582D01*
Y591527D01*
X1956636D01*
Y590581D01*
X1954744D01*
Y589635D01*
X1953798D01*
Y588689D01*
X1950961D01*
Y587744D01*
X1948123D01*
Y586798D01*
X1943394D01*
Y585852D01*
X1929206D01*
Y586798D01*
X1923531D01*
Y587744D01*
X1920694D01*
Y588689D01*
X1917856D01*
Y589635D01*
X1915965D01*
Y590581D01*
X1914073D01*
Y591527D01*
X1912181D01*
Y592473D01*
X1911235D01*
Y593419D01*
X1910289D01*
Y594365D01*
X1908398D01*
Y595311D01*
X1907452D01*
Y596256D01*
X1906506D01*
Y597202D01*
X1907452D01*
Y598148D01*
X1908398D01*
Y599094D01*
X1909344D01*
Y600040D01*
X1911235D01*
Y600986D01*
X1912181D01*
Y601931D01*
X1913127D01*
Y602877D01*
X1914073D01*
Y603823D01*
X1915965D01*
Y602877D01*
X1916910D01*
Y601931D01*
X1917856D01*
Y600986D01*
X1918802D01*
Y600040D01*
X1920694D01*
Y599094D01*
X1922585D01*
Y598148D01*
X1925423D01*
Y597202D01*
X1930152D01*
Y596256D01*
X1943394D01*
Y597202D01*
X1946232D01*
Y598148D01*
X1947177D01*
Y599094D01*
X1948123D01*
Y600040D01*
Y600986D01*
Y601931D01*
Y602877D01*
Y603823D01*
X1947177D01*
Y604769D01*
X1945286D01*
Y605715D01*
X1940556D01*
Y606661D01*
X1932044D01*
Y607606D01*
X1925423D01*
Y608552D01*
X1920694D01*
Y609498D01*
X1918802D01*
Y610444D01*
X1915965D01*
Y611390D01*
X1915019D01*
Y612336D01*
X1913127D01*
Y613282D01*
X1912181D01*
Y614227D01*
Y615173D01*
X1911235D01*
Y616119D01*
X1910289D01*
Y617065D01*
Y618011D01*
Y618957D01*
X1909344D01*
Y619902D01*
Y620848D01*
Y621794D01*
X1924477D01*
Y620848D01*
D02*
G37*
G36*
X2056895D02*
X2055950D01*
Y619902D01*
X2054058D01*
Y618957D01*
Y618011D01*
X2053112D01*
Y617065D01*
X2052166D01*
Y616119D01*
Y615173D01*
X2051220D01*
Y614227D01*
Y613282D01*
Y612336D01*
Y611390D01*
X2050274D01*
Y610444D01*
Y609498D01*
Y608552D01*
Y607606D01*
Y606661D01*
Y605715D01*
Y604769D01*
Y603823D01*
Y602877D01*
Y601931D01*
Y600986D01*
Y600040D01*
Y599094D01*
Y598148D01*
Y597202D01*
Y596256D01*
Y595311D01*
Y594365D01*
Y593419D01*
Y592473D01*
Y591527D01*
Y590581D01*
Y589635D01*
Y588689D01*
Y587744D01*
X2034195D01*
Y588689D01*
Y589635D01*
Y590581D01*
Y591527D01*
Y592473D01*
Y593419D01*
Y594365D01*
Y595311D01*
Y596256D01*
Y597202D01*
Y598148D01*
Y599094D01*
Y600040D01*
Y600986D01*
Y601931D01*
Y602877D01*
Y603823D01*
Y604769D01*
Y605715D01*
Y606661D01*
Y607606D01*
Y608552D01*
Y609498D01*
Y610444D01*
Y611390D01*
Y612336D01*
Y613282D01*
Y614227D01*
Y615173D01*
Y616119D01*
Y617065D01*
Y618011D01*
Y618957D01*
Y619902D01*
Y620848D01*
Y621794D01*
X2056895D01*
Y620848D01*
D02*
G37*
G36*
X2006765Y563152D02*
X2011495D01*
Y562206D01*
X2013387D01*
Y561260D01*
X2015278D01*
Y560314D01*
X2017170D01*
Y559368D01*
X2018116D01*
Y558423D01*
X2019062D01*
Y557477D01*
X2020007D01*
Y556531D01*
X2020953D01*
Y555585D01*
X2021899D01*
Y554639D01*
X2022845D01*
Y553693D01*
X2023791D01*
Y552747D01*
Y551802D01*
X2024737D01*
Y550856D01*
Y549910D01*
X2025682D01*
Y548964D01*
Y548018D01*
Y547072D01*
X2007711D01*
Y548018D01*
Y548964D01*
X2006765D01*
Y549910D01*
X2005820D01*
Y550856D01*
X2003928D01*
Y551802D01*
X2002036D01*
Y552747D01*
X1990686D01*
Y551802D01*
X1988794D01*
Y550856D01*
X1986903D01*
Y549910D01*
X1985957D01*
Y548964D01*
X1985011D01*
Y548018D01*
Y547072D01*
X1966094D01*
Y548018D01*
Y548964D01*
Y549910D01*
Y550856D01*
Y551802D01*
Y552747D01*
Y553693D01*
Y554639D01*
Y555585D01*
Y556531D01*
Y557477D01*
Y558423D01*
Y559368D01*
Y560314D01*
Y561260D01*
Y562206D01*
X1982174D01*
Y561260D01*
Y560314D01*
Y559368D01*
Y558423D01*
Y557477D01*
Y556531D01*
Y555585D01*
Y554639D01*
Y553693D01*
X1983120D01*
Y554639D01*
X1984065D01*
Y555585D01*
X1985011D01*
Y556531D01*
Y557477D01*
X1985957D01*
Y558423D01*
X1987849D01*
Y559368D01*
X1988794D01*
Y560314D01*
X1990686D01*
Y561260D01*
X1992578D01*
Y562206D01*
X1994470D01*
Y563152D01*
X1999199D01*
Y564097D01*
X2006765D01*
Y563152D01*
D02*
G37*
G36*
X2071083D02*
Y562206D01*
Y561260D01*
Y560314D01*
Y559368D01*
Y558423D01*
Y557477D01*
Y556531D01*
Y555585D01*
Y554639D01*
Y553693D01*
Y552747D01*
Y551802D01*
Y550856D01*
Y549910D01*
Y548964D01*
X2061625D01*
Y548018D01*
X2058787D01*
Y547072D01*
X2034195D01*
Y548018D01*
Y548964D01*
Y549910D01*
Y550856D01*
Y551802D01*
Y552747D01*
Y553693D01*
Y554639D01*
Y555585D01*
Y556531D01*
Y557477D01*
Y558423D01*
Y559368D01*
Y560314D01*
Y561260D01*
Y562206D01*
X2048383D01*
Y561260D01*
Y560314D01*
Y559368D01*
Y558423D01*
Y557477D01*
Y556531D01*
Y555585D01*
Y554639D01*
Y553693D01*
Y552747D01*
Y551802D01*
Y550856D01*
Y549910D01*
Y548964D01*
X2050274D01*
Y549910D01*
Y550856D01*
Y551802D01*
X2051220D01*
Y552747D01*
Y553693D01*
X2052166D01*
Y554639D01*
Y555585D01*
X2053112D01*
Y556531D01*
X2054058D01*
Y557477D01*
X2055004D01*
Y558423D01*
X2055950D01*
Y559368D01*
X2056895D01*
Y560314D01*
X2057841D01*
Y561260D01*
X2059733D01*
Y562206D01*
X2062570D01*
Y563152D01*
X2067300D01*
Y564097D01*
X2071083D01*
Y563152D01*
D02*
G37*
G36*
X2225256D02*
X2230931D01*
Y562206D01*
X2234714D01*
Y561260D01*
X2237552D01*
Y560314D01*
X2239443D01*
Y559368D01*
X2241335D01*
Y558423D01*
X2243227D01*
Y557477D01*
X2244173D01*
Y556531D01*
X2245118D01*
Y555585D01*
X2246064D01*
Y554639D01*
X2245118D01*
Y553693D01*
X2244173D01*
Y552747D01*
X2243227D01*
Y551802D01*
X2242281D01*
Y550856D01*
X2241335D01*
Y549910D01*
X2240389D01*
Y548964D01*
X2239443D01*
Y548018D01*
X2238497D01*
Y548964D01*
X2236606D01*
Y549910D01*
X2234714D01*
Y550856D01*
X2232822D01*
Y551802D01*
X2229985D01*
Y552747D01*
X2226202D01*
Y553693D01*
X2212014D01*
Y552747D01*
X2209176D01*
Y551802D01*
X2208230D01*
Y550856D01*
Y549910D01*
Y548964D01*
Y548018D01*
Y547072D01*
X2193097D01*
Y548018D01*
Y548964D01*
X2194043D01*
Y549910D01*
Y550856D01*
Y551802D01*
Y552747D01*
X2194989D01*
Y553693D01*
Y554639D01*
X2195934D01*
Y555585D01*
Y556531D01*
X2196880D01*
Y557477D01*
X2197826D01*
Y558423D01*
X2198772D01*
Y559368D01*
X2200664D01*
Y560314D01*
X2202555D01*
Y561260D01*
X2204447D01*
Y562206D01*
X2208230D01*
Y563152D01*
X2213905D01*
Y564097D01*
X2225256D01*
Y563152D01*
D02*
G37*
G36*
X2167559D02*
X2173234D01*
Y562206D01*
X2177018D01*
Y561260D01*
X2179855D01*
Y560314D01*
X2181747D01*
Y559368D01*
X2183639D01*
Y558423D01*
X2184584D01*
Y557477D01*
X2186476D01*
Y556531D01*
X2187422D01*
Y555585D01*
X2188368D01*
Y554639D01*
X2187422D01*
Y553693D01*
X2186476D01*
Y552747D01*
X2185530D01*
Y551802D01*
X2184584D01*
Y550856D01*
X2183639D01*
Y549910D01*
X2182693D01*
Y548964D01*
X2181747D01*
Y548018D01*
X2179855D01*
Y548964D01*
X2178909D01*
Y549910D01*
X2177018D01*
Y550856D01*
X2175126D01*
Y551802D01*
X2172288D01*
Y552747D01*
X2168505D01*
Y553693D01*
X2154317D01*
Y552747D01*
X2151480D01*
Y551802D01*
X2150534D01*
Y550856D01*
Y549910D01*
Y548964D01*
Y548018D01*
Y547072D01*
X2135400D01*
Y548018D01*
Y548964D01*
Y549910D01*
X2136346D01*
Y550856D01*
Y551802D01*
Y552747D01*
Y553693D01*
X2137292D01*
Y554639D01*
X2138238D01*
Y555585D01*
Y556531D01*
X2139184D01*
Y557477D01*
X2140130D01*
Y558423D01*
X2141075D01*
Y559368D01*
X2142967D01*
Y560314D01*
X2144859D01*
Y561260D01*
X2146751D01*
Y562206D01*
X2150534D01*
Y563152D01*
X2155263D01*
Y564097D01*
X2167559D01*
Y563152D01*
D02*
G37*
G36*
X1940556D02*
X1947177D01*
Y562206D01*
X1950961D01*
Y561260D01*
X1952852D01*
Y560314D01*
X1954744D01*
Y559368D01*
X1956636D01*
Y558423D01*
X1958527D01*
Y557477D01*
X1959473D01*
Y556531D01*
X1961365D01*
Y555585D01*
Y554639D01*
X1960419D01*
Y553693D01*
X1959473D01*
Y552747D01*
X1958527D01*
Y551802D01*
X1957582D01*
Y550856D01*
X1956636D01*
Y549910D01*
X1955690D01*
Y548964D01*
X1954744D01*
Y548018D01*
X1953798D01*
Y548964D01*
X1951907D01*
Y549910D01*
X1950961D01*
Y550856D01*
X1949069D01*
Y551802D01*
X1946232D01*
Y552747D01*
X1941502D01*
Y553693D01*
X1927315D01*
Y552747D01*
X1925423D01*
Y551802D01*
X1924477D01*
Y550856D01*
X1923531D01*
Y549910D01*
Y548964D01*
Y548018D01*
X1924477D01*
Y547072D01*
X1909344D01*
Y548018D01*
Y548964D01*
Y549910D01*
Y550856D01*
Y551802D01*
X1910289D01*
Y552747D01*
Y553693D01*
Y554639D01*
X1911235D01*
Y555585D01*
X1912181D01*
Y556531D01*
X1913127D01*
Y557477D01*
X1914073D01*
Y558423D01*
X1915019D01*
Y559368D01*
X1915965D01*
Y560314D01*
X1917856D01*
Y561260D01*
X1920694D01*
Y562206D01*
X1923531D01*
Y563152D01*
X1929206D01*
Y564097D01*
X1940556D01*
Y563152D01*
D02*
G37*
G36*
X2286736D02*
X2291465D01*
Y562206D01*
X2294302D01*
Y561260D01*
X2297140D01*
Y560314D01*
X2299032D01*
Y559368D01*
X2300923D01*
Y558423D01*
X2301869D01*
Y557477D01*
X2303761D01*
Y556531D01*
X2304707D01*
Y555585D01*
X2305653D01*
Y554639D01*
X2306598D01*
Y553693D01*
Y552747D01*
X2307544D01*
Y551802D01*
X2308490D01*
Y550856D01*
Y549910D01*
X2309436D01*
Y548964D01*
Y548018D01*
X2310382D01*
Y547072D01*
X2293356D01*
Y548018D01*
X2292411D01*
Y548964D01*
X2291465D01*
Y549910D01*
X2290519D01*
Y550856D01*
X2288627D01*
Y551802D01*
X2286736D01*
Y552747D01*
X2275385D01*
Y551802D01*
X2273494D01*
Y550856D01*
X2271602D01*
Y549910D01*
X2270656D01*
Y548964D01*
X2269710D01*
Y548018D01*
Y547072D01*
X2251739D01*
Y548018D01*
X2252685D01*
Y548964D01*
Y549910D01*
X2253631D01*
Y550856D01*
Y551802D01*
X2254577D01*
Y552747D01*
X2255523D01*
Y553693D01*
Y554639D01*
X2256468D01*
Y555585D01*
X2257414D01*
Y556531D01*
X2259306D01*
Y557477D01*
X2260252D01*
Y558423D01*
X2261198D01*
Y559368D01*
X2263090D01*
Y560314D01*
X2264981D01*
Y561260D01*
X2267819D01*
Y562206D01*
X2270656D01*
Y563152D01*
X2275385D01*
Y564097D01*
X2286736D01*
Y563152D01*
D02*
G37*
G36*
X2107025D02*
X2112700D01*
Y562206D01*
X2115538D01*
Y561260D01*
X2117429D01*
Y560314D01*
X2119321D01*
Y559368D01*
X2121213D01*
Y558423D01*
X2122159D01*
Y557477D01*
X2124050D01*
Y556531D01*
X2124996D01*
Y555585D01*
X2125942D01*
Y554639D01*
Y553693D01*
X2126888D01*
Y552747D01*
X2127834D01*
Y551802D01*
Y550856D01*
X2128780D01*
Y549910D01*
Y548964D01*
X2129725D01*
Y548018D01*
Y547072D01*
X2114592D01*
Y548018D01*
Y548964D01*
X2113646D01*
Y549910D01*
Y550856D01*
X2112700D01*
Y551802D01*
X2111754D01*
Y552747D01*
X2109863D01*
Y553693D01*
X2107025D01*
Y554639D01*
X2095675D01*
Y553693D01*
X2093783D01*
Y552747D01*
X2091892D01*
Y551802D01*
X2090946D01*
Y550856D01*
X2090000D01*
Y549910D01*
X2089054D01*
Y548964D01*
Y548018D01*
X2088108D01*
Y547072D01*
X2073921D01*
Y548018D01*
Y548964D01*
X2074866D01*
Y549910D01*
Y550856D01*
X2075812D01*
Y551802D01*
Y552747D01*
X2076758D01*
Y553693D01*
X2077704D01*
Y554639D01*
X2078650D01*
Y555585D01*
X2079596D01*
Y556531D01*
X2080541D01*
Y557477D01*
X2081487D01*
Y558423D01*
X2082433D01*
Y559368D01*
X2084325D01*
Y560314D01*
X2086216D01*
Y561260D01*
X2088108D01*
Y562206D01*
X2091892D01*
Y563152D01*
X2096621D01*
Y564097D01*
X2107025D01*
Y563152D01*
D02*
G37*
G36*
X1880022D02*
X1885697D01*
Y562206D01*
X1888535D01*
Y561260D01*
X1890427D01*
Y560314D01*
X1892318D01*
Y559368D01*
X1894210D01*
Y558423D01*
X1895156D01*
Y557477D01*
X1896102D01*
Y556531D01*
X1897993D01*
Y555585D01*
Y554639D01*
X1898939D01*
Y553693D01*
X1899885D01*
Y552747D01*
X1900831D01*
Y551802D01*
Y550856D01*
X1901777D01*
Y549910D01*
Y548964D01*
X1902723D01*
Y548018D01*
Y547072D01*
X1887589D01*
Y548018D01*
Y548964D01*
X1886643D01*
Y549910D01*
Y550856D01*
X1885697D01*
Y551802D01*
X1883806D01*
Y552747D01*
X1882860D01*
Y553693D01*
X1880022D01*
Y554639D01*
X1868672D01*
Y553693D01*
X1866781D01*
Y552747D01*
X1864889D01*
Y551802D01*
X1863943D01*
Y550856D01*
X1862997D01*
Y549910D01*
X1862051D01*
Y548964D01*
Y548018D01*
X1861105D01*
Y547072D01*
X1846918D01*
Y548018D01*
Y548964D01*
X1847864D01*
Y549910D01*
Y550856D01*
X1848810D01*
Y551802D01*
Y552747D01*
X1849755D01*
Y553693D01*
X1850701D01*
Y554639D01*
X1851647D01*
Y555585D01*
X1852593D01*
Y556531D01*
X1853539D01*
Y557477D01*
X1854485D01*
Y558423D01*
X1855430D01*
Y559368D01*
X1857322D01*
Y560314D01*
X1859214D01*
Y561260D01*
X1861105D01*
Y562206D01*
X1864889D01*
Y563152D01*
X1869618D01*
Y564097D01*
X1880022D01*
Y563152D01*
D02*
G37*
G36*
X5153921Y544764D02*
X5138173D01*
Y548701D01*
X5149984Y560512D01*
X5153921D01*
X5153921Y544764D01*
D02*
G37*
G36*
X5193512Y423016D02*
Y419079D01*
X5177764Y419079D01*
Y434827D01*
X5181701D01*
X5193512Y423016D01*
D02*
G37*
G36*
X1969981Y492000D02*
X1962433D01*
X1950945Y526077D01*
X1958215D01*
X1965374Y503045D01*
Y502989D01*
X1965430Y502933D01*
X1965486Y502767D01*
X1965541Y502545D01*
X1965707Y502046D01*
X1965874Y501380D01*
X1966096Y500658D01*
X1966228Y500087D01*
X1966263Y500214D01*
X1966429Y500935D01*
X1966707Y501768D01*
X1966984Y502767D01*
X1974143Y526077D01*
X1981469D01*
X1969981Y492000D01*
D02*
G37*
G36*
X2159070D02*
X2152298D01*
Y515865D01*
X2152188Y515698D01*
X2152077Y515476D01*
X2151910Y515255D01*
X2151577Y515033D01*
X2151189Y514811D01*
X2150633Y514588D01*
X2150578D01*
X2150356Y514477D01*
X2150023Y514422D01*
X2149635Y514311D01*
X2149135Y514200D01*
X2148580Y514144D01*
X2147359Y514034D01*
X2145361D01*
Y520139D01*
X2147248D01*
X2147470Y520194D01*
X2147914Y520250D01*
X2148414Y520305D01*
X2148968Y520471D01*
X2149635Y520693D01*
X2150245Y521027D01*
X2150911Y521415D01*
X2150966Y521471D01*
X2151189Y521637D01*
X2151466Y521970D01*
X2151854Y522359D01*
X2152243Y522913D01*
X2152687Y523635D01*
X2153075Y524467D01*
X2153409Y525411D01*
X2159070D01*
Y492000D01*
D02*
G37*
G36*
X2132318Y526021D02*
X2132651D01*
X2133539Y525910D01*
X2134483Y525744D01*
X2135593Y525522D01*
X2136648Y525245D01*
X2137702Y524801D01*
X2137758D01*
X2137813Y524745D01*
X2138146Y524578D01*
X2138646Y524245D01*
X2139256Y523857D01*
X2139977Y523357D01*
X2140699Y522692D01*
X2141365Y521970D01*
X2141976Y521082D01*
X2142031Y520971D01*
X2142198Y520638D01*
X2142475Y520139D01*
X2142753Y519472D01*
X2142974Y518696D01*
X2143252Y517752D01*
X2143419Y516697D01*
X2143474Y515532D01*
Y515476D01*
Y515310D01*
Y515033D01*
X2143419Y514699D01*
X2143363Y514311D01*
X2143307Y513812D01*
X2143086Y512702D01*
X2142697Y511425D01*
X2142419Y510815D01*
X2142086Y510149D01*
X2141698Y509483D01*
X2141309Y508872D01*
X2140755Y508262D01*
X2140200Y507707D01*
X2140144Y507651D01*
X2140033Y507596D01*
X2139867Y507429D01*
X2139589Y507262D01*
X2139256Y507041D01*
X2138867Y506818D01*
X2138423Y506541D01*
X2137869Y506264D01*
X2137258Y505986D01*
X2136592Y505709D01*
X2135870Y505486D01*
X2135093Y505264D01*
X2134206Y505098D01*
X2133318Y504932D01*
X2132318Y504876D01*
X2131320Y504820D01*
X2124771D01*
Y492000D01*
X2117778D01*
Y526077D01*
X2131985D01*
X2132318Y526021D01*
D02*
G37*
G36*
X2102071Y492000D02*
X2095023D01*
X2092026Y500714D01*
X2079816D01*
X2076818Y492000D01*
X2069825D01*
X2082258Y526077D01*
X2089584D01*
X2102071Y492000D01*
D02*
G37*
G36*
X2069492Y520250D02*
X2059447D01*
Y492000D01*
X2052398D01*
Y520250D01*
X2042353D01*
Y526077D01*
X2069492D01*
Y520250D01*
D02*
G37*
G36*
X2027312Y497883D02*
X2041798D01*
Y492000D01*
X2020320D01*
Y526077D01*
X2027312D01*
Y497883D01*
D02*
G37*
G36*
X1999951Y526854D02*
X2000395D01*
X2000895Y526798D01*
X2001449Y526743D01*
X2002060Y526632D01*
X2003392Y526355D01*
X2004835Y525966D01*
X2006278Y525411D01*
X2007721Y524689D01*
X2007776D01*
X2007888Y524578D01*
X2008054Y524467D01*
X2008332Y524301D01*
X2008997Y523802D01*
X2009774Y523080D01*
X2010718Y522247D01*
X2011606Y521138D01*
X2012550Y519917D01*
X2013326Y518473D01*
Y518418D01*
X2013438Y518307D01*
X2013493Y518085D01*
X2013659Y517752D01*
X2013771Y517364D01*
X2013937Y516919D01*
X2014159Y516420D01*
X2014325Y515809D01*
X2014492Y515144D01*
X2014714Y514422D01*
X2014880Y513645D01*
X2014992Y512812D01*
X2015214Y510981D01*
X2015324Y509038D01*
Y508983D01*
Y508817D01*
Y508539D01*
X2015269Y508151D01*
Y507651D01*
X2015214Y507096D01*
X2015158Y506486D01*
X2015102Y505820D01*
X2014825Y504377D01*
X2014492Y502767D01*
X2013993Y501158D01*
X2013326Y499603D01*
Y499548D01*
X2013216Y499437D01*
X2013104Y499215D01*
X2012938Y498938D01*
X2012772Y498604D01*
X2012494Y498216D01*
X2011883Y497328D01*
X2011051Y496329D01*
X2010108Y495274D01*
X2008942Y494276D01*
X2007666Y493387D01*
X2007610D01*
X2007499Y493276D01*
X2007277Y493166D01*
X2006999Y493055D01*
X2006667Y492888D01*
X2006278Y492721D01*
X2005778Y492500D01*
X2005224Y492333D01*
X2004613Y492111D01*
X2003947Y491889D01*
X2002504Y491556D01*
X2000895Y491334D01*
X1999119Y491223D01*
X1998675D01*
X1998286Y491279D01*
X1997898D01*
X1997398Y491334D01*
X1996843Y491389D01*
X1996233Y491500D01*
X1994900Y491778D01*
X1993457Y492111D01*
X1992014Y492666D01*
X1990572Y493387D01*
X1990516D01*
X1990405Y493498D01*
X1990238Y493610D01*
X1989961Y493776D01*
X1989295Y494331D01*
X1988518Y494997D01*
X1987574Y495885D01*
X1986631Y496995D01*
X1985743Y498216D01*
X1984910Y499659D01*
Y499714D01*
X1984855Y499825D01*
X1984744Y500048D01*
X1984633Y500380D01*
X1984466Y500769D01*
X1984300Y501213D01*
X1984133Y501768D01*
X1983967Y502378D01*
X1983745Y502989D01*
X1983579Y503711D01*
X1983301Y505320D01*
X1983079Y507096D01*
X1982968Y509038D01*
Y509094D01*
Y509260D01*
Y509594D01*
X1983024Y509926D01*
Y510426D01*
X1983079Y510981D01*
X1983134Y511591D01*
X1983190Y512258D01*
X1983467Y513756D01*
X1983801Y515310D01*
X1984245Y516919D01*
X1984910Y518473D01*
Y518529D01*
X1985022Y518640D01*
X1985132Y518862D01*
X1985299Y519139D01*
X1985466Y519472D01*
X1985743Y519861D01*
X1986353Y520749D01*
X1987186Y521748D01*
X1988130Y522803D01*
X1989295Y523802D01*
X1990572Y524689D01*
X1990627D01*
X1990738Y524801D01*
X1990960Y524912D01*
X1991237Y525023D01*
X1991571Y525189D01*
X1992014Y525411D01*
X1992458Y525577D01*
X1993014Y525799D01*
X1993624Y526021D01*
X1994290Y526188D01*
X1995733Y526577D01*
X1997342Y526798D01*
X1999119Y526909D01*
X1999618D01*
X1999951Y526854D01*
D02*
G37*
%LPC*%
G36*
X2130265Y520527D02*
X2124771D01*
Y510370D01*
X2130709D01*
X2131209Y510426D01*
X2131819Y510537D01*
X2132485Y510704D01*
X2133206Y510925D01*
X2133928Y511259D01*
X2134539Y511702D01*
X2134594Y511758D01*
X2134816Y511980D01*
X2135038Y512258D01*
X2135371Y512702D01*
X2135648Y513256D01*
X2135926Y513867D01*
X2136093Y514644D01*
X2136148Y515476D01*
Y515587D01*
Y515865D01*
X2136093Y516309D01*
X2135926Y516808D01*
X2135760Y517419D01*
X2135482Y518029D01*
X2135093Y518585D01*
X2134539Y519139D01*
X2134483Y519195D01*
X2134261Y519361D01*
X2133928Y519583D01*
X2133428Y519861D01*
X2132818Y520083D01*
X2132097Y520305D01*
X2131209Y520471D01*
X2130265Y520527D01*
D02*
G37*
G36*
X2085935Y518684D02*
X2085865Y518473D01*
X2085698Y517863D01*
X2085255Y516642D01*
X2081536Y506208D01*
X2090305D01*
X2086476Y516864D01*
Y516919D01*
X2086365Y517141D01*
X2086309Y517475D01*
X2086142Y517918D01*
X2086032Y518362D01*
X2085935Y518684D01*
D02*
G37*
G36*
X1999119Y521082D02*
X1998730D01*
X1998453Y521027D01*
X1998064Y520971D01*
X1997676Y520915D01*
X1996732Y520693D01*
X1995678Y520305D01*
X1995122Y520083D01*
X1994623Y519750D01*
X1994068Y519361D01*
X1993513Y518973D01*
X1993014Y518473D01*
X1992570Y517918D01*
Y517863D01*
X1992458Y517752D01*
X1992348Y517586D01*
X1992181Y517364D01*
X1992014Y517030D01*
X1991793Y516642D01*
X1991626Y516143D01*
X1991404Y515643D01*
X1991182Y515033D01*
X1990960Y514366D01*
X1990738Y513645D01*
X1990572Y512812D01*
X1990405Y511980D01*
X1990294Y511036D01*
X1990238Y510093D01*
X1990183Y509038D01*
Y508983D01*
Y508817D01*
Y508483D01*
X1990238Y508095D01*
Y507651D01*
X1990294Y507096D01*
X1990405Y506486D01*
X1990460Y505820D01*
X1990793Y504377D01*
X1991182Y502933D01*
X1991793Y501490D01*
X1992126Y500769D01*
X1992570Y500159D01*
X1992625Y500103D01*
X1992680Y500048D01*
X1992792Y499881D01*
X1993014Y499659D01*
X1993569Y499159D01*
X1994290Y498604D01*
X1995234Y497994D01*
X1996343Y497495D01*
X1996954Y497272D01*
X1997620Y497106D01*
X1998341Y497050D01*
X1999119Y496995D01*
X1999507D01*
X1999840Y497050D01*
X2000173Y497106D01*
X2000562Y497161D01*
X2001505Y497384D01*
X2002560Y497772D01*
X2003114Y498050D01*
X2003669Y498327D01*
X2004225Y498716D01*
X2004724Y499104D01*
X2005224Y499603D01*
X2005668Y500159D01*
X2005723Y500214D01*
X2005778Y500325D01*
X2005889Y500491D01*
X2006056Y500769D01*
X2006223Y501046D01*
X2006445Y501435D01*
X2006667Y501935D01*
X2006889Y502434D01*
X2007111Y503045D01*
X2007277Y503711D01*
X2007499Y504432D01*
X2007666Y505264D01*
X2007832Y506097D01*
X2007943Y507041D01*
X2008054Y507984D01*
Y509038D01*
Y509094D01*
Y509316D01*
Y509594D01*
X2007998Y509982D01*
Y510481D01*
X2007943Y511036D01*
X2007888Y511647D01*
X2007776Y512313D01*
X2007499Y513701D01*
X2007055Y515199D01*
X2006500Y516642D01*
X2006111Y517308D01*
X2005723Y517918D01*
Y517974D01*
X2005612Y518029D01*
X2005501Y518196D01*
X2005279Y518418D01*
X2004780Y518918D01*
X2004003Y519528D01*
X2003114Y520083D01*
X2001949Y520582D01*
X2001339Y520804D01*
X2000617Y520971D01*
X1999896Y521027D01*
X1999119Y521082D01*
D02*
G37*
%LPD*%
D89*
X2154402Y903114D02*
G03*
X2154402Y903114I-4921J0D01*
G01*
X1405000Y837872D02*
G03*
X1405000Y837872I-4921J0D01*
G01*
X4133921Y899000D02*
G03*
X4133921Y899000I-4921J0D01*
G01*
X2582921Y619000D02*
G03*
X2582921Y619000I-4921J0D01*
G01*
X5178528Y556575D02*
G03*
X5178528Y556575I-4921J0D01*
G01*
X4570803Y911102D02*
G03*
X4570803Y911102I-4921J0D01*
G01*
X5154906Y923000D02*
G03*
X5154906Y923000I-4921J0D01*
G01*
X5169921Y425000D02*
G03*
X5169921Y425000I-4921J0D01*
G01*
X4370803Y911197D02*
G03*
X4370803Y911197I-4921J0D01*
G01*
X4631039Y560803D02*
G03*
X4631039Y560803I-4921J0D01*
G01*
X5396921Y1239000D02*
G03*
X5396921Y1239000I-4921J0D01*
G01*
X1548921Y777000D02*
G03*
X1548921Y777000I-4921J0D01*
G01*
X1337976Y1198110D02*
X1337976Y461890D01*
X1281874D02*
X1337976D01*
X1108646D02*
X1164748D01*
X1108646D02*
Y1198110D01*
X1164748D01*
X1281874D02*
X1337976D01*
X1126362Y830000D02*
X1165732Y869370D01*
X1126362Y830000D02*
X1164748Y790630D01*
D90*
X1885380Y888794D02*
G03*
X1896693Y887134I11313J37710D01*
G01*
X2038425D02*
G03*
X2077795Y926504I0J39370D01*
G01*
X1817514Y990128D02*
G03*
X1817508Y925863I22320J-32135D01*
G01*
X1896693Y1028866D02*
G03*
X1885380Y1027206I0J-39370D01*
G01*
X2077795Y989496D02*
G03*
X2038425Y1028866I-39370J0D01*
G01*
X5153921Y560512D02*
G03*
X5138173Y544764I0J-15748D01*
G01*
X5156921Y954512D02*
G03*
X5141173Y938764I0J-15748D01*
G01*
X5193512Y419079D02*
G03*
X5177764Y434827I-15748J0D01*
G01*
X5381488Y1234921D02*
G03*
X5397236Y1219173I15748J0D01*
G01*
X1537669Y736709D02*
G03*
X1561291Y760331I0J23622D01*
G01*
X1008693Y963449D02*
X1020504D01*
X1008693D02*
Y1144551D01*
X1020504D01*
X1083496D02*
X1095307D01*
Y963449D02*
Y1144551D01*
X1083496Y963449D02*
X1095307D01*
X1008693Y1054000D02*
X1095307D01*
X912693Y964449D02*
X924504D01*
X912693D02*
Y1145551D01*
X924504D01*
X987496D02*
X999307D01*
Y964449D02*
Y1145551D01*
X987496Y964449D02*
X999307D01*
X912693Y1055000D02*
X999307D01*
X816693Y964449D02*
X828504D01*
X816693D02*
Y1145551D01*
X828504D01*
X891496D02*
X903307D01*
Y964449D02*
Y1145551D01*
X891496Y964449D02*
X903307D01*
X816693Y1055000D02*
X903307D01*
X2526315Y1017606D02*
X2565685D01*
X2526315Y1218394D02*
X2565685D01*
X2295150Y1031067D02*
X2332551D01*
Y928705D02*
Y1031067D01*
X2151449D02*
X2188850D01*
X2151449Y928705D02*
Y1031067D01*
X2175811Y1163622D02*
X2183685D01*
X2144315D02*
X2148252D01*
X2175811Y1147874D02*
Y1183307D01*
X2148252Y1163622D02*
X2175811Y1183307D01*
X2148252Y1163622D02*
X2175811Y1147874D01*
X2148252Y1143937D02*
Y1183307D01*
X2016362Y1173622D02*
Y1228622D01*
X2309000D01*
X2016362Y1173622D02*
X2024000D01*
Y1228622D01*
Y1098622D02*
Y1153622D01*
X2016362D02*
X2024000D01*
X2309000Y1209881D02*
Y1228622D01*
X2016362Y1098622D02*
Y1153622D01*
X2309000Y1098622D02*
Y1117362D01*
X2016362Y1098622D02*
X2309000D01*
X1896693Y887134D02*
X1918740D01*
X2010866Y887134D02*
X2038425Y887134D01*
X2010866Y1028866D02*
X2038425Y1028866D01*
X1896693D02*
X1918740D01*
X1817514Y925872D02*
X1832092Y917684D01*
X1839381Y913590D01*
X1832092Y998316D02*
X1839381Y1002410D01*
X1817514Y990128D02*
X1832092Y998316D01*
X2077795Y926504D02*
Y989496D01*
X2997780Y643732D02*
Y655543D01*
Y608299D02*
Y616173D01*
X2978095Y643732D02*
X3013528D01*
X2978095D02*
X2997780Y616173D01*
X3013528Y643732D01*
X2978095Y616173D02*
X3017465D01*
X3068646Y482315D02*
Y773654D01*
X3055850D02*
X3068646D01*
X3017465Y482315D02*
X3068646D01*
X2926913Y773654D02*
X2939709D01*
X3017465Y482315D02*
Y488221D01*
X3068646D01*
X2926913D02*
X2978095D01*
Y482315D02*
Y488221D01*
X2926913Y482315D02*
Y773654D01*
Y482315D02*
X2978095D01*
X3155260Y643457D02*
Y655268D01*
Y608024D02*
Y615898D01*
X3135575Y643457D02*
X3171008D01*
X3135575D02*
X3155260Y615898D01*
X3171008Y643457D01*
X3135575Y615898D02*
X3174945D01*
X3226126Y482039D02*
Y773378D01*
X3213331D02*
X3226126D01*
X3174945Y482039D02*
X3226126D01*
X3084394Y773378D02*
X3097189D01*
X3174945Y482039D02*
Y487945D01*
X3226126D01*
X3084394D02*
X3135575D01*
Y482039D02*
Y487945D01*
X3084394Y482039D02*
Y773378D01*
Y482039D02*
X3135575D01*
X1675669Y881179D02*
Y1026849D01*
X1415827Y881179D02*
Y1026849D01*
X1675669D01*
X1415827Y881179D02*
X1675669D01*
X4100079Y904724D02*
X4112874D01*
Y891929D02*
Y904724D01*
Y729528D02*
Y742323D01*
X4100079Y729528D02*
X4112874D01*
X3937677D02*
X3950472D01*
X3937677D02*
Y742323D01*
Y904724D02*
X3950472D01*
X3937677Y891929D02*
Y904724D01*
X2642685Y487976D02*
Y610024D01*
X2603315Y487976D02*
Y610024D01*
Y487976D02*
X2642685D01*
X2603315Y610024D02*
X2642685D01*
X5153921Y560512D02*
X5153921D01*
X5028331Y765236D02*
X5149984D01*
Y755591D02*
Y765236D01*
X4898016D02*
X5028331D01*
X4898016Y755591D02*
Y765236D01*
Y544764D02*
Y560512D01*
Y544764D02*
X5028331D01*
X5153921D01*
Y560512D01*
X4586551Y586299D02*
Y885512D01*
X4405449Y586299D02*
Y885512D01*
X4559976D02*
X4586551D01*
X4559976Y586299D02*
X4586551D01*
X4405449Y885512D02*
X4432024D01*
X4405449Y586299D02*
X4432024D01*
Y863858D02*
Y885512D01*
X4405449Y863858D02*
X4432024D01*
X4559976D02*
X4586551D01*
X4559976D02*
Y885512D01*
X5156921Y954512D02*
X5156921D01*
X5031331Y1159236D02*
X5152984D01*
Y1149591D02*
Y1159236D01*
X4901016D02*
X5031331D01*
X4901016Y1149591D02*
Y1159236D01*
Y938764D02*
Y954512D01*
Y938764D02*
X5031331D01*
X5156921D01*
Y954512D01*
X5193512Y419079D02*
Y419079D01*
X5398236Y423016D02*
Y544669D01*
X5388591Y423016D02*
X5398236D01*
Y544669D02*
Y674984D01*
X5388591D02*
X5398236D01*
X5177764D02*
X5193512D01*
X5177764Y544669D02*
Y674984D01*
Y419079D02*
Y544669D01*
Y419079D02*
X5193512D01*
X4533064Y925620D02*
Y937432D01*
X4351962Y925620D02*
X4533064D01*
X4351962D02*
Y937432D01*
Y1000424D02*
Y1012235D01*
X4533064D01*
Y1000424D02*
Y1012235D01*
X4442513Y925620D02*
Y1012235D01*
X4386551Y586394D02*
Y885606D01*
X4205449Y586394D02*
Y885606D01*
X4359976D02*
X4386551D01*
X4359976Y586394D02*
X4386551D01*
X4205449Y885606D02*
X4232024D01*
X4205449Y586394D02*
X4232024D01*
Y863953D02*
Y885606D01*
X4205449Y863953D02*
X4232024D01*
X4359976D02*
X4386551D01*
X4359976D02*
Y885606D01*
X4605449Y586394D02*
Y885606D01*
X4786551Y586394D02*
Y885606D01*
X4605449Y586394D02*
X4632024D01*
X4605449Y885606D02*
X4632024D01*
X4759976Y586394D02*
X4786551D01*
X4759976Y885606D02*
X4786551D01*
X4759976Y586394D02*
Y608047D01*
X4786551D01*
X4605449D02*
X4632024D01*
Y586394D02*
Y608047D01*
X5381488Y1234921D02*
Y1234921D01*
X5176764Y1109331D02*
Y1230984D01*
X5186409D01*
X5176764Y979016D02*
Y1109331D01*
Y979016D02*
X5186409D01*
X5381488D02*
X5397236D01*
Y1109331D01*
Y1234921D01*
X5381488D02*
X5397236D01*
X4789693Y485449D02*
X4801504D01*
X4789693D02*
Y666551D01*
X4801504D01*
X4864496D02*
X4876307D01*
Y485449D02*
Y666551D01*
X4864496Y485449D02*
X4876307D01*
X4789693Y576000D02*
X4876307D01*
X5428189Y563189D02*
Y1086811D01*
Y563189D02*
X5579764D01*
X5428189Y1086811D02*
X5579764D01*
X5800236D02*
X5951811D01*
X5800236Y563189D02*
X5951811D01*
Y1086811D01*
X1448441Y507189D02*
Y530811D01*
X1503559Y461913D02*
Y490457D01*
X1468126Y461913D02*
X1503559D01*
Y547543D02*
Y576087D01*
X1468126D02*
X1503559D01*
X1537669Y736709D02*
Y760331D01*
X1561291D01*
X1722709D02*
X1746331D01*
Y736709D02*
Y760331D01*
Y551669D02*
Y575291D01*
X1722709Y551669D02*
X1746331D01*
X1537669D02*
Y575291D01*
Y551669D02*
X1561291D01*
X2895000Y1111811D02*
Y1123622D01*
Y1076378D02*
Y1084252D01*
X2875315Y1111811D02*
X2910748D01*
X2875315D02*
X2895000Y1084252D01*
X2910748Y1111811D01*
X2875315Y1084252D02*
X2914685D01*
X2965866Y950394D02*
Y1241732D01*
X2953071D02*
X2965866D01*
X2914685Y950394D02*
X2965866D01*
X2824134Y1241732D02*
X2836929D01*
X2914685Y950394D02*
Y956299D01*
X2965866D01*
X2824134D02*
X2875315D01*
Y950394D02*
Y956299D01*
X2824134Y950394D02*
Y1241732D01*
Y950394D02*
X2875315D01*
X2489315Y767566D02*
X2528685D01*
X2509000D02*
X2524748Y795125D01*
X2489315D02*
X2509000Y767566D01*
X2489315Y795125D02*
X2524748D01*
X2509000Y759692D02*
Y767566D01*
Y795125D02*
Y806936D01*
D91*
X1467008Y920550D02*
G03*
X1467008Y920550I-11811J0D01*
G01*
D92*
X913559Y838079D02*
G03*
X913559Y838079I-1968J0D01*
G01*
D93*
X4159984Y1015953D02*
Y1173433D01*
X4776126Y1015953D02*
Y1173433D01*
X4159984Y1015953D02*
X4776126D01*
X4290890Y1008079D02*
X4306638Y976583D01*
X4275142D02*
X4290890Y1008079D01*
X4275142Y976583D02*
X4306638D01*
X4212150Y1235244D02*
X4723961D01*
D94*
X1360441Y671000D02*
X1415559D01*
X1408000Y721000D02*
X1415559D01*
Y621000D02*
Y721000D01*
X1408000Y621000D02*
X1415559D01*
X1360441D02*
X1368000D01*
X1360441D02*
Y721000D01*
X1368000D01*
X5233326Y828433D02*
X5249074D01*
Y694575D02*
Y828433D01*
X5233326Y694575D02*
X5249074D01*
X5178208D02*
X5193956D01*
X5178208D02*
Y828433D01*
X5193956D01*
X5178208Y761504D02*
X5249074D01*
X2760449Y1017496D02*
X2770291D01*
Y1204504D01*
X2760449D02*
X2770291D01*
X2681709D02*
X2691551D01*
X2681709Y1017496D02*
Y1204504D01*
Y1017496D02*
X2691551D01*
X2681709Y1111000D02*
X2770291D01*
X2389748Y968882D02*
X2401559D01*
Y1079118D01*
X2389748D02*
X2401559D01*
X2346441D02*
X2358252D01*
X2346441Y968882D02*
Y1079118D01*
Y968882D02*
X2358252D01*
X2346441Y1024000D02*
X2401559D01*
X668000Y1162638D02*
X708000D01*
X703000Y1207638D02*
X708000D01*
Y1117638D02*
Y1207638D01*
X703000Y1117638D02*
X708000D01*
X668000D02*
X673000D01*
X668000D02*
Y1207638D01*
X673000D01*
X3739132Y907882D02*
X3750943D01*
Y1018118D01*
X3739132D02*
X3750943D01*
X3695825D02*
X3707636D01*
X3695825Y907882D02*
Y1018118D01*
Y907882D02*
X3707636D01*
X3695825Y963000D02*
X3750943D01*
X3633858Y963409D02*
X3688976D01*
X3633858Y913409D02*
X3641417D01*
X3633858D02*
Y1013409D01*
X3641417D01*
X3681417D02*
X3688976D01*
Y913409D02*
Y1013409D01*
X3681417Y913409D02*
X3688976D01*
X3588000Y788323D02*
Y793323D01*
Y788323D02*
X3678000D01*
Y793323D01*
Y823323D02*
Y828323D01*
X3588000D02*
X3678000D01*
X3588000Y823323D02*
Y828323D01*
X3633000Y788323D02*
Y828323D01*
X3621811Y706307D02*
X3629685D01*
Y785047D01*
X3621811D02*
X3629685D01*
X3590315D02*
X3598189D01*
X3590315Y706307D02*
Y785047D01*
Y706307D02*
X3598189D01*
X3952000Y1056567D02*
Y1127433D01*
X3885071Y1056567D02*
Y1072315D01*
Y1056567D02*
X4018929D01*
Y1072315D01*
Y1111685D02*
Y1127433D01*
X3885071D02*
X4018929D01*
X3885071Y1111685D02*
Y1127433D01*
X3766053Y553496D02*
X3773927D01*
Y632236D01*
X3766053D02*
X3773927D01*
X3734557D02*
X3742431D01*
X3734557Y553496D02*
Y632236D01*
Y553496D02*
X3742431D01*
X5032811Y443307D02*
X5040685D01*
Y522047D01*
X5032811D02*
X5040685D01*
X5001315D02*
X5009189D01*
X5001315Y443307D02*
Y522047D01*
Y443307D02*
X5009189D01*
X5151118Y515748D02*
Y527559D01*
X5040882D02*
X5151118D01*
X5040882Y515748D02*
Y527559D01*
Y472441D02*
Y484252D01*
Y472441D02*
X5151118D01*
Y484252D01*
X5096000Y472441D02*
Y527559D01*
X4156118Y672323D02*
Y684134D01*
X4045882D02*
X4156118D01*
X4045882Y672323D02*
Y684134D01*
Y629016D02*
Y640827D01*
Y629016D02*
X4156118D01*
Y640827D01*
X4101000Y629016D02*
Y684134D01*
X3519882Y1057441D02*
Y1069252D01*
Y1057441D02*
X3630118D01*
Y1069252D01*
Y1100748D02*
Y1112559D01*
X3519882D02*
X3630118D01*
X3519882Y1100748D02*
Y1112559D01*
X3575000Y1057441D02*
Y1112559D01*
Y865039D02*
Y920158D01*
X3525000Y912598D02*
Y920158D01*
X3625000D01*
Y912598D02*
Y920158D01*
Y865039D02*
Y872598D01*
X3525000Y865039D02*
X3625000D01*
X3525000D02*
Y872598D01*
X3519882Y926693D02*
Y938504D01*
Y926693D02*
X3630118D01*
Y938504D01*
Y970000D02*
Y981811D01*
X3519882D02*
X3630118D01*
X3519882Y970000D02*
Y981811D01*
X3575000Y926693D02*
Y981811D01*
Y1122441D02*
Y1177559D01*
X3525000Y1170000D02*
Y1177559D01*
X3625000D01*
Y1170000D02*
Y1177559D01*
Y1122441D02*
Y1130000D01*
X3525000Y1122441D02*
X3625000D01*
X3525000D02*
Y1130000D01*
X3504748Y1067882D02*
X3516559D01*
Y1178118D01*
X3504748D02*
X3516559D01*
X3461441D02*
X3473252D01*
X3461441Y1067882D02*
Y1178118D01*
Y1067882D02*
X3473252D01*
X3461441Y1123000D02*
X3516559D01*
X3688000Y633000D02*
Y638000D01*
Y633000D02*
X3778000D01*
Y638000D01*
Y668000D02*
Y673000D01*
X3688000D02*
X3778000D01*
X3688000Y668000D02*
Y673000D01*
X3733000Y633000D02*
Y673000D01*
X3724213Y553496D02*
X3732087D01*
Y632236D01*
X3724213D02*
X3732087D01*
X3692717D02*
X3700591D01*
X3692717Y553496D02*
Y632236D01*
Y553496D02*
X3700591D01*
X3666838Y706307D02*
X3674713D01*
Y785047D01*
X3666838D02*
X3674713D01*
X3635343D02*
X3643216D01*
X3635343Y706307D02*
Y785047D01*
Y706307D02*
X3643216D01*
X3903441Y1001000D02*
X3958559D01*
X3903441Y951000D02*
X3911000D01*
X3903441D02*
Y1051000D01*
X3911000D01*
X3951000D02*
X3958559D01*
Y951000D02*
Y1051000D01*
X3951000Y951000D02*
X3958559D01*
X3989486Y654000D02*
X4044605D01*
X4037046Y704000D02*
X4044605D01*
Y604000D02*
Y704000D01*
X4037046Y604000D02*
X4044605D01*
X3989486D02*
X3997046D01*
X3989486D02*
Y704000D01*
X3997046D01*
X3813016Y653000D02*
X3868134D01*
X3860575Y703000D02*
X3868134D01*
Y603000D02*
Y703000D01*
X3860575Y603000D02*
X3868134D01*
X3813016D02*
X3820575D01*
X3813016D02*
Y703000D01*
X3820575D01*
X3634731Y629441D02*
Y684559D01*
X3584731Y677000D02*
Y684559D01*
X3684731D01*
Y677000D02*
Y684559D01*
Y629441D02*
Y637000D01*
X3584731Y629441D02*
X3684731D01*
X3584731D02*
Y637000D01*
X5041882Y409441D02*
Y421252D01*
Y409441D02*
X5152118D01*
Y421252D01*
Y452748D02*
Y464559D01*
X5041882D02*
X5152118D01*
X5041882Y452748D02*
Y464559D01*
X5097000Y409441D02*
Y464559D01*
X3638172Y567351D02*
X3693290D01*
X3638172Y517351D02*
X3645731D01*
X3638172D02*
Y617351D01*
X3645731D01*
X3685731D02*
X3693290D01*
Y517351D02*
Y617351D01*
X3685731Y517351D02*
X3693290D01*
X3968748Y1133595D02*
X3980559D01*
Y1243831D01*
X3968748D02*
X3980559D01*
X3925441D02*
X3937252D01*
X3925441Y1133595D02*
Y1243831D01*
Y1133595D02*
X3937252D01*
X3925441Y1188713D02*
X3980559D01*
X3986441Y1243831D02*
X3998252D01*
X3986441Y1133595D02*
Y1243831D01*
Y1133595D02*
X3998252D01*
X4029748D02*
X4041559D01*
Y1243831D01*
X4029748D02*
X4041559D01*
X3986441Y1188713D02*
X4041559D01*
X3848748Y1133595D02*
X3860559D01*
Y1243831D01*
X3848748D02*
X3860559D01*
X3805441D02*
X3817252D01*
X3805441Y1133595D02*
Y1243831D01*
Y1133595D02*
X3817252D01*
X3805441Y1188713D02*
X3860559D01*
X3865441D02*
X3920559D01*
X3913000Y1238713D02*
X3920559D01*
Y1138713D02*
Y1238713D01*
X3913000Y1138713D02*
X3920559D01*
X3865441D02*
X3873000D01*
X3865441D02*
Y1238713D01*
X3873000D01*
X3827441Y1054000D02*
X3882559D01*
X3875000Y1104000D02*
X3882559D01*
Y1004000D02*
Y1104000D01*
X3875000Y1004000D02*
X3882559D01*
X3827441D02*
X3835000D01*
X3827441D02*
Y1104000D01*
X3835000D01*
X5042882Y1169441D02*
Y1181252D01*
Y1169441D02*
X5153118D01*
Y1181252D01*
Y1212748D02*
Y1224559D01*
X5042882D02*
X5153118D01*
X5042882Y1212748D02*
Y1224559D01*
X5098000Y1169441D02*
Y1224559D01*
X3576723Y567591D02*
X3631841D01*
X3624282Y617591D02*
X3631841D01*
Y517591D02*
Y617591D01*
X3624282Y517591D02*
X3631841D01*
X3576723D02*
X3584282D01*
X3576723D02*
Y617591D01*
X3584282D01*
X3752441Y1090432D02*
X3807559D01*
X3800000Y1140432D02*
X3807559D01*
Y1040432D02*
Y1140432D01*
X3800000Y1040432D02*
X3807559D01*
X3752441D02*
X3760000D01*
X3752441D02*
Y1140432D01*
X3760000D01*
X3635001Y1090432D02*
X3690120D01*
X3635001Y1040432D02*
X3642561D01*
X3635001D02*
Y1140432D01*
X3642561D01*
X3682561D02*
X3690120D01*
Y1040432D02*
Y1140432D01*
X3682561Y1040432D02*
X3690120D01*
X3736748Y1035882D02*
X3748559D01*
Y1146118D01*
X3736748D02*
X3748559D01*
X3693441D02*
X3705252D01*
X3693441Y1035882D02*
Y1146118D01*
Y1035882D02*
X3705252D01*
X3693441Y1091000D02*
X3748559D01*
X3574803Y992126D02*
Y1047244D01*
X3624803Y992126D02*
Y999685D01*
X3524803Y992126D02*
X3624803D01*
X3524803D02*
Y999685D01*
Y1039685D02*
Y1047244D01*
X3624803D01*
Y1039685D02*
Y1047244D01*
X3802000Y897441D02*
Y952559D01*
X3852000Y897441D02*
Y905000D01*
X3752000Y897441D02*
X3852000D01*
X3752000D02*
Y905000D01*
Y945000D02*
Y952559D01*
X3852000D01*
Y945000D02*
Y952559D01*
X5852118Y501748D02*
Y513559D01*
X5741882D02*
X5852118D01*
X5741882Y501748D02*
Y513559D01*
Y458441D02*
Y470252D01*
Y458441D02*
X5852118D01*
Y470252D01*
X5797000Y458441D02*
Y513559D01*
X5853118Y1177748D02*
Y1189559D01*
X5742882D02*
X5853118D01*
X5742882Y1177748D02*
Y1189559D01*
Y1134441D02*
Y1146252D01*
Y1134441D02*
X5853118D01*
Y1146252D01*
X5798000Y1134441D02*
Y1189559D01*
X3831000Y835441D02*
Y890559D01*
X3881000Y835441D02*
Y843000D01*
X3781000Y835441D02*
X3881000D01*
X3781000D02*
Y843000D01*
Y883000D02*
Y890559D01*
X3881000D01*
Y883000D02*
Y890559D01*
X3962441Y1001000D02*
X4017559D01*
X3962441Y951000D02*
X3970000D01*
X3962441D02*
Y1051000D01*
X3970000D01*
X4010000D02*
X4017559D01*
Y951000D02*
Y1051000D01*
X4010000Y951000D02*
X4017559D01*
X3983118Y648984D02*
Y660795D01*
X3872882D02*
X3983118D01*
X3872882Y648984D02*
Y660795D01*
Y605677D02*
Y617488D01*
Y605677D02*
X3983118D01*
Y617488D01*
X3928000Y605677D02*
Y660795D01*
X4087000Y1060567D02*
Y1131433D01*
X4153929Y1115685D02*
Y1131433D01*
X4020071D02*
X4153929D01*
X4020071Y1115685D02*
Y1131433D01*
Y1060567D02*
Y1076315D01*
Y1060567D02*
X4153929D01*
Y1076315D01*
X4087000Y983567D02*
Y1054433D01*
X4153929Y1038685D02*
Y1054433D01*
X4020071D02*
X4153929D01*
X4020071Y1038685D02*
Y1054433D01*
Y983567D02*
Y999315D01*
Y983567D02*
X4153929D01*
Y999315D01*
X4796567Y840549D02*
X4867433D01*
X4796567Y907478D02*
X4812315D01*
X4796567Y773620D02*
Y907478D01*
Y773620D02*
X4812315D01*
X4851685D02*
X4867433D01*
Y907478D01*
X4851685D02*
X4867433D01*
X5338114Y761504D02*
X5408980D01*
X5338114Y828433D02*
X5353862D01*
X5338114Y694575D02*
Y828433D01*
Y694575D02*
X5353862D01*
X5393232D02*
X5408980D01*
Y828433D01*
X5393232D02*
X5408980D01*
X5258114Y761504D02*
X5328980D01*
X5258114Y828433D02*
X5273862D01*
X5258114Y694575D02*
Y828433D01*
Y694575D02*
X5273862D01*
X5313232D02*
X5328980D01*
Y828433D01*
X5313232D02*
X5328980D01*
X4950661Y840004D02*
X5021528D01*
X4950661Y906933D02*
X4966409D01*
X4950661Y773075D02*
Y906933D01*
Y773075D02*
X4966409D01*
X5005779D02*
X5021528D01*
Y906933D01*
X5005779D02*
X5021528D01*
X4873661Y840004D02*
X4944528D01*
X4873661Y906933D02*
X4889409D01*
X4873661Y773075D02*
Y906933D01*
Y773075D02*
X4889409D01*
X4928779D02*
X4944528D01*
Y906933D01*
X4928779D02*
X4944528D01*
X5178208Y892545D02*
X5249074D01*
X5233326Y825616D02*
X5249074D01*
Y959474D01*
X5233326D02*
X5249074D01*
X5178208D02*
X5193956D01*
X5178208Y825616D02*
Y959474D01*
Y825616D02*
X5193956D01*
X5258208Y892545D02*
X5329074D01*
X5313326Y825616D02*
X5329074D01*
Y959474D01*
X5313326D02*
X5329074D01*
X5258208D02*
X5273956D01*
X5258208Y825616D02*
Y959474D01*
Y825616D02*
X5273956D01*
X5338208Y892545D02*
X5409074D01*
X5393326Y825616D02*
X5409074D01*
Y959474D01*
X5393326D02*
X5409074D01*
X5338208D02*
X5353956D01*
X5338208Y825616D02*
Y959474D01*
Y825616D02*
X5353956D01*
X5027567Y839549D02*
X5098433D01*
X5027567Y906478D02*
X5043315D01*
X5027567Y772620D02*
Y906478D01*
Y772620D02*
X5043315D01*
X5082685D02*
X5098433D01*
Y906478D01*
X5082685D02*
X5098433D01*
X4717472Y489531D02*
X4788339D01*
X4717472Y556460D02*
X4733221D01*
X4717472Y422602D02*
Y556460D01*
Y422602D02*
X4733221D01*
X4772591D02*
X4788339D01*
Y556460D01*
X4772591D02*
X4788339D01*
X4637472Y489531D02*
X4708339D01*
X4637472Y556460D02*
X4653221D01*
X4637472Y422602D02*
Y556460D01*
Y422602D02*
X4653221D01*
X4692591D02*
X4708339D01*
Y556460D01*
X4692591D02*
X4708339D01*
X4557472Y489531D02*
X4628339D01*
X4557472Y556460D02*
X4573221D01*
X4557472Y422602D02*
Y556460D01*
Y422602D02*
X4573221D01*
X4612591D02*
X4628339D01*
Y556460D01*
X4612591D02*
X4628339D01*
X4477472Y489531D02*
X4548339D01*
X4477472Y556460D02*
X4493221D01*
X4477472Y422602D02*
Y556460D01*
Y422602D02*
X4493221D01*
X4532591D02*
X4548339D01*
Y556460D01*
X4532591D02*
X4548339D01*
X4397472Y489531D02*
X4468339D01*
X4397472Y556460D02*
X4413221D01*
X4397472Y422602D02*
Y556460D01*
Y422602D02*
X4413221D01*
X4452591D02*
X4468339D01*
Y556460D01*
X4452591D02*
X4468339D01*
X4317472Y489531D02*
X4388339D01*
X4317472Y556460D02*
X4333221D01*
X4317472Y422602D02*
Y556460D01*
Y422602D02*
X4333221D01*
X4372591D02*
X4388339D01*
Y556460D01*
X4372591D02*
X4388339D01*
X4237472Y489531D02*
X4308339D01*
X4237472Y556460D02*
X4253221D01*
X4237472Y422602D02*
Y556460D01*
Y422602D02*
X4253221D01*
X4292591D02*
X4308339D01*
Y556460D01*
X4292591D02*
X4308339D01*
X4157472Y489531D02*
X4228339D01*
X4157472Y556460D02*
X4173221D01*
X4157472Y422602D02*
Y556460D01*
Y422602D02*
X4173221D01*
X4212591D02*
X4228339D01*
Y556460D01*
X4212591D02*
X4228339D01*
X802000Y741536D02*
Y757284D01*
X797079Y741536D02*
Y757284D01*
X734086D02*
X797079D01*
X734086Y752363D02*
Y757284D01*
X797079Y708072D02*
X802000D01*
X797079Y723820D02*
X802000D01*
Y708072D02*
Y723820D01*
X797079Y708072D02*
Y723820D01*
X734086Y708072D02*
X797079D01*
X734086D02*
Y712993D01*
X797079Y757284D02*
X802000D01*
X797079Y741536D02*
X802000D01*
Y796962D02*
Y812710D01*
X797079Y796962D02*
Y812710D01*
X734086D02*
X797079D01*
X734086Y807788D02*
Y812710D01*
X797079Y763497D02*
X802000D01*
X797079Y779245D02*
X802000D01*
Y763497D02*
Y779245D01*
X797079Y763497D02*
Y779245D01*
X734086Y763497D02*
X797079D01*
X734086D02*
Y768418D01*
X797079Y812710D02*
X802000D01*
X797079Y796962D02*
X802000D01*
X1698315Y863630D02*
X1706189D01*
X1698315D02*
Y942370D01*
X1706189D01*
X1729811D02*
X1737685D01*
Y863630D02*
Y942370D01*
X1729811Y863630D02*
X1737685D01*
X1052898Y771308D02*
X1060772D01*
X1052898D02*
Y850048D01*
X1060772D01*
X1084393D02*
X1092267D01*
Y771308D02*
Y850048D01*
X1084393Y771308D02*
X1092267D01*
X779362Y819678D02*
Y859678D01*
X824362Y819678D02*
Y824678D01*
X734362Y819678D02*
X824362D01*
X734362D02*
Y824678D01*
Y854678D02*
Y859678D01*
X824362D01*
Y854678D02*
Y859678D01*
X778582Y661678D02*
Y701678D01*
X823582Y661678D02*
Y666678D01*
X733582Y661678D02*
X823582D01*
X733582D02*
Y666678D01*
Y696678D02*
Y701678D01*
X823582D01*
Y696678D02*
Y701678D01*
X970394Y954048D02*
X978268D01*
Y875308D02*
Y954048D01*
X970394Y875308D02*
X978268D01*
X938898D02*
X946771D01*
X938898D02*
Y954048D01*
X946771D01*
X813417Y868315D02*
Y876189D01*
X734677Y868315D02*
X813417D01*
X734677D02*
Y876189D01*
Y899811D02*
Y907685D01*
X813417D01*
Y899811D02*
Y907685D01*
X1084811Y927858D02*
X1092685D01*
Y849118D02*
Y927858D01*
X1084811Y849118D02*
X1092685D01*
X1053315D02*
X1061189D01*
X1053315D02*
Y927858D01*
X1061189D01*
X1736000Y997000D02*
X1743559D01*
Y1097000D01*
X1736000D02*
X1743559D01*
X1688441D02*
X1696000D01*
X1688441Y997000D02*
Y1097000D01*
Y997000D02*
X1696000D01*
X1688441Y1047000D02*
X1743559D01*
X1484063Y722683D02*
X1491937D01*
X1484063D02*
Y801423D01*
X1491937D01*
X1515559D02*
X1523433D01*
Y722683D02*
Y801423D01*
X1515559Y722683D02*
X1523433D01*
X1439063D02*
X1446937D01*
X1439063D02*
Y801423D01*
X1446937D01*
X1470559D02*
X1478433D01*
Y722683D02*
Y801423D01*
X1470559Y722683D02*
X1478433D01*
X1264000Y820000D02*
X1274000Y830000D01*
X1264000Y840000D02*
X1274000Y830000D01*
X1264000Y820000D02*
Y840000D01*
X1274000Y830000D02*
X1284000D01*
X1274000Y794567D02*
Y865433D01*
X1349000Y794567D02*
Y820000D01*
X1194000Y794567D02*
X1349000D01*
X1194000D02*
Y802441D01*
X1349000Y840000D02*
Y865433D01*
X1194000D02*
X1349000D01*
X1194000Y857559D02*
Y865433D01*
X1349000Y820000D02*
X1354000D01*
Y794567D02*
Y820000D01*
X1349000Y794567D02*
X1354000D01*
X1349000Y865433D02*
X1354000D01*
Y840000D02*
Y865433D01*
X1349000Y840000D02*
X1354000D01*
X1264000Y635000D02*
X1274000Y645000D01*
X1264000Y655000D02*
X1274000Y645000D01*
X1264000Y635000D02*
Y655000D01*
X1274000Y645000D02*
X1284000D01*
X1274000Y609567D02*
Y680433D01*
X1349000Y609567D02*
Y635000D01*
X1194000Y609567D02*
X1349000D01*
X1194000D02*
Y617441D01*
X1349000Y655000D02*
Y680433D01*
X1194000D02*
X1349000D01*
X1194000Y672559D02*
Y680433D01*
X1349000Y635000D02*
X1354000D01*
Y609567D02*
Y635000D01*
X1349000Y609567D02*
X1354000D01*
X1349000Y680433D02*
X1354000D01*
Y655000D02*
Y680433D01*
X1349000Y655000D02*
X1354000D01*
X1264000Y1021000D02*
X1274000Y1031000D01*
X1264000Y1041000D02*
X1274000Y1031000D01*
X1264000Y1021000D02*
Y1041000D01*
X1274000Y1031000D02*
X1284000D01*
X1274000Y995567D02*
Y1066433D01*
X1349000Y995567D02*
Y1021000D01*
X1194000Y995567D02*
X1349000D01*
X1194000D02*
Y1003441D01*
X1349000Y1041000D02*
Y1066433D01*
X1194000D02*
X1349000D01*
X1194000Y1058559D02*
Y1066433D01*
X1349000Y1021000D02*
X1354000D01*
Y995567D02*
Y1021000D01*
X1349000Y995567D02*
X1354000D01*
X1349000Y1066433D02*
X1354000D01*
Y1041000D02*
Y1066433D01*
X1349000Y1041000D02*
X1354000D01*
X1587283Y1209761D02*
X1595157D01*
Y1131020D02*
Y1209761D01*
X1587283Y1131020D02*
X1595157D01*
X1555787D02*
X1563661D01*
X1555787D02*
Y1209761D01*
X1563661D01*
X1542283D02*
X1550157D01*
Y1131020D02*
Y1209761D01*
X1542283Y1131020D02*
X1550157D01*
X1510787D02*
X1518661D01*
X1510787D02*
Y1209761D01*
X1518661D01*
X1497283D02*
X1505157D01*
Y1131020D02*
Y1209761D01*
X1497283Y1131020D02*
X1505157D01*
X1465787D02*
X1473661D01*
X1465787D02*
Y1209761D01*
X1473661D01*
X1440198Y664448D02*
Y672322D01*
X1518939D01*
Y664448D02*
Y672322D01*
Y632952D02*
Y640826D01*
X1440198Y632952D02*
X1518939D01*
X1440198D02*
Y640826D01*
Y619448D02*
Y627322D01*
X1518939D01*
Y619448D02*
Y627322D01*
Y587952D02*
Y595826D01*
X1440198Y587952D02*
X1518939D01*
X1440198D02*
Y595826D01*
X1634000Y494000D02*
Y534000D01*
X1679000Y494000D02*
Y499000D01*
X1589000Y494000D02*
X1679000D01*
X1589000D02*
Y499000D01*
Y529000D02*
Y534000D01*
X1679000D01*
Y529000D02*
Y534000D01*
X2371709Y875874D02*
X2381551D01*
X2371709Y688866D02*
Y875874D01*
Y688866D02*
X2381551D01*
X2450449D02*
X2460291D01*
Y875874D01*
X2450449D02*
X2460291D01*
X2371709Y782370D02*
X2460291D01*
X804421Y1119362D02*
X809421D01*
Y1209362D01*
X804421D02*
X809421D01*
X769421D02*
X774421D01*
X769421Y1119362D02*
Y1209362D01*
Y1119362D02*
X774421D01*
X769421Y1164362D02*
X809421D01*
X718000Y1208425D02*
X723000D01*
X718000Y1118425D02*
Y1208425D01*
Y1118425D02*
X723000D01*
X753000D02*
X758000D01*
Y1208425D01*
X753000D02*
X758000D01*
X718000Y1163425D02*
X758000D01*
X986000Y954370D02*
X993874D01*
X986000Y875630D02*
Y954370D01*
Y875630D02*
X993874D01*
X1017496D02*
X1025370D01*
Y954370D01*
X1017496D02*
X1025370D01*
X943205Y621016D02*
Y626016D01*
Y621016D02*
X1033205D01*
Y626016D01*
Y656016D02*
Y661016D01*
X943205D02*
X1033205D01*
X943205Y656016D02*
Y661016D01*
X988205Y621016D02*
Y661016D01*
X943165Y671016D02*
Y676016D01*
Y671016D02*
X1033165D01*
Y676016D01*
Y706016D02*
Y711016D01*
X943165D02*
X1033165D01*
X943165Y706016D02*
Y711016D01*
X988165Y671016D02*
Y711016D01*
X839583Y621016D02*
Y626016D01*
Y621016D02*
X929583D01*
Y626016D01*
Y656016D02*
Y661016D01*
X839583D02*
X929583D01*
X839583Y656016D02*
Y661016D01*
X884583Y621016D02*
Y661016D01*
X839583Y671016D02*
Y676016D01*
Y671016D02*
X929583D01*
Y676016D01*
Y706016D02*
Y711016D01*
X839583D02*
X929583D01*
X839583Y706016D02*
Y711016D01*
X884583Y671016D02*
Y711016D01*
X808212Y763993D02*
Y771867D01*
Y763993D02*
X886953D01*
Y771867D01*
Y795489D02*
Y803363D01*
X808212D02*
X886953D01*
X808212Y795489D02*
Y803363D01*
Y717655D02*
Y725529D01*
Y717655D02*
X886953D01*
Y725529D01*
Y749151D02*
Y757025D01*
X808212D02*
X886953D01*
X808212Y749151D02*
Y757025D01*
X891898Y954048D02*
X899771D01*
X891898Y875308D02*
Y954048D01*
Y875308D02*
X899771D01*
X923394D02*
X931268D01*
Y954048D01*
X923394D02*
X931268D01*
X1084393Y693630D02*
X1092267D01*
Y772370D01*
X1084393D02*
X1092267D01*
X1052898D02*
X1060772D01*
X1052898Y693630D02*
Y772370D01*
Y693630D02*
X1060772D01*
X1084393Y615630D02*
X1092267D01*
Y694370D01*
X1084393D02*
X1092267D01*
X1052898D02*
X1060772D01*
X1052898Y615630D02*
Y694370D01*
Y615630D02*
X1060772D01*
X2897504Y606449D02*
Y616291D01*
X2710496D02*
X2897504D01*
X2710496Y606449D02*
Y616291D01*
Y527709D02*
Y537551D01*
Y527709D02*
X2897504D01*
Y537551D01*
X2804000Y527709D02*
Y616291D01*
X2497000Y578000D02*
X2502000D01*
X2497000Y488000D02*
Y578000D01*
Y488000D02*
X2502000D01*
X2532000D02*
X2537000D01*
Y578000D01*
X2532000D02*
X2537000D01*
X2497000Y533000D02*
X2537000D01*
X2565370Y668811D02*
Y676685D01*
X2486630D02*
X2565370D01*
X2486630Y668811D02*
Y676685D01*
Y637315D02*
Y645189D01*
Y637315D02*
X2565370D01*
Y645189D01*
X2472937Y873866D02*
X2482425D01*
X2472937Y693314D02*
Y873866D01*
Y688314D02*
Y693314D01*
Y688314D02*
X2499000D01*
Y693314D01*
X2472937D02*
X2499000D01*
X2519000D02*
X2545063D01*
X2519000Y688314D02*
Y693314D01*
Y688314D02*
X2545063D01*
Y693314D01*
Y873866D01*
X2535575D02*
X2545063D01*
X2474000Y590858D02*
X2479000D01*
Y680858D01*
X2474000D02*
X2479000D01*
X2439000D02*
X2444000D01*
X2439000Y590858D02*
Y680858D01*
Y590858D02*
X2444000D01*
X2439000Y635858D02*
X2479000D01*
D95*
X2584457Y640520D02*
X2639575D01*
X2584457D02*
Y939732D01*
X2639575D01*
X2812803Y640520D02*
X2867921D01*
Y939732D01*
X2812803D02*
X2867921D01*
D96*
X4913000Y1204990D02*
X4922997D01*
X4917998D01*
Y1175000D01*
X4913000D01*
X4922997D01*
X4957985Y1199992D02*
X4952987Y1204990D01*
X4942990D01*
X4937992Y1199992D01*
Y1179998D01*
X4942990Y1175000D01*
X4952987D01*
X4957985Y1179998D01*
X4967982Y1204990D02*
X4987976D01*
Y1199992D01*
X4967982Y1179998D01*
Y1175000D01*
X4828010Y1010000D02*
X4848003D01*
X4858000Y1019997D01*
X4848003Y1029994D01*
X4828010D01*
X4833008Y1059984D02*
X4828010Y1054986D01*
Y1044989D01*
X4833008Y1039990D01*
X4838007D01*
X4843005Y1044989D01*
Y1054986D01*
X4848003Y1059984D01*
X4853002D01*
X4858000Y1054986D01*
Y1044989D01*
X4853002Y1039990D01*
X4828010Y1069981D02*
X4833008D01*
X4843005Y1079977D01*
X4833008Y1089974D01*
X4828010D01*
X4843005Y1079977D02*
X4858000D01*
X4833008Y1119964D02*
X4828010Y1114966D01*
Y1104969D01*
X4833008Y1099971D01*
X4838007D01*
X4843005Y1104969D01*
Y1114966D01*
X4848003Y1119964D01*
X4853002D01*
X4858000Y1114966D01*
Y1104969D01*
X4853002Y1099971D01*
X563994Y485992D02*
X558995Y490990D01*
X548998D01*
X544000Y485992D01*
Y465998D01*
X548998Y461000D01*
X558995D01*
X563994Y465998D01*
Y475995D01*
X553997D01*
X573990Y461000D02*
Y490990D01*
X593984Y461000D01*
Y490990D01*
X603981D02*
Y461000D01*
X618976D01*
X623974Y465998D01*
Y485992D01*
X618976Y490990D01*
X603981D01*
X3841010Y422000D02*
X3861003D01*
X3871000Y431997D01*
X3861003Y441993D01*
X3841010D01*
Y451990D02*
X3871000D01*
Y466986D01*
X3866002Y471984D01*
X3861003D01*
X3856005Y466986D01*
Y451990D01*
Y466986D01*
X3851006Y471984D01*
X3846008D01*
X3841010Y466986D01*
Y451990D01*
Y481981D02*
X3866002D01*
X3871000Y486979D01*
Y496976D01*
X3866002Y501974D01*
X3841010D01*
X3846008Y531964D02*
X3841010Y526966D01*
Y516969D01*
X3846008Y511971D01*
X3851006D01*
X3856005Y516969D01*
Y526966D01*
X3861003Y531964D01*
X3866002D01*
X3871000Y526966D01*
Y516969D01*
X3866002Y511971D01*
X4705159Y975409D02*
X4685166D01*
X4705159Y995403D01*
Y1000401D01*
X4700161Y1005400D01*
X4690164D01*
X4685166Y1000401D01*
X4735150D02*
X4730151Y1005400D01*
X4720154D01*
X4715156Y1000401D01*
Y995403D01*
X4720154Y990405D01*
X4730151D01*
X4735150Y985406D01*
Y980408D01*
X4730151Y975409D01*
X4720154D01*
X4715156Y980408D01*
X1382994Y819000D02*
X1363000D01*
X1382994Y838994D01*
Y843992D01*
X1377995Y848990D01*
X1367998D01*
X1363000Y843992D01*
X1774000Y795990D02*
X1793994D01*
X1783997D01*
Y766000D01*
X1803990D02*
Y785994D01*
X1813987Y795990D01*
X1823984Y785994D01*
Y766000D01*
Y780995D01*
X1803990D01*
X1853974Y790992D02*
X1848976Y795990D01*
X1838979D01*
X1833981Y790992D01*
Y770998D01*
X1838979Y766000D01*
X1848976D01*
X1853974Y770998D01*
Y780995D01*
X1843977D01*
X1913955Y790992D02*
X1908956Y795990D01*
X1898960D01*
X1893961Y790992D01*
Y770998D01*
X1898960Y766000D01*
X1908956D01*
X1913955Y770998D01*
X1938947Y795990D02*
X1928950D01*
X1923951Y790992D01*
Y770998D01*
X1928950Y766000D01*
X1938947D01*
X1943945Y770998D01*
Y790992D01*
X1938947Y795990D01*
X1953942Y766000D02*
Y795990D01*
X1973935Y766000D01*
Y795990D01*
X1983932Y766000D02*
Y795990D01*
X2003926Y766000D01*
Y795990D01*
X2033916D02*
X2013922D01*
Y766000D01*
X2033916D01*
X2013922Y780995D02*
X2023919D01*
X2063906Y790992D02*
X2058908Y795990D01*
X2048911D01*
X2043913Y790992D01*
Y770998D01*
X2048911Y766000D01*
X2058908D01*
X2063906Y770998D01*
X2073903Y795990D02*
X2093896D01*
X2083900D01*
Y766000D01*
X473993Y1029951D02*
X468995Y1034949D01*
X458998D01*
X454000Y1029951D01*
Y1009958D01*
X458998Y1004959D01*
X468995D01*
X473993Y1009958D01*
Y1019954D01*
X463997D01*
X483990Y1004959D02*
Y1034949D01*
X503984Y1004959D01*
Y1034949D01*
X513981D02*
Y1004959D01*
X528976D01*
X533974Y1009958D01*
Y1029951D01*
X528976Y1034949D01*
X513981D01*
X1362010Y501000D02*
X1382003D01*
X1392000Y510997D01*
X1382003Y520994D01*
X1362010D01*
X1367008Y550984D02*
X1362010Y545986D01*
Y535989D01*
X1367008Y530990D01*
X1372006D01*
X1377005Y535989D01*
Y545986D01*
X1382003Y550984D01*
X1387002D01*
X1392000Y545986D01*
Y535989D01*
X1387002Y530990D01*
X1362010Y560981D02*
X1367008D01*
X1377005Y570977D01*
X1367008Y580974D01*
X1362010D01*
X1377005Y570977D02*
X1392000D01*
X1367008Y610964D02*
X1362010Y605966D01*
Y595969D01*
X1367008Y590971D01*
X1372006D01*
X1377005Y595969D01*
Y605966D01*
X1382003Y610964D01*
X1387002D01*
X1392000Y605966D01*
Y595969D01*
X1387002Y590971D01*
X2409000Y966811D02*
X2413998Y971809D01*
X2423995D01*
X2428994Y966811D01*
Y961812D01*
X2423995Y956814D01*
X2418997D01*
X2423995D01*
X2428994Y951816D01*
Y946817D01*
X2423995Y941819D01*
X2413998D01*
X2409000Y946817D01*
X2438990Y971809D02*
Y951816D01*
X2448987Y941819D01*
X2458984Y951816D01*
Y971809D01*
X2468981Y966811D02*
X2473979Y971809D01*
X2483976D01*
X2488974Y966811D01*
Y961812D01*
X2483976Y956814D01*
X2478977D01*
X2483976D01*
X2488974Y951816D01*
Y946817D01*
X2483976Y941819D01*
X2473979D01*
X2468981Y946817D01*
X563994Y1143992D02*
X558995Y1148990D01*
X548998D01*
X544000Y1143992D01*
Y1138994D01*
X548998Y1133995D01*
X558995D01*
X563994Y1128997D01*
Y1123998D01*
X558995Y1119000D01*
X548998D01*
X544000Y1123998D01*
X593984Y1143992D02*
X588986Y1148990D01*
X578989D01*
X573990Y1143992D01*
Y1123998D01*
X578989Y1119000D01*
X588986D01*
X593984Y1123998D01*
X603981Y1148990D02*
Y1119000D01*
X623974D01*
X437993Y1144992D02*
X432995Y1149990D01*
X422998D01*
X418000Y1144992D01*
Y1139994D01*
X422998Y1134995D01*
X432995D01*
X437993Y1129997D01*
Y1124998D01*
X432995Y1120000D01*
X422998D01*
X418000Y1124998D01*
X447990Y1149990D02*
Y1120000D01*
X462986D01*
X467984Y1124998D01*
Y1144992D01*
X462986Y1149990D01*
X447990D01*
X477981Y1120000D02*
Y1139994D01*
X487977Y1149990D01*
X497974Y1139994D01*
Y1120000D01*
Y1134995D01*
X477981D01*
X547000Y1034949D02*
X556997D01*
X551998D01*
Y1004959D01*
X547000D01*
X556997D01*
X571992D02*
Y1034949D01*
X591985Y1004959D01*
Y1034949D01*
X601982D02*
X621976D01*
X611979D01*
Y1004959D01*
X1882337Y1236992D02*
X1887335Y1241990D01*
X1897332D01*
X1902330Y1236992D01*
Y1231994D01*
X1897332Y1226995D01*
X1892334D01*
X1897332D01*
X1902330Y1221997D01*
Y1216998D01*
X1897332Y1212000D01*
X1887335D01*
X1882337Y1216998D01*
X1912327Y1241990D02*
Y1221997D01*
X1922324Y1212000D01*
X1932321Y1221997D01*
Y1241990D01*
X1942317Y1236992D02*
X1947316Y1241990D01*
X1957313D01*
X1962311Y1236992D01*
Y1231994D01*
X1957313Y1226995D01*
X1952314D01*
X1957313D01*
X1962311Y1221997D01*
Y1216998D01*
X1957313Y1212000D01*
X1947316D01*
X1942317Y1216998D01*
X1365000Y1045401D02*
X1369998Y1050400D01*
X1379995D01*
X1384994Y1045401D01*
Y1040403D01*
X1379995Y1035405D01*
X1374997D01*
X1379995D01*
X1384994Y1030406D01*
Y1025408D01*
X1379995Y1020409D01*
X1369998D01*
X1365000Y1025408D01*
X4549000Y1005400D02*
Y975409D01*
X4563995D01*
X4568993Y980408D01*
Y985406D01*
X4563995Y990405D01*
X4549000D01*
X4563995D01*
X4568993Y995403D01*
Y1000401D01*
X4563995Y1005400D01*
X4549000D01*
X4578990Y975409D02*
Y995403D01*
X4588987Y1005400D01*
X4598984Y995403D01*
Y975409D01*
Y990405D01*
X4578990D01*
X4608981Y1005400D02*
X4628974D01*
X4618977D01*
Y975409D01*
X4638971Y1005400D02*
X4658964D01*
X4648968D01*
Y975409D01*
X1270000Y565000D02*
X1279997D01*
X1274998D01*
Y594990D01*
X1270000Y589992D01*
X1651000Y1106000D02*
X1621010D01*
Y1120995D01*
X1626008Y1125994D01*
X1636005D01*
X1641003Y1120995D01*
Y1106000D01*
X1621010Y1135990D02*
Y1145987D01*
Y1140989D01*
X1651000D01*
Y1135990D01*
Y1145987D01*
X1621010Y1180976D02*
Y1160982D01*
X1651000D01*
Y1180976D01*
X1636005Y1160982D02*
Y1170979D01*
X1621010Y1190973D02*
Y1210966D01*
X1626008D01*
X1646002Y1190973D01*
X1651000D01*
Y1210966D01*
X1621010Y1235958D02*
Y1225961D01*
X1626008Y1220963D01*
X1646002D01*
X1651000Y1225961D01*
Y1235958D01*
X1646002Y1240956D01*
X1626008D01*
X1621010Y1235958D01*
X1683994Y1236992D02*
X1678995Y1241990D01*
X1668998D01*
X1664000Y1236992D01*
Y1216998D01*
X1668998Y1212000D01*
X1678995D01*
X1683994Y1216998D01*
Y1226995D01*
X1673997D01*
X1693990Y1212000D02*
Y1241990D01*
X1713984Y1212000D01*
Y1241990D01*
X1723981D02*
Y1212000D01*
X1738976D01*
X1743974Y1216998D01*
Y1236992D01*
X1738976Y1241990D01*
X1723981D01*
X1800994Y1236992D02*
X1795995Y1241990D01*
X1785998D01*
X1781000Y1236992D01*
Y1231994D01*
X1785998Y1226995D01*
X1795995D01*
X1800994Y1221997D01*
Y1216998D01*
X1795995Y1212000D01*
X1785998D01*
X1781000Y1216998D01*
X1810990Y1241990D02*
X1820987D01*
X1815989D01*
Y1212000D01*
X1810990D01*
X1820987D01*
X1855976Y1236992D02*
X1850977Y1241990D01*
X1840981D01*
X1835982Y1236992D01*
Y1216998D01*
X1840981Y1212000D01*
X1850977D01*
X1855976Y1216998D01*
Y1226995D01*
X1845979D01*
X4288993Y961990D02*
X4278997D01*
X4283995D01*
Y936998D01*
X4278997Y932000D01*
X4273998D01*
X4269000Y936998D01*
X4318984Y932000D02*
X4298990D01*
X4318984Y951994D01*
Y956992D01*
X4313985Y961990D01*
X4303989D01*
X4298990Y956992D01*
X5459008Y731994D02*
X5454010Y726995D01*
Y716998D01*
X5459008Y712000D01*
X5479002D01*
X5484000Y716998D01*
Y726995D01*
X5479002Y731994D01*
X5454010Y741990D02*
Y761984D01*
X5459008D01*
X5479002Y741990D01*
X5484000D01*
Y771981D02*
Y781977D01*
Y776979D01*
X5454010D01*
X5459008Y771981D01*
X946000Y1156000D02*
X916010D01*
Y1170995D01*
X921008Y1175994D01*
X931005D01*
X936003Y1170995D01*
Y1156000D01*
Y1165997D02*
X946000Y1175994D01*
Y1200986D02*
X916010D01*
X931005Y1185990D01*
Y1205984D01*
X850000Y1155000D02*
X820010D01*
Y1169995D01*
X825008Y1174994D01*
X835005D01*
X840003Y1169995D01*
Y1155000D01*
Y1164997D02*
X850000Y1174994D01*
X825008Y1184990D02*
X820010Y1189989D01*
Y1199986D01*
X825008Y1204984D01*
X830006D01*
X835005Y1199986D01*
Y1194987D01*
Y1199986D01*
X840003Y1204984D01*
X845002D01*
X850000Y1199986D01*
Y1189989D01*
X845002Y1184990D01*
X1091000Y1155000D02*
X1061010D01*
Y1169995D01*
X1066008Y1174994D01*
X1076005D01*
X1081003Y1169995D01*
Y1155000D01*
Y1164997D02*
X1091000Y1174994D01*
Y1204984D02*
Y1184990D01*
X1071006Y1204984D01*
X1066008D01*
X1061010Y1199986D01*
Y1189989D01*
X1066008Y1184990D01*
X2702994Y1002992D02*
X2697995Y1007990D01*
X2687998D01*
X2683000Y1002992D01*
Y982998D01*
X2687998Y978000D01*
X2697995D01*
X2702994Y982998D01*
X2732984Y978000D02*
X2712990D01*
X2732984Y997994D01*
Y1002992D01*
X2727985Y1007990D01*
X2717989D01*
X2712990Y1002992D01*
X2315994Y1069992D02*
X2310995Y1074990D01*
X2300998D01*
X2296000Y1069992D01*
Y1049998D01*
X2300998Y1045000D01*
X2310995D01*
X2315994Y1049998D01*
X2325990Y1045000D02*
X2335987D01*
X2330989D01*
Y1074990D01*
X2325990Y1069992D01*
X1404000Y732000D02*
X1374010D01*
Y746995D01*
X1379008Y751994D01*
X1389005D01*
X1394003Y746995D01*
Y732000D01*
Y741997D02*
X1404000Y751994D01*
Y761990D02*
Y771987D01*
Y766989D01*
X1374010D01*
X1379008Y761990D01*
X704000Y1028861D02*
X674010D01*
Y1043856D01*
X679008Y1048855D01*
X689005D01*
X694003Y1043856D01*
Y1028861D01*
Y1038858D02*
X704000Y1048855D01*
Y1058851D02*
Y1068848D01*
Y1063850D01*
X674010D01*
X679008Y1058851D01*
X704000Y1103837D02*
Y1083843D01*
X684006Y1103837D01*
X679008D01*
X674010Y1098839D01*
Y1088842D01*
X679008Y1083843D01*
X2929000Y470990D02*
Y441000D01*
X2943995D01*
X2948994Y445998D01*
Y465992D01*
X2943995Y470990D01*
X2929000D01*
X2958990Y445998D02*
X2963989Y441000D01*
X2973985D01*
X2978984Y445998D01*
Y465992D01*
X2973985Y470990D01*
X2963989D01*
X2958990Y465992D01*
Y460993D01*
X2963989Y455995D01*
X2978984D01*
X2762000Y998990D02*
Y969000D01*
X2781994D01*
X2791990D02*
X2801987D01*
X2796989D01*
Y998990D01*
X2791990Y993992D01*
X3276000Y922000D02*
X3246010D01*
Y936995D01*
X3251008Y941994D01*
X3261005D01*
X3266003Y936995D01*
Y922000D01*
Y931997D02*
X3276000Y941994D01*
X3246010Y971984D02*
Y951990D01*
X3261005D01*
X3256006Y961987D01*
Y966986D01*
X3261005Y971984D01*
X3271002D01*
X3276000Y966986D01*
Y956989D01*
X3271002Y951990D01*
X3251008Y981981D02*
X3246010Y986979D01*
Y996976D01*
X3251008Y1001974D01*
X3271002D01*
X3276000Y996976D01*
Y986979D01*
X3271002Y981981D01*
X3251008D01*
X3930000Y948098D02*
Y923106D01*
X3934998Y918108D01*
X3944995D01*
X3949994Y923106D01*
Y948098D01*
X3974985Y918108D02*
Y948098D01*
X3959990Y933103D01*
X3979984D01*
X3219000Y954252D02*
X3189010D01*
Y969247D01*
X3194008Y974245D01*
X3204005D01*
X3209003Y969247D01*
Y954252D01*
Y964249D02*
X3219000Y974245D01*
X3189010Y984242D02*
Y1004236D01*
X3194008D01*
X3214002Y984242D01*
X3219000D01*
X3189010Y1034226D02*
Y1014232D01*
X3204005D01*
X3199006Y1024229D01*
Y1029228D01*
X3204005Y1034226D01*
X3214002D01*
X3219000Y1029228D01*
Y1019231D01*
X3214002Y1014232D01*
X3274000Y1084000D02*
X3244010D01*
Y1098995D01*
X3249008Y1103994D01*
X3259005D01*
X3264003Y1098995D01*
Y1084000D01*
Y1093997D02*
X3274000Y1103994D01*
X3244010Y1113990D02*
Y1133984D01*
X3249008D01*
X3269002Y1113990D01*
X3274000D01*
Y1158976D02*
X3244010D01*
X3259005Y1143981D01*
Y1163974D01*
X4861000Y679882D02*
X4831010D01*
Y694877D01*
X4836008Y699875D01*
X4846005D01*
X4851003Y694877D01*
Y679882D01*
Y689879D02*
X4861000Y699875D01*
X4831010Y709872D02*
Y729866D01*
X4836008D01*
X4856002Y709872D01*
X4861000D01*
X4836008Y739862D02*
X4831010Y744861D01*
Y754858D01*
X4836008Y759856D01*
X4841007D01*
X4846005Y754858D01*
Y749859D01*
Y754858D01*
X4851003Y759856D01*
X4856002D01*
X4861000Y754858D01*
Y744861D01*
X4856002Y739862D01*
X3855000Y717000D02*
X3825010D01*
Y731995D01*
X3830008Y736994D01*
X3840005D01*
X3845003Y731995D01*
Y717000D01*
Y726997D02*
X3855000Y736994D01*
X3825010Y746990D02*
Y766984D01*
X3830008D01*
X3850002Y746990D01*
X3855000D01*
Y776981D02*
Y786977D01*
Y781979D01*
X3825010D01*
X3830008Y776981D01*
X3962000Y560732D02*
Y590723D01*
X3976995D01*
X3981994Y585724D01*
Y575727D01*
X3976995Y570729D01*
X3962000D01*
X3971997D02*
X3981994Y560732D01*
X3991990Y590723D02*
X4011984D01*
Y585724D01*
X3991990Y565731D01*
Y560732D01*
X4021981Y585724D02*
X4026979Y590723D01*
X4036976D01*
X4041974Y585724D01*
Y565731D01*
X4036976Y560732D01*
X4026979D01*
X4021981Y565731D01*
Y585724D01*
X4549000Y933630D02*
Y963620D01*
X4563995D01*
X4568993Y958622D01*
Y948625D01*
X4563995Y943627D01*
X4549000D01*
X4558997D02*
X4568993Y933630D01*
X4598984Y963620D02*
X4588987Y958622D01*
X4578990Y948625D01*
Y938628D01*
X4583989Y933630D01*
X4593985D01*
X4598984Y938628D01*
Y943627D01*
X4593985Y948625D01*
X4578990D01*
X4608981Y938628D02*
X4613979Y933630D01*
X4623976D01*
X4628974Y938628D01*
Y958622D01*
X4623976Y963620D01*
X4613979D01*
X4608981Y958622D01*
Y953624D01*
X4613979Y948625D01*
X4628974D01*
X3677000Y1150000D02*
X3647010D01*
Y1164995D01*
X3652008Y1169994D01*
X3662005D01*
X3667003Y1164995D01*
Y1150000D01*
Y1159997D02*
X3677000Y1169994D01*
X3647010Y1199984D02*
X3652008Y1189987D01*
X3662005Y1179990D01*
X3672002D01*
X3677000Y1184989D01*
Y1194986D01*
X3672002Y1199984D01*
X3667003D01*
X3662005Y1194986D01*
Y1179990D01*
X3647010Y1209981D02*
Y1229974D01*
X3652008D01*
X3672002Y1209981D01*
X3677000D01*
X3678000Y832000D02*
X3648010D01*
Y846995D01*
X3653008Y851994D01*
X3663005D01*
X3668003Y846995D01*
Y832000D01*
Y841997D02*
X3678000Y851994D01*
X3648010Y881984D02*
X3653008Y871987D01*
X3663005Y861990D01*
X3673002D01*
X3678000Y866989D01*
Y876986D01*
X3673002Y881984D01*
X3668003D01*
X3663005Y876986D01*
Y861990D01*
X3648010Y911974D02*
X3653008Y901977D01*
X3663005Y891981D01*
X3673002D01*
X3678000Y896979D01*
Y906976D01*
X3673002Y911974D01*
X3668003D01*
X3663005Y906976D01*
Y891981D01*
X3428000Y884000D02*
Y913990D01*
X3442995D01*
X3447994Y908992D01*
Y898995D01*
X3442995Y893997D01*
X3428000D01*
X3437997D02*
X3447994Y884000D01*
X3477984Y913990D02*
X3467987Y908992D01*
X3457990Y898995D01*
Y888998D01*
X3462989Y884000D01*
X3472985D01*
X3477984Y888998D01*
Y893997D01*
X3472985Y898995D01*
X3457990D01*
X3507974Y913990D02*
X3487981D01*
Y898995D01*
X3497977Y903994D01*
X3502976D01*
X3507974Y898995D01*
Y888998D01*
X3502976Y884000D01*
X3492979D01*
X3487981Y888998D01*
X3789290Y1150709D02*
X3759300D01*
Y1165704D01*
X3764298Y1170702D01*
X3774295D01*
X3779293Y1165704D01*
Y1150709D01*
Y1160706D02*
X3789290Y1170702D01*
X3759300Y1200693D02*
X3764298Y1190696D01*
X3774295Y1180699D01*
X3784291D01*
X3789290Y1185697D01*
Y1195694D01*
X3784291Y1200693D01*
X3779293D01*
X3774295Y1195694D01*
Y1180699D01*
X3789290Y1225685D02*
X3759300D01*
X3774295Y1210689D01*
Y1230683D01*
X3531000Y1189811D02*
Y1219801D01*
X3545995D01*
X3550994Y1214803D01*
Y1204806D01*
X3545995Y1199808D01*
X3531000D01*
X3540997D02*
X3550994Y1189811D01*
X3580984Y1219801D02*
X3570987Y1214803D01*
X3560990Y1204806D01*
Y1194809D01*
X3565989Y1189811D01*
X3575985D01*
X3580984Y1194809D01*
Y1199808D01*
X3575985Y1204806D01*
X3560990D01*
X3590981Y1214803D02*
X3595979Y1219801D01*
X3605976D01*
X3610974Y1214803D01*
Y1209804D01*
X3605976Y1204806D01*
X3600977D01*
X3605976D01*
X3610974Y1199808D01*
Y1194809D01*
X3605976Y1189811D01*
X3595979D01*
X3590981Y1194809D01*
X3681000Y423000D02*
X3651010D01*
Y437995D01*
X3656008Y442993D01*
X3666005D01*
X3671003Y437995D01*
Y423000D01*
Y432997D02*
X3681000Y442993D01*
X3651010Y472984D02*
X3656008Y462987D01*
X3666005Y452990D01*
X3676002D01*
X3681000Y457989D01*
Y467986D01*
X3676002Y472984D01*
X3671003D01*
X3666005Y467986D01*
Y452990D01*
X3681000Y502974D02*
Y482981D01*
X3661006Y502974D01*
X3656008D01*
X3651010Y497976D01*
Y487979D01*
X3656008Y482981D01*
X3500000Y641000D02*
Y670990D01*
X3514995D01*
X3519994Y665992D01*
Y655995D01*
X3514995Y650997D01*
X3500000D01*
X3509997D02*
X3519994Y641000D01*
X3549984Y670990D02*
X3539987Y665992D01*
X3529990Y655995D01*
Y645998D01*
X3534989Y641000D01*
X3544985D01*
X3549984Y645998D01*
Y650997D01*
X3544985Y655995D01*
X3529990D01*
X3559981Y641000D02*
X3569977D01*
X3564979D01*
Y670990D01*
X3559981Y665992D01*
X3621000Y422000D02*
X3591010D01*
Y436995D01*
X3596008Y441993D01*
X3606005D01*
X3611003Y436995D01*
Y422000D01*
Y431997D02*
X3621000Y441993D01*
X3591010Y471984D02*
X3596008Y461987D01*
X3606005Y451990D01*
X3616002D01*
X3621000Y456989D01*
Y466986D01*
X3616002Y471984D01*
X3611003D01*
X3606005Y466986D01*
Y451990D01*
X3596008Y481981D02*
X3591010Y486979D01*
Y496976D01*
X3596008Y501974D01*
X3616002D01*
X3621000Y496976D01*
Y486979D01*
X3616002Y481981D01*
X3596008D01*
X3429000Y977000D02*
Y1006990D01*
X3443995D01*
X3448994Y1001992D01*
Y991995D01*
X3443995Y986997D01*
X3429000D01*
X3438997D02*
X3448994Y977000D01*
X3478984Y1006990D02*
X3458990D01*
Y991995D01*
X3468987Y996994D01*
X3473985D01*
X3478984Y991995D01*
Y981998D01*
X3473985Y977000D01*
X3463989D01*
X3458990Y981998D01*
X3488981Y1001992D02*
X3493979Y1006990D01*
X3503976D01*
X3508974Y1001992D01*
Y996994D01*
X3503976Y991995D01*
X3508974Y986997D01*
Y981998D01*
X3503976Y977000D01*
X3493979D01*
X3488981Y981998D01*
Y986997D01*
X3493979Y991995D01*
X3488981Y996994D01*
Y1001992D01*
X3493979Y991995D02*
X3503976D01*
X3759691Y961000D02*
Y990990D01*
X3774686D01*
X3779685Y985992D01*
Y975995D01*
X3774686Y970997D01*
X3759691D01*
X3769688D02*
X3779685Y961000D01*
X3809675Y990990D02*
X3789682D01*
Y975995D01*
X3799678Y980994D01*
X3804677D01*
X3809675Y975995D01*
Y965998D01*
X3804677Y961000D01*
X3794680D01*
X3789682Y965998D01*
X3819672Y990990D02*
X3839665D01*
Y985992D01*
X3819672Y965998D01*
Y961000D01*
X3691898Y685464D02*
Y715454D01*
X3706893D01*
X3711892Y710456D01*
Y700459D01*
X3706893Y695461D01*
X3691898D01*
X3701895D02*
X3711892Y685464D01*
X3741882Y715454D02*
X3721888D01*
Y700459D01*
X3731885Y705458D01*
X3736884D01*
X3741882Y700459D01*
Y690462D01*
X3736884Y685464D01*
X3726887D01*
X3721888Y690462D01*
X3771872Y715454D02*
X3761876Y710456D01*
X3751879Y700459D01*
Y690462D01*
X3756877Y685464D01*
X3766874D01*
X3771872Y690462D01*
Y695461D01*
X3766874Y700459D01*
X3751879D01*
X3493000Y794000D02*
Y823990D01*
X3507995D01*
X3512994Y818992D01*
Y808995D01*
X3507995Y803997D01*
X3493000D01*
X3502997D02*
X3512994Y794000D01*
X3542984Y823990D02*
X3522990D01*
Y808995D01*
X3532987Y813994D01*
X3537985D01*
X3542984Y808995D01*
Y798998D01*
X3537985Y794000D01*
X3527989D01*
X3522990Y798998D01*
X3572974Y823990D02*
X3552981D01*
Y808995D01*
X3562977Y813994D01*
X3567976D01*
X3572974Y808995D01*
Y798998D01*
X3567976Y794000D01*
X3557979D01*
X3552981Y798998D01*
X3793000Y749000D02*
X3763010D01*
Y763995D01*
X3768008Y768994D01*
X3778005D01*
X3783003Y763995D01*
Y749000D01*
Y758997D02*
X3793000Y768994D01*
X3763010Y798984D02*
Y778990D01*
X3778005D01*
X3773006Y788987D01*
Y793986D01*
X3778005Y798984D01*
X3788002D01*
X3793000Y793986D01*
Y783989D01*
X3788002Y778990D01*
X3793000Y823976D02*
X3763010D01*
X3778005Y808981D01*
Y828974D01*
X3321000Y923000D02*
X3291010D01*
Y937995D01*
X3296008Y942994D01*
X3306005D01*
X3311003Y937995D01*
Y923000D01*
Y932997D02*
X3321000Y942994D01*
X3291010Y972984D02*
Y952990D01*
X3306005D01*
X3301006Y962987D01*
Y967986D01*
X3306005Y972984D01*
X3316002D01*
X3321000Y967986D01*
Y957989D01*
X3316002Y952990D01*
X3321000Y982981D02*
Y992977D01*
Y987979D01*
X3291010D01*
X3296008Y982981D01*
X5933000Y1125990D02*
Y1096000D01*
X5952993D01*
X5977985D02*
Y1125990D01*
X5962990Y1110995D01*
X5982984D01*
X5412000Y1130990D02*
X5421997D01*
X5416998D01*
Y1101000D01*
X5412000D01*
X5421997D01*
X5456985Y1125992D02*
X5451987Y1130990D01*
X5441990D01*
X5436992Y1125992D01*
Y1105998D01*
X5441990Y1101000D01*
X5451987D01*
X5456985Y1105998D01*
X5486976Y1130990D02*
X5476979Y1125992D01*
X5466982Y1115995D01*
Y1105998D01*
X5471981Y1101000D01*
X5481977D01*
X5486976Y1105998D01*
Y1110997D01*
X5481977Y1115995D01*
X5466982D01*
X5407000Y547990D02*
X5416997D01*
X5411998D01*
Y518000D01*
X5407000D01*
X5416997D01*
X5451985Y542992D02*
X5446987Y547990D01*
X5436990D01*
X5431992Y542992D01*
Y522998D01*
X5436990Y518000D01*
X5446987D01*
X5451985Y522998D01*
X5481976Y547990D02*
X5461982D01*
Y532995D01*
X5471979Y537994D01*
X5476977D01*
X5481976Y532995D01*
Y522998D01*
X5476977Y518000D01*
X5466981D01*
X5461982Y522998D01*
X5119010Y773000D02*
Y782997D01*
Y777998D01*
X5149000D01*
Y773000D01*
Y782997D01*
X5124008Y817985D02*
X5119010Y812987D01*
Y802990D01*
X5124008Y797992D01*
X5144002D01*
X5149000Y802990D01*
Y812987D01*
X5144002Y817985D01*
X5149000Y842977D02*
X5119010D01*
X5134005Y827982D01*
Y847976D01*
X4824993Y445992D02*
X4819995Y450990D01*
X4809998D01*
X4805000Y445992D01*
Y425998D01*
X4809998Y421000D01*
X4819995D01*
X4824993Y425998D01*
X4834990Y450990D02*
X4854984D01*
Y445992D01*
X4834990Y425998D01*
Y421000D01*
X4864981Y445992D02*
X4869979Y450990D01*
X4879976D01*
X4884974Y445992D01*
Y440993D01*
X4879976Y435995D01*
X4884974Y430997D01*
Y425998D01*
X4879976Y421000D01*
X4869979D01*
X4864981Y425998D01*
Y430997D01*
X4869979Y435995D01*
X4864981Y440993D01*
Y445992D01*
X4869979Y435995D02*
X4879976D01*
X5600008Y1178994D02*
X5595010Y1173995D01*
Y1163998D01*
X5600008Y1159000D01*
X5620002D01*
X5625000Y1163998D01*
Y1173995D01*
X5620002Y1178994D01*
X5595010Y1188990D02*
Y1208984D01*
X5600008D01*
X5620002Y1188990D01*
X5625000D01*
X5595010Y1218981D02*
Y1238974D01*
X5600008D01*
X5620002Y1218981D01*
X5625000D01*
X5558008Y1178994D02*
X5553010Y1173995D01*
Y1163998D01*
X5558008Y1159000D01*
X5578002D01*
X5583000Y1163998D01*
Y1173995D01*
X5578002Y1178994D01*
X5553010Y1188990D02*
Y1208984D01*
X5558008D01*
X5578002Y1188990D01*
X5583000D01*
X5553010Y1238974D02*
X5558008Y1228977D01*
X5568005Y1218981D01*
X5578002D01*
X5583000Y1223979D01*
Y1233976D01*
X5578002Y1238974D01*
X5573003D01*
X5568005Y1233976D01*
Y1218981D01*
X5865008Y1176994D02*
X5860010Y1171995D01*
Y1161998D01*
X5865008Y1157000D01*
X5885002D01*
X5890000Y1161998D01*
Y1171995D01*
X5885002Y1176994D01*
X5860010Y1186990D02*
Y1206984D01*
X5865008D01*
X5885002Y1186990D01*
X5890000D01*
X5860010Y1236974D02*
Y1216981D01*
X5875005D01*
X5870007Y1226977D01*
Y1231976D01*
X5875005Y1236974D01*
X5885002D01*
X5890000Y1231976D01*
Y1221979D01*
X5885002Y1216981D01*
X5908008Y1176994D02*
X5903010Y1171995D01*
Y1161998D01*
X5908008Y1157000D01*
X5928002D01*
X5933000Y1161998D01*
Y1171995D01*
X5928002Y1176994D01*
X5903010Y1186990D02*
Y1206984D01*
X5908008D01*
X5928002Y1186990D01*
X5933000D01*
Y1231976D02*
X5903010D01*
X5918005Y1216981D01*
Y1236974D01*
X5951008Y1176994D02*
X5946010Y1171995D01*
Y1161998D01*
X5951008Y1157000D01*
X5971002D01*
X5976000Y1161998D01*
Y1171995D01*
X5971002Y1176994D01*
X5946010Y1186990D02*
Y1206984D01*
X5951008D01*
X5971002Y1186990D01*
X5976000D01*
X5951008Y1216981D02*
X5946010Y1221979D01*
Y1231976D01*
X5951008Y1236974D01*
X5956007D01*
X5961005Y1231976D01*
Y1226977D01*
Y1231976D01*
X5966003Y1236974D01*
X5971002D01*
X5976000Y1231976D01*
Y1221979D01*
X5971002Y1216981D01*
X5642008Y1178994D02*
X5637010Y1173995D01*
Y1163998D01*
X5642008Y1159000D01*
X5662002D01*
X5667000Y1163998D01*
Y1173995D01*
X5662002Y1178994D01*
X5637010Y1188990D02*
Y1208984D01*
X5642008D01*
X5662002Y1188990D01*
X5667000D01*
Y1238974D02*
Y1218981D01*
X5647007Y1238974D01*
X5642008D01*
X5637010Y1233976D01*
Y1223979D01*
X5642008Y1218981D01*
X5516008Y1177994D02*
X5511010Y1172995D01*
Y1162998D01*
X5516008Y1158000D01*
X5536002D01*
X5541000Y1162998D01*
Y1172995D01*
X5536002Y1177994D01*
X5511010Y1187990D02*
Y1207984D01*
X5516008D01*
X5536002Y1187990D01*
X5541000D01*
X5516008Y1217981D02*
X5511010Y1222979D01*
Y1232976D01*
X5516008Y1237974D01*
X5536002D01*
X5541000Y1232976D01*
Y1222979D01*
X5536002Y1217981D01*
X5516008D01*
X5543008Y731994D02*
X5538010Y726995D01*
Y716998D01*
X5543008Y712000D01*
X5563002D01*
X5568000Y716998D01*
Y726995D01*
X5563002Y731994D01*
X5538010Y761984D02*
X5543008Y751987D01*
X5553005Y741990D01*
X5563002D01*
X5568000Y746989D01*
Y756986D01*
X5563002Y761984D01*
X5558003D01*
X5553005Y756986D01*
Y741990D01*
X5563002Y771981D02*
X5568000Y776979D01*
Y786976D01*
X5563002Y791974D01*
X5543008D01*
X5538010Y786976D01*
Y776979D01*
X5543008Y771981D01*
X5548007D01*
X5553005Y776979D01*
Y791974D01*
X5501008Y731994D02*
X5496010Y726995D01*
Y716998D01*
X5501008Y712000D01*
X5521002D01*
X5526000Y716998D01*
Y726995D01*
X5521002Y731994D01*
X5496010Y761984D02*
X5501008Y751987D01*
X5511005Y741990D01*
X5521002D01*
X5526000Y746989D01*
Y756986D01*
X5521002Y761984D01*
X5516003D01*
X5511005Y756986D01*
Y741990D01*
X5501008Y771981D02*
X5496010Y776979D01*
Y786976D01*
X5501008Y791974D01*
X5506007D01*
X5511005Y786976D01*
X5516003Y791974D01*
X5521002D01*
X5526000Y786976D01*
Y776979D01*
X5521002Y771981D01*
X5516003D01*
X5511005Y776979D01*
X5506007Y771981D01*
X5501008D01*
X5511005Y776979D02*
Y786976D01*
X4075994Y614992D02*
X4070995Y619990D01*
X4060998D01*
X4056000Y614992D01*
Y594998D01*
X4060998Y590000D01*
X4070995D01*
X4075994Y594998D01*
X4105984Y619990D02*
X4095987Y614992D01*
X4085990Y604995D01*
Y594998D01*
X4090989Y590000D01*
X4100985D01*
X4105984Y594998D01*
Y599997D01*
X4100985Y604995D01*
X4085990D01*
X4115981Y619990D02*
X4135974D01*
Y614992D01*
X4115981Y594998D01*
Y590000D01*
X5010008Y1180994D02*
X5005010Y1175995D01*
Y1165998D01*
X5010008Y1161000D01*
X5030002D01*
X5035000Y1165998D01*
Y1175995D01*
X5030002Y1180994D01*
X5005010Y1210984D02*
X5010008Y1200987D01*
X5020005Y1190990D01*
X5030002D01*
X5035000Y1195989D01*
Y1205986D01*
X5030002Y1210984D01*
X5025003D01*
X5020005Y1205986D01*
Y1190990D01*
X5005010Y1240974D02*
X5010008Y1230977D01*
X5020005Y1220981D01*
X5030002D01*
X5035000Y1225979D01*
Y1235976D01*
X5030002Y1240974D01*
X5025003D01*
X5020005Y1235976D01*
Y1220981D01*
X3336008Y1104994D02*
X3331010Y1099995D01*
Y1089998D01*
X3336008Y1085000D01*
X3356002D01*
X3361000Y1089998D01*
Y1099995D01*
X3356002Y1104994D01*
X3331010Y1134984D02*
X3336008Y1124987D01*
X3346005Y1114990D01*
X3356002D01*
X3361000Y1119989D01*
Y1129986D01*
X3356002Y1134984D01*
X3351003D01*
X3346005Y1129986D01*
Y1114990D01*
X3331010Y1164974D02*
Y1144981D01*
X3346005D01*
X3341006Y1154977D01*
Y1159976D01*
X3346005Y1164974D01*
X3356002D01*
X3361000Y1159976D01*
Y1149979D01*
X3356002Y1144981D01*
X3203008Y1103994D02*
X3198010Y1098995D01*
Y1088998D01*
X3203008Y1084000D01*
X3223002D01*
X3228000Y1088998D01*
Y1098995D01*
X3223002Y1103994D01*
X3198010Y1133984D02*
X3203008Y1123987D01*
X3213005Y1113990D01*
X3223002D01*
X3228000Y1118989D01*
Y1128986D01*
X3223002Y1133984D01*
X3218003D01*
X3213005Y1128986D01*
Y1113990D01*
X3228000Y1158976D02*
X3198010D01*
X3213005Y1143981D01*
Y1163974D01*
X4922993Y437992D02*
X4917995Y442990D01*
X4907998D01*
X4903000Y437992D01*
Y417998D01*
X4907998Y413000D01*
X4917995D01*
X4922993Y417998D01*
X4952984Y442990D02*
X4942987Y437992D01*
X4932990Y427995D01*
Y417998D01*
X4937989Y413000D01*
X4947985D01*
X4952984Y417998D01*
Y422997D01*
X4947985Y427995D01*
X4932990D01*
X4962981Y437992D02*
X4967979Y442990D01*
X4977976D01*
X4982974Y437992D01*
Y432993D01*
X4977976Y427995D01*
X4972977D01*
X4977976D01*
X4982974Y422997D01*
Y417998D01*
X4977976Y413000D01*
X4967979D01*
X4962981Y417998D01*
X3292008Y1104994D02*
X3287010Y1099995D01*
Y1089998D01*
X3292008Y1085000D01*
X3312002D01*
X3317000Y1089998D01*
Y1099995D01*
X3312002Y1104994D01*
X3287010Y1134984D02*
X3292008Y1124987D01*
X3302005Y1114990D01*
X3312002D01*
X3317000Y1119989D01*
Y1129986D01*
X3312002Y1134984D01*
X3307003D01*
X3302005Y1129986D01*
Y1114990D01*
X3317000Y1164974D02*
Y1144981D01*
X3297006Y1164974D01*
X3292008D01*
X3287010Y1159976D01*
Y1149979D01*
X3292008Y1144981D01*
X5856993Y1120992D02*
X5851995Y1125990D01*
X5841998D01*
X5837000Y1120992D01*
Y1100998D01*
X5841998Y1096000D01*
X5851995D01*
X5856993Y1100998D01*
X5886984Y1125990D02*
X5876987Y1120992D01*
X5866990Y1110995D01*
Y1100998D01*
X5871989Y1096000D01*
X5881985D01*
X5886984Y1100998D01*
Y1105997D01*
X5881985Y1110995D01*
X5866990D01*
X5896981Y1096000D02*
X5906977D01*
X5901979D01*
Y1125990D01*
X5896981Y1120992D01*
X5826993Y547992D02*
X5821995Y552990D01*
X5811998D01*
X5807000Y547992D01*
Y527998D01*
X5811998Y523000D01*
X5821995D01*
X5826993Y527998D01*
X5856984Y552990D02*
X5846987Y547992D01*
X5836990Y537995D01*
Y527998D01*
X5841989Y523000D01*
X5851985D01*
X5856984Y527998D01*
Y532997D01*
X5851985Y537995D01*
X5836990D01*
X5866981Y547992D02*
X5871979Y552990D01*
X5881976D01*
X5886974Y547992D01*
Y527998D01*
X5881976Y523000D01*
X5871979D01*
X5866981Y527998D01*
Y547992D01*
X4923993Y481992D02*
X4918995Y486990D01*
X4908998D01*
X4904000Y481992D01*
Y461998D01*
X4908998Y457000D01*
X4918995D01*
X4923993Y461998D01*
X4953984Y486990D02*
X4933990D01*
Y471995D01*
X4943987Y476993D01*
X4948985D01*
X4953984Y471995D01*
Y461998D01*
X4948985Y457000D01*
X4938989D01*
X4933990Y461998D01*
X4963981D02*
X4968979Y457000D01*
X4978976D01*
X4983974Y461998D01*
Y481992D01*
X4978976Y486990D01*
X4968979D01*
X4963981Y481992D01*
Y476993D01*
X4968979Y471995D01*
X4983974D01*
X4922993Y524992D02*
X4917995Y529990D01*
X4907998D01*
X4903000Y524992D01*
Y504998D01*
X4907998Y500000D01*
X4917995D01*
X4922993Y504998D01*
X4952984Y529990D02*
X4932990D01*
Y514995D01*
X4942987Y519994D01*
X4947985D01*
X4952984Y514995D01*
Y504998D01*
X4947985Y500000D01*
X4937989D01*
X4932990Y504998D01*
X4962981Y524992D02*
X4967979Y529990D01*
X4977976D01*
X4982974Y524992D01*
Y519994D01*
X4977976Y514995D01*
X4982974Y509997D01*
Y504998D01*
X4977976Y500000D01*
X4967979D01*
X4962981Y504998D01*
Y509997D01*
X4967979Y514995D01*
X4962981Y519994D01*
Y524992D01*
X4967979Y514995D02*
X4977976D01*
X4798008Y699994D02*
X4793010Y694995D01*
Y684998D01*
X4798008Y680000D01*
X4818002D01*
X4823000Y684998D01*
Y694995D01*
X4818002Y699994D01*
X4793010Y729984D02*
Y709990D01*
X4808005D01*
X4803007Y719987D01*
Y724986D01*
X4808005Y729984D01*
X4818002D01*
X4823000Y724986D01*
Y714989D01*
X4818002Y709990D01*
X4793010Y739981D02*
Y759974D01*
X4798008D01*
X4818002Y739981D01*
X4823000D01*
X5961008Y434993D02*
X5956010Y429995D01*
Y419998D01*
X5961008Y415000D01*
X5981002D01*
X5986000Y419998D01*
Y429995D01*
X5981002Y434993D01*
X5956010Y464984D02*
Y444990D01*
X5971005D01*
X5966007Y454987D01*
Y459986D01*
X5971005Y464984D01*
X5981002D01*
X5986000Y459986D01*
Y449989D01*
X5981002Y444990D01*
X5956010Y494974D02*
X5961008Y484977D01*
X5971005Y474981D01*
X5981002D01*
X5986000Y479979D01*
Y489976D01*
X5981002Y494974D01*
X5976003D01*
X5971005Y489976D01*
Y474981D01*
X5917008Y433993D02*
X5912010Y428995D01*
Y418998D01*
X5917008Y414000D01*
X5937002D01*
X5942000Y418998D01*
Y428995D01*
X5937002Y433993D01*
X5912010Y463984D02*
Y443990D01*
X5927005D01*
X5922007Y453987D01*
Y458986D01*
X5927005Y463984D01*
X5937002D01*
X5942000Y458986D01*
Y448989D01*
X5937002Y443990D01*
X5912010Y493974D02*
Y473981D01*
X5927005D01*
X5922007Y483977D01*
Y488976D01*
X5927005Y493974D01*
X5937002D01*
X5942000Y488976D01*
Y478979D01*
X5937002Y473981D01*
X5872008Y433993D02*
X5867010Y428995D01*
Y418998D01*
X5872008Y414000D01*
X5892002D01*
X5897000Y418998D01*
Y428995D01*
X5892002Y433993D01*
X5867010Y463984D02*
Y443990D01*
X5882005D01*
X5877007Y453987D01*
Y458986D01*
X5882005Y463984D01*
X5892002D01*
X5897000Y458986D01*
Y448989D01*
X5892002Y443990D01*
X5897000Y488976D02*
X5867010D01*
X5882005Y473981D01*
Y493974D01*
X5702151Y435568D02*
X5697153Y430570D01*
Y420573D01*
X5702151Y415575D01*
X5722144D01*
X5727143Y420573D01*
Y430570D01*
X5722144Y435568D01*
X5697153Y465559D02*
Y445565D01*
X5712148D01*
X5707149Y455562D01*
Y460560D01*
X5712148Y465559D01*
X5722144D01*
X5727143Y460560D01*
Y450563D01*
X5722144Y445565D01*
X5702151Y475555D02*
X5697153Y480554D01*
Y490551D01*
X5702151Y495549D01*
X5707149D01*
X5712148Y490551D01*
Y485552D01*
Y490551D01*
X5717146Y495549D01*
X5722144D01*
X5727143Y490551D01*
Y480554D01*
X5722144Y475555D01*
X5655865Y435568D02*
X5650867Y430570D01*
Y420573D01*
X5655865Y415575D01*
X5675859D01*
X5680857Y420573D01*
Y430570D01*
X5675859Y435568D01*
X5650867Y465559D02*
Y445565D01*
X5665862D01*
X5660864Y455562D01*
Y460560D01*
X5665862Y465559D01*
X5675859D01*
X5680857Y460560D01*
Y450563D01*
X5675859Y445565D01*
X5680857Y495549D02*
Y475555D01*
X5660864Y495549D01*
X5655865D01*
X5650867Y490551D01*
Y480554D01*
X5655865Y475555D01*
X5609579Y435568D02*
X5604581Y430570D01*
Y420573D01*
X5609579Y415575D01*
X5629573D01*
X5634571Y420573D01*
Y430570D01*
X5629573Y435568D01*
X5604581Y465559D02*
Y445565D01*
X5619576D01*
X5614578Y455562D01*
Y460560D01*
X5619576Y465559D01*
X5629573D01*
X5634571Y460560D01*
Y450563D01*
X5629573Y445565D01*
X5634571Y475555D02*
Y485552D01*
Y480554D01*
X5604581D01*
X5609579Y475555D01*
X5563294Y435568D02*
X5558295Y430570D01*
Y420573D01*
X5563294Y415575D01*
X5583287D01*
X5588286Y420573D01*
Y430570D01*
X5583287Y435568D01*
X5558295Y465559D02*
Y445565D01*
X5573291D01*
X5568292Y455562D01*
Y460560D01*
X5573291Y465559D01*
X5583287D01*
X5588286Y460560D01*
Y450563D01*
X5583287Y445565D01*
X5563294Y475555D02*
X5558295Y480554D01*
Y490551D01*
X5563294Y495549D01*
X5583287D01*
X5588286Y490551D01*
Y480554D01*
X5583287Y475555D01*
X5563294D01*
X5517008Y435568D02*
X5512010Y430570D01*
Y420573D01*
X5517008Y415575D01*
X5537002D01*
X5542000Y420573D01*
Y430570D01*
X5537002Y435568D01*
X5542000Y460560D02*
X5512010D01*
X5527005Y445565D01*
Y465559D01*
X5537002Y475555D02*
X5542000Y480554D01*
Y490551D01*
X5537002Y495549D01*
X5517008D01*
X5512010Y490551D01*
Y480554D01*
X5517008Y475555D01*
X5522007D01*
X5527005Y480554D01*
Y495549D01*
X3902994Y693992D02*
X3897995Y698990D01*
X3887998D01*
X3883000Y693992D01*
Y673998D01*
X3887998Y669000D01*
X3897995D01*
X3902994Y673998D01*
X3927985Y669000D02*
Y698990D01*
X3912990Y683995D01*
X3932984D01*
X3942981Y693992D02*
X3947979Y698990D01*
X3957976D01*
X3962974Y693992D01*
Y688994D01*
X3957976Y683995D01*
X3962974Y678997D01*
Y673998D01*
X3957976Y669000D01*
X3947979D01*
X3942981Y673998D01*
Y678997D01*
X3947979Y683995D01*
X3942981Y688994D01*
Y693992D01*
X3947979Y683995D02*
X3957976D01*
X3262994Y1047992D02*
X3257995Y1052990D01*
X3247998D01*
X3243000Y1047992D01*
Y1027998D01*
X3247998Y1023000D01*
X3257995D01*
X3262994Y1027998D01*
X3287985Y1023000D02*
Y1052990D01*
X3272990Y1037995D01*
X3292984D01*
X3302981Y1052990D02*
X3322974D01*
Y1047992D01*
X3302981Y1027998D01*
Y1023000D01*
X4171008Y610033D02*
X4166010Y605034D01*
Y595038D01*
X4171008Y590039D01*
X4191002D01*
X4196000Y595038D01*
Y605034D01*
X4191002Y610033D01*
X4196000Y635025D02*
X4166010D01*
X4181005Y620030D01*
Y640023D01*
X4166010Y670013D02*
X4171008Y660017D01*
X4181005Y650020D01*
X4191002D01*
X4196000Y655018D01*
Y665015D01*
X4191002Y670013D01*
X4186003D01*
X4181005Y665015D01*
Y650020D01*
X4185993Y955100D02*
X4180995Y960098D01*
X4170998D01*
X4166000Y955100D01*
Y935106D01*
X4170998Y930108D01*
X4180995D01*
X4185993Y935106D01*
X4210985Y930108D02*
Y960098D01*
X4195990Y945103D01*
X4215984D01*
X4245974Y960098D02*
X4225981D01*
Y945103D01*
X4235977Y950101D01*
X4240976D01*
X4245974Y945103D01*
Y935106D01*
X4240976Y930108D01*
X4230979D01*
X4225981Y935106D01*
X4186993Y995992D02*
X4181995Y1000990D01*
X4171998D01*
X4167000Y995992D01*
Y975998D01*
X4171998Y971000D01*
X4181995D01*
X4186993Y975998D01*
X4211985Y971000D02*
Y1000990D01*
X4196990Y985995D01*
X4216984D01*
X4241976Y971000D02*
Y1000990D01*
X4226981Y985995D01*
X4246974D01*
X3710448Y1175188D02*
X3705449Y1170190D01*
Y1160193D01*
X3710448Y1155195D01*
X3730441D01*
X3735439Y1160193D01*
Y1170190D01*
X3730441Y1175188D01*
X3735439Y1200180D02*
X3705449D01*
X3720444Y1185185D01*
Y1205178D01*
X3710448Y1215175D02*
X3705449Y1220174D01*
Y1230170D01*
X3710448Y1235169D01*
X3715446D01*
X3720444Y1230170D01*
Y1225172D01*
Y1230170D01*
X3725443Y1235169D01*
X3730441D01*
X3735439Y1230170D01*
Y1220174D01*
X3730441Y1215175D01*
X3715008Y840994D02*
X3710010Y835995D01*
Y825998D01*
X3715008Y821000D01*
X3735002D01*
X3740000Y825998D01*
Y835995D01*
X3735002Y840994D01*
X3740000Y865986D02*
X3710010D01*
X3725005Y850990D01*
Y870984D01*
X3740000Y900974D02*
Y880981D01*
X3720006Y900974D01*
X3715008D01*
X3710010Y895976D01*
Y885979D01*
X3715008Y880981D01*
X3447994Y957315D02*
X3442995Y962313D01*
X3432998D01*
X3428000Y957315D01*
Y937321D01*
X3432998Y932323D01*
X3442995D01*
X3447994Y937321D01*
X3472985Y932323D02*
Y962313D01*
X3457990Y947318D01*
X3477984D01*
X3487981Y932323D02*
X3497977D01*
X3492979D01*
Y962313D01*
X3487981Y957315D01*
X3448994Y1047992D02*
X3443995Y1052990D01*
X3433998D01*
X3429000Y1047992D01*
Y1027998D01*
X3433998Y1023000D01*
X3443995D01*
X3448994Y1027998D01*
X3473985Y1023000D02*
Y1052990D01*
X3458990Y1037995D01*
X3478984D01*
X3488981Y1047992D02*
X3493979Y1052990D01*
X3503976D01*
X3508974Y1047992D01*
Y1027998D01*
X3503976Y1023000D01*
X3493979D01*
X3488981Y1027998D01*
Y1047992D01*
X3425008Y1088994D02*
X3420010Y1083995D01*
Y1073998D01*
X3425008Y1069000D01*
X3445002D01*
X3450000Y1073998D01*
Y1083995D01*
X3445002Y1088994D01*
X3425008Y1098990D02*
X3420010Y1103989D01*
Y1113986D01*
X3425008Y1118984D01*
X3430006D01*
X3435005Y1113986D01*
Y1108987D01*
Y1113986D01*
X3440003Y1118984D01*
X3445002D01*
X3450000Y1113986D01*
Y1103989D01*
X3445002Y1098990D01*
Y1128981D02*
X3450000Y1133979D01*
Y1143976D01*
X3445002Y1148974D01*
X3425008D01*
X3420010Y1143976D01*
Y1133979D01*
X3425008Y1128981D01*
X3430006D01*
X3435005Y1133979D01*
Y1148974D01*
X3745874Y472324D02*
X3740875Y467325D01*
Y457329D01*
X3745874Y452330D01*
X3765867D01*
X3770866Y457329D01*
Y467325D01*
X3765867Y472324D01*
X3745874Y482320D02*
X3740875Y487319D01*
Y497316D01*
X3745874Y502314D01*
X3750872D01*
X3755870Y497316D01*
Y492317D01*
Y497316D01*
X3760869Y502314D01*
X3765867D01*
X3770866Y497316D01*
Y487319D01*
X3765867Y482320D01*
X3745874Y512311D02*
X3740875Y517309D01*
Y527306D01*
X3745874Y532304D01*
X3750872D01*
X3755870Y527306D01*
X3760869Y532304D01*
X3765867D01*
X3770866Y527306D01*
Y517309D01*
X3765867Y512311D01*
X3760869D01*
X3755870Y517309D01*
X3750872Y512311D01*
X3745874D01*
X3755870Y517309D02*
Y527306D01*
X3699874Y474324D02*
X3694875Y469325D01*
Y459329D01*
X3699874Y454330D01*
X3719867D01*
X3724866Y459329D01*
Y469325D01*
X3719867Y474324D01*
X3699874Y484320D02*
X3694875Y489319D01*
Y499316D01*
X3699874Y504314D01*
X3704872D01*
X3709870Y499316D01*
Y494317D01*
Y499316D01*
X3714869Y504314D01*
X3719867D01*
X3724866Y499316D01*
Y489319D01*
X3719867Y484320D01*
X3694875Y514311D02*
Y534304D01*
X3699874D01*
X3719867Y514311D01*
X3724866D01*
X3555008Y718994D02*
X3550010Y713995D01*
Y703998D01*
X3555008Y699000D01*
X3575002D01*
X3580000Y703998D01*
Y713995D01*
X3575002Y718994D01*
X3555008Y728990D02*
X3550010Y733989D01*
Y743986D01*
X3555008Y748984D01*
X3560006D01*
X3565005Y743986D01*
Y738987D01*
Y743986D01*
X3570003Y748984D01*
X3575002D01*
X3580000Y743986D01*
Y733989D01*
X3575002Y728990D01*
X3550010Y778974D02*
X3555008Y768977D01*
X3565005Y758981D01*
X3575002D01*
X3580000Y763979D01*
Y773976D01*
X3575002Y778974D01*
X3570003D01*
X3565005Y773976D01*
Y758981D01*
X3690008Y717994D02*
X3685010Y712995D01*
Y702998D01*
X3690008Y698000D01*
X3710002D01*
X3715000Y702998D01*
Y712995D01*
X3710002Y717994D01*
X3715000Y727990D02*
Y737987D01*
Y732989D01*
X3685010D01*
X3690008Y727990D01*
Y752982D02*
X3685010Y757981D01*
Y767977D01*
X3690008Y772976D01*
X3695006D01*
X3700005Y767977D01*
X3705003Y772976D01*
X3710002D01*
X3715000Y767977D01*
Y757981D01*
X3710002Y752982D01*
X3705003D01*
X3700005Y757981D01*
X3695006Y752982D01*
X3690008D01*
X3700005Y757981D02*
Y767977D01*
X2598000Y469990D02*
Y444998D01*
X2602998Y440000D01*
X2612995D01*
X2617994Y444998D01*
Y469990D01*
X2627990Y464992D02*
X2632989Y469990D01*
X2642985D01*
X2647984Y464992D01*
Y459993D01*
X2642985Y454995D01*
X2637987D01*
X2642985D01*
X2647984Y449997D01*
Y444998D01*
X2642985Y440000D01*
X2632989D01*
X2627990Y444998D01*
X739000Y558990D02*
Y529000D01*
X753995D01*
X758994Y533998D01*
Y553992D01*
X753995Y558990D01*
X739000D01*
X768990Y553992D02*
X773989Y558990D01*
X783986D01*
X788984Y553992D01*
Y548994D01*
X783986Y543995D01*
X778987D01*
X783986D01*
X788984Y538997D01*
Y533998D01*
X783986Y529000D01*
X773989D01*
X768990Y533998D01*
X2596000Y1003990D02*
Y974000D01*
X2615994D01*
X2645984D02*
X2625990D01*
X2645984Y993994D01*
Y998992D01*
X2640985Y1003990D01*
X2630989D01*
X2625990Y998992D01*
X2149000Y859990D02*
X2158997D01*
X2153998D01*
Y830000D01*
X2149000D01*
X2158997D01*
X2193985Y854992D02*
X2188987Y859990D01*
X2178990D01*
X2173992Y854992D01*
Y834998D01*
X2178990Y830000D01*
X2188987D01*
X2193985Y834998D01*
X2203982Y854992D02*
X2208981Y859990D01*
X2218977D01*
X2223976Y854992D01*
Y849994D01*
X2218977Y844995D01*
X2213979D01*
X2218977D01*
X2223976Y839997D01*
Y834998D01*
X2218977Y830000D01*
X2208981D01*
X2203982Y834998D01*
X2321000Y1127990D02*
Y1098000D01*
X2335995D01*
X2340994Y1102998D01*
Y1122992D01*
X2335995Y1127990D01*
X2321000D01*
X2350990Y1098000D02*
X2360987D01*
X2355989D01*
Y1127990D01*
X2350990Y1122992D01*
X1373010Y884000D02*
X1398002D01*
X1403000Y888998D01*
Y898995D01*
X1398002Y903994D01*
X1373010D01*
Y933984D02*
Y913990D01*
X1388005D01*
X1383006Y923987D01*
Y928986D01*
X1388005Y933984D01*
X1398002D01*
X1403000Y928986D01*
Y918989D01*
X1398002Y913990D01*
X739000Y619000D02*
Y648990D01*
X753995D01*
X758994Y643992D01*
Y633995D01*
X753995Y628997D01*
X739000D01*
X748997D02*
X758994Y619000D01*
X768990Y643992D02*
X773989Y648990D01*
X783986D01*
X788984Y643992D01*
Y638994D01*
X783986Y633995D01*
X778987D01*
X783986D01*
X788984Y628997D01*
Y623998D01*
X783986Y619000D01*
X773989D01*
X768990Y623998D01*
X818974Y619000D02*
X798981D01*
X818974Y638994D01*
Y643992D01*
X813976Y648990D01*
X803979D01*
X798981Y643992D01*
X739000Y485000D02*
Y514990D01*
X753995D01*
X758994Y509992D01*
Y499995D01*
X753995Y494997D01*
X739000D01*
X748997D02*
X758994Y485000D01*
X768990Y509992D02*
X773989Y514990D01*
X783986D01*
X788984Y509992D01*
Y504993D01*
X783986Y499995D01*
X778987D01*
X783986D01*
X788984Y494997D01*
Y489998D01*
X783986Y485000D01*
X773989D01*
X768990Y489998D01*
X798981Y485000D02*
X808977D01*
X803979D01*
Y514990D01*
X798981Y509992D01*
X1642000Y454000D02*
Y483990D01*
X1656995D01*
X1661994Y478992D01*
Y468995D01*
X1656995Y463997D01*
X1642000D01*
X1651997D02*
X1661994Y454000D01*
X1671990Y478992D02*
X1676989Y483990D01*
X1686986D01*
X1691984Y478992D01*
Y473993D01*
X1686986Y468995D01*
X1681987D01*
X1686986D01*
X1691984Y463997D01*
Y458998D01*
X1686986Y454000D01*
X1676989D01*
X1671990Y458998D01*
X1701981Y478992D02*
X1706979Y483990D01*
X1716976D01*
X1721974Y478992D01*
Y458998D01*
X1716976Y454000D01*
X1706979D01*
X1701981Y458998D01*
Y478992D01*
X1783000Y1002211D02*
X1753010D01*
Y1017206D01*
X1758008Y1022204D01*
X1768005D01*
X1773003Y1017206D01*
Y1002211D01*
Y1012208D02*
X1783000Y1022204D01*
Y1052195D02*
Y1032201D01*
X1763006Y1052195D01*
X1758008D01*
X1753010Y1047196D01*
Y1037200D01*
X1758008Y1032201D01*
X1778002Y1062191D02*
X1783000Y1067190D01*
Y1077187D01*
X1778002Y1082185D01*
X1758008D01*
X1753010Y1077187D01*
Y1067190D01*
X1758008Y1062191D01*
X1763006D01*
X1768005Y1067190D01*
Y1082185D01*
X1436000Y447990D02*
X1445997D01*
X1440998D01*
Y418000D01*
X1436000D01*
X1445997D01*
X1480985Y442992D02*
X1475987Y447990D01*
X1465990D01*
X1460992Y442992D01*
Y422998D01*
X1465990Y418000D01*
X1475987D01*
X1480985Y422998D01*
X1510976Y418000D02*
X1490982D01*
X1510976Y437993D01*
Y442992D01*
X1505977Y447990D01*
X1495981D01*
X1490982Y442992D01*
X1702000Y527990D02*
X1711997D01*
X1706998D01*
Y498000D01*
X1702000D01*
X1711997D01*
X1746985Y522992D02*
X1741987Y527990D01*
X1731990D01*
X1726992Y522992D01*
Y502998D01*
X1731990Y498000D01*
X1741987D01*
X1746985Y502998D01*
X1756982Y498000D02*
X1766979D01*
X1761981D01*
Y527990D01*
X1756982Y522992D01*
X3085000Y469990D02*
Y440000D01*
X3099995D01*
X3104994Y444998D01*
Y464992D01*
X3099995Y469990D01*
X3085000D01*
X3114990Y440000D02*
X3124987D01*
X3119989D01*
Y469990D01*
X3114990Y464992D01*
X3139982D02*
X3144981Y469990D01*
X3154977D01*
X3159976Y464992D01*
Y444998D01*
X3154977Y440000D01*
X3144981D01*
X3139982Y444998D01*
Y464992D01*
X739000Y604990D02*
Y575000D01*
X753995D01*
X758994Y579998D01*
Y599992D01*
X753995Y604990D01*
X739000D01*
X768990Y599992D02*
X773989Y604990D01*
X783986D01*
X788984Y599992D01*
Y594994D01*
X783986Y589995D01*
X788984Y584997D01*
Y579998D01*
X783986Y575000D01*
X773989D01*
X768990Y579998D01*
Y584997D01*
X773989Y589995D01*
X768990Y594994D01*
Y599992D01*
X773989Y589995D02*
X783986D01*
X1252000Y720485D02*
Y690494D01*
X1266995D01*
X1271994Y695493D01*
Y715486D01*
X1266995Y720485D01*
X1252000D01*
X1281990D02*
X1301984D01*
Y715486D01*
X1281990Y695493D01*
Y690494D01*
X1254000Y1106990D02*
Y1077000D01*
X1268995D01*
X1273994Y1081998D01*
Y1101992D01*
X1268995Y1106990D01*
X1254000D01*
X1303984D02*
X1293987Y1101992D01*
X1283990Y1091995D01*
Y1081998D01*
X1288989Y1077000D01*
X1298986D01*
X1303984Y1081998D01*
Y1086997D01*
X1298986Y1091995D01*
X1283990D01*
X1252000Y783651D02*
Y753661D01*
X1266995D01*
X1271994Y758659D01*
Y778653D01*
X1266995Y783651D01*
X1252000D01*
X1301984D02*
X1281990D01*
Y768656D01*
X1291987Y773654D01*
X1296986D01*
X1301984Y768656D01*
Y758659D01*
X1296986Y753661D01*
X1286989D01*
X1281990Y758659D01*
X1266008Y908788D02*
X1261010Y903789D01*
Y893793D01*
X1266008Y888794D01*
X1286002D01*
X1291000Y893793D01*
Y903789D01*
X1286002Y908788D01*
X1266008Y918784D02*
X1261010Y923783D01*
Y933780D01*
X1266008Y938778D01*
X1271006D01*
X1276005Y933780D01*
Y928781D01*
Y933780D01*
X1281003Y938778D01*
X1286002D01*
X1291000Y933780D01*
Y923783D01*
X1286002Y918784D01*
X1261010Y968768D02*
Y948775D01*
X1276005D01*
X1271006Y958772D01*
Y963770D01*
X1276005Y968768D01*
X1286002D01*
X1291000Y963770D01*
Y953773D01*
X1286002Y948775D01*
X1141994Y775480D02*
X1136995Y780479D01*
X1126998D01*
X1122000Y775480D01*
Y755487D01*
X1126998Y750488D01*
X1136995D01*
X1141994Y755487D01*
X1151990Y775480D02*
X1156989Y780479D01*
X1166986D01*
X1171984Y775480D01*
Y770482D01*
X1166986Y765483D01*
X1161987D01*
X1166986D01*
X1171984Y760485D01*
Y755487D01*
X1166986Y750488D01*
X1156989D01*
X1151990Y755487D01*
X1196976Y750488D02*
Y780479D01*
X1181981Y765483D01*
X1201974D01*
X1176008Y910994D02*
X1171010Y905995D01*
Y895998D01*
X1176008Y891000D01*
X1196002D01*
X1201000Y895998D01*
Y905995D01*
X1196002Y910994D01*
X1176008Y920990D02*
X1171010Y925989D01*
Y935986D01*
X1176008Y940984D01*
X1181006D01*
X1186005Y935986D01*
Y930987D01*
Y935986D01*
X1191003Y940984D01*
X1196002D01*
X1201000Y935986D01*
Y925989D01*
X1196002Y920990D01*
X1176008Y950981D02*
X1171010Y955979D01*
Y965976D01*
X1176008Y970974D01*
X1181006D01*
X1186005Y965976D01*
Y960977D01*
Y965976D01*
X1191003Y970974D01*
X1196002D01*
X1201000Y965976D01*
Y955979D01*
X1196002Y950981D01*
X758994Y944992D02*
X753995Y949990D01*
X743998D01*
X739000Y944992D01*
Y924998D01*
X743998Y920000D01*
X753995D01*
X758994Y924998D01*
X768990Y944992D02*
X773989Y949990D01*
X783986D01*
X788984Y944992D01*
Y939994D01*
X783986Y934995D01*
X778987D01*
X783986D01*
X788984Y929997D01*
Y924998D01*
X783986Y920000D01*
X773989D01*
X768990Y924998D01*
X818974Y920000D02*
X798981D01*
X818974Y939994D01*
Y944992D01*
X813976Y949990D01*
X803979D01*
X798981Y944992D01*
X1754008Y885427D02*
X1749010Y880428D01*
Y870432D01*
X1754008Y865433D01*
X1774002D01*
X1779000Y870432D01*
Y880428D01*
X1774002Y885427D01*
X1754008Y895423D02*
X1749010Y900422D01*
Y910419D01*
X1754008Y915417D01*
X1759006D01*
X1764005Y910419D01*
Y905420D01*
Y910419D01*
X1769003Y915417D01*
X1774002D01*
X1779000Y910419D01*
Y900422D01*
X1774002Y895423D01*
X1779000Y925414D02*
Y935410D01*
Y930412D01*
X1749010D01*
X1754008Y925414D01*
X1123008Y572153D02*
X1118010Y567155D01*
Y557158D01*
X1123008Y552160D01*
X1143002D01*
X1148000Y557158D01*
Y567155D01*
X1143002Y572153D01*
X1123008Y582150D02*
X1118010Y587148D01*
Y597145D01*
X1123008Y602144D01*
X1128006D01*
X1133005Y597145D01*
Y592147D01*
Y597145D01*
X1138003Y602144D01*
X1143002D01*
X1148000Y597145D01*
Y587148D01*
X1143002Y582150D01*
X1123008Y612140D02*
X1118010Y617139D01*
Y627135D01*
X1123008Y632134D01*
X1143002D01*
X1148000Y627135D01*
Y617139D01*
X1143002Y612140D01*
X1123008D01*
X1168601Y572153D02*
X1163603Y567155D01*
Y557158D01*
X1168601Y552160D01*
X1188594D01*
X1193593Y557158D01*
Y567155D01*
X1188594Y572153D01*
X1193593Y602144D02*
Y582150D01*
X1173599Y602144D01*
X1168601D01*
X1163603Y597145D01*
Y587148D01*
X1168601Y582150D01*
X1188594Y612140D02*
X1193593Y617139D01*
Y627135D01*
X1188594Y632134D01*
X1168601D01*
X1163603Y627135D01*
Y617139D01*
X1168601Y612140D01*
X1173599D01*
X1178598Y617139D01*
Y632134D01*
X1350008Y1149994D02*
X1345010Y1144995D01*
Y1134998D01*
X1350008Y1130000D01*
X1370002D01*
X1375000Y1134998D01*
Y1144995D01*
X1370002Y1149994D01*
X1375000Y1179984D02*
Y1159990D01*
X1355006Y1179984D01*
X1350008D01*
X1345010Y1174986D01*
Y1164989D01*
X1350008Y1159990D01*
Y1189981D02*
X1345010Y1194979D01*
Y1204976D01*
X1350008Y1209974D01*
X1355006D01*
X1360005Y1204976D01*
X1365003Y1209974D01*
X1370002D01*
X1375000Y1204976D01*
Y1194979D01*
X1370002Y1189981D01*
X1365003D01*
X1360005Y1194979D01*
X1355006Y1189981D01*
X1350008D01*
X1360005Y1194979D02*
Y1204976D01*
X1392008Y1149994D02*
X1387010Y1144995D01*
Y1134998D01*
X1392008Y1130000D01*
X1412002D01*
X1417000Y1134998D01*
Y1144995D01*
X1412002Y1149994D01*
X1417000Y1179984D02*
Y1159990D01*
X1397006Y1179984D01*
X1392008D01*
X1387010Y1174986D01*
Y1164989D01*
X1392008Y1159990D01*
X1387010Y1189981D02*
Y1209974D01*
X1392008D01*
X1412002Y1189981D01*
X1417000D01*
X1434795Y1150727D02*
X1429797Y1145729D01*
Y1135732D01*
X1434795Y1130733D01*
X1454789D01*
X1459787Y1135732D01*
Y1145729D01*
X1454789Y1150727D01*
X1459787Y1180717D02*
Y1160724D01*
X1439794Y1180717D01*
X1434795D01*
X1429797Y1175719D01*
Y1165722D01*
X1434795Y1160724D01*
X1429797Y1210707D02*
X1434795Y1200711D01*
X1444792Y1190714D01*
X1454789D01*
X1459787Y1195712D01*
Y1205709D01*
X1454789Y1210707D01*
X1449790D01*
X1444792Y1205709D01*
Y1190714D01*
X1563994Y483448D02*
X1558995Y488446D01*
X1548998D01*
X1544000Y483448D01*
Y463454D01*
X1548998Y458456D01*
X1558995D01*
X1563994Y463454D01*
X1593984Y458456D02*
X1573990D01*
X1593984Y478450D01*
Y483448D01*
X1588986Y488446D01*
X1578989D01*
X1573990Y483448D01*
X1623974Y488446D02*
X1603981D01*
Y473451D01*
X1613977Y478450D01*
X1618976D01*
X1623974Y473451D01*
Y463454D01*
X1618976Y458456D01*
X1608979D01*
X1603981Y463454D01*
X1563994Y441448D02*
X1558995Y446446D01*
X1548998D01*
X1544000Y441448D01*
Y421454D01*
X1548998Y416456D01*
X1558995D01*
X1563994Y421454D01*
X1593984Y416456D02*
X1573990D01*
X1593984Y436450D01*
Y441448D01*
X1588986Y446446D01*
X1578989D01*
X1573990Y441448D01*
X1618976Y416456D02*
Y446446D01*
X1603981Y431451D01*
X1623974D01*
X893000Y868956D02*
Y843964D01*
X897998Y838965D01*
X907995D01*
X912994Y843964D01*
Y868956D01*
X942984Y838965D02*
X922990D01*
X942984Y858959D01*
Y863957D01*
X937986Y868956D01*
X927989D01*
X922990Y863957D01*
X693419Y575919D02*
X683422D01*
X688420D01*
Y550928D01*
X683422Y545929D01*
X678424D01*
X673425Y550928D01*
X703415Y545929D02*
X713412D01*
X708414D01*
Y575919D01*
X703415Y570921D01*
X2484000Y449481D02*
Y479471D01*
X2498995D01*
X2503994Y474473D01*
Y464476D01*
X2498995Y459478D01*
X2484000D01*
X2493997D02*
X2503994Y449481D01*
X2533984D02*
X2513990D01*
X2533984Y469474D01*
Y474473D01*
X2528986Y479471D01*
X2518989D01*
X2513990Y474473D01*
X2543981Y449481D02*
X2553977D01*
X2548979D01*
Y479471D01*
X2543981Y474473D01*
X2473000Y504087D02*
X2443010D01*
Y519082D01*
X2448008Y524081D01*
X2458005D01*
X2463003Y519082D01*
Y504087D01*
Y514084D02*
X2473000Y524081D01*
Y534078D02*
Y544074D01*
Y539076D01*
X2443010D01*
X2448008Y534078D01*
X2468002Y559069D02*
X2473000Y564068D01*
Y574065D01*
X2468002Y579063D01*
X2448008D01*
X2443010Y574065D01*
Y564068D01*
X2448008Y559069D01*
X2453007D01*
X2458005Y564068D01*
Y579063D01*
X845441Y437952D02*
Y467943D01*
X860436D01*
X865434Y462944D01*
Y452947D01*
X860436Y447949D01*
X845441D01*
X855438D02*
X865434Y437952D01*
X875431D02*
X885428D01*
X880430D01*
Y467943D01*
X875431Y462944D01*
X900423Y467943D02*
X920417D01*
Y462944D01*
X900423Y442951D01*
Y437952D01*
X844441Y482952D02*
Y512943D01*
X859436D01*
X864434Y507944D01*
Y497947D01*
X859436Y492949D01*
X844441D01*
X854438D02*
X864434Y482952D01*
X874431D02*
X884428D01*
X879430D01*
Y512943D01*
X874431Y507944D01*
X919417Y512943D02*
X909420Y507944D01*
X899423Y497947D01*
Y487951D01*
X904422Y482952D01*
X914418D01*
X919417Y487951D01*
Y492949D01*
X914418Y497947D01*
X899423D01*
X951311Y534000D02*
Y563990D01*
X966306D01*
X971304Y558992D01*
Y548995D01*
X966306Y543997D01*
X951311D01*
X961308D02*
X971304Y534000D01*
X981301D02*
X991298D01*
X986300D01*
Y563990D01*
X981301Y558992D01*
X1026287Y563990D02*
X1006293D01*
Y548995D01*
X1016290Y553994D01*
X1021288D01*
X1026287Y548995D01*
Y538998D01*
X1021288Y534000D01*
X1011292D01*
X1006293Y538998D01*
X952000Y580000D02*
Y609990D01*
X966995D01*
X971994Y604992D01*
Y594995D01*
X966995Y589997D01*
X952000D01*
X961997D02*
X971994Y580000D01*
X981990D02*
X991987D01*
X986989D01*
Y609990D01*
X981990Y604992D01*
X1021977Y580000D02*
Y609990D01*
X1006982Y594995D01*
X1026976D01*
X802000Y1028861D02*
X772010D01*
Y1043856D01*
X777008Y1048855D01*
X787005D01*
X792003Y1043856D01*
Y1028861D01*
Y1038858D02*
X802000Y1048855D01*
Y1058851D02*
Y1068848D01*
Y1063850D01*
X772010D01*
X777008Y1058851D01*
Y1083843D02*
X772010Y1088842D01*
Y1098839D01*
X777008Y1103837D01*
X782006D01*
X787005Y1098839D01*
Y1093840D01*
Y1098839D01*
X792003Y1103837D01*
X797001D01*
X802000Y1098839D01*
Y1088842D01*
X797001Y1083843D01*
X752000Y1028861D02*
X722010D01*
Y1043856D01*
X727008Y1048855D01*
X737005D01*
X742003Y1043856D01*
Y1028861D01*
Y1038858D02*
X752000Y1048855D01*
Y1058851D02*
Y1068848D01*
Y1063850D01*
X722010D01*
X727008Y1058851D01*
X752000Y1083843D02*
Y1093840D01*
Y1088842D01*
X722010D01*
X727008Y1083843D01*
X2783010Y1187713D02*
X2813000D01*
Y1202708D01*
X2808002Y1207707D01*
X2788008D01*
X2783010Y1202708D01*
Y1187713D01*
X2813000Y1232699D02*
X2783010D01*
X2798005Y1217704D01*
Y1237697D01*
X2475000Y912990D02*
Y883000D01*
X2489995D01*
X2494994Y887998D01*
Y907992D01*
X2489995Y912990D01*
X2475000D01*
X2524984Y883000D02*
X2504990D01*
X2524984Y902994D01*
Y907992D01*
X2519985Y912990D01*
X2509989D01*
X2504990Y907992D01*
X2335008Y716994D02*
X2330010Y711995D01*
Y701998D01*
X2335008Y697000D01*
X2355002D01*
X2360000Y701998D01*
Y711995D01*
X2355002Y716994D01*
X2360000Y726990D02*
Y736987D01*
Y731989D01*
X2330010D01*
X2335008Y726990D01*
X2355002Y751982D02*
X2360000Y756981D01*
Y766977D01*
X2355002Y771976D01*
X2335008D01*
X2330010Y766977D01*
Y756981D01*
X2335008Y751982D01*
X2340006D01*
X2345005Y756981D01*
Y771976D01*
X2506994Y626992D02*
X2501995Y631990D01*
X2491998D01*
X2487000Y626992D01*
Y606998D01*
X2491998Y602000D01*
X2501995D01*
X2506994Y606998D01*
X2516990Y602000D02*
X2526987D01*
X2521989D01*
Y631990D01*
X2516990Y626992D01*
X2541982Y631990D02*
X2561976D01*
Y626992D01*
X2541982Y606998D01*
Y602000D01*
X2788560Y510378D02*
X2783562Y515376D01*
X2773565D01*
X2768567Y510378D01*
Y490384D01*
X2773565Y485386D01*
X2783562D01*
X2788560Y490384D01*
X2798557Y485386D02*
X2808554D01*
X2803556D01*
Y515376D01*
X2798557Y510378D01*
X2843543Y515376D02*
X2823549D01*
Y500381D01*
X2833546Y505379D01*
X2838544D01*
X2843543Y500381D01*
Y490384D01*
X2838544Y485386D01*
X2828548D01*
X2823549Y490384D01*
X1222008Y911356D02*
X1217010Y906357D01*
Y896360D01*
X1222008Y891362D01*
X1242002D01*
X1247000Y896360D01*
Y906357D01*
X1242002Y911356D01*
X1247000Y921352D02*
Y931349D01*
Y926351D01*
X1217010D01*
X1222008Y921352D01*
Y946344D02*
X1217010Y951343D01*
Y961339D01*
X1222008Y966338D01*
X1227006D01*
X1232005Y961339D01*
Y956341D01*
Y961339D01*
X1237003Y966338D01*
X1242002D01*
X1247000Y961339D01*
Y951343D01*
X1242002Y946344D01*
X863765Y604525D02*
X858767Y609523D01*
X848770D01*
X843771Y604525D01*
Y584531D01*
X848770Y579533D01*
X858767D01*
X863765Y584531D01*
X873762Y579533D02*
X883759D01*
X878760D01*
Y609523D01*
X873762Y604525D01*
X918747Y579533D02*
X898754D01*
X918747Y599526D01*
Y604525D01*
X913749Y609523D01*
X903752D01*
X898754Y604525D01*
X864765Y554525D02*
X859767Y559523D01*
X849770D01*
X844771Y554525D01*
Y534531D01*
X849770Y529533D01*
X859767D01*
X864765Y534531D01*
X874762Y529533D02*
X884759D01*
X879760D01*
Y559523D01*
X874762Y554525D01*
X899754Y529533D02*
X909750D01*
X904752D01*
Y559523D01*
X899754Y554525D01*
X1129008Y911994D02*
X1124010Y906995D01*
Y896998D01*
X1129008Y892000D01*
X1149002D01*
X1154000Y896998D01*
Y906995D01*
X1149002Y911994D01*
X1154000Y921990D02*
Y931987D01*
Y926989D01*
X1124010D01*
X1129008Y921990D01*
Y946982D02*
X1124010Y951981D01*
Y961977D01*
X1129008Y966976D01*
X1149002D01*
X1154000Y961977D01*
Y951981D01*
X1149002Y946982D01*
X1129008D01*
X1141994Y732992D02*
X1136995Y737990D01*
X1126998D01*
X1122000Y732992D01*
Y712998D01*
X1126998Y708000D01*
X1136995D01*
X1141994Y712998D01*
X1151990D02*
X1156989Y708000D01*
X1166986D01*
X1171984Y712998D01*
Y732992D01*
X1166986Y737990D01*
X1156989D01*
X1151990Y732992D01*
Y727994D01*
X1156989Y722995D01*
X1171984D01*
X1141994Y689003D02*
X1136995Y694001D01*
X1126998D01*
X1122000Y689003D01*
Y669009D01*
X1126998Y664011D01*
X1136995D01*
X1141994Y669009D01*
X1151990Y689003D02*
X1156989Y694001D01*
X1166986D01*
X1171984Y689003D01*
Y684004D01*
X1166986Y679006D01*
X1171984Y674008D01*
Y669009D01*
X1166986Y664011D01*
X1156989D01*
X1151990Y669009D01*
Y674008D01*
X1156989Y679006D01*
X1151990Y684004D01*
Y689003D01*
X1156989Y679006D02*
X1166986D01*
D97*
X4418736Y874685D02*
D03*
X4573263Y874685D02*
D03*
X4218736Y874780D02*
D03*
X4373263Y874779D02*
D03*
X4773263Y597220D02*
D03*
X4618737Y597221D02*
D03*
%TF.MD5,1d0300c4777c364f40efcd5e3cb029ff*%
M02*
