%TF.GenerationSoftware,Altium Limited,Altium Designer,19.0.15 (446)*%
G04 Layer_Physical_Order=4*
G04 Layer_Color=6049555*
%FSLAX26Y26*%
%MOIN*%
%TF.FileFunction,Copper,L4,Bot,Signal*%
%TF.Part,Single*%
G01*
G75*
%TA.AperFunction,Conductor*%
%ADD53C,0.010000*%
%ADD55C,0.015000*%
%ADD56C,0.020000*%
%ADD62C,0.030000*%
%TA.AperFunction,ComponentPad*%
G04:AMPARAMS|DCode=65|XSize=39.37mil|YSize=90.551mil|CornerRadius=19.685mil|HoleSize=0mil|Usage=FLASHONLY|Rotation=270.000|XOffset=0mil|YOffset=0mil|HoleType=Round|Shape=RoundedRectangle|*
%AMROUNDEDRECTD65*
21,1,0.039370,0.051181,0,0,270.0*
21,1,0.000000,0.090551,0,0,270.0*
1,1,0.039370,-0.025591,0.000000*
1,1,0.039370,-0.025591,0.000000*
1,1,0.039370,0.025591,0.000000*
1,1,0.039370,0.025591,0.000000*
%
%ADD65ROUNDEDRECTD65*%
%ADD66C,0.059843*%
%ADD67C,0.050000*%
%ADD68R,0.059843X0.059843*%
%TA.AperFunction,ViaPad*%
%ADD69C,0.060000*%
%ADD70C,0.098425*%
%TA.AperFunction,ComponentPad*%
%ADD71C,0.093504*%
%ADD72C,0.033465*%
%ADD73O,0.090551X0.078740*%
%ADD74C,0.060000*%
%ADD75C,0.118110*%
%ADD76C,0.018000*%
%TA.AperFunction,ViaPad*%
%ADD77C,0.018000*%
%ADD78C,0.023622*%
%ADD79C,0.032000*%
G36*
X953154Y1244382D02*
X955823Y1240487D01*
X955867Y1235504D01*
Y1181432D01*
X955975Y1180890D01*
X957088Y1172429D01*
X960564Y1164039D01*
X966092Y1156835D01*
X973296Y1151307D01*
X981686Y1147832D01*
X990194Y1146712D01*
X990685Y1146614D01*
X1010366D01*
X1010909Y1146722D01*
X1019369Y1147836D01*
X1027759Y1151311D01*
X1034963Y1156839D01*
X1040492Y1164043D01*
X1043967Y1172433D01*
X1045086Y1180940D01*
X1045185Y1181432D01*
Y1240246D01*
X1045224Y1240444D01*
X1045224D01*
X1047059Y1243121D01*
X1049736Y1244956D01*
X1054720Y1245000D01*
X1651443D01*
X1653356Y1240380D01*
X1546721Y1133745D01*
X1398000D01*
X1393123Y1132775D01*
X1388988Y1130012D01*
X1275264Y1016288D01*
X1238763D01*
X1237926Y1021288D01*
X1240592Y1023069D01*
X1243023Y1026708D01*
X1243877Y1031000D01*
X1243023Y1035292D01*
X1240592Y1038931D01*
X1236953Y1041362D01*
X1232661Y1042216D01*
X1228369Y1041362D01*
X1224731Y1038931D01*
X1222300Y1035292D01*
X1221446Y1031000D01*
X1222300Y1026708D01*
X1224731Y1023069D01*
X1227397Y1021288D01*
X1226560Y1016288D01*
X788543D01*
X783666Y1015318D01*
X779531Y1012555D01*
X756988Y990012D01*
X754225Y985877D01*
X753255Y981000D01*
X754225Y976123D01*
X756988Y971988D01*
X761123Y969225D01*
X766000Y968255D01*
X770877Y969225D01*
X775012Y971988D01*
X793822Y990798D01*
X806241D01*
X808155Y986179D01*
X769988Y948012D01*
X767225Y943877D01*
X766255Y939000D01*
X767225Y934123D01*
X769988Y929988D01*
X774123Y927225D01*
X779000Y926255D01*
X783877Y927225D01*
X788012Y929988D01*
X827885Y969861D01*
X841766D01*
X843837Y964861D01*
X825988Y947012D01*
X823225Y942877D01*
X822255Y938000D01*
X823225Y933123D01*
X825988Y928988D01*
X830123Y926225D01*
X830270Y926196D01*
X829778Y921196D01*
X757097D01*
X753195Y920420D01*
X749887Y918210D01*
X706790Y875113D01*
X704580Y871805D01*
X703804Y867903D01*
Y831392D01*
X699185Y829479D01*
X673837Y854826D01*
X673779Y855119D01*
X671348Y858757D01*
X667709Y861188D01*
X663417Y862042D01*
X659125Y861188D01*
X655487Y858757D01*
X653056Y855119D01*
X652202Y850827D01*
X653056Y846535D01*
X655487Y842896D01*
X659125Y840465D01*
X659418Y840407D01*
X686804Y813021D01*
Y706670D01*
X687580Y702769D01*
X689790Y699461D01*
X703580Y685671D01*
X703638Y685379D01*
X706069Y681740D01*
X709708Y679309D01*
X714000Y678455D01*
X718292Y679309D01*
X721931Y681740D01*
X724362Y685379D01*
X725216Y689670D01*
X724362Y693962D01*
X721931Y697601D01*
X720682Y698435D01*
Y704159D01*
X720809Y704352D01*
X721931Y705101D01*
X724362Y708740D01*
X725216Y713032D01*
X724362Y717323D01*
X724196Y717572D01*
Y863680D01*
X742079Y881563D01*
X748338Y880751D01*
X748794Y880069D01*
X752432Y877638D01*
X752724Y877580D01*
X781500Y848795D01*
X784808Y846584D01*
X788710Y845807D01*
X927387Y845786D01*
X956431Y816734D01*
X956714Y816309D01*
X955897Y813773D01*
X951325Y812148D01*
X950922Y812417D01*
X950629Y812475D01*
X929217Y833888D01*
X925909Y836098D01*
X922007Y836874D01*
X907540D01*
X907292Y837040D01*
X903000Y837894D01*
X898708Y837040D01*
X895069Y834609D01*
X892638Y830970D01*
X892453Y830038D01*
X891265Y829677D01*
X886362Y829292D01*
X883931Y832931D01*
X880292Y835362D01*
X876000Y836216D01*
X871708Y835362D01*
X868069Y832931D01*
X865863Y829628D01*
X865384Y829229D01*
X861106Y828169D01*
X860346Y828316D01*
X857931Y831931D01*
X854292Y834362D01*
X850000Y835216D01*
X845708Y834362D01*
X842069Y831931D01*
X839638Y828292D01*
X838784Y824000D01*
X839638Y819708D01*
X842069Y816069D01*
X845708Y813638D01*
X846001Y813580D01*
X904105Y755476D01*
X907413Y753265D01*
X911315Y752489D01*
X942090D01*
X942338Y752323D01*
X946630Y751470D01*
X950922Y752323D01*
X951119Y752455D01*
X956119Y749782D01*
Y734643D01*
X951119Y731970D01*
X950922Y732102D01*
X946630Y732956D01*
X942338Y732102D01*
X938699Y729671D01*
X936268Y726032D01*
X936074Y725054D01*
X930976D01*
X930773Y726073D01*
X928342Y729711D01*
X924703Y732143D01*
X920411Y732996D01*
X916119Y732143D01*
X912481Y729711D01*
X910970Y727450D01*
X910287Y727240D01*
X906179Y727223D01*
X905414Y727450D01*
X903931Y729671D01*
X900292Y732102D01*
X896000Y732956D01*
X891708Y732102D01*
X888069Y729671D01*
X885638Y726032D01*
X885580Y725739D01*
X851715Y691874D01*
X805761D01*
X805512Y692040D01*
X801220Y692894D01*
X796928Y692040D01*
X793290Y689609D01*
X790859Y685970D01*
X790005Y681678D01*
X790859Y677386D01*
X793290Y673747D01*
X796928Y671316D01*
X801220Y670463D01*
X805512Y671316D01*
X805761Y671482D01*
X855938D01*
X859840Y672258D01*
X863148Y674468D01*
X899999Y711320D01*
X900292Y711378D01*
X903931Y713810D01*
X905215Y715732D01*
X910215Y714216D01*
Y631219D01*
X910991Y627317D01*
X913202Y624009D01*
X945420Y591790D01*
X948728Y589580D01*
X952630Y588804D01*
X1154000D01*
X1157902Y589580D01*
X1161210Y591790D01*
X1195223Y625804D01*
X1543460D01*
X1543708Y625638D01*
X1548000Y624784D01*
X1552292Y625638D01*
X1555931Y628069D01*
X1558362Y631708D01*
X1559216Y636000D01*
X1558362Y640292D01*
X1555931Y643931D01*
X1552292Y646362D01*
X1552046Y646411D01*
X1549362Y651393D01*
X1550216Y655685D01*
X1549362Y659977D01*
X1551803Y665323D01*
X1551804Y665323D01*
X1555442Y667755D01*
X1557874Y671393D01*
X1558727Y675685D01*
X1557874Y679977D01*
X1555442Y683616D01*
Y687440D01*
X1557874Y691078D01*
X1558727Y695370D01*
X1557874Y699662D01*
X1555442Y703301D01*
Y707125D01*
X1557874Y710763D01*
X1558727Y715055D01*
X1557874Y719347D01*
X1555442Y722986D01*
X1551804Y725417D01*
X1547512Y726271D01*
X1543220Y725417D01*
X1539581Y722986D01*
X1537150Y719347D01*
X1536296Y715055D01*
X1537150Y710763D01*
X1539581Y707125D01*
Y703301D01*
X1537150Y699662D01*
X1536296Y695370D01*
X1537150Y691078D01*
X1539581Y687440D01*
Y683616D01*
X1537150Y679977D01*
X1536296Y675685D01*
X1537150Y671393D01*
X1534708Y666047D01*
X1534708Y666047D01*
X1534460Y665881D01*
X1183685D01*
X1179783Y665105D01*
X1176476Y662895D01*
X1141777Y628196D01*
X1085491D01*
X1082818Y633196D01*
X1082944Y633385D01*
X1083798Y637677D01*
X1082944Y641969D01*
X1080513Y645608D01*
X1076874Y648039D01*
X1072582Y648893D01*
X1068291Y648039D01*
X1064652Y645608D01*
X1062221Y641969D01*
X1061367Y637677D01*
X1062221Y633385D01*
X1062347Y633196D01*
X1059675Y628196D01*
X976433D01*
X975062Y631050D01*
X974545Y633196D01*
X976677Y636386D01*
X977530Y640678D01*
X976677Y644970D01*
X976511Y645218D01*
Y749782D01*
X981511Y752455D01*
X981708Y752323D01*
X986000Y751470D01*
X990292Y752323D01*
X990489Y752455D01*
X995489Y749782D01*
Y729752D01*
X996265Y725850D01*
X998476Y722543D01*
X1000607Y720411D01*
Y696556D01*
X1000441Y696308D01*
X999588Y692016D01*
X1000441Y687724D01*
X1002873Y684085D01*
X1006511Y681654D01*
X1010803Y680800D01*
X1015095Y681654D01*
X1018734Y684085D01*
X1021165Y687724D01*
X1022019Y692016D01*
X1021165Y696308D01*
X1020999Y696556D01*
Y724634D01*
X1020223Y728536D01*
X1018013Y731844D01*
X1015881Y733975D01*
Y749782D01*
X1020881Y752455D01*
X1021078Y752323D01*
X1025370Y751470D01*
X1029662Y752323D01*
X1033301Y754755D01*
X1035732Y758393D01*
X1036586Y762685D01*
X1036053Y765362D01*
X1040661Y767825D01*
X1062162Y746324D01*
X1062221Y746031D01*
X1064652Y742392D01*
X1068291Y739961D01*
X1072582Y739107D01*
X1076874Y739961D01*
X1080513Y742392D01*
X1082944Y746031D01*
X1083798Y750323D01*
X1082944Y754615D01*
X1080513Y758254D01*
X1076874Y760685D01*
X1076582Y760743D01*
X1033043Y804282D01*
X1033836Y810559D01*
X1035464Y811647D01*
X1038558Y816278D01*
X1038650Y816740D01*
X1011809D01*
X1011403Y815590D01*
X1011134Y815242D01*
X1008560Y812699D01*
X1005685Y813271D01*
X1001393Y812417D01*
X997755Y809986D01*
X993931D01*
X990292Y812417D01*
X986000Y813271D01*
X981708Y812417D01*
X981305Y812148D01*
X976733Y813773D01*
X975916Y816309D01*
X976677Y817448D01*
X977530Y821740D01*
X976677Y826032D01*
X974246Y829671D01*
X970607Y832102D01*
X969726Y832277D01*
X938823Y863190D01*
X935515Y865401D01*
X931614Y866177D01*
X792936Y866198D01*
X785836Y873301D01*
X786065Y873832D01*
X788784Y877424D01*
X792000Y876784D01*
X796292Y877638D01*
X799931Y880069D01*
X802362Y883708D01*
X803216Y888000D01*
X802362Y892292D01*
X800015Y895804D01*
X800163Y896595D01*
X801637Y900804D01*
X937517D01*
X975580Y862741D01*
X975638Y862448D01*
X978069Y858809D01*
X981708Y856378D01*
X986000Y855524D01*
X990292Y856378D01*
X993931Y858809D01*
X996362Y862448D01*
X997216Y866740D01*
X996362Y871032D01*
X993931Y874671D01*
X990292Y877102D01*
X989999Y877160D01*
X948950Y918210D01*
X945642Y920420D01*
X941740Y921196D01*
X923526D01*
X920933Y926196D01*
X921944Y927709D01*
X922798Y932001D01*
X921944Y936293D01*
X919513Y939932D01*
X916036Y942255D01*
X915941Y942692D01*
X916867Y947255D01*
X953298D01*
X954224Y942692D01*
X954129Y942255D01*
X950652Y939932D01*
X948221Y936293D01*
X947367Y932001D01*
X948221Y927709D01*
X950652Y924070D01*
X954290Y921639D01*
X958582Y920785D01*
X962875Y921639D01*
X966513Y924070D01*
X968944Y927709D01*
X969798Y932001D01*
X968944Y936293D01*
X966513Y939932D01*
X963036Y942255D01*
X962941Y942692D01*
X963867Y947255D01*
X999919D01*
X1000721Y944767D01*
X1000750Y942255D01*
X997755Y940253D01*
X995323Y936615D01*
X994470Y932323D01*
X995323Y928031D01*
X997755Y924392D01*
X1001393Y921961D01*
X1005685Y921107D01*
X1009977Y921961D01*
X1013616Y924392D01*
X1016047Y928031D01*
X1016901Y932323D01*
X1016047Y936615D01*
X1013616Y940253D01*
X1010620Y942255D01*
X1010649Y944767D01*
X1011452Y947255D01*
X1283721D01*
X1343350Y887626D01*
X1347485Y884863D01*
X1352362Y883893D01*
X1507362D01*
X1512239Y884863D01*
X1516374Y887626D01*
X1519137Y891761D01*
X1520107Y896638D01*
X1519137Y901515D01*
X1516374Y905650D01*
X1512239Y908413D01*
X1507362Y909383D01*
X1357641D01*
X1299113Y967911D01*
X1298745Y972132D01*
X1299233Y974209D01*
X1410279Y1085255D01*
X1428247D01*
X1428739Y1080255D01*
X1426298Y1079770D01*
X1422660Y1077338D01*
X1420229Y1073700D01*
X1419375Y1069408D01*
X1420229Y1065116D01*
X1420395Y1064868D01*
Y1004959D01*
X1421171Y1001057D01*
X1423381Y997750D01*
X1461294Y959836D01*
X1464602Y957626D01*
X1468504Y956850D01*
X1799213D01*
X1803114Y957626D01*
X1806422Y959836D01*
X1836390Y989804D01*
X1916794D01*
X1917204Y989530D01*
X1921496Y988677D01*
X1925788Y989530D01*
X1929427Y991962D01*
X1931858Y995600D01*
X1932711Y999892D01*
X1931858Y1004184D01*
X1929427Y1007823D01*
X1925788Y1010254D01*
X1921496Y1011108D01*
X1917204Y1010254D01*
X1917117Y1010196D01*
X1908344D01*
X1907852Y1015196D01*
X1910040Y1015631D01*
X1913679Y1018062D01*
X1916110Y1021701D01*
X1916964Y1025993D01*
X1916110Y1030285D01*
X1915708Y1030887D01*
Y1036542D01*
X1920708Y1037536D01*
X1922415Y1033414D01*
X1930230Y1023230D01*
X1940414Y1015415D01*
X1952273Y1010503D01*
X1965000Y1008827D01*
X1977727Y1010503D01*
X1989586Y1015415D01*
X1999770Y1023230D01*
X2007585Y1033414D01*
X2012497Y1045273D01*
X2014173Y1058000D01*
X2012497Y1070727D01*
X2007585Y1082586D01*
X1999770Y1092770D01*
X1989586Y1100585D01*
X1977727Y1105497D01*
X1965000Y1107173D01*
X1952273Y1105497D01*
X1940414Y1100585D01*
X1930230Y1092770D01*
X1922415Y1082586D01*
X1920708Y1078464D01*
X1915708Y1079458D01*
Y1096967D01*
X1914932Y1100869D01*
X1912721Y1104177D01*
X1885688Y1131210D01*
X1882380Y1133420D01*
X1878479Y1134196D01*
X1810000D01*
X1806098Y1133420D01*
X1802790Y1131210D01*
X1732236Y1060655D01*
X1731130Y1060932D01*
X1729597Y1066471D01*
X1805326Y1142199D01*
X1808646Y1140824D01*
X1817000Y1139724D01*
X1825354Y1140824D01*
X1833138Y1144048D01*
X1839823Y1149177D01*
X1844952Y1155862D01*
X1848176Y1163646D01*
X1849276Y1172000D01*
X1848176Y1180354D01*
X1844952Y1188138D01*
X1839823Y1194823D01*
X1835349Y1198255D01*
X1837047Y1203255D01*
X1879953D01*
X1881651Y1198255D01*
X1877177Y1194823D01*
X1872048Y1188138D01*
X1868824Y1180354D01*
X1867724Y1172000D01*
X1868824Y1163646D01*
X1872048Y1155862D01*
X1877177Y1149177D01*
X1883862Y1144048D01*
X1891646Y1140824D01*
X1900000Y1139724D01*
X1908354Y1140824D01*
X1916138Y1144048D01*
X1922823Y1149177D01*
X1927952Y1155862D01*
X1931176Y1163646D01*
X1932276Y1172000D01*
X1931176Y1180354D01*
X1927952Y1188138D01*
X1922823Y1194823D01*
X1918349Y1198255D01*
X1920047Y1203255D01*
X2066721D01*
X2091712Y1178264D01*
X2090602Y1176063D01*
X2088765Y1174140D01*
X2085260Y1174837D01*
X2080968Y1173983D01*
X2077329Y1171552D01*
X2074898Y1167914D01*
X2074044Y1163622D01*
X2074898Y1159330D01*
X2077329Y1155691D01*
X2080968Y1153260D01*
X2085260Y1152406D01*
X2089552Y1153260D01*
X2093190Y1155691D01*
X2095622Y1159330D01*
X2096475Y1163622D01*
X2095778Y1167127D01*
X2097701Y1168963D01*
X2099902Y1170074D01*
X2193988Y1075988D01*
X2198123Y1073225D01*
X2203000Y1072255D01*
X2507000D01*
X2511877Y1073225D01*
X2516012Y1075988D01*
X2641279Y1201255D01*
X3382415D01*
X3405255Y1178415D01*
Y855071D01*
X3406225Y850194D01*
X3408988Y846059D01*
X3439403Y815645D01*
X3443537Y812882D01*
X3448414Y811912D01*
X3791221D01*
X3794568Y806912D01*
X3794194Y805032D01*
X3795048Y800740D01*
X3797479Y797101D01*
X3801117Y794670D01*
X3805410Y793816D01*
X3809702Y794670D01*
X3813340Y797101D01*
X3815771Y800740D01*
X3816625Y805032D01*
X3816251Y806912D01*
X3819598Y811912D01*
X3838000D01*
X3842877Y812882D01*
X3847012Y815645D01*
X3847512Y816393D01*
X3853939Y817037D01*
X3872988Y797988D01*
X3877123Y795225D01*
X3882000Y794255D01*
X3886877Y795225D01*
X3891012Y797988D01*
X3893775Y802123D01*
X3894745Y807000D01*
X3893775Y811877D01*
X3891012Y816012D01*
X3849012Y858012D01*
X3847827Y858804D01*
X3849343Y863804D01*
X3856887D01*
X3870901Y849790D01*
X3874209Y847580D01*
X3878110Y846804D01*
X3894314D01*
X3894562Y846638D01*
X3898854Y845784D01*
X3903146Y846638D01*
X3906784Y849069D01*
X3909216Y852708D01*
X3910069Y857000D01*
X3909810Y858306D01*
X3909853Y858405D01*
X3914142Y862154D01*
X3916000Y861784D01*
X3920292Y862638D01*
X3923931Y865069D01*
X3926362Y868708D01*
X3927215Y873000D01*
X3926362Y877292D01*
X3923931Y880931D01*
X3920292Y883362D01*
X3919999Y883420D01*
X3908235Y895185D01*
X3910148Y899804D01*
X4053980D01*
X4058969Y894815D01*
X4057055Y890196D01*
X3961875D01*
X3957974Y889420D01*
X3954666Y887210D01*
X3952456Y883902D01*
X3951679Y880000D01*
Y753661D01*
X3952456Y749759D01*
X3954666Y746451D01*
X3957974Y744241D01*
X3961875Y743465D01*
X4088203D01*
X4092105Y744241D01*
X4095413Y746451D01*
X4097623Y749759D01*
X4098399Y753661D01*
Y827859D01*
X4103399Y829376D01*
X4103790Y828790D01*
X4128580Y804001D01*
X4128638Y803708D01*
X4131069Y800069D01*
X4131912Y799507D01*
Y793493D01*
X4131069Y792931D01*
X4128638Y789292D01*
X4127784Y785000D01*
X4128638Y780708D01*
X4131069Y777069D01*
X4134708Y774638D01*
X4139000Y773784D01*
X4143292Y774638D01*
X4145037Y775804D01*
X4149840D01*
X4151357Y770804D01*
X4150061Y769938D01*
X4147630Y766300D01*
X4146777Y762008D01*
X4147630Y757716D01*
X4150061Y754077D01*
X4153700Y751646D01*
X4157992Y750792D01*
X4162284Y751646D01*
X4163039Y752151D01*
X4610482D01*
X4613906Y751470D01*
X4618198Y752323D01*
X4621836Y754755D01*
X4624267Y758393D01*
X4625121Y762685D01*
X4624267Y766977D01*
X4621836Y770616D01*
X4618198Y773047D01*
X4613906Y773901D01*
X4609614Y773047D01*
X4608859Y772542D01*
X4591162D01*
X4589645Y777542D01*
X4591931Y779069D01*
X4594362Y782708D01*
X4595216Y787000D01*
X4594651Y789836D01*
X4597550Y794836D01*
X4821345D01*
X4823416Y789836D01*
X4755777Y722196D01*
X4247207D01*
X4246958Y722362D01*
X4242666Y723216D01*
X4238374Y722362D01*
X4234736Y719931D01*
X4232305Y716292D01*
X4231451Y712000D01*
X4232305Y707708D01*
X4233983Y705196D01*
X4232603Y701285D01*
X4231768Y700196D01*
X4203907D01*
X4200056Y705196D01*
X4200216Y706000D01*
X4199362Y710292D01*
X4196931Y713931D01*
X4193292Y716362D01*
X4189000Y717216D01*
X4184708Y716362D01*
X4184460Y716196D01*
X4114540D01*
X4114292Y716362D01*
X4110000Y717216D01*
X4105708Y716362D01*
X4102069Y713931D01*
X4099638Y710292D01*
X4098993Y707051D01*
X4095903Y707665D01*
X4079067D01*
X4076528Y709362D01*
X4072235Y710216D01*
X4067943Y709362D01*
X4064305Y706931D01*
X4061874Y703292D01*
X4061020Y699000D01*
X4061874Y694708D01*
X4064305Y691069D01*
X4067943Y688638D01*
X4069424Y688344D01*
X4069864Y688049D01*
X4073766Y687273D01*
X4091680D01*
X4096163Y682790D01*
X4099471Y680580D01*
X4103373Y679804D01*
X4772000D01*
X4775902Y680580D01*
X4777804Y681851D01*
X4782804Y679855D01*
X4782804Y426196D01*
X4184540D01*
X4184292Y426362D01*
X4180000Y427216D01*
X4175708Y426362D01*
X4172069Y423931D01*
X4169638Y420292D01*
X4168784Y416000D01*
X4169150Y414164D01*
X4165782Y409164D01*
X4150063D01*
X4149821Y409116D01*
X4148149Y409808D01*
X4145511Y413716D01*
X4145511Y418417D01*
Y472770D01*
X4145511Y472771D01*
X4145518D01*
X4144332Y481784D01*
X4140853Y490184D01*
X4135318Y497396D01*
X4128106Y502931D01*
X4119707Y506410D01*
X4110693Y507596D01*
Y507589D01*
X4110693Y507589D01*
X4079197D01*
Y507596D01*
X4070183Y506410D01*
X4061784Y502931D01*
X4054572Y497396D01*
X4049037Y490184D01*
X4045558Y481784D01*
X4044372Y472771D01*
X4044378D01*
Y413716D01*
X4044428Y413467D01*
X4043738Y411802D01*
X4039831Y409164D01*
X4034907Y409164D01*
X3290199D01*
X3288502Y414164D01*
X3289823Y415177D01*
X3294952Y421862D01*
X3298176Y429646D01*
X3299276Y438000D01*
X3298176Y446354D01*
X3294952Y454138D01*
X3289823Y460823D01*
X3283138Y465952D01*
X3275354Y469176D01*
X3267000Y470276D01*
X3258646Y469176D01*
X3250862Y465952D01*
X3244177Y460823D01*
X3241545Y457392D01*
X3018171D01*
Y611170D01*
X3020602Y613036D01*
X3025731Y619720D01*
X3028956Y627505D01*
X3030056Y635858D01*
X3028956Y644212D01*
X3025731Y651996D01*
X3020602Y658681D01*
X3013918Y663810D01*
X3006133Y667035D01*
X2997780Y668134D01*
X2989426Y667035D01*
X2981641Y663810D01*
X2974957Y658681D01*
X2969828Y651996D01*
X2966603Y644212D01*
X2965503Y635858D01*
X2966603Y627505D01*
X2969828Y619720D01*
X2974957Y613036D01*
X2977388Y611170D01*
Y457392D01*
X2514447Y457392D01*
X2421419Y550419D01*
X2414804Y554840D01*
X2407000Y556392D01*
X2318000D01*
X2310196Y554840D01*
X2303581Y550419D01*
X2204553Y451392D01*
X1410482Y451392D01*
X1406876Y454997D01*
X1407276Y458035D01*
X1406176Y466389D01*
X1402952Y474173D01*
X1397823Y480858D01*
X1391138Y485987D01*
X1383354Y489211D01*
X1375000Y490311D01*
X1366646Y489211D01*
X1358862Y485987D01*
X1352177Y480858D01*
X1347048Y474173D01*
X1343824Y466389D01*
X1342724Y458035D01*
X1343824Y449681D01*
X1347048Y441897D01*
X1352177Y435212D01*
X1358862Y430083D01*
X1366646Y426859D01*
X1375000Y425759D01*
X1378038Y426159D01*
X1387616Y416581D01*
X1391233Y414164D01*
X1389716Y409164D01*
X1055642D01*
X1055399Y409116D01*
X1052318Y410392D01*
X1051044Y413467D01*
X1051094Y413716D01*
Y472399D01*
X1051097Y472771D01*
X1051097D01*
X1049910Y481784D01*
X1046431Y490184D01*
X1040897Y497396D01*
X1033684Y502931D01*
X1025285Y506410D01*
X1016272Y507596D01*
Y507589D01*
X984776D01*
Y507596D01*
X975762Y506410D01*
X967363Y502931D01*
X960150Y497396D01*
X954616Y490184D01*
X951137Y481784D01*
X949950Y472771D01*
X949957D01*
Y413716D01*
X950007Y413467D01*
X948733Y410392D01*
X945652Y409116D01*
X945409Y409164D01*
X413925D01*
X413683Y409116D01*
X410601Y410392D01*
X409325Y413473D01*
X409373Y413716D01*
Y530063D01*
X409325Y530305D01*
X410016Y531973D01*
X413925Y534607D01*
X422939Y535794D01*
X431338Y539273D01*
X438550Y544808D01*
X444085Y552020D01*
X447564Y560419D01*
X448115Y564603D01*
X453449Y566812D01*
X456539Y564441D01*
X466124Y560471D01*
X476409Y559117D01*
X527591D01*
X537876Y560471D01*
X547461Y564441D01*
X555692Y570757D01*
X561091Y577793D01*
X562900Y578232D01*
X565116D01*
X566925Y577793D01*
X572324Y570757D01*
X580555Y564441D01*
X590139Y560471D01*
X600425Y559117D01*
X651606D01*
X661892Y560471D01*
X671477Y564441D01*
X679708Y570757D01*
X686023Y578987D01*
X689994Y588572D01*
X691348Y598858D01*
X689994Y609144D01*
X686023Y618729D01*
X679708Y626960D01*
X671477Y633275D01*
X661892Y637245D01*
X651606Y638600D01*
X616263D01*
X613617Y643600D01*
X614507Y648071D01*
X613435Y653460D01*
X610382Y658028D01*
X605814Y661081D01*
X600425Y662152D01*
X595036Y661081D01*
X590468Y658028D01*
X587415Y653460D01*
X586344Y648071D01*
X587415Y642682D01*
X588019Y641779D01*
X586141Y635589D01*
X580555Y633275D01*
X572324Y626960D01*
X566925Y619924D01*
X565116Y619484D01*
X562900D01*
X561091Y619924D01*
X555692Y626960D01*
X547461Y633275D01*
X537876Y637245D01*
X527591Y638600D01*
X476409D01*
X466124Y637245D01*
X456539Y633275D01*
X453228Y630735D01*
X448744Y632946D01*
Y711946D01*
X453744Y715291D01*
X456724Y714698D01*
X462113Y715770D01*
X466682Y718822D01*
X469734Y723391D01*
X470806Y728779D01*
X469734Y734168D01*
X466682Y738737D01*
X462113Y741789D01*
X456724Y742861D01*
X453744Y742268D01*
X448744Y745613D01*
X448743Y818245D01*
X453744Y821590D01*
X456724Y820997D01*
X462113Y822069D01*
X466682Y825121D01*
X469734Y829690D01*
X470806Y835079D01*
X469734Y840467D01*
X466682Y845036D01*
X462113Y848088D01*
X456724Y849160D01*
X453744Y848567D01*
X448743Y851912D01*
Y930912D01*
X453228Y933123D01*
X456539Y930583D01*
X466124Y926613D01*
X476409Y925259D01*
X527591D01*
X537876Y926613D01*
X547461Y930583D01*
X555692Y936899D01*
X561091Y943935D01*
X562900Y944374D01*
X565116D01*
X566925Y943935D01*
X572324Y936899D01*
X580555Y930583D01*
X586141Y928269D01*
X588019Y922079D01*
X587415Y921176D01*
X586344Y915787D01*
X587415Y910399D01*
X590468Y905830D01*
X595036Y902778D01*
X600425Y901706D01*
X605814Y902778D01*
X610382Y905830D01*
X613435Y910399D01*
X614507Y915787D01*
X613617Y920258D01*
X616263Y925259D01*
X651606D01*
X661892Y926613D01*
X671477Y930583D01*
X679708Y936899D01*
X686023Y945129D01*
X689994Y954714D01*
X691348Y965000D01*
X689994Y975286D01*
X686023Y984871D01*
X679708Y993101D01*
X671477Y999417D01*
X661892Y1003387D01*
X651606Y1004741D01*
X600425D01*
X590139Y1003387D01*
X580555Y999417D01*
X572324Y993101D01*
X566925Y986065D01*
X565116Y985626D01*
X562900D01*
X561091Y986065D01*
X555692Y993101D01*
X547461Y999417D01*
X537876Y1003387D01*
X527591Y1004741D01*
X476409D01*
X466124Y1003387D01*
X456539Y999417D01*
X453473Y997065D01*
X448139Y999274D01*
X447564Y1003643D01*
X444085Y1012043D01*
X438550Y1019255D01*
X431338Y1024790D01*
X422939Y1028269D01*
X413925Y1029455D01*
X410016Y1032089D01*
X409328Y1033750D01*
X409378Y1033997D01*
X409412Y1235487D01*
X409413Y1240487D01*
X412082Y1244382D01*
X413688Y1245047D01*
X413925Y1245000D01*
X951311D01*
X951548Y1245047D01*
X953154Y1244382D01*
D02*
G37*
G36*
X5108000Y874456D02*
X5103000Y870713D01*
X5102354Y870841D01*
X4618446D01*
X4618198Y871007D01*
X4613906Y871861D01*
X4609614Y871007D01*
X4605975Y868576D01*
X4603544Y864938D01*
X4602690Y860646D01*
X4603544Y856354D01*
X4604317Y855196D01*
X4601645Y850196D01*
X4463807D01*
X4463807Y880804D01*
X5024551D01*
X5028453Y881580D01*
X5031761Y883790D01*
X5090999Y943029D01*
X5091292Y943087D01*
X5094931Y945518D01*
X5097362Y949157D01*
X5098216Y953449D01*
X5097362Y957741D01*
X5094931Y961379D01*
X5091292Y963811D01*
X5087000Y964664D01*
X5082708Y963811D01*
X5079069Y961379D01*
X5076638Y957741D01*
X5076580Y957448D01*
X5020328Y901196D01*
X4612945D01*
X4610351Y906196D01*
X4611362Y907708D01*
X4612216Y912000D01*
X4611362Y916292D01*
X4608931Y919931D01*
X4605292Y922362D01*
X4601000Y923216D01*
X4596708Y922362D01*
X4593069Y919931D01*
X4590638Y916292D01*
X4589784Y912000D01*
X4590638Y907708D01*
X4591649Y906196D01*
X4589055Y901196D01*
X4577898D01*
X4577064Y902285D01*
X4575683Y906196D01*
X4577362Y908708D01*
X4578216Y913000D01*
X4577362Y917292D01*
X4574931Y920931D01*
X4571292Y923362D01*
X4567000Y924216D01*
X4562708Y923362D01*
X4562460Y923196D01*
X4463807D01*
X4463807Y1085087D01*
X4589000Y1085087D01*
X4592902Y1085863D01*
X4596210Y1088073D01*
X4598420Y1091381D01*
X4599196Y1095283D01*
Y1245000D01*
X4751737D01*
X4752732Y1240000D01*
X4749714Y1238750D01*
X4744074Y1234422D01*
X4739746Y1228782D01*
X4737026Y1222214D01*
X4736098Y1215165D01*
X4737026Y1208117D01*
X4739746Y1201549D01*
X4744074Y1195909D01*
X4749714Y1191581D01*
X4756282Y1188860D01*
X4763331Y1187932D01*
X4770379Y1188860D01*
X4776947Y1191581D01*
X4782587Y1195909D01*
X4786915Y1201549D01*
X4789636Y1208117D01*
X4790564Y1215165D01*
X4789636Y1222214D01*
X4786915Y1228782D01*
X4782587Y1234422D01*
X4776947Y1238750D01*
X4773930Y1240000D01*
X4774924Y1245000D01*
X5108000D01*
X5108000Y874456D01*
D02*
G37*
G36*
X4589000Y1095283D02*
X4463000Y1095283D01*
Y1095122D01*
X4459905Y1094506D01*
X4456598Y1092296D01*
X4454387Y1088988D01*
X4453611Y1085087D01*
X4453611Y923196D01*
X4117026D01*
X4113644Y928196D01*
X4114002Y930000D01*
X4113149Y934292D01*
X4110717Y937931D01*
X4107079Y940362D01*
X4106786Y940420D01*
X4093770Y953436D01*
X4093977Y955499D01*
X4095099Y959178D01*
X4097931Y961069D01*
X4100362Y964708D01*
X4101216Y969000D01*
X4100362Y973292D01*
X4100196Y973540D01*
Y1108197D01*
X4099420Y1112099D01*
X4097210Y1115406D01*
X4090000Y1122616D01*
Y1146614D01*
X4110693D01*
X4111176Y1146710D01*
X4119696Y1147832D01*
X4128086Y1151307D01*
X4135290Y1156835D01*
X4140818Y1164039D01*
X4144293Y1172429D01*
X4145415Y1180949D01*
X4145511Y1181432D01*
Y1198136D01*
X4150511Y1199834D01*
X4153523Y1195909D01*
X4159163Y1191581D01*
X4165731Y1188860D01*
X4172780Y1187932D01*
X4179828Y1188860D01*
X4186396Y1191581D01*
X4192036Y1195909D01*
X4196364Y1201549D01*
X4199085Y1208117D01*
X4200013Y1215165D01*
X4199085Y1222214D01*
X4196364Y1228782D01*
X4192036Y1234422D01*
X4186396Y1238750D01*
X4183379Y1240000D01*
X4184373Y1245000D01*
X4589000D01*
Y1095283D01*
D02*
G37*
G36*
X4041670Y1244382D02*
X4044339Y1240487D01*
X4044378Y1235502D01*
Y1181432D01*
X4044372D01*
X4045557Y1172429D01*
X4049032Y1164039D01*
X4054560Y1156835D01*
X4061765Y1151307D01*
X4070154Y1147832D01*
X4078791Y1146695D01*
X4079197Y1146614D01*
X4079804D01*
Y1139289D01*
X4075190Y1136476D01*
X4074804Y1136478D01*
X4071197Y1137196D01*
X4045511D01*
X3963420Y1219287D01*
X3963362Y1219580D01*
X3960931Y1223219D01*
X3957292Y1225650D01*
X3953000Y1226504D01*
X3948708Y1225650D01*
X3945069Y1223219D01*
X3942638Y1219580D01*
X3941785Y1215288D01*
X3942638Y1210996D01*
X3945069Y1207358D01*
X3948708Y1204926D01*
X3949001Y1204868D01*
X4034079Y1119790D01*
X4037386Y1117580D01*
X4041288Y1116804D01*
X4066974D01*
X4079804Y1103974D01*
Y974473D01*
X4077814Y973109D01*
X4074436Y972770D01*
X4029196Y1018010D01*
Y1035000D01*
X4028420Y1038902D01*
X4026210Y1042210D01*
X4008710Y1059709D01*
X4005402Y1061920D01*
X4001500Y1062696D01*
X3994888D01*
X3993372Y1067696D01*
X3993931Y1068069D01*
X3996362Y1071708D01*
X3997215Y1076000D01*
X3996362Y1080292D01*
X3993931Y1083931D01*
X3990292Y1086362D01*
X3986000Y1087216D01*
X3981708Y1086362D01*
X3978069Y1083931D01*
X3975638Y1080292D01*
X3974785Y1076000D01*
X3975638Y1071708D01*
X3978069Y1068069D01*
X3978628Y1067696D01*
X3977112Y1062696D01*
X3939473D01*
X3930946Y1071223D01*
Y1081814D01*
X3933938Y1086292D01*
X3934030Y1086754D01*
X3907470D01*
X3907562Y1086292D01*
X3910554Y1081814D01*
Y1067000D01*
X3911330Y1063098D01*
X3913540Y1059790D01*
X3928041Y1045290D01*
X3931348Y1043080D01*
X3935250Y1042304D01*
X3986984D01*
X3987476Y1037304D01*
X3985708Y1036952D01*
X3982069Y1034521D01*
X3979638Y1030882D01*
X3978785Y1026591D01*
X3979638Y1022298D01*
X3982069Y1018660D01*
X3985708Y1016229D01*
X3990000Y1015375D01*
X3994292Y1016229D01*
X3997931Y1018660D01*
X4000362Y1022298D01*
X4001215Y1026591D01*
X4000362Y1030882D01*
X3997931Y1034521D01*
X3995441Y1036184D01*
X3995990Y1041161D01*
X3996058Y1041328D01*
X3997972Y1041609D01*
X4008804Y1030777D01*
Y1013787D01*
X4009580Y1009885D01*
X4011790Y1006577D01*
X4045709Y972659D01*
X4044837Y968047D01*
X4044101Y967196D01*
X3964223D01*
X3865196Y1066223D01*
Y1075050D01*
X3865362Y1075299D01*
X3866215Y1079591D01*
X3865362Y1083883D01*
X3862931Y1087521D01*
X3859292Y1089952D01*
X3855000Y1090806D01*
X3850708Y1089952D01*
X3847069Y1087521D01*
X3844638Y1083883D01*
X3843785Y1079591D01*
X3844638Y1075299D01*
X3844804Y1075050D01*
Y1062000D01*
X3845580Y1058098D01*
X3847790Y1054790D01*
X3858803Y1043778D01*
X3856340Y1039170D01*
X3856110Y1039216D01*
X3851818Y1038362D01*
X3848180Y1035931D01*
X3845749Y1032292D01*
X3844895Y1028000D01*
X3845749Y1023708D01*
X3848180Y1020069D01*
X3851818Y1017638D01*
X3852111Y1017580D01*
X3944495Y925196D01*
X3944487Y924841D01*
X3942938Y920196D01*
X3818223D01*
X3791196Y947223D01*
X3793659Y951831D01*
X3793795Y951804D01*
X3821460D01*
X3821708Y951638D01*
X3826000Y950784D01*
X3830292Y951638D01*
X3833931Y954069D01*
X3836362Y957708D01*
X3837215Y962000D01*
X3836362Y966292D01*
X3833931Y969931D01*
X3830292Y972362D01*
X3826000Y973216D01*
X3821708Y972362D01*
X3821460Y972196D01*
X3798019D01*
X3769430Y1000784D01*
X3766122Y1002995D01*
X3762220Y1003771D01*
X3727924D01*
X3727676Y1003937D01*
X3723384Y1004790D01*
X3719092Y1003937D01*
X3715454Y1001505D01*
X3713022Y997867D01*
X3712169Y993575D01*
X3713022Y989283D01*
X3713749Y988196D01*
X3711076Y983196D01*
X3586223D01*
X3585196Y984223D01*
Y1105000D01*
X3584420Y1108902D01*
X3582210Y1112210D01*
X3559605Y1134814D01*
Y1145460D01*
X3559771Y1145708D01*
X3560625Y1150000D01*
X3559771Y1154292D01*
X3557340Y1157931D01*
X3553701Y1160362D01*
X3549409Y1161216D01*
X3545117Y1160362D01*
X3541479Y1157931D01*
X3539048Y1154292D01*
X3538194Y1150000D01*
X3539048Y1145708D01*
X3539213Y1145460D01*
Y1130591D01*
X3539990Y1126689D01*
X3542200Y1123381D01*
X3564804Y1100777D01*
Y1021729D01*
X3559804Y1021237D01*
X3559181Y1024371D01*
X3556749Y1028009D01*
X3553111Y1030440D01*
X3548819Y1031294D01*
X3544527Y1030440D01*
X3540888Y1028009D01*
X3538457Y1024371D01*
X3537603Y1020079D01*
X3538457Y1015787D01*
X3540888Y1012148D01*
X3544527Y1009717D01*
X3548819Y1008863D01*
X3553111Y1009717D01*
X3556749Y1012148D01*
X3559181Y1015787D01*
X3559804Y1018921D01*
X3564804Y1018428D01*
Y980000D01*
X3565580Y976098D01*
X3567790Y972790D01*
X3574790Y965790D01*
X3578098Y963580D01*
X3582000Y962804D01*
X3587193D01*
X3589873Y958870D01*
X3590121Y957804D01*
X3589375Y954055D01*
X3590229Y949763D01*
X3592660Y946125D01*
X3596298Y943693D01*
X3596591Y943635D01*
X3651030Y889196D01*
X3648959Y884196D01*
X3623412D01*
X3611010Y896598D01*
X3610952Y896890D01*
X3608521Y900529D01*
X3604883Y902960D01*
X3600590Y903814D01*
X3596298Y902960D01*
X3592660Y900529D01*
X3590229Y896890D01*
X3589375Y892598D01*
X3590229Y888306D01*
X3592660Y884668D01*
X3596298Y882237D01*
X3596591Y882178D01*
X3611979Y866790D01*
X3612047Y866745D01*
X3610531Y861745D01*
X3464390D01*
X3453745Y872390D01*
Y1192713D01*
X3452775Y1197591D01*
X3450012Y1201725D01*
X3411357Y1240380D01*
X3413270Y1245000D01*
X4039827D01*
X4040064Y1245047D01*
X4041670Y1244382D01*
D02*
G37*
G36*
X5399898Y1244421D02*
X5402567Y1240527D01*
X5402607Y1235542D01*
Y1181472D01*
X5402600D01*
X5403785Y1172468D01*
X5407260Y1164079D01*
X5412788Y1156874D01*
X5419993Y1151346D01*
X5428383Y1147871D01*
X5436435Y1146811D01*
X5437425Y1146614D01*
X5468921D01*
X5469989Y1146826D01*
X5477924Y1147871D01*
X5486314Y1151346D01*
X5493519Y1156874D01*
X5499047Y1164079D01*
X5502522Y1172468D01*
X5503628Y1180871D01*
X5503740Y1181432D01*
Y1240290D01*
X5503779Y1240487D01*
X5503779D01*
X5506448Y1244382D01*
X5508054Y1245047D01*
X5508291Y1245000D01*
X5984669D01*
X5984906Y1245047D01*
X5987963Y1243781D01*
X5989229Y1240725D01*
X5989182Y1240487D01*
Y860196D01*
X5795337D01*
X5793423Y864815D01*
X5832210Y903601D01*
X5834420Y906909D01*
X5835196Y910811D01*
Y1156460D01*
X5835362Y1156708D01*
X5836216Y1161000D01*
X5835362Y1165292D01*
X5832931Y1168931D01*
X5829292Y1171362D01*
X5825000Y1172216D01*
X5820708Y1171362D01*
X5817069Y1168931D01*
X5814638Y1165292D01*
X5813784Y1161000D01*
X5814638Y1156708D01*
X5814804Y1156460D01*
Y915034D01*
X5749770Y850000D01*
X5385219Y850000D01*
X5382829Y855000D01*
X5384003Y856757D01*
X5384857Y861049D01*
X5384003Y865341D01*
X5381572Y868980D01*
X5377933Y871411D01*
X5373641Y872265D01*
X5369349Y871411D01*
X5365711Y868980D01*
X5363279Y865341D01*
X5362426Y861049D01*
X5363279Y856757D01*
X5364453Y855000D01*
X5362063Y850000D01*
X5305219D01*
X5302829Y855000D01*
X5304003Y856757D01*
X5304857Y861049D01*
X5304003Y865341D01*
X5301572Y868980D01*
X5297933Y871411D01*
X5293641Y872265D01*
X5289349Y871411D01*
X5285711Y868980D01*
X5283279Y865341D01*
X5282426Y861049D01*
X5283279Y856757D01*
X5284453Y855000D01*
X5282063Y850000D01*
X5225219D01*
X5222829Y855000D01*
X5224003Y856757D01*
X5224857Y861049D01*
X5224003Y865341D01*
X5221572Y868980D01*
X5217933Y871411D01*
X5213641Y872265D01*
X5209349Y871411D01*
X5205711Y868980D01*
X5203279Y865341D01*
X5202426Y861049D01*
X5203279Y856757D01*
X5204453Y855000D01*
X5202063Y850000D01*
X5127419D01*
X5115176Y862244D01*
X5115209Y867246D01*
X5115917Y868306D01*
X5116769Y869253D01*
X5117012Y869945D01*
X5117420Y870554D01*
X5117668Y871804D01*
X5118092Y873005D01*
X5118053Y873737D01*
X5118196Y874456D01*
X5118196Y1245000D01*
X5398055D01*
X5398356Y1245060D01*
X5399898Y1244421D01*
D02*
G37*
G36*
X4088203Y865581D02*
Y753661D01*
X3961875D01*
Y880000D01*
X4073784D01*
X4088203Y865581D01*
D02*
G37*
G36*
X5099804Y709855D02*
Y509980D01*
X5100170Y508142D01*
X5100493Y506296D01*
X5100557Y506195D01*
X5100581Y506079D01*
X5101622Y504520D01*
X5102627Y502938D01*
X5102725Y502870D01*
X5102791Y502771D01*
X5104350Y501729D01*
X5105883Y500653D01*
X5106000Y500601D01*
Y499399D01*
X5105883Y499347D01*
X5104350Y498271D01*
X5102791Y497229D01*
X5102725Y497130D01*
X5102627Y497062D01*
X5101622Y495480D01*
X5100581Y493921D01*
X5100557Y493805D01*
X5100493Y493704D01*
X5100170Y491858D01*
X5099804Y490020D01*
X5099805Y445484D01*
X5099903Y444988D01*
X5099854Y444484D01*
X5100288Y443051D01*
X5100581Y441582D01*
X5100861Y441161D01*
X5101008Y440677D01*
X5101959Y439519D01*
X5102791Y438274D01*
X5103211Y437993D01*
X5103532Y437602D01*
X5104853Y436896D01*
X5106000Y436130D01*
Y433845D01*
X5098351Y426196D01*
X5072493D01*
X5074717Y426638D01*
X5078356Y429069D01*
X5080787Y432708D01*
X5081641Y437000D01*
X5080787Y441292D01*
X5078356Y444931D01*
X5074717Y447362D01*
X5070425Y448216D01*
X5066133Y447362D01*
X5062495Y444931D01*
X5060063Y441292D01*
X5059210Y437000D01*
X5060063Y432708D01*
X5062495Y429069D01*
X5066133Y426638D01*
X5068357Y426196D01*
X4793000D01*
X4793000Y696581D01*
X4847223Y750804D01*
X5012460D01*
X5012708Y750638D01*
X5017000Y749784D01*
X5021292Y750638D01*
X5024931Y753069D01*
X5027362Y756708D01*
X5028216Y761000D01*
X5027420Y765000D01*
X5044659D01*
X5099804Y709855D01*
D02*
G37*
G36*
X5989182Y850000D02*
Y413716D01*
X5989186Y413696D01*
X5989182Y413677D01*
X5989182D01*
X5986512Y409782D01*
X5984906Y409117D01*
X5984669Y409164D01*
X5508291D01*
X5508049Y409116D01*
X5504968Y410392D01*
X5503691Y413473D01*
X5503740Y413716D01*
Y472771D01*
X5503747D01*
X5502560Y481784D01*
X5499081Y490184D01*
X5493547Y497396D01*
X5486334Y502931D01*
X5477935Y506410D01*
X5468921Y507596D01*
Y507589D01*
X5468921Y507589D01*
X5437425D01*
Y507596D01*
X5428412Y506410D01*
X5420012Y502931D01*
X5412800Y497396D01*
X5407266Y490184D01*
X5403786Y481784D01*
X5402600Y472771D01*
X5402607D01*
Y413716D01*
X5402656Y413467D01*
X5401967Y411802D01*
X5398059Y409164D01*
X5393135Y409164D01*
X5116691D01*
X5114778Y413784D01*
X5127574Y426580D01*
X5127867Y426638D01*
X5131505Y429069D01*
X5133937Y432708D01*
X5134790Y437000D01*
X5133937Y441292D01*
X5131505Y444931D01*
X5127867Y447362D01*
X5123575Y448216D01*
X5119283Y447362D01*
X5115644Y444931D01*
X5115000Y443967D01*
X5110000Y445484D01*
X5110000Y490020D01*
X5113171Y491419D01*
X5115000Y491831D01*
X5118283Y489638D01*
X5122575Y488784D01*
X5126867Y489638D01*
X5130505Y492069D01*
X5132937Y495708D01*
X5133790Y500000D01*
X5132937Y504292D01*
X5130505Y507931D01*
X5126867Y510362D01*
X5122575Y511216D01*
X5118283Y510362D01*
X5115000Y508169D01*
X5113171Y508581D01*
X5110000Y509980D01*
Y721048D01*
X5112801Y722208D01*
X5115000Y722650D01*
X5118098Y720580D01*
X5122000Y719804D01*
X5140460D01*
X5140708Y719638D01*
X5145000Y718784D01*
X5149292Y719638D01*
X5152931Y722069D01*
X5155362Y725708D01*
X5156216Y730000D01*
X5155362Y734292D01*
X5152931Y737931D01*
X5149292Y740362D01*
X5145000Y741216D01*
X5140708Y740362D01*
X5140460Y740196D01*
X5126223D01*
X5110000Y756419D01*
Y800305D01*
X5111685Y801652D01*
X5115000Y803401D01*
X5118000Y802804D01*
X5205501D01*
X5207018Y797804D01*
X5205711Y796931D01*
X5203279Y793292D01*
X5202426Y789000D01*
X5203279Y784708D01*
X5205711Y781069D01*
X5209349Y778638D01*
X5213641Y777784D01*
X5217933Y778638D01*
X5221572Y781069D01*
X5224003Y784708D01*
X5224857Y789000D01*
X5224003Y793292D01*
X5221572Y796931D01*
X5220265Y797804D01*
X5221781Y802804D01*
X5285407D01*
X5286923Y797804D01*
X5285616Y796931D01*
X5283185Y793292D01*
X5282331Y789000D01*
X5283185Y784708D01*
X5285616Y781069D01*
X5289255Y778638D01*
X5293547Y777784D01*
X5297839Y778638D01*
X5301477Y781069D01*
X5303909Y784708D01*
X5304762Y789000D01*
X5303909Y793292D01*
X5301477Y796931D01*
X5300170Y797804D01*
X5301687Y802804D01*
X5365407D01*
X5366923Y797804D01*
X5365616Y796931D01*
X5363185Y793292D01*
X5362331Y789000D01*
X5363185Y784708D01*
X5365616Y781069D01*
X5369255Y778638D01*
X5373547Y777784D01*
X5377839Y778638D01*
X5381477Y781069D01*
X5383909Y784708D01*
X5384762Y789000D01*
X5383909Y793292D01*
X5381477Y796931D01*
X5380170Y797804D01*
X5381687Y802804D01*
X5743777D01*
X5813379Y733202D01*
Y490540D01*
X5813213Y490292D01*
X5812359Y486000D01*
X5813213Y481708D01*
X5815644Y478069D01*
X5819283Y475638D01*
X5823575Y474784D01*
X5827867Y475638D01*
X5831505Y478069D01*
X5833937Y481708D01*
X5834790Y486000D01*
X5833937Y490292D01*
X5833771Y490540D01*
Y737425D01*
X5832995Y741327D01*
X5830784Y744635D01*
X5755210Y820210D01*
X5754880Y820430D01*
Y826444D01*
X5755399Y826790D01*
X5778608Y850000D01*
X5989182D01*
D02*
G37*
%LPC*%
G36*
X1575472Y1198929D02*
X1571180Y1198075D01*
X1567542Y1195644D01*
X1565110Y1192005D01*
X1564257Y1187713D01*
X1565110Y1183421D01*
X1567542Y1179783D01*
X1571180Y1177351D01*
X1575472Y1176498D01*
X1579764Y1177351D01*
X1583403Y1179783D01*
X1585834Y1183421D01*
X1586688Y1187713D01*
X1585834Y1192005D01*
X1583403Y1195644D01*
X1579764Y1198075D01*
X1575472Y1198929D01*
D02*
G37*
G36*
X1530472D02*
X1526180Y1198075D01*
X1522542Y1195644D01*
X1520110Y1192005D01*
X1519257Y1187713D01*
X1520110Y1183421D01*
X1522542Y1179783D01*
X1526180Y1177351D01*
X1530472Y1176498D01*
X1534764Y1177351D01*
X1538403Y1179783D01*
X1540834Y1183421D01*
X1541688Y1187713D01*
X1540834Y1192005D01*
X1538403Y1195644D01*
X1534764Y1198075D01*
X1530472Y1198929D01*
D02*
G37*
G36*
X1485472D02*
X1481180Y1198075D01*
X1477542Y1195644D01*
X1475110Y1192005D01*
X1474257Y1187713D01*
X1475110Y1183421D01*
X1477542Y1179783D01*
X1481180Y1177351D01*
X1485472Y1176498D01*
X1489764Y1177351D01*
X1493403Y1179783D01*
X1495834Y1183421D01*
X1496688Y1187713D01*
X1495834Y1192005D01*
X1493403Y1195644D01*
X1489764Y1198075D01*
X1485472Y1198929D01*
D02*
G37*
G36*
X2751000Y1179302D02*
X2746708Y1178448D01*
X2743069Y1176017D01*
X2741271Y1173326D01*
X2738952Y1172879D01*
X2738048D01*
X2735729Y1173326D01*
X2733931Y1176017D01*
X2730292Y1178448D01*
X2726000Y1179302D01*
X2721708Y1178448D01*
X2718069Y1176017D01*
X2716271Y1173326D01*
X2713952Y1172879D01*
X2713048D01*
X2710729Y1173326D01*
X2708931Y1176017D01*
X2705292Y1178448D01*
X2701000Y1179302D01*
X2696708Y1178448D01*
X2693069Y1176017D01*
X2690638Y1172379D01*
X2689785Y1168087D01*
X2690638Y1163795D01*
X2693069Y1160156D01*
X2696708Y1157725D01*
X2701000Y1156871D01*
X2705292Y1157725D01*
X2708931Y1160156D01*
X2710729Y1162847D01*
X2713048Y1163295D01*
X2713952D01*
X2716271Y1162847D01*
X2718069Y1160156D01*
X2721708Y1157725D01*
X2726000Y1156871D01*
X2730292Y1157725D01*
X2733931Y1160156D01*
X2735729Y1162847D01*
X2738048Y1163295D01*
X2738952D01*
X2741271Y1162847D01*
X2743069Y1160156D01*
X2746708Y1157725D01*
X2751000Y1156871D01*
X2755292Y1157725D01*
X2758931Y1160156D01*
X2761362Y1163795D01*
X2762215Y1168087D01*
X2761362Y1172379D01*
X2758931Y1176017D01*
X2755292Y1178448D01*
X2751000Y1179302D01*
D02*
G37*
G36*
X2925000Y1192216D02*
X2920708Y1191362D01*
X2917069Y1188931D01*
X2914638Y1185292D01*
X2913785Y1181000D01*
X2914638Y1176708D01*
X2917069Y1173069D01*
X2920708Y1170638D01*
X2925000Y1169784D01*
X2929292Y1170638D01*
X2932931Y1173069D01*
X2935362Y1176708D01*
X2936215Y1181000D01*
X2935362Y1185292D01*
X2932931Y1188931D01*
X2929292Y1191362D01*
X2925000Y1192216D01*
D02*
G37*
G36*
X2895000D02*
X2890708Y1191362D01*
X2887069Y1188931D01*
X2884638Y1185292D01*
X2883785Y1181000D01*
X2884638Y1176708D01*
X2887069Y1173069D01*
X2890708Y1170638D01*
X2895000Y1169784D01*
X2899292Y1170638D01*
X2902931Y1173069D01*
X2905362Y1176708D01*
X2906215Y1181000D01*
X2905362Y1185292D01*
X2902931Y1188931D01*
X2899292Y1191362D01*
X2895000Y1192216D01*
D02*
G37*
G36*
X2866000D02*
X2861708Y1191362D01*
X2858069Y1188931D01*
X2855638Y1185292D01*
X2854785Y1181000D01*
X2855638Y1176708D01*
X2858069Y1173069D01*
X2861708Y1170638D01*
X2866000Y1169784D01*
X2870292Y1170638D01*
X2873931Y1173069D01*
X2876362Y1176708D01*
X2877215Y1181000D01*
X2876362Y1185292D01*
X2873931Y1188931D01*
X2870292Y1191362D01*
X2866000Y1192216D01*
D02*
G37*
G36*
X458000Y1225276D02*
X449646Y1224176D01*
X441862Y1220952D01*
X435177Y1215823D01*
X430048Y1209138D01*
X426824Y1201354D01*
X425724Y1193000D01*
X426824Y1184646D01*
X430048Y1176862D01*
X435177Y1170177D01*
X441862Y1165048D01*
X449646Y1161824D01*
X458000Y1160724D01*
X466354Y1161824D01*
X467198Y1162173D01*
X500070Y1129302D01*
X505031Y1125986D01*
X510884Y1124822D01*
X687884D01*
X693737Y1125986D01*
X698698Y1129302D01*
X702014Y1134263D01*
X703178Y1140116D01*
X702014Y1145969D01*
X698698Y1150930D01*
X693737Y1154246D01*
X687884Y1155410D01*
X589816D01*
X589489Y1160410D01*
X592354Y1160787D01*
X600138Y1164012D01*
X606823Y1169141D01*
X611952Y1175825D01*
X612302Y1176670D01*
X680489D01*
X727186Y1129973D01*
X732147Y1126658D01*
X738000Y1125494D01*
X743853Y1126658D01*
X748814Y1129973D01*
X752130Y1134935D01*
X753294Y1140787D01*
X752130Y1146640D01*
X748814Y1151602D01*
X697638Y1202778D01*
X692677Y1206093D01*
X686824Y1207257D01*
X612302D01*
X611952Y1208102D01*
X606823Y1214786D01*
X600138Y1219915D01*
X592354Y1223140D01*
X584000Y1224240D01*
X575646Y1223140D01*
X567862Y1219915D01*
X561177Y1214786D01*
X556048Y1208102D01*
X552824Y1200317D01*
X551724Y1191964D01*
X552824Y1183610D01*
X556048Y1175825D01*
X561177Y1169141D01*
X567862Y1164012D01*
X575646Y1160787D01*
X578511Y1160410D01*
X578184Y1155410D01*
X517219D01*
X488827Y1183802D01*
X489176Y1184646D01*
X490276Y1193000D01*
X489176Y1201354D01*
X485952Y1209138D01*
X480823Y1215823D01*
X474138Y1220952D01*
X466354Y1224176D01*
X458000Y1225276D01*
D02*
G37*
G36*
X1228724Y1218235D02*
X1216913D01*
X1204572Y1216610D01*
X1193072Y1211846D01*
X1183196Y1204268D01*
X1175618Y1194393D01*
X1170855Y1182893D01*
X1169230Y1170551D01*
X1170855Y1158210D01*
X1175618Y1146709D01*
X1183196Y1136834D01*
X1193072Y1129256D01*
X1204572Y1124493D01*
X1216913Y1122868D01*
X1228724D01*
X1241066Y1124493D01*
X1252566Y1129256D01*
X1262442Y1136834D01*
X1270020Y1146709D01*
X1274783Y1158210D01*
X1276408Y1170551D01*
X1274783Y1182893D01*
X1270020Y1194393D01*
X1262442Y1204268D01*
X1252566Y1211846D01*
X1241066Y1216610D01*
X1228724Y1218235D01*
D02*
G37*
G36*
X789305Y1157134D02*
X783452Y1155970D01*
X778490Y1152655D01*
X775175Y1147693D01*
X774011Y1141841D01*
Y1124640D01*
X742106Y1092735D01*
X612302D01*
X611952Y1093579D01*
X606823Y1100264D01*
X600138Y1105393D01*
X592354Y1108617D01*
X584000Y1109717D01*
X575646Y1108617D01*
X567862Y1105393D01*
X561177Y1100264D01*
X556048Y1093579D01*
X552824Y1085795D01*
X551724Y1077441D01*
X552824Y1069087D01*
X556048Y1061303D01*
X561177Y1054618D01*
X567862Y1049489D01*
X575646Y1046265D01*
X584000Y1045165D01*
X592354Y1046265D01*
X600138Y1049489D01*
X606823Y1054618D01*
X611952Y1061303D01*
X612302Y1062147D01*
X748441D01*
X754294Y1063311D01*
X759255Y1066627D01*
X800119Y1107491D01*
X803435Y1112452D01*
X804599Y1118305D01*
Y1141841D01*
X803435Y1147693D01*
X800119Y1152655D01*
X795158Y1155970D01*
X789305Y1157134D01*
D02*
G37*
G36*
X458000Y1109717D02*
X449646Y1108617D01*
X441862Y1105393D01*
X435177Y1100264D01*
X430048Y1093579D01*
X426824Y1085795D01*
X425724Y1077441D01*
X426824Y1069087D01*
X430048Y1061303D01*
X435177Y1054618D01*
X441862Y1049489D01*
X449646Y1046265D01*
X458000Y1045165D01*
X466354Y1046265D01*
X474138Y1049489D01*
X480823Y1054618D01*
X485952Y1061303D01*
X489176Y1069087D01*
X490276Y1077441D01*
X489176Y1085795D01*
X485952Y1093579D01*
X480823Y1100264D01*
X474138Y1105393D01*
X466354Y1108617D01*
X458000Y1109717D01*
D02*
G37*
G36*
X2374000Y1008641D02*
X2369708Y1007787D01*
X2366069Y1005356D01*
X2363638Y1001717D01*
X2362785Y997425D01*
X2363638Y993133D01*
X2366069Y989495D01*
X2369708Y987063D01*
X2374000Y986210D01*
X2378292Y987063D01*
X2381931Y989495D01*
X2384362Y993133D01*
X2385215Y997425D01*
X2384362Y1001717D01*
X2381931Y1005356D01*
X2378292Y1007787D01*
X2374000Y1008641D01*
D02*
G37*
G36*
X2040000Y1018103D02*
X2032307Y1016573D01*
X2025785Y1012215D01*
X2021427Y1005693D01*
X2019897Y998000D01*
X2021427Y990307D01*
X2025785Y983785D01*
X2032307Y979427D01*
X2040000Y977897D01*
X2047693Y979427D01*
X2054215Y983785D01*
X2058573Y990307D01*
X2060103Y998000D01*
X2058573Y1005693D01*
X2054215Y1012215D01*
X2047693Y1016573D01*
X2040000Y1018103D01*
D02*
G37*
G36*
X2015892Y970108D02*
X2011600Y969254D01*
X2007962Y966823D01*
X2005530Y963184D01*
X2004677Y958892D01*
X2005530Y954600D01*
X2007962Y950962D01*
X2011600Y948530D01*
X2015892Y947677D01*
X2020184Y948530D01*
X2023823Y950962D01*
X2026254Y954600D01*
X2027108Y958892D01*
X2026254Y963184D01*
X2023823Y966823D01*
X2020184Y969254D01*
X2015892Y970108D01*
D02*
G37*
G36*
X1921496Y962682D02*
X1917204Y961828D01*
X1917117Y961770D01*
X1890493D01*
X1886591Y960994D01*
X1883283Y958784D01*
X1855018Y930519D01*
X1722540D01*
X1722292Y930685D01*
X1718000Y931538D01*
X1713708Y930685D01*
X1713460Y930519D01*
X1589813D01*
X1585911Y929743D01*
X1582603Y927533D01*
X1503363Y848292D01*
X1503070Y848234D01*
X1499431Y845803D01*
X1497000Y842164D01*
X1496147Y837872D01*
X1497000Y833580D01*
X1499431Y829942D01*
X1503070Y827511D01*
X1507362Y826657D01*
X1511654Y827511D01*
X1515293Y829942D01*
X1517724Y833580D01*
X1517782Y833873D01*
X1594036Y910127D01*
X1713460D01*
X1713708Y909961D01*
X1718000Y909107D01*
X1722292Y909961D01*
X1722540Y910127D01*
X1826054D01*
X1827273Y905497D01*
X1815414Y900585D01*
X1805230Y892770D01*
X1797415Y882586D01*
X1792503Y870727D01*
X1790827Y858000D01*
X1792503Y845273D01*
X1797415Y833414D01*
X1805230Y823230D01*
X1815414Y815415D01*
X1827273Y810503D01*
X1840000Y808827D01*
X1852727Y810503D01*
X1864586Y815415D01*
X1874770Y823230D01*
X1882585Y833414D01*
X1887497Y845273D01*
X1889173Y858000D01*
X1887497Y870727D01*
X1882585Y882586D01*
X1874770Y892770D01*
X1864586Y900585D01*
X1852727Y905497D01*
X1853946Y910127D01*
X1859242D01*
X1863143Y910903D01*
X1866451Y913113D01*
X1894716Y941378D01*
X1916794D01*
X1917204Y941104D01*
X1921496Y940251D01*
X1925788Y941104D01*
X1929427Y943535D01*
X1931858Y947174D01*
X1932711Y951466D01*
X1931858Y955758D01*
X1929427Y959397D01*
X1925788Y961828D01*
X1921496Y962682D01*
D02*
G37*
G36*
X1840000Y978103D02*
X1832307Y976573D01*
X1825785Y972215D01*
X1821427Y965693D01*
X1819897Y958000D01*
X1821427Y950307D01*
X1825785Y943785D01*
X1832307Y939427D01*
X1840000Y937897D01*
X1847693Y939427D01*
X1854215Y943785D01*
X1858573Y950307D01*
X1860103Y958000D01*
X1858573Y965693D01*
X1854215Y972215D01*
X1847693Y976573D01*
X1840000Y978103D01*
D02*
G37*
G36*
X2534000Y989276D02*
X2525646Y988176D01*
X2517862Y984952D01*
X2511177Y979823D01*
X2506048Y973138D01*
X2502824Y965354D01*
X2501724Y957000D01*
X2502824Y948646D01*
X2506048Y940862D01*
X2511177Y934177D01*
X2517862Y929048D01*
X2525646Y925824D01*
X2534000Y924724D01*
X2542354Y925824D01*
X2550138Y929048D01*
X2556823Y934177D01*
X2561952Y940862D01*
X2565176Y948646D01*
X2566276Y957000D01*
X2565176Y965354D01*
X2561952Y973138D01*
X2556823Y979823D01*
X2550138Y984952D01*
X2542354Y988176D01*
X2534000Y989276D01*
D02*
G37*
G36*
X2183000Y936216D02*
X2178708Y935362D01*
X2175069Y932931D01*
X2172638Y929292D01*
X2171785Y925000D01*
X2172638Y920708D01*
X2175069Y917069D01*
X2178708Y914638D01*
X2183000Y913784D01*
X2187292Y914638D01*
X2190931Y917069D01*
X2193362Y920708D01*
X2194215Y925000D01*
X2193362Y929292D01*
X2190931Y932931D01*
X2187292Y935362D01*
X2183000Y936216D01*
D02*
G37*
G36*
X2040000Y938103D02*
X2032307Y936573D01*
X2025785Y932215D01*
X2021427Y925693D01*
X2019897Y918000D01*
X2021427Y910307D01*
X2025785Y903785D01*
X2032307Y899427D01*
X2040000Y897897D01*
X2047693Y899427D01*
X2054215Y903785D01*
X2058573Y910307D01*
X2060103Y918000D01*
X2058573Y925693D01*
X2054215Y932215D01*
X2047693Y936573D01*
X2040000Y938103D01*
D02*
G37*
G36*
X1073000Y917027D02*
X1068708Y916173D01*
X1065069Y913742D01*
X1062638Y910103D01*
X1061784Y905811D01*
X1062638Y901519D01*
X1065069Y897880D01*
X1068708Y895449D01*
X1073000Y894596D01*
X1077292Y895449D01*
X1080931Y897880D01*
X1083362Y901519D01*
X1084216Y905811D01*
X1083362Y910103D01*
X1080931Y913742D01*
X1077292Y916173D01*
X1073000Y917027D01*
D02*
G37*
G36*
X1005685Y908893D02*
X1001393Y908039D01*
X997755Y905608D01*
X995323Y901969D01*
X994470Y897677D01*
X995323Y893385D01*
X997755Y889746D01*
X1001393Y887315D01*
X1005685Y886462D01*
X1009977Y887315D01*
X1013616Y889746D01*
X1016047Y893385D01*
X1016901Y897677D01*
X1016047Y901969D01*
X1013616Y905608D01*
X1009977Y908039D01*
X1005685Y908893D01*
D02*
G37*
G36*
X2182945Y903814D02*
X2178653Y902960D01*
X2175014Y900529D01*
X2172583Y896890D01*
X2171729Y892598D01*
X2172583Y888306D01*
X2175014Y884668D01*
X2178653Y882237D01*
X2182945Y881383D01*
X2187237Y882237D01*
X2190876Y884668D01*
X2193307Y888306D01*
X2194160Y892598D01*
X2193307Y896890D01*
X2190876Y900529D01*
X2187237Y902960D01*
X2182945Y903814D01*
D02*
G37*
G36*
X1718000Y896893D02*
X1713708Y896039D01*
X1710069Y893608D01*
X1707638Y889969D01*
X1706784Y885677D01*
X1707638Y881385D01*
X1710069Y877747D01*
X1713708Y875315D01*
X1718000Y874462D01*
X1722292Y875315D01*
X1725931Y877747D01*
X1728362Y881385D01*
X1729216Y885677D01*
X1728362Y889969D01*
X1725931Y893608D01*
X1722292Y896039D01*
X1718000Y896893D01*
D02*
G37*
G36*
X1674982Y870196D02*
X1595018D01*
X1591117Y869420D01*
X1587809Y867210D01*
X1576924Y856325D01*
X1574714Y853017D01*
X1573938Y849115D01*
Y845644D01*
X1568942Y842402D01*
X1568727Y842431D01*
X1566474Y845803D01*
X1562835Y848234D01*
X1558543Y849088D01*
X1554251Y848234D01*
X1550613Y845803D01*
X1548181Y842164D01*
X1547328Y837872D01*
X1548181Y833580D01*
X1548347Y833332D01*
Y823457D01*
X1549123Y819555D01*
X1551334Y816247D01*
X1562790Y804790D01*
X1566098Y802580D01*
X1570000Y801804D01*
X1594093D01*
X1597944Y796804D01*
X1597784Y796000D01*
X1598638Y791708D01*
X1601069Y788069D01*
X1604708Y785638D01*
X1605001Y785580D01*
X1631804Y758777D01*
Y755029D01*
X1631638Y754780D01*
X1630784Y750488D01*
X1631638Y746196D01*
X1634069Y742558D01*
X1637708Y740126D01*
X1642000Y739273D01*
X1646292Y740126D01*
X1649931Y742558D01*
X1652362Y746196D01*
X1653216Y750488D01*
X1652362Y754780D01*
X1652196Y755029D01*
Y763000D01*
X1651420Y766902D01*
X1649210Y770210D01*
X1622615Y796804D01*
X1624686Y801804D01*
X1657139D01*
X1670983Y787960D01*
Y754653D01*
X1670155Y750488D01*
X1671008Y746196D01*
X1673439Y742558D01*
X1677078Y740126D01*
X1681370Y739273D01*
X1685662Y740126D01*
X1689301Y742558D01*
X1691732Y746196D01*
X1692586Y750488D01*
X1691732Y754780D01*
X1691375Y755315D01*
Y792183D01*
X1690599Y796085D01*
X1688388Y799393D01*
X1690227Y804625D01*
X1690292Y804638D01*
X1693931Y807069D01*
X1696362Y810708D01*
X1697216Y815000D01*
X1696362Y819292D01*
X1696196Y819540D01*
Y848981D01*
X1695420Y852883D01*
X1693210Y856191D01*
X1682191Y867210D01*
X1678883Y869420D01*
X1674982Y870196D01*
D02*
G37*
G36*
X1030370Y835020D02*
Y826740D01*
X1038650D01*
X1038558Y827203D01*
X1035464Y831834D01*
X1030833Y834928D01*
X1030370Y835020D01*
D02*
G37*
G36*
X1020370D02*
X1019908Y834928D01*
X1015277Y831834D01*
X1012182Y827203D01*
X1012090Y826740D01*
X1020370D01*
Y835020D01*
D02*
G37*
G36*
X1430590Y848860D02*
X1426298Y848006D01*
X1422660Y845575D01*
X1420229Y841937D01*
X1419375Y837645D01*
X1420229Y833353D01*
X1422660Y829714D01*
X1426298Y827283D01*
X1430590Y826429D01*
X1434882Y827283D01*
X1438521Y829714D01*
X1440952Y833353D01*
X1441806Y837645D01*
X1440952Y841937D01*
X1438521Y845575D01*
X1434882Y848006D01*
X1430590Y848860D01*
D02*
G37*
G36*
X1965000Y907173D02*
X1952273Y905497D01*
X1940414Y900585D01*
X1930230Y892770D01*
X1922415Y882586D01*
X1917503Y870727D01*
X1915827Y858000D01*
X1917503Y845273D01*
X1922415Y833414D01*
X1930230Y823230D01*
X1940414Y815415D01*
X1952273Y810503D01*
X1965000Y808827D01*
X1977727Y810503D01*
X1989586Y815415D01*
X1999770Y823230D01*
X2007585Y833414D01*
X2012497Y845273D01*
X2014173Y858000D01*
X2012497Y870727D01*
X2007585Y882586D01*
X1999770Y892770D01*
X1989586Y900585D01*
X1977727Y905497D01*
X1965000Y907173D01*
D02*
G37*
G36*
X1072582Y804571D02*
X1068291Y803717D01*
X1064652Y801286D01*
X1062221Y797647D01*
X1061367Y793355D01*
X1062221Y789063D01*
X1064652Y785425D01*
X1068291Y782994D01*
X1072582Y782140D01*
X1076874Y782994D01*
X1080513Y785425D01*
X1082944Y789063D01*
X1083798Y793355D01*
X1082944Y797647D01*
X1080513Y801286D01*
X1076874Y803717D01*
X1072582Y804571D01*
D02*
G37*
G36*
X779362Y799319D02*
X775070Y798465D01*
X771431Y796034D01*
X769000Y792395D01*
X768146Y788103D01*
X769000Y783811D01*
X771431Y780173D01*
X775070Y777741D01*
X779362Y776888D01*
X783654Y777741D01*
X787293Y780173D01*
X789724Y783811D01*
X790577Y788103D01*
X789724Y792395D01*
X787293Y796034D01*
X783654Y798465D01*
X779362Y799319D01*
D02*
G37*
G36*
X830000Y794216D02*
X825708Y793362D01*
X822069Y790931D01*
X819638Y787292D01*
X818784Y783000D01*
X819638Y778708D01*
X822069Y775069D01*
X825708Y772638D01*
X830000Y771784D01*
X834292Y772638D01*
X837931Y775069D01*
X840362Y778708D01*
X841216Y783000D01*
X840362Y787292D01*
X837931Y790931D01*
X834292Y793362D01*
X830000Y794216D01*
D02*
G37*
G36*
X3655028Y774216D02*
X3650735Y773362D01*
X3647097Y770931D01*
X3644666Y767292D01*
X3643812Y763000D01*
X3644666Y758708D01*
X3647097Y755069D01*
X3650735Y752638D01*
X3651028Y752580D01*
X3655818Y747790D01*
X3659126Y745580D01*
X3663028Y744804D01*
X3907460D01*
X3907708Y744638D01*
X3912000Y743784D01*
X3916292Y744638D01*
X3919931Y747069D01*
X3922362Y750708D01*
X3923215Y755000D01*
X3922362Y759292D01*
X3919931Y762931D01*
X3916292Y765362D01*
X3912000Y766216D01*
X3907708Y765362D01*
X3907460Y765196D01*
X3667251D01*
X3665448Y766999D01*
X3665389Y767292D01*
X3662958Y770931D01*
X3659320Y773362D01*
X3655028Y774216D01*
D02*
G37*
G36*
X1503748Y755946D02*
X1499456Y755092D01*
X1495817Y752661D01*
X1493386Y749023D01*
X1492532Y744731D01*
X1493386Y740439D01*
X1495817Y736800D01*
X1499456Y734369D01*
X1503748Y733515D01*
X1508040Y734369D01*
X1511678Y736800D01*
X1514110Y740439D01*
X1514963Y744731D01*
X1514110Y749023D01*
X1511678Y752661D01*
X1508040Y755092D01*
X1503748Y755946D01*
D02*
G37*
G36*
X1458748D02*
X1454456Y755092D01*
X1450817Y752661D01*
X1448386Y749023D01*
X1447532Y744731D01*
X1448386Y740439D01*
X1450817Y736800D01*
X1454456Y734369D01*
X1458748Y733515D01*
X1463040Y734369D01*
X1466678Y736800D01*
X1469110Y740439D01*
X1469963Y744731D01*
X1469110Y749023D01*
X1466678Y752661D01*
X1463040Y755092D01*
X1458748Y755946D01*
D02*
G37*
G36*
X830000Y748907D02*
X825708Y748053D01*
X822069Y745622D01*
X819638Y741983D01*
X818784Y737691D01*
X819638Y733399D01*
X822069Y729761D01*
X825708Y727330D01*
X830000Y726476D01*
X834292Y727330D01*
X837931Y729761D01*
X840362Y733399D01*
X841216Y737691D01*
X840362Y741983D01*
X837931Y745622D01*
X834292Y748053D01*
X830000Y748907D01*
D02*
G37*
G36*
X779362Y743894D02*
X775070Y743040D01*
X771431Y740609D01*
X769000Y736970D01*
X768146Y732678D01*
X769000Y728386D01*
X771431Y724747D01*
X775070Y722316D01*
X779362Y721463D01*
X783654Y722316D01*
X787293Y724747D01*
X789724Y728386D01*
X790577Y732678D01*
X789724Y736970D01*
X787293Y740609D01*
X783654Y743040D01*
X779362Y743894D01*
D02*
G37*
G36*
X3655028Y739570D02*
X3650735Y738716D01*
X3647097Y736285D01*
X3644666Y732646D01*
X3643812Y728354D01*
X3644666Y724062D01*
X3647097Y720424D01*
X3650735Y717993D01*
X3655028Y717139D01*
X3659320Y717993D01*
X3662958Y720424D01*
X3665389Y724062D01*
X3666243Y728354D01*
X3665389Y732646D01*
X3662958Y736285D01*
X3659320Y738716D01*
X3655028Y739570D01*
D02*
G37*
G36*
X3610000D02*
X3605708Y738716D01*
X3602069Y736285D01*
X3599638Y732646D01*
X3598785Y728354D01*
X3599638Y724062D01*
X3602069Y720424D01*
X3605708Y717993D01*
X3610000Y717139D01*
X3614292Y717993D01*
X3617931Y720424D01*
X3620362Y724062D01*
X3621215Y728354D01*
X3620362Y732646D01*
X3617931Y736285D01*
X3614292Y738716D01*
X3610000Y739570D01*
D02*
G37*
G36*
X2416000Y733129D02*
X2411708Y732275D01*
X2408069Y729844D01*
X2405638Y726205D01*
X2404785Y721913D01*
X2405638Y717621D01*
X2408069Y713983D01*
X2411708Y711552D01*
X2416000Y710698D01*
X2420292Y711552D01*
X2423931Y713983D01*
X2426362Y717621D01*
X2427215Y721913D01*
X2426362Y726205D01*
X2423931Y729844D01*
X2420292Y732275D01*
X2416000Y733129D01*
D02*
G37*
G36*
X1072582Y726893D02*
X1068291Y726039D01*
X1064652Y723608D01*
X1062221Y719969D01*
X1061367Y715677D01*
X1062221Y711385D01*
X1064652Y707747D01*
X1068291Y705315D01*
X1072582Y704462D01*
X1076874Y705315D01*
X1080513Y707747D01*
X1082944Y711385D01*
X1083798Y715677D01*
X1082944Y719969D01*
X1080513Y723608D01*
X1076874Y726039D01*
X1072582Y726893D01*
D02*
G37*
G36*
X1393000Y709870D02*
Y701591D01*
X1401280D01*
X1401188Y702053D01*
X1398093Y706684D01*
X1393463Y709778D01*
X1393000Y709870D01*
D02*
G37*
G36*
X1383000D02*
X1382537Y709778D01*
X1377907Y706684D01*
X1374812Y702053D01*
X1374720Y701591D01*
X1383000D01*
Y709870D01*
D02*
G37*
G36*
X3765000Y738216D02*
X3760708Y737362D01*
X3757069Y734931D01*
X3754638Y731292D01*
X3753785Y727000D01*
X3754638Y722708D01*
X3757069Y719069D01*
X3760708Y716638D01*
X3761001Y716580D01*
X3773790Y703790D01*
X3777098Y701580D01*
X3781000Y700804D01*
X3925460D01*
X3925708Y700638D01*
X3930000Y699784D01*
X3934292Y700638D01*
X3937931Y703069D01*
X3940362Y706708D01*
X3941215Y711000D01*
X3940362Y715292D01*
X3937931Y718931D01*
X3934292Y721362D01*
X3930000Y722216D01*
X3925708Y721362D01*
X3925460Y721196D01*
X3785223D01*
X3775420Y730999D01*
X3775362Y731292D01*
X3772931Y734931D01*
X3769292Y737362D01*
X3765000Y738216D01*
D02*
G37*
G36*
X1685307Y710523D02*
X1681015Y709669D01*
X1677377Y707238D01*
X1674945Y703599D01*
X1674092Y699307D01*
X1674945Y695015D01*
X1677377Y691376D01*
X1681015Y688945D01*
X1685307Y688092D01*
X1689599Y688945D01*
X1693238Y691376D01*
X1695669Y695015D01*
X1696523Y699307D01*
X1695669Y703599D01*
X1693238Y707238D01*
X1689599Y709669D01*
X1685307Y710523D01*
D02*
G37*
G36*
X1642000D02*
X1637708Y709669D01*
X1634069Y707238D01*
X1631638Y703599D01*
X1630784Y699307D01*
X1631638Y695015D01*
X1634069Y691376D01*
X1637708Y688945D01*
X1642000Y688092D01*
X1646292Y688945D01*
X1649931Y691376D01*
X1652362Y695015D01*
X1653216Y699307D01*
X1652362Y703599D01*
X1649931Y707238D01*
X1646292Y709669D01*
X1642000Y710523D01*
D02*
G37*
G36*
X1598693D02*
X1594401Y709669D01*
X1590762Y707238D01*
X1588331Y703599D01*
X1587477Y699307D01*
X1588331Y695015D01*
X1590762Y691376D01*
X1594401Y688945D01*
X1598693Y688092D01*
X1602985Y688945D01*
X1606623Y691376D01*
X1609055Y695015D01*
X1609908Y699307D01*
X1609055Y703599D01*
X1606623Y707238D01*
X1602985Y709669D01*
X1598693Y710523D01*
D02*
G37*
G36*
X1401280Y691591D02*
X1393000D01*
Y683311D01*
X1393463Y683403D01*
X1398093Y686497D01*
X1401188Y691128D01*
X1401280Y691591D01*
D02*
G37*
G36*
X1383000D02*
X1374720D01*
X1374812Y691128D01*
X1377907Y686497D01*
X1382537Y683403D01*
X1383000Y683311D01*
Y691591D01*
D02*
G37*
G36*
X1462246Y695373D02*
X1457954Y694519D01*
X1454315Y692088D01*
X1451884Y688449D01*
X1451030Y684158D01*
X1451884Y679865D01*
X1454315Y676227D01*
X1457954Y673796D01*
X1462246Y672942D01*
X1466538Y673796D01*
X1470176Y676227D01*
X1472608Y679865D01*
X1473461Y684158D01*
X1472608Y688449D01*
X1470176Y692088D01*
X1466538Y694519D01*
X1462246Y695373D01*
D02*
G37*
G36*
X1685307Y667216D02*
X1681015Y666362D01*
X1677377Y663931D01*
X1674945Y660292D01*
X1674092Y656000D01*
X1674945Y651708D01*
X1677377Y648069D01*
X1681015Y645638D01*
X1685307Y644784D01*
X1689599Y645638D01*
X1693238Y648069D01*
X1695669Y651708D01*
X1696523Y656000D01*
X1695669Y660292D01*
X1693238Y663931D01*
X1689599Y666362D01*
X1685307Y667216D01*
D02*
G37*
G36*
X1642000D02*
X1637708Y666362D01*
X1634069Y663931D01*
X1631638Y660292D01*
X1630784Y656000D01*
X1631638Y651708D01*
X1634069Y648069D01*
X1637708Y645638D01*
X1642000Y644784D01*
X1646292Y645638D01*
X1649931Y648069D01*
X1652362Y651708D01*
X1653216Y656000D01*
X1652362Y660292D01*
X1649931Y663931D01*
X1646292Y666362D01*
X1642000Y667216D01*
D02*
G37*
G36*
X1598693D02*
X1594401Y666362D01*
X1590762Y663931D01*
X1588331Y660292D01*
X1587477Y656000D01*
X1588331Y651708D01*
X1590762Y648069D01*
X1594401Y645638D01*
X1598693Y644784D01*
X1602985Y645638D01*
X1606623Y648069D01*
X1609055Y651708D01*
X1609908Y656000D01*
X1609055Y660292D01*
X1606623Y663931D01*
X1602985Y666362D01*
X1598693Y667216D01*
D02*
G37*
G36*
X3160260Y668644D02*
Y639000D01*
X3189903D01*
X3189359Y643137D01*
X3185832Y651651D01*
X3180222Y658962D01*
X3172911Y664572D01*
X3164397Y668099D01*
X3160260Y668644D01*
D02*
G37*
G36*
X3150260D02*
X3146123Y668099D01*
X3137609Y664572D01*
X3130298Y658962D01*
X3124687Y651651D01*
X3121161Y643137D01*
X3120616Y639000D01*
X3150260D01*
Y668644D01*
D02*
G37*
G36*
X1685307Y623908D02*
X1681015Y623055D01*
X1677377Y620624D01*
X1674945Y616985D01*
X1674092Y612693D01*
X1674945Y608401D01*
X1677377Y604762D01*
X1681015Y602331D01*
X1685307Y601477D01*
X1689599Y602331D01*
X1693238Y604762D01*
X1695669Y608401D01*
X1696523Y612693D01*
X1695669Y616985D01*
X1693238Y620624D01*
X1689599Y623055D01*
X1685307Y623908D01*
D02*
G37*
G36*
X1642000D02*
X1637708Y623055D01*
X1634069Y620624D01*
X1631638Y616985D01*
X1630784Y612693D01*
X1631638Y608401D01*
X1634069Y604762D01*
X1637708Y602331D01*
X1642000Y601477D01*
X1646292Y602331D01*
X1649931Y604762D01*
X1652362Y608401D01*
X1653216Y612693D01*
X1652362Y616985D01*
X1649931Y620624D01*
X1646292Y623055D01*
X1642000Y623908D01*
D02*
G37*
G36*
X1598693D02*
X1594401Y623055D01*
X1590762Y620624D01*
X1588331Y616985D01*
X1587477Y612693D01*
X1588331Y608401D01*
X1590762Y604762D01*
X1594401Y602331D01*
X1598693Y601477D01*
X1602985Y602331D01*
X1606623Y604762D01*
X1609055Y608401D01*
X1609908Y612693D01*
X1609055Y616985D01*
X1606623Y620624D01*
X1602985Y623055D01*
X1598693Y623908D01*
D02*
G37*
G36*
X4072000Y672745D02*
X3928189D01*
X3923312Y671775D01*
X3919177Y669012D01*
X3892413Y642248D01*
X3889650Y638114D01*
X3888680Y633236D01*
X3889246Y630392D01*
X3886077Y625392D01*
X3852476D01*
X3844673Y623840D01*
X3838057Y619419D01*
X3818698Y600061D01*
X3817212Y600676D01*
X3808858Y601776D01*
X3800505Y600676D01*
X3792720Y597452D01*
X3786036Y592322D01*
X3780906Y585638D01*
X3777682Y577854D01*
X3776582Y569500D01*
X3777682Y561146D01*
X3780906Y553362D01*
X3786036Y546677D01*
X3792720Y541548D01*
X3800505Y538324D01*
X3808858Y537224D01*
X3817212Y538324D01*
X3824996Y541548D01*
X3831681Y546677D01*
X3836810Y553362D01*
X3840035Y561146D01*
X3840425Y564110D01*
X3860923Y584608D01*
X4246298D01*
X4249303Y579608D01*
X4248784Y577000D01*
X4249638Y572708D01*
X4252069Y569069D01*
X4255708Y566638D01*
X4260000Y565784D01*
X4264292Y566638D01*
X4267931Y569069D01*
X4269222Y571002D01*
X4269358Y571055D01*
X4274642D01*
X4274778Y571002D01*
X4276069Y569069D01*
X4279708Y566638D01*
X4284000Y565784D01*
X4288292Y566638D01*
X4291931Y569069D01*
X4293222Y571002D01*
X4293358Y571055D01*
X4298642D01*
X4298778Y571002D01*
X4300069Y569069D01*
X4303708Y566638D01*
X4308000Y565784D01*
X4312292Y566638D01*
X4315931Y569069D01*
X4317222Y571002D01*
X4317358Y571055D01*
X4322642D01*
X4322778Y571002D01*
X4324069Y569069D01*
X4327708Y566638D01*
X4332000Y565784D01*
X4336292Y566638D01*
X4339931Y569069D01*
X4342362Y572708D01*
X4343216Y577000D01*
X4342697Y579608D01*
X4345702Y584608D01*
X4411000D01*
X4418804Y586160D01*
X4425419Y590581D01*
X4429840Y597196D01*
X4431392Y605000D01*
X4429840Y612804D01*
X4425419Y619419D01*
X4418804Y623840D01*
X4411000Y625392D01*
X4367233D01*
X4364848Y630350D01*
X4366607Y632972D01*
X4367877Y633225D01*
X4372012Y635988D01*
X4374775Y640123D01*
X4375745Y645000D01*
X4374775Y649877D01*
X4372012Y654012D01*
X4367877Y656775D01*
X4363000Y657745D01*
X4360000D01*
X4355123Y656775D01*
X4350988Y654012D01*
X4342957Y645981D01*
X4139739D01*
X4137067Y650981D01*
X4137937Y652283D01*
X4138790Y656575D01*
X4137937Y660867D01*
X4135505Y664505D01*
X4131867Y666937D01*
X4127575Y667790D01*
X4123283Y666937D01*
X4119644Y664505D01*
X4117213Y660867D01*
X4116359Y656575D01*
X4117213Y652283D01*
X4118083Y650981D01*
X4115410Y645981D01*
X4104043D01*
X4081012Y669012D01*
X4076877Y671775D01*
X4072000Y672745D01*
D02*
G37*
G36*
X3189903Y629000D02*
X3160260D01*
Y599356D01*
X3164397Y599901D01*
X3172911Y603428D01*
X3180222Y609038D01*
X3185832Y616349D01*
X3189359Y624863D01*
X3189903Y629000D01*
D02*
G37*
G36*
X3150260D02*
X3120616D01*
X3121161Y624863D01*
X3124687Y616349D01*
X3130298Y609038D01*
X3137609Y603428D01*
X3146123Y599901D01*
X3150260Y599356D01*
Y629000D01*
D02*
G37*
G36*
X1462246Y618853D02*
X1457954Y617999D01*
X1454315Y615568D01*
X1451884Y611929D01*
X1451030Y607637D01*
X1451884Y603345D01*
X1454315Y599707D01*
X1457954Y597275D01*
X1462246Y596422D01*
X1466538Y597275D01*
X1470176Y599707D01*
X1472608Y603345D01*
X1473461Y607637D01*
X1472608Y611929D01*
X1470176Y615568D01*
X1466538Y617999D01*
X1462246Y618853D01*
D02*
G37*
G36*
X1736488Y608160D02*
X1732196Y607307D01*
X1728558Y604875D01*
X1726126Y601237D01*
X1725273Y596945D01*
X1726126Y592653D01*
X1728558Y589014D01*
X1732196Y586583D01*
X1736488Y585729D01*
X1740780Y586583D01*
X1744419Y589014D01*
X1746850Y592653D01*
X1747704Y596945D01*
X1746850Y601237D01*
X1744419Y604875D01*
X1740780Y607307D01*
X1736488Y608160D01*
D02*
G37*
G36*
X4531906Y588216D02*
X4527614Y587362D01*
X4523975Y584931D01*
X4522684Y582998D01*
X4522548Y582945D01*
X4517263D01*
X4517128Y582998D01*
X4515836Y584931D01*
X4512198Y587362D01*
X4507906Y588216D01*
X4503614Y587362D01*
X4499975Y584931D01*
X4498684Y582998D01*
X4498548Y582945D01*
X4493263D01*
X4493128Y582998D01*
X4491836Y584931D01*
X4488198Y587362D01*
X4483906Y588216D01*
X4479614Y587362D01*
X4475975Y584931D01*
X4474684Y582998D01*
X4474548Y582945D01*
X4469263D01*
X4469128Y582998D01*
X4467836Y584931D01*
X4464198Y587362D01*
X4459906Y588216D01*
X4455614Y587362D01*
X4451975Y584931D01*
X4449544Y581292D01*
X4448690Y577000D01*
X4449544Y572708D01*
X4451975Y569069D01*
X4455614Y566638D01*
X4459906Y565784D01*
X4464198Y566638D01*
X4467836Y569069D01*
X4469128Y571002D01*
X4469263Y571055D01*
X4474548D01*
X4474684Y571002D01*
X4475975Y569069D01*
X4479614Y566638D01*
X4483906Y565784D01*
X4488198Y566638D01*
X4491836Y569069D01*
X4493128Y571002D01*
X4493263Y571055D01*
X4498548D01*
X4498684Y571002D01*
X4499975Y569069D01*
X4503614Y566638D01*
X4507906Y565784D01*
X4512198Y566638D01*
X4515836Y569069D01*
X4517128Y571002D01*
X4517263Y571055D01*
X4522548D01*
X4522684Y571002D01*
X4523975Y569069D01*
X4527614Y566638D01*
X4531906Y565784D01*
X4536198Y566638D01*
X4539836Y569069D01*
X4542267Y572708D01*
X4543121Y577000D01*
X4542267Y581292D01*
X4539836Y584931D01*
X4536198Y587362D01*
X4531906Y588216D01*
D02*
G37*
G36*
X1701496Y573216D02*
X1697204Y572362D01*
X1694862Y570797D01*
X1691496Y570260D01*
X1688131Y570797D01*
X1685788Y572362D01*
X1681496Y573216D01*
X1677204Y572362D01*
X1673565Y569931D01*
X1671134Y566292D01*
X1670281Y562000D01*
X1671134Y557708D01*
X1673565Y554069D01*
X1677204Y551638D01*
X1681496Y550784D01*
X1685788Y551638D01*
X1688131Y553203D01*
X1691496Y553740D01*
X1694862Y553203D01*
X1697204Y551638D01*
X1701496Y550784D01*
X1705788Y551638D01*
X1709427Y554069D01*
X1711858Y557708D01*
X1712712Y562000D01*
X1711858Y566292D01*
X1709427Y569931D01*
X1705788Y572362D01*
X1701496Y573216D01*
D02*
G37*
G36*
X3754242Y586759D02*
X3749950Y585905D01*
X3746311Y583474D01*
X3743880Y579835D01*
X3743026Y575543D01*
X3743880Y571251D01*
X3746311Y567613D01*
X3749950Y565182D01*
X3754242Y564328D01*
X3758534Y565182D01*
X3762173Y567613D01*
X3764604Y571251D01*
X3765457Y575543D01*
X3764604Y579835D01*
X3762173Y583474D01*
X3758534Y585905D01*
X3754242Y586759D01*
D02*
G37*
G36*
X3712402D02*
X3708110Y585905D01*
X3704471Y583474D01*
X3702040Y579835D01*
X3701186Y575543D01*
X3702040Y571251D01*
X3704471Y567613D01*
X3708110Y565182D01*
X3712402Y564328D01*
X3716694Y565182D01*
X3720332Y567613D01*
X3722763Y571251D01*
X3723617Y575543D01*
X3722763Y579835D01*
X3720332Y583474D01*
X3716694Y585905D01*
X3712402Y586759D01*
D02*
G37*
G36*
X2861087Y583216D02*
X2856795Y582362D01*
X2853156Y579931D01*
X2850725Y576292D01*
X2849871Y572000D01*
X2850725Y567708D01*
X2853156Y564069D01*
X2856795Y561638D01*
X2861087Y560784D01*
X2865379Y561638D01*
X2869017Y564069D01*
X2871448Y567708D01*
X2872302Y572000D01*
X2871448Y576292D01*
X2869017Y579931D01*
X2865379Y582362D01*
X2861087Y583216D01*
D02*
G37*
G36*
X2517000Y566853D02*
X2512708Y566000D01*
X2509069Y563568D01*
X2506638Y559930D01*
X2505785Y555638D01*
X2506638Y551346D01*
X2509069Y547707D01*
X2512708Y545276D01*
X2517000Y544422D01*
X2521292Y545276D01*
X2524931Y547707D01*
X2527362Y551346D01*
X2528215Y555638D01*
X2527362Y559930D01*
X2524931Y563568D01*
X2521292Y566000D01*
X2517000Y566853D01*
D02*
G37*
G36*
X2567000Y561216D02*
X2562708Y560362D01*
X2559069Y557931D01*
X2556638Y554292D01*
X2555785Y550000D01*
X2556638Y545708D01*
X2559069Y542069D01*
X2562708Y539638D01*
X2567000Y538784D01*
X2571292Y539638D01*
X2574931Y542069D01*
X2577362Y545708D01*
X2578215Y550000D01*
X2577362Y554292D01*
X2574931Y557931D01*
X2571292Y560362D01*
X2567000Y561216D01*
D02*
G37*
G36*
X3604282Y553216D02*
X3599990Y552362D01*
X3596351Y549931D01*
X3593920Y546292D01*
X3593066Y542000D01*
X3593920Y537708D01*
X3596351Y534069D01*
X3599990Y531638D01*
X3604282Y530784D01*
X3608574Y531638D01*
X3612213Y534069D01*
X3614644Y537708D01*
X3615497Y542000D01*
X3614644Y546292D01*
X3612213Y549931D01*
X3608574Y552362D01*
X3604282Y553216D01*
D02*
G37*
G36*
X4752906Y469250D02*
X4748614Y468397D01*
X4744975Y465966D01*
X4742544Y462327D01*
X4741690Y458035D01*
X4742544Y453743D01*
X4744975Y450104D01*
X4748614Y447673D01*
X4752906Y446820D01*
X4757198Y447673D01*
X4760836Y450104D01*
X4763267Y453743D01*
X4764121Y458035D01*
X4763267Y462327D01*
X4760836Y465966D01*
X4757198Y468397D01*
X4752906Y469250D01*
D02*
G37*
G36*
X4672906D02*
X4668614Y468397D01*
X4664975Y465966D01*
X4662544Y462327D01*
X4661690Y458035D01*
X4662544Y453743D01*
X4664975Y450104D01*
X4668614Y447673D01*
X4672906Y446820D01*
X4677198Y447673D01*
X4680836Y450104D01*
X4683267Y453743D01*
X4684121Y458035D01*
X4683267Y462327D01*
X4680836Y465966D01*
X4677198Y468397D01*
X4672906Y469250D01*
D02*
G37*
G36*
X4592906D02*
X4588614Y468397D01*
X4584975Y465966D01*
X4582544Y462327D01*
X4581690Y458035D01*
X4582544Y453743D01*
X4584975Y450104D01*
X4588614Y447673D01*
X4592906Y446820D01*
X4597198Y447673D01*
X4600836Y450104D01*
X4603267Y453743D01*
X4604121Y458035D01*
X4603267Y462327D01*
X4600836Y465966D01*
X4597198Y468397D01*
X4592906Y469250D01*
D02*
G37*
G36*
X4512906D02*
X4508614Y468397D01*
X4504975Y465966D01*
X4502544Y462327D01*
X4501690Y458035D01*
X4502544Y453743D01*
X4504975Y450104D01*
X4508614Y447673D01*
X4512906Y446820D01*
X4517198Y447673D01*
X4520836Y450104D01*
X4523267Y453743D01*
X4524121Y458035D01*
X4523267Y462327D01*
X4520836Y465966D01*
X4517198Y468397D01*
X4512906Y469250D01*
D02*
G37*
G36*
X4432906D02*
X4428614Y468397D01*
X4424975Y465966D01*
X4422544Y462327D01*
X4421690Y458035D01*
X4422544Y453743D01*
X4424975Y450104D01*
X4428614Y447673D01*
X4432906Y446820D01*
X4437198Y447673D01*
X4440836Y450104D01*
X4443267Y453743D01*
X4444121Y458035D01*
X4443267Y462327D01*
X4440836Y465966D01*
X4437198Y468397D01*
X4432906Y469250D01*
D02*
G37*
G36*
X4352906D02*
X4348614Y468397D01*
X4344975Y465966D01*
X4342544Y462327D01*
X4341690Y458035D01*
X4342544Y453743D01*
X4344975Y450104D01*
X4348614Y447673D01*
X4352906Y446820D01*
X4357198Y447673D01*
X4360836Y450104D01*
X4363267Y453743D01*
X4364121Y458035D01*
X4363267Y462327D01*
X4360836Y465966D01*
X4357198Y468397D01*
X4352906Y469250D01*
D02*
G37*
G36*
X4272906D02*
X4268614Y468397D01*
X4264975Y465966D01*
X4262544Y462327D01*
X4261690Y458035D01*
X4262544Y453743D01*
X4264975Y450104D01*
X4268614Y447673D01*
X4272906Y446820D01*
X4277198Y447673D01*
X4280836Y450104D01*
X4283267Y453743D01*
X4284121Y458035D01*
X4283267Y462327D01*
X4280836Y465966D01*
X4277198Y468397D01*
X4272906Y469250D01*
D02*
G37*
G36*
X4195000Y469216D02*
X4190708Y468362D01*
X4187069Y465931D01*
X4184638Y462292D01*
X4183784Y458000D01*
X4184638Y453708D01*
X4187069Y450069D01*
X4190708Y447638D01*
X4195000Y446784D01*
X4199292Y447638D01*
X4202931Y450069D01*
X4205362Y453708D01*
X4206216Y458000D01*
X4205362Y462292D01*
X4202931Y465931D01*
X4199292Y468362D01*
X4195000Y469216D01*
D02*
G37*
G36*
X1228724Y537132D02*
X1216913D01*
X1204572Y535508D01*
X1193072Y530744D01*
X1183196Y523166D01*
X1175618Y513291D01*
X1170855Y501790D01*
X1169230Y489449D01*
X1170855Y477107D01*
X1175618Y465607D01*
X1183196Y455731D01*
X1193072Y448154D01*
X1204572Y443390D01*
X1216913Y441765D01*
X1228724D01*
X1241066Y443390D01*
X1252566Y448154D01*
X1262442Y455731D01*
X1270020Y465607D01*
X1274783Y477107D01*
X1276408Y489449D01*
X1274783Y501790D01*
X1270020Y513291D01*
X1262442Y523166D01*
X1252566Y530744D01*
X1241066Y535508D01*
X1228724Y537132D01*
D02*
G37*
G36*
X476000Y527654D02*
X462631Y525894D01*
X450173Y520734D01*
X439475Y512525D01*
X431266Y501827D01*
X426106Y489369D01*
X424346Y476000D01*
X426106Y462631D01*
X431266Y450173D01*
X439475Y439475D01*
X450173Y431266D01*
X462631Y426106D01*
X476000Y424346D01*
X489369Y426106D01*
X501827Y431266D01*
X512525Y439475D01*
X520734Y450173D01*
X525894Y462631D01*
X527654Y476000D01*
X525894Y489369D01*
X520734Y501827D01*
X512525Y512525D01*
X501827Y520734D01*
X489369Y525894D01*
X476000Y527654D01*
D02*
G37*
G36*
X4851000Y1237022D02*
Y1188000D01*
X4900022D01*
X4898817Y1197152D01*
X4893355Y1210340D01*
X4884665Y1221665D01*
X4873340Y1230355D01*
X4860152Y1235817D01*
X4851000Y1237022D01*
D02*
G37*
G36*
X4841000D02*
X4831848Y1235817D01*
X4818660Y1230355D01*
X4807335Y1221665D01*
X4798645Y1210340D01*
X4793183Y1197152D01*
X4791978Y1188000D01*
X4841000D01*
Y1237022D01*
D02*
G37*
G36*
X5071425Y1208216D02*
X5067133Y1207362D01*
X5063495Y1204931D01*
X5061063Y1201292D01*
X5060210Y1197000D01*
X5061063Y1192708D01*
X5063495Y1189069D01*
X5067133Y1186638D01*
X5071425Y1185784D01*
X5075717Y1186638D01*
X5079356Y1189069D01*
X5081787Y1192708D01*
X5082641Y1197000D01*
X5081787Y1201292D01*
X5079356Y1204931D01*
X5075717Y1207362D01*
X5071425Y1208216D01*
D02*
G37*
G36*
X4919795Y1137280D02*
Y1129000D01*
X4928075D01*
X4927983Y1129463D01*
X4924889Y1134093D01*
X4920258Y1137188D01*
X4919795Y1137280D01*
D02*
G37*
G36*
X4909795D02*
X4909333Y1137188D01*
X4904702Y1134093D01*
X4901608Y1129463D01*
X4901516Y1129000D01*
X4909795D01*
Y1137280D01*
D02*
G37*
G36*
X4900022Y1178000D02*
X4851000D01*
Y1128978D01*
X4860152Y1130183D01*
X4873340Y1135645D01*
X4884665Y1144335D01*
X4893355Y1155660D01*
X4898817Y1168848D01*
X4900022Y1178000D01*
D02*
G37*
G36*
X4841000D02*
X4791978D01*
X4793183Y1168848D01*
X4798645Y1155660D01*
X4807335Y1144335D01*
X4818660Y1135645D01*
X4831848Y1130183D01*
X4841000Y1128978D01*
Y1178000D01*
D02*
G37*
G36*
X5047748Y1127240D02*
Y1118961D01*
X5056028D01*
X5055936Y1119423D01*
X5052842Y1124054D01*
X5048211Y1127148D01*
X5047748Y1127240D01*
D02*
G37*
G36*
X5037748D02*
X5037285Y1127148D01*
X5032654Y1124054D01*
X5029560Y1119423D01*
X5029468Y1118961D01*
X5037748D01*
Y1127240D01*
D02*
G37*
G36*
X5004441D02*
Y1118961D01*
X5012721D01*
X5012629Y1119423D01*
X5009534Y1124054D01*
X5004904Y1127148D01*
X5004441Y1127240D01*
D02*
G37*
G36*
X4994441D02*
X4993979Y1127148D01*
X4989347Y1124054D01*
X4986253Y1119423D01*
X4986161Y1118961D01*
X4994441D01*
Y1127240D01*
D02*
G37*
G36*
X4961134D02*
Y1118961D01*
X4969414D01*
X4969322Y1119423D01*
X4966227Y1124054D01*
X4961596Y1127148D01*
X4961134Y1127240D01*
D02*
G37*
G36*
X4951134D02*
X4950671Y1127148D01*
X4946040Y1124054D01*
X4942946Y1119423D01*
X4942854Y1118961D01*
X4951134D01*
Y1127240D01*
D02*
G37*
G36*
X4928075Y1119000D02*
X4919795D01*
Y1110720D01*
X4920258Y1110812D01*
X4924889Y1113907D01*
X4927983Y1118537D01*
X4928075Y1119000D01*
D02*
G37*
G36*
X4909795D02*
X4901516D01*
X4901608Y1118537D01*
X4904702Y1113907D01*
X4909333Y1110812D01*
X4909795Y1110720D01*
Y1119000D01*
D02*
G37*
G36*
X4645221Y1170197D02*
X4636887Y1169100D01*
X4629122Y1165883D01*
X4622454Y1160766D01*
X4617337Y1154098D01*
X4614121Y1146333D01*
X4613024Y1138000D01*
X4614121Y1129667D01*
X4617337Y1121902D01*
X4622454Y1115234D01*
X4629122Y1110117D01*
X4636887Y1106900D01*
X4645221Y1105803D01*
X4653554Y1106900D01*
X4661319Y1110117D01*
X4667987Y1115234D01*
X4673104Y1121902D01*
X4676320Y1129667D01*
X4677417Y1138000D01*
X4676320Y1146333D01*
X4673104Y1154098D01*
X4667987Y1160766D01*
X4661319Y1165883D01*
X4653554Y1169100D01*
X4645221Y1170197D01*
D02*
G37*
G36*
X5056028Y1108961D02*
X5047748D01*
Y1100681D01*
X5048211Y1100773D01*
X5052842Y1103867D01*
X5055936Y1108498D01*
X5056028Y1108961D01*
D02*
G37*
G36*
X5037748D02*
X5029468D01*
X5029560Y1108498D01*
X5032654Y1103867D01*
X5037285Y1100773D01*
X5037748Y1100681D01*
Y1108961D01*
D02*
G37*
G36*
X5012721D02*
X5004441D01*
Y1100681D01*
X5004904Y1100773D01*
X5009534Y1103867D01*
X5012629Y1108498D01*
X5012721Y1108961D01*
D02*
G37*
G36*
X4994441D02*
X4986161D01*
X4986253Y1108498D01*
X4989347Y1103867D01*
X4993979Y1100773D01*
X4994441Y1100681D01*
Y1108961D01*
D02*
G37*
G36*
X4969414D02*
X4961134D01*
Y1100681D01*
X4961596Y1100773D01*
X4966227Y1103867D01*
X4969322Y1108498D01*
X4969414Y1108961D01*
D02*
G37*
G36*
X4951134D02*
X4942854D01*
X4942946Y1108498D01*
X4946040Y1103867D01*
X4950671Y1100773D01*
X4951134Y1100681D01*
Y1108961D01*
D02*
G37*
G36*
X4919795Y1087280D02*
Y1079000D01*
X4928075D01*
X4927983Y1079463D01*
X4924889Y1084093D01*
X4920258Y1087188D01*
X4919795Y1087280D01*
D02*
G37*
G36*
X4909795D02*
X4909333Y1087188D01*
X4904702Y1084093D01*
X4901608Y1079463D01*
X4901516Y1079000D01*
X4909795D01*
Y1087280D01*
D02*
G37*
G36*
X5047748Y1083933D02*
Y1075653D01*
X5056028D01*
X5055936Y1076116D01*
X5052842Y1080747D01*
X5048211Y1083841D01*
X5047748Y1083933D01*
D02*
G37*
G36*
X5037748D02*
X5037285Y1083841D01*
X5032654Y1080747D01*
X5029560Y1076116D01*
X5029468Y1075653D01*
X5037748D01*
Y1083933D01*
D02*
G37*
G36*
X5004441D02*
Y1075653D01*
X5012721D01*
X5012629Y1076116D01*
X5009534Y1080747D01*
X5004904Y1083841D01*
X5004441Y1083933D01*
D02*
G37*
G36*
X4994441D02*
X4993979Y1083841D01*
X4989347Y1080747D01*
X4986253Y1076116D01*
X4986161Y1075653D01*
X4994441D01*
Y1083933D01*
D02*
G37*
G36*
X4961134D02*
Y1075653D01*
X4969414D01*
X4969322Y1076116D01*
X4966227Y1080747D01*
X4961596Y1083841D01*
X4961134Y1083933D01*
D02*
G37*
G36*
X4951134D02*
X4950671Y1083841D01*
X4946040Y1080747D01*
X4942946Y1076116D01*
X4942854Y1075653D01*
X4951134D01*
Y1083933D01*
D02*
G37*
G36*
X4928075Y1069000D02*
X4919795D01*
Y1060720D01*
X4920258Y1060812D01*
X4924889Y1063907D01*
X4927983Y1068537D01*
X4928075Y1069000D01*
D02*
G37*
G36*
X4909795D02*
X4901516D01*
X4901608Y1068537D01*
X4904702Y1063907D01*
X4909333Y1060812D01*
X4909795Y1060720D01*
Y1069000D01*
D02*
G37*
G36*
X5056028Y1065653D02*
X5047748D01*
Y1057374D01*
X5048211Y1057466D01*
X5052842Y1060560D01*
X5055936Y1065191D01*
X5056028Y1065653D01*
D02*
G37*
G36*
X5037748D02*
X5029468D01*
X5029560Y1065191D01*
X5032654Y1060560D01*
X5037285Y1057466D01*
X5037748Y1057374D01*
Y1065653D01*
D02*
G37*
G36*
X5012721D02*
X5004441D01*
Y1057374D01*
X5004904Y1057466D01*
X5009534Y1060560D01*
X5012629Y1065191D01*
X5012721Y1065653D01*
D02*
G37*
G36*
X4994441D02*
X4986161D01*
X4986253Y1065191D01*
X4989347Y1060560D01*
X4993979Y1057466D01*
X4994441Y1057374D01*
Y1065653D01*
D02*
G37*
G36*
X4969414D02*
X4961134D01*
Y1057374D01*
X4961596Y1057466D01*
X4966227Y1060560D01*
X4969322Y1065191D01*
X4969414Y1065653D01*
D02*
G37*
G36*
X4951134D02*
X4942854D01*
X4942946Y1065191D01*
X4946040Y1060560D01*
X4950671Y1057466D01*
X4951134Y1057374D01*
Y1065653D01*
D02*
G37*
G36*
X5047748Y1040626D02*
Y1032346D01*
X5056028D01*
X5055936Y1032809D01*
X5052842Y1037440D01*
X5048211Y1040534D01*
X5047748Y1040626D01*
D02*
G37*
G36*
X5037748D02*
X5037285Y1040534D01*
X5032654Y1037440D01*
X5029560Y1032809D01*
X5029468Y1032346D01*
X5037748D01*
Y1040626D01*
D02*
G37*
G36*
X5004441D02*
Y1032346D01*
X5012721D01*
X5012629Y1032809D01*
X5009534Y1037440D01*
X5004904Y1040534D01*
X5004441Y1040626D01*
D02*
G37*
G36*
X4994441D02*
X4993979Y1040534D01*
X4989347Y1037440D01*
X4986253Y1032809D01*
X4986161Y1032346D01*
X4994441D01*
Y1040626D01*
D02*
G37*
G36*
X4961134D02*
Y1032346D01*
X4969414D01*
X4969322Y1032809D01*
X4966227Y1037440D01*
X4961596Y1040534D01*
X4961134Y1040626D01*
D02*
G37*
G36*
X4951134D02*
X4950671Y1040534D01*
X4946040Y1037440D01*
X4942946Y1032809D01*
X4942854Y1032346D01*
X4951134D01*
Y1040626D01*
D02*
G37*
G36*
X4919795Y1037280D02*
Y1029000D01*
X4928075D01*
X4927983Y1029463D01*
X4924889Y1034093D01*
X4920258Y1037188D01*
X4919795Y1037280D01*
D02*
G37*
G36*
X4909795D02*
X4909333Y1037188D01*
X4904702Y1034093D01*
X4901608Y1029463D01*
X4901516Y1029000D01*
X4909795D01*
Y1037280D01*
D02*
G37*
G36*
X5056028Y1022346D02*
X5047748D01*
Y1014067D01*
X5048211Y1014159D01*
X5052842Y1017253D01*
X5055936Y1021884D01*
X5056028Y1022346D01*
D02*
G37*
G36*
X5037748D02*
X5029468D01*
X5029560Y1021884D01*
X5032654Y1017253D01*
X5037285Y1014159D01*
X5037748Y1014067D01*
Y1022346D01*
D02*
G37*
G36*
X5012721D02*
X5004441D01*
Y1014067D01*
X5004904Y1014159D01*
X5009534Y1017253D01*
X5012629Y1021884D01*
X5012721Y1022346D01*
D02*
G37*
G36*
X4994441D02*
X4986161D01*
X4986253Y1021884D01*
X4989347Y1017253D01*
X4993979Y1014159D01*
X4994441Y1014067D01*
Y1022346D01*
D02*
G37*
G36*
X4969414D02*
X4961134D01*
Y1014067D01*
X4961596Y1014159D01*
X4966227Y1017253D01*
X4969322Y1021884D01*
X4969414Y1022346D01*
D02*
G37*
G36*
X4951134D02*
X4942854D01*
X4942946Y1021884D01*
X4946040Y1017253D01*
X4950671Y1014159D01*
X4951134Y1014067D01*
Y1022346D01*
D02*
G37*
G36*
X4928075Y1019000D02*
X4919795D01*
Y1010720D01*
X4920258Y1010812D01*
X4924889Y1013907D01*
X4927983Y1018538D01*
X4928075Y1019000D01*
D02*
G37*
G36*
X4909795D02*
X4901516D01*
X4901608Y1018538D01*
X4904702Y1013907D01*
X4909333Y1010812D01*
X4909795Y1010720D01*
Y1019000D01*
D02*
G37*
G36*
X5047748Y997319D02*
Y989039D01*
X5056028D01*
X5055936Y989502D01*
X5052842Y994133D01*
X5048211Y997227D01*
X5047748Y997319D01*
D02*
G37*
G36*
X5037748D02*
X5037285Y997227D01*
X5032654Y994133D01*
X5029560Y989502D01*
X5029468Y989039D01*
X5037748D01*
Y997319D01*
D02*
G37*
G36*
X5004441D02*
Y989039D01*
X5012721D01*
X5012629Y989502D01*
X5009534Y994133D01*
X5004904Y997227D01*
X5004441Y997319D01*
D02*
G37*
G36*
X4994441D02*
X4993979Y997227D01*
X4989347Y994133D01*
X4986253Y989502D01*
X4986161Y989039D01*
X4994441D01*
Y997319D01*
D02*
G37*
G36*
X4961134D02*
Y989039D01*
X4969414D01*
X4969322Y989502D01*
X4966227Y994133D01*
X4961596Y997227D01*
X4961134Y997319D01*
D02*
G37*
G36*
X4951134D02*
X4950671Y997227D01*
X4946040Y994133D01*
X4942946Y989502D01*
X4942854Y989039D01*
X4951134D01*
Y997319D01*
D02*
G37*
G36*
X4919795Y987280D02*
Y979000D01*
X4928075D01*
X4927983Y979462D01*
X4924889Y984093D01*
X4920258Y987188D01*
X4919795Y987280D01*
D02*
G37*
G36*
X4909795D02*
X4909333Y987188D01*
X4904702Y984093D01*
X4901608Y979462D01*
X4901516Y979000D01*
X4909795D01*
Y987280D01*
D02*
G37*
G36*
X5056028Y979039D02*
X5047748D01*
Y970760D01*
X5048211Y970852D01*
X5052842Y973946D01*
X5055936Y978577D01*
X5056028Y979039D01*
D02*
G37*
G36*
X5037748D02*
X5029468D01*
X5029560Y978577D01*
X5032654Y973946D01*
X5037285Y970852D01*
X5037748Y970760D01*
Y979039D01*
D02*
G37*
G36*
X5012721D02*
X5004441D01*
Y970760D01*
X5004904Y970852D01*
X5009534Y973946D01*
X5012629Y978577D01*
X5012721Y979039D01*
D02*
G37*
G36*
X4994441D02*
X4986161D01*
X4986253Y978577D01*
X4989347Y973946D01*
X4993979Y970852D01*
X4994441Y970760D01*
Y979039D01*
D02*
G37*
G36*
X4969414D02*
X4961134D01*
Y970760D01*
X4961596Y970852D01*
X4966227Y973946D01*
X4969322Y978577D01*
X4969414Y979039D01*
D02*
G37*
G36*
X4951134D02*
X4942854D01*
X4942946Y978577D01*
X4946040Y973946D01*
X4950671Y970852D01*
X4951134Y970760D01*
Y979039D01*
D02*
G37*
G36*
X4928075Y969000D02*
X4919795D01*
Y960720D01*
X4920258Y960812D01*
X4924889Y963907D01*
X4927983Y968538D01*
X4928075Y969000D01*
D02*
G37*
G36*
X4909795D02*
X4901516D01*
X4901608Y968538D01*
X4904702Y963907D01*
X4909333Y960812D01*
X4909795Y960720D01*
Y969000D01*
D02*
G37*
G36*
X4683000Y947721D02*
X4678708Y946868D01*
X4675069Y944436D01*
X4673271Y941745D01*
X4670952Y941298D01*
X4670048D01*
X4667729Y941745D01*
X4665931Y944436D01*
X4662292Y946868D01*
X4658000Y947721D01*
X4653708Y946868D01*
X4650069Y944436D01*
X4647638Y940798D01*
X4646784Y936506D01*
X4647638Y932214D01*
X4650069Y928575D01*
X4653708Y926144D01*
X4658000Y925290D01*
X4662292Y926144D01*
X4665931Y928575D01*
X4667729Y931266D01*
X4670048Y931714D01*
X4670952D01*
X4673271Y931266D01*
X4675069Y928575D01*
X4678708Y926144D01*
X4683000Y925290D01*
X4687292Y926144D01*
X4690931Y928575D01*
X4692727Y931264D01*
X4695054Y931710D01*
X4695958Y931709D01*
X4698270Y931259D01*
X4700069Y928566D01*
X4703708Y926135D01*
X4708000Y925281D01*
X4712292Y926135D01*
X4715931Y928566D01*
X4717729Y931257D01*
X4720048Y931705D01*
X4720952D01*
X4723271Y931257D01*
X4725069Y928566D01*
X4728708Y926135D01*
X4733000Y925281D01*
X4737292Y926135D01*
X4740931Y928566D01*
X4743362Y932205D01*
X4744216Y936497D01*
X4743362Y940789D01*
X4740931Y944427D01*
X4737292Y946859D01*
X4733000Y947712D01*
X4728708Y946859D01*
X4725069Y944427D01*
X4723271Y941736D01*
X4720952Y941289D01*
X4720048D01*
X4717729Y941736D01*
X4715931Y944427D01*
X4712292Y946859D01*
X4708000Y947712D01*
X4703708Y946859D01*
X4700069Y944427D01*
X4698273Y941738D01*
X4695946Y941293D01*
X4695042Y941294D01*
X4692730Y941743D01*
X4690931Y944436D01*
X4687292Y946868D01*
X4683000Y947721D01*
D02*
G37*
G36*
X4322811Y1169921D02*
X4258969D01*
Y1106079D01*
X4322811D01*
Y1169921D01*
D02*
G37*
G36*
X4128496Y1109280D02*
Y1101000D01*
X4136776D01*
X4136684Y1101463D01*
X4133590Y1106093D01*
X4128958Y1109188D01*
X4128496Y1109280D01*
D02*
G37*
G36*
X4118496D02*
X4118033Y1109188D01*
X4113403Y1106093D01*
X4110308Y1101463D01*
X4110216Y1101000D01*
X4118496D01*
Y1109280D01*
D02*
G37*
G36*
X4136776Y1091000D02*
X4128496D01*
Y1082720D01*
X4128958Y1082812D01*
X4133590Y1085907D01*
X4136684Y1090537D01*
X4136776Y1091000D01*
D02*
G37*
G36*
X4118496D02*
X4110216D01*
X4110308Y1090537D01*
X4113403Y1085907D01*
X4118033Y1082812D01*
X4118496Y1082720D01*
Y1091000D01*
D02*
G37*
G36*
X4129000Y1032280D02*
Y1024000D01*
X4137280D01*
X4137188Y1024463D01*
X4134093Y1029093D01*
X4129462Y1032188D01*
X4129000Y1032280D01*
D02*
G37*
G36*
X4119000D02*
X4118538Y1032188D01*
X4113907Y1029093D01*
X4110812Y1024463D01*
X4110720Y1024000D01*
X4119000D01*
Y1032280D01*
D02*
G37*
G36*
X4137280Y1014000D02*
X4129000D01*
Y1005720D01*
X4129462Y1005812D01*
X4134093Y1008907D01*
X4137188Y1013538D01*
X4137280Y1014000D01*
D02*
G37*
G36*
X4119000D02*
X4110720D01*
X4110812Y1013538D01*
X4113907Y1008907D01*
X4118538Y1005812D01*
X4119000Y1005720D01*
Y1014000D01*
D02*
G37*
G36*
X4014000Y1226504D02*
X4009708Y1225650D01*
X4006069Y1223219D01*
X4003638Y1219580D01*
X4002785Y1215288D01*
X4003638Y1210996D01*
X4006069Y1207358D01*
X4009708Y1204926D01*
X4014000Y1204073D01*
X4018292Y1204926D01*
X4021931Y1207358D01*
X4024362Y1210996D01*
X4025215Y1215288D01*
X4024362Y1219580D01*
X4021931Y1223219D01*
X4018292Y1225650D01*
X4014000Y1226504D01*
D02*
G37*
G36*
X3898000Y1176402D02*
Y1168123D01*
X3906280D01*
X3906188Y1168585D01*
X3903093Y1173216D01*
X3898463Y1176311D01*
X3898000Y1176402D01*
D02*
G37*
G36*
X3888000D02*
X3887537Y1176311D01*
X3882907Y1173216D01*
X3879812Y1168585D01*
X3879720Y1168123D01*
X3888000D01*
Y1176402D01*
D02*
G37*
G36*
X3833000Y1173354D02*
X3828708Y1172500D01*
X3825069Y1170069D01*
X3822638Y1166430D01*
X3821785Y1162139D01*
X3822638Y1157847D01*
X3825069Y1154208D01*
X3828708Y1151777D01*
X3833000Y1150923D01*
X3837292Y1151777D01*
X3840931Y1154208D01*
X3843362Y1157847D01*
X3844215Y1162139D01*
X3843362Y1166430D01*
X3840931Y1170069D01*
X3837292Y1172500D01*
X3833000Y1173354D01*
D02*
G37*
G36*
X3906280Y1158123D02*
X3898000D01*
Y1149843D01*
X3898463Y1149935D01*
X3903093Y1153029D01*
X3906188Y1157660D01*
X3906280Y1158123D01*
D02*
G37*
G36*
X3888000D02*
X3879720D01*
X3879812Y1157660D01*
X3882907Y1153029D01*
X3887537Y1149935D01*
X3888000Y1149843D01*
Y1158123D01*
D02*
G37*
G36*
X3925750Y1105034D02*
Y1096754D01*
X3934030D01*
X3933938Y1097216D01*
X3930843Y1101848D01*
X3926213Y1104942D01*
X3925750Y1105034D01*
D02*
G37*
G36*
X3915750D02*
X3915287Y1104942D01*
X3910657Y1101848D01*
X3907562Y1097216D01*
X3907470Y1096754D01*
X3915750D01*
Y1105034D01*
D02*
G37*
G36*
X3985000Y1117216D02*
X3980708Y1116362D01*
X3977069Y1113931D01*
X3974638Y1110292D01*
X3973785Y1106000D01*
X3974638Y1101708D01*
X3977069Y1098069D01*
X3980708Y1095638D01*
X3985000Y1094784D01*
X3989292Y1095638D01*
X3992931Y1098069D01*
X3995362Y1101708D01*
X3996215Y1106000D01*
X3995362Y1110292D01*
X3992931Y1113931D01*
X3989292Y1116362D01*
X3985000Y1117216D01*
D02*
G37*
G36*
X3489000Y1107641D02*
X3484708Y1106787D01*
X3481069Y1104356D01*
X3478638Y1100717D01*
X3477785Y1096425D01*
X3478638Y1092133D01*
X3481069Y1088495D01*
X3484708Y1086063D01*
X3489000Y1085210D01*
X3493292Y1086063D01*
X3496931Y1088495D01*
X3499362Y1092133D01*
X3500215Y1096425D01*
X3499362Y1100717D01*
X3496931Y1104356D01*
X3493292Y1106787D01*
X3489000Y1107641D01*
D02*
G37*
G36*
X4055504Y1107216D02*
X4051212Y1106362D01*
X4047573Y1103931D01*
X4045142Y1100292D01*
X4044288Y1096000D01*
X4045142Y1091708D01*
X4047573Y1088069D01*
X4051212Y1085638D01*
X4055504Y1084784D01*
X4059796Y1085638D01*
X4063434Y1088069D01*
X4065866Y1091708D01*
X4066719Y1096000D01*
X4065866Y1100292D01*
X4063434Y1103931D01*
X4059796Y1106362D01*
X4055504Y1107216D01*
D02*
G37*
G36*
X3548425Y1096216D02*
X3544133Y1095362D01*
X3540495Y1092931D01*
X3538063Y1089292D01*
X3537210Y1085000D01*
X3538063Y1080708D01*
X3540495Y1077069D01*
X3544133Y1074638D01*
X3548425Y1073784D01*
X3552717Y1074638D01*
X3556356Y1077069D01*
X3558787Y1080708D01*
X3559641Y1085000D01*
X3558787Y1089292D01*
X3556356Y1092931D01*
X3552717Y1095362D01*
X3548425Y1096216D01*
D02*
G37*
G36*
X3601575D02*
X3597283Y1095362D01*
X3593644Y1092931D01*
X3591213Y1089292D01*
X3590359Y1085000D01*
X3591213Y1080708D01*
X3593644Y1077069D01*
X3597283Y1074638D01*
X3601575Y1073784D01*
X3605867Y1074638D01*
X3606115Y1074804D01*
X3649974D01*
X3652647Y1069804D01*
X3652199Y1069134D01*
X3651345Y1064842D01*
X3652199Y1060550D01*
X3654630Y1056911D01*
X3658269Y1054480D01*
X3662561Y1053626D01*
X3666853Y1054480D01*
X3670491Y1056911D01*
X3672922Y1060550D01*
X3673776Y1064842D01*
X3672922Y1069134D01*
X3672474Y1069804D01*
X3675147Y1074804D01*
X3708692D01*
X3711364Y1069804D01*
X3710638Y1068717D01*
X3709785Y1064425D01*
X3710638Y1060133D01*
X3713069Y1056495D01*
X3716708Y1054063D01*
X3721000Y1053210D01*
X3725292Y1054063D01*
X3728931Y1056495D01*
X3731362Y1060133D01*
X3732215Y1064425D01*
X3731362Y1068717D01*
X3730636Y1069804D01*
X3733308Y1074804D01*
X3755619D01*
X3769580Y1060843D01*
X3769638Y1060550D01*
X3772069Y1056911D01*
X3775708Y1054480D01*
X3780000Y1053626D01*
X3784292Y1054480D01*
X3787931Y1056911D01*
X3790362Y1060550D01*
X3791215Y1064842D01*
X3790362Y1069134D01*
X3787931Y1072772D01*
X3784292Y1075204D01*
X3783999Y1075262D01*
X3767051Y1092210D01*
X3763744Y1094420D01*
X3759842Y1095196D01*
X3606115D01*
X3605867Y1095362D01*
X3601575Y1096216D01*
D02*
G37*
G36*
X3931000Y1037806D02*
X3926708Y1036952D01*
X3923069Y1034521D01*
X3920638Y1030882D01*
X3919785Y1026591D01*
X3920638Y1022298D01*
X3923069Y1018660D01*
X3926708Y1016229D01*
X3931000Y1015375D01*
X3935292Y1016229D01*
X3938931Y1018660D01*
X3941362Y1022298D01*
X3942215Y1026591D01*
X3941362Y1030882D01*
X3938931Y1034521D01*
X3935292Y1036952D01*
X3931000Y1037806D01*
D02*
G37*
G36*
X4055504Y1030216D02*
X4051212Y1029362D01*
X4047573Y1026931D01*
X4045142Y1023292D01*
X4044288Y1019000D01*
X4045142Y1014708D01*
X4047573Y1011069D01*
X4051212Y1008638D01*
X4055504Y1007784D01*
X4059796Y1008638D01*
X4063434Y1011069D01*
X4065866Y1014708D01*
X4066719Y1019000D01*
X4065866Y1023292D01*
X4063434Y1026931D01*
X4059796Y1029362D01*
X4055504Y1030216D01*
D02*
G37*
G36*
X3548425Y965467D02*
X3544133Y964614D01*
X3540495Y962183D01*
X3538063Y958544D01*
X3537210Y954252D01*
X3538063Y949960D01*
X3540495Y946321D01*
X3544133Y943890D01*
X3548425Y943036D01*
X3552717Y943890D01*
X3556356Y946321D01*
X3558787Y949960D01*
X3559641Y954252D01*
X3558787Y958544D01*
X3556356Y962183D01*
X3552717Y964614D01*
X3548425Y965467D01*
D02*
G37*
G36*
X3549409Y903814D02*
X3545117Y902960D01*
X3541479Y900529D01*
X3539048Y896890D01*
X3538194Y892598D01*
X3539048Y888306D01*
X3541479Y884668D01*
X3545117Y882237D01*
X3549409Y881383D01*
X3553701Y882237D01*
X3557340Y884668D01*
X3559771Y888306D01*
X3560625Y892598D01*
X3559771Y896890D01*
X3557340Y900529D01*
X3553701Y902960D01*
X3549409Y903814D01*
D02*
G37*
G36*
X5362000Y1236294D02*
X5357708Y1235440D01*
X5354069Y1233009D01*
X5351638Y1229371D01*
X5350784Y1225079D01*
X5351638Y1220787D01*
X5354069Y1217148D01*
X5357708Y1214717D01*
X5362000Y1213863D01*
X5366292Y1214717D01*
X5369931Y1217148D01*
X5372362Y1220787D01*
X5373216Y1225079D01*
X5372362Y1229371D01*
X5369931Y1233009D01*
X5366292Y1235440D01*
X5362000Y1236294D01*
D02*
G37*
G36*
X5312000D02*
X5307708Y1235440D01*
X5304069Y1233009D01*
X5301638Y1229371D01*
X5300784Y1225079D01*
X5301638Y1220787D01*
X5304069Y1217148D01*
X5307708Y1214717D01*
X5312000Y1213863D01*
X5316292Y1214717D01*
X5319931Y1217148D01*
X5322362Y1220787D01*
X5323216Y1225079D01*
X5322362Y1229371D01*
X5319931Y1233009D01*
X5316292Y1235440D01*
X5312000Y1236294D01*
D02*
G37*
G36*
X5262000D02*
X5257708Y1235440D01*
X5254069Y1233009D01*
X5251638Y1229371D01*
X5250784Y1225079D01*
X5251638Y1220787D01*
X5254069Y1217148D01*
X5257708Y1214717D01*
X5262000Y1213863D01*
X5266292Y1214717D01*
X5269931Y1217148D01*
X5272362Y1220787D01*
X5273216Y1225079D01*
X5272362Y1229371D01*
X5269931Y1233009D01*
X5266292Y1235440D01*
X5262000Y1236294D01*
D02*
G37*
G36*
X5212000D02*
X5207708Y1235440D01*
X5204069Y1233009D01*
X5201638Y1229371D01*
X5200784Y1225079D01*
X5201638Y1220787D01*
X5204069Y1217148D01*
X5207708Y1214717D01*
X5212000Y1213863D01*
X5216292Y1214717D01*
X5219931Y1217148D01*
X5222362Y1220787D01*
X5223216Y1225079D01*
X5222362Y1229371D01*
X5219931Y1233009D01*
X5216292Y1235440D01*
X5212000Y1236294D01*
D02*
G37*
G36*
X5356961Y1134028D02*
Y1125748D01*
X5365240D01*
X5365148Y1126210D01*
X5362054Y1130841D01*
X5357423Y1133936D01*
X5356961Y1134028D01*
D02*
G37*
G36*
X5346961D02*
X5346498Y1133936D01*
X5341867Y1130841D01*
X5338773Y1126210D01*
X5338681Y1125748D01*
X5346961D01*
Y1134028D01*
D02*
G37*
G36*
X5313654D02*
Y1125748D01*
X5321933D01*
X5321841Y1126210D01*
X5318747Y1130841D01*
X5314116Y1133936D01*
X5313654Y1134028D01*
D02*
G37*
G36*
X5303654D02*
X5303191Y1133936D01*
X5298560Y1130841D01*
X5295466Y1126210D01*
X5295374Y1125748D01*
X5303654D01*
Y1134028D01*
D02*
G37*
G36*
X5270346D02*
Y1125748D01*
X5278626D01*
X5278534Y1126210D01*
X5275440Y1130841D01*
X5270809Y1133936D01*
X5270346Y1134028D01*
D02*
G37*
G36*
X5260346D02*
X5259884Y1133936D01*
X5255253Y1130841D01*
X5252159Y1126210D01*
X5252067Y1125748D01*
X5260346D01*
Y1134028D01*
D02*
G37*
G36*
X5227039D02*
Y1125748D01*
X5235319D01*
X5235227Y1126210D01*
X5232133Y1130841D01*
X5227502Y1133936D01*
X5227039Y1134028D01*
D02*
G37*
G36*
X5217039D02*
X5216577Y1133936D01*
X5211946Y1130841D01*
X5208852Y1126210D01*
X5208760Y1125748D01*
X5217039D01*
Y1134028D01*
D02*
G37*
G36*
X5365240Y1115748D02*
X5356961D01*
Y1107468D01*
X5357423Y1107560D01*
X5362054Y1110655D01*
X5365148Y1115285D01*
X5365240Y1115748D01*
D02*
G37*
G36*
X5346961D02*
X5338681D01*
X5338773Y1115285D01*
X5341867Y1110655D01*
X5346498Y1107560D01*
X5346961Y1107468D01*
Y1115748D01*
D02*
G37*
G36*
X5321933D02*
X5313654D01*
Y1107468D01*
X5314116Y1107560D01*
X5318747Y1110655D01*
X5321841Y1115285D01*
X5321933Y1115748D01*
D02*
G37*
G36*
X5303654D02*
X5295374D01*
X5295466Y1115285D01*
X5298560Y1110655D01*
X5303191Y1107560D01*
X5303654Y1107468D01*
Y1115748D01*
D02*
G37*
G36*
X5278626D02*
X5270346D01*
Y1107468D01*
X5270809Y1107560D01*
X5275440Y1110655D01*
X5278534Y1115285D01*
X5278626Y1115748D01*
D02*
G37*
G36*
X5260346D02*
X5252067D01*
X5252159Y1115285D01*
X5255253Y1110655D01*
X5259884Y1107560D01*
X5260346Y1107468D01*
Y1115748D01*
D02*
G37*
G36*
X5235319D02*
X5227039D01*
Y1107468D01*
X5227502Y1107560D01*
X5232133Y1110655D01*
X5235227Y1115285D01*
X5235319Y1115748D01*
D02*
G37*
G36*
X5217039D02*
X5208760D01*
X5208852Y1115285D01*
X5211946Y1110655D01*
X5216577Y1107560D01*
X5217039Y1107468D01*
Y1115748D01*
D02*
G37*
G36*
X5748500Y1094660D02*
Y1086380D01*
X5756780D01*
X5756688Y1086843D01*
X5753593Y1091474D01*
X5748962Y1094568D01*
X5748500Y1094660D01*
D02*
G37*
G36*
X5738500D02*
X5738038Y1094568D01*
X5733407Y1091474D01*
X5730312Y1086843D01*
X5730220Y1086380D01*
X5738500D01*
Y1094660D01*
D02*
G37*
G36*
X5695000D02*
Y1086380D01*
X5703280D01*
X5703188Y1086843D01*
X5700093Y1091474D01*
X5695462Y1094568D01*
X5695000Y1094660D01*
D02*
G37*
G36*
X5685000D02*
X5684538Y1094568D01*
X5679907Y1091474D01*
X5676812Y1086843D01*
X5676720Y1086380D01*
X5685000D01*
Y1094660D01*
D02*
G37*
G36*
X5641500D02*
Y1086380D01*
X5649780D01*
X5649688Y1086843D01*
X5646593Y1091474D01*
X5641962Y1094568D01*
X5641500Y1094660D01*
D02*
G37*
G36*
X5631500D02*
X5631038Y1094568D01*
X5626407Y1091474D01*
X5623312Y1086843D01*
X5623220Y1086380D01*
X5631500D01*
Y1094660D01*
D02*
G37*
G36*
X5356961Y1090721D02*
Y1082441D01*
X5365240D01*
X5365148Y1082903D01*
X5362054Y1087534D01*
X5357423Y1090629D01*
X5356961Y1090721D01*
D02*
G37*
G36*
X5346961D02*
X5346498Y1090629D01*
X5341867Y1087534D01*
X5338773Y1082903D01*
X5338681Y1082441D01*
X5346961D01*
Y1090721D01*
D02*
G37*
G36*
X5313654D02*
Y1082441D01*
X5321933D01*
X5321841Y1082903D01*
X5318747Y1087534D01*
X5314116Y1090629D01*
X5313654Y1090721D01*
D02*
G37*
G36*
X5303654D02*
X5303191Y1090629D01*
X5298560Y1087534D01*
X5295466Y1082903D01*
X5295374Y1082441D01*
X5303654D01*
Y1090721D01*
D02*
G37*
G36*
X5270346D02*
Y1082441D01*
X5278626D01*
X5278534Y1082903D01*
X5275440Y1087534D01*
X5270809Y1090629D01*
X5270346Y1090721D01*
D02*
G37*
G36*
X5260346D02*
X5259884Y1090629D01*
X5255253Y1087534D01*
X5252159Y1082903D01*
X5252067Y1082441D01*
X5260346D01*
Y1090721D01*
D02*
G37*
G36*
X5227039D02*
Y1082441D01*
X5235319D01*
X5235227Y1082903D01*
X5232133Y1087534D01*
X5227502Y1090629D01*
X5227039Y1090721D01*
D02*
G37*
G36*
X5217039D02*
X5216577Y1090629D01*
X5211946Y1087534D01*
X5208852Y1082903D01*
X5208760Y1082441D01*
X5217039D01*
Y1090721D01*
D02*
G37*
G36*
X5152079Y1087280D02*
Y1079000D01*
X5160358D01*
X5160266Y1079463D01*
X5157172Y1084093D01*
X5152541Y1087188D01*
X5152079Y1087280D01*
D02*
G37*
G36*
X5142079D02*
X5141616Y1087188D01*
X5136985Y1084093D01*
X5133891Y1079463D01*
X5133799Y1079000D01*
X5142079D01*
Y1087280D01*
D02*
G37*
G36*
X5756780Y1076380D02*
X5748500D01*
Y1068101D01*
X5748962Y1068193D01*
X5753593Y1071287D01*
X5756688Y1075918D01*
X5756780Y1076380D01*
D02*
G37*
G36*
X5738500D02*
X5730220D01*
X5730312Y1075918D01*
X5733407Y1071287D01*
X5738038Y1068193D01*
X5738500Y1068101D01*
Y1076380D01*
D02*
G37*
G36*
X5703280D02*
X5695000D01*
Y1068101D01*
X5695462Y1068193D01*
X5700093Y1071287D01*
X5703188Y1075918D01*
X5703280Y1076380D01*
D02*
G37*
G36*
X5685000D02*
X5676720D01*
X5676812Y1075918D01*
X5679907Y1071287D01*
X5684538Y1068193D01*
X5685000Y1068101D01*
Y1076380D01*
D02*
G37*
G36*
X5649780D02*
X5641500D01*
Y1068101D01*
X5641962Y1068193D01*
X5646593Y1071287D01*
X5649688Y1075918D01*
X5649780Y1076380D01*
D02*
G37*
G36*
X5631500D02*
X5623220D01*
X5623312Y1075918D01*
X5626407Y1071287D01*
X5631038Y1068193D01*
X5631500Y1068101D01*
Y1076380D01*
D02*
G37*
G36*
X5365240Y1072441D02*
X5356961D01*
Y1064161D01*
X5357423Y1064253D01*
X5362054Y1067348D01*
X5365148Y1071978D01*
X5365240Y1072441D01*
D02*
G37*
G36*
X5346961D02*
X5338681D01*
X5338773Y1071978D01*
X5341867Y1067348D01*
X5346498Y1064253D01*
X5346961Y1064161D01*
Y1072441D01*
D02*
G37*
G36*
X5321933D02*
X5313654D01*
Y1064161D01*
X5314116Y1064253D01*
X5318747Y1067348D01*
X5321841Y1071978D01*
X5321933Y1072441D01*
D02*
G37*
G36*
X5303654D02*
X5295374D01*
X5295466Y1071978D01*
X5298560Y1067348D01*
X5303191Y1064253D01*
X5303654Y1064161D01*
Y1072441D01*
D02*
G37*
G36*
X5278626D02*
X5270346D01*
Y1064161D01*
X5270809Y1064253D01*
X5275440Y1067348D01*
X5278534Y1071978D01*
X5278626Y1072441D01*
D02*
G37*
G36*
X5260346D02*
X5252067D01*
X5252159Y1071978D01*
X5255253Y1067348D01*
X5259884Y1064253D01*
X5260346Y1064161D01*
Y1072441D01*
D02*
G37*
G36*
X5235319D02*
X5227039D01*
Y1064161D01*
X5227502Y1064253D01*
X5232133Y1067348D01*
X5235227Y1071978D01*
X5235319Y1072441D01*
D02*
G37*
G36*
X5217039D02*
X5208760D01*
X5208852Y1071978D01*
X5211946Y1067348D01*
X5216577Y1064253D01*
X5217039Y1064161D01*
Y1072441D01*
D02*
G37*
G36*
X5160358Y1069000D02*
X5152079D01*
Y1060720D01*
X5152541Y1060812D01*
X5157172Y1063907D01*
X5160266Y1068537D01*
X5160358Y1069000D01*
D02*
G37*
G36*
X5142079D02*
X5133799D01*
X5133891Y1068537D01*
X5136985Y1063907D01*
X5141616Y1060812D01*
X5142079Y1060720D01*
Y1069000D01*
D02*
G37*
G36*
X5356961Y1047414D02*
Y1039134D01*
X5365240D01*
X5365148Y1039596D01*
X5362054Y1044227D01*
X5357423Y1047322D01*
X5356961Y1047414D01*
D02*
G37*
G36*
X5346961D02*
X5346498Y1047322D01*
X5341867Y1044227D01*
X5338773Y1039596D01*
X5338681Y1039134D01*
X5346961D01*
Y1047414D01*
D02*
G37*
G36*
X5313654D02*
Y1039134D01*
X5321933D01*
X5321841Y1039596D01*
X5318747Y1044227D01*
X5314116Y1047322D01*
X5313654Y1047414D01*
D02*
G37*
G36*
X5303654D02*
X5303191Y1047322D01*
X5298560Y1044227D01*
X5295466Y1039596D01*
X5295374Y1039134D01*
X5303654D01*
Y1047414D01*
D02*
G37*
G36*
X5270346D02*
Y1039134D01*
X5278626D01*
X5278534Y1039596D01*
X5275440Y1044227D01*
X5270809Y1047322D01*
X5270346Y1047414D01*
D02*
G37*
G36*
X5260346D02*
X5259884Y1047322D01*
X5255253Y1044227D01*
X5252159Y1039596D01*
X5252067Y1039134D01*
X5260346D01*
Y1047414D01*
D02*
G37*
G36*
X5227039D02*
Y1039134D01*
X5235319D01*
X5235227Y1039596D01*
X5232133Y1044227D01*
X5227502Y1047322D01*
X5227039Y1047414D01*
D02*
G37*
G36*
X5217039D02*
X5216577Y1047322D01*
X5211946Y1044227D01*
X5208852Y1039596D01*
X5208760Y1039134D01*
X5217039D01*
Y1047414D01*
D02*
G37*
G36*
X5748500Y1044973D02*
Y1036693D01*
X5756780D01*
X5756688Y1037155D01*
X5753593Y1041786D01*
X5748962Y1044881D01*
X5748500Y1044973D01*
D02*
G37*
G36*
X5738500D02*
X5738038Y1044881D01*
X5733407Y1041786D01*
X5730312Y1037155D01*
X5730220Y1036693D01*
X5738500D01*
Y1044973D01*
D02*
G37*
G36*
X5695000D02*
Y1036693D01*
X5703280D01*
X5703188Y1037155D01*
X5700093Y1041786D01*
X5695462Y1044881D01*
X5695000Y1044973D01*
D02*
G37*
G36*
X5685000D02*
X5684538Y1044881D01*
X5679907Y1041786D01*
X5676812Y1037155D01*
X5676720Y1036693D01*
X5685000D01*
Y1044973D01*
D02*
G37*
G36*
X5641500D02*
Y1036693D01*
X5649780D01*
X5649688Y1037155D01*
X5646593Y1041786D01*
X5641962Y1044881D01*
X5641500Y1044973D01*
D02*
G37*
G36*
X5631500D02*
X5631038Y1044881D01*
X5626407Y1041786D01*
X5623312Y1037155D01*
X5623220Y1036693D01*
X5631500D01*
Y1044973D01*
D02*
G37*
G36*
X5152079Y1036280D02*
Y1028000D01*
X5160358D01*
X5160266Y1028463D01*
X5157172Y1033093D01*
X5152541Y1036188D01*
X5152079Y1036280D01*
D02*
G37*
G36*
X5142079D02*
X5141616Y1036188D01*
X5136985Y1033093D01*
X5133891Y1028463D01*
X5133799Y1028000D01*
X5142079D01*
Y1036280D01*
D02*
G37*
G36*
X5365240Y1029134D02*
X5356961D01*
Y1020854D01*
X5357423Y1020946D01*
X5362054Y1024040D01*
X5365148Y1028671D01*
X5365240Y1029134D01*
D02*
G37*
G36*
X5346961D02*
X5338681D01*
X5338773Y1028671D01*
X5341867Y1024040D01*
X5346498Y1020946D01*
X5346961Y1020854D01*
Y1029134D01*
D02*
G37*
G36*
X5321933D02*
X5313654D01*
Y1020854D01*
X5314116Y1020946D01*
X5318747Y1024040D01*
X5321841Y1028671D01*
X5321933Y1029134D01*
D02*
G37*
G36*
X5303654D02*
X5295374D01*
X5295466Y1028671D01*
X5298560Y1024040D01*
X5303191Y1020946D01*
X5303654Y1020854D01*
Y1029134D01*
D02*
G37*
G36*
X5278626D02*
X5270346D01*
Y1020854D01*
X5270809Y1020946D01*
X5275440Y1024040D01*
X5278534Y1028671D01*
X5278626Y1029134D01*
D02*
G37*
G36*
X5260346D02*
X5252067D01*
X5252159Y1028671D01*
X5255253Y1024040D01*
X5259884Y1020946D01*
X5260346Y1020854D01*
Y1029134D01*
D02*
G37*
G36*
X5235319D02*
X5227039D01*
Y1020854D01*
X5227502Y1020946D01*
X5232133Y1024040D01*
X5235227Y1028671D01*
X5235319Y1029134D01*
D02*
G37*
G36*
X5217039D02*
X5208760D01*
X5208852Y1028671D01*
X5211946Y1024040D01*
X5216577Y1020946D01*
X5217039Y1020854D01*
Y1029134D01*
D02*
G37*
G36*
X5756780Y1026693D02*
X5748500D01*
Y1018413D01*
X5748962Y1018505D01*
X5753593Y1021599D01*
X5756688Y1026230D01*
X5756780Y1026693D01*
D02*
G37*
G36*
X5738500D02*
X5730220D01*
X5730312Y1026230D01*
X5733407Y1021599D01*
X5738038Y1018505D01*
X5738500Y1018413D01*
Y1026693D01*
D02*
G37*
G36*
X5703280D02*
X5695000D01*
Y1018413D01*
X5695462Y1018505D01*
X5700093Y1021599D01*
X5703188Y1026230D01*
X5703280Y1026693D01*
D02*
G37*
G36*
X5685000D02*
X5676720D01*
X5676812Y1026230D01*
X5679907Y1021599D01*
X5684538Y1018505D01*
X5685000Y1018413D01*
Y1026693D01*
D02*
G37*
G36*
X5649780D02*
X5641500D01*
Y1018413D01*
X5641962Y1018505D01*
X5646593Y1021599D01*
X5649688Y1026230D01*
X5649780Y1026693D01*
D02*
G37*
G36*
X5631500D02*
X5623220D01*
X5623312Y1026230D01*
X5626407Y1021599D01*
X5631038Y1018505D01*
X5631500Y1018413D01*
Y1026693D01*
D02*
G37*
G36*
X5160358Y1018000D02*
X5152079D01*
Y1009720D01*
X5152541Y1009812D01*
X5157172Y1012907D01*
X5160266Y1017538D01*
X5160358Y1018000D01*
D02*
G37*
G36*
X5142079D02*
X5133799D01*
X5133891Y1017538D01*
X5136985Y1012907D01*
X5141616Y1009812D01*
X5142079Y1009720D01*
Y1018000D01*
D02*
G37*
G36*
X5367000Y1006075D02*
Y997795D01*
X5375280D01*
X5375188Y998258D01*
X5372093Y1002889D01*
X5367462Y1005983D01*
X5367000Y1006075D01*
D02*
G37*
G36*
X5357000D02*
X5356538Y1005983D01*
X5351907Y1002889D01*
X5348812Y998258D01*
X5348720Y997795D01*
X5357000D01*
Y1006075D01*
D02*
G37*
G36*
X5317000D02*
Y997795D01*
X5325280D01*
X5325188Y998258D01*
X5322093Y1002889D01*
X5317462Y1005983D01*
X5317000Y1006075D01*
D02*
G37*
G36*
X5307000D02*
X5306538Y1005983D01*
X5301907Y1002889D01*
X5298812Y998258D01*
X5298720Y997795D01*
X5307000D01*
Y1006075D01*
D02*
G37*
G36*
X5267000D02*
Y997795D01*
X5275280D01*
X5275188Y998258D01*
X5272093Y1002889D01*
X5267462Y1005983D01*
X5267000Y1006075D01*
D02*
G37*
G36*
X5257000D02*
X5256538Y1005983D01*
X5251907Y1002889D01*
X5248812Y998258D01*
X5248720Y997795D01*
X5257000D01*
Y1006075D01*
D02*
G37*
G36*
X5217000D02*
Y997795D01*
X5225280D01*
X5225188Y998258D01*
X5222093Y1002889D01*
X5217462Y1005983D01*
X5217000Y1006075D01*
D02*
G37*
G36*
X5207000D02*
X5206538Y1005983D01*
X5201907Y1002889D01*
X5198812Y998258D01*
X5198720Y997795D01*
X5207000D01*
Y1006075D01*
D02*
G37*
G36*
X5748500Y995285D02*
Y987005D01*
X5756780D01*
X5756688Y987468D01*
X5753593Y992099D01*
X5748962Y995193D01*
X5748500Y995285D01*
D02*
G37*
G36*
X5738500D02*
X5738038Y995193D01*
X5733407Y992099D01*
X5730312Y987468D01*
X5730220Y987005D01*
X5738500D01*
Y995285D01*
D02*
G37*
G36*
X5695000D02*
Y987005D01*
X5703280D01*
X5703188Y987468D01*
X5700093Y992099D01*
X5695462Y995193D01*
X5695000Y995285D01*
D02*
G37*
G36*
X5685000D02*
X5684538Y995193D01*
X5679907Y992099D01*
X5676812Y987468D01*
X5676720Y987005D01*
X5685000D01*
Y995285D01*
D02*
G37*
G36*
X5641500D02*
Y987005D01*
X5649780D01*
X5649688Y987468D01*
X5646593Y992099D01*
X5641962Y995193D01*
X5641500Y995285D01*
D02*
G37*
G36*
X5631500D02*
X5631038Y995193D01*
X5626407Y992099D01*
X5623312Y987468D01*
X5623220Y987005D01*
X5631500D01*
Y995285D01*
D02*
G37*
G36*
X5375280Y987795D02*
X5367000D01*
Y979515D01*
X5367462Y979607D01*
X5372093Y982702D01*
X5375188Y987333D01*
X5375280Y987795D01*
D02*
G37*
G36*
X5357000D02*
X5348720D01*
X5348812Y987333D01*
X5351907Y982702D01*
X5356538Y979607D01*
X5357000Y979515D01*
Y987795D01*
D02*
G37*
G36*
X5325280D02*
X5317000D01*
Y979515D01*
X5317462Y979607D01*
X5322093Y982702D01*
X5325188Y987333D01*
X5325280Y987795D01*
D02*
G37*
G36*
X5307000D02*
X5298720D01*
X5298812Y987333D01*
X5301907Y982702D01*
X5306538Y979607D01*
X5307000Y979515D01*
Y987795D01*
D02*
G37*
G36*
X5275280D02*
X5267000D01*
Y979515D01*
X5267462Y979607D01*
X5272093Y982702D01*
X5275188Y987333D01*
X5275280Y987795D01*
D02*
G37*
G36*
X5257000D02*
X5248720D01*
X5248812Y987333D01*
X5251907Y982702D01*
X5256538Y979607D01*
X5257000Y979515D01*
Y987795D01*
D02*
G37*
G36*
X5225280D02*
X5217000D01*
Y979515D01*
X5217462Y979607D01*
X5222093Y982702D01*
X5225188Y987333D01*
X5225280Y987795D01*
D02*
G37*
G36*
X5207000D02*
X5198720D01*
X5198812Y987333D01*
X5201907Y982702D01*
X5206538Y979607D01*
X5207000Y979515D01*
Y987795D01*
D02*
G37*
G36*
X5152039Y987240D02*
Y978961D01*
X5160319D01*
X5160227Y979423D01*
X5157133Y984054D01*
X5152502Y987148D01*
X5152039Y987240D01*
D02*
G37*
G36*
X5142039D02*
X5141577Y987148D01*
X5136946Y984054D01*
X5133852Y979423D01*
X5133760Y978961D01*
X5142039D01*
Y987240D01*
D02*
G37*
G36*
X5756780Y977005D02*
X5748500D01*
Y968726D01*
X5748962Y968818D01*
X5753593Y971912D01*
X5756688Y976543D01*
X5756780Y977005D01*
D02*
G37*
G36*
X5738500D02*
X5730220D01*
X5730312Y976543D01*
X5733407Y971912D01*
X5738038Y968818D01*
X5738500Y968726D01*
Y977005D01*
D02*
G37*
G36*
X5703280D02*
X5695000D01*
Y968726D01*
X5695462Y968818D01*
X5700093Y971912D01*
X5703188Y976543D01*
X5703280Y977005D01*
D02*
G37*
G36*
X5685000D02*
X5676720D01*
X5676812Y976543D01*
X5679907Y971912D01*
X5684538Y968818D01*
X5685000Y968726D01*
Y977005D01*
D02*
G37*
G36*
X5649780D02*
X5641500D01*
Y968726D01*
X5641962Y968818D01*
X5646593Y971912D01*
X5649688Y976543D01*
X5649780Y977005D01*
D02*
G37*
G36*
X5631500D02*
X5623220D01*
X5623312Y976543D01*
X5626407Y971912D01*
X5631038Y968818D01*
X5631500Y968726D01*
Y977005D01*
D02*
G37*
G36*
X5160319Y968961D02*
X5152039D01*
Y960681D01*
X5152502Y960773D01*
X5157133Y963867D01*
X5160227Y968498D01*
X5160319Y968961D01*
D02*
G37*
G36*
X5142039D02*
X5133760D01*
X5133852Y968498D01*
X5136946Y963867D01*
X5141577Y960773D01*
X5142039Y960681D01*
Y968961D01*
D02*
G37*
G36*
X5373641Y935257D02*
X5369349Y934403D01*
X5365711Y931972D01*
X5363279Y928333D01*
X5362426Y924041D01*
X5363279Y919749D01*
X5365711Y916111D01*
X5369349Y913679D01*
X5373641Y912826D01*
X5377933Y913679D01*
X5381572Y916111D01*
X5384003Y919749D01*
X5384857Y924041D01*
X5384003Y928333D01*
X5381572Y931972D01*
X5377933Y934403D01*
X5373641Y935257D01*
D02*
G37*
G36*
X5293641D02*
X5289349Y934403D01*
X5285711Y931972D01*
X5283279Y928333D01*
X5282426Y924041D01*
X5283279Y919749D01*
X5285711Y916111D01*
X5289349Y913679D01*
X5293641Y912826D01*
X5297933Y913679D01*
X5301572Y916111D01*
X5304003Y919749D01*
X5304857Y924041D01*
X5304003Y928333D01*
X5301572Y931972D01*
X5297933Y934403D01*
X5293641Y935257D01*
D02*
G37*
G36*
X5213641D02*
X5209349Y934403D01*
X5205711Y931972D01*
X5203279Y928333D01*
X5202426Y924041D01*
X5203279Y919749D01*
X5205711Y916111D01*
X5209349Y913679D01*
X5213641Y912826D01*
X5217933Y913679D01*
X5221572Y916111D01*
X5224003Y919749D01*
X5224857Y924041D01*
X5224003Y928333D01*
X5221572Y931972D01*
X5217933Y934403D01*
X5213641Y935257D01*
D02*
G37*
G36*
X4030276Y830406D02*
Y822126D01*
X4038555D01*
X4038463Y822588D01*
X4035369Y827220D01*
X4030738Y830314D01*
X4030276Y830406D01*
D02*
G37*
G36*
X4020276D02*
X4019813Y830314D01*
X4015182Y827220D01*
X4012088Y822588D01*
X4011996Y822126D01*
X4020276D01*
Y830406D01*
D02*
G37*
G36*
X4038555Y812126D02*
X4030276D01*
Y803846D01*
X4030738Y803938D01*
X4035369Y807033D01*
X4038463Y811663D01*
X4038555Y812126D01*
D02*
G37*
G36*
X4020276D02*
X4011996D01*
X4012088Y811663D01*
X4015182Y807033D01*
X4019813Y803938D01*
X4020276Y803846D01*
Y812126D01*
D02*
G37*
G36*
X5044748Y733240D02*
Y724961D01*
X5053028D01*
X5052936Y725423D01*
X5049842Y730054D01*
X5045211Y733148D01*
X5044748Y733240D01*
D02*
G37*
G36*
X5034748D02*
X5034285Y733148D01*
X5029654Y730054D01*
X5026560Y725423D01*
X5026468Y724961D01*
X5034748D01*
Y733240D01*
D02*
G37*
G36*
X5001441D02*
Y724961D01*
X5009721D01*
X5009629Y725423D01*
X5006534Y730054D01*
X5001904Y733148D01*
X5001441Y733240D01*
D02*
G37*
G36*
X4991441D02*
X4990979Y733148D01*
X4986347Y730054D01*
X4983253Y725423D01*
X4983161Y724961D01*
X4991441D01*
Y733240D01*
D02*
G37*
G36*
X4958134D02*
Y724961D01*
X4966414D01*
X4966322Y725423D01*
X4963227Y730054D01*
X4958596Y733148D01*
X4958134Y733240D01*
D02*
G37*
G36*
X4948134D02*
X4947671Y733148D01*
X4943040Y730054D01*
X4939946Y725423D01*
X4939854Y724961D01*
X4948134D01*
Y733240D01*
D02*
G37*
G36*
X5053028Y714961D02*
X5044748D01*
Y706681D01*
X5045211Y706773D01*
X5049842Y709867D01*
X5052936Y714498D01*
X5053028Y714961D01*
D02*
G37*
G36*
X5034748D02*
X5026468D01*
X5026560Y714498D01*
X5029654Y709867D01*
X5034285Y706773D01*
X5034748Y706681D01*
Y714961D01*
D02*
G37*
G36*
X5009721D02*
X5001441D01*
Y706681D01*
X5001904Y706773D01*
X5006534Y709867D01*
X5009629Y714498D01*
X5009721Y714961D01*
D02*
G37*
G36*
X4991441D02*
X4983161D01*
X4983253Y714498D01*
X4986347Y709867D01*
X4990979Y706773D01*
X4991441Y706681D01*
Y714961D01*
D02*
G37*
G36*
X4966414D02*
X4958134D01*
Y706681D01*
X4958596Y706773D01*
X4963227Y709867D01*
X4966322Y714498D01*
X4966414Y714961D01*
D02*
G37*
G36*
X4948134D02*
X4939854D01*
X4939946Y714498D01*
X4943040Y709867D01*
X4947671Y706773D01*
X4948134Y706681D01*
Y714961D01*
D02*
G37*
G36*
X5044748Y689933D02*
Y681654D01*
X5053028D01*
X5052936Y682116D01*
X5049842Y686747D01*
X5045211Y689841D01*
X5044748Y689933D01*
D02*
G37*
G36*
X5034748D02*
X5034285Y689841D01*
X5029654Y686747D01*
X5026560Y682116D01*
X5026468Y681654D01*
X5034748D01*
Y689933D01*
D02*
G37*
G36*
X5001441D02*
Y681654D01*
X5009721D01*
X5009629Y682116D01*
X5006534Y686747D01*
X5001904Y689841D01*
X5001441Y689933D01*
D02*
G37*
G36*
X4991441D02*
X4990979Y689841D01*
X4986347Y686747D01*
X4983253Y682116D01*
X4983161Y681654D01*
X4991441D01*
Y689933D01*
D02*
G37*
G36*
X4958134D02*
Y681654D01*
X4966414D01*
X4966322Y682116D01*
X4963227Y686747D01*
X4958596Y689841D01*
X4958134Y689933D01*
D02*
G37*
G36*
X4948134D02*
X4947671Y689841D01*
X4943040Y686747D01*
X4939946Y682116D01*
X4939854Y681654D01*
X4948134D01*
Y689933D01*
D02*
G37*
G36*
X5053028Y671654D02*
X5044748D01*
Y663374D01*
X5045211Y663466D01*
X5049842Y666560D01*
X5052936Y671191D01*
X5053028Y671654D01*
D02*
G37*
G36*
X5034748D02*
X5026468D01*
X5026560Y671191D01*
X5029654Y666560D01*
X5034285Y663466D01*
X5034748Y663374D01*
Y671654D01*
D02*
G37*
G36*
X5009721D02*
X5001441D01*
Y663374D01*
X5001904Y663466D01*
X5006534Y666560D01*
X5009629Y671191D01*
X5009721Y671654D01*
D02*
G37*
G36*
X4991441D02*
X4983161D01*
X4983253Y671191D01*
X4986347Y666560D01*
X4990979Y663466D01*
X4991441Y663374D01*
Y671654D01*
D02*
G37*
G36*
X4966414D02*
X4958134D01*
Y663374D01*
X4958596Y663466D01*
X4963227Y666560D01*
X4966322Y671191D01*
X4966414Y671654D01*
D02*
G37*
G36*
X4948134D02*
X4939854D01*
X4939946Y671191D01*
X4943040Y666560D01*
X4947671Y663466D01*
X4948134Y663374D01*
Y671654D01*
D02*
G37*
G36*
X5044748Y646626D02*
Y638346D01*
X5053028D01*
X5052936Y638809D01*
X5049842Y643440D01*
X5045211Y646534D01*
X5044748Y646626D01*
D02*
G37*
G36*
X5034748D02*
X5034285Y646534D01*
X5029654Y643440D01*
X5026560Y638809D01*
X5026468Y638346D01*
X5034748D01*
Y646626D01*
D02*
G37*
G36*
X5001441D02*
Y638346D01*
X5009721D01*
X5009629Y638809D01*
X5006534Y643440D01*
X5001904Y646534D01*
X5001441Y646626D01*
D02*
G37*
G36*
X4991441D02*
X4990979Y646534D01*
X4986347Y643440D01*
X4983253Y638809D01*
X4983161Y638346D01*
X4991441D01*
Y646626D01*
D02*
G37*
G36*
X4958134D02*
Y638346D01*
X4966414D01*
X4966322Y638809D01*
X4963227Y643440D01*
X4958596Y646534D01*
X4958134Y646626D01*
D02*
G37*
G36*
X4948134D02*
X4947671Y646534D01*
X4943040Y643440D01*
X4939946Y638809D01*
X4939854Y638346D01*
X4948134D01*
Y646626D01*
D02*
G37*
G36*
X5053028Y628346D02*
X5044748D01*
Y620067D01*
X5045211Y620159D01*
X5049842Y623253D01*
X5052936Y627884D01*
X5053028Y628346D01*
D02*
G37*
G36*
X5034748D02*
X5026468D01*
X5026560Y627884D01*
X5029654Y623253D01*
X5034285Y620159D01*
X5034748Y620067D01*
Y628346D01*
D02*
G37*
G36*
X5009721D02*
X5001441D01*
Y620067D01*
X5001904Y620159D01*
X5006534Y623253D01*
X5009629Y627884D01*
X5009721Y628346D01*
D02*
G37*
G36*
X4991441D02*
X4983161D01*
X4983253Y627884D01*
X4986347Y623253D01*
X4990979Y620159D01*
X4991441Y620067D01*
Y628346D01*
D02*
G37*
G36*
X4966414D02*
X4958134D01*
Y620067D01*
X4958596Y620159D01*
X4963227Y623253D01*
X4966322Y627884D01*
X4966414Y628346D01*
D02*
G37*
G36*
X4948134D02*
X4939854D01*
X4939946Y627884D01*
X4943040Y623253D01*
X4947671Y620159D01*
X4948134Y620067D01*
Y628346D01*
D02*
G37*
G36*
X5044748Y603319D02*
Y595039D01*
X5053028D01*
X5052936Y595502D01*
X5049842Y600133D01*
X5045211Y603227D01*
X5044748Y603319D01*
D02*
G37*
G36*
X5034748D02*
X5034285Y603227D01*
X5029654Y600133D01*
X5026560Y595502D01*
X5026468Y595039D01*
X5034748D01*
Y603319D01*
D02*
G37*
G36*
X5001441D02*
Y595039D01*
X5009721D01*
X5009629Y595502D01*
X5006534Y600133D01*
X5001904Y603227D01*
X5001441Y603319D01*
D02*
G37*
G36*
X4991441D02*
X4990979Y603227D01*
X4986347Y600133D01*
X4983253Y595502D01*
X4983161Y595039D01*
X4991441D01*
Y603319D01*
D02*
G37*
G36*
X4958134D02*
Y595039D01*
X4966414D01*
X4966322Y595502D01*
X4963227Y600133D01*
X4958596Y603227D01*
X4958134Y603319D01*
D02*
G37*
G36*
X4948134D02*
X4947671Y603227D01*
X4943040Y600133D01*
X4939946Y595502D01*
X4939854Y595039D01*
X4948134D01*
Y603319D01*
D02*
G37*
G36*
X5053028Y585039D02*
X5044748D01*
Y576760D01*
X5045211Y576852D01*
X5049842Y579946D01*
X5052936Y584577D01*
X5053028Y585039D01*
D02*
G37*
G36*
X5034748D02*
X5026468D01*
X5026560Y584577D01*
X5029654Y579946D01*
X5034285Y576852D01*
X5034748Y576760D01*
Y585039D01*
D02*
G37*
G36*
X5009721D02*
X5001441D01*
Y576760D01*
X5001904Y576852D01*
X5006534Y579946D01*
X5009629Y584577D01*
X5009721Y585039D01*
D02*
G37*
G36*
X4991441D02*
X4983161D01*
X4983253Y584577D01*
X4986347Y579946D01*
X4990979Y576852D01*
X4991441Y576760D01*
Y585039D01*
D02*
G37*
G36*
X4966414D02*
X4958134D01*
Y576760D01*
X4958596Y576852D01*
X4963227Y579946D01*
X4966322Y584577D01*
X4966414Y585039D01*
D02*
G37*
G36*
X4948134D02*
X4939854D01*
X4939946Y584577D01*
X4943040Y579946D01*
X4947671Y576852D01*
X4948134Y576760D01*
Y585039D01*
D02*
G37*
G36*
X5074425Y513280D02*
Y505000D01*
X5082705D01*
X5082613Y505462D01*
X5079519Y510094D01*
X5074888Y513188D01*
X5074425Y513280D01*
D02*
G37*
G36*
X5064425D02*
X5063963Y513188D01*
X5059332Y510094D01*
X5056238Y505462D01*
X5056145Y505000D01*
X5064425D01*
Y513280D01*
D02*
G37*
G36*
X5026000D02*
Y505000D01*
X5034280D01*
X5034188Y505462D01*
X5031093Y510094D01*
X5026462Y513188D01*
X5026000Y513280D01*
D02*
G37*
G36*
X5016000D02*
X5015538Y513188D01*
X5010907Y510094D01*
X5007812Y505462D01*
X5007720Y505000D01*
X5016000D01*
Y513280D01*
D02*
G37*
G36*
X5082705Y495000D02*
X5074425D01*
Y486720D01*
X5074888Y486812D01*
X5079519Y489906D01*
X5082613Y494538D01*
X5082705Y495000D01*
D02*
G37*
G36*
X5064425D02*
X5056145D01*
X5056238Y494538D01*
X5059332Y489906D01*
X5063963Y486812D01*
X5064425Y486720D01*
Y495000D01*
D02*
G37*
G36*
X5034280D02*
X5026000D01*
Y486720D01*
X5026462Y486812D01*
X5031093Y489906D01*
X5034188Y494538D01*
X5034280Y495000D01*
D02*
G37*
G36*
X5016000D02*
X5007720D01*
X5007812Y494538D01*
X5010907Y489906D01*
X5015538Y486812D01*
X5016000Y486720D01*
Y495000D01*
D02*
G37*
G36*
X5021000Y476570D02*
X5016708Y475716D01*
X5013069Y473285D01*
X5010638Y469646D01*
X5009784Y465354D01*
X5010638Y461062D01*
X5013069Y457424D01*
X5016708Y454993D01*
X5021000Y454139D01*
X5025292Y454993D01*
X5028931Y457424D01*
X5031362Y461062D01*
X5032216Y465354D01*
X5031362Y469646D01*
X5028931Y473285D01*
X5025292Y475716D01*
X5021000Y476570D01*
D02*
G37*
G36*
X5373547Y737223D02*
X5369255Y736370D01*
X5365616Y733938D01*
X5363185Y730300D01*
X5362331Y726008D01*
X5363185Y721716D01*
X5365616Y718077D01*
X5369255Y715646D01*
X5373547Y714792D01*
X5377839Y715646D01*
X5381477Y718077D01*
X5383909Y721716D01*
X5384762Y726008D01*
X5383909Y730300D01*
X5381477Y733938D01*
X5377839Y736370D01*
X5373547Y737223D01*
D02*
G37*
G36*
X5293547D02*
X5289255Y736370D01*
X5285616Y733938D01*
X5283185Y730300D01*
X5282331Y726008D01*
X5283185Y721716D01*
X5285616Y718077D01*
X5289255Y715646D01*
X5293547Y714792D01*
X5297839Y715646D01*
X5301477Y718077D01*
X5303909Y721716D01*
X5304762Y726008D01*
X5303909Y730300D01*
X5301477Y733938D01*
X5297839Y736370D01*
X5293547Y737223D01*
D02*
G37*
G36*
X5213641D02*
X5209349Y736370D01*
X5205711Y733938D01*
X5203279Y730300D01*
X5202426Y726008D01*
X5203279Y721716D01*
X5205711Y718077D01*
X5209349Y715646D01*
X5213641Y714792D01*
X5217933Y715646D01*
X5221572Y718077D01*
X5224003Y721716D01*
X5224857Y726008D01*
X5224003Y730300D01*
X5221572Y733938D01*
X5217933Y736370D01*
X5213641Y737223D01*
D02*
G37*
G36*
X5149079Y693280D02*
Y685000D01*
X5157358D01*
X5157266Y685462D01*
X5154172Y690093D01*
X5149541Y693188D01*
X5149079Y693280D01*
D02*
G37*
G36*
X5139079D02*
X5138616Y693188D01*
X5133985Y690093D01*
X5130891Y685462D01*
X5130799Y685000D01*
X5139079D01*
Y693280D01*
D02*
G37*
G36*
X5748500Y681274D02*
Y672995D01*
X5756780D01*
X5756688Y673457D01*
X5753593Y678088D01*
X5748962Y681182D01*
X5748500Y681274D01*
D02*
G37*
G36*
X5738500D02*
X5738038Y681182D01*
X5733407Y678088D01*
X5730312Y673457D01*
X5730220Y672995D01*
X5738500D01*
Y681274D01*
D02*
G37*
G36*
X5695000D02*
Y672995D01*
X5703280D01*
X5703188Y673457D01*
X5700093Y678088D01*
X5695462Y681182D01*
X5695000Y681274D01*
D02*
G37*
G36*
X5685000D02*
X5684538Y681182D01*
X5679907Y678088D01*
X5676812Y673457D01*
X5676720Y672995D01*
X5685000D01*
Y681274D01*
D02*
G37*
G36*
X5641500D02*
Y672995D01*
X5649780D01*
X5649688Y673457D01*
X5646593Y678088D01*
X5641962Y681182D01*
X5641500Y681274D01*
D02*
G37*
G36*
X5631500D02*
X5631038Y681182D01*
X5626407Y678088D01*
X5623312Y673457D01*
X5623220Y672995D01*
X5631500D01*
Y681274D01*
D02*
G37*
G36*
X5157358Y675000D02*
X5149079D01*
Y666720D01*
X5149541Y666812D01*
X5154172Y669907D01*
X5157266Y674538D01*
X5157358Y675000D01*
D02*
G37*
G36*
X5139079D02*
X5130799D01*
X5130891Y674538D01*
X5133985Y669907D01*
X5138616Y666812D01*
X5139079Y666720D01*
Y675000D01*
D02*
G37*
G36*
X5368000Y674485D02*
Y666205D01*
X5376280D01*
X5376188Y666667D01*
X5373093Y671298D01*
X5368462Y674393D01*
X5368000Y674485D01*
D02*
G37*
G36*
X5358000D02*
X5357538Y674393D01*
X5352907Y671298D01*
X5349812Y666667D01*
X5349720Y666205D01*
X5358000D01*
Y674485D01*
D02*
G37*
G36*
X5318000D02*
Y666205D01*
X5326280D01*
X5326188Y666667D01*
X5323093Y671298D01*
X5318462Y674393D01*
X5318000Y674485D01*
D02*
G37*
G36*
X5308000D02*
X5307538Y674393D01*
X5302907Y671298D01*
X5299812Y666667D01*
X5299720Y666205D01*
X5308000D01*
Y674485D01*
D02*
G37*
G36*
X5268000D02*
Y666205D01*
X5276280D01*
X5276188Y666667D01*
X5273093Y671298D01*
X5268462Y674393D01*
X5268000Y674485D01*
D02*
G37*
G36*
X5258000D02*
X5257538Y674393D01*
X5252907Y671298D01*
X5249812Y666667D01*
X5249720Y666205D01*
X5258000D01*
Y674485D01*
D02*
G37*
G36*
X5218000D02*
Y666205D01*
X5226280D01*
X5226188Y666667D01*
X5223093Y671298D01*
X5218462Y674393D01*
X5218000Y674485D01*
D02*
G37*
G36*
X5208000D02*
X5207538Y674393D01*
X5202907Y671298D01*
X5199812Y666667D01*
X5199720Y666205D01*
X5208000D01*
Y674485D01*
D02*
G37*
G36*
X5756780Y662995D02*
X5748500D01*
Y654715D01*
X5748962Y654807D01*
X5753593Y657901D01*
X5756688Y662532D01*
X5756780Y662995D01*
D02*
G37*
G36*
X5738500D02*
X5730220D01*
X5730312Y662532D01*
X5733407Y657901D01*
X5738038Y654807D01*
X5738500Y654715D01*
Y662995D01*
D02*
G37*
G36*
X5703280D02*
X5695000D01*
Y654715D01*
X5695462Y654807D01*
X5700093Y657901D01*
X5703188Y662532D01*
X5703280Y662995D01*
D02*
G37*
G36*
X5685000D02*
X5676720D01*
X5676812Y662532D01*
X5679907Y657901D01*
X5684538Y654807D01*
X5685000Y654715D01*
Y662995D01*
D02*
G37*
G36*
X5649780D02*
X5641500D01*
Y654715D01*
X5641962Y654807D01*
X5646593Y657901D01*
X5649688Y662532D01*
X5649780Y662995D01*
D02*
G37*
G36*
X5631500D02*
X5623220D01*
X5623312Y662532D01*
X5626407Y657901D01*
X5631038Y654807D01*
X5631500Y654715D01*
Y662995D01*
D02*
G37*
G36*
X5376280Y656205D02*
X5368000D01*
Y647925D01*
X5368462Y648017D01*
X5373093Y651111D01*
X5376188Y655742D01*
X5376280Y656205D01*
D02*
G37*
G36*
X5358000D02*
X5349720D01*
X5349812Y655742D01*
X5352907Y651111D01*
X5357538Y648017D01*
X5358000Y647925D01*
Y656205D01*
D02*
G37*
G36*
X5326280D02*
X5318000D01*
Y647925D01*
X5318462Y648017D01*
X5323093Y651111D01*
X5326188Y655742D01*
X5326280Y656205D01*
D02*
G37*
G36*
X5308000D02*
X5299720D01*
X5299812Y655742D01*
X5302907Y651111D01*
X5307538Y648017D01*
X5308000Y647925D01*
Y656205D01*
D02*
G37*
G36*
X5276280D02*
X5268000D01*
Y647925D01*
X5268462Y648017D01*
X5273093Y651111D01*
X5276188Y655742D01*
X5276280Y656205D01*
D02*
G37*
G36*
X5258000D02*
X5249720D01*
X5249812Y655742D01*
X5252907Y651111D01*
X5257538Y648017D01*
X5258000Y647925D01*
Y656205D01*
D02*
G37*
G36*
X5226280D02*
X5218000D01*
Y647925D01*
X5218462Y648017D01*
X5223093Y651111D01*
X5226188Y655742D01*
X5226280Y656205D01*
D02*
G37*
G36*
X5208000D02*
X5199720D01*
X5199812Y655742D01*
X5202907Y651111D01*
X5207538Y648017D01*
X5208000Y647925D01*
Y656205D01*
D02*
G37*
G36*
X5149079Y643280D02*
Y635000D01*
X5157358D01*
X5157266Y635462D01*
X5154172Y640093D01*
X5149541Y643188D01*
X5149079Y643280D01*
D02*
G37*
G36*
X5139079D02*
X5138616Y643188D01*
X5133985Y640093D01*
X5130891Y635462D01*
X5130799Y635000D01*
X5139079D01*
Y643280D01*
D02*
G37*
G36*
X5357961Y633146D02*
Y624866D01*
X5366240D01*
X5366148Y625329D01*
X5363054Y629960D01*
X5358423Y633054D01*
X5357961Y633146D01*
D02*
G37*
G36*
X5347961D02*
X5347498Y633054D01*
X5342867Y629960D01*
X5339773Y625329D01*
X5339681Y624866D01*
X5347961D01*
Y633146D01*
D02*
G37*
G36*
X5314654D02*
Y624866D01*
X5322933D01*
X5322841Y625329D01*
X5319747Y629960D01*
X5315116Y633054D01*
X5314654Y633146D01*
D02*
G37*
G36*
X5304654D02*
X5304191Y633054D01*
X5299560Y629960D01*
X5296466Y625329D01*
X5296374Y624866D01*
X5304654D01*
Y633146D01*
D02*
G37*
G36*
X5271346D02*
Y624866D01*
X5279626D01*
X5279534Y625329D01*
X5276440Y629960D01*
X5271809Y633054D01*
X5271346Y633146D01*
D02*
G37*
G36*
X5261346D02*
X5260884Y633054D01*
X5256253Y629960D01*
X5253159Y625329D01*
X5253067Y624866D01*
X5261346D01*
Y633146D01*
D02*
G37*
G36*
X5228039D02*
Y624866D01*
X5236319D01*
X5236227Y625329D01*
X5233133Y629960D01*
X5228502Y633054D01*
X5228039Y633146D01*
D02*
G37*
G36*
X5218039D02*
X5217577Y633054D01*
X5212946Y629960D01*
X5209852Y625329D01*
X5209760Y624866D01*
X5218039D01*
Y633146D01*
D02*
G37*
G36*
X5748500Y631587D02*
Y623307D01*
X5756780D01*
X5756688Y623770D01*
X5753593Y628401D01*
X5748962Y631495D01*
X5748500Y631587D01*
D02*
G37*
G36*
X5738500D02*
X5738038Y631495D01*
X5733407Y628401D01*
X5730312Y623770D01*
X5730220Y623307D01*
X5738500D01*
Y631587D01*
D02*
G37*
G36*
X5695000D02*
Y623307D01*
X5703280D01*
X5703188Y623770D01*
X5700093Y628401D01*
X5695462Y631495D01*
X5695000Y631587D01*
D02*
G37*
G36*
X5685000D02*
X5684538Y631495D01*
X5679907Y628401D01*
X5676812Y623770D01*
X5676720Y623307D01*
X5685000D01*
Y631587D01*
D02*
G37*
G36*
X5641500D02*
Y623307D01*
X5649780D01*
X5649688Y623770D01*
X5646593Y628401D01*
X5641962Y631495D01*
X5641500Y631587D01*
D02*
G37*
G36*
X5631500D02*
X5631038Y631495D01*
X5626407Y628401D01*
X5623312Y623770D01*
X5623220Y623307D01*
X5631500D01*
Y631587D01*
D02*
G37*
G36*
X5157358Y625000D02*
X5149079D01*
Y616720D01*
X5149541Y616812D01*
X5154172Y619907D01*
X5157266Y624538D01*
X5157358Y625000D01*
D02*
G37*
G36*
X5139079D02*
X5130799D01*
X5130891Y624538D01*
X5133985Y619907D01*
X5138616Y616812D01*
X5139079Y616720D01*
Y625000D01*
D02*
G37*
G36*
X5366240Y614866D02*
X5357961D01*
Y606586D01*
X5358423Y606678D01*
X5363054Y609773D01*
X5366148Y614404D01*
X5366240Y614866D01*
D02*
G37*
G36*
X5347961D02*
X5339681D01*
X5339773Y614404D01*
X5342867Y609773D01*
X5347498Y606678D01*
X5347961Y606586D01*
Y614866D01*
D02*
G37*
G36*
X5322933D02*
X5314654D01*
Y606586D01*
X5315116Y606678D01*
X5319747Y609773D01*
X5322841Y614404D01*
X5322933Y614866D01*
D02*
G37*
G36*
X5304654D02*
X5296374D01*
X5296466Y614404D01*
X5299560Y609773D01*
X5304191Y606678D01*
X5304654Y606586D01*
Y614866D01*
D02*
G37*
G36*
X5279626D02*
X5271346D01*
Y606586D01*
X5271809Y606678D01*
X5276440Y609773D01*
X5279534Y614404D01*
X5279626Y614866D01*
D02*
G37*
G36*
X5261346D02*
X5253067D01*
X5253159Y614404D01*
X5256253Y609773D01*
X5260884Y606678D01*
X5261346Y606586D01*
Y614866D01*
D02*
G37*
G36*
X5236319D02*
X5228039D01*
Y606586D01*
X5228502Y606678D01*
X5233133Y609773D01*
X5236227Y614404D01*
X5236319Y614866D01*
D02*
G37*
G36*
X5218039D02*
X5209760D01*
X5209852Y614404D01*
X5212946Y609773D01*
X5217577Y606678D01*
X5218039Y606586D01*
Y614866D01*
D02*
G37*
G36*
X5756780Y613307D02*
X5748500D01*
Y605027D01*
X5748962Y605119D01*
X5753593Y608214D01*
X5756688Y612845D01*
X5756780Y613307D01*
D02*
G37*
G36*
X5738500D02*
X5730220D01*
X5730312Y612845D01*
X5733407Y608214D01*
X5738038Y605119D01*
X5738500Y605027D01*
Y613307D01*
D02*
G37*
G36*
X5703280D02*
X5695000D01*
Y605027D01*
X5695462Y605119D01*
X5700093Y608214D01*
X5703188Y612845D01*
X5703280Y613307D01*
D02*
G37*
G36*
X5685000D02*
X5676720D01*
X5676812Y612845D01*
X5679907Y608214D01*
X5684538Y605119D01*
X5685000Y605027D01*
Y613307D01*
D02*
G37*
G36*
X5649780D02*
X5641500D01*
Y605027D01*
X5641962Y605119D01*
X5646593Y608214D01*
X5649688Y612845D01*
X5649780Y613307D01*
D02*
G37*
G36*
X5631500D02*
X5623220D01*
X5623312Y612845D01*
X5626407Y608214D01*
X5631038Y605119D01*
X5631500Y605027D01*
Y613307D01*
D02*
G37*
G36*
X5149079Y593280D02*
Y585000D01*
X5157358D01*
X5157266Y585462D01*
X5154172Y590093D01*
X5149541Y593188D01*
X5149079Y593280D01*
D02*
G37*
G36*
X5139079D02*
X5138616Y593188D01*
X5133985Y590093D01*
X5130891Y585462D01*
X5130799Y585000D01*
X5139079D01*
Y593280D01*
D02*
G37*
G36*
X5357961Y589839D02*
Y581559D01*
X5366240D01*
X5366148Y582021D01*
X5363054Y586653D01*
X5358423Y589747D01*
X5357961Y589839D01*
D02*
G37*
G36*
X5347961D02*
X5347498Y589747D01*
X5342867Y586653D01*
X5339773Y582021D01*
X5339681Y581559D01*
X5347961D01*
Y589839D01*
D02*
G37*
G36*
X5314654D02*
Y581559D01*
X5322933D01*
X5322841Y582021D01*
X5319747Y586653D01*
X5315116Y589747D01*
X5314654Y589839D01*
D02*
G37*
G36*
X5304654D02*
X5304191Y589747D01*
X5299560Y586653D01*
X5296466Y582021D01*
X5296374Y581559D01*
X5304654D01*
Y589839D01*
D02*
G37*
G36*
X5271346D02*
Y581559D01*
X5279626D01*
X5279534Y582021D01*
X5276440Y586653D01*
X5271809Y589747D01*
X5271346Y589839D01*
D02*
G37*
G36*
X5261346D02*
X5260884Y589747D01*
X5256253Y586653D01*
X5253159Y582021D01*
X5253067Y581559D01*
X5261346D01*
Y589839D01*
D02*
G37*
G36*
X5228039D02*
Y581559D01*
X5236319D01*
X5236227Y582021D01*
X5233133Y586653D01*
X5228502Y589747D01*
X5228039Y589839D01*
D02*
G37*
G36*
X5218039D02*
X5217577Y589747D01*
X5212946Y586653D01*
X5209852Y582021D01*
X5209760Y581559D01*
X5218039D01*
Y589839D01*
D02*
G37*
G36*
X5695000Y581899D02*
Y573620D01*
X5703280D01*
X5703188Y574082D01*
X5700093Y578713D01*
X5695462Y581807D01*
X5695000Y581899D01*
D02*
G37*
G36*
X5685000D02*
X5684538Y581807D01*
X5679907Y578713D01*
X5676812Y574082D01*
X5676720Y573620D01*
X5685000D01*
Y581899D01*
D02*
G37*
G36*
X5748500Y581665D02*
Y573386D01*
X5756780D01*
X5756688Y573848D01*
X5753593Y578479D01*
X5748962Y581573D01*
X5748500Y581665D01*
D02*
G37*
G36*
X5738500D02*
X5738038Y581573D01*
X5733407Y578479D01*
X5730312Y573848D01*
X5730220Y573386D01*
X5738500D01*
Y581665D01*
D02*
G37*
G36*
X5641500D02*
Y573386D01*
X5649780D01*
X5649688Y573848D01*
X5646593Y578479D01*
X5641962Y581573D01*
X5641500Y581665D01*
D02*
G37*
G36*
X5631500D02*
X5631038Y581573D01*
X5626407Y578479D01*
X5623312Y573848D01*
X5623220Y573386D01*
X5631500D01*
Y581665D01*
D02*
G37*
G36*
X5157358Y575000D02*
X5149079D01*
Y566720D01*
X5149541Y566812D01*
X5154172Y569907D01*
X5157266Y574538D01*
X5157358Y575000D01*
D02*
G37*
G36*
X5139079D02*
X5130799D01*
X5130891Y574538D01*
X5133985Y569907D01*
X5138616Y566812D01*
X5139079Y566720D01*
Y575000D01*
D02*
G37*
G36*
X5366240Y571559D02*
X5357961D01*
Y563279D01*
X5358423Y563371D01*
X5363054Y566466D01*
X5366148Y571096D01*
X5366240Y571559D01*
D02*
G37*
G36*
X5347961D02*
X5339681D01*
X5339773Y571096D01*
X5342867Y566466D01*
X5347498Y563371D01*
X5347961Y563279D01*
Y571559D01*
D02*
G37*
G36*
X5322933D02*
X5314654D01*
Y563279D01*
X5315116Y563371D01*
X5319747Y566466D01*
X5322841Y571096D01*
X5322933Y571559D01*
D02*
G37*
G36*
X5304654D02*
X5296374D01*
X5296466Y571096D01*
X5299560Y566466D01*
X5304191Y563371D01*
X5304654Y563279D01*
Y571559D01*
D02*
G37*
G36*
X5279626D02*
X5271346D01*
Y563279D01*
X5271809Y563371D01*
X5276440Y566466D01*
X5279534Y571096D01*
X5279626Y571559D01*
D02*
G37*
G36*
X5261346D02*
X5253067D01*
X5253159Y571096D01*
X5256253Y566466D01*
X5260884Y563371D01*
X5261346Y563279D01*
Y571559D01*
D02*
G37*
G36*
X5236319D02*
X5228039D01*
Y563279D01*
X5228502Y563371D01*
X5233133Y566466D01*
X5236227Y571096D01*
X5236319Y571559D01*
D02*
G37*
G36*
X5218039D02*
X5209760D01*
X5209852Y571096D01*
X5212946Y566466D01*
X5217577Y563371D01*
X5218039Y563279D01*
Y571559D01*
D02*
G37*
G36*
X5703280Y563620D02*
X5695000D01*
Y555340D01*
X5695462Y555432D01*
X5700093Y558526D01*
X5703188Y563157D01*
X5703280Y563620D01*
D02*
G37*
G36*
X5685000D02*
X5676720D01*
X5676812Y563157D01*
X5679907Y558526D01*
X5684538Y555432D01*
X5685000Y555340D01*
Y563620D01*
D02*
G37*
G36*
X5756780Y563386D02*
X5748500D01*
Y555106D01*
X5748962Y555198D01*
X5753593Y558292D01*
X5756688Y562923D01*
X5756780Y563386D01*
D02*
G37*
G36*
X5738500D02*
X5730220D01*
X5730312Y562923D01*
X5733407Y558292D01*
X5738038Y555198D01*
X5738500Y555106D01*
Y563386D01*
D02*
G37*
G36*
X5649780D02*
X5641500D01*
Y555106D01*
X5641962Y555198D01*
X5646593Y558292D01*
X5649688Y562923D01*
X5649780Y563386D01*
D02*
G37*
G36*
X5631500D02*
X5623220D01*
X5623312Y562923D01*
X5626407Y558292D01*
X5631038Y555198D01*
X5631500Y555106D01*
Y563386D01*
D02*
G37*
G36*
X5357961Y546532D02*
Y538252D01*
X5366240D01*
X5366148Y538715D01*
X5363054Y543346D01*
X5358423Y546440D01*
X5357961Y546532D01*
D02*
G37*
G36*
X5347961D02*
X5347498Y546440D01*
X5342867Y543346D01*
X5339773Y538715D01*
X5339681Y538252D01*
X5347961D01*
Y546532D01*
D02*
G37*
G36*
X5314654D02*
Y538252D01*
X5322933D01*
X5322841Y538715D01*
X5319747Y543346D01*
X5315116Y546440D01*
X5314654Y546532D01*
D02*
G37*
G36*
X5304654D02*
X5304191Y546440D01*
X5299560Y543346D01*
X5296466Y538715D01*
X5296374Y538252D01*
X5304654D01*
Y546532D01*
D02*
G37*
G36*
X5271346D02*
Y538252D01*
X5279626D01*
X5279534Y538715D01*
X5276440Y543346D01*
X5271809Y546440D01*
X5271346Y546532D01*
D02*
G37*
G36*
X5261346D02*
X5260884Y546440D01*
X5256253Y543346D01*
X5253159Y538715D01*
X5253067Y538252D01*
X5261346D01*
Y546532D01*
D02*
G37*
G36*
X5228039D02*
Y538252D01*
X5236319D01*
X5236227Y538715D01*
X5233133Y543346D01*
X5228502Y546440D01*
X5228039Y546532D01*
D02*
G37*
G36*
X5218039D02*
X5217577Y546440D01*
X5212946Y543346D01*
X5209852Y538715D01*
X5209760Y538252D01*
X5218039D01*
Y546532D01*
D02*
G37*
G36*
X5366240Y528252D02*
X5357961D01*
Y519972D01*
X5358423Y520064D01*
X5363054Y523159D01*
X5366148Y527789D01*
X5366240Y528252D01*
D02*
G37*
G36*
X5347961D02*
X5339681D01*
X5339773Y527789D01*
X5342867Y523159D01*
X5347498Y520064D01*
X5347961Y519972D01*
Y528252D01*
D02*
G37*
G36*
X5322933D02*
X5314654D01*
Y519972D01*
X5315116Y520064D01*
X5319747Y523159D01*
X5322841Y527789D01*
X5322933Y528252D01*
D02*
G37*
G36*
X5304654D02*
X5296374D01*
X5296466Y527789D01*
X5299560Y523159D01*
X5304191Y520064D01*
X5304654Y519972D01*
Y528252D01*
D02*
G37*
G36*
X5279626D02*
X5271346D01*
Y519972D01*
X5271809Y520064D01*
X5276440Y523159D01*
X5279534Y527789D01*
X5279626Y528252D01*
D02*
G37*
G36*
X5261346D02*
X5253067D01*
X5253159Y527789D01*
X5256253Y523159D01*
X5260884Y520064D01*
X5261346Y519972D01*
Y528252D01*
D02*
G37*
G36*
X5236319D02*
X5228039D01*
Y519972D01*
X5228502Y520064D01*
X5233133Y523159D01*
X5236227Y527789D01*
X5236319Y528252D01*
D02*
G37*
G36*
X5218039D02*
X5209760D01*
X5209852Y527789D01*
X5212946Y523159D01*
X5217577Y520064D01*
X5218039Y519972D01*
Y528252D01*
D02*
G37*
G36*
X5313000Y440137D02*
X5308708Y439283D01*
X5305069Y436852D01*
X5302638Y433213D01*
X5301784Y428921D01*
X5302638Y424629D01*
X5305069Y420991D01*
X5308708Y418560D01*
X5313000Y417706D01*
X5317292Y418560D01*
X5320931Y420991D01*
X5323362Y424629D01*
X5324216Y428921D01*
X5323362Y433213D01*
X5320931Y436852D01*
X5317292Y439283D01*
X5313000Y440137D01*
D02*
G37*
G36*
X5263000D02*
X5258708Y439283D01*
X5255069Y436852D01*
X5252638Y433213D01*
X5251784Y428921D01*
X5252638Y424629D01*
X5255069Y420991D01*
X5258708Y418560D01*
X5263000Y417706D01*
X5267292Y418560D01*
X5270931Y420991D01*
X5273362Y424629D01*
X5274216Y428921D01*
X5273362Y433213D01*
X5270931Y436852D01*
X5267292Y439283D01*
X5263000Y440137D01*
D02*
G37*
G36*
X5213000D02*
X5208708Y439283D01*
X5205069Y436852D01*
X5202638Y433213D01*
X5201784Y428921D01*
X5202638Y424629D01*
X5205069Y420991D01*
X5208708Y418560D01*
X5213000Y417706D01*
X5217292Y418560D01*
X5220931Y420991D01*
X5223362Y424629D01*
X5224216Y428921D01*
X5223362Y433213D01*
X5220931Y436852D01*
X5217292Y439283D01*
X5213000Y440137D01*
D02*
G37*
%LPD*%
D53*
X714000Y713032D02*
Y867903D01*
X757097Y911000D01*
X941740D01*
X697000Y706670D02*
X714000Y689670D01*
X697000Y706670D02*
Y817244D01*
X941740Y911000D02*
X986000Y866740D01*
X663417Y850827D02*
X697000Y817244D01*
X931612Y855981D02*
X966079Y821504D01*
X855938Y681678D02*
X896000Y721740D01*
X801220Y681678D02*
X855938D01*
X5129000Y834000D02*
X5748189D01*
X5102354Y860646D02*
X5129000Y834000D01*
X4613906Y860646D02*
X5102354D01*
X5118000Y813000D02*
X5748000D01*
X5091000Y840000D02*
X5118000Y813000D01*
X4139000Y840000D02*
X5091000D01*
X4086000Y913000D02*
X4567000D01*
X4066677Y932323D02*
X4086000Y913000D01*
X3951788Y932323D02*
X4066677D01*
X3856110Y1028000D02*
X3951788Y932323D01*
X3662047Y892598D02*
X3896402D01*
X3916000Y873000D01*
X3600590Y954055D02*
X3662047Y892598D01*
X4228000Y874000D02*
X4229000Y875000D01*
X4140000Y874000D02*
X4228000D01*
X4139000Y873000D02*
X4140000Y874000D01*
X4583000Y786000D02*
X4584000Y787000D01*
X4140000Y786000D02*
X4583000D01*
X4139000Y785000D02*
X4140000Y786000D01*
X4169000Y856748D02*
X4392748D01*
X4111000Y836000D02*
X4139000Y808000D01*
X4392748Y856748D02*
X4400000Y864000D01*
X5823575Y486000D02*
Y737425D01*
X5748000Y813000D02*
X5823575Y737425D01*
X3759842Y1085000D02*
X3780000Y1064842D01*
X3601575Y1085000D02*
X3759842D01*
X756724Y888000D02*
X788711Y856003D01*
X4103373Y690000D02*
X4772000D01*
X4095903Y697469D02*
X4103373Y690000D01*
X4073766Y697469D02*
X4095903D01*
X4072235Y699000D02*
X4073766Y697469D01*
X788711Y856003D02*
X931612Y855981D01*
X1191000Y636000D02*
X1548000D01*
X1154000Y599000D02*
X1191000Y636000D01*
X1146000Y618000D02*
X1183685Y655685D01*
X1539000D01*
X3663028Y755000D02*
X3912000D01*
X3655028Y763000D02*
X3663028Y755000D01*
X4197000Y891000D02*
X5024551D01*
X4110000Y706000D02*
X4189000D01*
X5024551Y891000D02*
X5087000Y953449D01*
X5102575Y416000D02*
X5123575Y437000D01*
X4180000Y416000D02*
X5102575D01*
X4772000Y690000D02*
X4843000Y761000D01*
X4111000Y836000D02*
Y857203D01*
X4071197Y1127000D02*
X4090000Y1108197D01*
X4041288Y1127000D02*
X4071197D01*
X3953000Y1215288D02*
X4041288Y1127000D01*
X4090000Y969000D02*
Y1108197D01*
X4019000Y1013787D02*
Y1035000D01*
X4001500Y1052500D02*
X4019000Y1035000D01*
X3935250Y1052500D02*
X4001500D01*
X4019000Y1013787D02*
X4102787Y930000D01*
X4058203Y910000D02*
X4111000Y857203D01*
X3814000Y910000D02*
X4058203D01*
X3920750Y1067000D02*
X3935250Y1052500D01*
X3920750Y1067000D02*
Y1091754D01*
X5748189Y834000D02*
X5825000Y910811D01*
X4399032Y805032D02*
X5046968D01*
X4843000Y761000D02*
X5017000D01*
X5039559Y784520D02*
X5144079Y680000D01*
X4832520Y784520D02*
X5039559D01*
X3619189Y874000D02*
X3861110D01*
X3600590Y892598D02*
X3619189Y874000D01*
X3861110D02*
X3878110Y857000D01*
X3960000Y957000D02*
X4049000D01*
X3855000Y1062000D02*
X3960000Y957000D01*
X3855000Y1062000D02*
Y1079591D01*
X3751000Y973000D02*
X3814000Y910000D01*
X3582000Y973000D02*
X3751000D01*
X3878110Y857000D02*
X3898854D01*
X3793795Y962000D02*
X3826000D01*
X3762220Y993575D02*
X3793795Y962000D01*
X3723384Y993575D02*
X3762220D01*
X3575000Y980000D02*
X3582000Y973000D01*
X3575000Y980000D02*
Y1105000D01*
X3549409Y1130591D02*
X3575000Y1105000D01*
X3549409Y1130591D02*
Y1150000D01*
X5825000Y910811D02*
Y1161000D01*
X4760000Y712000D02*
X4832520Y784520D01*
X4242666Y712000D02*
X4760000D01*
X5122000Y730000D02*
X5145000D01*
X5046968Y805032D02*
X5122000Y730000D01*
X3781000Y711000D02*
X3930000D01*
X3765000Y727000D02*
X3781000Y711000D01*
X4613567Y762346D02*
X4613906Y762685D01*
X4158331Y762346D02*
X4613567D01*
X4157992Y762008D02*
X4158331Y762346D01*
X958370Y782370D02*
X966315Y790315D01*
X918630Y782370D02*
X958370D01*
X876000Y825000D02*
X918630Y782370D01*
X1609000Y796000D02*
X1642000Y763000D01*
Y750488D02*
Y763000D01*
X1681179Y750679D02*
Y792183D01*
X1661362Y812000D02*
X1681179Y792183D01*
X1570000Y812000D02*
X1661362D01*
X1558543Y823457D02*
X1570000Y812000D01*
X1558543Y823457D02*
Y837872D01*
X1686000Y815000D02*
Y848981D01*
X1674982Y860000D02*
X1686000Y848981D01*
X1595018Y860000D02*
X1674982D01*
X1584134Y849115D02*
X1595018Y860000D01*
X1584134Y837872D02*
Y849115D01*
X1681179Y750679D02*
X1681370Y750488D01*
X952630Y599000D02*
X1154000D01*
X920411Y631219D02*
X952630Y599000D01*
X920411Y631219D02*
Y721781D01*
X962000Y618000D02*
X1146000D01*
X946630Y633370D02*
X962000Y618000D01*
X946630Y633370D02*
Y721740D01*
X1020850Y802055D02*
X1072582Y750323D01*
X1005685Y802055D02*
X1020850D01*
X850000Y824000D02*
X911315Y762685D01*
X946630D01*
X1589813Y920323D02*
X1718000D01*
X1859242D01*
X1890493Y951574D01*
X1636000Y987000D02*
X1697000Y1048000D01*
X1481504Y987000D02*
X1636000D01*
X1456181Y1012323D02*
X1481504Y987000D01*
X1810000Y1124000D02*
X1878479D01*
X1734000Y1048000D02*
X1810000Y1124000D01*
X1697000Y1048000D02*
X1734000D01*
X1878479Y1124000D02*
X1905512Y1096967D01*
X966315Y790315D02*
Y802055D01*
X1507362Y837872D02*
X1589813Y920323D01*
X903000Y826678D02*
X922007D01*
X946630Y802055D01*
X1456181Y1012323D02*
Y1069408D01*
X1005685Y729752D02*
Y762370D01*
Y729752D02*
X1010803Y724634D01*
Y692016D02*
Y724634D01*
X1010606Y782370D02*
X1025370Y767606D01*
Y762685D02*
Y767606D01*
X986000Y762685D02*
X987148Y763833D01*
X1004537Y781222D02*
X1005685Y782370D01*
X986000Y789784D02*
Y802055D01*
X1000495Y781222D02*
X1004537D01*
X987148Y767875D02*
X1000495Y781222D01*
X987148Y763833D02*
Y767875D01*
X966079Y821504D02*
X966315Y821740D01*
Y770098D02*
X986000Y789784D01*
X966315Y640678D02*
Y770098D01*
X1890493Y951574D02*
X1921260D01*
X1832167Y1000000D02*
X1921260D01*
X1799213Y967046D02*
X1832167Y1000000D01*
X1430590Y1004959D02*
Y1069408D01*
X1468504Y967046D02*
X1799213D01*
X1430590Y1004959D02*
X1468504Y967046D01*
X1905512Y1026101D02*
Y1096967D01*
D55*
X3901425Y633236D02*
X3928189Y660000D01*
X3955000Y605000D02*
Y633346D01*
X4360000Y645000D02*
X4363000D01*
X4348236Y633236D02*
X4360000Y645000D01*
X3448414Y824657D02*
X3838000D01*
X3418000Y855071D02*
X3448414Y824657D01*
X3418000Y855071D02*
Y1183694D01*
X3840000Y849000D02*
X3882000Y807000D01*
X3459110Y849000D02*
X3840000D01*
X3441000Y867111D02*
X3459110Y849000D01*
X4098764Y633236D02*
X4348236D01*
X4072000Y660000D02*
X4098764Y633236D01*
X3441000Y867111D02*
Y1192713D01*
X3396713Y1237000D02*
X3441000Y1192713D01*
X2623000Y1237000D02*
X3396713D01*
X3387694Y1214000D02*
X3418000Y1183694D01*
X2636000Y1214000D02*
X3387694D01*
X3928189Y660000D02*
X4072000D01*
X1717476Y1072373D02*
X1818528Y1173425D01*
X1352362Y896638D02*
X1507362D01*
X1289000Y960000D02*
X1352362Y896638D01*
X857000Y960000D02*
X1289000D01*
X822606Y982606D02*
X1289606D01*
X779000Y939000D02*
X822606Y982606D01*
X1398000Y1121000D02*
X1507362D01*
X1280543Y1003543D02*
X1398000Y1121000D01*
X788543Y1003543D02*
X1280543D01*
X766000Y981000D02*
X788543Y1003543D01*
X1289606Y982606D02*
X1405000Y1098000D01*
X835000Y938000D02*
X857000Y960000D01*
X2072000Y1216000D02*
X2203000Y1085000D01*
X1678000Y1216000D02*
X2072000D01*
X1560000Y1098000D02*
X1678000Y1216000D01*
X2507000Y1085000D02*
X2636000Y1214000D01*
X2203000Y1085000D02*
X2507000D01*
X2491850Y1105850D02*
X2623000Y1237000D01*
X2216150Y1105850D02*
X2491850D01*
X1405000Y1098000D02*
X1482000D01*
X2085000Y1237000D02*
X2216150Y1105850D01*
X1668000Y1237000D02*
X2085000D01*
X1507362Y1121000D02*
X1552000D01*
X1482000Y1098000D02*
X1560000D01*
X1552000Y1121000D02*
X1668000Y1237000D01*
D56*
X748441Y1077441D02*
X789305Y1118305D01*
X584000Y1077441D02*
X748441D01*
X789305Y1118305D02*
Y1141841D01*
X686824Y1191964D02*
X738000Y1140787D01*
X584000Y1191964D02*
X686824D01*
X458000Y1193000D02*
X510884Y1140116D01*
X687884D01*
D62*
X3955000Y605000D02*
X4411000D01*
X2997780Y437000D02*
X3267000D01*
X1375000Y458035D02*
X1402035Y431000D01*
X3852476Y605000D02*
X3955000D01*
X3816976Y569500D02*
X3852476Y605000D01*
X3808858Y569500D02*
X3816976D01*
X2997780Y437000D02*
Y635858D01*
X2506000Y437000D02*
X2997780Y437000D01*
X2407000Y536000D02*
X2506000Y437000D01*
X2318000Y536000D02*
X2407000D01*
X2213000Y431000D02*
X2318000Y536000D01*
X1402035Y431000D02*
X2213000Y431000D01*
D65*
X626016Y965000D02*
D03*
X502000D02*
D03*
X626016Y598858D02*
D03*
X502000D02*
D03*
D66*
X4645221Y1138000D02*
D03*
X4527110D02*
D03*
X4409000D02*
D03*
D67*
X4763331Y1215165D02*
D03*
X4172780D02*
D03*
D68*
X4290890Y1138000D02*
D03*
D69*
X3808858Y569500D02*
D03*
X3267000Y438000D02*
D03*
X3155260Y634000D02*
D03*
X1375000Y458035D02*
D03*
X2997780Y635858D02*
D03*
D70*
X476000Y476000D02*
D03*
X4846000Y1183000D02*
D03*
D71*
X1840000Y858000D02*
D03*
X1965000D02*
D03*
Y1058000D02*
D03*
X1840000D02*
D03*
D72*
Y958000D02*
D03*
X2040000Y998000D02*
D03*
Y918000D02*
D03*
D73*
X1222819Y1170551D02*
D03*
Y489449D02*
D03*
D74*
X458000Y1077441D02*
D03*
Y1193000D02*
D03*
X584000Y1191964D02*
D03*
X2534000Y957000D02*
D03*
X584000Y1077441D02*
D03*
X1900000Y1172000D02*
D03*
X1817000D02*
D03*
X1729000D02*
D03*
D75*
X3947922Y477000D02*
D03*
D76*
X4068583Y860433D02*
D03*
Y773819D02*
D03*
X3981968Y860433D02*
D03*
Y773819D02*
D03*
X4025276Y860433D02*
D03*
X4068583Y817126D02*
D03*
X3981968D02*
D03*
X4025276Y774803D02*
D03*
D77*
X5069425Y500000D02*
D03*
X5147079Y1023000D02*
D03*
X4124000Y1019000D02*
D03*
X4123496Y1096000D02*
D03*
X4491000Y990000D02*
D03*
X4516882Y947000D02*
D03*
X4517000Y990000D02*
D03*
X4516882Y969000D02*
D03*
X4408882Y947000D02*
D03*
X4409000Y990000D02*
D03*
X4408882Y969000D02*
D03*
X638000Y874842D02*
D03*
X663417Y689016D02*
D03*
X638000D02*
D03*
X689000Y689000D02*
D03*
X688902Y874842D02*
D03*
X5373547Y789000D02*
D03*
Y726008D02*
D03*
X5293547Y789000D02*
D03*
Y726008D02*
D03*
X5213641D02*
D03*
Y789000D02*
D03*
X714000Y713032D02*
D03*
Y689670D02*
D03*
X663417Y874842D02*
D03*
X3901425Y633236D02*
D03*
X3754242Y575543D02*
D03*
X3712402D02*
D03*
X896000Y721740D02*
D03*
X4363000Y645000D02*
D03*
X4195000Y458000D02*
D03*
X4139000Y785000D02*
D03*
X4169000Y856748D02*
D03*
X4139000Y808000D02*
D03*
X4168000Y824000D02*
D03*
X4139000Y873000D02*
D03*
X3721000Y1064425D02*
D03*
X3780000Y1064842D02*
D03*
X663417Y850827D02*
D03*
X756724Y888000D02*
D03*
X1548000Y636000D02*
D03*
X1539000Y655685D02*
D03*
X1642000Y750488D02*
D03*
X1681496Y562000D02*
D03*
X1547512Y715055D02*
D03*
Y695370D02*
D03*
Y675685D02*
D03*
X1686000Y815000D02*
D03*
X1681370Y750488D02*
D03*
X1736488Y596945D02*
D03*
X1701496Y562000D02*
D03*
X3838000Y824657D02*
D03*
X3882000Y807000D02*
D03*
X3912000Y755000D02*
D03*
X4853000Y619000D02*
D03*
Y642260D02*
D03*
X4197000Y891000D02*
D03*
X4189000Y706000D02*
D03*
X4229000Y875000D02*
D03*
X4139000Y840000D02*
D03*
X4180000Y416000D02*
D03*
X4072235Y699000D02*
D03*
X4110000Y706000D02*
D03*
X4601000Y912000D02*
D03*
X4584000Y787000D02*
D03*
X4400000Y864000D02*
D03*
X3723384Y939000D02*
D03*
X3662000D02*
D03*
X3723384Y993575D02*
D03*
X4683000Y936506D02*
D03*
X4733000Y936497D02*
D03*
X4708000D02*
D03*
X4658000Y936506D02*
D03*
X4380882Y969000D02*
D03*
X4381000Y990000D02*
D03*
X4380882Y947000D02*
D03*
X4491118Y969000D02*
D03*
X4491000Y947000D02*
D03*
X4102787Y930000D02*
D03*
X4090000Y969000D02*
D03*
X4914795Y974000D02*
D03*
X4613906Y860646D02*
D03*
X5373641Y861049D02*
D03*
X5293641D02*
D03*
X5213641D02*
D03*
X5017000Y761000D02*
D03*
X4055504Y1096000D02*
D03*
X3805410Y805032D02*
D03*
X3931000Y1026591D02*
D03*
X3990000D02*
D03*
X4049000Y957000D02*
D03*
X3986000Y1076000D02*
D03*
X3855000Y1079591D02*
D03*
X3953000Y1215288D02*
D03*
X4014000D02*
D03*
X3893000Y1163123D02*
D03*
X3833000Y1162139D02*
D03*
X3856110Y1028000D02*
D03*
X3826000Y962000D02*
D03*
X3489000Y1096425D02*
D03*
X3601575Y1085000D02*
D03*
X3662561Y1064842D02*
D03*
X4914795Y1074000D02*
D03*
X4055504Y1019000D02*
D03*
X5293641Y924041D02*
D03*
X5213641D02*
D03*
X5373641D02*
D03*
X3920750Y1091754D02*
D03*
X4813000Y619365D02*
D03*
Y642260D02*
D03*
X5070425Y437000D02*
D03*
X4752906Y521027D02*
D03*
X5123575Y437000D02*
D03*
X4672906Y458035D02*
D03*
X4752906D02*
D03*
X3985000Y1106000D02*
D03*
X5362000Y1225079D02*
D03*
X5312000D02*
D03*
X5212000D02*
D03*
X5362000Y992795D02*
D03*
X5212000D02*
D03*
X5262000Y1225079D02*
D03*
X5312000Y992795D02*
D03*
X5262000D02*
D03*
X5636500Y568386D02*
D03*
X5743500D02*
D03*
Y1081380D02*
D03*
X5636500D02*
D03*
Y1031693D02*
D03*
X4242666Y712000D02*
D03*
X4592906Y458035D02*
D03*
X4512906D02*
D03*
X4432906D02*
D03*
X4352906D02*
D03*
X4272906D02*
D03*
X3955000Y633346D02*
D03*
X3930000Y711000D02*
D03*
X3604282Y542000D02*
D03*
X4483906Y577000D02*
D03*
X4507906D02*
D03*
X4531906D02*
D03*
X4459906D02*
D03*
X4332000D02*
D03*
X4308000D02*
D03*
X4284000D02*
D03*
X4260000D02*
D03*
X5144079Y630000D02*
D03*
X5021000Y500000D02*
D03*
X5263000Y428921D02*
D03*
X3765000Y727000D02*
D03*
X3655028Y763000D02*
D03*
X3610000Y728354D02*
D03*
X3655028D02*
D03*
X3916000Y873000D02*
D03*
X3898854Y857000D02*
D03*
X5636500Y667995D02*
D03*
X5690000D02*
D03*
X5743500D02*
D03*
Y618307D02*
D03*
X5690000D02*
D03*
X5636500D02*
D03*
X5690000Y568620D02*
D03*
Y1081380D02*
D03*
X5743500Y1031693D02*
D03*
X5690000D02*
D03*
X5743500Y982005D02*
D03*
X5690000D02*
D03*
X5636500D02*
D03*
X5071425Y1197000D02*
D03*
X5147079Y1074000D02*
D03*
X5147039Y973961D02*
D03*
X4914795Y1124000D02*
D03*
Y1024000D02*
D03*
X5363000Y661205D02*
D03*
X5313000D02*
D03*
X5263000D02*
D03*
X5213000D02*
D03*
X5144079Y680000D02*
D03*
Y580000D02*
D03*
X5021000Y465354D02*
D03*
X5145000Y730000D02*
D03*
X4399032Y805032D02*
D03*
X5122575Y500000D02*
D03*
X5313000Y428921D02*
D03*
X5213000D02*
D03*
X4195000Y522000D02*
D03*
X4567000Y913000D02*
D03*
X5087000Y953449D02*
D03*
X4613906Y762685D02*
D03*
X5823575Y486000D02*
D03*
X5825000Y1161000D02*
D03*
X4157992Y762008D02*
D03*
X4127575Y656575D02*
D03*
X779000Y939000D02*
D03*
X766000Y981000D02*
D03*
X835000Y938000D02*
D03*
X4672906Y521027D02*
D03*
X4592906D02*
D03*
X4512906D02*
D03*
X4432906D02*
D03*
X4352906D02*
D03*
X4272906D02*
D03*
X2567000Y550000D02*
D03*
X2751000Y1168087D02*
D03*
X2701000D02*
D03*
X2726000D02*
D03*
X2374000Y997425D02*
D03*
X2182945Y892598D02*
D03*
X2183000Y925000D02*
D03*
X2416000Y721913D02*
D03*
X1232661Y1031000D02*
D03*
X2085260Y1163622D02*
D03*
X1388000Y696591D02*
D03*
X789305Y1141841D02*
D03*
X687884Y1140116D02*
D03*
X738000Y1140787D02*
D03*
X830000Y737691D02*
D03*
Y783000D02*
D03*
X1717476Y1072373D02*
D03*
X1609000Y796000D02*
D03*
X1584134Y837872D02*
D03*
X1558543D02*
D03*
X2517000Y555638D02*
D03*
X1462246Y684158D02*
D03*
Y607637D02*
D03*
X850000Y824000D02*
D03*
X2925000Y1181000D02*
D03*
X2866000D02*
D03*
X2895000D02*
D03*
X966315Y640678D02*
D03*
X792000Y888000D02*
D03*
X779362Y732678D02*
D03*
X1507362Y896638D02*
D03*
X1482000Y1098000D02*
D03*
X1507362Y1121000D02*
D03*
X779362Y788103D02*
D03*
X876000Y825000D02*
D03*
X1005685Y897677D02*
D03*
X2861087Y572000D02*
D03*
X1717000Y1020409D02*
D03*
X1718000Y920323D02*
D03*
Y885677D02*
D03*
X2015892Y958892D02*
D03*
X1575472Y1187713D02*
D03*
X1530472D02*
D03*
X1485472D02*
D03*
X903000Y826678D02*
D03*
X958582Y932001D02*
D03*
X1005685Y932323D02*
D03*
X1072582Y750323D02*
D03*
X1010803Y692016D02*
D03*
X1072582Y715677D02*
D03*
X801220Y681678D02*
D03*
X1430590Y837645D02*
D03*
X911582Y932001D02*
D03*
X1073000Y905811D02*
D03*
X1072582Y637677D02*
D03*
Y793355D02*
D03*
X1507362Y837872D02*
D03*
X3548425Y954252D02*
D03*
X3548819Y1020079D02*
D03*
X3548425Y1085000D02*
D03*
X4025276Y817126D02*
D03*
X3549409Y892598D02*
D03*
X4953134Y719961D02*
D03*
X4996441D02*
D03*
X5039748D02*
D03*
X4953134Y676654D02*
D03*
X4996441D02*
D03*
X5039748D02*
D03*
X4953134Y633346D02*
D03*
X4996441D02*
D03*
X5039748D02*
D03*
X4953134Y590039D02*
D03*
X4996441D02*
D03*
X5039748D02*
D03*
X4956134Y1113961D02*
D03*
X4999441D02*
D03*
X5042748D02*
D03*
X4956134Y1070653D02*
D03*
X4999441D02*
D03*
X5042748D02*
D03*
X4956134Y1027346D02*
D03*
X4999441D02*
D03*
X5042748D02*
D03*
X4956134Y984039D02*
D03*
X4999441D02*
D03*
X5042748D02*
D03*
X5352961Y619866D02*
D03*
Y576559D02*
D03*
Y533252D02*
D03*
X5309654Y619866D02*
D03*
Y576559D02*
D03*
Y533252D02*
D03*
X5266346Y619866D02*
D03*
Y576559D02*
D03*
Y533252D02*
D03*
X5223039Y619866D02*
D03*
Y576559D02*
D03*
Y533252D02*
D03*
X3549409Y1150000D02*
D03*
X3600590Y954055D02*
D03*
Y892598D02*
D03*
X5222039Y1034134D02*
D03*
Y1077441D02*
D03*
Y1120748D02*
D03*
X5265346Y1034134D02*
D03*
Y1077441D02*
D03*
Y1120748D02*
D03*
X5308654Y1034134D02*
D03*
Y1077441D02*
D03*
Y1120748D02*
D03*
X5351961Y1034134D02*
D03*
Y1077441D02*
D03*
Y1120748D02*
D03*
X986000Y762685D02*
D03*
X1005685Y762370D02*
D03*
X1025370Y762685D02*
D03*
X1005685Y802055D02*
D03*
Y782370D02*
D03*
X1025370Y821740D02*
D03*
X986000Y802055D02*
D03*
X920411Y721781D02*
D03*
X966315Y802055D02*
D03*
X946630D02*
D03*
X966315Y821740D02*
D03*
X986000Y866740D02*
D03*
X946630Y762685D02*
D03*
Y721740D02*
D03*
X1558543Y1070156D02*
D03*
X1503748Y744731D02*
D03*
X1458748D02*
D03*
X1921496Y951466D02*
D03*
Y999892D02*
D03*
X1456181Y1069408D02*
D03*
X1430590D02*
D03*
X1905748Y1025993D02*
D03*
X1598693Y699307D02*
D03*
X1642000D02*
D03*
X1685307D02*
D03*
X1598693Y656000D02*
D03*
X1642000D02*
D03*
X1685307D02*
D03*
X1598693Y612693D02*
D03*
X1642000D02*
D03*
X1685307D02*
D03*
D78*
X456724Y728779D02*
D03*
Y835079D02*
D03*
X600425Y915787D02*
D03*
Y648071D02*
D03*
D79*
X4411000Y606000D02*
D03*
%TF.MD5,5535c7a3c30a98345384e371f6143ab9*%
M02*
