%TF.GenerationSoftware,Altium Limited,Altium Designer,19.0.15 (446)*%
G04 Layer_Color=16711935*
%FSLAX45Y45*%
%MOMM*%
%TF.FileFunction,Soldermask,Bot*%
%TF.Part,Single*%
G01*
G75*
%TA.AperFunction,ComponentPad*%
%ADD89C,2.37500*%
%ADD90C,0.85000*%
%TA.AperFunction,ViaPad*%
%ADD95C,1.98000*%
%TA.AperFunction,NonConductor*%
%ADD120R,9.94686X3.97786*%
%ADD121R,10.68128X5.34060*%
%ADD122R,6.41606X3.72121*%
%ADD123R,15.25909X3.97786*%
%ADD124R,15.94336X3.97786*%
%ADD125R,11.75144X3.97786*%
%ADD126R,12.01760X3.97786*%
%TA.AperFunction,SMDPad,CuDef*%
%ADD127R,0.70000X0.85000*%
%ADD128R,0.85000X0.70000*%
%ADD129R,1.10000X1.50000*%
%ADD130R,2.60000X1.25000*%
%ADD131R,1.10000X1.00000*%
%ADD132R,1.00000X1.10000*%
%ADD133R,0.95000X1.05000*%
%ADD134R,1.25000X1.45000*%
G04:AMPARAMS|DCode=135|XSize=1.33mm|YSize=0.7mm|CornerRadius=0.125mm|HoleSize=0mm|Usage=FLASHONLY|Rotation=180.000|XOffset=0mm|YOffset=0mm|HoleType=Round|Shape=RoundedRectangle|*
%AMROUNDEDRECTD135*
21,1,1.33000,0.45000,0,0,180.0*
21,1,1.08000,0.70000,0,0,180.0*
1,1,0.25000,-0.54000,0.22500*
1,1,0.25000,0.54000,0.22500*
1,1,0.25000,0.54000,-0.22500*
1,1,0.25000,-0.54000,-0.22500*
%
%ADD135ROUNDEDRECTD135*%
%TA.AperFunction,ConnectorPad*%
%ADD136R,0.74000X0.70000*%
%TA.AperFunction,SMDPad,CuDef*%
%ADD137R,0.70000X0.74000*%
%ADD138R,0.74000X0.70000*%
%ADD139R,1.05000X0.95000*%
G04:AMPARAMS|DCode=140|XSize=1.67mm|YSize=0.51mm|CornerRadius=0.10125mm|HoleSize=0mm|Usage=FLASHONLY|Rotation=0.000|XOffset=0mm|YOffset=0mm|HoleType=Round|Shape=RoundedRectangle|*
%AMROUNDEDRECTD140*
21,1,1.67000,0.30750,0,0,0.0*
21,1,1.46750,0.51000,0,0,0.0*
1,1,0.20250,0.73375,-0.15375*
1,1,0.20250,-0.73375,-0.15375*
1,1,0.20250,-0.73375,0.15375*
1,1,0.20250,0.73375,0.15375*
%
%ADD140ROUNDEDRECTD140*%
%ADD141R,1.30000X1.30000*%
%TA.AperFunction,ViaPad*%
%ADD142C,1.62400*%
%TA.AperFunction,ComponentPad*%
G04:AMPARAMS|DCode=143|XSize=1.1mm|YSize=2.4mm|CornerRadius=0.55mm|HoleSize=0mm|Usage=FLASHONLY|Rotation=270.000|XOffset=0mm|YOffset=0mm|HoleType=Round|Shape=RoundedRectangle|*
%AMROUNDEDRECTD143*
21,1,1.10000,1.30000,0,0,270.0*
21,1,0.00000,2.40000,0,0,270.0*
1,1,1.10000,-0.65000,0.00000*
1,1,1.10000,-0.65000,0.00000*
1,1,1.10000,0.65000,0.00000*
1,1,1.10000,0.65000,0.00000*
%
%ADD143ROUNDEDRECTD143*%
%TA.AperFunction,ViaPad*%
%ADD144C,2.60000*%
%TA.AperFunction,ComponentPad*%
%ADD145C,1.62400*%
D89*
X5493500Y2656240D02*
D03*
Y2338740D02*
D03*
X6001500D02*
D03*
Y2656240D02*
D03*
D90*
X5747500D02*
D03*
X5849100Y2148240D02*
D03*
X5645900D02*
D03*
D95*
X2055000Y1695000D02*
D03*
Y2330000D02*
D03*
D120*
X9679443Y2948273D02*
D03*
D121*
X9753436Y2423788D02*
D03*
D122*
X10992357Y1977839D02*
D03*
D123*
X13724467Y2013447D02*
D03*
D124*
X14346312Y2623047D02*
D03*
D125*
X12752508Y2734065D02*
D03*
D126*
X11512380Y2734424D02*
D03*
D127*
X6596376Y2823821D02*
D03*
Y2938821D02*
D03*
D128*
X6363612Y2525163D02*
D03*
X6478612D02*
D03*
Y2643745D02*
D03*
X6363612D02*
D03*
D129*
X6223000Y2997200D02*
D03*
X6413000D02*
D03*
X6318000Y2777200D02*
D03*
D130*
X8676184Y2780951D02*
D03*
Y2465951D02*
D03*
D131*
X7835900Y2554368D02*
D03*
Y2689368D02*
D03*
D132*
X8009700Y2710768D02*
D03*
X8144700Y2534748D02*
D03*
X8009700D02*
D03*
X8144700Y2710768D02*
D03*
D133*
X8309380Y2534748D02*
D03*
Y2710768D02*
D03*
X8439380Y2534748D02*
D03*
Y2710768D02*
D03*
D134*
X7307800Y2918460D02*
D03*
X7482800D02*
D03*
D135*
X6871541Y2571500D02*
D03*
Y2381500D02*
D03*
X6659541Y2476500D02*
D03*
D136*
X6896101Y2837313D02*
D03*
Y2925313D02*
D03*
D137*
X6907080Y2701859D02*
D03*
X6819080D02*
D03*
D138*
X7089605Y2863313D02*
D03*
Y2951313D02*
D03*
D139*
X6758941Y2946320D02*
D03*
Y2816321D02*
D03*
D140*
X7663605Y2328931D02*
D03*
Y2393931D02*
D03*
Y2458931D02*
D03*
Y2523931D02*
D03*
Y2588931D02*
D03*
Y2653931D02*
D03*
Y2718931D02*
D03*
X7089605D02*
D03*
Y2653931D02*
D03*
Y2588931D02*
D03*
Y2523931D02*
D03*
Y2458931D02*
D03*
Y2393931D02*
D03*
Y2328931D02*
D03*
D141*
X2457200Y2008800D02*
D03*
X2247200D02*
D03*
Y1373800D02*
D03*
X2457200D02*
D03*
X2247200Y2646300D02*
D03*
X2457200D02*
D03*
D142*
X5524500Y1798934D02*
D03*
Y1993900D02*
D03*
X3190240Y2603829D02*
D03*
X3568700Y1681480D02*
D03*
D143*
X1625080Y2399077D02*
D03*
X1310080D02*
D03*
X1625080Y1469077D02*
D03*
X1310080D02*
D03*
D144*
X8679180Y3017520D02*
D03*
X15001241Y1668780D02*
D03*
D145*
X5166360Y3068320D02*
D03*
X5669264D02*
D03*
%TF.MD5,dccee603087a7d5e0aa918bd6d1d4cbb*%
M02*
