%TF.GenerationSoftware,Altium Limited,Altium Designer,19.0.15 (446)*%
G04 Layer_Color=16711935*
%FSLAX45Y45*%
%MOMM*%
%TF.FileFunction,Keep-out,Top*%
%TF.Part,Single*%
G01*
G75*
%TA.AperFunction,NonConductor*%
%ADD118C,0.50000*%
D118*
X8420900Y1050760D02*
G03*
X8470900Y1000760I50000J0D01*
G01*
X7769323D02*
G03*
X7819323Y1050760I0J50000D01*
G01*
X8420900D02*
G03*
X8370900Y1100760I-50000J0D01*
G01*
X7869323D02*
G03*
X7819323Y1050760I0J-50000D01*
G01*
X8470900Y3200738D02*
G03*
X8420900Y3150738I0J-50000D01*
G01*
X7819323D02*
G03*
X7769323Y3200738I-50000J0D01*
G01*
X7819323Y3150738D02*
G03*
X7869323Y3100738I50000J0D01*
G01*
X8370900D02*
G03*
X8420900Y3150738I0J50000D01*
G01*
X6061236Y3200738D02*
G03*
X6011236Y3150738I0J-50000D01*
G01*
X5831246Y3000738D02*
G03*
X5881246Y2950738I50000J0D01*
G01*
X5961246D02*
G03*
X6011246Y3000738I0J50000D01*
G01*
X5831246Y3150738D02*
G03*
X5781246Y3200738I-50000J0D01*
G01*
X2959986Y3200000D02*
G03*
X2909986Y3150000I0J-50000D01*
G01*
X2729996Y3000000D02*
G03*
X2779996Y2950000I50000J0D01*
G01*
X2859996D02*
G03*
X2909996Y3000000I0J50000D01*
G01*
X2729996Y3150000D02*
G03*
X2679996Y3200000I-50000J0D01*
G01*
X15156000Y1000838D02*
G03*
X15206000Y1050838I0J50000D01*
G01*
X15204900Y3150738D02*
G03*
X15155000Y3200638I-49900J0D01*
G01*
X13814996Y2950838D02*
G03*
X13864896Y3000738I0J49900D01*
G01*
X13684996D02*
G03*
X13734895Y2950838I49900J0D01*
G01*
X13914996Y3200538D02*
G03*
X13865096Y3150638I0J-49900D01*
G01*
X13684895Y3150738D02*
G03*
X13634996Y3200638I-49900J0D01*
G01*
X13734985Y1250838D02*
G03*
X13684985Y1200838I0J-50000D01*
G01*
X13864986D02*
G03*
X13814986Y1250838I-50000J0D01*
G01*
X13864986Y1050838D02*
G03*
X13914986Y1000838I50000J0D01*
G01*
X13634996D02*
G03*
X13684996Y1050838I0J50000D01*
G01*
X1106000D02*
G03*
X1156000Y1000838I50000J0D01*
G01*
Y3200628D02*
G03*
X1106100Y3150728I0J-49900D01*
G01*
X10231056Y3150838D02*
G03*
X10181156Y3200738I-49900J0D01*
G01*
X10461156Y3200638D02*
G03*
X10411256Y3150738I0J-49900D01*
G01*
X10231156Y3000838D02*
G03*
X10281056Y2950938I49900J0D01*
G01*
X10181166Y1000838D02*
G03*
X10231166Y1050838I0J50000D01*
G01*
X10411156D02*
G03*
X10461156Y1000838I50000J0D01*
G01*
X10411156Y1200838D02*
G03*
X10361156Y1250838I-50000J0D01*
G01*
X6011236Y1050838D02*
G03*
X6061236Y1000838I50000J0D01*
G01*
X6011236Y1200838D02*
G03*
X5961236Y1250838I-50000J0D01*
G01*
X2909996Y1050838D02*
G03*
X2959996Y1000838I50000J0D01*
G01*
X2779996Y1250838D02*
G03*
X2729996Y1200838I0J-50000D01*
G01*
X10361156Y2950938D02*
G03*
X10411056Y3000838I0J49900D01*
G01*
X10281156Y1250838D02*
G03*
X10231156Y1200838I0J-50000D01*
G01*
X5881236Y1250838D02*
G03*
X5831236Y1200838I0J-50000D01*
G01*
X5781246Y1000838D02*
G03*
X5831246Y1050838I0J50000D01*
G01*
X2909996Y1200838D02*
G03*
X2859996Y1250838I-50000J0D01*
G01*
X2680006Y1000838D02*
G03*
X2730006Y1050838I0J50000D01*
G01*
X6061236Y1000838D02*
X7769245D01*
X8470900Y1000760D02*
X10181166D01*
X7869323Y1100760D02*
X8370900D01*
X15204900Y3150738D02*
X15206000Y1050838D01*
X1106100Y1050938D02*
Y3150728D01*
X7869323Y3100738D02*
X8370900D01*
X6061236Y3200738D02*
X7769323D01*
X8470900D02*
X10181156Y3200738D01*
X13914986Y1000838D02*
X15156000D01*
X13914996Y3200638D02*
X15155000D01*
X10461156D02*
X13634996D01*
X10461156Y1000838D02*
X13634996D01*
X2959986Y3200738D02*
X5781246D01*
X2959996Y1000838D02*
X5781246D01*
X1156000D02*
X2680006D01*
X1156000Y3200628D02*
X2679996D01*
X5881246Y2950738D02*
X5961246D01*
X6011246Y3000738D02*
Y3150738D01*
X5831236Y3001682D02*
Y3150738D01*
X2779996Y2950000D02*
X2859996D01*
X2909996Y3000000D02*
Y3150000D01*
X2729986Y3000944D02*
Y3150000D01*
X13734996Y2950738D02*
X13814996D01*
X13684996Y3000738D02*
Y3150738D01*
X13864996Y3000738D02*
Y3150738D01*
X13734985Y1250838D02*
X13814986D01*
X13864986Y1050838D02*
Y1200838D01*
X13684985Y1050838D02*
Y1200838D01*
X10231156Y1050838D02*
Y1200838D01*
X6011246Y1050838D02*
Y1200838D01*
X5831236Y1050838D02*
Y1200838D01*
X2910006Y1050838D02*
Y1199894D01*
X10411156Y1050838D02*
Y1200838D01*
Y3000838D02*
Y3150838D01*
X2729996Y1050838D02*
Y1200838D01*
X10281156Y1250838D02*
X10361156D01*
X10231156Y3000838D02*
Y3150838D01*
X10281156Y2950838D02*
X10361156D01*
X5881236Y1250838D02*
X5961246D01*
X2779996D02*
X2859996D01*
%TF.MD5,a1a22d0f81fd9c33f379e8bb6fcce9f6*%
M02*
