%FSTAX23Y23*%
%MOIN*%
%SFA1B1*%

%IPPOS*%
%ADD9500C,0.008000*%
%ADD9501C,0.012000*%
%ADD9502C,0.016000*%
%ADD9503C,0.023620*%
%ADD9504C,0.030000*%
%ADD9505C,0.039370*%
%ADD9506C,0.040160*%
%ADD9507C,0.059060*%
%ADD9508C,0.078740*%
%ADD9509C,0.035430*%
%ADD9510C,0.050000*%
%ADD9511C,0.093500*%
%LNpcb-roundholes-1*%
%LPD*%
G54D9500*
X00714Y00689D03*
Y00713D03*
X00779Y00732D03*
Y00788D03*
X0083Y00783D03*
Y00737D03*
X00896Y00721D03*
X0092Y00721D03*
X00946Y00721D03*
Y00762D03*
X00986D03*
X01005Y00762D03*
X01025Y00762D03*
X01005Y00782D03*
Y00802D03*
X00986D03*
X00966D03*
Y00821D03*
X00946Y00802D03*
X00903Y00826D03*
X00876Y00825D03*
X0085Y00824D03*
X00792Y00888D03*
X00756D03*
X00779Y00939D03*
X00766Y00981D03*
X00835Y00938D03*
X00911Y00932D03*
X00958D03*
X01005Y00932D03*
Y00897D03*
X00986Y00866D03*
X01025Y00821D03*
X01072Y00793D03*
Y0075D03*
Y00715D03*
Y00637D03*
X00966Y0064D03*
X0101Y00692D03*
X00801Y00681D03*
X00663Y0085D03*
X00687Y0114D03*
X00738Y0114D03*
X00789Y01141D03*
X01073Y00905D03*
X01232Y01031D03*
X0143Y01069D03*
X01456D03*
X01482Y01098D03*
X01507Y01121D03*
X01485Y01187D03*
X0153D03*
X01558Y0107D03*
X01507Y00896D03*
Y00837D03*
X01558D03*
X0143Y00837D03*
X01458Y00744D03*
X01503D03*
X01547Y00715D03*
Y00695D03*
Y00675D03*
X01539Y00655D03*
X01548Y00636D03*
X01462Y00607D03*
Y00684D03*
X01388Y00696D03*
X01598Y00699D03*
X01642D03*
X01685D03*
Y00656D03*
X01642D03*
X01598D03*
Y00612D03*
X01642D03*
X01685D03*
X01681Y00562D03*
X01701D03*
X01736Y00596D03*
X01681Y0075D03*
X01642D03*
X01609Y00796D03*
X01584Y00837D03*
X01686Y00815D03*
X01718Y00885D03*
Y0092D03*
X01717Y0102D03*
X01717Y01072D03*
X01905Y01025D03*
X01921Y00999D03*
Y00951D03*
X02015Y00958D03*
X02183Y00925D03*
X02182Y00892D03*
X02374Y00997D03*
X02416Y00721D03*
X02517Y00555D03*
X02567Y0055D03*
X02861Y00572D03*
X02866Y01181D03*
X02895D03*
X02925D03*
X02751Y01168D03*
X02726D03*
X02701D03*
X02085Y01163D03*
X01575Y01187D03*
X03489Y01096D03*
X03548Y01085D03*
X03601D03*
X03662Y01064D03*
X03721Y01064D03*
X0378Y01064D03*
X03855Y01079D03*
X03856Y01028D03*
X03931Y01026D03*
X0399D03*
X03986Y01076D03*
X03985Y01106D03*
X0392Y01091D03*
X03893Y01163D03*
X03833Y01162D03*
X03953Y01215D03*
X04014D03*
X04055Y01096D03*
X04123D03*
X04124Y01019D03*
X04055D03*
X04049Y00957D03*
X0409Y00969D03*
X04102Y0093D03*
X04139Y00873D03*
Y0084D03*
Y00808D03*
Y00785D03*
X04157Y00762D03*
X04168Y00824D03*
X04169Y00856D03*
X04197Y00891D03*
X04229Y00875D03*
X04068Y0086D03*
X04025D03*
Y00817D03*
Y00774D03*
X04068Y00773D03*
Y00817D03*
X03981D03*
Y0086D03*
X03916Y00873D03*
X03898Y00857D03*
X03882Y00807D03*
X03838Y00824D03*
X03805Y00805D03*
X03765Y00727D03*
X03655Y00728D03*
Y00763D03*
X0361Y00728D03*
X036Y00892D03*
X03549D03*
X03548Y00954D03*
X036Y00954D03*
X03662Y00939D03*
X03723D03*
Y00993D03*
X03826Y00962D03*
X03912Y00755D03*
X0393Y00711D03*
X03955Y00633D03*
X03901Y00633D03*
X03754Y00575D03*
X03712D03*
X03604Y00542D03*
X03548Y0102D03*
X03549Y0115D03*
X03981Y00773D03*
X04072Y00699D03*
X0411Y00706D03*
X04127Y00656D03*
X04189Y00706D03*
X04242Y00712D03*
X0426Y00577D03*
X04284D03*
X04308D03*
X04332D03*
X04352Y00521D03*
Y00458D03*
X04432D03*
Y00521D03*
X04512D03*
X04507Y00577D03*
X04483D03*
X04459D03*
X04531D03*
X04592Y00521D03*
Y00458D03*
X04672D03*
Y00521D03*
X04512Y00458D03*
X04272D03*
Y00521D03*
X04195Y00522D03*
Y00458D03*
X0418Y00416D03*
X04363Y00645D03*
X04399Y00805D03*
X044Y00864D03*
X04408Y00947D03*
Y00969D03*
X04409Y0099D03*
X04381D03*
X0438Y00969D03*
Y00947D03*
X04491D03*
X04491Y00969D03*
X04491Y0099D03*
X04517D03*
X04516Y00969D03*
Y00947D03*
X04567Y00913D03*
X04601Y00912D03*
X04613Y0086D03*
Y00762D03*
X04584Y00787D03*
X04658Y00936D03*
X04683D03*
X04708Y00936D03*
X04733D03*
X04914Y00974D03*
Y01024D03*
X04956Y01027D03*
Y0107D03*
Y01113D03*
X04999D03*
X05042D03*
Y0107D03*
X04999D03*
Y01027D03*
X05042D03*
Y00984D03*
X04999D03*
X04956D03*
X04914Y01074D03*
Y01124D03*
X05071Y01197D03*
X05212Y01225D03*
X05222Y0112D03*
Y01077D03*
Y01034D03*
X05265D03*
Y01077D03*
Y0112D03*
X05308D03*
Y01077D03*
Y01034D03*
X05351D03*
Y01077D03*
Y0112D03*
X05362Y00992D03*
X05312D03*
X05262D03*
X05212D03*
X05213Y00924D03*
Y00861D03*
Y00789D03*
Y00726D03*
X05213Y00661D03*
X05263D03*
X05266Y00619D03*
X05309D03*
X05352D03*
Y00576D03*
Y00533D03*
X05309D03*
Y00576D03*
X05266D03*
Y00533D03*
X05223D03*
Y00576D03*
Y00619D03*
X05313Y00661D03*
X05363D03*
X05373Y00726D03*
Y00789D03*
X05373Y00861D03*
Y00924D03*
X05293D03*
Y00861D03*
X05293Y00789D03*
Y00726D03*
X05145Y0073D03*
X05039Y00719D03*
X04996D03*
X04953D03*
Y00676D03*
X04996D03*
X05039D03*
Y00633D03*
X04996D03*
X04953D03*
Y0059D03*
X04996D03*
X05039D03*
X05021Y005D03*
Y00465D03*
X0507Y00437D03*
X05123D03*
X05122Y005D03*
X05069D03*
X05017Y00761D03*
X05087Y00953D03*
X04853Y00642D03*
Y00619D03*
X04813Y00619D03*
Y00642D03*
X04752Y00521D03*
Y00458D03*
X05636Y00568D03*
Y00618D03*
Y00667D03*
X0569D03*
Y00618D03*
Y00568D03*
X05743Y00568D03*
Y00618D03*
Y00667D03*
X05823Y00486D03*
X05743Y00982D03*
Y01031D03*
Y01081D03*
X0569D03*
Y01031D03*
Y00982D03*
X05636D03*
Y01031D03*
Y01081D03*
X05825Y01161D03*
G54D9501*
X00638Y00689D03*
X00663D03*
X00689Y00689D03*
X00688Y00874D03*
X00663D03*
X00638D03*
X05147Y00973D03*
X05147Y01023D03*
Y01074D03*
X05262Y01225D03*
X05312D03*
X05362D03*
X05144Y0068D03*
Y0063D03*
Y0058D03*
X05213Y00428D03*
X05263D03*
X05313D03*
G54D9502*
X04411Y00606D03*
G54D9503*
X00456Y00728D03*
Y00835D03*
X006Y00915D03*
Y00648D03*
G54D9504*
X01729Y01172D03*
X01817D03*
X019D03*
X02997Y00635D03*
X03155Y00634D03*
X03267Y00438D03*
X03808Y00569D03*
G54D9505*
X00458Y01077D03*
Y01193D03*
X00584Y01191D03*
Y01077D03*
X01375Y00458D03*
X02534Y00957D03*
G54D9506*
X0429Y01138D03*
X04409D03*
X04527D03*
X04645D03*
G54D9507*
X04846Y01183D03*
G54D9508*
X00476Y00476D03*
X03947Y00477D03*
G54D9509*
X0184Y00958D03*
X0204Y00998D03*
Y00918D03*
G54D9510*
X04172Y01215D03*
X04763D03*
G54D9511*
X0184Y00858D03*
X01965D03*
Y01058D03*
X0184D03*
M02*