%FSTAX23Y23*%
%MOIN*%
%SFA1B1*%

%IPPOS*%
%ADD92C,0.003937*%
%ADD93C,0.005000*%
%ADD143R,0.024358X0.114961*%
%ADD144R,0.141732X0.024199*%
%ADD145R,0.181102X0.040244*%
%ADD146R,0.181102X0.040244*%
%LNpcb_mechanical_13-1*%
%LPD*%
G54D92*
X02208Y00966D02*
D01*
X02208Y00967*
X02208Y00968*
X02208Y0097*
X02207Y00971*
X02207Y00972*
X02206Y00974*
X02206Y00975*
X02205Y00976*
X02204Y00977*
X02203Y00978*
X02203Y00979*
X02202Y0098*
X022Y00981*
X02199Y00982*
X02198Y00983*
X02197Y00983*
X02196Y00984*
X02194Y00984*
X02193Y00985*
X02192Y00985*
X0219Y00985*
X02189Y00985*
X02188*
X02186Y00985*
X02185Y00985*
X02184Y00985*
X02182Y00984*
X02181Y00984*
X0218Y00983*
X02179Y00983*
X02177Y00982*
X02176Y00981*
X02175Y0098*
X02174Y00979*
X02173Y00978*
X02172Y00977*
X02172Y00976*
X02171Y00975*
X0217Y00974*
X0217Y00972*
X02169Y00971*
X02169Y0097*
X02169Y00968*
X02169Y00967*
X02169Y00966*
X02169Y00964*
X02169Y00963*
X02169Y00962*
X02169Y0096*
X0217Y00959*
X0217Y00958*
X02171Y00956*
X02172Y00955*
X02172Y00954*
X02173Y00953*
X02174Y00952*
X02175Y00951*
X02176Y0095*
X02177Y00949*
X02179Y00949*
X0218Y00948*
X02181Y00947*
X02182Y00947*
X02184Y00947*
X02185Y00946*
X02186Y00946*
X02188Y00946*
X02189*
X0219Y00946*
X02192Y00946*
X02193Y00947*
X02194Y00947*
X02196Y00947*
X02197Y00948*
X02198Y00949*
X02199Y00949*
X022Y0095*
X02202Y00951*
X02203Y00952*
X02203Y00953*
X02204Y00954*
X02205Y00955*
X02206Y00956*
X02206Y00958*
X02207Y00959*
X02207Y0096*
X02208Y00962*
X02208Y00963*
X02208Y00964*
X02208Y00966*
X0147Y009D02*
D01*
X0147Y00902*
X0147Y00903*
X0147Y00904*
X0147Y00906*
X01469Y00907*
X01469Y00908*
X01468Y0091*
X01467Y00911*
X01467Y00912*
X01466Y00913*
X01465Y00914*
X01464Y00915*
X01463Y00916*
X01462Y00917*
X01461Y00917*
X01459Y00918*
X01458Y00919*
X01457Y00919*
X01456Y00919*
X01454Y0092*
X01453Y0092*
X01451Y0092*
X0145*
X01449Y0092*
X01447Y0092*
X01446Y00919*
X01445Y00919*
X01443Y00919*
X01442Y00918*
X01441Y00917*
X0144Y00917*
X01439Y00916*
X01438Y00915*
X01437Y00914*
X01436Y00913*
X01435Y00912*
X01434Y00911*
X01433Y0091*
X01433Y00908*
X01432Y00907*
X01432Y00906*
X01432Y00904*
X01431Y00903*
X01431Y00902*
X01431Y009*
X01431Y00899*
X01431Y00898*
X01432Y00896*
X01432Y00895*
X01432Y00894*
X01433Y00892*
X01433Y00891*
X01434Y0089*
X01435Y00889*
X01436Y00888*
X01437Y00887*
X01438Y00886*
X01439Y00885*
X0144Y00884*
X01441Y00883*
X01442Y00883*
X01443Y00882*
X01445Y00882*
X01446Y00881*
X01447Y00881*
X01449Y00881*
X0145Y00881*
X01451*
X01453Y00881*
X01454Y00881*
X01456Y00881*
X01457Y00882*
X01458Y00882*
X01459Y00883*
X01461Y00883*
X01462Y00884*
X01463Y00885*
X01464Y00886*
X01465Y00887*
X01466Y00888*
X01467Y00889*
X01467Y0089*
X01468Y00891*
X01469Y00892*
X01469Y00894*
X0147Y00895*
X0147Y00896*
X0147Y00898*
X0147Y00899*
X0147Y009*
X04091Y00863D02*
D01*
X04091Y00864*
X04091Y00866*
X0409Y00867*
X0409Y00868*
X0409Y0087*
X04089Y00871*
X04088Y00872*
X04088Y00873*
X04087Y00874*
X04086Y00876*
X04085Y00877*
X04084Y00878*
X04083Y00878*
X04082Y00879*
X04081Y0088*
X0408Y00881*
X04078Y00881*
X04077Y00882*
X04076Y00882*
X04074Y00882*
X04073Y00882*
X04072Y00883*
X0407*
X04069Y00882*
X04068Y00882*
X04066Y00882*
X04065Y00882*
X04064Y00881*
X04062Y00881*
X04061Y0088*
X0406Y00879*
X04059Y00878*
X04058Y00878*
X04057Y00877*
X04056Y00876*
X04055Y00874*
X04054Y00873*
X04054Y00872*
X04053Y00871*
X04053Y0087*
X04052Y00868*
X04052Y00867*
X04052Y00866*
X04051Y00864*
X04051Y00863*
X04051Y00862*
X04052Y0086*
X04052Y00859*
X04052Y00857*
X04053Y00856*
X04053Y00855*
X04054Y00854*
X04054Y00852*
X04055Y00851*
X04056Y0085*
X04057Y00849*
X04058Y00848*
X04059Y00847*
X0406Y00847*
X04061Y00846*
X04062Y00845*
X04064Y00845*
X04065Y00844*
X04066Y00844*
X04068Y00844*
X04069Y00843*
X0407Y00843*
X04072*
X04073Y00843*
X04074Y00844*
X04076Y00844*
X04077Y00844*
X04078Y00845*
X0408Y00845*
X04081Y00846*
X04082Y00847*
X04083Y00847*
X04084Y00848*
X04085Y00849*
X04086Y0085*
X04087Y00851*
X04088Y00852*
X04088Y00854*
X04089Y00855*
X0409Y00856*
X0409Y00857*
X0409Y00859*
X04091Y0086*
X04091Y00862*
X04091Y00863*
X05133Y00582D02*
D01*
X05133Y00583*
X05133Y00585*
X05132Y00586*
X05132Y00587*
X05132Y00589*
X05131Y0059*
X0513Y00591*
X0513Y00592*
X05129Y00593*
X05128Y00595*
X05127Y00596*
X05126Y00596*
X05125Y00597*
X05124Y00598*
X05123Y00599*
X05122Y006*
X0512Y006*
X05119Y00601*
X05118Y00601*
X05116Y00601*
X05115Y00601*
X05114Y00602*
X05112*
X05111Y00601*
X0511Y00601*
X05108Y00601*
X05107Y00601*
X05106Y006*
X05104Y006*
X05103Y00599*
X05102Y00598*
X05101Y00597*
X051Y00596*
X05099Y00596*
X05098Y00595*
X05097Y00593*
X05096Y00592*
X05096Y00591*
X05095Y0059*
X05095Y00589*
X05094Y00587*
X05094Y00586*
X05094Y00585*
X05093Y00583*
X05093Y00582*
X05093Y0058*
X05094Y00579*
X05094Y00578*
X05094Y00576*
X05095Y00575*
X05095Y00574*
X05096Y00573*
X05096Y00571*
X05097Y0057*
X05098Y00569*
X05099Y00568*
X051Y00567*
X05101Y00566*
X05102Y00566*
X05103Y00565*
X05104Y00564*
X05106Y00564*
X05107Y00563*
X05108Y00563*
X0511Y00562*
X05111Y00562*
X05112Y00562*
X05114*
X05115Y00562*
X05116Y00562*
X05118Y00563*
X05119Y00563*
X0512Y00564*
X05122Y00564*
X05123Y00565*
X05124Y00566*
X05125Y00566*
X05126Y00567*
X05127Y00568*
X05128Y00569*
X05129Y0057*
X0513Y00571*
X0513Y00573*
X05131Y00574*
X05132Y00575*
X05132Y00576*
X05132Y00578*
X05133Y00579*
X05133Y0058*
X05133Y00582*
X05136Y00976D02*
D01*
X05136Y00977*
X05136Y00979*
X05135Y0098*
X05135Y00981*
X05135Y00983*
X05134Y00984*
X05133Y00985*
X05133Y00986*
X05132Y00987*
X05131Y00989*
X0513Y0099*
X05129Y0099*
X05128Y00991*
X05127Y00992*
X05126Y00993*
X05125Y00994*
X05123Y00994*
X05122Y00995*
X05121Y00995*
X05119Y00995*
X05118Y00995*
X05117Y00996*
X05115*
X05114Y00995*
X05113Y00995*
X05111Y00995*
X0511Y00995*
X05109Y00994*
X05107Y00994*
X05106Y00993*
X05105Y00992*
X05104Y00991*
X05103Y0099*
X05102Y0099*
X05101Y00989*
X051Y00987*
X05099Y00986*
X05099Y00985*
X05098Y00984*
X05098Y00983*
X05097Y00981*
X05097Y0098*
X05097Y00979*
X05096Y00977*
X05096Y00976*
X05096Y00974*
X05097Y00973*
X05097Y00972*
X05097Y0097*
X05098Y00969*
X05098Y00968*
X05099Y00967*
X05099Y00965*
X051Y00964*
X05101Y00963*
X05102Y00962*
X05103Y00961*
X05104Y0096*
X05105Y0096*
X05106Y00959*
X05107Y00958*
X05109Y00958*
X0511Y00957*
X05111Y00957*
X05113Y00956*
X05114Y00956*
X05115Y00956*
X05117*
X05118Y00956*
X05119Y00956*
X05121Y00957*
X05122Y00957*
X05123Y00958*
X05125Y00958*
X05126Y00959*
X05127Y0096*
X05128Y0096*
X05129Y00961*
X0513Y00962*
X05131Y00963*
X05132Y00964*
X05133Y00965*
X05133Y00967*
X05134Y00968*
X05135Y00969*
X05135Y0097*
X05135Y00972*
X05136Y00973*
X05136Y00974*
X05136Y00976*
X05235Y00459D02*
D01*
X05234Y0046*
X05234Y00462*
X05234Y00463*
X05234Y00464*
X05233Y00466*
X05233Y00467*
X05232Y00468*
X05232Y00469*
X05231Y00471*
X0523Y00472*
X05229Y00473*
X05228Y00474*
X05227Y00474*
X05226Y00475*
X05225Y00476*
X05223Y00477*
X05222Y00477*
X05221Y00478*
X0522Y00478*
X05218Y00478*
X05217Y00479*
X05216Y00479*
X05214*
X05213Y00479*
X05211Y00478*
X0521Y00478*
X05209Y00478*
X05207Y00477*
X05206Y00477*
X05205Y00476*
X05204Y00475*
X05203Y00474*
X05202Y00474*
X05201Y00473*
X052Y00472*
X05199Y00471*
X05198Y00469*
X05197Y00468*
X05197Y00467*
X05196Y00466*
X05196Y00464*
X05196Y00463*
X05195Y00462*
X05195Y0046*
X05195Y00459*
X05195Y00458*
X05195Y00456*
X05196Y00455*
X05196Y00454*
X05196Y00452*
X05197Y00451*
X05197Y0045*
X05198Y00449*
X05199Y00447*
X052Y00446*
X05201Y00445*
X05202Y00444*
X05203Y00443*
X05204Y00443*
X05205Y00442*
X05206Y00441*
X05207Y00441*
X05209Y0044*
X0521Y0044*
X05211Y0044*
X05213Y00439*
X05214Y00439*
X05216*
X05217Y00439*
X05218Y0044*
X0522Y0044*
X05221Y0044*
X05222Y00441*
X05223Y00441*
X05225Y00442*
X05226Y00443*
X05227Y00443*
X05228Y00444*
X05229Y00445*
X0523Y00446*
X05231Y00447*
X05232Y00449*
X05232Y0045*
X05233Y00451*
X05233Y00452*
X05234Y00454*
X05234Y00455*
X05234Y00456*
X05234Y00458*
X05235Y00459*
X05379Y01194D02*
D01*
X05379Y01195*
X05379Y01197*
X05378Y01198*
X05378Y01199*
X05378Y01201*
X05377Y01202*
X05377Y01203*
X05376Y01204*
X05375Y01206*
X05374Y01207*
X05373Y01208*
X05372Y01209*
X05371Y0121*
X0537Y0121*
X05369Y01211*
X05368Y01212*
X05367Y01212*
X05365Y01213*
X05364Y01213*
X05363Y01213*
X05361Y01214*
X0536Y01214*
X05358*
X05357Y01214*
X05356Y01213*
X05354Y01213*
X05353Y01213*
X05352Y01212*
X05351Y01212*
X05349Y01211*
X05348Y0121*
X05347Y0121*
X05346Y01209*
X05345Y01208*
X05344Y01207*
X05343Y01206*
X05342Y01204*
X05342Y01203*
X05341Y01202*
X05341Y01201*
X0534Y01199*
X0534Y01198*
X0534Y01197*
X0534Y01195*
X05339Y01194*
X0534Y01193*
X0534Y01191*
X0534Y0119*
X0534Y01189*
X05341Y01187*
X05341Y01186*
X05342Y01185*
X05342Y01184*
X05343Y01182*
X05344Y01181*
X05345Y0118*
X05346Y01179*
X05347Y01179*
X05348Y01178*
X05349Y01177*
X05351Y01176*
X05352Y01176*
X05353Y01175*
X05354Y01175*
X05356Y01175*
X05357Y01174*
X05358Y01174*
X0536*
X05361Y01174*
X05363Y01175*
X05364Y01175*
X05365Y01175*
X05367Y01176*
X05368Y01176*
X05369Y01177*
X0537Y01178*
X05371Y01179*
X05372Y01179*
X05373Y0118*
X05374Y01181*
X05375Y01182*
X05376Y01184*
X05377Y01185*
X05377Y01186*
X05378Y01187*
X05378Y01189*
X05378Y0119*
X05379Y01191*
X05379Y01193*
X05379Y01194*
X01598Y00718D02*
D01*
X01598Y0072*
X01598Y00721*
X01598Y00723*
X01597Y00724*
X01597Y00725*
X01596Y00726*
X01596Y00728*
X01595Y00729*
X01594Y0073*
X01594Y00731*
X01593Y00732*
X01592Y00733*
X01591Y00734*
X0159Y00735*
X01588Y00736*
X01587Y00736*
X01586Y00737*
X01585Y00737*
X01583Y00738*
X01582Y00738*
X01581Y00738*
X01579Y00738*
X01578*
X01576Y00738*
X01575Y00738*
X01574Y00738*
X01572Y00737*
X01571Y00737*
X0157Y00736*
X01569Y00736*
X01568Y00735*
X01566Y00734*
X01565Y00733*
X01564Y00732*
X01563Y00731*
X01563Y0073*
X01562Y00729*
X01561Y00728*
X01561Y00726*
X0156Y00725*
X0156Y00724*
X01559Y00723*
X01559Y00721*
X01559Y0072*
X01559Y00718*
X01559Y00717*
X01559Y00716*
X01559Y00714*
X0156Y00713*
X0156Y00712*
X01561Y0071*
X01561Y00709*
X01562Y00708*
X01563Y00707*
X01563Y00706*
X01564Y00705*
X01565Y00704*
X01566Y00703*
X01568Y00702*
X01569Y00701*
X0157Y00701*
X01571Y007*
X01572Y007*
X01574Y00699*
X01575Y00699*
X01576Y00699*
X01578Y00699*
X01579*
X01581Y00699*
X01582Y00699*
X01583Y00699*
X01585Y007*
X01586Y007*
X01587Y00701*
X01588Y00701*
X0159Y00702*
X01591Y00703*
X01592Y00704*
X01593Y00705*
X01594Y00706*
X01594Y00707*
X01595Y00708*
X01596Y00709*
X01596Y0071*
X01597Y00712*
X01597Y00713*
X01598Y00714*
X01598Y00716*
X01598Y00717*
X01598Y00718*
X01369Y00705D02*
X01406D01*
X01369Y00636D02*
X01406D01*
Y00705*
X01369Y00636D02*
Y00705D01*
X05241Y00718D02*
Y00804D01*
X05186Y00718D02*
Y00804D01*
X05241*
X05186Y00718D02*
X05241D01*
X0269Y01044D02*
X02761D01*
X0269Y01177D02*
X02761D01*
X0269Y01044D02*
Y01177D01*
X02761Y01044D02*
Y01177D01*
X02355Y00989D02*
X02392D01*
X02355Y01058D02*
X02392D01*
X02355Y00989D02*
Y01058D01*
X02392Y00989D02*
Y01058D01*
X01019Y0099D02*
X01084D01*
X01019Y01117D02*
X01084D01*
X01019Y0099D02*
Y01117D01*
X01084Y0099D02*
Y01117D01*
X00923Y00991D02*
X00988D01*
X00923Y01118D02*
X00988D01*
X00923Y00991D02*
Y01118D01*
X00988Y00991D02*
Y01118D01*
X00827Y00991D02*
X00892D01*
X00827Y01118D02*
X00892D01*
X00827Y00991D02*
Y01118D01*
X00892Y00991D02*
Y01118D01*
X02646Y01017D02*
Y01218D01*
X02445D02*
X02646D01*
X02445Y01017D02*
X02646D01*
X02445D02*
Y01218D01*
X02332Y00928D02*
Y01031D01*
X02151Y00928D02*
Y01031D01*
X02332*
X02151Y00928D02*
X02332D01*
X02073Y01221D02*
X02254D01*
X02073Y01106D02*
X02254D01*
X02073D02*
Y01221D01*
X02254Y01106D02*
Y01221D01*
X00677Y01141D02*
Y01183D01*
X00698Y01141D02*
Y01183D01*
X00677Y01141D02*
X00698D01*
X00677Y01183D02*
X00698D01*
X02926Y00721D02*
X03068D01*
X02926Y00541D02*
X03068D01*
Y00721*
X02926Y00541D02*
Y00721D01*
X03084Y00721D02*
X03226D01*
X03084Y00541D02*
X03226D01*
Y00721*
X03084Y00541D02*
Y00721D01*
X01675Y00865D02*
Y01042D01*
X01415Y00865D02*
Y01042D01*
X01675*
X01415Y00865D02*
X01675D01*
X03943Y00898D02*
X04106D01*
X03943Y00735D02*
X04106D01*
Y00898*
X03943Y00735D02*
Y00898D01*
X00915Y0073D02*
X01036D01*
X00915Y00833D02*
X01036D01*
Y0073D02*
Y00833D01*
X00915Y0073D02*
Y00833D01*
X02587Y00487D02*
X02658D01*
X02587Y0061D02*
X02658D01*
Y00487D02*
Y0061D01*
X02587Y00487D02*
Y0061D01*
X03704Y00928D02*
X03742D01*
X03704Y00997D02*
X03742D01*
X03704Y00928D02*
Y00997D01*
X03742Y00928D02*
Y00997D01*
X03642Y00928D02*
X0368D01*
X03642Y00997D02*
X0368D01*
X03642Y00928D02*
Y00997D01*
X0368Y00928D02*
Y00997D01*
X03612Y00797D02*
Y00819D01*
X03653Y00797D02*
Y00819D01*
X03612D02*
X03653D01*
X03612Y00797D02*
X03653D01*
X0362Y00725D02*
Y00765D01*
X03599Y00725D02*
Y00765D01*
X0362*
X03599Y00725D02*
X0362D01*
X03995Y01064D02*
Y01119D01*
X03908Y01064D02*
Y01119D01*
Y01064D02*
X03995D01*
X03908Y01119D02*
X03995D01*
X03764Y00572D02*
Y00613D01*
X03744Y00572D02*
Y00613D01*
X03764*
X03744Y00572D02*
X03764D01*
X05031Y00462D02*
Y00502D01*
X0501Y00462D02*
Y00502D01*
X05031*
X0501Y00462D02*
X05031D01*
X04899Y00763D02*
X05149D01*
X04899Y00546D02*
X05149D01*
X04899D02*
Y00763D01*
X05149Y00546D02*
Y00763D01*
X0513Y00481D02*
Y00518D01*
X05061Y00481D02*
Y00518D01*
Y00481D02*
X0513D01*
X05061Y00518D02*
X0513D01*
X04405Y00885D02*
X04586D01*
X04405Y00586D02*
X04586D01*
Y00885*
X04405Y00586D02*
Y00885D01*
X04135Y00637D02*
Y00675D01*
X04066Y00637D02*
Y00675D01*
Y00637D02*
X04135D01*
X04066Y00675D02*
X04135D01*
X0354Y01066D02*
Y01103D01*
X03609Y01066D02*
Y01103D01*
X0354D02*
X03609D01*
X0354Y01066D02*
X03609D01*
X0354Y00873D02*
Y00911D01*
X03609Y00873D02*
Y00911D01*
X0354D02*
X03609D01*
X0354Y00873D02*
X03609D01*
X0354Y00935D02*
Y00972D01*
X03609Y00935D02*
Y00972D01*
X0354D02*
X03609D01*
X0354Y00935D02*
X03609D01*
X0354Y01131D02*
Y01168D01*
X03609Y01131D02*
Y01168D01*
X0354D02*
X03609D01*
X0354Y01131D02*
X03609D01*
X0347Y01088D02*
X03507D01*
X0347Y01157D02*
X03507D01*
X0347Y01088D02*
Y01157D01*
X03507Y01088D02*
Y01157D01*
X04902Y01157D02*
X05152D01*
X04902Y0094D02*
X05152D01*
X04902D02*
Y01157D01*
X05152Y0094D02*
Y01157D01*
X05396Y00424D02*
Y00674D01*
X05179Y00424D02*
Y00674D01*
X05396*
X05179Y00424D02*
X05396D01*
X03712Y00642D02*
Y00663D01*
X03753Y00642D02*
Y00663D01*
X03712D02*
X03753D01*
X03712Y00642D02*
X03753D01*
X03722Y00572D02*
Y00613D01*
X03702Y00572D02*
Y00613D01*
X03722*
X03702Y00572D02*
X03722D01*
X03665Y00725D02*
Y00765D01*
X03644Y00725D02*
Y00765D01*
X03665*
X03644Y00725D02*
X03665D01*
X03912Y00966D02*
X03949D01*
X03912Y01035D02*
X03949D01*
X03912Y00966D02*
Y01035D01*
X03949Y00966D02*
Y01035D01*
X03998Y00688D02*
X04035D01*
X03998Y00619D02*
X04035D01*
Y00688*
X03998Y00619D02*
Y00688D01*
X03821Y00687D02*
X03859D01*
X03821Y00618D02*
X03859D01*
Y00687*
X03821Y00618D02*
Y00687D01*
X04506Y00936D02*
Y01001D01*
X04378Y00936D02*
Y01001D01*
Y00936D02*
X04506D01*
X04378Y01001D02*
X04506D01*
X036Y00638D02*
Y00675D01*
X03669Y00638D02*
Y00675D01*
X036D02*
X03669D01*
X036Y00638D02*
X03669D01*
X05062Y00418D02*
Y00455D01*
X05131Y00418D02*
Y00455D01*
X05062D02*
X05131D01*
X05062Y00418D02*
X05131D01*
X03647Y00532D02*
X03684D01*
X03647Y00601D02*
X03684D01*
X03647Y00532D02*
Y00601D01*
X03684Y00532D02*
Y00601D01*
X03934Y01154D02*
X03971D01*
X03934Y01223D02*
X03971D01*
X03934Y01154D02*
Y01223D01*
X03971Y01154D02*
Y01223D01*
X03995D02*
X04032D01*
X03995Y01154D02*
X04032D01*
Y01223*
X03995Y01154D02*
Y01223D01*
X03814Y01154D02*
X03851D01*
X03814Y01223D02*
X03851D01*
X03814Y01154D02*
Y01223D01*
X03851Y01154D02*
Y01223D01*
X03874D02*
X03911D01*
X03874Y01154D02*
X03911D01*
Y01223*
X03874Y01154D02*
Y01223D01*
X03836Y01088D02*
X03873D01*
X03836Y01019D02*
X03873D01*
Y01088*
X03836Y01019D02*
Y01088D01*
X05063Y01178D02*
Y01215D01*
X05132Y01178D02*
Y01215D01*
X05063D02*
X05132D01*
X05063Y01178D02*
X05132D01*
X03585Y00602D02*
X03622D01*
X03585Y00533D02*
X03622D01*
Y00602*
X03585Y00533D02*
Y00602D01*
X03761Y01124D02*
X03798D01*
X03761Y01055D02*
X03798D01*
Y01124*
X03761Y01055D02*
Y01124D01*
X03643Y01055D02*
X03681D01*
X03643Y01124D02*
X03681D01*
X03643Y01055D02*
Y01124D01*
X03681Y01055D02*
Y01124D01*
X03702Y01056D02*
X03739D01*
X03702Y01125D02*
X03739D01*
X03702Y01056D02*
Y01125D01*
X03739Y01056D02*
Y01125D01*
X03609Y01D02*
Y01038D01*
X0354Y01D02*
Y01038D01*
Y01D02*
X03609D01*
X0354Y01038D02*
X03609D01*
X03836Y00906D02*
Y00943D01*
X03767Y00906D02*
Y00943D01*
Y00906D02*
X03836D01*
X03767Y00943D02*
X03836D01*
X05831Y00467D02*
Y00504D01*
X05762Y00467D02*
Y00504D01*
Y00467D02*
X05831D01*
X05762Y00504D02*
X05831D01*
X05832Y01143D02*
Y0118D01*
X05763Y01143D02*
Y0118D01*
Y01143D02*
X05832D01*
X05763Y0118D02*
X05832D01*
X03865Y00844D02*
Y00881D01*
X03796Y00844D02*
Y00881D01*
Y00844D02*
X03865D01*
X03796Y00881D02*
X03865D01*
X03971Y00966D02*
X04008D01*
X03971Y01035D02*
X04008D01*
X03971Y00966D02*
Y01035D01*
X04008Y00966D02*
Y01035D01*
X04205Y00885D02*
X04386D01*
X04205Y00586D02*
X04386D01*
Y00885*
X04205Y00586D02*
Y00885D01*
X04605Y00586D02*
X04786D01*
X04605Y00885D02*
X04786D01*
X04605Y00586D02*
Y00885D01*
X04786Y00586D02*
Y00885D01*
X05178Y0098D02*
Y0123D01*
X05395Y0098D02*
Y0123D01*
X05178Y0098D02*
X05395D01*
X05178Y0123D02*
X05395D01*
X03962Y00614D02*
Y00651D01*
X03893Y00614D02*
Y00651D01*
Y00614D02*
X03962D01*
X03893Y00651D02*
X03962D01*
X04043Y01068D02*
Y01123D01*
X0413Y01068D02*
Y01123D01*
X04043D02*
X0413D01*
X04043Y01068D02*
X0413D01*
X04043Y00991D02*
Y01046D01*
X0413Y00991D02*
Y01046D01*
X04043D02*
X0413D01*
X04043Y00991D02*
X0413D01*
X04804Y00797D02*
X04859D01*
X04804Y00883D02*
X04859D01*
X04804Y00797D02*
Y00883D01*
X04859Y00797D02*
Y00883D01*
X05345Y00718D02*
X05401D01*
X05345Y00804D02*
X05401D01*
X05345Y00718D02*
Y00804D01*
X05401Y00718D02*
Y00804D01*
X05265Y00718D02*
X05321D01*
X05265Y00804D02*
X05321D01*
X05265Y00718D02*
Y00804D01*
X05321Y00718D02*
Y00804D01*
X048Y00512D02*
X04865D01*
X048Y00639D02*
X04865D01*
X048Y00512D02*
Y00639D01*
X04865Y00512D02*
Y00639D01*
X04958Y00796D02*
X05013D01*
X04958Y00883D02*
X05013D01*
X04958Y00796D02*
Y00883D01*
X05013Y00796D02*
Y00883D01*
X04881Y00796D02*
X04936D01*
X04881Y00883D02*
X04936D01*
X04881Y00796D02*
Y00883D01*
X04936Y00796D02*
Y00883D01*
X05186Y00935D02*
X05241D01*
X05186Y00849D02*
X05241D01*
Y00935*
X05186Y00849D02*
Y00935D01*
X05266D02*
X05321D01*
X05266Y00849D02*
X05321D01*
Y00935*
X05266Y00849D02*
Y00935D01*
X05346D02*
X05401D01*
X05346Y00849D02*
X05401D01*
Y00935*
X05346Y00849D02*
Y00935D01*
X05035Y00796D02*
X0509D01*
X05035Y00882D02*
X0509D01*
X05035Y00796D02*
Y00882D01*
X0509Y00796D02*
Y00882D01*
X04725Y00446D02*
X0478D01*
X04725Y00532D02*
X0478D01*
X04725Y00446D02*
Y00532D01*
X0478Y00446D02*
Y00532D01*
X04645Y00446D02*
X047D01*
X04645Y00532D02*
X047D01*
X04645Y00446D02*
Y00532D01*
X047Y00446D02*
Y00532D01*
X04565Y00446D02*
X0462D01*
X04565Y00532D02*
X0462D01*
X04565Y00446D02*
Y00532D01*
X0462Y00446D02*
Y00532D01*
X04485Y00446D02*
X0454D01*
X04485Y00532D02*
X0454D01*
X04485Y00446D02*
Y00532D01*
X0454Y00446D02*
Y00532D01*
X04405Y00446D02*
X0446D01*
X04405Y00532D02*
X0446D01*
X04405Y00446D02*
Y00532D01*
X0446Y00446D02*
Y00532D01*
X04325Y00446D02*
X0438D01*
X04325Y00532D02*
X0438D01*
X04325Y00446D02*
Y00532D01*
X0438Y00446D02*
Y00532D01*
X04245Y00446D02*
X043D01*
X04245Y00532D02*
X043D01*
X04245Y00446D02*
Y00532D01*
X043Y00446D02*
Y00532D01*
X04165Y00446D02*
X0422D01*
X04165Y00532D02*
X0422D01*
X04165Y00446D02*
Y00532D01*
X0422Y00446D02*
Y00532D01*
X00749Y0072D02*
X00781D01*
X00749Y00744D02*
X00781D01*
Y0072D02*
Y00744D01*
X00749Y0072D02*
Y00744D01*
Y00776D02*
X00781D01*
X00749Y00799D02*
X00781D01*
Y00776D02*
Y00799D01*
X00749Y00776D02*
Y00799D01*
X01707Y00882D02*
X01728D01*
X01707Y00923D02*
X01728D01*
X01707Y00882D02*
Y00923D01*
X01728Y00882D02*
Y00923D01*
X01448Y00463D02*
X01503D01*
X01448Y00574D02*
X01503D01*
Y00463D02*
Y00574D01*
X01448Y00463D02*
Y00574D01*
X01062Y0079D02*
X01082D01*
X01062Y0083D02*
X01082D01*
X01062Y0079D02*
Y0083D01*
X01082Y0079D02*
Y0083D01*
X00758Y0085D02*
X008D01*
X00758Y00828D02*
X008D01*
X00758D02*
Y0085D01*
X008Y00828D02*
Y0085D01*
X00757Y00692D02*
X00799D01*
X00757Y0067D02*
X00799D01*
X00757D02*
Y00692D01*
X00799Y0067D02*
Y00692D01*
X00948Y00934D02*
X00968D01*
X00948Y00894D02*
X00968D01*
Y00934*
X00948Y00894D02*
Y00934D01*
X00794Y00877D02*
Y00898D01*
X00753Y00877D02*
Y00898D01*
Y00877D02*
X00794D01*
X00753Y00898D02*
X00794D01*
X01062Y00908D02*
X01083D01*
X01062Y00868D02*
X01083D01*
Y00908*
X01062Y00868D02*
Y00908D01*
X01734Y01012D02*
Y01081D01*
X01697Y01012D02*
Y01081D01*
X01734*
X01697Y01012D02*
X01734D01*
X01493Y00741D02*
X01513D01*
X01493Y00782D02*
X01513D01*
X01493Y00741D02*
Y00782D01*
X01513Y00741D02*
Y00782D01*
X01448Y00741D02*
X01468D01*
X01448Y00782D02*
X01468D01*
X01448Y00741D02*
Y00782D01*
X01468Y00741D02*
Y00782D01*
X0123Y00803D02*
X01317D01*
X0123Y00856D02*
X01317D01*
Y00803D02*
Y00856D01*
X0123Y00803D02*
Y00856D01*
Y00618D02*
X01317D01*
X0123Y00671D02*
X01317D01*
Y00618D02*
Y00671D01*
X0123Y00618D02*
Y00671D01*
Y01004D02*
X01317D01*
X0123Y01057D02*
X01317D01*
Y01004D02*
Y01057D01*
X0123Y01004D02*
Y01057D01*
X01565Y0119D02*
X01585D01*
X01565Y0115D02*
X01585D01*
Y0119*
X01565Y0115D02*
Y0119D01*
X0152D02*
X0154D01*
X0152Y0115D02*
X0154D01*
Y0119*
X0152Y0115D02*
Y0119D01*
X01475D02*
X01495D01*
X01475Y0115D02*
X01495D01*
Y0119*
X01475Y0115D02*
Y0119D01*
X01459Y00642D02*
Y00662D01*
X01499Y00642D02*
Y00662D01*
X01459D02*
X01499D01*
X01459Y00642D02*
X01499D01*
X01459Y00597D02*
Y00617D01*
X01499Y00597D02*
Y00617D01*
X01459D02*
X01499D01*
X01459Y00597D02*
X01499D01*
X01543Y00557D02*
Y00754D01*
X0174Y00557D02*
Y00754D01*
X01543D02*
X0174D01*
X01543Y00557D02*
X0174D01*
X01613Y00524D02*
X01654D01*
X01613Y00503D02*
X01654D01*
X01613D02*
Y00524D01*
X01654Y00503D02*
Y00524D01*
X0238Y00849D02*
X02451D01*
X0238Y00715D02*
X02451D01*
Y00849*
X0238Y00715D02*
Y00849D01*
X02824Y01189D02*
X02965D01*
X02824Y0101D02*
X02965D01*
Y01189*
X02824Y0101D02*
Y01189D01*
X00778Y01143D02*
X008D01*
X00778Y01185D02*
X008D01*
X00778Y01143D02*
Y01185D01*
X008Y01143D02*
Y01185D01*
X00727Y01184D02*
X00748D01*
X00727Y01142D02*
X00748D01*
Y01184*
X00727Y01142D02*
Y01184D01*
X00995Y00894D02*
Y00935D01*
X01015Y00894D02*
Y00935D01*
X00995Y00894D02*
X01015D01*
X00995Y00935D02*
X01015D01*
X00967Y0063D02*
Y00651D01*
X01008Y0063D02*
Y00651D01*
X00967D02*
X01008D01*
X00967Y0063D02*
X01008D01*
X00967Y0068D02*
Y00701D01*
X01008Y0068D02*
Y00701D01*
X00967D02*
X01008D01*
X00967Y0068D02*
X01008D01*
X00863Y0063D02*
Y00651D01*
X00905Y0063D02*
Y00651D01*
X00863D02*
X00905D01*
X00863Y0063D02*
X00905D01*
X00863Y0068D02*
Y00701D01*
X00905Y0068D02*
Y00701D01*
X00863D02*
X00905D01*
X00863Y0068D02*
X00905D01*
X00827Y00773D02*
X00867D01*
X00827Y00793D02*
X00867D01*
Y00773D02*
Y00793D01*
X00827Y00773D02*
Y00793D01*
Y00727D02*
X00867D01*
X00827Y00747D02*
X00867D01*
Y00727D02*
Y00747D01*
X00827Y00727D02*
Y00747D01*
X00901Y00894D02*
Y00934D01*
X00921Y00894D02*
Y00934D01*
X00901Y00894D02*
X00921D01*
X00901Y00934D02*
X00921D01*
X01082Y00712D02*
Y00753D01*
X01062Y00712D02*
Y00753D01*
X01082*
X01062Y00712D02*
X01082D01*
Y00634D02*
Y00675D01*
X01062Y00634D02*
Y00675D01*
X01082*
X01062Y00634D02*
X01082D01*
X0287Y00536D02*
Y00607D01*
X02737Y00536D02*
Y00607D01*
Y00536D02*
X0287D01*
X02737Y00607D02*
X0287D01*
X02506Y00553D02*
X02527D01*
X02506Y00512D02*
X02527D01*
Y00553*
X02506Y00512D02*
Y00553D01*
X02505Y00667D02*
X02546D01*
X02505Y00646D02*
X02546D01*
X02505D02*
Y00667D01*
X02546Y00646D02*
Y00667D01*
X02475Y00839D02*
X02542D01*
X02475Y00727D02*
X02542D01*
Y00839*
X02475Y00727D02*
Y00839D01*
X02448Y00615D02*
X02469D01*
X02448Y00656D02*
X02469D01*
X02448Y00615D02*
Y00656D01*
X02469Y00615D02*
Y00656D01*
G54D93*
X0429Y01008D02*
X04306Y00976D01*
X04275D02*
X0429Y01008D01*
X04275Y00976D02*
X04306D01*
X04776Y01015D02*
Y01235D01*
X04159Y01015D02*
Y01235D01*
X04776*
X04159Y01015D02*
X04776D01*
G54D143*
X02085Y01163D03*
G54D144*
X02997Y00554D03*
X03155Y00553D03*
X02895Y01022D03*
G54D145*
X04496Y00865D03*
G54D146*
X04296Y00865D03*
X04696Y00606D03*
M02*