%FSTAX23Y23*%
%MOIN*%
%SFA1B1*%

%IPPOS*%
%AMD65*
4,1,8,0.045300,0.000000,0.045300,0.000000,0.025600,0.019700,-0.025600,0.019700,-0.045300,0.000000,-0.045300,0.000000,-0.025600,-0.019700,0.025600,-0.019700,0.045300,0.000000,0.0*
1,1,0.039370,0.025600,0.000000*
1,1,0.039370,0.025600,0.000000*
1,1,0.039370,-0.025600,0.000000*
1,1,0.039370,-0.025600,0.000000*
%
%ADD53C,0.010000*%
%ADD55C,0.015000*%
%ADD56C,0.020000*%
%ADD62C,0.030000*%
G04~CAMADD=65~8~0.0~0.0~393.7~905.5~196.8~0.0~15~0.0~0.0~0.0~0.0~0~0.0~0.0~0.0~0.0~0~0.0~0.0~0.0~270.0~906.0~394.0*
%ADD65D65*%
%ADD66C,0.059843*%
%ADD67C,0.050000*%
%ADD68R,0.059843X0.059843*%
%ADD69C,0.060000*%
%ADD70C,0.098425*%
%ADD71C,0.093504*%
%ADD72C,0.033465*%
%ADD73O,0.090551X0.078740*%
%ADD74C,0.060000*%
%ADD75C,0.118110*%
%ADD76C,0.018000*%
%ADD77C,0.018000*%
%ADD78C,0.023622*%
%ADD79C,0.032000*%
%LNpcb_copper_signal_bot-1*%
%LPD*%
G36*
X00953Y01244D02*
X00955Y0124D01*
X00955Y01235*
Y01181*
X00955Y0118*
X00957Y01172*
X0096Y01164*
X00966Y01156*
X00973Y01151*
X00981Y01147*
X0099Y01146*
X0099Y01146*
X0101*
X0101Y01146*
X01019Y01147*
X01027Y01151*
X01034Y01156*
X0104Y01164*
X01043Y01172*
X01045Y0118*
X01045Y01181*
Y0124*
X01045Y0124*
X01047Y01243*
X01049Y01244*
X01054Y01245*
X01651*
X01653Y0124*
X01546Y01133*
X01398*
X01393Y01132*
X01388Y0113*
X01275Y01016*
X01238*
X01237Y01021*
X0124Y01023*
X01243Y01026*
X01243Y01031*
X01243Y01035*
X0124Y01038*
X01236Y01041*
X01232Y01042*
X01228Y01041*
X01224Y01038*
X01222Y01035*
X01221Y01031*
X01222Y01026*
X01224Y01023*
X01227Y01021*
X01226Y01016*
X00788*
X00783Y01015*
X00779Y01012*
X00756Y0099*
X00754Y00985*
X00753Y00981*
X00754Y00976*
X00756Y00971*
X00761Y00969*
X00766Y00968*
X0077Y00969*
X00775Y00971*
X00793Y0099*
X00806*
X00808Y00986*
X00769Y00948*
X00767Y00943*
X00766Y00939*
X00767Y00934*
X00769Y00929*
X00774Y00927*
X00779Y00926*
X00783Y00927*
X00788Y00929*
X00827Y00969*
X00841*
X00843Y00964*
X00825Y00947*
X00823Y00942*
X00822Y00938*
X00823Y00933*
X00825Y00928*
X0083Y00926*
X0083Y00926*
X00829Y00921*
X00757*
X00753Y0092*
X00749Y00918*
X00706Y00875*
X00704Y00871*
X00703Y00867*
Y00831*
X00699Y00829*
X00673Y00854*
X00673Y00855*
X00671Y00858*
X00667Y00861*
X00663Y00862*
X00659Y00861*
X00655Y00858*
X00653Y00855*
X00652Y0085*
X00653Y00846*
X00655Y00842*
X00659Y0084*
X00659Y0084*
X00686Y00813*
Y00706*
X00687Y00702*
X00689Y00699*
X00703Y00685*
X00703Y00685*
X00706Y00681*
X00709Y00679*
X00714Y00678*
X00718Y00679*
X00721Y00681*
X00724Y00685*
X00725Y00689*
X00724Y00693*
X00721Y00697*
X0072Y00698*
Y00704*
X0072Y00704*
X00721Y00705*
X00724Y00708*
X00725Y00713*
X00724Y00717*
X00724Y00717*
Y00863*
X00742Y00881*
X00748Y0088*
X00748Y0088*
X00752Y00877*
X00752Y00877*
X00781Y00848*
X00784Y00846*
X00788Y00845*
X00927Y00845*
X00956Y00816*
X00956Y00816*
X00955Y00813*
X00951Y00812*
X0095Y00812*
X0095Y00812*
X00929Y00833*
X00925Y00836*
X00922Y00836*
X00907*
X00907Y00837*
X00903Y00837*
X00898Y00837*
X00895Y00834*
X00892Y0083*
X00892Y0083*
X00891Y00829*
X00886Y00829*
X00883Y00832*
X0088Y00835*
X00876Y00836*
X00871Y00835*
X00868Y00832*
X00865Y00829*
X00865Y00829*
X00861Y00828*
X0086Y00828*
X00857Y00831*
X00854Y00834*
X0085Y00835*
X00845Y00834*
X00842Y00831*
X00839Y00828*
X00838Y00824*
X00839Y00819*
X00842Y00816*
X00845Y00813*
X00846Y00813*
X00904Y00755*
X00907Y00753*
X00911Y00752*
X00942*
X00942Y00752*
X00946Y00751*
X0095Y00752*
X00951Y00752*
X00956Y00749*
Y00734*
X00951Y00731*
X0095Y00732*
X00946Y00732*
X00942Y00732*
X00938Y00729*
X00936Y00726*
X00936Y00725*
X0093*
X0093Y00726*
X00928Y00729*
X00924Y00732*
X0092Y00732*
X00916Y00732*
X00912Y00729*
X0091Y00727*
X0091Y00727*
X00906Y00727*
X00905Y00727*
X00903Y00729*
X009Y00732*
X00896Y00732*
X00891Y00732*
X00888Y00729*
X00885Y00726*
X00885Y00725*
X00851Y00691*
X00805*
X00805Y00692*
X00801Y00692*
X00796Y00692*
X00793Y00689*
X0079Y00685*
X0079Y00681*
X0079Y00677*
X00793Y00673*
X00796Y00671*
X00801Y0067*
X00805Y00671*
X00805Y00671*
X00855*
X00859Y00672*
X00863Y00674*
X00899Y00711*
X009Y00711*
X00903Y00713*
X00905Y00715*
X0091Y00714*
Y00631*
X0091Y00627*
X00913Y00624*
X00945Y00591*
X00948Y00589*
X00952Y00588*
X01154*
X01157Y00589*
X01161Y00591*
X01195Y00625*
X01543*
X01543Y00625*
X01548Y00624*
X01552Y00625*
X01555Y00628*
X01558Y00631*
X01559Y00636*
X01558Y0064*
X01555Y00643*
X01552Y00646*
X01552Y00646*
X01549Y00651*
X0155Y00655*
X01549Y00659*
X01551Y00665*
X01551*
X01555Y00667*
X01557Y00671*
X01558Y00675*
X01557Y00679*
X01555Y00683*
Y00687*
X01557Y00691*
X01558Y00695*
X01557Y00699*
X01555Y00703*
Y00707*
X01557Y0071*
X01558Y00715*
X01557Y00719*
X01555Y00722*
X01551Y00725*
X01547Y00726*
X01543Y00725*
X01539Y00722*
X01537Y00719*
X01536Y00715*
X01537Y0071*
X01539Y00707*
Y00703*
X01537Y00699*
X01536Y00695*
X01537Y00691*
X01539Y00687*
Y00683*
X01537Y00679*
X01536Y00675*
X01537Y00671*
X01534Y00666*
X01534Y00665*
X01183*
X01179Y00665*
X01176Y00662*
X01141Y00628*
X01085*
X01082Y00633*
X01082Y00633*
X01083Y00637*
X01082Y00641*
X0108Y00645*
X01076Y00648*
X01072Y00648*
X01068Y00648*
X01064Y00645*
X01062Y00641*
X01061Y00637*
X01062Y00633*
X01062Y00633*
X01059Y00628*
X00976*
X00975Y00631*
X00974Y00633*
X00976Y00636*
X00977Y0064*
X00976Y00644*
X00976Y00645*
Y00749*
X00981Y00752*
X00981Y00752*
X00986Y00751*
X0099Y00752*
X0099Y00752*
X00995Y00749*
Y00729*
X00996Y00725*
X00998Y00722*
X01Y0072*
Y00696*
X01Y00696*
X00999Y00692*
X01Y00687*
X01002Y00684*
X01006Y00681*
X0101Y0068*
X01015Y00681*
X01018Y00684*
X01021Y00687*
X01022Y00692*
X01021Y00696*
X0102Y00696*
Y00724*
X0102Y00728*
X01018Y00731*
X01015Y00733*
Y00749*
X0102Y00752*
X01021Y00752*
X01025Y00751*
X01029Y00752*
X01033Y00754*
X01035Y00758*
X01036Y00762*
X01036Y00765*
X0104Y00767*
X01062Y00746*
X01062Y00746*
X01064Y00742*
X01068Y00739*
X01072Y00739*
X01076Y00739*
X0108Y00742*
X01082Y00746*
X01083Y0075*
X01082Y00754*
X0108Y00758*
X01076Y0076*
X01076Y0076*
X01033Y00804*
X01033Y0081*
X01035Y00811*
X01038Y00816*
X01038Y00816*
X01011*
X01011Y00815*
X01011Y00815*
X01008Y00812*
X01005Y00813*
X01001Y00812*
X00997Y00809*
X00993*
X0099Y00812*
X00986Y00813*
X00981Y00812*
X00981Y00812*
X00976Y00813*
X00975Y00816*
X00976Y00817*
X00977Y00821*
X00976Y00826*
X00974Y00829*
X0097Y00832*
X00969Y00832*
X00938Y00863*
X00935Y00865*
X00931Y00866*
X00792Y00866*
X00785Y00873*
X00786Y00873*
X00788Y00877*
X00792Y00876*
X00796Y00877*
X00799Y0088*
X00802Y00883*
X00803Y00888*
X00802Y00892*
X008Y00895*
X008Y00896*
X00801Y009*
X00937*
X00975Y00862*
X00975Y00862*
X00978Y00858*
X00981Y00856*
X00986Y00855*
X0099Y00856*
X00993Y00858*
X00996Y00862*
X00997Y00866*
X00996Y00871*
X00993Y00874*
X0099Y00877*
X00989Y00877*
X00948Y00918*
X00945Y0092*
X00941Y00921*
X00923*
X0092Y00926*
X00921Y00927*
X00922Y00932*
X00921Y00936*
X00919Y00939*
X00916Y00942*
X00915Y00942*
X00916Y00947*
X00953*
X00954Y00942*
X00954Y00942*
X0095Y00939*
X00948Y00936*
X00947Y00932*
X00948Y00927*
X0095Y00924*
X00954Y00921*
X00958Y0092*
X00962Y00921*
X00966Y00924*
X00968Y00927*
X00969Y00932*
X00968Y00936*
X00966Y00939*
X00963Y00942*
X00962Y00942*
X00963Y00947*
X00999*
X01Y00944*
X01Y00942*
X00997Y0094*
X00995Y00936*
X00994Y00932*
X00995Y00928*
X00997Y00924*
X01001Y00921*
X01005Y00921*
X01009Y00921*
X01013Y00924*
X01016Y00928*
X01016Y00932*
X01016Y00936*
X01013Y0094*
X0101Y00942*
X0101Y00944*
X01011Y00947*
X01283*
X01343Y00887*
X01347Y00884*
X01352Y00883*
X01507*
X01512Y00884*
X01516Y00887*
X01519Y00891*
X0152Y00896*
X01519Y00901*
X01516Y00905*
X01512Y00908*
X01507Y00909*
X01357*
X01299Y00967*
X01298Y00972*
X01299Y00974*
X0141Y01085*
X01428*
X01428Y0108*
X01426Y01079*
X01422Y01077*
X0142Y01073*
X01419Y01069*
X0142Y01065*
X0142Y01064*
Y01004*
X01421Y01001*
X01423Y00997*
X01461Y00959*
X01464Y00957*
X01468Y00956*
X01799*
X01803Y00957*
X01806Y00959*
X01836Y00989*
X01916*
X01917Y00989*
X01921Y00988*
X01925Y00989*
X01929Y00991*
X01931Y00995*
X01932Y00999*
X01931Y01004*
X01929Y01007*
X01925Y0101*
X01921Y01011*
X01917Y0101*
X01917Y0101*
X01908*
X01907Y01015*
X0191Y01015*
X01913Y01018*
X01916Y01021*
X01916Y01025*
X01916Y0103*
X01915Y0103*
Y01036*
X0192Y01037*
X01922Y01033*
X0193Y01023*
X0194Y01015*
X01952Y0101*
X01965Y01008*
X01977Y0101*
X01989Y01015*
X01999Y01023*
X02007Y01033*
X02012Y01045*
X02014Y01058*
X02012Y0107*
X02007Y01082*
X01999Y01092*
X01989Y011*
X01977Y01105*
X01965Y01107*
X01952Y01105*
X0194Y011*
X0193Y01092*
X01922Y01082*
X0192Y01078*
X01915Y01079*
Y01096*
X01914Y011*
X01912Y01104*
X01885Y01131*
X01882Y01133*
X01878Y01134*
X0181*
X01806Y01133*
X01802Y01131*
X01732Y0106*
X01731Y0106*
X01729Y01066*
X01805Y01142*
X01808Y0114*
X01817Y01139*
X01825Y0114*
X01833Y01144*
X01839Y01149*
X01844Y01155*
X01848Y01163*
X01849Y01172*
X01848Y0118*
X01844Y01188*
X01839Y01194*
X01835Y01198*
X01837Y01203*
X01879*
X01881Y01198*
X01877Y01194*
X01872Y01188*
X01868Y0118*
X01867Y01172*
X01868Y01163*
X01872Y01155*
X01877Y01149*
X01883Y01144*
X01891Y0114*
X019Y01139*
X01908Y0114*
X01916Y01144*
X01922Y01149*
X01927Y01155*
X01931Y01163*
X01932Y01172*
X01931Y0118*
X01927Y01188*
X01922Y01194*
X01918Y01198*
X0192Y01203*
X02066*
X02091Y01178*
X0209Y01176*
X02088Y01174*
X02085Y01174*
X0208Y01173*
X02077Y01171*
X02074Y01167*
X02074Y01163*
X02074Y01159*
X02077Y01155*
X0208Y01153*
X02085Y01152*
X02089Y01153*
X02093Y01155*
X02095Y01159*
X02096Y01163*
X02095Y01167*
X02097Y01168*
X02099Y0117*
X02193Y01075*
X02198Y01073*
X02203Y01072*
X02507*
X02511Y01073*
X02516Y01075*
X02641Y01201*
X03382*
X03405Y01178*
Y00855*
X03406Y0085*
X03408Y00846*
X03439Y00815*
X03443Y00812*
X03448Y00811*
X03791*
X03794Y00806*
X03794Y00805*
X03795Y008*
X03797Y00797*
X03801Y00794*
X03805Y00793*
X03809Y00794*
X03813Y00797*
X03815Y008*
X03816Y00805*
X03816Y00806*
X03819Y00811*
X03838*
X03842Y00812*
X03847Y00815*
X03847Y00816*
X03853Y00817*
X03872Y00797*
X03877Y00795*
X03882Y00794*
X03886Y00795*
X03891Y00797*
X03893Y00802*
X03894Y00807*
X03893Y00811*
X03891Y00816*
X03849Y00858*
X03847Y00858*
X03849Y00863*
X03856*
X0387Y00849*
X03874Y00847*
X03878Y00846*
X03894*
X03894Y00846*
X03898Y00845*
X03903Y00846*
X03906Y00849*
X03909Y00852*
X0391Y00857*
X03909Y00858*
X03909Y00858*
X03914Y00862*
X03916Y00861*
X0392Y00862*
X03923Y00865*
X03926Y00868*
X03927Y00873*
X03926Y00877*
X03923Y0088*
X0392Y00883*
X03919Y00883*
X03908Y00895*
X0391Y00899*
X04053*
X04058Y00894*
X04057Y0089*
X03961*
X03957Y00889*
X03954Y00887*
X03952Y00883*
X03951Y0088*
Y00753*
X03952Y00749*
X03954Y00746*
X03957Y00744*
X03961Y00743*
X04088*
X04092Y00744*
X04095Y00746*
X04097Y00749*
X04098Y00753*
Y00827*
X04103Y00829*
X04103Y00828*
X04128Y00804*
X04128Y00803*
X04131Y008*
X04131Y00799*
Y00793*
X04131Y00792*
X04128Y00789*
X04127Y00785*
X04128Y0078*
X04131Y00777*
X04134Y00774*
X04139Y00773*
X04143Y00774*
X04145Y00775*
X04149*
X04151Y0077*
X0415Y00769*
X04147Y00766*
X04146Y00762*
X04147Y00757*
X0415Y00754*
X04153Y00751*
X04157Y0075*
X04162Y00751*
X04163Y00752*
X0461*
X04613Y00751*
X04618Y00752*
X04621Y00754*
X04624Y00758*
X04625Y00762*
X04624Y00766*
X04621Y0077*
X04618Y00773*
X04613Y00773*
X04609Y00773*
X04608Y00772*
X04591*
X04589Y00777*
X04591Y00779*
X04594Y00782*
X04595Y00787*
X04594Y00789*
X04597Y00794*
X04821*
X04823Y00789*
X04755Y00722*
X04247*
X04246Y00722*
X04242Y00723*
X04238Y00722*
X04234Y00719*
X04232Y00716*
X04231Y00712*
X04232Y00707*
X04233Y00705*
X04232Y00701*
X04231Y007*
X04203*
X042Y00705*
X042Y00706*
X04199Y0071*
X04196Y00713*
X04193Y00716*
X04189Y00717*
X04184Y00716*
X04184Y00716*
X04114*
X04114Y00716*
X0411Y00717*
X04105Y00716*
X04102Y00713*
X04099Y0071*
X04098Y00707*
X04095Y00707*
X04079*
X04076Y00709*
X04072Y0071*
X04067Y00709*
X04064Y00706*
X04061Y00703*
X04061Y00699*
X04061Y00694*
X04064Y00691*
X04067Y00688*
X04069Y00688*
X04069Y00688*
X04073Y00687*
X04091*
X04096Y00682*
X04099Y0068*
X04103Y00679*
X04772*
X04775Y0068*
X04777Y00681*
X04782Y00679*
Y00426*
X04184*
X04184Y00426*
X0418Y00427*
X04175Y00426*
X04172Y00423*
X04169Y0042*
X04168Y00416*
X04169Y00414*
X04165Y00409*
X0415*
X04149Y00409*
X04148Y00409*
X04145Y00413*
Y00418*
Y00472*
Y00472*
X04145*
X04144Y00481*
X0414Y0049*
X04135Y00497*
X04128Y00502*
X04119Y00506*
X0411Y00507*
Y00507*
X04079*
Y00507*
X0407Y00506*
X04061Y00502*
X04054Y00497*
X04049Y0049*
X04045Y00481*
X04044Y00472*
X04044*
Y00413*
X04044Y00413*
X04043Y00411*
X04039Y00409*
X04034*
X0329*
X03288Y00414*
X03289Y00415*
X03294Y00421*
X03298Y00429*
X03299Y00438*
X03298Y00446*
X03294Y00454*
X03289Y0046*
X03283Y00465*
X03275Y00469*
X03267Y0047*
X03258Y00469*
X0325Y00465*
X03244Y0046*
X03241Y00457*
X03018*
Y00611*
X0302Y00613*
X03025Y00619*
X03028Y00627*
X0303Y00635*
X03028Y00644*
X03025Y00651*
X0302Y00658*
X03013Y00663*
X03006Y00667*
X02997Y00668*
X02989Y00667*
X02981Y00663*
X02974Y00658*
X02969Y00651*
X02966Y00644*
X02965Y00635*
X02966Y00627*
X02969Y00619*
X02974Y00613*
X02977Y00611*
Y00457*
X02514*
X02421Y0055*
X02414Y00554*
X02407Y00556*
X02318*
X0231Y00554*
X02303Y0055*
X02204Y00451*
X0141*
X01406Y00454*
X01407Y00458*
X01406Y00466*
X01402Y00474*
X01397Y0048*
X01391Y00485*
X01383Y00489*
X01375Y0049*
X01366Y00489*
X01358Y00485*
X01352Y0048*
X01347Y00474*
X01343Y00466*
X01342Y00458*
X01343Y00449*
X01347Y00441*
X01352Y00435*
X01358Y0043*
X01366Y00426*
X01375Y00425*
X01378Y00426*
X01387Y00416*
X01391Y00414*
X01389Y00409*
X01055*
X01055Y00409*
X01052Y0041*
X01051Y00413*
X01051Y00413*
Y00472*
X01051Y00472*
X01049Y00481*
X01046Y0049*
X0104Y00497*
X01033Y00502*
X01025Y00506*
X01016Y00507*
Y00507*
X00984*
Y00507*
X00975Y00506*
X00967Y00502*
X0096Y00497*
X00954Y0049*
X00951Y00481*
X00949Y00472*
X00949*
Y00413*
X0095Y00413*
X00948Y0041*
X00945Y00409*
X00945Y00409*
X00413*
X00413Y00409*
X0041Y0041*
X00409Y00413*
X00409Y00413*
Y0053*
X00409Y0053*
X0041Y00531*
X00413Y00534*
X00422Y00535*
X00431Y00539*
X00438Y00544*
X00444Y00552*
X00447Y0056*
X00448Y00564*
X00453Y00566*
X00456Y00564*
X00466Y0056*
X00476Y00559*
X00527*
X00537Y0056*
X00547Y00564*
X00555Y0057*
X00561Y00577*
X00562Y00578*
X00565*
X00566Y00577*
X00572Y0057*
X0058Y00564*
X0059Y0056*
X006Y00559*
X00651*
X00661Y0056*
X00671Y00564*
X00679Y0057*
X00686Y00578*
X00689Y00588*
X00691Y00598*
X00689Y00609*
X00686Y00618*
X00679Y00626*
X00671Y00633*
X00661Y00637*
X00651Y00638*
X00616*
X00613Y00643*
X00614Y00648*
X00613Y00653*
X0061Y00658*
X00605Y00661*
X006Y00662*
X00595Y00661*
X0059Y00658*
X00587Y00653*
X00586Y00648*
X00587Y00642*
X00588Y00641*
X00586Y00635*
X0058Y00633*
X00572Y00626*
X00566Y00619*
X00565Y00619*
X00562*
X00561Y00619*
X00555Y00626*
X00547Y00633*
X00537Y00637*
X00527Y00638*
X00476*
X00466Y00637*
X00456Y00633*
X00453Y0063*
X00448Y00632*
Y00711*
X00453Y00715*
X00456Y00714*
X00462Y00715*
X00466Y00718*
X00469Y00723*
X0047Y00728*
X00469Y00734*
X00466Y00738*
X00462Y00741*
X00456Y00742*
X00453Y00742*
X00448Y00745*
X00448Y00818*
X00453Y00821*
X00456Y0082*
X00462Y00822*
X00466Y00825*
X00469Y00829*
X0047Y00835*
X00469Y0084*
X00466Y00845*
X00462Y00848*
X00456Y00849*
X00453Y00848*
X00448Y00851*
Y0093*
X00453Y00933*
X00456Y0093*
X00466Y00926*
X00476Y00925*
X00527*
X00537Y00926*
X00547Y0093*
X00555Y00936*
X00561Y00943*
X00562Y00944*
X00565*
X00566Y00943*
X00572Y00936*
X0058Y0093*
X00586Y00928*
X00588Y00922*
X00587Y00921*
X00586Y00915*
X00587Y0091*
X0059Y00905*
X00595Y00902*
X006Y00901*
X00605Y00902*
X0061Y00905*
X00613Y0091*
X00614Y00915*
X00613Y0092*
X00616Y00925*
X00651*
X00661Y00926*
X00671Y0093*
X00679Y00936*
X00686Y00945*
X00689Y00954*
X00691Y00965*
X00689Y00975*
X00686Y00984*
X00679Y00993*
X00671Y00999*
X00661Y01003*
X00651Y01004*
X006*
X0059Y01003*
X0058Y00999*
X00572Y00993*
X00566Y00986*
X00565Y00985*
X00562*
X00561Y00986*
X00555Y00993*
X00547Y00999*
X00537Y01003*
X00527Y01004*
X00476*
X00466Y01003*
X00456Y00999*
X00453Y00997*
X00448Y00999*
X00447Y01003*
X00444Y01012*
X00438Y01019*
X00431Y01024*
X00422Y01028*
X00413Y01029*
X0041Y01032*
X00409Y01033*
X00409Y01033*
X00409Y01235*
X00409Y0124*
X00412Y01244*
X00413Y01245*
X00413Y01245*
X00951*
X00951Y01245*
X00953Y01244*
G37*
G36*
X05108Y00874D02*
X05103Y0087D01*
X05102Y0087*
X04618*
X04618Y00871*
X04613Y00871*
X04609Y00871*
X04605Y00868*
X04603Y00864*
X04602Y0086*
X04603Y00856*
X04604Y00855*
X04601Y0085*
X04463*
Y0088*
X05024*
X05028Y00881*
X05031Y00883*
X0509Y00943*
X05091Y00943*
X05094Y00945*
X05097Y00949*
X05098Y00953*
X05097Y00957*
X05094Y00961*
X05091Y00963*
X05087Y00964*
X05082Y00963*
X05079Y00961*
X05076Y00957*
X05076Y00957*
X0502Y00901*
X04612*
X0461Y00906*
X04611Y00907*
X04612Y00912*
X04611Y00916*
X04608Y00919*
X04605Y00922*
X04601Y00923*
X04596Y00922*
X04593Y00919*
X0459Y00916*
X04589Y00912*
X0459Y00907*
X04591Y00906*
X04589Y00901*
X04577*
X04577Y00902*
X04575Y00906*
X04577Y00908*
X04578Y00913*
X04577Y00917*
X04574Y0092*
X04571Y00923*
X04567Y00924*
X04562Y00923*
X04562Y00923*
X04463*
Y01085*
X04589*
X04592Y01085*
X04596Y01088*
X04598Y01091*
X04599Y01095*
Y01245*
X04751*
X04752Y0124*
X04749Y01238*
X04744Y01234*
X04739Y01228*
X04737Y01222*
X04736Y01215*
X04737Y01208*
X04739Y01201*
X04744Y01195*
X04749Y01191*
X04756Y01188*
X04763Y01187*
X0477Y01188*
X04776Y01191*
X04782Y01195*
X04786Y01201*
X04789Y01208*
X0479Y01215*
X04789Y01222*
X04786Y01228*
X04782Y01234*
X04776Y01238*
X04773Y0124*
X04774Y01245*
X05108*
Y00874*
G37*
G36*
X04589Y01095D02*
X04463D01*
Y01095*
X04459Y01094*
X04456Y01092*
X04454Y01088*
X04453Y01085*
Y00923*
X04117*
X04113Y00928*
X04114Y0093*
X04113Y00934*
X0411Y00937*
X04107Y0094*
X04106Y0094*
X04093Y00953*
X04093Y00955*
X04095Y00959*
X04097Y00961*
X041Y00964*
X04101Y00969*
X041Y00973*
X041Y00973*
Y01108*
X04099Y01112*
X04097Y01115*
X0409Y01122*
Y01146*
X0411*
X04111Y01146*
X04119Y01147*
X04128Y01151*
X04135Y01156*
X0414Y01164*
X04144Y01172*
X04145Y0118*
X04145Y01181*
Y01198*
X0415Y01199*
X04153Y01195*
X04159Y01191*
X04165Y01188*
X04172Y01187*
X04179Y01188*
X04186Y01191*
X04192Y01195*
X04196Y01201*
X04199Y01208*
X042Y01215*
X04199Y01222*
X04196Y01228*
X04192Y01234*
X04186Y01238*
X04183Y0124*
X04184Y01245*
X04589*
Y01095*
G37*
G36*
X04041Y01244D02*
X04044Y0124D01*
X04044Y01235*
Y01181*
X04044*
X04045Y01172*
X04049Y01164*
X04054Y01156*
X04061Y01151*
X0407Y01147*
X04078Y01146*
X04079Y01146*
X04079*
Y01139*
X04075Y01136*
X04074Y01136*
X04071Y01137*
X04045*
X03963Y01219*
X03963Y01219*
X0396Y01223*
X03957Y01225*
X03953Y01226*
X03948Y01225*
X03945Y01223*
X03942Y01219*
X03941Y01215*
X03942Y0121*
X03945Y01207*
X03948Y01204*
X03949Y01204*
X04034Y01119*
X04037Y01117*
X04041Y01116*
X04066*
X04079Y01103*
Y00974*
X04077Y00973*
X04074Y00972*
X04029Y01018*
Y01035*
X04028Y01038*
X04026Y01042*
X04008Y01059*
X04005Y01061*
X04001Y01062*
X03994*
X03993Y01067*
X03993Y01068*
X03996Y01071*
X03997Y01076*
X03996Y0108*
X03993Y01083*
X0399Y01086*
X03986Y01087*
X03981Y01086*
X03978Y01083*
X03975Y0108*
X03974Y01076*
X03975Y01071*
X03978Y01068*
X03978Y01067*
X03977Y01062*
X03939*
X0393Y01071*
Y01081*
X03933Y01086*
X03934Y01086*
X03907*
X03907Y01086*
X0391Y01081*
Y01067*
X03911Y01063*
X03913Y01059*
X03928Y01045*
X03931Y01043*
X03935Y01042*
X03986*
X03987Y01037*
X03985Y01036*
X03982Y01034*
X03979Y0103*
X03978Y01026*
X03979Y01022*
X03982Y01018*
X03985Y01016*
X0399Y01015*
X03994Y01016*
X03997Y01018*
X04Y01022*
X04001Y01026*
X04Y0103*
X03997Y01034*
X03995Y01036*
X03995Y01041*
X03996Y01041*
X03997Y01041*
X04008Y0103*
Y01013*
X04009Y01009*
X04011Y01006*
X04045Y00972*
X04044Y00968*
X04044Y00967*
X03964*
X03865Y01066*
Y01075*
X03865Y01075*
X03866Y01079*
X03865Y01083*
X03862Y01087*
X03859Y01089*
X03855Y0109*
X0385Y01089*
X03847Y01087*
X03844Y01083*
X03843Y01079*
X03844Y01075*
X03844Y01075*
Y01062*
X03845Y01058*
X03847Y01054*
X03858Y01043*
X03856Y01039*
X03856Y01039*
X03851Y01038*
X03848Y01035*
X03845Y01032*
X03844Y01028*
X03845Y01023*
X03848Y0102*
X03851Y01017*
X03852Y01017*
X03944Y00925*
X03944Y00924*
X03942Y0092*
X03818*
X03791Y00947*
X03793Y00951*
X03793Y00951*
X03821*
X03821Y00951*
X03826Y0095*
X0383Y00951*
X03833Y00954*
X03836Y00957*
X03837Y00962*
X03836Y00966*
X03833Y00969*
X0383Y00972*
X03826Y00973*
X03821Y00972*
X03821Y00972*
X03798*
X03769Y01*
X03766Y01002*
X03762Y01003*
X03727*
X03727Y01003*
X03723Y01004*
X03719Y01003*
X03715Y01001*
X03713Y00997*
X03712Y00993*
X03713Y00989*
X03713Y00988*
X03711Y00983*
X03586*
X03585Y00984*
Y01105*
X03584Y01108*
X03582Y01112*
X03559Y01134*
Y01145*
X03559Y01145*
X0356Y0115*
X03559Y01154*
X03557Y01157*
X03553Y0116*
X03549Y01161*
X03545Y0116*
X03541Y01157*
X03539Y01154*
X03538Y0115*
X03539Y01145*
X03539Y01145*
Y0113*
X03539Y01126*
X03542Y01123*
X03564Y011*
Y01021*
X03559Y01021*
X03559Y01024*
X03556Y01028*
X03553Y0103*
X03548Y01031*
X03544Y0103*
X0354Y01028*
X03538Y01024*
X03537Y0102*
X03538Y01015*
X0354Y01012*
X03544Y01009*
X03548Y01008*
X03553Y01009*
X03556Y01012*
X03559Y01015*
X03559Y01018*
X03564Y01018*
Y0098*
X03565Y00976*
X03567Y00972*
X03574Y00965*
X03578Y00963*
X03582Y00962*
X03587*
X03589Y00958*
X0359Y00957*
X03589Y00954*
X0359Y00949*
X03592Y00946*
X03596Y00943*
X03596Y00943*
X03651Y00889*
X03648Y00884*
X03623*
X03611Y00896*
X0361Y00896*
X03608Y009*
X03604Y00902*
X036Y00903*
X03596Y00902*
X03592Y009*
X0359Y00896*
X03589Y00892*
X0359Y00888*
X03592Y00884*
X03596Y00882*
X03596Y00882*
X03611Y00866*
X03612Y00866*
X0361Y00861*
X03464*
X03453Y00872*
Y01192*
X03452Y01197*
X0345Y01201*
X03411Y0124*
X03413Y01245*
X04039*
X0404Y01245*
X04041Y01244*
G37*
G36*
X05399Y01244D02*
X05402Y0124D01*
X05402Y01235*
Y01181*
X05402*
X05403Y01172*
X05407Y01164*
X05412Y01156*
X05419Y01151*
X05428Y01147*
X05436Y01146*
X05437Y01146*
X05468*
X05469Y01146*
X05477Y01147*
X05486Y01151*
X05493Y01156*
X05499Y01164*
X05502Y01172*
X05503Y0118*
X05503Y01181*
Y0124*
X05503Y0124*
X05506Y01244*
X05508Y01245*
X05508Y01245*
X05984*
X05984Y01245*
X05987Y01243*
X05989Y0124*
X05989Y0124*
Y0086*
X05795*
X05793Y00864*
X05832Y00903*
X05834Y00906*
X05835Y0091*
Y01156*
X05835Y01156*
X05836Y01161*
X05835Y01165*
X05832Y01168*
X05829Y01171*
X05825Y01172*
X0582Y01171*
X05817Y01168*
X05814Y01165*
X05813Y01161*
X05814Y01156*
X05814Y01156*
Y00915*
X05749Y0085*
X05385*
X05382Y00855*
X05384Y00856*
X05384Y00861*
X05384Y00865*
X05381Y00868*
X05377Y00871*
X05373Y00872*
X05369Y00871*
X05365Y00868*
X05363Y00865*
X05362Y00861*
X05363Y00856*
X05364Y00855*
X05362Y0085*
X05305*
X05302Y00855*
X05304Y00856*
X05304Y00861*
X05304Y00865*
X05301Y00868*
X05297Y00871*
X05293Y00872*
X05289Y00871*
X05285Y00868*
X05283Y00865*
X05282Y00861*
X05283Y00856*
X05284Y00855*
X05282Y0085*
X05225*
X05222Y00855*
X05224Y00856*
X05224Y00861*
X05224Y00865*
X05221Y00868*
X05217Y00871*
X05213Y00872*
X05209Y00871*
X05205Y00868*
X05203Y00865*
X05202Y00861*
X05203Y00856*
X05204Y00855*
X05202Y0085*
X05127*
X05115Y00862*
X05115Y00867*
X05115Y00868*
X05116Y00869*
X05117Y00869*
X05117Y0087*
X05117Y00871*
X05118Y00873*
X05118Y00873*
X05118Y00874*
Y01245*
X05398*
X05398Y01245*
X05399Y01244*
G37*
G36*
X04088Y00865D02*
Y00753D01*
X03961*
Y0088*
X04073*
X04088Y00865*
G37*
G36*
X05099Y00709D02*
Y00509D01*
X051Y00508*
X051Y00506*
X051Y00506*
X051Y00506*
X05101Y00504*
X05102Y00502*
X05102Y00502*
X05102Y00502*
X05104Y00501*
X05105Y005*
X05106Y005*
Y00499*
X05105Y00499*
X05104Y00498*
X05102Y00497*
X05102Y00497*
X05102Y00497*
X05101Y00495*
X051Y00493*
X051Y00493*
X051Y00493*
X051Y00491*
X05099Y0049*
X05099Y00445*
X05099Y00444*
X05099Y00444*
X051Y00443*
X051Y00441*
X051Y00441*
X05101Y0044*
X05101Y00439*
X05102Y00438*
X05103Y00437*
X05103Y00437*
X05104Y00436*
X05106Y00436*
Y00433*
X05098Y00426*
X05072*
X05074Y00426*
X05078Y00429*
X0508Y00432*
X05081Y00437*
X0508Y00441*
X05078Y00444*
X05074Y00447*
X0507Y00448*
X05066Y00447*
X05062Y00444*
X0506Y00441*
X05059Y00437*
X0506Y00432*
X05062Y00429*
X05066Y00426*
X05068Y00426*
X04793*
Y00696*
X04847Y0075*
X05012*
X05012Y0075*
X05017Y00749*
X05021Y0075*
X05024Y00753*
X05027Y00756*
X05028Y00761*
X05027Y00765*
X05044*
X05099Y00709*
G37*
G36*
X05989Y0085D02*
Y00413D01*
X05989Y00413*
X05989Y00413*
X05986Y00409*
X05984Y00409*
X05984Y00409*
X05508*
X05508Y00409*
X05504Y0041*
X05503Y00413*
X05503Y00413*
Y00472*
X05503*
X05502Y00481*
X05499Y0049*
X05493Y00497*
X05486Y00502*
X05477Y00506*
X05468Y00507*
Y00507*
X05437*
Y00507*
X05428Y00506*
X0542Y00502*
X05412Y00497*
X05407Y0049*
X05403Y00481*
X05402Y00472*
X05402*
Y00413*
X05402Y00413*
X05401Y00411*
X05398Y00409*
X05393*
X05116*
X05114Y00413*
X05127Y00426*
X05127Y00426*
X05131Y00429*
X05133Y00432*
X05134Y00437*
X05133Y00441*
X05131Y00444*
X05127Y00447*
X05123Y00448*
X05119Y00447*
X05115Y00444*
X05115Y00443*
X0511Y00445*
Y0049*
X05113Y00491*
X05115Y00491*
X05118Y00489*
X05122Y00488*
X05126Y00489*
X0513Y00492*
X05132Y00495*
X05133Y005*
X05132Y00504*
X0513Y00507*
X05126Y0051*
X05122Y00511*
X05118Y0051*
X05115Y00508*
X05113Y00508*
X0511Y00509*
Y00721*
X05112Y00722*
X05115Y00722*
X05118Y0072*
X05122Y00719*
X0514*
X0514Y00719*
X05145Y00718*
X05149Y00719*
X05152Y00722*
X05155Y00725*
X05156Y0073*
X05155Y00734*
X05152Y00737*
X05149Y0074*
X05145Y00741*
X0514Y0074*
X0514Y0074*
X05126*
X0511Y00756*
Y008*
X05111Y00801*
X05115Y00803*
X05118Y00802*
X05205*
X05207Y00797*
X05205Y00796*
X05203Y00793*
X05202Y00789*
X05203Y00784*
X05205Y00781*
X05209Y00778*
X05213Y00777*
X05217Y00778*
X05221Y00781*
X05224Y00784*
X05224Y00789*
X05224Y00793*
X05221Y00796*
X0522Y00797*
X05221Y00802*
X05285*
X05286Y00797*
X05285Y00796*
X05283Y00793*
X05282Y00789*
X05283Y00784*
X05285Y00781*
X05289Y00778*
X05293Y00777*
X05297Y00778*
X05301Y00781*
X05303Y00784*
X05304Y00789*
X05303Y00793*
X05301Y00796*
X053Y00797*
X05301Y00802*
X05365*
X05366Y00797*
X05365Y00796*
X05363Y00793*
X05362Y00789*
X05363Y00784*
X05365Y00781*
X05369Y00778*
X05373Y00777*
X05377Y00778*
X05381Y00781*
X05383Y00784*
X05384Y00789*
X05383Y00793*
X05381Y00796*
X0538Y00797*
X05381Y00802*
X05743*
X05813Y00733*
Y0049*
X05813Y0049*
X05812Y00486*
X05813Y00481*
X05815Y00478*
X05819Y00475*
X05823Y00474*
X05827Y00475*
X05831Y00478*
X05833Y00481*
X05834Y00486*
X05833Y0049*
X05833Y0049*
Y00737*
X05832Y00741*
X0583Y00744*
X05755Y0082*
X05754Y0082*
Y00826*
X05755Y00826*
X05778Y0085*
X05989*
G37*
%LNpcb_copper_signal_bot-2*%
%LPC*%
G36*
X01575Y01198D02*
X01571Y01198D01*
X01567Y01195*
X01565Y01192*
X01564Y01187*
X01565Y01183*
X01567Y01179*
X01571Y01177*
X01575Y01176*
X01579Y01177*
X01583Y01179*
X01585Y01183*
X01586Y01187*
X01585Y01192*
X01583Y01195*
X01579Y01198*
X01575Y01198*
G37*
G36*
X0153D02*
X01526Y01198D01*
X01522Y01195*
X0152Y01192*
X01519Y01187*
X0152Y01183*
X01522Y01179*
X01526Y01177*
X0153Y01176*
X01534Y01177*
X01538Y01179*
X0154Y01183*
X01541Y01187*
X0154Y01192*
X01538Y01195*
X01534Y01198*
X0153Y01198*
G37*
G36*
X01485D02*
X01481Y01198D01*
X01477Y01195*
X01475Y01192*
X01474Y01187*
X01475Y01183*
X01477Y01179*
X01481Y01177*
X01485Y01176*
X01489Y01177*
X01493Y01179*
X01495Y01183*
X01496Y01187*
X01495Y01192*
X01493Y01195*
X01489Y01198*
X01485Y01198*
G37*
G36*
X02751Y01179D02*
X02746Y01178D01*
X02743Y01176*
X02741Y01173*
X02738Y01172*
X02738*
X02735Y01173*
X02733Y01176*
X0273Y01178*
X02726Y01179*
X02721Y01178*
X02718Y01176*
X02716Y01173*
X02713Y01172*
X02713*
X0271Y01173*
X02708Y01176*
X02705Y01178*
X02701Y01179*
X02696Y01178*
X02693Y01176*
X0269Y01172*
X02689Y01168*
X0269Y01163*
X02693Y0116*
X02696Y01157*
X02701Y01156*
X02705Y01157*
X02708Y0116*
X0271Y01162*
X02713Y01163*
X02713*
X02716Y01162*
X02718Y0116*
X02721Y01157*
X02726Y01156*
X0273Y01157*
X02733Y0116*
X02735Y01162*
X02738Y01163*
X02738*
X02741Y01162*
X02743Y0116*
X02746Y01157*
X02751Y01156*
X02755Y01157*
X02758Y0116*
X02761Y01163*
X02762Y01168*
X02761Y01172*
X02758Y01176*
X02755Y01178*
X02751Y01179*
G37*
G36*
X02925Y01192D02*
X0292Y01191D01*
X02917Y01188*
X02914Y01185*
X02913Y01181*
X02914Y01176*
X02917Y01173*
X0292Y0117*
X02925Y01169*
X02929Y0117*
X02932Y01173*
X02935Y01176*
X02936Y01181*
X02935Y01185*
X02932Y01188*
X02929Y01191*
X02925Y01192*
G37*
G36*
X02895D02*
X0289Y01191D01*
X02887Y01188*
X02884Y01185*
X02883Y01181*
X02884Y01176*
X02887Y01173*
X0289Y0117*
X02895Y01169*
X02899Y0117*
X02902Y01173*
X02905Y01176*
X02906Y01181*
X02905Y01185*
X02902Y01188*
X02899Y01191*
X02895Y01192*
G37*
G36*
X02866D02*
X02861Y01191D01*
X02858Y01188*
X02855Y01185*
X02854Y01181*
X02855Y01176*
X02858Y01173*
X02861Y0117*
X02866Y01169*
X0287Y0117*
X02873Y01173*
X02876Y01176*
X02877Y01181*
X02876Y01185*
X02873Y01188*
X0287Y01191*
X02866Y01192*
G37*
G36*
X00458Y01225D02*
X00449Y01224D01*
X00441Y0122*
X00435Y01215*
X0043Y01209*
X00426Y01201*
X00425Y01193*
X00426Y01184*
X0043Y01176*
X00435Y0117*
X00441Y01165*
X00449Y01161*
X00458Y0116*
X00466Y01161*
X00467Y01162*
X005Y01129*
X00505Y01125*
X0051Y01124*
X00687*
X00693Y01125*
X00698Y01129*
X00702Y01134*
X00703Y0114*
X00702Y01145*
X00698Y0115*
X00693Y01154*
X00687Y01155*
X00589*
X00589Y0116*
X00592Y0116*
X006Y01164*
X00606Y01169*
X00611Y01175*
X00612Y01176*
X0068*
X00727Y01129*
X00732Y01126*
X00738Y01125*
X00743Y01126*
X00748Y01129*
X00752Y01134*
X00753Y0114*
X00752Y01146*
X00748Y01151*
X00697Y01202*
X00692Y01206*
X00686Y01207*
X00612*
X00611Y01208*
X00606Y01214*
X006Y01219*
X00592Y01223*
X00584Y01224*
X00575Y01223*
X00567Y01219*
X00561Y01214*
X00556Y01208*
X00552Y012*
X00551Y01191*
X00552Y01183*
X00556Y01175*
X00561Y01169*
X00567Y01164*
X00575Y0116*
X00578Y0116*
X00578Y01155*
X00517*
X00488Y01183*
X00489Y01184*
X0049Y01193*
X00489Y01201*
X00485Y01209*
X0048Y01215*
X00474Y0122*
X00466Y01224*
X00458Y01225*
G37*
G36*
X01228Y01218D02*
X01216D01*
X01204Y01216*
X01193Y01211*
X01183Y01204*
X01175Y01194*
X0117Y01182*
X01169Y0117*
X0117Y01158*
X01175Y01146*
X01183Y01136*
X01193Y01129*
X01204Y01124*
X01216Y01122*
X01228*
X01241Y01124*
X01252Y01129*
X01262Y01136*
X0127Y01146*
X01274Y01158*
X01276Y0117*
X01274Y01182*
X0127Y01194*
X01262Y01204*
X01252Y01211*
X01241Y01216*
X01228Y01218*
G37*
G36*
X00789Y01157D02*
X00783Y01155D01*
X00778Y01152*
X00775Y01147*
X00774Y01141*
Y01124*
X00742Y01092*
X00612*
X00611Y01093*
X00606Y011*
X006Y01105*
X00592Y01108*
X00584Y01109*
X00575Y01108*
X00567Y01105*
X00561Y011*
X00556Y01093*
X00552Y01085*
X00551Y01077*
X00552Y01069*
X00556Y01061*
X00561Y01054*
X00567Y01049*
X00575Y01046*
X00584Y01045*
X00592Y01046*
X006Y01049*
X00606Y01054*
X00611Y01061*
X00612Y01062*
X00748*
X00754Y01063*
X00759Y01066*
X008Y01107*
X00803Y01112*
X00804Y01118*
Y01141*
X00803Y01147*
X008Y01152*
X00795Y01155*
X00789Y01157*
G37*
G36*
X00458Y01109D02*
X00449Y01108D01*
X00441Y01105*
X00435Y011*
X0043Y01093*
X00426Y01085*
X00425Y01077*
X00426Y01069*
X0043Y01061*
X00435Y01054*
X00441Y01049*
X00449Y01046*
X00458Y01045*
X00466Y01046*
X00474Y01049*
X0048Y01054*
X00485Y01061*
X00489Y01069*
X0049Y01077*
X00489Y01085*
X00485Y01093*
X0048Y011*
X00474Y01105*
X00466Y01108*
X00458Y01109*
G37*
G36*
X02374Y01008D02*
X02369Y01007D01*
X02366Y01005*
X02363Y01001*
X02362Y00997*
X02363Y00993*
X02366Y00989*
X02369Y00987*
X02374Y00986*
X02378Y00987*
X02381Y00989*
X02384Y00993*
X02385Y00997*
X02384Y01001*
X02381Y01005*
X02378Y01007*
X02374Y01008*
G37*
G36*
X0204Y01018D02*
X02032Y01016D01*
X02025Y01012*
X02021Y01005*
X02019Y00998*
X02021Y0099*
X02025Y00983*
X02032Y00979*
X0204Y00977*
X02047Y00979*
X02054Y00983*
X02058Y0099*
X0206Y00998*
X02058Y01005*
X02054Y01012*
X02047Y01016*
X0204Y01018*
G37*
G36*
X02015Y0097D02*
X02011Y00969D01*
X02007Y00966*
X02005Y00963*
X02004Y00958*
X02005Y00954*
X02007Y0095*
X02011Y00948*
X02015Y00947*
X0202Y00948*
X02023Y0095*
X02026Y00954*
X02027Y00958*
X02026Y00963*
X02023Y00966*
X0202Y00969*
X02015Y0097*
G37*
G36*
X01921Y00962D02*
X01917Y00961D01*
X01917Y00961*
X0189*
X01886Y0096*
X01883Y00958*
X01855Y0093*
X01722*
X01722Y0093*
X01718Y00931*
X01713Y0093*
X01713Y0093*
X01589*
X01585Y00929*
X01582Y00927*
X01503Y00848*
X01503Y00848*
X01499Y00845*
X01497Y00842*
X01496Y00837*
X01497Y00833*
X01499Y00829*
X01503Y00827*
X01507Y00826*
X01511Y00827*
X01515Y00829*
X01517Y00833*
X01517Y00833*
X01594Y0091*
X01713*
X01713Y00909*
X01718Y00909*
X01722Y00909*
X01722Y0091*
X01826*
X01827Y00905*
X01815Y009*
X01805Y00892*
X01797Y00882*
X01792Y0087*
X0179Y00858*
X01792Y00845*
X01797Y00833*
X01805Y00823*
X01815Y00815*
X01827Y0081*
X0184Y00808*
X01852Y0081*
X01864Y00815*
X01874Y00823*
X01882Y00833*
X01887Y00845*
X01889Y00858*
X01887Y0087*
X01882Y00882*
X01874Y00892*
X01864Y009*
X01852Y00905*
X01853Y0091*
X01859*
X01863Y0091*
X01866Y00913*
X01894Y00941*
X01916*
X01917Y00941*
X01921Y0094*
X01925Y00941*
X01929Y00943*
X01931Y00947*
X01932Y00951*
X01931Y00955*
X01929Y00959*
X01925Y00961*
X01921Y00962*
G37*
G36*
X0184Y00978D02*
X01832Y00976D01*
X01825Y00972*
X01821Y00965*
X01819Y00958*
X01821Y0095*
X01825Y00943*
X01832Y00939*
X0184Y00937*
X01847Y00939*
X01854Y00943*
X01858Y0095*
X0186Y00958*
X01858Y00965*
X01854Y00972*
X01847Y00976*
X0184Y00978*
G37*
G36*
X02534Y00989D02*
X02525Y00988D01*
X02517Y00984*
X02511Y00979*
X02506Y00973*
X02502Y00965*
X02501Y00957*
X02502Y00948*
X02506Y0094*
X02511Y00934*
X02517Y00929*
X02525Y00925*
X02534Y00924*
X02542Y00925*
X0255Y00929*
X02556Y00934*
X02561Y0094*
X02565Y00948*
X02566Y00957*
X02565Y00965*
X02561Y00973*
X02556Y00979*
X0255Y00984*
X02542Y00988*
X02534Y00989*
G37*
G36*
X02183Y00936D02*
X02178Y00935D01*
X02175Y00932*
X02172Y00929*
X02171Y00925*
X02172Y0092*
X02175Y00917*
X02178Y00914*
X02183Y00913*
X02187Y00914*
X0219Y00917*
X02193Y0092*
X02194Y00925*
X02193Y00929*
X0219Y00932*
X02187Y00935*
X02183Y00936*
G37*
G36*
X0204Y00938D02*
X02032Y00936D01*
X02025Y00932*
X02021Y00925*
X02019Y00918*
X02021Y0091*
X02025Y00903*
X02032Y00899*
X0204Y00897*
X02047Y00899*
X02054Y00903*
X02058Y0091*
X0206Y00918*
X02058Y00925*
X02054Y00932*
X02047Y00936*
X0204Y00938*
G37*
G36*
X01073Y00917D02*
X01068Y00916D01*
X01065Y00913*
X01062Y0091*
X01061Y00905*
X01062Y00901*
X01065Y00897*
X01068Y00895*
X01073Y00894*
X01077Y00895*
X0108Y00897*
X01083Y00901*
X01084Y00905*
X01083Y0091*
X0108Y00913*
X01077Y00916*
X01073Y00917*
G37*
G36*
X01005Y00908D02*
X01001Y00908D01*
X00997Y00905*
X00995Y00901*
X00994Y00897*
X00995Y00893*
X00997Y00889*
X01001Y00887*
X01005Y00886*
X01009Y00887*
X01013Y00889*
X01016Y00893*
X01016Y00897*
X01016Y00901*
X01013Y00905*
X01009Y00908*
X01005Y00908*
G37*
G36*
X02182Y00903D02*
X02178Y00902D01*
X02175Y009*
X02172Y00896*
X02171Y00892*
X02172Y00888*
X02175Y00884*
X02178Y00882*
X02182Y00881*
X02187Y00882*
X0219Y00884*
X02193Y00888*
X02194Y00892*
X02193Y00896*
X0219Y009*
X02187Y00902*
X02182Y00903*
G37*
G36*
X01718Y00896D02*
X01713Y00896D01*
X0171Y00893*
X01707Y00889*
X01706Y00885*
X01707Y00881*
X0171Y00877*
X01713Y00875*
X01718Y00874*
X01722Y00875*
X01725Y00877*
X01728Y00881*
X01729Y00885*
X01728Y00889*
X01725Y00893*
X01722Y00896*
X01718Y00896*
G37*
G36*
X01674Y0087D02*
X01595D01*
X01591Y00869*
X01587Y00867*
X01576Y00856*
X01574Y00853*
X01573Y00849*
Y00845*
X01568Y00842*
X01568Y00842*
X01566Y00845*
X01562Y00848*
X01558Y00849*
X01554Y00848*
X0155Y00845*
X01548Y00842*
X01547Y00837*
X01548Y00833*
X01548Y00833*
Y00823*
X01549Y00819*
X01551Y00816*
X01562Y00804*
X01566Y00802*
X0157Y00801*
X01594*
X01597Y00796*
X01597Y00796*
X01598Y00791*
X01601Y00788*
X01604Y00785*
X01605Y00785*
X01631Y00758*
Y00755*
X01631Y00754*
X0163Y0075*
X01631Y00746*
X01634Y00742*
X01637Y0074*
X01642Y00739*
X01646Y0074*
X01649Y00742*
X01652Y00746*
X01653Y0075*
X01652Y00754*
X01652Y00755*
Y00763*
X01651Y00766*
X01649Y0077*
X01622Y00796*
X01624Y00801*
X01657*
X0167Y00787*
Y00754*
X0167Y0075*
X01671Y00746*
X01673Y00742*
X01677Y0074*
X01681Y00739*
X01685Y0074*
X01689Y00742*
X01691Y00746*
X01692Y0075*
X01691Y00754*
X01691Y00755*
Y00792*
X0169Y00796*
X01688Y00799*
X0169Y00804*
X0169Y00804*
X01693Y00807*
X01696Y0081*
X01697Y00815*
X01696Y00819*
X01696Y00819*
Y00848*
X01695Y00852*
X01693Y00856*
X01682Y00867*
X01678Y00869*
X01674Y0087*
G37*
G36*
X0103Y00835D02*
Y00826D01*
X01038*
X01038Y00827*
X01035Y00831*
X0103Y00834*
X0103Y00835*
G37*
G36*
X0102D02*
X01019Y00834D01*
X01015Y00831*
X01012Y00827*
X01012Y00826*
X0102*
Y00835*
G37*
G36*
X0143Y00848D02*
X01426Y00848D01*
X01422Y00845*
X0142Y00841*
X01419Y00837*
X0142Y00833*
X01422Y00829*
X01426Y00827*
X0143Y00826*
X01434Y00827*
X01438Y00829*
X0144Y00833*
X01441Y00837*
X0144Y00841*
X01438Y00845*
X01434Y00848*
X0143Y00848*
G37*
G36*
X01965Y00907D02*
X01952Y00905D01*
X0194Y009*
X0193Y00892*
X01922Y00882*
X01917Y0087*
X01915Y00858*
X01917Y00845*
X01922Y00833*
X0193Y00823*
X0194Y00815*
X01952Y0081*
X01965Y00808*
X01977Y0081*
X01989Y00815*
X01999Y00823*
X02007Y00833*
X02012Y00845*
X02014Y00858*
X02012Y0087*
X02007Y00882*
X01999Y00892*
X01989Y009*
X01977Y00905*
X01965Y00907*
G37*
G36*
X01072Y00804D02*
X01068Y00803D01*
X01064Y00801*
X01062Y00797*
X01061Y00793*
X01062Y00789*
X01064Y00785*
X01068Y00782*
X01072Y00782*
X01076Y00782*
X0108Y00785*
X01082Y00789*
X01083Y00793*
X01082Y00797*
X0108Y00801*
X01076Y00803*
X01072Y00804*
G37*
G36*
X00779Y00799D02*
X00775Y00798D01*
X00771Y00796*
X00769Y00792*
X00768Y00788*
X00769Y00783*
X00771Y0078*
X00775Y00777*
X00779Y00776*
X00783Y00777*
X00787Y0078*
X00789Y00783*
X0079Y00788*
X00789Y00792*
X00787Y00796*
X00783Y00798*
X00779Y00799*
G37*
G36*
X0083Y00794D02*
X00825Y00793D01*
X00822Y0079*
X00819Y00787*
X00818Y00783*
X00819Y00778*
X00822Y00775*
X00825Y00772*
X0083Y00771*
X00834Y00772*
X00837Y00775*
X0084Y00778*
X00841Y00783*
X0084Y00787*
X00837Y0079*
X00834Y00793*
X0083Y00794*
G37*
G36*
X03655Y00774D02*
X0365Y00773D01*
X03647Y0077*
X03644Y00767*
X03643Y00763*
X03644Y00758*
X03647Y00755*
X0365Y00752*
X03651Y00752*
X03655Y00747*
X03659Y00745*
X03663Y00744*
X03907*
X03907Y00744*
X03912Y00743*
X03916Y00744*
X03919Y00747*
X03922Y0075*
X03923Y00755*
X03922Y00759*
X03919Y00762*
X03916Y00765*
X03912Y00766*
X03907Y00765*
X03907Y00765*
X03667*
X03665Y00766*
X03665Y00767*
X03662Y0077*
X03659Y00773*
X03655Y00774*
G37*
G36*
X01503Y00755D02*
X01499Y00755D01*
X01495Y00752*
X01493Y00749*
X01492Y00744*
X01493Y0074*
X01495Y00736*
X01499Y00734*
X01503Y00733*
X01508Y00734*
X01511Y00736*
X01514Y0074*
X01514Y00744*
X01514Y00749*
X01511Y00752*
X01508Y00755*
X01503Y00755*
G37*
G36*
X01458D02*
X01454Y00755D01*
X0145Y00752*
X01448Y00749*
X01447Y00744*
X01448Y0074*
X0145Y00736*
X01454Y00734*
X01458Y00733*
X01463Y00734*
X01466Y00736*
X01469Y0074*
X01469Y00744*
X01469Y00749*
X01466Y00752*
X01463Y00755*
X01458Y00755*
G37*
G36*
X0083Y00748D02*
X00825Y00748D01*
X00822Y00745*
X00819Y00741*
X00818Y00737*
X00819Y00733*
X00822Y00729*
X00825Y00727*
X0083Y00726*
X00834Y00727*
X00837Y00729*
X0084Y00733*
X00841Y00737*
X0084Y00741*
X00837Y00745*
X00834Y00748*
X0083Y00748*
G37*
G36*
X00779Y00743D02*
X00775Y00743D01*
X00771Y0074*
X00769Y00736*
X00768Y00732*
X00769Y00728*
X00771Y00724*
X00775Y00722*
X00779Y00721*
X00783Y00722*
X00787Y00724*
X00789Y00728*
X0079Y00732*
X00789Y00736*
X00787Y0074*
X00783Y00743*
X00779Y00743*
G37*
G36*
X03655Y00739D02*
X0365Y00738D01*
X03647Y00736*
X03644Y00732*
X03643Y00728*
X03644Y00724*
X03647Y0072*
X0365Y00717*
X03655Y00717*
X03659Y00717*
X03662Y0072*
X03665Y00724*
X03666Y00728*
X03665Y00732*
X03662Y00736*
X03659Y00738*
X03655Y00739*
G37*
G36*
X0361D02*
X03605Y00738D01*
X03602Y00736*
X03599Y00732*
X03598Y00728*
X03599Y00724*
X03602Y0072*
X03605Y00717*
X0361Y00717*
X03614Y00717*
X03617Y0072*
X0362Y00724*
X03621Y00728*
X0362Y00732*
X03617Y00736*
X03614Y00738*
X0361Y00739*
G37*
G36*
X02416Y00733D02*
X02411Y00732D01*
X02408Y00729*
X02405Y00726*
X02404Y00721*
X02405Y00717*
X02408Y00713*
X02411Y00711*
X02416Y0071*
X0242Y00711*
X02423Y00713*
X02426Y00717*
X02427Y00721*
X02426Y00726*
X02423Y00729*
X0242Y00732*
X02416Y00733*
G37*
G36*
X01072Y00726D02*
X01068Y00726D01*
X01064Y00723*
X01062Y00719*
X01061Y00715*
X01062Y00711*
X01064Y00707*
X01068Y00705*
X01072Y00704*
X01076Y00705*
X0108Y00707*
X01082Y00711*
X01083Y00715*
X01082Y00719*
X0108Y00723*
X01076Y00726*
X01072Y00726*
G37*
G36*
X01393Y00709D02*
Y00701D01*
X01401*
X01401Y00702*
X01398Y00706*
X01393Y00709*
X01393Y00709*
G37*
G36*
X01383D02*
X01382Y00709D01*
X01377Y00706*
X01374Y00702*
X01374Y00701*
X01383*
Y00709*
G37*
G36*
X03765Y00738D02*
X0376Y00737D01*
X03757Y00734*
X03754Y00731*
X03753Y00727*
X03754Y00722*
X03757Y00719*
X0376Y00716*
X03761Y00716*
X03773Y00703*
X03777Y00701*
X03781Y007*
X03925*
X03925Y007*
X0393Y00699*
X03934Y007*
X03937Y00703*
X0394Y00706*
X03941Y00711*
X0394Y00715*
X03937Y00718*
X03934Y00721*
X0393Y00722*
X03925Y00721*
X03925Y00721*
X03785*
X03775Y0073*
X03775Y00731*
X03772Y00734*
X03769Y00737*
X03765Y00738*
G37*
G36*
X01685Y0071D02*
X01681Y00709D01*
X01677Y00707*
X01674Y00703*
X01674Y00699*
X01674Y00695*
X01677Y00691*
X01681Y00688*
X01685Y00688*
X01689Y00688*
X01693Y00691*
X01695Y00695*
X01696Y00699*
X01695Y00703*
X01693Y00707*
X01689Y00709*
X01685Y0071*
G37*
G36*
X01642D02*
X01637Y00709D01*
X01634Y00707*
X01631Y00703*
X0163Y00699*
X01631Y00695*
X01634Y00691*
X01637Y00688*
X01642Y00688*
X01646Y00688*
X01649Y00691*
X01652Y00695*
X01653Y00699*
X01652Y00703*
X01649Y00707*
X01646Y00709*
X01642Y0071*
G37*
G36*
X01598D02*
X01594Y00709D01*
X0159Y00707*
X01588Y00703*
X01587Y00699*
X01588Y00695*
X0159Y00691*
X01594Y00688*
X01598Y00688*
X01602Y00688*
X01606Y00691*
X01609Y00695*
X01609Y00699*
X01609Y00703*
X01606Y00707*
X01602Y00709*
X01598Y0071*
G37*
G36*
X01401Y00691D02*
X01393D01*
Y00683*
X01393Y00683*
X01398Y00686*
X01401Y00691*
X01401Y00691*
G37*
G36*
X01383D02*
X01374D01*
X01374Y00691*
X01377Y00686*
X01382Y00683*
X01383Y00683*
Y00691*
G37*
G36*
X01462Y00695D02*
X01457Y00694D01*
X01454Y00692*
X01451Y00688*
X01451Y00684*
X01451Y00679*
X01454Y00676*
X01457Y00673*
X01462Y00672*
X01466Y00673*
X0147Y00676*
X01472Y00679*
X01473Y00684*
X01472Y00688*
X0147Y00692*
X01466Y00694*
X01462Y00695*
G37*
G36*
X01685Y00667D02*
X01681Y00666D01*
X01677Y00663*
X01674Y0066*
X01674Y00656*
X01674Y00651*
X01677Y00648*
X01681Y00645*
X01685Y00644*
X01689Y00645*
X01693Y00648*
X01695Y00651*
X01696Y00656*
X01695Y0066*
X01693Y00663*
X01689Y00666*
X01685Y00667*
G37*
G36*
X01642D02*
X01637Y00666D01*
X01634Y00663*
X01631Y0066*
X0163Y00656*
X01631Y00651*
X01634Y00648*
X01637Y00645*
X01642Y00644*
X01646Y00645*
X01649Y00648*
X01652Y00651*
X01653Y00656*
X01652Y0066*
X01649Y00663*
X01646Y00666*
X01642Y00667*
G37*
G36*
X01598D02*
X01594Y00666D01*
X0159Y00663*
X01588Y0066*
X01587Y00656*
X01588Y00651*
X0159Y00648*
X01594Y00645*
X01598Y00644*
X01602Y00645*
X01606Y00648*
X01609Y00651*
X01609Y00656*
X01609Y0066*
X01606Y00663*
X01602Y00666*
X01598Y00667*
G37*
G36*
X0316Y00668D02*
Y00639D01*
X03189*
X03189Y00643*
X03185Y00651*
X0318Y00658*
X03172Y00664*
X03164Y00668*
X0316Y00668*
G37*
G36*
X0315D02*
X03146Y00668D01*
X03137Y00664*
X0313Y00658*
X03124Y00651*
X03121Y00643*
X0312Y00639*
X0315*
Y00668*
G37*
G36*
X01685Y00623D02*
X01681Y00623D01*
X01677Y0062*
X01674Y00616*
X01674Y00612*
X01674Y00608*
X01677Y00604*
X01681Y00602*
X01685Y00601*
X01689Y00602*
X01693Y00604*
X01695Y00608*
X01696Y00612*
X01695Y00616*
X01693Y0062*
X01689Y00623*
X01685Y00623*
G37*
G36*
X01642D02*
X01637Y00623D01*
X01634Y0062*
X01631Y00616*
X0163Y00612*
X01631Y00608*
X01634Y00604*
X01637Y00602*
X01642Y00601*
X01646Y00602*
X01649Y00604*
X01652Y00608*
X01653Y00612*
X01652Y00616*
X01649Y0062*
X01646Y00623*
X01642Y00623*
G37*
G36*
X01598D02*
X01594Y00623D01*
X0159Y0062*
X01588Y00616*
X01587Y00612*
X01588Y00608*
X0159Y00604*
X01594Y00602*
X01598Y00601*
X01602Y00602*
X01606Y00604*
X01609Y00608*
X01609Y00612*
X01609Y00616*
X01606Y0062*
X01602Y00623*
X01598Y00623*
G37*
G36*
X04072Y00672D02*
X03928D01*
X03923Y00671*
X03919Y00669*
X03892Y00642*
X03889Y00638*
X03888Y00633*
X03889Y0063*
X03886Y00625*
X03852*
X03844Y00623*
X03838Y00619*
X03818Y006*
X03817Y006*
X03808Y00601*
X038Y006*
X03792Y00597*
X03786Y00592*
X0378Y00585*
X03777Y00577*
X03776Y00569*
X03777Y00561*
X0378Y00553*
X03786Y00546*
X03792Y00541*
X038Y00538*
X03808Y00537*
X03817Y00538*
X03824Y00541*
X03831Y00546*
X03836Y00553*
X0384Y00561*
X0384Y00564*
X0386Y00584*
X04246*
X04249Y00579*
X04248Y00577*
X04249Y00572*
X04252Y00569*
X04255Y00566*
X0426Y00565*
X04264Y00566*
X04267Y00569*
X04269Y00571*
X04269Y00571*
X04274*
X04274Y00571*
X04276Y00569*
X04279Y00566*
X04284Y00565*
X04288Y00566*
X04291Y00569*
X04293Y00571*
X04293Y00571*
X04298*
X04298Y00571*
X043Y00569*
X04303Y00566*
X04308Y00565*
X04312Y00566*
X04315Y00569*
X04317Y00571*
X04317Y00571*
X04322*
X04322Y00571*
X04324Y00569*
X04327Y00566*
X04332Y00565*
X04336Y00566*
X04339Y00569*
X04342Y00572*
X04343Y00577*
X04342Y00579*
X04345Y00584*
X04411*
X04418Y00586*
X04425Y0059*
X04429Y00597*
X04431Y00605*
X04429Y00612*
X04425Y00619*
X04418Y00623*
X04411Y00625*
X04367*
X04364Y0063*
X04366Y00632*
X04367Y00633*
X04372Y00635*
X04374Y0064*
X04375Y00645*
X04374Y00649*
X04372Y00654*
X04367Y00656*
X04363Y00657*
X0436*
X04355Y00656*
X0435Y00654*
X04342Y00645*
X04139*
X04137Y0065*
X04137Y00652*
X04138Y00656*
X04137Y0066*
X04135Y00664*
X04131Y00666*
X04127Y00667*
X04123Y00666*
X04119Y00664*
X04117Y0066*
X04116Y00656*
X04117Y00652*
X04118Y0065*
X04115Y00645*
X04104*
X04081Y00669*
X04076Y00671*
X04072Y00672*
G37*
G36*
X03189Y00629D02*
X0316D01*
Y00599*
X03164Y00599*
X03172Y00603*
X0318Y00609*
X03185Y00616*
X03189Y00624*
X03189Y00629*
G37*
G36*
X0315D02*
X0312D01*
X03121Y00624*
X03124Y00616*
X0313Y00609*
X03137Y00603*
X03146Y00599*
X0315Y00599*
Y00629*
G37*
G36*
X01462Y00618D02*
X01457Y00617D01*
X01454Y00615*
X01451Y00611*
X01451Y00607*
X01451Y00603*
X01454Y00599*
X01457Y00597*
X01462Y00596*
X01466Y00597*
X0147Y00599*
X01472Y00603*
X01473Y00607*
X01472Y00611*
X0147Y00615*
X01466Y00617*
X01462Y00618*
G37*
G36*
X01736Y00608D02*
X01732Y00607D01*
X01728Y00604*
X01726Y00601*
X01725Y00596*
X01726Y00592*
X01728Y00589*
X01732Y00586*
X01736Y00585*
X0174Y00586*
X01744Y00589*
X01746Y00592*
X01747Y00596*
X01746Y00601*
X01744Y00604*
X0174Y00607*
X01736Y00608*
G37*
G36*
X04531Y00588D02*
X04527Y00587D01*
X04523Y00584*
X04522Y00582*
X04522Y00582*
X04517*
X04517Y00582*
X04515Y00584*
X04512Y00587*
X04507Y00588*
X04503Y00587*
X04499Y00584*
X04498Y00582*
X04498Y00582*
X04493*
X04493Y00582*
X04491Y00584*
X04488Y00587*
X04483Y00588*
X04479Y00587*
X04475Y00584*
X04474Y00582*
X04474Y00582*
X04469*
X04469Y00582*
X04467Y00584*
X04464Y00587*
X04459Y00588*
X04455Y00587*
X04451Y00584*
X04449Y00581*
X04448Y00577*
X04449Y00572*
X04451Y00569*
X04455Y00566*
X04459Y00565*
X04464Y00566*
X04467Y00569*
X04469Y00571*
X04469Y00571*
X04474*
X04474Y00571*
X04475Y00569*
X04479Y00566*
X04483Y00565*
X04488Y00566*
X04491Y00569*
X04493Y00571*
X04493Y00571*
X04498*
X04498Y00571*
X04499Y00569*
X04503Y00566*
X04507Y00565*
X04512Y00566*
X04515Y00569*
X04517Y00571*
X04517Y00571*
X04522*
X04522Y00571*
X04523Y00569*
X04527Y00566*
X04531Y00565*
X04536Y00566*
X04539Y00569*
X04542Y00572*
X04543Y00577*
X04542Y00581*
X04539Y00584*
X04536Y00587*
X04531Y00588*
G37*
G36*
X01701Y00573D02*
X01697Y00572D01*
X01694Y0057*
X01691Y0057*
X01688Y0057*
X01685Y00572*
X01681Y00573*
X01677Y00572*
X01673Y00569*
X01671Y00566*
X0167Y00562*
X01671Y00557*
X01673Y00554*
X01677Y00551*
X01681Y0055*
X01685Y00551*
X01688Y00553*
X01691Y00553*
X01694Y00553*
X01697Y00551*
X01701Y0055*
X01705Y00551*
X01709Y00554*
X01711Y00557*
X01712Y00562*
X01711Y00566*
X01709Y00569*
X01705Y00572*
X01701Y00573*
G37*
G36*
X03754Y00586D02*
X03749Y00585D01*
X03746Y00583*
X03743Y00579*
X03743Y00575*
X03743Y00571*
X03746Y00567*
X03749Y00565*
X03754Y00564*
X03758Y00565*
X03762Y00567*
X03764Y00571*
X03765Y00575*
X03764Y00579*
X03762Y00583*
X03758Y00585*
X03754Y00586*
G37*
G36*
X03712D02*
X03708Y00585D01*
X03704Y00583*
X03702Y00579*
X03701Y00575*
X03702Y00571*
X03704Y00567*
X03708Y00565*
X03712Y00564*
X03716Y00565*
X0372Y00567*
X03722Y00571*
X03723Y00575*
X03722Y00579*
X0372Y00583*
X03716Y00585*
X03712Y00586*
G37*
G36*
X02861Y00583D02*
X02856Y00582D01*
X02853Y00579*
X0285Y00576*
X02849Y00572*
X0285Y00567*
X02853Y00564*
X02856Y00561*
X02861Y0056*
X02865Y00561*
X02869Y00564*
X02871Y00567*
X02872Y00572*
X02871Y00576*
X02869Y00579*
X02865Y00582*
X02861Y00583*
G37*
G36*
X02517Y00566D02*
X02512Y00566D01*
X02509Y00563*
X02506Y00559*
X02505Y00555*
X02506Y00551*
X02509Y00547*
X02512Y00545*
X02517Y00544*
X02521Y00545*
X02524Y00547*
X02527Y00551*
X02528Y00555*
X02527Y00559*
X02524Y00563*
X02521Y00566*
X02517Y00566*
G37*
G36*
X02567Y00561D02*
X02562Y0056D01*
X02559Y00557*
X02556Y00554*
X02555Y0055*
X02556Y00545*
X02559Y00542*
X02562Y00539*
X02567Y00538*
X02571Y00539*
X02574Y00542*
X02577Y00545*
X02578Y0055*
X02577Y00554*
X02574Y00557*
X02571Y0056*
X02567Y00561*
G37*
G36*
X03604Y00553D02*
X03599Y00552D01*
X03596Y00549*
X03593Y00546*
X03593Y00542*
X03593Y00537*
X03596Y00534*
X03599Y00531*
X03604Y0053*
X03608Y00531*
X03612Y00534*
X03614Y00537*
X03615Y00542*
X03614Y00546*
X03612Y00549*
X03608Y00552*
X03604Y00553*
G37*
G36*
X04752Y00469D02*
X04748Y00468D01*
X04744Y00465*
X04742Y00462*
X04741Y00458*
X04742Y00453*
X04744Y0045*
X04748Y00447*
X04752Y00446*
X04757Y00447*
X0476Y0045*
X04763Y00453*
X04764Y00458*
X04763Y00462*
X0476Y00465*
X04757Y00468*
X04752Y00469*
G37*
G36*
X04672D02*
X04668Y00468D01*
X04664Y00465*
X04662Y00462*
X04661Y00458*
X04662Y00453*
X04664Y0045*
X04668Y00447*
X04672Y00446*
X04677Y00447*
X0468Y0045*
X04683Y00453*
X04684Y00458*
X04683Y00462*
X0468Y00465*
X04677Y00468*
X04672Y00469*
G37*
G36*
X04592D02*
X04588Y00468D01*
X04584Y00465*
X04582Y00462*
X04581Y00458*
X04582Y00453*
X04584Y0045*
X04588Y00447*
X04592Y00446*
X04597Y00447*
X046Y0045*
X04603Y00453*
X04604Y00458*
X04603Y00462*
X046Y00465*
X04597Y00468*
X04592Y00469*
G37*
G36*
X04512D02*
X04508Y00468D01*
X04504Y00465*
X04502Y00462*
X04501Y00458*
X04502Y00453*
X04504Y0045*
X04508Y00447*
X04512Y00446*
X04517Y00447*
X0452Y0045*
X04523Y00453*
X04524Y00458*
X04523Y00462*
X0452Y00465*
X04517Y00468*
X04512Y00469*
G37*
G36*
X04432D02*
X04428Y00468D01*
X04424Y00465*
X04422Y00462*
X04421Y00458*
X04422Y00453*
X04424Y0045*
X04428Y00447*
X04432Y00446*
X04437Y00447*
X0444Y0045*
X04443Y00453*
X04444Y00458*
X04443Y00462*
X0444Y00465*
X04437Y00468*
X04432Y00469*
G37*
G36*
X04352D02*
X04348Y00468D01*
X04344Y00465*
X04342Y00462*
X04341Y00458*
X04342Y00453*
X04344Y0045*
X04348Y00447*
X04352Y00446*
X04357Y00447*
X0436Y0045*
X04363Y00453*
X04364Y00458*
X04363Y00462*
X0436Y00465*
X04357Y00468*
X04352Y00469*
G37*
G36*
X04272D02*
X04268Y00468D01*
X04264Y00465*
X04262Y00462*
X04261Y00458*
X04262Y00453*
X04264Y0045*
X04268Y00447*
X04272Y00446*
X04277Y00447*
X0428Y0045*
X04283Y00453*
X04284Y00458*
X04283Y00462*
X0428Y00465*
X04277Y00468*
X04272Y00469*
G37*
G36*
X04195Y00469D02*
X0419Y00468D01*
X04187Y00465*
X04184Y00462*
X04183Y00458*
X04184Y00453*
X04187Y0045*
X0419Y00447*
X04195Y00446*
X04199Y00447*
X04202Y0045*
X04205Y00453*
X04206Y00458*
X04205Y00462*
X04202Y00465*
X04199Y00468*
X04195Y00469*
G37*
G36*
X01228Y00537D02*
X01216D01*
X01204Y00535*
X01193Y0053*
X01183Y00523*
X01175Y00513*
X0117Y00501*
X01169Y00489*
X0117Y00477*
X01175Y00465*
X01183Y00455*
X01193Y00448*
X01204Y00443*
X01216Y00441*
X01228*
X01241Y00443*
X01252Y00448*
X01262Y00455*
X0127Y00465*
X01274Y00477*
X01276Y00489*
X01274Y00501*
X0127Y00513*
X01262Y00523*
X01252Y0053*
X01241Y00535*
X01228Y00537*
G37*
G36*
X00476Y00527D02*
X00462Y00525D01*
X0045Y0052*
X00439Y00512*
X00431Y00501*
X00426Y00489*
X00424Y00476*
X00426Y00462*
X00431Y0045*
X00439Y00439*
X0045Y00431*
X00462Y00426*
X00476Y00424*
X00489Y00426*
X00501Y00431*
X00512Y00439*
X0052Y0045*
X00525Y00462*
X00527Y00476*
X00525Y00489*
X0052Y00501*
X00512Y00512*
X00501Y0052*
X00489Y00525*
X00476Y00527*
G37*
G36*
X04851Y01237D02*
Y01188D01*
X049*
X04898Y01197*
X04893Y0121*
X04884Y01221*
X04873Y0123*
X0486Y01235*
X04851Y01237*
G37*
G36*
X04841D02*
X04831Y01235D01*
X04818Y0123*
X04807Y01221*
X04798Y0121*
X04793Y01197*
X04791Y01188*
X04841*
Y01237*
G37*
G36*
X05071Y01208D02*
X05067Y01207D01*
X05063Y01204*
X05061Y01201*
X0506Y01197*
X05061Y01192*
X05063Y01189*
X05067Y01186*
X05071Y01185*
X05075Y01186*
X05079Y01189*
X05081Y01192*
X05082Y01197*
X05081Y01201*
X05079Y01204*
X05075Y01207*
X05071Y01208*
G37*
G36*
X04919Y01137D02*
Y01129D01*
X04928*
X04927Y01129*
X04924Y01134*
X0492Y01137*
X04919Y01137*
G37*
G36*
X04909D02*
X04909Y01137D01*
X04904Y01134*
X04901Y01129*
X04901Y01129*
X04909*
Y01137*
G37*
G36*
X049Y01178D02*
X04851D01*
Y01128*
X0486Y0113*
X04873Y01135*
X04884Y01144*
X04893Y01155*
X04898Y01168*
X049Y01178*
G37*
G36*
X04841D02*
X04791D01*
X04793Y01168*
X04798Y01155*
X04807Y01144*
X04818Y01135*
X04831Y0113*
X04841Y01128*
Y01178*
G37*
G36*
X05047Y01127D02*
Y01118D01*
X05056*
X05055Y01119*
X05052Y01124*
X05048Y01127*
X05047Y01127*
G37*
G36*
X05037D02*
X05037Y01127D01*
X05032Y01124*
X05029Y01119*
X05029Y01118*
X05037*
Y01127*
G37*
G36*
X05004D02*
Y01118D01*
X05012*
X05012Y01119*
X05009Y01124*
X05004Y01127*
X05004Y01127*
G37*
G36*
X04994D02*
X04993Y01127D01*
X04989Y01124*
X04986Y01119*
X04986Y01118*
X04994*
Y01127*
G37*
G36*
X04961D02*
Y01118D01*
X04969*
X04969Y01119*
X04966Y01124*
X04961Y01127*
X04961Y01127*
G37*
G36*
X04951D02*
X0495Y01127D01*
X04946Y01124*
X04942Y01119*
X04942Y01118*
X04951*
Y01127*
G37*
G36*
X04928Y01119D02*
X04919D01*
Y0111*
X0492Y0111*
X04924Y01113*
X04927Y01118*
X04928Y01119*
G37*
G36*
X04909D02*
X04901D01*
X04901Y01118*
X04904Y01113*
X04909Y0111*
X04909Y0111*
Y01119*
G37*
G36*
X04645Y0117D02*
X04636Y01169D01*
X04629Y01165*
X04622Y0116*
X04617Y01154*
X04614Y01146*
X04613Y01138*
X04614Y01129*
X04617Y01121*
X04622Y01115*
X04629Y0111*
X04636Y01106*
X04645Y01105*
X04653Y01106*
X04661Y0111*
X04667Y01115*
X04673Y01121*
X04676Y01129*
X04677Y01138*
X04676Y01146*
X04673Y01154*
X04667Y0116*
X04661Y01165*
X04653Y01169*
X04645Y0117*
G37*
G36*
X05056Y01108D02*
X05047D01*
Y011*
X05048Y011*
X05052Y01103*
X05055Y01108*
X05056Y01108*
G37*
G36*
X05037D02*
X05029D01*
X05029Y01108*
X05032Y01103*
X05037Y011*
X05037Y011*
Y01108*
G37*
G36*
X05012D02*
X05004D01*
Y011*
X05004Y011*
X05009Y01103*
X05012Y01108*
X05012Y01108*
G37*
G36*
X04994D02*
X04986D01*
X04986Y01108*
X04989Y01103*
X04993Y011*
X04994Y011*
Y01108*
G37*
G36*
X04969D02*
X04961D01*
Y011*
X04961Y011*
X04966Y01103*
X04969Y01108*
X04969Y01108*
G37*
G36*
X04951D02*
X04942D01*
X04942Y01108*
X04946Y01103*
X0495Y011*
X04951Y011*
Y01108*
G37*
G36*
X04919Y01087D02*
Y01079D01*
X04928*
X04927Y01079*
X04924Y01084*
X0492Y01087*
X04919Y01087*
G37*
G36*
X04909D02*
X04909Y01087D01*
X04904Y01084*
X04901Y01079*
X04901Y01079*
X04909*
Y01087*
G37*
G36*
X05047Y01083D02*
Y01075D01*
X05056*
X05055Y01076*
X05052Y0108*
X05048Y01083*
X05047Y01083*
G37*
G36*
X05037D02*
X05037Y01083D01*
X05032Y0108*
X05029Y01076*
X05029Y01075*
X05037*
Y01083*
G37*
G36*
X05004D02*
Y01075D01*
X05012*
X05012Y01076*
X05009Y0108*
X05004Y01083*
X05004Y01083*
G37*
G36*
X04994D02*
X04993Y01083D01*
X04989Y0108*
X04986Y01076*
X04986Y01075*
X04994*
Y01083*
G37*
G36*
X04961D02*
Y01075D01*
X04969*
X04969Y01076*
X04966Y0108*
X04961Y01083*
X04961Y01083*
G37*
G36*
X04951D02*
X0495Y01083D01*
X04946Y0108*
X04942Y01076*
X04942Y01075*
X04951*
Y01083*
G37*
G36*
X04928Y01069D02*
X04919D01*
Y0106*
X0492Y0106*
X04924Y01063*
X04927Y01068*
X04928Y01069*
G37*
G36*
X04909D02*
X04901D01*
X04901Y01068*
X04904Y01063*
X04909Y0106*
X04909Y0106*
Y01069*
G37*
G36*
X05056Y01065D02*
X05047D01*
Y01057*
X05048Y01057*
X05052Y0106*
X05055Y01065*
X05056Y01065*
G37*
G36*
X05037D02*
X05029D01*
X05029Y01065*
X05032Y0106*
X05037Y01057*
X05037Y01057*
Y01065*
G37*
G36*
X05012D02*
X05004D01*
Y01057*
X05004Y01057*
X05009Y0106*
X05012Y01065*
X05012Y01065*
G37*
G36*
X04994D02*
X04986D01*
X04986Y01065*
X04989Y0106*
X04993Y01057*
X04994Y01057*
Y01065*
G37*
G36*
X04969D02*
X04961D01*
Y01057*
X04961Y01057*
X04966Y0106*
X04969Y01065*
X04969Y01065*
G37*
G36*
X04951D02*
X04942D01*
X04942Y01065*
X04946Y0106*
X0495Y01057*
X04951Y01057*
Y01065*
G37*
G36*
X05047Y0104D02*
Y01032D01*
X05056*
X05055Y01032*
X05052Y01037*
X05048Y0104*
X05047Y0104*
G37*
G36*
X05037D02*
X05037Y0104D01*
X05032Y01037*
X05029Y01032*
X05029Y01032*
X05037*
Y0104*
G37*
G36*
X05004D02*
Y01032D01*
X05012*
X05012Y01032*
X05009Y01037*
X05004Y0104*
X05004Y0104*
G37*
G36*
X04994D02*
X04993Y0104D01*
X04989Y01037*
X04986Y01032*
X04986Y01032*
X04994*
Y0104*
G37*
G36*
X04961D02*
Y01032D01*
X04969*
X04969Y01032*
X04966Y01037*
X04961Y0104*
X04961Y0104*
G37*
G36*
X04951D02*
X0495Y0104D01*
X04946Y01037*
X04942Y01032*
X04942Y01032*
X04951*
Y0104*
G37*
G36*
X04919Y01037D02*
Y01029D01*
X04928*
X04927Y01029*
X04924Y01034*
X0492Y01037*
X04919Y01037*
G37*
G36*
X04909D02*
X04909Y01037D01*
X04904Y01034*
X04901Y01029*
X04901Y01029*
X04909*
Y01037*
G37*
G36*
X05056Y01022D02*
X05047D01*
Y01014*
X05048Y01014*
X05052Y01017*
X05055Y01021*
X05056Y01022*
G37*
G36*
X05037D02*
X05029D01*
X05029Y01021*
X05032Y01017*
X05037Y01014*
X05037Y01014*
Y01022*
G37*
G36*
X05012D02*
X05004D01*
Y01014*
X05004Y01014*
X05009Y01017*
X05012Y01021*
X05012Y01022*
G37*
G36*
X04994D02*
X04986D01*
X04986Y01021*
X04989Y01017*
X04993Y01014*
X04994Y01014*
Y01022*
G37*
G36*
X04969D02*
X04961D01*
Y01014*
X04961Y01014*
X04966Y01017*
X04969Y01021*
X04969Y01022*
G37*
G36*
X04951D02*
X04942D01*
X04942Y01021*
X04946Y01017*
X0495Y01014*
X04951Y01014*
Y01022*
G37*
G36*
X04928Y01019D02*
X04919D01*
Y0101*
X0492Y0101*
X04924Y01013*
X04927Y01018*
X04928Y01019*
G37*
G36*
X04909D02*
X04901D01*
X04901Y01018*
X04904Y01013*
X04909Y0101*
X04909Y0101*
Y01019*
G37*
G36*
X05047Y00997D02*
Y00989D01*
X05056*
X05055Y00989*
X05052Y00994*
X05048Y00997*
X05047Y00997*
G37*
G36*
X05037D02*
X05037Y00997D01*
X05032Y00994*
X05029Y00989*
X05029Y00989*
X05037*
Y00997*
G37*
G36*
X05004D02*
Y00989D01*
X05012*
X05012Y00989*
X05009Y00994*
X05004Y00997*
X05004Y00997*
G37*
G36*
X04994D02*
X04993Y00997D01*
X04989Y00994*
X04986Y00989*
X04986Y00989*
X04994*
Y00997*
G37*
G36*
X04961D02*
Y00989D01*
X04969*
X04969Y00989*
X04966Y00994*
X04961Y00997*
X04961Y00997*
G37*
G36*
X04951D02*
X0495Y00997D01*
X04946Y00994*
X04942Y00989*
X04942Y00989*
X04951*
Y00997*
G37*
G36*
X04919Y00987D02*
Y00979D01*
X04928*
X04927Y00979*
X04924Y00984*
X0492Y00987*
X04919Y00987*
G37*
G36*
X04909D02*
X04909Y00987D01*
X04904Y00984*
X04901Y00979*
X04901Y00979*
X04909*
Y00987*
G37*
G36*
X05056Y00979D02*
X05047D01*
Y0097*
X05048Y0097*
X05052Y00973*
X05055Y00978*
X05056Y00979*
G37*
G36*
X05037D02*
X05029D01*
X05029Y00978*
X05032Y00973*
X05037Y0097*
X05037Y0097*
Y00979*
G37*
G36*
X05012D02*
X05004D01*
Y0097*
X05004Y0097*
X05009Y00973*
X05012Y00978*
X05012Y00979*
G37*
G36*
X04994D02*
X04986D01*
X04986Y00978*
X04989Y00973*
X04993Y0097*
X04994Y0097*
Y00979*
G37*
G36*
X04969D02*
X04961D01*
Y0097*
X04961Y0097*
X04966Y00973*
X04969Y00978*
X04969Y00979*
G37*
G36*
X04951D02*
X04942D01*
X04942Y00978*
X04946Y00973*
X0495Y0097*
X04951Y0097*
Y00979*
G37*
G36*
X04928Y00969D02*
X04919D01*
Y0096*
X0492Y0096*
X04924Y00963*
X04927Y00968*
X04928Y00969*
G37*
G36*
X04909D02*
X04901D01*
X04901Y00968*
X04904Y00963*
X04909Y0096*
X04909Y0096*
Y00969*
G37*
G36*
X04683Y00947D02*
X04678Y00946D01*
X04675Y00944*
X04673Y00941*
X0467Y00941*
X0467*
X04667Y00941*
X04665Y00944*
X04662Y00946*
X04658Y00947*
X04653Y00946*
X0465Y00944*
X04647Y0094*
X04646Y00936*
X04647Y00932*
X0465Y00928*
X04653Y00926*
X04658Y00925*
X04662Y00926*
X04665Y00928*
X04667Y00931*
X0467Y00931*
X0467*
X04673Y00931*
X04675Y00928*
X04678Y00926*
X04683Y00925*
X04687Y00926*
X0469Y00928*
X04692Y00931*
X04695Y00931*
X04695Y00931*
X04698Y00931*
X047Y00928*
X04703Y00926*
X04708Y00925*
X04712Y00926*
X04715Y00928*
X04717Y00931*
X0472Y00931*
X0472*
X04723Y00931*
X04725Y00928*
X04728Y00926*
X04733Y00925*
X04737Y00926*
X0474Y00928*
X04743Y00932*
X04744Y00936*
X04743Y0094*
X0474Y00944*
X04737Y00946*
X04733Y00947*
X04728Y00946*
X04725Y00944*
X04723Y00941*
X0472Y00941*
X0472*
X04717Y00941*
X04715Y00944*
X04712Y00946*
X04708Y00947*
X04703Y00946*
X047Y00944*
X04698Y00941*
X04695Y00941*
X04695Y00941*
X04692Y00941*
X0469Y00944*
X04687Y00946*
X04683Y00947*
G37*
G36*
X04322Y01169D02*
X04258D01*
Y01106*
X04322*
Y01169*
G37*
G36*
X04128Y01109D02*
Y01101D01*
X04136*
X04136Y01101*
X04133Y01106*
X04128Y01109*
X04128Y01109*
G37*
G36*
X04118D02*
X04118Y01109D01*
X04113Y01106*
X0411Y01101*
X0411Y01101*
X04118*
Y01109*
G37*
G36*
X04136Y01091D02*
X04128D01*
Y01082*
X04128Y01082*
X04133Y01085*
X04136Y0109*
X04136Y01091*
G37*
G36*
X04118D02*
X0411D01*
X0411Y0109*
X04113Y01085*
X04118Y01082*
X04118Y01082*
Y01091*
G37*
G36*
X04129Y01032D02*
Y01024D01*
X04137*
X04137Y01024*
X04134Y01029*
X04129Y01032*
X04129Y01032*
G37*
G36*
X04119D02*
X04118Y01032D01*
X04113Y01029*
X0411Y01024*
X0411Y01024*
X04119*
Y01032*
G37*
G36*
X04137Y01014D02*
X04129D01*
Y01005*
X04129Y01005*
X04134Y01008*
X04137Y01013*
X04137Y01014*
G37*
G36*
X04119D02*
X0411D01*
X0411Y01013*
X04113Y01008*
X04118Y01005*
X04119Y01005*
Y01014*
G37*
G36*
X04014Y01226D02*
X04009Y01225D01*
X04006Y01223*
X04003Y01219*
X04002Y01215*
X04003Y0121*
X04006Y01207*
X04009Y01204*
X04014Y01204*
X04018Y01204*
X04021Y01207*
X04024Y0121*
X04025Y01215*
X04024Y01219*
X04021Y01223*
X04018Y01225*
X04014Y01226*
G37*
G36*
X03898Y01176D02*
Y01168D01*
X03906*
X03906Y01168*
X03903Y01173*
X03898Y01176*
X03898Y01176*
G37*
G36*
X03888D02*
X03887Y01176D01*
X03882Y01173*
X03879Y01168*
X03879Y01168*
X03888*
Y01176*
G37*
G36*
X03833Y01173D02*
X03828Y01172D01*
X03825Y0117*
X03822Y01166*
X03821Y01162*
X03822Y01157*
X03825Y01154*
X03828Y01151*
X03833Y0115*
X03837Y01151*
X0384Y01154*
X03843Y01157*
X03844Y01162*
X03843Y01166*
X0384Y0117*
X03837Y01172*
X03833Y01173*
G37*
G36*
X03906Y01158D02*
X03898D01*
Y01149*
X03898Y01149*
X03903Y01153*
X03906Y01157*
X03906Y01158*
G37*
G36*
X03888D02*
X03879D01*
X03879Y01157*
X03882Y01153*
X03887Y01149*
X03888Y01149*
Y01158*
G37*
G36*
X03925Y01105D02*
Y01096D01*
X03934*
X03933Y01097*
X0393Y01101*
X03926Y01104*
X03925Y01105*
G37*
G36*
X03915D02*
X03915Y01104D01*
X0391Y01101*
X03907Y01097*
X03907Y01096*
X03915*
Y01105*
G37*
G36*
X03985Y01117D02*
X0398Y01116D01*
X03977Y01113*
X03974Y0111*
X03973Y01106*
X03974Y01101*
X03977Y01098*
X0398Y01095*
X03985Y01094*
X03989Y01095*
X03992Y01098*
X03995Y01101*
X03996Y01106*
X03995Y0111*
X03992Y01113*
X03989Y01116*
X03985Y01117*
G37*
G36*
X03489Y01107D02*
X03484Y01106D01*
X03481Y01104*
X03478Y011*
X03477Y01096*
X03478Y01092*
X03481Y01088*
X03484Y01086*
X03489Y01085*
X03493Y01086*
X03496Y01088*
X03499Y01092*
X035Y01096*
X03499Y011*
X03496Y01104*
X03493Y01106*
X03489Y01107*
G37*
G36*
X04055Y01107D02*
X04051Y01106D01*
X04047Y01103*
X04045Y011*
X04044Y01096*
X04045Y01091*
X04047Y01088*
X04051Y01085*
X04055Y01084*
X04059Y01085*
X04063Y01088*
X04065Y01091*
X04066Y01096*
X04065Y011*
X04063Y01103*
X04059Y01106*
X04055Y01107*
G37*
G36*
X03548Y01096D02*
X03544Y01095D01*
X0354Y01092*
X03538Y01089*
X03537Y01085*
X03538Y0108*
X0354Y01077*
X03544Y01074*
X03548Y01073*
X03552Y01074*
X03556Y01077*
X03558Y0108*
X03559Y01085*
X03558Y01089*
X03556Y01092*
X03552Y01095*
X03548Y01096*
G37*
G36*
X03601D02*
X03597Y01095D01*
X03593Y01092*
X03591Y01089*
X0359Y01085*
X03591Y0108*
X03593Y01077*
X03597Y01074*
X03601Y01073*
X03605Y01074*
X03606Y01074*
X03649*
X03652Y01069*
X03652Y01069*
X03651Y01064*
X03652Y0106*
X03654Y01056*
X03658Y01054*
X03662Y01053*
X03666Y01054*
X0367Y01056*
X03672Y0106*
X03673Y01064*
X03672Y01069*
X03672Y01069*
X03675Y01074*
X03708*
X03711Y01069*
X0371Y01068*
X03709Y01064*
X0371Y0106*
X03713Y01056*
X03716Y01054*
X03721Y01053*
X03725Y01054*
X03728Y01056*
X03731Y0106*
X03732Y01064*
X03731Y01068*
X0373Y01069*
X03733Y01074*
X03755*
X03769Y0106*
X03769Y0106*
X03772Y01056*
X03775Y01054*
X0378Y01053*
X03784Y01054*
X03787Y01056*
X0379Y0106*
X03791Y01064*
X0379Y01069*
X03787Y01072*
X03784Y01075*
X03783Y01075*
X03767Y01092*
X03763Y01094*
X03759Y01095*
X03606*
X03605Y01095*
X03601Y01096*
G37*
G36*
X03931Y01037D02*
X03926Y01036D01*
X03923Y01034*
X0392Y0103*
X03919Y01026*
X0392Y01022*
X03923Y01018*
X03926Y01016*
X03931Y01015*
X03935Y01016*
X03938Y01018*
X03941Y01022*
X03942Y01026*
X03941Y0103*
X03938Y01034*
X03935Y01036*
X03931Y01037*
G37*
G36*
X04055Y0103D02*
X04051Y01029D01*
X04047Y01026*
X04045Y01023*
X04044Y01019*
X04045Y01014*
X04047Y01011*
X04051Y01008*
X04055Y01007*
X04059Y01008*
X04063Y01011*
X04065Y01014*
X04066Y01019*
X04065Y01023*
X04063Y01026*
X04059Y01029*
X04055Y0103*
G37*
G36*
X03548Y00965D02*
X03544Y00964D01*
X0354Y00962*
X03538Y00958*
X03537Y00954*
X03538Y00949*
X0354Y00946*
X03544Y00943*
X03548Y00943*
X03552Y00943*
X03556Y00946*
X03558Y00949*
X03559Y00954*
X03558Y00958*
X03556Y00962*
X03552Y00964*
X03548Y00965*
G37*
G36*
X03549Y00903D02*
X03545Y00902D01*
X03541Y009*
X03539Y00896*
X03538Y00892*
X03539Y00888*
X03541Y00884*
X03545Y00882*
X03549Y00881*
X03553Y00882*
X03557Y00884*
X03559Y00888*
X0356Y00892*
X03559Y00896*
X03557Y009*
X03553Y00902*
X03549Y00903*
G37*
G36*
X05362Y01236D02*
X05357Y01235D01*
X05354Y01233*
X05351Y01229*
X0535Y01225*
X05351Y0122*
X05354Y01217*
X05357Y01214*
X05362Y01213*
X05366Y01214*
X05369Y01217*
X05372Y0122*
X05373Y01225*
X05372Y01229*
X05369Y01233*
X05366Y01235*
X05362Y01236*
G37*
G36*
X05312D02*
X05307Y01235D01*
X05304Y01233*
X05301Y01229*
X053Y01225*
X05301Y0122*
X05304Y01217*
X05307Y01214*
X05312Y01213*
X05316Y01214*
X05319Y01217*
X05322Y0122*
X05323Y01225*
X05322Y01229*
X05319Y01233*
X05316Y01235*
X05312Y01236*
G37*
G36*
X05262D02*
X05257Y01235D01*
X05254Y01233*
X05251Y01229*
X0525Y01225*
X05251Y0122*
X05254Y01217*
X05257Y01214*
X05262Y01213*
X05266Y01214*
X05269Y01217*
X05272Y0122*
X05273Y01225*
X05272Y01229*
X05269Y01233*
X05266Y01235*
X05262Y01236*
G37*
G36*
X05212D02*
X05207Y01235D01*
X05204Y01233*
X05201Y01229*
X052Y01225*
X05201Y0122*
X05204Y01217*
X05207Y01214*
X05212Y01213*
X05216Y01214*
X05219Y01217*
X05222Y0122*
X05223Y01225*
X05222Y01229*
X05219Y01233*
X05216Y01235*
X05212Y01236*
G37*
G36*
X05356Y01134D02*
Y01125D01*
X05365*
X05365Y01126*
X05362Y0113*
X05357Y01133*
X05356Y01134*
G37*
G36*
X05346D02*
X05346Y01133D01*
X05341Y0113*
X05338Y01126*
X05338Y01125*
X05346*
Y01134*
G37*
G36*
X05313D02*
Y01125D01*
X05321*
X05321Y01126*
X05318Y0113*
X05314Y01133*
X05313Y01134*
G37*
G36*
X05303D02*
X05303Y01133D01*
X05298Y0113*
X05295Y01126*
X05295Y01125*
X05303*
Y01134*
G37*
G36*
X0527D02*
Y01125D01*
X05278*
X05278Y01126*
X05275Y0113*
X0527Y01133*
X0527Y01134*
G37*
G36*
X0526D02*
X05259Y01133D01*
X05255Y0113*
X05252Y01126*
X05252Y01125*
X0526*
Y01134*
G37*
G36*
X05227D02*
Y01125D01*
X05235*
X05235Y01126*
X05232Y0113*
X05227Y01133*
X05227Y01134*
G37*
G36*
X05217D02*
X05216Y01133D01*
X05211Y0113*
X05208Y01126*
X05208Y01125*
X05217*
Y01134*
G37*
G36*
X05365Y01115D02*
X05356D01*
Y01107*
X05357Y01107*
X05362Y0111*
X05365Y01115*
X05365Y01115*
G37*
G36*
X05346D02*
X05338D01*
X05338Y01115*
X05341Y0111*
X05346Y01107*
X05346Y01107*
Y01115*
G37*
G36*
X05321D02*
X05313D01*
Y01107*
X05314Y01107*
X05318Y0111*
X05321Y01115*
X05321Y01115*
G37*
G36*
X05303D02*
X05295D01*
X05295Y01115*
X05298Y0111*
X05303Y01107*
X05303Y01107*
Y01115*
G37*
G36*
X05278D02*
X0527D01*
Y01107*
X0527Y01107*
X05275Y0111*
X05278Y01115*
X05278Y01115*
G37*
G36*
X0526D02*
X05252D01*
X05252Y01115*
X05255Y0111*
X05259Y01107*
X0526Y01107*
Y01115*
G37*
G36*
X05235D02*
X05227D01*
Y01107*
X05227Y01107*
X05232Y0111*
X05235Y01115*
X05235Y01115*
G37*
G36*
X05217D02*
X05208D01*
X05208Y01115*
X05211Y0111*
X05216Y01107*
X05217Y01107*
Y01115*
G37*
G36*
X05748Y01094D02*
Y01086D01*
X05756*
X05756Y01086*
X05753Y01091*
X05748Y01094*
X05748Y01094*
G37*
G36*
X05738D02*
X05738Y01094D01*
X05733Y01091*
X0573Y01086*
X0573Y01086*
X05738*
Y01094*
G37*
G36*
X05695D02*
Y01086D01*
X05703*
X05703Y01086*
X057Y01091*
X05695Y01094*
X05695Y01094*
G37*
G36*
X05685D02*
X05684Y01094D01*
X05679Y01091*
X05676Y01086*
X05676Y01086*
X05685*
Y01094*
G37*
G36*
X05641D02*
Y01086D01*
X05649*
X05649Y01086*
X05646Y01091*
X05641Y01094*
X05641Y01094*
G37*
G36*
X05631D02*
X05631Y01094D01*
X05626Y01091*
X05623Y01086*
X05623Y01086*
X05631*
Y01094*
G37*
G36*
X05356Y0109D02*
Y01082D01*
X05365*
X05365Y01082*
X05362Y01087*
X05357Y0109*
X05356Y0109*
G37*
G36*
X05346D02*
X05346Y0109D01*
X05341Y01087*
X05338Y01082*
X05338Y01082*
X05346*
Y0109*
G37*
G36*
X05313D02*
Y01082D01*
X05321*
X05321Y01082*
X05318Y01087*
X05314Y0109*
X05313Y0109*
G37*
G36*
X05303D02*
X05303Y0109D01*
X05298Y01087*
X05295Y01082*
X05295Y01082*
X05303*
Y0109*
G37*
G36*
X0527D02*
Y01082D01*
X05278*
X05278Y01082*
X05275Y01087*
X0527Y0109*
X0527Y0109*
G37*
G36*
X0526D02*
X05259Y0109D01*
X05255Y01087*
X05252Y01082*
X05252Y01082*
X0526*
Y0109*
G37*
G36*
X05227D02*
Y01082D01*
X05235*
X05235Y01082*
X05232Y01087*
X05227Y0109*
X05227Y0109*
G37*
G36*
X05217D02*
X05216Y0109D01*
X05211Y01087*
X05208Y01082*
X05208Y01082*
X05217*
Y0109*
G37*
G36*
X05152Y01087D02*
Y01079D01*
X0516*
X0516Y01079*
X05157Y01084*
X05152Y01087*
X05152Y01087*
G37*
G36*
X05142D02*
X05141Y01087D01*
X05136Y01084*
X05133Y01079*
X05133Y01079*
X05142*
Y01087*
G37*
G36*
X05756Y01076D02*
X05748D01*
Y01068*
X05748Y01068*
X05753Y01071*
X05756Y01075*
X05756Y01076*
G37*
G36*
X05738D02*
X0573D01*
X0573Y01075*
X05733Y01071*
X05738Y01068*
X05738Y01068*
Y01076*
G37*
G36*
X05703D02*
X05695D01*
Y01068*
X05695Y01068*
X057Y01071*
X05703Y01075*
X05703Y01076*
G37*
G36*
X05685D02*
X05676D01*
X05676Y01075*
X05679Y01071*
X05684Y01068*
X05685Y01068*
Y01076*
G37*
G36*
X05649D02*
X05641D01*
Y01068*
X05641Y01068*
X05646Y01071*
X05649Y01075*
X05649Y01076*
G37*
G36*
X05631D02*
X05623D01*
X05623Y01075*
X05626Y01071*
X05631Y01068*
X05631Y01068*
Y01076*
G37*
G36*
X05365Y01072D02*
X05356D01*
Y01064*
X05357Y01064*
X05362Y01067*
X05365Y01071*
X05365Y01072*
G37*
G36*
X05346D02*
X05338D01*
X05338Y01071*
X05341Y01067*
X05346Y01064*
X05346Y01064*
Y01072*
G37*
G36*
X05321D02*
X05313D01*
Y01064*
X05314Y01064*
X05318Y01067*
X05321Y01071*
X05321Y01072*
G37*
G36*
X05303D02*
X05295D01*
X05295Y01071*
X05298Y01067*
X05303Y01064*
X05303Y01064*
Y01072*
G37*
G36*
X05278D02*
X0527D01*
Y01064*
X0527Y01064*
X05275Y01067*
X05278Y01071*
X05278Y01072*
G37*
G36*
X0526D02*
X05252D01*
X05252Y01071*
X05255Y01067*
X05259Y01064*
X0526Y01064*
Y01072*
G37*
G36*
X05235D02*
X05227D01*
Y01064*
X05227Y01064*
X05232Y01067*
X05235Y01071*
X05235Y01072*
G37*
G36*
X05217D02*
X05208D01*
X05208Y01071*
X05211Y01067*
X05216Y01064*
X05217Y01064*
Y01072*
G37*
G36*
X0516Y01069D02*
X05152D01*
Y0106*
X05152Y0106*
X05157Y01063*
X0516Y01068*
X0516Y01069*
G37*
G36*
X05142D02*
X05133D01*
X05133Y01068*
X05136Y01063*
X05141Y0106*
X05142Y0106*
Y01069*
G37*
G36*
X05356Y01047D02*
Y01039D01*
X05365*
X05365Y01039*
X05362Y01044*
X05357Y01047*
X05356Y01047*
G37*
G36*
X05346D02*
X05346Y01047D01*
X05341Y01044*
X05338Y01039*
X05338Y01039*
X05346*
Y01047*
G37*
G36*
X05313D02*
Y01039D01*
X05321*
X05321Y01039*
X05318Y01044*
X05314Y01047*
X05313Y01047*
G37*
G36*
X05303D02*
X05303Y01047D01*
X05298Y01044*
X05295Y01039*
X05295Y01039*
X05303*
Y01047*
G37*
G36*
X0527D02*
Y01039D01*
X05278*
X05278Y01039*
X05275Y01044*
X0527Y01047*
X0527Y01047*
G37*
G36*
X0526D02*
X05259Y01047D01*
X05255Y01044*
X05252Y01039*
X05252Y01039*
X0526*
Y01047*
G37*
G36*
X05227D02*
Y01039D01*
X05235*
X05235Y01039*
X05232Y01044*
X05227Y01047*
X05227Y01047*
G37*
G36*
X05217D02*
X05216Y01047D01*
X05211Y01044*
X05208Y01039*
X05208Y01039*
X05217*
Y01047*
G37*
G36*
X05748Y01044D02*
Y01036D01*
X05756*
X05756Y01037*
X05753Y01041*
X05748Y01044*
X05748Y01044*
G37*
G36*
X05738D02*
X05738Y01044D01*
X05733Y01041*
X0573Y01037*
X0573Y01036*
X05738*
Y01044*
G37*
G36*
X05695D02*
Y01036D01*
X05703*
X05703Y01037*
X057Y01041*
X05695Y01044*
X05695Y01044*
G37*
G36*
X05685D02*
X05684Y01044D01*
X05679Y01041*
X05676Y01037*
X05676Y01036*
X05685*
Y01044*
G37*
G36*
X05641D02*
Y01036D01*
X05649*
X05649Y01037*
X05646Y01041*
X05641Y01044*
X05641Y01044*
G37*
G36*
X05631D02*
X05631Y01044D01*
X05626Y01041*
X05623Y01037*
X05623Y01036*
X05631*
Y01044*
G37*
G36*
X05152Y01036D02*
Y01028D01*
X0516*
X0516Y01028*
X05157Y01033*
X05152Y01036*
X05152Y01036*
G37*
G36*
X05142D02*
X05141Y01036D01*
X05136Y01033*
X05133Y01028*
X05133Y01028*
X05142*
Y01036*
G37*
G36*
X05365Y01029D02*
X05356D01*
Y0102*
X05357Y0102*
X05362Y01024*
X05365Y01028*
X05365Y01029*
G37*
G36*
X05346D02*
X05338D01*
X05338Y01028*
X05341Y01024*
X05346Y0102*
X05346Y0102*
Y01029*
G37*
G36*
X05321D02*
X05313D01*
Y0102*
X05314Y0102*
X05318Y01024*
X05321Y01028*
X05321Y01029*
G37*
G36*
X05303D02*
X05295D01*
X05295Y01028*
X05298Y01024*
X05303Y0102*
X05303Y0102*
Y01029*
G37*
G36*
X05278D02*
X0527D01*
Y0102*
X0527Y0102*
X05275Y01024*
X05278Y01028*
X05278Y01029*
G37*
G36*
X0526D02*
X05252D01*
X05252Y01028*
X05255Y01024*
X05259Y0102*
X0526Y0102*
Y01029*
G37*
G36*
X05235D02*
X05227D01*
Y0102*
X05227Y0102*
X05232Y01024*
X05235Y01028*
X05235Y01029*
G37*
G36*
X05217D02*
X05208D01*
X05208Y01028*
X05211Y01024*
X05216Y0102*
X05217Y0102*
Y01029*
G37*
G36*
X05756Y01026D02*
X05748D01*
Y01018*
X05748Y01018*
X05753Y01021*
X05756Y01026*
X05756Y01026*
G37*
G36*
X05738D02*
X0573D01*
X0573Y01026*
X05733Y01021*
X05738Y01018*
X05738Y01018*
Y01026*
G37*
G36*
X05703D02*
X05695D01*
Y01018*
X05695Y01018*
X057Y01021*
X05703Y01026*
X05703Y01026*
G37*
G36*
X05685D02*
X05676D01*
X05676Y01026*
X05679Y01021*
X05684Y01018*
X05685Y01018*
Y01026*
G37*
G36*
X05649D02*
X05641D01*
Y01018*
X05641Y01018*
X05646Y01021*
X05649Y01026*
X05649Y01026*
G37*
G36*
X05631D02*
X05623D01*
X05623Y01026*
X05626Y01021*
X05631Y01018*
X05631Y01018*
Y01026*
G37*
G36*
X0516Y01018D02*
X05152D01*
Y01009*
X05152Y01009*
X05157Y01012*
X0516Y01017*
X0516Y01018*
G37*
G36*
X05142D02*
X05133D01*
X05133Y01017*
X05136Y01012*
X05141Y01009*
X05142Y01009*
Y01018*
G37*
G36*
X05367Y01006D02*
Y00997D01*
X05375*
X05375Y00998*
X05372Y01002*
X05367Y01005*
X05367Y01006*
G37*
G36*
X05357D02*
X05356Y01005D01*
X05351Y01002*
X05348Y00998*
X05348Y00997*
X05357*
Y01006*
G37*
G36*
X05317D02*
Y00997D01*
X05325*
X05325Y00998*
X05322Y01002*
X05317Y01005*
X05317Y01006*
G37*
G36*
X05307D02*
X05306Y01005D01*
X05301Y01002*
X05298Y00998*
X05298Y00997*
X05307*
Y01006*
G37*
G36*
X05267D02*
Y00997D01*
X05275*
X05275Y00998*
X05272Y01002*
X05267Y01005*
X05267Y01006*
G37*
G36*
X05257D02*
X05256Y01005D01*
X05251Y01002*
X05248Y00998*
X05248Y00997*
X05257*
Y01006*
G37*
G36*
X05217D02*
Y00997D01*
X05225*
X05225Y00998*
X05222Y01002*
X05217Y01005*
X05217Y01006*
G37*
G36*
X05207D02*
X05206Y01005D01*
X05201Y01002*
X05198Y00998*
X05198Y00997*
X05207*
Y01006*
G37*
G36*
X05748Y00995D02*
Y00987D01*
X05756*
X05756Y00987*
X05753Y00992*
X05748Y00995*
X05748Y00995*
G37*
G36*
X05738D02*
X05738Y00995D01*
X05733Y00992*
X0573Y00987*
X0573Y00987*
X05738*
Y00995*
G37*
G36*
X05695D02*
Y00987D01*
X05703*
X05703Y00987*
X057Y00992*
X05695Y00995*
X05695Y00995*
G37*
G36*
X05685D02*
X05684Y00995D01*
X05679Y00992*
X05676Y00987*
X05676Y00987*
X05685*
Y00995*
G37*
G36*
X05641D02*
Y00987D01*
X05649*
X05649Y00987*
X05646Y00992*
X05641Y00995*
X05641Y00995*
G37*
G36*
X05631D02*
X05631Y00995D01*
X05626Y00992*
X05623Y00987*
X05623Y00987*
X05631*
Y00995*
G37*
G36*
X05375Y00987D02*
X05367D01*
Y00979*
X05367Y00979*
X05372Y00982*
X05375Y00987*
X05375Y00987*
G37*
G36*
X05357D02*
X05348D01*
X05348Y00987*
X05351Y00982*
X05356Y00979*
X05357Y00979*
Y00987*
G37*
G36*
X05325D02*
X05317D01*
Y00979*
X05317Y00979*
X05322Y00982*
X05325Y00987*
X05325Y00987*
G37*
G36*
X05307D02*
X05298D01*
X05298Y00987*
X05301Y00982*
X05306Y00979*
X05307Y00979*
Y00987*
G37*
G36*
X05275D02*
X05267D01*
Y00979*
X05267Y00979*
X05272Y00982*
X05275Y00987*
X05275Y00987*
G37*
G36*
X05257D02*
X05248D01*
X05248Y00987*
X05251Y00982*
X05256Y00979*
X05257Y00979*
Y00987*
G37*
G36*
X05225D02*
X05217D01*
Y00979*
X05217Y00979*
X05222Y00982*
X05225Y00987*
X05225Y00987*
G37*
G36*
X05207D02*
X05198D01*
X05198Y00987*
X05201Y00982*
X05206Y00979*
X05207Y00979*
Y00987*
G37*
G36*
X05152Y00987D02*
Y00978D01*
X0516*
X0516Y00979*
X05157Y00984*
X05152Y00987*
X05152Y00987*
G37*
G36*
X05142D02*
X05141Y00987D01*
X05136Y00984*
X05133Y00979*
X05133Y00978*
X05142*
Y00987*
G37*
G36*
X05756Y00977D02*
X05748D01*
Y00968*
X05748Y00968*
X05753Y00971*
X05756Y00976*
X05756Y00977*
G37*
G36*
X05738D02*
X0573D01*
X0573Y00976*
X05733Y00971*
X05738Y00968*
X05738Y00968*
Y00977*
G37*
G36*
X05703D02*
X05695D01*
Y00968*
X05695Y00968*
X057Y00971*
X05703Y00976*
X05703Y00977*
G37*
G36*
X05685D02*
X05676D01*
X05676Y00976*
X05679Y00971*
X05684Y00968*
X05685Y00968*
Y00977*
G37*
G36*
X05649D02*
X05641D01*
Y00968*
X05641Y00968*
X05646Y00971*
X05649Y00976*
X05649Y00977*
G37*
G36*
X05631D02*
X05623D01*
X05623Y00976*
X05626Y00971*
X05631Y00968*
X05631Y00968*
Y00977*
G37*
G36*
X0516Y00968D02*
X05152D01*
Y0096*
X05152Y0096*
X05157Y00963*
X0516Y00968*
X0516Y00968*
G37*
G36*
X05142D02*
X05133D01*
X05133Y00968*
X05136Y00963*
X05141Y0096*
X05142Y0096*
Y00968*
G37*
G36*
X05373Y00935D02*
X05369Y00934D01*
X05365Y00931*
X05363Y00928*
X05362Y00924*
X05363Y00919*
X05365Y00916*
X05369Y00913*
X05373Y00912*
X05377Y00913*
X05381Y00916*
X05384Y00919*
X05384Y00924*
X05384Y00928*
X05381Y00931*
X05377Y00934*
X05373Y00935*
G37*
G36*
X05293D02*
X05289Y00934D01*
X05285Y00931*
X05283Y00928*
X05282Y00924*
X05283Y00919*
X05285Y00916*
X05289Y00913*
X05293Y00912*
X05297Y00913*
X05301Y00916*
X05304Y00919*
X05304Y00924*
X05304Y00928*
X05301Y00931*
X05297Y00934*
X05293Y00935*
G37*
G36*
X05213D02*
X05209Y00934D01*
X05205Y00931*
X05203Y00928*
X05202Y00924*
X05203Y00919*
X05205Y00916*
X05209Y00913*
X05213Y00912*
X05217Y00913*
X05221Y00916*
X05224Y00919*
X05224Y00924*
X05224Y00928*
X05221Y00931*
X05217Y00934*
X05213Y00935*
G37*
G36*
X0403Y0083D02*
Y00822D01*
X04038*
X04038Y00822*
X04035Y00827*
X0403Y0083*
X0403Y0083*
G37*
G36*
X0402D02*
X04019Y0083D01*
X04015Y00827*
X04012Y00822*
X04011Y00822*
X0402*
Y0083*
G37*
G36*
X04038Y00812D02*
X0403D01*
Y00803*
X0403Y00803*
X04035Y00807*
X04038Y00811*
X04038Y00812*
G37*
G36*
X0402D02*
X04011D01*
X04012Y00811*
X04015Y00807*
X04019Y00803*
X0402Y00803*
Y00812*
G37*
G36*
X05044Y00733D02*
Y00724D01*
X05053*
X05052Y00725*
X05049Y0073*
X05045Y00733*
X05044Y00733*
G37*
G36*
X05034D02*
X05034Y00733D01*
X05029Y0073*
X05026Y00725*
X05026Y00724*
X05034*
Y00733*
G37*
G36*
X05001D02*
Y00724D01*
X05009*
X05009Y00725*
X05006Y0073*
X05001Y00733*
X05001Y00733*
G37*
G36*
X04991D02*
X0499Y00733D01*
X04986Y0073*
X04983Y00725*
X04983Y00724*
X04991*
Y00733*
G37*
G36*
X04958D02*
Y00724D01*
X04966*
X04966Y00725*
X04963Y0073*
X04958Y00733*
X04958Y00733*
G37*
G36*
X04948D02*
X04947Y00733D01*
X04943Y0073*
X04939Y00725*
X04939Y00724*
X04948*
Y00733*
G37*
G36*
X05053Y00714D02*
X05044D01*
Y00706*
X05045Y00706*
X05049Y00709*
X05052Y00714*
X05053Y00714*
G37*
G36*
X05034D02*
X05026D01*
X05026Y00714*
X05029Y00709*
X05034Y00706*
X05034Y00706*
Y00714*
G37*
G36*
X05009D02*
X05001D01*
Y00706*
X05001Y00706*
X05006Y00709*
X05009Y00714*
X05009Y00714*
G37*
G36*
X04991D02*
X04983D01*
X04983Y00714*
X04986Y00709*
X0499Y00706*
X04991Y00706*
Y00714*
G37*
G36*
X04966D02*
X04958D01*
Y00706*
X04958Y00706*
X04963Y00709*
X04966Y00714*
X04966Y00714*
G37*
G36*
X04948D02*
X04939D01*
X04939Y00714*
X04943Y00709*
X04947Y00706*
X04948Y00706*
Y00714*
G37*
G36*
X05044Y00689D02*
Y00681D01*
X05053*
X05052Y00682*
X05049Y00686*
X05045Y00689*
X05044Y00689*
G37*
G36*
X05034D02*
X05034Y00689D01*
X05029Y00686*
X05026Y00682*
X05026Y00681*
X05034*
Y00689*
G37*
G36*
X05001D02*
Y00681D01*
X05009*
X05009Y00682*
X05006Y00686*
X05001Y00689*
X05001Y00689*
G37*
G36*
X04991D02*
X0499Y00689D01*
X04986Y00686*
X04983Y00682*
X04983Y00681*
X04991*
Y00689*
G37*
G36*
X04958D02*
Y00681D01*
X04966*
X04966Y00682*
X04963Y00686*
X04958Y00689*
X04958Y00689*
G37*
G36*
X04948D02*
X04947Y00689D01*
X04943Y00686*
X04939Y00682*
X04939Y00681*
X04948*
Y00689*
G37*
G36*
X05053Y00671D02*
X05044D01*
Y00663*
X05045Y00663*
X05049Y00666*
X05052Y00671*
X05053Y00671*
G37*
G36*
X05034D02*
X05026D01*
X05026Y00671*
X05029Y00666*
X05034Y00663*
X05034Y00663*
Y00671*
G37*
G36*
X05009D02*
X05001D01*
Y00663*
X05001Y00663*
X05006Y00666*
X05009Y00671*
X05009Y00671*
G37*
G36*
X04991D02*
X04983D01*
X04983Y00671*
X04986Y00666*
X0499Y00663*
X04991Y00663*
Y00671*
G37*
G36*
X04966D02*
X04958D01*
Y00663*
X04958Y00663*
X04963Y00666*
X04966Y00671*
X04966Y00671*
G37*
G36*
X04948D02*
X04939D01*
X04939Y00671*
X04943Y00666*
X04947Y00663*
X04948Y00663*
Y00671*
G37*
G36*
X05044Y00646D02*
Y00638D01*
X05053*
X05052Y00638*
X05049Y00643*
X05045Y00646*
X05044Y00646*
G37*
G36*
X05034D02*
X05034Y00646D01*
X05029Y00643*
X05026Y00638*
X05026Y00638*
X05034*
Y00646*
G37*
G36*
X05001D02*
Y00638D01*
X05009*
X05009Y00638*
X05006Y00643*
X05001Y00646*
X05001Y00646*
G37*
G36*
X04991D02*
X0499Y00646D01*
X04986Y00643*
X04983Y00638*
X04983Y00638*
X04991*
Y00646*
G37*
G36*
X04958D02*
Y00638D01*
X04966*
X04966Y00638*
X04963Y00643*
X04958Y00646*
X04958Y00646*
G37*
G36*
X04948D02*
X04947Y00646D01*
X04943Y00643*
X04939Y00638*
X04939Y00638*
X04948*
Y00646*
G37*
G36*
X05053Y00628D02*
X05044D01*
Y0062*
X05045Y0062*
X05049Y00623*
X05052Y00627*
X05053Y00628*
G37*
G36*
X05034D02*
X05026D01*
X05026Y00627*
X05029Y00623*
X05034Y0062*
X05034Y0062*
Y00628*
G37*
G36*
X05009D02*
X05001D01*
Y0062*
X05001Y0062*
X05006Y00623*
X05009Y00627*
X05009Y00628*
G37*
G36*
X04991D02*
X04983D01*
X04983Y00627*
X04986Y00623*
X0499Y0062*
X04991Y0062*
Y00628*
G37*
G36*
X04966D02*
X04958D01*
Y0062*
X04958Y0062*
X04963Y00623*
X04966Y00627*
X04966Y00628*
G37*
G36*
X04948D02*
X04939D01*
X04939Y00627*
X04943Y00623*
X04947Y0062*
X04948Y0062*
Y00628*
G37*
G36*
X05044Y00603D02*
Y00595D01*
X05053*
X05052Y00595*
X05049Y006*
X05045Y00603*
X05044Y00603*
G37*
G36*
X05034D02*
X05034Y00603D01*
X05029Y006*
X05026Y00595*
X05026Y00595*
X05034*
Y00603*
G37*
G36*
X05001D02*
Y00595D01*
X05009*
X05009Y00595*
X05006Y006*
X05001Y00603*
X05001Y00603*
G37*
G36*
X04991D02*
X0499Y00603D01*
X04986Y006*
X04983Y00595*
X04983Y00595*
X04991*
Y00603*
G37*
G36*
X04958D02*
Y00595D01*
X04966*
X04966Y00595*
X04963Y006*
X04958Y00603*
X04958Y00603*
G37*
G36*
X04948D02*
X04947Y00603D01*
X04943Y006*
X04939Y00595*
X04939Y00595*
X04948*
Y00603*
G37*
G36*
X05053Y00585D02*
X05044D01*
Y00576*
X05045Y00576*
X05049Y00579*
X05052Y00584*
X05053Y00585*
G37*
G36*
X05034D02*
X05026D01*
X05026Y00584*
X05029Y00579*
X05034Y00576*
X05034Y00576*
Y00585*
G37*
G36*
X05009D02*
X05001D01*
Y00576*
X05001Y00576*
X05006Y00579*
X05009Y00584*
X05009Y00585*
G37*
G36*
X04991D02*
X04983D01*
X04983Y00584*
X04986Y00579*
X0499Y00576*
X04991Y00576*
Y00585*
G37*
G36*
X04966D02*
X04958D01*
Y00576*
X04958Y00576*
X04963Y00579*
X04966Y00584*
X04966Y00585*
G37*
G36*
X04948D02*
X04939D01*
X04939Y00584*
X04943Y00579*
X04947Y00576*
X04948Y00576*
Y00585*
G37*
G36*
X05074Y00513D02*
Y00505D01*
X05082*
X05082Y00505*
X05079Y0051*
X05074Y00513*
X05074Y00513*
G37*
G36*
X05064D02*
X05063Y00513D01*
X05059Y0051*
X05056Y00505*
X05056Y00505*
X05064*
Y00513*
G37*
G36*
X05026D02*
Y00505D01*
X05034*
X05034Y00505*
X05031Y0051*
X05026Y00513*
X05026Y00513*
G37*
G36*
X05016D02*
X05015Y00513D01*
X0501Y0051*
X05007Y00505*
X05007Y00505*
X05016*
Y00513*
G37*
G36*
X05082Y00495D02*
X05074D01*
Y00486*
X05074Y00486*
X05079Y00489*
X05082Y00494*
X05082Y00495*
G37*
G36*
X05064D02*
X05056D01*
X05056Y00494*
X05059Y00489*
X05063Y00486*
X05064Y00486*
Y00495*
G37*
G36*
X05034D02*
X05026D01*
Y00486*
X05026Y00486*
X05031Y00489*
X05034Y00494*
X05034Y00495*
G37*
G36*
X05016D02*
X05007D01*
X05007Y00494*
X0501Y00489*
X05015Y00486*
X05016Y00486*
Y00495*
G37*
G36*
X05021Y00476D02*
X05016Y00475D01*
X05013Y00473*
X0501Y00469*
X05009Y00465*
X0501Y00461*
X05013Y00457*
X05016Y00454*
X05021Y00454*
X05025Y00454*
X05028Y00457*
X05031Y00461*
X05032Y00465*
X05031Y00469*
X05028Y00473*
X05025Y00475*
X05021Y00476*
G37*
G36*
X05373Y00737D02*
X05369Y00736D01*
X05365Y00733*
X05363Y0073*
X05362Y00726*
X05363Y00721*
X05365Y00718*
X05369Y00715*
X05373Y00714*
X05377Y00715*
X05381Y00718*
X05383Y00721*
X05384Y00726*
X05383Y0073*
X05381Y00733*
X05377Y00736*
X05373Y00737*
G37*
G36*
X05293D02*
X05289Y00736D01*
X05285Y00733*
X05283Y0073*
X05282Y00726*
X05283Y00721*
X05285Y00718*
X05289Y00715*
X05293Y00714*
X05297Y00715*
X05301Y00718*
X05303Y00721*
X05304Y00726*
X05303Y0073*
X05301Y00733*
X05297Y00736*
X05293Y00737*
G37*
G36*
X05213D02*
X05209Y00736D01*
X05205Y00733*
X05203Y0073*
X05202Y00726*
X05203Y00721*
X05205Y00718*
X05209Y00715*
X05213Y00714*
X05217Y00715*
X05221Y00718*
X05224Y00721*
X05224Y00726*
X05224Y0073*
X05221Y00733*
X05217Y00736*
X05213Y00737*
G37*
G36*
X05149Y00693D02*
Y00685D01*
X05157*
X05157Y00685*
X05154Y0069*
X05149Y00693*
X05149Y00693*
G37*
G36*
X05139D02*
X05138Y00693D01*
X05133Y0069*
X0513Y00685*
X0513Y00685*
X05139*
Y00693*
G37*
G36*
X05748Y00681D02*
Y00672D01*
X05756*
X05756Y00673*
X05753Y00678*
X05748Y00681*
X05748Y00681*
G37*
G36*
X05738D02*
X05738Y00681D01*
X05733Y00678*
X0573Y00673*
X0573Y00672*
X05738*
Y00681*
G37*
G36*
X05695D02*
Y00672D01*
X05703*
X05703Y00673*
X057Y00678*
X05695Y00681*
X05695Y00681*
G37*
G36*
X05685D02*
X05684Y00681D01*
X05679Y00678*
X05676Y00673*
X05676Y00672*
X05685*
Y00681*
G37*
G36*
X05641D02*
Y00672D01*
X05649*
X05649Y00673*
X05646Y00678*
X05641Y00681*
X05641Y00681*
G37*
G36*
X05631D02*
X05631Y00681D01*
X05626Y00678*
X05623Y00673*
X05623Y00672*
X05631*
Y00681*
G37*
G36*
X05157Y00675D02*
X05149D01*
Y00666*
X05149Y00666*
X05154Y00669*
X05157Y00674*
X05157Y00675*
G37*
G36*
X05139D02*
X0513D01*
X0513Y00674*
X05133Y00669*
X05138Y00666*
X05139Y00666*
Y00675*
G37*
G36*
X05368Y00674D02*
Y00666D01*
X05376*
X05376Y00666*
X05373Y00671*
X05368Y00674*
X05368Y00674*
G37*
G36*
X05358D02*
X05357Y00674D01*
X05352Y00671*
X05349Y00666*
X05349Y00666*
X05358*
Y00674*
G37*
G36*
X05318D02*
Y00666D01*
X05326*
X05326Y00666*
X05323Y00671*
X05318Y00674*
X05318Y00674*
G37*
G36*
X05308D02*
X05307Y00674D01*
X05302Y00671*
X05299Y00666*
X05299Y00666*
X05308*
Y00674*
G37*
G36*
X05268D02*
Y00666D01*
X05276*
X05276Y00666*
X05273Y00671*
X05268Y00674*
X05268Y00674*
G37*
G36*
X05258D02*
X05257Y00674D01*
X05252Y00671*
X05249Y00666*
X05249Y00666*
X05258*
Y00674*
G37*
G36*
X05218D02*
Y00666D01*
X05226*
X05226Y00666*
X05223Y00671*
X05218Y00674*
X05218Y00674*
G37*
G36*
X05208D02*
X05207Y00674D01*
X05202Y00671*
X05199Y00666*
X05199Y00666*
X05208*
Y00674*
G37*
G36*
X05756Y00662D02*
X05748D01*
Y00654*
X05748Y00654*
X05753Y00657*
X05756Y00662*
X05756Y00662*
G37*
G36*
X05738D02*
X0573D01*
X0573Y00662*
X05733Y00657*
X05738Y00654*
X05738Y00654*
Y00662*
G37*
G36*
X05703D02*
X05695D01*
Y00654*
X05695Y00654*
X057Y00657*
X05703Y00662*
X05703Y00662*
G37*
G36*
X05685D02*
X05676D01*
X05676Y00662*
X05679Y00657*
X05684Y00654*
X05685Y00654*
Y00662*
G37*
G36*
X05649D02*
X05641D01*
Y00654*
X05641Y00654*
X05646Y00657*
X05649Y00662*
X05649Y00662*
G37*
G36*
X05631D02*
X05623D01*
X05623Y00662*
X05626Y00657*
X05631Y00654*
X05631Y00654*
Y00662*
G37*
G36*
X05376Y00656D02*
X05368D01*
Y00647*
X05368Y00648*
X05373Y00651*
X05376Y00655*
X05376Y00656*
G37*
G36*
X05358D02*
X05349D01*
X05349Y00655*
X05352Y00651*
X05357Y00648*
X05358Y00647*
Y00656*
G37*
G36*
X05326D02*
X05318D01*
Y00647*
X05318Y00648*
X05323Y00651*
X05326Y00655*
X05326Y00656*
G37*
G36*
X05308D02*
X05299D01*
X05299Y00655*
X05302Y00651*
X05307Y00648*
X05308Y00647*
Y00656*
G37*
G36*
X05276D02*
X05268D01*
Y00647*
X05268Y00648*
X05273Y00651*
X05276Y00655*
X05276Y00656*
G37*
G36*
X05258D02*
X05249D01*
X05249Y00655*
X05252Y00651*
X05257Y00648*
X05258Y00647*
Y00656*
G37*
G36*
X05226D02*
X05218D01*
Y00647*
X05218Y00648*
X05223Y00651*
X05226Y00655*
X05226Y00656*
G37*
G36*
X05208D02*
X05199D01*
X05199Y00655*
X05202Y00651*
X05207Y00648*
X05208Y00647*
Y00656*
G37*
G36*
X05149Y00643D02*
Y00635D01*
X05157*
X05157Y00635*
X05154Y0064*
X05149Y00643*
X05149Y00643*
G37*
G36*
X05139D02*
X05138Y00643D01*
X05133Y0064*
X0513Y00635*
X0513Y00635*
X05139*
Y00643*
G37*
G36*
X05357Y00633D02*
Y00624D01*
X05366*
X05366Y00625*
X05363Y00629*
X05358Y00633*
X05357Y00633*
G37*
G36*
X05347D02*
X05347Y00633D01*
X05342Y00629*
X05339Y00625*
X05339Y00624*
X05347*
Y00633*
G37*
G36*
X05314D02*
Y00624D01*
X05322*
X05322Y00625*
X05319Y00629*
X05315Y00633*
X05314Y00633*
G37*
G36*
X05304D02*
X05304Y00633D01*
X05299Y00629*
X05296Y00625*
X05296Y00624*
X05304*
Y00633*
G37*
G36*
X05271D02*
Y00624D01*
X05279*
X05279Y00625*
X05276Y00629*
X05271Y00633*
X05271Y00633*
G37*
G36*
X05261D02*
X0526Y00633D01*
X05256Y00629*
X05253Y00625*
X05253Y00624*
X05261*
Y00633*
G37*
G36*
X05228D02*
Y00624D01*
X05236*
X05236Y00625*
X05233Y00629*
X05228Y00633*
X05228Y00633*
G37*
G36*
X05218D02*
X05217Y00633D01*
X05212Y00629*
X05209Y00625*
X05209Y00624*
X05218*
Y00633*
G37*
G36*
X05748Y00631D02*
Y00623D01*
X05756*
X05756Y00623*
X05753Y00628*
X05748Y00631*
X05748Y00631*
G37*
G36*
X05738D02*
X05738Y00631D01*
X05733Y00628*
X0573Y00623*
X0573Y00623*
X05738*
Y00631*
G37*
G36*
X05695D02*
Y00623D01*
X05703*
X05703Y00623*
X057Y00628*
X05695Y00631*
X05695Y00631*
G37*
G36*
X05685D02*
X05684Y00631D01*
X05679Y00628*
X05676Y00623*
X05676Y00623*
X05685*
Y00631*
G37*
G36*
X05641D02*
Y00623D01*
X05649*
X05649Y00623*
X05646Y00628*
X05641Y00631*
X05641Y00631*
G37*
G36*
X05631D02*
X05631Y00631D01*
X05626Y00628*
X05623Y00623*
X05623Y00623*
X05631*
Y00631*
G37*
G36*
X05157Y00625D02*
X05149D01*
Y00616*
X05149Y00616*
X05154Y00619*
X05157Y00624*
X05157Y00625*
G37*
G36*
X05139D02*
X0513D01*
X0513Y00624*
X05133Y00619*
X05138Y00616*
X05139Y00616*
Y00625*
G37*
G36*
X05366Y00614D02*
X05357D01*
Y00606*
X05358Y00606*
X05363Y00609*
X05366Y00614*
X05366Y00614*
G37*
G36*
X05347D02*
X05339D01*
X05339Y00614*
X05342Y00609*
X05347Y00606*
X05347Y00606*
Y00614*
G37*
G36*
X05322D02*
X05314D01*
Y00606*
X05315Y00606*
X05319Y00609*
X05322Y00614*
X05322Y00614*
G37*
G36*
X05304D02*
X05296D01*
X05296Y00614*
X05299Y00609*
X05304Y00606*
X05304Y00606*
Y00614*
G37*
G36*
X05279D02*
X05271D01*
Y00606*
X05271Y00606*
X05276Y00609*
X05279Y00614*
X05279Y00614*
G37*
G36*
X05261D02*
X05253D01*
X05253Y00614*
X05256Y00609*
X0526Y00606*
X05261Y00606*
Y00614*
G37*
G36*
X05236D02*
X05228D01*
Y00606*
X05228Y00606*
X05233Y00609*
X05236Y00614*
X05236Y00614*
G37*
G36*
X05218D02*
X05209D01*
X05209Y00614*
X05212Y00609*
X05217Y00606*
X05218Y00606*
Y00614*
G37*
G36*
X05756Y00613D02*
X05748D01*
Y00605*
X05748Y00605*
X05753Y00608*
X05756Y00612*
X05756Y00613*
G37*
G36*
X05738D02*
X0573D01*
X0573Y00612*
X05733Y00608*
X05738Y00605*
X05738Y00605*
Y00613*
G37*
G36*
X05703D02*
X05695D01*
Y00605*
X05695Y00605*
X057Y00608*
X05703Y00612*
X05703Y00613*
G37*
G36*
X05685D02*
X05676D01*
X05676Y00612*
X05679Y00608*
X05684Y00605*
X05685Y00605*
Y00613*
G37*
G36*
X05649D02*
X05641D01*
Y00605*
X05641Y00605*
X05646Y00608*
X05649Y00612*
X05649Y00613*
G37*
G36*
X05631D02*
X05623D01*
X05623Y00612*
X05626Y00608*
X05631Y00605*
X05631Y00605*
Y00613*
G37*
G36*
X05149Y00593D02*
Y00585D01*
X05157*
X05157Y00585*
X05154Y0059*
X05149Y00593*
X05149Y00593*
G37*
G36*
X05139D02*
X05138Y00593D01*
X05133Y0059*
X0513Y00585*
X0513Y00585*
X05139*
Y00593*
G37*
G36*
X05357Y00589D02*
Y00581D01*
X05366*
X05366Y00582*
X05363Y00586*
X05358Y00589*
X05357Y00589*
G37*
G36*
X05347D02*
X05347Y00589D01*
X05342Y00586*
X05339Y00582*
X05339Y00581*
X05347*
Y00589*
G37*
G36*
X05314D02*
Y00581D01*
X05322*
X05322Y00582*
X05319Y00586*
X05315Y00589*
X05314Y00589*
G37*
G36*
X05304D02*
X05304Y00589D01*
X05299Y00586*
X05296Y00582*
X05296Y00581*
X05304*
Y00589*
G37*
G36*
X05271D02*
Y00581D01*
X05279*
X05279Y00582*
X05276Y00586*
X05271Y00589*
X05271Y00589*
G37*
G36*
X05261D02*
X0526Y00589D01*
X05256Y00586*
X05253Y00582*
X05253Y00581*
X05261*
Y00589*
G37*
G36*
X05228D02*
Y00581D01*
X05236*
X05236Y00582*
X05233Y00586*
X05228Y00589*
X05228Y00589*
G37*
G36*
X05218D02*
X05217Y00589D01*
X05212Y00586*
X05209Y00582*
X05209Y00581*
X05218*
Y00589*
G37*
G36*
X05695Y00581D02*
Y00573D01*
X05703*
X05703Y00574*
X057Y00578*
X05695Y00581*
X05695Y00581*
G37*
G36*
X05685D02*
X05684Y00581D01*
X05679Y00578*
X05676Y00574*
X05676Y00573*
X05685*
Y00581*
G37*
G36*
X05748Y00581D02*
Y00573D01*
X05756*
X05756Y00573*
X05753Y00578*
X05748Y00581*
X05748Y00581*
G37*
G36*
X05738D02*
X05738Y00581D01*
X05733Y00578*
X0573Y00573*
X0573Y00573*
X05738*
Y00581*
G37*
G36*
X05641D02*
Y00573D01*
X05649*
X05649Y00573*
X05646Y00578*
X05641Y00581*
X05641Y00581*
G37*
G36*
X05631D02*
X05631Y00581D01*
X05626Y00578*
X05623Y00573*
X05623Y00573*
X05631*
Y00581*
G37*
G36*
X05157Y00575D02*
X05149D01*
Y00566*
X05149Y00566*
X05154Y00569*
X05157Y00574*
X05157Y00575*
G37*
G36*
X05139D02*
X0513D01*
X0513Y00574*
X05133Y00569*
X05138Y00566*
X05139Y00566*
Y00575*
G37*
G36*
X05366Y00571D02*
X05357D01*
Y00563*
X05358Y00563*
X05363Y00566*
X05366Y00571*
X05366Y00571*
G37*
G36*
X05347D02*
X05339D01*
X05339Y00571*
X05342Y00566*
X05347Y00563*
X05347Y00563*
Y00571*
G37*
G36*
X05322D02*
X05314D01*
Y00563*
X05315Y00563*
X05319Y00566*
X05322Y00571*
X05322Y00571*
G37*
G36*
X05304D02*
X05296D01*
X05296Y00571*
X05299Y00566*
X05304Y00563*
X05304Y00563*
Y00571*
G37*
G36*
X05279D02*
X05271D01*
Y00563*
X05271Y00563*
X05276Y00566*
X05279Y00571*
X05279Y00571*
G37*
G36*
X05261D02*
X05253D01*
X05253Y00571*
X05256Y00566*
X0526Y00563*
X05261Y00563*
Y00571*
G37*
G36*
X05236D02*
X05228D01*
Y00563*
X05228Y00563*
X05233Y00566*
X05236Y00571*
X05236Y00571*
G37*
G36*
X05218D02*
X05209D01*
X05209Y00571*
X05212Y00566*
X05217Y00563*
X05218Y00563*
Y00571*
G37*
G36*
X05703Y00563D02*
X05695D01*
Y00555*
X05695Y00555*
X057Y00558*
X05703Y00563*
X05703Y00563*
G37*
G36*
X05685D02*
X05676D01*
X05676Y00563*
X05679Y00558*
X05684Y00555*
X05685Y00555*
Y00563*
G37*
G36*
X05756Y00563D02*
X05748D01*
Y00555*
X05748Y00555*
X05753Y00558*
X05756Y00562*
X05756Y00563*
G37*
G36*
X05738D02*
X0573D01*
X0573Y00562*
X05733Y00558*
X05738Y00555*
X05738Y00555*
Y00563*
G37*
G36*
X05649D02*
X05641D01*
Y00555*
X05641Y00555*
X05646Y00558*
X05649Y00562*
X05649Y00563*
G37*
G36*
X05631D02*
X05623D01*
X05623Y00562*
X05626Y00558*
X05631Y00555*
X05631Y00555*
Y00563*
G37*
G36*
X05357Y00546D02*
Y00538D01*
X05366*
X05366Y00538*
X05363Y00543*
X05358Y00546*
X05357Y00546*
G37*
G36*
X05347D02*
X05347Y00546D01*
X05342Y00543*
X05339Y00538*
X05339Y00538*
X05347*
Y00546*
G37*
G36*
X05314D02*
Y00538D01*
X05322*
X05322Y00538*
X05319Y00543*
X05315Y00546*
X05314Y00546*
G37*
G36*
X05304D02*
X05304Y00546D01*
X05299Y00543*
X05296Y00538*
X05296Y00538*
X05304*
Y00546*
G37*
G36*
X05271D02*
Y00538D01*
X05279*
X05279Y00538*
X05276Y00543*
X05271Y00546*
X05271Y00546*
G37*
G36*
X05261D02*
X0526Y00546D01*
X05256Y00543*
X05253Y00538*
X05253Y00538*
X05261*
Y00546*
G37*
G36*
X05228D02*
Y00538D01*
X05236*
X05236Y00538*
X05233Y00543*
X05228Y00546*
X05228Y00546*
G37*
G36*
X05218D02*
X05217Y00546D01*
X05212Y00543*
X05209Y00538*
X05209Y00538*
X05218*
Y00546*
G37*
G36*
X05366Y00528D02*
X05357D01*
Y00519*
X05358Y0052*
X05363Y00523*
X05366Y00527*
X05366Y00528*
G37*
G36*
X05347D02*
X05339D01*
X05339Y00527*
X05342Y00523*
X05347Y0052*
X05347Y00519*
Y00528*
G37*
G36*
X05322D02*
X05314D01*
Y00519*
X05315Y0052*
X05319Y00523*
X05322Y00527*
X05322Y00528*
G37*
G36*
X05304D02*
X05296D01*
X05296Y00527*
X05299Y00523*
X05304Y0052*
X05304Y00519*
Y00528*
G37*
G36*
X05279D02*
X05271D01*
Y00519*
X05271Y0052*
X05276Y00523*
X05279Y00527*
X05279Y00528*
G37*
G36*
X05261D02*
X05253D01*
X05253Y00527*
X05256Y00523*
X0526Y0052*
X05261Y00519*
Y00528*
G37*
G36*
X05236D02*
X05228D01*
Y00519*
X05228Y0052*
X05233Y00523*
X05236Y00527*
X05236Y00528*
G37*
G36*
X05218D02*
X05209D01*
X05209Y00527*
X05212Y00523*
X05217Y0052*
X05218Y00519*
Y00528*
G37*
G36*
X05313Y0044D02*
X05308Y00439D01*
X05305Y00436*
X05302Y00433*
X05301Y00428*
X05302Y00424*
X05305Y0042*
X05308Y00418*
X05313Y00417*
X05317Y00418*
X0532Y0042*
X05323Y00424*
X05324Y00428*
X05323Y00433*
X0532Y00436*
X05317Y00439*
X05313Y0044*
G37*
G36*
X05263D02*
X05258Y00439D01*
X05255Y00436*
X05252Y00433*
X05251Y00428*
X05252Y00424*
X05255Y0042*
X05258Y00418*
X05263Y00417*
X05267Y00418*
X0527Y0042*
X05273Y00424*
X05274Y00428*
X05273Y00433*
X0527Y00436*
X05267Y00439*
X05263Y0044*
G37*
G36*
X05213D02*
X05208Y00439D01*
X05205Y00436*
X05202Y00433*
X05201Y00428*
X05202Y00424*
X05205Y0042*
X05208Y00418*
X05213Y00417*
X05217Y00418*
X0522Y0042*
X05223Y00424*
X05224Y00428*
X05223Y00433*
X0522Y00436*
X05217Y00439*
X05213Y0044*
G37*
%LNpcb_copper_signal_bot-3*%
%LPD*%
G54D53*
X00714Y00713D02*
Y00867D01*
X00757Y00911*
X00941*
X00697Y00706D02*
X00714Y00689D01*
X00697Y00706D02*
Y00817D01*
X00941Y00911D02*
X00986Y00866D01*
X00663Y0085D02*
X00697Y00817D01*
X00931Y00855D02*
X00966Y00821D01*
X00855Y00681D02*
X00896Y00721D01*
X00801Y00681D02*
X00855D01*
X05129Y00834D02*
X05748D01*
X05102Y0086D02*
X05129Y00834D01*
X04613Y0086D02*
X05102D01*
X05118Y00813D02*
X05748D01*
X05091Y0084D02*
X05118Y00813D01*
X04139Y0084D02*
X05091D01*
X04086Y00913D02*
X04567D01*
X04066Y00932D02*
X04086Y00913D01*
X03951Y00932D02*
X04066D01*
X03856Y01028D02*
X03951Y00932D01*
X03662Y00892D02*
X03896D01*
X03916Y00873*
X036Y00954D02*
X03662Y00892D01*
X04228Y00874D02*
X04229Y00875D01*
X0414Y00874D02*
X04228D01*
X04139Y00873D02*
X0414Y00874D01*
X04583Y00786D02*
X04584Y00787D01*
X0414Y00786D02*
X04583D01*
X04139Y00785D02*
X0414Y00786D01*
X04169Y00856D02*
X04392D01*
X04111Y00836D02*
X04139Y00808D01*
X04392Y00856D02*
X044Y00864D01*
X05823Y00486D02*
Y00737D01*
X05748Y00813D02*
X05823Y00737D01*
X03759Y01085D02*
X0378Y01064D01*
X03601Y01085D02*
X03759D01*
X00756Y00888D02*
X00788Y00856D01*
X04103Y0069D02*
X04772D01*
X04095Y00697D02*
X04103Y0069D01*
X04073Y00697D02*
X04095D01*
X04072Y00699D02*
X04073Y00697D01*
X00788Y00856D02*
X00931Y00855D01*
X01191Y00636D02*
X01548D01*
X01154Y00599D02*
X01191Y00636D01*
X01146Y00618D02*
X01183Y00655D01*
X01539*
X03663Y00755D02*
X03912D01*
X03655Y00763D02*
X03663Y00755D01*
X04197Y00891D02*
X05024D01*
X0411Y00706D02*
X04189D01*
X05024Y00891D02*
X05087Y00953D01*
X05102Y00416D02*
X05123Y00437D01*
X0418Y00416D02*
X05102D01*
X04772Y0069D02*
X04843Y00761D01*
X04111Y00836D02*
Y00857D01*
X04071Y01127D02*
X0409Y01108D01*
X04041Y01127D02*
X04071D01*
X03953Y01215D02*
X04041Y01127D01*
X0409Y00969D02*
Y01108D01*
X04019Y01013D02*
Y01035D01*
X04001Y01052D02*
X04019Y01035D01*
X03935Y01052D02*
X04001D01*
X04019Y01013D02*
X04102Y0093D01*
X04058Y0091D02*
X04111Y00857D01*
X03814Y0091D02*
X04058D01*
X0392Y01067D02*
X03935Y01052D01*
X0392Y01067D02*
Y01091D01*
X05748Y00834D02*
X05825Y0091D01*
X04399Y00805D02*
X05046D01*
X04843Y00761D02*
X05017D01*
X05039Y00784D02*
X05144Y0068D01*
X04832Y00784D02*
X05039D01*
X03619Y00874D02*
X03861D01*
X036Y00892D02*
X03619Y00874D01*
X03861D02*
X03878Y00857D01*
X0396Y00957D02*
X04049D01*
X03855Y01062D02*
X0396Y00957D01*
X03855Y01062D02*
Y01079D01*
X03751Y00973D02*
X03814Y0091D01*
X03582Y00973D02*
X03751D01*
X03878Y00857D02*
X03898D01*
X03793Y00962D02*
X03826D01*
X03762Y00993D02*
X03793Y00962D01*
X03723Y00993D02*
X03762D01*
X03575Y0098D02*
X03582Y00973D01*
X03575Y0098D02*
Y01105D01*
X03549Y0113D02*
X03575Y01105D01*
X03549Y0113D02*
Y0115D01*
X05825Y0091D02*
Y01161D01*
X0476Y00712D02*
X04832Y00784D01*
X04242Y00712D02*
X0476D01*
X05122Y0073D02*
X05145D01*
X05046Y00805D02*
X05122Y0073D01*
X03781Y00711D02*
X0393D01*
X03765Y00727D02*
X03781Y00711D01*
X04613Y00762D02*
X04613Y00762D01*
X04158Y00762D02*
X04613D01*
X04157Y00762D02*
X04158Y00762D01*
X00958Y00782D02*
X00966Y0079D01*
X00918Y00782D02*
X00958D01*
X00876Y00825D02*
X00918Y00782D01*
X01609Y00796D02*
X01642Y00763D01*
Y0075D02*
Y00763D01*
X01681Y0075D02*
Y00792D01*
X01661Y00812D02*
X01681Y00792D01*
X0157Y00812D02*
X01661D01*
X01558Y00823D02*
X0157Y00812D01*
X01558Y00823D02*
Y00837D01*
X01686Y00815D02*
Y00848D01*
X01674Y0086D02*
X01686Y00848D01*
X01595Y0086D02*
X01674D01*
X01584Y00849D02*
X01595Y0086D01*
X01584Y00837D02*
Y00849D01*
X01681Y0075D02*
X01681Y0075D01*
X00952Y00599D02*
X01154D01*
X0092Y00631D02*
X00952Y00599D01*
X0092Y00631D02*
Y00721D01*
X00962Y00618D02*
X01146D01*
X00946Y00633D02*
X00962Y00618D01*
X00946Y00633D02*
Y00721D01*
X0102Y00802D02*
X01072Y0075D01*
X01005Y00802D02*
X0102D01*
X0085Y00824D02*
X00911Y00762D01*
X00946*
X01589Y0092D02*
X01718D01*
X01859*
X0189Y00951*
X01636Y00987D02*
X01697Y01048D01*
X01481Y00987D02*
X01636D01*
X01456Y01012D02*
X01481Y00987D01*
X0181Y01124D02*
X01878D01*
X01734Y01048D02*
X0181Y01124D01*
X01697Y01048D02*
X01734D01*
X01878Y01124D02*
X01905Y01096D01*
X00966Y0079D02*
Y00802D01*
X01507Y00837D02*
X01589Y0092D01*
X00903Y00826D02*
X00922D01*
X00946Y00802*
X01456Y01012D02*
Y01069D01*
X01005Y00729D02*
Y00762D01*
Y00729D02*
X0101Y00724D01*
Y00692D02*
Y00724D01*
X0101Y00782D02*
X01025Y00767D01*
Y00762D02*
Y00767D01*
X00986Y00762D02*
X00987Y00763D01*
X01004Y00781D02*
X01005Y00782D01*
X00986Y00789D02*
Y00802D01*
X01Y00781D02*
X01004D01*
X00987Y00767D02*
X01Y00781D01*
X00987Y00763D02*
Y00767D01*
X00966Y00821D02*
X00966Y00821D01*
Y0077D02*
X00986Y00789D01*
X00966Y0064D02*
Y0077D01*
X0189Y00951D02*
X01921D01*
X01832Y01D02*
X01921D01*
X01799Y00967D02*
X01832Y01D01*
X0143Y01004D02*
Y01069D01*
X01468Y00967D02*
X01799D01*
X0143Y01004D02*
X01468Y00967D01*
X01905Y01026D02*
Y01096D01*
G54D55*
X03901Y00633D02*
X03928Y0066D01*
X03955Y00605D02*
Y00633D01*
X0436Y00645D02*
X04363D01*
X04348Y00633D02*
X0436Y00645D01*
X03448Y00824D02*
X03838D01*
X03418Y00855D02*
X03448Y00824D01*
X03418Y00855D02*
Y01183D01*
X0384Y00849D02*
X03882Y00807D01*
X03459Y00849D02*
X0384D01*
X03441Y00867D02*
X03459Y00849D01*
X04098Y00633D02*
X04348D01*
X04072Y0066D02*
X04098Y00633D01*
X03441Y00867D02*
Y01192D01*
X03396Y01237D02*
X03441Y01192D01*
X02623Y01237D02*
X03396D01*
X03387Y01214D02*
X03418Y01183D01*
X02636Y01214D02*
X03387D01*
X03928Y0066D02*
X04072D01*
X01717Y01072D02*
X01818Y01173D01*
X01352Y00896D02*
X01507D01*
X01289Y0096D02*
X01352Y00896D01*
X00857Y0096D02*
X01289D01*
X00822Y00982D02*
X01289D01*
X00779Y00939D02*
X00822Y00982D01*
X01398Y01121D02*
X01507D01*
X0128Y01003D02*
X01398Y01121D01*
X00788Y01003D02*
X0128D01*
X00766Y00981D02*
X00788Y01003D01*
X01289Y00982D02*
X01405Y01098D01*
X00835Y00938D02*
X00857Y0096D01*
X02072Y01216D02*
X02203Y01085D01*
X01678Y01216D02*
X02072D01*
X0156Y01098D02*
X01678Y01216D01*
X02507Y01085D02*
X02636Y01214D01*
X02203Y01085D02*
X02507D01*
X02491Y01105D02*
X02623Y01237D01*
X02216Y01105D02*
X02491D01*
X01405Y01098D02*
X01482D01*
X02085Y01237D02*
X02216Y01105D01*
X01668Y01237D02*
X02085D01*
X01507Y01121D02*
X01552D01*
X01482Y01098D02*
X0156D01*
X01552Y01121D02*
X01668Y01237D01*
G54D56*
X00748Y01077D02*
X00789Y01118D01*
X00584Y01077D02*
X00748D01*
X00789Y01118D02*
Y01141D01*
X00686Y01191D02*
X00738Y0114D01*
X00584Y01191D02*
X00686D01*
X00458Y01193D02*
X0051Y0114D01*
X00687*
G54D62*
X03955Y00605D02*
X04411D01*
X02997Y00437D02*
X03267D01*
X01375Y00458D02*
X01402Y00431D01*
X03852Y00605D02*
X03955D01*
X03816Y00569D02*
X03852Y00605D01*
X03808Y00569D02*
X03816D01*
X02997Y00437D02*
Y00635D01*
X02506Y00437D02*
X02997D01*
X02407Y00536D02*
X02506Y00437D01*
X02318Y00536D02*
X02407D01*
X02213Y00431D02*
X02318Y00536D01*
X01402Y00431D02*
X02213D01*
G54D65*
X00626Y00965D03*
X00502D03*
X00626Y00598D03*
X00502D03*
G54D66*
X04645Y01138D03*
X04527D03*
X04409D03*
G54D67*
X04763Y01215D03*
X04172D03*
G54D68*
X0429Y01138D03*
G54D69*
X03808Y00569D03*
X03267Y00438D03*
X03155Y00634D03*
X01375Y00458D03*
X02997Y00635D03*
G54D70*
X00476Y00476D03*
X04846Y01183D03*
G54D71*
X0184Y00858D03*
X01965D03*
Y01058D03*
X0184D03*
G54D72*
X0184Y00958D03*
X0204Y00998D03*
Y00918D03*
G54D73*
X01222Y0117D03*
Y00489D03*
G54D74*
X00458Y01077D03*
Y01193D03*
X00584Y01191D03*
X02534Y00957D03*
X00584Y01077D03*
X019Y01172D03*
X01817D03*
X01729D03*
G54D75*
X03947Y00477D03*
G54D76*
X04068Y0086D03*
Y00773D03*
X03981Y0086D03*
Y00773D03*
X04025Y0086D03*
X04068Y00817D03*
X03981D03*
X04025Y00774D03*
G54D77*
X05069Y005D03*
X05147Y01023D03*
X04124Y01019D03*
X04123Y01096D03*
X04491Y0099D03*
X04516Y00947D03*
X04517Y0099D03*
X04516Y00969D03*
X04408Y00947D03*
X04409Y0099D03*
X04408Y00969D03*
X00638Y00874D03*
X00663Y00689D03*
X00638D03*
X00689Y00689D03*
X00688Y00874D03*
X05373Y00789D03*
Y00726D03*
X05293Y00789D03*
Y00726D03*
X05213D03*
Y00789D03*
X00714Y00713D03*
Y00689D03*
X00663Y00874D03*
X03901Y00633D03*
X03754Y00575D03*
X03712D03*
X00896Y00721D03*
X04363Y00645D03*
X04195Y00458D03*
X04139Y00785D03*
X04169Y00856D03*
X04139Y00808D03*
X04168Y00824D03*
X04139Y00873D03*
X03721Y01064D03*
X0378Y01064D03*
X00663Y0085D03*
X00756Y00888D03*
X01548Y00636D03*
X01539Y00655D03*
X01642Y0075D03*
X01681Y00562D03*
X01547Y00715D03*
Y00695D03*
Y00675D03*
X01686Y00815D03*
X01681Y0075D03*
X01736Y00596D03*
X01701Y00562D03*
X03838Y00824D03*
X03882Y00807D03*
X03912Y00755D03*
X04853Y00619D03*
Y00642D03*
X04197Y00891D03*
X04189Y00706D03*
X04229Y00875D03*
X04139Y0084D03*
X0418Y00416D03*
X04072Y00699D03*
X0411Y00706D03*
X04601Y00912D03*
X04584Y00787D03*
X044Y00864D03*
X03723Y00939D03*
X03662D03*
X03723Y00993D03*
X04683Y00936D03*
X04733Y00936D03*
X04708D03*
X04658Y00936D03*
X0438Y00969D03*
X04381Y0099D03*
X0438Y00947D03*
X04491Y00969D03*
X04491Y00947D03*
X04102Y0093D03*
X0409Y00969D03*
X04914Y00974D03*
X04613Y0086D03*
X05373Y00861D03*
X05293D03*
X05213D03*
X05017Y00761D03*
X04055Y01096D03*
X03805Y00805D03*
X03931Y01026D03*
X0399D03*
X04049Y00957D03*
X03986Y01076D03*
X03855Y01079D03*
X03953Y01215D03*
X04014D03*
X03893Y01163D03*
X03833Y01162D03*
X03856Y01028D03*
X03826Y00962D03*
X03489Y01096D03*
X03601Y01085D03*
X03662Y01064D03*
X04914Y01074D03*
X04055Y01019D03*
X05293Y00924D03*
X05213D03*
X05373D03*
X0392Y01091D03*
X04813Y00619D03*
Y00642D03*
X0507Y00437D03*
X04752Y00521D03*
X05123Y00437D03*
X04672Y00458D03*
X04752D03*
X03985Y01106D03*
X05362Y01225D03*
X05312D03*
X05212D03*
X05362Y00992D03*
X05212D03*
X05262Y01225D03*
X05312Y00992D03*
X05262D03*
X05636Y00568D03*
X05743D03*
Y01081D03*
X05636D03*
Y01031D03*
X04242Y00712D03*
X04592Y00458D03*
X04512D03*
X04432D03*
X04352D03*
X04272D03*
X03955Y00633D03*
X0393Y00711D03*
X03604Y00542D03*
X04483Y00577D03*
X04507D03*
X04531D03*
X04459D03*
X04332D03*
X04308D03*
X04284D03*
X0426D03*
X05144Y0063D03*
X05021Y005D03*
X05263Y00428D03*
X03765Y00727D03*
X03655Y00763D03*
X0361Y00728D03*
X03655D03*
X03916Y00873D03*
X03898Y00857D03*
X05636Y00667D03*
X0569D03*
X05743D03*
Y00618D03*
X0569D03*
X05636D03*
X0569Y00568D03*
Y01081D03*
X05743Y01031D03*
X0569D03*
X05743Y00982D03*
X0569D03*
X05636D03*
X05071Y01197D03*
X05147Y01074D03*
X05147Y00973D03*
X04914Y01124D03*
Y01024D03*
X05363Y00661D03*
X05313D03*
X05263D03*
X05213D03*
X05144Y0068D03*
Y0058D03*
X05021Y00465D03*
X05145Y0073D03*
X04399Y00805D03*
X05122Y005D03*
X05313Y00428D03*
X05213D03*
X04195Y00522D03*
X04567Y00913D03*
X05087Y00953D03*
X04613Y00762D03*
X05823Y00486D03*
X05825Y01161D03*
X04157Y00762D03*
X04127Y00656D03*
X00779Y00939D03*
X00766Y00981D03*
X00835Y00938D03*
X04672Y00521D03*
X04592D03*
X04512D03*
X04432D03*
X04352D03*
X04272D03*
X02567Y0055D03*
X02751Y01168D03*
X02701D03*
X02726D03*
X02374Y00997D03*
X02182Y00892D03*
X02183Y00925D03*
X02416Y00721D03*
X01232Y01031D03*
X02085Y01163D03*
X01388Y00696D03*
X00789Y01141D03*
X00687Y0114D03*
X00738Y0114D03*
X0083Y00737D03*
Y00783D03*
X01717Y01072D03*
X01609Y00796D03*
X01584Y00837D03*
X01558D03*
X02517Y00555D03*
X01462Y00684D03*
Y00607D03*
X0085Y00824D03*
X02925Y01181D03*
X02866D03*
X02895D03*
X00966Y0064D03*
X00792Y00888D03*
X00779Y00732D03*
X01507Y00896D03*
X01482Y01098D03*
X01507Y01121D03*
X00779Y00788D03*
X00876Y00825D03*
X01005Y00897D03*
X02861Y00572D03*
X01717Y0102D03*
X01718Y0092D03*
Y00885D03*
X02015Y00958D03*
X01575Y01187D03*
X0153D03*
X01485D03*
X00903Y00826D03*
X00958Y00932D03*
X01005Y00932D03*
X01072Y0075D03*
X0101Y00692D03*
X01072Y00715D03*
X00801Y00681D03*
X0143Y00837D03*
X00911Y00932D03*
X01073Y00905D03*
X01072Y00637D03*
Y00793D03*
X01507Y00837D03*
X03548Y00954D03*
X03548Y0102D03*
X03548Y01085D03*
X04025Y00817D03*
X03549Y00892D03*
X04953Y00719D03*
X04996D03*
X05039D03*
X04953Y00676D03*
X04996D03*
X05039D03*
X04953Y00633D03*
X04996D03*
X05039D03*
X04953Y0059D03*
X04996D03*
X05039D03*
X04956Y01113D03*
X04999D03*
X05042D03*
X04956Y0107D03*
X04999D03*
X05042D03*
X04956Y01027D03*
X04999D03*
X05042D03*
X04956Y00984D03*
X04999D03*
X05042D03*
X05352Y00619D03*
Y00576D03*
Y00533D03*
X05309Y00619D03*
Y00576D03*
Y00533D03*
X05266Y00619D03*
Y00576D03*
Y00533D03*
X05223Y00619D03*
Y00576D03*
Y00533D03*
X03549Y0115D03*
X036Y00954D03*
Y00892D03*
X05222Y01034D03*
Y01077D03*
Y0112D03*
X05265Y01034D03*
Y01077D03*
Y0112D03*
X05308Y01034D03*
Y01077D03*
Y0112D03*
X05351Y01034D03*
Y01077D03*
Y0112D03*
X00986Y00762D03*
X01005Y00762D03*
X01025Y00762D03*
X01005Y00802D03*
Y00782D03*
X01025Y00821D03*
X00986Y00802D03*
X0092Y00721D03*
X00966Y00802D03*
X00946D03*
X00966Y00821D03*
X00986Y00866D03*
X00946Y00762D03*
Y00721D03*
X01558Y0107D03*
X01503Y00744D03*
X01458D03*
X01921Y00951D03*
Y00999D03*
X01456Y01069D03*
X0143D03*
X01905Y01025D03*
X01598Y00699D03*
X01642D03*
X01685D03*
X01598Y00656D03*
X01642D03*
X01685D03*
X01598Y00612D03*
X01642D03*
X01685D03*
G54D78*
X00456Y00728D03*
Y00835D03*
X006Y00915D03*
Y00648D03*
G54D79*
X04411Y00606D03*
M02*