%FSTAX23Y23*%
%MOIN*%
%SFA1B1*%

%IPPOS*%
%AMD81*
4,1,8,0.049300,0.000000,0.049300,0.000000,0.025600,0.023700,-0.025600,0.023700,-0.049300,0.000000,-0.049300,0.000000,-0.025600,-0.023700,0.025600,-0.023700,0.049300,0.000000,0.0*
1,1,0.047370,0.025600,0.000000*
1,1,0.047370,0.025600,0.000000*
1,1,0.047370,-0.025600,0.000000*
1,1,0.047370,-0.025600,0.000000*
%
%ADD71C,0.093504*%
%ADD72C,0.033465*%
%ADD73O,0.090551X0.078740*%
%ADD77C,0.018000*%
G04~CAMADD=81~8~0.0~0.0~473.7~985.5~236.8~0.0~15~0.0~0.0~0.0~0.0~0~0.0~0.0~0.0~0.0~0~0.0~0.0~0.0~270.0~986.0~474.0*
%ADD81D81*%
%ADD82C,0.065843*%
%ADD83C,0.056000*%
%ADD84R,0.065843X0.065843*%
%ADD85C,0.106425*%
%ADD86C,0.068000*%
%ADD87C,0.068000*%
%ADD88C,0.126110*%
%ADD98C,0.028000*%
%ADD99R,0.047370X0.031622*%
%ADD100R,0.047370X0.019811*%
%ADD101R,0.045402X0.041465*%
%ADD102R,0.063118X0.059181*%
%ADD103R,0.078866X0.059181*%
%ADD104R,0.047370X0.043433*%
%ADD105R,0.072961X0.055244*%
%ADD106R,0.078866X0.204850*%
%ADD107R,0.031622X0.063118*%
%ADD108R,0.031622X0.078866*%
%ADD109R,0.106425X0.074929*%
%ADD110R,0.031622X0.037528*%
%ADD111C,0.039496*%
%ADD112R,0.092646X0.104457*%
%ADD113R,0.145795X0.100520*%
%ADD114O,0.021654X0.059055*%
%ADD115O,0.011811X0.031496*%
%ADD116O,0.031496X0.011811*%
%ADD117R,0.122047X0.122047*%
%ADD118C,0.018236*%
%ADD119R,0.045402X0.033591*%
%ADD120R,0.037528X0.031622*%
%ADD121R,0.033197X0.031622*%
%ADD122R,0.059181X0.063118*%
%ADD123O,0.063118X0.027685*%
%ADD124O,0.047370X0.027685*%
%ADD125R,0.043433X0.047370*%
%ADD126R,0.104457X0.108394*%
%ADD127R,0.041465X0.045402*%
%ADD128O,0.027685X0.063118*%
%ADD129O,0.027685X0.047370*%
%ADD130R,0.055244X0.072961*%
%ADD131R,0.204850X0.185165*%
%ADD132R,0.023748X0.035559*%
%ADD133R,0.043433X0.039496*%
%ADD134R,0.031622X0.033197*%
%ADD135R,0.055244X0.055244*%
%ADD136O,0.045402X0.019811*%
%ADD137O,0.019811X0.045402*%
%ADD138R,0.139890X0.139890*%
%ADD139R,0.059181X0.078866*%
%ADD140R,0.045402X0.043433*%
%ADD141C,0.026000*%
%LNpcb_soldermask_top-1*%
%LPD*%
G36*
X0537Y01148D02*
X0537Y01148D01*
X05371Y01148*
X05371Y01147*
X05372Y01147*
X05372Y01147*
X05372Y01146*
X05373Y01146*
X05373Y01145*
X05373Y01145*
X05373Y01144*
X05373Y01144*
Y01024*
X05373Y01023*
X05374Y01021*
X05374Y01019*
X05375Y01017*
X05376Y01017*
X05376Y01017*
X05376Y01016*
X05376Y01016*
X05376Y01016*
X05376Y01016*
X05377Y01016*
X05377Y01016*
X05377Y01016*
X05377Y01016*
X05377Y01015*
X05377Y01015*
X05377Y01015*
X05377Y01015*
X05377Y01015*
X05377Y01015*
X05377Y01015*
X05377Y01015*
X05377Y01014*
X05377Y01014*
X05377Y01014*
X05377Y01014*
X05377Y01014*
Y01002*
X05377Y01002*
X05377Y01001*
X05377Y01001*
X05377Y01*
X05376Y01*
X05376Y00999*
X05376Y00999*
X05375Y00999*
X05375Y00998*
X05374Y00998*
X05374Y00998*
X05373Y00998*
X052*
X05199Y00998*
X05199Y00998*
X05198Y00998*
X05198Y00999*
X05197Y00999*
X05197Y00999*
X05197Y01*
X05196Y01*
X05196Y01001*
X05196Y01001*
X05196Y01002*
X05196Y01002*
Y01014*
Y01014*
X05196Y01014*
X05196Y01014*
X05196Y01014*
X05196Y01014*
X05196Y01015*
X05196Y01015*
X05196Y01015*
X05196Y01015*
X05196Y01015*
X05196Y01015*
X05196Y01015*
X05196Y01015*
X05196Y01016*
X05196Y01016*
X05196Y01016*
X05196Y01016*
X05197Y01016*
X05197Y01016*
X05197Y01016*
X05197Y01016*
X05197Y01017*
X05197Y01017*
X05198Y01017*
X05199Y01019*
X05199Y01021*
X052Y01023*
X052Y01024*
Y01144*
X052Y01144*
X052Y01145*
X052Y01145*
X052Y01146*
X05201Y01146*
X05201Y01147*
X05201Y01147*
X05202Y01147*
X05202Y01148*
X05203Y01148*
X05203Y01148*
X05204Y01148*
X05369*
X0537Y01148*
G37*
G36*
X04936Y01139D02*
X04936Y01139D01*
X04936Y01139*
X04936Y01139*
X04937Y01139*
X04937Y01139*
X04937Y01139*
X04937Y01139*
X04937Y01139*
X04937Y01139*
X04937Y01139*
X04937Y01139*
X04938Y01139*
X04938Y01139*
X04938Y01139*
X04938Y01139*
X04938Y01138*
X04938Y01138*
X04938Y01138*
X04938Y01138*
X04939Y01138*
X04939Y01138*
X04939Y01137*
X04941Y01136*
X04943Y01136*
X04945Y01135*
X04946Y01135*
X05066*
X05066Y01135*
X05067Y01135*
X05067Y01135*
X05068Y01135*
X05068Y01134*
X05069Y01134*
X05069Y01134*
X05069Y01133*
X0507Y01133*
X0507Y01132*
X0507Y01132*
X0507Y01131*
Y00966*
X0507Y00965*
X0507Y00965*
X0507Y00964*
X05069Y00964*
X05069Y00963*
X05069Y00963*
X05068Y00963*
X05068Y00962*
X05067Y00962*
X05067Y00962*
X05066Y00962*
X05066Y00962*
X04946*
X04945Y00962*
X04943Y00961*
X04941Y00961*
X04939Y0096*
X04939Y00959*
X04939Y00959*
X04938Y00959*
X04938Y00959*
X04938Y00959*
X04938Y00959*
X04938Y00958*
X04938Y00958*
X04938Y00958*
X04938Y00958*
X04937Y00958*
X04937Y00958*
X04937Y00958*
X04937Y00958*
X04937Y00958*
X04937Y00958*
X04937Y00958*
X04937Y00958*
X04936Y00958*
X04936Y00958*
X04936Y00958*
X04936Y00958*
X04936Y00958*
X04924*
X04924Y00958*
X04923Y00958*
X04923Y00958*
X04922Y00958*
X04922Y00959*
X04921Y00959*
X04921Y00959*
X04921Y0096*
X0492Y0096*
X0492Y00961*
X0492Y00961*
X0492Y00962*
Y01135*
X0492Y01136*
X0492Y01136*
X0492Y01137*
X04921Y01137*
X04921Y01138*
X04921Y01138*
X04922Y01138*
X04922Y01139*
X04923Y01139*
X04923Y01139*
X04924Y01139*
X04924Y01139*
X04936*
X04936Y01139*
G37*
G36*
X02254Y01081D02*
X02254Y01081D01*
X02255Y01081*
X02255Y0108*
X02256Y0108*
X02256Y0108*
X02282Y01054*
X02282Y01054*
X02282Y01053*
X02283Y01053*
X02283Y01052*
X02283Y01052*
X02283Y01051*
Y00977*
X02283Y00976*
X02283Y00975*
X02283Y00975*
X02282Y00975*
X02282Y00974*
X02282Y00974*
X02256Y00948*
X02256Y00948*
X02255Y00947*
X02255Y00947*
X02254Y00947*
X02254Y00947*
X02253Y00947*
X0223*
X02229Y00947*
X02229Y00947*
X02228Y00947*
X02228Y00947*
X02227Y00948*
X02227Y00948*
X02201Y00974*
X02201Y00974*
X02201Y00975*
X022Y00975*
X022Y00975*
X022Y00976*
X022Y00977*
Y01051*
X022Y01052*
X022Y01052*
X022Y01053*
X02201Y01053*
X02201Y01054*
X02201Y01054*
X02227Y0108*
X02227Y0108*
X02228Y0108*
X02228Y01081*
X02229Y01081*
X02229Y01081*
X0223Y01081*
X02253*
X02254Y01081*
G37*
G36*
X04933Y00745D02*
X04933Y00745D01*
X04933Y00745*
X04933Y00745*
X04934Y00745*
X04934Y00745*
X04934Y00745*
X04934Y00745*
X04934Y00745*
X04934Y00745*
X04934Y00745*
X04934Y00745*
X04935Y00745*
X04935Y00745*
X04935Y00745*
X04935Y00745*
X04935Y00744*
X04935Y00744*
X04935Y00744*
X04935Y00744*
X04936Y00744*
X04936Y00744*
X04936Y00743*
X04938Y00742*
X0494Y00742*
X04942Y00741*
X04943Y00741*
X05063*
X05063Y00741*
X05064Y00741*
X05064Y00741*
X05065Y00741*
X05065Y0074*
X05066Y0074*
X05066Y0074*
X05066Y00739*
X05067Y00739*
X05067Y00738*
X05067Y00738*
X05067Y00737*
Y00572*
X05067Y00571*
X05067Y00571*
X05067Y0057*
X05066Y0057*
X05066Y00569*
X05066Y00569*
X05065Y00569*
X05065Y00568*
X05064Y00568*
X05064Y00568*
X05063Y00568*
X05063Y00568*
X04943*
X04942Y00568*
X0494Y00567*
X04938Y00567*
X04936Y00566*
X04936Y00565*
X04936Y00565*
X04935Y00565*
X04935Y00565*
X04935Y00565*
X04935Y00565*
X04935Y00564*
X04935Y00564*
X04935Y00564*
X04935Y00564*
X04934Y00564*
X04934Y00564*
X04934Y00564*
X04934Y00564*
X04934Y00564*
X04934Y00564*
X04934Y00564*
X04934Y00564*
X04933Y00564*
X04933Y00564*
X04933Y00564*
X04933Y00564*
X04933Y00564*
X04921*
X04921Y00564*
X0492Y00564*
X0492Y00564*
X04919Y00564*
X04919Y00565*
X04918Y00565*
X04918Y00565*
X04918Y00566*
X04917Y00566*
X04917Y00567*
X04917Y00567*
X04917Y00568*
Y00741*
X04917Y00742*
X04917Y00742*
X04917Y00743*
X04918Y00743*
X04918Y00744*
X04918Y00744*
X04919Y00744*
X04919Y00745*
X0492Y00745*
X0492Y00745*
X04921Y00745*
X04921Y00745*
X04933*
X04933Y00745*
G37*
G36*
X05375Y00655D02*
X05375Y00655D01*
X05376Y00655*
X05376Y00654*
X05377Y00654*
X05377Y00654*
X05377Y00653*
X05378Y00653*
X05378Y00652*
X05378Y00652*
X05378Y00651*
X05378Y00651*
Y00639*
X05378Y00639*
X05378Y00639*
X05378Y00639*
X05378Y00639*
X05378Y00638*
X05378Y00638*
X05378Y00638*
X05378Y00638*
X05378Y00638*
X05378Y00638*
X05378Y00638*
X05378Y00638*
X05378Y00637*
X05378Y00637*
X05378Y00637*
X05378Y00637*
X05377Y00637*
X05377Y00637*
X05377Y00637*
X05377Y00637*
X05377Y00636*
X05377Y00636*
X05376Y00636*
X05375Y00634*
X05375Y00632*
X05374Y0063*
X05374Y00629*
Y00509*
X05374Y00509*
X05374Y00508*
X05374Y00508*
X05374Y00507*
X05373Y00507*
X05373Y00506*
X05373Y00506*
X05372Y00506*
X05372Y00505*
X05371Y00505*
X05371Y00505*
X0537Y00505*
X05205*
X05204Y00505*
X05204Y00505*
X05203Y00505*
X05203Y00506*
X05202Y00506*
X05202Y00506*
X05202Y00507*
X05201Y00507*
X05201Y00508*
X05201Y00508*
X05201Y00509*
X05201Y00509*
Y00629*
X05201Y0063*
X052Y00632*
X052Y00634*
X05199Y00636*
X05198Y00636*
X05198Y00636*
X05198Y00637*
X05198Y00637*
X05198Y00637*
X05198Y00637*
X05197Y00637*
X05197Y00637*
X05197Y00637*
X05197Y00637*
X05197Y00638*
X05197Y00638*
X05197Y00638*
X05197Y00638*
X05197Y00638*
X05197Y00638*
X05197Y00638*
X05197Y00638*
X05197Y00639*
X05197Y00639*
X05197Y00639*
X05197Y00639*
X05197Y00639*
Y00651*
X05197Y00651*
X05197Y00652*
X05197Y00652*
X05197Y00653*
X05198Y00653*
X05198Y00654*
X05198Y00654*
X05199Y00654*
X05199Y00655*
X052Y00655*
X052Y00655*
X05201Y00655*
X05374*
X05375Y00655*
G37*
G54D71*
X0184Y00858D03*
X01965D03*
Y01058D03*
X0184D03*
G54D72*
X0184Y00958D03*
X0204Y00998D03*
Y00918D03*
G54D73*
X01222Y0117D03*
Y00489D03*
G54D77*
X00986Y00762D03*
X01005Y00762D03*
X01025Y00762D03*
X01005Y00802D03*
Y00782D03*
X01025Y00821D03*
X00986Y00802D03*
X00966D03*
X00946D03*
X00966Y00821D03*
X00946Y00762D03*
G54D81*
X00626Y00965D03*
X00502D03*
X00626Y00598D03*
X00502D03*
G54D82*
X04645Y01138D03*
X04527D03*
X04409D03*
G54D83*
X04763Y01215D03*
X04172D03*
G54D84*
X0429Y01138D03*
G54D85*
X00476Y00476D03*
X04846Y01183D03*
G54D86*
X01375Y00458D03*
G54D87*
X00458Y01077D03*
Y01193D03*
X00584Y01191D03*
X02534Y00957D03*
X00584Y01077D03*
X019Y01172D03*
X01817D03*
X01729D03*
G54D88*
X03947Y00477D03*
G54D98*
X04777Y01215D02*
D01*
X04777Y01216*
X04777Y01217*
X04777Y01218*
X04776Y01219*
X04776Y01219*
X04776Y0122*
X04775Y01221*
X04775Y01222*
X04774Y01223*
X04774Y01224*
X04773Y01224*
X04772Y01225*
X04771Y01226*
X04771Y01226*
X0477Y01227*
X04769Y01227*
X04768Y01228*
X04767Y01228*
X04766Y01228*
X04765Y01228*
X04764Y01229*
X04763Y01229*
X04762*
X04761Y01229*
X0476Y01228*
X04759Y01228*
X04759Y01228*
X04758Y01228*
X04757Y01227*
X04756Y01227*
X04755Y01226*
X04754Y01226*
X04753Y01225*
X04753Y01224*
X04752Y01224*
X04752Y01223*
X04751Y01222*
X0475Y01221*
X0475Y0122*
X0475Y01219*
X04749Y01219*
X04749Y01218*
X04749Y01217*
X04749Y01216*
X04749Y01215*
X04749Y01214*
X04749Y01213*
X04749Y01212*
X04749Y01211*
X0475Y0121*
X0475Y01209*
X0475Y01208*
X04751Y01207*
X04752Y01206*
X04752Y01206*
X04753Y01205*
X04753Y01204*
X04754Y01204*
X04755Y01203*
X04756Y01203*
X04757Y01202*
X04758Y01202*
X04759Y01201*
X04759Y01201*
X0476Y01201*
X04761Y01201*
X04762Y01201*
X04763*
X04764Y01201*
X04765Y01201*
X04766Y01201*
X04767Y01201*
X04768Y01202*
X04769Y01202*
X0477Y01203*
X04771Y01203*
X04771Y01204*
X04772Y01204*
X04773Y01205*
X04774Y01206*
X04774Y01206*
X04775Y01207*
X04775Y01208*
X04776Y01209*
X04776Y0121*
X04776Y01211*
X04777Y01212*
X04777Y01213*
X04777Y01214*
X04777Y01215*
G54D99*
X00663Y00906D03*
Y00874D03*
Y00689D03*
Y00657D03*
G54D100*
X00663Y0085D03*
Y00831D03*
Y00811D03*
Y00791D03*
Y00772D03*
Y00752D03*
Y00732D03*
Y00713D03*
G54D101*
X01388Y00696D03*
Y00645D03*
X03661Y00937D03*
Y00989D03*
X03931Y00975D03*
Y01026D03*
X04017Y00679D03*
Y00628D03*
X0384Y00678D03*
Y00627D03*
X03665Y00541D03*
Y00592D03*
X03893Y01214D03*
Y01163D03*
X03855Y01079D03*
Y01028D03*
X03604Y00593D03*
Y00542D03*
X0378Y01116D03*
Y01064D03*
X03662D03*
Y01116D03*
X0399Y00975D03*
Y01026D03*
X01716Y01072D03*
Y01021D03*
G54D102*
X05213Y00793D03*
Y0073D03*
X04832Y00809D03*
Y00872D03*
X05373Y0073D03*
Y00793D03*
X05293Y0073D03*
Y00793D03*
X04986Y00808D03*
Y00871D03*
X04909Y00808D03*
Y00871D03*
X05213Y00924D03*
Y00861D03*
X05293Y00924D03*
Y00861D03*
X05373Y00924D03*
Y00861D03*
X05063Y00808D03*
Y00871D03*
X04752Y00458D03*
Y00521D03*
X04672Y00458D03*
Y00521D03*
X04592Y00458D03*
Y00521D03*
X04512Y00458D03*
Y00521D03*
X04432Y00458D03*
Y00521D03*
X04352Y00458D03*
Y00521D03*
X04272Y00458D03*
Y00521D03*
X04192Y00458D03*
Y00521D03*
G54D103*
X02726Y01053D03*
Y01168D03*
X02416Y00839D03*
Y00725D03*
G54D104*
X02374Y00997D03*
Y0105D03*
X03723Y00936D03*
Y00989D03*
X03489Y01096D03*
Y01149D03*
X03953Y01162D03*
Y01215D03*
X04014D03*
Y01162D03*
X03833D03*
Y01215D03*
X03721Y01064D03*
Y01117D03*
G54D105*
X01052Y00998D03*
Y01109D03*
X00956Y00999D03*
Y0111D03*
X0086Y00999D03*
Y0111D03*
X04833Y0052D03*
Y00631D03*
G54D106*
X02479Y01118D03*
X02612D03*
G54D107*
X02301Y00908D03*
X02182D03*
G54D108*
X02242Y00916D03*
G54D109*
X02085Y01163D03*
X02242D03*
G54D110*
X00688Y0114D03*
Y01185D03*
X00789Y01141D03*
Y01187D03*
X00738Y01186D03*
Y0114D03*
X02517Y00555D03*
Y0051D03*
X02459Y00613D03*
Y00658D03*
G54D111*
X0194Y00983D03*
X0199Y00933D03*
X0194D03*
X0189Y00983D03*
Y00933D03*
X0199Y00983D03*
G54D112*
X02997Y00716D03*
Y00547D03*
X03155Y00716D03*
Y00547D03*
X02895Y01184D03*
Y01015D03*
G54D113*
X02726Y00672D03*
Y00908D03*
G54D114*
X0166Y0107D03*
X01635D03*
X01609D03*
X01584D03*
X01558D03*
X01532D03*
X01507D03*
X01481D03*
X01456D03*
X0143D03*
X0166Y00837D03*
X01635D03*
X01609D03*
X01584D03*
X01558D03*
X01532D03*
X01507D03*
X01481D03*
X01456D03*
X0143D03*
G54D115*
X0408Y00896D03*
X04064D03*
X04048D03*
X04033D03*
X04017D03*
X04001D03*
X03985D03*
X0397D03*
Y00737D03*
X03985D03*
X04001D03*
X04017D03*
X04033D03*
X04048D03*
X04064D03*
X0408D03*
G54D116*
X03945Y00872D03*
Y00856D03*
Y0084D03*
Y00825D03*
Y00809D03*
Y00793D03*
Y00777D03*
Y00762D03*
X04105D03*
Y00777D03*
Y00793D03*
Y00809D03*
Y00825D03*
Y0084D03*
Y00856D03*
Y00872D03*
G54D117*
X04025Y00817D03*
G54D118*
X01025Y00743D03*
X01005D03*
X00986D03*
X00966D03*
X00946D03*
X00926D03*
X00966Y00762D03*
X00926D03*
X01025Y00782D03*
X00986D03*
X00966D03*
X00946D03*
X00926D03*
X01025Y00802D03*
X00926D03*
X01005Y00821D03*
X00986D03*
X00946D03*
X00926D03*
G54D119*
X02677Y00588D03*
Y00549D03*
Y00509D03*
X02568D03*
Y00549D03*
Y00588D03*
G54D120*
X0361Y00808D03*
X03655D03*
X0371Y00653D03*
X03755D03*
X00756Y00839D03*
X00802D03*
X00755Y00681D03*
X00801D03*
X01611Y00514D03*
X01656D03*
X00965Y00641D03*
X0101D03*
X00965Y00691D03*
X0101D03*
X00861Y00641D03*
X00907D03*
X00861Y00691D03*
X00907D03*
G54D121*
X0361Y00763D03*
Y00728D03*
X03754Y0061D03*
Y00575D03*
X05021Y005D03*
Y00465D03*
X03712Y0061D03*
Y00575D03*
X03655Y00763D03*
Y00728D03*
X01718Y00885D03*
Y0092D03*
X01072Y00793D03*
Y00828D03*
X00958Y00932D03*
Y00897D03*
X01073Y00905D03*
Y00871D03*
X01503Y00744D03*
Y00779D03*
X01458Y00744D03*
Y00779D03*
X01575Y01187D03*
Y01153D03*
X0153Y01187D03*
Y01153D03*
X01485Y01187D03*
Y01153D03*
X01005Y00897D03*
Y00932D03*
X00911Y00897D03*
Y00932D03*
X01072Y0075D03*
Y00715D03*
Y00672D03*
Y00637D03*
G54D122*
X03983Y01092D03*
X0392D03*
X04055Y01096D03*
X04118D03*
X04055Y01019D03*
X04118D03*
G54D123*
X04911Y0058D03*
Y0063D03*
Y0068D03*
Y0073D03*
X04914Y00974D03*
Y01024D03*
Y01074D03*
Y01124D03*
G54D124*
X05144Y0073D03*
Y0068D03*
Y0063D03*
Y0058D03*
X05147Y01124D03*
Y01074D03*
Y01024D03*
Y00974D03*
G54D125*
X05122Y005D03*
X05069D03*
X04127Y00656D03*
X04074D03*
X03548Y01085D03*
X03601D03*
X03548Y00954D03*
X03601D03*
X0507Y00437D03*
X05123D03*
X05071Y01197D03*
X05124D03*
X05823Y00486D03*
X0577D03*
X05824Y01162D03*
X05771D03*
X03954Y00633D03*
X03901D03*
G54D126*
X04496Y00855D03*
Y00616D03*
X04296Y00855D03*
Y00616D03*
X04696D03*
Y00855D03*
G54D127*
X03549Y00892D03*
X036D03*
X03549Y0115D03*
X036D03*
X03609Y00657D03*
X0366D03*
X036Y01019D03*
X03549D03*
X03827Y00925D03*
X03776D03*
X03856Y00863D03*
X03805D03*
G54D128*
X05213Y00661D03*
X05263D03*
X05313D03*
X05363D03*
X05362Y00992D03*
X05312D03*
X05262D03*
X05212D03*
G54D129*
X05363Y00428D03*
X05313D03*
X05263D03*
X05213D03*
X05212Y01225D03*
X05262D03*
X05312D03*
X05362D03*
G54D130*
X04497Y00968D03*
X04387D03*
G54D131*
X0569Y00618D03*
Y01031D03*
G54D132*
X00779Y00732D03*
X00751D03*
X00779Y00788D03*
X00751D03*
G54D133*
X01515Y00519D03*
X01436Y00481D03*
Y00556D03*
G54D134*
X00791Y00888D03*
X00756D03*
X01462Y00652D03*
X01496D03*
X01462Y00607D03*
X01496D03*
X00864Y00783D03*
X0083D03*
X00864Y00737D03*
X0083D03*
X02508Y00657D03*
X02543D03*
G54D135*
X01315Y0083D03*
X01232D03*
X01315Y00645D03*
X01232D03*
X01315Y01031D03*
X01232D03*
G54D136*
X01547Y00715D03*
Y00695D03*
Y00675D03*
Y00656D03*
Y00636D03*
Y00616D03*
Y00596D03*
X01736D03*
Y00616D03*
Y00636D03*
Y00656D03*
Y00675D03*
Y00695D03*
Y00715D03*
G54D137*
X01582Y00561D03*
X01602D03*
X01622D03*
X01642D03*
X01661D03*
X01681D03*
X01701D03*
Y0075D03*
X01681D03*
X01661D03*
X01642D03*
X01622D03*
X01602D03*
X01582D03*
G54D138*
X01642Y00656D03*
G54D139*
X02861Y00572D03*
X02746D03*
G54D140*
X02509Y00845D03*
Y00721D03*
G54D141*
X04068Y0086D03*
Y00773D03*
X03981Y0086D03*
Y00773D03*
X04025Y0086D03*
X04068Y00817D03*
X03981D03*
X04025Y00774D03*
M02*