%FSTAX23Y23*%
%MOIN*%
%SFA1B1*%

%IPPOS*%
%ADD10R,0.039370X0.023622*%
%ADD11R,0.039370X0.011811*%
%ADD12R,0.037402X0.033465*%
%ADD13R,0.055118X0.051181*%
%ADD14R,0.070866X0.051181*%
%ADD15R,0.039370X0.035433*%
%ADD16R,0.064961X0.047244*%
%ADD17R,0.070866X0.196850*%
%ADD18R,0.023622X0.055118*%
%ADD19R,0.023622X0.070866*%
%ADD20R,0.098425X0.066929*%
%ADD21R,0.023622X0.029528*%
%ADD23R,0.084646X0.096457*%
%ADD24R,0.137795X0.092520*%
%ADD25O,0.017716X0.055118*%
%ADD26O,0.007874X0.027559*%
%ADD27O,0.027559X0.007874*%
%ADD28R,0.118110X0.118110*%
%ADD29C,0.010236*%
%ADD30R,0.037402X0.025591*%
%ADD31R,0.029528X0.023622*%
%ADD32R,0.025197X0.023622*%
%ADD33R,0.051181X0.055118*%
%ADD34O,0.055118X0.019685*%
%ADD35O,0.039370X0.019685*%
%ADD36R,0.035433X0.039370*%
%ADD37R,0.096457X0.100394*%
%ADD38R,0.033465X0.037402*%
%ADD39O,0.019685X0.055118*%
%ADD40O,0.019685X0.039370*%
%ADD41R,0.047244X0.064961*%
%ADD42R,0.196850X0.177165*%
%ADD43R,0.015748X0.027559*%
%ADD44R,0.035433X0.031496*%
%ADD45R,0.023622X0.025197*%
%ADD46R,0.047244X0.047244*%
%ADD47O,0.037402X0.011811*%
%ADD48O,0.011811X0.037402*%
%ADD49R,0.131890X0.131890*%
%ADD50R,0.051181X0.070866*%
%ADD51R,0.037402X0.035433*%
%LNpcb_paste_top-1*%
%LPD*%
G36*
X05369Y01023D02*
X05369Y01022D01*
X0537Y0102*
X05371Y01017*
X05372Y01015*
X05373Y01014*
Y01002*
X052*
Y01014*
X05201Y01015*
X05202Y01017*
X05203Y0102*
X05204Y01022*
X05204Y01023*
Y01144*
X05369*
Y01023*
G37*
G36*
X04937Y01134D02*
X04939Y01133D01*
X04942Y01132*
X04944Y01131*
X04945Y01131*
X05066*
Y00966*
X04945*
X04944Y00966*
X04942Y00965*
X04939Y00964*
X04937Y00963*
X04936Y00962*
X04924*
Y01135*
X04936*
X04937Y01134*
G37*
G36*
X02279Y01051D02*
Y00977D01*
X02253Y00951*
X0223*
X02204Y00977*
Y01051*
X0223Y01077*
X02253*
X02279Y01051*
G37*
G36*
X04934Y0074D02*
X04936Y00739D01*
X04939Y00738*
X04941Y00737*
X04942Y00737*
X05063*
Y00572*
X04942*
X04941Y00572*
X04939Y00571*
X04936Y0057*
X04934Y00569*
X04933Y00568*
X04921*
Y00741*
X04933*
X04934Y0074*
G37*
G36*
X05374Y00639D02*
D01*
X05373Y00638*
X05372Y00636*
X05371Y00633*
X0537Y00631*
X0537Y0063*
Y00509*
X05205*
Y0063*
X05205Y00631*
X05204Y00633*
X05203Y00636*
X05202Y00638*
X05201Y00639*
Y00651*
X05374*
Y00639*
G37*
G54D10*
X00663Y00906D03*
Y00874D03*
Y00689D03*
Y00657D03*
G54D11*
X00663Y0085D03*
Y00831D03*
Y00811D03*
Y00791D03*
Y00772D03*
Y00752D03*
Y00732D03*
Y00713D03*
G54D12*
X01388Y00696D03*
Y00645D03*
X03661Y00937D03*
Y00989D03*
X03931Y00975D03*
Y01026D03*
X04017Y00679D03*
Y00628D03*
X0384Y00678D03*
Y00627D03*
X03665Y00541D03*
Y00592D03*
X03893Y01214D03*
Y01163D03*
X03855Y01079D03*
Y01028D03*
X03604Y00593D03*
Y00542D03*
X0378Y01116D03*
Y01064D03*
X03662D03*
Y01116D03*
X0399Y00975D03*
Y01026D03*
X01716Y01072D03*
Y01021D03*
G54D13*
X05213Y00793D03*
Y0073D03*
X04832Y00809D03*
Y00872D03*
X05373Y0073D03*
Y00793D03*
X05293Y0073D03*
Y00793D03*
X04986Y00808D03*
Y00871D03*
X04909Y00808D03*
Y00871D03*
X05213Y00924D03*
Y00861D03*
X05293Y00924D03*
Y00861D03*
X05373Y00924D03*
Y00861D03*
X05063Y00808D03*
Y00871D03*
X04752Y00458D03*
Y00521D03*
X04672Y00458D03*
Y00521D03*
X04592Y00458D03*
Y00521D03*
X04512Y00458D03*
Y00521D03*
X04432Y00458D03*
Y00521D03*
X04352Y00458D03*
Y00521D03*
X04272Y00458D03*
Y00521D03*
X04192Y00458D03*
Y00521D03*
G54D14*
X02726Y01053D03*
Y01168D03*
X02416Y00839D03*
Y00725D03*
G54D15*
X02374Y00997D03*
Y0105D03*
X03723Y00936D03*
Y00989D03*
X03489Y01096D03*
Y01149D03*
X03953Y01162D03*
Y01215D03*
X04014D03*
Y01162D03*
X03833D03*
Y01215D03*
X03721Y01064D03*
Y01117D03*
G54D16*
X01052Y00998D03*
Y01109D03*
X00956Y00999D03*
Y0111D03*
X0086Y00999D03*
Y0111D03*
X04833Y0052D03*
Y00631D03*
G54D17*
X02479Y01118D03*
X02612D03*
G54D18*
X02301Y00908D03*
X02182D03*
G54D19*
X02242Y00916D03*
G54D20*
X02085Y01163D03*
X02242D03*
G54D21*
X00688Y0114D03*
Y01185D03*
X00789Y01141D03*
Y01187D03*
X00738Y01186D03*
Y0114D03*
X02517Y00555D03*
Y0051D03*
X02459Y00613D03*
Y00658D03*
G54D23*
X02997Y00716D03*
Y00547D03*
X03155Y00716D03*
Y00547D03*
X02895Y01184D03*
Y01015D03*
G54D24*
X02726Y00672D03*
Y00908D03*
G54D25*
X0166Y0107D03*
X01635D03*
X01609D03*
X01584D03*
X01558D03*
X01532D03*
X01507D03*
X01481D03*
X01456D03*
X0143D03*
X0166Y00837D03*
X01635D03*
X01609D03*
X01584D03*
X01558D03*
X01532D03*
X01507D03*
X01481D03*
X01456D03*
X0143D03*
G54D26*
X0408Y00896D03*
X04064D03*
X04048D03*
X04033D03*
X04017D03*
X04001D03*
X03985D03*
X0397D03*
Y00737D03*
X03985D03*
X04001D03*
X04017D03*
X04033D03*
X04048D03*
X04064D03*
X0408D03*
G54D27*
X03945Y00872D03*
Y00856D03*
Y0084D03*
Y00825D03*
Y00809D03*
Y00793D03*
Y00777D03*
Y00762D03*
X04105D03*
Y00777D03*
Y00793D03*
Y00809D03*
Y00825D03*
Y0084D03*
Y00856D03*
Y00872D03*
G54D28*
X04025Y00817D03*
G54D29*
X01025Y00743D03*
X01005D03*
X00986D03*
X00966D03*
X00946D03*
X00926D03*
X01025Y00762D03*
X01005D03*
X00986D03*
X00966D03*
X00946D03*
X00926D03*
X01025Y00782D03*
X01005D03*
X00986D03*
X00966D03*
X00946D03*
X00926D03*
X01025Y00802D03*
X01005D03*
X00986D03*
X00966D03*
X00946D03*
X00926D03*
X01025Y00821D03*
X01005D03*
X00986D03*
X00966D03*
X00946D03*
X00926D03*
G54D30*
X02677Y00588D03*
Y00549D03*
Y00509D03*
X02568D03*
Y00549D03*
Y00588D03*
G54D31*
X0361Y00808D03*
X03655D03*
X0371Y00653D03*
X03755D03*
X00756Y00839D03*
X00802D03*
X00755Y00681D03*
X00801D03*
X01611Y00514D03*
X01656D03*
X00965Y00641D03*
X0101D03*
X00965Y00691D03*
X0101D03*
X00861Y00641D03*
X00907D03*
X00861Y00691D03*
X00907D03*
G54D32*
X0361Y00763D03*
Y00728D03*
X03754Y0061D03*
Y00575D03*
X05021Y005D03*
Y00465D03*
X03712Y0061D03*
Y00575D03*
X03655Y00763D03*
Y00728D03*
X01718Y00885D03*
Y0092D03*
X01072Y00793D03*
Y00828D03*
X00958Y00932D03*
Y00897D03*
X01073Y00905D03*
Y00871D03*
X01503Y00744D03*
Y00779D03*
X01458Y00744D03*
Y00779D03*
X01575Y01187D03*
Y01153D03*
X0153Y01187D03*
Y01153D03*
X01485Y01187D03*
Y01153D03*
X01005Y00897D03*
Y00932D03*
X00911Y00897D03*
Y00932D03*
X01072Y0075D03*
Y00715D03*
Y00672D03*
Y00637D03*
G54D33*
X03983Y01092D03*
X0392D03*
X04055Y01096D03*
X04118D03*
X04055Y01019D03*
X04118D03*
G54D34*
X04911Y0058D03*
Y0063D03*
Y0068D03*
Y0073D03*
X04914Y00974D03*
Y01024D03*
Y01074D03*
Y01124D03*
G54D35*
X05144Y0073D03*
Y0068D03*
Y0063D03*
Y0058D03*
X05147Y01124D03*
Y01074D03*
Y01024D03*
Y00974D03*
G54D36*
X05122Y005D03*
X05069D03*
X04127Y00656D03*
X04074D03*
X03548Y01085D03*
X03601D03*
X03548Y00954D03*
X03601D03*
X0507Y00437D03*
X05123D03*
X05071Y01197D03*
X05124D03*
X05823Y00486D03*
X0577D03*
X05824Y01162D03*
X05771D03*
X03954Y00633D03*
X03901D03*
G54D37*
X04496Y00855D03*
Y00616D03*
X04296Y00855D03*
Y00616D03*
X04696D03*
Y00855D03*
G54D38*
X03549Y00892D03*
X036D03*
X03549Y0115D03*
X036D03*
X03609Y00657D03*
X0366D03*
X036Y01019D03*
X03549D03*
X03827Y00925D03*
X03776D03*
X03856Y00863D03*
X03805D03*
G54D39*
X05213Y00661D03*
X05263D03*
X05313D03*
X05363D03*
X05362Y00992D03*
X05312D03*
X05262D03*
X05212D03*
G54D40*
X05363Y00428D03*
X05313D03*
X05263D03*
X05213D03*
X05212Y01225D03*
X05262D03*
X05312D03*
X05362D03*
G54D41*
X04497Y00968D03*
X04387D03*
G54D42*
X0569Y00618D03*
Y01031D03*
G54D43*
X00779Y00732D03*
X00751D03*
X00779Y00788D03*
X00751D03*
G54D44*
X01515Y00519D03*
X01436Y00481D03*
Y00556D03*
G54D45*
X00791Y00888D03*
X00756D03*
X01462Y00652D03*
X01496D03*
X01462Y00607D03*
X01496D03*
X00864Y00783D03*
X0083D03*
X00864Y00737D03*
X0083D03*
X02508Y00657D03*
X02543D03*
G54D46*
X01315Y0083D03*
X01232D03*
X01315Y00645D03*
X01232D03*
X01315Y01031D03*
X01232D03*
G54D47*
X01547Y00715D03*
Y00695D03*
Y00675D03*
Y00656D03*
Y00636D03*
Y00616D03*
Y00596D03*
X01736D03*
Y00616D03*
Y00636D03*
Y00656D03*
Y00675D03*
Y00695D03*
Y00715D03*
G54D48*
X01582Y00561D03*
X01602D03*
X01622D03*
X01642D03*
X01661D03*
X01681D03*
X01701D03*
Y0075D03*
X01681D03*
X01661D03*
X01642D03*
X01622D03*
X01602D03*
X01582D03*
G54D49*
X01642Y00656D03*
G54D50*
X02861Y00572D03*
X02746D03*
G54D51*
X02509Y00845D03*
Y00721D03*
M02*