%FSTAX23Y23*%
%MOIN*%
%SFA1B1*%

%IPPOS*%
%AMD65*
4,1,8,0.045300,0.000000,0.045300,0.000000,0.025600,0.019700,-0.025600,0.019700,-0.045300,0.000000,-0.045300,0.000000,-0.025600,-0.019700,0.025600,-0.019700,0.045300,0.000000,0.0*
1,1,0.039370,0.025600,0.000000*
1,1,0.039370,0.025600,0.000000*
1,1,0.039370,-0.025600,0.000000*
1,1,0.039370,-0.025600,0.000000*
%
G04~CAMADD=65~8~0.0~0.0~393.7~905.5~196.8~0.0~15~0.0~0.0~0.0~0.0~0~0.0~0.0~0.0~0.0~0~0.0~0.0~0.0~270.0~906.0~394.0*
%ADD65D65*%
%ADD66C,0.059843*%
%ADD67C,0.050000*%
%ADD68R,0.059843X0.059843*%
%ADD69C,0.060000*%
%ADD70C,0.098425*%
%ADD71C,0.093504*%
%ADD72C,0.033465*%
%ADD73O,0.090551X0.078740*%
%ADD74C,0.060000*%
%ADD75C,0.118110*%
%ADD76C,0.018000*%
%LNpcb_pads_bot-1*%
%LPD*%
G54D65*
X00626Y00965D03*
X00502D03*
X00626Y00598D03*
X00502D03*
G54D66*
X04645Y01138D03*
X04527D03*
X04409D03*
G54D67*
X04763Y01215D03*
X04172D03*
G54D68*
X0429Y01138D03*
G54D69*
X03808Y00569D03*
X03267Y00438D03*
X03155Y00634D03*
X01375Y00458D03*
X02997Y00635D03*
G54D70*
X00476Y00476D03*
X04846Y01183D03*
G54D71*
X0184Y00858D03*
X01965D03*
Y01058D03*
X0184D03*
G54D72*
X0184Y00958D03*
X0204Y00998D03*
Y00918D03*
G54D73*
X01222Y0117D03*
Y00489D03*
G54D74*
X00458Y01077D03*
Y01193D03*
X00584Y01191D03*
X02534Y00957D03*
X00584Y01077D03*
X019Y01172D03*
X01817D03*
X01729D03*
G54D75*
X03947Y00477D03*
G54D76*
X04068Y0086D03*
Y00773D03*
X03981Y0086D03*
Y00773D03*
X04025Y0086D03*
X04068Y00817D03*
X03981D03*
X04025Y00774D03*
M02*