%FSTAX23Y23*%
%MOIN*%
%SFA1B1*%

%IPPOS*%
%ADD95C,0.019685*%
%LNpcb_keep-out-1*%
%LPD*%
G54D95*
X00433Y00994D02*
D01*
X00433Y00996*
X00433Y00997*
X00433Y00998*
X00432Y01*
X00432Y01001*
X00431Y01002*
X00431Y01003*
X0043Y01005*
X00429Y01006*
X00429Y01007*
X00428Y01008*
X00427Y01009*
X00426Y0101*
X00424Y0101*
X00423Y01011*
X00422Y01012*
X00421Y01012*
X0042Y01013*
X00418Y01013*
X00417Y01014*
X00415Y01014*
X00414Y01014*
X00413Y01014*
X00394Y01034D02*
D01*
X00394Y01032*
X00394Y01031*
X00394Y01029*
X00395Y01028*
X00395Y01027*
X00395Y01025*
X00396Y01024*
X00397Y01023*
X00397Y01022*
X00398Y01021*
X00399Y0102*
X004Y01019*
X00401Y01018*
X00402Y01017*
X00404Y01016*
X00405Y01016*
X00406Y01015*
X00407Y01015*
X00409Y01014*
X0041Y01014*
X00411Y01014*
X00413Y01014*
X00413Y01014*
Y00549D02*
D01*
X00415Y00549*
X00416Y00549*
X00418Y0055*
X00419Y0055*
X0042Y0055*
X00421Y00551*
X00423Y00552*
X00424Y00552*
X00425Y00553*
X00426Y00554*
X00427Y00555*
X00428Y00556*
X00429Y00557*
X0043Y00558*
X0043Y00559*
X00431Y0056*
X00432Y00562*
X00432Y00563*
X00433Y00564*
X00433Y00566*
X00433Y00567*
X00433Y00568*
X00433Y00569*
X00413Y00549D02*
D01*
X00412Y00549*
X00411Y00549*
X00409Y00549*
X00408Y00548*
X00407Y00548*
X00405Y00548*
X00404Y00547*
X00403Y00546*
X00402Y00545*
X00401Y00545*
X004Y00544*
X00399Y00543*
X00398Y00542*
X00397Y00541*
X00396Y00539*
X00396Y00538*
X00395Y00537*
X00395Y00536*
X00394Y00534*
X00394Y00533*
X00394Y00532*
X00394Y0053*
X00394Y0053*
X05398Y00394D02*
D01*
X05399Y00394*
X054Y00394*
X05402Y00394*
X05403Y00394*
X05404Y00395*
X05406Y00395*
X05407Y00396*
X05408Y00397*
X05409Y00397*
X0541Y00398*
X05411Y00399*
X05412Y004*
X05413Y00401*
X05414Y00402*
X05415Y00403*
X05415Y00405*
X05416Y00406*
X05416Y00407*
X05417Y00408*
X05417Y0041*
X05417Y00411*
X05417Y00413*
X05417Y00413*
X04059Y0124D02*
D01*
X04059Y01241*
X04059Y01243*
X04059Y01244*
X04058Y01245*
X04058Y01247*
X04057Y01248*
X04057Y01249*
X04056Y0125*
X04055Y01252*
X04054Y01253*
X04053Y01254*
X04052Y01255*
X04051Y01255*
X0405Y01256*
X04049Y01257*
X04048Y01258*
X04047Y01258*
X04045Y01259*
X04044Y01259*
X04043Y01259*
X04041Y0126*
X0404Y0126*
X04039Y0126*
X02372Y01161D02*
D01*
X02373Y01161*
X02375Y01162*
X02376Y01162*
X02377Y01162*
X02379Y01163*
X0238Y01163*
X02381Y01164*
X02382Y01164*
X02384Y01165*
X02385Y01166*
X02386Y01167*
X02387Y01168*
X02388Y01169*
X02388Y0117*
X02389Y01171*
X0239Y01172*
X0239Y01174*
X02391Y01175*
X02391Y01176*
X02391Y01178*
X02392Y01179*
X02392Y0118*
X02392Y01181*
X02333Y01181D02*
D01*
X02333Y0118*
X02333Y01178*
X02333Y01177*
X02333Y01176*
X02334Y01174*
X02334Y01173*
X02335Y01172*
X02336Y01171*
X02336Y01169*
X02337Y01168*
X02338Y01167*
X02339Y01166*
X0234Y01165*
X02341Y01165*
X02343Y01164*
X02344Y01163*
X02345Y01163*
X02346Y01162*
X02348Y01162*
X02349Y01162*
X0235Y01161*
X02352Y01161*
X02352Y01161*
X00971Y01181D02*
D01*
X00971Y0118*
X00971Y01178*
X00971Y01177*
X00971Y01176*
X00972Y01174*
X00972Y01173*
X00973Y01172*
X00974Y01171*
X00974Y01169*
X00975Y01168*
X00976Y01167*
X00977Y01166*
X00978Y01165*
X00979Y01165*
X0098Y01164*
X00982Y01163*
X00983Y01163*
X00984Y01162*
X00985Y01162*
X00987Y01162*
X00988Y01161*
X0099Y01161*
X0099Y01161*
X05488Y00472D02*
D01*
X05488Y00474*
X05488Y00475*
X05488Y00476*
X05487Y00478*
X05487Y00479*
X05486Y0048*
X05486Y00482*
X05485Y00483*
X05484Y00484*
X05484Y00485*
X05483Y00486*
X05482Y00487*
X05481Y00488*
X05479Y00489*
X05478Y00489*
X05477Y0049*
X05476Y00491*
X05475Y00491*
X05473Y00491*
X05472Y00492*
X0547Y00492*
X05469Y00492*
X05468Y00492*
X0415Y0126D02*
D01*
X04148Y0126*
X04147Y01259*
X04145Y01259*
X04144Y01259*
X04143Y01258*
X04142Y01258*
X0414Y01257*
X04139Y01257*
X04138Y01256*
X04137Y01255*
X04136Y01254*
X04135Y01253*
X04134Y01252*
X04133Y01251*
X04133Y0125*
X04132Y01249*
X04131Y01247*
X04131Y01246*
X04131Y01245*
X0413Y01243*
X0413Y01242*
X0413Y01241*
X0413Y0124*
X04059Y01181D02*
D01*
X04059Y0118*
X04059Y01178*
X04059Y01177*
X0406Y01176*
X0406Y01174*
X04061Y01173*
X04061Y01172*
X04062Y01171*
X04063Y01169*
X04064Y01168*
X04065Y01167*
X04066Y01166*
X04067Y01165*
X04068Y01165*
X04069Y01164*
X0407Y01163*
X04071Y01163*
X04073Y01162*
X04074Y01162*
X04075Y01162*
X04077Y01161*
X04078Y01161*
X04079Y01161*
X02411Y0126D02*
D01*
X0241Y0126*
X02409Y01259*
X02407Y01259*
X02406Y01259*
X02405Y01258*
X02403Y01258*
X02402Y01257*
X02401Y01257*
X024Y01256*
X02399Y01255*
X02398Y01254*
X02397Y01253*
X02396Y01252*
X02395Y01251*
X02394Y0125*
X02394Y01249*
X02393Y01247*
X02393Y01246*
X02392Y01245*
X02392Y01243*
X02392Y01242*
X02392Y01241*
X02392Y0124*
X05508Y0126D02*
D01*
X05506Y0126*
X05505Y01259*
X05504Y01259*
X05502Y01259*
X05501Y01258*
X055Y01258*
X05499Y01257*
X05497Y01257*
X05496Y01256*
X05495Y01255*
X05494Y01254*
X05493Y01253*
X05492Y01252*
X05492Y01251*
X05491Y0125*
X0549Y01249*
X0549Y01247*
X05489Y01246*
X05489Y01245*
X05488Y01243*
X05488Y01242*
X05488Y01241*
X05488Y0124*
X04039Y00394D02*
D01*
X04041Y00394*
X04042Y00394*
X04043Y00394*
X04045Y00394*
X04046Y00395*
X04047Y00395*
X04049Y00396*
X0405Y00397*
X04051Y00397*
X04052Y00398*
X04053Y00399*
X04054Y004*
X04055Y00401*
X04056Y00402*
X04056Y00403*
X04057Y00405*
X04058Y00406*
X04058Y00407*
X04058Y00408*
X04059Y0041*
X04059Y00411*
X04059Y00413*
X04059Y00413*
X05437Y00492D02*
D01*
X05436Y00492*
X05434Y00492*
X05433Y00492*
X05431Y00491*
X0543Y00491*
X05429Y0049*
X05428Y0049*
X05426Y00489*
X05425Y00488*
X05424Y00487*
X05423Y00486*
X05422Y00485*
X05421Y00484*
X05421Y00483*
X0542Y00482*
X05419Y00481*
X05419Y0048*
X05418Y00478*
X05418Y00477*
X05418Y00476*
X05417Y00474*
X05417Y00473*
X05417Y00472*
X0413Y00413D02*
D01*
X0413Y00412*
X0413Y0041*
X0413Y00409*
X04131Y00408*
X04131Y00406*
X04132Y00405*
X04132Y00404*
X04133Y00403*
X04134Y00402*
X04134Y00401*
X04135Y004*
X04136Y00399*
X04137Y00398*
X04139Y00397*
X0414Y00396*
X04141Y00396*
X04142Y00395*
X04143Y00394*
X04145Y00394*
X04146Y00394*
X04148Y00394*
X04149Y00394*
X0415Y00394*
X05417Y01181D02*
D01*
X05417Y0118*
X05417Y01178*
X05418Y01177*
X05418Y01176*
X05418Y01174*
X05419Y01173*
X0542Y01172*
X0542Y01171*
X05421Y01169*
X05422Y01168*
X05423Y01167*
X05424Y01166*
X05425Y01165*
X05426Y01165*
X05427Y01164*
X05428Y01163*
X0543Y01163*
X05431Y01162*
X05432Y01162*
X05433Y01162*
X05435Y01161*
X05436Y01161*
X05437Y01161*
X0413Y00472D02*
D01*
X0413Y00474*
X0413Y00475*
X04129Y00476*
X04129Y00478*
X04129Y00479*
X04128Y0048*
X04128Y00482*
X04127Y00483*
X04126Y00484*
X04125Y00485*
X04124Y00486*
X04123Y00487*
X04122Y00488*
X04121Y00489*
X0412Y00489*
X04119Y0049*
X04118Y00491*
X04116Y00491*
X04115Y00491*
X04114Y00492*
X04112Y00492*
X04111Y00492*
X0411Y00492*
X02398Y00413D02*
D01*
X02398Y00412*
X02398Y0041*
X02398Y00409*
X02398Y00408*
X02399Y00406*
X02399Y00405*
X024Y00404*
X02401Y00403*
X02401Y00402*
X02402Y00401*
X02403Y004*
X02404Y00399*
X02405Y00398*
X02406Y00397*
X02407Y00396*
X02409Y00396*
X0241Y00395*
X02411Y00394*
X02413Y00394*
X02414Y00394*
X02415Y00394*
X02417Y00394*
X02417Y00394*
X02398Y00472D02*
D01*
X02398Y00474*
X02397Y00475*
X02397Y00476*
X02397Y00478*
X02396Y00479*
X02396Y0048*
X02395Y00482*
X02395Y00483*
X02394Y00484*
X02393Y00485*
X02392Y00486*
X02391Y00487*
X0239Y00488*
X02389Y00489*
X02388Y00489*
X02387Y0049*
X02385Y00491*
X02384Y00491*
X02383Y00491*
X02381Y00492*
X0238Y00492*
X02379Y00492*
X02378Y00492*
X01035Y00413D02*
D01*
X01036Y00412*
X01036Y0041*
X01036Y00409*
X01036Y00408*
X01037Y00406*
X01037Y00405*
X01038Y00404*
X01038Y00403*
X01039Y00402*
X0104Y00401*
X01041Y004*
X01042Y00399*
X01043Y00398*
X01044Y00397*
X01045Y00396*
X01047Y00396*
X01048Y00395*
X01049Y00394*
X0105Y00394*
X01052Y00394*
X01053Y00394*
X01054Y00394*
X01055Y00394*
X00984Y00492D02*
D01*
X00983Y00492*
X00982Y00492*
X0098Y00492*
X00979Y00491*
X00978Y00491*
X00976Y0049*
X00975Y0049*
X00974Y00489*
X00973Y00488*
X00972Y00487*
X00971Y00486*
X0097Y00485*
X00969Y00484*
X00968Y00483*
X00967Y00482*
X00967Y00481*
X00966Y0048*
X00966Y00478*
X00965Y00477*
X00965Y00476*
X00965Y00474*
X00965Y00473*
X00965Y00472*
X00394Y00413D02*
D01*
X00394Y00412*
X00394Y0041*
X00394Y00409*
X00395Y00408*
X00395Y00406*
X00395Y00405*
X00396Y00404*
X00397Y00403*
X00397Y00402*
X00398Y00401*
X00399Y004*
X004Y00399*
X00401Y00398*
X00402Y00397*
X00404Y00396*
X00405Y00396*
X00406Y00395*
X00407Y00394*
X00409Y00394*
X0041Y00394*
X00411Y00394*
X00413Y00394*
X00413Y00394*
Y0126D02*
D01*
X00412Y0126*
X00411Y01259*
X00409Y01259*
X00408Y01259*
X00407Y01258*
X00405Y01258*
X00404Y01257*
X00403Y01257*
X00402Y01256*
X00401Y01255*
X004Y01254*
X00399Y01253*
X00398Y01252*
X00397Y01251*
X00396Y0125*
X00396Y01249*
X00395Y01247*
X00395Y01246*
X00394Y01245*
X00394Y01243*
X00394Y01242*
X00394Y01241*
X00394Y0124*
X05984Y00394D02*
D01*
X05986Y00394*
X05987Y00394*
X05988Y00394*
X0599Y00394*
X05991Y00395*
X05992Y00395*
X05993Y00396*
X05995Y00397*
X05996Y00397*
X05997Y00398*
X05998Y00399*
X05999Y004*
X06Y00401*
X06Y00402*
X06001Y00403*
X06002Y00405*
X06002Y00406*
X06003Y00407*
X06003Y00408*
X06004Y0041*
X06004Y00411*
X06004Y00412*
X06004Y00413*
Y0124D02*
D01*
X06004Y01241*
X06004Y01243*
X06003Y01244*
X06003Y01245*
X06003Y01247*
X06002Y01248*
X06002Y01249*
X06001Y0125*
X06Y01252*
X05999Y01253*
X05998Y01254*
X05997Y01255*
X05996Y01255*
X05995Y01256*
X05994Y01257*
X05993Y01258*
X05992Y01258*
X0599Y01259*
X05989Y01259*
X05988Y01259*
X05986Y0126*
X05985Y0126*
X05984Y0126*
X05417Y0124D02*
D01*
X05417Y01241*
X05417Y01243*
X05417Y01244*
X05416Y01245*
X05416Y01247*
X05416Y01248*
X05415Y01249*
X05414Y0125*
X05413Y01252*
X05413Y01253*
X05412Y01254*
X05411Y01255*
X0541Y01256*
X05409Y01256*
X05407Y01257*
X05406Y01258*
X05405Y01258*
X05404Y01259*
X05402Y01259*
X05401Y01259*
X054Y0126*
X05398Y0126*
X05398Y0126*
X0411Y01161D02*
D01*
X04112Y01161*
X04113Y01161*
X04114Y01162*
X04116Y01162*
X04117Y01162*
X04118Y01163*
X04119Y01164*
X04121Y01164*
X04122Y01165*
X04123Y01166*
X04124Y01167*
X04125Y01168*
X04126Y01169*
X04126Y0117*
X04127Y01171*
X04128Y01172*
X04128Y01174*
X04129Y01175*
X04129Y01176*
X0413Y01178*
X0413Y01179*
X0413Y0118*
X0413Y01181*
X01049Y0126D02*
D01*
X01048Y0126*
X01047Y01259*
X01045Y01259*
X01044Y01259*
X01043Y01258*
X01041Y01258*
X0104Y01257*
X01039Y01257*
X01038Y01256*
X01037Y01255*
X01036Y01254*
X01035Y01253*
X01034Y01252*
X01033Y01251*
X01032Y0125*
X01032Y01249*
X01031Y01247*
X01031Y01246*
X0103Y01245*
X0103Y01243*
X0103Y01242*
X0103Y01241*
X0103Y0124*
X05488Y00413D02*
D01*
X05488Y00412*
X05488Y0041*
X05489Y00409*
X05489Y00408*
X05489Y00406*
X0549Y00405*
X0549Y00404*
X05491Y00403*
X05492Y00402*
X05493Y00401*
X05494Y004*
X05495Y00399*
X05496Y00398*
X05497Y00397*
X05498Y00396*
X05499Y00396*
X055Y00395*
X05502Y00394*
X05503Y00394*
X05504Y00394*
X05506Y00394*
X05507Y00394*
X05508Y00394*
X05468Y01161D02*
D01*
X0547Y01161*
X05471Y01162*
X05473Y01162*
X05474Y01162*
X05475Y01163*
X05476Y01163*
X05478Y01164*
X05479Y01164*
X0548Y01165*
X05481Y01166*
X05482Y01167*
X05483Y01168*
X05484Y01169*
X05485Y0117*
X05485Y01171*
X05486Y01172*
X05487Y01174*
X05487Y01175*
X05487Y01176*
X05488Y01178*
X05488Y01179*
X05488Y0118*
X05488Y01181*
X02333Y0124D02*
D01*
X02333Y01241*
X02332Y01243*
X02332Y01244*
X02332Y01245*
X02331Y01247*
X02331Y01248*
X0233Y01249*
X0233Y0125*
X02329Y01252*
X02328Y01253*
X02327Y01254*
X02326Y01255*
X02325Y01256*
X02324Y01256*
X02323Y01257*
X02322Y01258*
X0232Y01258*
X02319Y01259*
X02318Y01259*
X02316Y01259*
X02315Y0126*
X02314Y0126*
X02313Y0126*
X04079Y00492D02*
D01*
X04077Y00492*
X04076Y00492*
X04075Y00492*
X04073Y00491*
X04072Y00491*
X04071Y0049*
X04069Y0049*
X04068Y00489*
X04067Y00488*
X04066Y00487*
X04065Y00486*
X04064Y00485*
X04063Y00484*
X04062Y00483*
X04062Y00482*
X04061Y00481*
X0406Y0048*
X0406Y00478*
X0406Y00477*
X04059Y00476*
X04059Y00474*
X04059Y00473*
X04059Y00472*
X02346Y00492D02*
D01*
X02345Y00492*
X02344Y00492*
X02342Y00492*
X02341Y00491*
X0234Y00491*
X02338Y0049*
X02337Y0049*
X02336Y00489*
X02335Y00488*
X02334Y00487*
X02333Y00486*
X02332Y00485*
X02331Y00484*
X0233Y00483*
X02329Y00482*
X02329Y00481*
X02328Y0048*
X02328Y00478*
X02327Y00477*
X02327Y00476*
X02327Y00474*
X02327Y00473*
X02327Y00472*
X02307Y00394D02*
D01*
X02308Y00394*
X0231Y00394*
X02311Y00394*
X02313Y00394*
X02314Y00395*
X02315Y00395*
X02316Y00396*
X02318Y00397*
X02319Y00397*
X0232Y00398*
X02321Y00399*
X02322Y004*
X02323Y00401*
X02323Y00402*
X02324Y00403*
X02325Y00405*
X02325Y00406*
X02326Y00407*
X02326Y00408*
X02326Y0041*
X02327Y00411*
X02327Y00413*
X02327Y00413*
X01035Y00472D02*
D01*
X01035Y00474*
X01035Y00475*
X01035Y00476*
X01035Y00478*
X01034Y00479*
X01034Y0048*
X01033Y00482*
X01032Y00483*
X01032Y00484*
X01031Y00485*
X0103Y00486*
X01029Y00487*
X01028Y00488*
X01027Y00489*
X01026Y00489*
X01024Y0049*
X01023Y00491*
X01022Y00491*
X01021Y00491*
X01019Y00492*
X01018Y00492*
X01016Y00492*
X01016Y00492*
X00945Y00394D02*
D01*
X00946Y00394*
X00948Y00394*
X00949Y00394*
X0095Y00394*
X00952Y00395*
X00953Y00395*
X00954Y00396*
X00955Y00397*
X00956Y00397*
X00958Y00398*
X00959Y00399*
X0096Y004*
X0096Y00401*
X00961Y00402*
X00962Y00403*
X00963Y00405*
X00963Y00406*
X00964Y00407*
X00964Y00408*
X00964Y0041*
X00964Y00411*
X00965Y00413*
X00965Y00413*
X0101Y01161D02*
D01*
X01011Y01161*
X01013Y01161*
X01014Y01162*
X01015Y01162*
X01017Y01162*
X01018Y01163*
X01019Y01164*
X0102Y01164*
X01021Y01165*
X01022Y01166*
X01024Y01167*
X01024Y01168*
X01025Y01169*
X01026Y0117*
X01027Y01171*
X01028Y01172*
X01028Y01174*
X01029Y01175*
X01029Y01176*
X01029Y01178*
X01029Y01179*
X0103Y0118*
X0103Y01181*
X0097Y0124D02*
D01*
X0097Y01241*
X0097Y01243*
X0097Y01244*
X0097Y01245*
X00969Y01247*
X00969Y01248*
X00968Y01249*
X00967Y0125*
X00967Y01252*
X00966Y01253*
X00965Y01254*
X00964Y01255*
X00963Y01255*
X00962Y01256*
X00961Y01257*
X00959Y01258*
X00958Y01258*
X00957Y01259*
X00956Y01259*
X00954Y01259*
X00953Y0126*
X00951Y0126*
X00951Y0126*
X00394Y00413D02*
Y0053D01*
X00394Y01034D02*
X00394Y0124D01*
X00433Y00994D02*
Y00569D01*
X05417Y00413D02*
Y00472D01*
Y01181D02*
Y0124D01*
X04059Y00413D02*
Y00472D01*
X02398Y00413D02*
Y00472D01*
X02327Y00413D02*
Y00472D01*
X01035Y00413D02*
Y00472D01*
X06004Y00413D02*
Y0124D01*
X0413Y00413D02*
Y00472D01*
X0103Y01181D02*
Y0124D01*
X0099Y01161D02*
X0101D01*
X05508Y00394D02*
X05984D01*
X0415Y0126D02*
X05398D01*
X0413Y01181D02*
Y0124D01*
X02417Y00394D02*
X04039D01*
X02411Y0126D02*
X04039D01*
X00965Y00413D02*
Y00472D01*
X00971Y01181D02*
Y0124D01*
X05488Y00413D02*
Y00472D01*
X05437Y00492D02*
X05468D01*
X05488Y01181D02*
Y0124D01*
X05437Y01161D02*
X05468D01*
X04079Y00492D02*
X0411D01*
X04059Y01181D02*
Y0124D01*
X02392Y01181D02*
Y0124D01*
X02333Y01181D02*
Y0124D01*
X04079Y01161D02*
X0411D01*
X02346Y00492D02*
X02378D01*
X02352Y01161D02*
X02372D01*
X00984Y00492D02*
X01016D01*
X05508Y0126D02*
X05984D01*
X0415Y00394D02*
X05398D01*
X01055D02*
X02307D01*
X01049Y0126D02*
X02313D01*
X00413Y00394D02*
X00945D01*
X00413Y0126D02*
X00951D01*
M02*