M48
;Layer_Color=9474304
;FILE_FORMAT=2:4
INCH,TZ
;TYPE=PLATED
T1F00S00C0.0079
T2F00S00C0.0080
T4F00S00C0.0280
T5F00S00C0.0394
T6F00S00C0.0787
;TYPE=NON_PLATED
T7F00S00C0.0354
T8F00S00C0.0935
%
T01
X12117Y9412
X12550
X12983
Y9845
Y10278
X12550
Y9845
X12117
Y10278
X39820Y8604
X40253
Y8171
Y7748
X40686Y7738
Y8171
Y8604
X39820Y8171
Y7738
X47700Y7902
Y8335
Y8768
X48133
Y8335
Y7902
X48567
Y8335
Y8768
X49000
Y8335
Y7902
X51291Y8033
Y8467
Y8900
X51724
X52157
Y8467
X51724
Y8033
X52157
Y7600
X51724
X51291
X51321Y6250
X51754
Y5817
X51321
Y5383
X51754
Y4950
X51321
X52187
Y5383
Y5817
Y6250
X52050Y10291
X51617
X51183
X50750
Y10724
Y11157
X51183
Y10724
X51617
Y11157
X52050
Y10724
T02
X5744Y5863
X6520Y6650
X5950Y7874
X5750Y8014
X5550Y7674
X7050Y8023
X7165Y8220
X7045Y8416
X7802Y7854
X8354Y7360
X8116Y6870
X9274Y7363
X9558Y7211
X9820Y7211
Y7620
X10214
X10411Y7617
X10608Y7620
X10411Y7817
Y8014
X10214
X10017
Y8211
X9820Y8014
X9174Y7817
X8830Y8009
X8850Y8286
X8450Y8281
X8400Y9400
X8000Y9800
X8780Y10278
Y10920
X8244Y10922
X8236Y11513
X7740Y11520
X6050Y11550
X9476Y10744
X10079Y9406
X10524Y9401
X10214Y8661
X10608Y8211
X10974Y8014
X11597
Y7537
Y8525
X12250Y8280
X12240Y7920
X13898Y8858
X13950Y9150
X13898Y9516
X14306Y10694
X14562
X15585Y10702
X15330Y11687
X14880
X12717Y11220
X12353Y11063
X12050Y11645
X11600
X9150Y9013
X10462Y6913
X10017Y6400
X14560Y6050
X14279Y7260
X15107Y7367
X15557
X15074Y8379
X14818
X14562
X15841Y8189
X16353
X17520Y9224
X19213Y9516
Y10000
X19055Y10261
X16102Y10222
X15841
X16353Y10702
X15780Y11687
X17539Y7087
X23290Y5770
X26371Y5858
X27950Y6011
X28761Y9100
X24346Y11570
X32402Y9094
Y8286
Y7480
X34400Y7380
X35550Y7398
X35559Y8030
X34994Y8026
X34970Y6756
Y6304
X36950Y5965
X37694
X38365Y5892
X38784
X39531Y6970
X39200Y7480
X38900Y8250
X39150Y8604
X39000Y8872
X37950Y9200
X37920Y9685
X37273Y9669
Y9153
Y8139
Y7792
X37600Y7900
X38450
X36797Y7792
X36550Y7257
X36006Y8926
X35494
X35484Y9543
X36006Y9541
X35484Y10219
Y10850
X35494Y11500
X36016Y12150
X36650Y11408
X37300Y11398
X38800Y11000
X39544Y11520
X40063Y12150
X40650Y12050
X41800Y12091
X42559Y12090
X43359
X44159
X44959
X45759
X46559Y12093
X46400Y10035
X46100
X45750Y10042
X44350Y10035
X44059
X43750
X42950Y9900
X43239Y9224
X42150Y9200
Y8900
X41760Y8722
X41700Y8400
X41711Y8011
X41350Y8023
X41400Y7537
X41800Y7367
X41900Y6720
X41800Y6100
X42130Y6110
X41952Y5900
X41800Y5700
X42140Y5710
X41600Y5100
X41061Y6488
X41190Y6913
X40800Y7050
X40550
X41350Y9224
X41250Y9900
X42150Y10094
X41950Y10922
X43300Y10578
X44666Y10775
X43239Y6450
X43259Y4575
X44059
X44859
X45659
X46459
X39350Y10278
X47800Y9345
X50050Y9216
X50048Y7777
X49600Y4850
Y4334
X48859Y4575
X48059
X47259
X47359Y12093
X48159
X48958Y12091
X49700Y12166
Y11634
X51150Y12100
X51650Y12098
X52150
X52787Y9000
X53900Y9041
Y7450
T04
X11089Y7100
X12370Y6830
X13180Y8280
X22130Y11150
X25800Y5100
T05
X7449Y10317
X7100Y11720
X15700Y6680
X30500Y10183
X31350
X33900Y9800
Y9000
Y8171
Y7300
T06
X5000Y10496
X16850Y5858
X18250Y5892
X19650
X30150Y5500
X35890Y5450
X44859Y6230
T07
X18398Y9581
X20398Y9181
Y9981
T08
X18398Y8581
X19648
Y10581
X18398
M30
