G04*
G04 #@! TF.GenerationSoftware,Altium Limited,Altium Designer,19.0.15 (446)*
G04*
G04 Layer_Color=255*
%FSLAX23Y23*%
%MOIN*%
G70*
G01*
G75*
%ADD18O,0.018X0.055*%
%ADD19O,0.008X0.028*%
%ADD20O,0.028X0.008*%
%ADD21R,0.118X0.118*%
%ADD22C,0.010*%
%ADD23R,0.037X0.026*%
%ADD24R,0.041X0.024*%
%ADD25R,0.045X0.053*%
%ADD26R,0.039X0.035*%
%ADD27R,0.037X0.033*%
%ADD28R,0.030X0.024*%
%ADD29R,0.025X0.024*%
%ADD30R,0.055X0.051*%
%ADD31O,0.055X0.020*%
%ADD32O,0.039X0.020*%
%ADD33R,0.096X0.100*%
%ADD34R,0.035X0.039*%
%ADD35R,0.033X0.037*%
%ADD36O,0.020X0.055*%
%ADD37O,0.020X0.039*%
%ADD38R,0.047X0.065*%
%ADD39R,0.100X0.096*%
%ADD40R,0.197X0.177*%
%ADD41R,0.024X0.030*%
%ADD42R,0.016X0.028*%
%ADD43R,0.028X0.016*%
%ADD44R,0.045X0.098*%
%ADD45R,0.051X0.071*%
%ADD46R,0.059X0.157*%
%ADD47R,0.096X0.085*%
%ADD48R,0.035X0.031*%
%ADD49R,0.024X0.025*%
%ADD50R,0.047X0.047*%
%ADD51R,0.047X0.047*%
%ADD52R,0.053X0.045*%
%ADD53O,0.012X0.037*%
%ADD54O,0.037X0.012*%
%ADD55R,0.132X0.132*%
%ADD56R,0.028X0.012*%
%ADD57R,0.028X0.039*%
%ADD58R,0.177X0.102*%
%ADD59R,0.085X0.096*%
%ADD60R,0.037X0.035*%
%ADD108C,0.033*%
%ADD109C,0.094*%
%ADD115C,0.031*%
%ADD125C,0.060*%
%ADD126C,0.118*%
%ADD127C,0.020*%
%ADD128O,0.102X0.043*%
%ADD129O,0.083X0.043*%
D18*
X1661Y1070D02*
D03*
X1635D02*
D03*
X1610D02*
D03*
X1584D02*
D03*
X1559D02*
D03*
X1533D02*
D03*
X1507D02*
D03*
X1482D02*
D03*
X1456D02*
D03*
X1431D02*
D03*
X1661Y838D02*
D03*
X1635D02*
D03*
X1610D02*
D03*
X1584D02*
D03*
X1559D02*
D03*
X1533D02*
D03*
X1507D02*
D03*
X1482D02*
D03*
X1456D02*
D03*
X1431D02*
D03*
D19*
X4080Y897D02*
D03*
X4065D02*
D03*
X4049D02*
D03*
X4033D02*
D03*
X4017D02*
D03*
X4002D02*
D03*
X3986D02*
D03*
X3970D02*
D03*
Y737D02*
D03*
X3986D02*
D03*
X4002D02*
D03*
X4017D02*
D03*
X4033D02*
D03*
X4049D02*
D03*
X4065D02*
D03*
X4080D02*
D03*
D20*
X3946Y872D02*
D03*
Y856D02*
D03*
Y841D02*
D03*
Y825D02*
D03*
Y809D02*
D03*
Y794D02*
D03*
Y778D02*
D03*
Y762D02*
D03*
X4105D02*
D03*
Y778D02*
D03*
Y794D02*
D03*
Y809D02*
D03*
Y825D02*
D03*
Y841D02*
D03*
Y856D02*
D03*
Y872D02*
D03*
D21*
X4025Y817D02*
D03*
D22*
X1061Y742D02*
D03*
X1041D02*
D03*
X1021D02*
D03*
X1002D02*
D03*
X982D02*
D03*
X962D02*
D03*
X1061Y762D02*
D03*
X1041D02*
D03*
X1021D02*
D03*
X1002D02*
D03*
X982D02*
D03*
X962D02*
D03*
X1061Y782D02*
D03*
X1041D02*
D03*
X1021D02*
D03*
X1002D02*
D03*
X982D02*
D03*
X962D02*
D03*
X1061Y801D02*
D03*
X1041D02*
D03*
X1021D02*
D03*
X1002D02*
D03*
X982D02*
D03*
X962D02*
D03*
X1061Y821D02*
D03*
X1041D02*
D03*
X1021D02*
D03*
X1002D02*
D03*
X982D02*
D03*
X962D02*
D03*
D23*
X2439Y615D02*
D03*
Y576D02*
D03*
Y537D02*
D03*
X2331D02*
D03*
Y576D02*
D03*
Y615D02*
D03*
D24*
X1978Y1172D02*
D03*
X2082Y1209D02*
D03*
Y1135D02*
D03*
D25*
X4194Y590D02*
D03*
X4126D02*
D03*
X4171Y453D02*
D03*
X4239D02*
D03*
X3006Y750D02*
D03*
X3075D02*
D03*
X3006Y910D02*
D03*
X3075D02*
D03*
X3006Y830D02*
D03*
X3075D02*
D03*
D26*
X3727Y915D02*
D03*
Y968D02*
D03*
X5005Y922D02*
D03*
Y868D02*
D03*
X4960Y433D02*
D03*
Y487D02*
D03*
X4065Y1207D02*
D03*
Y1153D02*
D03*
X4970Y1217D02*
D03*
Y1163D02*
D03*
X3730Y1140D02*
D03*
Y1193D02*
D03*
X5390Y742D02*
D03*
Y688D02*
D03*
Y908D02*
D03*
Y961D02*
D03*
D27*
X3666Y916D02*
D03*
Y967D02*
D03*
X3936Y976D02*
D03*
Y1027D02*
D03*
X4060Y661D02*
D03*
Y609D02*
D03*
X3770Y721D02*
D03*
Y670D02*
D03*
X3880Y1151D02*
D03*
Y1099D02*
D03*
X3795Y1192D02*
D03*
Y1141D02*
D03*
X3665Y1141D02*
D03*
Y1192D02*
D03*
Y1078D02*
D03*
Y1027D02*
D03*
X3730Y1078D02*
D03*
Y1027D02*
D03*
X3794Y1079D02*
D03*
Y1027D02*
D03*
X4001Y976D02*
D03*
Y1027D02*
D03*
X1718Y1163D02*
D03*
Y1215D02*
D03*
D28*
X3680Y862D02*
D03*
X3725D02*
D03*
X3833Y667D02*
D03*
X3879D02*
D03*
X766Y687D02*
D03*
X812D02*
D03*
X1100Y992D02*
D03*
X1054D02*
D03*
X663Y1022D02*
D03*
X617D02*
D03*
X717Y1092D02*
D03*
X763D02*
D03*
X1000Y641D02*
D03*
X1045D02*
D03*
X1001Y691D02*
D03*
X1046D02*
D03*
X897Y641D02*
D03*
X943D02*
D03*
X897Y691D02*
D03*
X943D02*
D03*
D29*
X3680Y814D02*
D03*
Y779D02*
D03*
X3878Y624D02*
D03*
Y589D02*
D03*
X5005Y812D02*
D03*
Y778D02*
D03*
X3837Y624D02*
D03*
Y589D02*
D03*
X3727Y814D02*
D03*
Y779D02*
D03*
X1752Y957D02*
D03*
Y922D02*
D03*
X1224Y793D02*
D03*
Y828D02*
D03*
X1052Y940D02*
D03*
Y905D02*
D03*
X767Y917D02*
D03*
Y882D02*
D03*
X1556Y737D02*
D03*
Y771D02*
D03*
X1511Y737D02*
D03*
Y771D02*
D03*
X1578Y1169D02*
D03*
Y1134D02*
D03*
X1533Y1169D02*
D03*
Y1134D02*
D03*
X1488Y1169D02*
D03*
Y1134D02*
D03*
X1205Y1165D02*
D03*
Y1130D02*
D03*
X1160Y1165D02*
D03*
Y1130D02*
D03*
X1110Y934D02*
D03*
Y899D02*
D03*
X915Y811D02*
D03*
Y845D02*
D03*
X1007Y905D02*
D03*
Y940D02*
D03*
X2265Y650D02*
D03*
Y685D02*
D03*
D30*
X4125Y1053D02*
D03*
Y990D02*
D03*
X3769Y596D02*
D03*
Y534D02*
D03*
X3695Y596D02*
D03*
Y534D02*
D03*
X4656Y1209D02*
D03*
Y1146D02*
D03*
X4736Y1209D02*
D03*
Y1146D02*
D03*
X4816Y1209D02*
D03*
Y1146D02*
D03*
X4896Y1209D02*
D03*
Y1146D02*
D03*
X4176Y1209D02*
D03*
Y1146D02*
D03*
X4256Y1209D02*
D03*
Y1146D02*
D03*
X4336Y1209D02*
D03*
Y1146D02*
D03*
X4416Y1209D02*
D03*
Y1146D02*
D03*
X4496Y1209D02*
D03*
Y1146D02*
D03*
X4576Y1209D02*
D03*
Y1146D02*
D03*
X4886Y457D02*
D03*
Y520D02*
D03*
X4806Y457D02*
D03*
Y520D02*
D03*
X4726Y457D02*
D03*
Y520D02*
D03*
X4646Y457D02*
D03*
Y520D02*
D03*
X4566Y457D02*
D03*
Y520D02*
D03*
X4486Y457D02*
D03*
Y520D02*
D03*
X4406Y457D02*
D03*
Y520D02*
D03*
X4326Y457D02*
D03*
Y520D02*
D03*
D31*
X5088Y750D02*
D03*
Y800D02*
D03*
Y850D02*
D03*
Y900D02*
D03*
X5260Y635D02*
D03*
Y585D02*
D03*
Y535D02*
D03*
Y485D02*
D03*
D32*
X5320Y900D02*
D03*
Y850D02*
D03*
Y800D02*
D03*
Y750D02*
D03*
X5028Y485D02*
D03*
Y535D02*
D03*
Y585D02*
D03*
Y635D02*
D03*
D33*
X4605Y736D02*
D03*
Y974D02*
D03*
X4405Y736D02*
D03*
Y974D02*
D03*
D34*
X4467Y1078D02*
D03*
X4413D02*
D03*
X3548Y1085D02*
D03*
X3602D02*
D03*
X3548Y954D02*
D03*
X3602D02*
D03*
Y1215D02*
D03*
X3548D02*
D03*
X3953Y1090D02*
D03*
X4007D02*
D03*
X4006Y1215D02*
D03*
X3953D02*
D03*
X4002Y601D02*
D03*
X3949D02*
D03*
X2435Y1157D02*
D03*
X2381D02*
D03*
D35*
X3549Y893D02*
D03*
X3601D02*
D03*
X3549Y1150D02*
D03*
X3601D02*
D03*
X4001Y661D02*
D03*
X3949D02*
D03*
X3654Y664D02*
D03*
X3706D02*
D03*
X4006Y1152D02*
D03*
X3954D02*
D03*
X3706Y726D02*
D03*
X3655D02*
D03*
X3548Y1022D02*
D03*
X3600D02*
D03*
X3846Y915D02*
D03*
X3794D02*
D03*
X3846Y851D02*
D03*
X3794D02*
D03*
X3846Y788D02*
D03*
X3794D02*
D03*
X772Y1151D02*
D03*
X824D02*
D03*
X824Y1092D02*
D03*
X876D02*
D03*
X825Y1026D02*
D03*
X876D02*
D03*
X3499Y739D02*
D03*
X3551D02*
D03*
X3499Y803D02*
D03*
X3551D02*
D03*
X1754Y709D02*
D03*
X1703D02*
D03*
D36*
X4910Y749D02*
D03*
X4860D02*
D03*
X4810D02*
D03*
X4760D02*
D03*
X5215Y988D02*
D03*
X5165D02*
D03*
X5115D02*
D03*
X5065D02*
D03*
D37*
X4760Y981D02*
D03*
X4810D02*
D03*
X4860D02*
D03*
X4910D02*
D03*
X5065Y1220D02*
D03*
X5115D02*
D03*
X5165D02*
D03*
X5215D02*
D03*
D38*
X4060Y525D02*
D03*
X3950D02*
D03*
X4775Y613D02*
D03*
X4885D02*
D03*
D39*
X3409Y570D02*
D03*
X3171D02*
D03*
D40*
X5690Y618D02*
D03*
Y1032D02*
D03*
D41*
X3544Y676D02*
D03*
Y630D02*
D03*
X3497D02*
D03*
Y676D02*
D03*
X780Y831D02*
D03*
Y785D02*
D03*
X1382Y769D02*
D03*
Y724D02*
D03*
X1431Y769D02*
D03*
Y724D02*
D03*
X665Y1072D02*
D03*
Y1118D02*
D03*
X2265Y595D02*
D03*
Y550D02*
D03*
X2215Y549D02*
D03*
Y594D02*
D03*
D42*
X806Y736D02*
D03*
X778D02*
D03*
D43*
X831Y779D02*
D03*
Y807D02*
D03*
D44*
X562Y1176D02*
D03*
X438D02*
D03*
X1956Y724D02*
D03*
X2080D02*
D03*
D45*
X1798Y1165D02*
D03*
X1912D02*
D03*
X2762Y910D02*
D03*
X2876D02*
D03*
X2637Y586D02*
D03*
X2523D02*
D03*
D46*
X2142Y1115D02*
D03*
X2284D02*
D03*
D47*
X2755Y1170D02*
D03*
X2585D02*
D03*
D48*
X1026Y1037D02*
D03*
X948Y1000D02*
D03*
Y1074D02*
D03*
D49*
X1160Y852D02*
D03*
X1125D02*
D03*
X900Y736D02*
D03*
X865D02*
D03*
X1125Y801D02*
D03*
X1160D02*
D03*
X1125Y754D02*
D03*
X1160D02*
D03*
D50*
X3236Y750D02*
D03*
X3154D02*
D03*
X3237Y910D02*
D03*
X3154D02*
D03*
X3237Y830D02*
D03*
X3154D02*
D03*
D51*
X1455Y606D02*
D03*
Y524D02*
D03*
X1218Y606D02*
D03*
Y524D02*
D03*
D52*
X1375Y600D02*
D03*
Y531D02*
D03*
X1298Y600D02*
D03*
Y531D02*
D03*
D53*
X1314Y1079D02*
D03*
X1294D02*
D03*
X1275D02*
D03*
X1255D02*
D03*
X1235D02*
D03*
X1216D02*
D03*
X1196D02*
D03*
Y890D02*
D03*
X1216D02*
D03*
X1235D02*
D03*
X1255D02*
D03*
X1275D02*
D03*
X1294D02*
D03*
X1314D02*
D03*
D54*
X1161Y1044D02*
D03*
Y1024D02*
D03*
Y1004D02*
D03*
Y985D02*
D03*
Y965D02*
D03*
Y945D02*
D03*
Y925D02*
D03*
X1350D02*
D03*
Y945D02*
D03*
Y965D02*
D03*
Y985D02*
D03*
Y1004D02*
D03*
Y1024D02*
D03*
Y1044D02*
D03*
D55*
X1255Y985D02*
D03*
D56*
X625Y792D02*
D03*
Y871D02*
D03*
Y851D02*
D03*
Y832D02*
D03*
Y812D02*
D03*
Y773D02*
D03*
Y753D02*
D03*
Y733D02*
D03*
Y714D02*
D03*
Y694D02*
D03*
X676Y763D02*
D03*
Y664D02*
D03*
Y684D02*
D03*
Y704D02*
D03*
Y724D02*
D03*
Y743D02*
D03*
Y901D02*
D03*
Y802D02*
D03*
Y822D02*
D03*
Y842D02*
D03*
Y861D02*
D03*
Y881D02*
D03*
D57*
X625Y905D02*
D03*
X625Y661D02*
D03*
D58*
X2500Y1018D02*
D03*
Y703D02*
D03*
D59*
X2795Y601D02*
D03*
Y770D02*
D03*
D60*
X2200Y773D02*
D03*
Y649D02*
D03*
D108*
X2040Y918D02*
D03*
Y998D02*
D03*
X1840Y958D02*
D03*
D109*
Y1058D02*
D03*
X1965D02*
D03*
Y858D02*
D03*
X1840D02*
D03*
D115*
X1990Y983D02*
D03*
X1890Y933D02*
D03*
Y983D02*
D03*
X1940Y933D02*
D03*
X1990D02*
D03*
X1940Y983D02*
D03*
D125*
X3135Y1018D02*
D03*
X710Y1172D02*
D03*
X3390Y730D02*
D03*
Y980D02*
D03*
X745Y1032D02*
D03*
X3390Y817D02*
D03*
Y900D02*
D03*
X3050Y1018D02*
D03*
X1570Y668D02*
D03*
D126*
X500Y1050D02*
D03*
X1965Y589D02*
D03*
X1825D02*
D03*
X1685Y586D02*
D03*
X4486Y623D02*
D03*
X3589Y545D02*
D03*
X3015Y550D02*
D03*
D127*
X4069Y860D02*
D03*
Y774D02*
D03*
X3982Y860D02*
D03*
Y774D02*
D03*
X4025Y860D02*
D03*
X4069Y817D02*
D03*
X3982D02*
D03*
X4025Y775D02*
D03*
D128*
X449Y953D02*
D03*
Y613D02*
D03*
D129*
X660Y953D02*
D03*
Y613D02*
D03*
M02*
