G04*
G04 #@! TF.GenerationSoftware,Altium Limited,Altium Designer,19.0.15 (446)*
G04*
G04 Layer_Physical_Order=2*
G04 Layer_Color=6049555*
%FSLAX23Y23*%
%MOIN*%
G70*
G01*
G75*
%ADD15C,0.010*%
%ADD108C,0.033*%
%ADD109C,0.094*%
%ADD117C,0.015*%
%ADD119C,0.020*%
%ADD120C,0.030*%
%ADD125C,0.060*%
%ADD126C,0.118*%
%ADD127C,0.020*%
%ADD128O,0.102X0.043*%
%ADD129O,0.083X0.043*%
%ADD130C,0.016*%
%ADD131C,0.050*%
G36*
X5492Y1246D02*
X5964D01*
X5965Y1246D01*
Y1246D01*
X5969Y1245D01*
X5974Y1244D01*
X5983Y1239D01*
X5988Y1230D01*
X5990Y1221D01*
X5990Y1220D01*
Y433D01*
X5990Y432D01*
X5988Y423D01*
X5983Y415D01*
X5974Y409D01*
X5965Y408D01*
X5965Y408D01*
X5492D01*
X5492Y408D01*
X5488Y409D01*
X5486Y413D01*
X5487Y413D01*
Y472D01*
X5487D01*
X5485Y481D01*
X5482Y489D01*
X5477Y496D01*
X5470Y502D01*
X5462Y505D01*
X5453Y506D01*
Y506D01*
X5335D01*
Y506D01*
X5326Y505D01*
X5318Y502D01*
X5311Y496D01*
X5305Y489D01*
X5302Y481D01*
X5301Y472D01*
X5301D01*
Y413D01*
X5301Y413D01*
X5299Y409D01*
X5296Y408D01*
X5295Y408D01*
X4009D01*
X4007Y413D01*
X4134Y541D01*
X4178D01*
X4185Y542D01*
X4191Y546D01*
X4198Y553D01*
X4223Y553D01*
X4226Y555D01*
X4227Y558D01*
Y627D01*
X4226Y630D01*
X4223Y631D01*
X4165Y631D01*
X4162Y630D01*
X4161Y627D01*
Y605D01*
X4156Y603D01*
X4116Y642D01*
X4117Y644D01*
X4118Y649D01*
X4117Y653D01*
X4115Y657D01*
X4114Y658D01*
X4116Y663D01*
X4182D01*
X4185Y661D01*
X4190Y660D01*
X4195Y661D01*
X4199Y663D01*
X4201Y667D01*
X4202Y672D01*
X4201Y677D01*
X4201Y677D01*
X4204Y682D01*
X4276D01*
X4280Y683D01*
X4283Y685D01*
X4349Y751D01*
X4606D01*
X4672Y685D01*
X4675Y683D01*
X4679Y682D01*
X5376D01*
X5380Y683D01*
X5383Y685D01*
X5431Y734D01*
X5433Y736D01*
X5434Y740D01*
Y870D01*
X5433Y874D01*
X5431Y876D01*
X5402Y906D01*
X5401Y909D01*
X5399Y913D01*
X5395Y915D01*
X5390Y916D01*
X5385Y915D01*
X5381Y913D01*
X5379Y909D01*
X5378Y904D01*
X5379Y899D01*
X5381Y895D01*
X5385Y893D01*
X5390Y892D01*
X5390Y892D01*
X5416Y866D01*
Y744D01*
X5373Y701D01*
X5365D01*
X5363Y705D01*
X5391Y733D01*
X5395Y734D01*
X5399Y736D01*
X5401Y740D01*
X5402Y745D01*
X5401Y750D01*
X5399Y754D01*
X5395Y756D01*
X5390Y757D01*
X5385Y756D01*
X5381Y754D01*
X5379Y750D01*
X5378Y746D01*
X5347Y715D01*
X5253D01*
X5253Y716D01*
X5251Y720D01*
X5261Y730D01*
X5263Y732D01*
X5264Y736D01*
Y872D01*
X5280Y888D01*
X5283Y889D01*
X5287Y891D01*
X5290Y895D01*
X5291Y900D01*
X5290Y905D01*
X5287Y909D01*
X5283Y911D01*
X5279Y912D01*
X5274Y911D01*
X5270Y909D01*
X5267Y905D01*
X5267Y901D01*
X5249Y884D01*
X5246Y884D01*
X5244Y885D01*
Y915D01*
X5243Y918D01*
X5240Y919D01*
X5113Y919D01*
X5056Y976D01*
X5053Y978D01*
X5049Y979D01*
X4308D01*
X4306Y984D01*
X4306Y985D01*
X4307Y990D01*
X4306Y995D01*
X4304Y999D01*
X4300Y1001D01*
X4295Y1002D01*
X4290Y1001D01*
X4287Y999D01*
X4229D01*
X4226Y1004D01*
X4226Y1005D01*
X4227Y1009D01*
X4238Y1020D01*
X5046D01*
Y1002D01*
X5047Y999D01*
X5050Y998D01*
X5228Y998D01*
X5231Y999D01*
X5232Y1002D01*
X5232Y1144D01*
X5231Y1147D01*
X5228Y1148D01*
X5050Y1148D01*
X5047Y1147D01*
X5046Y1144D01*
X5046Y1038D01*
X4235D01*
X4231Y1038D01*
X4228Y1036D01*
X4214Y1021D01*
X4210Y1021D01*
X4206Y1018D01*
X4204Y1014D01*
X4203Y1009D01*
X4204Y1005D01*
X4204Y1004D01*
X4201Y999D01*
X4133D01*
X4130Y1001D01*
X4125Y1002D01*
X4120Y1001D01*
X4116Y999D01*
X4114Y995D01*
X4113Y990D01*
X4114Y985D01*
X4114Y984D01*
X4112Y979D01*
X4094D01*
X3966Y1106D01*
X3964Y1108D01*
X3960Y1109D01*
X3888D01*
X3885Y1111D01*
X3880Y1112D01*
X3875Y1111D01*
X3871Y1109D01*
X3869Y1105D01*
X3868Y1100D01*
X3869Y1095D01*
X3871Y1091D01*
X3875Y1089D01*
X3880Y1088D01*
X3885Y1089D01*
X3888Y1091D01*
X3956D01*
X4084Y964D01*
X4086Y962D01*
X4090Y961D01*
X5045D01*
X5082Y924D01*
X5080Y919D01*
X5075D01*
X5072Y918D01*
X5071Y915D01*
X5071Y739D01*
X5068Y735D01*
X5067Y734D01*
X4975D01*
X4969Y740D01*
Y904D01*
X4968Y908D01*
X4966Y911D01*
X4953Y924D01*
X4950Y926D01*
X4947Y927D01*
X4795D01*
X4792Y932D01*
X4792Y934D01*
X4791Y939D01*
X4789Y943D01*
X4785Y946D01*
X4780Y947D01*
X4775Y946D01*
X4772Y944D01*
X4415D01*
X4411Y943D01*
X4408Y941D01*
X4366Y899D01*
X4223D01*
X4220Y901D01*
X4218Y907D01*
X4220Y909D01*
X4220Y909D01*
X4224Y911D01*
X4226Y915D01*
X4227Y920D01*
X4226Y925D01*
X4226Y926D01*
X4228Y931D01*
X4303D01*
X4312Y922D01*
X4313Y918D01*
X4315Y914D01*
X4319Y911D01*
X4324Y910D01*
X4329Y911D01*
X4333Y914D01*
X4335Y918D01*
X4336Y922D01*
X4335Y927D01*
X4333Y931D01*
X4329Y934D01*
X4325Y934D01*
X4313Y946D01*
X4310Y948D01*
X4306Y949D01*
X4153D01*
X4149Y948D01*
X4146Y946D01*
X4134Y934D01*
X4130Y934D01*
X4126Y931D01*
X4124Y927D01*
X4123Y922D01*
X4124Y918D01*
X4126Y914D01*
X4130Y911D01*
X4135Y910D01*
X4140Y911D01*
X4144Y914D01*
X4146Y918D01*
X4147Y922D01*
X4156Y931D01*
X4202D01*
X4204Y926D01*
X4204Y925D01*
X4203Y921D01*
X4186Y904D01*
X4168D01*
X4164Y903D01*
X4161Y901D01*
X4147Y887D01*
X4145Y884D01*
X4144Y880D01*
Y864D01*
X4139Y862D01*
X4085Y915D01*
X4082Y917D01*
X4079Y918D01*
X3874D01*
X3871Y917D01*
X3868Y915D01*
X3860Y908D01*
X3817D01*
X3815Y913D01*
X3816Y914D01*
X3922Y1019D01*
X3927D01*
X3930Y1017D01*
X3935Y1016D01*
X3940Y1017D01*
X3944Y1019D01*
X3946Y1023D01*
X3947Y1028D01*
X3946Y1033D01*
X3944Y1036D01*
X3940Y1039D01*
X3935Y1040D01*
X3930Y1039D01*
X3927Y1037D01*
X3918D01*
X3914Y1036D01*
X3911Y1034D01*
X3806Y929D01*
X3803D01*
X3800Y931D01*
X3795Y932D01*
X3790Y931D01*
X3786Y929D01*
X3784Y925D01*
X3783Y920D01*
X3784Y915D01*
X3786Y913D01*
X3784Y909D01*
X3783Y908D01*
X3724D01*
X3642Y990D01*
Y1132D01*
X3641Y1136D01*
X3639Y1139D01*
X3621Y1156D01*
X3619Y1158D01*
X3615Y1159D01*
X3557D01*
X3554Y1161D01*
X3549Y1162D01*
X3545Y1161D01*
X3541Y1159D01*
X3538Y1155D01*
X3537Y1150D01*
X3538Y1145D01*
X3541Y1141D01*
X3545Y1139D01*
X3549Y1138D01*
X3554Y1139D01*
X3557Y1141D01*
X3611D01*
X3624Y1128D01*
Y986D01*
X3624Y982D01*
X3626Y979D01*
X3708Y898D01*
X3706Y894D01*
X3674D01*
X3613Y955D01*
X3612Y959D01*
X3609Y963D01*
X3605Y965D01*
X3601Y966D01*
X3596Y965D01*
X3592Y963D01*
X3589Y959D01*
X3588Y954D01*
X3589Y949D01*
X3592Y945D01*
X3596Y943D01*
X3600Y942D01*
X3664Y878D01*
X3667Y876D01*
X3670Y875D01*
X3897D01*
X3898Y875D01*
X3900Y875D01*
X3905Y876D01*
X3909Y879D01*
X3911Y882D01*
X3912Y887D01*
X3911Y892D01*
X3910Y894D01*
X3912Y899D01*
X3912Y899D01*
X4075D01*
X4126Y849D01*
Y810D01*
X4124Y807D01*
X4123Y802D01*
X4124Y798D01*
X4126Y794D01*
X4130Y791D01*
X4133Y790D01*
X4135Y785D01*
X4083Y734D01*
X4075D01*
X4071Y733D01*
X4069Y731D01*
X4054Y717D01*
X4050Y716D01*
X4046Y714D01*
X4044Y710D01*
X4043Y705D01*
X4044Y700D01*
X4046Y696D01*
X4050Y694D01*
X4055Y693D01*
X4060Y694D01*
X4064Y696D01*
X4069Y695D01*
X4071Y693D01*
Y687D01*
X4072Y683D01*
X4074Y681D01*
X4089Y665D01*
X4092Y663D01*
X4095Y663D01*
X4096D01*
X4098Y658D01*
X4097Y657D01*
X4095Y653D01*
X4094Y649D01*
X4095Y644D01*
X4097Y641D01*
Y640D01*
X4098Y636D01*
X4100Y633D01*
X4148Y584D01*
X4148Y581D01*
X4146Y579D01*
X4126D01*
X4119Y578D01*
X4113Y574D01*
X3983Y444D01*
X2673D01*
X2609Y508D01*
X2609Y510D01*
X2608Y518D01*
X2605Y525D01*
X2601Y531D01*
X2595Y535D01*
X2588Y538D01*
X2580Y539D01*
X2572Y538D01*
X2565Y535D01*
X2559Y531D01*
X2555Y525D01*
X2552Y518D01*
X2551Y510D01*
X2552Y502D01*
X2555Y495D01*
X2559Y489D01*
X2565Y485D01*
X2572Y482D01*
X2580Y481D01*
X2582Y481D01*
X2650Y413D01*
X2648Y408D01*
X1102D01*
X1102Y408D01*
X1098Y409D01*
X1097Y413D01*
X1097Y413D01*
Y472D01*
X1097D01*
X1096Y481D01*
X1092Y489D01*
X1087Y496D01*
X1080Y502D01*
X1072Y505D01*
X1063Y506D01*
Y506D01*
X945D01*
Y506D01*
X936Y505D01*
X928Y502D01*
X921Y496D01*
X916Y489D01*
X912Y481D01*
X911Y472D01*
X911D01*
Y413D01*
X911Y413D01*
X910Y409D01*
X906Y408D01*
X906Y408D01*
X433D01*
X432Y408D01*
X423Y409D01*
X415Y415D01*
X409Y423D01*
X408Y432D01*
X408Y433D01*
Y1220D01*
X408Y1221D01*
X409Y1230D01*
X415Y1239D01*
X423Y1244D01*
X432Y1246D01*
X433Y1246D01*
X906D01*
X906Y1246D01*
X910Y1244D01*
X911Y1241D01*
X911Y1240D01*
Y1181D01*
X911D01*
X912Y1173D01*
X916Y1164D01*
X921Y1157D01*
X928Y1152D01*
X936Y1149D01*
X945Y1147D01*
Y1147D01*
X1063D01*
Y1147D01*
X1072Y1149D01*
X1080Y1152D01*
X1087Y1157D01*
X1092Y1164D01*
X1096Y1173D01*
X1097Y1181D01*
X1097D01*
Y1240D01*
X1097Y1241D01*
X1098Y1244D01*
X1102Y1246D01*
X1102Y1246D01*
X5295D01*
X5296Y1246D01*
X5299Y1244D01*
X5301Y1241D01*
X5301Y1240D01*
Y1181D01*
X5301D01*
X5302Y1173D01*
X5305Y1164D01*
X5311Y1157D01*
X5318Y1152D01*
X5326Y1149D01*
X5335Y1147D01*
Y1147D01*
X5453D01*
Y1147D01*
X5462Y1149D01*
X5470Y1152D01*
X5477Y1157D01*
X5482Y1164D01*
X5485Y1173D01*
X5487Y1181D01*
X5487D01*
Y1240D01*
X5486Y1241D01*
X5488Y1244D01*
X5492Y1246D01*
X5492Y1246D01*
D02*
G37*
G36*
X5228Y1002D02*
X5050Y1002D01*
X5050Y1144D01*
X5228Y1144D01*
X5228Y1002D01*
D02*
G37*
G36*
X4928Y768D02*
X4750Y768D01*
X4750Y908D01*
X4928D01*
X4928Y768D01*
D02*
G37*
G36*
X5240Y737D02*
X5075Y737D01*
X5075Y915D01*
X5240Y915D01*
X5240Y737D01*
D02*
G37*
G36*
X4223Y627D02*
Y558D01*
X4165Y558D01*
Y627D01*
X4223Y627D01*
D02*
G37*
%LPC*%
G36*
X4970Y1176D02*
X4965Y1175D01*
X4962Y1173D01*
X4266D01*
X4263Y1172D01*
X4260Y1170D01*
X4194Y1104D01*
X4190Y1104D01*
X4186Y1101D01*
X4184Y1097D01*
X4183Y1092D01*
X4184Y1088D01*
X4186Y1084D01*
X4190Y1081D01*
X4195Y1080D01*
X4200Y1081D01*
X4204Y1084D01*
X4206Y1088D01*
X4207Y1091D01*
X4270Y1154D01*
X4962D01*
X4965Y1152D01*
X4970Y1151D01*
X4975Y1152D01*
X4979Y1155D01*
X4981Y1159D01*
X4982Y1163D01*
X4981Y1168D01*
X4979Y1172D01*
X4975Y1175D01*
X4970Y1176D01*
D02*
G37*
G36*
X803Y1231D02*
X669D01*
X665Y1230D01*
X661Y1227D01*
X600Y1166D01*
X596Y1164D01*
X594Y1160D01*
X593Y1155D01*
X593Y1155D01*
X593Y1154D01*
X593Y1149D01*
X596Y1146D01*
X600Y1143D01*
X604Y1142D01*
X609Y1143D01*
X613Y1146D01*
X613Y1146D01*
X614Y1146D01*
X614Y1147D01*
X674Y1207D01*
X693D01*
X694Y1202D01*
X693Y1202D01*
X686Y1196D01*
X680Y1189D01*
X677Y1181D01*
X676Y1172D01*
X677Y1163D01*
X680Y1155D01*
X686Y1148D01*
X693Y1142D01*
X701Y1139D01*
X710Y1138D01*
X719Y1139D01*
X727Y1142D01*
X734Y1148D01*
X740Y1155D01*
X743Y1163D01*
X744Y1172D01*
X743Y1181D01*
X740Y1189D01*
X734Y1196D01*
X727Y1202D01*
X726Y1202D01*
X727Y1207D01*
X798D01*
X938Y1068D01*
X939Y1066D01*
X943Y1063D01*
X948Y1062D01*
X952Y1063D01*
X956Y1066D01*
X959Y1070D01*
X960Y1074D01*
X959Y1079D01*
X956Y1083D01*
X954Y1085D01*
X811Y1227D01*
X808Y1230D01*
X803Y1231D01*
D02*
G37*
G36*
X3954Y1164D02*
X3950Y1163D01*
X3946Y1161D01*
X3943Y1157D01*
X3942Y1152D01*
X3943Y1147D01*
X3946Y1143D01*
X3950Y1141D01*
X3953Y1140D01*
X4042Y1051D01*
X4045Y1049D01*
X4049Y1049D01*
X4322D01*
X4325Y1046D01*
X4330Y1046D01*
X4335Y1046D01*
X4339Y1049D01*
X4341Y1053D01*
X4342Y1058D01*
X4341Y1062D01*
X4339Y1066D01*
X4335Y1069D01*
X4330Y1070D01*
X4325Y1069D01*
X4322Y1067D01*
X4052D01*
X3966Y1153D01*
X3966Y1157D01*
X3963Y1161D01*
X3959Y1163D01*
X3954Y1164D01*
D02*
G37*
G36*
X2043Y1186D02*
X1669D01*
X1666Y1186D01*
X1663Y1184D01*
X1629Y1150D01*
X1627Y1147D01*
X1626Y1143D01*
Y1078D01*
X1624Y1075D01*
X1623Y1070D01*
X1624Y1065D01*
X1627Y1062D01*
X1631Y1059D01*
X1635Y1058D01*
X1640Y1059D01*
X1644Y1062D01*
X1647Y1065D01*
X1648Y1070D01*
X1647Y1075D01*
X1644Y1078D01*
Y1139D01*
X1673Y1168D01*
X1791D01*
X1793Y1163D01*
X1654Y1023D01*
X1622D01*
X1622Y1027D01*
X1619Y1031D01*
X1615Y1033D01*
X1610Y1034D01*
X1606Y1033D01*
X1602Y1031D01*
X1600Y1028D01*
X1600Y1028D01*
X1595D01*
X1594Y1028D01*
X1593Y1031D01*
X1589Y1033D01*
X1584Y1034D01*
X1579Y1033D01*
X1575Y1031D01*
X1573Y1027D01*
X1572Y1022D01*
X1573Y1017D01*
X1575Y1014D01*
X1579Y1011D01*
X1583Y1010D01*
X1595Y998D01*
X1593Y993D01*
X1479D01*
X1465Y1007D01*
Y1062D01*
X1467Y1065D01*
X1468Y1069D01*
X1467Y1074D01*
X1465Y1078D01*
X1461Y1081D01*
X1456Y1082D01*
X1451Y1081D01*
X1448Y1078D01*
X1446Y1076D01*
X1441D01*
X1439Y1078D01*
X1435Y1081D01*
X1431Y1082D01*
X1426Y1081D01*
X1422Y1078D01*
X1419Y1074D01*
X1418Y1069D01*
X1419Y1065D01*
X1421Y1062D01*
Y1012D01*
X1417Y1011D01*
X1413Y1014D01*
Y1092D01*
X1412Y1096D01*
X1410Y1098D01*
X1362Y1147D01*
X1359Y1149D01*
X1356Y1149D01*
X1246D01*
X1242Y1149D01*
X1239Y1147D01*
X1229Y1136D01*
X1227Y1133D01*
X1226Y1130D01*
Y1114D01*
X1224Y1111D01*
X1223Y1106D01*
X1224Y1102D01*
X1227Y1098D01*
X1231Y1095D01*
X1235Y1094D01*
X1240Y1095D01*
X1244Y1098D01*
X1247Y1102D01*
X1248Y1106D01*
X1247Y1111D01*
X1244Y1114D01*
Y1126D01*
X1249Y1131D01*
X1257D01*
X1258Y1129D01*
X1260Y1126D01*
X1259Y1122D01*
X1260Y1117D01*
X1263Y1113D01*
X1267Y1111D01*
X1272Y1110D01*
X1276Y1111D01*
X1280Y1113D01*
X1349D01*
X1380Y1082D01*
Y1004D01*
X1381Y1001D01*
X1383Y998D01*
X1403Y977D01*
Y963D01*
X1400Y961D01*
X1398Y961D01*
X1394Y963D01*
X1390Y964D01*
X1385Y963D01*
X1381Y960D01*
X1378Y956D01*
X1378Y952D01*
X1352Y927D01*
X1176D01*
X1069Y1034D01*
X1066Y1036D01*
X1063Y1037D01*
X886D01*
X883Y1039D01*
X878Y1040D01*
X874Y1039D01*
X871Y1041D01*
X869Y1042D01*
Y1070D01*
X879Y1080D01*
X883Y1081D01*
X887Y1083D01*
X889Y1087D01*
X890Y1092D01*
X889Y1097D01*
X887Y1101D01*
X883Y1103D01*
X878Y1104D01*
X873Y1103D01*
X869Y1101D01*
X867Y1097D01*
X866Y1093D01*
X858Y1085D01*
X853Y1087D01*
Y1119D01*
X852Y1123D01*
X850Y1126D01*
X833Y1143D01*
Y1143D01*
X835Y1147D01*
X836Y1151D01*
X835Y1156D01*
X832Y1160D01*
X828Y1163D01*
X824Y1164D01*
X819Y1163D01*
X815Y1160D01*
X812Y1156D01*
X811Y1151D01*
X812Y1147D01*
X814Y1143D01*
Y1139D01*
X815Y1136D01*
X817Y1133D01*
X834Y1115D01*
Y1106D01*
X829Y1103D01*
X829Y1104D01*
X824Y1104D01*
X820Y1104D01*
X816Y1101D01*
X814Y1099D01*
X809Y1100D01*
Y1126D01*
X808Y1130D01*
X806Y1132D01*
X786Y1153D01*
X785Y1157D01*
X783Y1161D01*
X779Y1163D01*
X774Y1164D01*
X769Y1163D01*
X765Y1161D01*
X763Y1157D01*
X762Y1152D01*
X763Y1147D01*
X765Y1143D01*
X769Y1141D01*
X773Y1140D01*
X791Y1122D01*
Y988D01*
X789Y985D01*
X788Y980D01*
X789Y975D01*
X791Y971D01*
X795Y969D01*
X800Y968D01*
X805Y969D01*
X809Y971D01*
X810Y974D01*
X815Y972D01*
Y957D01*
X816Y954D01*
X818Y951D01*
X828Y941D01*
X828Y940D01*
X829Y935D01*
X831Y931D01*
X835Y929D01*
X840Y928D01*
X845Y929D01*
X849Y931D01*
X851Y935D01*
X852Y940D01*
X851Y945D01*
X849Y949D01*
X845Y951D01*
X843Y952D01*
X834Y961D01*
Y986D01*
X839Y988D01*
X854Y974D01*
X856Y972D01*
X860Y971D01*
X1052D01*
X1143Y879D01*
X1146Y877D01*
X1150Y877D01*
X1382D01*
X1385Y875D01*
X1390Y874D01*
X1394Y875D01*
X1398Y877D01*
X1400Y876D01*
X1403Y875D01*
Y848D01*
X1302Y747D01*
X1207D01*
X1204Y746D01*
X1201Y744D01*
X1078Y621D01*
X998D01*
X993Y626D01*
X994Y626D01*
X998Y629D01*
X1002Y628D01*
X1006Y629D01*
X1010Y631D01*
X1013Y635D01*
X1014Y640D01*
X1013Y645D01*
X1011Y648D01*
Y766D01*
X1028Y783D01*
X1030Y786D01*
X1030Y788D01*
X1033Y790D01*
X1036Y791D01*
X1036Y790D01*
X1041Y789D01*
X1046Y790D01*
X1049Y792D01*
X1089D01*
X1093Y790D01*
X1097Y789D01*
X1102Y790D01*
X1106Y793D01*
X1109Y797D01*
X1110Y801D01*
X1109Y806D01*
X1106Y810D01*
X1102Y813D01*
X1097Y814D01*
X1093Y813D01*
X1089Y811D01*
X1074D01*
X1072Y816D01*
X1072Y816D01*
X1073Y821D01*
X1072Y826D01*
X1069Y830D01*
X1065Y832D01*
X1062Y833D01*
X1048Y847D01*
X1045Y849D01*
X1042Y849D01*
X1025D01*
X1025Y854D01*
X1026Y855D01*
X1030Y857D01*
X1033Y861D01*
X1034Y866D01*
X1033Y871D01*
X1030Y875D01*
X1026Y877D01*
X1022Y878D01*
X1015Y885D01*
X1012Y887D01*
X1009Y888D01*
X592D01*
X588Y887D01*
X585Y885D01*
X548Y848D01*
X546Y845D01*
X545Y841D01*
Y774D01*
X544Y772D01*
X543Y767D01*
X544Y763D01*
X546Y759D01*
X550Y756D01*
X555Y755D01*
X560Y756D01*
X560Y756D01*
X565Y754D01*
Y594D01*
X563Y591D01*
X562Y586D01*
X563Y582D01*
X566Y578D01*
X570Y575D01*
X574Y574D01*
X579Y575D01*
X583Y578D01*
X586Y582D01*
X587Y586D01*
X586Y591D01*
X584Y594D01*
Y775D01*
X589Y777D01*
X590Y776D01*
X595Y775D01*
X600Y776D01*
X604Y779D01*
X606Y783D01*
X607Y786D01*
X613Y792D01*
X699D01*
X700Y791D01*
X705Y790D01*
X710Y791D01*
X714Y794D01*
X716Y798D01*
X717Y802D01*
X717Y805D01*
X717Y807D01*
X720Y810D01*
X721Y811D01*
X724Y813D01*
X745Y813D01*
X748Y813D01*
X751Y815D01*
X773Y837D01*
X831Y837D01*
X833Y834D01*
X834Y832D01*
X833Y828D01*
X834Y823D01*
X836Y819D01*
X840Y817D01*
X844Y816D01*
X867Y793D01*
X870Y791D01*
X874Y790D01*
X878D01*
X878Y790D01*
X883Y789D01*
X888Y790D01*
X892Y792D01*
X894Y796D01*
X895Y801D01*
X894Y806D01*
X892Y810D01*
X888Y812D01*
X888Y814D01*
X889Y817D01*
X890Y817D01*
X893Y819D01*
X951D01*
X970Y800D01*
X971Y797D01*
X971Y796D01*
X969Y791D01*
X925D01*
X922Y793D01*
X917Y794D01*
X913Y793D01*
X909Y790D01*
X906Y786D01*
X905Y782D01*
X906Y777D01*
X907Y776D01*
X904Y771D01*
X807D01*
X792Y786D01*
X791Y790D01*
X789Y794D01*
X785Y797D01*
X780Y798D01*
X775Y797D01*
X772Y794D01*
X769Y790D01*
X768Y785D01*
X769Y781D01*
X772Y777D01*
X775Y774D01*
X779Y773D01*
X779Y773D01*
X797Y756D01*
X799Y754D01*
X803Y753D01*
X923D01*
X924Y748D01*
X923Y748D01*
X919Y746D01*
X863D01*
X860Y745D01*
X857Y743D01*
X813Y699D01*
X812Y699D01*
X807Y698D01*
X803Y696D01*
X800Y692D01*
X799Y687D01*
X800Y682D01*
X803Y678D01*
X807Y676D01*
X812Y675D01*
X816Y676D01*
X820Y678D01*
X823Y682D01*
X823Y683D01*
X867Y727D01*
X919D01*
X923Y725D01*
X927Y724D01*
X932Y725D01*
X936Y728D01*
X939Y732D01*
X940Y736D01*
X939Y741D01*
X936Y745D01*
X932Y748D01*
X931Y748D01*
X932Y753D01*
X974D01*
X977Y751D01*
X982Y750D01*
X987Y751D01*
X988Y751D01*
X993Y749D01*
Y734D01*
X988Y732D01*
X987Y732D01*
X982Y733D01*
X977Y732D01*
X973Y730D01*
X972Y727D01*
X971Y727D01*
X967Y727D01*
X966Y727D01*
X964Y730D01*
X961Y732D01*
X956Y733D01*
X951Y732D01*
X947Y730D01*
X945Y726D01*
X944Y721D01*
X945Y716D01*
X947Y713D01*
Y626D01*
X947Y623D01*
X949Y620D01*
X977Y592D01*
X980Y590D01*
X984Y589D01*
X1089D01*
X1092Y590D01*
X1095Y592D01*
X1217Y714D01*
X1312D01*
X1316Y715D01*
X1319Y717D01*
X1432Y830D01*
X1434Y833D01*
X1435Y837D01*
Y981D01*
X1440Y983D01*
X1462Y961D01*
X1465Y959D01*
X1469Y958D01*
X1799D01*
X1803Y959D01*
X1806Y961D01*
X1816Y971D01*
X1820Y968D01*
X1819Y967D01*
X1818Y958D01*
X1819Y950D01*
X1824Y942D01*
X1831Y938D01*
X1837Y936D01*
X1837Y931D01*
X1760D01*
X1757Y934D01*
X1752Y935D01*
X1747Y934D01*
X1744Y932D01*
X1537D01*
X1533Y931D01*
X1530Y929D01*
X1501Y900D01*
X1499Y897D01*
X1498Y893D01*
Y846D01*
X1497Y845D01*
X1492D01*
X1490Y847D01*
X1486Y849D01*
X1482Y850D01*
X1477Y849D01*
X1473Y847D01*
X1472Y845D01*
X1466D01*
X1465Y847D01*
X1461Y849D01*
X1456Y850D01*
X1451Y849D01*
X1448Y847D01*
X1445Y843D01*
X1444Y838D01*
X1445Y833D01*
X1447Y830D01*
Y822D01*
X1448Y818D01*
X1450Y815D01*
X1472Y793D01*
X1475Y791D01*
X1479Y790D01*
X1531D01*
X1535Y791D01*
X1538Y793D01*
X1567Y822D01*
X1572Y820D01*
X1572Y819D01*
X1573Y814D01*
X1575Y810D01*
X1579Y808D01*
X1582Y807D01*
X1724Y665D01*
X1727Y663D01*
X1730Y663D01*
X3457D01*
X3460Y663D01*
X3463Y665D01*
X3464Y666D01*
X3489D01*
X3492Y664D01*
X3497Y663D01*
X3502Y664D01*
X3506Y667D01*
X3508Y671D01*
X3509Y676D01*
X3508Y680D01*
X3506Y684D01*
X3502Y687D01*
X3497Y688D01*
X3492Y687D01*
X3489Y685D01*
X3461D01*
X3457Y684D01*
X3454Y682D01*
X3453Y681D01*
X1734D01*
X1663Y751D01*
X1665Y756D01*
X1727D01*
X1742Y741D01*
Y711D01*
X1742Y709D01*
X1743Y704D01*
X1745Y700D01*
X1749Y697D01*
X1754Y696D01*
X1759Y697D01*
X1763Y700D01*
X1765Y704D01*
X1766Y709D01*
X1766Y711D01*
Y746D01*
X1765Y751D01*
X1762Y754D01*
X1741Y776D01*
X1737Y779D01*
X1732Y779D01*
X1662D01*
X1647Y795D01*
Y816D01*
X1648Y819D01*
X1647Y824D01*
X1644Y828D01*
X1643Y828D01*
X1644Y833D01*
X1705D01*
X1840Y698D01*
X1843Y696D01*
X1847Y695D01*
X3315D01*
X3318Y696D01*
X3321Y698D01*
X3342Y719D01*
X3358D01*
X3360Y713D01*
X3366Y706D01*
X3373Y700D01*
X3381Y697D01*
X3390Y696D01*
X3399Y697D01*
X3407Y700D01*
X3414Y706D01*
X3417Y710D01*
X3422Y710D01*
X3423Y709D01*
X3426Y707D01*
X3429Y707D01*
X3450D01*
X3454Y707D01*
X3456Y709D01*
X3469Y722D01*
X3471Y725D01*
X3472Y729D01*
Y777D01*
X3488Y793D01*
X3492D01*
X3495Y791D01*
X3499Y790D01*
X3504Y791D01*
X3508Y794D01*
X3511Y798D01*
X3512Y803D01*
X3511Y807D01*
X3508Y811D01*
X3504Y814D01*
X3499Y815D01*
X3495Y814D01*
X3492Y812D01*
X3485D01*
X3481Y811D01*
X3478Y809D01*
X3456Y787D01*
X3454Y784D01*
X3454Y784D01*
X3449Y784D01*
Y804D01*
X3448Y807D01*
X3446Y810D01*
X3435Y821D01*
X3432Y823D01*
X3429Y824D01*
X3423D01*
X3423Y826D01*
X3420Y834D01*
X3414Y841D01*
X3407Y847D01*
X3399Y850D01*
X3390Y851D01*
X3381Y850D01*
X3373Y847D01*
X3366Y841D01*
X3360Y834D01*
X3357Y826D01*
X3357Y824D01*
X3340D01*
X3336Y823D01*
X3334Y821D01*
X3324Y811D01*
X3322Y809D01*
X3321Y805D01*
Y749D01*
X3302Y730D01*
X1855D01*
X1720Y865D01*
X1717Y867D01*
X1713Y867D01*
X1564D01*
X1561Y867D01*
X1558Y865D01*
X1522Y829D01*
X1518Y832D01*
X1519Y833D01*
X1520Y838D01*
X1519Y843D01*
X1517Y846D01*
Y889D01*
X1540Y913D01*
X1744D01*
X1747Y911D01*
X1752Y910D01*
X1757Y911D01*
X1760Y913D01*
X1831D01*
X1831Y908D01*
X1827Y908D01*
X1814Y902D01*
X1804Y894D01*
X1795Y884D01*
X1790Y871D01*
X1789Y858D01*
X1790Y845D01*
X1795Y833D01*
X1804Y822D01*
X1814Y814D01*
X1827Y809D01*
X1840Y807D01*
X1853Y809D01*
X1865Y814D01*
X1876Y822D01*
X1884Y833D01*
X1889Y845D01*
X1891Y858D01*
X1889Y871D01*
X1884Y884D01*
X1876Y894D01*
X1865Y902D01*
X1853Y908D01*
X1849Y908D01*
X1849Y913D01*
X1861D01*
X1865Y914D01*
X1868Y916D01*
X1894Y942D01*
X1913D01*
X1917Y940D01*
X1921Y939D01*
X1926Y940D01*
X1930Y943D01*
X1933Y947D01*
X1933Y952D01*
X1933Y956D01*
X1930Y960D01*
X1926Y963D01*
X1921Y964D01*
X1917Y963D01*
X1913Y961D01*
X1890D01*
X1887Y960D01*
X1884Y958D01*
X1857Y931D01*
X1843D01*
X1842Y936D01*
X1848Y938D01*
X1855Y942D01*
X1860Y950D01*
X1862Y958D01*
X1860Y967D01*
X1855Y974D01*
X1848Y979D01*
X1840Y980D01*
X1831Y979D01*
X1830Y978D01*
X1827Y981D01*
X1836Y991D01*
X1913D01*
X1917Y989D01*
X1921Y988D01*
X1926Y989D01*
X1930Y991D01*
X1933Y995D01*
X1933Y1000D01*
X1933Y1005D01*
X1930Y1009D01*
X1926Y1011D01*
X1921Y1012D01*
X1917Y1011D01*
X1913Y1009D01*
X1908D01*
X1908Y1009D01*
X1908Y1014D01*
X1910Y1015D01*
X1914Y1017D01*
X1917Y1021D01*
X1918Y1026D01*
X1917Y1028D01*
X1922Y1031D01*
X1929Y1022D01*
X1939Y1014D01*
X1952Y1009D01*
X1965Y1007D01*
X1978Y1009D01*
X1990Y1014D01*
X2001Y1022D01*
X2009Y1033D01*
X2014Y1045D01*
X2016Y1058D01*
X2014Y1071D01*
X2009Y1084D01*
X2001Y1094D01*
X1990Y1102D01*
X1978Y1108D01*
X1965Y1109D01*
X1952Y1108D01*
X1939Y1102D01*
X1929Y1094D01*
X1920Y1084D01*
X1920Y1082D01*
X1915Y1083D01*
Y1097D01*
X1914Y1100D01*
X1912Y1103D01*
X1885Y1130D01*
X1887Y1135D01*
X2027D01*
X2355Y807D01*
X2358Y805D01*
X2361Y804D01*
X3171D01*
X3228Y747D01*
X3229Y743D01*
X3232Y739D01*
X3235Y737D01*
X3240Y736D01*
X3245Y737D01*
X3249Y739D01*
X3251Y743D01*
X3252Y748D01*
X3251Y753D01*
X3249Y757D01*
X3245Y759D01*
X3241Y760D01*
X3186Y815D01*
X3188Y819D01*
X3232D01*
X3235Y817D01*
X3240Y816D01*
X3245Y817D01*
X3249Y820D01*
X3251Y824D01*
X3252Y829D01*
X3251Y833D01*
X3249Y837D01*
X3245Y840D01*
X3240Y841D01*
X3235Y840D01*
X3232Y838D01*
X3189D01*
X3186Y843D01*
X3241Y897D01*
X3245Y898D01*
X3249Y901D01*
X3251Y905D01*
X3252Y909D01*
X3251Y914D01*
X3249Y918D01*
X3245Y921D01*
X3240Y922D01*
X3235Y921D01*
X3232Y918D01*
X3229Y914D01*
X3228Y910D01*
X3173Y856D01*
X2378D01*
X2050Y1184D01*
X2047Y1186D01*
X2043Y1186D01*
D02*
G37*
G36*
X745Y1066D02*
X736Y1065D01*
X728Y1061D01*
X721Y1056D01*
X715Y1049D01*
X712Y1041D01*
X711Y1032D01*
X712Y1023D01*
X715Y1015D01*
X721Y1007D01*
X728Y1002D01*
X736Y999D01*
X745Y997D01*
X754Y999D01*
X762Y1002D01*
X769Y1007D01*
X775Y1015D01*
X778Y1023D01*
X779Y1032D01*
X778Y1041D01*
X775Y1049D01*
X769Y1056D01*
X762Y1061D01*
X754Y1065D01*
X745Y1066D01*
D02*
G37*
G36*
X500Y1113D02*
X488Y1112D01*
X476Y1108D01*
X465Y1102D01*
X455Y1094D01*
X447Y1085D01*
X441Y1074D01*
X438Y1062D01*
X437Y1050D01*
X438Y1037D01*
X441Y1025D01*
X447Y1014D01*
X455Y1005D01*
X465Y997D01*
X476Y991D01*
X488Y987D01*
X500Y986D01*
X512Y987D01*
X524Y991D01*
X535Y997D01*
X545Y1005D01*
X553Y1014D01*
X559Y1025D01*
X562Y1037D01*
X563Y1050D01*
X562Y1062D01*
X559Y1074D01*
X553Y1085D01*
X545Y1094D01*
X535Y1102D01*
X524Y1108D01*
X512Y1112D01*
X500Y1113D01*
D02*
G37*
G36*
X3050Y1053D02*
X3041Y1051D01*
X3033Y1048D01*
X3026Y1043D01*
X3020Y1035D01*
X3017Y1027D01*
X3016Y1018D01*
X3017Y1009D01*
X3020Y1001D01*
X3026Y994D01*
X3033Y989D01*
X3041Y985D01*
X3050Y984D01*
X3059Y985D01*
X3067Y989D01*
X3074Y994D01*
X3080Y1001D01*
X3083Y1009D01*
X3084Y1018D01*
X3083Y1027D01*
X3080Y1035D01*
X3074Y1043D01*
X3067Y1048D01*
X3059Y1051D01*
X3050Y1053D01*
D02*
G37*
G36*
X3792Y981D02*
X3787Y980D01*
X3783Y977D01*
X3783Y977D01*
X3734D01*
X3732Y978D01*
X3727Y979D01*
X3723Y978D01*
X3719Y976D01*
X3716Y972D01*
X3715Y967D01*
X3716Y962D01*
X3719Y958D01*
X3723Y956D01*
X3727Y955D01*
X3732Y956D01*
X3736Y958D01*
X3736Y959D01*
X3785D01*
X3787Y957D01*
X3792Y956D01*
X3797Y957D01*
X3801Y960D01*
X3803Y964D01*
X3804Y968D01*
X3803Y973D01*
X3801Y977D01*
X3797Y980D01*
X3792Y981D01*
D02*
G37*
G36*
X2040Y1020D02*
X2031Y1019D01*
X2024Y1014D01*
X2019Y1007D01*
X2018Y998D01*
X2019Y990D01*
X2024Y982D01*
X2031Y978D01*
X2040Y976D01*
X2048Y978D01*
X2055Y982D01*
X2060Y990D01*
X2062Y998D01*
X2060Y1007D01*
X2055Y1014D01*
X2048Y1019D01*
X2040Y1020D01*
D02*
G37*
G36*
X3390Y1014D02*
X3381Y1013D01*
X3373Y1010D01*
X3366Y1004D01*
X3360Y997D01*
X3357Y989D01*
X3356Y980D01*
X3357Y971D01*
X3360Y963D01*
X3366Y956D01*
X3373Y950D01*
X3381Y947D01*
X3390Y946D01*
X3399Y947D01*
X3407Y950D01*
X3414Y956D01*
X3420Y963D01*
X3423Y971D01*
X3424Y980D01*
X3423Y989D01*
X3420Y997D01*
X3414Y1004D01*
X3407Y1010D01*
X3399Y1013D01*
X3390Y1014D01*
D02*
G37*
G36*
X2040Y940D02*
X2031Y939D01*
X2024Y934D01*
X2019Y927D01*
X2018Y918D01*
X2019Y910D01*
X2024Y902D01*
X2031Y898D01*
X2040Y896D01*
X2048Y898D01*
X2055Y902D01*
X2060Y910D01*
X2062Y918D01*
X2060Y927D01*
X2055Y934D01*
X2048Y939D01*
X2040Y940D01*
D02*
G37*
G36*
X3390Y934D02*
X3381Y933D01*
X3373Y930D01*
X3366Y924D01*
X3360Y917D01*
X3357Y909D01*
X3356Y900D01*
X3357Y891D01*
X3360Y883D01*
X3366Y876D01*
X3373Y870D01*
X3381Y867D01*
X3390Y866D01*
X3399Y867D01*
X3407Y870D01*
X3414Y876D01*
X3420Y883D01*
X3423Y891D01*
X3424Y900D01*
X3423Y909D01*
X3420Y917D01*
X3414Y924D01*
X3407Y930D01*
X3399Y933D01*
X3390Y934D01*
D02*
G37*
G36*
X3601Y905D02*
X3596Y904D01*
X3592Y901D01*
X3589Y897D01*
X3588Y893D01*
X3589Y888D01*
X3592Y884D01*
X3596Y881D01*
X3600Y881D01*
X3626Y854D01*
X3628Y853D01*
X3629Y848D01*
X3629Y847D01*
X3594Y812D01*
X3564D01*
X3561Y814D01*
X3556Y815D01*
X3551Y814D01*
X3547Y812D01*
X3545Y808D01*
X3544Y803D01*
X3545Y798D01*
X3547Y794D01*
X3551Y792D01*
X3556Y791D01*
X3561Y792D01*
X3564Y794D01*
X3590D01*
X3591Y789D01*
X3554Y752D01*
X3550Y751D01*
X3546Y748D01*
X3544Y745D01*
X3543Y740D01*
X3544Y735D01*
X3546Y731D01*
X3550Y729D01*
X3555Y728D01*
X3560Y729D01*
X3564Y731D01*
X3566Y735D01*
X3567Y739D01*
X3650Y822D01*
X3713D01*
X3716Y817D01*
X3715Y814D01*
X3716Y809D01*
X3719Y805D01*
X3723Y803D01*
X3727Y802D01*
X3732Y803D01*
X3735Y805D01*
X3751D01*
X3753Y800D01*
X3751Y799D01*
X3749Y795D01*
X3748Y790D01*
X3749Y785D01*
X3751Y781D01*
X3755Y779D01*
X3759Y778D01*
X3847Y690D01*
X3850Y688D01*
X3853Y688D01*
X3945D01*
X3948Y686D01*
X3953Y685D01*
X3958Y686D01*
X3962Y688D01*
X3964Y692D01*
X3965Y697D01*
X3964Y702D01*
X3962Y706D01*
X3958Y708D01*
X3953Y709D01*
X3948Y708D01*
X3945Y706D01*
X3857D01*
X3772Y791D01*
X3771Y795D01*
X3769Y799D01*
X3767Y800D01*
X3769Y805D01*
X3789D01*
X3853Y742D01*
X3856Y740D01*
X3859Y739D01*
X3912D01*
X3915Y737D01*
X3920Y736D01*
X3925Y737D01*
X3929Y739D01*
X3931Y743D01*
X3932Y748D01*
X3931Y753D01*
X3929Y757D01*
X3925Y759D01*
X3920Y760D01*
X3915Y759D01*
X3912Y757D01*
X3863D01*
X3847Y773D01*
X3849Y779D01*
X3850Y779D01*
X3854Y781D01*
X3856Y785D01*
X3857Y790D01*
X3856Y795D01*
X3854Y799D01*
X3850Y801D01*
X3845Y802D01*
X3840Y801D01*
X3839Y801D01*
X3809Y831D01*
X3811Y836D01*
X3866D01*
X3878Y824D01*
X3879Y820D01*
X3881Y816D01*
X3885Y814D01*
X3890Y813D01*
X3895Y814D01*
X3899Y816D01*
X3901Y820D01*
X3902Y825D01*
X3901Y830D01*
X3899Y834D01*
X3895Y836D01*
X3891Y837D01*
X3881Y847D01*
X3883Y851D01*
X3907D01*
X3910Y849D01*
X3915Y848D01*
X3920Y849D01*
X3924Y852D01*
X3926Y856D01*
X3927Y860D01*
X3926Y865D01*
X3924Y869D01*
X3920Y872D01*
X3915Y873D01*
X3910Y872D01*
X3907Y870D01*
X3637D01*
X3613Y894D01*
X3612Y897D01*
X3609Y901D01*
X3605Y904D01*
X3601Y905D01*
D02*
G37*
G36*
X1965Y909D02*
X1952Y908D01*
X1939Y902D01*
X1929Y894D01*
X1920Y884D01*
X1915Y871D01*
X1914Y858D01*
X1915Y845D01*
X1920Y833D01*
X1929Y822D01*
X1939Y814D01*
X1952Y809D01*
X1965Y807D01*
X1978Y809D01*
X1990Y814D01*
X2001Y822D01*
X2009Y833D01*
X2014Y845D01*
X2016Y858D01*
X2014Y871D01*
X2009Y884D01*
X2001Y894D01*
X1990Y902D01*
X1978Y908D01*
X1965Y909D01*
D02*
G37*
G36*
X1318Y857D02*
X1310Y856D01*
X1303Y853D01*
X1297Y849D01*
X1293Y843D01*
X1293Y842D01*
X1225D01*
X1220Y841D01*
X1215Y838D01*
X1212Y833D01*
X1211Y828D01*
X1212Y823D01*
X1215Y818D01*
X1220Y815D01*
X1225Y814D01*
X1293D01*
X1293Y813D01*
X1297Y807D01*
X1303Y803D01*
X1310Y800D01*
X1318Y799D01*
X1326Y800D01*
X1333Y803D01*
X1339Y807D01*
X1343Y813D01*
X1346Y820D01*
X1347Y828D01*
X1346Y836D01*
X1343Y843D01*
X1339Y849D01*
X1333Y853D01*
X1326Y856D01*
X1318Y857D01*
D02*
G37*
G36*
X1041Y774D02*
X1036Y773D01*
X1032Y770D01*
X1030Y766D01*
X1029Y762D01*
X1030Y757D01*
X1032Y754D01*
Y729D01*
X1033Y726D01*
X1035Y723D01*
X1037Y720D01*
Y699D01*
X1035Y696D01*
X1034Y691D01*
X1035Y687D01*
X1038Y683D01*
X1042Y680D01*
X1046Y679D01*
X1051Y680D01*
X1055Y683D01*
X1058Y687D01*
X1058Y691D01*
X1058Y696D01*
X1055Y699D01*
Y724D01*
X1055Y727D01*
X1053Y730D01*
X1050Y733D01*
Y754D01*
X1052Y757D01*
X1053Y762D01*
X1052Y766D01*
X1050Y770D01*
X1046Y773D01*
X1041Y774D01*
D02*
G37*
G36*
X1570Y702D02*
X1561Y701D01*
X1553Y698D01*
X1546Y692D01*
X1540Y685D01*
X1537Y677D01*
X1536Y668D01*
X1537Y659D01*
X1540Y651D01*
X1546Y644D01*
X1553Y638D01*
X1561Y635D01*
X1570Y634D01*
X1579Y635D01*
X1587Y638D01*
X1594Y644D01*
X1600Y651D01*
X1603Y659D01*
X1604Y668D01*
X1603Y677D01*
X1600Y685D01*
X1594Y692D01*
X1587Y698D01*
X1579Y701D01*
X1570Y702D01*
D02*
G37*
G36*
X4486Y686D02*
X4474Y685D01*
X4462Y682D01*
X4451Y676D01*
X4441Y668D01*
X4433Y658D01*
X4427Y647D01*
X4424Y635D01*
X4423Y623D01*
X4424Y611D01*
X4427Y599D01*
X4433Y588D01*
X4441Y578D01*
X4451Y570D01*
X4462Y564D01*
X4474Y561D01*
X4486Y560D01*
X4498Y561D01*
X4510Y564D01*
X4521Y570D01*
X4531Y578D01*
X4539Y588D01*
X4544Y599D01*
X4548Y611D01*
X4549Y623D01*
X4548Y635D01*
X4544Y647D01*
X4539Y658D01*
X4531Y668D01*
X4521Y676D01*
X4510Y682D01*
X4498Y685D01*
X4486Y686D01*
D02*
G37*
G36*
X1965Y653D02*
X1953Y651D01*
X1941Y648D01*
X1930Y642D01*
X1920Y634D01*
X1912Y624D01*
X1906Y613D01*
X1903Y602D01*
X1902Y589D01*
X1903Y577D01*
X1906Y565D01*
X1912Y554D01*
X1920Y544D01*
X1930Y537D01*
X1941Y531D01*
X1953Y527D01*
X1965Y526D01*
X1977Y527D01*
X1989Y531D01*
X2000Y537D01*
X2010Y544D01*
X2018Y554D01*
X2024Y565D01*
X2027Y577D01*
X2028Y589D01*
X2027Y602D01*
X2024Y613D01*
X2018Y624D01*
X2010Y634D01*
X2000Y642D01*
X1989Y648D01*
X1977Y651D01*
X1965Y653D01*
D02*
G37*
G36*
X1825D02*
X1813Y651D01*
X1801Y648D01*
X1790Y642D01*
X1780Y634D01*
X1772Y624D01*
X1766Y613D01*
X1763Y602D01*
X1762Y589D01*
X1763Y577D01*
X1766Y565D01*
X1772Y554D01*
X1780Y544D01*
X1790Y537D01*
X1801Y531D01*
X1813Y527D01*
X1825Y526D01*
X1837Y527D01*
X1849Y531D01*
X1860Y537D01*
X1870Y544D01*
X1878Y554D01*
X1884Y565D01*
X1887Y577D01*
X1888Y589D01*
X1887Y602D01*
X1884Y613D01*
X1878Y624D01*
X1870Y634D01*
X1860Y642D01*
X1849Y648D01*
X1837Y651D01*
X1825Y653D01*
D02*
G37*
G36*
X3589Y608D02*
X3577Y607D01*
X3565Y604D01*
X3554Y598D01*
X3544Y590D01*
X3536Y580D01*
X3530Y569D01*
X3527Y557D01*
X3526Y545D01*
X3527Y533D01*
X3530Y521D01*
X3536Y510D01*
X3544Y500D01*
X3554Y492D01*
X3565Y486D01*
X3577Y483D01*
X3589Y482D01*
X3601Y483D01*
X3613Y486D01*
X3624Y492D01*
X3634Y500D01*
X3642Y510D01*
X3648Y521D01*
X3651Y533D01*
X3652Y545D01*
X3651Y557D01*
X3648Y569D01*
X3642Y580D01*
X3634Y590D01*
X3624Y598D01*
X3613Y604D01*
X3601Y607D01*
X3589Y608D01*
D02*
G37*
G36*
X4160Y522D02*
X4155Y521D01*
X4151Y519D01*
X4149Y515D01*
X4148Y510D01*
X4149Y505D01*
X4151Y501D01*
X4155Y499D01*
X4159Y498D01*
X4179Y479D01*
X4181Y477D01*
X4185Y476D01*
X4952D01*
X4955Y474D01*
X4960Y473D01*
X4965Y474D01*
X4969Y476D01*
X4971Y480D01*
X4972Y485D01*
X4971Y490D01*
X4969Y494D01*
X4965Y496D01*
X4960Y497D01*
X4955Y496D01*
X4952Y494D01*
X4189D01*
X4172Y511D01*
X4171Y515D01*
X4169Y519D01*
X4165Y521D01*
X4160Y522D01*
D02*
G37*
G36*
X4324Y657D02*
X4319Y656D01*
X4315Y654D01*
X4313Y650D01*
X4312Y645D01*
X4313Y640D01*
X4315Y636D01*
X4319Y634D01*
X4323Y633D01*
X4417Y539D01*
X4420Y537D01*
X4424Y536D01*
X4566D01*
X4569Y537D01*
X4572Y539D01*
X4640Y606D01*
X5101D01*
X5101Y472D01*
X5102Y469D01*
X5105Y468D01*
X5250D01*
X5253Y469D01*
X5254Y472D01*
X5254Y650D01*
X5253Y653D01*
X5250Y654D01*
X5105D01*
X5102Y653D01*
X5101Y650D01*
Y624D01*
X4636D01*
X4632Y623D01*
X4629Y621D01*
X4562Y554D01*
X4428D01*
X4336Y646D01*
X4335Y650D01*
X4333Y654D01*
X4329Y656D01*
X4324Y657D01*
D02*
G37*
%LPD*%
G36*
X5250Y472D02*
X5105D01*
X5105Y650D01*
X5250D01*
X5250Y472D01*
D02*
G37*
D15*
X3461Y676D02*
X3497D01*
X3457Y672D02*
X3461Y676D01*
X1730Y672D02*
X3457D01*
X1584Y818D02*
X1730Y672D01*
X4156Y590D02*
X4195D01*
X4106Y640D02*
X4156Y590D01*
X4106Y640D02*
Y649D01*
X3864Y898D02*
X3874Y909D01*
X3720Y898D02*
X3864D01*
X3633Y986D02*
X3720Y898D01*
X3633Y986D02*
Y1132D01*
X3670Y884D02*
X3897D01*
X3601Y954D02*
X3670Y884D01*
X3897D02*
X3900Y887D01*
X3874Y909D02*
X4079D01*
X4135Y852D01*
X4185Y485D02*
X4960D01*
X4160Y510D02*
X4185Y485D01*
X4055Y705D02*
X4075Y725D01*
X3338Y728D02*
X3417D01*
X1709Y843D02*
X1847Y705D01*
X4176Y872D02*
X4637D01*
X4682Y917D02*
X4947D01*
X4637Y872D02*
X4682Y917D01*
X4971Y725D02*
X5244D01*
X4960Y736D02*
X4971Y725D01*
X4960Y736D02*
Y904D01*
X4947Y917D02*
X4960Y904D01*
X4415Y934D02*
X4780D01*
X4370Y890D02*
X4415Y934D01*
X4215Y890D02*
X4370D01*
X5255Y736D02*
Y876D01*
X5244Y725D02*
X5255Y736D01*
X5350Y705D02*
X5390Y745D01*
X4740Y705D02*
X5350D01*
X4605Y840D02*
X4740Y705D01*
X3380Y815D02*
X3429D01*
X3417Y728D02*
X3429Y716D01*
X3315Y705D02*
X3338Y728D01*
X1404Y1010D02*
X1426Y988D01*
X1312Y723D02*
X1426Y837D01*
X1389Y1004D02*
X1412Y981D01*
X1306Y738D02*
X1412Y844D01*
X1160Y902D02*
X1381D01*
X1412Y844D02*
Y981D01*
X1426Y837D02*
Y988D01*
X1381Y902D02*
X1393Y915D01*
X1395D01*
X3340Y815D02*
X3380D01*
X3440Y738D02*
Y804D01*
X3429Y815D02*
X3440Y804D01*
X3330Y745D02*
Y805D01*
X3305Y720D02*
X3330Y745D01*
X1851Y720D02*
X3305D01*
X3330Y805D02*
X3340Y815D01*
X3463Y729D02*
Y781D01*
X3450Y716D02*
X3463Y729D01*
X3429Y716D02*
X3450D01*
X1847Y705D02*
X3315D01*
X4566Y545D02*
X4636Y615D01*
X4424Y545D02*
X4566D01*
X4324Y645D02*
X4424Y545D01*
X4636Y615D02*
X5122D01*
X5132Y625D01*
X5390Y905D02*
X5425Y870D01*
X4610Y760D02*
X4679Y691D01*
X4345Y760D02*
X4610D01*
X4276Y691D02*
X4345Y760D01*
X4679Y691D02*
X5376D01*
X4119D02*
X4276D01*
X4170Y840D02*
X4605D01*
X1584Y818D02*
Y819D01*
X3646Y831D02*
X3796D01*
X3555Y740D02*
X3646Y831D01*
X3556Y803D02*
X3598D01*
X3463Y781D02*
X3485Y803D01*
X3499D01*
X3870Y845D02*
X3890Y825D01*
X3640Y845D02*
X3870D01*
X3796Y831D02*
X3837Y790D01*
X3845D01*
X3598Y803D02*
X3640Y845D01*
X3633Y860D02*
X3915D01*
X3601Y893D02*
X3633Y860D01*
X3853Y697D02*
X3953D01*
X3760Y790D02*
X3853Y697D01*
X4125Y990D02*
X4295D01*
X4306Y940D02*
X4324Y922D01*
X4153Y940D02*
X4306D01*
X4135Y922D02*
X4153Y940D01*
X4049Y1058D02*
X4330D01*
X3954Y1152D02*
X4049Y1058D01*
X4235Y1029D02*
X5075D01*
X4215Y1009D02*
X4235Y1029D01*
X4266Y1163D02*
X4970D01*
X4195Y1092D02*
X4266Y1163D01*
X4190Y895D02*
X4215Y920D01*
X4090Y970D02*
X5049D01*
X3960Y1100D02*
X4090Y970D01*
X4168Y895D02*
X4190D01*
X5049Y970D02*
X5129Y890D01*
X3918Y1028D02*
X3935D01*
X3810Y920D02*
X3918Y1028D01*
X3795Y920D02*
X3810D01*
X3880Y1100D02*
X3960D01*
X3615Y1150D02*
X3633Y1132D01*
X3549Y1150D02*
X3615D01*
X3791Y968D02*
X3792Y968D01*
X3728Y968D02*
X3791D01*
X4135Y802D02*
Y852D01*
X4087Y725D02*
X4153Y791D01*
X4075Y725D02*
X4087D01*
X4153Y791D02*
Y880D01*
X4168Y895D01*
X4157Y737D02*
X4180D01*
X4140Y754D02*
X4157Y737D01*
X3727Y967D02*
X3728Y968D01*
X3859Y748D02*
X3920D01*
X3793Y814D02*
X3859Y748D01*
X3727Y814D02*
X3793D01*
X5376Y691D02*
X5425Y740D01*
Y870D01*
X4080Y687D02*
Y705D01*
X4095Y672D02*
X4190D01*
X5255Y876D02*
X5279Y900D01*
X4080Y687D02*
X4095Y672D01*
X1713Y858D02*
X1851Y720D01*
X554Y766D02*
Y841D01*
X976Y846D02*
X1001Y821D01*
X716Y822D02*
X745Y822D01*
X769Y846D02*
X976Y846D01*
X745Y822D02*
X769Y846D01*
X705Y842D02*
X733D01*
X594Y786D02*
X609Y801D01*
X733Y842D02*
X755Y864D01*
X824Y1139D02*
Y1151D01*
Y1139D02*
X843Y1119D01*
Y997D02*
Y1119D01*
Y997D02*
X860Y980D01*
X1056D01*
X774Y1152D02*
X800Y1126D01*
Y980D02*
Y1126D01*
X803Y762D02*
X982D01*
X785Y780D02*
X803Y762D01*
X845Y828D02*
X874Y799D01*
X878D01*
X955Y829D02*
X982Y801D01*
X885Y829D02*
X955D01*
X812Y687D02*
X814D01*
X863Y736D01*
X1041Y729D02*
Y762D01*
Y729D02*
X1046Y724D01*
Y691D02*
Y724D01*
X1046Y782D02*
X1061Y767D01*
Y762D02*
Y767D01*
X1021Y762D02*
X1023Y763D01*
X1041Y801D02*
X1097D01*
X1040Y781D02*
X1041Y782D01*
X1042Y840D02*
X1061Y821D01*
X1021Y789D02*
Y801D01*
X1036Y781D02*
X1040D01*
X1023Y767D02*
X1036Y781D01*
X1023Y763D02*
Y767D01*
X956Y626D02*
X984Y598D01*
X1089D01*
X1213Y723D01*
X956Y626D02*
Y721D01*
X1002Y790D02*
Y801D01*
X1008Y840D02*
X1042D01*
X985Y864D02*
X1008Y840D01*
X1001Y821D02*
X1002Y821D01*
X1009Y879D02*
X1021Y866D01*
X1002Y769D02*
X1021Y789D01*
X592Y879D02*
X1009D01*
X755Y864D02*
X985D01*
X554Y841D02*
X592Y879D01*
X860Y1074D02*
X878Y1092D01*
X860Y1010D02*
Y1074D01*
Y1010D02*
X867Y1003D01*
X1059D02*
X1160Y902D01*
X867Y1003D02*
X1059D01*
X993Y782D02*
X1002Y790D01*
X917Y782D02*
X993D01*
X824Y957D02*
Y1092D01*
Y957D02*
X840Y942D01*
X1002Y640D02*
Y769D01*
X982Y620D02*
Y721D01*
X1056Y980D02*
X1150Y886D01*
X1390D01*
X878Y1028D02*
X1063D01*
X840Y940D02*
Y942D01*
X1096Y803D02*
X1097Y801D01*
X863Y736D02*
X927D01*
X1564Y858D02*
X1713D01*
X1575Y843D02*
X1709D01*
X1356Y918D02*
X1390Y952D01*
X1172Y918D02*
X1356D01*
X1063Y1028D02*
X1172Y918D01*
X1531Y799D02*
X1575Y843D01*
X1479Y799D02*
X1531D01*
X1521Y815D02*
X1564Y858D01*
X1492Y815D02*
X1521D01*
X1482Y825D02*
X1492Y815D01*
X1356Y1140D02*
X1404Y1092D01*
X1246Y1140D02*
X1356D01*
X1235Y1130D02*
X1246Y1140D01*
X1389Y1004D02*
Y1086D01*
X1404Y1010D02*
Y1092D01*
X1272Y1122D02*
X1353D01*
X1389Y1086D01*
X1235Y1106D02*
Y1130D01*
X1635Y1070D02*
Y1143D01*
X1669Y1177D02*
X2043D01*
X1635Y1143D02*
X1669Y1177D01*
X1537Y922D02*
X1752D01*
Y922D02*
X1861D01*
X1507Y893D02*
X1537Y922D01*
X1507Y838D02*
Y893D01*
X1213Y723D02*
X1312D01*
X1207Y738D02*
X1306D01*
X1081Y612D02*
X1207Y738D01*
X990Y612D02*
X1081D01*
X1890Y952D02*
X1921D01*
X1861Y922D02*
X1890Y952D01*
X1832Y1000D02*
X1921D01*
X1799Y967D02*
X1832Y1000D01*
X1482Y825D02*
Y838D01*
X1456Y822D02*
X1479Y799D01*
X1456Y822D02*
Y838D01*
X704Y840D02*
Y841D01*
X982Y620D02*
X990Y612D01*
X3177Y846D02*
X3240Y909D01*
X2374Y846D02*
X3177D01*
X2043Y1177D02*
X2374Y846D01*
X3175Y814D02*
X3240Y748D01*
X2361Y814D02*
X3175D01*
X2031Y1144D02*
X2361Y814D01*
X2368Y829D02*
X3240D01*
X1803Y1160D02*
X2036D01*
X1475Y984D02*
X1675D01*
X1456Y1003D02*
X1475Y984D01*
X1456Y1003D02*
Y1069D01*
X1431Y1005D02*
Y1069D01*
X1469Y967D02*
X1799D01*
X1431Y1005D02*
X1469Y967D01*
X1666Y999D02*
X1811Y1144D01*
X1675Y984D02*
X1819Y1128D01*
X1584Y1022D02*
X1607Y999D01*
X1610Y1022D02*
X1618Y1014D01*
X1874Y1128D02*
X1906Y1097D01*
Y1026D02*
Y1097D01*
X1819Y1128D02*
X1874D01*
X1657Y1014D02*
X1803Y1160D01*
X1618Y1014D02*
X1657D01*
X1811Y1144D02*
X2031D01*
X1607Y999D02*
X1666D01*
X2036Y1160D02*
X2368Y829D01*
X716Y821D02*
X716Y821D01*
X609Y801D02*
X704D01*
X574Y586D02*
Y800D01*
D108*
X2040Y918D02*
D03*
Y998D02*
D03*
X1840Y958D02*
D03*
D109*
Y1058D02*
D03*
X1965D02*
D03*
Y858D02*
D03*
X1840D02*
D03*
D117*
X604Y1154D02*
X669Y1219D01*
X803D02*
X948Y1074D01*
X669Y1219D02*
X803D01*
X1732Y768D02*
X1754Y746D01*
Y709D02*
Y746D01*
X1657Y768D02*
X1732D01*
X1635Y790D02*
X1657Y768D01*
X1635Y790D02*
Y819D01*
D119*
X1225Y828D02*
X1318D01*
D120*
X4195Y578D02*
Y590D01*
X4178Y560D02*
X4195Y578D01*
X4126Y560D02*
X4178D01*
X3991Y425D02*
X4126Y560D01*
X2665Y425D02*
X3991D01*
X2580Y510D02*
X2665Y425D01*
D125*
X3135Y1018D02*
D03*
X710Y1172D02*
D03*
X3390Y730D02*
D03*
Y980D02*
D03*
X745Y1032D02*
D03*
X3390Y817D02*
D03*
Y900D02*
D03*
X3050Y1018D02*
D03*
X1570Y668D02*
D03*
D126*
X500Y1050D02*
D03*
X1965Y589D02*
D03*
X1825D02*
D03*
X1685Y586D02*
D03*
X4486Y623D02*
D03*
X3589Y545D02*
D03*
X3015Y550D02*
D03*
D127*
X4069Y860D02*
D03*
Y774D02*
D03*
X3982Y860D02*
D03*
Y774D02*
D03*
X4025Y860D02*
D03*
X4069Y817D02*
D03*
X3982D02*
D03*
X4025Y775D02*
D03*
Y817D02*
D03*
X5129Y890D02*
D03*
X5172D02*
D03*
X5216D02*
D03*
X5129Y847D02*
D03*
X5172D02*
D03*
X5216D02*
D03*
X5129Y803D02*
D03*
X5172D02*
D03*
X5216D02*
D03*
X5129Y760D02*
D03*
X5172D02*
D03*
X5216D02*
D03*
X4770Y790D02*
D03*
Y834D02*
D03*
Y877D02*
D03*
X4813Y790D02*
D03*
Y834D02*
D03*
Y877D02*
D03*
X4857Y790D02*
D03*
Y834D02*
D03*
Y877D02*
D03*
X4900Y790D02*
D03*
Y834D02*
D03*
Y877D02*
D03*
X5219Y495D02*
D03*
X5175D02*
D03*
X5132D02*
D03*
X5219Y538D02*
D03*
X5175D02*
D03*
X5132D02*
D03*
X5219Y582D02*
D03*
X5175D02*
D03*
X5132D02*
D03*
X5219Y625D02*
D03*
X5175D02*
D03*
X5132D02*
D03*
X5075Y1029D02*
D03*
Y1072D02*
D03*
Y1116D02*
D03*
X5118Y1029D02*
D03*
Y1072D02*
D03*
Y1116D02*
D03*
X5162Y1029D02*
D03*
Y1072D02*
D03*
Y1116D02*
D03*
X5205Y1029D02*
D03*
Y1072D02*
D03*
Y1116D02*
D03*
X1298Y1028D02*
D03*
Y985D02*
D03*
Y941D02*
D03*
X1255Y1028D02*
D03*
Y985D02*
D03*
Y941D02*
D03*
X1212Y1028D02*
D03*
Y985D02*
D03*
Y941D02*
D03*
D128*
X449Y953D02*
D03*
Y613D02*
D03*
D129*
X660Y953D02*
D03*
Y613D02*
D03*
D130*
X4214Y571D02*
D03*
X4213Y611D02*
D03*
X4195Y590D02*
D03*
X4180Y610D02*
D03*
Y570D02*
D03*
X3900Y887D02*
D03*
X3240Y748D02*
D03*
X4171Y801D02*
D03*
X4106Y649D02*
D03*
X4055Y705D02*
D03*
X4640Y1004D02*
D03*
X4610D02*
D03*
X4575Y1004D02*
D03*
X4406Y1004D02*
D03*
X4375D02*
D03*
X4435D02*
D03*
X5215Y1210D02*
D03*
X5165D02*
D03*
X5115Y1210D02*
D03*
X5005Y778D02*
D03*
X5005Y922D02*
D03*
X4780Y934D02*
D03*
X3727Y915D02*
D03*
X3497Y630D02*
D03*
X3727Y779D02*
D03*
X3680D02*
D03*
X3655Y726D02*
D03*
X3695Y596D02*
D03*
X3769D02*
D03*
X3878Y589D02*
D03*
X3837D02*
D03*
X4960Y433D02*
D03*
X4886Y457D02*
D03*
X4806D02*
D03*
X4726D02*
D03*
X4646D02*
D03*
X4566D02*
D03*
X4486D02*
D03*
X4406D02*
D03*
X4326D02*
D03*
X4467Y1078D02*
D03*
X4970Y1217D02*
D03*
X4896Y1209D02*
D03*
X4816Y1209D02*
D03*
X4736D02*
D03*
X4656D02*
D03*
X4576Y1209D02*
D03*
X4496D02*
D03*
X4416D02*
D03*
X4336D02*
D03*
X4256D02*
D03*
X4180Y1209D02*
D03*
X4065Y1205D02*
D03*
X4006Y1215D02*
D03*
X3730Y1140D02*
D03*
X3665Y1141D02*
D03*
X3602Y1215D02*
D03*
X3549Y893D02*
D03*
X3548Y954D02*
D03*
Y1022D02*
D03*
Y1085D02*
D03*
X1395Y915D02*
D03*
X3440Y738D02*
D03*
X4330Y1058D02*
D03*
X3497Y676D02*
D03*
X3556Y803D02*
D03*
X3555Y740D02*
D03*
X3890Y825D02*
D03*
X3845Y790D02*
D03*
X3499Y803D02*
D03*
X3953Y697D02*
D03*
X3760Y790D02*
D03*
X4295Y990D02*
D03*
X4125D02*
D03*
X4324Y645D02*
D03*
Y922D02*
D03*
X4215Y1009D02*
D03*
X4176Y872D02*
D03*
X4195Y1092D02*
D03*
X4215Y920D02*
D03*
Y890D02*
D03*
X3954Y1152D02*
D03*
X3935Y1028D02*
D03*
X3795Y920D02*
D03*
X3792Y968D02*
D03*
X4135Y802D02*
D03*
X4180Y737D02*
D03*
X4140Y754D02*
D03*
X4119Y691D02*
D03*
X3549Y1150D02*
D03*
X3727Y967D02*
D03*
X4080Y705D02*
D03*
X4170Y840D02*
D03*
X4190Y672D02*
D03*
X3920Y748D02*
D03*
X3915Y860D02*
D03*
X3601Y954D02*
D03*
Y893D02*
D03*
X3880Y1100D02*
D03*
X4135Y922D02*
D03*
X3727Y814D02*
D03*
X4970Y1163D02*
D03*
X5279Y900D02*
D03*
X5390Y904D02*
D03*
Y745D02*
D03*
X4160Y510D02*
D03*
X4960Y485D02*
D03*
X1584Y819D02*
D03*
X555Y767D02*
D03*
X605Y1155D02*
D03*
X948Y1074D02*
D03*
X774Y1152D02*
D03*
X824Y1151D02*
D03*
X705Y842D02*
D03*
X716Y822D02*
D03*
X595Y787D02*
D03*
X705Y802D02*
D03*
X652Y665D02*
D03*
X575Y801D02*
D03*
X835Y736D02*
D03*
X845Y828D02*
D03*
X885Y829D02*
D03*
X2329Y577D02*
D03*
X812Y687D02*
D03*
X2435Y1157D02*
D03*
X1021Y762D02*
D03*
X1041Y762D02*
D03*
X1061Y762D02*
D03*
X1041Y801D02*
D03*
Y782D02*
D03*
X1061Y821D02*
D03*
X1021Y801D02*
D03*
X1046Y691D02*
D03*
X956Y721D02*
D03*
X1002Y801D02*
D03*
X982D02*
D03*
X1002Y821D02*
D03*
X1021Y866D02*
D03*
X915Y901D02*
D03*
X883Y801D02*
D03*
X982Y762D02*
D03*
X917Y782D02*
D03*
X982Y721D02*
D03*
X840Y940D02*
D03*
X800Y980D02*
D03*
X1097Y801D02*
D03*
X927Y736D02*
D03*
X878Y1028D02*
D03*
Y1092D02*
D03*
X824Y1092D02*
D03*
X1052Y940D02*
D03*
X1008Y941D02*
D03*
X1225Y828D02*
D03*
X1224Y792D02*
D03*
X1456Y605D02*
D03*
X1428Y726D02*
D03*
X2876Y910D02*
D03*
X2795Y601D02*
D03*
X2637Y586D02*
D03*
X1205Y1165D02*
D03*
X1160D02*
D03*
X1578Y1169D02*
D03*
X1533D02*
D03*
X1488D02*
D03*
X1559Y1070D02*
D03*
X1556Y737D02*
D03*
X1511D02*
D03*
X1390Y952D02*
D03*
Y886D02*
D03*
X1754Y709D02*
D03*
X1635Y819D02*
D03*
X1272Y1122D02*
D03*
X1235Y1106D02*
D03*
X1635Y1070D02*
D03*
X1752Y922D02*
D03*
X1507Y838D02*
D03*
X1921Y952D02*
D03*
Y1000D02*
D03*
X1482Y838D02*
D03*
X1456D02*
D03*
X1160Y852D02*
D03*
Y801D02*
D03*
Y754D02*
D03*
X1002Y640D02*
D03*
X3240Y829D02*
D03*
Y909D02*
D03*
X1456Y1069D02*
D03*
X1431D02*
D03*
X1584Y1022D02*
D03*
X1610D02*
D03*
X1906Y1026D02*
D03*
X780Y785D02*
D03*
X574Y586D02*
D03*
D131*
X2580Y510D02*
D03*
X2213Y1115D02*
D03*
X1109Y710D02*
D03*
X1318Y828D02*
D03*
X1237Y683D02*
D03*
M02*
