G04*
G04 #@! TF.GenerationSoftware,Altium Limited,Altium Designer,19.0.15 (446)*
G04*
G04 Layer_Physical_Order=1*
G04 Layer_Color=794757*
%FSLAX23Y23*%
%MOIN*%
G70*
G01*
G75*
%ADD15C,0.010*%
%ADD18O,0.018X0.055*%
%ADD19O,0.008X0.028*%
%ADD20O,0.028X0.008*%
%ADD21R,0.118X0.118*%
%ADD22C,0.010*%
%ADD23R,0.037X0.026*%
%ADD24R,0.041X0.024*%
%ADD25R,0.045X0.053*%
%ADD26R,0.039X0.035*%
%ADD27R,0.037X0.033*%
%ADD28R,0.030X0.024*%
%ADD29R,0.025X0.024*%
%ADD30R,0.055X0.051*%
%ADD31O,0.055X0.020*%
%ADD32O,0.039X0.020*%
%ADD33R,0.096X0.100*%
%ADD34R,0.035X0.039*%
%ADD35R,0.033X0.037*%
%ADD36O,0.020X0.055*%
%ADD37O,0.020X0.039*%
%ADD38R,0.047X0.065*%
%ADD39R,0.100X0.096*%
%ADD40R,0.197X0.177*%
%ADD41R,0.024X0.030*%
%ADD42R,0.016X0.028*%
%ADD43R,0.028X0.016*%
%ADD44R,0.045X0.098*%
%ADD45R,0.051X0.071*%
%ADD46R,0.059X0.157*%
%ADD47R,0.096X0.085*%
%ADD48R,0.035X0.031*%
%ADD49R,0.024X0.025*%
%ADD50R,0.047X0.047*%
%ADD51R,0.047X0.047*%
%ADD52R,0.053X0.045*%
%ADD53O,0.012X0.037*%
%ADD54O,0.037X0.012*%
%ADD55R,0.132X0.132*%
%ADD56R,0.028X0.012*%
%ADD57R,0.028X0.039*%
%ADD58R,0.177X0.102*%
%ADD59R,0.085X0.096*%
%ADD60R,0.037X0.035*%
%ADD108C,0.033*%
%ADD109C,0.094*%
%ADD115C,0.031*%
%ADD116C,0.050*%
%ADD117C,0.015*%
%ADD118C,0.060*%
%ADD119C,0.020*%
%ADD120C,0.030*%
%ADD121C,0.040*%
%ADD122C,0.070*%
%ADD123C,0.025*%
%ADD124C,0.035*%
%ADD125C,0.060*%
%ADD126C,0.118*%
%ADD127C,0.020*%
%ADD128O,0.102X0.043*%
%ADD129O,0.083X0.043*%
%ADD130C,0.016*%
%ADD131C,0.050*%
G36*
X5223Y1019D02*
X5223Y1018D01*
X5223Y1015D01*
X5224Y1013D01*
X5226Y1010D01*
X5227Y1009D01*
Y998D01*
X5053D01*
Y1009D01*
X5053D01*
X5054Y1010D01*
X5056Y1013D01*
X5057Y1015D01*
X5057Y1018D01*
X5057Y1019D01*
Y1139D01*
X5223D01*
Y1019D01*
D02*
G37*
G36*
X4918Y780D02*
X4918Y779D01*
X4918Y776D01*
X4919Y774D01*
X4921Y771D01*
X4922Y771D01*
Y759D01*
X4748D01*
Y771D01*
X4748D01*
X4749Y771D01*
X4751Y774D01*
X4752Y776D01*
X4752Y779D01*
X4752Y780D01*
Y900D01*
X4918D01*
Y780D01*
D02*
G37*
G36*
X5110Y911D02*
X5113Y909D01*
X5115Y908D01*
X5118Y908D01*
X5119Y908D01*
X5239D01*
Y742D01*
X5119D01*
X5118Y742D01*
X5115Y742D01*
X5113Y741D01*
X5110Y739D01*
X5109Y738D01*
X5098Y738D01*
Y912D01*
X5109D01*
X5110Y911D01*
D02*
G37*
G36*
X5250Y473D02*
X5238D01*
X5237Y474D01*
X5235Y476D01*
X5233Y477D01*
X5230Y477D01*
X5229Y477D01*
X5109D01*
Y643D01*
X5229D01*
X5230Y643D01*
X5233Y643D01*
X5235Y644D01*
X5237Y646D01*
X5238Y647D01*
X5250D01*
Y473D01*
D02*
G37*
D15*
X3714Y664D02*
X3770D01*
X3706Y656D02*
X3714Y664D01*
X3840Y707D02*
X3911Y778D01*
X3807Y707D02*
X3840D01*
X3800Y700D02*
X3807Y707D01*
X665Y1136D02*
X701Y1172D01*
X665Y1118D02*
Y1136D01*
X710Y1172D02*
X752D01*
X701D02*
X710D01*
X752D02*
X772Y1151D01*
X4375Y698D02*
X4384D01*
X4345Y728D02*
X4375Y698D01*
X4883Y521D02*
X4886Y518D01*
X3497Y676D02*
X3544D01*
X3498Y672D02*
X3499Y672D01*
X3568Y562D02*
X3595Y535D01*
X3599Y531D01*
X3792Y1003D02*
Y1027D01*
X3760Y971D02*
X3792Y1003D01*
X3760Y790D02*
Y971D01*
X4295Y577D02*
Y990D01*
X4171Y453D02*
X4295Y577D01*
X4160Y510D02*
Y758D01*
X3846Y928D02*
X3856Y918D01*
X3869D02*
X3878Y909D01*
Y873D02*
Y909D01*
Y873D02*
X3911Y841D01*
X3946D01*
X3923Y887D02*
X3938Y872D01*
X3900Y887D02*
X3923D01*
X3666Y967D02*
X3727D01*
X3893Y921D02*
X3926D01*
X3845Y968D02*
X3893Y921D01*
X3950Y897D02*
X3970D01*
X3926Y921D02*
X3950Y897D01*
X3949Y920D02*
X3982D01*
X3933Y935D02*
X3949Y920D01*
X3902Y935D02*
X3933D01*
X3830Y1007D02*
X3902Y935D01*
X3812Y1128D02*
Y1152D01*
X3938Y950D02*
X3955Y934D01*
X3913Y950D02*
X3938D01*
X3955Y934D02*
X3988D01*
X3846Y1017D02*
X3913Y950D01*
X3238Y748D02*
X3240D01*
X3237Y750D02*
X3238Y748D01*
X4960Y485D02*
X5020D01*
X4171Y769D02*
Y801D01*
X4160Y758D02*
X4171Y769D01*
X4147Y825D02*
X4171Y801D01*
X4105Y825D02*
X4147D01*
X4194Y590D02*
Y594D01*
X4106Y649D02*
Y670D01*
X4089Y686D02*
X4106Y670D01*
X4047Y686D02*
X4089D01*
X4035Y711D02*
X4048Y724D01*
Y736D01*
X4049Y737D01*
X4035Y698D02*
X4047Y686D01*
X4035Y698D02*
Y711D01*
X4052Y669D02*
X4055Y672D01*
X4033Y666D02*
Y680D01*
Y666D02*
X4039Y661D01*
X4017Y696D02*
X4033Y680D01*
X4017Y696D02*
Y737D01*
X4039Y661D02*
X4060Y661D01*
X4055Y705D02*
Y707D01*
X4065Y716D01*
X4760Y954D02*
X4780Y934D01*
X4760Y954D02*
Y981D01*
X3617Y742D02*
X3630Y755D01*
X3617Y703D02*
Y742D01*
X3630Y755D02*
X3763D01*
X4006Y809D02*
X4017Y798D01*
X4006Y809D02*
Y817D01*
X4017Y798D02*
X4025D01*
X1294Y1024D02*
Y1079D01*
X676Y901D02*
Y953D01*
X1208Y945D02*
X1212Y941D01*
X1233Y679D02*
X1237Y675D01*
X835Y736D02*
X865D01*
X676Y613D02*
Y664D01*
X629D02*
X676D01*
X3846Y858D02*
X3854Y850D01*
X3380Y985D02*
X3445Y920D01*
X3551Y803D02*
Y824D01*
X3445Y866D02*
Y920D01*
Y866D02*
X3473Y838D01*
X3551Y739D02*
Y762D01*
X3400Y880D02*
Y893D01*
X1582Y680D02*
X1590Y672D01*
X1577Y685D02*
X1582Y680D01*
X1570Y677D02*
X1577Y685D01*
X1570Y668D02*
Y677D01*
X1525Y668D02*
X1570D01*
X765Y985D02*
X802Y1022D01*
X725Y985D02*
X765D01*
X687Y1022D02*
X725Y985D01*
X663Y1022D02*
X687D01*
X802Y1022D02*
X823D01*
Y992D02*
Y1022D01*
X745Y1076D02*
X761Y1092D01*
X745Y1032D02*
Y1076D01*
X761Y1092D02*
X763D01*
X894Y812D02*
X915D01*
Y810D02*
X953D01*
X617Y1004D02*
Y1022D01*
Y1004D02*
X632Y990D01*
X617Y1022D02*
Y1047D01*
X632Y990D02*
X700D01*
X717Y973D01*
Y950D02*
Y973D01*
X714Y1092D02*
X717D01*
X695Y1072D02*
X714Y1092D01*
X665Y1072D02*
X695D01*
X617Y1047D02*
X638Y1068D01*
X661D01*
X665Y1072D01*
X726Y941D02*
X803D01*
X717Y950D02*
X726Y941D01*
X1517Y676D02*
X1525Y668D01*
X1381Y676D02*
X1517D01*
X1377Y909D02*
Y939D01*
X1357Y888D02*
X1377Y909D01*
X1357Y700D02*
Y888D01*
X1377Y939D02*
X1390Y952D01*
X1357Y700D02*
X1381Y676D01*
X1395Y915D02*
X1423D01*
X1482Y857D01*
Y838D02*
Y857D01*
X3545Y767D02*
X3551Y762D01*
X3461Y767D02*
X3545D01*
X3473Y838D02*
X3537D01*
X3551Y824D01*
X3455Y773D02*
X3461Y767D01*
X3455Y773D02*
Y825D01*
X3400Y880D02*
X3455Y825D01*
X3492Y738D02*
X3496Y742D01*
X3440Y738D02*
X3492D01*
X4486Y520D02*
X4486Y521D01*
X5256Y635D02*
X5260Y639D01*
X4345Y728D02*
Y1043D01*
X4330Y1058D02*
X4345Y1043D01*
X3475Y703D02*
X3617D01*
X3453Y681D02*
X3475Y703D01*
X3018Y681D02*
X3453D01*
X3496Y742D02*
X3499Y739D01*
X3865Y850D02*
X3890Y825D01*
X3946D01*
X3854Y850D02*
X3865D01*
X3949Y601D02*
X3949Y602D01*
Y661D01*
X3949Y601D02*
X3950Y600D01*
X3953Y697D02*
X3967D01*
X3963Y717D02*
X3970Y724D01*
X3893Y717D02*
X3963D01*
X4002Y656D02*
Y737D01*
X3967Y697D02*
X3986Y716D01*
Y737D01*
X4060Y532D02*
Y609D01*
X3879Y702D02*
X3893Y717D01*
X3879Y667D02*
Y702D01*
X3911Y778D02*
X3946D01*
X3770Y670D02*
X3794D01*
X3800Y676D01*
Y700D01*
X3760Y726D02*
X3770Y715D01*
X3763Y755D02*
X3783Y775D01*
X4324Y645D02*
Y922D01*
X4215Y920D02*
Y1009D01*
X3601Y1086D02*
X3602Y1085D01*
X3601Y1086D02*
Y1150D01*
X4160Y856D02*
X4176Y872D01*
X4105Y856D02*
X4160D01*
X4215Y697D02*
Y890D01*
X4190Y672D02*
X4215Y697D01*
X4180Y737D02*
X4195Y752D01*
Y1092D01*
X4075Y1152D02*
X4076D01*
X4065D02*
X4075D01*
X4006D02*
X4065D01*
Y897D02*
Y1152D01*
X4075Y1153D02*
X4076Y1152D01*
X4075Y1153D02*
X4075Y1153D01*
Y1152D02*
Y1153D01*
X4006Y1152D02*
X4007Y1151D01*
Y1090D02*
Y1151D01*
X3918Y1100D02*
Y1143D01*
X3910Y1151D02*
X3918Y1143D01*
X3880Y1151D02*
X3910D01*
X3928Y1090D02*
X3953D01*
X3918Y1100D02*
X3928Y1090D01*
X3953Y1060D02*
Y1069D01*
Y1060D02*
X3958Y1055D01*
X4031D01*
X4049Y1037D01*
Y897D02*
Y1037D01*
X3792Y968D02*
X3845D01*
X3617Y688D02*
Y703D01*
X3641Y664D02*
X3654D01*
X3617Y688D02*
X3641Y664D01*
X3006Y693D02*
X3018Y681D01*
X3006Y693D02*
Y750D01*
X4127Y810D02*
X4135Y802D01*
X4106Y810D02*
X4127D01*
X4105Y840D02*
X4170D01*
X4170Y840D01*
X4140Y754D02*
Y765D01*
X4127Y778D02*
X4140Y765D01*
X4105Y778D02*
X4127D01*
X4105Y705D02*
X4119Y691D01*
X4105Y705D02*
Y762D01*
X3602Y1085D02*
X3658D01*
X3730Y1078D02*
X3794D01*
X3879Y667D02*
X3883Y671D01*
X3730Y1027D02*
X3792D01*
X3792Y1027D01*
X3794D01*
X3970Y724D02*
Y737D01*
X3834Y721D02*
X3907Y794D01*
X3770Y721D02*
X3834D01*
X3548Y1151D02*
X3549Y1150D01*
X3548Y1151D02*
Y1215D01*
X3726Y862D02*
X3726Y861D01*
Y815D02*
Y861D01*
Y815D02*
X3727Y814D01*
X3665Y1027D02*
X3730D01*
X3660Y1022D02*
X3665Y1027D01*
X3600Y1022D02*
X3660D01*
X3665Y1078D02*
X3730D01*
X3794D02*
X3794Y1079D01*
X3658Y1085D02*
X3665Y1078D01*
X3810Y1152D02*
X3812D01*
X3810Y1203D02*
X3810Y1203D01*
X4080Y705D02*
X4080Y705D01*
X4127Y873D02*
X4135Y881D01*
X4106Y873D02*
X4127D01*
X3920Y748D02*
X3934Y762D01*
X3915Y860D02*
X3929D01*
X3933Y856D02*
X3946D01*
X3929Y860D02*
X3933Y856D01*
X3846Y1017D02*
Y1094D01*
X3938Y872D02*
X3946D01*
X3988Y934D02*
X4001Y921D01*
Y898D02*
Y921D01*
Y898D02*
X4002Y897D01*
X3970Y897D02*
X3970Y897D01*
X3960Y948D02*
X4007D01*
X3936Y973D02*
X3960Y948D01*
X4007D02*
X4017Y938D01*
X3982Y920D02*
X3986Y915D01*
Y897D02*
Y915D01*
X3680Y862D02*
X3680Y862D01*
X3680Y814D02*
Y862D01*
X3680Y814D02*
X3680Y814D01*
X4065Y716D02*
Y737D01*
X4135Y881D02*
Y922D01*
X4105Y872D02*
X4106Y873D01*
X3934Y762D02*
X3946D01*
X3895Y1215D02*
X3953D01*
X3880Y1199D02*
X3895Y1215D01*
X3880Y1151D02*
Y1199D01*
X3830Y1007D02*
Y1072D01*
X3856Y918D02*
X3869D01*
X3824Y1078D02*
X3830Y1072D01*
X3795Y1078D02*
X3824D01*
X3794Y1079D02*
X3795Y1078D01*
X3812Y1128D02*
X3846Y1094D01*
X3665Y1192D02*
X3795D01*
X4017Y897D02*
Y938D01*
X4033Y897D02*
Y965D01*
X4025Y973D02*
X4033Y965D01*
X4001Y973D02*
X4025D01*
X4089Y924D02*
X4107D01*
X4080Y915D02*
X4089Y924D01*
X4080Y897D02*
Y915D01*
X4107Y924D02*
X4125Y942D01*
Y990D01*
X3706Y726D02*
X3760D01*
X3907Y794D02*
X3946D01*
X3880Y788D02*
X3901Y809D01*
X3846Y788D02*
X3880D01*
X3901Y809D02*
X3946D01*
X4105Y841D02*
X4105Y840D01*
X4080Y705D02*
Y737D01*
X4080Y737D01*
X5279Y900D02*
X5320D01*
X5321Y899D01*
X5252Y635D02*
X5256D01*
X4025Y798D02*
X4030Y794D01*
X4105D01*
X716Y822D02*
X745D01*
X780Y829D02*
X805D01*
X777Y828D02*
X780D01*
X705Y801D02*
X750D01*
X722Y742D02*
X778D01*
X676Y762D02*
X702D01*
X733Y687D02*
X766D01*
X722Y698D02*
X733Y687D01*
X722Y698D02*
Y742D01*
X555Y767D02*
X557D01*
X571Y753D02*
X625D01*
X557Y767D02*
X571Y753D01*
X1026Y1037D02*
X1086D01*
X1093Y1044D01*
X1161D01*
X772Y1151D02*
X772Y1151D01*
X1100Y992D02*
X1132Y1024D01*
X962Y821D02*
Y890D01*
X929Y924D02*
X962Y890D01*
X891Y924D02*
X929D01*
X823Y992D02*
X891Y924D01*
X676Y802D02*
X705D01*
X625Y661D02*
X629Y664D01*
X629Y901D02*
X676D01*
X624Y774D02*
X625Y773D01*
X660Y953D02*
X676D01*
X599Y774D02*
X624D01*
X625Y792D02*
X644D01*
X586Y812D02*
X625D01*
X660Y613D02*
X676D01*
X644Y792D02*
X650Y787D01*
X625Y812D02*
X625Y812D01*
X595Y777D02*
Y787D01*
X650Y767D02*
Y787D01*
X625Y905D02*
X629Y901D01*
X655Y763D02*
X676D01*
Y822D02*
X716D01*
X650Y767D02*
X655Y763D01*
X575Y801D02*
X586Y812D01*
X595Y777D02*
X599Y774D01*
X806Y736D02*
X835D01*
X721Y917D02*
X767D01*
X767Y917D01*
X705Y901D02*
X721Y917D01*
X850Y779D02*
X865Y764D01*
X831Y779D02*
X850D01*
X865Y736D02*
Y764D01*
Y736D02*
Y736D01*
X778Y736D02*
Y742D01*
X805Y829D02*
X828Y807D01*
X780Y828D02*
Y829D01*
X828Y807D02*
X831D01*
X780Y829D02*
Y831D01*
X750Y801D02*
X777Y828D01*
X752Y867D02*
X767Y882D01*
X752Y829D02*
Y867D01*
X745Y822D02*
X752Y829D01*
X803Y871D02*
X845Y828D01*
X803Y871D02*
Y941D01*
X885Y829D02*
Y847D01*
X840Y892D02*
X885Y847D01*
X840Y892D02*
Y940D01*
X866Y794D02*
Y834D01*
X820Y880D02*
X866Y834D01*
Y794D02*
X878Y782D01*
X917D01*
X702Y762D02*
X722Y742D01*
X1912Y1165D02*
Y1168D01*
Y1159D02*
Y1165D01*
X715Y659D02*
X840D01*
X706Y668D02*
X715Y659D01*
X706Y668D02*
Y731D01*
X695Y741D02*
X706Y731D01*
X840Y659D02*
X872Y691D01*
X1654Y1169D02*
X1730Y1093D01*
X2146Y1134D02*
Y1159D01*
X2084Y1208D02*
X2097D01*
X1912Y1159D02*
X1937Y1135D01*
X2082Y960D02*
X2083Y959D01*
X2082Y960D02*
Y1135D01*
Y1209D02*
X2084Y1208D01*
X1937Y1135D02*
X2082D01*
X1730Y979D02*
Y1093D01*
Y979D02*
X1752Y957D01*
X1578Y1169D02*
X1654D01*
X2213Y1087D02*
Y1115D01*
X1001Y706D02*
X1017Y722D01*
X1052D01*
X1074Y782D02*
X1102Y754D01*
X1061Y782D02*
X1074D01*
X1061Y821D02*
X1061Y821D01*
X1052Y722D02*
X1061Y731D01*
X1021Y821D02*
Y866D01*
X956Y736D02*
X962Y742D01*
X956Y721D02*
Y736D01*
X1021Y866D02*
Y872D01*
X1002Y640D02*
Y643D01*
X1000Y641D02*
X1002Y643D01*
X915Y845D02*
Y901D01*
X953Y810D02*
X957Y807D01*
X957D01*
X962Y801D01*
X962D01*
X910Y850D02*
X915Y845D01*
X883Y801D02*
X894Y812D01*
X800Y980D02*
X820Y960D01*
Y880D02*
Y960D01*
X982Y721D02*
Y742D01*
X1007Y887D02*
Y901D01*
X992Y872D02*
X1007Y887D01*
X1001Y691D02*
Y706D01*
X1076Y852D02*
X1125D01*
X1061Y837D02*
X1076Y852D01*
X1061Y821D02*
Y837D01*
X1021Y872D02*
X1052Y903D01*
X992Y851D02*
Y872D01*
X1097Y801D02*
X1125D01*
X982Y841D02*
X992Y851D01*
X982Y821D02*
Y841D01*
X953Y762D02*
X962D01*
X927Y736D02*
X953Y762D01*
X946Y782D02*
X962D01*
X900Y736D02*
X946Y782D01*
X824Y1092D02*
X824Y1092D01*
X763Y1092D02*
X824D01*
X1007Y940D02*
X1008Y941D01*
X1275Y791D02*
X1288Y778D01*
Y679D02*
Y778D01*
Y679D02*
X1353Y614D01*
X1298Y600D02*
Y636D01*
X1273Y661D02*
X1298Y636D01*
X1237Y654D02*
Y675D01*
X1218Y635D02*
X1237Y654D01*
X1218Y606D02*
Y635D01*
X1193Y672D02*
X1200Y679D01*
X1379Y771D02*
X1428D01*
X1379D02*
X1380Y772D01*
X1298Y1028D02*
X1314Y1044D01*
X1294Y1024D02*
X1298Y1028D01*
X1314Y1044D02*
Y1079D01*
X1275Y1004D02*
X1294Y1024D01*
X1255Y985D02*
X1275Y1004D01*
Y1079D01*
X1196Y925D02*
X1212Y941D01*
X1161Y945D02*
X1208D01*
X1196Y890D02*
Y925D01*
X1533Y1169D02*
X1578D01*
X1488D02*
X1533D01*
X1610Y838D02*
Y929D01*
X1610Y838D02*
X1610Y838D01*
X1588Y952D02*
X1610Y929D01*
X1390Y952D02*
X1588D01*
X1390Y886D02*
X1428D01*
X1456Y858D01*
Y838D02*
Y858D01*
X1235Y1106D02*
X1235Y1106D01*
Y1079D02*
Y1106D01*
Y1079D02*
X1235Y1079D01*
X1255Y1106D02*
X1272Y1122D01*
X1255Y1079D02*
Y1106D01*
X1255Y1079D02*
X1255Y1079D01*
X1921Y952D02*
X1921D01*
X1940Y933D01*
X1940D01*
X1921Y1000D02*
X1922D01*
X1939Y983D01*
X1940D01*
X1890Y1010D02*
X1906Y1026D01*
X1890Y983D02*
Y1010D01*
X1160Y801D02*
X1160Y801D01*
X1158Y755D02*
X1160Y754D01*
X1275Y791D02*
Y890D01*
X1255Y783D02*
Y890D01*
X3236Y829D02*
X3236Y829D01*
X3240D01*
X3237Y909D02*
X3240D01*
X3236Y829D02*
X3237Y830D01*
X1132Y1024D02*
X1161D01*
X1255Y783D02*
X1273Y765D01*
Y661D02*
Y765D01*
X1061Y731D02*
Y742D01*
X938Y696D02*
X943Y691D01*
X1102Y754D02*
X1125D01*
X943Y691D02*
X1001D01*
X1456Y1069D02*
Y1070D01*
X1431Y1069D02*
Y1070D01*
X1584Y1022D02*
Y1070D01*
X1610Y1022D02*
X1610Y1022D01*
X1482Y1024D02*
Y1070D01*
X1462Y1004D02*
X1482Y1024D01*
X1610Y1022D02*
Y1070D01*
X1610Y1070D02*
X1610Y1070D01*
X3237Y910D02*
X3237Y909D01*
X1430Y773D02*
Y836D01*
X1427Y771D02*
X1429Y773D01*
X1468Y985D02*
X1507Y1023D01*
X704Y801D02*
X705Y801D01*
X872Y691D02*
X897D01*
X962Y762D02*
X962Y762D01*
X1216Y1079D02*
Y1091D01*
X1196Y1079D02*
Y1092D01*
X3075Y910D02*
X3075Y910D01*
X1429Y836D02*
X1431Y838D01*
X1350Y1004D02*
X1462D01*
X1507Y1023D02*
Y1070D01*
X1350Y985D02*
X1468D01*
X1350D02*
X1350Y985D01*
X676Y901D02*
X705D01*
X822Y641D02*
X897D01*
X752Y571D02*
X822Y641D01*
X589Y571D02*
X752D01*
X574Y586D02*
X589Y571D01*
X676Y741D02*
X695D01*
X676Y742D02*
X676Y741D01*
X982Y821D02*
X982Y821D01*
X943Y641D02*
X1000D01*
X1045D02*
X1046Y642D01*
Y691D01*
X1046Y691D01*
D18*
X1661Y1070D02*
D03*
X1635D02*
D03*
X1610D02*
D03*
X1584D02*
D03*
X1559D02*
D03*
X1533D02*
D03*
X1507D02*
D03*
X1482D02*
D03*
X1456D02*
D03*
X1431D02*
D03*
X1661Y838D02*
D03*
X1635D02*
D03*
X1610D02*
D03*
X1584D02*
D03*
X1559D02*
D03*
X1533D02*
D03*
X1507D02*
D03*
X1482D02*
D03*
X1456D02*
D03*
X1431D02*
D03*
D19*
X4080Y897D02*
D03*
X4065D02*
D03*
X4049D02*
D03*
X4033D02*
D03*
X4017D02*
D03*
X4002D02*
D03*
X3986D02*
D03*
X3970D02*
D03*
Y737D02*
D03*
X3986D02*
D03*
X4002D02*
D03*
X4017D02*
D03*
X4033D02*
D03*
X4049D02*
D03*
X4065D02*
D03*
X4080D02*
D03*
D20*
X3946Y872D02*
D03*
Y856D02*
D03*
Y841D02*
D03*
Y825D02*
D03*
Y809D02*
D03*
Y794D02*
D03*
Y778D02*
D03*
Y762D02*
D03*
X4105D02*
D03*
Y778D02*
D03*
Y794D02*
D03*
Y809D02*
D03*
Y825D02*
D03*
Y841D02*
D03*
Y856D02*
D03*
Y872D02*
D03*
D21*
X4025Y817D02*
D03*
D22*
X1061Y742D02*
D03*
X1041D02*
D03*
X1021D02*
D03*
X1002D02*
D03*
X982D02*
D03*
X962D02*
D03*
X1061Y762D02*
D03*
X1041D02*
D03*
X1021D02*
D03*
X1002D02*
D03*
X982D02*
D03*
X962D02*
D03*
X1061Y782D02*
D03*
X1041D02*
D03*
X1021D02*
D03*
X1002D02*
D03*
X982D02*
D03*
X962D02*
D03*
X1061Y801D02*
D03*
X1041D02*
D03*
X1021D02*
D03*
X1002D02*
D03*
X982D02*
D03*
X962D02*
D03*
X1061Y821D02*
D03*
X1041D02*
D03*
X1021D02*
D03*
X1002D02*
D03*
X982D02*
D03*
X962D02*
D03*
D23*
X2439Y615D02*
D03*
Y576D02*
D03*
Y537D02*
D03*
X2331D02*
D03*
Y576D02*
D03*
Y615D02*
D03*
D24*
X1978Y1172D02*
D03*
X2082Y1209D02*
D03*
Y1135D02*
D03*
D25*
X4194Y590D02*
D03*
X4126D02*
D03*
X4171Y453D02*
D03*
X4239D02*
D03*
X3006Y750D02*
D03*
X3075D02*
D03*
X3006Y910D02*
D03*
X3075D02*
D03*
X3006Y830D02*
D03*
X3075D02*
D03*
D26*
X3727Y915D02*
D03*
Y968D02*
D03*
X5005Y922D02*
D03*
Y868D02*
D03*
X4960Y433D02*
D03*
Y487D02*
D03*
X4065Y1207D02*
D03*
Y1153D02*
D03*
X4970Y1217D02*
D03*
Y1163D02*
D03*
X3730Y1140D02*
D03*
Y1193D02*
D03*
X5390Y742D02*
D03*
Y688D02*
D03*
Y908D02*
D03*
Y961D02*
D03*
D27*
X3666Y916D02*
D03*
Y967D02*
D03*
X3936Y976D02*
D03*
Y1027D02*
D03*
X4060Y661D02*
D03*
Y609D02*
D03*
X3770Y721D02*
D03*
Y670D02*
D03*
X3880Y1151D02*
D03*
Y1099D02*
D03*
X3795Y1192D02*
D03*
Y1141D02*
D03*
X3665Y1141D02*
D03*
Y1192D02*
D03*
Y1078D02*
D03*
Y1027D02*
D03*
X3730Y1078D02*
D03*
Y1027D02*
D03*
X3794Y1079D02*
D03*
Y1027D02*
D03*
X4001Y976D02*
D03*
Y1027D02*
D03*
X1718Y1163D02*
D03*
Y1215D02*
D03*
D28*
X3680Y862D02*
D03*
X3725D02*
D03*
X3833Y667D02*
D03*
X3879D02*
D03*
X766Y687D02*
D03*
X812D02*
D03*
X1100Y992D02*
D03*
X1054D02*
D03*
X663Y1022D02*
D03*
X617D02*
D03*
X717Y1092D02*
D03*
X763D02*
D03*
X1000Y641D02*
D03*
X1045D02*
D03*
X1001Y691D02*
D03*
X1046D02*
D03*
X897Y641D02*
D03*
X943D02*
D03*
X897Y691D02*
D03*
X943D02*
D03*
D29*
X3680Y814D02*
D03*
Y779D02*
D03*
X3878Y624D02*
D03*
Y589D02*
D03*
X5005Y812D02*
D03*
Y778D02*
D03*
X3837Y624D02*
D03*
Y589D02*
D03*
X3727Y814D02*
D03*
Y779D02*
D03*
X1752Y957D02*
D03*
Y922D02*
D03*
X1224Y793D02*
D03*
Y828D02*
D03*
X1052Y940D02*
D03*
Y905D02*
D03*
X767Y917D02*
D03*
Y882D02*
D03*
X1556Y737D02*
D03*
Y771D02*
D03*
X1511Y737D02*
D03*
Y771D02*
D03*
X1578Y1169D02*
D03*
Y1134D02*
D03*
X1533Y1169D02*
D03*
Y1134D02*
D03*
X1488Y1169D02*
D03*
Y1134D02*
D03*
X1205Y1165D02*
D03*
Y1130D02*
D03*
X1160Y1165D02*
D03*
Y1130D02*
D03*
X1110Y934D02*
D03*
Y899D02*
D03*
X915Y811D02*
D03*
Y845D02*
D03*
X1007Y905D02*
D03*
Y940D02*
D03*
X2265Y650D02*
D03*
Y685D02*
D03*
D30*
X4125Y1053D02*
D03*
Y990D02*
D03*
X3769Y596D02*
D03*
Y534D02*
D03*
X3695Y596D02*
D03*
Y534D02*
D03*
X4656Y1209D02*
D03*
Y1146D02*
D03*
X4736Y1209D02*
D03*
Y1146D02*
D03*
X4816Y1209D02*
D03*
Y1146D02*
D03*
X4896Y1209D02*
D03*
Y1146D02*
D03*
X4176Y1209D02*
D03*
Y1146D02*
D03*
X4256Y1209D02*
D03*
Y1146D02*
D03*
X4336Y1209D02*
D03*
Y1146D02*
D03*
X4416Y1209D02*
D03*
Y1146D02*
D03*
X4496Y1209D02*
D03*
Y1146D02*
D03*
X4576Y1209D02*
D03*
Y1146D02*
D03*
X4886Y457D02*
D03*
Y520D02*
D03*
X4806Y457D02*
D03*
Y520D02*
D03*
X4726Y457D02*
D03*
Y520D02*
D03*
X4646Y457D02*
D03*
Y520D02*
D03*
X4566Y457D02*
D03*
Y520D02*
D03*
X4486Y457D02*
D03*
Y520D02*
D03*
X4406Y457D02*
D03*
Y520D02*
D03*
X4326Y457D02*
D03*
Y520D02*
D03*
D31*
X5088Y750D02*
D03*
Y800D02*
D03*
Y850D02*
D03*
Y900D02*
D03*
X5260Y635D02*
D03*
Y585D02*
D03*
Y535D02*
D03*
Y485D02*
D03*
D32*
X5320Y900D02*
D03*
Y850D02*
D03*
Y800D02*
D03*
Y750D02*
D03*
X5028Y485D02*
D03*
Y535D02*
D03*
Y585D02*
D03*
Y635D02*
D03*
D33*
X4605Y736D02*
D03*
Y974D02*
D03*
X4405Y736D02*
D03*
Y974D02*
D03*
D34*
X4467Y1078D02*
D03*
X4413D02*
D03*
X3548Y1085D02*
D03*
X3602D02*
D03*
X3548Y954D02*
D03*
X3602D02*
D03*
Y1215D02*
D03*
X3548D02*
D03*
X3953Y1090D02*
D03*
X4007D02*
D03*
X4006Y1215D02*
D03*
X3953D02*
D03*
X4002Y601D02*
D03*
X3949D02*
D03*
X2435Y1157D02*
D03*
X2381D02*
D03*
D35*
X3549Y893D02*
D03*
X3601D02*
D03*
X3549Y1150D02*
D03*
X3601D02*
D03*
X4001Y661D02*
D03*
X3949D02*
D03*
X3654Y664D02*
D03*
X3706D02*
D03*
X4006Y1152D02*
D03*
X3954D02*
D03*
X3706Y726D02*
D03*
X3655D02*
D03*
X3548Y1022D02*
D03*
X3600D02*
D03*
X3846Y915D02*
D03*
X3794D02*
D03*
X3846Y851D02*
D03*
X3794D02*
D03*
X3846Y788D02*
D03*
X3794D02*
D03*
X772Y1151D02*
D03*
X824D02*
D03*
X824Y1092D02*
D03*
X876D02*
D03*
X825Y1026D02*
D03*
X876D02*
D03*
X3499Y739D02*
D03*
X3551D02*
D03*
X3499Y803D02*
D03*
X3551D02*
D03*
X1754Y709D02*
D03*
X1703D02*
D03*
D36*
X4910Y749D02*
D03*
X4860D02*
D03*
X4810D02*
D03*
X4760D02*
D03*
X5215Y988D02*
D03*
X5165D02*
D03*
X5115D02*
D03*
X5065D02*
D03*
D37*
X4760Y981D02*
D03*
X4810D02*
D03*
X4860D02*
D03*
X4910D02*
D03*
X5065Y1220D02*
D03*
X5115D02*
D03*
X5165D02*
D03*
X5215D02*
D03*
D38*
X4060Y525D02*
D03*
X3950D02*
D03*
X4775Y613D02*
D03*
X4885D02*
D03*
D39*
X3409Y570D02*
D03*
X3171D02*
D03*
D40*
X5690Y618D02*
D03*
Y1032D02*
D03*
D41*
X3544Y676D02*
D03*
Y630D02*
D03*
X3497D02*
D03*
Y676D02*
D03*
X780Y831D02*
D03*
Y785D02*
D03*
X1382Y769D02*
D03*
Y724D02*
D03*
X1431Y769D02*
D03*
Y724D02*
D03*
X665Y1072D02*
D03*
Y1118D02*
D03*
X2265Y595D02*
D03*
Y550D02*
D03*
X2215Y549D02*
D03*
Y594D02*
D03*
D42*
X806Y736D02*
D03*
X778D02*
D03*
D43*
X831Y779D02*
D03*
Y807D02*
D03*
D44*
X562Y1176D02*
D03*
X438D02*
D03*
X1956Y724D02*
D03*
X2080D02*
D03*
D45*
X1798Y1165D02*
D03*
X1912D02*
D03*
X2762Y910D02*
D03*
X2876D02*
D03*
X2637Y586D02*
D03*
X2523D02*
D03*
D46*
X2142Y1115D02*
D03*
X2284D02*
D03*
D47*
X2755Y1170D02*
D03*
X2585D02*
D03*
D48*
X1026Y1037D02*
D03*
X948Y1000D02*
D03*
Y1074D02*
D03*
D49*
X1160Y852D02*
D03*
X1125D02*
D03*
X900Y736D02*
D03*
X865D02*
D03*
X1125Y801D02*
D03*
X1160D02*
D03*
X1125Y754D02*
D03*
X1160D02*
D03*
D50*
X3236Y750D02*
D03*
X3154D02*
D03*
X3237Y910D02*
D03*
X3154D02*
D03*
X3237Y830D02*
D03*
X3154D02*
D03*
D51*
X1455Y606D02*
D03*
Y524D02*
D03*
X1218Y606D02*
D03*
Y524D02*
D03*
D52*
X1375Y600D02*
D03*
Y531D02*
D03*
X1298Y600D02*
D03*
Y531D02*
D03*
D53*
X1314Y1079D02*
D03*
X1294D02*
D03*
X1275D02*
D03*
X1255D02*
D03*
X1235D02*
D03*
X1216D02*
D03*
X1196D02*
D03*
Y890D02*
D03*
X1216D02*
D03*
X1235D02*
D03*
X1255D02*
D03*
X1275D02*
D03*
X1294D02*
D03*
X1314D02*
D03*
D54*
X1161Y1044D02*
D03*
Y1024D02*
D03*
Y1004D02*
D03*
Y985D02*
D03*
Y965D02*
D03*
Y945D02*
D03*
Y925D02*
D03*
X1350D02*
D03*
Y945D02*
D03*
Y965D02*
D03*
Y985D02*
D03*
Y1004D02*
D03*
Y1024D02*
D03*
Y1044D02*
D03*
D55*
X1255Y985D02*
D03*
D56*
X625Y792D02*
D03*
Y871D02*
D03*
Y851D02*
D03*
Y832D02*
D03*
Y812D02*
D03*
Y773D02*
D03*
Y753D02*
D03*
Y733D02*
D03*
Y714D02*
D03*
Y694D02*
D03*
X676Y763D02*
D03*
Y664D02*
D03*
Y684D02*
D03*
Y704D02*
D03*
Y724D02*
D03*
Y743D02*
D03*
Y901D02*
D03*
Y802D02*
D03*
Y822D02*
D03*
Y842D02*
D03*
Y861D02*
D03*
Y881D02*
D03*
D57*
X625Y905D02*
D03*
X625Y661D02*
D03*
D58*
X2500Y1018D02*
D03*
Y703D02*
D03*
D59*
X2795Y601D02*
D03*
Y770D02*
D03*
D60*
X2200Y773D02*
D03*
Y649D02*
D03*
D108*
X2040Y918D02*
D03*
Y998D02*
D03*
X1840Y958D02*
D03*
D109*
Y1058D02*
D03*
X1965D02*
D03*
Y858D02*
D03*
X1840D02*
D03*
D115*
X1990Y983D02*
D03*
X1890Y933D02*
D03*
Y983D02*
D03*
X1940Y933D02*
D03*
X1990D02*
D03*
X1940Y983D02*
D03*
D116*
X1185Y453D02*
X4171Y453D01*
X1091Y547D02*
X1185Y453D01*
X4171Y453D02*
Y453D01*
X4384Y521D02*
Y698D01*
X4326Y521D02*
X4384D01*
X4486D02*
X4646D01*
X4405D02*
X4486D01*
Y611D02*
X4500Y625D01*
X4646Y521D02*
X4728D01*
X4883D01*
X3695Y535D02*
X3769D01*
X3923D01*
X3595D02*
X3695D01*
X4486Y521D02*
Y611D01*
X4195Y590D02*
X4256Y651D01*
X4194Y590D02*
X4195D01*
X4180Y1209D02*
X4896D01*
X5020Y535D02*
X5050D01*
X5020D02*
Y635D01*
X4176Y1209D02*
X4180D01*
X5078Y800D02*
Y811D01*
Y743D02*
Y800D01*
Y811D02*
Y890D01*
X5038Y704D02*
X5078Y743D01*
X4985Y704D02*
X5038D01*
X4950Y669D02*
X4985Y704D01*
X4950Y644D02*
Y669D01*
X4919Y613D02*
X4950Y644D01*
X4241Y470D02*
X4292Y521D01*
X4176Y1146D02*
X4896D01*
X4886Y613D02*
X4919D01*
X4885Y613D02*
X4886Y613D01*
X4775Y530D02*
Y610D01*
X4292Y521D02*
X4323D01*
X4256Y651D02*
Y1146D01*
X4075Y530D02*
X4126Y581D01*
X4326Y520D02*
Y521D01*
X4896Y1209D02*
X4896Y1210D01*
X4896Y1209D02*
X4896Y1209D01*
X4176Y1209D02*
X4176Y1209D01*
X4176Y1146D02*
X4176Y1146D01*
X4896D02*
X4896Y1146D01*
X4323Y521D02*
X4324Y520D01*
X4326D01*
X5076Y459D02*
Y509D01*
X5051Y433D02*
X5076Y459D01*
X4960Y433D02*
X5051D01*
X5050Y535D02*
X5076Y509D01*
X4912Y433D02*
X4960D01*
X4888Y457D02*
X4912Y433D01*
X4886Y457D02*
X4888D01*
X4806D02*
X4886D01*
X4726D02*
X4806D01*
X4646D02*
X4726D01*
X4566D02*
X4646D01*
X4486D02*
X4566D01*
X4406D02*
X4486D01*
X4326D02*
X4406D01*
X4728Y520D02*
X4728Y521D01*
X4726Y520D02*
X4728D01*
X563Y516D02*
X618Y461D01*
X536Y543D02*
Y733D01*
Y543D02*
X563Y516D01*
X2759Y907D02*
X2766D01*
X904Y547D02*
X1091Y547D01*
X817Y461D02*
X904Y547D01*
X618Y461D02*
X817Y461D01*
X2710Y907D02*
X2759D01*
X2599Y1018D02*
X2710Y907D01*
X2500Y1018D02*
X2599D01*
X2695Y770D02*
X2795D01*
X2628Y703D02*
X2695Y770D01*
X2500Y703D02*
X2628D01*
D117*
X625Y733D02*
X645D01*
X809Y1218D02*
X904Y1123D01*
X574Y1218D02*
X809D01*
X565Y1209D02*
X574Y1218D01*
X562Y1150D02*
Y1172D01*
X1713Y1215D02*
X1718Y1220D01*
X815Y1238D02*
X923Y1130D01*
X484Y1238D02*
X815D01*
X435Y1190D02*
X484Y1238D01*
X605Y1095D02*
Y1155D01*
X580Y1070D02*
X605Y1095D01*
X580Y990D02*
Y1070D01*
X530Y940D02*
X580Y990D01*
X530Y856D02*
Y940D01*
X565Y1188D02*
Y1209D01*
X500Y1050D02*
X510D01*
X1825Y589D02*
Y683D01*
X1799Y709D02*
X1825Y683D01*
X1754Y709D02*
X1799D01*
X536Y733D02*
X625D01*
X625Y733D01*
X530Y739D02*
Y856D01*
X577D01*
X904Y1050D02*
Y1123D01*
X1712Y1214D02*
X1713Y1215D01*
X1718D01*
X1145D02*
X1713D01*
X1120Y1190D02*
X1145Y1215D01*
X1120Y1152D02*
Y1190D01*
X1098Y1130D02*
X1120Y1152D01*
X923Y1130D02*
X1098D01*
X904Y1050D02*
X904Y1050D01*
Y981D02*
Y1050D01*
X922Y963D02*
X1098D01*
X904Y981D02*
X922Y963D01*
X1098D02*
X1110Y951D01*
Y934D02*
Y951D01*
X645Y733D02*
X654Y724D01*
X625Y832D02*
X644D01*
X654Y842D02*
X676D01*
X705D01*
X577Y856D02*
X601Y832D01*
X654Y724D02*
X676D01*
X530Y739D02*
X536Y733D01*
X601Y832D02*
X625D01*
X644D02*
X654Y842D01*
X2754Y1125D02*
Y1165D01*
X2745Y1116D02*
X2754Y1125D01*
X2530Y1116D02*
X2745D01*
X1976Y1202D02*
X2007Y1233D01*
X2517D01*
X2579Y1170D01*
X2585D01*
X1976Y1174D02*
Y1202D01*
Y1174D02*
X1978Y1172D01*
X1963Y1215D02*
X1976Y1202D01*
X1718Y1215D02*
X1963D01*
X1718Y1163D02*
X1792D01*
X2503Y1143D02*
X2530Y1116D01*
X2503Y1143D02*
Y1190D01*
X2485Y1208D02*
X2503Y1190D01*
X2186Y1208D02*
X2485D01*
X2161Y1183D02*
X2186Y1208D01*
X2097D02*
X2146Y1159D01*
X1792Y1163D02*
X1798Y1169D01*
X1069Y801D02*
X1095Y827D01*
X1062Y801D02*
X1069D01*
X1041Y852D02*
X1083Y893D01*
X1041Y821D02*
Y852D01*
X1095Y827D02*
X1224D01*
X1375Y531D02*
X1382Y524D01*
X1455D01*
X1291D02*
X1298Y531D01*
X1218Y524D02*
X1291D01*
X1110Y899D02*
X1121D01*
X1147Y925D01*
X1161D01*
X1196D01*
X1083Y893D02*
Y923D01*
X1533Y772D02*
Y838D01*
Y1070D02*
Y1134D01*
X1092Y933D02*
X1103D01*
X1083Y923D02*
X1092Y933D01*
D118*
X3568Y535D02*
X3595D01*
X3520D02*
X3568D01*
X3595D02*
X3595D01*
X3409Y570D02*
X3485D01*
X3520Y535D01*
D119*
X3564Y566D02*
X3587Y588D01*
X3548Y627D02*
X3587Y588D01*
X3151Y550D02*
X3171Y570D01*
X3666Y915D02*
X3727D01*
X3666Y916D02*
X3666Y915D01*
X1379Y721D02*
X1405Y695D01*
X948Y999D02*
Y1017D01*
X1128Y1093D02*
X1165Y1130D01*
X1205Y1071D02*
Y1130D01*
X3005Y909D02*
X3006Y907D01*
X3006Y909D02*
Y973D01*
X3936Y1027D02*
X3936Y1027D01*
X3680Y779D02*
X3727D01*
X3635Y791D02*
X3647Y779D01*
X3680D01*
X3635Y791D02*
Y887D01*
X3664Y916D01*
X3666D01*
X2265Y592D02*
X2284D01*
X3006Y974D02*
X3050Y1018D01*
X3006Y973D02*
Y974D01*
X1451Y695D02*
X1472Y716D01*
X1405Y695D02*
X1451D01*
X1956Y598D02*
X1965Y589D01*
X4000Y1027D02*
X4001Y1027D01*
X3936Y1027D02*
X4000D01*
X3794Y851D02*
Y915D01*
Y788D02*
Y851D01*
X3878Y624D02*
X3879Y624D01*
Y666D01*
X3879Y667D01*
X3835Y625D02*
X3837Y624D01*
X3835Y625D02*
Y665D01*
X3833Y667D02*
X3835Y665D01*
X5056Y868D02*
X5078Y890D01*
X5005Y868D02*
X5056D01*
X5076Y812D02*
X5078Y811D01*
X5005Y812D02*
X5076D01*
X5390Y962D02*
Y1032D01*
Y618D02*
Y688D01*
X5020Y1179D02*
Y1202D01*
X5005Y1163D02*
X5020Y1179D01*
X4970Y1163D02*
X5005D01*
X5020Y1202D02*
X5038Y1220D01*
X5065D01*
X948Y999D02*
X998D01*
X1005Y992D01*
X1054D01*
X1024Y1093D02*
X1128D01*
X948Y1017D02*
X1024Y1093D01*
X1165Y1130D02*
X1205D01*
X2265Y685D02*
X2458D01*
X2443Y670D02*
X2458Y685D01*
X2301Y615D02*
X2331D01*
X2266Y650D02*
X2301Y615D01*
X2299Y577D02*
X2329D01*
X2284Y592D02*
X2299Y577D01*
X2265Y550D02*
X2278Y537D01*
X2331D01*
X1657Y1134D02*
X1709Y1083D01*
X1578Y1134D02*
X1657D01*
X2294Y815D02*
X2390Y911D01*
Y1068D02*
X2406Y1083D01*
X2390Y911D02*
Y1068D01*
X2381Y1108D02*
X2406Y1083D01*
X2381Y1108D02*
Y1157D01*
X2374D02*
X2381D01*
X2896Y1083D02*
X3006Y973D01*
X2406Y1083D02*
X2896D01*
X2083Y959D02*
X2161D01*
X2016D02*
X2083D01*
X2213Y1011D02*
Y1087D01*
X2161Y959D02*
X2213Y1011D01*
X2055Y815D02*
X2294D01*
X2003Y763D02*
X2055Y815D01*
X1969Y763D02*
X2003D01*
X3005Y909D02*
X3006Y909D01*
X1956Y750D02*
X1969Y763D01*
X1956Y724D02*
Y750D01*
X1903Y803D02*
Y806D01*
Y803D02*
X1956Y750D01*
X2200Y712D02*
Y773D01*
X2150Y662D02*
X2200Y712D01*
X2150Y621D02*
Y662D01*
X1472Y716D02*
Y752D01*
X1990Y933D02*
X2016Y959D01*
X1749Y775D02*
X1872D01*
X1713Y811D02*
X1749Y775D01*
X1665Y771D02*
X1709Y815D01*
X1556Y771D02*
X1665D01*
X1709Y815D02*
Y1083D01*
X1492Y771D02*
X1511D01*
X1472Y752D02*
X1492Y771D01*
X1511Y772D02*
X1533D01*
X1511Y771D02*
X1511Y772D01*
X1533Y771D02*
X1556D01*
X1533Y772D02*
X1533Y771D01*
X1384Y1146D02*
X1395Y1134D01*
X1235Y1146D02*
X1384D01*
X1221Y1132D02*
X1235Y1146D01*
X1207Y1132D02*
X1221D01*
X1205Y1130D02*
X1207Y1132D01*
X1395Y1134D02*
X1488D01*
X1533D02*
X1578D01*
X1488D02*
X1533D01*
X1872Y775D02*
X1903Y806D01*
Y893D01*
X1890Y906D02*
X1903Y893D01*
X1890Y906D02*
Y933D01*
X3006Y830D02*
Y907D01*
Y750D02*
Y830D01*
X3075Y750D02*
X3154D01*
X3075Y830D02*
X3154D01*
X3075Y910D02*
X3154D01*
X2150Y621D02*
X2176Y594D01*
X2215D01*
X2265Y550D02*
X2265Y550D01*
X2215Y550D02*
X2265D01*
X2215Y549D02*
X2215Y550D01*
X2265Y592D02*
Y595D01*
X2458Y685D02*
X2476Y703D01*
X2500D01*
X2265Y650D02*
X2266D01*
X2264Y649D02*
X2265Y650D01*
X2201Y649D02*
X2264D01*
X2200Y649D02*
X2201Y649D01*
D120*
X2518Y510D02*
X2580D01*
Y519D01*
X2513Y576D02*
X2520Y569D01*
Y523D02*
Y569D01*
X2498Y501D02*
X2520Y523D01*
X2512Y515D02*
X2518Y510D01*
X2513Y576D02*
X2523Y586D01*
X1526Y501D02*
X2498D01*
X3666Y916D02*
X3666Y916D01*
X4464Y1075D02*
X4467Y1078D01*
X4464Y1035D02*
Y1075D01*
X4405Y976D02*
X4464Y1035D01*
X4405Y974D02*
Y976D01*
Y974D02*
X4605D01*
X4896Y1209D02*
X4937D01*
X4136Y1209D02*
X4176D01*
X4125Y1198D02*
X4136Y1209D01*
X4125Y1053D02*
Y1198D01*
X1318Y705D02*
X1371Y652D01*
X1493D01*
X1511Y634D01*
Y516D02*
Y634D01*
Y516D02*
X1526Y501D01*
X562Y1102D02*
Y1150D01*
X510Y1050D02*
X562Y1102D01*
X3950Y525D02*
Y600D01*
X1685Y612D02*
Y691D01*
X1703Y709D01*
X4019Y525D02*
X4060D01*
X4002Y542D02*
X4019Y525D01*
X4002Y542D02*
Y601D01*
X4415Y1146D02*
X4416Y1146D01*
X4415Y1080D02*
Y1146D01*
X4415Y1080D02*
X4415Y1080D01*
X4126Y581D02*
Y590D01*
X4945Y1217D02*
X4970D01*
X4937Y1209D02*
X4945Y1217D01*
X2298Y1157D02*
X2374D01*
X1193Y679D02*
X1200D01*
X1166Y706D02*
X1193Y679D01*
X1113Y706D02*
X1166D01*
X1109Y710D02*
X1113Y706D01*
X1318Y705D02*
Y828D01*
X1200Y679D02*
X1233D01*
D121*
X3015Y550D02*
X3151D01*
X1956Y598D02*
Y724D01*
D122*
X4705Y928D02*
X4835Y798D01*
X4705Y928D02*
Y1129D01*
X5118Y1072D02*
X5162D01*
X5075D02*
X5118D01*
X5215Y987D02*
X5244D01*
X5162D02*
X5215D01*
X5075D02*
X5162D01*
X5012Y1072D02*
X5075D01*
X4910Y981D02*
X4921D01*
X4860D02*
X4910D01*
X4810D02*
X4860D01*
X4810Y976D02*
X4910D01*
X4921Y981D02*
X5012Y1072D01*
X4810Y976D02*
Y981D01*
X4605Y734D02*
X4905D01*
X5260Y644D02*
X5286Y618D01*
X5265Y598D02*
X5286Y618D01*
X5265Y498D02*
Y598D01*
X5390Y1032D02*
X5690D01*
X5289D02*
X5390D01*
Y618D02*
X5690D01*
X5286D02*
X5390D01*
X5320Y704D02*
Y750D01*
X5260Y644D02*
X5320Y704D01*
X5244Y987D02*
X5289Y1032D01*
X5320Y800D02*
Y850D01*
Y750D02*
Y800D01*
D123*
X625Y622D02*
Y661D01*
Y622D02*
X634Y613D01*
X625Y932D02*
X645Y953D01*
X625Y905D02*
Y932D01*
X645Y953D02*
X660D01*
X634Y613D02*
X660D01*
X2445Y576D02*
X2513D01*
X2435Y615D02*
Y615D01*
X2439D02*
Y670D01*
X2443D01*
X2523Y576D02*
Y586D01*
D124*
X2170Y773D02*
X2200D01*
X2121Y724D02*
X2170Y773D01*
X2080Y724D02*
X2121D01*
X2200Y773D02*
X2362D01*
X2500Y911D02*
Y1018D01*
X2362Y773D02*
X2500Y911D01*
D125*
X3135Y1018D02*
D03*
X710Y1172D02*
D03*
X3390Y730D02*
D03*
Y980D02*
D03*
X745Y1032D02*
D03*
X3390Y817D02*
D03*
Y900D02*
D03*
X3050Y1018D02*
D03*
X1570Y668D02*
D03*
D126*
X500Y1050D02*
D03*
X1965Y589D02*
D03*
X1825D02*
D03*
X1685Y586D02*
D03*
X4486Y623D02*
D03*
X3589Y545D02*
D03*
X3015Y550D02*
D03*
D127*
X4069Y860D02*
D03*
Y774D02*
D03*
X3982Y860D02*
D03*
Y774D02*
D03*
X4025Y860D02*
D03*
X4069Y817D02*
D03*
X3982D02*
D03*
X4025Y775D02*
D03*
Y817D02*
D03*
X5129Y890D02*
D03*
X5172D02*
D03*
X5216D02*
D03*
X5129Y847D02*
D03*
X5172D02*
D03*
X5216D02*
D03*
X5129Y803D02*
D03*
X5172D02*
D03*
X5216D02*
D03*
X5129Y760D02*
D03*
X5172D02*
D03*
X5216D02*
D03*
X4770Y790D02*
D03*
Y834D02*
D03*
Y877D02*
D03*
X4813Y790D02*
D03*
Y834D02*
D03*
Y877D02*
D03*
X4857Y790D02*
D03*
Y834D02*
D03*
Y877D02*
D03*
X4900Y790D02*
D03*
Y834D02*
D03*
Y877D02*
D03*
X5219Y495D02*
D03*
X5175D02*
D03*
X5132D02*
D03*
X5219Y538D02*
D03*
X5175D02*
D03*
X5132D02*
D03*
X5219Y582D02*
D03*
X5175D02*
D03*
X5132D02*
D03*
X5219Y625D02*
D03*
X5175D02*
D03*
X5132D02*
D03*
X5075Y1029D02*
D03*
Y1072D02*
D03*
Y1116D02*
D03*
X5118Y1029D02*
D03*
Y1072D02*
D03*
Y1116D02*
D03*
X5162Y1029D02*
D03*
Y1072D02*
D03*
Y1116D02*
D03*
X5205Y1029D02*
D03*
Y1072D02*
D03*
Y1116D02*
D03*
X1298Y1028D02*
D03*
Y985D02*
D03*
Y941D02*
D03*
X1255Y1028D02*
D03*
Y985D02*
D03*
Y941D02*
D03*
X1212Y1028D02*
D03*
Y985D02*
D03*
Y941D02*
D03*
D128*
X449Y953D02*
D03*
Y613D02*
D03*
D129*
X660Y953D02*
D03*
Y613D02*
D03*
D130*
X4214Y571D02*
D03*
X4213Y611D02*
D03*
X4195Y590D02*
D03*
X4180Y610D02*
D03*
Y570D02*
D03*
X3900Y887D02*
D03*
X3240Y748D02*
D03*
X4171Y801D02*
D03*
X4106Y649D02*
D03*
X4055Y705D02*
D03*
X4640Y1004D02*
D03*
X4610D02*
D03*
X4575Y1004D02*
D03*
X4406Y1004D02*
D03*
X4375D02*
D03*
X4435D02*
D03*
X5215Y1210D02*
D03*
X5165D02*
D03*
X5115Y1210D02*
D03*
X5005Y778D02*
D03*
X5005Y922D02*
D03*
X4780Y934D02*
D03*
X3727Y915D02*
D03*
X3497Y630D02*
D03*
X3727Y779D02*
D03*
X3680D02*
D03*
X3655Y726D02*
D03*
X3695Y596D02*
D03*
X3769D02*
D03*
X3878Y589D02*
D03*
X3837D02*
D03*
X4960Y433D02*
D03*
X4886Y457D02*
D03*
X4806D02*
D03*
X4726D02*
D03*
X4646D02*
D03*
X4566D02*
D03*
X4486D02*
D03*
X4406D02*
D03*
X4326D02*
D03*
X4467Y1078D02*
D03*
X4970Y1217D02*
D03*
X4896Y1209D02*
D03*
X4816Y1209D02*
D03*
X4736D02*
D03*
X4656D02*
D03*
X4576Y1209D02*
D03*
X4496D02*
D03*
X4416D02*
D03*
X4336D02*
D03*
X4256D02*
D03*
X4180Y1209D02*
D03*
X4065Y1205D02*
D03*
X4006Y1215D02*
D03*
X3730Y1140D02*
D03*
X3665Y1141D02*
D03*
X3602Y1215D02*
D03*
X3549Y893D02*
D03*
X3548Y954D02*
D03*
Y1022D02*
D03*
Y1085D02*
D03*
X1395Y915D02*
D03*
X3440Y738D02*
D03*
X4330Y1058D02*
D03*
X3497Y676D02*
D03*
X3556Y803D02*
D03*
X3555Y740D02*
D03*
X3890Y825D02*
D03*
X3845Y790D02*
D03*
X3499Y803D02*
D03*
X3953Y697D02*
D03*
X3760Y790D02*
D03*
X4295Y990D02*
D03*
X4125D02*
D03*
X4324Y645D02*
D03*
Y922D02*
D03*
X4215Y1009D02*
D03*
X4176Y872D02*
D03*
X4195Y1092D02*
D03*
X4215Y920D02*
D03*
Y890D02*
D03*
X3954Y1152D02*
D03*
X3935Y1028D02*
D03*
X3795Y920D02*
D03*
X3792Y968D02*
D03*
X4135Y802D02*
D03*
X4180Y737D02*
D03*
X4140Y754D02*
D03*
X4119Y691D02*
D03*
X3549Y1150D02*
D03*
X3727Y967D02*
D03*
X4080Y705D02*
D03*
X4170Y840D02*
D03*
X4190Y672D02*
D03*
X3920Y748D02*
D03*
X3915Y860D02*
D03*
X3601Y954D02*
D03*
Y893D02*
D03*
X3880Y1100D02*
D03*
X4135Y922D02*
D03*
X3727Y814D02*
D03*
X4970Y1163D02*
D03*
X5279Y900D02*
D03*
X5390Y904D02*
D03*
Y745D02*
D03*
X4160Y510D02*
D03*
X4960Y485D02*
D03*
X1584Y819D02*
D03*
X555Y767D02*
D03*
X605Y1155D02*
D03*
X948Y1074D02*
D03*
X774Y1152D02*
D03*
X824Y1151D02*
D03*
X705Y842D02*
D03*
X716Y822D02*
D03*
X595Y787D02*
D03*
X705Y802D02*
D03*
X652Y665D02*
D03*
X575Y801D02*
D03*
X835Y736D02*
D03*
X845Y828D02*
D03*
X885Y829D02*
D03*
X2329Y577D02*
D03*
X812Y687D02*
D03*
X2435Y1157D02*
D03*
X1021Y762D02*
D03*
X1041Y762D02*
D03*
X1061Y762D02*
D03*
X1041Y801D02*
D03*
Y782D02*
D03*
X1061Y821D02*
D03*
X1021Y801D02*
D03*
X1046Y691D02*
D03*
X956Y721D02*
D03*
X1002Y801D02*
D03*
X982D02*
D03*
X1002Y821D02*
D03*
X1021Y866D02*
D03*
X915Y901D02*
D03*
X883Y801D02*
D03*
X982Y762D02*
D03*
X917Y782D02*
D03*
X982Y721D02*
D03*
X840Y940D02*
D03*
X800Y980D02*
D03*
X1097Y801D02*
D03*
X927Y736D02*
D03*
X878Y1028D02*
D03*
Y1092D02*
D03*
X824Y1092D02*
D03*
X1052Y940D02*
D03*
X1008Y941D02*
D03*
X1225Y828D02*
D03*
X1224Y792D02*
D03*
X1456Y605D02*
D03*
X1428Y726D02*
D03*
X2876Y910D02*
D03*
X2795Y601D02*
D03*
X2637Y586D02*
D03*
X1205Y1165D02*
D03*
X1160D02*
D03*
X1578Y1169D02*
D03*
X1533D02*
D03*
X1488D02*
D03*
X1559Y1070D02*
D03*
X1556Y737D02*
D03*
X1511D02*
D03*
X1390Y952D02*
D03*
Y886D02*
D03*
X1754Y709D02*
D03*
X1635Y819D02*
D03*
X1272Y1122D02*
D03*
X1235Y1106D02*
D03*
X1635Y1070D02*
D03*
X1752Y922D02*
D03*
X1507Y838D02*
D03*
X1921Y952D02*
D03*
Y1000D02*
D03*
X1482Y838D02*
D03*
X1456D02*
D03*
X1160Y852D02*
D03*
Y801D02*
D03*
Y754D02*
D03*
X1002Y640D02*
D03*
X3240Y829D02*
D03*
Y909D02*
D03*
X1456Y1069D02*
D03*
X1431D02*
D03*
X1584Y1022D02*
D03*
X1610D02*
D03*
X1906Y1026D02*
D03*
X780Y785D02*
D03*
X574Y586D02*
D03*
D131*
X2580Y510D02*
D03*
X2213Y1115D02*
D03*
X1109Y710D02*
D03*
X1318Y828D02*
D03*
X1237Y683D02*
D03*
M02*
